<?xml version="1.0" encoding="UTF-8" standalone="no"?>
<!DOCTYPE svg PUBLIC "-//W3C//DTD SVG 1.1//EN"
 "http://www.w3.org/Graphics/SVG/1.1/DTD/svg11.dtd">
<!-- Generated by graphviz version 2.43.0 (0)
 -->
<!-- Title: QuantConnect.Orders.OrderSizing.AdjustByLotSize Pages: 1 -->
<svg width="649pt" height="200pt"
 viewBox="0.00 0.00 649.00 199.50" xmlns="http://www.w3.org/2000/svg" xmlns:xlink="http://www.w3.org/1999/xlink">
<g id="graph0" class="graph" transform="scale(1 1) rotate(0) translate(4 195.5)">
<title>QuantConnect.Orders.OrderSizing.AdjustByLotSize</title>
<polygon fill="white" stroke="transparent" points="-4,4 -4,-195.5 645,-195.5 645,4 -4,4"/>
<!-- Node1 -->
<g id="node1" class="node">
<title>Node1</title>
<g id="a_node1"><a xlink:title="Adjusts the provided order quantity to respect the securities lot size. If the quantity is missing 1M...">
<polygon fill="#bfbfbf" stroke="black" points="490,-73.5 490,-103.5 641,-103.5 641,-73.5 490,-73.5"/>
<text text-anchor="start" x="498" y="-91.5" font-family="Helvetica,sans-Serif" font-size="10.00">QuantConnect.Orders.Order</text>
<text text-anchor="middle" x="565.5" y="-80.5" font-family="Helvetica,sans-Serif" font-size="10.00">Sizing.AdjustByLotSize</text>
</a>
</g>
</g>
<!-- Node2 -->
<g id="node2" class="node">
<title>Node2</title>
<g id="a_node2"><a xlink:href="classQuantConnect_1_1Orders_1_1OrderSizing.html#a3e48c76e210bb2b4146ac9597990e3f0" target="_top" xlink:title="Adjust the provided order size to respect the maximum total order value">
<polygon fill="white" stroke="black" points="249,-150.5 249,-180.5 454,-180.5 454,-150.5 249,-150.5"/>
<text text-anchor="start" x="257" y="-168.5" font-family="Helvetica,sans-Serif" font-size="10.00">QuantConnect.Orders.Order</text>
<text text-anchor="middle" x="351.5" y="-157.5" font-family="Helvetica,sans-Serif" font-size="10.00">Sizing.GetOrderSizeForMaximumValue</text>
</a>
</g>
</g>
<!-- Node1&#45;&gt;Node2 -->
<g id="edge1" class="edge">
<title>Node1&#45;&gt;Node2</title>
<path fill="none" stroke="midnightblue" d="M525.4,-108.1C504.55,-118.06 478.25,-129.85 454,-138.5 441.72,-142.88 428.38,-146.92 415.53,-150.46"/>
<polygon fill="midnightblue" stroke="midnightblue" points="527.09,-111.17 534.57,-103.67 524.04,-104.87 527.09,-111.17"/>
</g>
<!-- Node4 -->
<g id="node4" class="node">
<title>Node4</title>
<g id="a_node4"><a xlink:href="classQuantConnect_1_1Orders_1_1OrderSizing.html#a7330ef57815b43091812652a2ca8eba9" target="_top" xlink:title="Adjust the provided order size to respect maximum order size based on a percentage of current volume.">
<polygon fill="white" stroke="black" points="250.5,-98.5 250.5,-128.5 452.5,-128.5 452.5,-98.5 250.5,-98.5"/>
<text text-anchor="start" x="258.5" y="-116.5" font-family="Helvetica,sans-Serif" font-size="10.00">QuantConnect.Orders.Order</text>
<text text-anchor="middle" x="351.5" y="-105.5" font-family="Helvetica,sans-Serif" font-size="10.00">Sizing.GetOrderSizeForPercentVolume</text>
</a>
</g>
</g>
<!-- Node1&#45;&gt;Node4 -->
<g id="edge3" class="edge">
<title>Node1&#45;&gt;Node4</title>
<path fill="none" stroke="midnightblue" d="M479.76,-98.49C470.82,-99.55 461.66,-100.63 452.56,-101.7"/>
<polygon fill="midnightblue" stroke="midnightblue" points="480.24,-101.96 489.76,-97.31 479.42,-95.01 480.24,-101.96"/>
</g>
<!-- Node6 -->
<g id="node6" class="node">
<title>Node6</title>
<g id="a_node6"><a xlink:href="classQuantConnect_1_1Orders_1_1OrderSizing.html#a406fac89ae2f7848547a78a714a4cc1e" target="_top" xlink:title="Gets the remaining quantity to be ordered to reach the specified target quantity.">
<polygon fill="white" stroke="black" points="272,-49.5 272,-79.5 431,-79.5 431,-49.5 272,-49.5"/>
<text text-anchor="start" x="280" y="-67.5" font-family="Helvetica,sans-Serif" font-size="10.00">QuantConnect.Orders.Order</text>
<text text-anchor="middle" x="351.5" y="-56.5" font-family="Helvetica,sans-Serif" font-size="10.00">Sizing.GetUnorderedQuantity</text>
</a>
</g>
</g>
<!-- Node1&#45;&gt;Node6 -->
<g id="edge5" class="edge">
<title>Node1&#45;&gt;Node6</title>
<path fill="none" stroke="midnightblue" d="M479.41,-78.87C463.51,-77.07 446.94,-75.19 431.24,-73.41"/>
<polygon fill="midnightblue" stroke="midnightblue" points="479.43,-82.39 489.76,-80.04 480.21,-75.44 479.43,-82.39"/>
</g>
<!-- Node7 -->
<g id="node7" class="node">
<title>Node7</title>
<g id="a_node7"><a xlink:href="classQuantConnect_1_1Extensions.html#ad61bf8062f8b312611ac055c580d05f0" target="_top" xlink:title="Returns an ordered enumerable where position reducing orders are executed first and the remaining ord...">
<polygon fill="white" stroke="black" points="272,-0.5 272,-30.5 431,-30.5 431,-0.5 272,-0.5"/>
<text text-anchor="start" x="280" y="-18.5" font-family="Helvetica,sans-Serif" font-size="10.00">QuantConnect.Extensions.</text>
<text text-anchor="middle" x="351.5" y="-7.5" font-family="Helvetica,sans-Serif" font-size="10.00">OrderTargetsByMarginImpact</text>
</a>
</g>
</g>
<!-- Node1&#45;&gt;Node7 -->
<g id="edge6" class="edge">
<title>Node1&#45;&gt;Node7</title>
<path fill="none" stroke="midnightblue" d="M524.49,-69.18C503.78,-59.68 477.89,-48.57 454,-40.5 443.25,-36.87 431.7,-33.52 420.39,-30.54"/>
<polygon fill="midnightblue" stroke="midnightblue" points="523.07,-72.38 533.62,-73.41 526.02,-66.03 523.07,-72.38"/>
</g>
<!-- Node3 -->
<g id="node3" class="node">
<title>Node3</title>
<g id="a_node3"><a xlink:href="classQuantConnect_1_1Algorithm_1_1Framework_1_1Execution_1_1StandardDeviationExecutionModel.html#a7b2f5bc880cedfe6ed0c30cdc5c9df17" target="_top" xlink:title="Executes market orders if the standard deviation of price is more than the configured number of devia...">
<polygon fill="white" stroke="black" points="4,-150 4,-191 209,-191 209,-150 4,-150"/>
<text text-anchor="start" x="12" y="-179" font-family="Helvetica,sans-Serif" font-size="10.00">QuantConnect.Algorithm.Framework.</text>
<text text-anchor="start" x="12" y="-168" font-family="Helvetica,sans-Serif" font-size="10.00">Execution.StandardDeviationExecution</text>
<text text-anchor="middle" x="106.5" y="-157" font-family="Helvetica,sans-Serif" font-size="10.00">Model.Execute</text>
</a>
</g>
</g>
<!-- Node2&#45;&gt;Node3 -->
<g id="edge2" class="edge">
<title>Node2&#45;&gt;Node3</title>
<path fill="none" stroke="midnightblue" d="M238.64,-167.8C228.8,-168 218.88,-168.21 209.13,-168.41"/>
<polygon fill="midnightblue" stroke="midnightblue" points="238.93,-171.3 248.85,-167.59 238.78,-164.3 238.93,-171.3"/>
</g>
<!-- Node5 -->
<g id="node5" class="node">
<title>Node5</title>
<g id="a_node5"><a xlink:href="classQuantConnect_1_1Algorithm_1_1Framework_1_1Execution_1_1VolumeWeightedAveragePriceExecutionModel.html#ae0bd79cb99f23a4180fce80f263ec671" target="_top" xlink:title="Submit orders for the specified portfolio targets. This model is free to delay or spread out these or...">
<polygon fill="white" stroke="black" points="0,-90 0,-131 213,-131 213,-90 0,-90"/>
<text text-anchor="start" x="8" y="-119" font-family="Helvetica,sans-Serif" font-size="10.00">QuantConnect.Algorithm.Framework.</text>
<text text-anchor="start" x="8" y="-108" font-family="Helvetica,sans-Serif" font-size="10.00">Execution.VolumeWeightedAveragePrice</text>
<text text-anchor="middle" x="106.5" y="-97" font-family="Helvetica,sans-Serif" font-size="10.00">ExecutionModel.Execute</text>
</a>
</g>
</g>
<!-- Node4&#45;&gt;Node5 -->
<g id="edge4" class="edge">
<title>Node4&#45;&gt;Node5</title>
<path fill="none" stroke="midnightblue" d="M240.12,-112.14C231.1,-112.03 222,-111.91 213.02,-111.8"/>
<polygon fill="midnightblue" stroke="midnightblue" points="240.22,-115.64 250.26,-112.26 240.3,-108.64 240.22,-115.64"/>
</g>
</g>
</svg>
