<?xml version="1.0" encoding="UTF-8" standalone="no"?>
<!DOCTYPE svg PUBLIC "-//W3C//DTD SVG 1.1//EN"
 "http://www.w3.org/Graphics/SVG/1.1/DTD/svg11.dtd">
<!-- Generated by graphviz version 2.43.0 (0)
 -->
<!-- Title: QuantConnect.Benchmarks.SecurityBenchmark.SecurityBenchmark Pages: 1 -->
<svg width="689pt" height="529pt"
 viewBox="0.00 0.00 689.00 529.00" xmlns="http://www.w3.org/2000/svg" xmlns:xlink="http://www.w3.org/1999/xlink">
<g id="graph0" class="graph" transform="scale(1 1) rotate(0) translate(4 525)">
<title>QuantConnect.Benchmarks.SecurityBenchmark.SecurityBenchmark</title>
<polygon fill="white" stroke="transparent" points="-4,4 -4,-525 685,-525 685,4 -4,4"/>
<!-- Node1 -->
<g id="node1" class="node">
<title>Node1</title>
<g id="a_node1"><a xlink:title="Initializes a new instance of the SecurityBenchmark class">
<polygon fill="#bfbfbf" stroke="black" points="471,-245.5 471,-275.5 681,-275.5 681,-245.5 471,-245.5"/>
<text text-anchor="start" x="479" y="-263.5" font-family="Helvetica,sans-Serif" font-size="10.00">QuantConnect.Benchmarks.</text>
<text text-anchor="middle" x="576" y="-252.5" font-family="Helvetica,sans-Serif" font-size="10.00">SecurityBenchmark.SecurityBenchmark</text>
</a>
</g>
</g>
<!-- Node2 -->
<g id="node2" class="node">
<title>Node2</title>
<g id="a_node2"><a xlink:href="classQuantConnect_1_1Benchmarks_1_1SecurityBenchmark.html#a40c97e12584a0fc70ffb48f9aead3287" target="_top" xlink:title="Helper function that will create a security with the given SecurityManager for a specific symbol and ...">
<polygon fill="white" stroke="black" points="247,-245.5 247,-275.5 435,-275.5 435,-245.5 247,-245.5"/>
<text text-anchor="start" x="255" y="-263.5" font-family="Helvetica,sans-Serif" font-size="10.00">QuantConnect.Benchmarks.</text>
<text text-anchor="middle" x="341" y="-252.5" font-family="Helvetica,sans-Serif" font-size="10.00">SecurityBenchmark.CreateInstance</text>
</a>
</g>
</g>
<!-- Node1&#45;&gt;Node2 -->
<g id="edge1" class="edge">
<title>Node1&#45;&gt;Node2</title>
<path fill="none" stroke="midnightblue" d="M460.72,-260.5C452.14,-260.5 443.55,-260.5 435.13,-260.5"/>
<polygon fill="midnightblue" stroke="midnightblue" points="460.77,-264 470.77,-260.5 460.77,-257 460.77,-264"/>
</g>
<!-- Node3 -->
<g id="node3" class="node">
<title>Node3</title>
<g id="a_node3"><a xlink:href="classQuantConnect_1_1Brokerages_1_1ExanteBrokerageModel.html#ae5cd590d0fdd7dfc5ef760fa6c7bc6dd" target="_top" xlink:title="Get the benchmark for this model">
<polygon fill="white" stroke="black" points="2.5,-490.5 2.5,-520.5 208.5,-520.5 208.5,-490.5 2.5,-490.5"/>
<text text-anchor="start" x="10.5" y="-508.5" font-family="Helvetica,sans-Serif" font-size="10.00">QuantConnect.Brokerages.</text>
<text text-anchor="middle" x="105.5" y="-497.5" font-family="Helvetica,sans-Serif" font-size="10.00">ExanteBrokerageModel.GetBenchmark</text>
</a>
</g>
</g>
<!-- Node2&#45;&gt;Node3 -->
<g id="edge2" class="edge">
<title>Node2&#45;&gt;Node3</title>
<path fill="none" stroke="midnightblue" d="M332.74,-285.53C317.94,-331.88 279.73,-430.95 211,-481.5 206.35,-484.92 201.3,-487.86 196,-490.39"/>
<polygon fill="midnightblue" stroke="midnightblue" points="336.16,-286.29 335.77,-275.7 329.48,-284.22 336.16,-286.29"/>
</g>
<!-- Node4 -->
<g id="node4" class="node">
<title>Node4</title>
<g id="a_node4"><a xlink:href="classQuantConnect_1_1Brokerages_1_1GDAXBrokerageModel.html#a796917ae553239b95dc5d9161eff9457" target="_top" xlink:title="Get the benchmark for this model">
<polygon fill="white" stroke="black" points="5.5,-441.5 5.5,-471.5 205.5,-471.5 205.5,-441.5 5.5,-441.5"/>
<text text-anchor="start" x="13.5" y="-459.5" font-family="Helvetica,sans-Serif" font-size="10.00">QuantConnect.Brokerages.</text>
<text text-anchor="middle" x="105.5" y="-448.5" font-family="Helvetica,sans-Serif" font-size="10.00">GDAXBrokerageModel.GetBenchmark</text>
</a>
</g>
</g>
<!-- Node2&#45;&gt;Node4 -->
<g id="edge3" class="edge">
<title>Node2&#45;&gt;Node4</title>
<path fill="none" stroke="midnightblue" d="M328.67,-285.03C309.85,-322.91 268.45,-395.14 211,-432.5 205.69,-435.95 199.95,-438.91 193.99,-441.44"/>
<polygon fill="midnightblue" stroke="midnightblue" points="331.95,-286.27 333.17,-275.75 325.65,-283.22 331.95,-286.27"/>
</g>
<!-- Node5 -->
<g id="node5" class="node">
<title>Node5</title>
<g id="a_node5"><a xlink:href="classQuantConnect_1_1Brokerages_1_1BinanceBrokerageModel.html#a89a19635165af08e3a577176abcdea1b" target="_top" xlink:title="Get the benchmark for this model">
<polygon fill="white" stroke="black" points="0,-392.5 0,-422.5 211,-422.5 211,-392.5 0,-392.5"/>
<text text-anchor="start" x="8" y="-410.5" font-family="Helvetica,sans-Serif" font-size="10.00">QuantConnect.Brokerages.</text>
<text text-anchor="middle" x="105.5" y="-399.5" font-family="Helvetica,sans-Serif" font-size="10.00">BinanceBrokerageModel.GetBenchmark</text>
</a>
</g>
</g>
<!-- Node2&#45;&gt;Node5 -->
<g id="edge4" class="edge">
<title>Node2&#45;&gt;Node5</title>
<path fill="none" stroke="midnightblue" d="M322.3,-283.74C299.64,-311.82 257.67,-358.38 211,-383.5 204.61,-386.94 197.74,-389.89 190.68,-392.42"/>
<polygon fill="midnightblue" stroke="midnightblue" points="325.23,-285.68 328.7,-275.67 319.75,-281.33 325.23,-285.68"/>
</g>
<!-- Node6 -->
<g id="node6" class="node">
<title>Node6</title>
<g id="a_node6"><a xlink:href="classQuantConnect_1_1Brokerages_1_1BitfinexBrokerageModel.html#ada402f643eed2b416ef4dcb44ec4e590" target="_top" xlink:title="Get the benchmark for this model">
<polygon fill="white" stroke="black" points="1,-343.5 1,-373.5 210,-373.5 210,-343.5 1,-343.5"/>
<text text-anchor="start" x="9" y="-361.5" font-family="Helvetica,sans-Serif" font-size="10.00">QuantConnect.Brokerages.</text>
<text text-anchor="middle" x="105.5" y="-350.5" font-family="Helvetica,sans-Serif" font-size="10.00">BitfinexBrokerageModel.GetBenchmark</text>
</a>
</g>
</g>
<!-- Node2&#45;&gt;Node6 -->
<g id="edge5" class="edge">
<title>Node2&#45;&gt;Node6</title>
<path fill="none" stroke="midnightblue" d="M309.74,-281.29C284.39,-297.86 246.7,-320.52 211,-334.5 202.33,-337.89 193.07,-340.88 183.76,-343.48"/>
<polygon fill="midnightblue" stroke="midnightblue" points="311.77,-284.15 318.18,-275.71 307.91,-278.31 311.77,-284.15"/>
</g>
<!-- Node7 -->
<g id="node7" class="node">
<title>Node7</title>
<g id="a_node7"><a xlink:href="classQuantConnect_1_1Brokerages_1_1FTXBrokerageModel.html#a7200682c4a7f306776d64d2d54d08a8a" target="_top" xlink:title="Get the benchmark for this model">
<polygon fill="white" stroke="black" points="10.5,-294.5 10.5,-324.5 200.5,-324.5 200.5,-294.5 10.5,-294.5"/>
<text text-anchor="start" x="18.5" y="-312.5" font-family="Helvetica,sans-Serif" font-size="10.00">QuantConnect.Brokerages.</text>
<text text-anchor="middle" x="105.5" y="-301.5" font-family="Helvetica,sans-Serif" font-size="10.00">FTXBrokerageModel.GetBenchmark</text>
</a>
</g>
</g>
<!-- Node2&#45;&gt;Node7 -->
<g id="edge6" class="edge">
<title>Node2&#45;&gt;Node7</title>
<path fill="none" stroke="midnightblue" d="M258.45,-277.61C232.25,-283.11 203.44,-289.16 178.01,-294.49"/>
<polygon fill="midnightblue" stroke="midnightblue" points="259.29,-281.01 268.36,-275.53 257.85,-274.16 259.29,-281.01"/>
</g>
<!-- Node8 -->
<g id="node8" class="node">
<title>Node8</title>
<g id="a_node8"><a xlink:href="classQuantConnect_1_1Brokerages_1_1OandaBrokerageModel.html#a41cbe04ef0c5a37e82d1c9b3fd974722" target="_top" xlink:title="Get the benchmark for this model">
<polygon fill="white" stroke="black" points="4,-245.5 4,-275.5 207,-275.5 207,-245.5 4,-245.5"/>
<text text-anchor="start" x="12" y="-263.5" font-family="Helvetica,sans-Serif" font-size="10.00">QuantConnect.Brokerages.</text>
<text text-anchor="middle" x="105.5" y="-252.5" font-family="Helvetica,sans-Serif" font-size="10.00">OandaBrokerageModel.GetBenchmark</text>
</a>
</g>
</g>
<!-- Node2&#45;&gt;Node8 -->
<g id="edge7" class="edge">
<title>Node2&#45;&gt;Node8</title>
<path fill="none" stroke="midnightblue" d="M236.62,-260.5C226.88,-260.5 217.02,-260.5 207.31,-260.5"/>
<polygon fill="midnightblue" stroke="midnightblue" points="236.71,-264 246.71,-260.5 236.71,-257 236.71,-264"/>
</g>
<!-- Node9 -->
<g id="node9" class="node">
<title>Node9</title>
<g id="a_node9"><a xlink:href="classQuantConnect_1_1Brokerages_1_1FxcmBrokerageModel.html#a5db2ee76363919bea66190ace81d018c" target="_top" xlink:title="Get the benchmark for this model">
<polygon fill="white" stroke="black" points="6,-196.5 6,-226.5 205,-226.5 205,-196.5 6,-196.5"/>
<text text-anchor="start" x="14" y="-214.5" font-family="Helvetica,sans-Serif" font-size="10.00">QuantConnect.Brokerages.</text>
<text text-anchor="middle" x="105.5" y="-203.5" font-family="Helvetica,sans-Serif" font-size="10.00">FxcmBrokerageModel.GetBenchmark</text>
</a>
</g>
</g>
<!-- Node2&#45;&gt;Node9 -->
<g id="edge8" class="edge">
<title>Node2&#45;&gt;Node9</title>
<path fill="none" stroke="midnightblue" d="M258.45,-243.39C232.25,-237.89 203.44,-231.84 178.01,-226.51"/>
<polygon fill="midnightblue" stroke="midnightblue" points="257.85,-246.84 268.36,-245.47 259.29,-239.99 257.85,-246.84"/>
</g>
<!-- Node10 -->
<g id="node10" class="node">
<title>Node10</title>
<g id="a_node10"><a xlink:href="classQuantConnect_1_1Brokerages_1_1SamcoBrokerageModel.html#a40db495005f47223a19c9d3e5d398f86" target="_top" xlink:title="Get the benchmark for this model">
<polygon fill="white" stroke="black" points="3,-147.5 3,-177.5 208,-177.5 208,-147.5 3,-147.5"/>
<text text-anchor="start" x="11" y="-165.5" font-family="Helvetica,sans-Serif" font-size="10.00">QuantConnect.Brokerages.</text>
<text text-anchor="middle" x="105.5" y="-154.5" font-family="Helvetica,sans-Serif" font-size="10.00">SamcoBrokerageModel.GetBenchmark</text>
</a>
</g>
</g>
<!-- Node2&#45;&gt;Node10 -->
<g id="edge9" class="edge">
<title>Node2&#45;&gt;Node10</title>
<path fill="none" stroke="midnightblue" d="M309.21,-239.8C283.81,-223.54 246.34,-201.41 211,-187.5 201.37,-183.71 191,-180.39 180.67,-177.51"/>
<polygon fill="midnightblue" stroke="midnightblue" points="307.37,-242.78 317.67,-245.28 311.18,-236.9 307.37,-242.78"/>
</g>
<!-- Node11 -->
<g id="node11" class="node">
<title>Node11</title>
<g id="a_node11"><a xlink:href="classQuantConnect_1_1Brokerages_1_1KrakenBrokerageModel.html#a4b93fc0168cb99b913882fdbbe161697" target="_top" xlink:title="Get the benchmark for this model">
<polygon fill="white" stroke="black" points="2.5,-98.5 2.5,-128.5 208.5,-128.5 208.5,-98.5 2.5,-98.5"/>
<text text-anchor="start" x="10.5" y="-116.5" font-family="Helvetica,sans-Serif" font-size="10.00">QuantConnect.Brokerages.</text>
<text text-anchor="middle" x="105.5" y="-105.5" font-family="Helvetica,sans-Serif" font-size="10.00">KrakenBrokerageModel.GetBenchmark</text>
</a>
</g>
</g>
<!-- Node2&#45;&gt;Node11 -->
<g id="edge10" class="edge">
<title>Node2&#45;&gt;Node11</title>
<path fill="none" stroke="midnightblue" d="M321.86,-237.08C299.03,-209.26 257.19,-163.5 211,-138.5 203.86,-134.64 196.14,-131.36 188.22,-128.59"/>
<polygon fill="midnightblue" stroke="midnightblue" points="319.32,-239.5 328.32,-245.09 324.77,-235.11 319.32,-239.5"/>
</g>
<!-- Node12 -->
<g id="node12" class="node">
<title>Node12</title>
<g id="a_node12"><a xlink:href="classQuantConnect_1_1Brokerages_1_1DefaultBrokerageModel.html#a03eb687e29db2af6b437286581e5584e" target="_top" xlink:title="Get the benchmark for this model">
<polygon fill="white" stroke="black" points="1.5,-49.5 1.5,-79.5 209.5,-79.5 209.5,-49.5 1.5,-49.5"/>
<text text-anchor="start" x="9.5" y="-67.5" font-family="Helvetica,sans-Serif" font-size="10.00">QuantConnect.Brokerages.</text>
<text text-anchor="middle" x="105.5" y="-56.5" font-family="Helvetica,sans-Serif" font-size="10.00">DefaultBrokerageModel.GetBenchmark</text>
</a>
</g>
</g>
<!-- Node2&#45;&gt;Node12 -->
<g id="edge11" class="edge">
<title>Node2&#45;&gt;Node12</title>
<path fill="none" stroke="midnightblue" d="M328.59,-236.17C309.66,-198.6 268.12,-126.9 211,-89.5 205.07,-85.62 198.6,-82.34 191.87,-79.56"/>
<polygon fill="midnightblue" stroke="midnightblue" points="325.56,-237.95 333.11,-245.38 331.84,-234.86 325.56,-237.95"/>
</g>
<!-- Node13 -->
<g id="node13" class="node">
<title>Node13</title>
<g id="a_node13"><a xlink:href="classQuantConnect_1_1Algorithm_1_1QCAlgorithm.html#ab6ee2c4e0a8649563da1bb28d3f65736" target="_top" xlink:title="Sets the benchmark used for computing statistics of the algorithm to the specified symbol">
<polygon fill="white" stroke="black" points="3,-0.5 3,-30.5 208,-30.5 208,-0.5 3,-0.5"/>
<text text-anchor="start" x="11" y="-18.5" font-family="Helvetica,sans-Serif" font-size="10.00">QuantConnect.Algorithm.QCAlgorithm.</text>
<text text-anchor="middle" x="105.5" y="-7.5" font-family="Helvetica,sans-Serif" font-size="10.00">SetBenchmark</text>
</a>
</g>
</g>
<!-- Node2&#45;&gt;Node13 -->
<g id="edge12" class="edge">
<title>Node2&#45;&gt;Node13</title>
<path fill="none" stroke="midnightblue" d="M332.66,-235.64C317.73,-189.6 279.32,-91.12 211,-40.5 205.75,-36.61 199.99,-33.32 193.95,-30.54"/>
<polygon fill="midnightblue" stroke="midnightblue" points="329.39,-236.91 335.72,-245.4 336.07,-234.81 329.39,-236.91"/>
</g>
</g>
</svg>
