<?xml version="1.0" encoding="UTF-8" standalone="no"?>
<!DOCTYPE svg PUBLIC "-//W3C//DTD SVG 1.1//EN"
 "http://www.w3.org/Graphics/SVG/1.1/DTD/svg11.dtd">
<!-- Generated by graphviz version 2.43.0 (0)
 -->
<!-- Title: QuantConnect.Configuration.Config.GetEnvironment Pages: 1 -->
<svg width="1121pt" height="1010pt"
 viewBox="0.00 0.00 1121.00 1010.10" xmlns="http://www.w3.org/2000/svg" xmlns:xlink="http://www.w3.org/1999/xlink">
<g id="graph0" class="graph" transform="scale(1 1) rotate(0) translate(4 1006.1)">
<title>QuantConnect.Configuration.Config.GetEnvironment</title>
<polygon fill="white" stroke="transparent" points="-4,4 -4,-1006.1 1117,-1006.1 1117,4 -4,4"/>
<!-- Node1 -->
<g id="node1" class="node">
<title>Node1</title>
<g id="a_node1"><a xlink:title="Gets the currently selected environment. If sub&#45;environments are defined, they&#39;ll be returned as {env...">
<polygon fill="#bfbfbf" stroke="black" points="956,-436.5 956,-466.5 1113,-466.5 1113,-436.5 956,-436.5"/>
<text text-anchor="start" x="964" y="-454.5" font-family="Helvetica,sans-Serif" font-size="10.00">QuantConnect.Configuration.</text>
<text text-anchor="middle" x="1034.5" y="-443.5" font-family="Helvetica,sans-Serif" font-size="10.00">Config.GetEnvironment</text>
</a>
</g>
</g>
<!-- Node2 -->
<g id="node2" class="node">
<title>Node2</title>
<g id="a_node2"><a xlink:href="classQuantConnect_1_1Configuration_1_1Config.html#aaabf1286e33a675b2e116f3289981839" target="_top" xlink:title="Get the matching config setting from the file searching for this key.">
<polygon fill="white" stroke="black" points="763,-461.5 763,-491.5 920,-491.5 920,-461.5 763,-461.5"/>
<text text-anchor="start" x="771" y="-479.5" font-family="Helvetica,sans-Serif" font-size="10.00">QuantConnect.Configuration.</text>
<text text-anchor="middle" x="841.5" y="-468.5" font-family="Helvetica,sans-Serif" font-size="10.00">Config.Get</text>
</a>
</g>
</g>
<!-- Node1&#45;&gt;Node2 -->
<g id="edge1" class="edge">
<title>Node1&#45;&gt;Node2</title>
<path fill="none" stroke="midnightblue" d="M945.81,-462.98C937.24,-464.1 928.58,-465.23 920.12,-466.34"/>
<polygon fill="midnightblue" stroke="midnightblue" points="946.35,-466.44 955.81,-461.67 945.44,-459.5 946.35,-466.44"/>
</g>
<!-- Node27 -->
<g id="node27" class="node">
<title>Node27</title>
<g id="a_node27"><a xlink:href="classQuantConnect_1_1Configuration_1_1Config.html#a9ba31e0732178efadbc4c78c84b5ab0a" target="_top" xlink:title="Gets a value from configuration and converts it to the requested type, assigning a default if the con...">
<polygon fill="white" stroke="black" points="763,-412.5 763,-442.5 920,-442.5 920,-412.5 763,-412.5"/>
<text text-anchor="start" x="771" y="-430.5" font-family="Helvetica,sans-Serif" font-size="10.00">QuantConnect.Configuration.</text>
<text text-anchor="middle" x="841.5" y="-419.5" font-family="Helvetica,sans-Serif" font-size="10.00">Config.GetValue&lt; T &gt;</text>
</a>
</g>
</g>
<!-- Node1&#45;&gt;Node27 -->
<g id="edge29" class="edge">
<title>Node1&#45;&gt;Node27</title>
<path fill="none" stroke="midnightblue" d="M945.81,-440.48C937.24,-439.4 928.58,-438.32 920.12,-437.25"/>
<polygon fill="midnightblue" stroke="midnightblue" points="945.45,-443.96 955.81,-441.74 946.33,-437.02 945.45,-443.96"/>
</g>
<!-- Node3 -->
<g id="node3" class="node">
<title>Node3</title>
<g id="a_node3"><a xlink:href="classQuantConnect_1_1ToolBox_1_1CoarseUniverseGenerator_1_1CoarseUniverseGeneratorProgram.html#a103afc5eb53a85f54056c0ba18b75e28" target="_top" xlink:title="Runs the Coarse universe generator with default values.">
<polygon fill="white" stroke="black" points="209,-954 209,-995 445,-995 445,-954 209,-954"/>
<text text-anchor="start" x="217" y="-983" font-family="Helvetica,sans-Serif" font-size="10.00">QuantConnect.ToolBox.Coarse</text>
<text text-anchor="start" x="217" y="-972" font-family="Helvetica,sans-Serif" font-size="10.00">UniverseGenerator.CoarseUniverse</text>
<text text-anchor="middle" x="327" y="-961" font-family="Helvetica,sans-Serif" font-size="10.00">GeneratorProgram.CoarseUniverseGenerator</text>
</a>
</g>
</g>
<!-- Node2&#45;&gt;Node3 -->
<g id="edge2" class="edge">
<title>Node2&#45;&gt;Node3</title>
<path fill="none" stroke="midnightblue" d="M838.11,-501.72C829.23,-589.74 795.08,-881.11 727,-939.5 644.79,-1010.01 514.93,-1007.68 425.82,-995.04"/>
<polygon fill="midnightblue" stroke="midnightblue" points="841.61,-501.87 839.11,-491.58 834.65,-501.18 841.61,-501.87"/>
</g>
<!-- Node4 -->
<g id="node4" class="node">
<title>Node4</title>
<g id="a_node4"><a xlink:href="classQuantConnect_1_1Util_1_1Composer.html#a7dbbeb5b2182ae4fefe28360259b4c2d" target="_top" xlink:title="Initializes a new instance of the Composer class. This type is a light wrapper on top of an MEF Compo...">
<polygon fill="white" stroke="black" points="523.5,-756.5 523.5,-786.5 684.5,-786.5 684.5,-756.5 523.5,-756.5"/>
<text text-anchor="start" x="531.5" y="-774.5" font-family="Helvetica,sans-Serif" font-size="10.00">QuantConnect.Util.Composer.</text>
<text text-anchor="middle" x="604" y="-763.5" font-family="Helvetica,sans-Serif" font-size="10.00">Composer</text>
</a>
</g>
</g>
<!-- Node2&#45;&gt;Node4 -->
<g id="edge3" class="edge">
<title>Node2&#45;&gt;Node4</title>
<path fill="none" stroke="midnightblue" d="M837.68,-501.68C830.24,-555.6 804.94,-682.5 727,-746.5 714.89,-756.45 699.85,-762.77 684.51,-766.71"/>
<polygon fill="midnightblue" stroke="midnightblue" points="841.17,-501.99 838.98,-491.62 834.23,-501.1 841.17,-501.99"/>
</g>
<!-- Node5 -->
<g id="node5" class="node">
<title>Node5</title>
<g id="a_node5"><a xlink:href="classQuantConnect_1_1Lean_1_1Engine_1_1DataFeeds_1_1CompositeDataProvider.html#ac5e5ca843d607c530e745fcd6aeaa94b" target="_top" xlink:title="Creates a new instance and initialize data providers used">
<polygon fill="white" stroke="black" points="509,-696 509,-737 699,-737 699,-696 509,-696"/>
<text text-anchor="start" x="517" y="-725" font-family="Helvetica,sans-Serif" font-size="10.00">QuantConnect.Lean.Engine.</text>
<text text-anchor="start" x="517" y="-714" font-family="Helvetica,sans-Serif" font-size="10.00">DataFeeds.CompositeDataProvider.</text>
<text text-anchor="middle" x="604" y="-703" font-family="Helvetica,sans-Serif" font-size="10.00">CompositeDataProvider</text>
</a>
</g>
</g>
<!-- Node2&#45;&gt;Node5 -->
<g id="edge4" class="edge">
<title>Node2&#45;&gt;Node5</title>
<path fill="none" stroke="midnightblue" d="M834.23,-501.4C821.72,-545.75 789.37,-638.27 727,-686.5 718.63,-692.97 709.05,-698.07 699.03,-702.08"/>
<polygon fill="midnightblue" stroke="midnightblue" points="837.62,-502.28 836.86,-491.71 830.86,-500.44 837.62,-502.28"/>
</g>
<!-- Node6 -->
<g id="node6" class="node">
<title>Node6</title>
<g id="a_node6"><a xlink:href="classQuantConnect_1_1Lean_1_1Engine_1_1Setup_1_1BacktestingSetupHandler.html#abf6f082a6ab52726b44468da7ca26d96" target="_top" xlink:title="Create a new instance of an algorithm from a physical dll path.">
<polygon fill="white" stroke="black" points="517.5,-636 517.5,-677 690.5,-677 690.5,-636 517.5,-636"/>
<text text-anchor="start" x="525.5" y="-665" font-family="Helvetica,sans-Serif" font-size="10.00">QuantConnect.Lean.Engine.</text>
<text text-anchor="start" x="525.5" y="-654" font-family="Helvetica,sans-Serif" font-size="10.00">Setup.BacktestingSetupHandler.</text>
<text text-anchor="middle" x="604" y="-643" font-family="Helvetica,sans-Serif" font-size="10.00">CreateAlgorithmInstance</text>
</a>
</g>
</g>
<!-- Node2&#45;&gt;Node6 -->
<g id="edge5" class="edge">
<title>Node2&#45;&gt;Node6</title>
<path fill="none" stroke="midnightblue" d="M828.95,-500.67C811.62,-534.24 775.66,-594.47 727,-626.5 716.07,-633.69 703.56,-639.16 690.81,-643.32"/>
<polygon fill="midnightblue" stroke="midnightblue" points="832.16,-502.06 833.53,-491.56 825.91,-498.92 832.16,-502.06"/>
</g>
<!-- Node7 -->
<g id="node7" class="node">
<title>Node7</title>
<g id="a_node7"><a xlink:href="classQuantConnect_1_1Lean_1_1Engine_1_1Setup_1_1BrokerageSetupHandler.html#a3a0a2910b1976db333f88598ed8eafd2" target="_top" xlink:title="Create a new instance of an algorithm from a physical dll path.">
<polygon fill="white" stroke="black" points="505.5,-576 505.5,-617 702.5,-617 702.5,-576 505.5,-576"/>
<text text-anchor="start" x="513.5" y="-605" font-family="Helvetica,sans-Serif" font-size="10.00">QuantConnect.Lean.Engine.</text>
<text text-anchor="start" x="513.5" y="-594" font-family="Helvetica,sans-Serif" font-size="10.00">Setup.BrokerageSetupHandler.Create</text>
<text text-anchor="middle" x="604" y="-583" font-family="Helvetica,sans-Serif" font-size="10.00">AlgorithmInstance</text>
</a>
</g>
</g>
<!-- Node2&#45;&gt;Node7 -->
<g id="edge6" class="edge">
<title>Node2&#45;&gt;Node7</title>
<path fill="none" stroke="midnightblue" d="M818.51,-498.77C797,-519.3 762.4,-549.15 727,-566.5 719.26,-570.29 711.01,-573.63 702.58,-576.56"/>
<polygon fill="midnightblue" stroke="midnightblue" points="821.09,-501.15 825.82,-491.67 816.21,-496.13 821.09,-501.15"/>
</g>
<!-- Node8 -->
<g id="node8" class="node">
<title>Node8</title>
<g id="a_node8"><a xlink:href="classQuantConnect_1_1Lean_1_1Engine_1_1DataFeeds_1_1DownloaderDataProvider.html#aad94c69b28198e7d262bd99ca5f9bee3" target="_top" xlink:title="Creates a new instance">
<polygon fill="white" stroke="black" points="506,-516 506,-557 702,-557 702,-516 506,-516"/>
<text text-anchor="start" x="514" y="-545" font-family="Helvetica,sans-Serif" font-size="10.00">QuantConnect.Lean.Engine.</text>
<text text-anchor="start" x="514" y="-534" font-family="Helvetica,sans-Serif" font-size="10.00">DataFeeds.DownloaderDataProvider.</text>
<text text-anchor="middle" x="604" y="-523" font-family="Helvetica,sans-Serif" font-size="10.00">DownloaderDataProvider</text>
</a>
</g>
</g>
<!-- Node2&#45;&gt;Node8 -->
<g id="edge7" class="edge">
<title>Node2&#45;&gt;Node8</title>
<path fill="none" stroke="midnightblue" d="M774.24,-494.22C758.75,-498.3 742.31,-502.59 727,-506.5 714.85,-509.6 702,-512.82 689.38,-515.95"/>
<polygon fill="midnightblue" stroke="midnightblue" points="775.49,-497.51 784.26,-491.57 773.7,-490.74 775.49,-497.51"/>
</g>
<!-- Node9 -->
<g id="node9" class="node">
<title>Node9</title>
<g id="a_node9"><a xlink:href="classQuantConnect_1_1Lean_1_1Engine_1_1LeanEngineSystemHandlers.html#ab6dc3eec10dc442e3b625b8282cec7be" target="_top" xlink:title="Creates a new instance of the LeanEngineSystemHandlers class from the specified composer using type n...">
<polygon fill="white" stroke="black" points="481,-805.5 481,-835.5 727,-835.5 727,-805.5 481,-805.5"/>
<text text-anchor="start" x="489" y="-823.5" font-family="Helvetica,sans-Serif" font-size="10.00">QuantConnect.Lean.Engine.</text>
<text text-anchor="middle" x="604" y="-812.5" font-family="Helvetica,sans-Serif" font-size="10.00">LeanEngineSystemHandlers.FromConfiguration</text>
</a>
</g>
</g>
<!-- Node2&#45;&gt;Node9 -->
<g id="edge8" class="edge">
<title>Node2&#45;&gt;Node9</title>
<path fill="none" stroke="midnightblue" d="M839.56,-502.03C835.85,-563.1 817.53,-718.36 727,-796.5 723.08,-799.89 718.82,-802.85 714.32,-805.43"/>
<polygon fill="midnightblue" stroke="midnightblue" points="843.07,-501.93 840.1,-491.76 836.08,-501.56 843.07,-501.93"/>
</g>
<!-- Node12 -->
<g id="node12" class="node">
<title>Node12</title>
<g id="a_node12"><a xlink:href="classQuantConnect_1_1Lean_1_1Engine_1_1LeanEngineAlgorithmHandlers.html#a9737f33c09743080ebc70bcd06241110" target="_top" xlink:title="Creates a new instance of the LeanEngineAlgorithmHandlers class from the specified composer using typ...">
<polygon fill="white" stroke="black" points="231,-844 231,-885 423,-885 423,-844 231,-844"/>
<text text-anchor="start" x="239" y="-873" font-family="Helvetica,sans-Serif" font-size="10.00">QuantConnect.Lean.Engine.</text>
<text text-anchor="start" x="239" y="-862" font-family="Helvetica,sans-Serif" font-size="10.00">LeanEngineAlgorithmHandlers.From</text>
<text text-anchor="middle" x="327" y="-851" font-family="Helvetica,sans-Serif" font-size="10.00">Configuration</text>
</a>
</g>
</g>
<!-- Node2&#45;&gt;Node12 -->
<g id="edge11" class="edge">
<title>Node2&#45;&gt;Node12</title>
<path fill="none" stroke="midnightblue" d="M836.5,-502.03C823.97,-578.33 783.02,-802.02 727,-845.5 681.32,-880.95 525.86,-878.28 423.02,-872.11"/>
<polygon fill="midnightblue" stroke="midnightblue" points="840,-502.31 838.14,-491.88 833.09,-501.2 840,-502.31"/>
</g>
<!-- Node14 -->
<g id="node14" class="node">
<title>Node14</title>
<g id="a_node14"><a xlink:href="classQuantConnect_1_1Lean_1_1Engine_1_1Setup_1_1BaseSetupHandler.html#a4aeff0655cd0e6f02d247daac3ec2cde" target="_top" xlink:title="Get the available data feeds from config.json,">
<polygon fill="white" stroke="black" points="499.5,-456 499.5,-497 708.5,-497 708.5,-456 499.5,-456"/>
<text text-anchor="start" x="507.5" y="-485" font-family="Helvetica,sans-Serif" font-size="10.00">QuantConnect.Lean.Engine.</text>
<text text-anchor="start" x="507.5" y="-474" font-family="Helvetica,sans-Serif" font-size="10.00">Setup.BaseSetupHandler.GetConfigured</text>
<text text-anchor="middle" x="604" y="-463" font-family="Helvetica,sans-Serif" font-size="10.00">DataFeeds</text>
</a>
</g>
</g>
<!-- Node2&#45;&gt;Node14 -->
<g id="edge14" class="edge">
<title>Node2&#45;&gt;Node14</title>
<path fill="none" stroke="midnightblue" d="M752.47,-476.5C738.21,-476.5 723.32,-476.5 708.73,-476.5"/>
<polygon fill="midnightblue" stroke="midnightblue" points="752.74,-480 762.74,-476.5 752.74,-473 752.74,-480"/>
</g>
<!-- Node15 -->
<g id="node15" class="node">
<title>Node15</title>
<g id="a_node15"><a xlink:href="classQuantConnect_1_1Data_1_1UniverseSelection_1_1FundamentalService.html#af1ccc5261a5315492c0ba4066d36fab3" target="_top" xlink:title="Initializes the service">
<polygon fill="white" stroke="black" points="499.5,-899.5 499.5,-929.5 708.5,-929.5 708.5,-899.5 499.5,-899.5"/>
<text text-anchor="start" x="507.5" y="-917.5" font-family="Helvetica,sans-Serif" font-size="10.00">QuantConnect.Data.Universe</text>
<text text-anchor="middle" x="604" y="-906.5" font-family="Helvetica,sans-Serif" font-size="10.00">Selection.FundamentalService.Initialize</text>
</a>
</g>
</g>
<!-- Node2&#45;&gt;Node15 -->
<g id="edge15" class="edge">
<title>Node2&#45;&gt;Node15</title>
<path fill="none" stroke="midnightblue" d="M841.21,-501.92C841.72,-572.21 833.21,-771.03 727,-878.5 718.07,-887.53 707,-894.32 695.2,-899.42"/>
<polygon fill="midnightblue" stroke="midnightblue" points="844.7,-501.73 841.06,-491.78 837.7,-501.83 844.7,-501.73"/>
</g>
<!-- Node17 -->
<g id="node17" class="node">
<title>Node17</title>
<g id="a_node17"><a xlink:href="classQuantConnect_1_1Messaging_1_1StreamingMessageHandler.html#a6a233a9082ff3d412b99816ffe2d76f5" target="_top" xlink:title="Initialize the messaging system">
<polygon fill="white" stroke="black" points="507,-406.5 507,-436.5 701,-436.5 701,-406.5 507,-406.5"/>
<text text-anchor="start" x="515" y="-424.5" font-family="Helvetica,sans-Serif" font-size="10.00">QuantConnect.Messaging.Streaming</text>
<text text-anchor="middle" x="604" y="-413.5" font-family="Helvetica,sans-Serif" font-size="10.00">MessageHandler.Initialize</text>
</a>
</g>
</g>
<!-- Node2&#45;&gt;Node17 -->
<g id="edge19" class="edge">
<title>Node2&#45;&gt;Node17</title>
<path fill="none" stroke="midnightblue" d="M776.28,-458.85C760.23,-454.63 743.02,-450.26 727,-446.5 712.37,-443.07 696.69,-439.66 681.61,-436.51"/>
<polygon fill="midnightblue" stroke="midnightblue" points="775.54,-462.28 786.1,-461.46 777.33,-455.51 775.54,-462.28"/>
</g>
<!-- Node18 -->
<g id="node18" class="node">
<title>Node18</title>
<g id="a_node18"><a xlink:href="classQuantConnect_1_1Lean_1_1Engine_1_1HistoricalData_1_1HistoryProviderManager.html#a8a9a7a7c37fb03207bcee5283fe4301a" target="_top" xlink:title="Initializes this history provider to work for the specified job">
<polygon fill="white" stroke="black" points="521.5,-346 521.5,-387 686.5,-387 686.5,-346 521.5,-346"/>
<text text-anchor="start" x="529.5" y="-375" font-family="Helvetica,sans-Serif" font-size="10.00">QuantConnect.Lean.Engine.</text>
<text text-anchor="start" x="529.5" y="-364" font-family="Helvetica,sans-Serif" font-size="10.00">HistoricalData.HistoryProvider</text>
<text text-anchor="middle" x="604" y="-353" font-family="Helvetica,sans-Serif" font-size="10.00">Manager.Initialize</text>
</a>
</g>
</g>
<!-- Node2&#45;&gt;Node18 -->
<g id="edge20" class="edge">
<title>Node2&#45;&gt;Node18</title>
<path fill="none" stroke="midnightblue" d="M768.71,-456.4C766.74,-455.18 764.83,-453.88 763,-452.5 739.67,-434.92 750.78,-414.48 727,-397.5 714.99,-388.93 700.84,-382.72 686.5,-378.23"/>
<polygon fill="midnightblue" stroke="midnightblue" points="767.24,-459.59 777.69,-461.32 770.6,-453.45 767.24,-459.59"/>
</g>
<!-- Node19 -->
<g id="node19" class="node">
<title>Node19</title>
<g id="a_node19"><a xlink:href="classQuantConnect_1_1AlgorithmFactory_1_1DebuggerHelper.html#a5c17c1da05954705aa54e386603bb8c9" target="_top" xlink:title="Will start a new debugging session">
<polygon fill="white" stroke="black" points="517.5,-296.5 517.5,-326.5 690.5,-326.5 690.5,-296.5 517.5,-296.5"/>
<text text-anchor="start" x="525.5" y="-314.5" font-family="Helvetica,sans-Serif" font-size="10.00">QuantConnect.AlgorithmFactory.</text>
<text text-anchor="middle" x="604" y="-303.5" font-family="Helvetica,sans-Serif" font-size="10.00">DebuggerHelper.Initialize</text>
</a>
</g>
</g>
<!-- Node2&#45;&gt;Node19 -->
<g id="edge21" class="edge">
<title>Node2&#45;&gt;Node19</title>
<path fill="none" stroke="midnightblue" d="M765.96,-455.24C764.94,-454.37 763.95,-453.45 763,-452.5 724.82,-414.34 767.01,-372.74 727,-336.5 716.74,-327.21 703.99,-321 690.63,-316.92"/>
<polygon fill="midnightblue" stroke="midnightblue" points="764.22,-458.3 774.38,-461.29 768.3,-452.62 764.22,-458.3"/>
</g>
<!-- Node20 -->
<g id="node20" class="node">
<title>Node20</title>
<g id="a_node20"><a xlink:href="classQuantConnect_1_1Lean_1_1Engine_1_1DataFeeds_1_1SubscriptionDataReader.html#a44ab08d71bc4ea22bb19ae8ea4099b05" target="_top" xlink:title="Initializes the SubscriptionDataReader instance">
<polygon fill="white" stroke="black" points="508.5,-236 508.5,-277 699.5,-277 699.5,-236 508.5,-236"/>
<text text-anchor="start" x="516.5" y="-265" font-family="Helvetica,sans-Serif" font-size="10.00">QuantConnect.Lean.Engine.</text>
<text text-anchor="start" x="516.5" y="-254" font-family="Helvetica,sans-Serif" font-size="10.00">DataFeeds.SubscriptionDataReader.</text>
<text text-anchor="middle" x="604" y="-243" font-family="Helvetica,sans-Serif" font-size="10.00">Initialize</text>
</a>
</g>
</g>
<!-- Node2&#45;&gt;Node20 -->
<g id="edge22" class="edge">
<title>Node2&#45;&gt;Node20</title>
<path fill="none" stroke="midnightblue" d="M765.76,-455.28C764.8,-454.39 763.88,-453.46 763,-452.5 711.98,-396.85 779.64,-340.61 727,-286.5 719.32,-278.6 709.92,-272.66 699.78,-268.2"/>
<polygon fill="midnightblue" stroke="midnightblue" points="763.63,-458.05 773.68,-461.39 767.9,-452.51 763.63,-458.05"/>
</g>
<!-- Node22 -->
<g id="node22" class="node">
<title>Node22</title>
<g id="a_node22"><a xlink:href="classQuantConnect_1_1Queues_1_1JobQueue.html#a3e74770d498b6609702b5850479002ee" target="_top" xlink:title="Desktop/Local Get Next Task &#45; Get task from the Algorithm folder of VS Solution.">
<polygon fill="white" stroke="black" points="515,-186.5 515,-216.5 693,-216.5 693,-186.5 515,-186.5"/>
<text text-anchor="start" x="523" y="-204.5" font-family="Helvetica,sans-Serif" font-size="10.00">QuantConnect.Queues.JobQueue.</text>
<text text-anchor="middle" x="604" y="-193.5" font-family="Helvetica,sans-Serif" font-size="10.00">NextJob</text>
</a>
</g>
</g>
<!-- Node2&#45;&gt;Node22 -->
<g id="edge24" class="edge">
<title>Node2&#45;&gt;Node22</title>
<path fill="none" stroke="midnightblue" d="M765.3,-454.97C764.51,-454.17 763.74,-453.35 763,-452.5 696.38,-375.65 797.32,-299.99 727,-226.5 717.73,-216.81 705.8,-210.35 693.03,-206.12"/>
<polygon fill="midnightblue" stroke="midnightblue" points="763.15,-457.73 773.11,-461.35 767.59,-452.31 763.15,-457.73"/>
</g>
<!-- Node23 -->
<g id="node23" class="node">
<title>Node23</title>
<g id="a_node23"><a xlink:href="classQuantConnect_1_1Report_1_1Report.html#a2d338bee6035d5400eb638c69fe69371" target="_top" xlink:title="Create beautiful HTML and PDF Reports based on backtest and live data.">
<polygon fill="white" stroke="black" points="524.5,-137.5 524.5,-167.5 683.5,-167.5 683.5,-137.5 524.5,-137.5"/>
<text text-anchor="start" x="532.5" y="-155.5" font-family="Helvetica,sans-Serif" font-size="10.00">QuantConnect.Report.Report.</text>
<text text-anchor="middle" x="604" y="-144.5" font-family="Helvetica,sans-Serif" font-size="10.00">Report</text>
</a>
</g>
</g>
<!-- Node2&#45;&gt;Node23 -->
<g id="edge25" class="edge">
<title>Node2&#45;&gt;Node23</title>
<path fill="none" stroke="midnightblue" d="M765.27,-455C764.48,-454.19 763.73,-453.36 763,-452.5 683.3,-357.89 811.61,-266.75 727,-176.5 715.56,-164.29 699.86,-157.28 683.54,-153.43"/>
<polygon fill="midnightblue" stroke="midnightblue" points="763.08,-457.73 773,-461.45 767.56,-452.35 763.08,-457.73"/>
</g>
<!-- Node24 -->
<g id="node24" class="node">
<title>Node24</title>
<g id="a_node24"><a xlink:href="classQuantConnect_1_1Globals.html#a2aae16e1ae5048f0db1dcc7d9a1e9b46" target="_top" xlink:title="Resets global values with the Config data.">
<polygon fill="white" stroke="black" points="526,-99 526,-118 682,-118 682,-99 526,-99"/>
<text text-anchor="middle" x="604" y="-106" font-family="Helvetica,sans-Serif" font-size="10.00">QuantConnect.Globals.Reset</text>
</a>
</g>
</g>
<!-- Node2&#45;&gt;Node24 -->
<g id="edge26" class="edge">
<title>Node2&#45;&gt;Node24</title>
<path fill="none" stroke="midnightblue" d="M764.89,-454.64C764.24,-453.95 763.61,-453.24 763,-452.5 670.45,-340.45 827.47,-232.51 727,-127.5 715.22,-115.19 698.99,-108.69 682.21,-105.58"/>
<polygon fill="midnightblue" stroke="midnightblue" points="762.72,-457.39 772.58,-461.27 767.29,-452.09 762.72,-457.39"/>
</g>
<!-- Node25 -->
<g id="node25" class="node">
<title>Node25</title>
<g id="a_node25"><a xlink:href="classQuantConnect_1_1ToolBox_1_1ExchangeInfoUpdater.html#a4793c678ea44705a8bdb870a498f6a90" target="_top" xlink:title="Update existing symbol properties database">
<polygon fill="white" stroke="black" points="515.5,-49.5 515.5,-79.5 692.5,-79.5 692.5,-49.5 515.5,-49.5"/>
<text text-anchor="start" x="523.5" y="-67.5" font-family="Helvetica,sans-Serif" font-size="10.00">QuantConnect.ToolBox.Exchange</text>
<text text-anchor="middle" x="604" y="-56.5" font-family="Helvetica,sans-Serif" font-size="10.00">InfoUpdater.Run</text>
</a>
</g>
</g>
<!-- Node2&#45;&gt;Node25 -->
<g id="edge27" class="edge">
<title>Node2&#45;&gt;Node25</title>
<path fill="none" stroke="midnightblue" d="M764.88,-454.65C764.23,-453.96 763.6,-453.24 763,-452.5 711.73,-389.71 781.28,-149.7 727,-89.5 717.81,-79.3 705.67,-72.63 692.61,-68.35"/>
<polygon fill="midnightblue" stroke="midnightblue" points="762.69,-457.39 772.53,-461.31 767.28,-452.11 762.69,-457.39"/>
</g>
<!-- Node26 -->
<g id="node26" class="node">
<title>Node26</title>
<g id="a_node26"><a xlink:href="classQuantConnect_1_1Lean_1_1Engine_1_1Initializer.html#a9bf25f03ea7c7f01843b04ca0845a2e5" target="_top" xlink:title="Basic common Lean initialization">
<polygon fill="white" stroke="black" points="528.5,-0.5 528.5,-30.5 679.5,-30.5 679.5,-0.5 528.5,-0.5"/>
<text text-anchor="start" x="536.5" y="-18.5" font-family="Helvetica,sans-Serif" font-size="10.00">QuantConnect.Lean.Engine.</text>
<text text-anchor="middle" x="604" y="-7.5" font-family="Helvetica,sans-Serif" font-size="10.00">Initializer.Start</text>
</a>
</g>
</g>
<!-- Node2&#45;&gt;Node26 -->
<g id="edge28" class="edge">
<title>Node2&#45;&gt;Node26</title>
<path fill="none" stroke="midnightblue" d="M764.87,-454.66C764.22,-453.96 763.6,-453.24 763,-452.5 705.16,-380.79 788.56,-108.04 727,-39.5 714.88,-26.01 697.58,-18.79 679.81,-15.17"/>
<polygon fill="midnightblue" stroke="midnightblue" points="762.66,-457.39 772.49,-461.35 767.28,-452.12 762.66,-457.39"/>
</g>
<!-- Node10 -->
<g id="node10" class="node">
<title>Node10</title>
<g id="a_node10"><a xlink:href="classQuantConnect_1_1Lean_1_1Engine_1_1Initializer.html#a7524eafaf359e6e12cc30b9ade9a193f" target="_top" xlink:title="Get and initializes System Handler">
<polygon fill="white" stroke="black" points="246,-756.5 246,-786.5 408,-786.5 408,-756.5 246,-756.5"/>
<text text-anchor="start" x="254" y="-774.5" font-family="Helvetica,sans-Serif" font-size="10.00">QuantConnect.Lean.Engine.</text>
<text text-anchor="middle" x="327" y="-763.5" font-family="Helvetica,sans-Serif" font-size="10.00">Initializer.GetSystemHandlers</text>
</a>
</g>
</g>
<!-- Node9&#45;&gt;Node10 -->
<g id="edge9" class="edge">
<title>Node9&#45;&gt;Node10</title>
<path fill="none" stroke="midnightblue" d="M508.63,-803.68C476.03,-797.88 439.83,-791.43 408.45,-785.84"/>
<polygon fill="midnightblue" stroke="midnightblue" points="508.16,-807.16 518.62,-805.47 509.39,-800.27 508.16,-807.16"/>
</g>
<!-- Node11 -->
<g id="node11" class="node">
<title>Node11</title>
<g id="a_node11"><a xlink:href="classQuantConnect_1_1Research_1_1QuantBook.html#a239bcca3c726a8cc25b9a6a3cd0c244f" target="_top" xlink:title="QuantBook constructor. Provides access to data for quantitative analysis">
<polygon fill="white" stroke="black" points="3.5,-800.5 3.5,-830.5 169.5,-830.5 169.5,-800.5 3.5,-800.5"/>
<text text-anchor="start" x="11.5" y="-818.5" font-family="Helvetica,sans-Serif" font-size="10.00">QuantConnect.Research.Quant</text>
<text text-anchor="middle" x="86.5" y="-807.5" font-family="Helvetica,sans-Serif" font-size="10.00">Book.QuantBook</text>
</a>
</g>
</g>
<!-- Node9&#45;&gt;Node11 -->
<g id="edge10" class="edge">
<title>Node9&#45;&gt;Node11</title>
<path fill="none" stroke="midnightblue" d="M470.58,-819.22C375.65,-818.29 250.75,-817.08 169.8,-816.3"/>
<polygon fill="midnightblue" stroke="midnightblue" points="470.8,-822.72 480.83,-819.32 470.87,-815.72 470.8,-822.72"/>
</g>
<!-- Node12&#45;&gt;Node11 -->
<g id="edge13" class="edge">
<title>Node12&#45;&gt;Node11</title>
<path fill="none" stroke="midnightblue" d="M220.79,-842.88C200.48,-838.71 179.61,-834.42 160.59,-830.52"/>
<polygon fill="midnightblue" stroke="midnightblue" points="220.21,-846.34 230.71,-844.92 221.62,-839.48 220.21,-846.34"/>
</g>
<!-- Node13 -->
<g id="node13" class="node">
<title>Node13</title>
<g id="a_node13"><a xlink:href="classQuantConnect_1_1Lean_1_1Engine_1_1Initializer.html#a8b5510189c94accd341087b4d8d1c796" target="_top" xlink:title="Get and initializes Algorithm Handler">
<polygon fill="white" stroke="black" points="0,-849.5 0,-879.5 173,-879.5 173,-849.5 0,-849.5"/>
<text text-anchor="start" x="8" y="-867.5" font-family="Helvetica,sans-Serif" font-size="10.00">QuantConnect.Lean.Engine.</text>
<text text-anchor="middle" x="86.5" y="-856.5" font-family="Helvetica,sans-Serif" font-size="10.00">Initializer.GetAlgorithmHandlers</text>
</a>
</g>
</g>
<!-- Node12&#45;&gt;Node13 -->
<g id="edge12" class="edge">
<title>Node12&#45;&gt;Node13</title>
<path fill="none" stroke="midnightblue" d="M220.43,-864.5C204.69,-864.5 188.64,-864.5 173.38,-864.5"/>
<polygon fill="midnightblue" stroke="midnightblue" points="220.71,-868 230.71,-864.5 220.71,-861 220.71,-868"/>
</g>
<!-- Node15&#45;&gt;Node3 -->
<g id="edge16" class="edge">
<title>Node15&#45;&gt;Node3</title>
<path fill="none" stroke="midnightblue" d="M523.83,-931.77C492.04,-938.71 455.15,-946.76 422.01,-953.99"/>
<polygon fill="midnightblue" stroke="midnightblue" points="524.94,-935.11 533.96,-929.56 523.44,-928.28 524.94,-935.11"/>
</g>
<!-- Node15&#45;&gt;Node12 -->
<g id="edge17" class="edge">
<title>Node15&#45;&gt;Node12</title>
<path fill="none" stroke="midnightblue" d="M510.64,-897.71C482.44,-892.58 451.38,-886.93 423.01,-881.77"/>
<polygon fill="midnightblue" stroke="midnightblue" points="510.03,-901.15 520.49,-899.5 511.28,-894.27 510.03,-901.15"/>
</g>
<!-- Node16 -->
<g id="node16" class="node">
<title>Node16</title>
<g id="a_node16"><a xlink:href="classQuantConnect_1_1Data_1_1UniverseSelection_1_1FundamentalService.html#ab1ff384581bf0ec48d57fdbfa4b4043c" target="_top" xlink:title="Initializes the service">
<polygon fill="white" stroke="black" points="222.5,-904.5 222.5,-934.5 431.5,-934.5 431.5,-904.5 222.5,-904.5"/>
<text text-anchor="start" x="230.5" y="-922.5" font-family="Helvetica,sans-Serif" font-size="10.00">QuantConnect.Data.Universe</text>
<text text-anchor="middle" x="327" y="-911.5" font-family="Helvetica,sans-Serif" font-size="10.00">Selection.FundamentalService.Initialize</text>
</a>
</g>
</g>
<!-- Node15&#45;&gt;Node16 -->
<g id="edge18" class="edge">
<title>Node15&#45;&gt;Node16</title>
<path fill="none" stroke="midnightblue" d="M489.26,-916.57C470.27,-916.91 450.66,-917.27 431.94,-917.61"/>
<polygon fill="midnightblue" stroke="midnightblue" points="489.49,-920.06 499.43,-916.38 489.36,-913.07 489.49,-920.06"/>
</g>
<!-- Node21 -->
<g id="node21" class="node">
<title>Node21</title>
<g id="a_node21"><a xlink:href="classQuantConnect_1_1Lean_1_1Engine_1_1DataFeeds_1_1SubscriptionDataReader.html#a4fa83c28c502b16107397fe40dcae389" target="_top" xlink:title="Advances the enumerator to the next element of the collection.">
<polygon fill="white" stroke="black" points="231.5,-236 231.5,-277 422.5,-277 422.5,-236 231.5,-236"/>
<text text-anchor="start" x="239.5" y="-265" font-family="Helvetica,sans-Serif" font-size="10.00">QuantConnect.Lean.Engine.</text>
<text text-anchor="start" x="239.5" y="-254" font-family="Helvetica,sans-Serif" font-size="10.00">DataFeeds.SubscriptionDataReader.</text>
<text text-anchor="middle" x="327" y="-243" font-family="Helvetica,sans-Serif" font-size="10.00">MoveNext</text>
</a>
</g>
</g>
<!-- Node20&#45;&gt;Node21 -->
<g id="edge23" class="edge">
<title>Node20&#45;&gt;Node21</title>
<path fill="none" stroke="midnightblue" d="M498.21,-256.5C473.42,-256.5 447.13,-256.5 422.81,-256.5"/>
<polygon fill="midnightblue" stroke="midnightblue" points="498.36,-260 508.36,-256.5 498.36,-253 498.36,-260"/>
</g>
</g>
</svg>
