<?xml version="1.0" encoding="UTF-8" standalone="no"?>
<!DOCTYPE svg PUBLIC "-//W3C//DTD SVG 1.1//EN"
 "http://www.w3.org/Graphics/SVG/1.1/DTD/svg11.dtd">
<!-- Generated by graphviz version 2.43.0 (0)
 -->
<!-- Title: QuantConnect.Securities.Positions.PositionGroupCollection.Add Pages: 1 -->
<svg width="652pt" height="50pt"
 viewBox="0.00 0.00 652.00 50.00" xmlns="http://www.w3.org/2000/svg" xmlns:xlink="http://www.w3.org/1999/xlink">
<g id="graph0" class="graph" transform="scale(1 1) rotate(0) translate(4 46)">
<title>QuantConnect.Securities.Positions.PositionGroupCollection.Add</title>
<polygon fill="white" stroke="transparent" points="-4,4 -4,-46 648,-46 648,4 -4,4"/>
<!-- Node1 -->
<g id="node1" class="node">
<title>Node1</title>
<g id="a_node1"><a xlink:title="Creates a new PositionGroupCollection that contains all of the position groups in this collection in ...">
<polygon fill="#bfbfbf" stroke="black" points="441,-6 441,-36 644,-36 644,-6 441,-6"/>
<text text-anchor="start" x="449" y="-24" font-family="Helvetica,sans-Serif" font-size="10.00">QuantConnect.Securities.</text>
<text text-anchor="middle" x="542.5" y="-13" font-family="Helvetica,sans-Serif" font-size="10.00">Positions.PositionGroupCollection.Add</text>
</a>
</g>
</g>
<!-- Node2 -->
<g id="node2" class="node">
<title>Node2</title>
<g id="a_node2"><a xlink:href="classQuantConnect_1_1Securities_1_1Positions_1_1PositionGroupCollection.html#abf491aa5af8196cb93e0d45fc6760dd4" target="_top" xlink:title="Merges this position group collection with the provided other &#160;collection.">
<polygon fill="white" stroke="black" points="221,-0.5 221,-41.5 405,-41.5 405,-0.5 221,-0.5"/>
<text text-anchor="start" x="229" y="-29.5" font-family="Helvetica,sans-Serif" font-size="10.00">QuantConnect.Securities.</text>
<text text-anchor="start" x="229" y="-18.5" font-family="Helvetica,sans-Serif" font-size="10.00">Positions.PositionGroupCollection.</text>
<text text-anchor="middle" x="313" y="-7.5" font-family="Helvetica,sans-Serif" font-size="10.00">CombineWith</text>
</a>
</g>
</g>
<!-- Node1&#45;&gt;Node2 -->
<g id="edge1" class="edge">
<title>Node1&#45;&gt;Node2</title>
<path fill="none" stroke="midnightblue" d="M430.66,-21C422.07,-21 413.46,-21 405.02,-21"/>
<polygon fill="midnightblue" stroke="midnightblue" points="430.72,-24.5 440.72,-21 430.72,-17.5 430.72,-24.5"/>
</g>
<!-- Node3 -->
<g id="node3" class="node">
<title>Node3</title>
<g id="a_node3"><a xlink:href="classQuantConnect_1_1Securities_1_1Positions_1_1CompositePositionGroupResolver.html#ab466b234a0a959beab71c31aec6081f7" target="_top" xlink:title="Resolves the optimal set of IPositionGroup from the provided positions . Implementations are required...">
<polygon fill="white" stroke="black" points="0,-0.5 0,-41.5 185,-41.5 185,-0.5 0,-0.5"/>
<text text-anchor="start" x="8" y="-29.5" font-family="Helvetica,sans-Serif" font-size="10.00">QuantConnect.Securities.</text>
<text text-anchor="start" x="8" y="-18.5" font-family="Helvetica,sans-Serif" font-size="10.00">Positions.CompositePositionGroup</text>
<text text-anchor="middle" x="92.5" y="-7.5" font-family="Helvetica,sans-Serif" font-size="10.00">Resolver.Resolve</text>
</a>
</g>
</g>
<!-- Node2&#45;&gt;Node3 -->
<g id="edge2" class="edge">
<title>Node2&#45;&gt;Node3</title>
<path fill="none" stroke="midnightblue" d="M210.88,-21C202.3,-21 193.64,-21 185.14,-21"/>
<polygon fill="midnightblue" stroke="midnightblue" points="210.92,-24.5 220.92,-21 210.92,-17.5 210.92,-24.5"/>
</g>
</g>
</svg>
