<?xml version="1.0" encoding="UTF-8" standalone="no"?>
<!DOCTYPE svg PUBLIC "-//W3C//DTD SVG 1.1//EN"
 "http://www.w3.org/Graphics/SVG/1.1/DTD/svg11.dtd">
<!-- Generated by graphviz version 2.43.0 (0)
 -->
<!-- Title: QuantConnect.Data.Fundamental.ShortTermDebtIssuanceCashFlowStatement Pages: 1 -->
<svg width="238pt" height="151pt"
 viewBox="0.00 0.00 238.00 151.00" xmlns="http://www.w3.org/2000/svg" xmlns:xlink="http://www.w3.org/1999/xlink">
<g id="graph0" class="graph" transform="scale(1 1) rotate(0) translate(4 147)">
<title>QuantConnect.Data.Fundamental.ShortTermDebtIssuanceCashFlowStatement</title>
<polygon fill="white" stroke="transparent" points="-4,4 -4,-147 234,-147 234,4 -4,4"/>
<!-- Node1 -->
<g id="node1" class="node">
<title>Node1</title>
<g id="a_node1"><a xlink:title="The cash inflow from a debt initially having maturity due within one year or the normal operating cyc...">
<polygon fill="#bfbfbf" stroke="black" points="0,-0.5 0,-30.5 230,-30.5 230,-0.5 0,-0.5"/>
<text text-anchor="start" x="8" y="-18.5" font-family="Helvetica,sans-Serif" font-size="10.00">QuantConnect.Data.Fundamental.</text>
<text text-anchor="middle" x="115" y="-7.5" font-family="Helvetica,sans-Serif" font-size="10.00">ShortTermDebtIssuanceCashFlowStatement</text>
</a>
</g>
</g>
<!-- Node2 -->
<g id="node2" class="node">
<title>Node2</title>
<g id="a_node2"><a xlink:href="classQuantConnect_1_1Data_1_1Fundamental_1_1MultiPeriodField.html" target="_top" xlink:title="Abstract base class for multi&#45;period fields">
<polygon fill="white" stroke="black" points="67.5,-67.5 67.5,-86.5 162.5,-86.5 162.5,-67.5 67.5,-67.5"/>
<text text-anchor="middle" x="115" y="-74.5" font-family="Helvetica,sans-Serif" font-size="10.00">MultiPeriodField</text>
</a>
</g>
</g>
<!-- Node2&#45;&gt;Node1 -->
<g id="edge1" class="edge">
<title>Node2&#45;&gt;Node1</title>
<path fill="none" stroke="midnightblue" d="M115,-57.23C115,-48.59 115,-38.5 115,-30.52"/>
<polygon fill="midnightblue" stroke="midnightblue" points="111.5,-57.48 115,-67.48 118.5,-57.48 111.5,-57.48"/>
</g>
<!-- Node3 -->
<g id="node3" class="node">
<title>Node3</title>
<g id="a_node3"><a xlink:title=" ">
<polygon fill="white" stroke="#bfbfbf" points="56,-123.5 56,-142.5 174,-142.5 174,-123.5 56,-123.5"/>
<text text-anchor="middle" x="115" y="-130.5" font-family="Helvetica,sans-Serif" font-size="10.00">ReusuableCLRObject</text>
</a>
</g>
</g>
<!-- Node3&#45;&gt;Node2 -->
<g id="edge2" class="edge">
<title>Node3&#45;&gt;Node2</title>
<path fill="none" stroke="midnightblue" d="M115,-112.8C115,-103.91 115,-93.78 115,-86.75"/>
<polygon fill="midnightblue" stroke="midnightblue" points="111.5,-113.08 115,-123.08 118.5,-113.08 111.5,-113.08"/>
</g>
</g>
</svg>
