<?xml version="1.0" encoding="UTF-8" standalone="no"?>
<!DOCTYPE svg PUBLIC "-//W3C//DTD SVG 1.1//EN"
 "http://www.w3.org/Graphics/SVG/1.1/DTD/svg11.dtd">
<!-- Generated by graphviz version 2.43.0 (0)
 -->
<!-- Title: QuantConnect.Securities.Option.OptionStrategy.OptionLegData.Create Pages: 1 -->
<svg width="423pt" height="182pt"
 viewBox="0.00 0.00 423.00 182.00" xmlns="http://www.w3.org/2000/svg" xmlns:xlink="http://www.w3.org/1999/xlink">
<g id="graph0" class="graph" transform="scale(1 1) rotate(0) translate(4 178)">
<title>QuantConnect.Securities.Option.OptionStrategy.OptionLegData.Create</title>
<polygon fill="white" stroke="transparent" points="-4,4 -4,-178 419,-178 419,4 -4,4"/>
<!-- Node1 -->
<g id="node1" class="node">
<title>Node1</title>
<g id="a_node1"><a xlink:title="Creates a new instance of OptionLegData from the specified parameters">
<polygon fill="#bfbfbf" stroke="black" points="256,-66.5 256,-107.5 415,-107.5 415,-66.5 256,-66.5"/>
<text text-anchor="start" x="264" y="-95.5" font-family="Helvetica,sans-Serif" font-size="10.00">QuantConnect.Securities.</text>
<text text-anchor="start" x="264" y="-84.5" font-family="Helvetica,sans-Serif" font-size="10.00">Option.OptionStrategy.Option</text>
<text text-anchor="middle" x="335.5" y="-73.5" font-family="Helvetica,sans-Serif" font-size="10.00">LegData.Create</text>
</a>
</g>
</g>
<!-- Node2 -->
<g id="node2" class="node">
<title>Node2</title>
<g id="a_node2"><a xlink:href="classQuantConnect_1_1Securities_1_1Option_1_1StrategyMatcher_1_1OptionStrategyLegDefinition.html#a148e7e9c49968d30bbe48f70d2fc0ad1" target="_top" xlink:title="Creates the appropriate OptionStrategy.LegData with the specified quantity">
<polygon fill="white" stroke="black" points="11,-132.5 11,-173.5 209,-173.5 209,-132.5 11,-132.5"/>
<text text-anchor="start" x="19" y="-161.5" font-family="Helvetica,sans-Serif" font-size="10.00">QuantConnect.Securities.</text>
<text text-anchor="start" x="19" y="-150.5" font-family="Helvetica,sans-Serif" font-size="10.00">Option.StrategyMatcher.Option</text>
<text text-anchor="middle" x="110" y="-139.5" font-family="Helvetica,sans-Serif" font-size="10.00">StrategyLegDefinition.CreateLegData</text>
</a>
</g>
</g>
<!-- Node1&#45;&gt;Node2 -->
<g id="edge1" class="edge">
<title>Node1&#45;&gt;Node2</title>
<path fill="none" stroke="midnightblue" d="M260.7,-110.63C247.19,-114.84 233.19,-119.11 220,-123 209.36,-126.13 198.11,-129.35 187.04,-132.45"/>
<polygon fill="midnightblue" stroke="midnightblue" points="261.93,-113.91 270.43,-107.59 259.84,-107.23 261.93,-113.91"/>
</g>
<!-- Node3 -->
<g id="node3" class="node">
<title>Node3</title>
<g id="a_node3"><a xlink:href="structQuantConnect_1_1Securities_1_1Option_1_1StrategyMatcher_1_1OptionStrategyLegDefinitionMatch.html#a5df556754eb5d8fc20a0d764f4a1bec5" target="_top" xlink:title="Creates the appropriate type of OptionStrategy.LegData for this matched position">
<polygon fill="white" stroke="black" points="0,-61 0,-113 220,-113 220,-61 0,-61"/>
<text text-anchor="start" x="8" y="-101" font-family="Helvetica,sans-Serif" font-size="10.00">QuantConnect.Securities.</text>
<text text-anchor="start" x="8" y="-90" font-family="Helvetica,sans-Serif" font-size="10.00">Option.StrategyMatcher.Option</text>
<text text-anchor="start" x="8" y="-79" font-family="Helvetica,sans-Serif" font-size="10.00">StrategyLegDefinitionMatch.CreateOption</text>
<text text-anchor="middle" x="110" y="-68" font-family="Helvetica,sans-Serif" font-size="10.00">StrategyLeg</text>
</a>
</g>
</g>
<!-- Node1&#45;&gt;Node3 -->
<g id="edge2" class="edge">
<title>Node1&#45;&gt;Node3</title>
<path fill="none" stroke="midnightblue" d="M245.56,-87C237.16,-87 228.58,-87 220.02,-87"/>
<polygon fill="midnightblue" stroke="midnightblue" points="245.7,-90.5 255.7,-87 245.7,-83.5 245.7,-90.5"/>
</g>
<!-- Node4 -->
<g id="node4" class="node">
<title>Node4</title>
<g id="a_node4"><a xlink:href="classQuantConnect_1_1Securities_1_1Option_1_1StrategyMatcher_1_1OptionStrategyLegDefinition.html#a34014f6c2722c441621530f858584b56" target="_top" xlink:title="Determines whether or not this leg definition matches the specified position , and if so,...">
<polygon fill="white" stroke="black" points="25,-0.5 25,-41.5 195,-41.5 195,-0.5 25,-0.5"/>
<text text-anchor="start" x="33" y="-29.5" font-family="Helvetica,sans-Serif" font-size="10.00">QuantConnect.Securities.</text>
<text text-anchor="start" x="33" y="-18.5" font-family="Helvetica,sans-Serif" font-size="10.00">Option.StrategyMatcher.Option</text>
<text text-anchor="middle" x="110" y="-7.5" font-family="Helvetica,sans-Serif" font-size="10.00">StrategyLegDefinition.TryMatch</text>
</a>
</g>
</g>
<!-- Node1&#45;&gt;Node4 -->
<g id="edge3" class="edge">
<title>Node1&#45;&gt;Node4</title>
<path fill="none" stroke="midnightblue" d="M258.29,-63.48C245.52,-59.6 232.39,-55.66 220,-52 208.39,-48.58 196.08,-45.01 184.05,-41.56"/>
<polygon fill="midnightblue" stroke="midnightblue" points="257.38,-66.86 267.97,-66.42 259.42,-60.16 257.38,-66.86"/>
</g>
</g>
</svg>
