<?xml version="1.0" encoding="UTF-8" standalone="no"?>
<!DOCTYPE svg PUBLIC "-//W3C//DTD SVG 1.1//EN"
 "http://www.w3.org/Graphics/SVG/1.1/DTD/svg11.dtd">
<!-- Generated by graphviz version 2.43.0 (0)
 -->
<!-- Title: QuantConnect.Algorithm.UniverseDefinitions.ETF Pages: 1 -->
<svg width="421pt" height="50pt"
 viewBox="0.00 0.00 421.00 50.00" xmlns="http://www.w3.org/2000/svg" xmlns:xlink="http://www.w3.org/1999/xlink">
<g id="graph0" class="graph" transform="scale(1 1) rotate(0) translate(4 46)">
<title>QuantConnect.Algorithm.UniverseDefinitions.ETF</title>
<polygon fill="white" stroke="transparent" points="-4,4 -4,-46 417,-46 417,4 -4,4"/>
<!-- Node1 -->
<g id="node1" class="node">
<title>Node1</title>
<g id="a_node1"><a xlink:title="Creates a universe for the constituents of the provided ETF symbol">
<polygon fill="#bfbfbf" stroke="black" points="0,-6 0,-36 183,-36 183,-6 0,-6"/>
<text text-anchor="start" x="8" y="-24" font-family="Helvetica,sans-Serif" font-size="10.00">QuantConnect.Algorithm.Universe</text>
<text text-anchor="middle" x="91.5" y="-13" font-family="Helvetica,sans-Serif" font-size="10.00">Definitions.ETF</text>
</a>
</g>
</g>
<!-- Node2 -->
<g id="node2" class="node">
<title>Node2</title>
<g id="a_node2"><a xlink:href="classQuantConnect_1_1Data_1_1UniverseSelection_1_1UniverseSettings.html#a4eae23dc3acf3b01a662937a00d0c989" target="_top" xlink:title="Initializes a new instance of the UniverseSettings class">
<polygon fill="white" stroke="black" points="219,-0.5 219,-41.5 413,-41.5 413,-0.5 219,-0.5"/>
<text text-anchor="start" x="227" y="-29.5" font-family="Helvetica,sans-Serif" font-size="10.00">QuantConnect.Data.Universe</text>
<text text-anchor="start" x="227" y="-18.5" font-family="Helvetica,sans-Serif" font-size="10.00">Selection.UniverseSettings.Universe</text>
<text text-anchor="middle" x="316" y="-7.5" font-family="Helvetica,sans-Serif" font-size="10.00">Settings</text>
</a>
</g>
</g>
<!-- Node1&#45;&gt;Node2 -->
<g id="edge1" class="edge">
<title>Node1&#45;&gt;Node2</title>
<path fill="none" stroke="midnightblue" d="M183.32,-21C191.61,-21 200.05,-21 208.46,-21"/>
<polygon fill="midnightblue" stroke="midnightblue" points="208.68,-24.5 218.68,-21 208.68,-17.5 208.68,-24.5"/>
</g>
</g>
</svg>
