<?xml version="1.0" encoding="UTF-8" standalone="no"?>
<!DOCTYPE svg PUBLIC "-//W3C//DTD SVG 1.1//EN"
 "http://www.w3.org/Graphics/SVG/1.1/DTD/svg11.dtd">
<!-- Generated by graphviz version 2.43.0 (0)
 -->
<!-- Title: QuantConnect.Algorithm.QCAlgorithm.RegisterIndicator&lt; T &gt; Pages: 1 -->
<!--zoomable 88 -->
<svg id="main" version="1.1" xmlns="http://www.w3.org/2000/svg" xmlns:xlink="http://www.w3.org/1999/xlink" xml:space="preserve" onload="init(evt)">
<style type="text/css"><![CDATA[
.edge:hover path { stroke: red; }
.edge:hover polygon { stroke: red; fill: red; }
]]></style>
<script type="text/javascript"><![CDATA[
var edges = document.getElementsByTagName('g');
if (edges && edges.length) {
  for (var i=0;i<edges.length;i++) {
    if (edges[i].id.substr(0,4)=='edge') {
      edges[i].setAttribute('class','edge');
    }
  }
}
]]></script>
        <defs>
                <circle id="rim" cx="0" cy="0" r="7"/>
                <circle id="rim2" cx="0" cy="0" r="3.5"/>
                <g id="zoomPlus">
                        <use xlink:href="#rim" fill="#404040">
                                <set attributeName="fill" to="#808080" begin="zoomplus.mouseover" end="zoomplus.mouseout"/>
                        </use>
                        <path d="M-4,0h8M0,-4v8" fill="none" stroke="white" stroke-width="1.5" pointer-events="none"/>
                </g>
                <g id="zoomMin">
                        <use xlink:href="#rim" fill="#404040">
                                <set attributeName="fill" to="#808080" begin="zoomminus.mouseover" end="zoomminus.mouseout"/>
                        </use>
                        <path d="M-4,0h8" fill="none" stroke="white" stroke-width="1.5" pointer-events="none"/>
                </g>
                <g id="dirArrow">
                        <path fill="none" stroke="white" stroke-width="1.5" d="M0,-3.0v7 M-2.5,-0.5L0,-3.0L2.5,-0.5"/>
                </g>
               <g id="resetDef">
                       <use xlink:href="#rim2" fill="#404040">
                               <set attributeName="fill" to="#808080" begin="reset.mouseover" end="reset.mouseout"/>
                       </use>
               </g>
        </defs>

<script type="text/javascript">
var viewWidth = 957;
var viewHeight = 88;
var sectionId = 'dynsection-251';
</script>
<script xlink:href="svgpan.js"/>
<svg id="graph" class="graph">
<g id="viewport">
<title>QuantConnect.Algorithm.QCAlgorithm.RegisterIndicator&lt; T &gt;</title>
<polygon fill="white" stroke="transparent" points="-4,4 -4,-84 953,-84 953,4 -4,4"/>
<!-- Node1 -->
<g id="node1" class="node">
<title>Node1</title>
<g id="a_node1"><a xlink:title="Registers the consolidator to receive automatic updates as well as configures the indicator to receiv...">
<polygon fill="#bfbfbf" stroke="black" points="0,-24.5 0,-54.5 205,-54.5 205,-24.5 0,-24.5"/>
<text text-anchor="start" x="8" y="-42.5" font-family="Helvetica,sans-Serif" font-size="10.00">QuantConnect.Algorithm.QCAlgorithm.</text>
<text text-anchor="middle" x="102.5" y="-31.5" font-family="Helvetica,sans-Serif" font-size="10.00">RegisterIndicator&lt; T &gt;</text>
</a>
</g>
</g>
<!-- Node2 -->
<g id="node2" class="node">
<title>Node2</title>
<g id="a_node2"><a xlink:href="classQuantConnect_1_1Data_1_1SubscriptionManager.html#a3970e39d984fe8dd05db26d5413a14ac" target="_top" xlink:title="Add a consolidator for the symbol">
<polygon fill="white" stroke="black" points="241,-24.5 241,-54.5 416,-54.5 416,-24.5 241,-24.5"/>
<text text-anchor="start" x="249" y="-42.5" font-family="Helvetica,sans-Serif" font-size="10.00">QuantConnect.Data.Subscription</text>
<text text-anchor="middle" x="328.5" y="-31.5" font-family="Helvetica,sans-Serif" font-size="10.00">Manager.AddConsolidator</text>
</a>
</g>
</g>
<!-- Node1&#45;&gt;Node2 -->
<g id="edge1" class="edge">
<title>Node1&#45;&gt;Node2</title>
<path fill="none" stroke="midnightblue" d="M205.01,-39.5C213.49,-39.5 222.05,-39.5 230.49,-39.5"/>
<polygon fill="midnightblue" stroke="midnightblue" points="230.72,-43 240.72,-39.5 230.72,-36 230.72,-43"/>
</g>
<!-- Node3 -->
<g id="node3" class="node">
<title>Node3</title>
<g id="a_node3"><a xlink:href="classQuantConnect_1_1Data_1_1SubscriptionManager.html#a1db2d9657ee5ecc85607653a46220de2" target="_top" xlink:title="Checks if the subscription is valid for the consolidator">
<polygon fill="white" stroke="black" points="452,-24.5 452,-54.5 682,-54.5 682,-24.5 452,-24.5"/>
<text text-anchor="start" x="460" y="-42.5" font-family="Helvetica,sans-Serif" font-size="10.00">QuantConnect.Data.Subscription</text>
<text text-anchor="middle" x="567" y="-31.5" font-family="Helvetica,sans-Serif" font-size="10.00">Manager.IsSubscriptionValidForConsolidator</text>
</a>
</g>
</g>
<!-- Node2&#45;&gt;Node3 -->
<g id="edge2" class="edge">
<title>Node2&#45;&gt;Node3</title>
<path fill="none" stroke="midnightblue" d="M416.22,-39.5C424.56,-39.5 433.12,-39.5 441.73,-39.5"/>
<polygon fill="midnightblue" stroke="midnightblue" points="441.84,-43 451.84,-39.5 441.84,-36 441.84,-43"/>
</g>
<!-- Node4 -->
<g id="node4" class="node">
<title>Node4</title>
<g id="a_node4"><a xlink:href="classQuantConnect_1_1Util_1_1LeanData.html#adf1799b921849e0643385e6794ec2471" target="_top" xlink:title="Get the TickType for common Lean data types. If not a Lean common data type, return a TickType of Tra...">
<polygon fill="white" stroke="black" points="718,-49.5 718,-79.5 949,-79.5 949,-49.5 718,-49.5"/>
<text text-anchor="start" x="726" y="-67.5" font-family="Helvetica,sans-Serif" font-size="10.00">QuantConnect.Util.LeanData.</text>
<text text-anchor="middle" x="833.5" y="-56.5" font-family="Helvetica,sans-Serif" font-size="10.00">GetCommonTickTypeForCommonDataTypes</text>
</a>
</g>
</g>
<!-- Node3&#45;&gt;Node4 -->
<g id="edge3" class="edge">
<title>Node3&#45;&gt;Node4</title>
<path fill="none" stroke="midnightblue" d="M682.09,-50.28C690.63,-51.09 699.28,-51.91 707.88,-52.72"/>
<polygon fill="midnightblue" stroke="midnightblue" points="707.66,-56.22 717.95,-53.67 708.32,-49.25 707.66,-56.22"/>
</g>
<!-- Node5 -->
<g id="node5" class="node">
<title>Node5</title>
<g id="a_node5"><a xlink:href="classQuantConnect_1_1Util_1_1LeanData.html#af07561616d971cbd08adb7847eafb7f6" target="_top" xlink:title="Determines if the Type is a &#39;common&#39; type used throughout lean This method is helpful in creating Sub...">
<polygon fill="white" stroke="black" points="754.5,-0.5 754.5,-30.5 912.5,-30.5 912.5,-0.5 754.5,-0.5"/>
<text text-anchor="start" x="762.5" y="-18.5" font-family="Helvetica,sans-Serif" font-size="10.00">QuantConnect.Util.LeanData.</text>
<text text-anchor="middle" x="833.5" y="-7.5" font-family="Helvetica,sans-Serif" font-size="10.00">IsCommonLeanDataType</text>
</a>
</g>
</g>
<!-- Node3&#45;&gt;Node5 -->
<g id="edge4" class="edge">
<title>Node3&#45;&gt;Node5</title>
<path fill="none" stroke="midnightblue" d="M682.09,-29.15C702.81,-27.27 724.13,-25.33 743.97,-23.53"/>
<polygon fill="midnightblue" stroke="midnightblue" points="744.56,-26.99 754.21,-22.6 743.93,-20.02 744.56,-26.99"/>
</g>
</g>
</svg>
        <g id="navigator" transform="translate(0 0)" fill="#404254">
                <rect fill="#f2f5e9" fill-opacity="0.5" stroke="#606060" stroke-width=".5" x="0" y="0" width="60" height="60"/>
                <use id="zoomplus" xlink:href="#zoomPlus" x="17" y="9" onmousedown="handleZoom(evt,'in')"/>
                <use id="zoomminus" xlink:href="#zoomMin" x="42" y="9" onmousedown="handleZoom(evt,'out')"/>
                <use id="reset" xlink:href="#resetDef" x="30" y="36" onmousedown="handleReset()"/>
                <g id="arrowUp" xlink:href="#dirArrow" transform="translate(30 24)" onmousedown="handlePan(0,-1)">
                  <use xlink:href="#rim" fill="#404040">
                        <set attributeName="fill" to="#808080" begin="arrowUp.mouseover" end="arrowUp.mouseout"/>
                  </use>
                  <path fill="none" stroke="white" stroke-width="1.5" d="M0,-3.0v7 M-2.5,-0.5L0,-3.0L2.5,-0.5"/>
                </g>
                <g id="arrowRight" xlink:href="#dirArrow" transform="rotate(90) translate(36 -43)" onmousedown="handlePan(1,0)">
                  <use xlink:href="#rim" fill="#404040">
                        <set attributeName="fill" to="#808080" begin="arrowRight.mouseover" end="arrowRight.mouseout"/>
                  </use>
                  <path fill="none" stroke="white" stroke-width="1.5" d="M0,-3.0v7 M-2.5,-0.5L0,-3.0L2.5,-0.5"/>
                </g>
                <g id="arrowDown" xlink:href="#dirArrow" transform="rotate(180) translate(-30 -48)" onmousedown="handlePan(0,1)">
                  <use xlink:href="#rim" fill="#404040">
                        <set attributeName="fill" to="#808080" begin="arrowDown.mouseover" end="arrowDown.mouseout"/>
                  </use>
                  <path fill="none" stroke="white" stroke-width="1.5" d="M0,-3.0v7 M-2.5,-0.5L0,-3.0L2.5,-0.5"/>
                </g>
                <g id="arrowLeft" xlink:href="#dirArrow" transform="rotate(270) translate(-36 17)" onmousedown="handlePan(-1,0)">
                  <use xlink:href="#rim" fill="#404040">
                        <set attributeName="fill" to="#808080" begin="arrowLeft.mouseover" end="arrowLeft.mouseout"/>
                  </use>
                  <path fill="none" stroke="white" stroke-width="1.5" d="M0,-3.0v7 M-2.5,-0.5L0,-3.0L2.5,-0.5"/>
                </g>
        </g>
        <svg viewBox="0 0 15 15" width="100%" height="30px" preserveAspectRatio="xMaxYMin meet">
         <g id="arrow_out" transform="scale(0.3 0.3)">
          <a xlink:href="classQuantConnect_1_1Algorithm_1_1QCAlgorithm_a84aeb9d947c2cf8f275b9524f4c5b830_cgraph_org.svg" target="_base">
           <rect id="button" ry="5" rx="5" y="6" x="6" height="38" width="38"
                fill="#f2f5e9" fill-opacity="0.5" stroke="#606060" stroke-width="1.0"/>
           <path id="arrow"
             d="M 11.500037,31.436501 C 11.940474,20.09759 22.043105,11.32322 32.158766,21.979434 L 37.068811,17.246167 C 37.068811,17.246167 37.088388,32 37.088388,32 L 22.160133,31.978069 C 22.160133,31.978069 26.997745,27.140456 26.997745,27.140456 C 18.528582,18.264221 13.291696,25.230495 11.500037,31.436501 z"
             style="fill:#404040;"/>
          </a>
         </g>
        </svg>
</svg>
