<?xml version="1.0" encoding="UTF-8" standalone="no"?>
<!DOCTYPE svg PUBLIC "-//W3C//DTD SVG 1.1//EN"
 "http://www.w3.org/Graphics/SVG/1.1/DTD/svg11.dtd">
<!-- Generated by graphviz version 2.43.0 (0)
 -->
<!-- Title: BybitFeeModel.GetOrderFee Pages: 1 -->
<svg width="1070pt" height="219pt"
 viewBox="0.00 0.00 1070.00 219.00" xmlns="http://www.w3.org/2000/svg" xmlns:xlink="http://www.w3.org/1999/xlink">
<g id="graph0" class="graph" transform="scale(1 1) rotate(0) translate(4 215)">
<title>BybitFeeModel.GetOrderFee</title>
<polygon fill="white" stroke="transparent" points="-4,4 -4,-215 1066,-215 1066,4 -4,4"/>
<!-- Node1 -->
<g id="node1" class="node">
<title>Node1</title>
<g id="a_node1"><a xlink:title="Gets the order fee associated with the specified order.">
<polygon fill="#bfbfbf" stroke="black" points="0,-90 0,-109 154,-109 154,-90 0,-90"/>
<text text-anchor="middle" x="77" y="-97" font-family="Helvetica,sans-Serif" font-size="10.00">BybitFeeModel.GetOrderFee</text>
</a>
</g>
</g>
<!-- Node2 -->
<g id="node2" class="node">
<title>Node2</title>
<g id="a_node2"><a xlink:href="classQuantConnect_1_1Util_1_1CurrencyPairUtil.html#af097148889729df56066a7f324c558a0" target="_top" xlink:title="Decomposes the specified currency pair into a base and quote currency provided as out parameters">
<polygon fill="white" stroke="black" points="190,-106.5 190,-136.5 364,-136.5 364,-106.5 190,-106.5"/>
<text text-anchor="start" x="198" y="-124.5" font-family="Helvetica,sans-Serif" font-size="10.00">QuantConnect.Util.Currency</text>
<text text-anchor="middle" x="277" y="-113.5" font-family="Helvetica,sans-Serif" font-size="10.00">PairUtil.DecomposeCurrencyPair</text>
</a>
</g>
</g>
<!-- Node1&#45;&gt;Node2 -->
<g id="edge1" class="edge">
<title>Node1&#45;&gt;Node2</title>
<path fill="none" stroke="midnightblue" d="M154.27,-107.97C162.65,-108.91 171.25,-109.86 179.83,-110.81"/>
<polygon fill="midnightblue" stroke="midnightblue" points="179.55,-114.3 189.88,-111.93 180.32,-107.35 179.55,-114.3"/>
</g>
<!-- Node11 -->
<g id="node11" class="node">
<title>Node11</title>
<g id="a_node11"><a xlink:href="classBybitFeeModel.html#aecaede555d6e25c0cb3ada22d3b7e4f0" target="_top" xlink:title="Gets the fee factor for the given order">
<polygon fill="white" stroke="black" points="213.5,-68 213.5,-87 340.5,-87 340.5,-68 213.5,-68"/>
<text text-anchor="middle" x="277" y="-75" font-family="Helvetica,sans-Serif" font-size="10.00">BybitFeeModel.GetFee</text>
</a>
</g>
</g>
<!-- Node1&#45;&gt;Node11 -->
<g id="edge10" class="edge">
<title>Node1&#45;&gt;Node11</title>
<path fill="none" stroke="midnightblue" d="M154.27,-91.03C170.27,-89.25 187.1,-87.38 202.97,-85.61"/>
<polygon fill="midnightblue" stroke="midnightblue" points="203.7,-89.06 213.25,-84.47 202.92,-82.1 203.7,-89.06"/>
</g>
<!-- Node3 -->
<g id="node3" class="node">
<title>Node3</title>
<g id="a_node3"><a xlink:href="classQuantConnect_1_1Securities_1_1Forex_1_1Forex.html#af7fbd660dcbbc46527c61baafe2549bb" target="_top" xlink:title="Decomposes the specified currency pair into a base and quote currency provided as out parameters">
<polygon fill="white" stroke="black" points="405,-180.5 405,-210.5 601,-210.5 601,-180.5 405,-180.5"/>
<text text-anchor="start" x="413" y="-198.5" font-family="Helvetica,sans-Serif" font-size="10.00">QuantConnect.Securities.</text>
<text text-anchor="middle" x="503" y="-187.5" font-family="Helvetica,sans-Serif" font-size="10.00">Forex.Forex.DecomposeCurrencyPair</text>
</a>
</g>
</g>
<!-- Node2&#45;&gt;Node3 -->
<g id="edge2" class="edge">
<title>Node2&#45;&gt;Node3</title>
<path fill="none" stroke="midnightblue" d="M310.62,-136.52C334.89,-147.28 369.05,-161.58 400,-171.5 407.05,-173.76 414.43,-175.9 421.86,-177.92"/>
<polygon fill="midnightblue" stroke="midnightblue" points="421.08,-181.33 431.64,-180.48 422.86,-174.56 421.08,-181.33"/>
</g>
<!-- Node5 -->
<g id="node5" class="node">
<title>Node5</title>
<g id="a_node5"><a xlink:href="classQuantConnect_1_1Securities_1_1Cfd_1_1Cfd.html#a29bdbe6a6d36ed75a1816cad31ee6eaa" target="_top" xlink:title="Decomposes the specified currency pair into a base and quote currency provided as out parameters">
<polygon fill="white" stroke="black" points="415.5,-131.5 415.5,-161.5 590.5,-161.5 590.5,-131.5 415.5,-131.5"/>
<text text-anchor="start" x="423.5" y="-149.5" font-family="Helvetica,sans-Serif" font-size="10.00">QuantConnect.Securities.</text>
<text text-anchor="middle" x="503" y="-138.5" font-family="Helvetica,sans-Serif" font-size="10.00">Cfd.Cfd.DecomposeCurrencyPair</text>
</a>
</g>
</g>
<!-- Node2&#45;&gt;Node5 -->
<g id="edge4" class="edge">
<title>Node2&#45;&gt;Node5</title>
<path fill="none" stroke="midnightblue" d="M364.28,-131.13C377.64,-132.62 391.51,-134.17 405.08,-135.68"/>
<polygon fill="midnightblue" stroke="midnightblue" points="405.06,-139.2 415.39,-136.83 405.84,-132.25 405.06,-139.2"/>
</g>
<!-- Node6 -->
<g id="node6" class="node">
<title>Node6</title>
<g id="a_node6"><a xlink:href="classQuantConnect_1_1Securities_1_1Crypto_1_1Crypto.html#a34f3ec6157d9575e34127b5172706403" target="_top" xlink:title="Decomposes the specified currency pair into a base and quote currency provided as out parameters">
<polygon fill="white" stroke="black" points="400,-82.5 400,-112.5 606,-112.5 606,-82.5 400,-82.5"/>
<text text-anchor="start" x="408" y="-100.5" font-family="Helvetica,sans-Serif" font-size="10.00">QuantConnect.Securities.</text>
<text text-anchor="middle" x="503" y="-89.5" font-family="Helvetica,sans-Serif" font-size="10.00">Crypto.Crypto.DecomposeCurrencyPair</text>
</a>
</g>
</g>
<!-- Node2&#45;&gt;Node6 -->
<g id="edge5" class="edge">
<title>Node2&#45;&gt;Node6</title>
<path fill="none" stroke="midnightblue" d="M364.28,-112.26C372.61,-111.36 381.14,-110.45 389.67,-109.54"/>
<polygon fill="midnightblue" stroke="midnightblue" points="390.1,-113.01 399.67,-108.46 389.35,-106.05 390.1,-113.01"/>
</g>
<!-- Node7 -->
<g id="node7" class="node">
<title>Node7</title>
<g id="a_node7"><a xlink:href="classQuantConnect_1_1Securities_1_1SymbolPropertiesDatabase.html#a3ea48557a7a885c2c53529f8c4b75598" target="_top" xlink:title="Gets the symbol properties for the specified market/symbol/security&#45;type">
<polygon fill="white" stroke="black" points="418,-22 418,-63 588,-63 588,-22 418,-22"/>
<text text-anchor="start" x="426" y="-51" font-family="Helvetica,sans-Serif" font-size="10.00">QuantConnect.Securities.</text>
<text text-anchor="start" x="426" y="-40" font-family="Helvetica,sans-Serif" font-size="10.00">SymbolPropertiesDatabase.Get</text>
<text text-anchor="middle" x="503" y="-29" font-family="Helvetica,sans-Serif" font-size="10.00">SymbolProperties</text>
</a>
</g>
</g>
<!-- Node2&#45;&gt;Node7 -->
<g id="edge6" class="edge">
<title>Node2&#45;&gt;Node7</title>
<path fill="none" stroke="midnightblue" d="M338.54,-106.44C347.24,-103.55 355.96,-100.24 364,-96.5 381.44,-88.39 382.58,-80.64 400,-72.5 404.37,-70.46 408.91,-68.52 413.54,-66.69"/>
<polygon fill="midnightblue" stroke="midnightblue" points="415.02,-69.87 423.14,-63.07 412.55,-63.32 415.02,-69.87"/>
</g>
<!-- Node4 -->
<g id="node4" class="node">
<title>Node4</title>
<g id="a_node4"><a xlink:href="classQuantConnect_1_1Util_1_1CurrencyPairUtil.html#ab191629e505a3345a1c993773c2cdf2f" target="_top" xlink:title="Checks whether a symbol is decomposable into a base and a quote currency">
<polygon fill="white" stroke="black" points="656.5,-180.5 656.5,-210.5 819.5,-210.5 819.5,-180.5 656.5,-180.5"/>
<text text-anchor="start" x="664.5" y="-198.5" font-family="Helvetica,sans-Serif" font-size="10.00">QuantConnect.Util.Currency</text>
<text text-anchor="middle" x="738" y="-187.5" font-family="Helvetica,sans-Serif" font-size="10.00">PairUtil.IsForexDecomposable</text>
</a>
</g>
</g>
<!-- Node3&#45;&gt;Node4 -->
<g id="edge3" class="edge">
<title>Node3&#45;&gt;Node4</title>
<path fill="none" stroke="midnightblue" d="M601.13,-195.5C616.04,-195.5 631.39,-195.5 646.16,-195.5"/>
<polygon fill="midnightblue" stroke="midnightblue" points="646.28,-199 656.28,-195.5 646.28,-192 646.28,-199"/>
</g>
<!-- Node8 -->
<g id="node8" class="node">
<title>Node8</title>
<g id="a_node8"><a xlink:href="classQuantConnect_1_1Securities_1_1MarketHoursDatabase.html#aa717adb9bb04be931913608ffd5a2733" target="_top" xlink:title="Gets the correct string symbol to use as a database key">
<polygon fill="white" stroke="black" points="642,-50 642,-91 834,-91 834,-50 642,-50"/>
<text text-anchor="start" x="650" y="-79" font-family="Helvetica,sans-Serif" font-size="10.00">QuantConnect.Securities.</text>
<text text-anchor="start" x="650" y="-68" font-family="Helvetica,sans-Serif" font-size="10.00">MarketHoursDatabase.GetDatabase</text>
<text text-anchor="middle" x="738" y="-57" font-family="Helvetica,sans-Serif" font-size="10.00">SymbolKey</text>
</a>
</g>
</g>
<!-- Node7&#45;&gt;Node8 -->
<g id="edge7" class="edge">
<title>Node7&#45;&gt;Node8</title>
<path fill="none" stroke="midnightblue" d="M588.12,-52.61C602.31,-54.31 617.2,-56.1 631.85,-57.86"/>
<polygon fill="midnightblue" stroke="midnightblue" points="631.59,-61.36 641.94,-59.08 632.42,-54.41 631.59,-61.36"/>
</g>
<!-- Node9 -->
<g id="node9" class="node">
<title>Node9</title>
<g id="a_node9"><a xlink:href="classQuantConnect_1_1Securities_1_1SymbolProperties.html#ad148190d1dfce7109d38d3107b7b8fbf" target="_top" xlink:title="Gets a default instance of the SymbolProperties class for the specified quoteCurrency">
<polygon fill="white" stroke="black" points="658.5,-0.5 658.5,-30.5 817.5,-30.5 817.5,-0.5 658.5,-0.5"/>
<text text-anchor="start" x="666.5" y="-18.5" font-family="Helvetica,sans-Serif" font-size="10.00">QuantConnect.Securities.</text>
<text text-anchor="middle" x="738" y="-7.5" font-family="Helvetica,sans-Serif" font-size="10.00">SymbolProperties.GetDefault</text>
</a>
</g>
</g>
<!-- Node7&#45;&gt;Node9 -->
<g id="edge8" class="edge">
<title>Node7&#45;&gt;Node9</title>
<path fill="none" stroke="midnightblue" d="M588.12,-32.75C607.65,-30.49 628.51,-28.07 648.24,-25.79"/>
<polygon fill="midnightblue" stroke="midnightblue" points="648.91,-29.23 658.44,-24.6 648.11,-22.28 648.91,-29.23"/>
</g>
<!-- Node10 -->
<g id="node10" class="node">
<title>Node10</title>
<g id="a_node10"><a xlink:href="classQuantConnect_1_1Securities_1_1SymbolProperties.html#a0f421617bcddd5b08a830689b1e2dcfa" target="_top" xlink:title="Creates an instance of the SymbolProperties class">
<polygon fill="white" stroke="black" points="870,-0.5 870,-30.5 1062,-30.5 1062,-0.5 870,-0.5"/>
<text text-anchor="start" x="878" y="-18.5" font-family="Helvetica,sans-Serif" font-size="10.00">QuantConnect.Securities.</text>
<text text-anchor="middle" x="966" y="-7.5" font-family="Helvetica,sans-Serif" font-size="10.00">SymbolProperties.SymbolProperties</text>
</a>
</g>
</g>
<!-- Node9&#45;&gt;Node10 -->
<g id="edge9" class="edge">
<title>Node9&#45;&gt;Node10</title>
<path fill="none" stroke="midnightblue" d="M817.73,-15.5C831.26,-15.5 845.51,-15.5 859.61,-15.5"/>
<polygon fill="midnightblue" stroke="midnightblue" points="859.83,-19 869.83,-15.5 859.83,-12 859.83,-19"/>
</g>
</g>
</svg>
