<?xml version="1.0" encoding="UTF-8" standalone="no"?>
<!DOCTYPE svg PUBLIC "-//W3C//DTD SVG 1.1//EN"
 "http://www.w3.org/Graphics/SVG/1.1/DTD/svg11.dtd">
<!-- Generated by graphviz version 2.43.0 (0)
 -->
<!-- Title: QuantConnect.Indicators.Variance Pages: 1 -->
<svg width="354pt" height="173pt"
 viewBox="0.00 0.00 354.00 173.00" xmlns="http://www.w3.org/2000/svg" xmlns:xlink="http://www.w3.org/1999/xlink">
<g id="graph0" class="graph" transform="scale(1 1) rotate(0) translate(4 169)">
<title>QuantConnect.Indicators.Variance</title>
<polygon fill="white" stroke="transparent" points="-4,4 -4,-169 350,-169 350,4 -4,4"/>
<!-- Node1 -->
<g id="node1" class="node">
<title>Node1</title>
<g id="a_node1"><a xlink:title="This indicator computes the n&#45;period population variance.">
<polygon fill="#bfbfbf" stroke="black" points="97,-67.5 97,-97.5 237,-97.5 237,-67.5 97,-67.5"/>
<text text-anchor="start" x="105" y="-85.5" font-family="Helvetica,sans-Serif" font-size="10.00">QuantConnect.Indicators.</text>
<text text-anchor="middle" x="167" y="-74.5" font-family="Helvetica,sans-Serif" font-size="10.00">Variance</text>
</a>
</g>
</g>
<!-- Node4 -->
<g id="node4" class="node">
<title>Node4</title>
<g id="a_node4"><a xlink:href="classQuantConnect_1_1Indicators_1_1StandardDeviation.html" target="_top" xlink:title="This indicator computes the n&#45;period population standard deviation.">
<polygon fill="white" stroke="black" points="97,-0.5 97,-30.5 237,-30.5 237,-0.5 97,-0.5"/>
<text text-anchor="start" x="105" y="-18.5" font-family="Helvetica,sans-Serif" font-size="10.00">QuantConnect.Indicators.</text>
<text text-anchor="middle" x="167" y="-7.5" font-family="Helvetica,sans-Serif" font-size="10.00">StandardDeviation</text>
</a>
</g>
</g>
<!-- Node1&#45;&gt;Node4 -->
<g id="edge3" class="edge">
<title>Node1&#45;&gt;Node4</title>
<path fill="none" stroke="midnightblue" d="M167,-57.11C167,-48.15 167,-38.32 167,-30.58"/>
<polygon fill="midnightblue" stroke="midnightblue" points="163.5,-57.4 167,-67.4 170.5,-57.4 163.5,-57.4"/>
</g>
<!-- Node2 -->
<g id="node2" class="node">
<title>Node2</title>
<g id="a_node2"><a xlink:href="classQuantConnect_1_1Indicators_1_1WindowIndicator.html" target="_top" xlink:title=" ">
<polygon fill="white" stroke="black" points="0,-134.5 0,-164.5 152,-164.5 152,-134.5 0,-134.5"/>
<text text-anchor="start" x="8" y="-152.5" font-family="Helvetica,sans-Serif" font-size="10.00">WindowIndicator&lt; Indicator</text>
<text text-anchor="middle" x="76" y="-141.5" font-family="Helvetica,sans-Serif" font-size="10.00">DataPoint &gt;</text>
</a>
</g>
</g>
<!-- Node2&#45;&gt;Node1 -->
<g id="edge1" class="edge">
<title>Node2&#45;&gt;Node1</title>
<path fill="none" stroke="midnightblue" d="M104.07,-128.45C118.07,-118.45 134.66,-106.6 147.29,-97.58"/>
<polygon fill="midnightblue" stroke="midnightblue" points="101.85,-125.74 95.75,-134.4 105.92,-131.43 101.85,-125.74"/>
</g>
<!-- Node3 -->
<g id="node3" class="node">
<title>Node3</title>
<g id="a_node3"><a xlink:href="interfaceQuantConnect_1_1Indicators_1_1IIndicatorWarmUpPeriodProvider.html" target="_top" xlink:title="Represents an indicator with a warm up period provider.">
<polygon fill="white" stroke="black" points="170,-140 170,-159 346,-159 346,-140 170,-140"/>
<text text-anchor="middle" x="258" y="-147" font-family="Helvetica,sans-Serif" font-size="10.00">IIndicatorWarmUpPeriodProvider</text>
</a>
</g>
</g>
<!-- Node3&#45;&gt;Node1 -->
<g id="edge2" class="edge">
<title>Node3&#45;&gt;Node1</title>
<path fill="none" stroke="midnightblue" d="M237.49,-133.85C222.3,-123 201.72,-108.3 186.72,-97.59"/>
<polygon fill="midnightblue" stroke="midnightblue" points="235.56,-136.77 245.73,-139.73 239.62,-131.07 235.56,-136.77"/>
</g>
</g>
</svg>
