<?xml version="1.0" encoding="UTF-8" standalone="no"?>
<!DOCTYPE svg PUBLIC "-//W3C//DTD SVG 1.1//EN"
 "http://www.w3.org/Graphics/SVG/1.1/DTD/svg11.dtd">
<!-- Generated by graphviz version 2.43.0 (0)
 -->
<!-- Title: QuantConnect.Securities.SecurityTransactionManager.GetOpenOrders Pages: 1 -->
<svg width="905pt" height="160pt"
 viewBox="0.00 0.00 905.00 159.50" xmlns="http://www.w3.org/2000/svg" xmlns:xlink="http://www.w3.org/1999/xlink">
<g id="graph0" class="graph" transform="scale(1 1) rotate(0) translate(4 155.5)">
<title>QuantConnect.Securities.SecurityTransactionManager.GetOpenOrders</title>
<polygon fill="white" stroke="transparent" points="-4,4 -4,-155.5 901,-155.5 901,4 -4,4"/>
<!-- Node1 -->
<g id="node1" class="node">
<title>Node1</title>
<g id="a_node1"><a xlink:title="Get a list of all open orders for a symbol.">
<polygon fill="#bfbfbf" stroke="black" points="723,-50 723,-91 897,-91 897,-50 723,-50"/>
<text text-anchor="start" x="731" y="-79" font-family="Helvetica,sans-Serif" font-size="10.00">QuantConnect.Securities.</text>
<text text-anchor="start" x="731" y="-68" font-family="Helvetica,sans-Serif" font-size="10.00">SecurityTransactionManager.Get</text>
<text text-anchor="middle" x="810" y="-57" font-family="Helvetica,sans-Serif" font-size="10.00">OpenOrders</text>
</a>
</g>
</g>
<!-- Node2 -->
<g id="node2" class="node">
<title>Node2</title>
<g id="a_node2"><a xlink:href="classQuantConnect_1_1Brokerages_1_1Backtesting_1_1BacktestingBrokerage.html#a2118211e9540ff80d504fd888c203d55" target="_top" xlink:title="Gets all open orders on the account">
<polygon fill="white" stroke="black" points="490.5,-110 490.5,-151 678.5,-151 678.5,-110 490.5,-110"/>
<text text-anchor="start" x="498.5" y="-139" font-family="Helvetica,sans-Serif" font-size="10.00">QuantConnect.Brokerages.</text>
<text text-anchor="start" x="498.5" y="-128" font-family="Helvetica,sans-Serif" font-size="10.00">Backtesting.BacktestingBrokerage.</text>
<text text-anchor="middle" x="584.5" y="-117" font-family="Helvetica,sans-Serif" font-size="10.00">GetOpenOrders</text>
</a>
</g>
</g>
<!-- Node1&#45;&gt;Node2 -->
<g id="edge1" class="edge">
<title>Node1&#45;&gt;Node2</title>
<path fill="none" stroke="midnightblue" d="M722.68,-93.67C702.69,-99.04 681.54,-104.72 662,-109.96"/>
<polygon fill="midnightblue" stroke="midnightblue" points="723.65,-97.04 732.4,-91.06 721.83,-90.28 723.65,-97.04"/>
</g>
<!-- Node3 -->
<g id="node3" class="node">
<title>Node3</title>
<g id="a_node3"><a xlink:href="classQuantConnect_1_1Securities_1_1SecurityTransactionManager.html#afa91092ed03843465ba9b4910e3789af" target="_top" xlink:title="Gets open orders matching the specified filter. However, this method can be confused with the overrid...">
<polygon fill="white" stroke="black" points="497.5,-50 497.5,-91 671.5,-91 671.5,-50 497.5,-50"/>
<text text-anchor="start" x="505.5" y="-79" font-family="Helvetica,sans-Serif" font-size="10.00">QuantConnect.Securities.</text>
<text text-anchor="start" x="505.5" y="-68" font-family="Helvetica,sans-Serif" font-size="10.00">SecurityTransactionManager.Get</text>
<text text-anchor="middle" x="584.5" y="-57" font-family="Helvetica,sans-Serif" font-size="10.00">OpenOrders</text>
</a>
</g>
</g>
<!-- Node1&#45;&gt;Node3 -->
<g id="edge2" class="edge">
<title>Node1&#45;&gt;Node3</title>
<path fill="none" stroke="midnightblue" d="M712.55,-70.5C698.92,-70.5 684.97,-70.5 671.55,-70.5"/>
<polygon fill="midnightblue" stroke="midnightblue" points="712.91,-74 722.91,-70.5 712.91,-67 712.91,-74"/>
</g>
<!-- Node4 -->
<g id="node4" class="node">
<title>Node4</title>
<g id="a_node4"><a xlink:href="classQuantConnect_1_1Algorithm_1_1QCAlgorithm.html#a508fd4e5eb28d4280af51f647994d6ee" target="_top" xlink:title="Liquidate all holdings and cancel open orders. Called at the end of day for tick&#45;strategies.">
<polygon fill="white" stroke="black" points="482,-0.5 482,-30.5 687,-30.5 687,-0.5 482,-0.5"/>
<text text-anchor="start" x="490" y="-18.5" font-family="Helvetica,sans-Serif" font-size="10.00">QuantConnect.Algorithm.QCAlgorithm.</text>
<text text-anchor="middle" x="584.5" y="-7.5" font-family="Helvetica,sans-Serif" font-size="10.00">Liquidate</text>
</a>
</g>
</g>
<!-- Node1&#45;&gt;Node4 -->
<g id="edge3" class="edge">
<title>Node1&#45;&gt;Node4</title>
<path fill="none" stroke="midnightblue" d="M715.56,-47.51C692.27,-41.77 667.89,-35.77 646.62,-30.54"/>
<polygon fill="midnightblue" stroke="midnightblue" points="714.91,-50.95 725.46,-49.94 716.59,-44.15 714.91,-50.95"/>
</g>
<!-- Node5 -->
<g id="node5" class="node">
<title>Node5</title>
<g id="a_node5"><a xlink:href="classQuantConnect_1_1Algorithm_1_1QCAlgorithm.html#a6ece1896dff33aafccfb1707a83a77c3" target="_top" xlink:title="Removes the security with the specified symbol. This will cancel all open orders and then liquidate a...">
<polygon fill="white" stroke="black" points="241,-0.5 241,-30.5 446,-30.5 446,-0.5 241,-0.5"/>
<text text-anchor="start" x="249" y="-18.5" font-family="Helvetica,sans-Serif" font-size="10.00">QuantConnect.Algorithm.QCAlgorithm.</text>
<text text-anchor="middle" x="343.5" y="-7.5" font-family="Helvetica,sans-Serif" font-size="10.00">RemoveSecurity</text>
</a>
</g>
</g>
<!-- Node4&#45;&gt;Node5 -->
<g id="edge4" class="edge">
<title>Node4&#45;&gt;Node5</title>
<path fill="none" stroke="midnightblue" d="M471.78,-15.5C463.22,-15.5 454.6,-15.5 446.11,-15.5"/>
<polygon fill="midnightblue" stroke="midnightblue" points="471.8,-19 481.8,-15.5 471.8,-12 471.8,-19"/>
</g>
<!-- Node6 -->
<g id="node6" class="node">
<title>Node6</title>
<g id="a_node6"><a xlink:href="classQuantConnect_1_1Algorithm_1_1QCAlgorithm.html#aaa03fad6a4f4df5db3a0273d94df6436" target="_top" xlink:title="Removes the security with the specified symbol. This will cancel all open orders and then liquidate a...">
<polygon fill="white" stroke="black" points="0,-0.5 0,-30.5 205,-30.5 205,-0.5 0,-0.5"/>
<text text-anchor="start" x="8" y="-18.5" font-family="Helvetica,sans-Serif" font-size="10.00">QuantConnect.Algorithm.QCAlgorithm.</text>
<text text-anchor="middle" x="102.5" y="-7.5" font-family="Helvetica,sans-Serif" font-size="10.00">RemoveOptionContract</text>
</a>
</g>
</g>
<!-- Node5&#45;&gt;Node6 -->
<g id="edge5" class="edge">
<title>Node5&#45;&gt;Node6</title>
<path fill="none" stroke="midnightblue" d="M230.78,-15.5C222.22,-15.5 213.6,-15.5 205.11,-15.5"/>
<polygon fill="midnightblue" stroke="midnightblue" points="230.8,-19 240.8,-15.5 230.8,-12 230.8,-19"/>
</g>
</g>
</svg>
