<?xml version="1.0" encoding="UTF-8" standalone="no"?>
<!DOCTYPE svg PUBLIC "-//W3C//DTD SVG 1.1//EN"
 "http://www.w3.org/Graphics/SVG/1.1/DTD/svg11.dtd">
<!-- Generated by graphviz version 2.43.0 (0)
 -->
<!-- Title: QuantConnect.Brokerages.BinanceBrokerageModel Pages: 1 -->
<svg width="893pt" height="88pt"
 viewBox="0.00 0.00 893.00 88.00" xmlns="http://www.w3.org/2000/svg" xmlns:xlink="http://www.w3.org/1999/xlink">
<g id="graph0" class="graph" transform="scale(1 1) rotate(0) translate(4 84)">
<title>QuantConnect.Brokerages.BinanceBrokerageModel</title>
<polygon fill="white" stroke="transparent" points="-4,4 -4,-84 889,-84 889,4 -4,4"/>
<!-- Node1 -->
<g id="node1" class="node">
<title>Node1</title>
<g id="a_node1"><a xlink:title="Provides Binance specific properties">
<polygon fill="#bfbfbf" stroke="black" points="303,-24.5 303,-54.5 449,-54.5 449,-24.5 303,-24.5"/>
<text text-anchor="start" x="311" y="-42.5" font-family="Helvetica,sans-Serif" font-size="10.00">QuantConnect.Brokerages.</text>
<text text-anchor="middle" x="376" y="-31.5" font-family="Helvetica,sans-Serif" font-size="10.00">BinanceBrokerageModel</text>
</a>
</g>
</g>
<!-- Node4 -->
<g id="node4" class="node">
<title>Node4</title>
<g id="a_node4"><a xlink:href="classQuantConnect_1_1Brokerages_1_1BinanceFuturesBrokerageModel.html" target="_top" xlink:title="Provides Binance Futures specific properties">
<polygon fill="white" stroke="black" points="485,-49.5 485,-79.5 656,-79.5 656,-49.5 485,-49.5"/>
<text text-anchor="start" x="493" y="-67.5" font-family="Helvetica,sans-Serif" font-size="10.00">QuantConnect.Brokerages.</text>
<text text-anchor="middle" x="570.5" y="-56.5" font-family="Helvetica,sans-Serif" font-size="10.00">BinanceFuturesBrokerageModel</text>
</a>
</g>
</g>
<!-- Node1&#45;&gt;Node4 -->
<g id="edge3" class="edge">
<title>Node1&#45;&gt;Node4</title>
<path fill="none" stroke="midnightblue" d="M459.42,-50.2C467.85,-51.3 476.42,-52.41 484.87,-53.51"/>
<polygon fill="midnightblue" stroke="midnightblue" points="459.6,-46.7 449.23,-48.88 458.69,-53.64 459.6,-46.7"/>
</g>
<!-- Node6 -->
<g id="node6" class="node">
<title>Node6</title>
<g id="a_node6"><a xlink:href="classQuantConnect_1_1Brokerages_1_1BinanceUSBrokerageModel.html" target="_top" xlink:title="Provides Binance.US specific properties">
<polygon fill="white" stroke="black" points="496,-0.5 496,-30.5 645,-30.5 645,-0.5 496,-0.5"/>
<text text-anchor="start" x="504" y="-18.5" font-family="Helvetica,sans-Serif" font-size="10.00">QuantConnect.Brokerages.</text>
<text text-anchor="middle" x="570.5" y="-7.5" font-family="Helvetica,sans-Serif" font-size="10.00">BinanceUSBrokerageModel</text>
</a>
</g>
</g>
<!-- Node1&#45;&gt;Node6 -->
<g id="edge5" class="edge">
<title>Node1&#45;&gt;Node6</title>
<path fill="none" stroke="midnightblue" d="M459.35,-29.23C471.5,-27.72 483.95,-26.17 495.91,-24.68"/>
<polygon fill="midnightblue" stroke="midnightblue" points="458.72,-25.78 449.23,-30.5 459.58,-32.73 458.72,-25.78"/>
</g>
<!-- Node2 -->
<g id="node2" class="node">
<title>Node2</title>
<g id="a_node2"><a xlink:href="classQuantConnect_1_1Brokerages_1_1DefaultBrokerageModel.html" target="_top" xlink:title="Provides a default implementation of IBrokerageModel that allows all orders and uses the default tran...">
<polygon fill="white" stroke="black" points="135,-30 135,-49 267,-49 267,-30 135,-30"/>
<text text-anchor="middle" x="201" y="-37" font-family="Helvetica,sans-Serif" font-size="10.00">DefaultBrokerageModel</text>
</a>
</g>
</g>
<!-- Node2&#45;&gt;Node1 -->
<g id="edge1" class="edge">
<title>Node2&#45;&gt;Node1</title>
<path fill="none" stroke="midnightblue" d="M277.56,-39.5C285.96,-39.5 294.49,-39.5 302.85,-39.5"/>
<polygon fill="midnightblue" stroke="midnightblue" points="277.4,-36 267.4,-39.5 277.4,-43 277.4,-36"/>
</g>
<!-- Node3 -->
<g id="node3" class="node">
<title>Node3</title>
<g id="a_node3"><a xlink:href="interfaceQuantConnect_1_1Brokerages_1_1IBrokerageModel.html" target="_top" xlink:title="Models brokerage transactions, fees, and order">
<polygon fill="white" stroke="black" points="0,-30 0,-49 99,-49 99,-30 0,-30"/>
<text text-anchor="middle" x="49.5" y="-37" font-family="Helvetica,sans-Serif" font-size="10.00">IBrokerageModel</text>
</a>
</g>
</g>
<!-- Node3&#45;&gt;Node2 -->
<g id="edge2" class="edge">
<title>Node3&#45;&gt;Node2</title>
<path fill="none" stroke="midnightblue" d="M109.15,-39.5C117.58,-39.5 126.3,-39.5 134.85,-39.5"/>
<polygon fill="midnightblue" stroke="midnightblue" points="109.04,-36 99.04,-39.5 109.04,-43 109.04,-36"/>
</g>
<!-- Node5 -->
<g id="node5" class="node">
<title>Node5</title>
<g id="a_node5"><a xlink:href="classQuantConnect_1_1Brokerages_1_1BinanceCoinFuturesBrokerageModel.html" target="_top" xlink:title="Provides Binance Coin Futures specific properties">
<polygon fill="white" stroke="black" points="692,-49.5 692,-79.5 885,-79.5 885,-49.5 692,-49.5"/>
<text text-anchor="start" x="700" y="-67.5" font-family="Helvetica,sans-Serif" font-size="10.00">QuantConnect.Brokerages.</text>
<text text-anchor="middle" x="788.5" y="-56.5" font-family="Helvetica,sans-Serif" font-size="10.00">BinanceCoinFuturesBrokerageModel</text>
</a>
</g>
</g>
<!-- Node4&#45;&gt;Node5 -->
<g id="edge4" class="edge">
<title>Node4&#45;&gt;Node5</title>
<path fill="none" stroke="midnightblue" d="M666.48,-64.5C674.92,-64.5 683.47,-64.5 691.91,-64.5"/>
<polygon fill="midnightblue" stroke="midnightblue" points="666.25,-61 656.25,-64.5 666.25,-68 666.25,-61"/>
</g>
</g>
</svg>
