<?xml version="1.0" encoding="UTF-8" standalone="no"?>
<!DOCTYPE svg PUBLIC "-//W3C//DTD SVG 1.1//EN"
 "http://www.w3.org/Graphics/SVG/1.1/DTD/svg11.dtd">
<!-- Generated by graphviz version 2.43.0 (0)
 -->
<!-- Title: QuantConnect.SecurityIdentifier.GenerateOption Pages: 1 -->
<svg width="450pt" height="88pt"
 viewBox="0.00 0.00 450.00 88.00" xmlns="http://www.w3.org/2000/svg" xmlns:xlink="http://www.w3.org/1999/xlink">
<g id="graph0" class="graph" transform="scale(1 1) rotate(0) translate(4 84)">
<title>QuantConnect.SecurityIdentifier.GenerateOption</title>
<polygon fill="white" stroke="transparent" points="-4,4 -4,-84 446,-84 446,4 -4,4"/>
<!-- Node1 -->
<g id="node1" class="node">
<title>Node1</title>
<g id="a_node1"><a xlink:title="Generates a new SecurityIdentifier for an option">
<polygon fill="#bfbfbf" stroke="black" points="0,-24.5 0,-54.5 174,-54.5 174,-24.5 0,-24.5"/>
<text text-anchor="start" x="8" y="-42.5" font-family="Helvetica,sans-Serif" font-size="10.00">QuantConnect.SecurityIdentifier.</text>
<text text-anchor="middle" x="87" y="-31.5" font-family="Helvetica,sans-Serif" font-size="10.00">GenerateOption</text>
</a>
</g>
</g>
<!-- Node2 -->
<g id="node2" class="node">
<title>Node2</title>
<g id="a_node2"><a xlink:href="classQuantConnect_1_1Symbol.html#ae4c4c626fa68f4bc1e67e5ee8d9870fc" target="_top" xlink:title="Determines the SecurityType based on the underlying Symbol&#39;s SecurityType">
<polygon fill="white" stroke="black" points="237,-49.5 237,-79.5 415,-79.5 415,-49.5 237,-49.5"/>
<text text-anchor="start" x="245" y="-67.5" font-family="Helvetica,sans-Serif" font-size="10.00">QuantConnect.Symbol.GetOption</text>
<text text-anchor="middle" x="326" y="-56.5" font-family="Helvetica,sans-Serif" font-size="10.00">TypeFromUnderlying</text>
</a>
</g>
</g>
<!-- Node1&#45;&gt;Node2 -->
<g id="edge1" class="edge">
<title>Node1&#45;&gt;Node2</title>
<path fill="none" stroke="midnightblue" d="M174.23,-48.6C191.27,-50.39 209.27,-52.29 226.68,-54.13"/>
<polygon fill="midnightblue" stroke="midnightblue" points="226.53,-57.63 236.84,-55.2 227.26,-50.67 226.53,-57.63"/>
</g>
<!-- Node3 -->
<g id="node3" class="node">
<title>Node3</title>
<g id="a_node3"><a xlink:href="classQuantConnect_1_1Securities_1_1Future_1_1FuturesOptionsSymbolMappings.html#a251fd2b69c6e3169a2036c514529b785" target="_top" xlink:title="Returns the futures options ticker for the given futures ticker.">
<polygon fill="white" stroke="black" points="210,-0.5 210,-30.5 442,-30.5 442,-0.5 210,-0.5"/>
<text text-anchor="start" x="218" y="-18.5" font-family="Helvetica,sans-Serif" font-size="10.00">QuantConnect.Securities.</text>
<text text-anchor="middle" x="326" y="-7.5" font-family="Helvetica,sans-Serif" font-size="10.00">Future.FuturesOptionsSymbolMappings.Map</text>
</a>
</g>
</g>
<!-- Node1&#45;&gt;Node3 -->
<g id="edge2" class="edge">
<title>Node1&#45;&gt;Node3</title>
<path fill="none" stroke="midnightblue" d="M174.23,-30.77C182.51,-29.93 191.01,-29.07 199.56,-28.2"/>
<polygon fill="midnightblue" stroke="midnightblue" points="200.02,-31.67 209.61,-27.18 199.31,-24.71 200.02,-31.67"/>
</g>
</g>
</svg>
