<?xml version="1.0" encoding="UTF-8" standalone="no"?>
<!DOCTYPE svg PUBLIC "-//W3C//DTD SVG 1.1//EN"
 "http://www.w3.org/Graphics/SVG/1.1/DTD/svg11.dtd">
<!-- Generated by graphviz version 2.43.0 (0)
 -->
<!-- Title: QuantConnect.Data.Fundamental.ResearchAndDevelopmentExpensesSupplementalIncomeStatement.GetPeriodValues Pages: 1 -->
<svg width="522pt" height="50pt"
 viewBox="0.00 0.00 522.00 50.00" xmlns="http://www.w3.org/2000/svg" xmlns:xlink="http://www.w3.org/1999/xlink">
<g id="graph0" class="graph" transform="scale(1 1) rotate(0) translate(4 46)">
<title>QuantConnect.Data.Fundamental.ResearchAndDevelopmentExpensesSupplementalIncomeStatement.GetPeriodValues</title>
<polygon fill="white" stroke="transparent" points="-4,4 -4,-46 518,-46 518,4 -4,4"/>
<!-- Node1 -->
<g id="node1" class="node">
<title>Node1</title>
<g id="a_node1"><a xlink:title="Gets a dictionary of period names and values for the field">
<polygon fill="#bfbfbf" stroke="black" points="0,-0.5 0,-41.5 260,-41.5 260,-0.5 0,-0.5"/>
<text text-anchor="start" x="8" y="-29.5" font-family="Helvetica,sans-Serif" font-size="10.00">QuantConnect.Data.Fundamental.</text>
<text text-anchor="start" x="8" y="-18.5" font-family="Helvetica,sans-Serif" font-size="10.00">ResearchAndDevelopmentExpensesSupplemental</text>
<text text-anchor="middle" x="130" y="-7.5" font-family="Helvetica,sans-Serif" font-size="10.00">IncomeStatement.GetPeriodValues</text>
</a>
</g>
</g>
<!-- Node2 -->
<g id="node2" class="node">
<title>Node2</title>
<g id="a_node2"><a xlink:href="classQuantConnect_1_1Data_1_1UniverseSelection_1_1BaseFundamentalDataProvider.html#a034fa190537c61e409d68b8cc081b8f4" target="_top" xlink:title="True if the given value is none">
<polygon fill="white" stroke="black" points="296,-0.5 296,-41.5 514,-41.5 514,-0.5 296,-0.5"/>
<text text-anchor="start" x="304" y="-29.5" font-family="Helvetica,sans-Serif" font-size="10.00">QuantConnect.Data.Universe</text>
<text text-anchor="start" x="304" y="-18.5" font-family="Helvetica,sans-Serif" font-size="10.00">Selection.BaseFundamentalDataProvider.</text>
<text text-anchor="middle" x="405" y="-7.5" font-family="Helvetica,sans-Serif" font-size="10.00">IsNone</text>
</a>
</g>
</g>
<!-- Node1&#45;&gt;Node2 -->
<g id="edge1" class="edge">
<title>Node1&#45;&gt;Node2</title>
<path fill="none" stroke="midnightblue" d="M260.3,-21C268.73,-21 277.19,-21 285.56,-21"/>
<polygon fill="midnightblue" stroke="midnightblue" points="285.72,-24.5 295.72,-21 285.72,-17.5 285.72,-24.5"/>
</g>
</g>
</svg>
