<?xml version="1.0" encoding="UTF-8" standalone="no"?>
<!DOCTYPE svg PUBLIC "-//W3C//DTD SVG 1.1//EN"
 "http://www.w3.org/Graphics/SVG/1.1/DTD/svg11.dtd">
<!-- Generated by graphviz version 2.43.0 (0)
 -->
<!-- Title: QuantConnect.Util.LeanDataPathComponents.Parse Pages: 1 -->
<svg width="352pt" height="39pt"
 viewBox="0.00 0.00 352.00 39.00" xmlns="http://www.w3.org/2000/svg" xmlns:xlink="http://www.w3.org/1999/xlink">
<g id="graph0" class="graph" transform="scale(1 1) rotate(0) translate(4 35)">
<title>QuantConnect.Util.LeanDataPathComponents.Parse</title>
<polygon fill="white" stroke="transparent" points="-4,4 -4,-35 348,-35 348,4 -4,4"/>
<!-- Node1 -->
<g id="node1" class="node">
<title>Node1</title>
<g id="a_node1"><a xlink:title="Parses the specified path into a new instance of the LeanDataPathComponents class">
<polygon fill="#bfbfbf" stroke="black" points="189,-0.5 189,-30.5 344,-30.5 344,-0.5 189,-0.5"/>
<text text-anchor="start" x="197" y="-18.5" font-family="Helvetica,sans-Serif" font-size="10.00">QuantConnect.Util.LeanData</text>
<text text-anchor="middle" x="266.5" y="-7.5" font-family="Helvetica,sans-Serif" font-size="10.00">PathComponents.Parse</text>
</a>
</g>
</g>
<!-- Node2 -->
<g id="node2" class="node">
<title>Node2</title>
<g id="a_node2"><a xlink:href="classQuantConnect_1_1ToolBox_1_1LeanParser.html#abd1bb9fca7f05ea516d50523b8218593" target="_top" xlink:title="Parses the specified input stream into an enumerable of data">
<polygon fill="white" stroke="black" points="0,-0.5 0,-30.5 153,-30.5 153,-0.5 0,-0.5"/>
<text text-anchor="start" x="8" y="-18.5" font-family="Helvetica,sans-Serif" font-size="10.00">QuantConnect.ToolBox.Lean</text>
<text text-anchor="middle" x="76.5" y="-7.5" font-family="Helvetica,sans-Serif" font-size="10.00">Parser.Parse</text>
</a>
</g>
</g>
<!-- Node1&#45;&gt;Node2 -->
<g id="edge1" class="edge">
<title>Node1&#45;&gt;Node2</title>
<path fill="none" stroke="midnightblue" d="M178.75,-15.5C170.18,-15.5 161.53,-15.5 153.08,-15.5"/>
<polygon fill="midnightblue" stroke="midnightblue" points="178.76,-19 188.76,-15.5 178.76,-12 178.76,-19"/>
</g>
</g>
</svg>
