<?xml version="1.0" encoding="UTF-8" standalone="no"?>
<!DOCTYPE svg PUBLIC "-//W3C//DTD SVG 1.1//EN"
 "http://www.w3.org/Graphics/SVG/1.1/DTD/svg11.dtd">
<!-- Generated by graphviz version 2.43.0 (0)
 -->
<!-- Title: QuantConnect.Extensions.IsMarketOpen Pages: 1 -->
<svg width="661pt" height="173pt"
 viewBox="0.00 0.00 661.00 172.50" xmlns="http://www.w3.org/2000/svg" xmlns:xlink="http://www.w3.org/1999/xlink">
<g id="graph0" class="graph" transform="scale(1 1) rotate(0) translate(4 168.5)">
<title>QuantConnect.Extensions.IsMarketOpen</title>
<polygon fill="white" stroke="transparent" points="-4,4 -4,-168.5 657,-168.5 657,4 -4,4"/>
<!-- Node1 -->
<g id="node1" class="node">
<title>Node1</title>
<g id="a_node1"><a xlink:title="Helper method to determine if a specific market is open">
<polygon fill="#bfbfbf" stroke="black" points="0,-73.5 0,-103.5 145,-103.5 145,-73.5 0,-73.5"/>
<text text-anchor="start" x="8" y="-91.5" font-family="Helvetica,sans-Serif" font-size="10.00">QuantConnect.Extensions.</text>
<text text-anchor="middle" x="72.5" y="-80.5" font-family="Helvetica,sans-Serif" font-size="10.00">IsMarketOpen</text>
</a>
</g>
</g>
<!-- Node2 -->
<g id="node2" class="node">
<title>Node2</title>
<g id="a_node2"><a xlink:href="classQuantConnect_1_1Securities_1_1MarketHoursDatabase.html#aa01232d91c17c556b18ea8f1f7fabcd0" target="_top" xlink:title="Gets the instance of the MarketHoursDatabase class produced by reading in the market hours data found...">
<polygon fill="white" stroke="black" points="203.5,-123 203.5,-164 379.5,-164 379.5,-123 203.5,-123"/>
<text text-anchor="start" x="211.5" y="-152" font-family="Helvetica,sans-Serif" font-size="10.00">QuantConnect.Securities.</text>
<text text-anchor="start" x="211.5" y="-141" font-family="Helvetica,sans-Serif" font-size="10.00">MarketHoursDatabase.FromData</text>
<text text-anchor="middle" x="291.5" y="-130" font-family="Helvetica,sans-Serif" font-size="10.00">Folder</text>
</a>
</g>
</g>
<!-- Node1&#45;&gt;Node2 -->
<g id="edge1" class="edge">
<title>Node1&#45;&gt;Node2</title>
<path fill="none" stroke="midnightblue" d="M132.8,-103.53C153.35,-108.74 176.89,-114.7 199.4,-120.41"/>
<polygon fill="midnightblue" stroke="midnightblue" points="198.76,-123.86 209.31,-122.92 200.48,-117.07 198.76,-123.86"/>
</g>
<!-- Node3 -->
<g id="node3" class="node">
<title>Node3</title>
<g id="a_node3"><a xlink:href="classQuantConnect_1_1Securities_1_1MarketHoursDatabase.html#ab10d5242b6fcbe4d9f7aacd800e0efea" target="_top" xlink:title="Convenience method for retrieving exchange hours from market hours database using a subscription conf...">
<polygon fill="white" stroke="black" points="181,-73.5 181,-103.5 402,-103.5 402,-73.5 181,-73.5"/>
<text text-anchor="start" x="189" y="-91.5" font-family="Helvetica,sans-Serif" font-size="10.00">QuantConnect.Securities.</text>
<text text-anchor="middle" x="291.5" y="-80.5" font-family="Helvetica,sans-Serif" font-size="10.00">MarketHoursDatabase.GetExchangeHours</text>
</a>
</g>
</g>
<!-- Node1&#45;&gt;Node3 -->
<g id="edge2" class="edge">
<title>Node1&#45;&gt;Node3</title>
<path fill="none" stroke="midnightblue" d="M145.16,-88.5C153.41,-88.5 161.98,-88.5 170.65,-88.5"/>
<polygon fill="midnightblue" stroke="midnightblue" points="170.87,-92 180.87,-88.5 170.87,-85 170.87,-92"/>
</g>
<!-- Node4 -->
<g id="node4" class="node">
<title>Node4</title>
<g id="a_node4"><a xlink:href="classQuantConnect_1_1Securities_1_1SecurityExchangeHours.html#ad680493077edb2267e639615b3c672a7" target="_top" xlink:title="Determines if the exchange is open at the specified local date time.">
<polygon fill="white" stroke="black" points="207,-24.5 207,-54.5 376,-54.5 376,-24.5 207,-24.5"/>
<text text-anchor="start" x="215" y="-42.5" font-family="Helvetica,sans-Serif" font-size="10.00">QuantConnect.Securities.</text>
<text text-anchor="middle" x="291.5" y="-31.5" font-family="Helvetica,sans-Serif" font-size="10.00">SecurityExchangeHours.IsOpen</text>
</a>
</g>
</g>
<!-- Node1&#45;&gt;Node4 -->
<g id="edge3" class="edge">
<title>Node1&#45;&gt;Node4</title>
<path fill="none" stroke="midnightblue" d="M140.08,-73.47C163.51,-68.17 190.03,-62.19 214.2,-56.73"/>
<polygon fill="midnightblue" stroke="midnightblue" points="215.06,-60.12 224.04,-54.51 213.52,-53.29 215.06,-60.12"/>
</g>
<!-- Node5 -->
<g id="node5" class="node">
<title>Node5</title>
<g id="a_node5"><a xlink:href="classQuantConnect_1_1Securities_1_1SecurityExchangeHours.html#a106e2dd187ab76452e14ac6a28f929aa" target="_top" xlink:title="Helper to access the market hours field based on the day of week">
<polygon fill="white" stroke="black" points="438,-49.5 438,-79.5 653,-79.5 653,-49.5 438,-49.5"/>
<text text-anchor="start" x="446" y="-67.5" font-family="Helvetica,sans-Serif" font-size="10.00">QuantConnect.Securities.</text>
<text text-anchor="middle" x="545.5" y="-56.5" font-family="Helvetica,sans-Serif" font-size="10.00">SecurityExchangeHours.GetMarketHours</text>
</a>
</g>
</g>
<!-- Node4&#45;&gt;Node5 -->
<g id="edge4" class="edge">
<title>Node4&#45;&gt;Node5</title>
<path fill="none" stroke="midnightblue" d="M376.06,-47.79C392.59,-49.43 410.22,-51.18 427.62,-52.9"/>
<polygon fill="midnightblue" stroke="midnightblue" points="427.53,-56.41 437.82,-53.92 428.22,-49.45 427.53,-56.41"/>
</g>
<!-- Node6 -->
<g id="node6" class="node">
<title>Node6</title>
<g id="a_node6"><a xlink:href="classQuantConnect_1_1Securities_1_1LocalMarketHours.html#a8a898ad9f8fa0c41f4a04b8dfc513777" target="_top" xlink:title="Determines if the exchange is open at the specified time">
<polygon fill="white" stroke="black" points="475,-0.5 475,-30.5 616,-30.5 616,-0.5 475,-0.5"/>
<text text-anchor="start" x="483" y="-18.5" font-family="Helvetica,sans-Serif" font-size="10.00">QuantConnect.Securities.</text>
<text text-anchor="middle" x="545.5" y="-7.5" font-family="Helvetica,sans-Serif" font-size="10.00">LocalMarketHours.IsOpen</text>
</a>
</g>
</g>
<!-- Node4&#45;&gt;Node6 -->
<g id="edge5" class="edge">
<title>Node4&#45;&gt;Node6</title>
<path fill="none" stroke="midnightblue" d="M376.06,-31.54C404.52,-28.83 436.24,-25.81 464.42,-23.13"/>
<polygon fill="midnightblue" stroke="midnightblue" points="465,-26.59 474.62,-22.15 464.34,-19.62 465,-26.59"/>
</g>
</g>
</svg>
