<?xml version="1.0" encoding="UTF-8" standalone="no"?>
<!DOCTYPE svg PUBLIC "-//W3C//DTD SVG 1.1//EN"
 "http://www.w3.org/Graphics/SVG/1.1/DTD/svg11.dtd">
<!-- Generated by graphviz version 2.43.0 (0)
 -->
<!-- Title: QuantConnect.Data.Custom.IconicTypes.UnlinkedDataTradeBar Pages: 1 -->
<svg width="193pt" height="207pt"
 viewBox="0.00 0.00 193.00 207.00" xmlns="http://www.w3.org/2000/svg" xmlns:xlink="http://www.w3.org/1999/xlink">
<g id="graph0" class="graph" transform="scale(1 1) rotate(0) translate(4 203)">
<title>QuantConnect.Data.Custom.IconicTypes.UnlinkedDataTradeBar</title>
<polygon fill="white" stroke="transparent" points="-4,4 -4,-203 189,-203 189,4 -4,4"/>
<!-- Node1 -->
<g id="node1" class="node">
<title>Node1</title>
<g id="a_node1"><a xlink:title="Data source that is unlinked (no mapping) and takes any ticker when calling AddData">
<polygon fill="#bfbfbf" stroke="black" points="0,-0.5 0,-30.5 185,-30.5 185,-0.5 0,-0.5"/>
<text text-anchor="start" x="8" y="-18.5" font-family="Helvetica,sans-Serif" font-size="10.00">QuantConnect.Data.Custom.</text>
<text text-anchor="middle" x="92.5" y="-7.5" font-family="Helvetica,sans-Serif" font-size="10.00">IconicTypes.UnlinkedDataTradeBar</text>
</a>
</g>
</g>
<!-- Node2 -->
<g id="node2" class="node">
<title>Node2</title>
<g id="a_node2"><a xlink:href="classQuantConnect_1_1Data_1_1Market_1_1TradeBar.html" target="_top" xlink:title="TradeBar class for second and minute resolution data: An OHLC implementation of the QuantConnect Base...">
<polygon fill="white" stroke="black" points="63,-67.5 63,-86.5 122,-86.5 122,-67.5 63,-67.5"/>
<text text-anchor="middle" x="92.5" y="-74.5" font-family="Helvetica,sans-Serif" font-size="10.00">TradeBar</text>
</a>
</g>
</g>
<!-- Node2&#45;&gt;Node1 -->
<g id="edge1" class="edge">
<title>Node2&#45;&gt;Node1</title>
<path fill="none" stroke="midnightblue" d="M92.5,-57.23C92.5,-48.59 92.5,-38.5 92.5,-30.52"/>
<polygon fill="midnightblue" stroke="midnightblue" points="89,-57.48 92.5,-67.48 96,-57.48 89,-57.48"/>
</g>
<!-- Node3 -->
<g id="node3" class="node">
<title>Node3</title>
<g id="a_node3"><a xlink:href="classQuantConnect_1_1Data_1_1BaseData.html" target="_top" xlink:title="Abstract base data class of QuantConnect. It is intended to be extended to define generic user custom...">
<polygon fill="white" stroke="black" points="14.5,-123.5 14.5,-142.5 78.5,-142.5 78.5,-123.5 14.5,-123.5"/>
<text text-anchor="middle" x="46.5" y="-130.5" font-family="Helvetica,sans-Serif" font-size="10.00">BaseData</text>
</a>
</g>
</g>
<!-- Node3&#45;&gt;Node2 -->
<g id="edge2" class="edge">
<title>Node3&#45;&gt;Node2</title>
<path fill="none" stroke="midnightblue" d="M60.61,-115.43C68.68,-105.97 78.46,-94.48 85.05,-86.75"/>
<polygon fill="midnightblue" stroke="midnightblue" points="57.92,-113.2 54.1,-123.08 63.25,-117.74 57.92,-113.2"/>
</g>
<!-- Node4 -->
<g id="node4" class="node">
<title>Node4</title>
<g id="a_node4"><a xlink:href="interfaceQuantConnect_1_1Data_1_1IBaseData.html" target="_top" xlink:title="Base Data Class: Type, Timestamp, Key – Base Features.">
<polygon fill="white" stroke="black" points="24,-179.5 24,-198.5 91,-198.5 91,-179.5 24,-179.5"/>
<text text-anchor="middle" x="57.5" y="-186.5" font-family="Helvetica,sans-Serif" font-size="10.00">IBaseData</text>
</a>
</g>
</g>
<!-- Node4&#45;&gt;Node3 -->
<g id="edge3" class="edge">
<title>Node4&#45;&gt;Node3</title>
<path fill="none" stroke="midnightblue" d="M53.65,-169.1C51.82,-160.14 49.73,-149.86 48.28,-142.75"/>
<polygon fill="midnightblue" stroke="midnightblue" points="50.26,-169.98 55.68,-179.08 57.12,-168.59 50.26,-169.98"/>
</g>
<!-- Node5 -->
<g id="node5" class="node">
<title>Node5</title>
<g id="a_node5"><a xlink:href="interfaceQuantConnect_1_1Data_1_1Market_1_1IBaseDataBar.html" target="_top" xlink:title="Represents a type that is both a bar and base data">
<polygon fill="white" stroke="black" points="97,-123.5 97,-142.5 180,-142.5 180,-123.5 97,-123.5"/>
<text text-anchor="middle" x="138.5" y="-130.5" font-family="Helvetica,sans-Serif" font-size="10.00">IBaseDataBar</text>
</a>
</g>
</g>
<!-- Node4&#45;&gt;Node5 -->
<g id="edge5" class="edge">
<title>Node4&#45;&gt;Node5</title>
<path fill="none" stroke="midnightblue" d="M79.07,-173.62C93.86,-163.76 113.01,-150.99 125.52,-142.65"/>
<polygon fill="midnightblue" stroke="midnightblue" points="76.89,-170.86 70.51,-179.32 80.78,-176.69 76.89,-170.86"/>
</g>
<!-- Node5&#45;&gt;Node2 -->
<g id="edge4" class="edge">
<title>Node5&#45;&gt;Node2</title>
<path fill="none" stroke="midnightblue" d="M124.39,-115.43C116.32,-105.97 106.54,-94.48 99.95,-86.75"/>
<polygon fill="midnightblue" stroke="midnightblue" points="121.75,-117.74 130.9,-123.08 127.08,-113.2 121.75,-117.74"/>
</g>
<!-- Node6 -->
<g id="node6" class="node">
<title>Node6</title>
<g id="a_node6"><a xlink:href="interfaceQuantConnect_1_1Data_1_1Market_1_1IBar.html" target="_top" xlink:title="Generic bar interface with Open, High, Low and Close.">
<polygon fill="white" stroke="black" points="120.5,-179.5 120.5,-198.5 156.5,-198.5 156.5,-179.5 120.5,-179.5"/>
<text text-anchor="middle" x="138.5" y="-186.5" font-family="Helvetica,sans-Serif" font-size="10.00">IBar</text>
</a>
</g>
</g>
<!-- Node6&#45;&gt;Node5 -->
<g id="edge6" class="edge">
<title>Node6&#45;&gt;Node5</title>
<path fill="none" stroke="midnightblue" d="M138.5,-168.8C138.5,-159.91 138.5,-149.78 138.5,-142.75"/>
<polygon fill="midnightblue" stroke="midnightblue" points="135,-169.08 138.5,-179.08 142,-169.08 135,-169.08"/>
</g>
</g>
</svg>
