<?xml version="1.0" encoding="UTF-8" standalone="no"?>
<!DOCTYPE svg PUBLIC "-//W3C//DTD SVG 1.1//EN"
 "http://www.w3.org/Graphics/SVG/1.1/DTD/svg11.dtd">
<!-- Generated by graphviz version 2.43.0 (0)
 -->
<!-- Title: QuantConnect.Algorithm.Framework.Portfolio.AlphaStreamsPortfolioConstructionModel Pages: 1 -->
<svg width="1123pt" height="50pt"
 viewBox="0.00 0.00 1123.00 50.00" xmlns="http://www.w3.org/2000/svg" xmlns:xlink="http://www.w3.org/1999/xlink">
<g id="graph0" class="graph" transform="scale(1 1) rotate(0) translate(4 46)">
<title>QuantConnect.Algorithm.Framework.Portfolio.AlphaStreamsPortfolioConstructionModel</title>
<polygon fill="white" stroke="transparent" points="-4,4 -4,-46 1119,-46 1119,4 -4,4"/>
<!-- Node1 -->
<g id="node1" class="node">
<title>Node1</title>
<g id="a_node1"><a xlink:title="Base alpha streams portfolio construction model">
<polygon fill="#bfbfbf" stroke="black" points="364,-6 364,-36 626,-36 626,-6 364,-6"/>
<text text-anchor="start" x="372" y="-24" font-family="Helvetica,sans-Serif" font-size="10.00">QuantConnect.Algorithm.Framework.</text>
<text text-anchor="middle" x="495" y="-13" font-family="Helvetica,sans-Serif" font-size="10.00">Portfolio.AlphaStreamsPortfolioConstructionModel</text>
</a>
</g>
</g>
<!-- Node4 -->
<g id="node4" class="node">
<title>Node4</title>
<g id="a_node4"><a xlink:href="classQuantConnect_1_1Algorithm_1_1Framework_1_1Portfolio_1_1EqualWeightingAlphaStreamsPortfolioConstructionModel.html" target="_top" xlink:title="Equal weighting alpha streams portfolio construction model that will generate aggregated security tar...">
<polygon fill="white" stroke="black" points="662,-0.5 662,-41.5 867,-41.5 867,-0.5 662,-0.5"/>
<text text-anchor="start" x="670" y="-29.5" font-family="Helvetica,sans-Serif" font-size="10.00">QuantConnect.Algorithm.Framework.</text>
<text text-anchor="start" x="670" y="-18.5" font-family="Helvetica,sans-Serif" font-size="10.00">Portfolio.EqualWeightingAlphaStreams</text>
<text text-anchor="middle" x="764.5" y="-7.5" font-family="Helvetica,sans-Serif" font-size="10.00">PortfolioConstructionModel</text>
</a>
</g>
</g>
<!-- Node1&#45;&gt;Node4 -->
<g id="edge3" class="edge">
<title>Node1&#45;&gt;Node4</title>
<path fill="none" stroke="midnightblue" d="M636.31,-21C644.9,-21 653.45,-21 661.83,-21"/>
<polygon fill="midnightblue" stroke="midnightblue" points="636.22,-17.5 626.22,-21 636.22,-24.5 636.22,-17.5"/>
</g>
<!-- Node2 -->
<g id="node2" class="node">
<title>Node2</title>
<g id="a_node2"><a xlink:href="interfaceQuantConnect_1_1Algorithm_1_1Framework_1_1Portfolio_1_1IPortfolioConstructionModel.html" target="_top" xlink:title="Algorithm framework model that">
<polygon fill="white" stroke="black" points="176,-11.5 176,-30.5 328,-30.5 328,-11.5 176,-11.5"/>
<text text-anchor="middle" x="252" y="-18.5" font-family="Helvetica,sans-Serif" font-size="10.00">IPortfolioConstructionModel</text>
</a>
</g>
</g>
<!-- Node2&#45;&gt;Node1 -->
<g id="edge1" class="edge">
<title>Node2&#45;&gt;Node1</title>
<path fill="none" stroke="midnightblue" d="M338.5,-21C346.69,-21 355.12,-21 363.62,-21"/>
<polygon fill="midnightblue" stroke="midnightblue" points="338.26,-17.5 328.26,-21 338.26,-24.5 338.26,-17.5"/>
</g>
<!-- Node3 -->
<g id="node3" class="node">
<title>Node3</title>
<g id="a_node3"><a xlink:href="interfaceQuantConnect_1_1Algorithm_1_1Framework_1_1INotifiedSecurityChanges.html" target="_top" xlink:title="Types implementing this interface will be called when the algorithm&#39;s set of securities changes">
<polygon fill="white" stroke="black" points="0,-11.5 0,-30.5 140,-30.5 140,-11.5 0,-11.5"/>
<text text-anchor="middle" x="70" y="-18.5" font-family="Helvetica,sans-Serif" font-size="10.00">INotifiedSecurityChanges</text>
</a>
</g>
</g>
<!-- Node3&#45;&gt;Node2 -->
<g id="edge2" class="edge">
<title>Node3&#45;&gt;Node2</title>
<path fill="none" stroke="midnightblue" d="M150.33,-21C158.8,-21 167.4,-21 175.82,-21"/>
<polygon fill="midnightblue" stroke="midnightblue" points="150.08,-17.5 140.08,-21 150.08,-24.5 150.08,-17.5"/>
</g>
<!-- Node5 -->
<g id="node5" class="node">
<title>Node5</title>
<g id="a_node5"><a xlink:href="classQuantConnect_1_1Algorithm_1_1Framework_1_1CustomWeightingAlphaStreamsPortfolioConstructionModel.html" target="_top" xlink:title="Custom weighting alpha streams portfolio construction model that will generate aggregated security ta...">
<polygon fill="white" stroke="black" points="903,-0.5 903,-41.5 1115,-41.5 1115,-0.5 903,-0.5"/>
<text text-anchor="start" x="911" y="-29.5" font-family="Helvetica,sans-Serif" font-size="10.00">QuantConnect.Algorithm.Framework.</text>
<text text-anchor="start" x="911" y="-18.5" font-family="Helvetica,sans-Serif" font-size="10.00">CustomWeightingAlphaStreamsPortfolio</text>
<text text-anchor="middle" x="1009" y="-7.5" font-family="Helvetica,sans-Serif" font-size="10.00">ConstructionModel</text>
</a>
</g>
</g>
<!-- Node4&#45;&gt;Node5 -->
<g id="edge4" class="edge">
<title>Node4&#45;&gt;Node5</title>
<path fill="none" stroke="midnightblue" d="M877.29,-21C885.84,-21 894.46,-21 902.97,-21"/>
<polygon fill="midnightblue" stroke="midnightblue" points="877.29,-17.5 867.29,-21 877.29,-24.5 877.29,-17.5"/>
</g>
</g>
</svg>
