<?xml version="1.0" encoding="UTF-8" standalone="no"?>
<!DOCTYPE svg PUBLIC "-//W3C//DTD SVG 1.1//EN"
 "http://www.w3.org/Graphics/SVG/1.1/DTD/svg11.dtd">
<!-- Generated by graphviz version 2.43.0 (0)
 -->
<!-- Title: QuantConnect.Storage.ObjectStore.SaveString Pages: 1 -->
<svg width="366pt" height="88pt"
 viewBox="0.00 0.00 366.00 88.00" xmlns="http://www.w3.org/2000/svg" xmlns:xlink="http://www.w3.org/1999/xlink">
<g id="graph0" class="graph" transform="scale(1 1) rotate(0) translate(4 84)">
<title>QuantConnect.Storage.ObjectStore.SaveString</title>
<polygon fill="white" stroke="transparent" points="-4,4 -4,-84 362,-84 362,4 -4,4"/>
<!-- Node1 -->
<g id="node1" class="node">
<title>Node1</title>
<g id="a_node1"><a xlink:title="Saves the object data in text format for the specified path">
<polygon fill="#bfbfbf" stroke="black" points="197,-24.5 197,-54.5 358,-54.5 358,-24.5 197,-24.5"/>
<text text-anchor="start" x="205" y="-42.5" font-family="Helvetica,sans-Serif" font-size="10.00">QuantConnect.Storage.Object</text>
<text text-anchor="middle" x="277.5" y="-31.5" font-family="Helvetica,sans-Serif" font-size="10.00">Store.SaveString</text>
</a>
</g>
</g>
<!-- Node2 -->
<g id="node2" class="node">
<title>Node2</title>
<g id="a_node2"><a xlink:href="classQuantConnect_1_1Storage_1_1ObjectStore.html#a174a49b8941e3e9f495a7e21af78be7c" target="_top" xlink:title="Saves the object data in JSON format for the specified path">
<polygon fill="white" stroke="black" points="0,-49.5 0,-79.5 161,-79.5 161,-49.5 0,-49.5"/>
<text text-anchor="start" x="8" y="-67.5" font-family="Helvetica,sans-Serif" font-size="10.00">QuantConnect.Storage.Object</text>
<text text-anchor="middle" x="80.5" y="-56.5" font-family="Helvetica,sans-Serif" font-size="10.00">Store.SaveJson&lt; T &gt;</text>
</a>
</g>
</g>
<!-- Node1&#45;&gt;Node2 -->
<g id="edge1" class="edge">
<title>Node1&#45;&gt;Node2</title>
<path fill="none" stroke="midnightblue" d="M186.88,-50.99C178.3,-52.09 169.64,-53.2 161.16,-54.29"/>
<polygon fill="midnightblue" stroke="midnightblue" points="187.43,-54.45 196.9,-49.7 186.54,-47.5 187.43,-54.45"/>
</g>
<!-- Node3 -->
<g id="node3" class="node">
<title>Node3</title>
<g id="a_node3"><a xlink:href="classQuantConnect_1_1Storage_1_1ObjectStore.html#a3e6d0c05bc7a35f7569741e6a466c24f" target="_top" xlink:title="Saves the object data in XML format for the specified path">
<polygon fill="white" stroke="black" points="0,-0.5 0,-30.5 161,-30.5 161,-0.5 0,-0.5"/>
<text text-anchor="start" x="8" y="-18.5" font-family="Helvetica,sans-Serif" font-size="10.00">QuantConnect.Storage.Object</text>
<text text-anchor="middle" x="80.5" y="-7.5" font-family="Helvetica,sans-Serif" font-size="10.00">Store.SaveXml&lt; T &gt;</text>
</a>
</g>
</g>
<!-- Node1&#45;&gt;Node3 -->
<g id="edge2" class="edge">
<title>Node1&#45;&gt;Node3</title>
<path fill="none" stroke="midnightblue" d="M186.88,-28.47C178.3,-27.41 169.64,-26.35 161.16,-25.3"/>
<polygon fill="midnightblue" stroke="midnightblue" points="186.55,-31.96 196.9,-29.7 187.41,-25.01 186.55,-31.96"/>
</g>
</g>
</svg>
