<?xml version="1.0" encoding="UTF-8" standalone="no"?>
<!DOCTYPE svg PUBLIC "-//W3C//DTD SVG 1.1//EN"
 "http://www.w3.org/Graphics/SVG/1.1/DTD/svg11.dtd">
<!-- Generated by graphviz version 2.43.0 (0)
 -->
<!-- Title: QuantConnect.Indicators.CandlestickPatterns.HikkakeModified.ComputeNextValue Pages: 1 -->
<svg width="872pt" height="280pt"
 viewBox="0.00 0.00 872.00 279.50" xmlns="http://www.w3.org/2000/svg" xmlns:xlink="http://www.w3.org/1999/xlink">
<g id="graph0" class="graph" transform="scale(1 1) rotate(0) translate(4 275.5)">
<title>QuantConnect.Indicators.CandlestickPatterns.HikkakeModified.ComputeNextValue</title>
<polygon fill="white" stroke="transparent" points="-4,4 -4,-275.5 868,-275.5 868,4 -4,4"/>
<!-- Node1 -->
<g id="node1" class="node">
<title>Node1</title>
<g id="a_node1"><a xlink:title="Computes the next value of this indicator from the given state">
<polygon fill="#bfbfbf" stroke="black" points="0,-174.5 0,-215.5 200,-215.5 200,-174.5 0,-174.5"/>
<text text-anchor="start" x="8" y="-203.5" font-family="Helvetica,sans-Serif" font-size="10.00">QuantConnect.Indicators.</text>
<text text-anchor="start" x="8" y="-192.5" font-family="Helvetica,sans-Serif" font-size="10.00">CandlestickPatterns.HikkakeModified.</text>
<text text-anchor="middle" x="100" y="-181.5" font-family="Helvetica,sans-Serif" font-size="10.00">ComputeNextValue</text>
</a>
</g>
</g>
<!-- Node2 -->
<g id="node2" class="node">
<title>Node2</title>
<g id="a_node2"><a xlink:href="classQuantConnect_1_1Indicators_1_1CandlestickPatterns_1_1CandlestickPattern.html#abfef9cee8cff1859d77bb2c54ded7322" target="_top" xlink:title="Returns the average range of the previous candles">
<polygon fill="white" stroke="black" points="236,-199.5 236,-240.5 409,-240.5 409,-199.5 236,-199.5"/>
<text text-anchor="start" x="244" y="-228.5" font-family="Helvetica,sans-Serif" font-size="10.00">QuantConnect.Indicators.</text>
<text text-anchor="start" x="244" y="-217.5" font-family="Helvetica,sans-Serif" font-size="10.00">CandlestickPatterns.Candlestick</text>
<text text-anchor="middle" x="322.5" y="-206.5" font-family="Helvetica,sans-Serif" font-size="10.00">Pattern.GetCandleAverage</text>
</a>
</g>
</g>
<!-- Node1&#45;&gt;Node2 -->
<g id="edge1" class="edge">
<title>Node1&#45;&gt;Node2</title>
<path fill="none" stroke="midnightblue" d="M200.28,-206.26C208.74,-207.21 217.27,-208.18 225.7,-209.14"/>
<polygon fill="midnightblue" stroke="midnightblue" points="225.57,-212.65 235.9,-210.3 226.36,-205.69 225.57,-212.65"/>
</g>
<!-- Node4 -->
<g id="node4" class="node">
<title>Node4</title>
<g id="a_node4"><a xlink:href="classQuantConnect_1_1Indicators_1_1CandlestickPatterns_1_1CandlestickPattern.html#a05b2e39af6efdc4ef734663b1c31d61e" target="_top" xlink:title="Returns the range of a candle">
<polygon fill="white" stroke="black" points="445,-150.5 445,-191.5 618,-191.5 618,-150.5 445,-150.5"/>
<text text-anchor="start" x="453" y="-179.5" font-family="Helvetica,sans-Serif" font-size="10.00">QuantConnect.Indicators.</text>
<text text-anchor="start" x="453" y="-168.5" font-family="Helvetica,sans-Serif" font-size="10.00">CandlestickPatterns.Candlestick</text>
<text text-anchor="middle" x="531.5" y="-157.5" font-family="Helvetica,sans-Serif" font-size="10.00">Pattern.GetCandleRange</text>
</a>
</g>
</g>
<!-- Node1&#45;&gt;Node4 -->
<g id="edge9" class="edge">
<title>Node1&#45;&gt;Node4</title>
<path fill="none" stroke="midnightblue" d="M200.08,-189.46C270.68,-185.52 365.05,-180.24 434.87,-176.34"/>
<polygon fill="midnightblue" stroke="midnightblue" points="435.19,-179.83 444.98,-175.78 434.8,-172.84 435.19,-179.83"/>
</g>
<!-- Node3 -->
<g id="node3" class="node">
<title>Node3</title>
<g id="a_node3"><a xlink:href="classQuantConnect_1_1Indicators_1_1CandlestickPatterns_1_1CandleSettings.html#a1e65d2caf61e018e94574519fee75620" target="_top" xlink:title="Returns the candle setting for the requested type">
<polygon fill="white" stroke="black" points="654,-241 654,-271 864,-271 864,-241 654,-241"/>
<text text-anchor="start" x="662" y="-259" font-family="Helvetica,sans-Serif" font-size="10.00">QuantConnect.Indicators.</text>
<text text-anchor="middle" x="759" y="-248" font-family="Helvetica,sans-Serif" font-size="10.00">CandlestickPatterns.CandleSettings.Get</text>
</a>
</g>
</g>
<!-- Node2&#45;&gt;Node3 -->
<g id="edge2" class="edge">
<title>Node2&#45;&gt;Node3</title>
<path fill="none" stroke="midnightblue" d="M409.08,-227.09C476.14,-232.65 570.08,-240.43 643.59,-246.52"/>
<polygon fill="midnightblue" stroke="midnightblue" points="643.57,-250.03 653.82,-247.37 644.14,-243.05 643.57,-250.03"/>
</g>
<!-- Node2&#45;&gt;Node4 -->
<g id="edge3" class="edge">
<title>Node2&#45;&gt;Node4</title>
<path fill="none" stroke="midnightblue" d="M409.19,-199.72C417.66,-197.71 426.3,-195.67 434.87,-193.64"/>
<polygon fill="midnightblue" stroke="midnightblue" points="435.95,-196.98 444.88,-191.27 434.34,-190.17 435.95,-196.98"/>
</g>
<!-- Node4&#45;&gt;Node3 -->
<g id="edge4" class="edge">
<title>Node4&#45;&gt;Node3</title>
<path fill="none" stroke="midnightblue" d="M568.79,-191.58C592.46,-204.33 624.36,-220.27 654,-231 661.24,-233.62 668.87,-236.05 676.57,-238.28"/>
<polygon fill="midnightblue" stroke="midnightblue" points="675.76,-241.69 686.33,-241 677.63,-234.94 675.76,-241.69"/>
</g>
<!-- Node5 -->
<g id="node5" class="node">
<title>Node5</title>
<g id="a_node5"><a xlink:href="classQuantConnect_1_1Indicators_1_1CandlestickPatterns_1_1CandlestickPattern.html#ae61e2032511d5338a48f8d5b8be906b7" target="_top" xlink:title="Returns the full range of the candle">
<polygon fill="white" stroke="black" points="672.5,-180.5 672.5,-221.5 845.5,-221.5 845.5,-180.5 672.5,-180.5"/>
<text text-anchor="start" x="680.5" y="-209.5" font-family="Helvetica,sans-Serif" font-size="10.00">QuantConnect.Indicators.</text>
<text text-anchor="start" x="680.5" y="-198.5" font-family="Helvetica,sans-Serif" font-size="10.00">CandlestickPatterns.Candlestick</text>
<text text-anchor="middle" x="759" y="-187.5" font-family="Helvetica,sans-Serif" font-size="10.00">Pattern.GetHighLowRange</text>
</a>
</g>
</g>
<!-- Node4&#45;&gt;Node5 -->
<g id="edge5" class="edge">
<title>Node4&#45;&gt;Node5</title>
<path fill="none" stroke="midnightblue" d="M618.07,-182.38C632.55,-184.31 647.66,-186.32 662.38,-188.28"/>
<polygon fill="midnightblue" stroke="midnightblue" points="662.11,-191.77 672.49,-189.62 663.03,-184.84 662.11,-191.77"/>
</g>
<!-- Node6 -->
<g id="node6" class="node">
<title>Node6</title>
<g id="a_node6"><a xlink:href="classQuantConnect_1_1Indicators_1_1CandlestickPatterns_1_1CandlestickPattern.html#ae57bf84c9247ead2c32aab56c2e4ecac" target="_top" xlink:title="Returns the range of the candle&#39;s lower shadow">
<polygon fill="white" stroke="black" points="672.5,-120.5 672.5,-161.5 845.5,-161.5 845.5,-120.5 672.5,-120.5"/>
<text text-anchor="start" x="680.5" y="-149.5" font-family="Helvetica,sans-Serif" font-size="10.00">QuantConnect.Indicators.</text>
<text text-anchor="start" x="680.5" y="-138.5" font-family="Helvetica,sans-Serif" font-size="10.00">CandlestickPatterns.Candlestick</text>
<text text-anchor="middle" x="759" y="-127.5" font-family="Helvetica,sans-Serif" font-size="10.00">Pattern.GetLowerShadow</text>
</a>
</g>
</g>
<!-- Node4&#45;&gt;Node6 -->
<g id="edge6" class="edge">
<title>Node4&#45;&gt;Node6</title>
<path fill="none" stroke="midnightblue" d="M618.07,-159.62C632.55,-157.69 647.66,-155.68 662.38,-153.72"/>
<polygon fill="midnightblue" stroke="midnightblue" points="663.03,-157.16 672.49,-152.38 662.11,-150.23 663.03,-157.16"/>
</g>
<!-- Node7 -->
<g id="node7" class="node">
<title>Node7</title>
<g id="a_node7"><a xlink:href="classQuantConnect_1_1Indicators_1_1CandlestickPatterns_1_1CandlestickPattern.html#a47cb6b45c58d94689f6233487e981d10" target="_top" xlink:title="Returns the distance between the close and the open of a candle">
<polygon fill="white" stroke="black" points="672.5,-60.5 672.5,-101.5 845.5,-101.5 845.5,-60.5 672.5,-60.5"/>
<text text-anchor="start" x="680.5" y="-89.5" font-family="Helvetica,sans-Serif" font-size="10.00">QuantConnect.Indicators.</text>
<text text-anchor="start" x="680.5" y="-78.5" font-family="Helvetica,sans-Serif" font-size="10.00">CandlestickPatterns.Candlestick</text>
<text text-anchor="middle" x="759" y="-67.5" font-family="Helvetica,sans-Serif" font-size="10.00">Pattern.GetRealBody</text>
</a>
</g>
</g>
<!-- Node4&#45;&gt;Node7 -->
<g id="edge7" class="edge">
<title>Node4&#45;&gt;Node7</title>
<path fill="none" stroke="midnightblue" d="M569.76,-150.45C593.41,-137.94 624.94,-122.27 654,-111 659.56,-108.85 665.33,-106.77 671.19,-104.77"/>
<polygon fill="midnightblue" stroke="midnightblue" points="672.69,-107.96 681.09,-101.51 670.5,-101.32 672.69,-107.96"/>
</g>
<!-- Node8 -->
<g id="node8" class="node">
<title>Node8</title>
<g id="a_node8"><a xlink:href="classQuantConnect_1_1Indicators_1_1CandlestickPatterns_1_1CandlestickPattern.html#ab499aa69437c2a6e83b2f1c05421c203" target="_top" xlink:title="Returns the range of the candle&#39;s upper shadow">
<polygon fill="white" stroke="black" points="672.5,-0.5 672.5,-41.5 845.5,-41.5 845.5,-0.5 672.5,-0.5"/>
<text text-anchor="start" x="680.5" y="-29.5" font-family="Helvetica,sans-Serif" font-size="10.00">QuantConnect.Indicators.</text>
<text text-anchor="start" x="680.5" y="-18.5" font-family="Helvetica,sans-Serif" font-size="10.00">CandlestickPatterns.Candlestick</text>
<text text-anchor="middle" x="759" y="-7.5" font-family="Helvetica,sans-Serif" font-size="10.00">Pattern.GetUpperShadow</text>
</a>
</g>
</g>
<!-- Node4&#45;&gt;Node8 -->
<g id="edge8" class="edge">
<title>Node4&#45;&gt;Node8</title>
<path fill="none" stroke="midnightblue" d="M547.85,-150.44C568.9,-123.67 609.24,-77.23 654,-51 657.19,-49.13 660.5,-47.38 663.89,-45.72"/>
<polygon fill="midnightblue" stroke="midnightblue" points="665.39,-48.89 673.06,-41.58 662.51,-42.51 665.39,-48.89"/>
</g>
</g>
</svg>
