<?xml version="1.0" encoding="UTF-8" standalone="no"?>
<!DOCTYPE svg PUBLIC "-//W3C//DTD SVG 1.1//EN"
 "http://www.w3.org/Graphics/SVG/1.1/DTD/svg11.dtd">
<!-- Generated by graphviz version 2.43.0 (0)
 -->
<!-- Title: QuantConnect.Indicators.CandlestickPatterns.GravestoneDoji.ComputeNextValue Pages: 1 -->
<svg width="845pt" height="280pt"
 viewBox="0.00 0.00 845.00 280.00" xmlns="http://www.w3.org/2000/svg" xmlns:xlink="http://www.w3.org/1999/xlink">
<g id="graph0" class="graph" transform="scale(1 1) rotate(0) translate(4 276)">
<title>QuantConnect.Indicators.CandlestickPatterns.GravestoneDoji.ComputeNextValue</title>
<polygon fill="white" stroke="transparent" points="-4,4 -4,-276 841,-276 841,4 -4,4"/>
<!-- Node1 -->
<g id="node1" class="node">
<title>Node1</title>
<g id="a_node1"><a xlink:title="Computes the next value of this indicator from the given state">
<polygon fill="#bfbfbf" stroke="black" points="0,-108.5 0,-149.5 173,-149.5 173,-108.5 0,-108.5"/>
<text text-anchor="start" x="8" y="-137.5" font-family="Helvetica,sans-Serif" font-size="10.00">QuantConnect.Indicators.</text>
<text text-anchor="start" x="8" y="-126.5" font-family="Helvetica,sans-Serif" font-size="10.00">CandlestickPatterns.Gravestone</text>
<text text-anchor="middle" x="86.5" y="-115.5" font-family="Helvetica,sans-Serif" font-size="10.00">Doji.ComputeNextValue</text>
</a>
</g>
</g>
<!-- Node2 -->
<g id="node2" class="node">
<title>Node2</title>
<g id="a_node2"><a xlink:href="classQuantConnect_1_1Indicators_1_1CandlestickPatterns_1_1CandlestickPattern.html#abfef9cee8cff1859d77bb2c54ded7322" target="_top" xlink:title="Returns the average range of the previous candles">
<polygon fill="white" stroke="black" points="209,-157.5 209,-198.5 382,-198.5 382,-157.5 209,-157.5"/>
<text text-anchor="start" x="217" y="-186.5" font-family="Helvetica,sans-Serif" font-size="10.00">QuantConnect.Indicators.</text>
<text text-anchor="start" x="217" y="-175.5" font-family="Helvetica,sans-Serif" font-size="10.00">CandlestickPatterns.Candlestick</text>
<text text-anchor="middle" x="295.5" y="-164.5" font-family="Helvetica,sans-Serif" font-size="10.00">Pattern.GetCandleAverage</text>
</a>
</g>
</g>
<!-- Node1&#45;&gt;Node2 -->
<g id="edge1" class="edge">
<title>Node1&#45;&gt;Node2</title>
<path fill="none" stroke="midnightblue" d="M173.19,-149.28C181.66,-151.29 190.3,-153.33 198.87,-155.36"/>
<polygon fill="midnightblue" stroke="midnightblue" points="198.34,-158.83 208.88,-157.73 199.95,-152.02 198.34,-158.83"/>
</g>
<!-- Node4 -->
<g id="node4" class="node">
<title>Node4</title>
<g id="a_node4"><a xlink:href="classQuantConnect_1_1Indicators_1_1CandlestickPatterns_1_1CandlestickPattern.html#a05b2e39af6efdc4ef734663b1c31d61e" target="_top" xlink:title="Returns the range of a candle">
<polygon fill="white" stroke="black" points="418,-120.5 418,-161.5 591,-161.5 591,-120.5 418,-120.5"/>
<text text-anchor="start" x="426" y="-149.5" font-family="Helvetica,sans-Serif" font-size="10.00">QuantConnect.Indicators.</text>
<text text-anchor="start" x="426" y="-138.5" font-family="Helvetica,sans-Serif" font-size="10.00">CandlestickPatterns.Candlestick</text>
<text text-anchor="middle" x="504.5" y="-127.5" font-family="Helvetica,sans-Serif" font-size="10.00">Pattern.GetCandleRange</text>
</a>
</g>
</g>
<!-- Node1&#45;&gt;Node4 -->
<g id="edge9" class="edge">
<title>Node1&#45;&gt;Node4</title>
<path fill="none" stroke="midnightblue" d="M173.19,-131.47C241.43,-133.44 336.9,-136.19 407.67,-138.24"/>
<polygon fill="midnightblue" stroke="midnightblue" points="407.82,-141.74 417.92,-138.53 408.03,-134.74 407.82,-141.74"/>
</g>
<!-- Node6 -->
<g id="node6" class="node">
<title>Node6</title>
<g id="a_node6"><a xlink:href="classQuantConnect_1_1Indicators_1_1CandlestickPatterns_1_1CandlestickPattern.html#ae57bf84c9247ead2c32aab56c2e4ecac" target="_top" xlink:title="Returns the range of the candle&#39;s lower shadow">
<polygon fill="white" stroke="black" points="645.5,-230.5 645.5,-271.5 818.5,-271.5 818.5,-230.5 645.5,-230.5"/>
<text text-anchor="start" x="653.5" y="-259.5" font-family="Helvetica,sans-Serif" font-size="10.00">QuantConnect.Indicators.</text>
<text text-anchor="start" x="653.5" y="-248.5" font-family="Helvetica,sans-Serif" font-size="10.00">CandlestickPatterns.Candlestick</text>
<text text-anchor="middle" x="732" y="-237.5" font-family="Helvetica,sans-Serif" font-size="10.00">Pattern.GetLowerShadow</text>
</a>
</g>
</g>
<!-- Node1&#45;&gt;Node6 -->
<g id="edge10" class="edge">
<title>Node1&#45;&gt;Node6</title>
<path fill="none" stroke="midnightblue" d="M111.19,-149.57C134.39,-168.41 171.62,-195.22 209,-208 351.54,-256.72 528.18,-260.39 635.11,-256.92"/>
<polygon fill="midnightblue" stroke="midnightblue" points="635.36,-260.41 645.23,-256.56 635.12,-253.41 635.36,-260.41"/>
</g>
<!-- Node7 -->
<g id="node7" class="node">
<title>Node7</title>
<g id="a_node7"><a xlink:href="classQuantConnect_1_1Indicators_1_1CandlestickPatterns_1_1CandlestickPattern.html#a47cb6b45c58d94689f6233487e981d10" target="_top" xlink:title="Returns the distance between the close and the open of a candle">
<polygon fill="white" stroke="black" points="645.5,-60.5 645.5,-101.5 818.5,-101.5 818.5,-60.5 645.5,-60.5"/>
<text text-anchor="start" x="653.5" y="-89.5" font-family="Helvetica,sans-Serif" font-size="10.00">QuantConnect.Indicators.</text>
<text text-anchor="start" x="653.5" y="-78.5" font-family="Helvetica,sans-Serif" font-size="10.00">CandlestickPatterns.Candlestick</text>
<text text-anchor="middle" x="732" y="-67.5" font-family="Helvetica,sans-Serif" font-size="10.00">Pattern.GetRealBody</text>
</a>
</g>
</g>
<!-- Node1&#45;&gt;Node7 -->
<g id="edge11" class="edge">
<title>Node1&#45;&gt;Node7</title>
<path fill="none" stroke="midnightblue" d="M173.28,-122.6C293.1,-113.66 509.89,-97.49 634.97,-88.16"/>
<polygon fill="midnightblue" stroke="midnightblue" points="635.58,-91.63 645.29,-87.39 635.06,-84.65 635.58,-91.63"/>
</g>
<!-- Node8 -->
<g id="node8" class="node">
<title>Node8</title>
<g id="a_node8"><a xlink:href="classQuantConnect_1_1Indicators_1_1CandlestickPatterns_1_1CandlestickPattern.html#ab499aa69437c2a6e83b2f1c05421c203" target="_top" xlink:title="Returns the range of the candle&#39;s upper shadow">
<polygon fill="white" stroke="black" points="645.5,-0.5 645.5,-41.5 818.5,-41.5 818.5,-0.5 645.5,-0.5"/>
<text text-anchor="start" x="653.5" y="-29.5" font-family="Helvetica,sans-Serif" font-size="10.00">QuantConnect.Indicators.</text>
<text text-anchor="start" x="653.5" y="-18.5" font-family="Helvetica,sans-Serif" font-size="10.00">CandlestickPatterns.Candlestick</text>
<text text-anchor="middle" x="732" y="-7.5" font-family="Helvetica,sans-Serif" font-size="10.00">Pattern.GetUpperShadow</text>
</a>
</g>
</g>
<!-- Node1&#45;&gt;Node8 -->
<g id="edge12" class="edge">
<title>Node1&#45;&gt;Node8</title>
<path fill="none" stroke="midnightblue" d="M173.01,-110.08C185.07,-107.6 197.33,-105.16 209,-103 357.33,-75.5 530.49,-49.49 635.37,-34.41"/>
<polygon fill="midnightblue" stroke="midnightblue" points="635.91,-37.87 645.31,-32.99 634.91,-30.94 635.91,-37.87"/>
</g>
<!-- Node3 -->
<g id="node3" class="node">
<title>Node3</title>
<g id="a_node3"><a xlink:href="classQuantConnect_1_1Indicators_1_1CandlestickPatterns_1_1CandleSettings.html#a1e65d2caf61e018e94574519fee75620" target="_top" xlink:title="Returns the candle setting for the requested type">
<polygon fill="white" stroke="black" points="627,-181 627,-211 837,-211 837,-181 627,-181"/>
<text text-anchor="start" x="635" y="-199" font-family="Helvetica,sans-Serif" font-size="10.00">QuantConnect.Indicators.</text>
<text text-anchor="middle" x="732" y="-188" font-family="Helvetica,sans-Serif" font-size="10.00">CandlestickPatterns.CandleSettings.Get</text>
</a>
</g>
</g>
<!-- Node2&#45;&gt;Node3 -->
<g id="edge2" class="edge">
<title>Node2&#45;&gt;Node3</title>
<path fill="none" stroke="midnightblue" d="M382.08,-181.55C449.14,-184.32 543.08,-188.21 616.59,-191.26"/>
<polygon fill="midnightblue" stroke="midnightblue" points="616.68,-194.77 626.82,-191.68 616.97,-187.77 616.68,-194.77"/>
</g>
<!-- Node2&#45;&gt;Node4 -->
<g id="edge3" class="edge">
<title>Node2&#45;&gt;Node4</title>
<path fill="none" stroke="midnightblue" d="M382.19,-162.68C390.66,-161.17 399.3,-159.62 407.87,-158.09"/>
<polygon fill="midnightblue" stroke="midnightblue" points="408.65,-161.51 417.88,-156.3 407.42,-154.62 408.65,-161.51"/>
</g>
<!-- Node4&#45;&gt;Node3 -->
<g id="edge4" class="edge">
<title>Node4&#45;&gt;Node3</title>
<path fill="none" stroke="midnightblue" d="M588.49,-161.56C601.38,-164.74 614.55,-167.97 627,-171 637.12,-173.47 647.79,-176.05 658.3,-178.58"/>
<polygon fill="midnightblue" stroke="midnightblue" points="657.75,-182.05 668.29,-180.99 659.39,-175.25 657.75,-182.05"/>
</g>
<!-- Node5 -->
<g id="node5" class="node">
<title>Node5</title>
<g id="a_node5"><a xlink:href="classQuantConnect_1_1Indicators_1_1CandlestickPatterns_1_1CandlestickPattern.html#ae61e2032511d5338a48f8d5b8be906b7" target="_top" xlink:title="Returns the full range of the candle">
<polygon fill="white" stroke="black" points="645.5,-120.5 645.5,-161.5 818.5,-161.5 818.5,-120.5 645.5,-120.5"/>
<text text-anchor="start" x="653.5" y="-149.5" font-family="Helvetica,sans-Serif" font-size="10.00">QuantConnect.Indicators.</text>
<text text-anchor="start" x="653.5" y="-138.5" font-family="Helvetica,sans-Serif" font-size="10.00">CandlestickPatterns.Candlestick</text>
<text text-anchor="middle" x="732" y="-127.5" font-family="Helvetica,sans-Serif" font-size="10.00">Pattern.GetHighLowRange</text>
</a>
</g>
</g>
<!-- Node4&#45;&gt;Node5 -->
<g id="edge5" class="edge">
<title>Node4&#45;&gt;Node5</title>
<path fill="none" stroke="midnightblue" d="M591.07,-141C605.55,-141 620.66,-141 635.38,-141"/>
<polygon fill="midnightblue" stroke="midnightblue" points="635.49,-144.5 645.49,-141 635.48,-137.5 635.49,-144.5"/>
</g>
<!-- Node4&#45;&gt;Node6 -->
<g id="edge6" class="edge">
<title>Node4&#45;&gt;Node6</title>
<path fill="none" stroke="midnightblue" d="M531.63,-161.58C555.36,-179.42 591.9,-204.84 627,-221 631.58,-223.11 636.34,-225.1 641.19,-226.99"/>
<polygon fill="midnightblue" stroke="midnightblue" points="640.02,-230.29 650.61,-230.47 642.45,-223.72 640.02,-230.29"/>
</g>
<!-- Node4&#45;&gt;Node7 -->
<g id="edge7" class="edge">
<title>Node4&#45;&gt;Node7</title>
<path fill="none" stroke="midnightblue" d="M582.79,-120.44C602.51,-115.19 623.84,-109.51 644.02,-104.14"/>
<polygon fill="midnightblue" stroke="midnightblue" points="645.05,-107.49 653.81,-101.54 643.25,-100.73 645.05,-107.49"/>
</g>
<!-- Node4&#45;&gt;Node8 -->
<g id="edge8" class="edge">
<title>Node4&#45;&gt;Node8</title>
<path fill="none" stroke="midnightblue" d="M528.06,-120.38C551.3,-100.12 589.35,-69.62 627,-51 631.09,-48.98 635.34,-47.07 639.68,-45.27"/>
<polygon fill="midnightblue" stroke="midnightblue" points="641.27,-48.41 649.31,-41.51 638.72,-41.89 641.27,-48.41"/>
</g>
</g>
</svg>
