<?xml version="1.0" encoding="UTF-8" standalone="no"?>
<!DOCTYPE svg PUBLIC "-//W3C//DTD SVG 1.1//EN"
 "http://www.w3.org/Graphics/SVG/1.1/DTD/svg11.dtd">
<!-- Generated by graphviz version 2.43.0 (0)
 -->
<!-- Title: QuantConnect.Securities.Future.FuturesExpiryUtilityFunctions.NotHoliday Pages: 1 -->
<svg width="438pt" height="170pt"
 viewBox="0.00 0.00 438.00 170.00" xmlns="http://www.w3.org/2000/svg" xmlns:xlink="http://www.w3.org/1999/xlink">
<g id="graph0" class="graph" transform="scale(1 1) rotate(0) translate(4 166)">
<title>QuantConnect.Securities.Future.FuturesExpiryUtilityFunctions.NotHoliday</title>
<polygon fill="white" stroke="transparent" points="-4,4 -4,-166 434,-166 434,4 -4,4"/>
<!-- Node1 -->
<g id="node1" class="node">
<title>Node1</title>
<g id="a_node1"><a xlink:title="Method to check whether a given time is holiday or not">
<polygon fill="#bfbfbf" stroke="black" points="233,-60.5 233,-101.5 430,-101.5 430,-60.5 233,-60.5"/>
<text text-anchor="start" x="241" y="-89.5" font-family="Helvetica,sans-Serif" font-size="10.00">QuantConnect.Securities.</text>
<text text-anchor="start" x="241" y="-78.5" font-family="Helvetica,sans-Serif" font-size="10.00">Future.FuturesExpiryUtilityFunctions.</text>
<text text-anchor="middle" x="331.5" y="-67.5" font-family="Helvetica,sans-Serif" font-size="10.00">NotHoliday</text>
</a>
</g>
</g>
<!-- Node2 -->
<g id="node2" class="node">
<title>Node2</title>
<g id="a_node2"><a xlink:href="classQuantConnect_1_1Securities_1_1Future_1_1FuturesExpiryUtilityFunctions.html#ab0e73750c417736f06e57168e93af178" target="_top" xlink:title="This function takes Thursday as input and returns true if four weekdays preceding it are not Holidays">
<polygon fill="white" stroke="black" points="0,-120.5 0,-161.5 197,-161.5 197,-120.5 0,-120.5"/>
<text text-anchor="start" x="8" y="-149.5" font-family="Helvetica,sans-Serif" font-size="10.00">QuantConnect.Securities.</text>
<text text-anchor="start" x="8" y="-138.5" font-family="Helvetica,sans-Serif" font-size="10.00">Future.FuturesExpiryUtilityFunctions.</text>
<text text-anchor="middle" x="98.5" y="-127.5" font-family="Helvetica,sans-Serif" font-size="10.00">NotPrecededByHoliday</text>
</a>
</g>
</g>
<!-- Node1&#45;&gt;Node2 -->
<g id="edge1" class="edge">
<title>Node1&#45;&gt;Node2</title>
<path fill="none" stroke="midnightblue" d="M241.57,-104.1C220.82,-109.49 198.86,-115.19 178.57,-120.46"/>
<polygon fill="midnightblue" stroke="midnightblue" points="242.53,-107.47 251.33,-101.56 240.77,-100.69 242.53,-107.47"/>
</g>
<!-- Node3 -->
<g id="node3" class="node">
<title>Node3</title>
<g id="a_node3"><a xlink:href="classQuantConnect_1_1Securities_1_1Future_1_1FuturesExpiryUtilityFunctions.html#a033bcd11133290ed64a7d98b4a454548" target="_top" xlink:title="Calculates the n^th business day of the month (includes checking for holidays)">
<polygon fill="white" stroke="black" points="0,-60.5 0,-101.5 197,-101.5 197,-60.5 0,-60.5"/>
<text text-anchor="start" x="8" y="-89.5" font-family="Helvetica,sans-Serif" font-size="10.00">QuantConnect.Securities.</text>
<text text-anchor="start" x="8" y="-78.5" font-family="Helvetica,sans-Serif" font-size="10.00">Future.FuturesExpiryUtilityFunctions.</text>
<text text-anchor="middle" x="98.5" y="-67.5" font-family="Helvetica,sans-Serif" font-size="10.00">NthBusinessDay</text>
</a>
</g>
</g>
<!-- Node1&#45;&gt;Node3 -->
<g id="edge2" class="edge">
<title>Node1&#45;&gt;Node3</title>
<path fill="none" stroke="midnightblue" d="M222.85,-81C214.28,-81 205.65,-81 197.15,-81"/>
<polygon fill="midnightblue" stroke="midnightblue" points="222.87,-84.5 232.87,-81 222.87,-77.5 222.87,-84.5"/>
</g>
<!-- Node4 -->
<g id="node4" class="node">
<title>Node4</title>
<g id="a_node4"><a xlink:href="classQuantConnect_1_1Securities_1_1Future_1_1FuturesExpiryUtilityFunctions.html#aea0dd9861d3b7362c8858adccb3445ab" target="_top" xlink:title="Method to retrieve the n^th last business day of the delivery month.">
<polygon fill="white" stroke="black" points="0,-0.5 0,-41.5 197,-41.5 197,-0.5 0,-0.5"/>
<text text-anchor="start" x="8" y="-29.5" font-family="Helvetica,sans-Serif" font-size="10.00">QuantConnect.Securities.</text>
<text text-anchor="start" x="8" y="-18.5" font-family="Helvetica,sans-Serif" font-size="10.00">Future.FuturesExpiryUtilityFunctions.</text>
<text text-anchor="middle" x="98.5" y="-7.5" font-family="Helvetica,sans-Serif" font-size="10.00">NthLastBusinessDay</text>
</a>
</g>
</g>
<!-- Node1&#45;&gt;Node4 -->
<g id="edge3" class="edge">
<title>Node1&#45;&gt;Node4</title>
<path fill="none" stroke="midnightblue" d="M241.57,-57.9C220.82,-52.51 198.86,-46.81 178.57,-41.54"/>
<polygon fill="midnightblue" stroke="midnightblue" points="240.77,-61.31 251.33,-60.44 242.53,-54.53 240.77,-61.31"/>
</g>
</g>
</svg>
