<?xml version="1.0" encoding="UTF-8" standalone="no"?>
<!DOCTYPE svg PUBLIC "-//W3C//DTD SVG 1.1//EN"
 "http://www.w3.org/Graphics/SVG/1.1/DTD/svg11.dtd">
<!-- Generated by graphviz version 2.43.0 (0)
 -->
<!-- Title: QuantConnect.Data.Auxiliary.MapFile.HasData Pages: 1 -->
<svg width="410pt" height="230pt"
 viewBox="0.00 0.00 410.00 230.00" xmlns="http://www.w3.org/2000/svg" xmlns:xlink="http://www.w3.org/1999/xlink">
<g id="graph0" class="graph" transform="scale(1 1) rotate(0) translate(4 226)">
<title>QuantConnect.Data.Auxiliary.MapFile.HasData</title>
<polygon fill="white" stroke="transparent" points="-4,4 -4,-226 406,-226 406,4 -4,4"/>
<!-- Node1 -->
<g id="node1" class="node">
<title>Node1</title>
<g id="a_node1"><a xlink:title="Determines if there&#39;s data for the requested date">
<polygon fill="#bfbfbf" stroke="black" points="242,-96 242,-126 402,-126 402,-96 242,-96"/>
<text text-anchor="start" x="250" y="-114" font-family="Helvetica,sans-Serif" font-size="10.00">QuantConnect.Data.Auxiliary.</text>
<text text-anchor="middle" x="322" y="-103" font-family="Helvetica,sans-Serif" font-size="10.00">MapFile.HasData</text>
</a>
</g>
</g>
<!-- Node2 -->
<g id="node2" class="node">
<title>Node2</title>
<g id="a_node2"><a xlink:href="classQuantConnect_1_1Lean_1_1Engine_1_1DataFeeds_1_1Enumerators_1_1DividendEventProvider.html#a885746f584223943fd87dee40c528fe4" target="_top" xlink:title="Check for dividends and returns them">
<polygon fill="white" stroke="black" points="13,-180.5 13,-221.5 193,-221.5 193,-180.5 13,-180.5"/>
<text text-anchor="start" x="21" y="-209.5" font-family="Helvetica,sans-Serif" font-size="10.00">QuantConnect.Lean.Engine.</text>
<text text-anchor="start" x="21" y="-198.5" font-family="Helvetica,sans-Serif" font-size="10.00">DataFeeds.Enumerators.Dividend</text>
<text text-anchor="middle" x="103" y="-187.5" font-family="Helvetica,sans-Serif" font-size="10.00">EventProvider.GetEvents</text>
</a>
</g>
</g>
<!-- Node1&#45;&gt;Node2 -->
<g id="edge1" class="edge">
<title>Node1&#45;&gt;Node2</title>
<path fill="none" stroke="midnightblue" d="M286.84,-131.07C264.39,-143.69 234.08,-159.67 206,-171 197.7,-174.35 188.88,-177.51 180.04,-180.42"/>
<polygon fill="midnightblue" stroke="midnightblue" points="288.68,-134.05 295.65,-126.06 285.23,-127.96 288.68,-134.05"/>
</g>
<!-- Node3 -->
<g id="node3" class="node">
<title>Node3</title>
<g id="a_node3"><a xlink:href="classQuantConnect_1_1Lean_1_1Engine_1_1DataFeeds_1_1Enumerators_1_1SplitEventProvider.html#a6e4842496889d67a17c6844c70201a24" target="_top" xlink:title="Check for new splits">
<polygon fill="white" stroke="black" points="10,-120.5 10,-161.5 196,-161.5 196,-120.5 10,-120.5"/>
<text text-anchor="start" x="18" y="-149.5" font-family="Helvetica,sans-Serif" font-size="10.00">QuantConnect.Lean.Engine.</text>
<text text-anchor="start" x="18" y="-138.5" font-family="Helvetica,sans-Serif" font-size="10.00">DataFeeds.Enumerators.SplitEvent</text>
<text text-anchor="middle" x="103" y="-127.5" font-family="Helvetica,sans-Serif" font-size="10.00">Provider.GetEvents</text>
</a>
</g>
</g>
<!-- Node1&#45;&gt;Node3 -->
<g id="edge2" class="edge">
<title>Node1&#45;&gt;Node3</title>
<path fill="none" stroke="midnightblue" d="M231.59,-123.36C219.94,-124.97 207.99,-126.62 196.29,-128.24"/>
<polygon fill="midnightblue" stroke="midnightblue" points="232.31,-126.79 241.74,-121.96 231.35,-119.86 232.31,-126.79"/>
</g>
<!-- Node4 -->
<g id="node4" class="node">
<title>Node4</title>
<g id="a_node4"><a xlink:href="classQuantConnect_1_1Lean_1_1Engine_1_1DataFeeds_1_1Enumerators_1_1MappingEventProvider.html#a40907ad3241f52cdf880c8d64982f5bc" target="_top" xlink:title="Check for new mappings">
<polygon fill="white" stroke="black" points="0,-60.5 0,-101.5 206,-101.5 206,-60.5 0,-60.5"/>
<text text-anchor="start" x="8" y="-89.5" font-family="Helvetica,sans-Serif" font-size="10.00">QuantConnect.Lean.Engine.</text>
<text text-anchor="start" x="8" y="-78.5" font-family="Helvetica,sans-Serif" font-size="10.00">DataFeeds.Enumerators.MappingEvent</text>
<text text-anchor="middle" x="103" y="-67.5" font-family="Helvetica,sans-Serif" font-size="10.00">Provider.GetEvents</text>
</a>
</g>
</g>
<!-- Node1&#45;&gt;Node4 -->
<g id="edge3" class="edge">
<title>Node1&#45;&gt;Node4</title>
<path fill="none" stroke="midnightblue" d="M231.83,-98.67C223.31,-97.49 214.63,-96.29 206.01,-95.1"/>
<polygon fill="midnightblue" stroke="midnightblue" points="231.35,-102.14 241.74,-100.04 232.31,-95.21 231.35,-102.14"/>
</g>
<!-- Node5 -->
<g id="node5" class="node">
<title>Node5</title>
<g id="a_node5"><a xlink:href="classQuantConnect_1_1Lean_1_1Engine_1_1DataFeeds_1_1Enumerators_1_1MappingEventProvider.html#af71da3b51ab48d4d71081f3467058609" target="_top" xlink:title="Initializes this instance">
<polygon fill="white" stroke="black" points="0,-0.5 0,-41.5 206,-41.5 206,-0.5 0,-0.5"/>
<text text-anchor="start" x="8" y="-29.5" font-family="Helvetica,sans-Serif" font-size="10.00">QuantConnect.Lean.Engine.</text>
<text text-anchor="start" x="8" y="-18.5" font-family="Helvetica,sans-Serif" font-size="10.00">DataFeeds.Enumerators.MappingEvent</text>
<text text-anchor="middle" x="103" y="-7.5" font-family="Helvetica,sans-Serif" font-size="10.00">Provider.Initialize</text>
</a>
</g>
</g>
<!-- Node1&#45;&gt;Node5 -->
<g id="edge4" class="edge">
<title>Node1&#45;&gt;Node5</title>
<path fill="none" stroke="midnightblue" d="M286.84,-90.93C264.39,-78.31 234.08,-62.33 206,-51 197.7,-47.65 188.88,-44.49 180.04,-41.58"/>
<polygon fill="midnightblue" stroke="midnightblue" points="285.23,-94.04 295.65,-95.94 288.68,-87.95 285.23,-94.04"/>
</g>
</g>
</svg>
