<?xml version="1.0" encoding="UTF-8" standalone="no"?>
<!DOCTYPE svg PUBLIC "-//W3C//DTD SVG 1.1//EN"
 "http://www.w3.org/Graphics/SVG/1.1/DTD/svg11.dtd">
<!-- Generated by graphviz version 2.43.0 (0)
 -->
<!-- Title: QuantConnect.Lean.Engine.DataFeeds.Enumerators.AuxiliaryDataEnumerator.AuxiliaryDataEnumerator Pages: 1 -->
<svg width="885pt" height="50pt"
 viewBox="0.00 0.00 885.00 50.00" xmlns="http://www.w3.org/2000/svg" xmlns:xlink="http://www.w3.org/1999/xlink">
<g id="graph0" class="graph" transform="scale(1 1) rotate(0) translate(4 46)">
<title>QuantConnect.Lean.Engine.DataFeeds.Enumerators.AuxiliaryDataEnumerator.AuxiliaryDataEnumerator</title>
<polygon fill="white" stroke="transparent" points="-4,4 -4,-46 881,-46 881,4 -4,4"/>
<!-- Node1 -->
<g id="node1" class="node">
<title>Node1</title>
<g id="a_node1"><a xlink:title="Creates a new instance">
<polygon fill="#bfbfbf" stroke="black" points="0,-0.5 0,-41.5 223,-41.5 223,-0.5 0,-0.5"/>
<text text-anchor="start" x="8" y="-29.5" font-family="Helvetica,sans-Serif" font-size="10.00">QuantConnect.Lean.Engine.</text>
<text text-anchor="start" x="8" y="-18.5" font-family="Helvetica,sans-Serif" font-size="10.00">DataFeeds.Enumerators.Auxiliary</text>
<text text-anchor="middle" x="111.5" y="-7.5" font-family="Helvetica,sans-Serif" font-size="10.00">DataEnumerator.AuxiliaryDataEnumerator</text>
</a>
</g>
</g>
<!-- Node2 -->
<g id="node2" class="node">
<title>Node2</title>
<g id="a_node2"><a xlink:href="classQuantConnect_1_1Lean_1_1Engine_1_1DataFeeds_1_1Enumerators_1_1AuxiliaryDataEnumerator.html#ab3e08b934825ed795455cd9e1e4bd846" target="_top" xlink:title="Handle a new tradable date, drives the ITradableDateEventProvider instances">
<polygon fill="white" stroke="black" points="259,-0.5 259,-41.5 444,-41.5 444,-0.5 259,-0.5"/>
<text text-anchor="start" x="267" y="-29.5" font-family="Helvetica,sans-Serif" font-size="10.00">QuantConnect.Lean.Engine.</text>
<text text-anchor="start" x="267" y="-18.5" font-family="Helvetica,sans-Serif" font-size="10.00">DataFeeds.Enumerators.Auxiliary</text>
<text text-anchor="middle" x="351.5" y="-7.5" font-family="Helvetica,sans-Serif" font-size="10.00">DataEnumerator.NewTradableDate</text>
</a>
</g>
</g>
<!-- Node1&#45;&gt;Node2 -->
<g id="edge1" class="edge">
<title>Node1&#45;&gt;Node2</title>
<path fill="none" stroke="midnightblue" d="M223.14,-21C231.6,-21 240.11,-21 248.51,-21"/>
<polygon fill="midnightblue" stroke="midnightblue" points="248.69,-24.5 258.69,-21 248.69,-17.5 248.69,-24.5"/>
</g>
<!-- Node3 -->
<g id="node3" class="node">
<title>Node3</title>
<g id="a_node3"><a xlink:href="classQuantConnect_1_1Lean_1_1Engine_1_1DataFeeds_1_1Enumerators_1_1AuxiliaryDataEnumerator.html#a3b993c67a7eb48d17b18dfc36f6e5914" target="_top" xlink:title="Initializes the underlying tradable data event providers">
<polygon fill="white" stroke="black" points="480,-0.5 480,-41.5 660,-41.5 660,-0.5 480,-0.5"/>
<text text-anchor="start" x="488" y="-29.5" font-family="Helvetica,sans-Serif" font-size="10.00">QuantConnect.Lean.Engine.</text>
<text text-anchor="start" x="488" y="-18.5" font-family="Helvetica,sans-Serif" font-size="10.00">DataFeeds.Enumerators.Auxiliary</text>
<text text-anchor="middle" x="570" y="-7.5" font-family="Helvetica,sans-Serif" font-size="10.00">DataEnumerator.Initialize</text>
</a>
</g>
</g>
<!-- Node2&#45;&gt;Node3 -->
<g id="edge2" class="edge">
<title>Node2&#45;&gt;Node3</title>
<path fill="none" stroke="midnightblue" d="M444,-21C452.55,-21 461.23,-21 469.84,-21"/>
<polygon fill="midnightblue" stroke="midnightblue" points="469.9,-24.5 479.9,-21 469.9,-17.5 469.9,-24.5"/>
</g>
<!-- Node4 -->
<g id="node4" class="node">
<title>Node4</title>
<g id="a_node4"><a xlink:href="interfaceQuantConnect_1_1Lean_1_1Engine_1_1DataFeeds_1_1Enumerators_1_1ITradableDateEventProvider.html#a78c0f016437047bf20f15acbfa45b483" target="_top" xlink:title="Initializes the event provider instance">
<polygon fill="white" stroke="black" points="696,-0.5 696,-41.5 877,-41.5 877,-0.5 696,-0.5"/>
<text text-anchor="start" x="704" y="-29.5" font-family="Helvetica,sans-Serif" font-size="10.00">QuantConnect.Lean.Engine.</text>
<text text-anchor="start" x="704" y="-18.5" font-family="Helvetica,sans-Serif" font-size="10.00">DataFeeds.Enumerators.ITradable</text>
<text text-anchor="middle" x="786.5" y="-7.5" font-family="Helvetica,sans-Serif" font-size="10.00">DateEventProvider.Initialize</text>
</a>
</g>
</g>
<!-- Node3&#45;&gt;Node4 -->
<g id="edge3" class="edge">
<title>Node3&#45;&gt;Node4</title>
<path fill="none" stroke="midnightblue" d="M660.1,-21C668.63,-21 677.3,-21 685.92,-21"/>
<polygon fill="midnightblue" stroke="midnightblue" points="685.98,-24.5 695.98,-21 685.98,-17.5 685.98,-24.5"/>
</g>
</g>
</svg>
