<?xml version="1.0" encoding="UTF-8" standalone="no"?>
<!DOCTYPE svg PUBLIC "-//W3C//DTD SVG 1.1//EN"
 "http://www.w3.org/Graphics/SVG/1.1/DTD/svg11.dtd">
<!-- Generated by graphviz version 2.43.0 (0)
 -->
<!-- Title: QuantConnect.Data.Fundamental.IncomeStatement.UpdateValues Pages: 1 -->
<svg width="631pt" height="39pt"
 viewBox="0.00 0.00 631.00 39.00" xmlns="http://www.w3.org/2000/svg" xmlns:xlink="http://www.w3.org/1999/xlink">
<g id="graph0" class="graph" transform="scale(1 1) rotate(0) translate(4 35)">
<title>QuantConnect.Data.Fundamental.IncomeStatement.UpdateValues</title>
<polygon fill="white" stroke="transparent" points="-4,4 -4,-35 627,-35 627,4 -4,4"/>
<!-- Node1 -->
<g id="node1" class="node">
<title>Node1</title>
<g id="a_node1"><a xlink:title="Applies updated values from update &#160;to this instance">
<polygon fill="#bfbfbf" stroke="black" points="441,-0.5 441,-30.5 623,-30.5 623,-0.5 441,-0.5"/>
<text text-anchor="start" x="449" y="-18.5" font-family="Helvetica,sans-Serif" font-size="10.00">QuantConnect.Data.Fundamental.</text>
<text text-anchor="middle" x="532" y="-7.5" font-family="Helvetica,sans-Serif" font-size="10.00">IncomeStatement.UpdateValues</text>
</a>
</g>
</g>
<!-- Node2 -->
<g id="node2" class="node">
<title>Node2</title>
<g id="a_node2"><a xlink:href="classQuantConnect_1_1Data_1_1Fundamental_1_1FinancialStatements.html#a0c1c85acacb98a3908ac1cd40456e11b" target="_top" xlink:title="Applies updated values from update &#160;to this instance">
<polygon fill="white" stroke="black" points="218,-0.5 218,-30.5 405,-30.5 405,-0.5 218,-0.5"/>
<text text-anchor="start" x="226" y="-18.5" font-family="Helvetica,sans-Serif" font-size="10.00">QuantConnect.Data.Fundamental.</text>
<text text-anchor="middle" x="311.5" y="-7.5" font-family="Helvetica,sans-Serif" font-size="10.00">FinancialStatements.UpdateValues</text>
</a>
</g>
</g>
<!-- Node1&#45;&gt;Node2 -->
<g id="edge1" class="edge">
<title>Node1&#45;&gt;Node2</title>
<path fill="none" stroke="midnightblue" d="M430.61,-15.5C422.16,-15.5 413.64,-15.5 405.25,-15.5"/>
<polygon fill="midnightblue" stroke="midnightblue" points="430.87,-19 440.87,-15.5 430.87,-12 430.87,-19"/>
</g>
<!-- Node3 -->
<g id="node3" class="node">
<title>Node3</title>
<g id="a_node3"><a xlink:href="classQuantConnect_1_1Data_1_1Fundamental_1_1FineFundamental.html#af68025c95be331aa84700c33db569812" target="_top" xlink:title="Applies updated values from update &#160;to this instance">
<polygon fill="white" stroke="black" points="0,-0.5 0,-30.5 182,-30.5 182,-0.5 0,-0.5"/>
<text text-anchor="start" x="8" y="-18.5" font-family="Helvetica,sans-Serif" font-size="10.00">QuantConnect.Data.Fundamental.</text>
<text text-anchor="middle" x="91" y="-7.5" font-family="Helvetica,sans-Serif" font-size="10.00">FineFundamental.UpdateValues</text>
</a>
</g>
</g>
<!-- Node2&#45;&gt;Node3 -->
<g id="edge2" class="edge">
<title>Node2&#45;&gt;Node3</title>
<path fill="none" stroke="midnightblue" d="M207.78,-15.5C199.17,-15.5 190.52,-15.5 182.02,-15.5"/>
<polygon fill="midnightblue" stroke="midnightblue" points="207.84,-19 217.84,-15.5 207.84,-12 207.84,-19"/>
</g>
</g>
</svg>
