<?xml version="1.0" encoding="UTF-8" standalone="no"?>
<!DOCTYPE svg PUBLIC "-//W3C//DTD SVG 1.1//EN"
 "http://www.w3.org/Graphics/SVG/1.1/DTD/svg11.dtd">
<!-- Generated by graphviz version 2.43.0 (0)
 -->
<!-- Title: QuantConnect.Lean.Engine.DataFeeds.Enumerators.Factories.LiveCustomDataSubscriptionEnumeratorFactory.GetSubscriptionDataSourceReader Pages: 1 -->
<svg width="840pt" height="88pt"
 viewBox="0.00 0.00 840.00 88.00" xmlns="http://www.w3.org/2000/svg" xmlns:xlink="http://www.w3.org/1999/xlink">
<g id="graph0" class="graph" transform="scale(1 1) rotate(0) translate(4 84)">
<title>QuantConnect.Lean.Engine.DataFeeds.Enumerators.Factories.LiveCustomDataSubscriptionEnumeratorFactory.GetSubscriptionDataSourceReader</title>
<polygon fill="white" stroke="transparent" points="-4,4 -4,-84 836,-84 836,4 -4,4"/>
<!-- Node1 -->
<g id="node1" class="node">
<title>Node1</title>
<g id="a_node1"><a xlink:title="Gets the ISubscriptionDataSourceReader for the specified source">
<polygon fill="#bfbfbf" stroke="black" points="0,-13.5 0,-65.5 221,-65.5 221,-13.5 0,-13.5"/>
<text text-anchor="start" x="8" y="-53.5" font-family="Helvetica,sans-Serif" font-size="10.00">QuantConnect.Lean.Engine.</text>
<text text-anchor="start" x="8" y="-42.5" font-family="Helvetica,sans-Serif" font-size="10.00">DataFeeds.Enumerators.Factories.</text>
<text text-anchor="start" x="8" y="-31.5" font-family="Helvetica,sans-Serif" font-size="10.00">LiveCustomDataSubscriptionEnumerator</text>
<text text-anchor="middle" x="110.5" y="-20.5" font-family="Helvetica,sans-Serif" font-size="10.00">Factory.GetSubscriptionDataSourceReader</text>
</a>
</g>
</g>
<!-- Node2 -->
<g id="node2" class="node">
<title>Node2</title>
<g id="a_node2"><a xlink:href="classQuantConnect_1_1Lean_1_1Engine_1_1DataFeeds_1_1SubscriptionDataSourceReader.html#a49f621667f9770018e6401b2bfdbf270" target="_top" xlink:title="Creates a new ISubscriptionDataSourceReader capable of handling the specified source">
<polygon fill="white" stroke="black" points="257,-19 257,-60 445,-60 445,-19 257,-19"/>
<text text-anchor="start" x="265" y="-48" font-family="Helvetica,sans-Serif" font-size="10.00">QuantConnect.Lean.Engine.</text>
<text text-anchor="start" x="265" y="-37" font-family="Helvetica,sans-Serif" font-size="10.00">DataFeeds.SubscriptionDataSource</text>
<text text-anchor="middle" x="351" y="-26" font-family="Helvetica,sans-Serif" font-size="10.00">Reader.ForSource</text>
</a>
</g>
</g>
<!-- Node1&#45;&gt;Node2 -->
<g id="edge1" class="edge">
<title>Node1&#45;&gt;Node2</title>
<path fill="none" stroke="midnightblue" d="M221.33,-39.5C229.76,-39.5 238.25,-39.5 246.64,-39.5"/>
<polygon fill="midnightblue" stroke="midnightblue" points="246.8,-43 256.8,-39.5 246.8,-36 246.8,-43"/>
</g>
<!-- Node3 -->
<g id="node3" class="node">
<title>Node3</title>
<g id="a_node3"><a xlink:href="classQuantConnect_1_1Logging_1_1Log.html#af0e7955911bc7664b37661b2a303a9e3" target="_top" xlink:title="Log error">
<polygon fill="white" stroke="black" points="488.5,-49.5 488.5,-79.5 638.5,-79.5 638.5,-49.5 488.5,-49.5"/>
<text text-anchor="start" x="496.5" y="-67.5" font-family="Helvetica,sans-Serif" font-size="10.00">QuantConnect.Logging.Log.</text>
<text text-anchor="middle" x="563.5" y="-56.5" font-family="Helvetica,sans-Serif" font-size="10.00">Error</text>
</a>
</g>
</g>
<!-- Node2&#45;&gt;Node3 -->
<g id="edge2" class="edge">
<title>Node2&#45;&gt;Node3</title>
<path fill="none" stroke="midnightblue" d="M445.25,-50.57C456.16,-51.87 467.26,-53.19 478.04,-54.47"/>
<polygon fill="midnightblue" stroke="midnightblue" points="477.94,-57.98 488.28,-55.69 478.76,-51.03 477.94,-57.98"/>
</g>
<!-- Node5 -->
<g id="node5" class="node">
<title>Node5</title>
<g id="a_node5"><a xlink:href="classQuantConnect_1_1Data_1_1BaseData.html#acae87f280cdb0e488c01a0a7fcce912e" target="_top" xlink:title="Indicates that the data set is expected to be sparse">
<polygon fill="white" stroke="black" points="481,-0.5 481,-30.5 646,-30.5 646,-0.5 481,-0.5"/>
<text text-anchor="start" x="489" y="-18.5" font-family="Helvetica,sans-Serif" font-size="10.00">QuantConnect.Data.BaseData.</text>
<text text-anchor="middle" x="563.5" y="-7.5" font-family="Helvetica,sans-Serif" font-size="10.00">IsSparseData</text>
</a>
</g>
</g>
<!-- Node2&#45;&gt;Node5 -->
<g id="edge4" class="edge">
<title>Node2&#45;&gt;Node5</title>
<path fill="none" stroke="midnightblue" d="M445.25,-28.87C453.69,-27.91 462.24,-26.93 470.67,-25.97"/>
<polygon fill="midnightblue" stroke="midnightblue" points="471.34,-29.42 480.88,-24.81 470.55,-22.46 471.34,-29.42"/>
</g>
<!-- Node4 -->
<g id="node4" class="node">
<title>Node4</title>
<g id="a_node4"><a xlink:href="interfaceQuantConnect_1_1Logging_1_1ILogHandler.html#a35373a0c5d76031fa5ccf5dc39e5c25d" target="_top" xlink:title="Write error message to log">
<polygon fill="white" stroke="black" points="682,-49.5 682,-79.5 832,-79.5 832,-49.5 682,-49.5"/>
<text text-anchor="start" x="690" y="-67.5" font-family="Helvetica,sans-Serif" font-size="10.00">QuantConnect.Logging.ILog</text>
<text text-anchor="middle" x="757" y="-56.5" font-family="Helvetica,sans-Serif" font-size="10.00">Handler.Error</text>
</a>
</g>
</g>
<!-- Node3&#45;&gt;Node4 -->
<g id="edge3" class="edge">
<title>Node3&#45;&gt;Node4</title>
<path fill="none" stroke="midnightblue" d="M638.54,-64.5C649.42,-64.5 660.69,-64.5 671.76,-64.5"/>
<polygon fill="midnightblue" stroke="midnightblue" points="671.84,-68 681.84,-64.5 671.84,-61 671.84,-68"/>
</g>
</g>
</svg>
