<?xml version="1.0" encoding="UTF-8" standalone="no"?>
<!DOCTYPE svg PUBLIC "-//W3C//DTD SVG 1.1//EN"
 "http://www.w3.org/Graphics/SVG/1.1/DTD/svg11.dtd">
<!-- Generated by graphviz version 2.43.0 (0)
 -->
<!-- Title: QuantConnect.Lean.Engine.DataFeeds.Enumerators.LiveAuxiliaryDataEnumerator.MoveNext Pages: 1 -->
<svg width="862pt" height="149pt"
 viewBox="0.00 0.00 862.00 148.50" xmlns="http://www.w3.org/2000/svg" xmlns:xlink="http://www.w3.org/1999/xlink">
<g id="graph0" class="graph" transform="scale(1 1) rotate(0) translate(4 144.5)">
<title>QuantConnect.Lean.Engine.DataFeeds.Enumerators.LiveAuxiliaryDataEnumerator.MoveNext</title>
<polygon fill="white" stroke="transparent" points="-4,4 -4,-144.5 858,-144.5 858,4 -4,4"/>
<!-- Node1 -->
<g id="node1" class="node">
<title>Node1</title>
<g id="a_node1"><a xlink:title="Advances the enumerator to the next element.">
<polygon fill="#bfbfbf" stroke="black" points="0,-55.5 0,-96.5 200,-96.5 200,-55.5 0,-55.5"/>
<text text-anchor="start" x="8" y="-84.5" font-family="Helvetica,sans-Serif" font-size="10.00">QuantConnect.Lean.Engine.</text>
<text text-anchor="start" x="8" y="-73.5" font-family="Helvetica,sans-Serif" font-size="10.00">DataFeeds.Enumerators.LiveAuxiliary</text>
<text text-anchor="middle" x="100" y="-62.5" font-family="Helvetica,sans-Serif" font-size="10.00">DataEnumerator.MoveNext</text>
</a>
</g>
</g>
<!-- Node2 -->
<g id="node2" class="node">
<title>Node2</title>
<g id="a_node2"><a xlink:href="classQuantConnect_1_1Securities_1_1SecurityCache.html#a2e22a721cbad979accb38e91dd640b8e" target="_top" xlink:title="Get last data packet received for this security if any else null">
<polygon fill="white" stroke="black" points="258.5,-110 258.5,-140 398.5,-140 398.5,-110 258.5,-110"/>
<text text-anchor="start" x="266.5" y="-128" font-family="Helvetica,sans-Serif" font-size="10.00">QuantConnect.Securities.</text>
<text text-anchor="middle" x="328.5" y="-117" font-family="Helvetica,sans-Serif" font-size="10.00">SecurityCache.GetData</text>
</a>
</g>
</g>
<!-- Node1&#45;&gt;Node2 -->
<g id="edge1" class="edge">
<title>Node1&#45;&gt;Node2</title>
<path fill="none" stroke="midnightblue" d="M196.07,-96.57C213.58,-100.35 231.68,-104.27 248.65,-107.94"/>
<polygon fill="midnightblue" stroke="midnightblue" points="247.98,-111.38 258.49,-110.07 249.46,-104.54 247.98,-111.38"/>
</g>
<!-- Node3 -->
<g id="node3" class="node">
<title>Node3</title>
<g id="a_node3"><a xlink:href="interfaceQuantConnect_1_1ITimeProvider.html#ae51737f869d879dfbb297496e4feb036" target="_top" xlink:title="Gets the current time in UTC">
<polygon fill="white" stroke="black" points="249,-61 249,-91 408,-91 408,-61 249,-61"/>
<text text-anchor="start" x="257" y="-79" font-family="Helvetica,sans-Serif" font-size="10.00">QuantConnect.ITimeProvider.</text>
<text text-anchor="middle" x="328.5" y="-68" font-family="Helvetica,sans-Serif" font-size="10.00">GetUtcNow</text>
</a>
</g>
</g>
<!-- Node1&#45;&gt;Node3 -->
<g id="edge2" class="edge">
<title>Node1&#45;&gt;Node3</title>
<path fill="none" stroke="midnightblue" d="M200.02,-76C212.88,-76 226,-76 238.69,-76"/>
<polygon fill="midnightblue" stroke="midnightblue" points="238.76,-79.5 248.76,-76 238.76,-72.5 238.76,-79.5"/>
</g>
<!-- Node4 -->
<g id="node4" class="node">
<title>Node4</title>
<g id="a_node4"><a xlink:href="classQuantConnect_1_1Lean_1_1Engine_1_1DataFeeds_1_1Enumerators_1_1AuxiliaryDataEnumerator.html#ab3e08b934825ed795455cd9e1e4bd846" target="_top" xlink:title="Handle a new tradable date, drives the ITradableDateEventProvider instances">
<polygon fill="white" stroke="black" points="236,-0.5 236,-41.5 421,-41.5 421,-0.5 236,-0.5"/>
<text text-anchor="start" x="244" y="-29.5" font-family="Helvetica,sans-Serif" font-size="10.00">QuantConnect.Lean.Engine.</text>
<text text-anchor="start" x="244" y="-18.5" font-family="Helvetica,sans-Serif" font-size="10.00">DataFeeds.Enumerators.Auxiliary</text>
<text text-anchor="middle" x="328.5" y="-7.5" font-family="Helvetica,sans-Serif" font-size="10.00">DataEnumerator.NewTradableDate</text>
</a>
</g>
</g>
<!-- Node1&#45;&gt;Node4 -->
<g id="edge3" class="edge">
<title>Node1&#45;&gt;Node4</title>
<path fill="none" stroke="midnightblue" d="M185.66,-55.44C201.17,-51.68 217.44,-47.73 233.2,-43.9"/>
<polygon fill="midnightblue" stroke="midnightblue" points="234.05,-47.29 242.94,-41.53 232.4,-40.49 234.05,-47.29"/>
</g>
<!-- Node5 -->
<g id="node5" class="node">
<title>Node5</title>
<g id="a_node5"><a xlink:href="classQuantConnect_1_1Lean_1_1Engine_1_1DataFeeds_1_1Enumerators_1_1AuxiliaryDataEnumerator.html#a3b993c67a7eb48d17b18dfc36f6e5914" target="_top" xlink:title="Initializes the underlying tradable data event providers">
<polygon fill="white" stroke="black" points="457,-0.5 457,-41.5 637,-41.5 637,-0.5 457,-0.5"/>
<text text-anchor="start" x="465" y="-29.5" font-family="Helvetica,sans-Serif" font-size="10.00">QuantConnect.Lean.Engine.</text>
<text text-anchor="start" x="465" y="-18.5" font-family="Helvetica,sans-Serif" font-size="10.00">DataFeeds.Enumerators.Auxiliary</text>
<text text-anchor="middle" x="547" y="-7.5" font-family="Helvetica,sans-Serif" font-size="10.00">DataEnumerator.Initialize</text>
</a>
</g>
</g>
<!-- Node4&#45;&gt;Node5 -->
<g id="edge4" class="edge">
<title>Node4&#45;&gt;Node5</title>
<path fill="none" stroke="midnightblue" d="M421,-21C429.55,-21 438.23,-21 446.84,-21"/>
<polygon fill="midnightblue" stroke="midnightblue" points="446.9,-24.5 456.9,-21 446.9,-17.5 446.9,-24.5"/>
</g>
<!-- Node6 -->
<g id="node6" class="node">
<title>Node6</title>
<g id="a_node6"><a xlink:href="interfaceQuantConnect_1_1Lean_1_1Engine_1_1DataFeeds_1_1Enumerators_1_1ITradableDateEventProvider.html#a78c0f016437047bf20f15acbfa45b483" target="_top" xlink:title="Initializes the event provider instance">
<polygon fill="white" stroke="black" points="673,-0.5 673,-41.5 854,-41.5 854,-0.5 673,-0.5"/>
<text text-anchor="start" x="681" y="-29.5" font-family="Helvetica,sans-Serif" font-size="10.00">QuantConnect.Lean.Engine.</text>
<text text-anchor="start" x="681" y="-18.5" font-family="Helvetica,sans-Serif" font-size="10.00">DataFeeds.Enumerators.ITradable</text>
<text text-anchor="middle" x="763.5" y="-7.5" font-family="Helvetica,sans-Serif" font-size="10.00">DateEventProvider.Initialize</text>
</a>
</g>
</g>
<!-- Node5&#45;&gt;Node6 -->
<g id="edge5" class="edge">
<title>Node5&#45;&gt;Node6</title>
<path fill="none" stroke="midnightblue" d="M637.1,-21C645.63,-21 654.3,-21 662.92,-21"/>
<polygon fill="midnightblue" stroke="midnightblue" points="662.98,-24.5 672.98,-21 662.98,-17.5 662.98,-24.5"/>
</g>
</g>
</svg>
