<?xml version="1.0" encoding="UTF-8" standalone="no"?>
<!DOCTYPE svg PUBLIC "-//W3C//DTD SVG 1.1//EN"
 "http://www.w3.org/Graphics/SVG/1.1/DTD/svg11.dtd">
<!-- Generated by graphviz version 2.43.0 (0)
 -->
<!-- Title: QuantConnect.Data.UniverseSelection.FuturesChainUniverse.SelectSymbols Pages: 1 -->
<svg width="381pt" height="50pt"
 viewBox="0.00 0.00 381.00 50.00" xmlns="http://www.w3.org/2000/svg" xmlns:xlink="http://www.w3.org/1999/xlink">
<g id="graph0" class="graph" transform="scale(1 1) rotate(0) translate(4 46)">
<title>QuantConnect.Data.UniverseSelection.FuturesChainUniverse.SelectSymbols</title>
<polygon fill="white" stroke="transparent" points="-4,4 -4,-46 377,-46 377,4 -4,4"/>
<!-- Node1 -->
<g id="node1" class="node">
<title>Node1</title>
<g id="a_node1"><a xlink:title="Performs universe selection using the data specified">
<polygon fill="#bfbfbf" stroke="black" points="0,-0.5 0,-41.5 175,-41.5 175,-0.5 0,-0.5"/>
<text text-anchor="start" x="8" y="-29.5" font-family="Helvetica,sans-Serif" font-size="10.00">QuantConnect.Data.Universe</text>
<text text-anchor="start" x="8" y="-18.5" font-family="Helvetica,sans-Serif" font-size="10.00">Selection.FuturesChainUniverse.</text>
<text text-anchor="middle" x="87.5" y="-7.5" font-family="Helvetica,sans-Serif" font-size="10.00">SelectSymbols</text>
</a>
</g>
</g>
<!-- Node2 -->
<g id="node2" class="node">
<title>Node2</title>
<g id="a_node2"><a xlink:href="interfaceQuantConnect_1_1Securities_1_1IDerivativeSecurityFilter.html#a39b4a599c8649c8f549492cf131ef818" target="_top" xlink:title="Filters the input set of symbols represented by the universe">
<polygon fill="white" stroke="black" points="211,-6 211,-36 373,-36 373,-6 211,-6"/>
<text text-anchor="start" x="219" y="-24" font-family="Helvetica,sans-Serif" font-size="10.00">QuantConnect.Securities.</text>
<text text-anchor="middle" x="292" y="-13" font-family="Helvetica,sans-Serif" font-size="10.00">IDerivativeSecurityFilter.Filter</text>
</a>
</g>
</g>
<!-- Node1&#45;&gt;Node2 -->
<g id="edge1" class="edge">
<title>Node1&#45;&gt;Node2</title>
<path fill="none" stroke="midnightblue" d="M175.26,-21C183.65,-21 192.18,-21 200.61,-21"/>
<polygon fill="midnightblue" stroke="midnightblue" points="200.83,-24.5 210.83,-21 200.83,-17.5 200.83,-24.5"/>
</g>
</g>
</svg>
