<?xml version="1.0" encoding="UTF-8" standalone="no"?>
<!DOCTYPE svg PUBLIC "-//W3C//DTD SVG 1.1//EN"
 "http://www.w3.org/Graphics/SVG/1.1/DTD/svg11.dtd">
<!-- Generated by graphviz version 2.43.0 (0)
 -->
<!-- Title: QuantConnect.Securities.Option.StrategyMatcher.OptionStrategyDefinitionMatch.CreateStrategy Pages: 1 -->
<svg width="436pt" height="50pt"
 viewBox="0.00 0.00 436.00 50.00" xmlns="http://www.w3.org/2000/svg" xmlns:xlink="http://www.w3.org/1999/xlink">
<g id="graph0" class="graph" transform="scale(1 1) rotate(0) translate(4 46)">
<title>QuantConnect.Securities.Option.StrategyMatcher.OptionStrategyDefinitionMatch.CreateStrategy</title>
<polygon fill="white" stroke="transparent" points="-4,4 -4,-46 432,-46 432,4 -4,4"/>
<!-- Node1 -->
<g id="node1" class="node">
<title>Node1</title>
<g id="a_node1"><a xlink:title="Creates the OptionStrategy instance this match represents">
<polygon fill="#bfbfbf" stroke="black" points="0,-0.5 0,-41.5 212,-41.5 212,-0.5 0,-0.5"/>
<text text-anchor="start" x="8" y="-29.5" font-family="Helvetica,sans-Serif" font-size="10.00">QuantConnect.Securities.</text>
<text text-anchor="start" x="8" y="-18.5" font-family="Helvetica,sans-Serif" font-size="10.00">Option.StrategyMatcher.Option</text>
<text text-anchor="middle" x="106" y="-7.5" font-family="Helvetica,sans-Serif" font-size="10.00">StrategyDefinitionMatch.CreateStrategy</text>
</a>
</g>
</g>
<!-- Node2 -->
<g id="node2" class="node">
<title>Node2</title>
<g id="a_node2"><a xlink:href="classQuantConnect_1_1Securities_1_1Option_1_1OptionStrategy_1_1UnderlyingLegData.html#a188c3afec97e57249ebf2ddeeb43d029" target="_top" xlink:title="Creates a new instance of UnderlyingLegData for the specified quantity &#160;of underlying shares.">
<polygon fill="white" stroke="black" points="248,-0.5 248,-41.5 428,-41.5 428,-0.5 248,-0.5"/>
<text text-anchor="start" x="256" y="-29.5" font-family="Helvetica,sans-Serif" font-size="10.00">QuantConnect.Securities.</text>
<text text-anchor="start" x="256" y="-18.5" font-family="Helvetica,sans-Serif" font-size="10.00">Option.OptionStrategy.Underlying</text>
<text text-anchor="middle" x="338" y="-7.5" font-family="Helvetica,sans-Serif" font-size="10.00">LegData.Create</text>
</a>
</g>
</g>
<!-- Node1&#45;&gt;Node2 -->
<g id="edge1" class="edge">
<title>Node1&#45;&gt;Node2</title>
<path fill="none" stroke="midnightblue" d="M212.24,-21C220.73,-21 229.3,-21 237.75,-21"/>
<polygon fill="midnightblue" stroke="midnightblue" points="237.98,-24.5 247.98,-21 237.98,-17.5 237.98,-24.5"/>
</g>
</g>
</svg>
