<?xml version="1.0" encoding="UTF-8" standalone="no"?>
<!DOCTYPE svg PUBLIC "-//W3C//DTD SVG 1.1//EN"
 "http://www.w3.org/Graphics/SVG/1.1/DTD/svg11.dtd">
<!-- Generated by graphviz version 2.43.0 (0)
 -->
<!-- Title: QuantConnect.Securities.SecurityExchange.IsOpenDuringBar Pages: 1 -->
<svg width="879pt" height="382pt"
 viewBox="0.00 0.00 879.00 382.00" xmlns="http://www.w3.org/2000/svg" xmlns:xlink="http://www.w3.org/1999/xlink">
<g id="graph0" class="graph" transform="scale(1 1) rotate(0) translate(4 378)">
<title>QuantConnect.Securities.SecurityExchange.IsOpenDuringBar</title>
<polygon fill="white" stroke="transparent" points="-4,4 -4,-378 875,-378 875,4 -4,4"/>
<!-- Node1 -->
<g id="node1" class="node">
<title>Node1</title>
<g id="a_node1"><a xlink:title="Determines if the exchange was open at any time between start and stop">
<polygon fill="#bfbfbf" stroke="black" points="682,-171.5 682,-201.5 871,-201.5 871,-171.5 682,-171.5"/>
<text text-anchor="start" x="690" y="-189.5" font-family="Helvetica,sans-Serif" font-size="10.00">QuantConnect.Securities.</text>
<text text-anchor="middle" x="776.5" y="-178.5" font-family="Helvetica,sans-Serif" font-size="10.00">SecurityExchange.IsOpenDuringBar</text>
</a>
</g>
</g>
<!-- Node2 -->
<g id="node2" class="node">
<title>Node2</title>
<g id="a_node2"><a xlink:href="classQuantConnect_1_1Brokerages_1_1TradierBrokerageModel.html#a16fcd860e1d830e23658480625c26c2e" target="_top" xlink:title="Returns true if the brokerage would be able to execute this order at this time assuming market prices...">
<polygon fill="white" stroke="black" points="430,-281.5 430,-311.5 646,-311.5 646,-281.5 430,-281.5"/>
<text text-anchor="start" x="438" y="-299.5" font-family="Helvetica,sans-Serif" font-size="10.00">QuantConnect.Brokerages.</text>
<text text-anchor="middle" x="538" y="-288.5" font-family="Helvetica,sans-Serif" font-size="10.00">TradierBrokerageModel.CanExecuteOrder</text>
</a>
</g>
</g>
<!-- Node1&#45;&gt;Node2 -->
<g id="edge1" class="edge">
<title>Node1&#45;&gt;Node2</title>
<path fill="none" stroke="midnightblue" d="M733.95,-205.83C687.6,-227.38 613.62,-261.79 571.38,-281.44"/>
<polygon fill="midnightblue" stroke="midnightblue" points="735.52,-208.96 743.11,-201.56 732.57,-202.61 735.52,-208.96"/>
</g>
<!-- Node4 -->
<g id="node4" class="node">
<title>Node4</title>
<g id="a_node4"><a xlink:href="classQuantConnect_1_1Orders_1_1Fills_1_1EquityFillModel.html#a87e1b232f962b7fa7ad60e7d7b470837" target="_top" xlink:title="Determines if the exchange is open using the current time of the asset">
<polygon fill="white" stroke="black" points="450,-171.5 450,-201.5 626,-201.5 626,-171.5 450,-171.5"/>
<text text-anchor="start" x="458" y="-189.5" font-family="Helvetica,sans-Serif" font-size="10.00">QuantConnect.Orders.Fills.</text>
<text text-anchor="middle" x="538" y="-178.5" font-family="Helvetica,sans-Serif" font-size="10.00">EquityFillModel.IsExchangeOpen</text>
</a>
</g>
</g>
<!-- Node1&#45;&gt;Node4 -->
<g id="edge3" class="edge">
<title>Node1&#45;&gt;Node4</title>
<path fill="none" stroke="midnightblue" d="M671.31,-186.5C656.24,-186.5 640.85,-186.5 626.16,-186.5"/>
<polygon fill="midnightblue" stroke="midnightblue" points="671.69,-190 681.69,-186.5 671.69,-183 671.69,-190"/>
</g>
<!-- Node13 -->
<g id="node13" class="node">
<title>Node13</title>
<g id="a_node13"><a xlink:href="classQuantConnect_1_1Extensions.html#aff495d7dd569c4ed3f9a1e59ed429cef" target="_top" xlink:title="Helper method to determine if a specific market is open">
<polygon fill="white" stroke="black" points="465.5,-122.5 465.5,-152.5 610.5,-152.5 610.5,-122.5 465.5,-122.5"/>
<text text-anchor="start" x="473.5" y="-140.5" font-family="Helvetica,sans-Serif" font-size="10.00">QuantConnect.Extensions.</text>
<text text-anchor="middle" x="538" y="-129.5" font-family="Helvetica,sans-Serif" font-size="10.00">IsMarketOpen</text>
</a>
</g>
</g>
<!-- Node1&#45;&gt;Node13 -->
<g id="edge18" class="edge">
<title>Node1&#45;&gt;Node13</title>
<path fill="none" stroke="midnightblue" d="M692.81,-169.37C666.02,-163.82 636.54,-157.71 610.61,-152.34"/>
<polygon fill="midnightblue" stroke="midnightblue" points="692.43,-172.86 702.93,-171.47 693.85,-166.01 692.43,-172.86"/>
</g>
<!-- Node3 -->
<g id="node3" class="node">
<title>Node3</title>
<g id="a_node3"><a xlink:href="classQuantConnect_1_1Brokerages_1_1TradierBrokerageModel.html#a5cafb36dfeec2e93a72842cc12ee9ec3" target="_top" xlink:title="Returns true if the brokerage could accept this order. This takes into account order type,...">
<polygon fill="white" stroke="black" points="182,-343.5 182,-373.5 394,-373.5 394,-343.5 182,-343.5"/>
<text text-anchor="start" x="190" y="-361.5" font-family="Helvetica,sans-Serif" font-size="10.00">QuantConnect.Brokerages.</text>
<text text-anchor="middle" x="288" y="-350.5" font-family="Helvetica,sans-Serif" font-size="10.00">TradierBrokerageModel.CanSubmitOrder</text>
</a>
</g>
</g>
<!-- Node2&#45;&gt;Node3 -->
<g id="edge2" class="edge">
<title>Node2&#45;&gt;Node3</title>
<path fill="none" stroke="midnightblue" d="M472.22,-314.23C447.76,-320.79 419.64,-328.16 394,-334.5 381.84,-337.51 368.85,-340.58 356.3,-343.49"/>
<polygon fill="midnightblue" stroke="midnightblue" points="473.36,-317.54 482.11,-311.57 471.55,-310.79 473.36,-317.54"/>
</g>
<!-- Node5 -->
<g id="node5" class="node">
<title>Node5</title>
<g id="a_node5"><a xlink:href="classQuantConnect_1_1Orders_1_1Fills_1_1EquityFillModel.html#a653da20ed65bb7b4382d30cd396e9130" target="_top" xlink:title="Default limit order fill model in the base security class.">
<polygon fill="white" stroke="black" points="215,-294.5 215,-324.5 361,-324.5 361,-294.5 215,-294.5"/>
<text text-anchor="start" x="223" y="-312.5" font-family="Helvetica,sans-Serif" font-size="10.00">QuantConnect.Orders.Fills.</text>
<text text-anchor="middle" x="288" y="-301.5" font-family="Helvetica,sans-Serif" font-size="10.00">EquityFillModel.LimitFill</text>
</a>
</g>
</g>
<!-- Node4&#45;&gt;Node5 -->
<g id="edge4" class="edge">
<title>Node4&#45;&gt;Node5</title>
<path fill="none" stroke="midnightblue" d="M511.99,-208.29C484.77,-230.89 439.07,-265.63 394,-285.5 383.65,-290.06 372.32,-293.81 361.07,-296.87"/>
<polygon fill="midnightblue" stroke="midnightblue" points="514.43,-210.82 519.82,-201.7 509.92,-205.46 514.43,-210.82"/>
</g>
<!-- Node7 -->
<g id="node7" class="node">
<title>Node7</title>
<g id="a_node7"><a xlink:href="classQuantConnect_1_1Orders_1_1Fills_1_1EquityFillModel.html#ab7eea07dfbecf0356da3646d59a31507" target="_top" xlink:title="Default limit if touched fill model implementation in base class security.">
<polygon fill="white" stroke="black" points="198,-245.5 198,-275.5 378,-275.5 378,-245.5 198,-245.5"/>
<text text-anchor="start" x="206" y="-263.5" font-family="Helvetica,sans-Serif" font-size="10.00">QuantConnect.Orders.Fills.</text>
<text text-anchor="middle" x="288" y="-252.5" font-family="Helvetica,sans-Serif" font-size="10.00">EquityFillModel.LimitIfTouchedFill</text>
</a>
</g>
</g>
<!-- Node4&#45;&gt;Node7 -->
<g id="edge6" class="edge">
<title>Node4&#45;&gt;Node7</title>
<path fill="none" stroke="midnightblue" d="M487.89,-205.2C460.5,-215.24 425.62,-227.39 394,-236.5 383.04,-239.66 371.34,-242.67 359.88,-245.44"/>
<polygon fill="midnightblue" stroke="midnightblue" points="489.46,-208.35 497.62,-201.6 487.03,-201.78 489.46,-208.35"/>
</g>
<!-- Node8 -->
<g id="node8" class="node">
<title>Node8</title>
<g id="a_node8"><a xlink:href="classQuantConnect_1_1Orders_1_1Fills_1_1EquityFillModel.html#acf743632ccc6f9aea370c337c7bb0d19" target="_top" xlink:title="Default market fill model for the base security class. Fills at the last traded price.">
<polygon fill="white" stroke="black" points="215,-196.5 215,-226.5 361,-226.5 361,-196.5 215,-196.5"/>
<text text-anchor="start" x="223" y="-214.5" font-family="Helvetica,sans-Serif" font-size="10.00">QuantConnect.Orders.Fills.</text>
<text text-anchor="middle" x="288" y="-203.5" font-family="Helvetica,sans-Serif" font-size="10.00">EquityFillModel.MarketFill</text>
</a>
</g>
</g>
<!-- Node4&#45;&gt;Node8 -->
<g id="edge8" class="edge">
<title>Node4&#45;&gt;Node8</title>
<path fill="none" stroke="midnightblue" d="M439.94,-196.28C413.69,-198.93 385.74,-201.75 361.12,-204.23"/>
<polygon fill="midnightblue" stroke="midnightblue" points="440.31,-199.76 449.91,-195.28 439.61,-192.8 440.31,-199.76"/>
</g>
<!-- Node9 -->
<g id="node9" class="node">
<title>Node9</title>
<g id="a_node9"><a xlink:href="classQuantConnect_1_1Orders_1_1Fills_1_1EquityFillModel.html#a9b4ba32261f92a062f56a2ff094bee3e" target="_top" xlink:title="Market on Close Fill Model. Return an order event with the fill details">
<polygon fill="white" stroke="black" points="196.5,-147.5 196.5,-177.5 379.5,-177.5 379.5,-147.5 196.5,-147.5"/>
<text text-anchor="start" x="204.5" y="-165.5" font-family="Helvetica,sans-Serif" font-size="10.00">QuantConnect.Orders.Fills.</text>
<text text-anchor="middle" x="288" y="-154.5" font-family="Helvetica,sans-Serif" font-size="10.00">EquityFillModel.MarketOnCloseFill</text>
</a>
</g>
</g>
<!-- Node4&#45;&gt;Node9 -->
<g id="edge10" class="edge">
<title>Node4&#45;&gt;Node9</title>
<path fill="none" stroke="midnightblue" d="M439.95,-177.11C420.09,-175.19 399.28,-173.17 379.66,-171.27"/>
<polygon fill="midnightblue" stroke="midnightblue" points="439.62,-180.59 449.91,-178.07 440.3,-173.63 439.62,-180.59"/>
</g>
<!-- Node10 -->
<g id="node10" class="node">
<title>Node10</title>
<g id="a_node10"><a xlink:href="classQuantConnect_1_1Orders_1_1Fills_1_1EquityFillModel.html#a8a8e143f24a53d63d165cad1de30c677" target="_top" xlink:title="Market on Open Fill Model. Return an order event with the fill details">
<polygon fill="white" stroke="black" points="197,-98.5 197,-128.5 379,-128.5 379,-98.5 197,-98.5"/>
<text text-anchor="start" x="205" y="-116.5" font-family="Helvetica,sans-Serif" font-size="10.00">QuantConnect.Orders.Fills.</text>
<text text-anchor="middle" x="288" y="-105.5" font-family="Helvetica,sans-Serif" font-size="10.00">EquityFillModel.MarketOnOpenFill</text>
</a>
</g>
</g>
<!-- Node4&#45;&gt;Node10 -->
<g id="edge12" class="edge">
<title>Node4&#45;&gt;Node10</title>
<path fill="none" stroke="midnightblue" d="M445.47,-168.37C440.17,-166.58 434.98,-164.63 430,-162.5 412.32,-154.94 411.63,-146.18 394,-138.5 385.24,-134.68 375.8,-131.39 366.3,-128.58"/>
<polygon fill="midnightblue" stroke="midnightblue" points="444.5,-171.74 455.09,-171.42 446.61,-165.06 444.5,-171.74"/>
</g>
<!-- Node11 -->
<g id="node11" class="node">
<title>Node11</title>
<g id="a_node11"><a xlink:href="classQuantConnect_1_1Orders_1_1Fills_1_1EquityFillModel.html#a903b81a4df5a2a7466214bb23eedcab5" target="_top" xlink:title="Default stop limit fill model implementation in base class security. (Stop Limit Order Type)">
<polygon fill="white" stroke="black" points="210.5,-49.5 210.5,-79.5 365.5,-79.5 365.5,-49.5 210.5,-49.5"/>
<text text-anchor="start" x="218.5" y="-67.5" font-family="Helvetica,sans-Serif" font-size="10.00">QuantConnect.Orders.Fills.</text>
<text text-anchor="middle" x="288" y="-56.5" font-family="Helvetica,sans-Serif" font-size="10.00">EquityFillModel.StopLimitFill</text>
</a>
</g>
</g>
<!-- Node4&#45;&gt;Node11 -->
<g id="edge14" class="edge">
<title>Node4&#45;&gt;Node11</title>
<path fill="none" stroke="midnightblue" d="M440.74,-169.63C436.97,-167.52 433.37,-165.15 430,-162.5 401.57,-140.13 422.28,-112.05 394,-89.5 385.65,-82.84 375.81,-77.91 365.56,-74.26"/>
<polygon fill="midnightblue" stroke="midnightblue" points="439.29,-172.82 449.8,-174.13 442.4,-166.55 439.29,-172.82"/>
</g>
<!-- Node12 -->
<g id="node12" class="node">
<title>Node12</title>
<g id="a_node12"><a xlink:href="classQuantConnect_1_1Orders_1_1Fills_1_1EquityFillModel.html#a8732a050ce2be5d379d7894d82df3d4c" target="_top" xlink:title="Default stop fill model implementation in base class security. (Stop Market Order Type)">
<polygon fill="white" stroke="black" points="206,-0.5 206,-30.5 370,-30.5 370,-0.5 206,-0.5"/>
<text text-anchor="start" x="214" y="-18.5" font-family="Helvetica,sans-Serif" font-size="10.00">QuantConnect.Orders.Fills.</text>
<text text-anchor="middle" x="288" y="-7.5" font-family="Helvetica,sans-Serif" font-size="10.00">EquityFillModel.StopMarketFill</text>
</a>
</g>
</g>
<!-- Node4&#45;&gt;Node12 -->
<g id="edge16" class="edge">
<title>Node4&#45;&gt;Node12</title>
<path fill="none" stroke="midnightblue" d="M441,-170.87C437.07,-168.43 433.38,-165.66 430,-162.5 388.72,-123.87 435.02,-79.4 394,-40.5 387.13,-33.99 378.89,-29.07 370.08,-25.38"/>
<polygon fill="midnightblue" stroke="midnightblue" points="439.47,-174.02 449.93,-175.68 442.79,-167.86 439.47,-174.02"/>
</g>
<!-- Node6 -->
<g id="node6" class="node">
<title>Node6</title>
<g id="a_node6"><a xlink:href="classQuantConnect_1_1Orders_1_1Fills_1_1EquityFillModel.html#ab823627c1fff8cca155ab45b414d21f9" target="_top" xlink:title="Return an order event with the fill details">
<polygon fill="white" stroke="black" points="0,-147.5 0,-177.5 146,-177.5 146,-147.5 0,-147.5"/>
<text text-anchor="start" x="8" y="-165.5" font-family="Helvetica,sans-Serif" font-size="10.00">QuantConnect.Orders.Fills.</text>
<text text-anchor="middle" x="73" y="-154.5" font-family="Helvetica,sans-Serif" font-size="10.00">EquityFillModel.Fill</text>
</a>
</g>
</g>
<!-- Node5&#45;&gt;Node6 -->
<g id="edge5" class="edge">
<title>Node5&#45;&gt;Node6</title>
<path fill="none" stroke="midnightblue" d="M205.28,-296.23C197.13,-293.33 189.22,-289.8 182,-285.5 135.86,-258 98.98,-204.06 82.84,-177.71"/>
<polygon fill="midnightblue" stroke="midnightblue" points="204.33,-299.6 214.93,-299.35 206.49,-292.94 204.33,-299.6"/>
</g>
<!-- Node7&#45;&gt;Node6 -->
<g id="edge7" class="edge">
<title>Node7&#45;&gt;Node6</title>
<path fill="none" stroke="midnightblue" d="M196.76,-242.24C191.7,-240.49 186.75,-238.58 182,-236.5 147.23,-221.28 111.86,-194.42 91.48,-177.59"/>
<polygon fill="midnightblue" stroke="midnightblue" points="195.99,-245.67 206.58,-245.43 198.15,-239.01 195.99,-245.67"/>
</g>
<!-- Node8&#45;&gt;Node6 -->
<g id="edge9" class="edge">
<title>Node8&#45;&gt;Node6</title>
<path fill="none" stroke="midnightblue" d="M211.36,-194.24C201.48,-191.98 191.5,-189.69 182,-187.5 168.03,-184.29 153.04,-180.83 138.81,-177.53"/>
<polygon fill="midnightblue" stroke="midnightblue" points="210.65,-197.67 221.18,-196.48 212.21,-190.84 210.65,-197.67"/>
</g>
<!-- Node9&#45;&gt;Node6 -->
<g id="edge11" class="edge">
<title>Node9&#45;&gt;Node6</title>
<path fill="none" stroke="midnightblue" d="M186.1,-162.5C172.62,-162.5 159.03,-162.5 146.19,-162.5"/>
<polygon fill="midnightblue" stroke="midnightblue" points="186.36,-166 196.36,-162.5 186.36,-159 186.36,-166"/>
</g>
<!-- Node10&#45;&gt;Node6 -->
<g id="edge13" class="edge">
<title>Node10&#45;&gt;Node6</title>
<path fill="none" stroke="midnightblue" d="M211.66,-130.83C188.02,-136.27 162.12,-142.23 139.23,-147.49"/>
<polygon fill="midnightblue" stroke="midnightblue" points="212.68,-134.19 221.65,-128.53 211.12,-127.37 212.68,-134.19"/>
</g>
<!-- Node11&#45;&gt;Node6 -->
<g id="edge15" class="edge">
<title>Node11&#45;&gt;Node6</title>
<path fill="none" stroke="midnightblue" d="M200.29,-82.49C194.01,-84.6 187.85,-86.93 182,-89.5 147.61,-104.61 112.41,-130.82 91.91,-147.38"/>
<polygon fill="midnightblue" stroke="midnightblue" points="201.75,-85.7 210.23,-79.36 199.64,-79.02 201.75,-85.7"/>
</g>
<!-- Node12&#45;&gt;Node6 -->
<g id="edge17" class="edge">
<title>Node12&#45;&gt;Node6</title>
<path fill="none" stroke="midnightblue" d="M196.22,-33.24C191.28,-35.39 186.51,-37.8 182,-40.5 136.14,-67.99 99.13,-121.38 82.9,-147.45"/>
<polygon fill="midnightblue" stroke="midnightblue" points="197.87,-36.35 205.88,-29.42 195.29,-29.85 197.87,-36.35"/>
</g>
</g>
</svg>
