<?xml version="1.0" encoding="UTF-8" standalone="no"?>
<!DOCTYPE svg PUBLIC "-//W3C//DTD SVG 1.1//EN"
 "http://www.w3.org/Graphics/SVG/1.1/DTD/svg11.dtd">
<!-- Generated by graphviz version 2.43.0 (0)
 -->
<!-- Title: QuantConnect.Algorithm.QCAlgorithm.Plot Pages: 1 -->
<svg width="473pt" height="88pt"
 viewBox="0.00 0.00 473.00 88.00" xmlns="http://www.w3.org/2000/svg" xmlns:xlink="http://www.w3.org/1999/xlink">
<g id="graph0" class="graph" transform="scale(1 1) rotate(0) translate(4 84)">
<title>QuantConnect.Algorithm.QCAlgorithm.Plot</title>
<polygon fill="white" stroke="transparent" points="-4,4 -4,-84 469,-84 469,4 -4,4"/>
<!-- Node1 -->
<g id="node1" class="node">
<title>Node1</title>
<g id="a_node1"><a xlink:title="Plot a value to a chart of string&#45;chart name, with string series name, and decimal value....">
<polygon fill="#bfbfbf" stroke="black" points="0,-30 0,-49 224,-49 224,-30 0,-30"/>
<text text-anchor="middle" x="112" y="-37" font-family="Helvetica,sans-Serif" font-size="10.00">QuantConnect.Algorithm.QCAlgorithm.Plot</text>
</a>
</g>
</g>
<!-- Node2 -->
<g id="node2" class="node">
<title>Node2</title>
<g id="a_node2"><a xlink:href="classQuantConnect_1_1Algorithm_1_1QCAlgorithm.html#a16bd52d937ab647c889e8d5f6577f744" target="_top" xlink:title="Send a debug message to the web console:">
<polygon fill="white" stroke="black" points="260,-49.5 260,-79.5 465,-79.5 465,-49.5 260,-49.5"/>
<text text-anchor="start" x="268" y="-67.5" font-family="Helvetica,sans-Serif" font-size="10.00">QuantConnect.Algorithm.QCAlgorithm.</text>
<text text-anchor="middle" x="362.5" y="-56.5" font-family="Helvetica,sans-Serif" font-size="10.00">Debug</text>
</a>
</g>
</g>
<!-- Node1&#45;&gt;Node2 -->
<g id="edge1" class="edge">
<title>Node1&#45;&gt;Node2</title>
<path fill="none" stroke="midnightblue" d="M207.66,-49.02C221.34,-50.4 235.54,-51.83 249.52,-53.23"/>
<polygon fill="midnightblue" stroke="midnightblue" points="249.36,-56.74 259.66,-54.25 250.06,-49.77 249.36,-56.74"/>
</g>
<!-- Node3 -->
<g id="node3" class="node">
<title>Node3</title>
<g id="a_node3"><a xlink:href="classQuantConnect_1_1Algorithm_1_1QCAlgorithm.html#a7bdcfe7bf87e4688620dfc0cbac212aa" target="_top" xlink:title="Send a string error message to the Console.">
<polygon fill="white" stroke="black" points="260,-0.5 260,-30.5 465,-30.5 465,-0.5 260,-0.5"/>
<text text-anchor="start" x="268" y="-18.5" font-family="Helvetica,sans-Serif" font-size="10.00">QuantConnect.Algorithm.QCAlgorithm.</text>
<text text-anchor="middle" x="362.5" y="-7.5" font-family="Helvetica,sans-Serif" font-size="10.00">Error</text>
</a>
</g>
</g>
<!-- Node1&#45;&gt;Node3 -->
<g id="edge2" class="edge">
<title>Node1&#45;&gt;Node3</title>
<path fill="none" stroke="midnightblue" d="M211.57,-29.98C224.08,-28.77 236.95,-27.53 249.65,-26.3"/>
<polygon fill="midnightblue" stroke="midnightblue" points="250.17,-29.77 259.79,-25.32 249.5,-22.8 250.17,-29.77"/>
</g>
</g>
</svg>
