<?xml version="1.0" encoding="UTF-8" standalone="no"?>
<!DOCTYPE svg PUBLIC "-//W3C//DTD SVG 1.1//EN"
 "http://www.w3.org/Graphics/SVG/1.1/DTD/svg11.dtd">
<!-- Generated by graphviz version 2.43.0 (0)
 -->
<!-- Title: QuantConnect.Indicators.CandlestickPatterns.MatHold.ComputeNextValue Pages: 1 -->
<svg width="833pt" height="337pt"
 viewBox="0.00 0.00 833.00 336.50" xmlns="http://www.w3.org/2000/svg" xmlns:xlink="http://www.w3.org/1999/xlink">
<g id="graph0" class="graph" transform="scale(1 1) rotate(0) translate(4 332.5)">
<title>QuantConnect.Indicators.CandlestickPatterns.MatHold.ComputeNextValue</title>
<polygon fill="white" stroke="transparent" points="-4,4 -4,-332.5 829,-332.5 829,4 -4,4"/>
<!-- Node1 -->
<g id="node1" class="node">
<title>Node1</title>
<g id="a_node1"><a xlink:title="Computes the next value of this indicator from the given state">
<polygon fill="#bfbfbf" stroke="black" points="0,-109.5 0,-150.5 161,-150.5 161,-109.5 0,-109.5"/>
<text text-anchor="start" x="8" y="-138.5" font-family="Helvetica,sans-Serif" font-size="10.00">QuantConnect.Indicators.</text>
<text text-anchor="start" x="8" y="-127.5" font-family="Helvetica,sans-Serif" font-size="10.00">CandlestickPatterns.MatHold.</text>
<text text-anchor="middle" x="80.5" y="-116.5" font-family="Helvetica,sans-Serif" font-size="10.00">ComputeNextValue</text>
</a>
</g>
</g>
<!-- Node2 -->
<g id="node2" class="node">
<title>Node2</title>
<g id="a_node2"><a xlink:href="classQuantConnect_1_1Indicators_1_1CandlestickPatterns_1_1CandlestickPattern.html#abfef9cee8cff1859d77bb2c54ded7322" target="_top" xlink:title="Returns the average range of the previous candles">
<polygon fill="white" stroke="black" points="197,-196.5 197,-237.5 370,-237.5 370,-196.5 197,-196.5"/>
<text text-anchor="start" x="205" y="-225.5" font-family="Helvetica,sans-Serif" font-size="10.00">QuantConnect.Indicators.</text>
<text text-anchor="start" x="205" y="-214.5" font-family="Helvetica,sans-Serif" font-size="10.00">CandlestickPatterns.Candlestick</text>
<text text-anchor="middle" x="283.5" y="-203.5" font-family="Helvetica,sans-Serif" font-size="10.00">Pattern.GetCandleAverage</text>
</a>
</g>
</g>
<!-- Node1&#45;&gt;Node2 -->
<g id="edge1" class="edge">
<title>Node1&#45;&gt;Node2</title>
<path fill="none" stroke="midnightblue" d="M126.32,-150.61C147.65,-160.31 173.56,-171.93 197,-182 205.03,-185.45 213.52,-189.02 221.9,-192.5"/>
<polygon fill="midnightblue" stroke="midnightblue" points="220.71,-195.79 231.29,-196.37 223.38,-189.32 220.71,-195.79"/>
</g>
<!-- Node4 -->
<g id="node4" class="node">
<title>Node4</title>
<g id="a_node4"><a xlink:href="classQuantConnect_1_1Indicators_1_1CandlestickPatterns_1_1CandlestickPattern.html#a05b2e39af6efdc4ef734663b1c31d61e" target="_top" xlink:title="Returns the range of a candle">
<polygon fill="white" stroke="black" points="406,-177.5 406,-218.5 579,-218.5 579,-177.5 406,-177.5"/>
<text text-anchor="start" x="414" y="-206.5" font-family="Helvetica,sans-Serif" font-size="10.00">QuantConnect.Indicators.</text>
<text text-anchor="start" x="414" y="-195.5" font-family="Helvetica,sans-Serif" font-size="10.00">CandlestickPatterns.Candlestick</text>
<text text-anchor="middle" x="492.5" y="-184.5" font-family="Helvetica,sans-Serif" font-size="10.00">Pattern.GetCandleRange</text>
</a>
</g>
</g>
<!-- Node1&#45;&gt;Node4 -->
<g id="edge10" class="edge">
<title>Node1&#45;&gt;Node4</title>
<path fill="none" stroke="midnightblue" d="M161.04,-143.19C228.21,-154.33 324.57,-170.31 395.92,-182.15"/>
<polygon fill="midnightblue" stroke="midnightblue" points="395.38,-185.61 405.82,-183.79 396.53,-178.7 395.38,-185.61"/>
</g>
<!-- Node7 -->
<g id="node7" class="node">
<title>Node7</title>
<g id="a_node7"><a xlink:href="classQuantConnect_1_1Indicators_1_1CandlestickPatterns_1_1CandlestickPattern.html#a47cb6b45c58d94689f6233487e981d10" target="_top" xlink:title="Returns the distance between the close and the open of a candle">
<polygon fill="white" stroke="black" points="633.5,-57.5 633.5,-98.5 806.5,-98.5 806.5,-57.5 633.5,-57.5"/>
<text text-anchor="start" x="641.5" y="-86.5" font-family="Helvetica,sans-Serif" font-size="10.00">QuantConnect.Indicators.</text>
<text text-anchor="start" x="641.5" y="-75.5" font-family="Helvetica,sans-Serif" font-size="10.00">CandlestickPatterns.Candlestick</text>
<text text-anchor="middle" x="720" y="-64.5" font-family="Helvetica,sans-Serif" font-size="10.00">Pattern.GetRealBody</text>
</a>
</g>
</g>
<!-- Node1&#45;&gt;Node7 -->
<g id="edge11" class="edge">
<title>Node1&#45;&gt;Node7</title>
<path fill="none" stroke="midnightblue" d="M161.14,-125.37C219.1,-121.85 299.45,-116.66 370,-111 455.72,-104.13 553.14,-94.79 623.23,-87.8"/>
<polygon fill="midnightblue" stroke="midnightblue" points="623.76,-91.26 633.36,-86.78 623.06,-84.3 623.76,-91.26"/>
</g>
<!-- Node9 -->
<g id="node9" class="node">
<title>Node9</title>
<g id="a_node9"><a xlink:href="classQuantConnect_1_1Indicators_1_1CandlestickPatterns_1_1CandlestickPattern.html#a4ffcf1c3b910415989e6d399b917f499" target="_top" xlink:title="Returns the candle color of a candle">
<polygon fill="white" stroke="black" points="197,-60.5 197,-101.5 370,-101.5 370,-60.5 197,-60.5"/>
<text text-anchor="start" x="205" y="-89.5" font-family="Helvetica,sans-Serif" font-size="10.00">QuantConnect.Indicators.</text>
<text text-anchor="start" x="205" y="-78.5" font-family="Helvetica,sans-Serif" font-size="10.00">CandlestickPatterns.Candlestick</text>
<text text-anchor="middle" x="283.5" y="-67.5" font-family="Helvetica,sans-Serif" font-size="10.00">Pattern.GetCandleColor</text>
</a>
</g>
</g>
<!-- Node1&#45;&gt;Node9 -->
<g id="edge9" class="edge">
<title>Node1&#45;&gt;Node9</title>
<path fill="none" stroke="midnightblue" d="M161.23,-110.56C170.16,-108.39 179.33,-106.15 188.42,-103.93"/>
<polygon fill="midnightblue" stroke="midnightblue" points="189.36,-107.31 198.25,-101.54 187.7,-100.51 189.36,-107.31"/>
</g>
<!-- Node10 -->
<g id="node10" class="node">
<title>Node10</title>
<g id="a_node10"><a xlink:href="classQuantConnect_1_1Indicators_1_1CandlestickPatterns_1_1CandlestickPattern.html#ab847cbc489177a641b6039eab2ff21b3" target="_top" xlink:title="Returns true if the candle is higher than the previous one (with no body overlap)">
<polygon fill="white" stroke="black" points="197,-0.5 197,-41.5 370,-41.5 370,-0.5 197,-0.5"/>
<text text-anchor="start" x="205" y="-29.5" font-family="Helvetica,sans-Serif" font-size="10.00">QuantConnect.Indicators.</text>
<text text-anchor="start" x="205" y="-18.5" font-family="Helvetica,sans-Serif" font-size="10.00">CandlestickPatterns.Candlestick</text>
<text text-anchor="middle" x="283.5" y="-7.5" font-family="Helvetica,sans-Serif" font-size="10.00">Pattern.GetRealBodyGapUp</text>
</a>
</g>
</g>
<!-- Node1&#45;&gt;Node10 -->
<g id="edge12" class="edge">
<title>Node1&#45;&gt;Node10</title>
<path fill="none" stroke="midnightblue" d="M107.33,-109.39C129.97,-92.08 164.27,-67.57 197,-51 200.71,-49.12 204.57,-47.31 208.5,-45.57"/>
<polygon fill="midnightblue" stroke="midnightblue" points="209.92,-48.77 217.78,-41.66 207.2,-42.32 209.92,-48.77"/>
</g>
<!-- Node3 -->
<g id="node3" class="node">
<title>Node3</title>
<g id="a_node3"><a xlink:href="classQuantConnect_1_1Indicators_1_1CandlestickPatterns_1_1CandleSettings.html#a1e65d2caf61e018e94574519fee75620" target="_top" xlink:title="Returns the candle setting for the requested type">
<polygon fill="white" stroke="black" points="615,-298 615,-328 825,-328 825,-298 615,-298"/>
<text text-anchor="start" x="623" y="-316" font-family="Helvetica,sans-Serif" font-size="10.00">QuantConnect.Indicators.</text>
<text text-anchor="middle" x="720" y="-305" font-family="Helvetica,sans-Serif" font-size="10.00">CandlestickPatterns.CandleSettings.Get</text>
</a>
</g>
</g>
<!-- Node2&#45;&gt;Node3 -->
<g id="edge2" class="edge">
<title>Node2&#45;&gt;Node3</title>
<path fill="none" stroke="midnightblue" d="M370.08,-235.91C448.87,-253.32 564.76,-278.92 641.04,-295.78"/>
<polygon fill="midnightblue" stroke="midnightblue" points="640.55,-299.25 651.07,-297.99 642.06,-292.42 640.55,-299.25"/>
</g>
<!-- Node2&#45;&gt;Node4 -->
<g id="edge3" class="edge">
<title>Node2&#45;&gt;Node4</title>
<path fill="none" stroke="midnightblue" d="M370.19,-209.13C378.66,-208.36 387.3,-207.56 395.87,-206.78"/>
<polygon fill="midnightblue" stroke="midnightblue" points="396.24,-210.26 405.88,-205.86 395.6,-203.29 396.24,-210.26"/>
</g>
<!-- Node4&#45;&gt;Node3 -->
<g id="edge4" class="edge">
<title>Node4&#45;&gt;Node3</title>
<path fill="none" stroke="midnightblue" d="M518.84,-218.66C548.11,-242.19 594.84,-278.59 615,-288 620.28,-290.47 625.83,-292.7 631.51,-294.73"/>
<polygon fill="midnightblue" stroke="midnightblue" points="630.55,-298.1 641.14,-297.95 632.77,-291.46 630.55,-298.1"/>
</g>
<!-- Node5 -->
<g id="node5" class="node">
<title>Node5</title>
<g id="a_node5"><a xlink:href="classQuantConnect_1_1Indicators_1_1CandlestickPatterns_1_1CandlestickPattern.html#ae61e2032511d5338a48f8d5b8be906b7" target="_top" xlink:title="Returns the full range of the candle">
<polygon fill="white" stroke="black" points="633.5,-237.5 633.5,-278.5 806.5,-278.5 806.5,-237.5 633.5,-237.5"/>
<text text-anchor="start" x="641.5" y="-266.5" font-family="Helvetica,sans-Serif" font-size="10.00">QuantConnect.Indicators.</text>
<text text-anchor="start" x="641.5" y="-255.5" font-family="Helvetica,sans-Serif" font-size="10.00">CandlestickPatterns.Candlestick</text>
<text text-anchor="middle" x="720" y="-244.5" font-family="Helvetica,sans-Serif" font-size="10.00">Pattern.GetHighLowRange</text>
</a>
</g>
</g>
<!-- Node4&#45;&gt;Node5 -->
<g id="edge5" class="edge">
<title>Node4&#45;&gt;Node5</title>
<path fill="none" stroke="midnightblue" d="M570.79,-218.56C590.51,-223.81 611.84,-229.49 632.02,-234.86"/>
<polygon fill="midnightblue" stroke="midnightblue" points="631.25,-238.27 641.81,-237.46 633.05,-231.51 631.25,-238.27"/>
</g>
<!-- Node6 -->
<g id="node6" class="node">
<title>Node6</title>
<g id="a_node6"><a xlink:href="classQuantConnect_1_1Indicators_1_1CandlestickPatterns_1_1CandlestickPattern.html#ae57bf84c9247ead2c32aab56c2e4ecac" target="_top" xlink:title="Returns the range of the candle&#39;s lower shadow">
<polygon fill="white" stroke="black" points="633.5,-177.5 633.5,-218.5 806.5,-218.5 806.5,-177.5 633.5,-177.5"/>
<text text-anchor="start" x="641.5" y="-206.5" font-family="Helvetica,sans-Serif" font-size="10.00">QuantConnect.Indicators.</text>
<text text-anchor="start" x="641.5" y="-195.5" font-family="Helvetica,sans-Serif" font-size="10.00">CandlestickPatterns.Candlestick</text>
<text text-anchor="middle" x="720" y="-184.5" font-family="Helvetica,sans-Serif" font-size="10.00">Pattern.GetLowerShadow</text>
</a>
</g>
</g>
<!-- Node4&#45;&gt;Node6 -->
<g id="edge6" class="edge">
<title>Node4&#45;&gt;Node6</title>
<path fill="none" stroke="midnightblue" d="M579.07,-198C593.55,-198 608.66,-198 623.38,-198"/>
<polygon fill="midnightblue" stroke="midnightblue" points="623.49,-201.5 633.49,-198 623.48,-194.5 623.49,-201.5"/>
</g>
<!-- Node4&#45;&gt;Node7 -->
<g id="edge7" class="edge">
<title>Node4&#45;&gt;Node7</title>
<path fill="none" stroke="midnightblue" d="M530.07,-177.36C545.68,-167.94 563.78,-156.17 579,-144 596.67,-129.87 595.51,-119.5 615,-108 618.18,-106.12 621.49,-104.36 624.88,-102.7"/>
<polygon fill="midnightblue" stroke="midnightblue" points="626.37,-105.86 634.04,-98.54 623.48,-99.49 626.37,-105.86"/>
</g>
<!-- Node8 -->
<g id="node8" class="node">
<title>Node8</title>
<g id="a_node8"><a xlink:href="classQuantConnect_1_1Indicators_1_1CandlestickPatterns_1_1CandlestickPattern.html#ab499aa69437c2a6e83b2f1c05421c203" target="_top" xlink:title="Returns the range of the candle&#39;s upper shadow">
<polygon fill="white" stroke="black" points="633.5,-117.5 633.5,-158.5 806.5,-158.5 806.5,-117.5 633.5,-117.5"/>
<text text-anchor="start" x="641.5" y="-146.5" font-family="Helvetica,sans-Serif" font-size="10.00">QuantConnect.Indicators.</text>
<text text-anchor="start" x="641.5" y="-135.5" font-family="Helvetica,sans-Serif" font-size="10.00">CandlestickPatterns.Candlestick</text>
<text text-anchor="middle" x="720" y="-124.5" font-family="Helvetica,sans-Serif" font-size="10.00">Pattern.GetUpperShadow</text>
</a>
</g>
</g>
<!-- Node4&#45;&gt;Node8 -->
<g id="edge8" class="edge">
<title>Node4&#45;&gt;Node8</title>
<path fill="none" stroke="midnightblue" d="M570.79,-177.44C590.51,-172.19 611.84,-166.51 632.02,-161.14"/>
<polygon fill="midnightblue" stroke="midnightblue" points="633.05,-164.49 641.81,-158.54 631.25,-157.73 633.05,-164.49"/>
</g>
</g>
</svg>
