<?xml version="1.0" encoding="UTF-8" standalone="no"?>
<!DOCTYPE svg PUBLIC "-//W3C//DTD SVG 1.1//EN"
 "http://www.w3.org/Graphics/SVG/1.1/DTD/svg11.dtd">
<!-- Generated by graphviz version 2.43.0 (0)
 -->
<!-- Title: QuantConnect.Report.ReportElements.ReportElement Pages: 1 -->
<!--zoomable 894 -->
<svg id="main" version="1.1" xmlns="http://www.w3.org/2000/svg" xmlns:xlink="http://www.w3.org/1999/xlink" xml:space="preserve" onload="init(evt)">
<style type="text/css"><![CDATA[
.edge:hover path { stroke: red; }
.edge:hover polygon { stroke: red; fill: red; }
]]></style>
<script type="text/javascript"><![CDATA[
var edges = document.getElementsByTagName('g');
if (edges && edges.length) {
  for (var i=0;i<edges.length;i++) {
    if (edges[i].id.substr(0,4)=='edge') {
      edges[i].setAttribute('class','edge');
    }
  }
}
]]></script>
        <defs>
                <circle id="rim" cx="0" cy="0" r="7"/>
                <circle id="rim2" cx="0" cy="0" r="3.5"/>
                <g id="zoomPlus">
                        <use xlink:href="#rim" fill="#404040">
                                <set attributeName="fill" to="#808080" begin="zoomplus.mouseover" end="zoomplus.mouseout"/>
                        </use>
                        <path d="M-4,0h8M0,-4v8" fill="none" stroke="white" stroke-width="1.5" pointer-events="none"/>
                </g>
                <g id="zoomMin">
                        <use xlink:href="#rim" fill="#404040">
                                <set attributeName="fill" to="#808080" begin="zoomminus.mouseover" end="zoomminus.mouseout"/>
                        </use>
                        <path d="M-4,0h8" fill="none" stroke="white" stroke-width="1.5" pointer-events="none"/>
                </g>
                <g id="dirArrow">
                        <path fill="none" stroke="white" stroke-width="1.5" d="M0,-3.0v7 M-2.5,-0.5L0,-3.0L2.5,-0.5"/>
                </g>
               <g id="resetDef">
                       <use xlink:href="#rim2" fill="#404040">
                               <set attributeName="fill" to="#808080" begin="reset.mouseover" end="reset.mouseout"/>
                       </use>
               </g>
        </defs>

<script type="text/javascript">
var viewWidth = 790;
var viewHeight = 894;
var sectionId = 'dynsection-0';
</script>
<script xlink:href="svgpan.js"/>
<svg id="graph" class="graph">
<g id="viewport">
<title>QuantConnect.Report.ReportElements.ReportElement</title>
<polygon fill="white" stroke="transparent" points="-4,4 -4,-890 786,-890 786,4 -4,4"/>
<!-- Node1 -->
<g id="node1" class="node">
<title>Node1</title>
<g id="a_node1"><a xlink:title="Common interface for template elements of the report">
<polygon fill="#bfbfbf" stroke="black" points="128,-294.5 128,-324.5 284,-324.5 284,-294.5 128,-294.5"/>
<text text-anchor="start" x="136" y="-312.5" font-family="Helvetica,sans-Serif" font-size="10.00">QuantConnect.Report.Report</text>
<text text-anchor="middle" x="206" y="-301.5" font-family="Helvetica,sans-Serif" font-size="10.00">Elements.ReportElement</text>
</a>
</g>
</g>
<!-- Node3 -->
<g id="node3" class="node">
<title>Node3</title>
<g id="a_node3"><a xlink:title=" ">
<polygon fill="white" stroke="#bfbfbf" points="342.5,-611.5 342.5,-641.5 508.5,-641.5 508.5,-611.5 342.5,-611.5"/>
<text text-anchor="start" x="350.5" y="-629.5" font-family="Helvetica,sans-Serif" font-size="10.00">QuantConnect.Report.Report</text>
<text text-anchor="middle" x="425.5" y="-618.5" font-family="Helvetica,sans-Serif" font-size="10.00">Elements.CAGRReportElement</text>
</a>
</g>
</g>
<!-- Node1&#45;&gt;Node3 -->
<g id="edge2" class="edge">
<title>Node1&#45;&gt;Node3</title>
<path fill="none" stroke="midnightblue" d="M209.01,-335.04C214.95,-392.2 237.55,-531.02 320,-602.5 326.61,-608.23 334.32,-612.67 342.49,-616.09"/>
<polygon fill="midnightblue" stroke="midnightblue" points="212.47,-334.37 208.04,-324.74 205.5,-335.03 212.47,-334.37"/>
</g>
<!-- Node4 -->
<g id="node4" class="node">
<title>Node4</title>
<g id="a_node4"><a xlink:title=" ">
<polygon fill="white" stroke="#bfbfbf" points="343.5,-562.5 343.5,-592.5 507.5,-592.5 507.5,-562.5 343.5,-562.5"/>
<text text-anchor="start" x="351.5" y="-580.5" font-family="Helvetica,sans-Serif" font-size="10.00">QuantConnect.Report.Report</text>
<text text-anchor="middle" x="425.5" y="-569.5" font-family="Helvetica,sans-Serif" font-size="10.00">Elements.ChartReportElement</text>
</a>
</g>
</g>
<!-- Node1&#45;&gt;Node4 -->
<g id="edge3" class="edge">
<title>Node1&#45;&gt;Node4</title>
<path fill="none" stroke="midnightblue" d="M211.2,-334.4C220.9,-383.94 249.69,-495.04 320,-552.5 326.93,-558.17 334.94,-562.59 343.37,-566.03"/>
<polygon fill="midnightblue" stroke="midnightblue" points="214.63,-333.72 209.36,-324.53 207.75,-335.01 214.63,-333.72"/>
</g>
<!-- Node17 -->
<g id="node17" class="node">
<title>Node17</title>
<g id="a_node17"><a xlink:href="classQuantConnect_1_1Report_1_1ReportElements_1_1EstimatedCapacityReportElement.html" target="_top" xlink:title="Capacity Estimation Report Element">
<polygon fill="white" stroke="black" points="330.5,-502 330.5,-543 520.5,-543 520.5,-502 330.5,-502"/>
<text text-anchor="start" x="338.5" y="-531" font-family="Helvetica,sans-Serif" font-size="10.00">QuantConnect.Report.Report</text>
<text text-anchor="start" x="338.5" y="-520" font-family="Helvetica,sans-Serif" font-size="10.00">Elements.EstimatedCapacityReport</text>
<text text-anchor="middle" x="425.5" y="-509" font-family="Helvetica,sans-Serif" font-size="10.00">Element</text>
</a>
</g>
</g>
<!-- Node1&#45;&gt;Node17 -->
<g id="edge16" class="edge">
<title>Node1&#45;&gt;Node17</title>
<path fill="none" stroke="midnightblue" d="M215.56,-334.31C230.46,-373.81 264.96,-450.78 320,-492.5 324.66,-496.03 329.73,-499.15 335.03,-501.9"/>
<polygon fill="midnightblue" stroke="midnightblue" points="218.75,-332.86 212.03,-324.67 212.18,-335.26 218.75,-332.86"/>
</g>
<!-- Node18 -->
<g id="node18" class="node">
<title>Node18</title>
<g id="a_node18"><a xlink:title=" ">
<polygon fill="white" stroke="#bfbfbf" points="335.5,-442 335.5,-483 515.5,-483 515.5,-442 335.5,-442"/>
<text text-anchor="start" x="343.5" y="-471" font-family="Helvetica,sans-Serif" font-size="10.00">QuantConnect.Report.Report</text>
<text text-anchor="start" x="343.5" y="-460" font-family="Helvetica,sans-Serif" font-size="10.00">Elements.InformationRatioReport</text>
<text text-anchor="middle" x="425.5" y="-449" font-family="Helvetica,sans-Serif" font-size="10.00">Element</text>
</a>
</g>
</g>
<!-- Node1&#45;&gt;Node18 -->
<g id="edge17" class="edge">
<title>Node1&#45;&gt;Node18</title>
<path fill="none" stroke="midnightblue" d="M222.62,-333.22C242.15,-361.04 278.16,-406.63 320,-432.5 325.7,-436.02 331.83,-439.15 338.16,-441.91"/>
<polygon fill="midnightblue" stroke="midnightblue" points="225.42,-331.11 216.87,-324.86 219.65,-335.08 225.42,-331.11"/>
</g>
<!-- Node19 -->
<g id="node19" class="node">
<title>Node19</title>
<g id="a_node19"><a xlink:title=" ">
<polygon fill="white" stroke="#bfbfbf" points="337,-392.5 337,-422.5 514,-422.5 514,-392.5 337,-392.5"/>
<text text-anchor="start" x="345" y="-410.5" font-family="Helvetica,sans-Serif" font-size="10.00">QuantConnect.Report.Report</text>
<text text-anchor="middle" x="425.5" y="-399.5" font-family="Helvetica,sans-Serif" font-size="10.00">Elements.MarketsReportElement</text>
</a>
</g>
</g>
<!-- Node1&#45;&gt;Node19 -->
<g id="edge18" class="edge">
<title>Node1&#45;&gt;Node19</title>
<path fill="none" stroke="midnightblue" d="M233.57,-330.83C255.54,-347.46 288.19,-369.95 320,-383.5 328.05,-386.93 336.66,-389.91 345.37,-392.49"/>
<polygon fill="midnightblue" stroke="midnightblue" points="235.47,-327.87 225.41,-324.55 231.2,-333.42 235.47,-327.87"/>
</g>
<!-- Node20 -->
<g id="node20" class="node">
<title>Node20</title>
<g id="a_node20"><a xlink:title=" ">
<polygon fill="white" stroke="#bfbfbf" points="320,-343.5 320,-373.5 531,-373.5 531,-343.5 320,-343.5"/>
<text text-anchor="start" x="328" y="-361.5" font-family="Helvetica,sans-Serif" font-size="10.00">QuantConnect.Report.Report</text>
<text text-anchor="middle" x="425.5" y="-350.5" font-family="Helvetica,sans-Serif" font-size="10.00">Elements.MaxDrawdownReportElement</text>
</a>
</g>
</g>
<!-- Node1&#45;&gt;Node20 -->
<g id="edge19" class="edge">
<title>Node1&#45;&gt;Node20</title>
<path fill="none" stroke="midnightblue" d="M283.6,-326.76C307.84,-332.22 334.42,-338.21 357.89,-343.49"/>
<polygon fill="midnightblue" stroke="midnightblue" points="284.26,-323.32 273.74,-324.53 282.72,-330.15 284.26,-323.32"/>
</g>
<!-- Node21 -->
<g id="node21" class="node">
<title>Node21</title>
<g id="a_node21"><a xlink:href="classQuantConnect_1_1Report_1_1ReportElements_1_1ParametersReportElement.html" target="_top" xlink:title=" ">
<polygon fill="white" stroke="black" points="328.5,-294.5 328.5,-324.5 522.5,-324.5 522.5,-294.5 328.5,-294.5"/>
<text text-anchor="start" x="336.5" y="-312.5" font-family="Helvetica,sans-Serif" font-size="10.00">QuantConnect.Report.Report</text>
<text text-anchor="middle" x="425.5" y="-301.5" font-family="Helvetica,sans-Serif" font-size="10.00">Elements.ParametersReportElement</text>
</a>
</g>
</g>
<!-- Node1&#45;&gt;Node21 -->
<g id="edge20" class="edge">
<title>Node1&#45;&gt;Node21</title>
<path fill="none" stroke="midnightblue" d="M294.46,-309.5C305.63,-309.5 317.12,-309.5 328.42,-309.5"/>
<polygon fill="midnightblue" stroke="midnightblue" points="294.29,-306 284.29,-309.5 294.29,-313 294.29,-306"/>
</g>
<!-- Node22 -->
<g id="node22" class="node">
<title>Node22</title>
<g id="a_node22"><a xlink:title=" ">
<polygon fill="white" stroke="#bfbfbf" points="347,-245.5 347,-275.5 504,-275.5 504,-245.5 347,-245.5"/>
<text text-anchor="start" x="355" y="-263.5" font-family="Helvetica,sans-Serif" font-size="10.00">QuantConnect.Report.Report</text>
<text text-anchor="middle" x="425.5" y="-252.5" font-family="Helvetica,sans-Serif" font-size="10.00">Elements.PSRReportElement</text>
</a>
</g>
</g>
<!-- Node1&#45;&gt;Node22 -->
<g id="edge21" class="edge">
<title>Node1&#45;&gt;Node22</title>
<path fill="none" stroke="midnightblue" d="M283.6,-292.24C307.84,-286.78 334.42,-280.79 357.89,-275.51"/>
<polygon fill="midnightblue" stroke="midnightblue" points="282.72,-288.85 273.74,-294.47 284.26,-295.68 282.72,-288.85"/>
</g>
<!-- Node23 -->
<g id="node23" class="node">
<title>Node23</title>
<g id="a_node23"><a xlink:title=" ">
<polygon fill="white" stroke="#bfbfbf" points="323.5,-196.5 323.5,-226.5 527.5,-226.5 527.5,-196.5 323.5,-196.5"/>
<text text-anchor="start" x="331.5" y="-214.5" font-family="Helvetica,sans-Serif" font-size="10.00">QuantConnect.Report.Report</text>
<text text-anchor="middle" x="425.5" y="-203.5" font-family="Helvetica,sans-Serif" font-size="10.00">Elements.RuntimeDaysReportElement</text>
</a>
</g>
</g>
<!-- Node1&#45;&gt;Node23 -->
<g id="edge22" class="edge">
<title>Node1&#45;&gt;Node23</title>
<path fill="none" stroke="midnightblue" d="M233.57,-288.17C255.54,-271.54 288.19,-249.05 320,-235.5 328.05,-232.07 336.66,-229.09 345.37,-226.51"/>
<polygon fill="midnightblue" stroke="midnightblue" points="231.2,-285.58 225.41,-294.45 235.47,-291.13 231.2,-285.58"/>
</g>
<!-- Node24 -->
<g id="node24" class="node">
<title>Node24</title>
<g id="a_node24"><a xlink:href="classQuantConnect_1_1Report_1_1ReportElements_1_1SharpeRatioReportElement.html" target="_top" xlink:title=" ">
<polygon fill="white" stroke="black" points="327,-147.5 327,-177.5 524,-177.5 524,-147.5 327,-147.5"/>
<text text-anchor="start" x="335" y="-165.5" font-family="Helvetica,sans-Serif" font-size="10.00">QuantConnect.Report.Report</text>
<text text-anchor="middle" x="425.5" y="-154.5" font-family="Helvetica,sans-Serif" font-size="10.00">Elements.SharpeRatioReportElement</text>
</a>
</g>
</g>
<!-- Node1&#45;&gt;Node24 -->
<g id="edge23" class="edge">
<title>Node1&#45;&gt;Node24</title>
<path fill="none" stroke="midnightblue" d="M222.08,-285.84C241.31,-257.69 277.25,-211.36 320,-186.5 325.95,-183.04 332.37,-180.07 338.99,-177.54"/>
<polygon fill="midnightblue" stroke="midnightblue" points="219.08,-284.04 216.43,-294.3 224.9,-287.92 219.08,-284.04"/>
</g>
<!-- Node26 -->
<g id="node26" class="node">
<title>Node26</title>
<g id="a_node26"><a xlink:title=" ">
<polygon fill="white" stroke="#bfbfbf" points="346.5,-98.5 346.5,-128.5 504.5,-128.5 504.5,-98.5 346.5,-98.5"/>
<text text-anchor="start" x="354.5" y="-116.5" font-family="Helvetica,sans-Serif" font-size="10.00">QuantConnect.Report.Report</text>
<text text-anchor="middle" x="425.5" y="-105.5" font-family="Helvetica,sans-Serif" font-size="10.00">Elements.TextReportElement</text>
</a>
</g>
</g>
<!-- Node1&#45;&gt;Node26 -->
<g id="edge25" class="edge">
<title>Node1&#45;&gt;Node26</title>
<path fill="none" stroke="midnightblue" d="M216.28,-284.51C231.71,-246.53 266.38,-174.79 320,-137.5 327.95,-131.97 336.98,-127.7 346.32,-124.4"/>
<polygon fill="midnightblue" stroke="midnightblue" points="212.84,-283.68 212.43,-294.27 219.36,-286.24 212.84,-283.68"/>
</g>
<!-- Node27 -->
<g id="node27" class="node">
<title>Node27</title>
<g id="a_node27"><a xlink:title=" ">
<polygon fill="white" stroke="#bfbfbf" points="323,-49.5 323,-79.5 528,-79.5 528,-49.5 323,-49.5"/>
<text text-anchor="start" x="331" y="-67.5" font-family="Helvetica,sans-Serif" font-size="10.00">QuantConnect.Report.Report</text>
<text text-anchor="middle" x="425.5" y="-56.5" font-family="Helvetica,sans-Serif" font-size="10.00">Elements.TradesPerDayReportElement</text>
</a>
</g>
</g>
<!-- Node1&#45;&gt;Node27 -->
<g id="edge26" class="edge">
<title>Node1&#45;&gt;Node27</title>
<path fill="none" stroke="midnightblue" d="M212.41,-284.53C223.79,-238.28 254.72,-139.37 320,-88.5 324.4,-85.07 329.21,-82.11 334.27,-79.56"/>
<polygon fill="midnightblue" stroke="midnightblue" points="208.99,-283.8 210.1,-294.34 215.8,-285.41 208.99,-283.8"/>
</g>
<!-- Node28 -->
<g id="node28" class="node">
<title>Node28</title>
<g id="a_node28"><a xlink:title=" ">
<polygon fill="white" stroke="#bfbfbf" points="335.5,-0.5 335.5,-30.5 515.5,-30.5 515.5,-0.5 335.5,-0.5"/>
<text text-anchor="start" x="343.5" y="-18.5" font-family="Helvetica,sans-Serif" font-size="10.00">QuantConnect.Report.Report</text>
<text text-anchor="middle" x="425.5" y="-7.5" font-family="Helvetica,sans-Serif" font-size="10.00">Elements.TurnoverReportElement</text>
</a>
</g>
</g>
<!-- Node1&#45;&gt;Node28 -->
<g id="edge27" class="edge">
<title>Node1&#45;&gt;Node28</title>
<path fill="none" stroke="midnightblue" d="M209.88,-284.46C217.45,-230.82 242.92,-104.43 320,-39.5 324.7,-35.54 329.92,-32.21 335.46,-29.4"/>
<polygon fill="midnightblue" stroke="midnightblue" points="206.4,-284.09 208.57,-294.46 213.34,-285.01 206.4,-284.09"/>
</g>
<!-- Node2 -->
<g id="node2" class="node">
<title>Node2</title>
<g id="a_node2"><a xlink:title="Common interface for template elements of the report">
<polygon fill="white" stroke="#bfbfbf" points="0,-300 0,-319 92,-319 92,-300 0,-300"/>
<text text-anchor="middle" x="46" y="-307" font-family="Helvetica,sans-Serif" font-size="10.00">IReportElement</text>
</a>
</g>
</g>
<!-- Node2&#45;&gt;Node1 -->
<g id="edge1" class="edge">
<title>Node2&#45;&gt;Node1</title>
<path fill="none" stroke="midnightblue" d="M102.44,-309.5C110.65,-309.5 119.24,-309.5 127.79,-309.5"/>
<polygon fill="midnightblue" stroke="midnightblue" points="102.28,-306 92.28,-309.5 102.28,-313 102.28,-306"/>
</g>
<!-- Node5 -->
<g id="node5" class="node">
<title>Node5</title>
<g id="a_node5"><a xlink:title=" ">
<polygon fill="white" stroke="#bfbfbf" points="570,-855.5 570,-885.5 779,-885.5 779,-855.5 570,-855.5"/>
<text text-anchor="start" x="578" y="-873.5" font-family="Helvetica,sans-Serif" font-size="10.00">QuantConnect.Report.Report</text>
<text text-anchor="middle" x="674.5" y="-862.5" font-family="Helvetica,sans-Serif" font-size="10.00">Elements.AnnualReturnsReportElement</text>
</a>
</g>
</g>
<!-- Node4&#45;&gt;Node5 -->
<g id="edge4" class="edge">
<title>Node4&#45;&gt;Node5</title>
<path fill="none" stroke="midnightblue" d="M516.78,-591.03C522.02,-594.18 526.84,-597.96 531,-602.5 604.74,-683.01 493.09,-765.14 567,-845.5 570.47,-849.27 574.4,-852.53 578.64,-855.34"/>
<polygon fill="midnightblue" stroke="midnightblue" points="518.09,-587.77 507.59,-586.31 514.89,-593.99 518.09,-587.77"/>
</g>
<!-- Node6 -->
<g id="node6" class="node">
<title>Node6</title>
<g id="a_node6"><a xlink:title=" ">
<polygon fill="white" stroke="#bfbfbf" points="588,-795 588,-836 761,-836 761,-795 588,-795"/>
<text text-anchor="start" x="596" y="-824" font-family="Helvetica,sans-Serif" font-size="10.00">QuantConnect.Report.Report</text>
<text text-anchor="start" x="596" y="-813" font-family="Helvetica,sans-Serif" font-size="10.00">Elements.AssetAllocationReport</text>
<text text-anchor="middle" x="674.5" y="-802" font-family="Helvetica,sans-Serif" font-size="10.00">Element</text>
</a>
</g>
</g>
<!-- Node4&#45;&gt;Node6 -->
<g id="edge5" class="edge">
<title>Node4&#45;&gt;Node6</title>
<path fill="none" stroke="midnightblue" d="M516.69,-591.35C521.93,-594.42 526.78,-598.1 531,-602.5 588.41,-662.29 510.79,-724.58 567,-785.5 572.93,-791.92 580.11,-797.01 587.92,-801.04"/>
<polygon fill="midnightblue" stroke="midnightblue" points="518.04,-588.1 507.53,-586.72 514.88,-594.35 518.04,-588.1"/>
</g>
<!-- Node7 -->
<g id="node7" class="node">
<title>Node7</title>
<g id="a_node7"><a xlink:title=" ">
<polygon fill="white" stroke="#bfbfbf" points="592,-745.5 592,-775.5 757,-775.5 757,-745.5 592,-745.5"/>
<text text-anchor="start" x="600" y="-763.5" font-family="Helvetica,sans-Serif" font-size="10.00">QuantConnect.Report.Report</text>
<text text-anchor="middle" x="674.5" y="-752.5" font-family="Helvetica,sans-Serif" font-size="10.00">Elements.CrisisReportElement</text>
</a>
</g>
</g>
<!-- Node4&#45;&gt;Node7 -->
<g id="edge6" class="edge">
<title>Node4&#45;&gt;Node7</title>
<path fill="none" stroke="midnightblue" d="M516.66,-591.87C521.86,-594.83 526.71,-598.34 531,-602.5 574.94,-645.16 522.97,-692.94 567,-735.5 574.1,-742.36 582.71,-747.47 591.92,-751.25"/>
<polygon fill="midnightblue" stroke="midnightblue" points="518.11,-588.68 507.6,-587.39 515.01,-594.96 518.11,-588.68"/>
</g>
<!-- Node8 -->
<g id="node8" class="node">
<title>Node8</title>
<g id="a_node8"><a xlink:title=" ">
<polygon fill="white" stroke="#bfbfbf" points="579,-685 579,-726 770,-726 770,-685 579,-685"/>
<text text-anchor="start" x="587" y="-714" font-family="Helvetica,sans-Serif" font-size="10.00">QuantConnect.Report.Report</text>
<text text-anchor="start" x="587" y="-703" font-family="Helvetica,sans-Serif" font-size="10.00">Elements.CumulativeReturnsReport</text>
<text text-anchor="middle" x="674.5" y="-692" font-family="Helvetica,sans-Serif" font-size="10.00">Element</text>
</a>
</g>
</g>
<!-- Node4&#45;&gt;Node8 -->
<g id="edge7" class="edge">
<title>Node4&#45;&gt;Node8</title>
<path fill="none" stroke="midnightblue" d="M516.96,-593.47C521.94,-596.05 526.67,-599.04 531,-602.5 559.27,-625.07 539.18,-652.37 567,-675.5 571.28,-679.06 575.96,-682.2 580.89,-684.97"/>
<polygon fill="midnightblue" stroke="midnightblue" points="518.31,-590.24 507.76,-589.24 515.38,-596.59 518.31,-590.24"/>
</g>
<!-- Node9 -->
<g id="node9" class="node">
<title>Node9</title>
<g id="a_node9"><a xlink:title=" ">
<polygon fill="white" stroke="#bfbfbf" points="574,-635.5 574,-665.5 775,-665.5 775,-635.5 574,-635.5"/>
<text text-anchor="start" x="582" y="-653.5" font-family="Helvetica,sans-Serif" font-size="10.00">QuantConnect.Report.Report</text>
<text text-anchor="middle" x="674.5" y="-642.5" font-family="Helvetica,sans-Serif" font-size="10.00">Elements.DailyReturnsReportElement</text>
</a>
</g>
</g>
<!-- Node4&#45;&gt;Node9 -->
<g id="edge8" class="edge">
<title>Node4&#45;&gt;Node9</title>
<path fill="none" stroke="midnightblue" d="M512.96,-595.61C519.15,-597.69 525.22,-599.98 531,-602.5 548.63,-610.19 549.32,-618.93 567,-626.5 575.01,-629.93 583.59,-632.91 592.26,-635.48"/>
<polygon fill="midnightblue" stroke="midnightblue" points="513.75,-592.19 503.16,-592.52 511.64,-598.86 513.75,-592.19"/>
</g>
<!-- Node10 -->
<g id="node10" class="node">
<title>Node10</title>
<g id="a_node10"><a xlink:title=" ">
<polygon fill="white" stroke="#bfbfbf" points="579.5,-586.5 579.5,-616.5 769.5,-616.5 769.5,-586.5 579.5,-586.5"/>
<text text-anchor="start" x="587.5" y="-604.5" font-family="Helvetica,sans-Serif" font-size="10.00">QuantConnect.Report.Report</text>
<text text-anchor="middle" x="674.5" y="-593.5" font-family="Helvetica,sans-Serif" font-size="10.00">Elements.DrawdownReportElement</text>
</a>
</g>
</g>
<!-- Node4&#45;&gt;Node10 -->
<g id="edge9" class="edge">
<title>Node4&#45;&gt;Node10</title>
<path fill="none" stroke="midnightblue" d="M517.78,-586.37C537.87,-588.32 559.18,-590.39 579.37,-592.35"/>
<polygon fill="midnightblue" stroke="midnightblue" points="518.01,-582.88 507.72,-585.39 517.33,-589.84 518.01,-582.88"/>
</g>
<!-- Node11 -->
<g id="node11" class="node">
<title>Node11</title>
<g id="a_node11"><a xlink:title=" ">
<polygon fill="white" stroke="#bfbfbf" points="583,-537.5 583,-567.5 766,-567.5 766,-537.5 583,-537.5"/>
<text text-anchor="start" x="591" y="-555.5" font-family="Helvetica,sans-Serif" font-size="10.00">QuantConnect.Report.Report</text>
<text text-anchor="middle" x="674.5" y="-544.5" font-family="Helvetica,sans-Serif" font-size="10.00">Elements.ExposureReportElement</text>
</a>
</g>
</g>
<!-- Node4&#45;&gt;Node11 -->
<g id="edge10" class="edge">
<title>Node4&#45;&gt;Node11</title>
<path fill="none" stroke="midnightblue" d="M517.71,-568.27C538.97,-566.12 561.6,-563.83 582.84,-561.68"/>
<polygon fill="midnightblue" stroke="midnightblue" points="517.32,-564.79 507.72,-569.28 518.02,-571.75 517.32,-564.79"/>
</g>
<!-- Node12 -->
<g id="node12" class="node">
<title>Node12</title>
<g id="a_node12"><a xlink:title=" ">
<polygon fill="white" stroke="#bfbfbf" points="578,-477 578,-518 771,-518 771,-477 578,-477"/>
<text text-anchor="start" x="586" y="-506" font-family="Helvetica,sans-Serif" font-size="10.00">QuantConnect.Report.Report</text>
<text text-anchor="start" x="586" y="-495" font-family="Helvetica,sans-Serif" font-size="10.00">Elements.LeverageUtilizationReport</text>
<text text-anchor="middle" x="674.5" y="-484" font-family="Helvetica,sans-Serif" font-size="10.00">Element</text>
</a>
</g>
</g>
<!-- Node4&#45;&gt;Node12 -->
<g id="edge11" class="edge">
<title>Node4&#45;&gt;Node12</title>
<path fill="none" stroke="midnightblue" d="M512.96,-559.39C519.15,-557.31 525.22,-555.02 531,-552.5 548.63,-544.81 549.57,-536.61 567,-528.5 575.29,-524.64 584.17,-521.15 593.14,-518.01"/>
<polygon fill="midnightblue" stroke="midnightblue" points="511.64,-556.14 503.16,-562.48 513.75,-562.81 511.64,-556.14"/>
</g>
<!-- Node13 -->
<g id="node13" class="node">
<title>Node13</title>
<g id="a_node13"><a xlink:title=" ">
<polygon fill="white" stroke="#bfbfbf" points="567,-427.5 567,-457.5 782,-457.5 782,-427.5 567,-427.5"/>
<text text-anchor="start" x="575" y="-445.5" font-family="Helvetica,sans-Serif" font-size="10.00">QuantConnect.Report.Report</text>
<text text-anchor="middle" x="674.5" y="-434.5" font-family="Helvetica,sans-Serif" font-size="10.00">Elements.MonthlyReturnsReportElement</text>
</a>
</g>
</g>
<!-- Node4&#45;&gt;Node13 -->
<g id="edge12" class="edge">
<title>Node4&#45;&gt;Node13</title>
<path fill="none" stroke="midnightblue" d="M516.89,-561.99C521.93,-559.29 526.68,-556.15 531,-552.5 562.31,-525.99 535.63,-493.94 567,-467.5 571.57,-463.64 576.64,-460.36 581.99,-457.56"/>
<polygon fill="midnightblue" stroke="midnightblue" points="515.12,-558.95 507.56,-566.37 518.1,-565.29 515.12,-558.95"/>
</g>
<!-- Node14 -->
<g id="node14" class="node">
<title>Node14</title>
<g id="a_node14"><a xlink:title=" ">
<polygon fill="white" stroke="#bfbfbf" points="586,-367 586,-408 763,-408 763,-367 586,-367"/>
<text text-anchor="start" x="594" y="-396" font-family="Helvetica,sans-Serif" font-size="10.00">QuantConnect.Report.Report</text>
<text text-anchor="start" x="594" y="-385" font-family="Helvetica,sans-Serif" font-size="10.00">Elements.ReturnsPerTradeReport</text>
<text text-anchor="middle" x="674.5" y="-374" font-family="Helvetica,sans-Serif" font-size="10.00">Element</text>
</a>
</g>
</g>
<!-- Node4&#45;&gt;Node14 -->
<g id="edge13" class="edge">
<title>Node4&#45;&gt;Node14</title>
<path fill="none" stroke="midnightblue" d="M516.67,-563.14C521.87,-560.18 526.72,-556.67 531,-552.5 575.2,-509.5 523.85,-462.56 567,-418.5 572.46,-412.93 578.85,-408.34 585.75,-404.57"/>
<polygon fill="midnightblue" stroke="midnightblue" points="515.02,-560.05 507.61,-567.62 518.13,-566.33 515.02,-560.05"/>
</g>
<!-- Node15 -->
<g id="node15" class="node">
<title>Node15</title>
<g id="a_node15"><a xlink:title=" ">
<polygon fill="white" stroke="#bfbfbf" points="577,-307 577,-348 772,-348 772,-307 577,-307"/>
<text text-anchor="start" x="585" y="-336" font-family="Helvetica,sans-Serif" font-size="10.00">QuantConnect.Report.Report</text>
<text text-anchor="start" x="585" y="-325" font-family="Helvetica,sans-Serif" font-size="10.00">Elements.RollingPortfolioBetaReport</text>
<text text-anchor="middle" x="674.5" y="-314" font-family="Helvetica,sans-Serif" font-size="10.00">Element</text>
</a>
</g>
</g>
<!-- Node4&#45;&gt;Node15 -->
<g id="edge14" class="edge">
<title>Node4&#45;&gt;Node15</title>
<path fill="none" stroke="midnightblue" d="M516.75,-563.71C521.98,-560.62 526.8,-556.92 531,-552.5 591.67,-488.57 507.61,-422.62 567,-357.5 570.24,-353.95 573.86,-350.81 577.75,-348.03"/>
<polygon fill="midnightblue" stroke="midnightblue" points="514.94,-560.7 507.61,-568.36 518.11,-566.94 514.94,-560.7"/>
</g>
<!-- Node16 -->
<g id="node16" class="node">
<title>Node16</title>
<g id="a_node16"><a xlink:title=" ">
<polygon fill="white" stroke="#bfbfbf" points="571.5,-257.5 571.5,-287.5 777.5,-287.5 777.5,-257.5 571.5,-257.5"/>
<text text-anchor="start" x="579.5" y="-275.5" font-family="Helvetica,sans-Serif" font-size="10.00">QuantConnect.Report.Report</text>
<text text-anchor="middle" x="674.5" y="-264.5" font-family="Helvetica,sans-Serif" font-size="10.00">Elements.RollingSharpeReportElement</text>
</a>
</g>
</g>
<!-- Node4&#45;&gt;Node16 -->
<g id="edge15" class="edge">
<title>Node4&#45;&gt;Node16</title>
<path fill="none" stroke="midnightblue" d="M516.81,-564C522.05,-560.85 526.86,-557.05 531,-552.5 608.02,-467.83 489.8,-382 567,-297.5 570.46,-293.71 574.37,-290.45 578.61,-287.64"/>
<polygon fill="midnightblue" stroke="midnightblue" points="514.92,-561.04 507.64,-568.73 518.13,-567.26 514.92,-561.04"/>
</g>
<!-- Node25 -->
<g id="node25" class="node">
<title>Node25</title>
<g id="a_node25"><a xlink:title=" ">
<polygon fill="white" stroke="#bfbfbf" points="575.5,-147.5 575.5,-177.5 773.5,-177.5 773.5,-147.5 575.5,-147.5"/>
<text text-anchor="start" x="583.5" y="-165.5" font-family="Helvetica,sans-Serif" font-size="10.00">QuantConnect.Report.Report</text>
<text text-anchor="middle" x="674.5" y="-154.5" font-family="Helvetica,sans-Serif" font-size="10.00">Elements.SortinoRatioReportElement</text>
</a>
</g>
</g>
<!-- Node24&#45;&gt;Node25 -->
<g id="edge24" class="edge">
<title>Node24&#45;&gt;Node25</title>
<path fill="none" stroke="midnightblue" d="M534.46,-162.5C548.07,-162.5 561.93,-162.5 575.37,-162.5"/>
<polygon fill="midnightblue" stroke="midnightblue" points="534.12,-159 524.12,-162.5 534.12,-166 534.12,-159"/>
</g>
</g>
</svg>
        <g id="navigator" transform="translate(0 0)" fill="#404254">
                <rect fill="#f2f5e9" fill-opacity="0.5" stroke="#606060" stroke-width=".5" x="0" y="0" width="60" height="60"/>
                <use id="zoomplus" xlink:href="#zoomPlus" x="17" y="9" onmousedown="handleZoom(evt,'in')"/>
                <use id="zoomminus" xlink:href="#zoomMin" x="42" y="9" onmousedown="handleZoom(evt,'out')"/>
                <use id="reset" xlink:href="#resetDef" x="30" y="36" onmousedown="handleReset()"/>
                <g id="arrowUp" xlink:href="#dirArrow" transform="translate(30 24)" onmousedown="handlePan(0,-1)">
                  <use xlink:href="#rim" fill="#404040">
                        <set attributeName="fill" to="#808080" begin="arrowUp.mouseover" end="arrowUp.mouseout"/>
                  </use>
                  <path fill="none" stroke="white" stroke-width="1.5" d="M0,-3.0v7 M-2.5,-0.5L0,-3.0L2.5,-0.5"/>
                </g>
                <g id="arrowRight" xlink:href="#dirArrow" transform="rotate(90) translate(36 -43)" onmousedown="handlePan(1,0)">
                  <use xlink:href="#rim" fill="#404040">
                        <set attributeName="fill" to="#808080" begin="arrowRight.mouseover" end="arrowRight.mouseout"/>
                  </use>
                  <path fill="none" stroke="white" stroke-width="1.5" d="M0,-3.0v7 M-2.5,-0.5L0,-3.0L2.5,-0.5"/>
                </g>
                <g id="arrowDown" xlink:href="#dirArrow" transform="rotate(180) translate(-30 -48)" onmousedown="handlePan(0,1)">
                  <use xlink:href="#rim" fill="#404040">
                        <set attributeName="fill" to="#808080" begin="arrowDown.mouseover" end="arrowDown.mouseout"/>
                  </use>
                  <path fill="none" stroke="white" stroke-width="1.5" d="M0,-3.0v7 M-2.5,-0.5L0,-3.0L2.5,-0.5"/>
                </g>
                <g id="arrowLeft" xlink:href="#dirArrow" transform="rotate(270) translate(-36 17)" onmousedown="handlePan(-1,0)">
                  <use xlink:href="#rim" fill="#404040">
                        <set attributeName="fill" to="#808080" begin="arrowLeft.mouseover" end="arrowLeft.mouseout"/>
                  </use>
                  <path fill="none" stroke="white" stroke-width="1.5" d="M0,-3.0v7 M-2.5,-0.5L0,-3.0L2.5,-0.5"/>
                </g>
        </g>
        <svg viewBox="0 0 15 15" width="100%" height="30px" preserveAspectRatio="xMaxYMin meet">
         <g id="arrow_out" transform="scale(0.3 0.3)">
          <a xlink:href="classQuantConnect_1_1Report_1_1ReportElements_1_1ReportElement__inherit__graph_org.svg" target="_base">
           <rect id="button" ry="5" rx="5" y="6" x="6" height="38" width="38"
                fill="#f2f5e9" fill-opacity="0.5" stroke="#606060" stroke-width="1.0"/>
           <path id="arrow"
             d="M 11.500037,31.436501 C 11.940474,20.09759 22.043105,11.32322 32.158766,21.979434 L 37.068811,17.246167 C 37.068811,17.246167 37.088388,32 37.088388,32 L 22.160133,31.978069 C 22.160133,31.978069 26.997745,27.140456 26.997745,27.140456 C 18.528582,18.264221 13.291696,25.230495 11.500037,31.436501 z"
             style="fill:#404040;"/>
          </a>
         </g>
        </svg>
</svg>
