<?xml version="1.0" encoding="UTF-8" standalone="no"?>
<!DOCTYPE svg PUBLIC "-//W3C//DTD SVG 1.1//EN"
 "http://www.w3.org/Graphics/SVG/1.1/DTD/svg11.dtd">
<!-- Generated by graphviz version 2.43.0 (0)
 -->
<!-- Title: QuantConnect.Algorithm.Framework.Portfolio.MinimumVariancePortfolioOptimizer.Optimize Pages: 1 -->
<svg width="526pt" height="110pt"
 viewBox="0.00 0.00 526.00 110.00" xmlns="http://www.w3.org/2000/svg" xmlns:xlink="http://www.w3.org/1999/xlink">
<g id="graph0" class="graph" transform="scale(1 1) rotate(0) translate(4 106)">
<title>QuantConnect.Algorithm.Framework.Portfolio.MinimumVariancePortfolioOptimizer.Optimize</title>
<polygon fill="white" stroke="transparent" points="-4,4 -4,-106 522,-106 522,4 -4,4"/>
<!-- Node1 -->
<g id="node1" class="node">
<title>Node1</title>
<g id="a_node1"><a xlink:title="Perform portfolio optimization for a provided matrix of historical returns and an array of expected r...">
<polygon fill="#bfbfbf" stroke="black" points="0,-30.5 0,-71.5 241,-71.5 241,-30.5 0,-30.5"/>
<text text-anchor="start" x="8" y="-59.5" font-family="Helvetica,sans-Serif" font-size="10.00">QuantConnect.Algorithm.Framework.</text>
<text text-anchor="start" x="8" y="-48.5" font-family="Helvetica,sans-Serif" font-size="10.00">Portfolio.MinimumVariancePortfolioOptimizer.</text>
<text text-anchor="middle" x="120.5" y="-37.5" font-family="Helvetica,sans-Serif" font-size="10.00">Optimize</text>
</a>
</g>
</g>
<!-- Node2 -->
<g id="node2" class="node">
<title>Node2</title>
<g id="a_node2"><a xlink:href="classQuantConnect_1_1Algorithm_1_1Framework_1_1Portfolio_1_1MinimumVariancePortfolioOptimizer.html#ac7388f3128f7ba568e4044e838cd4fe0" target="_top" xlink:title="Boundary constraints on weights: lw ≤ w ≤ up">
<polygon fill="white" stroke="black" points="277,-60.5 277,-101.5 518,-101.5 518,-60.5 277,-60.5"/>
<text text-anchor="start" x="285" y="-89.5" font-family="Helvetica,sans-Serif" font-size="10.00">QuantConnect.Algorithm.Framework.</text>
<text text-anchor="start" x="285" y="-78.5" font-family="Helvetica,sans-Serif" font-size="10.00">Portfolio.MinimumVariancePortfolioOptimizer.</text>
<text text-anchor="middle" x="397.5" y="-67.5" font-family="Helvetica,sans-Serif" font-size="10.00">GetBoundaryConditions</text>
</a>
</g>
</g>
<!-- Node1&#45;&gt;Node2 -->
<g id="edge1" class="edge">
<title>Node1&#45;&gt;Node2</title>
<path fill="none" stroke="midnightblue" d="M241.32,-64.07C249.65,-64.98 258.08,-65.9 266.46,-66.81"/>
<polygon fill="midnightblue" stroke="midnightblue" points="266.34,-70.32 276.67,-67.93 267.1,-63.36 266.34,-70.32"/>
</g>
<!-- Node3 -->
<g id="node3" class="node">
<title>Node3</title>
<g id="a_node3"><a xlink:href="classQuantConnect_1_1Algorithm_1_1Framework_1_1Portfolio_1_1MinimumVariancePortfolioOptimizer.html#ac6498c56704a0cd55220ab1e41e77d9b" target="_top" xlink:title="Sum of all weight is one: 1^T w = 1 / Σw = 1">
<polygon fill="white" stroke="black" points="277,-0.5 277,-41.5 518,-41.5 518,-0.5 277,-0.5"/>
<text text-anchor="start" x="285" y="-29.5" font-family="Helvetica,sans-Serif" font-size="10.00">QuantConnect.Algorithm.Framework.</text>
<text text-anchor="start" x="285" y="-18.5" font-family="Helvetica,sans-Serif" font-size="10.00">Portfolio.MinimumVariancePortfolioOptimizer.</text>
<text text-anchor="middle" x="397.5" y="-7.5" font-family="Helvetica,sans-Serif" font-size="10.00">GetBudgetConstraint</text>
</a>
</g>
</g>
<!-- Node1&#45;&gt;Node3 -->
<g id="edge2" class="edge">
<title>Node1&#45;&gt;Node3</title>
<path fill="none" stroke="midnightblue" d="M241.32,-37.93C249.65,-37.02 258.08,-36.1 266.46,-35.19"/>
<polygon fill="midnightblue" stroke="midnightblue" points="267.1,-38.64 276.67,-34.07 266.34,-31.68 267.1,-38.64"/>
</g>
</g>
</svg>
