<?xml version="1.0" encoding="UTF-8" standalone="no"?>
<!DOCTYPE svg PUBLIC "-//W3C//DTD SVG 1.1//EN"
 "http://www.w3.org/Graphics/SVG/1.1/DTD/svg11.dtd">
<!-- Generated by graphviz version 2.43.0 (0)
 -->
<!-- Title: QuantConnect.Indicators.CandlestickPatterns.ThreeLineStrike.ComputeNextValue Pages: 1 -->
<svg width="836pt" height="280pt"
 viewBox="0.00 0.00 836.00 279.50" xmlns="http://www.w3.org/2000/svg" xmlns:xlink="http://www.w3.org/1999/xlink">
<g id="graph0" class="graph" transform="scale(1 1) rotate(0) translate(4 275.5)">
<title>QuantConnect.Indicators.CandlestickPatterns.ThreeLineStrike.ComputeNextValue</title>
<polygon fill="white" stroke="transparent" points="-4,4 -4,-275.5 832,-275.5 832,4 -4,4"/>
<!-- Node1 -->
<g id="node1" class="node">
<title>Node1</title>
<g id="a_node1"><a xlink:title="Computes the next value of this indicator from the given state">
<polygon fill="#bfbfbf" stroke="black" points="0,-150.5 0,-191.5 164,-191.5 164,-150.5 0,-150.5"/>
<text text-anchor="start" x="8" y="-179.5" font-family="Helvetica,sans-Serif" font-size="10.00">QuantConnect.Indicators.</text>
<text text-anchor="start" x="8" y="-168.5" font-family="Helvetica,sans-Serif" font-size="10.00">CandlestickPatterns.ThreeLine</text>
<text text-anchor="middle" x="82" y="-157.5" font-family="Helvetica,sans-Serif" font-size="10.00">Strike.ComputeNextValue</text>
</a>
</g>
</g>
<!-- Node2 -->
<g id="node2" class="node">
<title>Node2</title>
<g id="a_node2"><a xlink:href="classQuantConnect_1_1Indicators_1_1CandlestickPatterns_1_1CandlestickPattern.html#abfef9cee8cff1859d77bb2c54ded7322" target="_top" xlink:title="Returns the average range of the previous candles">
<polygon fill="white" stroke="black" points="200,-199.5 200,-240.5 373,-240.5 373,-199.5 200,-199.5"/>
<text text-anchor="start" x="208" y="-228.5" font-family="Helvetica,sans-Serif" font-size="10.00">QuantConnect.Indicators.</text>
<text text-anchor="start" x="208" y="-217.5" font-family="Helvetica,sans-Serif" font-size="10.00">CandlestickPatterns.Candlestick</text>
<text text-anchor="middle" x="286.5" y="-206.5" font-family="Helvetica,sans-Serif" font-size="10.00">Pattern.GetCandleAverage</text>
</a>
</g>
</g>
<!-- Node1&#45;&gt;Node2 -->
<g id="edge1" class="edge">
<title>Node1&#45;&gt;Node2</title>
<path fill="none" stroke="midnightblue" d="M164.2,-190.65C172.91,-192.76 181.83,-194.91 190.69,-197.06"/>
<polygon fill="midnightblue" stroke="midnightblue" points="190.1,-200.52 200.64,-199.47 191.75,-193.71 190.1,-200.52"/>
</g>
<!-- Node4 -->
<g id="node4" class="node">
<title>Node4</title>
<g id="a_node4"><a xlink:href="classQuantConnect_1_1Indicators_1_1CandlestickPatterns_1_1CandlestickPattern.html#a05b2e39af6efdc4ef734663b1c31d61e" target="_top" xlink:title="Returns the range of a candle">
<polygon fill="white" stroke="black" points="409,-150.5 409,-191.5 582,-191.5 582,-150.5 409,-150.5"/>
<text text-anchor="start" x="417" y="-179.5" font-family="Helvetica,sans-Serif" font-size="10.00">QuantConnect.Indicators.</text>
<text text-anchor="start" x="417" y="-168.5" font-family="Helvetica,sans-Serif" font-size="10.00">CandlestickPatterns.Candlestick</text>
<text text-anchor="middle" x="495.5" y="-157.5" font-family="Helvetica,sans-Serif" font-size="10.00">Pattern.GetCandleRange</text>
</a>
</g>
</g>
<!-- Node1&#45;&gt;Node4 -->
<g id="edge10" class="edge">
<title>Node1&#45;&gt;Node4</title>
<path fill="none" stroke="midnightblue" d="M164.3,-171C231.61,-171 327.38,-171 398.46,-171"/>
<polygon fill="midnightblue" stroke="midnightblue" points="398.76,-174.5 408.76,-171 398.76,-167.5 398.76,-174.5"/>
</g>
<!-- Node9 -->
<g id="node9" class="node">
<title>Node9</title>
<g id="a_node9"><a xlink:href="classQuantConnect_1_1Indicators_1_1CandlestickPatterns_1_1CandlestickPattern.html#a4ffcf1c3b910415989e6d399b917f499" target="_top" xlink:title="Returns the candle color of a candle">
<polygon fill="white" stroke="black" points="200,-101.5 200,-142.5 373,-142.5 373,-101.5 200,-101.5"/>
<text text-anchor="start" x="208" y="-130.5" font-family="Helvetica,sans-Serif" font-size="10.00">QuantConnect.Indicators.</text>
<text text-anchor="start" x="208" y="-119.5" font-family="Helvetica,sans-Serif" font-size="10.00">CandlestickPatterns.Candlestick</text>
<text text-anchor="middle" x="286.5" y="-108.5" font-family="Helvetica,sans-Serif" font-size="10.00">Pattern.GetCandleColor</text>
</a>
</g>
</g>
<!-- Node1&#45;&gt;Node9 -->
<g id="edge9" class="edge">
<title>Node1&#45;&gt;Node9</title>
<path fill="none" stroke="midnightblue" d="M164.2,-151.35C172.91,-149.24 181.83,-147.09 190.69,-144.94"/>
<polygon fill="midnightblue" stroke="midnightblue" points="191.75,-148.29 200.64,-142.53 190.1,-141.48 191.75,-148.29"/>
</g>
<!-- Node3 -->
<g id="node3" class="node">
<title>Node3</title>
<g id="a_node3"><a xlink:href="classQuantConnect_1_1Indicators_1_1CandlestickPatterns_1_1CandleSettings.html#a1e65d2caf61e018e94574519fee75620" target="_top" xlink:title="Returns the candle setting for the requested type">
<polygon fill="white" stroke="black" points="618,-241 618,-271 828,-271 828,-241 618,-241"/>
<text text-anchor="start" x="626" y="-259" font-family="Helvetica,sans-Serif" font-size="10.00">QuantConnect.Indicators.</text>
<text text-anchor="middle" x="723" y="-248" font-family="Helvetica,sans-Serif" font-size="10.00">CandlestickPatterns.CandleSettings.Get</text>
</a>
</g>
</g>
<!-- Node2&#45;&gt;Node3 -->
<g id="edge2" class="edge">
<title>Node2&#45;&gt;Node3</title>
<path fill="none" stroke="midnightblue" d="M373.08,-227.09C440.14,-232.65 534.08,-240.43 607.59,-246.52"/>
<polygon fill="midnightblue" stroke="midnightblue" points="607.57,-250.03 617.82,-247.37 608.14,-243.05 607.57,-250.03"/>
</g>
<!-- Node2&#45;&gt;Node4 -->
<g id="edge3" class="edge">
<title>Node2&#45;&gt;Node4</title>
<path fill="none" stroke="midnightblue" d="M373.19,-199.72C381.66,-197.71 390.3,-195.67 398.87,-193.64"/>
<polygon fill="midnightblue" stroke="midnightblue" points="399.95,-196.98 408.88,-191.27 398.34,-190.17 399.95,-196.98"/>
</g>
<!-- Node4&#45;&gt;Node3 -->
<g id="edge4" class="edge">
<title>Node4&#45;&gt;Node3</title>
<path fill="none" stroke="midnightblue" d="M532.79,-191.58C556.46,-204.33 588.36,-220.27 618,-231 625.24,-233.62 632.87,-236.05 640.57,-238.28"/>
<polygon fill="midnightblue" stroke="midnightblue" points="639.76,-241.69 650.33,-241 641.63,-234.94 639.76,-241.69"/>
</g>
<!-- Node5 -->
<g id="node5" class="node">
<title>Node5</title>
<g id="a_node5"><a xlink:href="classQuantConnect_1_1Indicators_1_1CandlestickPatterns_1_1CandlestickPattern.html#ae61e2032511d5338a48f8d5b8be906b7" target="_top" xlink:title="Returns the full range of the candle">
<polygon fill="white" stroke="black" points="636.5,-180.5 636.5,-221.5 809.5,-221.5 809.5,-180.5 636.5,-180.5"/>
<text text-anchor="start" x="644.5" y="-209.5" font-family="Helvetica,sans-Serif" font-size="10.00">QuantConnect.Indicators.</text>
<text text-anchor="start" x="644.5" y="-198.5" font-family="Helvetica,sans-Serif" font-size="10.00">CandlestickPatterns.Candlestick</text>
<text text-anchor="middle" x="723" y="-187.5" font-family="Helvetica,sans-Serif" font-size="10.00">Pattern.GetHighLowRange</text>
</a>
</g>
</g>
<!-- Node4&#45;&gt;Node5 -->
<g id="edge5" class="edge">
<title>Node4&#45;&gt;Node5</title>
<path fill="none" stroke="midnightblue" d="M582.07,-182.38C596.55,-184.31 611.66,-186.32 626.38,-188.28"/>
<polygon fill="midnightblue" stroke="midnightblue" points="626.11,-191.77 636.49,-189.62 627.03,-184.84 626.11,-191.77"/>
</g>
<!-- Node6 -->
<g id="node6" class="node">
<title>Node6</title>
<g id="a_node6"><a xlink:href="classQuantConnect_1_1Indicators_1_1CandlestickPatterns_1_1CandlestickPattern.html#ae57bf84c9247ead2c32aab56c2e4ecac" target="_top" xlink:title="Returns the range of the candle&#39;s lower shadow">
<polygon fill="white" stroke="black" points="636.5,-120.5 636.5,-161.5 809.5,-161.5 809.5,-120.5 636.5,-120.5"/>
<text text-anchor="start" x="644.5" y="-149.5" font-family="Helvetica,sans-Serif" font-size="10.00">QuantConnect.Indicators.</text>
<text text-anchor="start" x="644.5" y="-138.5" font-family="Helvetica,sans-Serif" font-size="10.00">CandlestickPatterns.Candlestick</text>
<text text-anchor="middle" x="723" y="-127.5" font-family="Helvetica,sans-Serif" font-size="10.00">Pattern.GetLowerShadow</text>
</a>
</g>
</g>
<!-- Node4&#45;&gt;Node6 -->
<g id="edge6" class="edge">
<title>Node4&#45;&gt;Node6</title>
<path fill="none" stroke="midnightblue" d="M582.07,-159.62C596.55,-157.69 611.66,-155.68 626.38,-153.72"/>
<polygon fill="midnightblue" stroke="midnightblue" points="627.03,-157.16 636.49,-152.38 626.11,-150.23 627.03,-157.16"/>
</g>
<!-- Node7 -->
<g id="node7" class="node">
<title>Node7</title>
<g id="a_node7"><a xlink:href="classQuantConnect_1_1Indicators_1_1CandlestickPatterns_1_1CandlestickPattern.html#a47cb6b45c58d94689f6233487e981d10" target="_top" xlink:title="Returns the distance between the close and the open of a candle">
<polygon fill="white" stroke="black" points="636.5,-60.5 636.5,-101.5 809.5,-101.5 809.5,-60.5 636.5,-60.5"/>
<text text-anchor="start" x="644.5" y="-89.5" font-family="Helvetica,sans-Serif" font-size="10.00">QuantConnect.Indicators.</text>
<text text-anchor="start" x="644.5" y="-78.5" font-family="Helvetica,sans-Serif" font-size="10.00">CandlestickPatterns.Candlestick</text>
<text text-anchor="middle" x="723" y="-67.5" font-family="Helvetica,sans-Serif" font-size="10.00">Pattern.GetRealBody</text>
</a>
</g>
</g>
<!-- Node4&#45;&gt;Node7 -->
<g id="edge7" class="edge">
<title>Node4&#45;&gt;Node7</title>
<path fill="none" stroke="midnightblue" d="M533.76,-150.45C557.41,-137.94 588.94,-122.27 618,-111 623.56,-108.85 629.33,-106.77 635.19,-104.77"/>
<polygon fill="midnightblue" stroke="midnightblue" points="636.69,-107.96 645.09,-101.51 634.5,-101.32 636.69,-107.96"/>
</g>
<!-- Node8 -->
<g id="node8" class="node">
<title>Node8</title>
<g id="a_node8"><a xlink:href="classQuantConnect_1_1Indicators_1_1CandlestickPatterns_1_1CandlestickPattern.html#ab499aa69437c2a6e83b2f1c05421c203" target="_top" xlink:title="Returns the range of the candle&#39;s upper shadow">
<polygon fill="white" stroke="black" points="636.5,-0.5 636.5,-41.5 809.5,-41.5 809.5,-0.5 636.5,-0.5"/>
<text text-anchor="start" x="644.5" y="-29.5" font-family="Helvetica,sans-Serif" font-size="10.00">QuantConnect.Indicators.</text>
<text text-anchor="start" x="644.5" y="-18.5" font-family="Helvetica,sans-Serif" font-size="10.00">CandlestickPatterns.Candlestick</text>
<text text-anchor="middle" x="723" y="-7.5" font-family="Helvetica,sans-Serif" font-size="10.00">Pattern.GetUpperShadow</text>
</a>
</g>
</g>
<!-- Node4&#45;&gt;Node8 -->
<g id="edge8" class="edge">
<title>Node4&#45;&gt;Node8</title>
<path fill="none" stroke="midnightblue" d="M511.85,-150.44C532.9,-123.67 573.24,-77.23 618,-51 621.19,-49.13 624.5,-47.38 627.89,-45.72"/>
<polygon fill="midnightblue" stroke="midnightblue" points="629.39,-48.89 637.06,-41.58 626.51,-42.51 629.39,-48.89"/>
</g>
</g>
</svg>
