<?xml version="1.0" encoding="UTF-8" standalone="no"?>
<!DOCTYPE svg PUBLIC "-//W3C//DTD SVG 1.1//EN"
 "http://www.w3.org/Graphics/SVG/1.1/DTD/svg11.dtd">
<!-- Generated by graphviz version 2.43.0 (0)
 -->
<!-- Title: QuantConnect.Securities.MarketHoursDatabase.TryGetEntry Pages: 1 -->
<!--zoomable 416 -->
<svg id="main" version="1.1" xmlns="http://www.w3.org/2000/svg" xmlns:xlink="http://www.w3.org/1999/xlink" xml:space="preserve" onload="init(evt)">
<style type="text/css"><![CDATA[
.edge:hover path { stroke: red; }
.edge:hover polygon { stroke: red; fill: red; }
]]></style>
<script type="text/javascript"><![CDATA[
var edges = document.getElementsByTagName('g');
if (edges && edges.length) {
  for (var i=0;i<edges.length;i++) {
    if (edges[i].id.substr(0,4)=='edge') {
      edges[i].setAttribute('class','edge');
    }
  }
}
]]></script>
        <defs>
                <circle id="rim" cx="0" cy="0" r="7"/>
                <circle id="rim2" cx="0" cy="0" r="3.5"/>
                <g id="zoomPlus">
                        <use xlink:href="#rim" fill="#404040">
                                <set attributeName="fill" to="#808080" begin="zoomplus.mouseover" end="zoomplus.mouseout"/>
                        </use>
                        <path d="M-4,0h8M0,-4v8" fill="none" stroke="white" stroke-width="1.5" pointer-events="none"/>
                </g>
                <g id="zoomMin">
                        <use xlink:href="#rim" fill="#404040">
                                <set attributeName="fill" to="#808080" begin="zoomminus.mouseover" end="zoomminus.mouseout"/>
                        </use>
                        <path d="M-4,0h8" fill="none" stroke="white" stroke-width="1.5" pointer-events="none"/>
                </g>
                <g id="dirArrow">
                        <path fill="none" stroke="white" stroke-width="1.5" d="M0,-3.0v7 M-2.5,-0.5L0,-3.0L2.5,-0.5"/>
                </g>
               <g id="resetDef">
                       <use xlink:href="#rim2" fill="#404040">
                               <set attributeName="fill" to="#808080" begin="reset.mouseover" end="reset.mouseout"/>
                       </use>
               </g>
        </defs>

<script type="text/javascript">
var viewWidth = 912;
var viewHeight = 416;
var sectionId = 'dynsection-16';
</script>
<script xlink:href="svgpan.js"/>
<svg id="graph" class="graph">
<g id="viewport">
<title>QuantConnect.Securities.MarketHoursDatabase.TryGetEntry</title>
<polygon fill="white" stroke="transparent" points="-4,4 -4,-411.5 908,-411.5 908,4 -4,4"/>
<!-- Node1 -->
<g id="node1" class="node">
<title>Node1</title>
<g id="a_node1"><a xlink:title="Tries to get the entry for the specified market/symbol/security&#45;type">
<polygon fill="#bfbfbf" stroke="black" points="719,-230 719,-260 904,-260 904,-230 719,-230"/>
<text text-anchor="start" x="727" y="-248" font-family="Helvetica,sans-Serif" font-size="10.00">QuantConnect.Securities.</text>
<text text-anchor="middle" x="811.5" y="-237" font-family="Helvetica,sans-Serif" font-size="10.00">MarketHoursDatabase.TryGetEntry</text>
</a>
</g>
</g>
<!-- Node2 -->
<g id="node2" class="node">
<title>Node2</title>
<g id="a_node2"><a xlink:href="classQuantConnect_1_1Extensions.html#a6e7b57a65d282b02a39d8232be71f4e0" target="_top" xlink:title="Helper method to get a market hours entry">
<polygon fill="white" stroke="black" points="279,-377 279,-407 424,-407 424,-377 279,-377"/>
<text text-anchor="start" x="287" y="-395" font-family="Helvetica,sans-Serif" font-size="10.00">QuantConnect.Extensions.</text>
<text text-anchor="middle" x="351.5" y="-384" font-family="Helvetica,sans-Serif" font-size="10.00">GetEntry</text>
</a>
</g>
</g>
<!-- Node1&#45;&gt;Node2 -->
<g id="edge1" class="edge">
<title>Node1&#45;&gt;Node2</title>
<path fill="none" stroke="midnightblue" d="M763.48,-263.69C697.08,-289.6 571.69,-336.75 462,-368 449.83,-371.47 436.79,-374.72 424.09,-377.64"/>
<polygon fill="midnightblue" stroke="midnightblue" points="764.8,-266.93 772.84,-260.03 762.25,-260.41 764.8,-266.93"/>
</g>
<!-- Node3 -->
<g id="node3" class="node">
<title>Node3</title>
<g id="a_node3"><a xlink:href="classQuantConnect_1_1Securities_1_1MarketHoursDatabase.html#aeac6cf20dbffdbafd258f0d5f4473713" target="_top" xlink:title="Gets the entry for the specified market/symbol/security&#45;type">
<polygon fill="white" stroke="black" points="505,-230 505,-260 676,-260 676,-230 505,-230"/>
<text text-anchor="start" x="513" y="-248" font-family="Helvetica,sans-Serif" font-size="10.00">QuantConnect.Securities.</text>
<text text-anchor="middle" x="590.5" y="-237" font-family="Helvetica,sans-Serif" font-size="10.00">MarketHoursDatabase.GetEntry</text>
</a>
</g>
</g>
<!-- Node1&#45;&gt;Node3 -->
<g id="edge2" class="edge">
<title>Node1&#45;&gt;Node3</title>
<path fill="none" stroke="midnightblue" d="M708.87,-245C697.9,-245 686.83,-245 676.1,-245"/>
<polygon fill="midnightblue" stroke="midnightblue" points="708.89,-248.5 718.89,-245 708.89,-241.5 708.89,-248.5"/>
</g>
<!-- Node14 -->
<g id="node14" class="node">
<title>Node14</title>
<g id="a_node14"><a xlink:href="classQuantConnect_1_1Securities_1_1MarketHoursDatabase.html#a67b49ffdf1317fda8cbc895849478203" target="_top" xlink:title="Tries to get the entry for the specified market/symbol/security&#45;type">
<polygon fill="white" stroke="black" points="498,-181 498,-211 683,-211 683,-181 498,-181"/>
<text text-anchor="start" x="506" y="-199" font-family="Helvetica,sans-Serif" font-size="10.00">QuantConnect.Securities.</text>
<text text-anchor="middle" x="590.5" y="-188" font-family="Helvetica,sans-Serif" font-size="10.00">MarketHoursDatabase.TryGetEntry</text>
</a>
</g>
</g>
<!-- Node1&#45;&gt;Node14 -->
<g id="edge14" class="edge">
<title>Node1&#45;&gt;Node14</title>
<path fill="none" stroke="midnightblue" d="M733.37,-227.74C708.96,-222.28 682.21,-216.29 658.57,-211.01"/>
<polygon fill="midnightblue" stroke="midnightblue" points="732.78,-231.2 743.3,-229.97 734.31,-224.37 732.78,-231.2"/>
</g>
<!-- Node3&#45;&gt;Node2 -->
<g id="edge7" class="edge">
<title>Node3&#45;&gt;Node2</title>
<path fill="none" stroke="midnightblue" d="M563.1,-266.7C544.34,-282.51 518.87,-304.79 498,-326 480.75,-343.52 483.1,-355.38 462,-368 450.56,-374.84 437.4,-379.74 424.26,-383.25"/>
<polygon fill="midnightblue" stroke="midnightblue" points="565.53,-269.23 570.95,-260.13 561.03,-263.86 565.53,-269.23"/>
</g>
<!-- Node4 -->
<g id="node4" class="node">
<title>Node4</title>
<g id="a_node4"><a xlink:href="classQuantConnect_1_1Algorithm_1_1QCAlgorithm.html#a20fac1dead0a364d844f5f3179808706" target="_top" xlink:title="Creates a new user defined universe that will fire on the requested resolution during market hours.">
<polygon fill="white" stroke="black" points="249,-328 249,-358 454,-358 454,-328 249,-328"/>
<text text-anchor="start" x="257" y="-346" font-family="Helvetica,sans-Serif" font-size="10.00">QuantConnect.Algorithm.QCAlgorithm.</text>
<text text-anchor="middle" x="351.5" y="-335" font-family="Helvetica,sans-Serif" font-size="10.00">AddUniverse</text>
</a>
</g>
</g>
<!-- Node3&#45;&gt;Node4 -->
<g id="edge3" class="edge">
<title>Node3&#45;&gt;Node4</title>
<path fill="none" stroke="midnightblue" d="M559.67,-265.9C534.65,-282.54 497.42,-305.23 462,-319 453.2,-322.42 443.81,-325.41 434.36,-328"/>
<polygon fill="midnightblue" stroke="midnightblue" points="561.65,-268.79 567.99,-260.3 557.74,-262.98 561.65,-268.79"/>
</g>
<!-- Node5 -->
<g id="node5" class="node">
<title>Node5</title>
<g id="a_node5"><a xlink:href="classQuantConnect_1_1Securities_1_1MarketHoursDatabase.html#a92534128098fef25ab73e8d2faf58793" target="_top" xlink:title="Performs a lookup using the specified information and returns the data&#39;s time zone if found,...">
<polygon fill="white" stroke="black" points="242.5,-279 242.5,-309 460.5,-309 460.5,-279 242.5,-279"/>
<text text-anchor="start" x="250.5" y="-297" font-family="Helvetica,sans-Serif" font-size="10.00">QuantConnect.Securities.</text>
<text text-anchor="middle" x="351.5" y="-286" font-family="Helvetica,sans-Serif" font-size="10.00">MarketHoursDatabase.GetDataTimeZone</text>
</a>
</g>
</g>
<!-- Node3&#45;&gt;Node5 -->
<g id="edge4" class="edge">
<title>Node3&#45;&gt;Node5</title>
<path fill="none" stroke="midnightblue" d="M506.73,-262.11C480.13,-267.61 450.89,-273.66 425.08,-278.99"/>
<polygon fill="midnightblue" stroke="midnightblue" points="507.7,-265.49 516.78,-260.03 506.28,-258.63 507.7,-265.49"/>
</g>
<!-- Node8 -->
<g id="node8" class="node">
<title>Node8</title>
<g id="a_node8"><a xlink:href="classQuantConnect_1_1Securities_1_1MarketHoursDatabase.html#a7ff5c3f3b78dc47dcfc2156a06882bbd" target="_top" xlink:title="Gets the entry for the specified market/symbol/security&#45;type">
<polygon fill="white" stroke="black" points="266,-230 266,-260 437,-260 437,-230 266,-230"/>
<text text-anchor="start" x="274" y="-248" font-family="Helvetica,sans-Serif" font-size="10.00">QuantConnect.Securities.</text>
<text text-anchor="middle" x="351.5" y="-237" font-family="Helvetica,sans-Serif" font-size="10.00">MarketHoursDatabase.GetEntry</text>
</a>
</g>
</g>
<!-- Node3&#45;&gt;Node8 -->
<g id="edge8" class="edge">
<title>Node3&#45;&gt;Node8</title>
<path fill="none" stroke="midnightblue" d="M494.75,-245C475.67,-245 455.73,-245 437.03,-245"/>
<polygon fill="midnightblue" stroke="midnightblue" points="494.94,-248.5 504.94,-245 494.94,-241.5 494.94,-248.5"/>
</g>
<!-- Node9 -->
<g id="node9" class="node">
<title>Node9</title>
<g id="a_node9"><a xlink:href="classQuantConnect_1_1Securities_1_1MarketHoursDatabase.html#a5c7591a1165130392c4606037f2b916b" target="_top" xlink:title="Convenience method for retrieving exchange hours from market hours database using a subscription conf...">
<polygon fill="white" stroke="black" points="241,-181 241,-211 462,-211 462,-181 241,-181"/>
<text text-anchor="start" x="249" y="-199" font-family="Helvetica,sans-Serif" font-size="10.00">QuantConnect.Securities.</text>
<text text-anchor="middle" x="351.5" y="-188" font-family="Helvetica,sans-Serif" font-size="10.00">MarketHoursDatabase.GetExchangeHours</text>
</a>
</g>
</g>
<!-- Node3&#45;&gt;Node9 -->
<g id="edge9" class="edge">
<title>Node3&#45;&gt;Node9</title>
<path fill="none" stroke="midnightblue" d="M506.73,-227.89C480.13,-222.39 450.89,-216.34 425.08,-211.01"/>
<polygon fill="midnightblue" stroke="midnightblue" points="506.28,-231.37 516.78,-229.97 507.7,-224.51 506.28,-231.37"/>
</g>
<!-- Node10 -->
<g id="node10" class="node">
<title>Node10</title>
<g id="a_node10"><a xlink:href="classQuantConnect_1_1Securities_1_1Future_1_1FuturesExpiryUtilityFunctions.html#a9aa543735102b14ff694b42d1ee142d4" target="_top" xlink:title="Get holiday list from the MHDB given the market and the symbol of the security">
<polygon fill="white" stroke="black" points="253,-120.5 253,-161.5 450,-161.5 450,-120.5 253,-120.5"/>
<text text-anchor="start" x="261" y="-149.5" font-family="Helvetica,sans-Serif" font-size="10.00">QuantConnect.Securities.</text>
<text text-anchor="start" x="261" y="-138.5" font-family="Helvetica,sans-Serif" font-size="10.00">Future.FuturesExpiryUtilityFunctions.</text>
<text text-anchor="middle" x="351.5" y="-127.5" font-family="Helvetica,sans-Serif" font-size="10.00">GetHolidays</text>
</a>
</g>
</g>
<!-- Node3&#45;&gt;Node10 -->
<g id="edge10" class="edge">
<title>Node3&#45;&gt;Node10</title>
<path fill="none" stroke="midnightblue" d="M505.09,-225.35C502.65,-224 500.28,-222.55 498,-221 475.65,-205.81 484.2,-187.4 462,-172 456.32,-168.06 450.14,-164.61 443.72,-161.61"/>
<polygon fill="midnightblue" stroke="midnightblue" points="503.7,-228.57 514.22,-229.86 506.8,-222.29 503.7,-228.57"/>
</g>
<!-- Node11 -->
<g id="node11" class="node">
<title>Node11</title>
<g id="a_node11"><a xlink:href="classQuantConnect_1_1Securities_1_1Option_1_1OptionSymbol.html#a75217e30f16bc69188675c474bb703b0" target="_top" xlink:title="Returns the last trading date for the option contract">
<polygon fill="white" stroke="black" points="261,-60.5 261,-101.5 442,-101.5 442,-60.5 261,-60.5"/>
<text text-anchor="start" x="269" y="-89.5" font-family="Helvetica,sans-Serif" font-size="10.00">QuantConnect.Securities.</text>
<text text-anchor="start" x="269" y="-78.5" font-family="Helvetica,sans-Serif" font-size="10.00">Option.OptionSymbol.GetLastDay</text>
<text text-anchor="middle" x="351.5" y="-67.5" font-family="Helvetica,sans-Serif" font-size="10.00">OfTrading</text>
</a>
</g>
</g>
<!-- Node3&#45;&gt;Node11 -->
<g id="edge11" class="edge">
<title>Node3&#45;&gt;Node11</title>
<path fill="none" stroke="midnightblue" d="M501.48,-224.03C500.28,-223.07 499.12,-222.06 498,-221 460.56,-185.73 499.25,-146.47 462,-111 456.15,-105.43 449.36,-100.87 442.09,-97.15"/>
<polygon fill="midnightblue" stroke="midnightblue" points="499.64,-227.02 509.86,-229.81 503.61,-221.25 499.64,-227.02"/>
</g>
<!-- Node13 -->
<g id="node13" class="node">
<title>Node13</title>
<g id="a_node13"><a xlink:href="classQuantConnect_1_1Lean_1_1Engine_1_1DataFeeds_1_1FileSystemDataFeed.html#a8b10a0ccb5a8884f80c527cf25c992f5" target="_top" xlink:title="If required will add a new enumerator for the underlying symbol">
<polygon fill="white" stroke="black" points="257,-0.5 257,-41.5 446,-41.5 446,-0.5 257,-0.5"/>
<text text-anchor="start" x="265" y="-29.5" font-family="Helvetica,sans-Serif" font-size="10.00">QuantConnect.Lean.Engine.</text>
<text text-anchor="start" x="265" y="-18.5" font-family="Helvetica,sans-Serif" font-size="10.00">DataFeeds.FileSystemDataFeed.Try</text>
<text text-anchor="middle" x="351.5" y="-7.5" font-family="Helvetica,sans-Serif" font-size="10.00">AppendUnderlyingEnumerator</text>
</a>
</g>
</g>
<!-- Node3&#45;&gt;Node13 -->
<g id="edge13" class="edge">
<title>Node3&#45;&gt;Node13</title>
<path fill="none" stroke="midnightblue" d="M500.87,-223.8C499.88,-222.9 498.92,-221.97 498,-221 444.71,-165.1 514.98,-107.19 462,-51 457.33,-46.05 451.94,-41.89 446.09,-38.4"/>
<polygon fill="midnightblue" stroke="midnightblue" points="498.93,-226.72 509.01,-229.99 503.17,-221.15 498.93,-226.72"/>
</g>
<!-- Node6 -->
<g id="node6" class="node">
<title>Node6</title>
<g id="a_node6"><a xlink:href="classQuantConnect_1_1ToolBox_1_1LeanDataReader.html#ac23439fd286135eaf5c3047bf52eb517" target="_top" xlink:title="Initialize a instance of LeanDataReader from a path to a zipped data file. It also supports declaring...">
<polygon fill="white" stroke="black" points="23.5,-303 23.5,-333 181.5,-333 181.5,-303 23.5,-303"/>
<text text-anchor="start" x="31.5" y="-321" font-family="Helvetica,sans-Serif" font-size="10.00">QuantConnect.ToolBox.Lean</text>
<text text-anchor="middle" x="102.5" y="-310" font-family="Helvetica,sans-Serif" font-size="10.00">DataReader.LeanDataReader</text>
</a>
</g>
</g>
<!-- Node5&#45;&gt;Node6 -->
<g id="edge5" class="edge">
<title>Node5&#45;&gt;Node6</title>
<path fill="none" stroke="midnightblue" d="M232.11,-305.5C215,-307.17 197.75,-308.84 181.69,-310.4"/>
<polygon fill="midnightblue" stroke="midnightblue" points="232.55,-308.98 242.16,-304.53 231.87,-302.01 232.55,-308.98"/>
</g>
<!-- Node7 -->
<g id="node7" class="node">
<title>Node7</title>
<g id="a_node7"><a xlink:href="classQuantConnect_1_1Algorithm_1_1QCAlgorithm.html#ad8a5d8d6d6fd62a8a3962f0649567804" target="_top" xlink:title="Called by setup handlers after Initialize and allows the algorithm a chance to organize the data gath...">
<polygon fill="white" stroke="black" points="0,-254 0,-284 205,-284 205,-254 0,-254"/>
<text text-anchor="start" x="8" y="-272" font-family="Helvetica,sans-Serif" font-size="10.00">QuantConnect.Algorithm.QCAlgorithm.</text>
<text text-anchor="middle" x="102.5" y="-261" font-family="Helvetica,sans-Serif" font-size="10.00">PostInitialize</text>
</a>
</g>
</g>
<!-- Node5&#45;&gt;Node7 -->
<g id="edge6" class="edge">
<title>Node5&#45;&gt;Node7</title>
<path fill="none" stroke="midnightblue" d="M232.03,-282.01C223.02,-281.1 213.99,-280.18 205.11,-279.28"/>
<polygon fill="midnightblue" stroke="midnightblue" points="231.86,-285.51 242.16,-283.03 232.57,-278.55 231.86,-285.51"/>
</g>
<!-- Node12 -->
<g id="node12" class="node">
<title>Node12</title>
<g id="a_node12"><a xlink:href="classQuantConnect_1_1Extensions.html#a0ffdbe5701923c4217f90dd5fbe87641" target="_top" xlink:title="Gets the delisting date for the provided Symbol">
<polygon fill="white" stroke="black" points="30,-66 30,-96 175,-96 175,-66 30,-66"/>
<text text-anchor="start" x="38" y="-84" font-family="Helvetica,sans-Serif" font-size="10.00">QuantConnect.Extensions.</text>
<text text-anchor="middle" x="102.5" y="-73" font-family="Helvetica,sans-Serif" font-size="10.00">GetDelistingDate</text>
</a>
</g>
</g>
<!-- Node11&#45;&gt;Node12 -->
<g id="edge12" class="edge">
<title>Node11&#45;&gt;Node12</title>
<path fill="none" stroke="midnightblue" d="M250.65,-81C225.43,-81 198.85,-81 175.32,-81"/>
<polygon fill="midnightblue" stroke="midnightblue" points="250.98,-84.5 260.98,-81 250.98,-77.5 250.98,-84.5"/>
</g>
</g>
</svg>
        <g id="navigator" transform="translate(0 0)" fill="#404254">
                <rect fill="#f2f5e9" fill-opacity="0.5" stroke="#606060" stroke-width=".5" x="0" y="0" width="60" height="60"/>
                <use id="zoomplus" xlink:href="#zoomPlus" x="17" y="9" onmousedown="handleZoom(evt,'in')"/>
                <use id="zoomminus" xlink:href="#zoomMin" x="42" y="9" onmousedown="handleZoom(evt,'out')"/>
                <use id="reset" xlink:href="#resetDef" x="30" y="36" onmousedown="handleReset()"/>
                <g id="arrowUp" xlink:href="#dirArrow" transform="translate(30 24)" onmousedown="handlePan(0,-1)">
                  <use xlink:href="#rim" fill="#404040">
                        <set attributeName="fill" to="#808080" begin="arrowUp.mouseover" end="arrowUp.mouseout"/>
                  </use>
                  <path fill="none" stroke="white" stroke-width="1.5" d="M0,-3.0v7 M-2.5,-0.5L0,-3.0L2.5,-0.5"/>
                </g>
                <g id="arrowRight" xlink:href="#dirArrow" transform="rotate(90) translate(36 -43)" onmousedown="handlePan(1,0)">
                  <use xlink:href="#rim" fill="#404040">
                        <set attributeName="fill" to="#808080" begin="arrowRight.mouseover" end="arrowRight.mouseout"/>
                  </use>
                  <path fill="none" stroke="white" stroke-width="1.5" d="M0,-3.0v7 M-2.5,-0.5L0,-3.0L2.5,-0.5"/>
                </g>
                <g id="arrowDown" xlink:href="#dirArrow" transform="rotate(180) translate(-30 -48)" onmousedown="handlePan(0,1)">
                  <use xlink:href="#rim" fill="#404040">
                        <set attributeName="fill" to="#808080" begin="arrowDown.mouseover" end="arrowDown.mouseout"/>
                  </use>
                  <path fill="none" stroke="white" stroke-width="1.5" d="M0,-3.0v7 M-2.5,-0.5L0,-3.0L2.5,-0.5"/>
                </g>
                <g id="arrowLeft" xlink:href="#dirArrow" transform="rotate(270) translate(-36 17)" onmousedown="handlePan(-1,0)">
                  <use xlink:href="#rim" fill="#404040">
                        <set attributeName="fill" to="#808080" begin="arrowLeft.mouseover" end="arrowLeft.mouseout"/>
                  </use>
                  <path fill="none" stroke="white" stroke-width="1.5" d="M0,-3.0v7 M-2.5,-0.5L0,-3.0L2.5,-0.5"/>
                </g>
        </g>
        <svg viewBox="0 0 15 15" width="100%" height="30px" preserveAspectRatio="xMaxYMin meet">
         <g id="arrow_out" transform="scale(0.3 0.3)">
          <a xlink:href="classQuantConnect_1_1Securities_1_1MarketHoursDatabase_a3eedd1459368e8f50da2cedfc7508006_icgraph_org.svg" target="_base">
           <rect id="button" ry="5" rx="5" y="6" x="6" height="38" width="38"
                fill="#f2f5e9" fill-opacity="0.5" stroke="#606060" stroke-width="1.0"/>
           <path id="arrow"
             d="M 11.500037,31.436501 C 11.940474,20.09759 22.043105,11.32322 32.158766,21.979434 L 37.068811,17.246167 C 37.068811,17.246167 37.088388,32 37.088388,32 L 22.160133,31.978069 C 22.160133,31.978069 26.997745,27.140456 26.997745,27.140456 C 18.528582,18.264221 13.291696,25.230495 11.500037,31.436501 z"
             style="fill:#404040;"/>
          </a>
         </g>
        </svg>
</svg>
