<?xml version="1.0" encoding="UTF-8" standalone="no"?>
<!DOCTYPE svg PUBLIC "-//W3C//DTD SVG 1.1//EN"
 "http://www.w3.org/Graphics/SVG/1.1/DTD/svg11.dtd">
<!-- Generated by graphviz version 2.43.0 (0)
 -->
<!-- Title: QuantConnect.Data.Fundamental.FineFundamental.Clone Pages: 1 -->
<svg width="632pt" height="39pt"
 viewBox="0.00 0.00 632.00 39.00" xmlns="http://www.w3.org/2000/svg" xmlns:xlink="http://www.w3.org/1999/xlink">
<g id="graph0" class="graph" transform="scale(1 1) rotate(0) translate(4 35)">
<title>QuantConnect.Data.Fundamental.FineFundamental.Clone</title>
<polygon fill="white" stroke="transparent" points="-4,4 -4,-35 628,-35 628,4 -4,4"/>
<!-- Node1 -->
<g id="node1" class="node">
<title>Node1</title>
<g id="a_node1"><a xlink:title="Clones this fine data instance">
<polygon fill="#bfbfbf" stroke="black" points="0,-0.5 0,-30.5 182,-30.5 182,-0.5 0,-0.5"/>
<text text-anchor="start" x="8" y="-18.5" font-family="Helvetica,sans-Serif" font-size="10.00">QuantConnect.Data.Fundamental.</text>
<text text-anchor="middle" x="91" y="-7.5" font-family="Helvetica,sans-Serif" font-size="10.00">FineFundamental.Clone</text>
</a>
</g>
</g>
<!-- Node2 -->
<g id="node2" class="node">
<title>Node2</title>
<g id="a_node2"><a xlink:href="classQuantConnect_1_1Data_1_1Fundamental_1_1FineFundamental.html#a0d6c80007f94158738be9614291683d1" target="_top" xlink:title="Creates a new empty instance">
<polygon fill="white" stroke="black" points="218,-0.5 218,-30.5 406,-30.5 406,-0.5 218,-0.5"/>
<text text-anchor="start" x="226" y="-18.5" font-family="Helvetica,sans-Serif" font-size="10.00">QuantConnect.Data.Fundamental.</text>
<text text-anchor="middle" x="312" y="-7.5" font-family="Helvetica,sans-Serif" font-size="10.00">FineFundamental.FineFundamental</text>
</a>
</g>
</g>
<!-- Node1&#45;&gt;Node2 -->
<g id="edge1" class="edge">
<title>Node1&#45;&gt;Node2</title>
<path fill="none" stroke="midnightblue" d="M182.02,-15.5C190.5,-15.5 199.14,-15.5 207.73,-15.5"/>
<polygon fill="midnightblue" stroke="midnightblue" points="207.78,-19 217.78,-15.5 207.78,-12 207.78,-19"/>
</g>
<!-- Node3 -->
<g id="node3" class="node">
<title>Node3</title>
<g id="a_node3"><a xlink:href="classQuantConnect_1_1Data_1_1Fundamental_1_1FundamentalInstanceProvider.html#a05b79e255cb2e98815d6f3a69e256e91" target="_top" xlink:title="Get&#39;s the fundamental instance provider for the requested symbol">
<polygon fill="white" stroke="black" points="442,-0.5 442,-30.5 624,-30.5 624,-0.5 442,-0.5"/>
<text text-anchor="start" x="450" y="-18.5" font-family="Helvetica,sans-Serif" font-size="10.00">QuantConnect.Data.Fundamental.</text>
<text text-anchor="middle" x="533" y="-7.5" font-family="Helvetica,sans-Serif" font-size="10.00">FundamentalInstanceProvider.Get</text>
</a>
</g>
</g>
<!-- Node2&#45;&gt;Node3 -->
<g id="edge2" class="edge">
<title>Node2&#45;&gt;Node3</title>
<path fill="none" stroke="midnightblue" d="M406.19,-15.5C414.55,-15.5 423.04,-15.5 431.46,-15.5"/>
<polygon fill="midnightblue" stroke="midnightblue" points="431.68,-19 441.68,-15.5 431.68,-12 431.68,-19"/>
</g>
</g>
</svg>
