<?xml version="1.0" encoding="UTF-8" standalone="no"?>
<!DOCTYPE svg PUBLIC "-//W3C//DTD SVG 1.1//EN"
 "http://www.w3.org/Graphics/SVG/1.1/DTD/svg11.dtd">
<!-- Generated by graphviz version 2.43.0 (0)
 -->
<!-- Title: QuantConnect.Orders.MarketOnCloseOrder.Clone Pages: 1 -->
<svg width="577pt" height="112pt"
 viewBox="0.00 0.00 577.00 112.00" xmlns="http://www.w3.org/2000/svg" xmlns:xlink="http://www.w3.org/1999/xlink">
<g id="graph0" class="graph" transform="scale(1 1) rotate(0) translate(4 108)">
<title>QuantConnect.Orders.MarketOnCloseOrder.Clone</title>
<polygon fill="white" stroke="transparent" points="-4,4 -4,-108 573,-108 573,4 -4,4"/>
<!-- Node1 -->
<g id="node1" class="node">
<title>Node1</title>
<g id="a_node1"><a xlink:title="Creates a deep&#45;copy clone of this order">
<polygon fill="#bfbfbf" stroke="black" points="0,-24.5 0,-54.5 158,-54.5 158,-24.5 0,-24.5"/>
<text text-anchor="start" x="8" y="-42.5" font-family="Helvetica,sans-Serif" font-size="10.00">QuantConnect.Orders.Market</text>
<text text-anchor="middle" x="79" y="-31.5" font-family="Helvetica,sans-Serif" font-size="10.00">OnCloseOrder.Clone</text>
</a>
</g>
</g>
<!-- Node2 -->
<g id="node2" class="node">
<title>Node2</title>
<g id="a_node2"><a xlink:href="classQuantConnect_1_1Orders_1_1Order.html#a7e89368b886aff5b24cd3e5b42d7a103" target="_top" xlink:title="Copies base Order properties to the specified order">
<polygon fill="white" stroke="black" points="211.5,-49.5 211.5,-79.5 364.5,-79.5 364.5,-49.5 211.5,-49.5"/>
<text text-anchor="start" x="219.5" y="-67.5" font-family="Helvetica,sans-Serif" font-size="10.00">QuantConnect.Orders.Order.</text>
<text text-anchor="middle" x="288" y="-56.5" font-family="Helvetica,sans-Serif" font-size="10.00">CopyTo</text>
</a>
</g>
</g>
<!-- Node1&#45;&gt;Node2 -->
<g id="edge1" class="edge">
<title>Node1&#45;&gt;Node2</title>
<path fill="none" stroke="midnightblue" d="M158.26,-48.95C172.26,-50.64 186.92,-52.41 201.13,-54.13"/>
<polygon fill="midnightblue" stroke="midnightblue" points="201.02,-57.64 211.37,-55.37 201.86,-50.69 201.02,-57.64"/>
</g>
<!-- Node5 -->
<g id="node5" class="node">
<title>Node5</title>
<g id="a_node5"><a xlink:href="classQuantConnect_1_1Orders_1_1MarketOnCloseOrder.html#aa9522decda4d1e398e9aa01d77d8613d" target="_top" xlink:title="Intiializes a new instance of the MarketOnCloseOrder class.">
<polygon fill="white" stroke="black" points="194,-0.5 194,-30.5 382,-30.5 382,-0.5 194,-0.5"/>
<text text-anchor="start" x="202" y="-18.5" font-family="Helvetica,sans-Serif" font-size="10.00">QuantConnect.Orders.Market</text>
<text text-anchor="middle" x="288" y="-7.5" font-family="Helvetica,sans-Serif" font-size="10.00">OnCloseOrder.MarketOnCloseOrder</text>
</a>
</g>
</g>
<!-- Node1&#45;&gt;Node5 -->
<g id="edge4" class="edge">
<title>Node1&#45;&gt;Node5</title>
<path fill="none" stroke="midnightblue" d="M158.26,-30.43C166.57,-29.46 175.11,-28.47 183.65,-27.48"/>
<polygon fill="midnightblue" stroke="midnightblue" points="184.13,-30.95 193.66,-26.32 183.33,-24 184.13,-30.95"/>
</g>
<!-- Node3 -->
<g id="node3" class="node">
<title>Node3</title>
<g id="a_node3"><a xlink:href="interfaceQuantConnect_1_1Interfaces_1_1IOrderProperties.html#a683b82212fc9f952e098f8eb4e634643" target="_top" xlink:title="Returns a new instance clone of this object">
<polygon fill="white" stroke="black" points="423.5,-73.5 423.5,-103.5 563.5,-103.5 563.5,-73.5 423.5,-73.5"/>
<text text-anchor="start" x="431.5" y="-91.5" font-family="Helvetica,sans-Serif" font-size="10.00">QuantConnect.Interfaces.</text>
<text text-anchor="middle" x="493.5" y="-80.5" font-family="Helvetica,sans-Serif" font-size="10.00">IOrderProperties.Clone</text>
</a>
</g>
</g>
<!-- Node2&#45;&gt;Node3 -->
<g id="edge2" class="edge">
<title>Node2&#45;&gt;Node3</title>
<path fill="none" stroke="midnightblue" d="M364.78,-73.44C380.53,-75.3 397.18,-77.26 413.07,-79.13"/>
<polygon fill="midnightblue" stroke="midnightblue" points="413.04,-82.65 423.38,-80.35 413.86,-75.7 413.04,-82.65"/>
</g>
<!-- Node4 -->
<g id="node4" class="node">
<title>Node4</title>
<g id="a_node4"><a xlink:href="classQuantConnect_1_1Orders_1_1OrderSubmissionData.html#a98b3dd7d7d7198d062b6b005b45c0161" target="_top" xlink:title="Return a new instance clone of this object">
<polygon fill="white" stroke="black" points="418,-24.5 418,-54.5 569,-54.5 569,-24.5 418,-24.5"/>
<text text-anchor="start" x="426" y="-42.5" font-family="Helvetica,sans-Serif" font-size="10.00">QuantConnect.Orders.Order</text>
<text text-anchor="middle" x="493.5" y="-31.5" font-family="Helvetica,sans-Serif" font-size="10.00">SubmissionData.Clone</text>
</a>
</g>
</g>
<!-- Node2&#45;&gt;Node4 -->
<g id="edge3" class="edge">
<title>Node2&#45;&gt;Node4</title>
<path fill="none" stroke="midnightblue" d="M364.78,-55.19C378.69,-53.48 393.3,-51.69 407.46,-49.95"/>
<polygon fill="midnightblue" stroke="midnightblue" points="408.18,-53.39 417.68,-48.69 407.32,-46.44 408.18,-53.39"/>
</g>
</g>
</svg>
