<?xml version="1.0" encoding="UTF-8" standalone="no"?>
<!DOCTYPE svg PUBLIC "-//W3C//DTD SVG 1.1//EN"
 "http://www.w3.org/Graphics/SVG/1.1/DTD/svg11.dtd">
<!-- Generated by graphviz version 2.43.0 (0)
 -->
<!-- Title: QuantConnect.Exceptions.StackExceptionInterpreter.CreateFromAssemblies Pages: 1 -->
<svg width="581pt" height="100pt"
 viewBox="0.00 0.00 581.00 99.50" xmlns="http://www.w3.org/2000/svg" xmlns:xlink="http://www.w3.org/1999/xlink">
<g id="graph0" class="graph" transform="scale(1 1) rotate(0) translate(4 95.5)">
<title>QuantConnect.Exceptions.StackExceptionInterpreter.CreateFromAssemblies</title>
<polygon fill="white" stroke="transparent" points="-4,4 -4,-95.5 577,-95.5 577,4 -4,4"/>
<!-- Node1 -->
<g id="node1" class="node">
<title>Node1</title>
<g id="a_node1"><a xlink:title="Creates a new StackExceptionInterpreter by loading implementations with default constructors from the...">
<polygon fill="#bfbfbf" stroke="black" points="0,-27.5 0,-68.5 178,-68.5 178,-27.5 0,-27.5"/>
<text text-anchor="start" x="8" y="-56.5" font-family="Helvetica,sans-Serif" font-size="10.00">QuantConnect.Exceptions.</text>
<text text-anchor="start" x="8" y="-45.5" font-family="Helvetica,sans-Serif" font-size="10.00">StackExceptionInterpreter.Create</text>
<text text-anchor="middle" x="89" y="-34.5" font-family="Helvetica,sans-Serif" font-size="10.00">FromAssemblies</text>
</a>
</g>
</g>
<!-- Node2 -->
<g id="node2" class="node">
<title>Node2</title>
<g id="a_node2"><a xlink:href="classQuantConnect_1_1Logging_1_1Log.html#ad908daef9d61532d7d60c9dcfb9a3e0c" target="_top" xlink:title="Output to the console">
<polygon fill="white" stroke="black" points="225.5,-61 225.5,-91 375.5,-91 375.5,-61 225.5,-61"/>
<text text-anchor="start" x="233.5" y="-79" font-family="Helvetica,sans-Serif" font-size="10.00">QuantConnect.Logging.Log.</text>
<text text-anchor="middle" x="300.5" y="-68" font-family="Helvetica,sans-Serif" font-size="10.00">Debug</text>
</a>
</g>
</g>
<!-- Node1&#45;&gt;Node2 -->
<g id="edge1" class="edge">
<title>Node1&#45;&gt;Node2</title>
<path fill="none" stroke="midnightblue" d="M178.24,-59.79C190.47,-61.43 203.01,-63.1 215.17,-64.73"/>
<polygon fill="midnightblue" stroke="midnightblue" points="214.9,-68.22 225.27,-66.08 215.83,-61.29 214.9,-68.22"/>
</g>
<!-- Node4 -->
<g id="node4" class="node">
<title>Node4</title>
<g id="a_node4"><a xlink:href="classQuantConnect_1_1Exceptions_1_1StackExceptionInterpreter.html#af3c1cd3b0571051db4b382a0276edf7c" target="_top" xlink:title="Initializes a new instance of the StackExceptionInterpreter class">
<polygon fill="white" stroke="black" points="214,-0.5 214,-41.5 387,-41.5 387,-0.5 214,-0.5"/>
<text text-anchor="start" x="222" y="-29.5" font-family="Helvetica,sans-Serif" font-size="10.00">QuantConnect.Exceptions.</text>
<text text-anchor="start" x="222" y="-18.5" font-family="Helvetica,sans-Serif" font-size="10.00">StackExceptionInterpreter.Stack</text>
<text text-anchor="middle" x="300.5" y="-7.5" font-family="Helvetica,sans-Serif" font-size="10.00">ExceptionInterpreter</text>
</a>
</g>
</g>
<!-- Node1&#45;&gt;Node4 -->
<g id="edge3" class="edge">
<title>Node1&#45;&gt;Node4</title>
<path fill="none" stroke="midnightblue" d="M178.24,-36.63C186.68,-35.54 195.27,-34.43 203.77,-33.34"/>
<polygon fill="midnightblue" stroke="midnightblue" points="204.24,-36.81 213.71,-32.06 203.34,-29.86 204.24,-36.81"/>
</g>
<!-- Node3 -->
<g id="node3" class="node">
<title>Node3</title>
<g id="a_node3"><a xlink:href="interfaceQuantConnect_1_1Logging_1_1ILogHandler.html#a2c738b8e78dd5b54244bc68b969ba91d" target="_top" xlink:title="Write debug message to log">
<polygon fill="white" stroke="black" points="423,-61 423,-91 573,-91 573,-61 423,-61"/>
<text text-anchor="start" x="431" y="-79" font-family="Helvetica,sans-Serif" font-size="10.00">QuantConnect.Logging.ILog</text>
<text text-anchor="middle" x="498" y="-68" font-family="Helvetica,sans-Serif" font-size="10.00">Handler.Debug</text>
</a>
</g>
</g>
<!-- Node2&#45;&gt;Node3 -->
<g id="edge2" class="edge">
<title>Node2&#45;&gt;Node3</title>
<path fill="none" stroke="midnightblue" d="M375.69,-76C387.76,-76 400.33,-76 412.62,-76"/>
<polygon fill="midnightblue" stroke="midnightblue" points="412.86,-79.5 422.86,-76 412.86,-72.5 412.86,-79.5"/>
</g>
</g>
</svg>
