<?xml version="1.0" encoding="UTF-8" standalone="no"?>
<!DOCTYPE svg PUBLIC "-//W3C//DTD SVG 1.1//EN"
 "http://www.w3.org/Graphics/SVG/1.1/DTD/svg11.dtd">
<!-- Generated by graphviz version 2.43.0 (0)
 -->
<!-- Title: QuantConnect.Securities.Option.StrategyMatcher.OptionStrategyDefinitionMatch.Equals Pages: 1 -->
<svg width="410pt" height="170pt"
 viewBox="0.00 0.00 410.00 170.00" xmlns="http://www.w3.org/2000/svg" xmlns:xlink="http://www.w3.org/1999/xlink">
<g id="graph0" class="graph" transform="scale(1 1) rotate(0) translate(4 166)">
<title>QuantConnect.Securities.Option.StrategyMatcher.OptionStrategyDefinitionMatch.Equals</title>
<polygon fill="white" stroke="transparent" points="-4,4 -4,-166 406,-166 406,4 -4,4"/>
<!-- Node1 -->
<g id="node1" class="node">
<title>Node1</title>
<g id="a_node1"><a xlink:title="Indicates whether the current object is equal to another object of the same type.">
<polygon fill="#bfbfbf" stroke="black" points="232,-60.5 232,-101.5 402,-101.5 402,-60.5 232,-60.5"/>
<text text-anchor="start" x="240" y="-89.5" font-family="Helvetica,sans-Serif" font-size="10.00">QuantConnect.Securities.</text>
<text text-anchor="start" x="240" y="-78.5" font-family="Helvetica,sans-Serif" font-size="10.00">Option.StrategyMatcher.Option</text>
<text text-anchor="middle" x="317" y="-67.5" font-family="Helvetica,sans-Serif" font-size="10.00">StrategyDefinitionMatch.Equals</text>
</a>
</g>
</g>
<!-- Node2 -->
<g id="node2" class="node">
<title>Node2</title>
<g id="a_node2"><a xlink:href="classQuantConnect_1_1Securities_1_1Option_1_1StrategyMatcher_1_1OptionStrategyDefinitionMatch.html#a4c87bd2e6391fecb05e60c255e97fbbd" target="_top" xlink:title="Determines whether the specified object is equal to the current object.">
<polygon fill="white" stroke="black" points="13,-120.5 13,-161.5 183,-161.5 183,-120.5 13,-120.5"/>
<text text-anchor="start" x="21" y="-149.5" font-family="Helvetica,sans-Serif" font-size="10.00">QuantConnect.Securities.</text>
<text text-anchor="start" x="21" y="-138.5" font-family="Helvetica,sans-Serif" font-size="10.00">Option.StrategyMatcher.Option</text>
<text text-anchor="middle" x="98" y="-127.5" font-family="Helvetica,sans-Serif" font-size="10.00">StrategyDefinitionMatch.Equals</text>
</a>
</g>
</g>
<!-- Node1&#45;&gt;Node2 -->
<g id="edge1" class="edge">
<title>Node1&#45;&gt;Node2</title>
<path fill="none" stroke="midnightblue" d="M231.93,-104.25C212.59,-109.59 192.17,-115.24 173.28,-120.46"/>
<polygon fill="midnightblue" stroke="midnightblue" points="232.92,-107.6 241.62,-101.56 231.05,-100.86 232.92,-107.6"/>
</g>
<!-- Node3 -->
<g id="node3" class="node">
<title>Node3</title>
<g id="a_node3"><a xlink:href="classQuantConnect_1_1Securities_1_1Option_1_1StrategyMatcher_1_1OptionStrategyDefinitionMatch.html#a09020f2c784638998e1b7914621485fe" target="_top" xlink:title="OptionStrategyDefinitionMatch != Operator">
<polygon fill="white" stroke="black" points="2.5,-60.5 2.5,-101.5 193.5,-101.5 193.5,-60.5 2.5,-60.5"/>
<text text-anchor="start" x="10.5" y="-89.5" font-family="Helvetica,sans-Serif" font-size="10.00">QuantConnect.Securities.</text>
<text text-anchor="start" x="10.5" y="-78.5" font-family="Helvetica,sans-Serif" font-size="10.00">Option.StrategyMatcher.Option</text>
<text text-anchor="middle" x="98" y="-67.5" font-family="Helvetica,sans-Serif" font-size="10.00">StrategyDefinitionMatch.operator!=</text>
</a>
</g>
</g>
<!-- Node1&#45;&gt;Node3 -->
<g id="edge2" class="edge">
<title>Node1&#45;&gt;Node3</title>
<path fill="none" stroke="midnightblue" d="M221.74,-81C212.41,-81 202.94,-81 193.61,-81"/>
<polygon fill="midnightblue" stroke="midnightblue" points="221.79,-84.5 231.79,-81 221.79,-77.5 221.79,-84.5"/>
</g>
<!-- Node4 -->
<g id="node4" class="node">
<title>Node4</title>
<g id="a_node4"><a xlink:href="classQuantConnect_1_1Securities_1_1Option_1_1StrategyMatcher_1_1OptionStrategyDefinitionMatch.html#af2a5dc910096fe117a58d33f184d021c" target="_top" xlink:title="OptionStrategyDefinitionMatch == Operator">
<polygon fill="white" stroke="black" points="0,-0.5 0,-41.5 196,-41.5 196,-0.5 0,-0.5"/>
<text text-anchor="start" x="8" y="-29.5" font-family="Helvetica,sans-Serif" font-size="10.00">QuantConnect.Securities.</text>
<text text-anchor="start" x="8" y="-18.5" font-family="Helvetica,sans-Serif" font-size="10.00">Option.StrategyMatcher.Option</text>
<text text-anchor="middle" x="98" y="-7.5" font-family="Helvetica,sans-Serif" font-size="10.00">StrategyDefinitionMatch.operator==</text>
</a>
</g>
</g>
<!-- Node1&#45;&gt;Node4 -->
<g id="edge3" class="edge">
<title>Node1&#45;&gt;Node4</title>
<path fill="none" stroke="midnightblue" d="M231.93,-57.75C212.59,-52.41 192.17,-46.76 173.28,-41.54"/>
<polygon fill="midnightblue" stroke="midnightblue" points="231.05,-61.14 241.62,-60.44 232.92,-54.4 231.05,-61.14"/>
</g>
</g>
</svg>
