<?xml version="1.0" encoding="UTF-8" standalone="no"?>
<!DOCTYPE svg PUBLIC "-//W3C//DTD SVG 1.1//EN"
 "http://www.w3.org/Graphics/SVG/1.1/DTD/svg11.dtd">
<!-- Generated by graphviz version 2.43.0 (0)
 -->
<!-- Title: QuantConnect.Algorithm.QCAlgorithm.SetBenchmark Pages: 1 -->
<svg width="1577pt" height="412pt"
 viewBox="0.00 0.00 1577.00 411.51" xmlns="http://www.w3.org/2000/svg" xmlns:xlink="http://www.w3.org/1999/xlink">
<g id="graph0" class="graph" transform="scale(1 1) rotate(0) translate(4 407.51)">
<title>QuantConnect.Algorithm.QCAlgorithm.SetBenchmark</title>
<polygon fill="white" stroke="transparent" points="-4,4 -4,-407.51 1573,-407.51 1573,4 -4,4"/>
<!-- Node1 -->
<g id="node1" class="node">
<title>Node1</title>
<g id="a_node1"><a xlink:title="Sets the benchmark used for computing statistics of the algorithm to the specified symbol">
<polygon fill="#bfbfbf" stroke="black" points="0,-196.5 0,-226.5 205,-226.5 205,-196.5 0,-196.5"/>
<text text-anchor="start" x="8" y="-214.5" font-family="Helvetica,sans-Serif" font-size="10.00">QuantConnect.Algorithm.QCAlgorithm.</text>
<text text-anchor="middle" x="102.5" y="-203.5" font-family="Helvetica,sans-Serif" font-size="10.00">SetBenchmark</text>
</a>
</g>
</g>
<!-- Node2 -->
<g id="node2" class="node">
<title>Node2</title>
<g id="a_node2"><a xlink:href="classQuantConnect_1_1Symbol.html#a350b9a625cf7bad95da82894be3cd0a8" target="_top" xlink:title="Provides a convenience method for creating a Symbol for most security types. This method currently do...">
<polygon fill="white" stroke="black" points="241,-202 241,-221 402,-221 402,-202 241,-202"/>
<text text-anchor="middle" x="321.5" y="-209" font-family="Helvetica,sans-Serif" font-size="10.00">QuantConnect.Symbol.Create</text>
</a>
</g>
</g>
<!-- Node1&#45;&gt;Node2 -->
<g id="edge1" class="edge">
<title>Node1&#45;&gt;Node2</title>
<path fill="none" stroke="midnightblue" d="M205.01,-211.5C213.56,-211.5 222.16,-211.5 230.62,-211.5"/>
<polygon fill="midnightblue" stroke="midnightblue" points="230.83,-215 240.83,-211.5 230.83,-208 230.83,-215"/>
</g>
<!-- Node3 -->
<g id="node3" class="node">
<title>Node3</title>
<g id="a_node3"><a xlink:href="classQuantConnect_1_1Symbol.html#a7518a1932d1babbff128f2ba9666a78b" target="_top" xlink:title="Provides a convenience method for creating an option Symbol.">
<polygon fill="white" stroke="black" points="444.5,-333.5 444.5,-363.5 605.5,-363.5 605.5,-333.5 444.5,-333.5"/>
<text text-anchor="start" x="452.5" y="-351.5" font-family="Helvetica,sans-Serif" font-size="10.00">QuantConnect.Symbol.Create</text>
<text text-anchor="middle" x="525" y="-340.5" font-family="Helvetica,sans-Serif" font-size="10.00">Option</text>
</a>
</g>
</g>
<!-- Node2&#45;&gt;Node3 -->
<g id="edge2" class="edge">
<title>Node2&#45;&gt;Node3</title>
<path fill="none" stroke="midnightblue" d="M330.46,-221.19C347.89,-241.85 391.62,-290.61 438,-318.5 444.94,-322.67 452.54,-326.37 460.26,-329.63"/>
<polygon fill="midnightblue" stroke="midnightblue" points="459.12,-332.94 469.7,-333.38 461.7,-326.43 459.12,-332.94"/>
</g>
<!-- Node4 -->
<g id="node4" class="node">
<title>Node4</title>
<g id="a_node4"><a xlink:href="classQuantConnect_1_1SecurityIdentifier.html#a0c21d7880c9fdd260883d11ea0c99a00" target="_top" xlink:title="Helper overload that will search the mapfiles to resolve the first date. This implementation uses the...">
<polygon fill="white" stroke="black" points="648,-366.5 648,-396.5 822,-396.5 822,-366.5 648,-366.5"/>
<text text-anchor="start" x="656" y="-384.5" font-family="Helvetica,sans-Serif" font-size="10.00">QuantConnect.SecurityIdentifier.</text>
<text text-anchor="middle" x="735" y="-373.5" font-family="Helvetica,sans-Serif" font-size="10.00">GenerateEquity</text>
</a>
</g>
</g>
<!-- Node2&#45;&gt;Node4 -->
<g id="edge13" class="edge">
<title>Node2&#45;&gt;Node4</title>
<path fill="none" stroke="midnightblue" d="M325.83,-221.16C336.57,-250.57 373.36,-339.09 438,-373.5 503.98,-408.63 590.5,-406.43 652.94,-397.98"/>
<polygon fill="midnightblue" stroke="midnightblue" points="653.74,-401.4 663.14,-396.51 652.74,-394.47 653.74,-401.4"/>
</g>
<!-- Node5 -->
<g id="node5" class="node">
<title>Node5</title>
<g id="a_node5"><a xlink:href="classQuantConnect_1_1Symbol.html#a59158f74116be3dad0ea0f3f3f134416" target="_top" xlink:title="Initializes a new instance of the Symbol class">
<polygon fill="white" stroke="black" points="652.5,-317 652.5,-336 817.5,-336 817.5,-317 652.5,-317"/>
<text text-anchor="middle" x="735" y="-324" font-family="Helvetica,sans-Serif" font-size="10.00">QuantConnect.Symbol.Symbol</text>
</a>
</g>
</g>
<!-- Node2&#45;&gt;Node5 -->
<g id="edge17" class="edge">
<title>Node2&#45;&gt;Node5</title>
<path fill="none" stroke="midnightblue" d="M334.08,-221.22C353.93,-237.3 396.37,-269.19 438,-284.5 503.74,-308.67 582.42,-319.03 642.13,-323.42"/>
<polygon fill="midnightblue" stroke="midnightblue" points="642.08,-326.92 652.3,-324.12 642.56,-319.94 642.08,-326.92"/>
</g>
<!-- Node10 -->
<g id="node10" class="node">
<title>Node10</title>
<g id="a_node10"><a xlink:href="classQuantConnect_1_1SecurityIdentifier.html#a02ca750115844561c001c2346fbafc00" target="_top" xlink:title="Generates a new SecurityIdentifier for a custom security with the option of providing the first date">
<polygon fill="white" stroke="black" points="438,-245.5 438,-275.5 612,-275.5 612,-245.5 438,-245.5"/>
<text text-anchor="start" x="446" y="-263.5" font-family="Helvetica,sans-Serif" font-size="10.00">QuantConnect.SecurityIdentifier.</text>
<text text-anchor="middle" x="525" y="-252.5" font-family="Helvetica,sans-Serif" font-size="10.00">GenerateBase</text>
</a>
</g>
</g>
<!-- Node2&#45;&gt;Node10 -->
<g id="edge9" class="edge">
<title>Node2&#45;&gt;Node10</title>
<path fill="none" stroke="midnightblue" d="M361.83,-221.06C387.56,-227.32 421.94,-235.68 452.42,-243.09"/>
<polygon fill="midnightblue" stroke="midnightblue" points="451.62,-246.5 462.16,-245.46 453.27,-239.7 451.62,-246.5"/>
</g>
<!-- Node12 -->
<g id="node12" class="node">
<title>Node12</title>
<g id="a_node12"><a xlink:href="classQuantConnect_1_1SecurityIdentifier.html#a53953b18d814c5445e4ecdcb3b555080" target="_top" xlink:title="Generates a new SecurityIdentifier for a CFD security">
<polygon fill="white" stroke="black" points="438,-196.5 438,-226.5 612,-226.5 612,-196.5 438,-196.5"/>
<text text-anchor="start" x="446" y="-214.5" font-family="Helvetica,sans-Serif" font-size="10.00">QuantConnect.SecurityIdentifier.</text>
<text text-anchor="middle" x="525" y="-203.5" font-family="Helvetica,sans-Serif" font-size="10.00">GenerateCfd</text>
</a>
</g>
</g>
<!-- Node2&#45;&gt;Node12 -->
<g id="edge11" class="edge">
<title>Node2&#45;&gt;Node12</title>
<path fill="none" stroke="midnightblue" d="M402.14,-211.5C410.6,-211.5 419.27,-211.5 427.89,-211.5"/>
<polygon fill="midnightblue" stroke="midnightblue" points="427.98,-215 437.98,-211.5 427.98,-208 427.98,-215"/>
</g>
<!-- Node13 -->
<g id="node13" class="node">
<title>Node13</title>
<g id="a_node13"><a xlink:href="classQuantConnect_1_1SecurityIdentifier.html#a5889a95a36ce927dd0a109cbfbcbe663" target="_top" xlink:title="Generates a new SecurityIdentifier for a Crypto pair">
<polygon fill="white" stroke="black" points="438,-147.5 438,-177.5 612,-177.5 612,-147.5 438,-147.5"/>
<text text-anchor="start" x="446" y="-165.5" font-family="Helvetica,sans-Serif" font-size="10.00">QuantConnect.SecurityIdentifier.</text>
<text text-anchor="middle" x="525" y="-154.5" font-family="Helvetica,sans-Serif" font-size="10.00">GenerateCrypto</text>
</a>
</g>
</g>
<!-- Node2&#45;&gt;Node13 -->
<g id="edge12" class="edge">
<title>Node2&#45;&gt;Node13</title>
<path fill="none" stroke="midnightblue" d="M361.83,-201.94C387.56,-195.68 421.94,-187.32 452.42,-179.91"/>
<polygon fill="midnightblue" stroke="midnightblue" points="453.27,-183.3 462.16,-177.54 451.62,-176.5 453.27,-183.3"/>
</g>
<!-- Node14 -->
<g id="node14" class="node">
<title>Node14</title>
<g id="a_node14"><a xlink:href="classQuantConnect_1_1SecurityIdentifier.html#a9cf0d3b208a5171e6112516ce441f18d" target="_top" xlink:title="Generates a new SecurityIdentifier for a forex pair">
<polygon fill="white" stroke="black" points="438,-98.5 438,-128.5 612,-128.5 612,-98.5 438,-98.5"/>
<text text-anchor="start" x="446" y="-116.5" font-family="Helvetica,sans-Serif" font-size="10.00">QuantConnect.SecurityIdentifier.</text>
<text text-anchor="middle" x="525" y="-105.5" font-family="Helvetica,sans-Serif" font-size="10.00">GenerateForex</text>
</a>
</g>
</g>
<!-- Node2&#45;&gt;Node14 -->
<g id="edge14" class="edge">
<title>Node2&#45;&gt;Node14</title>
<path fill="none" stroke="midnightblue" d="M334.62,-201.99C354.92,-186.46 397.57,-155.6 438,-137.5 442.45,-135.51 447.11,-133.64 451.85,-131.9"/>
<polygon fill="midnightblue" stroke="midnightblue" points="453.37,-135.08 461.68,-128.51 451.08,-128.46 453.37,-135.08"/>
</g>
<!-- Node15 -->
<g id="node15" class="node">
<title>Node15</title>
<g id="a_node15"><a xlink:href="classQuantConnect_1_1SecurityIdentifier.html#ad50a891c97cb0c084a9e2aa43607ed66" target="_top" xlink:title="Generates a new SecurityIdentifier for a future">
<polygon fill="white" stroke="black" points="438,-49.5 438,-79.5 612,-79.5 612,-49.5 438,-49.5"/>
<text text-anchor="start" x="446" y="-67.5" font-family="Helvetica,sans-Serif" font-size="10.00">QuantConnect.SecurityIdentifier.</text>
<text text-anchor="middle" x="525" y="-56.5" font-family="Helvetica,sans-Serif" font-size="10.00">GenerateFuture</text>
</a>
</g>
</g>
<!-- Node2&#45;&gt;Node15 -->
<g id="edge15" class="edge">
<title>Node2&#45;&gt;Node15</title>
<path fill="none" stroke="midnightblue" d="M328.76,-201.83C344.31,-178.6 387.13,-119.3 438,-88.5 440.85,-86.77 443.83,-85.17 446.89,-83.68"/>
<polygon fill="midnightblue" stroke="midnightblue" points="448.57,-86.76 456.31,-79.53 445.74,-80.36 448.57,-86.76"/>
</g>
<!-- Node16 -->
<g id="node16" class="node">
<title>Node16</title>
<g id="a_node16"><a xlink:href="classQuantConnect_1_1SecurityIdentifier.html#ade05a8e57b041ab484cf585be8d05699" target="_top" xlink:title="Generates a new SecurityIdentifier for a INDEX security">
<polygon fill="white" stroke="black" points="438,-0.5 438,-30.5 612,-30.5 612,-0.5 438,-0.5"/>
<text text-anchor="start" x="446" y="-18.5" font-family="Helvetica,sans-Serif" font-size="10.00">QuantConnect.SecurityIdentifier.</text>
<text text-anchor="middle" x="525" y="-7.5" font-family="Helvetica,sans-Serif" font-size="10.00">GenerateIndex</text>
</a>
</g>
</g>
<!-- Node2&#45;&gt;Node16 -->
<g id="edge16" class="edge">
<title>Node2&#45;&gt;Node16</title>
<path fill="none" stroke="midnightblue" d="M326.09,-201.96C337.55,-172.81 376.2,-84.17 438,-39.5 440.09,-37.99 442.27,-36.58 444.52,-35.25"/>
<polygon fill="midnightblue" stroke="midnightblue" points="446.26,-38.29 453.51,-30.56 443.02,-32.08 446.26,-38.29"/>
</g>
<!-- Node3&#45;&gt;Node4 -->
<g id="edge3" class="edge">
<title>Node3&#45;&gt;Node4</title>
<path fill="none" stroke="midnightblue" d="M605.53,-361.12C616.15,-362.8 627.14,-364.55 638.01,-366.27"/>
<polygon fill="midnightblue" stroke="midnightblue" points="637.51,-369.74 647.94,-367.85 638.61,-362.82 637.51,-369.74"/>
</g>
<!-- Node3&#45;&gt;Node5 -->
<g id="edge4" class="edge">
<title>Node3&#45;&gt;Node5</title>
<path fill="none" stroke="midnightblue" d="M605.53,-340.09C617.53,-338.82 630,-337.5 642.24,-336.21"/>
<polygon fill="midnightblue" stroke="midnightblue" points="642.87,-339.66 652.45,-335.13 642.14,-332.7 642.87,-339.66"/>
</g>
<!-- Node6 -->
<g id="node6" class="node">
<title>Node6</title>
<g id="a_node6"><a xlink:href="classQuantConnect_1_1Symbol.html#a59b0795fa21f46c306deb5576fa03bb9" target="_top" xlink:title="Centralized helper method to resolve alias for a symbol">
<polygon fill="white" stroke="black" points="858,-317 858,-336 1028,-336 1028,-317 858,-317"/>
<text text-anchor="middle" x="943" y="-324" font-family="Helvetica,sans-Serif" font-size="10.00">QuantConnect.Symbol.GetAlias</text>
</a>
</g>
</g>
<!-- Node5&#45;&gt;Node6 -->
<g id="edge5" class="edge">
<title>Node5&#45;&gt;Node6</title>
<path fill="none" stroke="midnightblue" d="M817.71,-326.5C827.47,-326.5 837.49,-326.5 847.4,-326.5"/>
<polygon fill="midnightblue" stroke="midnightblue" points="847.68,-330 857.68,-326.5 847.68,-323 847.68,-330"/>
</g>
<!-- Node7 -->
<g id="node7" class="node">
<title>Node7</title>
<g id="a_node7"><a xlink:href="classQuantConnect_1_1SymbolRepresentation.html#abe54ff47eb211a2a99fb47b72683e3b9" target="_top" xlink:title="Returns future symbol ticker from underlying and expiration date. Function can generate tickers of tw...">
<polygon fill="white" stroke="black" points="1064,-336.5 1064,-366.5 1267,-366.5 1267,-336.5 1064,-336.5"/>
<text text-anchor="start" x="1072" y="-354.5" font-family="Helvetica,sans-Serif" font-size="10.00">QuantConnect.SymbolRepresentation.</text>
<text text-anchor="middle" x="1165.5" y="-343.5" font-family="Helvetica,sans-Serif" font-size="10.00">GenerateFutureTicker</text>
</a>
</g>
</g>
<!-- Node6&#45;&gt;Node7 -->
<g id="edge6" class="edge">
<title>Node6&#45;&gt;Node7</title>
<path fill="none" stroke="midnightblue" d="M1027.99,-336.02C1036.39,-336.97 1045,-337.95 1053.62,-338.93"/>
<polygon fill="midnightblue" stroke="midnightblue" points="1053.4,-342.43 1063.73,-340.07 1054.19,-335.47 1053.4,-342.43"/>
</g>
<!-- Node9 -->
<g id="node9" class="node">
<title>Node9</title>
<g id="a_node9"><a xlink:href="classQuantConnect_1_1SymbolRepresentation.html#ab133044f5cf8c16e700190a2202b215e" target="_top" xlink:title="Returns option symbol ticker in accordance with OSI symbology More information can be found at http:/...">
<polygon fill="white" stroke="black" points="1064,-287.5 1064,-317.5 1267,-317.5 1267,-287.5 1064,-287.5"/>
<text text-anchor="start" x="1072" y="-305.5" font-family="Helvetica,sans-Serif" font-size="10.00">QuantConnect.SymbolRepresentation.</text>
<text text-anchor="middle" x="1165.5" y="-294.5" font-family="Helvetica,sans-Serif" font-size="10.00">GenerateOptionTickerOSI</text>
</a>
</g>
</g>
<!-- Node6&#45;&gt;Node9 -->
<g id="edge8" class="edge">
<title>Node6&#45;&gt;Node9</title>
<path fill="none" stroke="midnightblue" d="M1028.31,-317.32C1036.69,-316.41 1045.3,-315.47 1053.9,-314.54"/>
<polygon fill="midnightblue" stroke="midnightblue" points="1054.43,-318 1063.99,-313.44 1053.67,-311.04 1054.43,-318"/>
</g>
<!-- Node8 -->
<g id="node8" class="node">
<title>Node8</title>
<g id="a_node8"><a xlink:href="classQuantConnect_1_1Securities_1_1Future_1_1FuturesExpiryUtilityFunctions.html#a4ccb1e2f2fe40ff09785a74a02f26df1" target="_top" xlink:title="Gets the number of months between the contract month and the expiry date.">
<polygon fill="white" stroke="black" points="1303,-331 1303,-372 1569,-372 1569,-331 1303,-331"/>
<text text-anchor="start" x="1311" y="-360" font-family="Helvetica,sans-Serif" font-size="10.00">QuantConnect.Securities.</text>
<text text-anchor="start" x="1311" y="-349" font-family="Helvetica,sans-Serif" font-size="10.00">Future.FuturesExpiryUtilityFunctions.</text>
<text text-anchor="middle" x="1436" y="-338" font-family="Helvetica,sans-Serif" font-size="10.00">GetDeltaBetweenContractMonthAndContractExpiry</text>
</a>
</g>
</g>
<!-- Node7&#45;&gt;Node8 -->
<g id="edge7" class="edge">
<title>Node7&#45;&gt;Node8</title>
<path fill="none" stroke="midnightblue" d="M1267.24,-351.5C1275.59,-351.5 1284.11,-351.5 1292.68,-351.5"/>
<polygon fill="midnightblue" stroke="midnightblue" points="1292.76,-355 1302.76,-351.5 1292.76,-348 1292.76,-355"/>
</g>
<!-- Node11 -->
<g id="node11" class="node">
<title>Node11</title>
<g id="a_node11"><a xlink:href="classQuantConnect_1_1SecurityIdentifier.html#a19e1f9da410608020d74ed9e7d283575" target="_top" xlink:title="Generates the Symbol property for QuantConnect.SecurityType.Base security identifiers">
<polygon fill="white" stroke="black" points="648,-245.5 648,-275.5 822,-275.5 822,-245.5 648,-245.5"/>
<text text-anchor="start" x="656" y="-263.5" font-family="Helvetica,sans-Serif" font-size="10.00">QuantConnect.SecurityIdentifier.</text>
<text text-anchor="middle" x="735" y="-252.5" font-family="Helvetica,sans-Serif" font-size="10.00">GenerateBaseSymbol</text>
</a>
</g>
</g>
<!-- Node10&#45;&gt;Node11 -->
<g id="edge10" class="edge">
<title>Node10&#45;&gt;Node11</title>
<path fill="none" stroke="midnightblue" d="M612.1,-260.5C620.62,-260.5 629.3,-260.5 637.91,-260.5"/>
<polygon fill="midnightblue" stroke="midnightblue" points="637.96,-264 647.96,-260.5 637.96,-257 637.96,-264"/>
</g>
</g>
</svg>
