<?xml version="1.0" encoding="UTF-8" standalone="no"?>
<!DOCTYPE svg PUBLIC "-//W3C//DTD SVG 1.1//EN"
 "http://www.w3.org/Graphics/SVG/1.1/DTD/svg11.dtd">
<!-- Generated by graphviz version 2.43.0 (0)
 -->
<!-- Title: QuantConnect.Lean.Engine.Results.BaseResultsHandler.Sample Pages: 1 -->
<svg width="991pt" height="530pt"
 viewBox="0.00 0.00 991.00 530.00" xmlns="http://www.w3.org/2000/svg" xmlns:xlink="http://www.w3.org/1999/xlink">
<g id="graph0" class="graph" transform="scale(1 1) rotate(0) translate(4 526)">
<title>QuantConnect.Lean.Engine.Results.BaseResultsHandler.Sample</title>
<polygon fill="white" stroke="transparent" points="-4,4 -4,-526 987,-526 987,4 -4,4"/>
<!-- Node1 -->
<g id="node1" class="node">
<title>Node1</title>
<g id="a_node1"><a xlink:title="Samples portfolio equity, benchmark, and daily performance Called by scheduled event every night at m...">
<polygon fill="#bfbfbf" stroke="black" points="0,-216 0,-246 193,-246 193,-216 0,-216"/>
<text text-anchor="start" x="8" y="-234" font-family="Helvetica,sans-Serif" font-size="10.00">QuantConnect.Lean.Engine.</text>
<text text-anchor="middle" x="96.5" y="-223" font-family="Helvetica,sans-Serif" font-size="10.00">Results.BaseResultsHandler.Sample</text>
</a>
</g>
</g>
<!-- Node2 -->
<g id="node2" class="node">
<title>Node2</title>
<g id="a_node2"><a xlink:href="classQuantConnect_1_1Lean_1_1Engine_1_1Results_1_1BaseResultsHandler.html#ab2d5d2dbe6abd63cb480c45e6e046f98" target="_top" xlink:title="Gets the current benchmark value">
<polygon fill="white" stroke="black" points="239,-480.5 239,-521.5 412,-521.5 412,-480.5 239,-480.5"/>
<text text-anchor="start" x="247" y="-509.5" font-family="Helvetica,sans-Serif" font-size="10.00">QuantConnect.Lean.Engine.</text>
<text text-anchor="start" x="247" y="-498.5" font-family="Helvetica,sans-Serif" font-size="10.00">Results.BaseResultsHandler.Get</text>
<text text-anchor="middle" x="325.5" y="-487.5" font-family="Helvetica,sans-Serif" font-size="10.00">BenchmarkValue</text>
</a>
</g>
</g>
<!-- Node1&#45;&gt;Node2 -->
<g id="edge1" class="edge">
<title>Node1&#45;&gt;Node2</title>
<path fill="none" stroke="midnightblue" d="M101.49,-246.23C113.35,-288.49 152.41,-408.18 229,-471 230.75,-472.43 232.56,-473.8 234.44,-475.1"/>
<polygon fill="midnightblue" stroke="midnightblue" points="232.64,-478.1 242.98,-480.39 236.32,-472.15 232.64,-478.1"/>
</g>
<!-- Node3 -->
<g id="node3" class="node">
<title>Node3</title>
<g id="a_node3"><a xlink:href="classQuantConnect_1_1Lean_1_1Engine_1_1Results_1_1BaseResultsHandler.html#ad29219c5dbb0e37b63b329de77e5a912" target="_top" xlink:title="Gets the current portfolio value">
<polygon fill="white" stroke="black" points="239,-420.5 239,-461.5 412,-461.5 412,-420.5 239,-420.5"/>
<text text-anchor="start" x="247" y="-449.5" font-family="Helvetica,sans-Serif" font-size="10.00">QuantConnect.Lean.Engine.</text>
<text text-anchor="start" x="247" y="-438.5" font-family="Helvetica,sans-Serif" font-size="10.00">Results.BaseResultsHandler.Get</text>
<text text-anchor="middle" x="325.5" y="-427.5" font-family="Helvetica,sans-Serif" font-size="10.00">PortfolioValue</text>
</a>
</g>
</g>
<!-- Node1&#45;&gt;Node3 -->
<g id="edge2" class="edge">
<title>Node1&#45;&gt;Node3</title>
<path fill="none" stroke="midnightblue" d="M104.35,-246.08C120.77,-280.56 165.79,-365.67 229,-411 231.16,-412.55 233.41,-414.02 235.72,-415.42"/>
<polygon fill="midnightblue" stroke="midnightblue" points="234.47,-418.73 244.92,-420.45 237.82,-412.58 234.47,-418.73"/>
</g>
<!-- Node4 -->
<g id="node4" class="node">
<title>Node4</title>
<g id="a_node4"><a xlink:href="classQuantConnect_1_1Lean_1_1Engine_1_1Results_1_1BaseResultsHandler.html#a765a5931719ed6121e36b8bed38945cd" target="_top" xlink:title="Sample the current benchmark performance directly with a time&#45;value pair.">
<polygon fill="white" stroke="black" points="229,-360.5 229,-401.5 422,-401.5 422,-360.5 229,-360.5"/>
<text text-anchor="start" x="237" y="-389.5" font-family="Helvetica,sans-Serif" font-size="10.00">QuantConnect.Lean.Engine.</text>
<text text-anchor="start" x="237" y="-378.5" font-family="Helvetica,sans-Serif" font-size="10.00">Results.BaseResultsHandler.Sample</text>
<text text-anchor="middle" x="325.5" y="-367.5" font-family="Helvetica,sans-Serif" font-size="10.00">Benchmark</text>
</a>
</g>
</g>
<!-- Node1&#45;&gt;Node4 -->
<g id="edge3" class="edge">
<title>Node1&#45;&gt;Node4</title>
<path fill="none" stroke="midnightblue" d="M115.39,-246.03C138.89,-269.91 182.65,-315.34 229,-342 239.36,-347.96 251.04,-352.88 262.59,-357.07"/>
<polygon fill="midnightblue" stroke="midnightblue" points="261.63,-360.44 272.22,-360.42 263.93,-353.83 261.63,-360.44"/>
</g>
<!-- Node5 -->
<g id="node5" class="node">
<title>Node5</title>
<g id="a_node5"><a xlink:href="classQuantConnect_1_1Lean_1_1Engine_1_1Results_1_1BaseResultsHandler.html#a59b399ab38b4989196e0e41b001bbf0e" target="_top" xlink:title="Sample estimated strategy capacity">
<polygon fill="white" stroke="black" points="229,-300.5 229,-341.5 422,-341.5 422,-300.5 229,-300.5"/>
<text text-anchor="start" x="237" y="-329.5" font-family="Helvetica,sans-Serif" font-size="10.00">QuantConnect.Lean.Engine.</text>
<text text-anchor="start" x="237" y="-318.5" font-family="Helvetica,sans-Serif" font-size="10.00">Results.BaseResultsHandler.Sample</text>
<text text-anchor="middle" x="325.5" y="-307.5" font-family="Helvetica,sans-Serif" font-size="10.00">Capacity</text>
</a>
</g>
</g>
<!-- Node1&#45;&gt;Node5 -->
<g id="edge5" class="edge">
<title>Node1&#45;&gt;Node5</title>
<path fill="none" stroke="midnightblue" d="M127.6,-246.03C153.97,-258.87 193.5,-277.39 229,-291 234.46,-293.09 240.13,-295.15 245.86,-297.15"/>
<polygon fill="midnightblue" stroke="midnightblue" points="244.96,-300.54 255.55,-300.46 247.22,-293.92 244.96,-300.54"/>
</g>
<!-- Node6 -->
<g id="node6" class="node">
<title>Node6</title>
<g id="a_node6"><a xlink:href="classQuantConnect_1_1Lean_1_1Engine_1_1Results_1_1BaseResultsHandler.html#ad4341aadd09144100f5b12cd22359740" target="_top" xlink:title="Sample drawdown of equity of the strategy">
<polygon fill="white" stroke="black" points="229,-240.5 229,-281.5 422,-281.5 422,-240.5 229,-240.5"/>
<text text-anchor="start" x="237" y="-269.5" font-family="Helvetica,sans-Serif" font-size="10.00">QuantConnect.Lean.Engine.</text>
<text text-anchor="start" x="237" y="-258.5" font-family="Helvetica,sans-Serif" font-size="10.00">Results.BaseResultsHandler.Sample</text>
<text text-anchor="middle" x="325.5" y="-247.5" font-family="Helvetica,sans-Serif" font-size="10.00">Drawdown</text>
</a>
</g>
</g>
<!-- Node1&#45;&gt;Node6 -->
<g id="edge6" class="edge">
<title>Node1&#45;&gt;Node6</title>
<path fill="none" stroke="midnightblue" d="M193.11,-236.96C201.65,-238.02 210.32,-239.14 218.93,-240.31"/>
<polygon fill="midnightblue" stroke="midnightblue" points="218.61,-243.8 229,-241.7 219.57,-236.87 218.61,-243.8"/>
</g>
<!-- Node10 -->
<g id="node10" class="node">
<title>Node10</title>
<g id="a_node10"><a xlink:href="classQuantConnect_1_1Lean_1_1Engine_1_1Results_1_1BaseResultsHandler.html#a843aa182034944db5b5bd347f830c9bd" target="_top" xlink:title="Sample the current equity of the strategy directly with time&#45;value pair.">
<polygon fill="white" stroke="black" points="229,-180.5 229,-221.5 422,-221.5 422,-180.5 229,-180.5"/>
<text text-anchor="start" x="237" y="-209.5" font-family="Helvetica,sans-Serif" font-size="10.00">QuantConnect.Lean.Engine.</text>
<text text-anchor="start" x="237" y="-198.5" font-family="Helvetica,sans-Serif" font-size="10.00">Results.BaseResultsHandler.Sample</text>
<text text-anchor="middle" x="325.5" y="-187.5" font-family="Helvetica,sans-Serif" font-size="10.00">Equity</text>
</a>
</g>
</g>
<!-- Node1&#45;&gt;Node10 -->
<g id="edge11" class="edge">
<title>Node1&#45;&gt;Node10</title>
<path fill="none" stroke="midnightblue" d="M164.07,-215.99C181.26,-213.3 200.19,-210.62 218.84,-208.23"/>
<polygon fill="midnightblue" stroke="midnightblue" points="219.37,-211.69 228.86,-206.97 218.5,-204.74 219.37,-211.69"/>
</g>
<!-- Node11 -->
<g id="node11" class="node">
<title>Node11</title>
<g id="a_node11"><a xlink:href="classQuantConnect_1_1Lean_1_1Engine_1_1Results_1_1BaseResultsHandler.html#a8b37f89b0f4b07e96d11ecf140ef71b3" target="_top" xlink:title="Sample portfolio exposure long/short ratios by security type">
<polygon fill="white" stroke="black" points="229,-120.5 229,-161.5 422,-161.5 422,-120.5 229,-120.5"/>
<text text-anchor="start" x="237" y="-149.5" font-family="Helvetica,sans-Serif" font-size="10.00">QuantConnect.Lean.Engine.</text>
<text text-anchor="start" x="237" y="-138.5" font-family="Helvetica,sans-Serif" font-size="10.00">Results.BaseResultsHandler.Sample</text>
<text text-anchor="middle" x="325.5" y="-127.5" font-family="Helvetica,sans-Serif" font-size="10.00">Exposure</text>
</a>
</g>
</g>
<!-- Node1&#45;&gt;Node11 -->
<g id="edge13" class="edge">
<title>Node1&#45;&gt;Node11</title>
<path fill="none" stroke="midnightblue" d="M127.6,-215.97C153.97,-203.13 193.5,-184.61 229,-171 234.46,-168.91 240.13,-166.85 245.86,-164.85"/>
<polygon fill="midnightblue" stroke="midnightblue" points="247.22,-168.08 255.55,-161.54 244.96,-161.46 247.22,-168.08"/>
</g>
<!-- Node12 -->
<g id="node12" class="node">
<title>Node12</title>
<g id="a_node12"><a xlink:href="classQuantConnect_1_1Lean_1_1Engine_1_1Results_1_1BaseResultsHandler.html#a467c5ebe0c2b5d4de0741dd6c69c5103" target="_top" xlink:title="Sample the current daily performance directly with a time&#45;value pair.">
<polygon fill="white" stroke="black" points="229,-60.5 229,-101.5 422,-101.5 422,-60.5 229,-60.5"/>
<text text-anchor="start" x="237" y="-89.5" font-family="Helvetica,sans-Serif" font-size="10.00">QuantConnect.Lean.Engine.</text>
<text text-anchor="start" x="237" y="-78.5" font-family="Helvetica,sans-Serif" font-size="10.00">Results.BaseResultsHandler.Sample</text>
<text text-anchor="middle" x="325.5" y="-67.5" font-family="Helvetica,sans-Serif" font-size="10.00">Performance</text>
</a>
</g>
</g>
<!-- Node1&#45;&gt;Node12 -->
<g id="edge14" class="edge">
<title>Node1&#45;&gt;Node12</title>
<path fill="none" stroke="midnightblue" d="M106.23,-215.59C124.73,-189.67 170.32,-138.66 220.67,-107.03"/>
<polygon fill="midnightblue" stroke="midnightblue" points="222.69,-109.9 229.45,-101.74 219.08,-103.9 222.69,-109.9"/>
</g>
<!-- Node15 -->
<g id="node15" class="node">
<title>Node15</title>
<g id="a_node15"><a xlink:href="classQuantConnect_1_1Lean_1_1Engine_1_1Results_1_1BaseResultsHandler.html#a1f0c128ff05275d192e04c8941e2b8c2" target="_top" xlink:title="Sample assets sales volume">
<polygon fill="white" stroke="black" points="229,-0.5 229,-41.5 422,-41.5 422,-0.5 229,-0.5"/>
<text text-anchor="start" x="237" y="-29.5" font-family="Helvetica,sans-Serif" font-size="10.00">QuantConnect.Lean.Engine.</text>
<text text-anchor="start" x="237" y="-18.5" font-family="Helvetica,sans-Serif" font-size="10.00">Results.BaseResultsHandler.Sample</text>
<text text-anchor="middle" x="325.5" y="-7.5" font-family="Helvetica,sans-Serif" font-size="10.00">SalesVolume</text>
</a>
</g>
</g>
<!-- Node1&#45;&gt;Node15 -->
<g id="edge18" class="edge">
<title>Node1&#45;&gt;Node15</title>
<path fill="none" stroke="midnightblue" d="M102.42,-215.95C116.4,-181.2 159.38,-96.58 221.37,-47.76"/>
<polygon fill="midnightblue" stroke="midnightblue" points="223.54,-50.51 229.42,-41.7 219.33,-44.91 223.54,-50.51"/>
</g>
<!-- Node4&#45;&gt;Node1 -->
<g id="edge4" class="edge">
<title>Node4&#45;&gt;Node1</title>
<path fill="none" stroke="midnightblue" d="M229.45,-360.26C229.3,-360.17 229.15,-360.09 229,-360 180.48,-332.09 134.79,-283.6 112.22,-254.44"/>
<polygon fill="midnightblue" stroke="midnightblue" points="115.01,-252.33 106.23,-246.41 109.4,-256.52 115.01,-252.33"/>
</g>
<!-- Node6&#45;&gt;Node1 -->
<g id="edge10" class="edge">
<title>Node6&#45;&gt;Node1</title>
<path fill="none" stroke="midnightblue" d="M228.86,-255.03C210.63,-252.78 191.78,-250.21 174.24,-247.57"/>
<polygon fill="midnightblue" stroke="midnightblue" points="174.49,-244.06 164.07,-246.01 173.43,-250.98 174.49,-244.06"/>
</g>
<!-- Node7 -->
<g id="node7" class="node">
<title>Node7</title>
<g id="a_node7"><a xlink:href="classQuantConnect_1_1Statistics_1_1Statistics.html#a40ec6432be1b7d5db21e2dfbeff52e7a" target="_top" xlink:title="Drawdown maximum percentage.">
<polygon fill="white" stroke="black" points="458,-246 458,-276 611,-276 611,-246 458,-246"/>
<text text-anchor="start" x="466" y="-264" font-family="Helvetica,sans-Serif" font-size="10.00">QuantConnect.Statistics.</text>
<text text-anchor="middle" x="534.5" y="-253" font-family="Helvetica,sans-Serif" font-size="10.00">Statistics.DrawdownPercent</text>
</a>
</g>
</g>
<!-- Node6&#45;&gt;Node7 -->
<g id="edge7" class="edge">
<title>Node6&#45;&gt;Node7</title>
<path fill="none" stroke="midnightblue" d="M422.12,-261C430.63,-261 439.21,-261 447.64,-261"/>
<polygon fill="midnightblue" stroke="midnightblue" points="447.81,-264.5 457.81,-261 447.81,-257.5 447.81,-264.5"/>
</g>
<!-- Node8 -->
<g id="node8" class="node">
<title>Node8</title>
<g id="a_node8"><a xlink:href="classQuantConnect_1_1Logging_1_1Log.html#af0e7955911bc7664b37661b2a303a9e3" target="_top" xlink:title="Log error">
<polygon fill="white" stroke="black" points="647,-246 647,-276 797,-276 797,-246 647,-246"/>
<text text-anchor="start" x="655" y="-264" font-family="Helvetica,sans-Serif" font-size="10.00">QuantConnect.Logging.Log.</text>
<text text-anchor="middle" x="722" y="-253" font-family="Helvetica,sans-Serif" font-size="10.00">Error</text>
</a>
</g>
</g>
<!-- Node7&#45;&gt;Node8 -->
<g id="edge8" class="edge">
<title>Node7&#45;&gt;Node8</title>
<path fill="none" stroke="midnightblue" d="M611.22,-261C619.55,-261 628.07,-261 636.5,-261"/>
<polygon fill="midnightblue" stroke="midnightblue" points="636.72,-264.5 646.72,-261 636.72,-257.5 636.72,-264.5"/>
</g>
<!-- Node9 -->
<g id="node9" class="node">
<title>Node9</title>
<g id="a_node9"><a xlink:href="interfaceQuantConnect_1_1Logging_1_1ILogHandler.html#a35373a0c5d76031fa5ccf5dc39e5c25d" target="_top" xlink:title="Write error message to log">
<polygon fill="white" stroke="black" points="833,-246 833,-276 983,-276 983,-246 833,-246"/>
<text text-anchor="start" x="841" y="-264" font-family="Helvetica,sans-Serif" font-size="10.00">QuantConnect.Logging.ILog</text>
<text text-anchor="middle" x="908" y="-253" font-family="Helvetica,sans-Serif" font-size="10.00">Handler.Error</text>
</a>
</g>
</g>
<!-- Node8&#45;&gt;Node9 -->
<g id="edge9" class="edge">
<title>Node8&#45;&gt;Node9</title>
<path fill="none" stroke="midnightblue" d="M797.04,-261C805.51,-261 814.19,-261 822.78,-261"/>
<polygon fill="midnightblue" stroke="midnightblue" points="822.81,-264.5 832.81,-261 822.81,-257.5 822.81,-264.5"/>
</g>
<!-- Node10&#45;&gt;Node1 -->
<g id="edge12" class="edge">
<title>Node10&#45;&gt;Node1</title>
<path fill="none" stroke="midnightblue" d="M229,-220.3C220.47,-221.5 211.79,-222.66 203.18,-223.77"/>
<polygon fill="midnightblue" stroke="midnightblue" points="202.59,-220.32 193.11,-225.04 203.47,-227.26 202.59,-220.32"/>
</g>
<!-- Node12&#45;&gt;Node1 -->
<g id="edge17" class="edge">
<title>Node12&#45;&gt;Node1</title>
<path fill="none" stroke="midnightblue" d="M272.22,-101.58C257.68,-106.45 242.26,-112.37 229,-120 187,-144.16 147.12,-183.74 122.52,-208.72"/>
<polygon fill="midnightblue" stroke="midnightblue" points="119.91,-206.38 115.39,-215.97 124.9,-211.29 119.91,-206.38"/>
</g>
<!-- Node13 -->
<g id="node13" class="node">
<title>Node13</title>
<g id="a_node13"><a xlink:href="classQuantConnect_1_1Logging_1_1Log.html#ad908daef9d61532d7d60c9dcfb9a3e0c" target="_top" xlink:title="Output to the console">
<polygon fill="white" stroke="black" points="459.5,-66 459.5,-96 609.5,-96 609.5,-66 459.5,-66"/>
<text text-anchor="start" x="467.5" y="-84" font-family="Helvetica,sans-Serif" font-size="10.00">QuantConnect.Logging.Log.</text>
<text text-anchor="middle" x="534.5" y="-73" font-family="Helvetica,sans-Serif" font-size="10.00">Debug</text>
</a>
</g>
</g>
<!-- Node12&#45;&gt;Node13 -->
<g id="edge15" class="edge">
<title>Node12&#45;&gt;Node13</title>
<path fill="none" stroke="midnightblue" d="M422.12,-81C431.21,-81 440.37,-81 449.33,-81"/>
<polygon fill="midnightblue" stroke="midnightblue" points="449.35,-84.5 459.35,-81 449.35,-77.5 449.35,-84.5"/>
</g>
<!-- Node14 -->
<g id="node14" class="node">
<title>Node14</title>
<g id="a_node14"><a xlink:href="interfaceQuantConnect_1_1Logging_1_1ILogHandler.html#a2c738b8e78dd5b54244bc68b969ba91d" target="_top" xlink:title="Write debug message to log">
<polygon fill="white" stroke="black" points="647,-66 647,-96 797,-96 797,-66 647,-66"/>
<text text-anchor="start" x="655" y="-84" font-family="Helvetica,sans-Serif" font-size="10.00">QuantConnect.Logging.ILog</text>
<text text-anchor="middle" x="722" y="-73" font-family="Helvetica,sans-Serif" font-size="10.00">Handler.Debug</text>
</a>
</g>
</g>
<!-- Node13&#45;&gt;Node14 -->
<g id="edge16" class="edge">
<title>Node13&#45;&gt;Node14</title>
<path fill="none" stroke="midnightblue" d="M609.61,-81C618.49,-81 627.6,-81 636.6,-81"/>
<polygon fill="midnightblue" stroke="midnightblue" points="636.7,-84.5 646.7,-81 636.7,-77.5 636.7,-84.5"/>
</g>
<!-- Node15&#45;&gt;Node1 -->
<g id="edge19" class="edge">
<title>Node15&#45;&gt;Node1</title>
<path fill="none" stroke="midnightblue" d="M266.17,-41.63C253.18,-46.23 240.02,-52.1 229,-60 173.71,-99.65 132.35,-169.72 111.86,-206.82"/>
<polygon fill="midnightblue" stroke="midnightblue" points="108.6,-205.48 106.87,-215.94 114.74,-208.85 108.6,-205.48"/>
</g>
</g>
</svg>
