<?xml version="1.0" encoding="UTF-8" standalone="no"?>
<!DOCTYPE svg PUBLIC "-//W3C//DTD SVG 1.1//EN"
 "http://www.w3.org/Graphics/SVG/1.1/DTD/svg11.dtd">
<!-- Generated by graphviz version 2.43.0 (0)
 -->
<!-- Title: QuantConnect.Securities.Option.OptionSymbol.GetLastDayOfTrading Pages: 1 -->
<!--zoomable 210 -->
<svg id="main" version="1.1" xmlns="http://www.w3.org/2000/svg" xmlns:xlink="http://www.w3.org/1999/xlink" xml:space="preserve" onload="init(evt)">
<style type="text/css"><![CDATA[
.edge:hover path { stroke: red; }
.edge:hover polygon { stroke: red; fill: red; }
]]></style>
<script type="text/javascript"><![CDATA[
var edges = document.getElementsByTagName('g');
if (edges && edges.length) {
  for (var i=0;i<edges.length;i++) {
    if (edges[i].id.substr(0,4)=='edge') {
      edges[i].setAttribute('class','edge');
    }
  }
}
]]></script>
        <defs>
                <circle id="rim" cx="0" cy="0" r="7"/>
                <circle id="rim2" cx="0" cy="0" r="3.5"/>
                <g id="zoomPlus">
                        <use xlink:href="#rim" fill="#404040">
                                <set attributeName="fill" to="#808080" begin="zoomplus.mouseover" end="zoomplus.mouseout"/>
                        </use>
                        <path d="M-4,0h8M0,-4v8" fill="none" stroke="white" stroke-width="1.5" pointer-events="none"/>
                </g>
                <g id="zoomMin">
                        <use xlink:href="#rim" fill="#404040">
                                <set attributeName="fill" to="#808080" begin="zoomminus.mouseover" end="zoomminus.mouseout"/>
                        </use>
                        <path d="M-4,0h8" fill="none" stroke="white" stroke-width="1.5" pointer-events="none"/>
                </g>
                <g id="dirArrow">
                        <path fill="none" stroke="white" stroke-width="1.5" d="M0,-3.0v7 M-2.5,-0.5L0,-3.0L2.5,-0.5"/>
                </g>
               <g id="resetDef">
                       <use xlink:href="#rim2" fill="#404040">
                               <set attributeName="fill" to="#808080" begin="reset.mouseover" end="reset.mouseout"/>
                       </use>
               </g>
        </defs>

<script type="text/javascript">
var viewWidth = 850;
var viewHeight = 210;
var sectionId = 'dynsection-3';
</script>
<script xlink:href="svgpan.js"/>
<svg id="graph" class="graph">
<g id="viewport">
<title>QuantConnect.Securities.Option.OptionSymbol.GetLastDayOfTrading</title>
<polygon fill="white" stroke="transparent" points="-4,4 -4,-205.5 846,-205.5 846,4 -4,4"/>
<!-- Node1 -->
<g id="node1" class="node">
<title>Node1</title>
<g id="a_node1"><a xlink:title="Returns the last trading date for the option contract">
<polygon fill="#bfbfbf" stroke="black" points="0,-82.5 0,-123.5 181,-123.5 181,-82.5 0,-82.5"/>
<text text-anchor="start" x="8" y="-111.5" font-family="Helvetica,sans-Serif" font-size="10.00">QuantConnect.Securities.</text>
<text text-anchor="start" x="8" y="-100.5" font-family="Helvetica,sans-Serif" font-size="10.00">Option.OptionSymbol.GetLastDay</text>
<text text-anchor="middle" x="90.5" y="-89.5" font-family="Helvetica,sans-Serif" font-size="10.00">OfTrading</text>
</a>
</g>
</g>
<!-- Node2 -->
<g id="node2" class="node">
<title>Node2</title>
<g id="a_node2"><a xlink:href="classQuantConnect_1_1Securities_1_1MarketHoursDatabase.html#aa01232d91c17c556b18ea8f1f7fabcd0" target="_top" xlink:title="Gets the instance of the MarketHoursDatabase class produced by reading in the market hours data found...">
<polygon fill="white" stroke="black" points="217,-137.5 217,-178.5 393,-178.5 393,-137.5 217,-137.5"/>
<text text-anchor="start" x="225" y="-166.5" font-family="Helvetica,sans-Serif" font-size="10.00">QuantConnect.Securities.</text>
<text text-anchor="start" x="225" y="-155.5" font-family="Helvetica,sans-Serif" font-size="10.00">MarketHoursDatabase.FromData</text>
<text text-anchor="middle" x="305" y="-144.5" font-family="Helvetica,sans-Serif" font-size="10.00">Folder</text>
</a>
</g>
</g>
<!-- Node1&#45;&gt;Node2 -->
<g id="edge1" class="edge">
<title>Node1&#45;&gt;Node2</title>
<path fill="none" stroke="midnightblue" d="M170.93,-123.56C185.2,-127.25 200.16,-131.12 214.69,-134.88"/>
<polygon fill="midnightblue" stroke="midnightblue" points="214.11,-138.35 224.67,-137.47 215.86,-131.57 214.11,-138.35"/>
</g>
<!-- Node3 -->
<g id="node3" class="node">
<title>Node3</title>
<g id="a_node3"><a xlink:href="classQuantConnect_1_1Securities_1_1MarketHoursDatabase.html#aeac6cf20dbffdbafd258f0d5f4473713" target="_top" xlink:title="Gets the entry for the specified market/symbol/security&#45;type">
<polygon fill="white" stroke="black" points="219.5,-88 219.5,-118 390.5,-118 390.5,-88 219.5,-88"/>
<text text-anchor="start" x="227.5" y="-106" font-family="Helvetica,sans-Serif" font-size="10.00">QuantConnect.Securities.</text>
<text text-anchor="middle" x="305" y="-95" font-family="Helvetica,sans-Serif" font-size="10.00">MarketHoursDatabase.GetEntry</text>
</a>
</g>
</g>
<!-- Node1&#45;&gt;Node3 -->
<g id="edge2" class="edge">
<title>Node1&#45;&gt;Node3</title>
<path fill="none" stroke="midnightblue" d="M181,-103C190.33,-103 199.84,-103 209.22,-103"/>
<polygon fill="midnightblue" stroke="midnightblue" points="209.35,-106.5 219.35,-103 209.35,-99.5 209.35,-106.5"/>
</g>
<!-- Node11 -->
<g id="node11" class="node">
<title>Node11</title>
<g id="a_node11"><a xlink:href="classQuantConnect_1_1Securities_1_1Option_1_1OptionSymbol.html#a67479caa555c9b1c103efabf3e7e038c" target="_top" xlink:title="Returns true if the option is a standard contract that expires 3rd Friday of the month">
<polygon fill="white" stroke="black" points="217,-39 217,-69 393,-69 393,-39 217,-39"/>
<text text-anchor="start" x="225" y="-57" font-family="Helvetica,sans-Serif" font-size="10.00">QuantConnect.Securities.</text>
<text text-anchor="middle" x="305" y="-46" font-family="Helvetica,sans-Serif" font-size="10.00">Option.OptionSymbol.IsStandard</text>
</a>
</g>
</g>
<!-- Node1&#45;&gt;Node11 -->
<g id="edge10" class="edge">
<title>Node1&#45;&gt;Node11</title>
<path fill="none" stroke="midnightblue" d="M180.7,-82.43C196.72,-78.74 213.28,-74.92 228.86,-71.33"/>
<polygon fill="midnightblue" stroke="midnightblue" points="229.98,-74.66 238.94,-69 228.41,-67.84 229.98,-74.66"/>
</g>
<!-- Node4 -->
<g id="node4" class="node">
<title>Node4</title>
<g id="a_node4"><a xlink:href="classQuantConnect_1_1Logging_1_1Log.html#af0e7955911bc7664b37661b2a303a9e3" target="_top" xlink:title="Log error">
<polygon fill="white" stroke="black" points="446.5,-171 446.5,-201 596.5,-201 596.5,-171 446.5,-171"/>
<text text-anchor="start" x="454.5" y="-189" font-family="Helvetica,sans-Serif" font-size="10.00">QuantConnect.Logging.Log.</text>
<text text-anchor="middle" x="521.5" y="-178" font-family="Helvetica,sans-Serif" font-size="10.00">Error</text>
</a>
</g>
</g>
<!-- Node3&#45;&gt;Node4 -->
<g id="edge3" class="edge">
<title>Node3&#45;&gt;Node4</title>
<path fill="none" stroke="midnightblue" d="M371.02,-118.05C378.65,-120.86 386.15,-124.16 393,-128 411.93,-138.61 410,-150.51 429,-161 433,-163.21 437.21,-165.23 441.53,-167.08"/>
<polygon fill="midnightblue" stroke="midnightblue" points="440.56,-170.46 451.15,-170.87 443.13,-163.95 440.56,-170.46"/>
</g>
<!-- Node6 -->
<g id="node6" class="node">
<title>Node6</title>
<g id="a_node6"><a xlink:href="classQuantConnect_1_1Securities_1_1SymbolPropertiesDatabase.html#aee26fb588793fd311c44eb8b2909cc33" target="_top" xlink:title="Gets the instance of the SymbolPropertiesDatabase class produced by reading in the symbol properties ...">
<polygon fill="white" stroke="black" points="433,-110.5 433,-151.5 610,-151.5 610,-110.5 433,-110.5"/>
<text text-anchor="start" x="441" y="-139.5" font-family="Helvetica,sans-Serif" font-size="10.00">QuantConnect.Securities.</text>
<text text-anchor="start" x="441" y="-128.5" font-family="Helvetica,sans-Serif" font-size="10.00">SymbolPropertiesDatabase.From</text>
<text text-anchor="middle" x="521.5" y="-117.5" font-family="Helvetica,sans-Serif" font-size="10.00">DataFolder</text>
</a>
</g>
</g>
<!-- Node3&#45;&gt;Node6 -->
<g id="edge5" class="edge">
<title>Node3&#45;&gt;Node6</title>
<path fill="none" stroke="midnightblue" d="M390.78,-114.07C401.25,-115.43 412.02,-116.84 422.66,-118.23"/>
<polygon fill="midnightblue" stroke="midnightblue" points="422.45,-121.73 432.82,-119.55 423.36,-114.79 422.45,-121.73"/>
</g>
<!-- Node8 -->
<g id="node8" class="node">
<title>Node8</title>
<g id="a_node8"><a xlink:href="classQuantConnect_1_1Securities_1_1MarketHoursDatabase.html#a3eedd1459368e8f50da2cedfc7508006" target="_top" xlink:title="Tries to get the entry for the specified market/symbol/security&#45;type">
<polygon fill="white" stroke="black" points="429,-61 429,-91 614,-91 614,-61 429,-61"/>
<text text-anchor="start" x="437" y="-79" font-family="Helvetica,sans-Serif" font-size="10.00">QuantConnect.Securities.</text>
<text text-anchor="middle" x="521.5" y="-68" font-family="Helvetica,sans-Serif" font-size="10.00">MarketHoursDatabase.TryGetEntry</text>
</a>
</g>
</g>
<!-- Node3&#45;&gt;Node8 -->
<g id="edge7" class="edge">
<title>Node3&#45;&gt;Node8</title>
<path fill="none" stroke="midnightblue" d="M390.78,-92.33C399.98,-91.17 409.41,-89.98 418.79,-88.8"/>
<polygon fill="midnightblue" stroke="midnightblue" points="419.44,-92.25 428.93,-87.53 418.57,-85.3 419.44,-92.25"/>
</g>
<!-- Node10 -->
<g id="node10" class="node">
<title>Node10</title>
<g id="a_node10"><a xlink:href="classQuantConnect_1_1Securities_1_1SymbolPropertiesDatabase.html#a5a7baeddd03bfc7fb60cef8ab2e6834b" target="_top" xlink:title="Tries to get the market for the provided symbol/security type">
<polygon fill="white" stroke="black" points="438,-0.5 438,-41.5 605,-41.5 605,-0.5 438,-0.5"/>
<text text-anchor="start" x="446" y="-29.5" font-family="Helvetica,sans-Serif" font-size="10.00">QuantConnect.Securities.</text>
<text text-anchor="start" x="446" y="-18.5" font-family="Helvetica,sans-Serif" font-size="10.00">SymbolPropertiesDatabase.Try</text>
<text text-anchor="middle" x="521.5" y="-7.5" font-family="Helvetica,sans-Serif" font-size="10.00">GetMarket</text>
</a>
</g>
</g>
<!-- Node3&#45;&gt;Node10 -->
<g id="edge9" class="edge">
<title>Node3&#45;&gt;Node10</title>
<path fill="none" stroke="midnightblue" d="M368.83,-87.93C377.14,-85.08 385.4,-81.78 393,-78 410.91,-69.09 411.26,-60.24 429,-51 432.67,-49.09 436.49,-47.27 440.38,-45.53"/>
<polygon fill="midnightblue" stroke="midnightblue" points="441.74,-48.76 449.6,-41.66 439.03,-42.31 441.74,-48.76"/>
</g>
<!-- Node5 -->
<g id="node5" class="node">
<title>Node5</title>
<g id="a_node5"><a xlink:href="interfaceQuantConnect_1_1Logging_1_1ILogHandler.html#a35373a0c5d76031fa5ccf5dc39e5c25d" target="_top" xlink:title="Write error message to log">
<polygon fill="white" stroke="black" points="671,-171 671,-201 821,-201 821,-171 671,-171"/>
<text text-anchor="start" x="679" y="-189" font-family="Helvetica,sans-Serif" font-size="10.00">QuantConnect.Logging.ILog</text>
<text text-anchor="middle" x="746" y="-178" font-family="Helvetica,sans-Serif" font-size="10.00">Handler.Error</text>
</a>
</g>
</g>
<!-- Node4&#45;&gt;Node5 -->
<g id="edge4" class="edge">
<title>Node4&#45;&gt;Node5</title>
<path fill="none" stroke="midnightblue" d="M596.59,-186C617.12,-186 639.56,-186 660.64,-186"/>
<polygon fill="midnightblue" stroke="midnightblue" points="660.86,-189.5 670.86,-186 660.86,-182.5 660.86,-189.5"/>
</g>
<!-- Node7 -->
<g id="node7" class="node">
<title>Node7</title>
<g id="a_node7"><a xlink:href="classQuantConnect_1_1Securities_1_1SymbolPropertiesDatabase.html#a1658f93bf0dce7022bb7584e1a95cc7a" target="_top" xlink:title="Initialize a new instance of SymbolPropertiesDatabase using the given file">
<polygon fill="white" stroke="black" points="651.5,-110.5 651.5,-151.5 840.5,-151.5 840.5,-110.5 651.5,-110.5"/>
<text text-anchor="start" x="659.5" y="-139.5" font-family="Helvetica,sans-Serif" font-size="10.00">QuantConnect.Securities.</text>
<text text-anchor="start" x="659.5" y="-128.5" font-family="Helvetica,sans-Serif" font-size="10.00">SymbolPropertiesDatabase.Symbol</text>
<text text-anchor="middle" x="746" y="-117.5" font-family="Helvetica,sans-Serif" font-size="10.00">PropertiesDatabase</text>
</a>
</g>
</g>
<!-- Node6&#45;&gt;Node7 -->
<g id="edge6" class="edge">
<title>Node6&#45;&gt;Node7</title>
<path fill="none" stroke="midnightblue" d="M610.12,-131C620.24,-131 630.64,-131 640.95,-131"/>
<polygon fill="midnightblue" stroke="midnightblue" points="641.23,-134.5 651.23,-131 641.23,-127.5 641.23,-134.5"/>
</g>
<!-- Node9 -->
<g id="node9" class="node">
<title>Node9</title>
<g id="a_node9"><a xlink:href="classQuantConnect_1_1Securities_1_1MarketHoursDatabase.html#aa717adb9bb04be931913608ffd5a2733" target="_top" xlink:title="Gets the correct string symbol to use as a database key">
<polygon fill="white" stroke="black" points="650,-50.5 650,-91.5 842,-91.5 842,-50.5 650,-50.5"/>
<text text-anchor="start" x="658" y="-79.5" font-family="Helvetica,sans-Serif" font-size="10.00">QuantConnect.Securities.</text>
<text text-anchor="start" x="658" y="-68.5" font-family="Helvetica,sans-Serif" font-size="10.00">MarketHoursDatabase.GetDatabase</text>
<text text-anchor="middle" x="746" y="-57.5" font-family="Helvetica,sans-Serif" font-size="10.00">SymbolKey</text>
</a>
</g>
</g>
<!-- Node8&#45;&gt;Node9 -->
<g id="edge8" class="edge">
<title>Node8&#45;&gt;Node9</title>
<path fill="none" stroke="midnightblue" d="M614.28,-73.94C622.62,-73.75 631.11,-73.56 639.56,-73.37"/>
<polygon fill="midnightblue" stroke="midnightblue" points="639.91,-76.86 649.83,-73.14 639.75,-69.86 639.91,-76.86"/>
</g>
</g>
</svg>
        <g id="navigator" transform="translate(0 0)" fill="#404254">
                <rect fill="#f2f5e9" fill-opacity="0.5" stroke="#606060" stroke-width=".5" x="0" y="0" width="60" height="60"/>
                <use id="zoomplus" xlink:href="#zoomPlus" x="17" y="9" onmousedown="handleZoom(evt,'in')"/>
                <use id="zoomminus" xlink:href="#zoomMin" x="42" y="9" onmousedown="handleZoom(evt,'out')"/>
                <use id="reset" xlink:href="#resetDef" x="30" y="36" onmousedown="handleReset()"/>
                <g id="arrowUp" xlink:href="#dirArrow" transform="translate(30 24)" onmousedown="handlePan(0,-1)">
                  <use xlink:href="#rim" fill="#404040">
                        <set attributeName="fill" to="#808080" begin="arrowUp.mouseover" end="arrowUp.mouseout"/>
                  </use>
                  <path fill="none" stroke="white" stroke-width="1.5" d="M0,-3.0v7 M-2.5,-0.5L0,-3.0L2.5,-0.5"/>
                </g>
                <g id="arrowRight" xlink:href="#dirArrow" transform="rotate(90) translate(36 -43)" onmousedown="handlePan(1,0)">
                  <use xlink:href="#rim" fill="#404040">
                        <set attributeName="fill" to="#808080" begin="arrowRight.mouseover" end="arrowRight.mouseout"/>
                  </use>
                  <path fill="none" stroke="white" stroke-width="1.5" d="M0,-3.0v7 M-2.5,-0.5L0,-3.0L2.5,-0.5"/>
                </g>
                <g id="arrowDown" xlink:href="#dirArrow" transform="rotate(180) translate(-30 -48)" onmousedown="handlePan(0,1)">
                  <use xlink:href="#rim" fill="#404040">
                        <set attributeName="fill" to="#808080" begin="arrowDown.mouseover" end="arrowDown.mouseout"/>
                  </use>
                  <path fill="none" stroke="white" stroke-width="1.5" d="M0,-3.0v7 M-2.5,-0.5L0,-3.0L2.5,-0.5"/>
                </g>
                <g id="arrowLeft" xlink:href="#dirArrow" transform="rotate(270) translate(-36 17)" onmousedown="handlePan(-1,0)">
                  <use xlink:href="#rim" fill="#404040">
                        <set attributeName="fill" to="#808080" begin="arrowLeft.mouseover" end="arrowLeft.mouseout"/>
                  </use>
                  <path fill="none" stroke="white" stroke-width="1.5" d="M0,-3.0v7 M-2.5,-0.5L0,-3.0L2.5,-0.5"/>
                </g>
        </g>
        <svg viewBox="0 0 15 15" width="100%" height="30px" preserveAspectRatio="xMaxYMin meet">
         <g id="arrow_out" transform="scale(0.3 0.3)">
          <a xlink:href="classQuantConnect_1_1Securities_1_1Option_1_1OptionSymbol_a75217e30f16bc69188675c474bb703b0_cgraph_org.svg" target="_base">
           <rect id="button" ry="5" rx="5" y="6" x="6" height="38" width="38"
                fill="#f2f5e9" fill-opacity="0.5" stroke="#606060" stroke-width="1.0"/>
           <path id="arrow"
             d="M 11.500037,31.436501 C 11.940474,20.09759 22.043105,11.32322 32.158766,21.979434 L 37.068811,17.246167 C 37.068811,17.246167 37.088388,32 37.088388,32 L 22.160133,31.978069 C 22.160133,31.978069 26.997745,27.140456 26.997745,27.140456 C 18.528582,18.264221 13.291696,25.230495 11.500037,31.436501 z"
             style="fill:#404040;"/>
          </a>
         </g>
        </svg>
</svg>
