<?xml version="1.0" encoding="UTF-8" standalone="no"?>
<!DOCTYPE svg PUBLIC "-//W3C//DTD SVG 1.1//EN"
 "http://www.w3.org/Graphics/SVG/1.1/DTD/svg11.dtd">
<!-- Generated by graphviz version 2.43.0 (0)
 -->
<!-- Title: QuantConnect.Lean.Engine.Results.LiveTradingResultHandler.SetAlgorithm Pages: 1 -->
<svg width="408pt" height="100pt"
 viewBox="0.00 0.00 408.00 99.50" xmlns="http://www.w3.org/2000/svg" xmlns:xlink="http://www.w3.org/1999/xlink">
<g id="graph0" class="graph" transform="scale(1 1) rotate(0) translate(4 95.5)">
<title>QuantConnect.Lean.Engine.Results.LiveTradingResultHandler.SetAlgorithm</title>
<polygon fill="white" stroke="transparent" points="-4,4 -4,-95.5 404,-95.5 404,4 -4,4"/>
<!-- Node1 -->
<g id="node1" class="node">
<title>Node1</title>
<g id="a_node1"><a xlink:title="Set the algorithm of the result handler after its been initialized.">
<polygon fill="#bfbfbf" stroke="black" points="0,-27.5 0,-68.5 182,-68.5 182,-27.5 0,-27.5"/>
<text text-anchor="start" x="8" y="-56.5" font-family="Helvetica,sans-Serif" font-size="10.00">QuantConnect.Lean.Engine.</text>
<text text-anchor="start" x="8" y="-45.5" font-family="Helvetica,sans-Serif" font-size="10.00">Results.LiveTradingResultHandler.</text>
<text text-anchor="middle" x="91" y="-34.5" font-family="Helvetica,sans-Serif" font-size="10.00">SetAlgorithm</text>
</a>
</g>
</g>
<!-- Node2 -->
<g id="node2" class="node">
<title>Node2</title>
<g id="a_node2"><a xlink:href="classQuantConnect_1_1Currencies.html#a2a7c85f9abe93db2a30c36612098e30e" target="_top" xlink:title="Gets the currency symbol for the specified currency code">
<polygon fill="white" stroke="black" points="237.5,-61 237.5,-91 380.5,-91 380.5,-61 237.5,-61"/>
<text text-anchor="start" x="245.5" y="-79" font-family="Helvetica,sans-Serif" font-size="10.00">QuantConnect.Currencies.</text>
<text text-anchor="middle" x="309" y="-68" font-family="Helvetica,sans-Serif" font-size="10.00">GetCurrencySymbol</text>
</a>
</g>
</g>
<!-- Node1&#45;&gt;Node2 -->
<g id="edge1" class="edge">
<title>Node1&#45;&gt;Node2</title>
<path fill="none" stroke="midnightblue" d="M182.04,-59.67C196.99,-61.61 212.42,-63.61 227.13,-65.52"/>
<polygon fill="midnightblue" stroke="midnightblue" points="226.82,-69.01 237.18,-66.82 227.72,-62.06 226.82,-69.01"/>
</g>
<!-- Node3 -->
<g id="node3" class="node">
<title>Node3</title>
<g id="a_node3"><a xlink:href="classQuantConnect_1_1Lean_1_1Engine_1_1Results_1_1LiveTradingResultHandler.html#aac147351fa9b6f1e2da0440961784bc7" target="_top" xlink:title="Send a list of secutity types that the algorithm trades to the browser to show the market clock &#45; is ...">
<polygon fill="white" stroke="black" points="218,-0.5 218,-41.5 400,-41.5 400,-0.5 218,-0.5"/>
<text text-anchor="start" x="226" y="-29.5" font-family="Helvetica,sans-Serif" font-size="10.00">QuantConnect.Lean.Engine.</text>
<text text-anchor="start" x="226" y="-18.5" font-family="Helvetica,sans-Serif" font-size="10.00">Results.LiveTradingResultHandler.</text>
<text text-anchor="middle" x="309" y="-7.5" font-family="Helvetica,sans-Serif" font-size="10.00">SecurityType</text>
</a>
</g>
</g>
<!-- Node1&#45;&gt;Node3 -->
<g id="edge2" class="edge">
<title>Node1&#45;&gt;Node3</title>
<path fill="none" stroke="midnightblue" d="M182.04,-36.75C190.53,-35.68 199.16,-34.6 207.74,-33.53"/>
<polygon fill="midnightblue" stroke="midnightblue" points="208.27,-36.99 217.76,-32.28 207.4,-30.05 208.27,-36.99"/>
</g>
</g>
</svg>
