<?xml version="1.0" encoding="UTF-8" standalone="no"?>
<!DOCTYPE svg PUBLIC "-//W3C//DTD SVG 1.1//EN"
 "http://www.w3.org/Graphics/SVG/1.1/DTD/svg11.dtd">
<!-- Generated by graphviz version 2.43.0 (0)
 -->
<!-- Title: QuantConnect.Brokerages.BaseWebsocketsBrokerage.Connect Pages: 1 -->
<svg width="635pt" height="88pt"
 viewBox="0.00 0.00 635.00 88.00" xmlns="http://www.w3.org/2000/svg" xmlns:xlink="http://www.w3.org/1999/xlink">
<g id="graph0" class="graph" transform="scale(1 1) rotate(0) translate(4 84)">
<title>QuantConnect.Brokerages.BaseWebsocketsBrokerage.Connect</title>
<polygon fill="white" stroke="transparent" points="-4,4 -4,-84 631,-84 631,4 -4,4"/>
<!-- Node1 -->
<g id="node1" class="node">
<title>Node1</title>
<g id="a_node1"><a xlink:title="Creates wss connection, monitors for disconnection and re&#45;connects when necessary">
<polygon fill="#bfbfbf" stroke="black" points="0,-24.5 0,-54.5 191,-54.5 191,-24.5 0,-24.5"/>
<text text-anchor="start" x="8" y="-42.5" font-family="Helvetica,sans-Serif" font-size="10.00">QuantConnect.Brokerages.</text>
<text text-anchor="middle" x="95.5" y="-31.5" font-family="Helvetica,sans-Serif" font-size="10.00">BaseWebsocketsBrokerage.Connect</text>
</a>
</g>
</g>
<!-- Node2 -->
<g id="node2" class="node">
<title>Node2</title>
<g id="a_node2"><a xlink:href="classQuantConnect_1_1Brokerages_1_1BaseWebsocketsBrokerage.html#ac5e5ca67e8c43e1f68f858f0f7c192a4" target="_top" xlink:title="Start websocket connect">
<polygon fill="white" stroke="black" points="227,-49.5 227,-79.5 441,-79.5 441,-49.5 227,-49.5"/>
<text text-anchor="start" x="235" y="-67.5" font-family="Helvetica,sans-Serif" font-size="10.00">QuantConnect.Brokerages.</text>
<text text-anchor="middle" x="334" y="-56.5" font-family="Helvetica,sans-Serif" font-size="10.00">BaseWebsocketsBrokerage.ConnectSync</text>
</a>
</g>
</g>
<!-- Node1&#45;&gt;Node2 -->
<g id="edge1" class="edge">
<title>Node1&#45;&gt;Node2</title>
<path fill="none" stroke="midnightblue" d="M191.33,-49.52C199.74,-50.41 208.31,-51.32 216.86,-52.22"/>
<polygon fill="midnightblue" stroke="midnightblue" points="216.57,-55.71 226.89,-53.28 217.31,-48.75 216.57,-55.71"/>
</g>
<!-- Node4 -->
<g id="node4" class="node">
<title>Node4</title>
<g id="a_node4"><a xlink:href="classQuantConnect_1_1Logging_1_1Log.html#a4e55477fbc790846b74550a57198cea9" target="_top" xlink:title="Log trace">
<polygon fill="white" stroke="black" points="259,-0.5 259,-30.5 409,-30.5 409,-0.5 259,-0.5"/>
<text text-anchor="start" x="267" y="-18.5" font-family="Helvetica,sans-Serif" font-size="10.00">QuantConnect.Logging.Log.</text>
<text text-anchor="middle" x="334" y="-7.5" font-family="Helvetica,sans-Serif" font-size="10.00">Trace</text>
</a>
</g>
</g>
<!-- Node1&#45;&gt;Node4 -->
<g id="edge3" class="edge">
<title>Node1&#45;&gt;Node4</title>
<path fill="none" stroke="midnightblue" d="M191.33,-29.88C210.31,-27.95 230.12,-25.94 248.71,-24.05"/>
<polygon fill="midnightblue" stroke="midnightblue" points="249.3,-27.51 258.9,-23.02 248.59,-20.55 249.3,-27.51"/>
</g>
<!-- Node3 -->
<g id="node3" class="node">
<title>Node3</title>
<g id="a_node3"><a xlink:href="interfaceQuantConnect_1_1Brokerages_1_1IWebSocket.html#aa280ffe91f772cf1cdd047a645ad92ae" target="_top" xlink:title="Wraps Connect method">
<polygon fill="white" stroke="black" points="479,-49.5 479,-79.5 625,-79.5 625,-49.5 479,-49.5"/>
<text text-anchor="start" x="487" y="-67.5" font-family="Helvetica,sans-Serif" font-size="10.00">QuantConnect.Brokerages.</text>
<text text-anchor="middle" x="552" y="-56.5" font-family="Helvetica,sans-Serif" font-size="10.00">IWebSocket.Connect</text>
</a>
</g>
</g>
<!-- Node2&#45;&gt;Node3 -->
<g id="edge2" class="edge">
<title>Node2&#45;&gt;Node3</title>
<path fill="none" stroke="midnightblue" d="M441.1,-64.5C450.4,-64.5 459.72,-64.5 468.79,-64.5"/>
<polygon fill="midnightblue" stroke="midnightblue" points="468.9,-68 478.9,-64.5 468.9,-61 468.9,-68"/>
</g>
<!-- Node5 -->
<g id="node5" class="node">
<title>Node5</title>
<g id="a_node5"><a xlink:href="interfaceQuantConnect_1_1Logging_1_1ILogHandler.html#a3fb71a33ac66129240b63f12b6fcda3b" target="_top" xlink:title="Write debug message to log">
<polygon fill="white" stroke="black" points="477,-0.5 477,-30.5 627,-30.5 627,-0.5 477,-0.5"/>
<text text-anchor="start" x="485" y="-18.5" font-family="Helvetica,sans-Serif" font-size="10.00">QuantConnect.Logging.ILog</text>
<text text-anchor="middle" x="552" y="-7.5" font-family="Helvetica,sans-Serif" font-size="10.00">Handler.Trace</text>
</a>
</g>
</g>
<!-- Node4&#45;&gt;Node5 -->
<g id="edge4" class="edge">
<title>Node4&#45;&gt;Node5</title>
<path fill="none" stroke="midnightblue" d="M409.03,-15.5C427.56,-15.5 447.58,-15.5 466.57,-15.5"/>
<polygon fill="midnightblue" stroke="midnightblue" points="466.7,-19 476.7,-15.5 466.7,-12 466.7,-19"/>
</g>
</g>
</svg>
