<?xml version="1.0" encoding="UTF-8" standalone="no"?>
<!DOCTYPE svg PUBLIC "-//W3C//DTD SVG 1.1//EN"
 "http://www.w3.org/Graphics/SVG/1.1/DTD/svg11.dtd">
<!-- Generated by graphviz version 2.43.0 (0)
 -->
<!-- Title: QuantConnect.Lean.Engine.DataFeeds.Enumerators.SplitEventProvider.GetEvents Pages: 1 -->
<svg width="407pt" height="100pt"
 viewBox="0.00 0.00 407.00 99.50" xmlns="http://www.w3.org/2000/svg" xmlns:xlink="http://www.w3.org/1999/xlink">
<g id="graph0" class="graph" transform="scale(1 1) rotate(0) translate(4 95.5)">
<title>QuantConnect.Lean.Engine.DataFeeds.Enumerators.SplitEventProvider.GetEvents</title>
<polygon fill="white" stroke="transparent" points="-4,4 -4,-95.5 403,-95.5 403,4 -4,4"/>
<!-- Node1 -->
<g id="node1" class="node">
<title>Node1</title>
<g id="a_node1"><a xlink:title="Check for new splits">
<polygon fill="#bfbfbf" stroke="black" points="0,-27.5 0,-68.5 186,-68.5 186,-27.5 0,-27.5"/>
<text text-anchor="start" x="8" y="-56.5" font-family="Helvetica,sans-Serif" font-size="10.00">QuantConnect.Lean.Engine.</text>
<text text-anchor="start" x="8" y="-45.5" font-family="Helvetica,sans-Serif" font-size="10.00">DataFeeds.Enumerators.SplitEvent</text>
<text text-anchor="middle" x="93" y="-34.5" font-family="Helvetica,sans-Serif" font-size="10.00">Provider.GetEvents</text>
</a>
</g>
</g>
<!-- Node2 -->
<g id="node2" class="node">
<title>Node2</title>
<g id="a_node2"><a xlink:href="classQuantConnect_1_1Data_1_1Auxiliary_1_1MapFile.html#a0450eb9556a318d62727d594e8570e25" target="_top" xlink:title="Determines if there&#39;s data for the requested date">
<polygon fill="white" stroke="black" points="230.5,-61 230.5,-91 390.5,-91 390.5,-61 230.5,-61"/>
<text text-anchor="start" x="238.5" y="-79" font-family="Helvetica,sans-Serif" font-size="10.00">QuantConnect.Data.Auxiliary.</text>
<text text-anchor="middle" x="310.5" y="-68" font-family="Helvetica,sans-Serif" font-size="10.00">MapFile.HasData</text>
</a>
</g>
</g>
<!-- Node1&#45;&gt;Node2 -->
<g id="edge1" class="edge">
<title>Node1&#45;&gt;Node2</title>
<path fill="none" stroke="midnightblue" d="M186.02,-59.96C197.32,-61.42 208.85,-62.92 220.11,-64.39"/>
<polygon fill="midnightblue" stroke="midnightblue" points="219.99,-67.9 230.36,-65.72 220.89,-60.96 219.99,-67.9"/>
</g>
<!-- Node3 -->
<g id="node3" class="node">
<title>Node3</title>
<g id="a_node3"><a xlink:href="classQuantConnect_1_1Data_1_1Auxiliary_1_1CorporateFactorProvider.html#af2bc346817f1180ff7a80a4c17d2f279" target="_top" xlink:title="Returns true if the specified date is the last trading day before a split event is to be fired">
<polygon fill="white" stroke="black" points="222,-0.5 222,-41.5 399,-41.5 399,-0.5 222,-0.5"/>
<text text-anchor="start" x="230" y="-29.5" font-family="Helvetica,sans-Serif" font-size="10.00">QuantConnect.Data.Auxiliary.</text>
<text text-anchor="start" x="230" y="-18.5" font-family="Helvetica,sans-Serif" font-size="10.00">CorporateFactorProvider.HasSplit</text>
<text text-anchor="middle" x="310.5" y="-7.5" font-family="Helvetica,sans-Serif" font-size="10.00">EventOnNextTradingDay</text>
</a>
</g>
</g>
<!-- Node1&#45;&gt;Node3 -->
<g id="edge2" class="edge">
<title>Node1&#45;&gt;Node3</title>
<path fill="none" stroke="midnightblue" d="M186.02,-36.47C194.57,-35.4 203.25,-34.31 211.85,-33.23"/>
<polygon fill="midnightblue" stroke="midnightblue" points="212.41,-36.69 221.9,-31.98 211.54,-29.75 212.41,-36.69"/>
</g>
</g>
</svg>
