<?xml version="1.0" encoding="UTF-8" standalone="no"?>
<!DOCTYPE svg PUBLIC "-//W3C//DTD SVG 1.1//EN"
 "http://www.w3.org/Graphics/SVG/1.1/DTD/svg11.dtd">
<!-- Generated by graphviz version 2.43.0 (0)
 -->
<!-- Title: QuantConnect.SymbolRepresentation.ParseOptionTickerOSI Pages: 1 -->
<!--zoomable 176 -->
<svg id="main" version="1.1" xmlns="http://www.w3.org/2000/svg" xmlns:xlink="http://www.w3.org/1999/xlink" xml:space="preserve" onload="init(evt)">
<style type="text/css"><![CDATA[
.edge:hover path { stroke: red; }
.edge:hover polygon { stroke: red; fill: red; }
]]></style>
<script type="text/javascript"><![CDATA[
var edges = document.getElementsByTagName('g');
if (edges && edges.length) {
  for (var i=0;i<edges.length;i++) {
    if (edges[i].id.substr(0,4)=='edge') {
      edges[i].setAttribute('class','edge');
    }
  }
}
]]></script>
        <defs>
                <circle id="rim" cx="0" cy="0" r="7"/>
                <circle id="rim2" cx="0" cy="0" r="3.5"/>
                <g id="zoomPlus">
                        <use xlink:href="#rim" fill="#404040">
                                <set attributeName="fill" to="#808080" begin="zoomplus.mouseover" end="zoomplus.mouseout"/>
                        </use>
                        <path d="M-4,0h8M0,-4v8" fill="none" stroke="white" stroke-width="1.5" pointer-events="none"/>
                </g>
                <g id="zoomMin">
                        <use xlink:href="#rim" fill="#404040">
                                <set attributeName="fill" to="#808080" begin="zoomminus.mouseover" end="zoomminus.mouseout"/>
                        </use>
                        <path d="M-4,0h8" fill="none" stroke="white" stroke-width="1.5" pointer-events="none"/>
                </g>
                <g id="dirArrow">
                        <path fill="none" stroke="white" stroke-width="1.5" d="M0,-3.0v7 M-2.5,-0.5L0,-3.0L2.5,-0.5"/>
                </g>
               <g id="resetDef">
                       <use xlink:href="#rim2" fill="#404040">
                               <set attributeName="fill" to="#808080" begin="reset.mouseover" end="reset.mouseout"/>
                       </use>
               </g>
        </defs>

<script type="text/javascript">
var viewWidth = 635;
var viewHeight = 176;
var sectionId = 'dynsection-6';
</script>
<script xlink:href="svgpan.js"/>
<svg id="graph" class="graph">
<g id="viewport">
<title>QuantConnect.SymbolRepresentation.ParseOptionTickerOSI</title>
<polygon fill="white" stroke="transparent" points="-4,4 -4,-171.5 631,-171.5 631,4 -4,4"/>
<!-- Node1 -->
<g id="node1" class="node">
<title>Node1</title>
<g id="a_node1"><a xlink:title="Parses the specified OSI options ticker into a Symbol object">
<polygon fill="#bfbfbf" stroke="black" points="0,-73.5 0,-103.5 203,-103.5 203,-73.5 0,-73.5"/>
<text text-anchor="start" x="8" y="-91.5" font-family="Helvetica,sans-Serif" font-size="10.00">QuantConnect.SymbolRepresentation.</text>
<text text-anchor="middle" x="101.5" y="-80.5" font-family="Helvetica,sans-Serif" font-size="10.00">ParseOptionTickerOSI</text>
</a>
</g>
</g>
<!-- Node2 -->
<g id="node2" class="node">
<title>Node2</title>
<g id="a_node2"><a xlink:href="classQuantConnect_1_1Parse.html#aac0a89458d90280d2b3b04afa9e197a2" target="_top" xlink:title="Parses the provided value as a decimal using CultureInfo.InvariantCulture">
<polygon fill="white" stroke="black" points="247,-148 247,-167 405,-167 405,-148 247,-148"/>
<text text-anchor="middle" x="326" y="-155" font-family="Helvetica,sans-Serif" font-size="10.00">QuantConnect.Parse.Decimal</text>
</a>
</g>
</g>
<!-- Node1&#45;&gt;Node2 -->
<g id="edge1" class="edge">
<title>Node1&#45;&gt;Node2</title>
<path fill="none" stroke="midnightblue" d="M139.42,-103.55C166.63,-114.26 204.72,-128.48 239,-138.5 247.84,-141.08 257.28,-143.5 266.54,-145.69"/>
<polygon fill="midnightblue" stroke="midnightblue" points="265.97,-149.15 276.5,-147.97 267.53,-142.33 265.97,-149.15"/>
</g>
<!-- Node3 -->
<g id="node3" class="node">
<title>Node3</title>
<g id="a_node3"><a xlink:href="classQuantConnect_1_1SecurityIdentifier.html#a0c21d7880c9fdd260883d11ea0c99a00" target="_top" xlink:title="Helper overload that will search the mapfiles to resolve the first date. This implementation uses the...">
<polygon fill="white" stroke="black" points="239,-98.5 239,-128.5 413,-128.5 413,-98.5 239,-98.5"/>
<text text-anchor="start" x="247" y="-116.5" font-family="Helvetica,sans-Serif" font-size="10.00">QuantConnect.SecurityIdentifier.</text>
<text text-anchor="middle" x="326" y="-105.5" font-family="Helvetica,sans-Serif" font-size="10.00">GenerateEquity</text>
</a>
</g>
</g>
<!-- Node1&#45;&gt;Node3 -->
<g id="edge2" class="edge">
<title>Node1&#45;&gt;Node3</title>
<path fill="none" stroke="midnightblue" d="M203.01,-99.79C211.62,-100.76 220.31,-101.74 228.89,-102.7"/>
<polygon fill="midnightblue" stroke="midnightblue" points="228.55,-106.19 238.88,-103.82 229.33,-99.23 228.55,-106.19"/>
</g>
<!-- Node4 -->
<g id="node4" class="node">
<title>Node4</title>
<g id="a_node4"><a xlink:href="classQuantConnect_1_1SecurityIdentifier.html#ade05a8e57b041ab484cf585be8d05699" target="_top" xlink:title="Generates a new SecurityIdentifier for a INDEX security">
<polygon fill="white" stroke="black" points="239,-49.5 239,-79.5 413,-79.5 413,-49.5 239,-49.5"/>
<text text-anchor="start" x="247" y="-67.5" font-family="Helvetica,sans-Serif" font-size="10.00">QuantConnect.SecurityIdentifier.</text>
<text text-anchor="middle" x="326" y="-56.5" font-family="Helvetica,sans-Serif" font-size="10.00">GenerateIndex</text>
</a>
</g>
</g>
<!-- Node1&#45;&gt;Node4 -->
<g id="edge3" class="edge">
<title>Node1&#45;&gt;Node4</title>
<path fill="none" stroke="midnightblue" d="M203.01,-77.66C211.62,-76.73 220.31,-75.79 228.89,-74.87"/>
<polygon fill="midnightblue" stroke="midnightblue" points="229.31,-78.34 238.88,-73.79 228.56,-71.38 229.31,-78.34"/>
</g>
<!-- Node5 -->
<g id="node5" class="node">
<title>Node5</title>
<g id="a_node5"><a xlink:href="classQuantConnect_1_1SecurityIdentifier.html#a58becf4433a3155807bc4959679ccca7" target="_top" xlink:title="Generates a new SecurityIdentifier for an option">
<polygon fill="white" stroke="black" points="239,-0.5 239,-30.5 413,-30.5 413,-0.5 239,-0.5"/>
<text text-anchor="start" x="247" y="-18.5" font-family="Helvetica,sans-Serif" font-size="10.00">QuantConnect.SecurityIdentifier.</text>
<text text-anchor="middle" x="326" y="-7.5" font-family="Helvetica,sans-Serif" font-size="10.00">GenerateOption</text>
</a>
</g>
</g>
<!-- Node1&#45;&gt;Node5 -->
<g id="edge4" class="edge">
<title>Node1&#45;&gt;Node5</title>
<path fill="none" stroke="midnightblue" d="M143.52,-73.41C170.52,-63.64 206.71,-50.86 239,-40.5 246.39,-38.13 254.17,-35.73 261.9,-33.41"/>
<polygon fill="midnightblue" stroke="midnightblue" points="263.06,-36.72 271.64,-30.51 261.06,-30.01 263.06,-36.72"/>
</g>
<!-- Node6 -->
<g id="node6" class="node">
<title>Node6</title>
<g id="a_node6"><a xlink:href="classQuantConnect_1_1Symbol.html#ae4c4c626fa68f4bc1e67e5ee8d9870fc" target="_top" xlink:title="Determines the SecurityType based on the underlying Symbol&#39;s SecurityType">
<polygon fill="white" stroke="black" points="449,-0.5 449,-30.5 627,-30.5 627,-0.5 449,-0.5"/>
<text text-anchor="start" x="457" y="-18.5" font-family="Helvetica,sans-Serif" font-size="10.00">QuantConnect.Symbol.GetOption</text>
<text text-anchor="middle" x="538" y="-7.5" font-family="Helvetica,sans-Serif" font-size="10.00">TypeFromUnderlying</text>
</a>
</g>
</g>
<!-- Node5&#45;&gt;Node6 -->
<g id="edge5" class="edge">
<title>Node5&#45;&gt;Node6</title>
<path fill="none" stroke="midnightblue" d="M413.02,-15.5C421.49,-15.5 430.13,-15.5 438.7,-15.5"/>
<polygon fill="midnightblue" stroke="midnightblue" points="438.73,-19 448.73,-15.5 438.73,-12 438.73,-19"/>
</g>
</g>
</svg>
        <g id="navigator" transform="translate(0 0)" fill="#404254">
                <rect fill="#f2f5e9" fill-opacity="0.5" stroke="#606060" stroke-width=".5" x="0" y="0" width="60" height="60"/>
                <use id="zoomplus" xlink:href="#zoomPlus" x="17" y="9" onmousedown="handleZoom(evt,'in')"/>
                <use id="zoomminus" xlink:href="#zoomMin" x="42" y="9" onmousedown="handleZoom(evt,'out')"/>
                <use id="reset" xlink:href="#resetDef" x="30" y="36" onmousedown="handleReset()"/>
                <g id="arrowUp" xlink:href="#dirArrow" transform="translate(30 24)" onmousedown="handlePan(0,-1)">
                  <use xlink:href="#rim" fill="#404040">
                        <set attributeName="fill" to="#808080" begin="arrowUp.mouseover" end="arrowUp.mouseout"/>
                  </use>
                  <path fill="none" stroke="white" stroke-width="1.5" d="M0,-3.0v7 M-2.5,-0.5L0,-3.0L2.5,-0.5"/>
                </g>
                <g id="arrowRight" xlink:href="#dirArrow" transform="rotate(90) translate(36 -43)" onmousedown="handlePan(1,0)">
                  <use xlink:href="#rim" fill="#404040">
                        <set attributeName="fill" to="#808080" begin="arrowRight.mouseover" end="arrowRight.mouseout"/>
                  </use>
                  <path fill="none" stroke="white" stroke-width="1.5" d="M0,-3.0v7 M-2.5,-0.5L0,-3.0L2.5,-0.5"/>
                </g>
                <g id="arrowDown" xlink:href="#dirArrow" transform="rotate(180) translate(-30 -48)" onmousedown="handlePan(0,1)">
                  <use xlink:href="#rim" fill="#404040">
                        <set attributeName="fill" to="#808080" begin="arrowDown.mouseover" end="arrowDown.mouseout"/>
                  </use>
                  <path fill="none" stroke="white" stroke-width="1.5" d="M0,-3.0v7 M-2.5,-0.5L0,-3.0L2.5,-0.5"/>
                </g>
                <g id="arrowLeft" xlink:href="#dirArrow" transform="rotate(270) translate(-36 17)" onmousedown="handlePan(-1,0)">
                  <use xlink:href="#rim" fill="#404040">
                        <set attributeName="fill" to="#808080" begin="arrowLeft.mouseover" end="arrowLeft.mouseout"/>
                  </use>
                  <path fill="none" stroke="white" stroke-width="1.5" d="M0,-3.0v7 M-2.5,-0.5L0,-3.0L2.5,-0.5"/>
                </g>
        </g>
        <svg viewBox="0 0 15 15" width="100%" height="30px" preserveAspectRatio="xMaxYMin meet">
         <g id="arrow_out" transform="scale(0.3 0.3)">
          <a xlink:href="classQuantConnect_1_1SymbolRepresentation_a8390f7e01ea8cc7ca5d9c650c377d8b2_cgraph_org.svg" target="_base">
           <rect id="button" ry="5" rx="5" y="6" x="6" height="38" width="38"
                fill="#f2f5e9" fill-opacity="0.5" stroke="#606060" stroke-width="1.0"/>
           <path id="arrow"
             d="M 11.500037,31.436501 C 11.940474,20.09759 22.043105,11.32322 32.158766,21.979434 L 37.068811,17.246167 C 37.068811,17.246167 37.088388,32 37.088388,32 L 22.160133,31.978069 C 22.160133,31.978069 26.997745,27.140456 26.997745,27.140456 C 18.528582,18.264221 13.291696,25.230495 11.500037,31.436501 z"
             style="fill:#404040;"/>
          </a>
         </g>
        </svg>
</svg>
