<?xml version="1.0" encoding="UTF-8" standalone="no"?>
<!DOCTYPE svg PUBLIC "-//W3C//DTD SVG 1.1//EN"
 "http://www.w3.org/Graphics/SVG/1.1/DTD/svg11.dtd">
<!-- Generated by graphviz version 2.43.0 (0)
 -->
<!-- Title: QuantConnect.Scheduling.DateRules.EveryDay Pages: 1 -->
<svg width="984pt" height="39pt"
 viewBox="0.00 0.00 984.00 39.00" xmlns="http://www.w3.org/2000/svg" xmlns:xlink="http://www.w3.org/1999/xlink">
<g id="graph0" class="graph" transform="scale(1 1) rotate(0) translate(4 35)">
<title>QuantConnect.Scheduling.DateRules.EveryDay</title>
<polygon fill="white" stroke="transparent" points="-4,4 -4,-35 980,-35 980,4 -4,4"/>
<!-- Node1 -->
<g id="node1" class="node">
<title>Node1</title>
<g id="a_node1"><a xlink:title="Specifies an event should fire every day the symbol is trading">
<polygon fill="#bfbfbf" stroke="black" points="0,-0.5 0,-30.5 145,-30.5 145,-0.5 0,-0.5"/>
<text text-anchor="start" x="8" y="-18.5" font-family="Helvetica,sans-Serif" font-size="10.00">QuantConnect.Scheduling.</text>
<text text-anchor="middle" x="72.5" y="-7.5" font-family="Helvetica,sans-Serif" font-size="10.00">DateRules.EveryDay</text>
</a>
</g>
</g>
<!-- Node2 -->
<g id="node2" class="node">
<title>Node2</title>
<g id="a_node2"><a xlink:href="classQuantConnect_1_1Time.html#a6e89a079e35522aa29df3cf30c7b6e39" target="_top" xlink:title="Define an enumerable date range of tradeable dates &#45; skip the holidays and weekends when securities i...">
<polygon fill="white" stroke="black" points="181,-6 181,-25 387,-25 387,-6 181,-6"/>
<text text-anchor="middle" x="284" y="-13" font-family="Helvetica,sans-Serif" font-size="10.00">QuantConnect.Time.EachTradeableDay</text>
</a>
</g>
</g>
<!-- Node1&#45;&gt;Node2 -->
<g id="edge1" class="edge">
<title>Node1&#45;&gt;Node2</title>
<path fill="none" stroke="midnightblue" d="M145.01,-15.5C153.28,-15.5 161.85,-15.5 170.49,-15.5"/>
<polygon fill="midnightblue" stroke="midnightblue" points="170.66,-19 180.66,-15.5 170.66,-12 170.66,-19"/>
</g>
<!-- Node3 -->
<g id="node3" class="node">
<title>Node3</title>
<g id="a_node3"><a xlink:href="classQuantConnect_1_1Time.html#a8bf543d00ede64fe5180187ea6bfdaad" target="_top" xlink:title="Make sure this date is not a holiday, or weekend for the securities in this algorithm.">
<polygon fill="white" stroke="black" points="423,-6 423,-25 604,-25 604,-6 423,-6"/>
<text text-anchor="middle" x="513.5" y="-13" font-family="Helvetica,sans-Serif" font-size="10.00">QuantConnect.Time.TradableDate</text>
</a>
</g>
</g>
<!-- Node2&#45;&gt;Node3 -->
<g id="edge2" class="edge">
<title>Node2&#45;&gt;Node3</title>
<path fill="none" stroke="midnightblue" d="M387.1,-15.5C395.59,-15.5 404.16,-15.5 412.62,-15.5"/>
<polygon fill="midnightblue" stroke="midnightblue" points="412.88,-19 422.88,-15.5 412.88,-12 412.88,-19"/>
</g>
<!-- Node4 -->
<g id="node4" class="node">
<title>Node4</title>
<g id="a_node4"><a xlink:href="classQuantConnect_1_1Logging_1_1Log.html#af0e7955911bc7664b37661b2a303a9e3" target="_top" xlink:title="Log error">
<polygon fill="white" stroke="black" points="640,-0.5 640,-30.5 790,-30.5 790,-0.5 640,-0.5"/>
<text text-anchor="start" x="648" y="-18.5" font-family="Helvetica,sans-Serif" font-size="10.00">QuantConnect.Logging.Log.</text>
<text text-anchor="middle" x="715" y="-7.5" font-family="Helvetica,sans-Serif" font-size="10.00">Error</text>
</a>
</g>
</g>
<!-- Node3&#45;&gt;Node4 -->
<g id="edge3" class="edge">
<title>Node3&#45;&gt;Node4</title>
<path fill="none" stroke="midnightblue" d="M604.04,-15.5C612.58,-15.5 621.22,-15.5 629.71,-15.5"/>
<polygon fill="midnightblue" stroke="midnightblue" points="629.98,-19 639.98,-15.5 629.98,-12 629.98,-19"/>
</g>
<!-- Node5 -->
<g id="node5" class="node">
<title>Node5</title>
<g id="a_node5"><a xlink:href="interfaceQuantConnect_1_1Logging_1_1ILogHandler.html#a35373a0c5d76031fa5ccf5dc39e5c25d" target="_top" xlink:title="Write error message to log">
<polygon fill="white" stroke="black" points="826,-0.5 826,-30.5 976,-30.5 976,-0.5 826,-0.5"/>
<text text-anchor="start" x="834" y="-18.5" font-family="Helvetica,sans-Serif" font-size="10.00">QuantConnect.Logging.ILog</text>
<text text-anchor="middle" x="901" y="-7.5" font-family="Helvetica,sans-Serif" font-size="10.00">Handler.Error</text>
</a>
</g>
</g>
<!-- Node4&#45;&gt;Node5 -->
<g id="edge4" class="edge">
<title>Node4&#45;&gt;Node5</title>
<path fill="none" stroke="midnightblue" d="M790.04,-15.5C798.51,-15.5 807.19,-15.5 815.78,-15.5"/>
<polygon fill="midnightblue" stroke="midnightblue" points="815.81,-19 825.81,-15.5 815.81,-12 815.81,-19"/>
</g>
</g>
</svg>
