<?xml version="1.0" encoding="UTF-8" standalone="no"?>
<!DOCTYPE svg PUBLIC "-//W3C//DTD SVG 1.1//EN"
 "http://www.w3.org/Graphics/SVG/1.1/DTD/svg11.dtd">
<!-- Generated by graphviz version 2.43.0 (0)
 -->
<!-- Title: QuantConnect.ToolBox.RandomDataGenerator.DefaultSymbolGenerator.GenerateAsset Pages: 1 -->
<!--zoomable 547 -->
<svg id="main" version="1.1" xmlns="http://www.w3.org/2000/svg" xmlns:xlink="http://www.w3.org/1999/xlink" xml:space="preserve" onload="init(evt)">
<style type="text/css"><![CDATA[
.edge:hover path { stroke: red; }
.edge:hover polygon { stroke: red; fill: red; }
]]></style>
<script type="text/javascript"><![CDATA[
var edges = document.getElementsByTagName('g');
if (edges && edges.length) {
  for (var i=0;i<edges.length;i++) {
    if (edges[i].id.substr(0,4)=='edge') {
      edges[i].setAttribute('class','edge');
    }
  }
}
]]></script>
        <defs>
                <circle id="rim" cx="0" cy="0" r="7"/>
                <circle id="rim2" cx="0" cy="0" r="3.5"/>
                <g id="zoomPlus">
                        <use xlink:href="#rim" fill="#404040">
                                <set attributeName="fill" to="#808080" begin="zoomplus.mouseover" end="zoomplus.mouseout"/>
                        </use>
                        <path d="M-4,0h8M0,-4v8" fill="none" stroke="white" stroke-width="1.5" pointer-events="none"/>
                </g>
                <g id="zoomMin">
                        <use xlink:href="#rim" fill="#404040">
                                <set attributeName="fill" to="#808080" begin="zoomminus.mouseover" end="zoomminus.mouseout"/>
                        </use>
                        <path d="M-4,0h8" fill="none" stroke="white" stroke-width="1.5" pointer-events="none"/>
                </g>
                <g id="dirArrow">
                        <path fill="none" stroke="white" stroke-width="1.5" d="M0,-3.0v7 M-2.5,-0.5L0,-3.0L2.5,-0.5"/>
                </g>
               <g id="resetDef">
                       <use xlink:href="#rim2" fill="#404040">
                               <set attributeName="fill" to="#808080" begin="reset.mouseover" end="reset.mouseout"/>
                       </use>
               </g>
        </defs>

<script type="text/javascript">
var viewWidth = 1930;
var viewHeight = 547;
var sectionId = 'dynsection-1';
</script>
<script xlink:href="svgpan.js"/>
<svg id="graph" class="graph">
<g id="viewport">
<title>QuantConnect.ToolBox.RandomDataGenerator.DefaultSymbolGenerator.GenerateAsset</title>
<polygon fill="white" stroke="transparent" points="-4,4 -4,-543.04 1926,-543.04 1926,4 -4,4"/>
<!-- Node1 -->
<g id="node1" class="node">
<title>Node1</title>
<g id="a_node1"><a xlink:title="Generates a single&#45;item list at a time using base random implementation">
<polygon fill="#bfbfbf" stroke="black" points="0,-161.5 0,-202.5 215,-202.5 215,-161.5 0,-161.5"/>
<text text-anchor="start" x="8" y="-190.5" font-family="Helvetica,sans-Serif" font-size="10.00">QuantConnect.ToolBox.Random</text>
<text text-anchor="start" x="8" y="-179.5" font-family="Helvetica,sans-Serif" font-size="10.00">DataGenerator.DefaultSymbolGenerator.</text>
<text text-anchor="middle" x="107.5" y="-168.5" font-family="Helvetica,sans-Serif" font-size="10.00">GenerateAsset</text>
</a>
</g>
</g>
<!-- Node2 -->
<g id="node2" class="node">
<title>Node2</title>
<g id="a_node2"><a xlink:href="classQuantConnect_1_1ToolBox_1_1RandomDataGenerator_1_1BaseSymbolGenerator.html#a81261a4e15b1946f9da42203bc7e3aa6" target="_top" xlink:title="Generates random symbol, used further down for asset">
<polygon fill="white" stroke="black" points="251,-161.5 251,-202.5 454,-202.5 454,-161.5 251,-161.5"/>
<text text-anchor="start" x="259" y="-190.5" font-family="Helvetica,sans-Serif" font-size="10.00">QuantConnect.ToolBox.Random</text>
<text text-anchor="start" x="259" y="-179.5" font-family="Helvetica,sans-Serif" font-size="10.00">DataGenerator.BaseSymbolGenerator.</text>
<text text-anchor="middle" x="352.5" y="-168.5" font-family="Helvetica,sans-Serif" font-size="10.00">NextSymbol</text>
</a>
</g>
</g>
<!-- Node1&#45;&gt;Node2 -->
<g id="edge1" class="edge">
<title>Node1&#45;&gt;Node2</title>
<path fill="none" stroke="midnightblue" d="M215.08,-182C223.51,-182 232.04,-182 240.5,-182"/>
<polygon fill="midnightblue" stroke="midnightblue" points="240.78,-185.5 250.78,-182 240.78,-178.5 240.78,-185.5"/>
</g>
<!-- Node3 -->
<g id="node3" class="node">
<title>Node3</title>
<g id="a_node3"><a xlink:href="classQuantConnect_1_1Securities_1_1SymbolPropertiesDatabase.html#a3b4d0360c1a785aaaa3a440ce1e91204" target="_top" xlink:title="Check whether symbol properties exists for the specified market/symbol/security&#45;type">
<polygon fill="white" stroke="black" points="497,-312 497,-342 710,-342 710,-312 497,-312"/>
<text text-anchor="start" x="505" y="-330" font-family="Helvetica,sans-Serif" font-size="10.00">QuantConnect.Securities.</text>
<text text-anchor="middle" x="603.5" y="-319" font-family="Helvetica,sans-Serif" font-size="10.00">SymbolPropertiesDatabase.ContainsKey</text>
</a>
</g>
</g>
<!-- Node2&#45;&gt;Node3 -->
<g id="edge2" class="edge">
<title>Node2&#45;&gt;Node3</title>
<path fill="none" stroke="midnightblue" d="M371.06,-202.93C395.06,-230.1 440.77,-277 490,-302 494.67,-304.37 499.57,-306.52 504.59,-308.47"/>
<polygon fill="midnightblue" stroke="midnightblue" points="503.79,-311.9 514.39,-311.97 506.15,-305.31 503.79,-311.9"/>
</g>
<!-- Node4 -->
<g id="node4" class="node">
<title>Node4</title>
<g id="a_node4"><a xlink:href="classQuantConnect_1_1Symbol.html#a350b9a625cf7bad95da82894be3cd0a8" target="_top" xlink:title="Provides a convenience method for creating a Symbol for most security types. This method currently do...">
<polygon fill="white" stroke="black" points="523,-273.5 523,-292.5 684,-292.5 684,-273.5 523,-273.5"/>
<text text-anchor="middle" x="603.5" y="-280.5" font-family="Helvetica,sans-Serif" font-size="10.00">QuantConnect.Symbol.Create</text>
</a>
</g>
</g>
<!-- Node2&#45;&gt;Node4 -->
<g id="edge3" class="edge">
<title>Node2&#45;&gt;Node4</title>
<path fill="none" stroke="midnightblue" d="M404.19,-202.56C453.55,-222.58 527.15,-252.44 569.42,-269.58"/>
<polygon fill="midnightblue" stroke="midnightblue" points="568.37,-272.93 578.96,-273.45 571,-266.45 568.37,-272.93"/>
</g>
<!-- Node19 -->
<g id="node19" class="node">
<title>Node19</title>
<g id="a_node19"><a xlink:href="classQuantConnect_1_1ToolBox_1_1RandomDataGenerator_1_1BaseSymbolGenerator.html#aaa2b8cebd6792453b08e7aca486cc60a" target="_top" xlink:title="Return a Ticker matching an entry in the Symbol properties database">
<polygon fill="white" stroke="black" points="490,-60.5 490,-101.5 717,-101.5 717,-60.5 490,-60.5"/>
<text text-anchor="start" x="498" y="-89.5" font-family="Helvetica,sans-Serif" font-size="10.00">QuantConnect.ToolBox.Random</text>
<text text-anchor="start" x="498" y="-78.5" font-family="Helvetica,sans-Serif" font-size="10.00">DataGenerator.BaseSymbolGenerator.</text>
<text text-anchor="middle" x="603.5" y="-67.5" font-family="Helvetica,sans-Serif" font-size="10.00">NextTickerFromSymbolPropertiesDatabase</text>
</a>
</g>
</g>
<!-- Node2&#45;&gt;Node19 -->
<g id="edge20" class="edge">
<title>Node2&#45;&gt;Node19</title>
<path fill="none" stroke="midnightblue" d="M404.19,-161.44C444.24,-145.19 500.25,-122.47 542.54,-105.32"/>
<polygon fill="midnightblue" stroke="midnightblue" points="543.93,-108.53 551.88,-101.53 541.3,-102.05 543.93,-108.53"/>
</g>
<!-- Node22 -->
<g id="node22" class="node">
<title>Node22</title>
<g id="a_node22"><a xlink:href="classQuantConnect_1_1ToolBox_1_1RandomDataGenerator_1_1BaseSymbolGenerator.html#a92467b066fe4f00938ff6a0ae41ef6e9" target="_top" xlink:title="Generates a random string within the specified lengths.">
<polygon fill="white" stroke="black" points="502,-0.5 502,-41.5 705,-41.5 705,-0.5 502,-0.5"/>
<text text-anchor="start" x="510" y="-29.5" font-family="Helvetica,sans-Serif" font-size="10.00">QuantConnect.ToolBox.Random</text>
<text text-anchor="start" x="510" y="-18.5" font-family="Helvetica,sans-Serif" font-size="10.00">DataGenerator.BaseSymbolGenerator.</text>
<text text-anchor="middle" x="603.5" y="-7.5" font-family="Helvetica,sans-Serif" font-size="10.00">NextUpperCaseString</text>
</a>
</g>
</g>
<!-- Node2&#45;&gt;Node22 -->
<g id="edge23" class="edge">
<title>Node2&#45;&gt;Node22</title>
<path fill="none" stroke="midnightblue" d="M369.21,-161.4C392.44,-132.4 438.77,-79.84 490,-51 493.42,-49.07 496.97,-47.27 500.6,-45.58"/>
<polygon fill="midnightblue" stroke="midnightblue" points="502.02,-48.78 509.81,-41.59 499.24,-42.35 502.02,-48.78"/>
</g>
<!-- Node5 -->
<g id="node5" class="node">
<title>Node5</title>
<g id="a_node5"><a xlink:href="classQuantConnect_1_1Symbol.html#a7518a1932d1babbff128f2ba9666a78b" target="_top" xlink:title="Provides a convenience method for creating an option Symbol.">
<polygon fill="white" stroke="black" points="778.5,-454 778.5,-484 939.5,-484 939.5,-454 778.5,-454"/>
<text text-anchor="start" x="786.5" y="-472" font-family="Helvetica,sans-Serif" font-size="10.00">QuantConnect.Symbol.Create</text>
<text text-anchor="middle" x="859" y="-461" font-family="Helvetica,sans-Serif" font-size="10.00">Option</text>
</a>
</g>
</g>
<!-- Node4&#45;&gt;Node5 -->
<g id="edge4" class="edge">
<title>Node4&#45;&gt;Node5</title>
<path fill="none" stroke="midnightblue" d="M684.23,-285.53C696.32,-289.03 707.8,-294.54 717,-303 763.01,-345.34 709.22,-394.36 753,-439 757.82,-443.91 763.38,-448.03 769.37,-451.49"/>
<polygon fill="midnightblue" stroke="midnightblue" points="767.93,-454.68 778.43,-456.09 771.1,-448.44 767.93,-454.68"/>
</g>
<!-- Node6 -->
<g id="node6" class="node">
<title>Node6</title>
<g id="a_node6"><a xlink:href="classQuantConnect_1_1SecurityIdentifier.html#a0c21d7880c9fdd260883d11ea0c99a00" target="_top" xlink:title="Helper overload that will search the mapfiles to resolve the first date. This implementation uses the...">
<polygon fill="white" stroke="black" points="1001,-487 1001,-517 1175,-517 1175,-487 1001,-487"/>
<text text-anchor="start" x="1009" y="-505" font-family="Helvetica,sans-Serif" font-size="10.00">QuantConnect.SecurityIdentifier.</text>
<text text-anchor="middle" x="1088" y="-494" font-family="Helvetica,sans-Serif" font-size="10.00">GenerateEquity</text>
</a>
</g>
</g>
<!-- Node4&#45;&gt;Node6 -->
<g id="edge15" class="edge">
<title>Node4&#45;&gt;Node6</title>
<path fill="none" stroke="midnightblue" d="M684.19,-284.8C696.43,-288.35 707.98,-294.07 717,-303 778.4,-363.77 687.17,-438.07 753,-494 830.47,-559.81 958.41,-539.27 1031.4,-519.76"/>
<polygon fill="midnightblue" stroke="midnightblue" points="1032.62,-523.05 1041.33,-517.02 1030.76,-516.3 1032.62,-523.05"/>
</g>
<!-- Node7 -->
<g id="node7" class="node">
<title>Node7</title>
<g id="a_node7"><a xlink:href="classQuantConnect_1_1Symbol.html#a59158f74116be3dad0ea0f3f3f134416" target="_top" xlink:title="Initializes a new instance of the Symbol class">
<polygon fill="white" stroke="black" points="1005.5,-426.5 1005.5,-445.5 1170.5,-445.5 1170.5,-426.5 1005.5,-426.5"/>
<text text-anchor="middle" x="1088" y="-433.5" font-family="Helvetica,sans-Serif" font-size="10.00">QuantConnect.Symbol.Symbol</text>
</a>
</g>
</g>
<!-- Node4&#45;&gt;Node7 -->
<g id="edge19" class="edge">
<title>Node4&#45;&gt;Node7</title>
<path fill="none" stroke="midnightblue" d="M684.27,-286.31C696.21,-289.74 707.63,-295.03 717,-303 753.93,-334.43 714.75,-376.19 753,-406 789.5,-434.45 909.44,-439.13 995.13,-438.6"/>
<polygon fill="midnightblue" stroke="midnightblue" points="995.18,-442.1 1005.14,-438.51 995.11,-435.1 995.18,-442.1"/>
</g>
<!-- Node12 -->
<g id="node12" class="node">
<title>Node12</title>
<g id="a_node12"><a xlink:href="classQuantConnect_1_1SecurityIdentifier.html#a02ca750115844561c001c2346fbafc00" target="_top" xlink:title="Generates a new SecurityIdentifier for a custom security with the option of providing the first date">
<polygon fill="white" stroke="black" points="772,-366 772,-396 946,-396 946,-366 772,-366"/>
<text text-anchor="start" x="780" y="-384" font-family="Helvetica,sans-Serif" font-size="10.00">QuantConnect.SecurityIdentifier.</text>
<text text-anchor="middle" x="859" y="-373" font-family="Helvetica,sans-Serif" font-size="10.00">GenerateBase</text>
</a>
</g>
</g>
<!-- Node4&#45;&gt;Node12 -->
<g id="edge11" class="edge">
<title>Node4&#45;&gt;Node12</title>
<path fill="none" stroke="midnightblue" d="M684.14,-288.84C695.76,-292 707.12,-296.54 717,-303 741.14,-318.79 729.25,-340.62 753,-357 756.11,-359.14 759.38,-361.1 762.77,-362.88"/>
<polygon fill="midnightblue" stroke="midnightblue" points="761.44,-366.12 771.98,-367.21 764.42,-359.79 761.44,-366.12"/>
</g>
<!-- Node14 -->
<g id="node14" class="node">
<title>Node14</title>
<g id="a_node14"><a xlink:href="classQuantConnect_1_1SecurityIdentifier.html#a53953b18d814c5445e4ecdcb3b555080" target="_top" xlink:title="Generates a new SecurityIdentifier for a CFD security">
<polygon fill="white" stroke="black" points="772,-317 772,-347 946,-347 946,-317 772,-317"/>
<text text-anchor="start" x="780" y="-335" font-family="Helvetica,sans-Serif" font-size="10.00">QuantConnect.SecurityIdentifier.</text>
<text text-anchor="middle" x="859" y="-324" font-family="Helvetica,sans-Serif" font-size="10.00">GenerateCfd</text>
</a>
</g>
</g>
<!-- Node4&#45;&gt;Node14 -->
<g id="edge13" class="edge">
<title>Node4&#45;&gt;Node14</title>
<path fill="none" stroke="midnightblue" d="M659.77,-292.52C678.01,-295.74 698.39,-299.43 717,-303 736.42,-306.72 757.31,-310.92 776.9,-314.93"/>
<polygon fill="midnightblue" stroke="midnightblue" points="776.21,-318.36 786.71,-316.95 777.62,-311.5 776.21,-318.36"/>
</g>
<!-- Node15 -->
<g id="node15" class="node">
<title>Node15</title>
<g id="a_node15"><a xlink:href="classQuantConnect_1_1SecurityIdentifier.html#a5889a95a36ce927dd0a109cbfbcbe663" target="_top" xlink:title="Generates a new SecurityIdentifier for a Crypto pair">
<polygon fill="white" stroke="black" points="772,-268 772,-298 946,-298 946,-268 772,-268"/>
<text text-anchor="start" x="780" y="-286" font-family="Helvetica,sans-Serif" font-size="10.00">QuantConnect.SecurityIdentifier.</text>
<text text-anchor="middle" x="859" y="-275" font-family="Helvetica,sans-Serif" font-size="10.00">GenerateCrypto</text>
</a>
</g>
</g>
<!-- Node4&#45;&gt;Node15 -->
<g id="edge14" class="edge">
<title>Node4&#45;&gt;Node15</title>
<path fill="none" stroke="midnightblue" d="M684.01,-283C708.63,-283 736.01,-283 761.63,-283"/>
<polygon fill="midnightblue" stroke="midnightblue" points="761.73,-286.5 771.73,-283 761.73,-279.5 761.73,-286.5"/>
</g>
<!-- Node16 -->
<g id="node16" class="node">
<title>Node16</title>
<g id="a_node16"><a xlink:href="classQuantConnect_1_1SecurityIdentifier.html#a9cf0d3b208a5171e6112516ce441f18d" target="_top" xlink:title="Generates a new SecurityIdentifier for a forex pair">
<polygon fill="white" stroke="black" points="772,-219 772,-249 946,-249 946,-219 772,-219"/>
<text text-anchor="start" x="780" y="-237" font-family="Helvetica,sans-Serif" font-size="10.00">QuantConnect.SecurityIdentifier.</text>
<text text-anchor="middle" x="859" y="-226" font-family="Helvetica,sans-Serif" font-size="10.00">GenerateForex</text>
</a>
</g>
</g>
<!-- Node4&#45;&gt;Node16 -->
<g id="edge16" class="edge">
<title>Node4&#45;&gt;Node16</title>
<path fill="none" stroke="midnightblue" d="M653.68,-273.49C686.59,-267.13 730.84,-258.58 769.74,-251.06"/>
<polygon fill="midnightblue" stroke="midnightblue" points="770.88,-254.41 780.03,-249.07 769.55,-247.53 770.88,-254.41"/>
</g>
<!-- Node17 -->
<g id="node17" class="node">
<title>Node17</title>
<g id="a_node17"><a xlink:href="classQuantConnect_1_1SecurityIdentifier.html#ad50a891c97cb0c084a9e2aa43607ed66" target="_top" xlink:title="Generates a new SecurityIdentifier for a future">
<polygon fill="white" stroke="black" points="772,-170 772,-200 946,-200 946,-170 772,-170"/>
<text text-anchor="start" x="780" y="-188" font-family="Helvetica,sans-Serif" font-size="10.00">QuantConnect.SecurityIdentifier.</text>
<text text-anchor="middle" x="859" y="-177" font-family="Helvetica,sans-Serif" font-size="10.00">GenerateFuture</text>
</a>
</g>
</g>
<!-- Node4&#45;&gt;Node17 -->
<g id="edge17" class="edge">
<title>Node4&#45;&gt;Node17</title>
<path fill="none" stroke="midnightblue" d="M620.89,-273.42C647.71,-258.1 702.99,-227.99 753,-210 760.25,-207.39 767.89,-204.97 775.59,-202.76"/>
<polygon fill="midnightblue" stroke="midnightblue" points="776.66,-206.09 785.36,-200.05 774.79,-199.35 776.66,-206.09"/>
</g>
<!-- Node18 -->
<g id="node18" class="node">
<title>Node18</title>
<g id="a_node18"><a xlink:href="classQuantConnect_1_1SecurityIdentifier.html#ade05a8e57b041ab484cf585be8d05699" target="_top" xlink:title="Generates a new SecurityIdentifier for a INDEX security">
<polygon fill="white" stroke="black" points="772,-121 772,-151 946,-151 946,-121 772,-121"/>
<text text-anchor="start" x="780" y="-139" font-family="Helvetica,sans-Serif" font-size="10.00">QuantConnect.SecurityIdentifier.</text>
<text text-anchor="middle" x="859" y="-128" font-family="Helvetica,sans-Serif" font-size="10.00">GenerateIndex</text>
</a>
</g>
</g>
<!-- Node4&#45;&gt;Node18 -->
<g id="edge18" class="edge">
<title>Node4&#45;&gt;Node18</title>
<path fill="none" stroke="midnightblue" d="M613.16,-273.35C634.5,-250.18 692.33,-191.12 753,-161 757.88,-158.58 763,-156.38 768.25,-154.4"/>
<polygon fill="midnightblue" stroke="midnightblue" points="769.54,-157.66 777.82,-151.04 767.22,-151.05 769.54,-157.66"/>
</g>
<!-- Node5&#45;&gt;Node6 -->
<g id="edge5" class="edge">
<title>Node5&#45;&gt;Node6</title>
<path fill="none" stroke="midnightblue" d="M939.71,-480.59C956.27,-482.99 973.87,-485.55 990.94,-488.04"/>
<polygon fill="midnightblue" stroke="midnightblue" points="990.52,-491.51 1000.92,-489.49 991.52,-484.58 990.52,-491.51"/>
</g>
<!-- Node5&#45;&gt;Node7 -->
<g id="edge6" class="edge">
<title>Node5&#45;&gt;Node7</title>
<path fill="none" stroke="midnightblue" d="M939.71,-457.41C962.97,-454.03 988.31,-450.35 1011.31,-447"/>
<polygon fill="midnightblue" stroke="midnightblue" points="1011.96,-450.45 1021.36,-445.54 1010.96,-443.52 1011.96,-450.45"/>
</g>
<!-- Node8 -->
<g id="node8" class="node">
<title>Node8</title>
<g id="a_node8"><a xlink:href="classQuantConnect_1_1Symbol.html#a59b0795fa21f46c306deb5576fa03bb9" target="_top" xlink:title="Centralized helper method to resolve alias for a symbol">
<polygon fill="white" stroke="black" points="1211,-426.5 1211,-445.5 1381,-445.5 1381,-426.5 1211,-426.5"/>
<text text-anchor="middle" x="1296" y="-433.5" font-family="Helvetica,sans-Serif" font-size="10.00">QuantConnect.Symbol.GetAlias</text>
</a>
</g>
</g>
<!-- Node7&#45;&gt;Node8 -->
<g id="edge7" class="edge">
<title>Node7&#45;&gt;Node8</title>
<path fill="none" stroke="midnightblue" d="M1170.71,-436C1180.47,-436 1190.49,-436 1200.4,-436"/>
<polygon fill="midnightblue" stroke="midnightblue" points="1200.68,-439.5 1210.68,-436 1200.68,-432.5 1200.68,-439.5"/>
</g>
<!-- Node9 -->
<g id="node9" class="node">
<title>Node9</title>
<g id="a_node9"><a xlink:href="classQuantConnect_1_1SymbolRepresentation.html#abe54ff47eb211a2a99fb47b72683e3b9" target="_top" xlink:title="Returns future symbol ticker from underlying and expiration date. Function can generate tickers of tw...">
<polygon fill="white" stroke="black" points="1417,-446 1417,-476 1620,-476 1620,-446 1417,-446"/>
<text text-anchor="start" x="1425" y="-464" font-family="Helvetica,sans-Serif" font-size="10.00">QuantConnect.SymbolRepresentation.</text>
<text text-anchor="middle" x="1518.5" y="-453" font-family="Helvetica,sans-Serif" font-size="10.00">GenerateFutureTicker</text>
</a>
</g>
</g>
<!-- Node8&#45;&gt;Node9 -->
<g id="edge8" class="edge">
<title>Node8&#45;&gt;Node9</title>
<path fill="none" stroke="midnightblue" d="M1380.99,-445.52C1389.39,-446.47 1398,-447.45 1406.62,-448.43"/>
<polygon fill="midnightblue" stroke="midnightblue" points="1406.4,-451.93 1416.73,-449.57 1407.19,-444.97 1406.4,-451.93"/>
</g>
<!-- Node11 -->
<g id="node11" class="node">
<title>Node11</title>
<g id="a_node11"><a xlink:href="classQuantConnect_1_1SymbolRepresentation.html#ab133044f5cf8c16e700190a2202b215e" target="_top" xlink:title="Returns option symbol ticker in accordance with OSI symbology More information can be found at http:/...">
<polygon fill="white" stroke="black" points="1417,-397 1417,-427 1620,-427 1620,-397 1417,-397"/>
<text text-anchor="start" x="1425" y="-415" font-family="Helvetica,sans-Serif" font-size="10.00">QuantConnect.SymbolRepresentation.</text>
<text text-anchor="middle" x="1518.5" y="-404" font-family="Helvetica,sans-Serif" font-size="10.00">GenerateOptionTickerOSI</text>
</a>
</g>
</g>
<!-- Node8&#45;&gt;Node11 -->
<g id="edge10" class="edge">
<title>Node8&#45;&gt;Node11</title>
<path fill="none" stroke="midnightblue" d="M1381.31,-426.82C1389.69,-425.91 1398.3,-424.97 1406.9,-424.04"/>
<polygon fill="midnightblue" stroke="midnightblue" points="1407.43,-427.5 1416.99,-422.94 1406.67,-420.54 1407.43,-427.5"/>
</g>
<!-- Node10 -->
<g id="node10" class="node">
<title>Node10</title>
<g id="a_node10"><a xlink:href="classQuantConnect_1_1Securities_1_1Future_1_1FuturesExpiryUtilityFunctions.html#a4ccb1e2f2fe40ff09785a74a02f26df1" target="_top" xlink:title="Gets the number of months between the contract month and the expiry date.">
<polygon fill="white" stroke="black" points="1656,-440.5 1656,-481.5 1922,-481.5 1922,-440.5 1656,-440.5"/>
<text text-anchor="start" x="1664" y="-469.5" font-family="Helvetica,sans-Serif" font-size="10.00">QuantConnect.Securities.</text>
<text text-anchor="start" x="1664" y="-458.5" font-family="Helvetica,sans-Serif" font-size="10.00">Future.FuturesExpiryUtilityFunctions.</text>
<text text-anchor="middle" x="1789" y="-447.5" font-family="Helvetica,sans-Serif" font-size="10.00">GetDeltaBetweenContractMonthAndContractExpiry</text>
</a>
</g>
</g>
<!-- Node9&#45;&gt;Node10 -->
<g id="edge9" class="edge">
<title>Node9&#45;&gt;Node10</title>
<path fill="none" stroke="midnightblue" d="M1620.24,-461C1628.59,-461 1637.11,-461 1645.68,-461"/>
<polygon fill="midnightblue" stroke="midnightblue" points="1645.76,-464.5 1655.76,-461 1645.76,-457.5 1645.76,-464.5"/>
</g>
<!-- Node13 -->
<g id="node13" class="node">
<title>Node13</title>
<g id="a_node13"><a xlink:href="classQuantConnect_1_1SecurityIdentifier.html#a19e1f9da410608020d74ed9e7d283575" target="_top" xlink:title="Generates the Symbol property for QuantConnect.SecurityType.Base security identifiers">
<polygon fill="white" stroke="black" points="1001,-366 1001,-396 1175,-396 1175,-366 1001,-366"/>
<text text-anchor="start" x="1009" y="-384" font-family="Helvetica,sans-Serif" font-size="10.00">QuantConnect.SecurityIdentifier.</text>
<text text-anchor="middle" x="1088" y="-373" font-family="Helvetica,sans-Serif" font-size="10.00">GenerateBaseSymbol</text>
</a>
</g>
</g>
<!-- Node12&#45;&gt;Node13 -->
<g id="edge12" class="edge">
<title>Node12&#45;&gt;Node13</title>
<path fill="none" stroke="midnightblue" d="M946.14,-381C960.72,-381 975.93,-381 990.74,-381"/>
<polygon fill="midnightblue" stroke="midnightblue" points="990.92,-384.5 1000.92,-381 990.92,-377.5 990.92,-384.5"/>
</g>
<!-- Node20 -->
<g id="node20" class="node">
<title>Node20</title>
<g id="a_node20"><a xlink:href="classQuantConnect_1_1Securities_1_1SymbolPropertiesDatabase.html#a13409909230e8a82ee9d64fa2caa3b89" target="_top" xlink:title="Gets a list of symbol properties for the specified market/security&#45;type">
<polygon fill="white" stroke="black" points="774,-60.5 774,-101.5 944,-101.5 944,-60.5 774,-60.5"/>
<text text-anchor="start" x="782" y="-89.5" font-family="Helvetica,sans-Serif" font-size="10.00">QuantConnect.Securities.</text>
<text text-anchor="start" x="782" y="-78.5" font-family="Helvetica,sans-Serif" font-size="10.00">SymbolPropertiesDatabase.Get</text>
<text text-anchor="middle" x="859" y="-67.5" font-family="Helvetica,sans-Serif" font-size="10.00">SymbolPropertiesList</text>
</a>
</g>
</g>
<!-- Node19&#45;&gt;Node20 -->
<g id="edge21" class="edge">
<title>Node19&#45;&gt;Node20</title>
<path fill="none" stroke="midnightblue" d="M717.17,-81C732.64,-81 748.39,-81 763.49,-81"/>
<polygon fill="midnightblue" stroke="midnightblue" points="763.83,-84.5 773.83,-81 763.83,-77.5 763.83,-84.5"/>
</g>
<!-- Node21 -->
<g id="node21" class="node">
<title>Node21</title>
<g id="a_node21"><a xlink:href="interfaceQuantConnect_1_1ToolBox_1_1RandomDataGenerator_1_1IRandomValueGenerator.html#a615be809fb0e058c362a8575be83337e" target="_top" xlink:title="Returns a random integer that is within a specified range.">
<polygon fill="white" stroke="black" points="753,-0.5 753,-41.5 965,-41.5 965,-0.5 753,-0.5"/>
<text text-anchor="start" x="761" y="-29.5" font-family="Helvetica,sans-Serif" font-size="10.00">QuantConnect.ToolBox.Random</text>
<text text-anchor="start" x="761" y="-18.5" font-family="Helvetica,sans-Serif" font-size="10.00">DataGenerator.IRandomValueGenerator.</text>
<text text-anchor="middle" x="859" y="-7.5" font-family="Helvetica,sans-Serif" font-size="10.00">NextInt</text>
</a>
</g>
</g>
<!-- Node19&#45;&gt;Node21 -->
<g id="edge22" class="edge">
<title>Node19&#45;&gt;Node21</title>
<path fill="none" stroke="midnightblue" d="M691.39,-60.44C713.96,-55.09 738.41,-49.3 761.45,-43.85"/>
<polygon fill="midnightblue" stroke="midnightblue" points="762.3,-47.25 771.23,-41.54 760.69,-40.44 762.3,-47.25"/>
</g>
<!-- Node22&#45;&gt;Node21 -->
<g id="edge24" class="edge">
<title>Node22&#45;&gt;Node21</title>
<path fill="none" stroke="midnightblue" d="M705.05,-21C717.49,-21 730.27,-21 742.91,-21"/>
<polygon fill="midnightblue" stroke="midnightblue" points="742.99,-24.5 752.99,-21 742.99,-17.5 742.99,-24.5"/>
</g>
</g>
</svg>
        <g id="navigator" transform="translate(0 0)" fill="#404254">
                <rect fill="#f2f5e9" fill-opacity="0.5" stroke="#606060" stroke-width=".5" x="0" y="0" width="60" height="60"/>
                <use id="zoomplus" xlink:href="#zoomPlus" x="17" y="9" onmousedown="handleZoom(evt,'in')"/>
                <use id="zoomminus" xlink:href="#zoomMin" x="42" y="9" onmousedown="handleZoom(evt,'out')"/>
                <use id="reset" xlink:href="#resetDef" x="30" y="36" onmousedown="handleReset()"/>
                <g id="arrowUp" xlink:href="#dirArrow" transform="translate(30 24)" onmousedown="handlePan(0,-1)">
                  <use xlink:href="#rim" fill="#404040">
                        <set attributeName="fill" to="#808080" begin="arrowUp.mouseover" end="arrowUp.mouseout"/>
                  </use>
                  <path fill="none" stroke="white" stroke-width="1.5" d="M0,-3.0v7 M-2.5,-0.5L0,-3.0L2.5,-0.5"/>
                </g>
                <g id="arrowRight" xlink:href="#dirArrow" transform="rotate(90) translate(36 -43)" onmousedown="handlePan(1,0)">
                  <use xlink:href="#rim" fill="#404040">
                        <set attributeName="fill" to="#808080" begin="arrowRight.mouseover" end="arrowRight.mouseout"/>
                  </use>
                  <path fill="none" stroke="white" stroke-width="1.5" d="M0,-3.0v7 M-2.5,-0.5L0,-3.0L2.5,-0.5"/>
                </g>
                <g id="arrowDown" xlink:href="#dirArrow" transform="rotate(180) translate(-30 -48)" onmousedown="handlePan(0,1)">
                  <use xlink:href="#rim" fill="#404040">
                        <set attributeName="fill" to="#808080" begin="arrowDown.mouseover" end="arrowDown.mouseout"/>
                  </use>
                  <path fill="none" stroke="white" stroke-width="1.5" d="M0,-3.0v7 M-2.5,-0.5L0,-3.0L2.5,-0.5"/>
                </g>
                <g id="arrowLeft" xlink:href="#dirArrow" transform="rotate(270) translate(-36 17)" onmousedown="handlePan(-1,0)">
                  <use xlink:href="#rim" fill="#404040">
                        <set attributeName="fill" to="#808080" begin="arrowLeft.mouseover" end="arrowLeft.mouseout"/>
                  </use>
                  <path fill="none" stroke="white" stroke-width="1.5" d="M0,-3.0v7 M-2.5,-0.5L0,-3.0L2.5,-0.5"/>
                </g>
        </g>
        <svg viewBox="0 0 15 15" width="100%" height="30px" preserveAspectRatio="xMaxYMin meet">
         <g id="arrow_out" transform="scale(0.3 0.3)">
          <a xlink:href="classQuantConnect_1_1ToolBox_1_1RandomDataGenerator_1_1DefaultSymbolGenerator_ad1f746bdf33e7ee292aa9576073f1c74_cgraph_org.svg" target="_base">
           <rect id="button" ry="5" rx="5" y="6" x="6" height="38" width="38"
                fill="#f2f5e9" fill-opacity="0.5" stroke="#606060" stroke-width="1.0"/>
           <path id="arrow"
             d="M 11.500037,31.436501 C 11.940474,20.09759 22.043105,11.32322 32.158766,21.979434 L 37.068811,17.246167 C 37.068811,17.246167 37.088388,32 37.088388,32 L 22.160133,31.978069 C 22.160133,31.978069 26.997745,27.140456 26.997745,27.140456 C 18.528582,18.264221 13.291696,25.230495 11.500037,31.436501 z"
             style="fill:#404040;"/>
          </a>
         </g>
        </svg>
</svg>
