<?xml version="1.0" encoding="UTF-8" standalone="no"?>
<!DOCTYPE svg PUBLIC "-//W3C//DTD SVG 1.1//EN"
 "http://www.w3.org/Graphics/SVG/1.1/DTD/svg11.dtd">
<!-- Generated by graphviz version 2.43.0 (0)
 -->
<!-- Title: QuantConnect.Util.CurrencyPairUtil.TryDecomposeCurrencyPair Pages: 1 -->
<svg width="384pt" height="39pt"
 viewBox="0.00 0.00 384.00 39.00" xmlns="http://www.w3.org/2000/svg" xmlns:xlink="http://www.w3.org/1999/xlink">
<g id="graph0" class="graph" transform="scale(1 1) rotate(0) translate(4 35)">
<title>QuantConnect.Util.CurrencyPairUtil.TryDecomposeCurrencyPair</title>
<polygon fill="white" stroke="transparent" points="-4,4 -4,-35 380,-35 380,4 -4,4"/>
<!-- Node1 -->
<g id="node1" class="node">
<title>Node1</title>
<g id="a_node1"><a xlink:title="Tries to decomposes the specified currency pair into a base and quote currency provided as out parame...">
<polygon fill="#bfbfbf" stroke="black" points="188,-0.5 188,-30.5 376,-30.5 376,-0.5 188,-0.5"/>
<text text-anchor="start" x="196" y="-18.5" font-family="Helvetica,sans-Serif" font-size="10.00">QuantConnect.Util.Currency</text>
<text text-anchor="middle" x="282" y="-7.5" font-family="Helvetica,sans-Serif" font-size="10.00">PairUtil.TryDecomposeCurrencyPair</text>
</a>
</g>
</g>
<!-- Node2 -->
<g id="node2" class="node">
<title>Node2</title>
<g id="a_node2"><a xlink:href="classQuantConnect_1_1Util_1_1CurrencyPairUtil.html#a945ca4091d51a13c43e584d3af4eff21" target="_top" xlink:title="Returns how two currency pairs are related to each other">
<polygon fill="white" stroke="black" points="0,-0.5 0,-30.5 152,-30.5 152,-0.5 0,-0.5"/>
<text text-anchor="start" x="8" y="-18.5" font-family="Helvetica,sans-Serif" font-size="10.00">QuantConnect.Util.Currency</text>
<text text-anchor="middle" x="76" y="-7.5" font-family="Helvetica,sans-Serif" font-size="10.00">PairUtil.ComparePair</text>
</a>
</g>
</g>
<!-- Node1&#45;&gt;Node2 -->
<g id="edge1" class="edge">
<title>Node1&#45;&gt;Node2</title>
<path fill="none" stroke="midnightblue" d="M177.82,-15.5C169.18,-15.5 160.55,-15.5 152.19,-15.5"/>
<polygon fill="midnightblue" stroke="midnightblue" points="177.95,-19 187.95,-15.5 177.95,-12 177.95,-19"/>
</g>
</g>
</svg>
