<?xml version="1.0" encoding="UTF-8" standalone="no"?>
<!DOCTYPE svg PUBLIC "-//W3C//DTD SVG 1.1//EN"
 "http://www.w3.org/Graphics/SVG/1.1/DTD/svg11.dtd">
<!-- Generated by graphviz version 2.43.0 (0)
 -->
<!-- Title: QuantConnect.Lean.Engine.Results.BacktestingResultHandler.SendFinalResult Pages: 1 -->
<svg width="884pt" height="514pt"
 viewBox="0.00 0.00 884.00 514.00" xmlns="http://www.w3.org/2000/svg" xmlns:xlink="http://www.w3.org/1999/xlink">
<g id="graph0" class="graph" transform="scale(1 1) rotate(0) translate(4 510)">
<title>QuantConnect.Lean.Engine.Results.BacktestingResultHandler.SendFinalResult</title>
<polygon fill="white" stroke="transparent" points="-4,4 -4,-510 880,-510 880,4 -4,4"/>
<!-- Node1 -->
<g id="node1" class="node">
<title>Node1</title>
<g id="a_node1"><a xlink:title="Send a final analysis result back to the IDE.">
<polygon fill="#bfbfbf" stroke="black" points="0,-219 0,-260 185,-260 185,-219 0,-219"/>
<text text-anchor="start" x="8" y="-248" font-family="Helvetica,sans-Serif" font-size="10.00">QuantConnect.Lean.Engine.</text>
<text text-anchor="start" x="8" y="-237" font-family="Helvetica,sans-Serif" font-size="10.00">Results.BacktestingResultHandler.</text>
<text text-anchor="middle" x="92.5" y="-226" font-family="Helvetica,sans-Serif" font-size="10.00">SendFinalResult</text>
</a>
</g>
</g>
<!-- Node2 -->
<g id="node2" class="node">
<title>Node2</title>
<g id="a_node2"><a xlink:href="classQuantConnect_1_1AlgorithmConfiguration.html#af2133cc54c5c38e1b86164f7d20cee6c" target="_top" xlink:title="Provides a convenience method for creating a AlgorithmConfiguration for a given algorithm.">
<polygon fill="white" stroke="black" points="221,-426.5 221,-456.5 426,-456.5 426,-426.5 221,-426.5"/>
<text text-anchor="start" x="229" y="-444.5" font-family="Helvetica,sans-Serif" font-size="10.00">QuantConnect.AlgorithmConfiguration.</text>
<text text-anchor="middle" x="323.5" y="-433.5" font-family="Helvetica,sans-Serif" font-size="10.00">Create</text>
</a>
</g>
</g>
<!-- Node1&#45;&gt;Node2 -->
<g id="edge1" class="edge">
<title>Node1&#45;&gt;Node2</title>
<path fill="none" stroke="midnightblue" d="M102.32,-260.28C119.4,-297.88 160.7,-377.06 221,-417.5 223.32,-419.05 225.72,-420.51 228.2,-421.87"/>
<polygon fill="midnightblue" stroke="midnightblue" points="226.91,-425.13 237.43,-426.39 229.99,-418.85 226.91,-425.13"/>
</g>
<!-- Node5 -->
<g id="node5" class="node">
<title>Node5</title>
<g id="a_node5"><a xlink:href="classQuantConnect_1_1Packets_1_1BacktestResultPacket.html#af1b59d6a467765aacd54d591361276f3" target="_top" xlink:title="Creates an empty result packet, useful when the algorithm fails to initialize">
<polygon fill="white" stroke="black" points="238,-377.5 238,-407.5 409,-407.5 409,-377.5 238,-377.5"/>
<text text-anchor="start" x="246" y="-395.5" font-family="Helvetica,sans-Serif" font-size="10.00">QuantConnect.Packets.Backtest</text>
<text text-anchor="middle" x="323.5" y="-384.5" font-family="Helvetica,sans-Serif" font-size="10.00">ResultPacket.CreateEmpty</text>
</a>
</g>
</g>
<!-- Node1&#45;&gt;Node5 -->
<g id="edge4" class="edge">
<title>Node1&#45;&gt;Node5</title>
<path fill="none" stroke="midnightblue" d="M108.26,-260.26C129.74,-288.88 172.4,-340.03 221,-367.5 224.97,-369.75 229.15,-371.79 233.44,-373.65"/>
<polygon fill="midnightblue" stroke="midnightblue" points="232.42,-377.01 243,-377.45 235,-370.51 232.42,-377.01"/>
</g>
<!-- Node7 -->
<g id="node7" class="node">
<title>Node7</title>
<g id="a_node7"><a xlink:href="classQuantConnect_1_1Logging_1_1Log.html#af0e7955911bc7664b37661b2a303a9e3" target="_top" xlink:title="Log error">
<polygon fill="white" stroke="black" points="489.5,-279.5 489.5,-309.5 639.5,-309.5 639.5,-279.5 489.5,-279.5"/>
<text text-anchor="start" x="497.5" y="-297.5" font-family="Helvetica,sans-Serif" font-size="10.00">QuantConnect.Logging.Log.</text>
<text text-anchor="middle" x="564.5" y="-286.5" font-family="Helvetica,sans-Serif" font-size="10.00">Error</text>
</a>
</g>
</g>
<!-- Node1&#45;&gt;Node7 -->
<g id="edge6" class="edge">
<title>Node1&#45;&gt;Node7</title>
<path fill="none" stroke="midnightblue" d="M172.01,-260.03C188.13,-263.66 205.04,-267.06 221,-269.5 308.49,-282.9 409.68,-289.16 479.26,-292.06"/>
<polygon fill="midnightblue" stroke="midnightblue" points="479.16,-295.56 489.29,-292.47 479.44,-288.57 479.16,-295.56"/>
</g>
<!-- Node9 -->
<g id="node9" class="node">
<title>Node9</title>
<g id="a_node9"><a xlink:href="classQuantConnect_1_1Lean_1_1Engine_1_1Results_1_1BaseResultsHandler.html#a4d6674fc8407cff6b39e4dcf3e0456fc" target="_top" xlink:title="Will generate the statistics results and update the provided runtime statistics">
<polygon fill="white" stroke="black" points="223,-317 223,-358 424,-358 424,-317 223,-317"/>
<text text-anchor="start" x="231" y="-346" font-family="Helvetica,sans-Serif" font-size="10.00">QuantConnect.Lean.Engine.</text>
<text text-anchor="start" x="231" y="-335" font-family="Helvetica,sans-Serif" font-size="10.00">Results.BaseResultsHandler.Generate</text>
<text text-anchor="middle" x="323.5" y="-324" font-family="Helvetica,sans-Serif" font-size="10.00">StatisticsResults</text>
</a>
</g>
</g>
<!-- Node1&#45;&gt;Node9 -->
<g id="edge8" class="edge">
<title>Node1&#45;&gt;Node9</title>
<path fill="none" stroke="midnightblue" d="M131.97,-260.1C156.97,-273.09 190.47,-289.75 221,-302.5 230.09,-306.3 239.76,-310.02 249.38,-313.53"/>
<polygon fill="midnightblue" stroke="midnightblue" points="248.36,-316.89 258.96,-316.98 250.73,-310.3 248.36,-316.89"/>
</g>
<!-- Node11 -->
<g id="node11" class="node">
<title>Node11</title>
<g id="a_node11"><a xlink:href="classQuantConnect_1_1Lean_1_1Engine_1_1Results_1_1BaseResultsHandler.html#accccfdd407149d16f177daae9ee5384d" target="_top" xlink:title="Gets the algorithm runtime statistics">
<polygon fill="white" stroke="black" points="237,-159 237,-200 410,-200 410,-159 237,-159"/>
<text text-anchor="start" x="245" y="-188" font-family="Helvetica,sans-Serif" font-size="10.00">QuantConnect.Lean.Engine.</text>
<text text-anchor="start" x="245" y="-177" font-family="Helvetica,sans-Serif" font-size="10.00">Results.BaseResultsHandler.Get</text>
<text text-anchor="middle" x="323.5" y="-166" font-family="Helvetica,sans-Serif" font-size="10.00">AlgorithmRuntimeStatistics</text>
</a>
</g>
</g>
<!-- Node1&#45;&gt;Node11 -->
<g id="edge11" class="edge">
<title>Node1&#45;&gt;Node11</title>
<path fill="none" stroke="midnightblue" d="M171.99,-218.94C192.02,-213.69 213.68,-208.01 234.17,-202.64"/>
<polygon fill="midnightblue" stroke="midnightblue" points="235.33,-205.96 244.11,-200.04 233.55,-199.19 235.33,-205.96"/>
</g>
<!-- Node13 -->
<g id="node13" class="node">
<title>Node13</title>
<g id="a_node13"><a xlink:href="classQuantConnect_1_1Lean_1_1Engine_1_1Results_1_1BaseResultsHandler.html#a5a8ca1685fdca3f61fe82f7c1f4332f9" target="_top" xlink:title="Gets the current Server statistics">
<polygon fill="white" stroke="black" points="237,-99 237,-140 410,-140 410,-99 237,-99"/>
<text text-anchor="start" x="245" y="-128" font-family="Helvetica,sans-Serif" font-size="10.00">QuantConnect.Lean.Engine.</text>
<text text-anchor="start" x="245" y="-117" font-family="Helvetica,sans-Serif" font-size="10.00">Results.BaseResultsHandler.Get</text>
<text text-anchor="middle" x="323.5" y="-106" font-family="Helvetica,sans-Serif" font-size="10.00">ServerStatistics</text>
</a>
</g>
</g>
<!-- Node1&#45;&gt;Node13 -->
<g id="edge13" class="edge">
<title>Node1&#45;&gt;Node13</title>
<path fill="none" stroke="midnightblue" d="M117.38,-219C141.93,-198.83 181.98,-168.4 221,-149.5 225.11,-147.51 229.38,-145.62 233.74,-143.84"/>
<polygon fill="midnightblue" stroke="midnightblue" points="235.34,-146.97 243.4,-140.09 232.81,-140.44 235.34,-146.97"/>
</g>
<!-- Node15 -->
<g id="node15" class="node">
<title>Node15</title>
<g id="a_node15"><a xlink:href="interfaceQuantConnect_1_1Interfaces_1_1IMessagingHandler.html#afeff1367be45b60e481440eda06a39bf" target="_top" xlink:title="Send any message with a base type of Packet.">
<polygon fill="white" stroke="black" points="253.5,-49.5 253.5,-79.5 393.5,-79.5 393.5,-49.5 253.5,-49.5"/>
<text text-anchor="start" x="261.5" y="-67.5" font-family="Helvetica,sans-Serif" font-size="10.00">QuantConnect.Interfaces.</text>
<text text-anchor="middle" x="323.5" y="-56.5" font-family="Helvetica,sans-Serif" font-size="10.00">IMessagingHandler.Send</text>
</a>
</g>
</g>
<!-- Node1&#45;&gt;Node15 -->
<g id="edge15" class="edge">
<title>Node1&#45;&gt;Node15</title>
<path fill="none" stroke="midnightblue" d="M105.07,-218.96C124.59,-186.28 167.22,-122.76 221,-89.5 227.97,-85.19 235.63,-81.62 243.54,-78.67"/>
<polygon fill="midnightblue" stroke="midnightblue" points="244.92,-81.9 253.26,-75.37 242.67,-75.27 244.92,-81.9"/>
</g>
<!-- Node16 -->
<g id="node16" class="node">
<title>Node16</title>
<g id="a_node16"><a xlink:href="classQuantConnect_1_1Lean_1_1Engine_1_1Results_1_1BacktestingResultHandler.html#a74a19763b6875568fa5e01b06aa0add8" target="_top" xlink:title="Save the snapshot of the total results to storage.">
<polygon fill="white" stroke="black" points="231,-219 231,-260 416,-260 416,-219 231,-219"/>
<text text-anchor="start" x="239" y="-248" font-family="Helvetica,sans-Serif" font-size="10.00">QuantConnect.Lean.Engine.</text>
<text text-anchor="start" x="239" y="-237" font-family="Helvetica,sans-Serif" font-size="10.00">Results.BacktestingResultHandler.</text>
<text text-anchor="middle" x="323.5" y="-226" font-family="Helvetica,sans-Serif" font-size="10.00">StoreResult</text>
</a>
</g>
</g>
<!-- Node1&#45;&gt;Node16 -->
<g id="edge16" class="edge">
<title>Node1&#45;&gt;Node16</title>
<path fill="none" stroke="midnightblue" d="M185.32,-239.5C196.87,-239.5 208.74,-239.5 220.44,-239.5"/>
<polygon fill="midnightblue" stroke="midnightblue" points="220.66,-243 230.66,-239.5 220.66,-236 220.66,-243"/>
</g>
<!-- Node20 -->
<g id="node20" class="node">
<title>Node20</title>
<g id="a_node20"><a xlink:href="classQuantConnect_1_1Logging_1_1Log.html#a4e55477fbc790846b74550a57198cea9" target="_top" xlink:title="Log trace">
<polygon fill="white" stroke="black" points="248.5,-0.5 248.5,-30.5 398.5,-30.5 398.5,-0.5 248.5,-0.5"/>
<text text-anchor="start" x="256.5" y="-18.5" font-family="Helvetica,sans-Serif" font-size="10.00">QuantConnect.Logging.Log.</text>
<text text-anchor="middle" x="323.5" y="-7.5" font-family="Helvetica,sans-Serif" font-size="10.00">Trace</text>
</a>
</g>
</g>
<!-- Node1&#45;&gt;Node20 -->
<g id="edge22" class="edge">
<title>Node1&#45;&gt;Node20</title>
<path fill="none" stroke="midnightblue" d="M100.62,-218.77C115.83,-177.71 155.54,-86.01 221,-39.5 226.5,-35.59 232.56,-32.31 238.89,-29.56"/>
<polygon fill="midnightblue" stroke="midnightblue" points="240.26,-32.78 248.32,-25.89 237.73,-26.25 240.26,-32.78"/>
</g>
<!-- Node3 -->
<g id="node3" class="node">
<title>Node3</title>
<g id="a_node3"><a xlink:href="classQuantConnect_1_1AlgorithmConfiguration.html#acae427443084fddc6c1148d880f8b667" target="_top" xlink:title="Initializes a new empty instance of the AlgorithmConfiguration class">
<polygon fill="white" stroke="black" points="462,-475.5 462,-505.5 667,-505.5 667,-475.5 462,-475.5"/>
<text text-anchor="start" x="470" y="-493.5" font-family="Helvetica,sans-Serif" font-size="10.00">QuantConnect.AlgorithmConfiguration.</text>
<text text-anchor="middle" x="564.5" y="-482.5" font-family="Helvetica,sans-Serif" font-size="10.00">AlgorithmConfiguration</text>
</a>
</g>
</g>
<!-- Node2&#45;&gt;Node3 -->
<g id="edge2" class="edge">
<title>Node2&#45;&gt;Node3</title>
<path fill="none" stroke="midnightblue" d="M397.83,-456.53C423.87,-461.87 453.36,-467.92 480.18,-473.42"/>
<polygon fill="midnightblue" stroke="midnightblue" points="479.81,-476.91 490.31,-475.49 481.21,-470.06 479.81,-476.91"/>
</g>
<!-- Node4 -->
<g id="node4" class="node">
<title>Node4</title>
<g id="a_node4"><a xlink:href="classQuantConnect_1_1Brokerages_1_1BrokerageModel.html#a0763b18b34681f1d464f9912a029b164" target="_top" xlink:title="Gets the corresponding BrokerageName for the specified IBrokerageModel">
<polygon fill="white" stroke="black" points="467,-426.5 467,-456.5 662,-456.5 662,-426.5 467,-426.5"/>
<text text-anchor="start" x="475" y="-444.5" font-family="Helvetica,sans-Serif" font-size="10.00">QuantConnect.Brokerages.</text>
<text text-anchor="middle" x="564.5" y="-433.5" font-family="Helvetica,sans-Serif" font-size="10.00">BrokerageModel.GetBrokerageName</text>
</a>
</g>
</g>
<!-- Node2&#45;&gt;Node4 -->
<g id="edge3" class="edge">
<title>Node2&#45;&gt;Node4</title>
<path fill="none" stroke="midnightblue" d="M426.2,-441.5C436.3,-441.5 446.58,-441.5 456.73,-441.5"/>
<polygon fill="midnightblue" stroke="midnightblue" points="456.83,-445 466.83,-441.5 456.83,-438 456.83,-445"/>
</g>
<!-- Node6 -->
<g id="node6" class="node">
<title>Node6</title>
<g id="a_node6"><a xlink:href="classQuantConnect_1_1Packets_1_1BacktestResultPacket.html#aa7e5e1d1297b6edffe5a3ce1dca7499f" target="_top" xlink:title="Default constructor for JSON Serialization">
<polygon fill="white" stroke="black" points="471,-377.5 471,-407.5 658,-407.5 658,-377.5 471,-377.5"/>
<text text-anchor="start" x="479" y="-395.5" font-family="Helvetica,sans-Serif" font-size="10.00">QuantConnect.Packets.Backtest</text>
<text text-anchor="middle" x="564.5" y="-384.5" font-family="Helvetica,sans-Serif" font-size="10.00">ResultPacket.BacktestResultPacket</text>
</a>
</g>
</g>
<!-- Node5&#45;&gt;Node6 -->
<g id="edge5" class="edge">
<title>Node5&#45;&gt;Node6</title>
<path fill="none" stroke="midnightblue" d="M409.1,-392.5C425.82,-392.5 443.55,-392.5 460.8,-392.5"/>
<polygon fill="midnightblue" stroke="midnightblue" points="460.89,-396 470.89,-392.5 460.89,-389 460.89,-396"/>
</g>
<!-- Node8 -->
<g id="node8" class="node">
<title>Node8</title>
<g id="a_node8"><a xlink:href="interfaceQuantConnect_1_1Logging_1_1ILogHandler.html#a35373a0c5d76031fa5ccf5dc39e5c25d" target="_top" xlink:title="Write error message to log">
<polygon fill="white" stroke="black" points="714.5,-279.5 714.5,-309.5 864.5,-309.5 864.5,-279.5 714.5,-279.5"/>
<text text-anchor="start" x="722.5" y="-297.5" font-family="Helvetica,sans-Serif" font-size="10.00">QuantConnect.Logging.ILog</text>
<text text-anchor="middle" x="789.5" y="-286.5" font-family="Helvetica,sans-Serif" font-size="10.00">Handler.Error</text>
</a>
</g>
</g>
<!-- Node7&#45;&gt;Node8 -->
<g id="edge7" class="edge">
<title>Node7&#45;&gt;Node8</title>
<path fill="none" stroke="midnightblue" d="M639.76,-294.5C660.33,-294.5 682.83,-294.5 703.95,-294.5"/>
<polygon fill="midnightblue" stroke="midnightblue" points="704.19,-298 714.19,-294.5 704.19,-291 704.19,-298"/>
</g>
<!-- Node9&#45;&gt;Node7 -->
<g id="edge9" class="edge">
<title>Node9&#45;&gt;Node7</title>
<path fill="none" stroke="midnightblue" d="M424.13,-319.58C442.33,-316.3 461.16,-312.91 478.88,-309.72"/>
<polygon fill="midnightblue" stroke="midnightblue" points="479.94,-313.09 489.16,-307.87 478.7,-306.2 479.94,-313.09"/>
</g>
<!-- Node10 -->
<g id="node10" class="node">
<title>Node10</title>
<g id="a_node10"><a xlink:href="classQuantConnect_1_1Statistics_1_1StatisticsBuilder.html#a011babea50597dd275a0838a47a061f5" target="_top" xlink:title="Generates the statistics and returns the results">
<polygon fill="white" stroke="black" points="493,-328.5 493,-358.5 636,-358.5 636,-328.5 493,-328.5"/>
<text text-anchor="start" x="501" y="-346.5" font-family="Helvetica,sans-Serif" font-size="10.00">QuantConnect.Statistics.</text>
<text text-anchor="middle" x="564.5" y="-335.5" font-family="Helvetica,sans-Serif" font-size="10.00">StatisticsBuilder.Generate</text>
</a>
</g>
</g>
<!-- Node9&#45;&gt;Node10 -->
<g id="edge10" class="edge">
<title>Node9&#45;&gt;Node10</title>
<path fill="none" stroke="midnightblue" d="M424.13,-340C443.67,-340.49 463.94,-341 482.77,-341.47"/>
<polygon fill="midnightblue" stroke="midnightblue" points="482.69,-344.97 492.77,-341.72 482.87,-337.97 482.69,-344.97"/>
</g>
<!-- Node12 -->
<g id="node12" class="node">
<title>Node12</title>
<g id="a_node12"><a xlink:href="classQuantConnect_1_1Lean_1_1Engine_1_1Results_1_1BaseResultsHandler.html#a74af24129c6c48786a0816cda9e0b1af" target="_top" xlink:title="Gets the algorithm net return">
<polygon fill="white" stroke="black" points="478,-99 478,-140 651,-140 651,-99 478,-99"/>
<text text-anchor="start" x="486" y="-128" font-family="Helvetica,sans-Serif" font-size="10.00">QuantConnect.Lean.Engine.</text>
<text text-anchor="start" x="486" y="-117" font-family="Helvetica,sans-Serif" font-size="10.00">Results.BaseResultsHandler.Get</text>
<text text-anchor="middle" x="564.5" y="-106" font-family="Helvetica,sans-Serif" font-size="10.00">NetReturn</text>
</a>
</g>
</g>
<!-- Node11&#45;&gt;Node12 -->
<g id="edge12" class="edge">
<title>Node11&#45;&gt;Node12</title>
<path fill="none" stroke="midnightblue" d="M406.42,-158.94C427.51,-153.64 450.34,-147.91 471.89,-142.5"/>
<polygon fill="midnightblue" stroke="midnightblue" points="472.84,-145.87 481.69,-140.04 471.14,-139.08 472.84,-145.87"/>
</g>
<!-- Node14 -->
<g id="node14" class="node">
<title>Node14</title>
<g id="a_node14"><a xlink:href="classQuantConnect_1_1OS.html#a30455728a7db15fbb12cc0a9a733da85" target="_top" xlink:title="Gets the statistics of the machine, including CPU% and RAM">
<polygon fill="white" stroke="black" points="487.5,-49.5 487.5,-79.5 641.5,-79.5 641.5,-49.5 487.5,-49.5"/>
<text text-anchor="start" x="495.5" y="-67.5" font-family="Helvetica,sans-Serif" font-size="10.00">QuantConnect.OS.GetServer</text>
<text text-anchor="middle" x="564.5" y="-56.5" font-family="Helvetica,sans-Serif" font-size="10.00">Statistics</text>
</a>
</g>
</g>
<!-- Node13&#45;&gt;Node14 -->
<g id="edge14" class="edge">
<title>Node13&#45;&gt;Node14</title>
<path fill="none" stroke="midnightblue" d="M410.11,-99.8C435.54,-93.95 463.2,-87.58 487.94,-81.89"/>
<polygon fill="midnightblue" stroke="midnightblue" points="489.02,-85.23 497.98,-79.58 487.45,-78.41 489.02,-85.23"/>
</g>
<!-- Node16&#45;&gt;Node7 -->
<g id="edge17" class="edge">
<title>Node16&#45;&gt;Node7</title>
<path fill="none" stroke="midnightblue" d="M413.83,-260.06C438.31,-265.69 464.6,-271.74 488.21,-277.17"/>
<polygon fill="midnightblue" stroke="midnightblue" points="487.62,-280.63 498.15,-279.46 489.19,-273.81 487.62,-280.63"/>
</g>
<!-- Node17 -->
<g id="node17" class="node">
<title>Node17</title>
<g id="a_node17"><a xlink:href="classQuantConnect_1_1Lean_1_1Engine_1_1Results_1_1BaseResultsHandler.html#ac8ea58245ced1bdfb0f53650805520ea" target="_top" xlink:title="Save the results to disk">
<polygon fill="white" stroke="black" points="474.5,-219 474.5,-260 654.5,-260 654.5,-219 474.5,-219"/>
<text text-anchor="start" x="482.5" y="-248" font-family="Helvetica,sans-Serif" font-size="10.00">QuantConnect.Lean.Engine.</text>
<text text-anchor="start" x="482.5" y="-237" font-family="Helvetica,sans-Serif" font-size="10.00">Results.BaseResultsHandler.Save</text>
<text text-anchor="middle" x="564.5" y="-226" font-family="Helvetica,sans-Serif" font-size="10.00">Results</text>
</a>
</g>
</g>
<!-- Node16&#45;&gt;Node17 -->
<g id="edge18" class="edge">
<title>Node16&#45;&gt;Node17</title>
<path fill="none" stroke="midnightblue" d="M416.22,-239.5C431.88,-239.5 448.21,-239.5 464.06,-239.5"/>
<polygon fill="midnightblue" stroke="midnightblue" points="464.39,-243 474.39,-239.5 464.39,-236 464.39,-243"/>
</g>
<!-- Node19 -->
<g id="node19" class="node">
<title>Node19</title>
<g id="a_node19"><a xlink:href="classQuantConnect_1_1Lean_1_1Engine_1_1Results_1_1BaseResultsHandler.html#a98041b5c581f117d3c2744011406f892" target="_top" xlink:title="Stores the order events">
<polygon fill="white" stroke="black" points="473.5,-159 473.5,-200 655.5,-200 655.5,-159 473.5,-159"/>
<text text-anchor="start" x="481.5" y="-188" font-family="Helvetica,sans-Serif" font-size="10.00">QuantConnect.Lean.Engine.</text>
<text text-anchor="start" x="481.5" y="-177" font-family="Helvetica,sans-Serif" font-size="10.00">Results.BaseResultsHandler.Store</text>
<text text-anchor="middle" x="564.5" y="-166" font-family="Helvetica,sans-Serif" font-size="10.00">OrderEvents</text>
</a>
</g>
</g>
<!-- Node16&#45;&gt;Node19 -->
<g id="edge20" class="edge">
<title>Node16&#45;&gt;Node19</title>
<path fill="none" stroke="midnightblue" d="M406.42,-218.94C427.51,-213.64 450.34,-207.91 471.89,-202.5"/>
<polygon fill="midnightblue" stroke="midnightblue" points="472.84,-205.87 481.69,-200.04 471.14,-199.08 472.84,-205.87"/>
</g>
<!-- Node18 -->
<g id="node18" class="node">
<title>Node18</title>
<g id="a_node18"><a xlink:href="classQuantConnect_1_1Lean_1_1Engine_1_1Results_1_1BaseResultsHandler.html#a29c14fd3525bf7327191bcd890304660" target="_top" xlink:title="Gets the full path for a results file">
<polygon fill="white" stroke="black" points="703,-189 703,-230 876,-230 876,-189 703,-189"/>
<text text-anchor="start" x="711" y="-218" font-family="Helvetica,sans-Serif" font-size="10.00">QuantConnect.Lean.Engine.</text>
<text text-anchor="start" x="711" y="-207" font-family="Helvetica,sans-Serif" font-size="10.00">Results.BaseResultsHandler.Get</text>
<text text-anchor="middle" x="789.5" y="-196" font-family="Helvetica,sans-Serif" font-size="10.00">ResultsPath</text>
</a>
</g>
</g>
<!-- Node17&#45;&gt;Node18 -->
<g id="edge19" class="edge">
<title>Node17&#45;&gt;Node18</title>
<path fill="none" stroke="midnightblue" d="M654.6,-227.51C667.14,-225.83 680.07,-224.09 692.73,-222.38"/>
<polygon fill="midnightblue" stroke="midnightblue" points="693.37,-225.83 702.81,-221.03 692.43,-218.89 693.37,-225.83"/>
</g>
<!-- Node19&#45;&gt;Node18 -->
<g id="edge21" class="edge">
<title>Node19&#45;&gt;Node18</title>
<path fill="none" stroke="midnightblue" d="M655.56,-191.62C667.74,-193.25 680.28,-194.94 692.56,-196.59"/>
<polygon fill="midnightblue" stroke="midnightblue" points="692.42,-200.11 702.8,-197.97 693.36,-193.17 692.42,-200.11"/>
</g>
<!-- Node21 -->
<g id="node21" class="node">
<title>Node21</title>
<g id="a_node21"><a xlink:href="interfaceQuantConnect_1_1Logging_1_1ILogHandler.html#a3fb71a33ac66129240b63f12b6fcda3b" target="_top" xlink:title="Write debug message to log">
<polygon fill="white" stroke="black" points="489.5,-0.5 489.5,-30.5 639.5,-30.5 639.5,-0.5 489.5,-0.5"/>
<text text-anchor="start" x="497.5" y="-18.5" font-family="Helvetica,sans-Serif" font-size="10.00">QuantConnect.Logging.ILog</text>
<text text-anchor="middle" x="564.5" y="-7.5" font-family="Helvetica,sans-Serif" font-size="10.00">Handler.Trace</text>
</a>
</g>
</g>
<!-- Node20&#45;&gt;Node21 -->
<g id="edge23" class="edge">
<title>Node20&#45;&gt;Node21</title>
<path fill="none" stroke="midnightblue" d="M398.81,-15.5C424.21,-15.5 452.81,-15.5 478.96,-15.5"/>
<polygon fill="midnightblue" stroke="midnightblue" points="479.23,-19 489.23,-15.5 479.23,-12 479.23,-19"/>
</g>
</g>
</svg>
