<?xml version="1.0" encoding="UTF-8" standalone="no"?>
<!DOCTYPE svg PUBLIC "-//W3C//DTD SVG 1.1//EN"
 "http://www.w3.org/Graphics/SVG/1.1/DTD/svg11.dtd">
<!-- Generated by graphviz version 2.43.0 (0)
 -->
<!-- Title: QuantConnect.ToolBox.AlphaVantageDownloader.AlphaVantageDataDownloader.AlphaVantageDataDownloader Pages: 1 -->
<svg width="470pt" height="50pt"
 viewBox="0.00 0.00 470.00 50.00" xmlns="http://www.w3.org/2000/svg" xmlns:xlink="http://www.w3.org/1999/xlink">
<g id="graph0" class="graph" transform="scale(1 1) rotate(0) translate(4 46)">
<title>QuantConnect.ToolBox.AlphaVantageDownloader.AlphaVantageDataDownloader.AlphaVantageDataDownloader</title>
<polygon fill="white" stroke="transparent" points="-4,4 -4,-46 466,-46 466,4 -4,4"/>
<!-- Node1 -->
<g id="node1" class="node">
<title>Node1</title>
<g id="a_node1"><a xlink:title="Dependency injection constructor">
<polygon fill="#bfbfbf" stroke="black" points="0,-0.5 0,-41.5 250,-41.5 250,-0.5 0,-0.5"/>
<text text-anchor="start" x="8" y="-29.5" font-family="Helvetica,sans-Serif" font-size="10.00">QuantConnect.ToolBox.Alpha</text>
<text text-anchor="start" x="8" y="-18.5" font-family="Helvetica,sans-Serif" font-size="10.00">VantageDownloader.AlphaVantage</text>
<text text-anchor="middle" x="125" y="-7.5" font-family="Helvetica,sans-Serif" font-size="10.00">DataDownloader.AlphaVantageDataDownloader</text>
</a>
</g>
</g>
<!-- Node2 -->
<g id="node2" class="node">
<title>Node2</title>
<g id="a_node2"><a xlink:href="classQuantConnect_1_1Securities_1_1MarketHoursDatabase.html#aa01232d91c17c556b18ea8f1f7fabcd0" target="_top" xlink:title="Gets the instance of the MarketHoursDatabase class produced by reading in the market hours data found...">
<polygon fill="white" stroke="black" points="286,-0.5 286,-41.5 462,-41.5 462,-0.5 286,-0.5"/>
<text text-anchor="start" x="294" y="-29.5" font-family="Helvetica,sans-Serif" font-size="10.00">QuantConnect.Securities.</text>
<text text-anchor="start" x="294" y="-18.5" font-family="Helvetica,sans-Serif" font-size="10.00">MarketHoursDatabase.FromData</text>
<text text-anchor="middle" x="374" y="-7.5" font-family="Helvetica,sans-Serif" font-size="10.00">Folder</text>
</a>
</g>
</g>
<!-- Node1&#45;&gt;Node2 -->
<g id="edge1" class="edge">
<title>Node1&#45;&gt;Node2</title>
<path fill="none" stroke="midnightblue" d="M250.22,-21C258.76,-21 267.3,-21 275.67,-21"/>
<polygon fill="midnightblue" stroke="midnightblue" points="275.78,-24.5 285.78,-21 275.78,-17.5 275.78,-24.5"/>
</g>
</g>
</svg>
