<?xml version="1.0" encoding="UTF-8" standalone="no"?>
<!DOCTYPE svg PUBLIC "-//W3C//DTD SVG 1.1//EN"
 "http://www.w3.org/Graphics/SVG/1.1/DTD/svg11.dtd">
<!-- Generated by graphviz version 2.43.0 (0)
 -->
<!-- Title: QuantConnect.Data.Fundamental.CashFlowStatement.UpdateValues Pages: 1 -->
<svg width="629pt" height="39pt"
 viewBox="0.00 0.00 629.00 39.00" xmlns="http://www.w3.org/2000/svg" xmlns:xlink="http://www.w3.org/1999/xlink">
<g id="graph0" class="graph" transform="scale(1 1) rotate(0) translate(4 35)">
<title>QuantConnect.Data.Fundamental.CashFlowStatement.UpdateValues</title>
<polygon fill="white" stroke="transparent" points="-4,4 -4,-35 625,-35 625,4 -4,4"/>
<!-- Node1 -->
<g id="node1" class="node">
<title>Node1</title>
<g id="a_node1"><a xlink:title="Applies updated values from update &#160;to this instance">
<polygon fill="#bfbfbf" stroke="black" points="0,-0.5 0,-30.5 185,-30.5 185,-0.5 0,-0.5"/>
<text text-anchor="start" x="8" y="-18.5" font-family="Helvetica,sans-Serif" font-size="10.00">QuantConnect.Data.Fundamental.</text>
<text text-anchor="middle" x="92.5" y="-7.5" font-family="Helvetica,sans-Serif" font-size="10.00">CashFlowStatement.UpdateValues</text>
</a>
</g>
</g>
<!-- Node2 -->
<g id="node2" class="node">
<title>Node2</title>
<g id="a_node2"><a xlink:href="classQuantConnect_1_1Data_1_1Fundamental_1_1MultiPeriodField.html#a838bad18f26df20cc69e43387bdd58c3" target="_top" xlink:title="Applies updated values from update &#160;to this instance">
<polygon fill="white" stroke="black" points="221,-0.5 221,-30.5 403,-30.5 403,-0.5 221,-0.5"/>
<text text-anchor="start" x="229" y="-18.5" font-family="Helvetica,sans-Serif" font-size="10.00">QuantConnect.Data.Fundamental.</text>
<text text-anchor="middle" x="312" y="-7.5" font-family="Helvetica,sans-Serif" font-size="10.00">MultiPeriodField.UpdateValues</text>
</a>
</g>
</g>
<!-- Node1&#45;&gt;Node2 -->
<g id="edge1" class="edge">
<title>Node1&#45;&gt;Node2</title>
<path fill="none" stroke="midnightblue" d="M185.11,-15.5C193.62,-15.5 202.28,-15.5 210.86,-15.5"/>
<polygon fill="midnightblue" stroke="midnightblue" points="210.89,-19 220.89,-15.5 210.89,-12 210.89,-19"/>
</g>
<!-- Node3 -->
<g id="node3" class="node">
<title>Node3</title>
<g id="a_node3"><a xlink:href="classQuantConnect_1_1Data_1_1Fundamental_1_1MultiPeriodField.html#a6af97c581aef1ef2616a423f9c4aba3b" target="_top" xlink:title="Sets the value of the field for the specified period">
<polygon fill="white" stroke="black" points="439,-0.5 439,-30.5 621,-30.5 621,-0.5 439,-0.5"/>
<text text-anchor="start" x="447" y="-18.5" font-family="Helvetica,sans-Serif" font-size="10.00">QuantConnect.Data.Fundamental.</text>
<text text-anchor="middle" x="530" y="-7.5" font-family="Helvetica,sans-Serif" font-size="10.00">MultiPeriodField.SetPeriodValue</text>
</a>
</g>
</g>
<!-- Node2&#45;&gt;Node3 -->
<g id="edge2" class="edge">
<title>Node2&#45;&gt;Node3</title>
<path fill="none" stroke="midnightblue" d="M403.04,-15.5C411.53,-15.5 420.16,-15.5 428.74,-15.5"/>
<polygon fill="midnightblue" stroke="midnightblue" points="428.76,-19 438.76,-15.5 428.76,-12 428.76,-19"/>
</g>
</g>
</svg>
