<?xml version="1.0" encoding="UTF-8" standalone="no"?>
<!DOCTYPE svg PUBLIC "-//W3C//DTD SVG 1.1//EN"
 "http://www.w3.org/Graphics/SVG/1.1/DTD/svg11.dtd">
<!-- Generated by graphviz version 2.43.0 (0)
 -->
<!-- Title: QuantConnect.Data.Auxiliary.MapFileRow.Read Pages: 1 -->
<svg width="560pt" height="39pt"
 viewBox="0.00 0.00 560.00 39.00" xmlns="http://www.w3.org/2000/svg" xmlns:xlink="http://www.w3.org/1999/xlink">
<g id="graph0" class="graph" transform="scale(1 1) rotate(0) translate(4 35)">
<title>QuantConnect.Data.Auxiliary.MapFileRow.Read</title>
<polygon fill="white" stroke="transparent" points="-4,4 -4,-35 556,-35 556,4 -4,4"/>
<!-- Node1 -->
<g id="node1" class="node">
<title>Node1</title>
<g id="a_node1"><a xlink:title="Reads in the map_file for the specified equity symbol">
<polygon fill="#bfbfbf" stroke="black" points="0,-0.5 0,-30.5 160,-30.5 160,-0.5 0,-0.5"/>
<text text-anchor="start" x="8" y="-18.5" font-family="Helvetica,sans-Serif" font-size="10.00">QuantConnect.Data.Auxiliary.</text>
<text text-anchor="middle" x="80" y="-7.5" font-family="Helvetica,sans-Serif" font-size="10.00">MapFileRow.Read</text>
</a>
</g>
</g>
<!-- Node2 -->
<g id="node2" class="node">
<title>Node2</title>
<g id="a_node2"><a xlink:href="classQuantConnect_1_1Data_1_1Auxiliary_1_1MapFileRow.html#a107dd8779e94de8e42a890a080d5636e" target="_top" xlink:title="Parses the specified line into a MapFileRow">
<polygon fill="white" stroke="black" points="196,-0.5 196,-30.5 356,-30.5 356,-0.5 196,-0.5"/>
<text text-anchor="start" x="204" y="-18.5" font-family="Helvetica,sans-Serif" font-size="10.00">QuantConnect.Data.Auxiliary.</text>
<text text-anchor="middle" x="276" y="-7.5" font-family="Helvetica,sans-Serif" font-size="10.00">MapFileRow.Parse</text>
</a>
</g>
</g>
<!-- Node1&#45;&gt;Node2 -->
<g id="edge1" class="edge">
<title>Node1&#45;&gt;Node2</title>
<path fill="none" stroke="midnightblue" d="M160.19,-15.5C168.53,-15.5 177.05,-15.5 185.5,-15.5"/>
<polygon fill="midnightblue" stroke="midnightblue" points="185.75,-19 195.75,-15.5 185.75,-12 185.75,-19"/>
</g>
<!-- Node3 -->
<g id="node3" class="node">
<title>Node3</title>
<g id="a_node3"><a xlink:href="classQuantConnect_1_1Data_1_1Auxiliary_1_1MapFileRow.html#ae46235ef384e419ce26ebe35fba40361" target="_top" xlink:title="Initializes a new instance of the MapFileRow class.">
<polygon fill="white" stroke="black" points="392,-0.5 392,-30.5 552,-30.5 552,-0.5 392,-0.5"/>
<text text-anchor="start" x="400" y="-18.5" font-family="Helvetica,sans-Serif" font-size="10.00">QuantConnect.Data.Auxiliary.</text>
<text text-anchor="middle" x="472" y="-7.5" font-family="Helvetica,sans-Serif" font-size="10.00">MapFileRow.MapFileRow</text>
</a>
</g>
</g>
<!-- Node2&#45;&gt;Node3 -->
<g id="edge2" class="edge">
<title>Node2&#45;&gt;Node3</title>
<path fill="none" stroke="midnightblue" d="M356.19,-15.5C364.53,-15.5 373.05,-15.5 381.5,-15.5"/>
<polygon fill="midnightblue" stroke="midnightblue" points="381.75,-19 391.75,-15.5 381.75,-12 381.75,-19"/>
</g>
</g>
</svg>
