<?xml version="1.0" encoding="UTF-8" standalone="no"?>
<!DOCTYPE svg PUBLIC "-//W3C//DTD SVG 1.1//EN"
 "http://www.w3.org/Graphics/SVG/1.1/DTD/svg11.dtd">
<!-- Generated by graphviz version 2.43.0 (0)
 -->
<!-- Title: QuantConnect.Data.Fundamental.MultiPeriodField.UpdateValues Pages: 1 -->
<svg width="852pt" height="260pt"
 viewBox="0.00 0.00 852.00 259.96" xmlns="http://www.w3.org/2000/svg" xmlns:xlink="http://www.w3.org/1999/xlink">
<g id="graph0" class="graph" transform="scale(1 1) rotate(0) translate(4 255.96)">
<title>QuantConnect.Data.Fundamental.MultiPeriodField.UpdateValues</title>
<polygon fill="white" stroke="transparent" points="-4,4 -4,-255.96 848,-255.96 848,4 -4,4"/>
<!-- Node1 -->
<g id="node1" class="node">
<title>Node1</title>
<g id="a_node1"><a xlink:title="Applies updated values from update &#160;to this instance">
<polygon fill="#bfbfbf" stroke="black" points="662,-122.5 662,-152.5 844,-152.5 844,-122.5 662,-122.5"/>
<text text-anchor="start" x="670" y="-140.5" font-family="Helvetica,sans-Serif" font-size="10.00">QuantConnect.Data.Fundamental.</text>
<text text-anchor="middle" x="753" y="-129.5" font-family="Helvetica,sans-Serif" font-size="10.00">MultiPeriodField.UpdateValues</text>
</a>
</g>
</g>
<!-- Node2 -->
<g id="node2" class="node">
<title>Node2</title>
<g id="a_node2"><a xlink:href="classQuantConnect_1_1Data_1_1Fundamental_1_1EarningRatios.html#a2ced403ec9ee969878e42f9c8bba20f5" target="_top" xlink:title="Applies updated values from update &#160;to this instance">
<polygon fill="white" stroke="black" points="220.5,-212.5 220.5,-242.5 402.5,-242.5 402.5,-212.5 220.5,-212.5"/>
<text text-anchor="start" x="228.5" y="-230.5" font-family="Helvetica,sans-Serif" font-size="10.00">QuantConnect.Data.Fundamental.</text>
<text text-anchor="middle" x="311.5" y="-219.5" font-family="Helvetica,sans-Serif" font-size="10.00">EarningRatios.UpdateValues</text>
</a>
</g>
</g>
<!-- Node1&#45;&gt;Node2 -->
<g id="edge1" class="edge">
<title>Node1&#45;&gt;Node2</title>
<path fill="none" stroke="midnightblue" d="M731.61,-160.02C708.62,-183.56 668.84,-219.04 626,-233.5 546.96,-260.18 450.2,-252.77 385.27,-242.52"/>
<polygon fill="midnightblue" stroke="midnightblue" points="734.37,-162.19 738.74,-152.54 729.3,-157.36 734.37,-162.19"/>
</g>
<!-- Node4 -->
<g id="node4" class="node">
<title>Node4</title>
<g id="a_node4"><a xlink:href="classQuantConnect_1_1Data_1_1Fundamental_1_1FinancialStatements.html#a0c1c85acacb98a3908ac1cd40456e11b" target="_top" xlink:title="Applies updated values from update &#160;to this instance">
<polygon fill="white" stroke="black" points="218,-122.5 218,-152.5 405,-152.5 405,-122.5 218,-122.5"/>
<text text-anchor="start" x="226" y="-140.5" font-family="Helvetica,sans-Serif" font-size="10.00">QuantConnect.Data.Fundamental.</text>
<text text-anchor="middle" x="311.5" y="-129.5" font-family="Helvetica,sans-Serif" font-size="10.00">FinancialStatements.UpdateValues</text>
</a>
</g>
</g>
<!-- Node1&#45;&gt;Node4 -->
<g id="edge3" class="edge">
<title>Node1&#45;&gt;Node4</title>
<path fill="none" stroke="midnightblue" d="M725.39,-158.86C701.13,-176.88 663.45,-201.32 626,-211.5 546.66,-233.08 520.43,-232.74 441,-211.5 398.47,-200.13 355.42,-170.93 331.53,-152.8"/>
<polygon fill="midnightblue" stroke="midnightblue" points="727.55,-161.63 733.4,-152.79 723.31,-156.05 727.55,-161.63"/>
</g>
<!-- Node5 -->
<g id="node5" class="node">
<title>Node5</title>
<g id="a_node5"><a xlink:href="classQuantConnect_1_1Data_1_1Fundamental_1_1EarningReports.html#a0a12d6cfe5b2d709a754cfaffc6240bf" target="_top" xlink:title="Applies updated values from update &#160;to this instance">
<polygon fill="white" stroke="black" points="220.5,-65.5 220.5,-95.5 402.5,-95.5 402.5,-65.5 220.5,-65.5"/>
<text text-anchor="start" x="228.5" y="-83.5" font-family="Helvetica,sans-Serif" font-size="10.00">QuantConnect.Data.Fundamental.</text>
<text text-anchor="middle" x="311.5" y="-72.5" font-family="Helvetica,sans-Serif" font-size="10.00">EarningReports.UpdateValues</text>
</a>
</g>
</g>
<!-- Node1&#45;&gt;Node5 -->
<g id="edge5" class="edge">
<title>Node1&#45;&gt;Node5</title>
<path fill="none" stroke="midnightblue" d="M725.35,-116.42C701.05,-98.64 663.35,-74.54 626,-64.5 542.71,-42.12 442.6,-53.52 378.29,-65.49"/>
<polygon fill="midnightblue" stroke="midnightblue" points="723.25,-119.23 733.36,-122.41 727.45,-113.62 723.25,-119.23"/>
</g>
<!-- Node6 -->
<g id="node6" class="node">
<title>Node6</title>
<g id="a_node6"><a xlink:href="classQuantConnect_1_1Data_1_1Fundamental_1_1OperationRatios.html#a7b9c76072db198e9118b46d1d8a7a11d" target="_top" xlink:title="Applies updated values from update &#160;to this instance">
<polygon fill="white" stroke="black" points="220.5,-0.5 220.5,-30.5 402.5,-30.5 402.5,-0.5 220.5,-0.5"/>
<text text-anchor="start" x="228.5" y="-18.5" font-family="Helvetica,sans-Serif" font-size="10.00">QuantConnect.Data.Fundamental.</text>
<text text-anchor="middle" x="311.5" y="-7.5" font-family="Helvetica,sans-Serif" font-size="10.00">OperationRatios.UpdateValues</text>
</a>
</g>
</g>
<!-- Node1&#45;&gt;Node6 -->
<g id="edge7" class="edge">
<title>Node1&#45;&gt;Node6</title>
<path fill="none" stroke="midnightblue" d="M729.07,-115.4C705.36,-94.02 666.22,-62.68 626,-47.5 554.21,-20.4 466.99,-13.39 402.79,-12.59"/>
<polygon fill="midnightblue" stroke="midnightblue" points="726.77,-118.04 736.5,-122.23 731.51,-112.89 726.77,-118.04"/>
</g>
<!-- Node7 -->
<g id="node7" class="node">
<title>Node7</title>
<g id="a_node7"><a xlink:href="classQuantConnect_1_1Data_1_1Fundamental_1_1IncomeStatement.html#a29914eac4ed13a7004bab7e7f3c878c9" target="_top" xlink:title="Applies updated values from update &#160;to this instance">
<polygon fill="white" stroke="black" points="442.5,-171.5 442.5,-201.5 624.5,-201.5 624.5,-171.5 442.5,-171.5"/>
<text text-anchor="start" x="450.5" y="-189.5" font-family="Helvetica,sans-Serif" font-size="10.00">QuantConnect.Data.Fundamental.</text>
<text text-anchor="middle" x="533.5" y="-178.5" font-family="Helvetica,sans-Serif" font-size="10.00">IncomeStatement.UpdateValues</text>
</a>
</g>
</g>
<!-- Node1&#45;&gt;Node7 -->
<g id="edge9" class="edge">
<title>Node1&#45;&gt;Node7</title>
<path fill="none" stroke="midnightblue" d="M675.4,-154.76C651.16,-160.22 624.58,-166.21 601.11,-171.49"/>
<polygon fill="midnightblue" stroke="midnightblue" points="676.28,-158.15 685.26,-152.53 674.74,-151.32 676.28,-158.15"/>
</g>
<!-- Node8 -->
<g id="node8" class="node">
<title>Node8</title>
<g id="a_node8"><a xlink:href="classQuantConnect_1_1Data_1_1Fundamental_1_1CashFlowStatement.html#a72863c09b44feace9ba3214b9bd04795" target="_top" xlink:title="Applies updated values from update &#160;to this instance">
<polygon fill="white" stroke="black" points="441,-122.5 441,-152.5 626,-152.5 626,-122.5 441,-122.5"/>
<text text-anchor="start" x="449" y="-140.5" font-family="Helvetica,sans-Serif" font-size="10.00">QuantConnect.Data.Fundamental.</text>
<text text-anchor="middle" x="533.5" y="-129.5" font-family="Helvetica,sans-Serif" font-size="10.00">CashFlowStatement.UpdateValues</text>
</a>
</g>
</g>
<!-- Node1&#45;&gt;Node8 -->
<g id="edge11" class="edge">
<title>Node1&#45;&gt;Node8</title>
<path fill="none" stroke="midnightblue" d="M651.95,-137.5C643.37,-137.5 634.73,-137.5 626.22,-137.5"/>
<polygon fill="midnightblue" stroke="midnightblue" points="651.96,-141 661.96,-137.5 651.96,-134 651.96,-141"/>
</g>
<!-- Node9 -->
<g id="node9" class="node">
<title>Node9</title>
<g id="a_node9"><a xlink:href="classQuantConnect_1_1Data_1_1Fundamental_1_1BalanceSheet.html#a7b800107275d50203d08cb6d830f0a8f" target="_top" xlink:title="Applies updated values from update &#160;to this instance">
<polygon fill="white" stroke="black" points="442.5,-73.5 442.5,-103.5 624.5,-103.5 624.5,-73.5 442.5,-73.5"/>
<text text-anchor="start" x="450.5" y="-91.5" font-family="Helvetica,sans-Serif" font-size="10.00">QuantConnect.Data.Fundamental.</text>
<text text-anchor="middle" x="533.5" y="-80.5" font-family="Helvetica,sans-Serif" font-size="10.00">BalanceSheet.UpdateValues</text>
</a>
</g>
</g>
<!-- Node1&#45;&gt;Node9 -->
<g id="edge13" class="edge">
<title>Node1&#45;&gt;Node9</title>
<path fill="none" stroke="midnightblue" d="M675.4,-120.24C651.16,-114.78 624.58,-108.79 601.11,-103.51"/>
<polygon fill="midnightblue" stroke="midnightblue" points="674.74,-123.68 685.26,-122.47 676.28,-116.85 674.74,-123.68"/>
</g>
<!-- Node3 -->
<g id="node3" class="node">
<title>Node3</title>
<g id="a_node3"><a xlink:href="classQuantConnect_1_1Data_1_1Fundamental_1_1FineFundamental.html#af68025c95be331aa84700c33db569812" target="_top" xlink:title="Applies updated values from update &#160;to this instance">
<polygon fill="white" stroke="black" points="0,-89.5 0,-119.5 182,-119.5 182,-89.5 0,-89.5"/>
<text text-anchor="start" x="8" y="-107.5" font-family="Helvetica,sans-Serif" font-size="10.00">QuantConnect.Data.Fundamental.</text>
<text text-anchor="middle" x="91" y="-96.5" font-family="Helvetica,sans-Serif" font-size="10.00">FineFundamental.UpdateValues</text>
</a>
</g>
</g>
<!-- Node2&#45;&gt;Node3 -->
<g id="edge2" class="edge">
<title>Node2&#45;&gt;Node3</title>
<path fill="none" stroke="midnightblue" d="M274.84,-207.42C231.07,-182.79 157.86,-141.57 118.67,-119.51"/>
<polygon fill="midnightblue" stroke="midnightblue" points="273.28,-210.56 283.71,-212.42 276.71,-204.46 273.28,-210.56"/>
</g>
<!-- Node4&#45;&gt;Node3 -->
<g id="edge4" class="edge">
<title>Node4&#45;&gt;Node3</title>
<path fill="none" stroke="midnightblue" d="M207.78,-121.99C199.17,-120.69 190.52,-119.38 182.02,-118.1"/>
<polygon fill="midnightblue" stroke="midnightblue" points="207.43,-125.47 217.84,-123.51 208.47,-118.55 207.43,-125.47"/>
</g>
<!-- Node5&#45;&gt;Node3 -->
<g id="edge6" class="edge">
<title>Node5&#45;&gt;Node3</title>
<path fill="none" stroke="midnightblue" d="M210.28,-91.51C200.94,-92.53 191.52,-93.57 182.28,-94.58"/>
<polygon fill="midnightblue" stroke="midnightblue" points="210.81,-94.97 220.37,-90.4 210.04,-88.01 210.81,-94.97"/>
</g>
<!-- Node6&#45;&gt;Node3 -->
<g id="edge8" class="edge">
<title>Node6&#45;&gt;Node3</title>
<path fill="none" stroke="midnightblue" d="M264.09,-34.4C223.76,-50.83 166.13,-74.31 128.88,-89.48"/>
<polygon fill="midnightblue" stroke="midnightblue" points="265.49,-37.61 273.43,-30.6 262.85,-31.13 265.49,-37.61"/>
</g>
<!-- Node7&#45;&gt;Node4 -->
<g id="edge10" class="edge">
<title>Node7&#45;&gt;Node4</title>
<path fill="none" stroke="midnightblue" d="M455.01,-169.24C430.5,-163.78 403.62,-157.79 379.87,-152.51"/>
<polygon fill="midnightblue" stroke="midnightblue" points="454.48,-172.71 465,-171.47 456,-165.88 454.48,-172.71"/>
</g>
<!-- Node8&#45;&gt;Node4 -->
<g id="edge12" class="edge">
<title>Node8&#45;&gt;Node4</title>
<path fill="none" stroke="midnightblue" d="M430.79,-137.5C422.23,-137.5 413.6,-137.5 405.12,-137.5"/>
<polygon fill="midnightblue" stroke="midnightblue" points="430.79,-141 440.79,-137.5 430.79,-134 430.79,-141"/>
</g>
<!-- Node9&#45;&gt;Node4 -->
<g id="edge14" class="edge">
<title>Node9&#45;&gt;Node4</title>
<path fill="none" stroke="midnightblue" d="M455.01,-105.76C430.5,-111.22 403.62,-117.21 379.87,-122.49"/>
<polygon fill="midnightblue" stroke="midnightblue" points="456,-109.12 465,-103.53 454.48,-102.29 456,-109.12"/>
</g>
</g>
</svg>
