<?xml version="1.0" encoding="UTF-8" standalone="no"?>
<!DOCTYPE svg PUBLIC "-//W3C//DTD SVG 1.1//EN"
 "http://www.w3.org/Graphics/SVG/1.1/DTD/svg11.dtd">
<!-- Generated by graphviz version 2.43.0 (0)
 -->
<!-- Title: QuantConnect.Securities.BuyingPowerModelExtensions.AboveMinimumOrderMarginPortfolioPercentage Pages: 1 -->
<svg width="425pt" height="50pt"
 viewBox="0.00 0.00 425.00 50.00" xmlns="http://www.w3.org/2000/svg" xmlns:xlink="http://www.w3.org/1999/xlink">
<g id="graph0" class="graph" transform="scale(1 1) rotate(0) translate(4 46)">
<title>QuantConnect.Securities.BuyingPowerModelExtensions.AboveMinimumOrderMarginPortfolioPercentage</title>
<polygon fill="white" stroke="transparent" points="-4,4 -4,-46 421,-46 421,4 -4,4"/>
<!-- Node1 -->
<g id="node1" class="node">
<title>Node1</title>
<g id="a_node1"><a xlink:title="Helper method to determine if the requested quantity is above the algorithm minimum order margin port...">
<polygon fill="#bfbfbf" stroke="black" points="0,-0.5 0,-41.5 220,-41.5 220,-0.5 0,-0.5"/>
<text text-anchor="start" x="8" y="-29.5" font-family="Helvetica,sans-Serif" font-size="10.00">QuantConnect.Securities.</text>
<text text-anchor="start" x="8" y="-18.5" font-family="Helvetica,sans-Serif" font-size="10.00">BuyingPowerModelExtensions.Above</text>
<text text-anchor="middle" x="110" y="-7.5" font-family="Helvetica,sans-Serif" font-size="10.00">MinimumOrderMarginPortfolioPercentage</text>
</a>
</g>
</g>
<!-- Node2 -->
<g id="node2" class="node">
<title>Node2</title>
<g id="a_node2"><a xlink:href="interfaceQuantConnect_1_1Securities_1_1IBuyingPowerModel.html#ae4a939584ffb7a7d468023f57dba17be" target="_top" xlink:title="The margin that must be held in order to increase the position by the provided quantity">
<polygon fill="white" stroke="black" points="256,-0.5 256,-41.5 417,-41.5 417,-0.5 256,-0.5"/>
<text text-anchor="start" x="264" y="-29.5" font-family="Helvetica,sans-Serif" font-size="10.00">QuantConnect.Securities.</text>
<text text-anchor="start" x="264" y="-18.5" font-family="Helvetica,sans-Serif" font-size="10.00">IBuyingPowerModel.GetInitial</text>
<text text-anchor="middle" x="336.5" y="-7.5" font-family="Helvetica,sans-Serif" font-size="10.00">MarginRequirement</text>
</a>
</g>
</g>
<!-- Node1&#45;&gt;Node2 -->
<g id="edge1" class="edge">
<title>Node1&#45;&gt;Node2</title>
<path fill="none" stroke="midnightblue" d="M220.29,-21C228.77,-21 237.28,-21 245.61,-21"/>
<polygon fill="midnightblue" stroke="midnightblue" points="245.68,-24.5 255.68,-21 245.68,-17.5 245.68,-24.5"/>
</g>
</g>
</svg>
