<?xml version="1.0" encoding="UTF-8" standalone="no"?>
<!DOCTYPE svg PUBLIC "-//W3C//DTD SVG 1.1//EN"
 "http://www.w3.org/Graphics/SVG/1.1/DTD/svg11.dtd">
<!-- Generated by graphviz version 2.43.0 (0)
 -->
<!-- Title: QuantConnect.Lean.Engine.Alphas.DefaultAlphaHandler.CreateInsightManager Pages: 1 -->
<svg width="432pt" height="50pt"
 viewBox="0.00 0.00 432.00 50.00" xmlns="http://www.w3.org/2000/svg" xmlns:xlink="http://www.w3.org/1999/xlink">
<g id="graph0" class="graph" transform="scale(1 1) rotate(0) translate(4 46)">
<title>QuantConnect.Lean.Engine.Alphas.DefaultAlphaHandler.CreateInsightManager</title>
<polygon fill="white" stroke="transparent" points="-4,4 -4,-46 428,-46 428,4 -4,4"/>
<!-- Node1 -->
<g id="node1" class="node">
<title>Node1</title>
<g id="a_node1"><a xlink:title="Creates the InsightManager to manage the analysis of generated insights">
<polygon fill="#bfbfbf" stroke="black" points="235,-0.5 235,-41.5 424,-41.5 424,-0.5 235,-0.5"/>
<text text-anchor="start" x="243" y="-29.5" font-family="Helvetica,sans-Serif" font-size="10.00">QuantConnect.Lean.Engine.</text>
<text text-anchor="start" x="243" y="-18.5" font-family="Helvetica,sans-Serif" font-size="10.00">Alphas.DefaultAlphaHandler.Create</text>
<text text-anchor="middle" x="329.5" y="-7.5" font-family="Helvetica,sans-Serif" font-size="10.00">InsightManager</text>
</a>
</g>
</g>
<!-- Node2 -->
<g id="node2" class="node">
<title>Node2</title>
<g id="a_node2"><a xlink:href="classQuantConnect_1_1Lean_1_1Engine_1_1Alphas_1_1DefaultAlphaHandler.html#a1b85a1f9f1a5e09a1b198a448ea24c78" target="_top" xlink:title="Initializes this alpha handler to accept insights from the specified algorithm">
<polygon fill="white" stroke="black" points="0,-6 0,-36 199,-36 199,-6 0,-6"/>
<text text-anchor="start" x="8" y="-24" font-family="Helvetica,sans-Serif" font-size="10.00">QuantConnect.Lean.Engine.</text>
<text text-anchor="middle" x="99.5" y="-13" font-family="Helvetica,sans-Serif" font-size="10.00">Alphas.DefaultAlphaHandler.Initialize</text>
</a>
</g>
</g>
<!-- Node1&#45;&gt;Node2 -->
<g id="edge1" class="edge">
<title>Node1&#45;&gt;Node2</title>
<path fill="none" stroke="midnightblue" d="M224.77,-21C216.2,-21 207.56,-21 199.03,-21"/>
<polygon fill="midnightblue" stroke="midnightblue" points="224.78,-24.5 234.78,-21 224.78,-17.5 224.78,-24.5"/>
</g>
</g>
</svg>
