<?xml version="1.0" encoding="UTF-8" standalone="no"?>
<!DOCTYPE svg PUBLIC "-//W3C//DTD SVG 1.1//EN"
 "http://www.w3.org/Graphics/SVG/1.1/DTD/svg11.dtd">
<!-- Generated by graphviz version 2.43.0 (0)
 -->
<!-- Title: QuantConnect.Data.UniverseSelection.BaseDataCollection.Add Pages: 1 -->
<svg width="447pt" height="110pt"
 viewBox="0.00 0.00 447.00 110.00" xmlns="http://www.w3.org/2000/svg" xmlns:xlink="http://www.w3.org/1999/xlink">
<g id="graph0" class="graph" transform="scale(1 1) rotate(0) translate(4 106)">
<title>QuantConnect.Data.UniverseSelection.BaseDataCollection.Add</title>
<polygon fill="white" stroke="transparent" points="-4,4 -4,-106 443,-106 443,4 -4,4"/>
<!-- Node1 -->
<g id="node1" class="node">
<title>Node1</title>
<g id="a_node1"><a xlink:title="Adds a new data point to this collection">
<polygon fill="#bfbfbf" stroke="black" points="257,-36 257,-66 439,-66 439,-36 257,-36"/>
<text text-anchor="start" x="265" y="-54" font-family="Helvetica,sans-Serif" font-size="10.00">QuantConnect.Data.Universe</text>
<text text-anchor="middle" x="348" y="-43" font-family="Helvetica,sans-Serif" font-size="10.00">Selection.BaseDataCollection.Add</text>
</a>
</g>
</g>
<!-- Node2 -->
<g id="node2" class="node">
<title>Node2</title>
<g id="a_node2"><a xlink:href="classQuantConnect_1_1Lean_1_1Engine_1_1DataFeeds_1_1UniverseSelection.html#a7e4844c9b81427d9dbbd768efd24abff" target="_top" xlink:title="Applies universe selection the the data feed and algorithm">
<polygon fill="white" stroke="black" points="15,-60.5 15,-101.5 206,-101.5 206,-60.5 15,-60.5"/>
<text text-anchor="start" x="23" y="-89.5" font-family="Helvetica,sans-Serif" font-size="10.00">QuantConnect.Lean.Engine.</text>
<text text-anchor="start" x="23" y="-78.5" font-family="Helvetica,sans-Serif" font-size="10.00">DataFeeds.UniverseSelection.Apply</text>
<text text-anchor="middle" x="110.5" y="-67.5" font-family="Helvetica,sans-Serif" font-size="10.00">UniverseSelection</text>
</a>
</g>
</g>
<!-- Node1&#45;&gt;Node2 -->
<g id="edge1" class="edge">
<title>Node1&#45;&gt;Node2</title>
<path fill="none" stroke="midnightblue" d="M246.75,-63.77C233.3,-65.48 219.53,-67.24 206.18,-68.94"/>
<polygon fill="midnightblue" stroke="midnightblue" points="247.48,-67.21 256.96,-62.47 246.6,-60.26 247.48,-67.21"/>
</g>
<!-- Node3 -->
<g id="node3" class="node">
<title>Node3</title>
<g id="a_node3"><a xlink:href="classQuantConnect_1_1Lean_1_1Engine_1_1DataFeeds_1_1BaseDataCollectionAggregatorReader.html#a6bf97a4799a6185d548bb775566390ae" target="_top" xlink:title="Reads the specified source">
<polygon fill="white" stroke="black" points="0,-0.5 0,-41.5 221,-41.5 221,-0.5 0,-0.5"/>
<text text-anchor="start" x="8" y="-29.5" font-family="Helvetica,sans-Serif" font-size="10.00">QuantConnect.Lean.Engine.</text>
<text text-anchor="start" x="8" y="-18.5" font-family="Helvetica,sans-Serif" font-size="10.00">DataFeeds.BaseDataCollectionAggregator</text>
<text text-anchor="middle" x="110.5" y="-7.5" font-family="Helvetica,sans-Serif" font-size="10.00">Reader.Read</text>
</a>
</g>
</g>
<!-- Node1&#45;&gt;Node3 -->
<g id="edge2" class="edge">
<title>Node1&#45;&gt;Node3</title>
<path fill="none" stroke="midnightblue" d="M247.02,-38.26C238.49,-37.18 229.84,-36.07 221.24,-34.98"/>
<polygon fill="midnightblue" stroke="midnightblue" points="246.6,-41.74 256.96,-39.53 247.48,-34.79 246.6,-41.74"/>
</g>
</g>
</svg>
