<?xml version="1.0" encoding="UTF-8" standalone="no"?>
<!DOCTYPE svg PUBLIC "-//W3C//DTD SVG 1.1//EN"
 "http://www.w3.org/Graphics/SVG/1.1/DTD/svg11.dtd">
<!-- Generated by graphviz version 2.43.0 (0)
 -->
<!-- Title: QuantConnect.Lean.Engine.RealTime.BacktestingRealTimeHandler.Add Pages: 1 -->
<svg width="468pt" height="50pt"
 viewBox="0.00 0.00 468.00 50.00" xmlns="http://www.w3.org/2000/svg" xmlns:xlink="http://www.w3.org/1999/xlink">
<g id="graph0" class="graph" transform="scale(1 1) rotate(0) translate(4 46)">
<title>QuantConnect.Lean.Engine.RealTime.BacktestingRealTimeHandler.Add</title>
<polygon fill="white" stroke="transparent" points="-4,4 -4,-46 464,-46 464,4 -4,4"/>
<!-- Node1 -->
<g id="node1" class="node">
<title>Node1</title>
<g id="a_node1"><a xlink:title="Adds the specified event to the schedule">
<polygon fill="#bfbfbf" stroke="black" points="0,-6 0,-36 230,-36 230,-6 0,-6"/>
<text text-anchor="start" x="8" y="-24" font-family="Helvetica,sans-Serif" font-size="10.00">QuantConnect.Lean.Engine.</text>
<text text-anchor="middle" x="115" y="-13" font-family="Helvetica,sans-Serif" font-size="10.00">RealTime.BacktestingRealTimeHandler.Add</text>
</a>
</g>
</g>
<!-- Node2 -->
<g id="node2" class="node">
<title>Node2</title>
<g id="a_node2"><a xlink:href="classQuantConnect_1_1Lean_1_1Engine_1_1RealTime_1_1BaseRealTimeHandler.html#a43557c1cfdbb389a62af3863da23fb0e" target="_top" xlink:title="Gets a new scheduled event unique id">
<polygon fill="white" stroke="black" points="266,-0.5 266,-41.5 460,-41.5 460,-0.5 266,-0.5"/>
<text text-anchor="start" x="274" y="-29.5" font-family="Helvetica,sans-Serif" font-size="10.00">QuantConnect.Lean.Engine.</text>
<text text-anchor="start" x="274" y="-18.5" font-family="Helvetica,sans-Serif" font-size="10.00">RealTime.BaseRealTimeHandler.Get</text>
<text text-anchor="middle" x="363" y="-7.5" font-family="Helvetica,sans-Serif" font-size="10.00">ScheduledEventUniqueId</text>
</a>
</g>
</g>
<!-- Node1&#45;&gt;Node2 -->
<g id="edge1" class="edge">
<title>Node1&#45;&gt;Node2</title>
<path fill="none" stroke="midnightblue" d="M230.36,-21C238.83,-21 247.36,-21 255.78,-21"/>
<polygon fill="midnightblue" stroke="midnightblue" points="255.99,-24.5 265.99,-21 255.99,-17.5 255.99,-24.5"/>
</g>
</g>
</svg>
