<?xml version="1.0" encoding="UTF-8" standalone="no"?>
<!DOCTYPE svg PUBLIC "-//W3C//DTD SVG 1.1//EN"
 "http://www.w3.org/Graphics/SVG/1.1/DTD/svg11.dtd">
<!-- Generated by graphviz version 2.43.0 (0)
 -->
<!-- Title: QuantConnect.Algorithm.Framework.Selection.UniverseSelectionModel Pages: 1 -->
<svg width="1214pt" height="675pt"
 viewBox="0.00 0.00 1214.00 675.00" xmlns="http://www.w3.org/2000/svg" xmlns:xlink="http://www.w3.org/1999/xlink">
<g id="graph0" class="graph" transform="scale(1 1) rotate(0) translate(4 671)">
<title>QuantConnect.Algorithm.Framework.Selection.UniverseSelectionModel</title>
<polygon fill="white" stroke="transparent" points="-4,4 -4,-671 1210,-671 1210,4 -4,4"/>
<!-- Node1 -->
<g id="node1" class="node">
<title>Node1</title>
<g id="a_node1"><a xlink:title="Provides a base class for universe selection models.">
<polygon fill="#bfbfbf" stroke="black" points="174,-257.5 174,-287.5 371,-287.5 371,-257.5 174,-257.5"/>
<text text-anchor="start" x="182" y="-275.5" font-family="Helvetica,sans-Serif" font-size="10.00">QuantConnect.Algorithm.Framework.</text>
<text text-anchor="middle" x="272.5" y="-264.5" font-family="Helvetica,sans-Serif" font-size="10.00">Selection.UniverseSelectionModel</text>
</a>
</g>
</g>
<!-- Node3 -->
<g id="node3" class="node">
<title>Node3</title>
<g id="a_node3"><a xlink:href="classQuantConnect_1_1Algorithm_1_1Framework_1_1Selection_1_1CompositeUniverseSelectionModel.html" target="_top" xlink:title="Provides an implementation of IUniverseSelectionModel that combines multiple universe selection model...">
<polygon fill="white" stroke="black" points="420.5,-502.5 420.5,-532.5 656.5,-532.5 656.5,-502.5 420.5,-502.5"/>
<text text-anchor="start" x="428.5" y="-520.5" font-family="Helvetica,sans-Serif" font-size="10.00">QuantConnect.Algorithm.Framework.</text>
<text text-anchor="middle" x="538.5" y="-509.5" font-family="Helvetica,sans-Serif" font-size="10.00">Selection.CompositeUniverseSelectionModel</text>
</a>
</g>
</g>
<!-- Node1&#45;&gt;Node3 -->
<g id="edge2" class="edge">
<title>Node1&#45;&gt;Node3</title>
<path fill="none" stroke="midnightblue" d="M280.87,-297.2C296.13,-343.78 335.86,-444.34 407,-493.5 411.93,-496.9 417.2,-499.87 422.7,-502.44"/>
<polygon fill="midnightblue" stroke="midnightblue" points="284.18,-296.07 277.82,-287.6 277.51,-298.19 284.18,-296.07"/>
</g>
<!-- Node4 -->
<g id="node4" class="node">
<title>Node4</title>
<g id="a_node4"><a xlink:href="classQuantConnect_1_1Algorithm_1_1Framework_1_1Selection_1_1CustomUniverseSelectionModel.html" target="_top" xlink:title="Provides an implementation of IUniverseSelectionModel that simply subscribes to the specified set of ...">
<polygon fill="white" stroke="black" points="428,-453.5 428,-483.5 649,-483.5 649,-453.5 428,-453.5"/>
<text text-anchor="start" x="436" y="-471.5" font-family="Helvetica,sans-Serif" font-size="10.00">QuantConnect.Algorithm.Framework.</text>
<text text-anchor="middle" x="538.5" y="-460.5" font-family="Helvetica,sans-Serif" font-size="10.00">Selection.CustomUniverseSelectionModel</text>
</a>
</g>
</g>
<!-- Node1&#45;&gt;Node4 -->
<g id="edge3" class="edge">
<title>Node1&#45;&gt;Node4</title>
<path fill="none" stroke="midnightblue" d="M285.12,-297.06C304.58,-335.28 347.55,-408.35 407,-444.5 413.5,-448.45 420.48,-451.78 427.73,-454.58"/>
<polygon fill="midnightblue" stroke="midnightblue" points="288.05,-295.09 280.47,-287.7 281.79,-298.21 288.05,-295.09"/>
</g>
<!-- Node13 -->
<g id="node13" class="node">
<title>Node13</title>
<g id="a_node13"><a xlink:href="classQuantConnect_1_1Algorithm_1_1Framework_1_1Selection_1_1ETFConstituentsUniverseSelectionModel.html" target="_top" xlink:title="Universe selection model that selects the constituents of an ETF.">
<polygon fill="white" stroke="black" points="407,-404.5 407,-434.5 670,-434.5 670,-404.5 407,-404.5"/>
<text text-anchor="start" x="415" y="-422.5" font-family="Helvetica,sans-Serif" font-size="10.00">QuantConnect.Algorithm.Framework.</text>
<text text-anchor="middle" x="538.5" y="-411.5" font-family="Helvetica,sans-Serif" font-size="10.00">Selection.ETFConstituentsUniverseSelectionModel</text>
</a>
</g>
</g>
<!-- Node1&#45;&gt;Node13 -->
<g id="edge12" class="edge">
<title>Node1&#45;&gt;Node13</title>
<path fill="none" stroke="midnightblue" d="M291.89,-295.82C315.42,-323.93 358.93,-370.39 407,-394.5 414.73,-398.38 423,-401.66 431.48,-404.43"/>
<polygon fill="midnightblue" stroke="midnightblue" points="294.3,-293.24 285.25,-287.73 288.89,-297.68 294.3,-293.24"/>
</g>
<!-- Node14 -->
<g id="node14" class="node">
<title>Node14</title>
<g id="a_node14"><a xlink:href="classQuantConnect_1_1Algorithm_1_1Framework_1_1Selection_1_1FundamentalUniverseSelectionModel.html" target="_top" xlink:title="Provides a base class for defining equity coarse/fine fundamental selection models">
<polygon fill="white" stroke="black" points="415,-355.5 415,-385.5 662,-385.5 662,-355.5 415,-355.5"/>
<text text-anchor="start" x="423" y="-373.5" font-family="Helvetica,sans-Serif" font-size="10.00">QuantConnect.Algorithm.Framework.</text>
<text text-anchor="middle" x="538.5" y="-362.5" font-family="Helvetica,sans-Serif" font-size="10.00">Selection.FundamentalUniverseSelectionModel</text>
</a>
</g>
</g>
<!-- Node1&#45;&gt;Node14 -->
<g id="edge13" class="edge">
<title>Node1&#45;&gt;Node14</title>
<path fill="none" stroke="midnightblue" d="M304.83,-293.29C331.08,-309.8 370.08,-332.24 407,-345.5 417.75,-349.36 429.22,-352.66 440.73,-355.48"/>
<polygon fill="midnightblue" stroke="midnightblue" points="306.41,-290.15 296.1,-287.73 302.65,-296.06 306.41,-290.15"/>
</g>
<!-- Node19 -->
<g id="node19" class="node">
<title>Node19</title>
<g id="a_node19"><a xlink:href="classQuantConnect_1_1Algorithm_1_1Framework_1_1Selection_1_1FutureUniverseSelectionModel.html" target="_top" xlink:title="Provides an implementation of IUniverseSelectionModel that subscribes to future chains">
<polygon fill="white" stroke="black" points="431.5,-306.5 431.5,-336.5 645.5,-336.5 645.5,-306.5 431.5,-306.5"/>
<text text-anchor="start" x="439.5" y="-324.5" font-family="Helvetica,sans-Serif" font-size="10.00">QuantConnect.Algorithm.Framework.</text>
<text text-anchor="middle" x="538.5" y="-313.5" font-family="Helvetica,sans-Serif" font-size="10.00">Selection.FutureUniverseSelectionModel</text>
</a>
</g>
</g>
<!-- Node1&#45;&gt;Node19 -->
<g id="edge18" class="edge">
<title>Node1&#45;&gt;Node19</title>
<path fill="none" stroke="midnightblue" d="M364.53,-289.39C394.46,-294.95 427.52,-301.09 456.65,-306.49"/>
<polygon fill="midnightblue" stroke="midnightblue" points="364.97,-285.92 354.5,-287.53 363.7,-292.8 364.97,-285.92"/>
</g>
<!-- Node21 -->
<g id="node21" class="node">
<title>Node21</title>
<g id="a_node21"><a xlink:href="classQuantConnect_1_1Algorithm_1_1Framework_1_1Selection_1_1ManualUniverseSelectionModel.html" target="_top" xlink:title="Provides an implementation of IUniverseSelectionModel that simply subscribes to the specified set of ...">
<polygon fill="white" stroke="black" points="429,-257.5 429,-287.5 648,-287.5 648,-257.5 429,-257.5"/>
<text text-anchor="start" x="437" y="-275.5" font-family="Helvetica,sans-Serif" font-size="10.00">QuantConnect.Algorithm.Framework.</text>
<text text-anchor="middle" x="538.5" y="-264.5" font-family="Helvetica,sans-Serif" font-size="10.00">Selection.ManualUniverseSelectionModel</text>
</a>
</g>
</g>
<!-- Node1&#45;&gt;Node21 -->
<g id="edge20" class="edge">
<title>Node1&#45;&gt;Node21</title>
<path fill="none" stroke="midnightblue" d="M381.28,-272.5C396.95,-272.5 413.1,-272.5 428.79,-272.5"/>
<polygon fill="midnightblue" stroke="midnightblue" points="381.05,-269 371.05,-272.5 381.05,-276 381.05,-269"/>
</g>
<!-- Node22 -->
<g id="node22" class="node">
<title>Node22</title>
<g id="a_node22"><a xlink:href="classQuantConnect_1_1Algorithm_1_1Framework_1_1Selection_1_1NullUniverseSelectionModel.html" target="_top" xlink:title="Provides a null implementation of IUniverseSelectionModel">
<polygon fill="white" stroke="black" points="437,-208.5 437,-238.5 640,-238.5 640,-208.5 437,-208.5"/>
<text text-anchor="start" x="445" y="-226.5" font-family="Helvetica,sans-Serif" font-size="10.00">QuantConnect.Algorithm.Framework.</text>
<text text-anchor="middle" x="538.5" y="-215.5" font-family="Helvetica,sans-Serif" font-size="10.00">Selection.NullUniverseSelectionModel</text>
</a>
</g>
</g>
<!-- Node1&#45;&gt;Node22 -->
<g id="edge21" class="edge">
<title>Node1&#45;&gt;Node22</title>
<path fill="none" stroke="midnightblue" d="M363.59,-255.59C378.11,-252.87 392.97,-250.1 407,-247.5 422.74,-244.58 439.55,-241.47 455.7,-238.5"/>
<polygon fill="midnightblue" stroke="midnightblue" points="362.8,-252.17 353.62,-257.45 364.09,-259.06 362.8,-252.17"/>
</g>
<!-- Node23 -->
<g id="node23" class="node">
<title>Node23</title>
<g id="a_node23"><a xlink:href="classQuantConnect_1_1Algorithm_1_1Framework_1_1Selection_1_1OptionUniverseSelectionModel.html" target="_top" xlink:title="Provides an implementation of IUniverseSelectionModel that subscribes to option chains">
<polygon fill="white" stroke="black" points="431,-159.5 431,-189.5 646,-189.5 646,-159.5 431,-159.5"/>
<text text-anchor="start" x="439" y="-177.5" font-family="Helvetica,sans-Serif" font-size="10.00">QuantConnect.Algorithm.Framework.</text>
<text text-anchor="middle" x="538.5" y="-166.5" font-family="Helvetica,sans-Serif" font-size="10.00">Selection.OptionUniverseSelectionModel</text>
</a>
</g>
</g>
<!-- Node1&#45;&gt;Node23 -->
<g id="edge22" class="edge">
<title>Node1&#45;&gt;Node23</title>
<path fill="none" stroke="midnightblue" d="M304.29,-251.63C330.5,-234.82 369.73,-211.85 407,-198.5 416.54,-195.08 426.66,-192.13 436.87,-189.58"/>
<polygon fill="midnightblue" stroke="midnightblue" points="302.05,-248.91 295.58,-257.3 305.87,-254.78 302.05,-248.91"/>
</g>
<!-- Node24 -->
<g id="node24" class="node">
<title>Node24</title>
<g id="a_node24"><a xlink:href="classQuantConnect_1_1Algorithm_1_1Framework_1_1Selection_1_1ScheduledUniverseSelectionModel.html" target="_top" xlink:title="Defines a universe selection model that invokes a selector function on a specific scheduled given by ...">
<polygon fill="white" stroke="black" points="422,-110.5 422,-140.5 655,-140.5 655,-110.5 422,-110.5"/>
<text text-anchor="start" x="430" y="-128.5" font-family="Helvetica,sans-Serif" font-size="10.00">QuantConnect.Algorithm.Framework.</text>
<text text-anchor="middle" x="538.5" y="-117.5" font-family="Helvetica,sans-Serif" font-size="10.00">Selection.ScheduledUniverseSelectionModel</text>
</a>
</g>
</g>
<!-- Node1&#45;&gt;Node24 -->
<g id="edge23" class="edge">
<title>Node1&#45;&gt;Node24</title>
<path fill="none" stroke="midnightblue" d="M291.52,-249.29C314.9,-220.93 358.5,-173.72 407,-149.5 413.9,-146.05 421.24,-143.1 428.77,-140.56"/>
<polygon fill="midnightblue" stroke="midnightblue" points="288.77,-247.13 285.2,-257.1 294.21,-251.53 288.77,-247.13"/>
</g>
<!-- Node25 -->
<g id="node25" class="node">
<title>Node25</title>
<g id="a_node25"><a xlink:href="classQuantConnect_1_1Algorithm_1_1Framework_1_1Selection_1_1UniverseSelectionModelPythonWrapper.html" target="_top" xlink:title="Provides an implementation of IUniverseSelectionModel that wraps a PyObject object">
<polygon fill="white" stroke="black" points="430,-50 430,-91 647,-91 647,-50 430,-50"/>
<text text-anchor="start" x="438" y="-79" font-family="Helvetica,sans-Serif" font-size="10.00">QuantConnect.Algorithm.Framework.</text>
<text text-anchor="start" x="438" y="-68" font-family="Helvetica,sans-Serif" font-size="10.00">Selection.UniverseSelectionModelPython</text>
<text text-anchor="middle" x="538.5" y="-57" font-family="Helvetica,sans-Serif" font-size="10.00">Wrapper</text>
</a>
</g>
</g>
<!-- Node1&#45;&gt;Node25 -->
<g id="edge24" class="edge">
<title>Node1&#45;&gt;Node25</title>
<path fill="none" stroke="midnightblue" d="M285.46,-247.97C305.25,-210.09 348.51,-137.85 407,-100.5 414.15,-95.93 421.92,-92.06 429.97,-88.77"/>
<polygon fill="midnightblue" stroke="midnightblue" points="282.15,-246.75 280.72,-257.25 288.39,-249.94 282.15,-246.75"/>
</g>
<!-- Node26 -->
<g id="node26" class="node">
<title>Node26</title>
<g id="a_node26"><a xlink:href="classQuantConnect_1_1Algorithm_1_1Selection_1_1OptionChainedUniverseSelectionModel.html" target="_top" xlink:title="This universe selection model will chain to the security changes of a given Universe selection output...">
<polygon fill="white" stroke="black" points="435,-0.5 435,-30.5 642,-30.5 642,-0.5 435,-0.5"/>
<text text-anchor="start" x="443" y="-18.5" font-family="Helvetica,sans-Serif" font-size="10.00">QuantConnect.Algorithm.Selection.</text>
<text text-anchor="middle" x="538.5" y="-7.5" font-family="Helvetica,sans-Serif" font-size="10.00">OptionChainedUniverseSelectionModel</text>
</a>
</g>
</g>
<!-- Node1&#45;&gt;Node26 -->
<g id="edge25" class="edge">
<title>Node1&#45;&gt;Node26</title>
<path fill="none" stroke="midnightblue" d="M280.22,-247.66C294.67,-199.34 333.48,-92.87 407,-40.5 415.45,-34.48 424.97,-29.8 434.91,-26.18"/>
<polygon fill="midnightblue" stroke="midnightblue" points="276.85,-246.73 277.43,-257.31 283.57,-248.67 276.85,-246.73"/>
</g>
<!-- Node2 -->
<g id="node2" class="node">
<title>Node2</title>
<g id="a_node2"><a xlink:href="interfaceQuantConnect_1_1Algorithm_1_1Framework_1_1Selection_1_1IUniverseSelectionModel.html" target="_top" xlink:title="Algorithm framework model that defines the universes to be used by an algorithm">
<polygon fill="white" stroke="black" points="0,-263 0,-282 138,-282 138,-263 0,-263"/>
<text text-anchor="middle" x="69" y="-270" font-family="Helvetica,sans-Serif" font-size="10.00">IUniverseSelectionModel</text>
</a>
</g>
</g>
<!-- Node2&#45;&gt;Node1 -->
<g id="edge1" class="edge">
<title>Node2&#45;&gt;Node1</title>
<path fill="none" stroke="midnightblue" d="M148.26,-272.5C156.59,-272.5 165.14,-272.5 173.66,-272.5"/>
<polygon fill="midnightblue" stroke="midnightblue" points="148.22,-269 138.22,-272.5 148.22,-276 148.22,-269"/>
</g>
<!-- Node5 -->
<g id="node5" class="node">
<title>Node5</title>
<g id="a_node5"><a xlink:href="classQuantConnect_1_1Algorithm_1_1Framework_1_1Selection_1_1InceptionDateUniverseSelectionModel.html" target="_top" xlink:title="Inception Date Universe that accepts a Dictionary of DateTime keyed by String that represent the Ince...">
<polygon fill="white" stroke="black" points="714,-489.5 714,-519.5 965,-519.5 965,-489.5 714,-489.5"/>
<text text-anchor="start" x="722" y="-507.5" font-family="Helvetica,sans-Serif" font-size="10.00">QuantConnect.Algorithm.Framework.</text>
<text text-anchor="middle" x="839.5" y="-496.5" font-family="Helvetica,sans-Serif" font-size="10.00">Selection.InceptionDateUniverseSelectionModel</text>
</a>
</g>
</g>
<!-- Node4&#45;&gt;Node5 -->
<g id="edge4" class="edge">
<title>Node4&#45;&gt;Node5</title>
<path fill="none" stroke="midnightblue" d="M659.1,-482.9C677.15,-485.07 695.81,-487.32 713.96,-489.51"/>
<polygon fill="midnightblue" stroke="midnightblue" points="659.49,-479.42 649.14,-481.7 658.65,-486.37 659.49,-479.42"/>
</g>
<!-- Node6 -->
<g id="node6" class="node">
<title>Node6</title>
<g id="a_node6"><a xlink:href="classQuantConnect_1_1Algorithm_1_1Framework_1_1Selection_1_1EnergyETFUniverse.html" target="_top" xlink:title="Universe Selection Model that adds the following Energy ETFs at their inception date 1998&#45;12&#45;22 XLE E...">
<polygon fill="white" stroke="black" points="1009,-636.5 1009,-666.5 1206,-666.5 1206,-636.5 1009,-636.5"/>
<text text-anchor="start" x="1017" y="-654.5" font-family="Helvetica,sans-Serif" font-size="10.00">QuantConnect.Algorithm.Framework.</text>
<text text-anchor="middle" x="1107.5" y="-643.5" font-family="Helvetica,sans-Serif" font-size="10.00">Selection.EnergyETFUniverse</text>
</a>
</g>
</g>
<!-- Node5&#45;&gt;Node6 -->
<g id="edge5" class="edge">
<title>Node5&#45;&gt;Node6</title>
<path fill="none" stroke="midnightblue" d="M864.47,-526.76C895.5,-554.4 952.34,-601.11 1009,-627.5 1016.35,-630.92 1024.24,-633.89 1032.24,-636.47"/>
<polygon fill="midnightblue" stroke="midnightblue" points="866.56,-523.93 856.79,-519.84 861.87,-529.13 866.56,-523.93"/>
</g>
<!-- Node7 -->
<g id="node7" class="node">
<title>Node7</title>
<g id="a_node7"><a xlink:href="classQuantConnect_1_1Algorithm_1_1Framework_1_1Selection_1_1LiquidETFUniverse.html" target="_top" xlink:title="Universe Selection Model that adds the following ETFs at their inception date">
<polygon fill="white" stroke="black" points="1009,-587.5 1009,-617.5 1206,-617.5 1206,-587.5 1009,-587.5"/>
<text text-anchor="start" x="1017" y="-605.5" font-family="Helvetica,sans-Serif" font-size="10.00">QuantConnect.Algorithm.Framework.</text>
<text text-anchor="middle" x="1107.5" y="-594.5" font-family="Helvetica,sans-Serif" font-size="10.00">Selection.LiquidETFUniverse</text>
</a>
</g>
</g>
<!-- Node5&#45;&gt;Node7 -->
<g id="edge6" class="edge">
<title>Node5&#45;&gt;Node7</title>
<path fill="none" stroke="midnightblue" d="M879.66,-524.01C913.33,-540.21 963.51,-563.04 1009,-578.5 1018.57,-581.75 1028.81,-584.76 1038.93,-587.48"/>
<polygon fill="midnightblue" stroke="midnightblue" points="881.14,-520.84 870.62,-519.62 878.09,-527.13 881.14,-520.84"/>
</g>
<!-- Node8 -->
<g id="node8" class="node">
<title>Node8</title>
<g id="a_node8"><a xlink:href="classQuantConnect_1_1Algorithm_1_1Framework_1_1Selection_1_1MetalsETFUniverse.html" target="_top" xlink:title="Universe Selection Model that adds the following Metals ETFs at their inception date 2004&#45;11&#45;18 GLD S...">
<polygon fill="white" stroke="black" points="1009,-538.5 1009,-568.5 1206,-568.5 1206,-538.5 1009,-538.5"/>
<text text-anchor="start" x="1017" y="-556.5" font-family="Helvetica,sans-Serif" font-size="10.00">QuantConnect.Algorithm.Framework.</text>
<text text-anchor="middle" x="1107.5" y="-545.5" font-family="Helvetica,sans-Serif" font-size="10.00">Selection.MetalsETFUniverse</text>
</a>
</g>
</g>
<!-- Node5&#45;&gt;Node8 -->
<g id="edge7" class="edge">
<title>Node5&#45;&gt;Node8</title>
<path fill="none" stroke="midnightblue" d="M932.22,-521.39C962.38,-526.95 995.69,-533.09 1025.04,-538.49"/>
<polygon fill="midnightblue" stroke="midnightblue" points="932.59,-517.9 922.12,-519.53 931.32,-524.79 932.59,-517.9"/>
</g>
<!-- Node9 -->
<g id="node9" class="node">
<title>Node9</title>
<g id="a_node9"><a xlink:href="classQuantConnect_1_1Algorithm_1_1Framework_1_1Selection_1_1SP500SectorsETFUniverse.html" target="_top" xlink:title="Universe Selection Model that adds the following SP500 Sectors ETFs at their inception date 1998&#45;12&#45;2...">
<polygon fill="white" stroke="black" points="1009,-489.5 1009,-519.5 1206,-519.5 1206,-489.5 1009,-489.5"/>
<text text-anchor="start" x="1017" y="-507.5" font-family="Helvetica,sans-Serif" font-size="10.00">QuantConnect.Algorithm.Framework.</text>
<text text-anchor="middle" x="1107.5" y="-496.5" font-family="Helvetica,sans-Serif" font-size="10.00">Selection.SP500SectorsETFUniverse</text>
</a>
</g>
</g>
<!-- Node5&#45;&gt;Node9 -->
<g id="edge8" class="edge">
<title>Node5&#45;&gt;Node9</title>
<path fill="none" stroke="midnightblue" d="M975.58,-504.5C986.76,-504.5 997.92,-504.5 1008.75,-504.5"/>
<polygon fill="midnightblue" stroke="midnightblue" points="975.32,-501 965.32,-504.5 975.32,-508 975.32,-501"/>
</g>
<!-- Node10 -->
<g id="node10" class="node">
<title>Node10</title>
<g id="a_node10"><a xlink:href="classQuantConnect_1_1Algorithm_1_1Framework_1_1Selection_1_1TechnologyETFUniverse.html" target="_top" xlink:title="Universe Selection Model that adds the following Technology ETFs at their inception date 1998&#45;12&#45;22 X...">
<polygon fill="white" stroke="black" points="1009,-440.5 1009,-470.5 1206,-470.5 1206,-440.5 1009,-440.5"/>
<text text-anchor="start" x="1017" y="-458.5" font-family="Helvetica,sans-Serif" font-size="10.00">QuantConnect.Algorithm.Framework.</text>
<text text-anchor="middle" x="1107.5" y="-447.5" font-family="Helvetica,sans-Serif" font-size="10.00">Selection.TechnologyETFUniverse</text>
</a>
</g>
</g>
<!-- Node5&#45;&gt;Node10 -->
<g id="edge9" class="edge">
<title>Node5&#45;&gt;Node10</title>
<path fill="none" stroke="midnightblue" d="M932.22,-487.61C962.38,-482.05 995.69,-475.91 1025.04,-470.51"/>
<polygon fill="midnightblue" stroke="midnightblue" points="931.32,-484.21 922.12,-489.47 932.59,-491.1 931.32,-484.21"/>
</g>
<!-- Node11 -->
<g id="node11" class="node">
<title>Node11</title>
<g id="a_node11"><a xlink:href="classQuantConnect_1_1Algorithm_1_1Framework_1_1Selection_1_1USTreasuriesETFUniverse.html" target="_top" xlink:title="Universe Selection Model that adds the following US Treasuries ETFs at their inception date 2002&#45;07&#45;2...">
<polygon fill="white" stroke="black" points="1009,-391.5 1009,-421.5 1206,-421.5 1206,-391.5 1009,-391.5"/>
<text text-anchor="start" x="1017" y="-409.5" font-family="Helvetica,sans-Serif" font-size="10.00">QuantConnect.Algorithm.Framework.</text>
<text text-anchor="middle" x="1107.5" y="-398.5" font-family="Helvetica,sans-Serif" font-size="10.00">Selection.USTreasuriesETFUniverse</text>
</a>
</g>
</g>
<!-- Node5&#45;&gt;Node11 -->
<g id="edge10" class="edge">
<title>Node5&#45;&gt;Node11</title>
<path fill="none" stroke="midnightblue" d="M962.52,-485.3C966.13,-483.53 969.63,-481.6 973,-479.5 995.64,-465.41 986.83,-446.32 1009,-431.5 1014.81,-427.62 1021.19,-424.34 1027.81,-421.56"/>
<polygon fill="midnightblue" stroke="midnightblue" points="961.06,-482.12 953.37,-489.4 963.92,-488.51 961.06,-482.12"/>
</g>
<!-- Node12 -->
<g id="node12" class="node">
<title>Node12</title>
<g id="a_node12"><a xlink:href="classQuantConnect_1_1Algorithm_1_1Framework_1_1Selection_1_1VolatilityETFUniverse.html" target="_top" xlink:title="Universe Selection Model that adds the following Volatility ETFs at their inception date 2010&#45;02&#45;11 S...">
<polygon fill="white" stroke="black" points="1009,-342.5 1009,-372.5 1206,-372.5 1206,-342.5 1009,-342.5"/>
<text text-anchor="start" x="1017" y="-360.5" font-family="Helvetica,sans-Serif" font-size="10.00">QuantConnect.Algorithm.Framework.</text>
<text text-anchor="middle" x="1107.5" y="-349.5" font-family="Helvetica,sans-Serif" font-size="10.00">Selection.VolatilityETFUniverse</text>
</a>
</g>
</g>
<!-- Node5&#45;&gt;Node12 -->
<g id="edge11" class="edge">
<title>Node5&#45;&gt;Node12</title>
<path fill="none" stroke="midnightblue" d="M967.37,-483.87C969.31,-482.49 971.19,-481.04 973,-479.5 1008.41,-449.51 974.42,-412.45 1009,-381.5 1012.77,-378.13 1016.93,-375.21 1021.36,-372.69"/>
<polygon fill="midnightblue" stroke="midnightblue" points="965.15,-481.12 958.55,-489.41 968.88,-487.05 965.15,-481.12"/>
</g>
<!-- Node15 -->
<g id="node15" class="node">
<title>Node15</title>
<g id="a_node15"><a xlink:href="classQuantConnect_1_1Algorithm_1_1Framework_1_1Selection_1_1CoarseFundamentalUniverseSelectionModel.html" target="_top" xlink:title="Portfolio selection model that uses coarse selectors. For US equities only.">
<polygon fill="white" stroke="black" points="736.5,-429 736.5,-470 942.5,-470 942.5,-429 736.5,-429"/>
<text text-anchor="start" x="744.5" y="-458" font-family="Helvetica,sans-Serif" font-size="10.00">QuantConnect.Algorithm.Framework.</text>
<text text-anchor="start" x="744.5" y="-447" font-family="Helvetica,sans-Serif" font-size="10.00">Selection.CoarseFundamentalUniverse</text>
<text text-anchor="middle" x="839.5" y="-436" font-family="Helvetica,sans-Serif" font-size="10.00">SelectionModel</text>
</a>
</g>
</g>
<!-- Node14&#45;&gt;Node15 -->
<g id="edge14" class="edge">
<title>Node14&#45;&gt;Node15</title>
<path fill="none" stroke="midnightblue" d="M653.05,-388.44C658.85,-390.27 664.53,-392.28 670,-394.5 687.82,-401.72 688.36,-410.85 706,-418.5 715.65,-422.68 725.94,-426.34 736.37,-429.54"/>
<polygon fill="midnightblue" stroke="midnightblue" points="653.78,-385.01 643.2,-385.54 651.8,-391.72 653.78,-385.01"/>
</g>
<!-- Node16 -->
<g id="node16" class="node">
<title>Node16</title>
<g id="a_node16"><a xlink:href="classQuantConnect_1_1Algorithm_1_1Framework_1_1Selection_1_1EmaCrossUniverseSelectionModel.html" target="_top" xlink:title="Provides an implementation of FundamentalUniverseSelectionModel that subscribes to symbols with the l...">
<polygon fill="white" stroke="black" points="723.5,-379.5 723.5,-409.5 955.5,-409.5 955.5,-379.5 723.5,-379.5"/>
<text text-anchor="start" x="731.5" y="-397.5" font-family="Helvetica,sans-Serif" font-size="10.00">QuantConnect.Algorithm.Framework.</text>
<text text-anchor="middle" x="839.5" y="-386.5" font-family="Helvetica,sans-Serif" font-size="10.00">Selection.EmaCrossUniverseSelectionModel</text>
</a>
</g>
</g>
<!-- Node14&#45;&gt;Node16 -->
<g id="edge15" class="edge">
<title>Node14&#45;&gt;Node16</title>
<path fill="none" stroke="midnightblue" d="M672.84,-381.2C689.67,-382.55 706.77,-383.93 723.28,-385.25"/>
<polygon fill="midnightblue" stroke="midnightblue" points="672.66,-377.68 662.41,-380.37 672.1,-384.65 672.66,-377.68"/>
</g>
<!-- Node17 -->
<g id="node17" class="node">
<title>Node17</title>
<g id="a_node17"><a xlink:href="classQuantConnect_1_1Algorithm_1_1Framework_1_1Selection_1_1FineFundamentalUniverseSelectionModel.html" target="_top" xlink:title="Portfolio selection model that uses coarse/fine selectors. For US equities only.">
<polygon fill="white" stroke="black" points="706,-330.5 706,-360.5 973,-360.5 973,-330.5 706,-330.5"/>
<text text-anchor="start" x="714" y="-348.5" font-family="Helvetica,sans-Serif" font-size="10.00">QuantConnect.Algorithm.Framework.</text>
<text text-anchor="middle" x="839.5" y="-337.5" font-family="Helvetica,sans-Serif" font-size="10.00">Selection.FineFundamentalUniverseSelectionModel</text>
</a>
</g>
</g>
<!-- Node14&#45;&gt;Node17 -->
<g id="edge16" class="edge">
<title>Node14&#45;&gt;Node17</title>
<path fill="none" stroke="midnightblue" d="M672.54,-359.38C683.61,-358.45 694.81,-357.51 705.88,-356.59"/>
<polygon fill="midnightblue" stroke="midnightblue" points="672.08,-355.9 662.41,-360.22 672.67,-362.88 672.08,-355.9"/>
</g>
<!-- Node18 -->
<g id="node18" class="node">
<title>Node18</title>
<g id="a_node18"><a xlink:href="classQuantConnect_1_1Algorithm_1_1Framework_1_1Selection_1_1QC500UniverseSelectionModel.html" target="_top" xlink:title="Defines the QC500 universe as a universe selection model for framework algorithm For details: https:/...">
<polygon fill="white" stroke="black" points="732,-281.5 732,-311.5 947,-311.5 947,-281.5 732,-281.5"/>
<text text-anchor="start" x="740" y="-299.5" font-family="Helvetica,sans-Serif" font-size="10.00">QuantConnect.Algorithm.Framework.</text>
<text text-anchor="middle" x="839.5" y="-288.5" font-family="Helvetica,sans-Serif" font-size="10.00">Selection.QC500UniverseSelectionModel</text>
</a>
</g>
</g>
<!-- Node14&#45;&gt;Node18 -->
<g id="edge17" class="edge">
<title>Node14&#45;&gt;Node18</title>
<path fill="none" stroke="midnightblue" d="M650.66,-352.56C657.29,-350.46 663.79,-348.11 670,-345.5 687.96,-337.95 688.01,-327.96 706,-320.5 714.31,-317.05 723.12,-314.1 732.09,-311.57"/>
<polygon fill="midnightblue" stroke="midnightblue" points="649.45,-349.26 640.86,-355.46 651.44,-355.97 649.45,-349.26"/>
</g>
<!-- Node20 -->
<g id="node20" class="node">
<title>Node20</title>
<g id="a_node20"><a xlink:href="classQuantConnect_1_1Algorithm_1_1Framework_1_1Selection_1_1OpenInterestFutureUniverseSelectionModel.html" target="_top" xlink:title="Selects contracts in a futures universe, sorted by open interest. This allows the selection to identi...">
<polygon fill="white" stroke="black" points="738.5,-221 738.5,-262 940.5,-262 940.5,-221 738.5,-221"/>
<text text-anchor="start" x="746.5" y="-250" font-family="Helvetica,sans-Serif" font-size="10.00">QuantConnect.Algorithm.Framework.</text>
<text text-anchor="start" x="746.5" y="-239" font-family="Helvetica,sans-Serif" font-size="10.00">Selection.OpenInterestFutureUniverse</text>
<text text-anchor="middle" x="839.5" y="-228" font-family="Helvetica,sans-Serif" font-size="10.00">SelectionModel</text>
</a>
</g>
</g>
<!-- Node19&#45;&gt;Node20 -->
<g id="edge19" class="edge">
<title>Node19&#45;&gt;Node20</title>
<path fill="none" stroke="midnightblue" d="M650.66,-303.56C657.29,-301.46 663.79,-299.11 670,-296.5 687.96,-288.95 688.17,-279.35 706,-271.5 716.25,-266.98 727.26,-263.11 738.4,-259.8"/>
<polygon fill="midnightblue" stroke="midnightblue" points="649.45,-300.26 640.86,-306.46 651.44,-306.97 649.45,-300.26"/>
</g>
</g>
</svg>
