<?xml version="1.0" encoding="UTF-8" standalone="no"?>
<!DOCTYPE svg PUBLIC "-//W3C//DTD SVG 1.1//EN"
 "http://www.w3.org/Graphics/SVG/1.1/DTD/svg11.dtd">
<!-- Generated by graphviz version 2.43.0 (0)
 -->
<!-- Title: QuantConnect.Lean.Engine.Storage.LocalObjectStore.ReadBytes Pages: 1 -->
<svg width="675pt" height="61pt"
 viewBox="0.00 0.00 675.00 61.00" xmlns="http://www.w3.org/2000/svg" xmlns:xlink="http://www.w3.org/1999/xlink">
<g id="graph0" class="graph" transform="scale(1 1) rotate(0) translate(4 57)">
<title>QuantConnect.Lean.Engine.Storage.LocalObjectStore.ReadBytes</title>
<polygon fill="white" stroke="transparent" points="-4,4 -4,-57 671,-57 671,4 -4,4"/>
<!-- Node1 -->
<g id="node1" class="node">
<title>Node1</title>
<g id="a_node1"><a xlink:title="Returns the object data for the specified path">
<polygon fill="#bfbfbf" stroke="black" points="0,-0.5 0,-30.5 195,-30.5 195,-0.5 0,-0.5"/>
<text text-anchor="start" x="8" y="-18.5" font-family="Helvetica,sans-Serif" font-size="10.00">QuantConnect.Lean.Engine.</text>
<text text-anchor="middle" x="97.5" y="-7.5" font-family="Helvetica,sans-Serif" font-size="10.00">Storage.LocalObjectStore.ReadBytes</text>
</a>
</g>
</g>
<!-- Node2 -->
<g id="node2" class="node">
<title>Node2</title>
<g id="a_node2"><a xlink:href="classQuantConnect_1_1Lean_1_1Engine_1_1Storage_1_1LocalObjectStore.html#a52e8e88b7d73e2d4f088d3ff71a7c301" target="_top" xlink:title="Determines whether the store contains data for the specified path">
<polygon fill="white" stroke="black" points="231,-22.5 231,-52.5 434,-52.5 434,-22.5 231,-22.5"/>
<text text-anchor="start" x="239" y="-40.5" font-family="Helvetica,sans-Serif" font-size="10.00">QuantConnect.Lean.Engine.</text>
<text text-anchor="middle" x="332.5" y="-29.5" font-family="Helvetica,sans-Serif" font-size="10.00">Storage.LocalObjectStore.ContainsKey</text>
</a>
</g>
</g>
<!-- Node1&#45;&gt;Node2 -->
<g id="edge1" class="edge">
<title>Node1&#45;&gt;Node2</title>
<path fill="none" stroke="midnightblue" d="M195.29,-24.64C203.74,-25.44 212.33,-26.25 220.87,-27.05"/>
<polygon fill="midnightblue" stroke="midnightblue" points="220.59,-30.54 230.88,-28 221.25,-23.57 220.59,-30.54"/>
</g>
<!-- Node3 -->
<g id="node3" class="node">
<title>Node3</title>
<g id="a_node3"><a xlink:href="classQuantConnect_1_1Lean_1_1Engine_1_1Storage_1_1LocalObjectStore.html#a401003a1ad65a8cb163d7aa1162e98c0" target="_top" xlink:title="Get&#39;s a file path for a given path. Internal use only because it does not guarantee the existence of ...">
<polygon fill="white" stroke="black" points="470,-0.5 470,-30.5 667,-30.5 667,-0.5 470,-0.5"/>
<text text-anchor="start" x="478" y="-18.5" font-family="Helvetica,sans-Serif" font-size="10.00">QuantConnect.Lean.Engine.</text>
<text text-anchor="middle" x="568.5" y="-7.5" font-family="Helvetica,sans-Serif" font-size="10.00">Storage.LocalObjectStore.PathForKey</text>
</a>
</g>
</g>
<!-- Node1&#45;&gt;Node3 -->
<g id="edge3" class="edge">
<title>Node1&#45;&gt;Node3</title>
<path fill="none" stroke="midnightblue" d="M195.11,-13.87C207.19,-13.72 219.38,-13.59 231,-13.5 321.22,-12.82 343.78,-12.82 434,-13.5 442.33,-13.56 450.95,-13.65 459.62,-13.75"/>
<polygon fill="midnightblue" stroke="midnightblue" points="459.76,-17.25 469.8,-13.87 459.84,-10.25 459.76,-17.25"/>
</g>
<!-- Node2&#45;&gt;Node3 -->
<g id="edge2" class="edge">
<title>Node2&#45;&gt;Node3</title>
<path fill="none" stroke="midnightblue" d="M434.1,-28.04C442.64,-27.24 451.31,-26.42 459.91,-25.62"/>
<polygon fill="midnightblue" stroke="midnightblue" points="460.33,-29.09 469.96,-24.67 459.67,-22.12 460.33,-29.09"/>
</g>
</g>
</svg>
