<?xml version="1.0" encoding="UTF-8" standalone="no"?>
<!DOCTYPE svg PUBLIC "-//W3C//DTD SVG 1.1//EN"
 "http://www.w3.org/Graphics/SVG/1.1/DTD/svg11.dtd">
<!-- Generated by graphviz version 2.43.0 (0)
 -->
<!-- Title: QuantConnect.Algorithm.QCAlgorithm.MarketOrder Pages: 1 -->
<svg width="488pt" height="307pt"
 viewBox="0.00 0.00 488.00 307.00" xmlns="http://www.w3.org/2000/svg" xmlns:xlink="http://www.w3.org/1999/xlink">
<g id="graph0" class="graph" transform="scale(1 1) rotate(0) translate(4 303)">
<title>QuantConnect.Algorithm.QCAlgorithm.MarketOrder</title>
<polygon fill="white" stroke="transparent" points="-4,4 -4,-303 484,-303 484,4 -4,4"/>
<!-- Node1 -->
<g id="node1" class="node">
<title>Node1</title>
<g id="a_node1"><a xlink:title="Market order implementation: Send a market order and wait for it to be filled.">
<polygon fill="#bfbfbf" stroke="black" points="275,-134.5 275,-164.5 480,-164.5 480,-134.5 275,-134.5"/>
<text text-anchor="start" x="283" y="-152.5" font-family="Helvetica,sans-Serif" font-size="10.00">QuantConnect.Algorithm.QCAlgorithm.</text>
<text text-anchor="middle" x="377.5" y="-141.5" font-family="Helvetica,sans-Serif" font-size="10.00">MarketOrder</text>
</a>
</g>
</g>
<!-- Node2 -->
<g id="node2" class="node">
<title>Node2</title>
<g id="a_node2"><a xlink:href="classQuantConnect_1_1Algorithm_1_1Framework_1_1Execution_1_1ImmediateExecutionModel.html#a511a5ee5cfad871573562de5a723f595" target="_top" xlink:title="Immediately submits orders for the specified portfolio targets.">
<polygon fill="white" stroke="black" points="0,-268.5 0,-298.5 239,-298.5 239,-268.5 0,-268.5"/>
<text text-anchor="start" x="8" y="-286.5" font-family="Helvetica,sans-Serif" font-size="10.00">QuantConnect.Algorithm.Framework.</text>
<text text-anchor="middle" x="119.5" y="-275.5" font-family="Helvetica,sans-Serif" font-size="10.00">Execution.ImmediateExecutionModel.Execute</text>
</a>
</g>
</g>
<!-- Node1&#45;&gt;Node2 -->
<g id="edge1" class="edge">
<title>Node1&#45;&gt;Node2</title>
<path fill="none" stroke="midnightblue" d="M355.27,-172C330.02,-197.34 285.43,-237.8 239,-259.5 231.58,-262.97 223.68,-265.93 215.6,-268.47"/>
<polygon fill="midnightblue" stroke="midnightblue" points="357.96,-174.26 362.46,-164.66 352.96,-169.36 357.96,-174.26"/>
</g>
<!-- Node3 -->
<g id="node3" class="node">
<title>Node3</title>
<g id="a_node3"><a xlink:href="classQuantConnect_1_1Algorithm_1_1Framework_1_1Execution_1_1SpreadExecutionModel.html#a5859d83fe3cc3b257b6336a4577aeccf" target="_top" xlink:title="Submit orders for the specified portfolio targets if the spread is tighter/equal to preset level">
<polygon fill="white" stroke="black" points="10,-219.5 10,-249.5 229,-249.5 229,-219.5 10,-219.5"/>
<text text-anchor="start" x="18" y="-237.5" font-family="Helvetica,sans-Serif" font-size="10.00">QuantConnect.Algorithm.Framework.</text>
<text text-anchor="middle" x="119.5" y="-226.5" font-family="Helvetica,sans-Serif" font-size="10.00">Execution.SpreadExecutionModel.Execute</text>
</a>
</g>
</g>
<!-- Node1&#45;&gt;Node3 -->
<g id="edge2" class="edge">
<title>Node1&#45;&gt;Node3</title>
<path fill="none" stroke="midnightblue" d="M337.73,-168.95C310.62,-181.92 273.28,-198.53 239,-209.5 227.39,-213.22 214.95,-216.53 202.66,-219.44"/>
<polygon fill="midnightblue" stroke="midnightblue" points="339.39,-172.04 346.87,-164.53 336.34,-165.74 339.39,-172.04"/>
</g>
<!-- Node4 -->
<g id="node4" class="node">
<title>Node4</title>
<g id="a_node4"><a xlink:href="classQuantConnect_1_1Algorithm_1_1Framework_1_1Execution_1_1VolumeWeightedAveragePriceExecutionModel.html#ae0bd79cb99f23a4180fce80f263ec671" target="_top" xlink:title="Submit orders for the specified portfolio targets. This model is free to delay or spread out these or...">
<polygon fill="white" stroke="black" points="13,-159 13,-200 226,-200 226,-159 13,-159"/>
<text text-anchor="start" x="21" y="-188" font-family="Helvetica,sans-Serif" font-size="10.00">QuantConnect.Algorithm.Framework.</text>
<text text-anchor="start" x="21" y="-177" font-family="Helvetica,sans-Serif" font-size="10.00">Execution.VolumeWeightedAveragePrice</text>
<text text-anchor="middle" x="119.5" y="-166" font-family="Helvetica,sans-Serif" font-size="10.00">ExecutionModel.Execute</text>
</a>
</g>
</g>
<!-- Node1&#45;&gt;Node4 -->
<g id="edge3" class="edge">
<title>Node1&#45;&gt;Node4</title>
<path fill="none" stroke="midnightblue" d="M264.73,-162.6C251.9,-164.1 238.86,-165.63 226.12,-167.12"/>
<polygon fill="midnightblue" stroke="midnightblue" points="265.43,-166.04 274.95,-161.4 264.61,-159.09 265.43,-166.04"/>
</g>
<!-- Node5 -->
<g id="node5" class="node">
<title>Node5</title>
<g id="a_node5"><a xlink:href="classQuantConnect_1_1Algorithm_1_1Framework_1_1Execution_1_1StandardDeviationExecutionModel.html#a7b2f5bc880cedfe6ed0c30cdc5c9df17" target="_top" xlink:title="Executes market orders if the standard deviation of price is more than the configured number of devia...">
<polygon fill="white" stroke="black" points="17,-99 17,-140 222,-140 222,-99 17,-99"/>
<text text-anchor="start" x="25" y="-128" font-family="Helvetica,sans-Serif" font-size="10.00">QuantConnect.Algorithm.Framework.</text>
<text text-anchor="start" x="25" y="-117" font-family="Helvetica,sans-Serif" font-size="10.00">Execution.StandardDeviationExecution</text>
<text text-anchor="middle" x="119.5" y="-106" font-family="Helvetica,sans-Serif" font-size="10.00">Model.Execute</text>
</a>
</g>
</g>
<!-- Node1&#45;&gt;Node5 -->
<g id="edge4" class="edge">
<title>Node1&#45;&gt;Node5</title>
<path fill="none" stroke="midnightblue" d="M264.74,-136.4C250.64,-134.75 236.28,-133.07 222.34,-131.43"/>
<polygon fill="midnightblue" stroke="midnightblue" points="264.61,-139.91 274.95,-137.6 265.43,-132.96 264.61,-139.91"/>
</g>
<!-- Node6 -->
<g id="node6" class="node">
<title>Node6</title>
<g id="a_node6"><a xlink:href="classQuantConnect_1_1Algorithm_1_1QCAlgorithm.html#afa5635b423fd4a676665b7832d611d9f" target="_top" xlink:title="Market order implementation: Send a market order and wait for it to be filled.">
<polygon fill="white" stroke="black" points="17,-49.5 17,-79.5 222,-79.5 222,-49.5 17,-49.5"/>
<text text-anchor="start" x="25" y="-67.5" font-family="Helvetica,sans-Serif" font-size="10.00">QuantConnect.Algorithm.QCAlgorithm.</text>
<text text-anchor="middle" x="119.5" y="-56.5" font-family="Helvetica,sans-Serif" font-size="10.00">MarketOrder</text>
</a>
</g>
</g>
<!-- Node1&#45;&gt;Node6 -->
<g id="edge5" class="edge">
<title>Node1&#45;&gt;Node6</title>
<path fill="none" stroke="midnightblue" d="M337.73,-130.05C310.62,-117.08 273.28,-100.47 239,-89.5 227.39,-85.78 214.95,-82.47 202.66,-79.56"/>
<polygon fill="midnightblue" stroke="midnightblue" points="336.34,-133.26 346.87,-134.47 339.39,-126.96 336.34,-133.26"/>
</g>
<!-- Node7 -->
<g id="node7" class="node">
<title>Node7</title>
<g id="a_node7"><a xlink:href="classQuantConnect_1_1Algorithm_1_1QCAlgorithm.html#ae002040981e48fefbf6367cfefc83734" target="_top" xlink:title="Issue an order/trade for asset">
<polygon fill="white" stroke="black" points="17,-0.5 17,-30.5 222,-30.5 222,-0.5 17,-0.5"/>
<text text-anchor="start" x="25" y="-18.5" font-family="Helvetica,sans-Serif" font-size="10.00">QuantConnect.Algorithm.QCAlgorithm.</text>
<text text-anchor="middle" x="119.5" y="-7.5" font-family="Helvetica,sans-Serif" font-size="10.00">Order</text>
</a>
</g>
</g>
<!-- Node1&#45;&gt;Node7 -->
<g id="edge6" class="edge">
<title>Node1&#45;&gt;Node7</title>
<path fill="none" stroke="midnightblue" d="M354.78,-126.87C329.4,-101.8 284.98,-62.09 239,-40.5 230.72,-36.61 221.83,-33.32 212.79,-30.54"/>
<polygon fill="midnightblue" stroke="midnightblue" points="352.49,-129.53 362.03,-134.14 357.45,-124.58 352.49,-129.53"/>
</g>
</g>
</svg>
