<?xml version="1.0" encoding="UTF-8" standalone="no"?>
<!DOCTYPE svg PUBLIC "-//W3C//DTD SVG 1.1//EN"
 "http://www.w3.org/Graphics/SVG/1.1/DTD/svg11.dtd">
<!-- Generated by graphviz version 2.43.0 (0)
 -->
<!-- Title: QuantConnect.Algorithm.Framework.Risk.MaximumUnrealizedProfitPercentPerSecurity Pages: 1 -->
<svg width="213pt" height="218pt"
 viewBox="0.00 0.00 213.00 218.00" xmlns="http://www.w3.org/2000/svg" xmlns:xlink="http://www.w3.org/1999/xlink">
<g id="graph0" class="graph" transform="scale(1 1) rotate(0) translate(4 214)">
<title>QuantConnect.Algorithm.Framework.Risk.MaximumUnrealizedProfitPercentPerSecurity</title>
<polygon fill="white" stroke="transparent" points="-4,4 -4,-214 209,-214 209,4 -4,4"/>
<!-- Node1 -->
<g id="node1" class="node">
<title>Node1</title>
<g id="a_node1"><a xlink:title="Provides an implementation of IRiskManagementModel that limits the unrealized profit per holding to t...">
<polygon fill="#bfbfbf" stroke="black" points="0,-0.5 0,-41.5 205,-41.5 205,-0.5 0,-0.5"/>
<text text-anchor="start" x="8" y="-29.5" font-family="Helvetica,sans-Serif" font-size="10.00">QuantConnect.Algorithm.Framework.</text>
<text text-anchor="start" x="8" y="-18.5" font-family="Helvetica,sans-Serif" font-size="10.00">Risk.MaximumUnrealizedProfitPercent</text>
<text text-anchor="middle" x="102.5" y="-7.5" font-family="Helvetica,sans-Serif" font-size="10.00">PerSecurity</text>
</a>
</g>
</g>
<!-- Node2 -->
<g id="node2" class="node">
<title>Node2</title>
<g id="a_node2"><a xlink:href="classQuantConnect_1_1Algorithm_1_1Framework_1_1Risk_1_1RiskManagementModel.html" target="_top" xlink:title="Provides a base class for risk management models">
<polygon fill="white" stroke="black" points="36.5,-78.5 36.5,-97.5 168.5,-97.5 168.5,-78.5 36.5,-78.5"/>
<text text-anchor="middle" x="102.5" y="-85.5" font-family="Helvetica,sans-Serif" font-size="10.00">RiskManagementModel</text>
</a>
</g>
</g>
<!-- Node2&#45;&gt;Node1 -->
<g id="edge1" class="edge">
<title>Node2&#45;&gt;Node1</title>
<path fill="none" stroke="midnightblue" d="M102.5,-68.04C102.5,-59.71 102.5,-49.94 102.5,-41.54"/>
<polygon fill="midnightblue" stroke="midnightblue" points="99,-68.23 102.5,-78.23 106,-68.23 99,-68.23"/>
</g>
<!-- Node3 -->
<g id="node3" class="node">
<title>Node3</title>
<g id="a_node3"><a xlink:href="interfaceQuantConnect_1_1Algorithm_1_1Framework_1_1Risk_1_1IRiskManagementModel.html" target="_top" xlink:title="Algorithm framework model that manages an algorithm&#39;s risk/downside">
<polygon fill="white" stroke="black" points="35,-134.5 35,-153.5 170,-153.5 170,-134.5 35,-134.5"/>
<text text-anchor="middle" x="102.5" y="-141.5" font-family="Helvetica,sans-Serif" font-size="10.00">IRiskManagementModel</text>
</a>
</g>
</g>
<!-- Node3&#45;&gt;Node2 -->
<g id="edge2" class="edge">
<title>Node3&#45;&gt;Node2</title>
<path fill="none" stroke="midnightblue" d="M102.5,-123.8C102.5,-114.91 102.5,-104.78 102.5,-97.75"/>
<polygon fill="midnightblue" stroke="midnightblue" points="99,-124.08 102.5,-134.08 106,-124.08 99,-124.08"/>
</g>
<!-- Node4 -->
<g id="node4" class="node">
<title>Node4</title>
<g id="a_node4"><a xlink:href="interfaceQuantConnect_1_1Algorithm_1_1Framework_1_1INotifiedSecurityChanges.html" target="_top" xlink:title="Types implementing this interface will be called when the algorithm&#39;s set of securities changes">
<polygon fill="white" stroke="black" points="32.5,-190.5 32.5,-209.5 172.5,-209.5 172.5,-190.5 32.5,-190.5"/>
<text text-anchor="middle" x="102.5" y="-197.5" font-family="Helvetica,sans-Serif" font-size="10.00">INotifiedSecurityChanges</text>
</a>
</g>
</g>
<!-- Node4&#45;&gt;Node3 -->
<g id="edge3" class="edge">
<title>Node4&#45;&gt;Node3</title>
<path fill="none" stroke="midnightblue" d="M102.5,-179.8C102.5,-170.91 102.5,-160.78 102.5,-153.75"/>
<polygon fill="midnightblue" stroke="midnightblue" points="99,-180.08 102.5,-190.08 106,-180.08 99,-180.08"/>
</g>
</g>
</svg>
