<?xml version="1.0" encoding="UTF-8" standalone="no"?>
<!DOCTYPE svg PUBLIC "-//W3C//DTD SVG 1.1//EN"
 "http://www.w3.org/Graphics/SVG/1.1/DTD/svg11.dtd">
<!-- Generated by graphviz version 2.43.0 (0)
 -->
<!-- Title: QuantConnect.ToolBox.IQFeed.IQFeedDataQueueUniverseProvider.GetBrokerageSymbol Pages: 1 -->
<svg width="441pt" height="88pt"
 viewBox="0.00 0.00 441.00 88.00" xmlns="http://www.w3.org/2000/svg" xmlns:xlink="http://www.w3.org/1999/xlink">
<g id="graph0" class="graph" transform="scale(1 1) rotate(0) translate(4 84)">
<title>QuantConnect.ToolBox.IQFeed.IQFeedDataQueueUniverseProvider.GetBrokerageSymbol</title>
<polygon fill="white" stroke="transparent" points="-4,4 -4,-84 437,-84 437,4 -4,4"/>
<!-- Node1 -->
<g id="node1" class="node">
<title>Node1</title>
<g id="a_node1"><a xlink:title="Converts a Lean symbol instance to IQFeed ticker">
<polygon fill="#bfbfbf" stroke="black" points="242,-19 242,-60 433,-60 433,-19 242,-19"/>
<text text-anchor="start" x="250" y="-48" font-family="Helvetica,sans-Serif" font-size="10.00">QuantConnect.ToolBox.IQFeed.</text>
<text text-anchor="start" x="250" y="-37" font-family="Helvetica,sans-Serif" font-size="10.00">IQFeedDataQueueUniverseProvider.</text>
<text text-anchor="middle" x="337.5" y="-26" font-family="Helvetica,sans-Serif" font-size="10.00">GetBrokerageSymbol</text>
</a>
</g>
</g>
<!-- Node2 -->
<g id="node2" class="node">
<title>Node2</title>
<g id="a_node2"><a xlink:href="classQuantConnect_1_1ToolBox_1_1IQFeed_1_1IQFeedDataQueueHandler.html#ad35120e03997310b068d3eef45c5d390" target="_top" xlink:title="Adds the specified symbols to the subscription: new IQLevel1WatchItem(&quot;IBM&quot;, true)">
<polygon fill="white" stroke="black" points="6.5,-49.5 6.5,-79.5 199.5,-79.5 199.5,-49.5 6.5,-49.5"/>
<text text-anchor="start" x="14.5" y="-67.5" font-family="Helvetica,sans-Serif" font-size="10.00">QuantConnect.ToolBox.IQFeed.</text>
<text text-anchor="middle" x="103" y="-56.5" font-family="Helvetica,sans-Serif" font-size="10.00">IQFeedDataQueueHandler.Subscribe</text>
</a>
</g>
</g>
<!-- Node1&#45;&gt;Node2 -->
<g id="edge1" class="edge">
<title>Node1&#45;&gt;Node2</title>
<path fill="none" stroke="midnightblue" d="M231.73,-50.77C221.03,-51.92 210.21,-53.08 199.62,-54.22"/>
<polygon fill="midnightblue" stroke="midnightblue" points="232.36,-54.22 241.93,-49.67 231.62,-47.26 232.36,-54.22"/>
</g>
<!-- Node3 -->
<g id="node3" class="node">
<title>Node3</title>
<g id="a_node3"><a xlink:href="classQuantConnect_1_1ToolBox_1_1IQFeed_1_1IQFeedDataQueueHandler.html#aa937cf9529e0444fe1511201814c102e" target="_top" xlink:title="Removes the specified symbols to the subscription">
<polygon fill="white" stroke="black" points="0,-0.5 0,-30.5 206,-30.5 206,-0.5 0,-0.5"/>
<text text-anchor="start" x="8" y="-18.5" font-family="Helvetica,sans-Serif" font-size="10.00">QuantConnect.ToolBox.IQFeed.</text>
<text text-anchor="middle" x="103" y="-7.5" font-family="Helvetica,sans-Serif" font-size="10.00">IQFeedDataQueueHandler.Unsubscribe</text>
</a>
</g>
</g>
<!-- Node1&#45;&gt;Node3 -->
<g id="edge2" class="edge">
<title>Node1&#45;&gt;Node3</title>
<path fill="none" stroke="midnightblue" d="M231.9,-28.7C223.31,-27.82 214.63,-26.92 206.06,-26.04"/>
<polygon fill="midnightblue" stroke="midnightblue" points="231.63,-32.19 241.93,-29.74 232.35,-25.23 231.63,-32.19"/>
</g>
</g>
</svg>
