<?xml version="1.0" encoding="UTF-8" standalone="no"?>
<!DOCTYPE svg PUBLIC "-//W3C//DTD SVG 1.1//EN"
 "http://www.w3.org/Graphics/SVG/1.1/DTD/svg11.dtd">
<!-- Generated by graphviz version 2.43.0 (0)
 -->
<!-- Title: QuantConnect.Lean.Engine.HistoricalData.SynchronizingHistoryProvider Pages: 1 -->
<svg width="846pt" height="258pt"
 viewBox="0.00 0.00 846.00 257.50" xmlns="http://www.w3.org/2000/svg" xmlns:xlink="http://www.w3.org/1999/xlink">
<g id="graph0" class="graph" transform="scale(1 1) rotate(0) translate(4 253.5)">
<title>QuantConnect.Lean.Engine.HistoricalData.SynchronizingHistoryProvider</title>
<polygon fill="white" stroke="transparent" points="-4,4 -4,-253.5 842,-253.5 842,4 -4,4"/>
<!-- Node1 -->
<g id="node1" class="node">
<title>Node1</title>
<g id="a_node1"><a xlink:title="Provides an abstract implementation of IHistoryProvider which provides synchronization of multiple hi...">
<polygon fill="#bfbfbf" stroke="black" points="435,-93 435,-134 628,-134 628,-93 435,-93"/>
<text text-anchor="start" x="443" y="-122" font-family="Helvetica,sans-Serif" font-size="10.00">QuantConnect.Lean.Engine.</text>
<text text-anchor="start" x="443" y="-111" font-family="Helvetica,sans-Serif" font-size="10.00">HistoricalData.SynchronizingHistory</text>
<text text-anchor="middle" x="531.5" y="-100" font-family="Helvetica,sans-Serif" font-size="10.00">Provider</text>
</a>
</g>
</g>
<!-- Node5 -->
<g id="node5" class="node">
<title>Node5</title>
<g id="a_node5"><a xlink:href="classQuantConnect_1_1Lean_1_1Engine_1_1HistoricalData_1_1BrokerageHistoryProvider.html" target="_top" xlink:title="Provides an implementation of IHistoryProvider that relies on a brokerage connection to retrieve hist...">
<polygon fill="white" stroke="black" points="664,-208 664,-249 838,-249 838,-208 664,-208"/>
<text text-anchor="start" x="672" y="-237" font-family="Helvetica,sans-Serif" font-size="10.00">QuantConnect.Lean.Engine.</text>
<text text-anchor="start" x="672" y="-226" font-family="Helvetica,sans-Serif" font-size="10.00">HistoricalData.BrokerageHistory</text>
<text text-anchor="middle" x="751" y="-215" font-family="Helvetica,sans-Serif" font-size="10.00">Provider</text>
</a>
</g>
</g>
<!-- Node1&#45;&gt;Node5 -->
<g id="edge4" class="edge">
<title>Node1&#45;&gt;Node5</title>
<path fill="none" stroke="midnightblue" d="M568.38,-140.03C594.07,-158.18 629.99,-181.87 664,-198.5 670.82,-201.83 678.1,-204.97 685.44,-207.87"/>
<polygon fill="midnightblue" stroke="midnightblue" points="570.25,-137.07 560.08,-134.11 566.19,-142.77 570.25,-137.07"/>
</g>
<!-- Node6 -->
<g id="node6" class="node">
<title>Node6</title>
<g id="a_node6"><a xlink:href="classQuantConnect_1_1Lean_1_1Engine_1_1HistoricalData_1_1SubscriptionDataReaderHistoryProvider.html" target="_top" xlink:title="Provides an implementation of IHistoryProvider that uses BaseData instances to retrieve historical da...">
<polygon fill="white" stroke="black" points="664.5,-148 664.5,-189 837.5,-189 837.5,-148 664.5,-148"/>
<text text-anchor="start" x="672.5" y="-177" font-family="Helvetica,sans-Serif" font-size="10.00">QuantConnect.Lean.Engine.</text>
<text text-anchor="start" x="672.5" y="-166" font-family="Helvetica,sans-Serif" font-size="10.00">HistoricalData.SubscriptionData</text>
<text text-anchor="middle" x="751" y="-155" font-family="Helvetica,sans-Serif" font-size="10.00">ReaderHistoryProvider</text>
</a>
</g>
</g>
<!-- Node1&#45;&gt;Node6 -->
<g id="edge5" class="edge">
<title>Node1&#45;&gt;Node6</title>
<path fill="none" stroke="midnightblue" d="M623.58,-136.53C638.59,-140.33 654.06,-144.24 668.8,-147.97"/>
<polygon fill="midnightblue" stroke="midnightblue" points="624.35,-133.12 613.8,-134.06 622.64,-139.9 624.35,-133.12"/>
</g>
<!-- Node7 -->
<g id="node7" class="node">
<title>Node7</title>
<g id="a_node7"><a xlink:href="classQuantConnect_1_1ToolBox_1_1CoinApi_1_1CoinApiDataQueueHandler.html" target="_top" xlink:title="An implementation of IDataQueueHandler for CoinAPI">
<polygon fill="white" stroke="black" points="668,-98.5 668,-128.5 834,-128.5 834,-98.5 668,-98.5"/>
<text text-anchor="start" x="676" y="-116.5" font-family="Helvetica,sans-Serif" font-size="10.00">QuantConnect.ToolBox.Coin</text>
<text text-anchor="middle" x="751" y="-105.5" font-family="Helvetica,sans-Serif" font-size="10.00">Api.CoinApiDataQueueHandler</text>
</a>
</g>
</g>
<!-- Node1&#45;&gt;Node7 -->
<g id="edge6" class="edge">
<title>Node1&#45;&gt;Node7</title>
<path fill="none" stroke="midnightblue" d="M638.48,-113.5C648.35,-113.5 658.25,-113.5 667.86,-113.5"/>
<polygon fill="midnightblue" stroke="midnightblue" points="638.22,-110 628.22,-113.5 638.22,-117 638.22,-110"/>
</g>
<!-- Node8 -->
<g id="node8" class="node">
<title>Node8</title>
<g id="a_node8"><a xlink:href="classQuantConnect_1_1ToolBox_1_1IEX_1_1IEXDataQueueHandler.html" target="_top" xlink:title="IEX live data handler. See more at https://iexcloud.io/docs/api/">
<polygon fill="white" stroke="black" points="676.5,-49.5 676.5,-79.5 825.5,-79.5 825.5,-49.5 676.5,-49.5"/>
<text text-anchor="start" x="684.5" y="-67.5" font-family="Helvetica,sans-Serif" font-size="10.00">QuantConnect.ToolBox.IEX.</text>
<text text-anchor="middle" x="751" y="-56.5" font-family="Helvetica,sans-Serif" font-size="10.00">IEXDataQueueHandler</text>
</a>
</g>
</g>
<!-- Node1&#45;&gt;Node8 -->
<g id="edge7" class="edge">
<title>Node1&#45;&gt;Node8</title>
<path fill="none" stroke="midnightblue" d="M633.69,-90.7C650.56,-86.9 667.68,-83.05 683.41,-79.5"/>
<polygon fill="midnightblue" stroke="midnightblue" points="632.78,-87.32 623.79,-92.93 634.32,-94.15 632.78,-87.32"/>
</g>
<!-- Node9 -->
<g id="node9" class="node">
<title>Node9</title>
<g id="a_node9"><a xlink:href="classQuantConnect_1_1ToolBox_1_1Polygon_1_1PolygonDataQueueHandler.html" target="_top" xlink:title="An implementation of IDataQueueHandler and IHistoryProvider for Polygon.io">
<polygon fill="white" stroke="black" points="665,-0.5 665,-30.5 837,-30.5 837,-0.5 665,-0.5"/>
<text text-anchor="start" x="673" y="-18.5" font-family="Helvetica,sans-Serif" font-size="10.00">QuantConnect.ToolBox.Polygon.</text>
<text text-anchor="middle" x="751" y="-7.5" font-family="Helvetica,sans-Serif" font-size="10.00">PolygonDataQueueHandler</text>
</a>
</g>
</g>
<!-- Node1&#45;&gt;Node9 -->
<g id="edge8" class="edge">
<title>Node1&#45;&gt;Node9</title>
<path fill="none" stroke="midnightblue" d="M572.71,-87.52C598.11,-71.97 632.06,-52.72 664,-39.5 671.88,-36.24 680.34,-33.27 688.77,-30.62"/>
<polygon fill="midnightblue" stroke="midnightblue" points="570.76,-84.61 564.1,-92.85 574.45,-90.56 570.76,-84.61"/>
</g>
<!-- Node2 -->
<g id="node2" class="node">
<title>Node2</title>
<g id="a_node2"><a xlink:href="classQuantConnect_1_1Data_1_1HistoryProviderBase.html" target="_top" xlink:title="Provides a base type for all history providers">
<polygon fill="white" stroke="black" points="283,-104 283,-123 399,-123 399,-104 283,-104"/>
<text text-anchor="middle" x="341" y="-111" font-family="Helvetica,sans-Serif" font-size="10.00">HistoryProviderBase</text>
</a>
</g>
</g>
<!-- Node2&#45;&gt;Node1 -->
<g id="edge1" class="edge">
<title>Node2&#45;&gt;Node1</title>
<path fill="none" stroke="midnightblue" d="M409.13,-113.5C417.52,-113.5 426.23,-113.5 434.95,-113.5"/>
<polygon fill="midnightblue" stroke="midnightblue" points="409.07,-110 399.07,-113.5 409.07,-117 409.07,-110"/>
</g>
<!-- Node3 -->
<g id="node3" class="node">
<title>Node3</title>
<g id="a_node3"><a xlink:href="interfaceQuantConnect_1_1Interfaces_1_1IHistoryProvider.html" target="_top" xlink:title="Provides historical data to an algorithm at runtime">
<polygon fill="white" stroke="black" points="152,-104 152,-123 247,-123 247,-104 152,-104"/>
<text text-anchor="middle" x="199.5" y="-111" font-family="Helvetica,sans-Serif" font-size="10.00">IHistoryProvider</text>
</a>
</g>
</g>
<!-- Node3&#45;&gt;Node2 -->
<g id="edge2" class="edge">
<title>Node3&#45;&gt;Node2</title>
<path fill="none" stroke="midnightblue" d="M257.42,-113.5C265.82,-113.5 274.47,-113.5 282.87,-113.5"/>
<polygon fill="midnightblue" stroke="midnightblue" points="257.34,-110 247.34,-113.5 257.34,-117 257.34,-110"/>
</g>
<!-- Node4 -->
<g id="node4" class="node">
<title>Node4</title>
<g id="a_node4"><a xlink:href="interfaceQuantConnect_1_1Interfaces_1_1IDataProviderEvents.html" target="_top" xlink:title="Events related to data providers">
<polygon fill="white" stroke="black" points="0,-104 0,-123 116,-123 116,-104 0,-104"/>
<text text-anchor="middle" x="58" y="-111" font-family="Helvetica,sans-Serif" font-size="10.00">IDataProviderEvents</text>
</a>
</g>
</g>
<!-- Node4&#45;&gt;Node3 -->
<g id="edge3" class="edge">
<title>Node4&#45;&gt;Node3</title>
<path fill="none" stroke="midnightblue" d="M126.26,-113.5C134.93,-113.5 143.65,-113.5 151.88,-113.5"/>
<polygon fill="midnightblue" stroke="midnightblue" points="126.14,-110 116.14,-113.5 126.14,-117 126.14,-110"/>
</g>
</g>
</svg>
