<?xml version="1.0" encoding="UTF-8" standalone="no"?>
<!DOCTYPE svg PUBLIC "-//W3C//DTD SVG 1.1//EN"
 "http://www.w3.org/Graphics/SVG/1.1/DTD/svg11.dtd">
<!-- Generated by graphviz version 2.43.0 (0)
 -->
<!-- Title: QuantConnect.Lean.Engine.DataFeeds.BaseSubscriptionDataSourceReader.CreateStreamReader Pages: 1 -->
<svg width="411pt" height="50pt"
 viewBox="0.00 0.00 411.00 50.00" xmlns="http://www.w3.org/2000/svg" xmlns:xlink="http://www.w3.org/1999/xlink">
<g id="graph0" class="graph" transform="scale(1 1) rotate(0) translate(4 46)">
<title>QuantConnect.Lean.Engine.DataFeeds.BaseSubscriptionDataSourceReader.CreateStreamReader</title>
<polygon fill="white" stroke="transparent" points="-4,4 -4,-46 407,-46 407,4 -4,4"/>
<!-- Node1 -->
<g id="node1" class="node">
<title>Node1</title>
<g id="a_node1"><a xlink:title="Creates a new IStreamReader for the specified subscriptionDataSource">
<polygon fill="#bfbfbf" stroke="black" points="0,-0.5 0,-41.5 188,-41.5 188,-0.5 0,-0.5"/>
<text text-anchor="start" x="8" y="-29.5" font-family="Helvetica,sans-Serif" font-size="10.00">QuantConnect.Lean.Engine.</text>
<text text-anchor="start" x="8" y="-18.5" font-family="Helvetica,sans-Serif" font-size="10.00">DataFeeds.BaseSubscriptionData</text>
<text text-anchor="middle" x="94" y="-7.5" font-family="Helvetica,sans-Serif" font-size="10.00">SourceReader.CreateStreamReader</text>
</a>
</g>
</g>
<!-- Node2 -->
<g id="node2" class="node">
<title>Node2</title>
<g id="a_node2"><a xlink:href="classQuantConnect_1_1Lean_1_1Engine_1_1DataFeeds_1_1BaseSubscriptionDataSourceReader.html#a4f33151f5c236a60bcd78fa58e74503d" target="_top" xlink:title="Event invocator for the InvalidSource event">
<polygon fill="white" stroke="black" points="224,-0.5 224,-41.5 403,-41.5 403,-0.5 224,-0.5"/>
<text text-anchor="start" x="232" y="-29.5" font-family="Helvetica,sans-Serif" font-size="10.00">QuantConnect.Lean.Engine.</text>
<text text-anchor="start" x="232" y="-18.5" font-family="Helvetica,sans-Serif" font-size="10.00">DataFeeds.BaseSubscriptionData</text>
<text text-anchor="middle" x="313.5" y="-7.5" font-family="Helvetica,sans-Serif" font-size="10.00">SourceReader.OnInvalidSource</text>
</a>
</g>
</g>
<!-- Node1&#45;&gt;Node2 -->
<g id="edge1" class="edge">
<title>Node1&#45;&gt;Node2</title>
<path fill="none" stroke="midnightblue" d="M188.19,-21C196.72,-21 205.39,-21 213.97,-21"/>
<polygon fill="midnightblue" stroke="midnightblue" points="213.99,-24.5 223.99,-21 213.99,-17.5 213.99,-24.5"/>
</g>
</g>
</svg>
