<?xml version="1.0" encoding="UTF-8" standalone="no"?>
<!DOCTYPE svg PUBLIC "-//W3C//DTD SVG 1.1//EN"
 "http://www.w3.org/Graphics/SVG/1.1/DTD/svg11.dtd">
<!-- Generated by graphviz version 2.43.0 (0)
 -->
<!-- Title: QuantConnect.Data.Fundamental.NormalizedEBITDAIncomeStatement Pages: 1 -->
<svg width="204pt" height="151pt"
 viewBox="0.00 0.00 204.00 151.00" xmlns="http://www.w3.org/2000/svg" xmlns:xlink="http://www.w3.org/1999/xlink">
<g id="graph0" class="graph" transform="scale(1 1) rotate(0) translate(4 147)">
<title>QuantConnect.Data.Fundamental.NormalizedEBITDAIncomeStatement</title>
<polygon fill="white" stroke="transparent" points="-4,4 -4,-147 200,-147 200,4 -4,4"/>
<!-- Node1 -->
<g id="node1" class="node">
<title>Node1</title>
<g id="a_node1"><a xlink:title="EBITDA less Total Unusual Items">
<polygon fill="#bfbfbf" stroke="black" points="0,-0.5 0,-30.5 196,-30.5 196,-0.5 0,-0.5"/>
<text text-anchor="start" x="8" y="-18.5" font-family="Helvetica,sans-Serif" font-size="10.00">QuantConnect.Data.Fundamental.</text>
<text text-anchor="middle" x="98" y="-7.5" font-family="Helvetica,sans-Serif" font-size="10.00">NormalizedEBITDAIncomeStatement</text>
</a>
</g>
</g>
<!-- Node2 -->
<g id="node2" class="node">
<title>Node2</title>
<g id="a_node2"><a xlink:href="classQuantConnect_1_1Data_1_1Fundamental_1_1MultiPeriodField.html" target="_top" xlink:title="Abstract base class for multi&#45;period fields">
<polygon fill="white" stroke="black" points="50.5,-67.5 50.5,-86.5 145.5,-86.5 145.5,-67.5 50.5,-67.5"/>
<text text-anchor="middle" x="98" y="-74.5" font-family="Helvetica,sans-Serif" font-size="10.00">MultiPeriodField</text>
</a>
</g>
</g>
<!-- Node2&#45;&gt;Node1 -->
<g id="edge1" class="edge">
<title>Node2&#45;&gt;Node1</title>
<path fill="none" stroke="midnightblue" d="M98,-57.23C98,-48.59 98,-38.5 98,-30.52"/>
<polygon fill="midnightblue" stroke="midnightblue" points="94.5,-57.48 98,-67.48 101.5,-57.48 94.5,-57.48"/>
</g>
<!-- Node3 -->
<g id="node3" class="node">
<title>Node3</title>
<g id="a_node3"><a xlink:title=" ">
<polygon fill="white" stroke="#bfbfbf" points="39,-123.5 39,-142.5 157,-142.5 157,-123.5 39,-123.5"/>
<text text-anchor="middle" x="98" y="-130.5" font-family="Helvetica,sans-Serif" font-size="10.00">ReusuableCLRObject</text>
</a>
</g>
</g>
<!-- Node3&#45;&gt;Node2 -->
<g id="edge2" class="edge">
<title>Node3&#45;&gt;Node2</title>
<path fill="none" stroke="midnightblue" d="M98,-112.8C98,-103.91 98,-93.78 98,-86.75"/>
<polygon fill="midnightblue" stroke="midnightblue" points="94.5,-113.08 98,-123.08 101.5,-113.08 94.5,-113.08"/>
</g>
</g>
</svg>
