<?xml version="1.0" encoding="UTF-8" standalone="no"?>
<!DOCTYPE svg PUBLIC "-//W3C//DTD SVG 1.1//EN"
 "http://www.w3.org/Graphics/SVG/1.1/DTD/svg11.dtd">
<!-- Generated by graphviz version 2.43.0 (0)
 -->
<!-- Title: QuantConnect.Securities.SecurityMarginModel Pages: 1 -->
<svg width="913pt" height="186pt"
 viewBox="0.00 0.00 913.00 186.00" xmlns="http://www.w3.org/2000/svg" xmlns:xlink="http://www.w3.org/1999/xlink">
<g id="graph0" class="graph" transform="scale(1 1) rotate(0) translate(4 182)">
<title>QuantConnect.Securities.SecurityMarginModel</title>
<polygon fill="white" stroke="transparent" points="-4,4 -4,-182 909,-182 909,4 -4,4"/>
<!-- Node1 -->
<g id="node1" class="node">
<title>Node1</title>
<g id="a_node1"><a xlink:title="Represents a simple, constant margin model by specifying the percentages of required margin.">
<polygon fill="#bfbfbf" stroke="black" points="295,-73.5 295,-103.5 435,-103.5 435,-73.5 295,-73.5"/>
<text text-anchor="start" x="303" y="-91.5" font-family="Helvetica,sans-Serif" font-size="10.00">QuantConnect.Securities.</text>
<text text-anchor="middle" x="365" y="-80.5" font-family="Helvetica,sans-Serif" font-size="10.00">SecurityMarginModel</text>
</a>
</g>
</g>
<!-- Node4 -->
<g id="node4" class="node">
<title>Node4</title>
<g id="a_node4"><a xlink:href="classQuantConnect_1_1Securities_1_1CryptoFuture_1_1CryptoFutureMarginModel.html" target="_top" xlink:title="The crypto future margin model which supports both Coin and USDT futures">
<polygon fill="white" stroke="black" points="471,-147.5 471,-177.5 680,-177.5 680,-147.5 471,-147.5"/>
<text text-anchor="start" x="479" y="-165.5" font-family="Helvetica,sans-Serif" font-size="10.00">QuantConnect.Securities.</text>
<text text-anchor="middle" x="575.5" y="-154.5" font-family="Helvetica,sans-Serif" font-size="10.00">CryptoFuture.CryptoFutureMarginModel</text>
</a>
</g>
</g>
<!-- Node1&#45;&gt;Node4 -->
<g id="edge3" class="edge">
<title>Node1&#45;&gt;Node4</title>
<path fill="none" stroke="midnightblue" d="M403.28,-108.12C423.02,-117.93 447.89,-129.41 471,-137.5 481.56,-141.2 492.9,-144.54 504.08,-147.5"/>
<polygon fill="midnightblue" stroke="midnightblue" points="404.83,-104.98 394.32,-103.61 401.68,-111.23 404.83,-104.98"/>
</g>
<!-- Node5 -->
<g id="node5" class="node">
<title>Node5</title>
<g id="a_node5"><a xlink:href="classQuantConnect_1_1Securities_1_1Future_1_1FutureMarginModel.html" target="_top" xlink:title="Represents a simple margin model for margin futures. Margin file contains Initial and Maintenance mar...">
<polygon fill="white" stroke="black" points="503,-98.5 503,-128.5 648,-128.5 648,-98.5 503,-98.5"/>
<text text-anchor="start" x="511" y="-116.5" font-family="Helvetica,sans-Serif" font-size="10.00">QuantConnect.Securities.</text>
<text text-anchor="middle" x="575.5" y="-105.5" font-family="Helvetica,sans-Serif" font-size="10.00">Future.FutureMarginModel</text>
</a>
</g>
</g>
<!-- Node1&#45;&gt;Node5 -->
<g id="edge4" class="edge">
<title>Node1&#45;&gt;Node5</title>
<path fill="none" stroke="midnightblue" d="M445.2,-98C464.09,-100.26 484.15,-102.67 502.69,-104.89"/>
<polygon fill="midnightblue" stroke="midnightblue" points="445.48,-94.51 435.14,-96.79 444.65,-101.46 445.48,-94.51"/>
</g>
<!-- Node7 -->
<g id="node7" class="node">
<title>Node7</title>
<g id="a_node7"><a xlink:href="classQuantConnect_1_1Securities_1_1Option_1_1OptionMarginModel.html" target="_top" xlink:title="Represents a simple option margin model.">
<polygon fill="white" stroke="black" points="501.5,-49.5 501.5,-79.5 649.5,-79.5 649.5,-49.5 501.5,-49.5"/>
<text text-anchor="start" x="509.5" y="-67.5" font-family="Helvetica,sans-Serif" font-size="10.00">QuantConnect.Securities.</text>
<text text-anchor="middle" x="575.5" y="-56.5" font-family="Helvetica,sans-Serif" font-size="10.00">Option.OptionMarginModel</text>
</a>
</g>
</g>
<!-- Node1&#45;&gt;Node7 -->
<g id="edge6" class="edge">
<title>Node1&#45;&gt;Node7</title>
<path fill="none" stroke="midnightblue" d="M445.23,-79.38C463.63,-77.26 483.13,-75.02 501.26,-72.93"/>
<polygon fill="midnightblue" stroke="midnightblue" points="444.67,-75.92 435.14,-80.54 445.47,-82.88 444.67,-75.92"/>
</g>
<!-- Node8 -->
<g id="node8" class="node">
<title>Node8</title>
<g id="a_node8"><a xlink:href="classQuantConnect_1_1Securities_1_1PatternDayTradingMarginModel.html" target="_top" xlink:title="Represents a simple margining model where margin/leverage depends on market state (open or close)....">
<polygon fill="white" stroke="black" points="490.5,-0.5 490.5,-30.5 660.5,-30.5 660.5,-0.5 490.5,-0.5"/>
<text text-anchor="start" x="498.5" y="-18.5" font-family="Helvetica,sans-Serif" font-size="10.00">QuantConnect.Securities.</text>
<text text-anchor="middle" x="575.5" y="-7.5" font-family="Helvetica,sans-Serif" font-size="10.00">PatternDayTradingMarginModel</text>
</a>
</g>
</g>
<!-- Node1&#45;&gt;Node8 -->
<g id="edge7" class="edge">
<title>Node1&#45;&gt;Node8</title>
<path fill="none" stroke="midnightblue" d="M403.25,-68.79C422.98,-58.96 447.85,-47.49 471,-39.5 480.59,-36.19 490.84,-33.2 501.02,-30.53"/>
<polygon fill="midnightblue" stroke="midnightblue" points="401.64,-65.68 394.3,-73.32 404.8,-71.93 401.64,-65.68"/>
</g>
<!-- Node2 -->
<g id="node2" class="node">
<title>Node2</title>
<g id="a_node2"><a xlink:href="classQuantConnect_1_1Securities_1_1BuyingPowerModel.html" target="_top" xlink:title="Provides a base class for all buying power models">
<polygon fill="white" stroke="black" points="149,-79 149,-98 259,-98 259,-79 149,-79"/>
<text text-anchor="middle" x="204" y="-86" font-family="Helvetica,sans-Serif" font-size="10.00">BuyingPowerModel</text>
</a>
</g>
</g>
<!-- Node2&#45;&gt;Node1 -->
<g id="edge1" class="edge">
<title>Node2&#45;&gt;Node1</title>
<path fill="none" stroke="midnightblue" d="M269.35,-88.5C277.73,-88.5 286.34,-88.5 294.79,-88.5"/>
<polygon fill="midnightblue" stroke="midnightblue" points="269.27,-85 259.27,-88.5 269.27,-92 269.27,-85"/>
</g>
<!-- Node3 -->
<g id="node3" class="node">
<title>Node3</title>
<g id="a_node3"><a xlink:href="interfaceQuantConnect_1_1Securities_1_1IBuyingPowerModel.html" target="_top" xlink:title="Represents a security&#39;s model of buying power">
<polygon fill="white" stroke="black" points="0,-79 0,-98 113,-98 113,-79 0,-79"/>
<text text-anchor="middle" x="56.5" y="-86" font-family="Helvetica,sans-Serif" font-size="10.00">IBuyingPowerModel</text>
</a>
</g>
</g>
<!-- Node3&#45;&gt;Node2 -->
<g id="edge2" class="edge">
<title>Node3&#45;&gt;Node2</title>
<path fill="none" stroke="midnightblue" d="M123.61,-88.5C132.1,-88.5 140.72,-88.5 148.99,-88.5"/>
<polygon fill="midnightblue" stroke="midnightblue" points="123.34,-85 113.34,-88.5 123.34,-92 123.34,-85"/>
</g>
<!-- Node6 -->
<g id="node6" class="node">
<title>Node6</title>
<g id="a_node6"><a xlink:href="classQuantConnect_1_1Securities_1_1Option_1_1FuturesOptionsMarginModel.html" target="_top" xlink:title="Defines a margin model for future options (an option with a future as its underlying)....">
<polygon fill="white" stroke="black" points="716,-98.5 716,-128.5 905,-128.5 905,-98.5 716,-98.5"/>
<text text-anchor="start" x="724" y="-116.5" font-family="Helvetica,sans-Serif" font-size="10.00">QuantConnect.Securities.</text>
<text text-anchor="middle" x="810.5" y="-105.5" font-family="Helvetica,sans-Serif" font-size="10.00">Option.FuturesOptionsMarginModel</text>
</a>
</g>
</g>
<!-- Node5&#45;&gt;Node6 -->
<g id="edge5" class="edge">
<title>Node5&#45;&gt;Node6</title>
<path fill="none" stroke="midnightblue" d="M658.43,-113.5C676.92,-113.5 696.68,-113.5 715.61,-113.5"/>
<polygon fill="midnightblue" stroke="midnightblue" points="658.31,-110 648.31,-113.5 658.31,-117 658.31,-110"/>
</g>
</g>
</svg>
