<?xml version="1.0" encoding="UTF-8" standalone="no"?>
<!DOCTYPE svg PUBLIC "-//W3C//DTD SVG 1.1//EN"
 "http://www.w3.org/Graphics/SVG/1.1/DTD/svg11.dtd">
<!-- Generated by graphviz version 2.43.0 (0)
 -->
<!-- Title: QuantConnect.Securities.Option.StrategyMatcher.OptionStrategyDefinition.CallLeg Pages: 1 -->
<!--zoomable 146 -->
<svg id="main" version="1.1" xmlns="http://www.w3.org/2000/svg" xmlns:xlink="http://www.w3.org/1999/xlink" xml:space="preserve" onload="init(evt)">
<style type="text/css"><![CDATA[
.edge:hover path { stroke: red; }
.edge:hover polygon { stroke: red; fill: red; }
]]></style>
<script type="text/javascript"><![CDATA[
var edges = document.getElementsByTagName('g');
if (edges && edges.length) {
  for (var i=0;i<edges.length;i++) {
    if (edges[i].id.substr(0,4)=='edge') {
      edges[i].setAttribute('class','edge');
    }
  }
}
]]></script>
        <defs>
                <circle id="rim" cx="0" cy="0" r="7"/>
                <circle id="rim2" cx="0" cy="0" r="3.5"/>
                <g id="zoomPlus">
                        <use xlink:href="#rim" fill="#404040">
                                <set attributeName="fill" to="#808080" begin="zoomplus.mouseover" end="zoomplus.mouseout"/>
                        </use>
                        <path d="M-4,0h8M0,-4v8" fill="none" stroke="white" stroke-width="1.5" pointer-events="none"/>
                </g>
                <g id="zoomMin">
                        <use xlink:href="#rim" fill="#404040">
                                <set attributeName="fill" to="#808080" begin="zoomminus.mouseover" end="zoomminus.mouseout"/>
                        </use>
                        <path d="M-4,0h8" fill="none" stroke="white" stroke-width="1.5" pointer-events="none"/>
                </g>
                <g id="dirArrow">
                        <path fill="none" stroke="white" stroke-width="1.5" d="M0,-3.0v7 M-2.5,-0.5L0,-3.0L2.5,-0.5"/>
                </g>
               <g id="resetDef">
                       <use xlink:href="#rim2" fill="#404040">
                               <set attributeName="fill" to="#808080" begin="reset.mouseover" end="reset.mouseout"/>
                       </use>
               </g>
        </defs>

<script type="text/javascript">
var viewWidth = 846;
var viewHeight = 146;
var sectionId = 'dynsection-8';
</script>
<script xlink:href="svgpan.js"/>
<svg id="graph" class="graph">
<g id="viewport">
<title>QuantConnect.Securities.Option.StrategyMatcher.OptionStrategyDefinition.CallLeg</title>
<polygon fill="white" stroke="transparent" points="-4,4 -4,-142 842,-142 842,4 -4,4"/>
<!-- Node1 -->
<g id="node1" class="node">
<title>Node1</title>
<g id="a_node1"><a xlink:title="Factory function for creating a call leg definition">
<polygon fill="#bfbfbf" stroke="black" points="0,-39 0,-80 167,-80 167,-39 0,-39"/>
<text text-anchor="start" x="8" y="-68" font-family="Helvetica,sans-Serif" font-size="10.00">QuantConnect.Securities.</text>
<text text-anchor="start" x="8" y="-57" font-family="Helvetica,sans-Serif" font-size="10.00">Option.StrategyMatcher.Option</text>
<text text-anchor="middle" x="83.5" y="-46" font-family="Helvetica,sans-Serif" font-size="10.00">StrategyDefinition.CallLeg</text>
</a>
</g>
</g>
<!-- Node2 -->
<g id="node2" class="node">
<title>Node2</title>
<g id="a_node2"><a xlink:href="classQuantConnect_1_1Securities_1_1Option_1_1StrategyMatcher_1_1OptionStrategyLegDefinition.html#a3ca73dcf45522a73a594f8a11147ae4d" target="_top" xlink:title="Creates a new OptionStrategyLegDefinition matching the specified parameters">
<polygon fill="white" stroke="black" points="203,-39 203,-80 370,-80 370,-39 203,-39"/>
<text text-anchor="start" x="211" y="-68" font-family="Helvetica,sans-Serif" font-size="10.00">QuantConnect.Securities.</text>
<text text-anchor="start" x="211" y="-57" font-family="Helvetica,sans-Serif" font-size="10.00">Option.StrategyMatcher.Option</text>
<text text-anchor="middle" x="286.5" y="-46" font-family="Helvetica,sans-Serif" font-size="10.00">StrategyLegDefinition.Create</text>
</a>
</g>
</g>
<!-- Node1&#45;&gt;Node2 -->
<g id="edge1" class="edge">
<title>Node1&#45;&gt;Node2</title>
<path fill="none" stroke="midnightblue" d="M167.12,-59.5C175.61,-59.5 184.27,-59.5 192.85,-59.5"/>
<polygon fill="midnightblue" stroke="midnightblue" points="192.87,-63 202.87,-59.5 192.87,-56 192.87,-63"/>
</g>
<!-- Node3 -->
<g id="node3" class="node">
<title>Node3</title>
<g id="a_node3"><a xlink:href="classQuantConnect_1_1Securities_1_1Option_1_1StrategyMatcher_1_1OptionStrategyLegPredicate.html#ad10b25d576496ec63f9a64c65d009cf3" target="_top" xlink:title="Creates a new OptionStrategyLegPredicate from the specified predicate expression">
<polygon fill="white" stroke="black" points="422,-72 422,-113 589,-113 589,-72 422,-72"/>
<text text-anchor="start" x="430" y="-101" font-family="Helvetica,sans-Serif" font-size="10.00">QuantConnect.Securities.</text>
<text text-anchor="start" x="430" y="-90" font-family="Helvetica,sans-Serif" font-size="10.00">Option.StrategyMatcher.Option</text>
<text text-anchor="middle" x="505.5" y="-79" font-family="Helvetica,sans-Serif" font-size="10.00">StrategyLegPredicate.Create</text>
</a>
</g>
</g>
<!-- Node2&#45;&gt;Node3 -->
<g id="edge2" class="edge">
<title>Node2&#45;&gt;Node3</title>
<path fill="none" stroke="midnightblue" d="M370.16,-72.07C383.75,-74.14 397.91,-76.29 411.73,-78.39"/>
<polygon fill="midnightblue" stroke="midnightblue" points="411.3,-81.87 421.71,-79.91 412.35,-74.95 411.3,-81.87"/>
</g>
<!-- Node6 -->
<g id="node6" class="node">
<title>Node6</title>
<g id="a_node6"><a xlink:href="classQuantConnect_1_1Securities_1_1Option_1_1StrategyMatcher_1_1OptionStrategyLegDefinition.html#a75a691dfce74e897c5eff5ca4787fcf3" target="_top" xlink:title="Initializes a new instance of the OptionStrategyLegDefinition class">
<polygon fill="white" stroke="black" points="406,-0.5 406,-52.5 605,-52.5 605,-0.5 406,-0.5"/>
<text text-anchor="start" x="414" y="-40.5" font-family="Helvetica,sans-Serif" font-size="10.00">QuantConnect.Securities.</text>
<text text-anchor="start" x="414" y="-29.5" font-family="Helvetica,sans-Serif" font-size="10.00">Option.StrategyMatcher.Option</text>
<text text-anchor="start" x="414" y="-18.5" font-family="Helvetica,sans-Serif" font-size="10.00">StrategyLegDefinition.OptionStrategy</text>
<text text-anchor="middle" x="505.5" y="-7.5" font-family="Helvetica,sans-Serif" font-size="10.00">LegDefinition</text>
</a>
</g>
</g>
<!-- Node2&#45;&gt;Node6 -->
<g id="edge5" class="edge">
<title>Node2&#45;&gt;Node6</title>
<path fill="none" stroke="midnightblue" d="M370.16,-46.93C378.51,-45.66 387.08,-44.36 395.65,-43.05"/>
<polygon fill="midnightblue" stroke="midnightblue" points="396.33,-46.49 405.69,-41.53 395.28,-39.57 396.33,-46.49"/>
</g>
<!-- Node4 -->
<g id="node4" class="node">
<title>Node4</title>
<g id="a_node4"><a xlink:href="classQuantConnect_1_1BinaryComparison.html#a0daf387efb5f3ae2b20580117c67c0f8" target="_top" xlink:title="Gets the BinaryComparison matching the provided type">
<polygon fill="white" stroke="black" points="648.5,-107.5 648.5,-137.5 830.5,-137.5 830.5,-107.5 648.5,-107.5"/>
<text text-anchor="start" x="656.5" y="-125.5" font-family="Helvetica,sans-Serif" font-size="10.00">QuantConnect.BinaryComparison.</text>
<text text-anchor="middle" x="739.5" y="-114.5" font-family="Helvetica,sans-Serif" font-size="10.00">FromExpressionType</text>
</a>
</g>
</g>
<!-- Node3&#45;&gt;Node4 -->
<g id="edge3" class="edge">
<title>Node3&#45;&gt;Node4</title>
<path fill="none" stroke="midnightblue" d="M589.27,-103.2C605.12,-105.25 621.86,-107.42 638.18,-109.53"/>
<polygon fill="midnightblue" stroke="midnightblue" points="637.91,-113.02 648.28,-110.83 638.81,-106.08 637.91,-113.02"/>
</g>
<!-- Node5 -->
<g id="node5" class="node">
<title>Node5</title>
<g id="a_node5"><a xlink:href="classQuantConnect_1_1Securities_1_1Option_1_1StrategyMatcher_1_1OptionStrategyLegPredicate.html#aa2ba9e3367103d2a8c0b1cee3e7cd67e" target="_top" xlink:title="Initializes a new instance of the OptionStrategyLegPredicate class">
<polygon fill="white" stroke="black" points="641,-36.5 641,-88.5 838,-88.5 838,-36.5 641,-36.5"/>
<text text-anchor="start" x="649" y="-76.5" font-family="Helvetica,sans-Serif" font-size="10.00">QuantConnect.Securities.</text>
<text text-anchor="start" x="649" y="-65.5" font-family="Helvetica,sans-Serif" font-size="10.00">Option.StrategyMatcher.Option</text>
<text text-anchor="start" x="649" y="-54.5" font-family="Helvetica,sans-Serif" font-size="10.00">StrategyLegPredicate.OptionStrategy</text>
<text text-anchor="middle" x="739.5" y="-43.5" font-family="Helvetica,sans-Serif" font-size="10.00">LegPredicate</text>
</a>
</g>
</g>
<!-- Node3&#45;&gt;Node5 -->
<g id="edge4" class="edge">
<title>Node3&#45;&gt;Node5</title>
<path fill="none" stroke="midnightblue" d="M589.27,-81.8C602.68,-80.06 616.73,-78.25 630.62,-76.45"/>
<polygon fill="midnightblue" stroke="midnightblue" points="631.23,-79.9 640.7,-75.15 630.33,-72.96 631.23,-79.9"/>
</g>
</g>
</svg>
        <g id="navigator" transform="translate(0 0)" fill="#404254">
                <rect fill="#f2f5e9" fill-opacity="0.5" stroke="#606060" stroke-width=".5" x="0" y="0" width="60" height="60"/>
                <use id="zoomplus" xlink:href="#zoomPlus" x="17" y="9" onmousedown="handleZoom(evt,'in')"/>
                <use id="zoomminus" xlink:href="#zoomMin" x="42" y="9" onmousedown="handleZoom(evt,'out')"/>
                <use id="reset" xlink:href="#resetDef" x="30" y="36" onmousedown="handleReset()"/>
                <g id="arrowUp" xlink:href="#dirArrow" transform="translate(30 24)" onmousedown="handlePan(0,-1)">
                  <use xlink:href="#rim" fill="#404040">
                        <set attributeName="fill" to="#808080" begin="arrowUp.mouseover" end="arrowUp.mouseout"/>
                  </use>
                  <path fill="none" stroke="white" stroke-width="1.5" d="M0,-3.0v7 M-2.5,-0.5L0,-3.0L2.5,-0.5"/>
                </g>
                <g id="arrowRight" xlink:href="#dirArrow" transform="rotate(90) translate(36 -43)" onmousedown="handlePan(1,0)">
                  <use xlink:href="#rim" fill="#404040">
                        <set attributeName="fill" to="#808080" begin="arrowRight.mouseover" end="arrowRight.mouseout"/>
                  </use>
                  <path fill="none" stroke="white" stroke-width="1.5" d="M0,-3.0v7 M-2.5,-0.5L0,-3.0L2.5,-0.5"/>
                </g>
                <g id="arrowDown" xlink:href="#dirArrow" transform="rotate(180) translate(-30 -48)" onmousedown="handlePan(0,1)">
                  <use xlink:href="#rim" fill="#404040">
                        <set attributeName="fill" to="#808080" begin="arrowDown.mouseover" end="arrowDown.mouseout"/>
                  </use>
                  <path fill="none" stroke="white" stroke-width="1.5" d="M0,-3.0v7 M-2.5,-0.5L0,-3.0L2.5,-0.5"/>
                </g>
                <g id="arrowLeft" xlink:href="#dirArrow" transform="rotate(270) translate(-36 17)" onmousedown="handlePan(-1,0)">
                  <use xlink:href="#rim" fill="#404040">
                        <set attributeName="fill" to="#808080" begin="arrowLeft.mouseover" end="arrowLeft.mouseout"/>
                  </use>
                  <path fill="none" stroke="white" stroke-width="1.5" d="M0,-3.0v7 M-2.5,-0.5L0,-3.0L2.5,-0.5"/>
                </g>
        </g>
        <svg viewBox="0 0 15 15" width="100%" height="30px" preserveAspectRatio="xMaxYMin meet">
         <g id="arrow_out" transform="scale(0.3 0.3)">
          <a xlink:href="classQuantConnect_1_1Securities_1_1Option_1_1StrategyMatcher_1_1OptionStrategyDefinition_a78a025add903caf1761edd70cad1c492_cgraph_org.svg" target="_base">
           <rect id="button" ry="5" rx="5" y="6" x="6" height="38" width="38"
                fill="#f2f5e9" fill-opacity="0.5" stroke="#606060" stroke-width="1.0"/>
           <path id="arrow"
             d="M 11.500037,31.436501 C 11.940474,20.09759 22.043105,11.32322 32.158766,21.979434 L 37.068811,17.246167 C 37.068811,17.246167 37.088388,32 37.088388,32 L 22.160133,31.978069 C 22.160133,31.978069 26.997745,27.140456 26.997745,27.140456 C 18.528582,18.264221 13.291696,25.230495 11.500037,31.436501 z"
             style="fill:#404040;"/>
          </a>
         </g>
        </svg>
</svg>
