<?xml version="1.0" encoding="UTF-8" standalone="no"?>
<!DOCTYPE svg PUBLIC "-//W3C//DTD SVG 1.1//EN"
 "http://www.w3.org/Graphics/SVG/1.1/DTD/svg11.dtd">
<!-- Generated by graphviz version 2.43.0 (0)
 -->
<!-- Title: QuantConnect.Algorithm.Framework.Selection.CustomUniverseSelectionModel Pages: 1 -->
<!--zoomable 333 -->
<svg id="main" version="1.1" xmlns="http://www.w3.org/2000/svg" xmlns:xlink="http://www.w3.org/1999/xlink" xml:space="preserve" onload="init(evt)">
<style type="text/css"><![CDATA[
.edge:hover path { stroke: red; }
.edge:hover polygon { stroke: red; fill: red; }
]]></style>
<script type="text/javascript"><![CDATA[
var edges = document.getElementsByTagName('g');
if (edges && edges.length) {
  for (var i=0;i<edges.length;i++) {
    if (edges[i].id.substr(0,4)=='edge') {
      edges[i].setAttribute('class','edge');
    }
  }
}
]]></script>
        <defs>
                <circle id="rim" cx="0" cy="0" r="7"/>
                <circle id="rim2" cx="0" cy="0" r="3.5"/>
                <g id="zoomPlus">
                        <use xlink:href="#rim" fill="#404040">
                                <set attributeName="fill" to="#808080" begin="zoomplus.mouseover" end="zoomplus.mouseout"/>
                        </use>
                        <path d="M-4,0h8M0,-4v8" fill="none" stroke="white" stroke-width="1.5" pointer-events="none"/>
                </g>
                <g id="zoomMin">
                        <use xlink:href="#rim" fill="#404040">
                                <set attributeName="fill" to="#808080" begin="zoomminus.mouseover" end="zoomminus.mouseout"/>
                        </use>
                        <path d="M-4,0h8" fill="none" stroke="white" stroke-width="1.5" pointer-events="none"/>
                </g>
                <g id="dirArrow">
                        <path fill="none" stroke="white" stroke-width="1.5" d="M0,-3.0v7 M-2.5,-0.5L0,-3.0L2.5,-0.5"/>
                </g>
               <g id="resetDef">
                       <use xlink:href="#rim2" fill="#404040">
                               <set attributeName="fill" to="#808080" begin="reset.mouseover" end="reset.mouseout"/>
                       </use>
               </g>
        </defs>

<script type="text/javascript">
var viewWidth = 1094;
var viewHeight = 333;
var sectionId = 'dynsection-0';
</script>
<script xlink:href="svgpan.js"/>
<svg id="graph" class="graph">
<g id="viewport">
<title>QuantConnect.Algorithm.Framework.Selection.CustomUniverseSelectionModel</title>
<polygon fill="white" stroke="transparent" points="-4,4 -4,-329 1090,-329 1090,4 -4,4"/>
<!-- Node1 -->
<g id="node1" class="node">
<title>Node1</title>
<g id="a_node1"><a xlink:title="Provides an implementation of IUniverseSelectionModel that simply subscribes to the specified set of ...">
<polygon fill="#bfbfbf" stroke="black" points="345,-147.5 345,-177.5 566,-177.5 566,-147.5 345,-147.5"/>
<text text-anchor="start" x="353" y="-165.5" font-family="Helvetica,sans-Serif" font-size="10.00">QuantConnect.Algorithm.Framework.</text>
<text text-anchor="middle" x="455.5" y="-154.5" font-family="Helvetica,sans-Serif" font-size="10.00">Selection.CustomUniverseSelectionModel</text>
</a>
</g>
</g>
<!-- Node4 -->
<g id="node4" class="node">
<title>Node4</title>
<g id="a_node4"><a xlink:href="classQuantConnect_1_1Algorithm_1_1Framework_1_1Selection_1_1InceptionDateUniverseSelectionModel.html" target="_top" xlink:title="Inception Date Universe that accepts a Dictionary of DateTime keyed by String that represent the Ince...">
<polygon fill="white" stroke="black" points="602,-147.5 602,-177.5 853,-177.5 853,-147.5 602,-147.5"/>
<text text-anchor="start" x="610" y="-165.5" font-family="Helvetica,sans-Serif" font-size="10.00">QuantConnect.Algorithm.Framework.</text>
<text text-anchor="middle" x="727.5" y="-154.5" font-family="Helvetica,sans-Serif" font-size="10.00">Selection.InceptionDateUniverseSelectionModel</text>
</a>
</g>
</g>
<!-- Node1&#45;&gt;Node4 -->
<g id="edge3" class="edge">
<title>Node1&#45;&gt;Node4</title>
<path fill="none" stroke="midnightblue" d="M576.5,-162.5C584.89,-162.5 593.36,-162.5 601.77,-162.5"/>
<polygon fill="midnightblue" stroke="midnightblue" points="576.32,-159 566.32,-162.5 576.32,-166 576.32,-159"/>
</g>
<!-- Node2 -->
<g id="node2" class="node">
<title>Node2</title>
<g id="a_node2"><a xlink:href="classQuantConnect_1_1Algorithm_1_1Framework_1_1Selection_1_1UniverseSelectionModel.html" target="_top" xlink:title="Provides a base class for universe selection models.">
<polygon fill="white" stroke="black" points="174,-153 174,-172 309,-172 309,-153 174,-153"/>
<text text-anchor="middle" x="241.5" y="-160" font-family="Helvetica,sans-Serif" font-size="10.00">UniverseSelectionModel</text>
</a>
</g>
</g>
<!-- Node2&#45;&gt;Node1 -->
<g id="edge1" class="edge">
<title>Node2&#45;&gt;Node1</title>
<path fill="none" stroke="midnightblue" d="M319.34,-162.5C327.7,-162.5 336.33,-162.5 344.99,-162.5"/>
<polygon fill="midnightblue" stroke="midnightblue" points="319.29,-159 309.29,-162.5 319.29,-166 319.29,-159"/>
</g>
<!-- Node3 -->
<g id="node3" class="node">
<title>Node3</title>
<g id="a_node3"><a xlink:href="interfaceQuantConnect_1_1Algorithm_1_1Framework_1_1Selection_1_1IUniverseSelectionModel.html" target="_top" xlink:title="Algorithm framework model that defines the universes to be used by an algorithm">
<polygon fill="white" stroke="black" points="0,-153 0,-172 138,-172 138,-153 0,-153"/>
<text text-anchor="middle" x="69" y="-160" font-family="Helvetica,sans-Serif" font-size="10.00">IUniverseSelectionModel</text>
</a>
</g>
</g>
<!-- Node3&#45;&gt;Node2 -->
<g id="edge2" class="edge">
<title>Node3&#45;&gt;Node2</title>
<path fill="none" stroke="midnightblue" d="M148.58,-162.5C157,-162.5 165.51,-162.5 173.78,-162.5"/>
<polygon fill="midnightblue" stroke="midnightblue" points="148.37,-159 138.37,-162.5 148.37,-166 148.37,-159"/>
</g>
<!-- Node5 -->
<g id="node5" class="node">
<title>Node5</title>
<g id="a_node5"><a xlink:href="classQuantConnect_1_1Algorithm_1_1Framework_1_1Selection_1_1EnergyETFUniverse.html" target="_top" xlink:title="Universe Selection Model that adds the following Energy ETFs at their inception date 1998&#45;12&#45;22 XLE E...">
<polygon fill="white" stroke="black" points="889,-294.5 889,-324.5 1086,-324.5 1086,-294.5 889,-294.5"/>
<text text-anchor="start" x="897" y="-312.5" font-family="Helvetica,sans-Serif" font-size="10.00">QuantConnect.Algorithm.Framework.</text>
<text text-anchor="middle" x="987.5" y="-301.5" font-family="Helvetica,sans-Serif" font-size="10.00">Selection.EnergyETFUniverse</text>
</a>
</g>
</g>
<!-- Node4&#45;&gt;Node5 -->
<g id="edge4" class="edge">
<title>Node4&#45;&gt;Node5</title>
<path fill="none" stroke="midnightblue" d="M751.12,-184.82C780.46,-212.51 834.38,-259.28 889,-285.5 896.15,-288.93 903.84,-291.9 911.65,-294.47"/>
<polygon fill="midnightblue" stroke="midnightblue" points="753.51,-182.26 743.86,-177.88 748.67,-187.32 753.51,-182.26"/>
</g>
<!-- Node6 -->
<g id="node6" class="node">
<title>Node6</title>
<g id="a_node6"><a xlink:href="classQuantConnect_1_1Algorithm_1_1Framework_1_1Selection_1_1LiquidETFUniverse.html" target="_top" xlink:title="Universe Selection Model that adds the following ETFs at their inception date">
<polygon fill="white" stroke="black" points="889,-245.5 889,-275.5 1086,-275.5 1086,-245.5 889,-245.5"/>
<text text-anchor="start" x="897" y="-263.5" font-family="Helvetica,sans-Serif" font-size="10.00">QuantConnect.Algorithm.Framework.</text>
<text text-anchor="middle" x="987.5" y="-252.5" font-family="Helvetica,sans-Serif" font-size="10.00">Selection.LiquidETFUniverse</text>
</a>
</g>
</g>
<!-- Node4&#45;&gt;Node6 -->
<g id="edge5" class="edge">
<title>Node4&#45;&gt;Node6</title>
<path fill="none" stroke="midnightblue" d="M765.81,-182.18C797.81,-198.45 845.51,-221.28 889,-236.5 898.38,-239.78 908.41,-242.79 918.35,-245.49"/>
<polygon fill="midnightblue" stroke="midnightblue" points="767.3,-179.01 756.81,-177.56 764.11,-185.24 767.3,-179.01"/>
</g>
<!-- Node7 -->
<g id="node7" class="node">
<title>Node7</title>
<g id="a_node7"><a xlink:href="classQuantConnect_1_1Algorithm_1_1Framework_1_1Selection_1_1MetalsETFUniverse.html" target="_top" xlink:title="Universe Selection Model that adds the following Metals ETFs at their inception date 2004&#45;11&#45;18 GLD S...">
<polygon fill="white" stroke="black" points="889,-196.5 889,-226.5 1086,-226.5 1086,-196.5 889,-196.5"/>
<text text-anchor="start" x="897" y="-214.5" font-family="Helvetica,sans-Serif" font-size="10.00">QuantConnect.Algorithm.Framework.</text>
<text text-anchor="middle" x="987.5" y="-203.5" font-family="Helvetica,sans-Serif" font-size="10.00">Selection.MetalsETFUniverse</text>
</a>
</g>
</g>
<!-- Node4&#45;&gt;Node7 -->
<g id="edge6" class="edge">
<title>Node4&#45;&gt;Node7</title>
<path fill="none" stroke="midnightblue" d="M817.84,-179.47C847,-185 879.15,-191.11 907.49,-196.49"/>
<polygon fill="midnightblue" stroke="midnightblue" points="818.14,-175.96 807.66,-177.53 816.83,-182.84 818.14,-175.96"/>
</g>
<!-- Node8 -->
<g id="node8" class="node">
<title>Node8</title>
<g id="a_node8"><a xlink:href="classQuantConnect_1_1Algorithm_1_1Framework_1_1Selection_1_1SP500SectorsETFUniverse.html" target="_top" xlink:title="Universe Selection Model that adds the following SP500 Sectors ETFs at their inception date 1998&#45;12&#45;2...">
<polygon fill="white" stroke="black" points="889,-147.5 889,-177.5 1086,-177.5 1086,-147.5 889,-147.5"/>
<text text-anchor="start" x="897" y="-165.5" font-family="Helvetica,sans-Serif" font-size="10.00">QuantConnect.Algorithm.Framework.</text>
<text text-anchor="middle" x="987.5" y="-154.5" font-family="Helvetica,sans-Serif" font-size="10.00">Selection.SP500SectorsETFUniverse</text>
</a>
</g>
</g>
<!-- Node4&#45;&gt;Node8 -->
<g id="edge7" class="edge">
<title>Node4&#45;&gt;Node8</title>
<path fill="none" stroke="midnightblue" d="M863.44,-162.5C872.03,-162.5 880.59,-162.5 888.96,-162.5"/>
<polygon fill="midnightblue" stroke="midnightblue" points="863.34,-159 853.34,-162.5 863.34,-166 863.34,-159"/>
</g>
<!-- Node9 -->
<g id="node9" class="node">
<title>Node9</title>
<g id="a_node9"><a xlink:href="classQuantConnect_1_1Algorithm_1_1Framework_1_1Selection_1_1TechnologyETFUniverse.html" target="_top" xlink:title="Universe Selection Model that adds the following Technology ETFs at their inception date 1998&#45;12&#45;22 X...">
<polygon fill="white" stroke="black" points="889,-98.5 889,-128.5 1086,-128.5 1086,-98.5 889,-98.5"/>
<text text-anchor="start" x="897" y="-116.5" font-family="Helvetica,sans-Serif" font-size="10.00">QuantConnect.Algorithm.Framework.</text>
<text text-anchor="middle" x="987.5" y="-105.5" font-family="Helvetica,sans-Serif" font-size="10.00">Selection.TechnologyETFUniverse</text>
</a>
</g>
</g>
<!-- Node4&#45;&gt;Node9 -->
<g id="edge8" class="edge">
<title>Node4&#45;&gt;Node9</title>
<path fill="none" stroke="midnightblue" d="M817.84,-145.53C847,-140 879.15,-133.89 907.49,-128.51"/>
<polygon fill="midnightblue" stroke="midnightblue" points="816.83,-142.16 807.66,-147.47 818.14,-149.04 816.83,-142.16"/>
</g>
<!-- Node10 -->
<g id="node10" class="node">
<title>Node10</title>
<g id="a_node10"><a xlink:href="classQuantConnect_1_1Algorithm_1_1Framework_1_1Selection_1_1USTreasuriesETFUniverse.html" target="_top" xlink:title="Universe Selection Model that adds the following US Treasuries ETFs at their inception date 2002&#45;07&#45;2...">
<polygon fill="white" stroke="black" points="889,-49.5 889,-79.5 1086,-79.5 1086,-49.5 889,-49.5"/>
<text text-anchor="start" x="897" y="-67.5" font-family="Helvetica,sans-Serif" font-size="10.00">QuantConnect.Algorithm.Framework.</text>
<text text-anchor="middle" x="987.5" y="-56.5" font-family="Helvetica,sans-Serif" font-size="10.00">Selection.USTreasuriesETFUniverse</text>
</a>
</g>
</g>
<!-- Node4&#45;&gt;Node10 -->
<g id="edge9" class="edge">
<title>Node4&#45;&gt;Node10</title>
<path fill="none" stroke="midnightblue" d="M765.81,-142.82C797.81,-126.55 845.51,-103.72 889,-88.5 898.38,-85.22 908.41,-82.21 918.35,-79.51"/>
<polygon fill="midnightblue" stroke="midnightblue" points="764.11,-139.76 756.81,-147.44 767.3,-145.99 764.11,-139.76"/>
</g>
<!-- Node11 -->
<g id="node11" class="node">
<title>Node11</title>
<g id="a_node11"><a xlink:href="classQuantConnect_1_1Algorithm_1_1Framework_1_1Selection_1_1VolatilityETFUniverse.html" target="_top" xlink:title="Universe Selection Model that adds the following Volatility ETFs at their inception date 2010&#45;02&#45;11 S...">
<polygon fill="white" stroke="black" points="889,-0.5 889,-30.5 1086,-30.5 1086,-0.5 889,-0.5"/>
<text text-anchor="start" x="897" y="-18.5" font-family="Helvetica,sans-Serif" font-size="10.00">QuantConnect.Algorithm.Framework.</text>
<text text-anchor="middle" x="987.5" y="-7.5" font-family="Helvetica,sans-Serif" font-size="10.00">Selection.VolatilityETFUniverse</text>
</a>
</g>
</g>
<!-- Node4&#45;&gt;Node11 -->
<g id="edge10" class="edge">
<title>Node4&#45;&gt;Node11</title>
<path fill="none" stroke="midnightblue" d="M751.12,-140.18C780.46,-112.49 834.38,-65.72 889,-39.5 896.15,-36.07 903.84,-33.1 911.65,-30.53"/>
<polygon fill="midnightblue" stroke="midnightblue" points="748.67,-137.68 743.86,-147.12 753.51,-142.74 748.67,-137.68"/>
</g>
</g>
</svg>
        <g id="navigator" transform="translate(0 0)" fill="#404254">
                <rect fill="#f2f5e9" fill-opacity="0.5" stroke="#606060" stroke-width=".5" x="0" y="0" width="60" height="60"/>
                <use id="zoomplus" xlink:href="#zoomPlus" x="17" y="9" onmousedown="handleZoom(evt,'in')"/>
                <use id="zoomminus" xlink:href="#zoomMin" x="42" y="9" onmousedown="handleZoom(evt,'out')"/>
                <use id="reset" xlink:href="#resetDef" x="30" y="36" onmousedown="handleReset()"/>
                <g id="arrowUp" xlink:href="#dirArrow" transform="translate(30 24)" onmousedown="handlePan(0,-1)">
                  <use xlink:href="#rim" fill="#404040">
                        <set attributeName="fill" to="#808080" begin="arrowUp.mouseover" end="arrowUp.mouseout"/>
                  </use>
                  <path fill="none" stroke="white" stroke-width="1.5" d="M0,-3.0v7 M-2.5,-0.5L0,-3.0L2.5,-0.5"/>
                </g>
                <g id="arrowRight" xlink:href="#dirArrow" transform="rotate(90) translate(36 -43)" onmousedown="handlePan(1,0)">
                  <use xlink:href="#rim" fill="#404040">
                        <set attributeName="fill" to="#808080" begin="arrowRight.mouseover" end="arrowRight.mouseout"/>
                  </use>
                  <path fill="none" stroke="white" stroke-width="1.5" d="M0,-3.0v7 M-2.5,-0.5L0,-3.0L2.5,-0.5"/>
                </g>
                <g id="arrowDown" xlink:href="#dirArrow" transform="rotate(180) translate(-30 -48)" onmousedown="handlePan(0,1)">
                  <use xlink:href="#rim" fill="#404040">
                        <set attributeName="fill" to="#808080" begin="arrowDown.mouseover" end="arrowDown.mouseout"/>
                  </use>
                  <path fill="none" stroke="white" stroke-width="1.5" d="M0,-3.0v7 M-2.5,-0.5L0,-3.0L2.5,-0.5"/>
                </g>
                <g id="arrowLeft" xlink:href="#dirArrow" transform="rotate(270) translate(-36 17)" onmousedown="handlePan(-1,0)">
                  <use xlink:href="#rim" fill="#404040">
                        <set attributeName="fill" to="#808080" begin="arrowLeft.mouseover" end="arrowLeft.mouseout"/>
                  </use>
                  <path fill="none" stroke="white" stroke-width="1.5" d="M0,-3.0v7 M-2.5,-0.5L0,-3.0L2.5,-0.5"/>
                </g>
        </g>
        <svg viewBox="0 0 15 15" width="100%" height="30px" preserveAspectRatio="xMaxYMin meet">
         <g id="arrow_out" transform="scale(0.3 0.3)">
          <a xlink:href="classQuantConnect_1_1Algorithm_1_1Framework_1_1Selection_1_1CustomUniverseSelectionModel__inherit__graph_org.svg" target="_base">
           <rect id="button" ry="5" rx="5" y="6" x="6" height="38" width="38"
                fill="#f2f5e9" fill-opacity="0.5" stroke="#606060" stroke-width="1.0"/>
           <path id="arrow"
             d="M 11.500037,31.436501 C 11.940474,20.09759 22.043105,11.32322 32.158766,21.979434 L 37.068811,17.246167 C 37.068811,17.246167 37.088388,32 37.088388,32 L 22.160133,31.978069 C 22.160133,31.978069 26.997745,27.140456 26.997745,27.140456 C 18.528582,18.264221 13.291696,25.230495 11.500037,31.436501 z"
             style="fill:#404040;"/>
          </a>
         </g>
        </svg>
</svg>
