<?xml version="1.0" encoding="UTF-8" standalone="no"?>
<!DOCTYPE svg PUBLIC "-//W3C//DTD SVG 1.1//EN"
 "http://www.w3.org/Graphics/SVG/1.1/DTD/svg11.dtd">
<!-- Generated by graphviz version 2.43.0 (0)
 -->
<!-- Title: QuantConnect.Algorithm.Framework.Selection.FundamentalUniverseSelectionModel.Fundamental Pages: 1 -->
<svg width="493pt" height="50pt"
 viewBox="0.00 0.00 493.00 50.00" xmlns="http://www.w3.org/2000/svg" xmlns:xlink="http://www.w3.org/1999/xlink">
<g id="graph0" class="graph" transform="scale(1 1) rotate(0) translate(4 46)">
<title>QuantConnect.Algorithm.Framework.Selection.FundamentalUniverseSelectionModel.Fundamental</title>
<polygon fill="white" stroke="transparent" points="-4,4 -4,-46 489,-46 489,4 -4,4"/>
<!-- Node1 -->
<g id="node1" class="node">
<title>Node1</title>
<g id="a_node1"><a xlink:title="Convenience method for creating a selection model that uses fundamental data">
<polygon fill="#bfbfbf" stroke="black" points="0,-0.5 0,-41.5 217,-41.5 217,-0.5 0,-0.5"/>
<text text-anchor="start" x="8" y="-29.5" font-family="Helvetica,sans-Serif" font-size="10.00">QuantConnect.Algorithm.Framework.</text>
<text text-anchor="start" x="8" y="-18.5" font-family="Helvetica,sans-Serif" font-size="10.00">Selection.FundamentalUniverseSelection</text>
<text text-anchor="middle" x="108.5" y="-7.5" font-family="Helvetica,sans-Serif" font-size="10.00">Model.Fundamental</text>
</a>
</g>
</g>
<!-- Node2 -->
<g id="node2" class="node">
<title>Node2</title>
<g id="a_node2"><a xlink:href="classQuantConnect_1_1Algorithm_1_1Framework_1_1Selection_1_1FundamentalUniverseSelectionModel.html#a7630ab4041367f34d471bf7af4e1fa30" target="_top" xlink:title="Initializes a new instance of the FundamentalUniverseSelectionModel class">
<polygon fill="white" stroke="black" points="253,-0.5 253,-41.5 485,-41.5 485,-0.5 253,-0.5"/>
<text text-anchor="start" x="261" y="-29.5" font-family="Helvetica,sans-Serif" font-size="10.00">QuantConnect.Algorithm.Framework.</text>
<text text-anchor="start" x="261" y="-18.5" font-family="Helvetica,sans-Serif" font-size="10.00">Selection.FundamentalUniverseSelection</text>
<text text-anchor="middle" x="369" y="-7.5" font-family="Helvetica,sans-Serif" font-size="10.00">Model.FundamentalUniverseSelectionModel</text>
</a>
</g>
</g>
<!-- Node1&#45;&gt;Node2 -->
<g id="edge1" class="edge">
<title>Node1&#45;&gt;Node2</title>
<path fill="none" stroke="midnightblue" d="M217.26,-21C225.72,-21 234.31,-21 242.87,-21"/>
<polygon fill="midnightblue" stroke="midnightblue" points="242.91,-24.5 252.91,-21 242.91,-17.5 242.91,-24.5"/>
</g>
</g>
</svg>
