<?xml version="1.0" encoding="UTF-8" standalone="no"?>
<!DOCTYPE svg PUBLIC "-//W3C//DTD SVG 1.1//EN"
 "http://www.w3.org/Graphics/SVG/1.1/DTD/svg11.dtd">
<!-- Generated by graphviz version 2.43.0 (0)
 -->
<!-- Title: QuantConnect.Time.TradeableDates Pages: 1 -->
<svg width="761pt" height="154pt"
 viewBox="0.00 0.00 761.00 153.50" xmlns="http://www.w3.org/2000/svg" xmlns:xlink="http://www.w3.org/1999/xlink">
<g id="graph0" class="graph" transform="scale(1 1) rotate(0) translate(4 149.5)">
<title>QuantConnect.Time.TradeableDates</title>
<polygon fill="white" stroke="transparent" points="-4,4 -4,-149.5 757,-149.5 757,4 -4,4"/>
<!-- Node1 -->
<g id="node1" class="node">
<title>Node1</title>
<g id="a_node1"><a xlink:title="Could of the number of tradeable dates within this period.">
<polygon fill="#bfbfbf" stroke="black" points="0,-63.5 0,-93.5 164,-93.5 164,-63.5 0,-63.5"/>
<text text-anchor="start" x="8" y="-81.5" font-family="Helvetica,sans-Serif" font-size="10.00">QuantConnect.Time.Tradeable</text>
<text text-anchor="middle" x="82" y="-70.5" font-family="Helvetica,sans-Serif" font-size="10.00">Dates</text>
</a>
</g>
</g>
<!-- Node2 -->
<g id="node2" class="node">
<title>Node2</title>
<g id="a_node2"><a xlink:href="classQuantConnect_1_1Time.html#acac0502b1a038835956ff94c6407673e" target="_top" xlink:title="Define an enumerable date range and return each date as a datetime object in the date range">
<polygon fill="white" stroke="black" points="211,-126 211,-145 370,-145 370,-126 211,-126"/>
<text text-anchor="middle" x="290.5" y="-133" font-family="Helvetica,sans-Serif" font-size="10.00">QuantConnect.Time.EachDay</text>
</a>
</g>
</g>
<!-- Node1&#45;&gt;Node2 -->
<g id="edge1" class="edge">
<title>Node1&#45;&gt;Node2</title>
<path fill="none" stroke="midnightblue" d="M135.67,-93.51C155.78,-99.2 178.94,-105.71 200,-111.5 214.1,-115.38 229.48,-119.53 243.45,-123.27"/>
<polygon fill="midnightblue" stroke="midnightblue" points="242.76,-126.71 253.33,-125.91 244.57,-119.95 242.76,-126.71"/>
</g>
<!-- Node3 -->
<g id="node3" class="node">
<title>Node3</title>
<g id="a_node3"><a xlink:href="classQuantConnect_1_1Logging_1_1Log.html#af0e7955911bc7664b37661b2a303a9e3" target="_top" xlink:title="Log error">
<polygon fill="white" stroke="black" points="417,-65.5 417,-95.5 567,-95.5 567,-65.5 417,-65.5"/>
<text text-anchor="start" x="425" y="-83.5" font-family="Helvetica,sans-Serif" font-size="10.00">QuantConnect.Logging.Log.</text>
<text text-anchor="middle" x="492" y="-72.5" font-family="Helvetica,sans-Serif" font-size="10.00">Error</text>
</a>
</g>
</g>
<!-- Node1&#45;&gt;Node3 -->
<g id="edge2" class="edge">
<title>Node1&#45;&gt;Node3</title>
<path fill="none" stroke="midnightblue" d="M164.1,-78.9C234.31,-79.24 335.5,-79.74 406.65,-80.09"/>
<polygon fill="midnightblue" stroke="midnightblue" points="406.9,-83.59 416.92,-80.14 406.94,-76.59 406.9,-83.59"/>
</g>
<!-- Node5 -->
<g id="node5" class="node">
<title>Node5</title>
<g id="a_node5"><a xlink:href="classQuantConnect_1_1Logging_1_1Log.html#a4e55477fbc790846b74550a57198cea9" target="_top" xlink:title="Log trace">
<polygon fill="white" stroke="black" points="215.5,-0.5 215.5,-30.5 365.5,-30.5 365.5,-0.5 215.5,-0.5"/>
<text text-anchor="start" x="223.5" y="-18.5" font-family="Helvetica,sans-Serif" font-size="10.00">QuantConnect.Logging.Log.</text>
<text text-anchor="middle" x="290.5" y="-7.5" font-family="Helvetica,sans-Serif" font-size="10.00">Trace</text>
</a>
</g>
</g>
<!-- Node1&#45;&gt;Node5 -->
<g id="edge4" class="edge">
<title>Node1&#45;&gt;Node5</title>
<path fill="none" stroke="midnightblue" d="M127.87,-63.44C149.58,-56.28 176.08,-47.72 200,-40.5 207.8,-38.15 216,-35.75 224.14,-33.42"/>
<polygon fill="midnightblue" stroke="midnightblue" points="225.35,-36.71 234.01,-30.61 223.44,-29.98 225.35,-36.71"/>
</g>
<!-- Node7 -->
<g id="node7" class="node">
<title>Node7</title>
<g id="a_node7"><a xlink:href="classQuantConnect_1_1Time.html#a8bf543d00ede64fe5180187ea6bfdaad" target="_top" xlink:title="Make sure this date is not a holiday, or weekend for the securities in this algorithm.">
<polygon fill="white" stroke="black" points="200,-50 200,-69 381,-69 381,-50 200,-50"/>
<text text-anchor="middle" x="290.5" y="-57" font-family="Helvetica,sans-Serif" font-size="10.00">QuantConnect.Time.TradableDate</text>
</a>
</g>
</g>
<!-- Node1&#45;&gt;Node7 -->
<g id="edge6" class="edge">
<title>Node1&#45;&gt;Node7</title>
<path fill="none" stroke="midnightblue" d="M164.02,-71.05C172.47,-70.27 181.12,-69.47 189.74,-68.68"/>
<polygon fill="midnightblue" stroke="midnightblue" points="190.2,-72.15 199.84,-67.75 189.56,-65.18 190.2,-72.15"/>
</g>
<!-- Node4 -->
<g id="node4" class="node">
<title>Node4</title>
<g id="a_node4"><a xlink:href="interfaceQuantConnect_1_1Logging_1_1ILogHandler.html#a35373a0c5d76031fa5ccf5dc39e5c25d" target="_top" xlink:title="Write error message to log">
<polygon fill="white" stroke="black" points="603,-65.5 603,-95.5 753,-95.5 753,-65.5 603,-65.5"/>
<text text-anchor="start" x="611" y="-83.5" font-family="Helvetica,sans-Serif" font-size="10.00">QuantConnect.Logging.ILog</text>
<text text-anchor="middle" x="678" y="-72.5" font-family="Helvetica,sans-Serif" font-size="10.00">Handler.Error</text>
</a>
</g>
</g>
<!-- Node3&#45;&gt;Node4 -->
<g id="edge3" class="edge">
<title>Node3&#45;&gt;Node4</title>
<path fill="none" stroke="midnightblue" d="M567.04,-80.5C575.51,-80.5 584.19,-80.5 592.78,-80.5"/>
<polygon fill="midnightblue" stroke="midnightblue" points="592.81,-84 602.81,-80.5 592.81,-77 592.81,-84"/>
</g>
<!-- Node6 -->
<g id="node6" class="node">
<title>Node6</title>
<g id="a_node6"><a xlink:href="interfaceQuantConnect_1_1Logging_1_1ILogHandler.html#a3fb71a33ac66129240b63f12b6fcda3b" target="_top" xlink:title="Write debug message to log">
<polygon fill="white" stroke="black" points="417,-0.5 417,-30.5 567,-30.5 567,-0.5 417,-0.5"/>
<text text-anchor="start" x="425" y="-18.5" font-family="Helvetica,sans-Serif" font-size="10.00">QuantConnect.Logging.ILog</text>
<text text-anchor="middle" x="492" y="-7.5" font-family="Helvetica,sans-Serif" font-size="10.00">Handler.Trace</text>
</a>
</g>
</g>
<!-- Node5&#45;&gt;Node6 -->
<g id="edge5" class="edge">
<title>Node5&#45;&gt;Node6</title>
<path fill="none" stroke="midnightblue" d="M365.5,-15.5C378.85,-15.5 392.85,-15.5 406.46,-15.5"/>
<polygon fill="midnightblue" stroke="midnightblue" points="406.78,-19 416.78,-15.5 406.78,-12 406.78,-19"/>
</g>
<!-- Node7&#45;&gt;Node3 -->
<g id="edge7" class="edge">
<title>Node7&#45;&gt;Node3</title>
<path fill="none" stroke="midnightblue" d="M381.04,-68.93C389.67,-69.83 398.41,-70.75 406.99,-71.66"/>
<polygon fill="midnightblue" stroke="midnightblue" points="406.67,-75.14 416.98,-72.71 407.4,-68.18 406.67,-75.14"/>
</g>
</g>
</svg>
