<?xml version="1.0" encoding="UTF-8" standalone="no"?>
<!DOCTYPE svg PUBLIC "-//W3C//DTD SVG 1.1//EN"
 "http://www.w3.org/Graphics/SVG/1.1/DTD/svg11.dtd">
<!-- Generated by graphviz version 2.43.0 (0)
 -->
<!-- Title: QuantConnect.Parse.Long Pages: 1 -->
<svg width="397pt" height="160pt"
 viewBox="0.00 0.00 397.00 160.00" xmlns="http://www.w3.org/2000/svg" xmlns:xlink="http://www.w3.org/1999/xlink">
<g id="graph0" class="graph" transform="scale(1 1) rotate(0) translate(4 156)">
<title>QuantConnect.Parse.Long</title>
<polygon fill="white" stroke="transparent" points="-4,4 -4,-156 393,-156 393,4 -4,4"/>
<!-- Node1 -->
<g id="node1" class="node">
<title>Node1</title>
<g id="a_node1"><a xlink:title="Parses the provided value as a long using CultureInfo.InvariantCulture">
<polygon fill="#bfbfbf" stroke="black" points="248,-66.5 248,-85.5 389,-85.5 389,-66.5 248,-66.5"/>
<text text-anchor="middle" x="318.5" y="-73.5" font-family="Helvetica,sans-Serif" font-size="10.00">QuantConnect.Parse.Long</text>
</a>
</g>
</g>
<!-- Node2 -->
<g id="node2" class="node">
<title>Node2</title>
<g id="a_node2"><a xlink:href="classQuantConnect_1_1Data_1_1Shortable_1_1LocalDiskShortableProvider.html#af2005f27df6f392dac51c01a6ffec482" target="_top" xlink:title="Gets a list of all shortable Symbols, including the quantity shortable as a Dictionary.">
<polygon fill="white" stroke="black" points="0,-110.5 0,-151.5 212,-151.5 212,-110.5 0,-110.5"/>
<text text-anchor="start" x="8" y="-139.5" font-family="Helvetica,sans-Serif" font-size="10.00">QuantConnect.Data.Shortable.</text>
<text text-anchor="start" x="8" y="-128.5" font-family="Helvetica,sans-Serif" font-size="10.00">LocalDiskShortableProvider.AllShortable</text>
<text text-anchor="middle" x="106" y="-117.5" font-family="Helvetica,sans-Serif" font-size="10.00">Symbols</text>
</a>
</g>
</g>
<!-- Node1&#45;&gt;Node2 -->
<g id="edge1" class="edge">
<title>Node1&#45;&gt;Node2</title>
<path fill="none" stroke="midnightblue" d="M270.87,-88.18C245.81,-94.73 214.25,-102.98 185.52,-110.48"/>
<polygon fill="midnightblue" stroke="midnightblue" points="272.04,-91.49 280.83,-85.58 270.27,-84.72 272.04,-91.49"/>
</g>
<!-- Node3 -->
<g id="node3" class="node">
<title>Node3</title>
<g id="a_node3"><a xlink:href="classQuantConnect_1_1Data_1_1Custom_1_1FxcmVolume.html#a509354c7f32d1e25a4e38ff2fcb9e2fb" target="_top" xlink:title="Reader converts each line of the data source into BaseData objects. Each data type creates its own fa...">
<polygon fill="white" stroke="black" points="28.5,-61 28.5,-91 183.5,-91 183.5,-61 28.5,-61"/>
<text text-anchor="start" x="36.5" y="-79" font-family="Helvetica,sans-Serif" font-size="10.00">QuantConnect.Data.Custom.</text>
<text text-anchor="middle" x="106" y="-68" font-family="Helvetica,sans-Serif" font-size="10.00">FxcmVolume.Reader</text>
</a>
</g>
</g>
<!-- Node1&#45;&gt;Node3 -->
<g id="edge2" class="edge">
<title>Node1&#45;&gt;Node3</title>
<path fill="none" stroke="midnightblue" d="M237.7,-76C220,-76 201.27,-76 183.7,-76"/>
<polygon fill="midnightblue" stroke="midnightblue" points="237.99,-79.5 247.99,-76 237.99,-72.5 237.99,-79.5"/>
</g>
<!-- Node4 -->
<g id="node4" class="node">
<title>Node4</title>
<g id="a_node4"><a xlink:href="classQuantConnect_1_1Data_1_1Shortable_1_1LocalDiskShortableProvider.html#a64f37adccd96bcc10a5065fc098fbe8f" target="_top" xlink:title="Gets the quantity shortable for the Symbol at the given date.">
<polygon fill="white" stroke="black" points="6,-0.5 6,-41.5 206,-41.5 206,-0.5 6,-0.5"/>
<text text-anchor="start" x="14" y="-29.5" font-family="Helvetica,sans-Serif" font-size="10.00">QuantConnect.Data.Shortable.</text>
<text text-anchor="start" x="14" y="-18.5" font-family="Helvetica,sans-Serif" font-size="10.00">LocalDiskShortableProvider.Shortable</text>
<text text-anchor="middle" x="106" y="-7.5" font-family="Helvetica,sans-Serif" font-size="10.00">Quantity</text>
</a>
</g>
</g>
<!-- Node1&#45;&gt;Node4 -->
<g id="edge3" class="edge">
<title>Node1&#45;&gt;Node4</title>
<path fill="none" stroke="midnightblue" d="M270.87,-63.82C245.81,-57.27 214.25,-49.02 185.52,-41.52"/>
<polygon fill="midnightblue" stroke="midnightblue" points="270.27,-67.28 280.83,-66.42 272.04,-60.51 270.27,-67.28"/>
</g>
</g>
</svg>
