<?xml version="1.0" encoding="UTF-8" standalone="no"?>
<!DOCTYPE svg PUBLIC "-//W3C//DTD SVG 1.1//EN"
 "http://www.w3.org/Graphics/SVG/1.1/DTD/svg11.dtd">
<!-- Generated by graphviz version 2.43.0 (0)
 -->
<!-- Title: QuantConnect.Securities.MarketHoursDatabase.GetEntry Pages: 1 -->
<svg width="677pt" height="416pt"
 viewBox="0.00 0.00 677.00 415.50" xmlns="http://www.w3.org/2000/svg" xmlns:xlink="http://www.w3.org/1999/xlink">
<g id="graph0" class="graph" transform="scale(1 1) rotate(0) translate(4 411.5)">
<title>QuantConnect.Securities.MarketHoursDatabase.GetEntry</title>
<polygon fill="white" stroke="transparent" points="-4,4 -4,-411.5 673,-411.5 673,4 -4,4"/>
<!-- Node1 -->
<g id="node1" class="node">
<title>Node1</title>
<g id="a_node1"><a xlink:title="Gets the entry for the specified market/symbol/security&#45;type">
<polygon fill="#bfbfbf" stroke="black" points="498,-205 498,-235 669,-235 669,-205 498,-205"/>
<text text-anchor="start" x="506" y="-223" font-family="Helvetica,sans-Serif" font-size="10.00">QuantConnect.Securities.</text>
<text text-anchor="middle" x="583.5" y="-212" font-family="Helvetica,sans-Serif" font-size="10.00">MarketHoursDatabase.GetEntry</text>
</a>
</g>
</g>
<!-- Node2 -->
<g id="node2" class="node">
<title>Node2</title>
<g id="a_node2"><a xlink:href="classQuantConnect_1_1Algorithm_1_1QCAlgorithm.html#a20fac1dead0a364d844f5f3179808706" target="_top" xlink:title="Creates a new user defined universe that will fire on the requested resolution during market hours.">
<polygon fill="white" stroke="black" points="249,-377 249,-407 454,-407 454,-377 249,-377"/>
<text text-anchor="start" x="257" y="-395" font-family="Helvetica,sans-Serif" font-size="10.00">QuantConnect.Algorithm.QCAlgorithm.</text>
<text text-anchor="middle" x="351.5" y="-384" font-family="Helvetica,sans-Serif" font-size="10.00">AddUniverse</text>
</a>
</g>
</g>
<!-- Node1&#45;&gt;Node2 -->
<g id="edge1" class="edge">
<title>Node1&#45;&gt;Node2</title>
<path fill="none" stroke="midnightblue" d="M569.58,-244.53C550.64,-277.96 512.08,-337.18 462,-368 456.36,-371.47 450.29,-374.44 444,-376.98"/>
<polygon fill="midnightblue" stroke="midnightblue" points="572.83,-245.88 574.61,-235.44 566.71,-242.5 572.83,-245.88"/>
</g>
<!-- Node3 -->
<g id="node3" class="node">
<title>Node3</title>
<g id="a_node3"><a xlink:href="classQuantConnect_1_1Securities_1_1MarketHoursDatabase.html#a92534128098fef25ab73e8d2faf58793" target="_top" xlink:title="Performs a lookup using the specified information and returns the data&#39;s time zone if found,...">
<polygon fill="white" stroke="black" points="242.5,-328 242.5,-358 460.5,-358 460.5,-328 242.5,-328"/>
<text text-anchor="start" x="250.5" y="-346" font-family="Helvetica,sans-Serif" font-size="10.00">QuantConnect.Securities.</text>
<text text-anchor="middle" x="351.5" y="-335" font-family="Helvetica,sans-Serif" font-size="10.00">MarketHoursDatabase.GetDataTimeZone</text>
</a>
</g>
</g>
<!-- Node1&#45;&gt;Node3 -->
<g id="edge2" class="edge">
<title>Node1&#45;&gt;Node3</title>
<path fill="none" stroke="midnightblue" d="M561.91,-242.24C539.52,-265.03 501.61,-299.78 462,-319 454.91,-322.44 447.32,-325.39 439.57,-327.93"/>
<polygon fill="midnightblue" stroke="midnightblue" points="564.46,-244.63 568.89,-235 559.42,-239.77 564.46,-244.63"/>
</g>
<!-- Node6 -->
<g id="node6" class="node">
<title>Node6</title>
<g id="a_node6"><a xlink:href="classQuantConnect_1_1Extensions.html#a6e7b57a65d282b02a39d8232be71f4e0" target="_top" xlink:title="Helper method to get a market hours entry">
<polygon fill="white" stroke="black" points="279,-279 279,-309 424,-309 424,-279 279,-279"/>
<text text-anchor="start" x="287" y="-297" font-family="Helvetica,sans-Serif" font-size="10.00">QuantConnect.Extensions.</text>
<text text-anchor="middle" x="351.5" y="-286" font-family="Helvetica,sans-Serif" font-size="10.00">GetEntry</text>
</a>
</g>
</g>
<!-- Node1&#45;&gt;Node6 -->
<g id="edge5" class="edge">
<title>Node1&#45;&gt;Node6</title>
<path fill="none" stroke="midnightblue" d="M541.18,-239.29C518.22,-249.45 488.94,-261.53 462,-270 449.93,-273.79 436.93,-277.21 424.25,-280.19"/>
<polygon fill="midnightblue" stroke="midnightblue" points="542.91,-242.35 550.6,-235.06 540.04,-235.96 542.91,-242.35"/>
</g>
<!-- Node7 -->
<g id="node7" class="node">
<title>Node7</title>
<g id="a_node7"><a xlink:href="classQuantConnect_1_1Securities_1_1MarketHoursDatabase.html#a7ff5c3f3b78dc47dcfc2156a06882bbd" target="_top" xlink:title="Gets the entry for the specified market/symbol/security&#45;type">
<polygon fill="white" stroke="black" points="266,-230 266,-260 437,-260 437,-230 266,-230"/>
<text text-anchor="start" x="274" y="-248" font-family="Helvetica,sans-Serif" font-size="10.00">QuantConnect.Securities.</text>
<text text-anchor="middle" x="351.5" y="-237" font-family="Helvetica,sans-Serif" font-size="10.00">MarketHoursDatabase.GetEntry</text>
</a>
</g>
</g>
<!-- Node1&#45;&gt;Node7 -->
<g id="edge6" class="edge">
<title>Node1&#45;&gt;Node7</title>
<path fill="none" stroke="midnightblue" d="M487.56,-230.32C470.93,-232.13 453.71,-234 437.37,-235.78"/>
<polygon fill="midnightblue" stroke="midnightblue" points="488.27,-233.76 497.84,-229.2 487.52,-226.8 488.27,-233.76"/>
</g>
<!-- Node8 -->
<g id="node8" class="node">
<title>Node8</title>
<g id="a_node8"><a xlink:href="classQuantConnect_1_1Securities_1_1MarketHoursDatabase.html#a5c7591a1165130392c4606037f2b916b" target="_top" xlink:title="Convenience method for retrieving exchange hours from market hours database using a subscription conf...">
<polygon fill="white" stroke="black" points="241,-181 241,-211 462,-211 462,-181 241,-181"/>
<text text-anchor="start" x="249" y="-199" font-family="Helvetica,sans-Serif" font-size="10.00">QuantConnect.Securities.</text>
<text text-anchor="middle" x="351.5" y="-188" font-family="Helvetica,sans-Serif" font-size="10.00">MarketHoursDatabase.GetExchangeHours</text>
</a>
</g>
</g>
<!-- Node1&#45;&gt;Node8 -->
<g id="edge7" class="edge">
<title>Node1&#45;&gt;Node8</title>
<path fill="none" stroke="midnightblue" d="M487.63,-210.1C479.19,-209.22 470.6,-208.32 462.05,-207.43"/>
<polygon fill="midnightblue" stroke="midnightblue" points="487.53,-213.61 497.84,-211.17 488.25,-206.65 487.53,-213.61"/>
</g>
<!-- Node9 -->
<g id="node9" class="node">
<title>Node9</title>
<g id="a_node9"><a xlink:href="classQuantConnect_1_1Securities_1_1Future_1_1FuturesExpiryUtilityFunctions.html#a9aa543735102b14ff694b42d1ee142d4" target="_top" xlink:title="Get holiday list from the MHDB given the market and the symbol of the security">
<polygon fill="white" stroke="black" points="253,-120.5 253,-161.5 450,-161.5 450,-120.5 253,-120.5"/>
<text text-anchor="start" x="261" y="-149.5" font-family="Helvetica,sans-Serif" font-size="10.00">QuantConnect.Securities.</text>
<text text-anchor="start" x="261" y="-138.5" font-family="Helvetica,sans-Serif" font-size="10.00">Future.FuturesExpiryUtilityFunctions.</text>
<text text-anchor="middle" x="351.5" y="-127.5" font-family="Helvetica,sans-Serif" font-size="10.00">GetHolidays</text>
</a>
</g>
</g>
<!-- Node1&#45;&gt;Node9 -->
<g id="edge8" class="edge">
<title>Node1&#45;&gt;Node9</title>
<path fill="none" stroke="midnightblue" d="M538.2,-201.08C515.6,-191.76 487.56,-180.68 462,-172 451.34,-168.38 439.99,-164.83 428.8,-161.51"/>
<polygon fill="midnightblue" stroke="midnightblue" points="536.95,-204.35 547.53,-204.96 539.64,-197.89 536.95,-204.35"/>
</g>
<!-- Node10 -->
<g id="node10" class="node">
<title>Node10</title>
<g id="a_node10"><a xlink:href="classQuantConnect_1_1Securities_1_1Option_1_1OptionSymbol.html#a75217e30f16bc69188675c474bb703b0" target="_top" xlink:title="Returns the last trading date for the option contract">
<polygon fill="white" stroke="black" points="261,-60.5 261,-101.5 442,-101.5 442,-60.5 261,-60.5"/>
<text text-anchor="start" x="269" y="-89.5" font-family="Helvetica,sans-Serif" font-size="10.00">QuantConnect.Securities.</text>
<text text-anchor="start" x="269" y="-78.5" font-family="Helvetica,sans-Serif" font-size="10.00">Option.OptionSymbol.GetLastDay</text>
<text text-anchor="middle" x="351.5" y="-67.5" font-family="Helvetica,sans-Serif" font-size="10.00">OfTrading</text>
</a>
</g>
</g>
<!-- Node1&#45;&gt;Node10 -->
<g id="edge9" class="edge">
<title>Node1&#45;&gt;Node10</title>
<path fill="none" stroke="midnightblue" d="M563.24,-197.09C541.22,-172.33 502.89,-133.41 462,-111 455.6,-107.49 448.77,-104.38 441.76,-101.61"/>
<polygon fill="midnightblue" stroke="midnightblue" points="560.85,-199.68 570.07,-204.9 566.12,-195.07 560.85,-199.68"/>
</g>
<!-- Node12 -->
<g id="node12" class="node">
<title>Node12</title>
<g id="a_node12"><a xlink:href="classQuantConnect_1_1Lean_1_1Engine_1_1DataFeeds_1_1FileSystemDataFeed.html#a8b10a0ccb5a8884f80c527cf25c992f5" target="_top" xlink:title="If required will add a new enumerator for the underlying symbol">
<polygon fill="white" stroke="black" points="257,-0.5 257,-41.5 446,-41.5 446,-0.5 257,-0.5"/>
<text text-anchor="start" x="265" y="-29.5" font-family="Helvetica,sans-Serif" font-size="10.00">QuantConnect.Lean.Engine.</text>
<text text-anchor="start" x="265" y="-18.5" font-family="Helvetica,sans-Serif" font-size="10.00">DataFeeds.FileSystemDataFeed.Try</text>
<text text-anchor="middle" x="351.5" y="-7.5" font-family="Helvetica,sans-Serif" font-size="10.00">AppendUnderlyingEnumerator</text>
</a>
</g>
</g>
<!-- Node1&#45;&gt;Node12 -->
<g id="edge11" class="edge">
<title>Node1&#45;&gt;Node12</title>
<path fill="none" stroke="midnightblue" d="M571.7,-195.43C554.14,-158.39 515.88,-88.61 462,-51 456.91,-47.45 451.41,-44.31 445.69,-41.55"/>
<polygon fill="midnightblue" stroke="midnightblue" points="568.73,-197.34 576.1,-204.95 575.08,-194.4 568.73,-197.34"/>
</g>
<!-- Node4 -->
<g id="node4" class="node">
<title>Node4</title>
<g id="a_node4"><a xlink:href="classQuantConnect_1_1ToolBox_1_1LeanDataReader.html#ac23439fd286135eaf5c3047bf52eb517" target="_top" xlink:title="Initialize a instance of LeanDataReader from a path to a zipped data file. It also supports declaring...">
<polygon fill="white" stroke="black" points="23.5,-352 23.5,-382 181.5,-382 181.5,-352 23.5,-352"/>
<text text-anchor="start" x="31.5" y="-370" font-family="Helvetica,sans-Serif" font-size="10.00">QuantConnect.ToolBox.Lean</text>
<text text-anchor="middle" x="102.5" y="-359" font-family="Helvetica,sans-Serif" font-size="10.00">DataReader.LeanDataReader</text>
</a>
</g>
</g>
<!-- Node3&#45;&gt;Node4 -->
<g id="edge3" class="edge">
<title>Node3&#45;&gt;Node4</title>
<path fill="none" stroke="midnightblue" d="M232.11,-354.5C215,-356.17 197.75,-357.84 181.69,-359.4"/>
<polygon fill="midnightblue" stroke="midnightblue" points="232.55,-357.98 242.16,-353.53 231.87,-351.01 232.55,-357.98"/>
</g>
<!-- Node5 -->
<g id="node5" class="node">
<title>Node5</title>
<g id="a_node5"><a xlink:href="classQuantConnect_1_1Algorithm_1_1QCAlgorithm.html#ad8a5d8d6d6fd62a8a3962f0649567804" target="_top" xlink:title="Called by setup handlers after Initialize and allows the algorithm a chance to organize the data gath...">
<polygon fill="white" stroke="black" points="0,-303 0,-333 205,-333 205,-303 0,-303"/>
<text text-anchor="start" x="8" y="-321" font-family="Helvetica,sans-Serif" font-size="10.00">QuantConnect.Algorithm.QCAlgorithm.</text>
<text text-anchor="middle" x="102.5" y="-310" font-family="Helvetica,sans-Serif" font-size="10.00">PostInitialize</text>
</a>
</g>
</g>
<!-- Node3&#45;&gt;Node5 -->
<g id="edge4" class="edge">
<title>Node3&#45;&gt;Node5</title>
<path fill="none" stroke="midnightblue" d="M232.03,-331.01C223.02,-330.1 213.99,-329.18 205.11,-328.28"/>
<polygon fill="midnightblue" stroke="midnightblue" points="231.86,-334.51 242.16,-332.03 232.57,-327.55 231.86,-334.51"/>
</g>
<!-- Node11 -->
<g id="node11" class="node">
<title>Node11</title>
<g id="a_node11"><a xlink:href="classQuantConnect_1_1Extensions.html#a0ffdbe5701923c4217f90dd5fbe87641" target="_top" xlink:title="Gets the delisting date for the provided Symbol">
<polygon fill="white" stroke="black" points="30,-66 30,-96 175,-96 175,-66 30,-66"/>
<text text-anchor="start" x="38" y="-84" font-family="Helvetica,sans-Serif" font-size="10.00">QuantConnect.Extensions.</text>
<text text-anchor="middle" x="102.5" y="-73" font-family="Helvetica,sans-Serif" font-size="10.00">GetDelistingDate</text>
</a>
</g>
</g>
<!-- Node10&#45;&gt;Node11 -->
<g id="edge10" class="edge">
<title>Node10&#45;&gt;Node11</title>
<path fill="none" stroke="midnightblue" d="M250.65,-81C225.43,-81 198.85,-81 175.32,-81"/>
<polygon fill="midnightblue" stroke="midnightblue" points="250.98,-84.5 260.98,-81 250.98,-77.5 250.98,-84.5"/>
</g>
</g>
</svg>
