<?xml version="1.0" encoding="UTF-8" standalone="no"?>
<!DOCTYPE svg PUBLIC "-//W3C//DTD SVG 1.1//EN"
 "http://www.w3.org/Graphics/SVG/1.1/DTD/svg11.dtd">
<!-- Generated by graphviz version 2.43.0 (0)
 -->
<!-- Title: QuantConnect.Orders.LimitOrder.Clone Pages: 1 -->
<svg width="533pt" height="88pt"
 viewBox="0.00 0.00 533.00 88.00" xmlns="http://www.w3.org/2000/svg" xmlns:xlink="http://www.w3.org/1999/xlink">
<g id="graph0" class="graph" transform="scale(1 1) rotate(0) translate(4 84)">
<title>QuantConnect.Orders.LimitOrder.Clone</title>
<polygon fill="white" stroke="transparent" points="-4,4 -4,-84 529,-84 529,4 -4,4"/>
<!-- Node1 -->
<g id="node1" class="node">
<title>Node1</title>
<g id="a_node1"><a xlink:title="Creates a deep&#45;copy clone of this order">
<polygon fill="#bfbfbf" stroke="black" points="0,-24.5 0,-54.5 149,-54.5 149,-24.5 0,-24.5"/>
<text text-anchor="start" x="8" y="-42.5" font-family="Helvetica,sans-Serif" font-size="10.00">QuantConnect.Orders.Limit</text>
<text text-anchor="middle" x="74.5" y="-31.5" font-family="Helvetica,sans-Serif" font-size="10.00">Order.Clone</text>
</a>
</g>
</g>
<!-- Node2 -->
<g id="node2" class="node">
<title>Node2</title>
<g id="a_node2"><a xlink:href="classQuantConnect_1_1Orders_1_1Order.html#a7e89368b886aff5b24cd3e5b42d7a103" target="_top" xlink:title="Copies base Order properties to the specified order">
<polygon fill="white" stroke="black" points="185,-24.5 185,-54.5 338,-54.5 338,-24.5 185,-24.5"/>
<text text-anchor="start" x="193" y="-42.5" font-family="Helvetica,sans-Serif" font-size="10.00">QuantConnect.Orders.Order.</text>
<text text-anchor="middle" x="261.5" y="-31.5" font-family="Helvetica,sans-Serif" font-size="10.00">CopyTo</text>
</a>
</g>
</g>
<!-- Node1&#45;&gt;Node2 -->
<g id="edge1" class="edge">
<title>Node1&#45;&gt;Node2</title>
<path fill="none" stroke="midnightblue" d="M149.15,-39.5C157.62,-39.5 166.32,-39.5 174.93,-39.5"/>
<polygon fill="midnightblue" stroke="midnightblue" points="174.99,-43 184.99,-39.5 174.99,-36 174.99,-43"/>
</g>
<!-- Node3 -->
<g id="node3" class="node">
<title>Node3</title>
<g id="a_node3"><a xlink:href="interfaceQuantConnect_1_1Interfaces_1_1IOrderProperties.html#a683b82212fc9f952e098f8eb4e634643" target="_top" xlink:title="Returns a new instance clone of this object">
<polygon fill="white" stroke="black" points="379.5,-49.5 379.5,-79.5 519.5,-79.5 519.5,-49.5 379.5,-49.5"/>
<text text-anchor="start" x="387.5" y="-67.5" font-family="Helvetica,sans-Serif" font-size="10.00">QuantConnect.Interfaces.</text>
<text text-anchor="middle" x="449.5" y="-56.5" font-family="Helvetica,sans-Serif" font-size="10.00">IOrderProperties.Clone</text>
</a>
</g>
</g>
<!-- Node2&#45;&gt;Node3 -->
<g id="edge2" class="edge">
<title>Node2&#45;&gt;Node3</title>
<path fill="none" stroke="midnightblue" d="M338.15,-49.67C348.34,-51.04 358.81,-52.44 369.05,-53.82"/>
<polygon fill="midnightblue" stroke="midnightblue" points="368.83,-57.32 379.21,-55.19 369.76,-50.39 368.83,-57.32"/>
</g>
<!-- Node4 -->
<g id="node4" class="node">
<title>Node4</title>
<g id="a_node4"><a xlink:href="classQuantConnect_1_1Orders_1_1OrderSubmissionData.html#a98b3dd7d7d7198d062b6b005b45c0161" target="_top" xlink:title="Return a new instance clone of this object">
<polygon fill="white" stroke="black" points="374,-0.5 374,-30.5 525,-30.5 525,-0.5 374,-0.5"/>
<text text-anchor="start" x="382" y="-18.5" font-family="Helvetica,sans-Serif" font-size="10.00">QuantConnect.Orders.Order</text>
<text text-anchor="middle" x="449.5" y="-7.5" font-family="Helvetica,sans-Serif" font-size="10.00">SubmissionData.Clone</text>
</a>
</g>
</g>
<!-- Node2&#45;&gt;Node4 -->
<g id="edge3" class="edge">
<title>Node2&#45;&gt;Node4</title>
<path fill="none" stroke="midnightblue" d="M338.15,-29.74C346.61,-28.65 355.27,-27.53 363.83,-26.43"/>
<polygon fill="midnightblue" stroke="midnightblue" points="364.35,-29.89 373.82,-25.14 363.45,-22.94 364.35,-29.89"/>
</g>
</g>
</svg>
