<?xml version="1.0" encoding="UTF-8" standalone="no"?>
<!DOCTYPE svg PUBLIC "-//W3C//DTD SVG 1.1//EN"
 "http://www.w3.org/Graphics/SVG/1.1/DTD/svg11.dtd">
<!-- Generated by graphviz version 2.43.0 (0)
 -->
<!-- Title: QuantConnect.Data.Market.QuoteBar Pages: 1 -->
<svg width="174pt" height="151pt"
 viewBox="0.00 0.00 173.50 151.00" xmlns="http://www.w3.org/2000/svg" xmlns:xlink="http://www.w3.org/1999/xlink">
<g id="graph0" class="graph" transform="scale(1 1) rotate(0) translate(4 147)">
<title>QuantConnect.Data.Market.QuoteBar</title>
<polygon fill="white" stroke="transparent" points="-4,4 -4,-147 169.5,-147 169.5,4 -4,4"/>
<!-- Node1 -->
<g id="node1" class="node">
<title>Node1</title>
<g id="a_node1"><a xlink:title="QuoteBar class for second and minute resolution data: An OHLC implementation of the QuantConnect Base...">
<polygon fill="#bfbfbf" stroke="black" points="2,-0.5 2,-30.5 154,-30.5 154,-0.5 2,-0.5"/>
<text text-anchor="start" x="10" y="-18.5" font-family="Helvetica,sans-Serif" font-size="10.00">QuantConnect.Data.Market.</text>
<text text-anchor="middle" x="78" y="-7.5" font-family="Helvetica,sans-Serif" font-size="10.00">QuoteBar</text>
</a>
</g>
</g>
<!-- Node2 -->
<g id="node2" class="node">
<title>Node2</title>
<g id="a_node2"><a xlink:href="classQuantConnect_1_1Data_1_1BaseData.html" target="_top" xlink:title="Abstract base data class of QuantConnect. It is intended to be extended to define generic user custom...">
<polygon fill="white" stroke="black" points="0,-67.5 0,-86.5 64,-86.5 64,-67.5 0,-67.5"/>
<text text-anchor="middle" x="32" y="-74.5" font-family="Helvetica,sans-Serif" font-size="10.00">BaseData</text>
</a>
</g>
</g>
<!-- Node2&#45;&gt;Node1 -->
<g id="edge1" class="edge">
<title>Node2&#45;&gt;Node1</title>
<path fill="none" stroke="midnightblue" d="M44.73,-59.53C51.78,-50.42 60.44,-39.21 67.16,-30.52"/>
<polygon fill="midnightblue" stroke="midnightblue" points="41.94,-57.42 38.59,-67.48 47.48,-61.7 41.94,-57.42"/>
</g>
<!-- Node3 -->
<g id="node3" class="node">
<title>Node3</title>
<g id="a_node3"><a xlink:href="interfaceQuantConnect_1_1Data_1_1IBaseData.html" target="_top" xlink:title="Base Data Class: Type, Timestamp, Key – Base Features.">
<polygon fill="white" stroke="black" points="9.5,-123.5 9.5,-142.5 76.5,-142.5 76.5,-123.5 9.5,-123.5"/>
<text text-anchor="middle" x="43" y="-130.5" font-family="Helvetica,sans-Serif" font-size="10.00">IBaseData</text>
</a>
</g>
</g>
<!-- Node3&#45;&gt;Node2 -->
<g id="edge2" class="edge">
<title>Node3&#45;&gt;Node2</title>
<path fill="none" stroke="midnightblue" d="M39.15,-113.1C37.32,-104.14 35.23,-93.86 33.78,-86.75"/>
<polygon fill="midnightblue" stroke="midnightblue" points="35.76,-113.98 41.18,-123.08 42.62,-112.59 35.76,-113.98"/>
</g>
<!-- Node4 -->
<g id="node4" class="node">
<title>Node4</title>
<g id="a_node4"><a xlink:href="interfaceQuantConnect_1_1Data_1_1Market_1_1IBaseDataBar.html" target="_top" xlink:title="Represents a type that is both a bar and base data">
<polygon fill="white" stroke="black" points="82.5,-67.5 82.5,-86.5 165.5,-86.5 165.5,-67.5 82.5,-67.5"/>
<text text-anchor="middle" x="124" y="-74.5" font-family="Helvetica,sans-Serif" font-size="10.00">IBaseDataBar</text>
</a>
</g>
</g>
<!-- Node3&#45;&gt;Node4 -->
<g id="edge4" class="edge">
<title>Node3&#45;&gt;Node4</title>
<path fill="none" stroke="midnightblue" d="M64.57,-117.62C79.36,-107.76 98.51,-94.99 111.02,-86.65"/>
<polygon fill="midnightblue" stroke="midnightblue" points="62.39,-114.86 56.01,-123.32 66.28,-120.69 62.39,-114.86"/>
</g>
<!-- Node4&#45;&gt;Node1 -->
<g id="edge3" class="edge">
<title>Node4&#45;&gt;Node1</title>
<path fill="none" stroke="midnightblue" d="M111.27,-59.53C104.22,-50.42 95.56,-39.21 88.84,-30.52"/>
<polygon fill="midnightblue" stroke="midnightblue" points="108.52,-61.7 117.41,-67.48 114.06,-57.42 108.52,-61.7"/>
</g>
<!-- Node5 -->
<g id="node5" class="node">
<title>Node5</title>
<g id="a_node5"><a xlink:href="interfaceQuantConnect_1_1Data_1_1Market_1_1IBar.html" target="_top" xlink:title="Generic bar interface with Open, High, Low and Close.">
<polygon fill="white" stroke="black" points="106,-123.5 106,-142.5 142,-142.5 142,-123.5 106,-123.5"/>
<text text-anchor="middle" x="124" y="-130.5" font-family="Helvetica,sans-Serif" font-size="10.00">IBar</text>
</a>
</g>
</g>
<!-- Node5&#45;&gt;Node4 -->
<g id="edge5" class="edge">
<title>Node5&#45;&gt;Node4</title>
<path fill="none" stroke="midnightblue" d="M124,-112.8C124,-103.91 124,-93.78 124,-86.75"/>
<polygon fill="midnightblue" stroke="midnightblue" points="120.5,-113.08 124,-123.08 127.5,-113.08 120.5,-113.08"/>
</g>
</g>
</svg>
