<?xml version="1.0" encoding="UTF-8" standalone="no"?>
<!DOCTYPE svg PUBLIC "-//W3C//DTD SVG 1.1//EN"
 "http://www.w3.org/Graphics/SVG/1.1/DTD/svg11.dtd">
<!-- Generated by graphviz version 2.43.0 (0)
 -->
<!-- Title: QuantConnect.Data.BaseData Pages: 1 -->
<svg width="944pt" height="1244pt"
 viewBox="0.00 0.00 944.00 1244.00" xmlns="http://www.w3.org/2000/svg" xmlns:xlink="http://www.w3.org/1999/xlink">
<g id="graph0" class="graph" transform="scale(1 1) rotate(0) translate(4 1240)">
<title>QuantConnect.Data.BaseData</title>
<polygon fill="white" stroke="transparent" points="-4,4 -4,-1240 940,-1240 940,4 -4,4"/>
<!-- Node1 -->
<g id="node1" class="node">
<title>Node1</title>
<g id="a_node1"><a xlink:title="Abstract base data class of QuantConnect. It is intended to be extended to define generic user custom...">
<polygon fill="#bfbfbf" stroke="black" points="103,-608 103,-627 265,-627 265,-608 103,-608"/>
<text text-anchor="middle" x="184" y="-615" font-family="Helvetica,sans-Serif" font-size="10.00">QuantConnect.Data.BaseData</text>
</a>
</g>
</g>
<!-- Node3 -->
<g id="node3" class="node">
<title>Node3</title>
<g id="a_node3"><a xlink:href="classQuantConnect_1_1Data_1_1Auxiliary_1_1ZipEntryName.html" target="_top" xlink:title="Defines a data type that just produces data points from the zip entry names in a zip file">
<polygon fill="white" stroke="black" points="332.5,-1205.5 332.5,-1235.5 492.5,-1235.5 492.5,-1205.5 332.5,-1205.5"/>
<text text-anchor="start" x="340.5" y="-1223.5" font-family="Helvetica,sans-Serif" font-size="10.00">QuantConnect.Data.Auxiliary.</text>
<text text-anchor="middle" x="412.5" y="-1212.5" font-family="Helvetica,sans-Serif" font-size="10.00">ZipEntryName</text>
</a>
</g>
</g>
<!-- Node1&#45;&gt;Node3 -->
<g id="edge2" class="edge">
<title>Node1&#45;&gt;Node3</title>
<path fill="none" stroke="midnightblue" d="M186.14,-637.44C191.83,-729.73 220.15,-1114.33 301,-1196.5 309.61,-1205.25 320.6,-1211.15 332.29,-1215.08"/>
<polygon fill="midnightblue" stroke="midnightblue" points="189.62,-637.03 185.53,-627.25 182.64,-637.44 189.62,-637.03"/>
</g>
<!-- Node4 -->
<g id="node4" class="node">
<title>Node4</title>
<g id="a_node4"><a xlink:href="classQuantConnect_1_1Data_1_1Custom_1_1AlphaStreams_1_1AlphaStreamsOrderEvent.html" target="_top" xlink:title="Snapshot of an algorithms portfolio state">
<polygon fill="white" stroke="black" points="307,-1156.5 307,-1186.5 518,-1186.5 518,-1156.5 307,-1156.5"/>
<text text-anchor="start" x="315" y="-1174.5" font-family="Helvetica,sans-Serif" font-size="10.00">QuantConnect.Data.Custom.</text>
<text text-anchor="middle" x="412.5" y="-1163.5" font-family="Helvetica,sans-Serif" font-size="10.00">AlphaStreams.AlphaStreamsOrderEvent</text>
</a>
</g>
</g>
<!-- Node1&#45;&gt;Node4 -->
<g id="edge3" class="edge">
<title>Node1&#45;&gt;Node4</title>
<path fill="none" stroke="midnightblue" d="M186.54,-637.4C193.68,-724.75 226.52,-1073.14 301,-1147.5 304.33,-1150.83 308.01,-1153.74 311.95,-1156.3"/>
<polygon fill="midnightblue" stroke="midnightblue" points="190.01,-636.95 185.73,-627.26 183.03,-637.51 190.01,-636.95"/>
</g>
<!-- Node5 -->
<g id="node5" class="node">
<title>Node5</title>
<g id="a_node5"><a xlink:href="classQuantConnect_1_1Data_1_1Custom_1_1AlphaStreams_1_1AlphaStreamsPortfolioState.html" target="_top" xlink:title="Snapshot of an algorithms portfolio state">
<polygon fill="white" stroke="black" points="301,-1107.5 301,-1137.5 524,-1137.5 524,-1107.5 301,-1107.5"/>
<text text-anchor="start" x="309" y="-1125.5" font-family="Helvetica,sans-Serif" font-size="10.00">QuantConnect.Data.Custom.</text>
<text text-anchor="middle" x="412.5" y="-1114.5" font-family="Helvetica,sans-Serif" font-size="10.00">AlphaStreams.AlphaStreamsPortfolioState</text>
</a>
</g>
</g>
<!-- Node1&#45;&gt;Node5 -->
<g id="edge4" class="edge">
<title>Node1&#45;&gt;Node5</title>
<path fill="none" stroke="midnightblue" d="M186.98,-637.11C195.64,-718.92 232.8,-1031.83 301,-1098.5 304.37,-1101.79 308.08,-1104.68 312.03,-1107.21"/>
<polygon fill="midnightblue" stroke="midnightblue" points="190.46,-636.74 185.95,-627.15 183.5,-637.46 190.46,-636.74"/>
</g>
<!-- Node6 -->
<g id="node6" class="node">
<title>Node6</title>
<g id="a_node6"><a xlink:href="classQuantConnect_1_1Data_1_1Custom_1_1FxcmVolume.html" target="_top" xlink:title="FXCM Real FOREX Volume and Transaction data from its clients base, available for the following pairs:">
<polygon fill="white" stroke="black" points="335,-1058.5 335,-1088.5 490,-1088.5 490,-1058.5 335,-1058.5"/>
<text text-anchor="start" x="343" y="-1076.5" font-family="Helvetica,sans-Serif" font-size="10.00">QuantConnect.Data.Custom.</text>
<text text-anchor="middle" x="412.5" y="-1065.5" font-family="Helvetica,sans-Serif" font-size="10.00">FxcmVolume</text>
</a>
</g>
</g>
<!-- Node1&#45;&gt;Node6 -->
<g id="edge5" class="edge">
<title>Node1&#45;&gt;Node6</title>
<path fill="none" stroke="midnightblue" d="M187.61,-637.52C198.04,-714.59 239.23,-990.65 301,-1049.5 310.38,-1058.44 322.27,-1064.36 334.75,-1068.23"/>
<polygon fill="midnightblue" stroke="midnightblue" points="191.03,-636.74 186.24,-627.28 184.09,-637.66 191.03,-636.74"/>
</g>
<!-- Node7 -->
<g id="node7" class="node">
<title>Node7</title>
<g id="a_node7"><a xlink:href="classQuantConnect_1_1Data_1_1Custom_1_1IconicTypes_1_1LinkedData.html" target="_top" xlink:title="Data source that is linked (tickers that can have renames or be delisted)">
<polygon fill="white" stroke="black" points="335,-1009.5 335,-1039.5 490,-1039.5 490,-1009.5 335,-1009.5"/>
<text text-anchor="start" x="343" y="-1027.5" font-family="Helvetica,sans-Serif" font-size="10.00">QuantConnect.Data.Custom.</text>
<text text-anchor="middle" x="412.5" y="-1016.5" font-family="Helvetica,sans-Serif" font-size="10.00">IconicTypes.LinkedData</text>
</a>
</g>
</g>
<!-- Node1&#45;&gt;Node7 -->
<g id="edge6" class="edge">
<title>Node1&#45;&gt;Node7</title>
<path fill="none" stroke="midnightblue" d="M184.52,-637.17C184.11,-700.34 191.89,-899.81 301,-1000.5 310.52,-1009.29 322.48,-1015.14 334.98,-1018.98"/>
<polygon fill="midnightblue" stroke="midnightblue" points="188.02,-637.06 184.67,-627.01 181.02,-636.96 188.02,-637.06"/>
</g>
<!-- Node8 -->
<g id="node8" class="node">
<title>Node8</title>
<g id="a_node8"><a xlink:href="classQuantConnect_1_1Data_1_1Custom_1_1IconicTypes_1_1UnlinkedData.html" target="_top" xlink:title="Data source that is unlinked (no mapping) and takes any ticker when calling AddData">
<polygon fill="white" stroke="black" points="335,-960.5 335,-990.5 490,-990.5 490,-960.5 335,-960.5"/>
<text text-anchor="start" x="343" y="-978.5" font-family="Helvetica,sans-Serif" font-size="10.00">QuantConnect.Data.Custom.</text>
<text text-anchor="middle" x="412.5" y="-967.5" font-family="Helvetica,sans-Serif" font-size="10.00">IconicTypes.UnlinkedData</text>
</a>
</g>
</g>
<!-- Node1&#45;&gt;Node8 -->
<g id="edge7" class="edge">
<title>Node1&#45;&gt;Node8</title>
<path fill="none" stroke="midnightblue" d="M185.53,-637.31C188.2,-695.26 204.32,-865.81 301,-951.5 310.62,-960.03 322.56,-965.76 334.99,-969.58"/>
<polygon fill="midnightblue" stroke="midnightblue" points="189.02,-637.14 185.15,-627.27 182.03,-637.4 189.02,-637.14"/>
</g>
<!-- Node9 -->
<g id="node9" class="node">
<title>Node9</title>
<g id="a_node9"><a xlink:href="classQuantConnect_1_1Data_1_1Custom_1_1Intrinio_1_1IntrinioEconomicData.html" target="_top" xlink:title="Access the massive repository of economic data from the Federal Reserve Economic Data system via the ...">
<polygon fill="white" stroke="black" points="333,-911.5 333,-941.5 492,-941.5 492,-911.5 333,-911.5"/>
<text text-anchor="start" x="341" y="-929.5" font-family="Helvetica,sans-Serif" font-size="10.00">QuantConnect.Data.Custom.</text>
<text text-anchor="middle" x="412.5" y="-918.5" font-family="Helvetica,sans-Serif" font-size="10.00">Intrinio.IntrinioEconomicData</text>
</a>
</g>
</g>
<!-- Node1&#45;&gt;Node9 -->
<g id="edge8" class="edge">
<title>Node1&#45;&gt;Node9</title>
<path fill="none" stroke="midnightblue" d="M186.93,-637.36C193.09,-689.37 217.12,-830.45 301,-901.5 310.16,-909.25 321.22,-914.73 332.77,-918.58"/>
<polygon fill="midnightblue" stroke="midnightblue" points="190.38,-636.72 185.82,-627.15 183.42,-637.47 190.38,-636.72"/>
</g>
<!-- Node10 -->
<g id="node10" class="node">
<title>Node10</title>
<g id="a_node10"><a xlink:href="classQuantConnect_1_1Data_1_1DynamicData.html" target="_top" xlink:title="Dynamic Data Class: Accept flexible data, adapting to the columns provided by source.">
<polygon fill="white" stroke="black" points="321.5,-873 321.5,-892 503.5,-892 503.5,-873 321.5,-873"/>
<text text-anchor="middle" x="412.5" y="-880" font-family="Helvetica,sans-Serif" font-size="10.00">QuantConnect.Data.DynamicData</text>
</a>
</g>
</g>
<!-- Node1&#45;&gt;Node10 -->
<g id="edge9" class="edge">
<title>Node1&#45;&gt;Node10</title>
<path fill="none" stroke="midnightblue" d="M188.13,-637.34C196.72,-684.64 225.25,-804.46 301,-862.5 307.19,-867.24 314.14,-870.99 321.47,-873.94"/>
<polygon fill="midnightblue" stroke="midnightblue" points="191.53,-636.46 186.4,-627.19 184.63,-637.64 191.53,-636.46"/>
</g>
<!-- Node12 -->
<g id="node12" class="node">
<title>Node12</title>
<g id="a_node12"><a xlink:href="classQuantConnect_1_1Data_1_1IndexedBaseData.html" target="_top" xlink:title="Abstract indexed base data class of QuantConnect. It is intended to be extended to define customizabl...">
<polygon fill="white" stroke="black" points="336,-823.5 336,-853.5 489,-853.5 489,-823.5 336,-823.5"/>
<text text-anchor="start" x="344" y="-841.5" font-family="Helvetica,sans-Serif" font-size="10.00">QuantConnect.Data.Indexed</text>
<text text-anchor="middle" x="412.5" y="-830.5" font-family="Helvetica,sans-Serif" font-size="10.00">BaseData</text>
</a>
</g>
</g>
<!-- Node1&#45;&gt;Node12 -->
<g id="edge11" class="edge">
<title>Node1&#45;&gt;Node12</title>
<path fill="none" stroke="midnightblue" d="M190.7,-636.92C203.45,-676.74 238.19,-767.75 301,-813.5 311.26,-820.97 323.36,-826.26 335.72,-830"/>
<polygon fill="midnightblue" stroke="midnightblue" points="193.97,-635.65 187.69,-627.12 187.29,-637.71 193.97,-635.65"/>
</g>
<!-- Node15 -->
<g id="node15" class="node">
<title>Node15</title>
<g id="a_node15"><a xlink:href="classQuantConnect_1_1Data_1_1Market_1_1Delisting.html" target="_top" xlink:title="Delisting event of a security">
<polygon fill="white" stroke="black" points="336.5,-774.5 336.5,-804.5 488.5,-804.5 488.5,-774.5 336.5,-774.5"/>
<text text-anchor="start" x="344.5" y="-792.5" font-family="Helvetica,sans-Serif" font-size="10.00">QuantConnect.Data.Market.</text>
<text text-anchor="middle" x="412.5" y="-781.5" font-family="Helvetica,sans-Serif" font-size="10.00">Delisting</text>
</a>
</g>
</g>
<!-- Node1&#45;&gt;Node15 -->
<g id="edge14" class="edge">
<title>Node1&#45;&gt;Node15</title>
<path fill="none" stroke="midnightblue" d="M194.35,-636.36C211.1,-668.12 249.39,-731.95 301,-764.5 311.65,-771.21 323.88,-776.13 336.23,-779.74"/>
<polygon fill="midnightblue" stroke="midnightblue" points="197.35,-634.56 189.67,-627.26 191.13,-637.76 197.35,-634.56"/>
</g>
<!-- Node16 -->
<g id="node16" class="node">
<title>Node16</title>
<g id="a_node16"><a xlink:href="classQuantConnect_1_1Data_1_1Market_1_1Dividend.html" target="_top" xlink:title="Dividend event from a security">
<polygon fill="white" stroke="black" points="336.5,-725.5 336.5,-755.5 488.5,-755.5 488.5,-725.5 336.5,-725.5"/>
<text text-anchor="start" x="344.5" y="-743.5" font-family="Helvetica,sans-Serif" font-size="10.00">QuantConnect.Data.Market.</text>
<text text-anchor="middle" x="412.5" y="-732.5" font-family="Helvetica,sans-Serif" font-size="10.00">Dividend</text>
</a>
</g>
</g>
<!-- Node1&#45;&gt;Node16 -->
<g id="edge15" class="edge">
<title>Node1&#45;&gt;Node16</title>
<path fill="none" stroke="midnightblue" d="M200.2,-634.67C220.8,-656.83 259.77,-694.97 301,-715.5 312,-720.98 324.22,-725.27 336.4,-728.63"/>
<polygon fill="midnightblue" stroke="midnightblue" points="202.56,-632.06 193.24,-627.03 197.38,-636.78 202.56,-632.06"/>
</g>
<!-- Node17 -->
<g id="node17" class="node">
<title>Node17</title>
<g id="a_node17"><a xlink:href="classQuantConnect_1_1Data_1_1Market_1_1FuturesChain.html" target="_top" xlink:title="Represents an entire chain of futures contracts for a single underlying This type is IEnumerable&lt;Futu...">
<polygon fill="white" stroke="black" points="336.5,-676.5 336.5,-706.5 488.5,-706.5 488.5,-676.5 336.5,-676.5"/>
<text text-anchor="start" x="344.5" y="-694.5" font-family="Helvetica,sans-Serif" font-size="10.00">QuantConnect.Data.Market.</text>
<text text-anchor="middle" x="412.5" y="-683.5" font-family="Helvetica,sans-Serif" font-size="10.00">FuturesChain</text>
</a>
</g>
</g>
<!-- Node1&#45;&gt;Node17 -->
<g id="edge16" class="edge">
<title>Node1&#45;&gt;Node17</title>
<path fill="none" stroke="midnightblue" d="M213.96,-631.43C237.1,-642.14 270.59,-656.72 301,-666.5 312.42,-670.17 324.67,-673.51 336.71,-676.47"/>
<polygon fill="midnightblue" stroke="midnightblue" points="215.25,-628.17 204.71,-627.1 212.28,-634.51 215.25,-628.17"/>
</g>
<!-- Node18 -->
<g id="node18" class="node">
<title>Node18</title>
<g id="a_node18"><a xlink:href="classQuantConnect_1_1Data_1_1Market_1_1OptionChain.html" target="_top" xlink:title="Represents an entire chain of option contracts for a single underying security. This type is IEnumera...">
<polygon fill="white" stroke="black" points="336.5,-627.5 336.5,-657.5 488.5,-657.5 488.5,-627.5 336.5,-627.5"/>
<text text-anchor="start" x="344.5" y="-645.5" font-family="Helvetica,sans-Serif" font-size="10.00">QuantConnect.Data.Market.</text>
<text text-anchor="middle" x="412.5" y="-634.5" font-family="Helvetica,sans-Serif" font-size="10.00">OptionChain</text>
</a>
</g>
</g>
<!-- Node1&#45;&gt;Node18 -->
<g id="edge17" class="edge">
<title>Node1&#45;&gt;Node18</title>
<path fill="none" stroke="midnightblue" d="M275.33,-627.47C295.57,-629.7 316.82,-632.05 336.36,-634.21"/>
<polygon fill="midnightblue" stroke="midnightblue" points="275.5,-623.97 265.17,-626.35 274.73,-630.93 275.5,-623.97"/>
</g>
<!-- Node19 -->
<g id="node19" class="node">
<title>Node19</title>
<g id="a_node19"><a xlink:href="classQuantConnect_1_1Data_1_1Market_1_1QuoteBar.html" target="_top" xlink:title="QuoteBar class for second and minute resolution data: An OHLC implementation of the QuantConnect Base...">
<polygon fill="white" stroke="black" points="336.5,-578.5 336.5,-608.5 488.5,-608.5 488.5,-578.5 336.5,-578.5"/>
<text text-anchor="start" x="344.5" y="-596.5" font-family="Helvetica,sans-Serif" font-size="10.00">QuantConnect.Data.Market.</text>
<text text-anchor="middle" x="412.5" y="-585.5" font-family="Helvetica,sans-Serif" font-size="10.00">QuoteBar</text>
</a>
</g>
</g>
<!-- Node1&#45;&gt;Node19 -->
<g id="edge18" class="edge">
<title>Node1&#45;&gt;Node19</title>
<path fill="none" stroke="midnightblue" d="M275.33,-607.93C295.57,-605.78 316.82,-603.53 336.36,-601.46"/>
<polygon fill="midnightblue" stroke="midnightblue" points="274.75,-604.47 265.17,-609 275.49,-611.43 274.75,-604.47"/>
</g>
<!-- Node20 -->
<g id="node20" class="node">
<title>Node20</title>
<g id="a_node20"><a xlink:href="classQuantConnect_1_1Data_1_1Market_1_1RenkoBar.html" target="_top" xlink:title="Represents a bar sectioned not by time, but by some amount of movement in a value (for example,...">
<polygon fill="white" stroke="black" points="336.5,-529.5 336.5,-559.5 488.5,-559.5 488.5,-529.5 336.5,-529.5"/>
<text text-anchor="start" x="344.5" y="-547.5" font-family="Helvetica,sans-Serif" font-size="10.00">QuantConnect.Data.Market.</text>
<text text-anchor="middle" x="412.5" y="-536.5" font-family="Helvetica,sans-Serif" font-size="10.00">RenkoBar</text>
</a>
</g>
</g>
<!-- Node1&#45;&gt;Node20 -->
<g id="edge19" class="edge">
<title>Node1&#45;&gt;Node20</title>
<path fill="none" stroke="midnightblue" d="M213.93,-603.5C237.06,-592.75 270.55,-578.15 301,-568.5 312.32,-564.91 324.46,-561.68 336.41,-558.84"/>
<polygon fill="midnightblue" stroke="midnightblue" points="212.25,-600.42 204.69,-607.85 215.23,-606.76 212.25,-600.42"/>
</g>
<!-- Node21 -->
<g id="node21" class="node">
<title>Node21</title>
<g id="a_node21"><a xlink:href="classQuantConnect_1_1Data_1_1Market_1_1Split.html" target="_top" xlink:title="Split event from a security">
<polygon fill="white" stroke="black" points="336.5,-480.5 336.5,-510.5 488.5,-510.5 488.5,-480.5 336.5,-480.5"/>
<text text-anchor="start" x="344.5" y="-498.5" font-family="Helvetica,sans-Serif" font-size="10.00">QuantConnect.Data.Market.</text>
<text text-anchor="middle" x="412.5" y="-487.5" font-family="Helvetica,sans-Serif" font-size="10.00">Split</text>
</a>
</g>
</g>
<!-- Node1&#45;&gt;Node21 -->
<g id="edge20" class="edge">
<title>Node1&#45;&gt;Node21</title>
<path fill="none" stroke="midnightblue" d="M200.17,-600.28C220.74,-578.06 259.69,-539.85 301,-519.5 312.01,-514.08 324.23,-509.87 336.41,-506.61"/>
<polygon fill="midnightblue" stroke="midnightblue" points="197.35,-598.18 193.22,-607.94 202.53,-602.89 197.35,-598.18"/>
</g>
<!-- Node22 -->
<g id="node22" class="node">
<title>Node22</title>
<g id="a_node22"><a xlink:href="classQuantConnect_1_1Data_1_1Market_1_1SymbolChangedEvent.html" target="_top" xlink:title="Symbol changed event of a security. This is generated when a symbol is remapped for a given security,...">
<polygon fill="white" stroke="black" points="336.5,-431.5 336.5,-461.5 488.5,-461.5 488.5,-431.5 336.5,-431.5"/>
<text text-anchor="start" x="344.5" y="-449.5" font-family="Helvetica,sans-Serif" font-size="10.00">QuantConnect.Data.Market.</text>
<text text-anchor="middle" x="412.5" y="-438.5" font-family="Helvetica,sans-Serif" font-size="10.00">SymbolChangedEvent</text>
</a>
</g>
</g>
<!-- Node1&#45;&gt;Node22 -->
<g id="edge21" class="edge">
<title>Node1&#45;&gt;Node22</title>
<path fill="none" stroke="midnightblue" d="M194.32,-598.59C211.03,-566.77 249.25,-502.82 301,-470.5 311.66,-463.84 323.89,-459.02 336.25,-455.52"/>
<polygon fill="midnightblue" stroke="midnightblue" points="191.09,-597.21 189.66,-607.71 197.32,-600.4 191.09,-597.21"/>
</g>
<!-- Node23 -->
<g id="node23" class="node">
<title>Node23</title>
<g id="a_node23"><a xlink:href="classQuantConnect_1_1Data_1_1Market_1_1Tick.html" target="_top" xlink:title="Tick class is the base representation for tick data. It is grouped into a Ticks object which implemen...">
<polygon fill="white" stroke="black" points="326.5,-393 326.5,-412 498.5,-412 498.5,-393 326.5,-393"/>
<text text-anchor="middle" x="412.5" y="-400" font-family="Helvetica,sans-Serif" font-size="10.00">QuantConnect.Data.Market.Tick</text>
</a>
</g>
</g>
<!-- Node1&#45;&gt;Node23 -->
<g id="edge22" class="edge">
<title>Node1&#45;&gt;Node23</title>
<path fill="none" stroke="midnightblue" d="M190.43,-598.07C202.76,-557.89 236.88,-465.68 301,-421.5 308.69,-416.2 317.39,-412.22 326.43,-409.25"/>
<polygon fill="midnightblue" stroke="midnightblue" points="187.06,-597.16 187.59,-607.74 193.77,-599.14 187.06,-597.16"/>
</g>
<!-- Node25 -->
<g id="node25" class="node">
<title>Node25</title>
<g id="a_node25"><a xlink:href="classQuantConnect_1_1Data_1_1Market_1_1TradeBar.html" target="_top" xlink:title="TradeBar class for second and minute resolution data: An OHLC implementation of the QuantConnect Base...">
<polygon fill="white" stroke="black" points="336.5,-343.5 336.5,-373.5 488.5,-373.5 488.5,-343.5 336.5,-343.5"/>
<text text-anchor="start" x="344.5" y="-361.5" font-family="Helvetica,sans-Serif" font-size="10.00">QuantConnect.Data.Market.</text>
<text text-anchor="middle" x="412.5" y="-350.5" font-family="Helvetica,sans-Serif" font-size="10.00">TradeBar</text>
</a>
</g>
</g>
<!-- Node1&#45;&gt;Node25 -->
<g id="edge24" class="edge">
<title>Node1&#45;&gt;Node25</title>
<path fill="none" stroke="midnightblue" d="M188.85,-597.52C198.72,-551.93 229.38,-439.84 301,-383.5 311.28,-375.41 323.68,-369.84 336.39,-366.02"/>
<polygon fill="midnightblue" stroke="midnightblue" points="185.36,-597.1 186.77,-607.6 192.22,-598.51 185.36,-597.1"/>
</g>
<!-- Node29 -->
<g id="node29" class="node">
<title>Node29</title>
<g id="a_node29"><a xlink:href="classQuantConnect_1_1Data_1_1UniverseSelection_1_1BaseDataCollection.html" target="_top" xlink:title="This type exists for transport of data as a single packet">
<polygon fill="white" stroke="black" points="332,-294.5 332,-324.5 493,-324.5 493,-294.5 332,-294.5"/>
<text text-anchor="start" x="340" y="-312.5" font-family="Helvetica,sans-Serif" font-size="10.00">QuantConnect.Data.Universe</text>
<text text-anchor="middle" x="412.5" y="-301.5" font-family="Helvetica,sans-Serif" font-size="10.00">Selection.BaseDataCollection</text>
</a>
</g>
</g>
<!-- Node1&#45;&gt;Node29 -->
<g id="edge28" class="edge">
<title>Node1&#45;&gt;Node29</title>
<path fill="none" stroke="midnightblue" d="M186.9,-597.6C192.97,-545.49 216.82,-404.18 301,-333.5 309.95,-325.99 320.7,-320.67 331.94,-316.94"/>
<polygon fill="midnightblue" stroke="midnightblue" points="183.39,-597.51 185.8,-607.83 190.35,-598.25 183.39,-597.51"/>
</g>
<!-- Node30 -->
<g id="node30" class="node">
<title>Node30</title>
<g id="a_node30"><a xlink:href="classQuantConnect_1_1Data_1_1UniverseSelection_1_1CoarseFundamental.html" target="_top" xlink:title="Defines summary information about a single symbol for a given date">
<polygon fill="white" stroke="black" points="331.5,-245.5 331.5,-275.5 493.5,-275.5 493.5,-245.5 331.5,-245.5"/>
<text text-anchor="start" x="339.5" y="-263.5" font-family="Helvetica,sans-Serif" font-size="10.00">QuantConnect.Data.Universe</text>
<text text-anchor="middle" x="412.5" y="-252.5" font-family="Helvetica,sans-Serif" font-size="10.00">Selection.CoarseFundamental</text>
</a>
</g>
</g>
<!-- Node1&#45;&gt;Node30 -->
<g id="edge29" class="edge">
<title>Node1&#45;&gt;Node30</title>
<path fill="none" stroke="midnightblue" d="M185.55,-597.75C188.28,-539.97 204.53,-369.92 301,-284.5 309.67,-276.82 320.22,-271.41 331.31,-267.62"/>
<polygon fill="midnightblue" stroke="midnightblue" points="182.05,-597.63 185.16,-607.75 189.05,-597.9 182.05,-597.63"/>
</g>
<!-- Node31 -->
<g id="node31" class="node">
<title>Node31</title>
<g id="a_node31"><a xlink:href="classQuantConnect_1_1Data_1_1UniverseSelection_1_1ConstituentsUniverseData.html" target="_top" xlink:title="Custom base data class used for ConstituentsUniverse">
<polygon fill="white" stroke="black" points="316,-196.5 316,-226.5 509,-226.5 509,-196.5 316,-196.5"/>
<text text-anchor="start" x="324" y="-214.5" font-family="Helvetica,sans-Serif" font-size="10.00">QuantConnect.Data.Universe</text>
<text text-anchor="middle" x="412.5" y="-203.5" font-family="Helvetica,sans-Serif" font-size="10.00">Selection.ConstituentsUniverseData</text>
</a>
</g>
</g>
<!-- Node1&#45;&gt;Node31 -->
<g id="edge30" class="edge">
<title>Node1&#45;&gt;Node31</title>
<path fill="none" stroke="midnightblue" d="M184.53,-597.46C184.22,-534 192.36,-335.69 301,-235.5 305.47,-231.37 310.48,-227.9 315.84,-224.97"/>
<polygon fill="midnightblue" stroke="midnightblue" points="181.04,-597.74 184.67,-607.69 188.04,-597.65 181.04,-597.74"/>
</g>
<!-- Node32 -->
<g id="node32" class="node">
<title>Node32</title>
<g id="a_node32"><a xlink:href="classQuantConnect_1_1Data_1_1UniverseSelection_1_1ETFConstituentData.html" target="_top" xlink:title="ETF constituent data">
<polygon fill="white" stroke="black" points="331.5,-147.5 331.5,-177.5 493.5,-177.5 493.5,-147.5 331.5,-147.5"/>
<text text-anchor="start" x="339.5" y="-165.5" font-family="Helvetica,sans-Serif" font-size="10.00">QuantConnect.Data.Universe</text>
<text text-anchor="middle" x="412.5" y="-154.5" font-family="Helvetica,sans-Serif" font-size="10.00">Selection.ETFConstituentData</text>
</a>
</g>
</g>
<!-- Node1&#45;&gt;Node32 -->
<g id="edge31" class="edge">
<title>Node1&#45;&gt;Node32</title>
<path fill="none" stroke="midnightblue" d="M187.61,-597.52C198.07,-520.63 239.35,-245.2 301,-186.5 309.53,-178.38 320.13,-172.74 331.37,-168.88"/>
<polygon fill="midnightblue" stroke="midnightblue" points="184.1,-597.36 186.25,-607.74 191.04,-598.29 184.1,-597.36"/>
</g>
<!-- Node33 -->
<g id="node33" class="node">
<title>Node33</title>
<g id="a_node33"><a xlink:href="classQuantConnect_1_1DataSource_1_1NullData.html" target="_top" xlink:title="Represents a custom data type place holder">
<polygon fill="white" stroke="black" points="338.5,-98.5 338.5,-128.5 486.5,-128.5 486.5,-98.5 338.5,-98.5"/>
<text text-anchor="start" x="346.5" y="-116.5" font-family="Helvetica,sans-Serif" font-size="10.00">QuantConnect.DataSource.</text>
<text text-anchor="middle" x="412.5" y="-105.5" font-family="Helvetica,sans-Serif" font-size="10.00">NullData</text>
</a>
</g>
</g>
<!-- Node1&#45;&gt;Node33 -->
<g id="edge32" class="edge">
<title>Node1&#45;&gt;Node33</title>
<path fill="none" stroke="midnightblue" d="M187.04,-597.43C195.82,-515.01 233.05,-203.88 301,-137.5 311.18,-127.55 324.46,-121.32 338.26,-117.48"/>
<polygon fill="midnightblue" stroke="midnightblue" points="183.51,-597.56 185.95,-607.87 190.47,-598.29 183.51,-597.56"/>
</g>
<!-- Node34 -->
<g id="node34" class="node">
<title>Node34</title>
<g id="a_node34"><a xlink:href="classQuantConnect_1_1Indicators_1_1IndicatorDataPoint.html" target="_top" xlink:title="Represents a piece of data at a specific time">
<polygon fill="white" stroke="black" points="342.5,-49.5 342.5,-79.5 482.5,-79.5 482.5,-49.5 342.5,-49.5"/>
<text text-anchor="start" x="350.5" y="-67.5" font-family="Helvetica,sans-Serif" font-size="10.00">QuantConnect.Indicators.</text>
<text text-anchor="middle" x="412.5" y="-56.5" font-family="Helvetica,sans-Serif" font-size="10.00">IndicatorDataPoint</text>
</a>
</g>
</g>
<!-- Node1&#45;&gt;Node34 -->
<g id="edge33" class="edge">
<title>Node1&#45;&gt;Node34</title>
<path fill="none" stroke="midnightblue" d="M186.54,-597.64C193.71,-510.45 226.64,-162.71 301,-88.5 312.12,-77.41 327.08,-70.9 342.39,-67.2"/>
<polygon fill="midnightblue" stroke="midnightblue" points="183.04,-597.51 185.73,-607.76 190.02,-598.07 183.04,-597.51"/>
</g>
<!-- Node35 -->
<g id="node35" class="node">
<title>Node35</title>
<g id="a_node35"><a xlink:href="classQuantConnect_1_1Indicators_1_1PivotPoint.html" target="_top" xlink:title="Represents the points identified by Pivot Point High/Low Indicator.">
<polygon fill="white" stroke="black" points="342.5,-0.5 342.5,-30.5 482.5,-30.5 482.5,-0.5 342.5,-0.5"/>
<text text-anchor="start" x="350.5" y="-18.5" font-family="Helvetica,sans-Serif" font-size="10.00">QuantConnect.Indicators.</text>
<text text-anchor="middle" x="412.5" y="-7.5" font-family="Helvetica,sans-Serif" font-size="10.00">PivotPoint</text>
</a>
</g>
</g>
<!-- Node1&#45;&gt;Node35 -->
<g id="edge34" class="edge">
<title>Node1&#45;&gt;Node35</title>
<path fill="none" stroke="midnightblue" d="M186.15,-597.59C191.86,-505.46 220.27,-121.52 301,-39.5 312.02,-28.31 326.94,-21.77 342.25,-18.06"/>
<polygon fill="midnightblue" stroke="midnightblue" points="182.64,-597.57 185.54,-607.76 189.63,-597.99 182.64,-597.57"/>
</g>
<!-- Node2 -->
<g id="node2" class="node">
<title>Node2</title>
<g id="a_node2"><a xlink:href="interfaceQuantConnect_1_1Data_1_1IBaseData.html" target="_top" xlink:title="Base Data Class: Type, Timestamp, Key – Base Features.">
<polygon fill="white" stroke="black" points="0,-608 0,-627 67,-627 67,-608 0,-608"/>
<text text-anchor="middle" x="33.5" y="-615" font-family="Helvetica,sans-Serif" font-size="10.00">IBaseData</text>
</a>
</g>
</g>
<!-- Node2&#45;&gt;Node1 -->
<g id="edge1" class="edge">
<title>Node2&#45;&gt;Node1</title>
<path fill="none" stroke="midnightblue" d="M77.28,-617.5C85.32,-617.5 93.97,-617.5 102.73,-617.5"/>
<polygon fill="midnightblue" stroke="midnightblue" points="77.09,-614 67.09,-617.5 77.09,-621 77.09,-614"/>
</g>
<!-- Node11 -->
<g id="node11" class="node">
<title>Node11</title>
<g id="a_node11"><a xlink:href="classQuantConnect_1_1Python_1_1PythonData.html" target="_top" xlink:title="Dynamic data class for Python algorithms. Stores properties of python instances in DynamicData dictio...">
<polygon fill="white" stroke="black" points="561.5,-873 561.5,-892 743.5,-892 743.5,-873 561.5,-873"/>
<text text-anchor="middle" x="652.5" y="-880" font-family="Helvetica,sans-Serif" font-size="10.00">QuantConnect.Python.PythonData</text>
</a>
</g>
</g>
<!-- Node10&#45;&gt;Node11 -->
<g id="edge10" class="edge">
<title>Node10&#45;&gt;Node11</title>
<path fill="none" stroke="midnightblue" d="M514.04,-882.5C529.71,-882.5 545.82,-882.5 561.24,-882.5"/>
<polygon fill="midnightblue" stroke="midnightblue" points="513.82,-879 503.82,-882.5 513.82,-886 513.82,-879"/>
</g>
<!-- Node13 -->
<g id="node13" class="node">
<title>Node13</title>
<g id="a_node13"><a xlink:href="classQuantConnect_1_1Data_1_1Custom_1_1IconicTypes_1_1IndexedLinkedData.html" target="_top" xlink:title="Data type that is indexed, i.e. a file that points to another file containing the contents we&#39;re look...">
<polygon fill="white" stroke="black" points="568,-823.5 568,-853.5 737,-853.5 737,-823.5 568,-823.5"/>
<text text-anchor="start" x="576" y="-841.5" font-family="Helvetica,sans-Serif" font-size="10.00">QuantConnect.Data.Custom.</text>
<text text-anchor="middle" x="652.5" y="-830.5" font-family="Helvetica,sans-Serif" font-size="10.00">IconicTypes.IndexedLinkedData</text>
</a>
</g>
</g>
<!-- Node12&#45;&gt;Node13 -->
<g id="edge12" class="edge">
<title>Node12&#45;&gt;Node13</title>
<path fill="none" stroke="midnightblue" d="M499.26,-838.5C521.58,-838.5 545.59,-838.5 567.8,-838.5"/>
<polygon fill="midnightblue" stroke="midnightblue" points="499.13,-835 489.13,-838.5 499.13,-842 499.13,-835"/>
</g>
<!-- Node14 -->
<g id="node14" class="node">
<title>Node14</title>
<g id="a_node14"><a xlink:href="classQuantConnect_1_1Data_1_1Custom_1_1IconicTypes_1_1IndexedLinkedData2.html" target="_top" xlink:title="Data type that is indexed, i.e. a file that points to another file containing the contents we&#39;re look...">
<polygon fill="white" stroke="black" points="565,-774.5 565,-804.5 740,-804.5 740,-774.5 565,-774.5"/>
<text text-anchor="start" x="573" y="-792.5" font-family="Helvetica,sans-Serif" font-size="10.00">QuantConnect.Data.Custom.</text>
<text text-anchor="middle" x="652.5" y="-781.5" font-family="Helvetica,sans-Serif" font-size="10.00">IconicTypes.IndexedLinkedData2</text>
</a>
</g>
</g>
<!-- Node12&#45;&gt;Node14 -->
<g id="edge13" class="edge">
<title>Node12&#45;&gt;Node14</title>
<path fill="none" stroke="midnightblue" d="M496.62,-821.39C523.33,-815.89 552.7,-809.84 578.61,-804.51"/>
<polygon fill="midnightblue" stroke="midnightblue" points="495.61,-818.02 486.53,-823.47 497.03,-824.88 495.61,-818.02"/>
</g>
<!-- Node24 -->
<g id="node24" class="node">
<title>Node24</title>
<g id="a_node24"><a xlink:href="classQuantConnect_1_1Data_1_1Market_1_1OpenInterest.html" target="_top" xlink:title="Defines a data type that represents open interest for given security">
<polygon fill="white" stroke="black" points="576.5,-392.5 576.5,-422.5 728.5,-422.5 728.5,-392.5 576.5,-392.5"/>
<text text-anchor="start" x="584.5" y="-410.5" font-family="Helvetica,sans-Serif" font-size="10.00">QuantConnect.Data.Market.</text>
<text text-anchor="middle" x="652.5" y="-399.5" font-family="Helvetica,sans-Serif" font-size="10.00">OpenInterest</text>
</a>
</g>
</g>
<!-- Node23&#45;&gt;Node24 -->
<g id="edge23" class="edge">
<title>Node23&#45;&gt;Node24</title>
<path fill="none" stroke="midnightblue" d="M508.95,-404.51C531.37,-404.98 554.94,-405.47 576.32,-405.92"/>
<polygon fill="midnightblue" stroke="midnightblue" points="508.82,-401 498.75,-404.29 508.68,-408 508.82,-401"/>
</g>
<!-- Node26 -->
<g id="node26" class="node">
<title>Node26</title>
<g id="a_node26"><a xlink:href="classQuantConnect_1_1Data_1_1Custom_1_1IconicTypes_1_1UnlinkedDataTradeBar.html" target="_top" xlink:title="Data source that is unlinked (no mapping) and takes any ticker when calling AddData">
<polygon fill="white" stroke="black" points="560,-343.5 560,-373.5 745,-373.5 745,-343.5 560,-343.5"/>
<text text-anchor="start" x="568" y="-361.5" font-family="Helvetica,sans-Serif" font-size="10.00">QuantConnect.Data.Custom.</text>
<text text-anchor="middle" x="652.5" y="-350.5" font-family="Helvetica,sans-Serif" font-size="10.00">IconicTypes.UnlinkedDataTradeBar</text>
</a>
</g>
</g>
<!-- Node25&#45;&gt;Node26 -->
<g id="edge25" class="edge">
<title>Node25&#45;&gt;Node26</title>
<path fill="none" stroke="midnightblue" d="M499.02,-358.5C518.81,-358.5 539.95,-358.5 559.99,-358.5"/>
<polygon fill="midnightblue" stroke="midnightblue" points="498.8,-355 488.8,-358.5 498.8,-362 498.8,-355"/>
</g>
<!-- Node27 -->
<g id="node27" class="node">
<title>Node27</title>
<g id="a_node27"><a xlink:href="classQuantConnect_1_1Data_1_1Custom_1_1Tiingo_1_1TiingoPrice.html" target="_top" xlink:title="Tiingo daily price data https://api.tiingo.com/docs/tiingo/daily">
<polygon fill="white" stroke="black" points="575,-294.5 575,-324.5 730,-324.5 730,-294.5 575,-294.5"/>
<text text-anchor="start" x="583" y="-312.5" font-family="Helvetica,sans-Serif" font-size="10.00">QuantConnect.Data.Custom.</text>
<text text-anchor="middle" x="652.5" y="-301.5" font-family="Helvetica,sans-Serif" font-size="10.00">Tiingo.TiingoPrice</text>
</a>
</g>
</g>
<!-- Node25&#45;&gt;Node27 -->
<g id="edge26" class="edge">
<title>Node25&#45;&gt;Node27</title>
<path fill="none" stroke="midnightblue" d="M496.62,-341.39C523.33,-335.89 552.7,-329.84 578.61,-324.51"/>
<polygon fill="midnightblue" stroke="midnightblue" points="495.61,-338.02 486.53,-343.47 497.03,-344.88 495.61,-338.02"/>
</g>
<!-- Node28 -->
<g id="node28" class="node">
<title>Node28</title>
<g id="a_node28"><a xlink:href="classQuantConnect_1_1Data_1_1Custom_1_1Tiingo_1_1TiingoDailyData.html" target="_top" xlink:title="Tiingo daily price data https://api.tiingo.com/docs/tiingo/daily">
<polygon fill="white" stroke="black" points="781,-294.5 781,-324.5 936,-324.5 936,-294.5 781,-294.5"/>
<text text-anchor="start" x="789" y="-312.5" font-family="Helvetica,sans-Serif" font-size="10.00">QuantConnect.Data.Custom.</text>
<text text-anchor="middle" x="858.5" y="-301.5" font-family="Helvetica,sans-Serif" font-size="10.00">Tiingo.TiingoDailyData</text>
</a>
</g>
</g>
<!-- Node27&#45;&gt;Node28 -->
<g id="edge27" class="edge">
<title>Node27&#45;&gt;Node28</title>
<path fill="none" stroke="midnightblue" d="M740.27,-309.5C753.77,-309.5 767.62,-309.5 780.87,-309.5"/>
<polygon fill="midnightblue" stroke="midnightblue" points="740.04,-306 730.04,-309.5 740.04,-313 740.04,-306"/>
</g>
</g>
</svg>
