<?xml version="1.0" encoding="UTF-8" standalone="no"?>
<!DOCTYPE svg PUBLIC "-//W3C//DTD SVG 1.1//EN"
 "http://www.w3.org/Graphics/SVG/1.1/DTD/svg11.dtd">
<!-- Generated by graphviz version 2.43.0 (0)
 -->
<!-- Title: QuantConnect.Lean.Engine.Alphas.DefaultAlphaHandler.ProcessSynchronousEvents Pages: 1 -->
<svg width="841pt" height="160pt"
 viewBox="0.00 0.00 841.00 160.00" xmlns="http://www.w3.org/2000/svg" xmlns:xlink="http://www.w3.org/1999/xlink">
<g id="graph0" class="graph" transform="scale(1 1) rotate(0) translate(4 156)">
<title>QuantConnect.Lean.Engine.Alphas.DefaultAlphaHandler.ProcessSynchronousEvents</title>
<polygon fill="white" stroke="transparent" points="-4,4 -4,-156 837,-156 837,4 -4,4"/>
<!-- Node1 -->
<g id="node1" class="node">
<title>Node1</title>
<g id="a_node1"><a xlink:title="Performs processing in sync with the algorithm&#39;s time loop to provide consisten reading of data">
<polygon fill="#bfbfbf" stroke="black" points="0,-55.5 0,-96.5 194,-96.5 194,-55.5 0,-55.5"/>
<text text-anchor="start" x="8" y="-84.5" font-family="Helvetica,sans-Serif" font-size="10.00">QuantConnect.Lean.Engine.</text>
<text text-anchor="start" x="8" y="-73.5" font-family="Helvetica,sans-Serif" font-size="10.00">Alphas.DefaultAlphaHandler.Process</text>
<text text-anchor="middle" x="97" y="-62.5" font-family="Helvetica,sans-Serif" font-size="10.00">SynchronousEvents</text>
</a>
</g>
</g>
<!-- Node2 -->
<g id="node2" class="node">
<title>Node2</title>
<g id="a_node2"><a xlink:href="interfaceQuantConnect_1_1Algorithm_1_1Framework_1_1Alphas_1_1Analysis_1_1ISecurityValuesProvider.html#a4389f9adcd7a19a51b493444c8f3c513" target="_top" xlink:title="Gets the current values for all the algorithm securities (price/volatility)">
<polygon fill="white" stroke="black" points="230,-110.5 230,-151.5 445,-151.5 445,-110.5 230,-110.5"/>
<text text-anchor="start" x="238" y="-139.5" font-family="Helvetica,sans-Serif" font-size="10.00">QuantConnect.Algorithm.Framework.</text>
<text text-anchor="start" x="238" y="-128.5" font-family="Helvetica,sans-Serif" font-size="10.00">Alphas.Analysis.ISecurityValuesProvider.</text>
<text text-anchor="middle" x="337.5" y="-117.5" font-family="Helvetica,sans-Serif" font-size="10.00">GetAllValues</text>
</a>
</g>
</g>
<!-- Node1&#45;&gt;Node2 -->
<g id="edge1" class="edge">
<title>Node1&#45;&gt;Node2</title>
<path fill="none" stroke="midnightblue" d="M187.15,-96.56C203.63,-100.36 220.93,-104.35 237.67,-108.21"/>
<polygon fill="midnightblue" stroke="midnightblue" points="236.93,-111.63 247.46,-110.47 238.5,-104.81 236.93,-111.63"/>
</g>
<!-- Node3 -->
<g id="node3" class="node">
<title>Node3</title>
<g id="a_node3"><a xlink:href="classQuantConnect_1_1Algorithm_1_1Framework_1_1Alphas_1_1Analysis_1_1InsightManager.html#ae521b8556f1fb3b8245f21e667bdf49e" target="_top" xlink:title="Steps the manager forward in time, accepting new state information and potentialy newly generated ins...">
<polygon fill="white" stroke="black" points="239,-61 239,-91 436,-91 436,-61 239,-61"/>
<text text-anchor="start" x="247" y="-79" font-family="Helvetica,sans-Serif" font-size="10.00">QuantConnect.Algorithm.Framework.</text>
<text text-anchor="middle" x="337.5" y="-68" font-family="Helvetica,sans-Serif" font-size="10.00">Alphas.Analysis.InsightManager.Step</text>
</a>
</g>
</g>
<!-- Node1&#45;&gt;Node3 -->
<g id="edge2" class="edge">
<title>Node1&#45;&gt;Node3</title>
<path fill="none" stroke="midnightblue" d="M194.32,-76C205.62,-76 217.2,-76 228.65,-76"/>
<polygon fill="midnightblue" stroke="midnightblue" points="228.66,-79.5 238.66,-76 228.66,-72.5 228.66,-79.5"/>
</g>
<!-- Node6 -->
<g id="node6" class="node">
<title>Node6</title>
<g id="a_node6"><a xlink:href="classQuantConnect_1_1Statistics_1_1FitnessScoreManager.html#a408eda4ac04ce367941683f98ef838cb" target="_top" xlink:title="Gets the fitness score value for the algorithms current state">
<polygon fill="white" stroke="black" points="242,-12 242,-42 433,-42 433,-12 242,-12"/>
<text text-anchor="start" x="250" y="-30" font-family="Helvetica,sans-Serif" font-size="10.00">QuantConnect.Statistics.</text>
<text text-anchor="middle" x="337.5" y="-19" font-family="Helvetica,sans-Serif" font-size="10.00">FitnessScoreManager.UpdateScores</text>
</a>
</g>
</g>
<!-- Node1&#45;&gt;Node6 -->
<g id="edge5" class="edge">
<title>Node1&#45;&gt;Node6</title>
<path fill="none" stroke="midnightblue" d="M194.32,-56.21C213.92,-52.18 234.37,-47.98 253.46,-44.06"/>
<polygon fill="midnightblue" stroke="midnightblue" points="254.21,-47.48 263.3,-42.04 252.8,-40.62 254.21,-47.48"/>
</g>
<!-- Node4 -->
<g id="node4" class="node">
<title>Node4</title>
<g id="a_node4"><a xlink:href="classQuantConnect_1_1Logging_1_1Log.html#af0e7955911bc7664b37661b2a303a9e3" target="_top" xlink:title="Log error">
<polygon fill="white" stroke="black" points="489,-61 489,-91 639,-91 639,-61 489,-61"/>
<text text-anchor="start" x="497" y="-79" font-family="Helvetica,sans-Serif" font-size="10.00">QuantConnect.Logging.Log.</text>
<text text-anchor="middle" x="564" y="-68" font-family="Helvetica,sans-Serif" font-size="10.00">Error</text>
</a>
</g>
</g>
<!-- Node3&#45;&gt;Node4 -->
<g id="edge3" class="edge">
<title>Node3&#45;&gt;Node4</title>
<path fill="none" stroke="midnightblue" d="M436.32,-76C450.35,-76 464.68,-76 478.43,-76"/>
<polygon fill="midnightblue" stroke="midnightblue" points="478.81,-79.5 488.81,-76 478.81,-72.5 478.81,-79.5"/>
</g>
<!-- Node5 -->
<g id="node5" class="node">
<title>Node5</title>
<g id="a_node5"><a xlink:href="interfaceQuantConnect_1_1Logging_1_1ILogHandler.html#a35373a0c5d76031fa5ccf5dc39e5c25d" target="_top" xlink:title="Write error message to log">
<polygon fill="white" stroke="black" points="683,-61 683,-91 833,-91 833,-61 683,-61"/>
<text text-anchor="start" x="691" y="-79" font-family="Helvetica,sans-Serif" font-size="10.00">QuantConnect.Logging.ILog</text>
<text text-anchor="middle" x="758" y="-68" font-family="Helvetica,sans-Serif" font-size="10.00">Handler.Error</text>
</a>
</g>
</g>
<!-- Node4&#45;&gt;Node5 -->
<g id="edge4" class="edge">
<title>Node4&#45;&gt;Node5</title>
<path fill="none" stroke="midnightblue" d="M639.23,-76C650.22,-76 661.61,-76 672.78,-76"/>
<polygon fill="midnightblue" stroke="midnightblue" points="672.97,-79.5 682.97,-76 672.97,-72.5 672.97,-79.5"/>
</g>
<!-- Node6&#45;&gt;Node4 -->
<g id="edge7" class="edge">
<title>Node6&#45;&gt;Node4</title>
<path fill="none" stroke="midnightblue" d="M407.38,-42.03C431.73,-47.35 459.3,-53.37 484.4,-58.84"/>
<polygon fill="midnightblue" stroke="midnightblue" points="483.73,-62.28 494.25,-60.99 485.22,-55.44 483.73,-62.28"/>
</g>
<!-- Node7 -->
<g id="node7" class="node">
<title>Node7</title>
<g id="a_node7"><a xlink:href="classQuantConnect_1_1Statistics_1_1Statistics.html#a9559a5800e45650ccdb5f8938ffdacfa" target="_top" xlink:title="Annual compounded returns statistic based on the final&#45;starting capital and years.">
<polygon fill="white" stroke="black" points="481,-0.5 481,-41.5 647,-41.5 647,-0.5 481,-0.5"/>
<text text-anchor="start" x="489" y="-29.5" font-family="Helvetica,sans-Serif" font-size="10.00">QuantConnect.Statistics.</text>
<text text-anchor="start" x="489" y="-18.5" font-family="Helvetica,sans-Serif" font-size="10.00">Statistics.CompoundingAnnual</text>
<text text-anchor="middle" x="564" y="-7.5" font-family="Helvetica,sans-Serif" font-size="10.00">Performance</text>
</a>
</g>
</g>
<!-- Node6&#45;&gt;Node7 -->
<g id="edge6" class="edge">
<title>Node6&#45;&gt;Node7</title>
<path fill="none" stroke="midnightblue" d="M433.06,-24.47C445.42,-24.14 458.07,-23.8 470.39,-23.48"/>
<polygon fill="midnightblue" stroke="midnightblue" points="470.75,-26.97 480.65,-23.2 470.56,-19.97 470.75,-26.97"/>
</g>
</g>
</svg>
