<?xml version="1.0" encoding="UTF-8" standalone="no"?>
<!DOCTYPE svg PUBLIC "-//W3C//DTD SVG 1.1//EN"
 "http://www.w3.org/Graphics/SVG/1.1/DTD/svg11.dtd">
<!-- Generated by graphviz version 2.43.0 (0)
 -->
<!-- Title: QuantConnect.Data.RiskFreeInterestRateModelExtensions.GetAverageRiskFreeRate Pages: 1 -->
<svg width="411pt" height="50pt"
 viewBox="0.00 0.00 411.00 50.00" xmlns="http://www.w3.org/2000/svg" xmlns:xlink="http://www.w3.org/1999/xlink">
<g id="graph0" class="graph" transform="scale(1 1) rotate(0) translate(4 46)">
<title>QuantConnect.Data.RiskFreeInterestRateModelExtensions.GetAverageRiskFreeRate</title>
<polygon fill="white" stroke="transparent" points="-4,4 -4,-46 407,-46 407,4 -4,4"/>
<!-- Node1 -->
<g id="node1" class="node">
<title>Node1</title>
<g id="a_node1"><a xlink:title="Gets the average Risk Free Rate from the interest rate of the given dates">
<polygon fill="#bfbfbf" stroke="black" points="0,-0.5 0,-41.5 180,-41.5 180,-0.5 0,-0.5"/>
<text text-anchor="start" x="8" y="-29.5" font-family="Helvetica,sans-Serif" font-size="10.00">QuantConnect.Data.RiskFree</text>
<text text-anchor="start" x="8" y="-18.5" font-family="Helvetica,sans-Serif" font-size="10.00">InterestRateModelExtensions.Get</text>
<text text-anchor="middle" x="90" y="-7.5" font-family="Helvetica,sans-Serif" font-size="10.00">AverageRiskFreeRate</text>
</a>
</g>
</g>
<!-- Node2 -->
<g id="node2" class="node">
<title>Node2</title>
<g id="a_node2"><a xlink:href="interfaceQuantConnect_1_1Data_1_1IRiskFreeInterestRateModel.html#aa7dfabf2595f0e70086b46c699983232" target="_top" xlink:title="Get interest rate by a given date">
<polygon fill="white" stroke="black" points="216,-6 216,-36 403,-36 403,-6 216,-6"/>
<text text-anchor="start" x="224" y="-24" font-family="Helvetica,sans-Serif" font-size="10.00">QuantConnect.Data.IRiskFree</text>
<text text-anchor="middle" x="309.5" y="-13" font-family="Helvetica,sans-Serif" font-size="10.00">InterestRateModel.GetInterestRate</text>
</a>
</g>
</g>
<!-- Node1&#45;&gt;Node2 -->
<g id="edge1" class="edge">
<title>Node1&#45;&gt;Node2</title>
<path fill="none" stroke="midnightblue" d="M180.09,-21C188.43,-21 196.93,-21 205.39,-21"/>
<polygon fill="midnightblue" stroke="midnightblue" points="205.66,-24.5 215.66,-21 205.66,-17.5 205.66,-24.5"/>
</g>
</g>
</svg>
