<?xml version="1.0" encoding="UTF-8" standalone="no"?>
<!DOCTYPE svg PUBLIC "-//W3C//DTD SVG 1.1//EN"
 "http://www.w3.org/Graphics/SVG/1.1/DTD/svg11.dtd">
<!-- Generated by graphviz version 2.43.0 (0)
 -->
<!-- Title: QuantConnect.Algorithm.QCAlgorithm.AddAlpha Pages: 1 -->
<svg width="702pt" height="39pt"
 viewBox="0.00 0.00 702.00 39.00" xmlns="http://www.w3.org/2000/svg" xmlns:xlink="http://www.w3.org/1999/xlink">
<g id="graph0" class="graph" transform="scale(1 1) rotate(0) translate(4 35)">
<title>QuantConnect.Algorithm.QCAlgorithm.AddAlpha</title>
<polygon fill="white" stroke="transparent" points="-4,4 -4,-35 698,-35 698,4 -4,4"/>
<!-- Node1 -->
<g id="node1" class="node">
<title>Node1</title>
<g id="a_node1"><a xlink:title="Adds a new alpha model">
<polygon fill="#bfbfbf" stroke="black" points="0,-0.5 0,-30.5 205,-30.5 205,-0.5 0,-0.5"/>
<text text-anchor="start" x="8" y="-18.5" font-family="Helvetica,sans-Serif" font-size="10.00">QuantConnect.Algorithm.QCAlgorithm.</text>
<text text-anchor="middle" x="102.5" y="-7.5" font-family="Helvetica,sans-Serif" font-size="10.00">AddAlpha</text>
</a>
</g>
</g>
<!-- Node2 -->
<g id="node2" class="node">
<title>Node2</title>
<g id="a_node2"><a xlink:href="classQuantConnect_1_1Algorithm_1_1QCAlgorithm.html#a6f2b2ff1bfb38aaf94df47cdfa6c064a" target="_top" xlink:title="Adds a new alpha model">
<polygon fill="white" stroke="black" points="241,-0.5 241,-30.5 446,-30.5 446,-0.5 241,-0.5"/>
<text text-anchor="start" x="249" y="-18.5" font-family="Helvetica,sans-Serif" font-size="10.00">QuantConnect.Algorithm.QCAlgorithm.</text>
<text text-anchor="middle" x="343.5" y="-7.5" font-family="Helvetica,sans-Serif" font-size="10.00">AddAlpha</text>
</a>
</g>
</g>
<!-- Node1&#45;&gt;Node2 -->
<g id="edge1" class="edge">
<title>Node1&#45;&gt;Node2</title>
<path fill="none" stroke="midnightblue" d="M205.2,-15.5C213.7,-15.5 222.31,-15.5 230.87,-15.5"/>
<polygon fill="midnightblue" stroke="midnightblue" points="230.89,-19 240.89,-15.5 230.89,-12 230.89,-19"/>
</g>
<!-- Node3 -->
<g id="node3" class="node">
<title>Node3</title>
<g id="a_node3"><a xlink:href="classQuantConnect_1_1Algorithm_1_1Framework_1_1Alphas_1_1CompositeAlphaModel.html#a7c7b795b52dac0c2e3171518f1daa50c" target="_top" xlink:title="Adds a new AlphaModel">
<polygon fill="white" stroke="black" points="482,-0.5 482,-30.5 694,-30.5 694,-0.5 482,-0.5"/>
<text text-anchor="start" x="490" y="-18.5" font-family="Helvetica,sans-Serif" font-size="10.00">QuantConnect.Algorithm.Framework.</text>
<text text-anchor="middle" x="588" y="-7.5" font-family="Helvetica,sans-Serif" font-size="10.00">Alphas.CompositeAlphaModel.AddAlpha</text>
</a>
</g>
</g>
<!-- Node2&#45;&gt;Node3 -->
<g id="edge2" class="edge">
<title>Node2&#45;&gt;Node3</title>
<path fill="none" stroke="midnightblue" d="M446.29,-15.5C454.77,-15.5 463.37,-15.5 471.94,-15.5"/>
<polygon fill="midnightblue" stroke="midnightblue" points="471.97,-19 481.97,-15.5 471.97,-12 471.97,-19"/>
</g>
</g>
</svg>
