<?xml version="1.0" encoding="UTF-8" standalone="no"?>
<!DOCTYPE svg PUBLIC "-//W3C//DTD SVG 1.1//EN"
 "http://www.w3.org/Graphics/SVG/1.1/DTD/svg11.dtd">
<!-- Generated by graphviz version 2.43.0 (0)
 -->
<!-- Title: QuantConnect.Data.IndexedBaseData Pages: 1 -->
<svg width="575pt" height="88pt"
 viewBox="0.00 0.00 575.00 88.00" xmlns="http://www.w3.org/2000/svg" xmlns:xlink="http://www.w3.org/1999/xlink">
<g id="graph0" class="graph" transform="scale(1 1) rotate(0) translate(4 84)">
<title>QuantConnect.Data.IndexedBaseData</title>
<polygon fill="white" stroke="transparent" points="-4,4 -4,-84 571,-84 571,4 -4,4"/>
<!-- Node1 -->
<g id="node1" class="node">
<title>Node1</title>
<g id="a_node1"><a xlink:title="Abstract indexed base data class of QuantConnect. It is intended to be extended to define customizabl...">
<polygon fill="#bfbfbf" stroke="black" points="203,-24.5 203,-54.5 356,-54.5 356,-24.5 203,-24.5"/>
<text text-anchor="start" x="211" y="-42.5" font-family="Helvetica,sans-Serif" font-size="10.00">QuantConnect.Data.Indexed</text>
<text text-anchor="middle" x="279.5" y="-31.5" font-family="Helvetica,sans-Serif" font-size="10.00">BaseData</text>
</a>
</g>
</g>
<!-- Node4 -->
<g id="node4" class="node">
<title>Node4</title>
<g id="a_node4"><a xlink:href="classQuantConnect_1_1Data_1_1Custom_1_1IconicTypes_1_1IndexedLinkedData.html" target="_top" xlink:title="Data type that is indexed, i.e. a file that points to another file containing the contents we&#39;re look...">
<polygon fill="white" stroke="black" points="395,-49.5 395,-79.5 564,-79.5 564,-49.5 395,-49.5"/>
<text text-anchor="start" x="403" y="-67.5" font-family="Helvetica,sans-Serif" font-size="10.00">QuantConnect.Data.Custom.</text>
<text text-anchor="middle" x="479.5" y="-56.5" font-family="Helvetica,sans-Serif" font-size="10.00">IconicTypes.IndexedLinkedData</text>
</a>
</g>
</g>
<!-- Node1&#45;&gt;Node4 -->
<g id="edge3" class="edge">
<title>Node1&#45;&gt;Node4</title>
<path fill="none" stroke="midnightblue" d="M366.39,-50.34C375.86,-51.54 385.48,-52.76 394.92,-53.95"/>
<polygon fill="midnightblue" stroke="midnightblue" points="366.56,-46.84 356.2,-49.06 365.69,-53.78 366.56,-46.84"/>
</g>
<!-- Node5 -->
<g id="node5" class="node">
<title>Node5</title>
<g id="a_node5"><a xlink:href="classQuantConnect_1_1Data_1_1Custom_1_1IconicTypes_1_1IndexedLinkedData2.html" target="_top" xlink:title="Data type that is indexed, i.e. a file that points to another file containing the contents we&#39;re look...">
<polygon fill="white" stroke="black" points="392,-0.5 392,-30.5 567,-30.5 567,-0.5 392,-0.5"/>
<text text-anchor="start" x="400" y="-18.5" font-family="Helvetica,sans-Serif" font-size="10.00">QuantConnect.Data.Custom.</text>
<text text-anchor="middle" x="479.5" y="-7.5" font-family="Helvetica,sans-Serif" font-size="10.00">IconicTypes.IndexedLinkedData2</text>
</a>
</g>
</g>
<!-- Node1&#45;&gt;Node5 -->
<g id="edge4" class="edge">
<title>Node1&#45;&gt;Node5</title>
<path fill="none" stroke="midnightblue" d="M366.15,-29.12C374.69,-28.08 383.37,-27.03 391.92,-25.99"/>
<polygon fill="midnightblue" stroke="midnightblue" points="365.71,-25.65 356.2,-30.32 366.55,-32.6 365.71,-25.65"/>
</g>
<!-- Node2 -->
<g id="node2" class="node">
<title>Node2</title>
<g id="a_node2"><a xlink:href="classQuantConnect_1_1Data_1_1BaseData.html" target="_top" xlink:title="Abstract base data class of QuantConnect. It is intended to be extended to define generic user custom...">
<polygon fill="white" stroke="black" points="103,-30 103,-49 167,-49 167,-30 103,-30"/>
<text text-anchor="middle" x="135" y="-37" font-family="Helvetica,sans-Serif" font-size="10.00">BaseData</text>
</a>
</g>
</g>
<!-- Node2&#45;&gt;Node1 -->
<g id="edge1" class="edge">
<title>Node2&#45;&gt;Node1</title>
<path fill="none" stroke="midnightblue" d="M177.45,-39.5C185.5,-39.5 194.17,-39.5 202.93,-39.5"/>
<polygon fill="midnightblue" stroke="midnightblue" points="177.27,-36 167.27,-39.5 177.27,-43 177.27,-36"/>
</g>
<!-- Node3 -->
<g id="node3" class="node">
<title>Node3</title>
<g id="a_node3"><a xlink:href="interfaceQuantConnect_1_1Data_1_1IBaseData.html" target="_top" xlink:title="Base Data Class: Type, Timestamp, Key – Base Features.">
<polygon fill="white" stroke="black" points="0,-30 0,-49 67,-49 67,-30 0,-30"/>
<text text-anchor="middle" x="33.5" y="-37" font-family="Helvetica,sans-Serif" font-size="10.00">IBaseData</text>
</a>
</g>
</g>
<!-- Node3&#45;&gt;Node2 -->
<g id="edge2" class="edge">
<title>Node3&#45;&gt;Node2</title>
<path fill="none" stroke="midnightblue" d="M77.29,-39.5C85.82,-39.5 94.64,-39.5 102.7,-39.5"/>
<polygon fill="midnightblue" stroke="midnightblue" points="77.08,-36 67.08,-39.5 77.08,-43 77.08,-36"/>
</g>
</g>
</svg>
