<?xml version="1.0" encoding="UTF-8" standalone="no"?>
<!DOCTYPE svg PUBLIC "-//W3C//DTD SVG 1.1//EN"
 "http://www.w3.org/Graphics/SVG/1.1/DTD/svg11.dtd">
<!-- Generated by graphviz version 2.43.0 (0)
 -->
<!-- Title: QuantConnect.Securities.BuyingPowerModel.HasSufficientBuyingPowerForOrder Pages: 1 -->
<!--zoomable 470 -->
<svg id="main" version="1.1" xmlns="http://www.w3.org/2000/svg" xmlns:xlink="http://www.w3.org/1999/xlink" xml:space="preserve" onload="init(evt)">
<style type="text/css"><![CDATA[
.edge:hover path { stroke: red; }
.edge:hover polygon { stroke: red; fill: red; }
]]></style>
<script type="text/javascript"><![CDATA[
var edges = document.getElementsByTagName('g');
if (edges && edges.length) {
  for (var i=0;i<edges.length;i++) {
    if (edges[i].id.substr(0,4)=='edge') {
      edges[i].setAttribute('class','edge');
    }
  }
}
]]></script>
        <defs>
                <circle id="rim" cx="0" cy="0" r="7"/>
                <circle id="rim2" cx="0" cy="0" r="3.5"/>
                <g id="zoomPlus">
                        <use xlink:href="#rim" fill="#404040">
                                <set attributeName="fill" to="#808080" begin="zoomplus.mouseover" end="zoomplus.mouseout"/>
                        </use>
                        <path d="M-4,0h8M0,-4v8" fill="none" stroke="white" stroke-width="1.5" pointer-events="none"/>
                </g>
                <g id="zoomMin">
                        <use xlink:href="#rim" fill="#404040">
                                <set attributeName="fill" to="#808080" begin="zoomminus.mouseover" end="zoomminus.mouseout"/>
                        </use>
                        <path d="M-4,0h8" fill="none" stroke="white" stroke-width="1.5" pointer-events="none"/>
                </g>
                <g id="dirArrow">
                        <path fill="none" stroke="white" stroke-width="1.5" d="M0,-3.0v7 M-2.5,-0.5L0,-3.0L2.5,-0.5"/>
                </g>
               <g id="resetDef">
                       <use xlink:href="#rim2" fill="#404040">
                               <set attributeName="fill" to="#808080" begin="reset.mouseover" end="reset.mouseout"/>
                       </use>
               </g>
        </defs>

<script type="text/javascript">
var viewWidth = 1211;
var viewHeight = 470;
var sectionId = 'dynsection-8';
</script>
<script xlink:href="svgpan.js"/>
<svg id="graph" class="graph">
<g id="viewport">
<title>QuantConnect.Securities.BuyingPowerModel.HasSufficientBuyingPowerForOrder</title>
<polygon fill="white" stroke="transparent" points="-4,4 -4,-466 1207,-466 1207,4 -4,4"/>
<!-- Node1 -->
<g id="node1" class="node">
<title>Node1</title>
<g id="a_node1"><a xlink:title="Check if there is sufficient buying power to execute this order.">
<polygon fill="#bfbfbf" stroke="black" points="0,-188 0,-229 178,-229 178,-188 0,-188"/>
<text text-anchor="start" x="8" y="-217" font-family="Helvetica,sans-Serif" font-size="10.00">QuantConnect.Securities.</text>
<text text-anchor="start" x="8" y="-206" font-family="Helvetica,sans-Serif" font-size="10.00">BuyingPowerModel.HasSufficient</text>
<text text-anchor="middle" x="89" y="-195" font-family="Helvetica,sans-Serif" font-size="10.00">BuyingPowerForOrder</text>
</a>
</g>
</g>
<!-- Node2 -->
<g id="node2" class="node">
<title>Node2</title>
<g id="a_node2"><a xlink:href="classQuantConnect_1_1Securities_1_1MaintenanceMarginParameters.html#ab4a4ed6148ee189e658151115d23f885" target="_top" xlink:title="Creates a new instance of the MaintenanceMarginParameters class to compute the maintenance margin req...">
<polygon fill="white" stroke="black" points="225,-371 225,-412 397,-412 397,-371 225,-371"/>
<text text-anchor="start" x="233" y="-400" font-family="Helvetica,sans-Serif" font-size="10.00">QuantConnect.Securities.</text>
<text text-anchor="start" x="233" y="-389" font-family="Helvetica,sans-Serif" font-size="10.00">MaintenanceMarginParameters.</text>
<text text-anchor="middle" x="311" y="-378" font-family="Helvetica,sans-Serif" font-size="10.00">ForQuantityAtCurrentPrice</text>
</a>
</g>
</g>
<!-- Node1&#45;&gt;Node2 -->
<g id="edge1" class="edge">
<title>Node1&#45;&gt;Node2</title>
<path fill="none" stroke="midnightblue" d="M101.78,-229.02C121.19,-261.1 162.88,-323.11 214,-358.5 218.15,-361.37 222.57,-364.02 227.16,-366.45"/>
<polygon fill="midnightblue" stroke="midnightblue" points="225.62,-369.59 236.14,-370.86 228.7,-363.31 225.62,-369.59"/>
</g>
<!-- Node5 -->
<g id="node5" class="node">
<title>Node5</title>
<g id="a_node5"><a xlink:href="classQuantConnect_1_1Securities_1_1HasSufficientBuyingPowerForOrderParameters.html#a1a55437512ba58e628dce2f55dafcbe6" target="_top" xlink:title="Creates a new HasSufficientBuyingPowerForOrderParameters targeting the security&#39;s underlying....">
<polygon fill="white" stroke="black" points="217.5,-308 217.5,-349 404.5,-349 404.5,-308 217.5,-308"/>
<text text-anchor="start" x="225.5" y="-337" font-family="Helvetica,sans-Serif" font-size="10.00">QuantConnect.Securities.</text>
<text text-anchor="start" x="225.5" y="-326" font-family="Helvetica,sans-Serif" font-size="10.00">HasSufficientBuyingPowerForOrder</text>
<text text-anchor="middle" x="311" y="-315" font-family="Helvetica,sans-Serif" font-size="10.00">Parameters.ForUnderlying</text>
</a>
</g>
</g>
<!-- Node1&#45;&gt;Node5 -->
<g id="edge4" class="edge">
<title>Node1&#45;&gt;Node5</title>
<path fill="none" stroke="midnightblue" d="M113.64,-229.3C137.52,-249.4 176.2,-279.52 214,-298.5 217.97,-300.49 222.1,-302.39 226.31,-304.18"/>
<polygon fill="midnightblue" stroke="midnightblue" points="225.08,-307.45 235.66,-307.95 227.69,-300.96 225.08,-307.45"/>
</g>
<!-- Node7 -->
<g id="node7" class="node">
<title>Node7</title>
<g id="a_node7"><a xlink:href="classQuantConnect_1_1Securities_1_1BuyingPowerModel.html#abc9f513ca08c05a31651d5e9dd5d9e9c" target="_top" xlink:title="Gets the margin currently allocated to the specified holding">
<polygon fill="white" stroke="black" points="214,-248 214,-289 408,-289 408,-248 214,-248"/>
<text text-anchor="start" x="222" y="-277" font-family="Helvetica,sans-Serif" font-size="10.00">QuantConnect.Securities.</text>
<text text-anchor="start" x="222" y="-266" font-family="Helvetica,sans-Serif" font-size="10.00">BuyingPowerModel.GetMaintenance</text>
<text text-anchor="middle" x="311" y="-255" font-family="Helvetica,sans-Serif" font-size="10.00">Margin</text>
</a>
</g>
</g>
<!-- Node1&#45;&gt;Node7 -->
<g id="edge6" class="edge">
<title>Node1&#45;&gt;Node7</title>
<path fill="none" stroke="midnightblue" d="M165.4,-229.06C184.56,-234.29 205.27,-239.94 224.87,-245.28"/>
<polygon fill="midnightblue" stroke="midnightblue" points="224.13,-248.71 234.69,-247.96 225.97,-241.95 224.13,-248.71"/>
</g>
<!-- Node8 -->
<g id="node8" class="node">
<title>Node8</title>
<g id="a_node8"><a xlink:href="classQuantConnect_1_1Securities_1_1SecurityTransactionManager.html#ab2d222cc403ed3c9445f691c851dd232" target="_top" xlink:title="Gets the order ticket for the specified order id. Returns null if not found">
<polygon fill="white" stroke="black" points="224,-188 224,-229 398,-229 398,-188 224,-188"/>
<text text-anchor="start" x="232" y="-217" font-family="Helvetica,sans-Serif" font-size="10.00">QuantConnect.Securities.</text>
<text text-anchor="start" x="232" y="-206" font-family="Helvetica,sans-Serif" font-size="10.00">SecurityTransactionManager.Get</text>
<text text-anchor="middle" x="311" y="-195" font-family="Helvetica,sans-Serif" font-size="10.00">OrderTicket</text>
</a>
</g>
</g>
<!-- Node1&#45;&gt;Node8 -->
<g id="edge7" class="edge">
<title>Node1&#45;&gt;Node8</title>
<path fill="none" stroke="midnightblue" d="M178.21,-208.5C189.86,-208.5 201.85,-208.5 213.63,-208.5"/>
<polygon fill="midnightblue" stroke="midnightblue" points="213.91,-212 223.91,-208.5 213.91,-205 213.91,-212"/>
</g>
<!-- Node10 -->
<g id="node10" class="node">
<title>Node10</title>
<g id="a_node10"><a xlink:href="classQuantConnect_1_1Securities_1_1HasSufficientBuyingPowerForOrderParameters.html#a94952b6ad33cd9c8fa3d0680661bb3ec" target="_top" xlink:title="Creates a new result indicating that there is insufficient buying power for the contemplated order">
<polygon fill="white" stroke="black" points="217.5,-128 217.5,-169 404.5,-169 404.5,-128 217.5,-128"/>
<text text-anchor="start" x="225.5" y="-157" font-family="Helvetica,sans-Serif" font-size="10.00">QuantConnect.Securities.</text>
<text text-anchor="start" x="225.5" y="-146" font-family="Helvetica,sans-Serif" font-size="10.00">HasSufficientBuyingPowerForOrder</text>
<text text-anchor="middle" x="311" y="-135" font-family="Helvetica,sans-Serif" font-size="10.00">Parameters.Insufficient</text>
</a>
</g>
</g>
<!-- Node1&#45;&gt;Node10 -->
<g id="edge9" class="edge">
<title>Node1&#45;&gt;Node10</title>
<path fill="none" stroke="midnightblue" d="M165.4,-187.94C184.56,-182.71 205.27,-177.06 224.87,-171.72"/>
<polygon fill="midnightblue" stroke="midnightblue" points="225.97,-175.05 234.69,-169.04 224.13,-168.29 225.97,-175.05"/>
</g>
<!-- Node11 -->
<g id="node11" class="node">
<title>Node11</title>
<g id="a_node11"><a xlink:href="classQuantConnect_1_1Securities_1_1HasSufficientBuyingPowerForOrderParameters.html#a2b0dea2c9139dfc1d306246ead60b028" target="_top" xlink:title="Creates a new result indicating that there is sufficient buying power for the contemplated order">
<polygon fill="white" stroke="black" points="217.5,-68 217.5,-109 404.5,-109 404.5,-68 217.5,-68"/>
<text text-anchor="start" x="225.5" y="-97" font-family="Helvetica,sans-Serif" font-size="10.00">QuantConnect.Securities.</text>
<text text-anchor="start" x="225.5" y="-86" font-family="Helvetica,sans-Serif" font-size="10.00">HasSufficientBuyingPowerForOrder</text>
<text text-anchor="middle" x="311" y="-75" font-family="Helvetica,sans-Serif" font-size="10.00">Parameters.Sufficient</text>
</a>
</g>
</g>
<!-- Node1&#45;&gt;Node11 -->
<g id="edge10" class="edge">
<title>Node1&#45;&gt;Node11</title>
<path fill="none" stroke="midnightblue" d="M113.64,-187.7C137.52,-167.6 176.2,-137.48 214,-118.5 217.97,-116.51 222.1,-114.61 226.31,-112.82"/>
<polygon fill="midnightblue" stroke="midnightblue" points="227.69,-116.04 235.66,-109.05 225.08,-109.55 227.69,-116.04"/>
</g>
<!-- Node12 -->
<g id="node12" class="node">
<title>Node12</title>
<g id="a_node12"><a xlink:href="classQuantConnect_1_1Symbol.html#a59158f74116be3dad0ea0f3f3f134416" target="_top" xlink:title="Initializes a new instance of the Symbol class">
<polygon fill="white" stroke="black" points="228.5,-30 228.5,-49 393.5,-49 393.5,-30 228.5,-30"/>
<text text-anchor="middle" x="311" y="-37" font-family="Helvetica,sans-Serif" font-size="10.00">QuantConnect.Symbol.Symbol</text>
</a>
</g>
</g>
<!-- Node1&#45;&gt;Node12 -->
<g id="edge11" class="edge">
<title>Node1&#45;&gt;Node12</title>
<path fill="none" stroke="midnightblue" d="M100.78,-187.94C119.24,-154.94 160.17,-90.6 214,-58.5 217.61,-56.35 221.42,-54.43 225.36,-52.73"/>
<polygon fill="midnightblue" stroke="midnightblue" points="226.66,-55.98 234.74,-49.13 224.15,-49.44 226.66,-55.98"/>
</g>
<!-- Node3 -->
<g id="node3" class="node">
<title>Node3</title>
<g id="a_node3"><a xlink:href="classQuantConnect_1_1Securities_1_1SecurityHolding.html#a88902e4d2b5e59fd73934daa215efb0e" target="_top" xlink:title="Gets the total value of the specified quantity &#160;of shares of this security in the account currency">
<polygon fill="white" stroke="black" points="461.5,-431.5 461.5,-461.5 644.5,-461.5 644.5,-431.5 461.5,-431.5"/>
<text text-anchor="start" x="469.5" y="-449.5" font-family="Helvetica,sans-Serif" font-size="10.00">QuantConnect.Securities.</text>
<text text-anchor="middle" x="553" y="-438.5" font-family="Helvetica,sans-Serif" font-size="10.00">SecurityHolding.GetQuantityValue</text>
</a>
</g>
</g>
<!-- Node2&#45;&gt;Node3 -->
<g id="edge2" class="edge">
<title>Node2&#45;&gt;Node3</title>
<path fill="none" stroke="midnightblue" d="M397.29,-411.05C423.1,-416.96 451.26,-423.41 476.39,-429.17"/>
<polygon fill="midnightblue" stroke="midnightblue" points="475.69,-432.6 486.22,-431.43 477.26,-425.78 475.69,-432.6"/>
</g>
<!-- Node4 -->
<g id="node4" class="node">
<title>Node4</title>
<g id="a_node4"><a xlink:href="classQuantConnect_1_1Securities_1_1MaintenanceMarginParameters.html#a3b521ab6c4d52957d2f35b31be47ee5c" target="_top" xlink:title="Initializes a new instance of the MaintenanceMarginParameters class">
<polygon fill="white" stroke="black" points="467,-371 467,-412 639,-412 639,-371 467,-371"/>
<text text-anchor="start" x="475" y="-400" font-family="Helvetica,sans-Serif" font-size="10.00">QuantConnect.Securities.</text>
<text text-anchor="start" x="475" y="-389" font-family="Helvetica,sans-Serif" font-size="10.00">MaintenanceMarginParameters.</text>
<text text-anchor="middle" x="553" y="-378" font-family="Helvetica,sans-Serif" font-size="10.00">MaintenanceMarginParameters</text>
</a>
</g>
</g>
<!-- Node2&#45;&gt;Node4 -->
<g id="edge3" class="edge">
<title>Node2&#45;&gt;Node4</title>
<path fill="none" stroke="midnightblue" d="M397.29,-391.5C416.57,-391.5 437.15,-391.5 456.8,-391.5"/>
<polygon fill="midnightblue" stroke="midnightblue" points="456.98,-395 466.98,-391.5 456.98,-388 456.98,-395"/>
</g>
<!-- Node6 -->
<g id="node6" class="node">
<title>Node6</title>
<g id="a_node6"><a xlink:href="classQuantConnect_1_1Securities_1_1HasSufficientBuyingPowerForOrderParameters.html#a6d6223b0b5408dd99870a9f3cd73b025" target="_top" xlink:title="Initializes a new instance of the HasSufficientBuyingPowerForOrderParameters class">
<polygon fill="white" stroke="black" points="444,-299.5 444,-351.5 662,-351.5 662,-299.5 444,-299.5"/>
<text text-anchor="start" x="452" y="-339.5" font-family="Helvetica,sans-Serif" font-size="10.00">QuantConnect.Securities.</text>
<text text-anchor="start" x="452" y="-328.5" font-family="Helvetica,sans-Serif" font-size="10.00">HasSufficientBuyingPowerForOrder</text>
<text text-anchor="start" x="452" y="-317.5" font-family="Helvetica,sans-Serif" font-size="10.00">Parameters.HasSufficientBuyingPowerFor</text>
<text text-anchor="middle" x="553" y="-306.5" font-family="Helvetica,sans-Serif" font-size="10.00">OrderParameters</text>
</a>
</g>
</g>
<!-- Node5&#45;&gt;Node6 -->
<g id="edge5" class="edge">
<title>Node5&#45;&gt;Node6</title>
<path fill="none" stroke="midnightblue" d="M404.79,-327.34C414.29,-327.22 424.02,-327.1 433.74,-326.98"/>
<polygon fill="midnightblue" stroke="midnightblue" points="433.9,-330.48 443.86,-326.85 433.81,-323.48 433.9,-330.48"/>
</g>
<!-- Node9 -->
<g id="node9" class="node">
<title>Node9</title>
<g id="a_node9"><a xlink:href="interfaceQuantConnect_1_1Securities_1_1IOrderProvider.html#a299559676284f079d519275b43523a5e" target="_top" xlink:title="Gets the order ticket for the specified order id. Returns null if not found">
<polygon fill="white" stroke="black" points="471.5,-193.5 471.5,-223.5 634.5,-223.5 634.5,-193.5 471.5,-193.5"/>
<text text-anchor="start" x="479.5" y="-211.5" font-family="Helvetica,sans-Serif" font-size="10.00">QuantConnect.Securities.</text>
<text text-anchor="middle" x="553" y="-200.5" font-family="Helvetica,sans-Serif" font-size="10.00">IOrderProvider.GetOrderTicket</text>
</a>
</g>
</g>
<!-- Node8&#45;&gt;Node9 -->
<g id="edge8" class="edge">
<title>Node8&#45;&gt;Node9</title>
<path fill="none" stroke="midnightblue" d="M398.31,-208.5C418.75,-208.5 440.61,-208.5 461.24,-208.5"/>
<polygon fill="midnightblue" stroke="midnightblue" points="461.26,-212 471.26,-208.5 461.26,-205 461.26,-212"/>
</g>
<!-- Node13 -->
<g id="node13" class="node">
<title>Node13</title>
<g id="a_node13"><a xlink:href="classQuantConnect_1_1Symbol.html#a59b0795fa21f46c306deb5576fa03bb9" target="_top" xlink:title="Centralized helper method to resolve alias for a symbol">
<polygon fill="white" stroke="black" points="468,-30 468,-49 638,-49 638,-30 468,-30"/>
<text text-anchor="middle" x="553" y="-37" font-family="Helvetica,sans-Serif" font-size="10.00">QuantConnect.Symbol.GetAlias</text>
</a>
</g>
</g>
<!-- Node12&#45;&gt;Node13 -->
<g id="edge12" class="edge">
<title>Node12&#45;&gt;Node13</title>
<path fill="none" stroke="midnightblue" d="M393.59,-39.5C414.14,-39.5 436.38,-39.5 457.5,-39.5"/>
<polygon fill="midnightblue" stroke="midnightblue" points="457.78,-43 467.78,-39.5 457.78,-36 457.78,-43"/>
</g>
<!-- Node14 -->
<g id="node14" class="node">
<title>Node14</title>
<g id="a_node14"><a xlink:href="classQuantConnect_1_1SymbolRepresentation.html#ad43ac907f6c19083821f58f21c6de017" target="_top" xlink:title="Returns future symbol ticker from underlying and expiration date. Function can generate tickers of tw...">
<polygon fill="white" stroke="black" points="698,-49.5 698,-79.5 901,-79.5 901,-49.5 698,-49.5"/>
<text text-anchor="start" x="706" y="-67.5" font-family="Helvetica,sans-Serif" font-size="10.00">QuantConnect.SymbolRepresentation.</text>
<text text-anchor="middle" x="799.5" y="-56.5" font-family="Helvetica,sans-Serif" font-size="10.00">GenerateFutureTicker</text>
</a>
</g>
</g>
<!-- Node13&#45;&gt;Node14 -->
<g id="edge13" class="edge">
<title>Node13&#45;&gt;Node14</title>
<path fill="none" stroke="midnightblue" d="M638.14,-48.1C654.04,-49.73 670.9,-51.45 687.48,-53.15"/>
<polygon fill="midnightblue" stroke="midnightblue" points="687.45,-56.66 697.75,-54.2 688.16,-49.7 687.45,-56.66"/>
</g>
<!-- Node16 -->
<g id="node16" class="node">
<title>Node16</title>
<g id="a_node16"><a xlink:href="classQuantConnect_1_1SymbolRepresentation.html#ab133044f5cf8c16e700190a2202b215e" target="_top" xlink:title="Returns option symbol ticker in accordance with OSI symbology More information can be found at http:/...">
<polygon fill="white" stroke="black" points="698,-0.5 698,-30.5 901,-30.5 901,-0.5 698,-0.5"/>
<text text-anchor="start" x="706" y="-18.5" font-family="Helvetica,sans-Serif" font-size="10.00">QuantConnect.SymbolRepresentation.</text>
<text text-anchor="middle" x="799.5" y="-7.5" font-family="Helvetica,sans-Serif" font-size="10.00">GenerateOptionTickerOSI</text>
</a>
</g>
</g>
<!-- Node13&#45;&gt;Node16 -->
<g id="edge15" class="edge">
<title>Node13&#45;&gt;Node16</title>
<path fill="none" stroke="midnightblue" d="M638.14,-31.24C654.04,-29.68 670.9,-28.03 687.48,-26.4"/>
<polygon fill="midnightblue" stroke="midnightblue" points="688.14,-29.85 697.75,-25.39 687.46,-22.88 688.14,-29.85"/>
</g>
<!-- Node15 -->
<g id="node15" class="node">
<title>Node15</title>
<g id="a_node15"><a xlink:href="classQuantConnect_1_1Securities_1_1Future_1_1FuturesExpiryUtilityFunctions.html#a4ccb1e2f2fe40ff09785a74a02f26df1" target="_top" xlink:title="Gets the number of months between the contract month and the expiry date.">
<polygon fill="white" stroke="black" points="937,-44 937,-85 1203,-85 1203,-44 937,-44"/>
<text text-anchor="start" x="945" y="-73" font-family="Helvetica,sans-Serif" font-size="10.00">QuantConnect.Securities.</text>
<text text-anchor="start" x="945" y="-62" font-family="Helvetica,sans-Serif" font-size="10.00">Future.FuturesExpiryUtilityFunctions.</text>
<text text-anchor="middle" x="1070" y="-51" font-family="Helvetica,sans-Serif" font-size="10.00">GetDeltaBetweenContractMonthAndContractExpiry</text>
</a>
</g>
</g>
<!-- Node14&#45;&gt;Node15 -->
<g id="edge14" class="edge">
<title>Node14&#45;&gt;Node15</title>
<path fill="none" stroke="midnightblue" d="M901.24,-64.5C909.59,-64.5 918.11,-64.5 926.68,-64.5"/>
<polygon fill="midnightblue" stroke="midnightblue" points="926.76,-68 936.76,-64.5 926.76,-61 926.76,-68"/>
</g>
</g>
</svg>
        <g id="navigator" transform="translate(0 0)" fill="#404254">
                <rect fill="#f2f5e9" fill-opacity="0.5" stroke="#606060" stroke-width=".5" x="0" y="0" width="60" height="60"/>
                <use id="zoomplus" xlink:href="#zoomPlus" x="17" y="9" onmousedown="handleZoom(evt,'in')"/>
                <use id="zoomminus" xlink:href="#zoomMin" x="42" y="9" onmousedown="handleZoom(evt,'out')"/>
                <use id="reset" xlink:href="#resetDef" x="30" y="36" onmousedown="handleReset()"/>
                <g id="arrowUp" xlink:href="#dirArrow" transform="translate(30 24)" onmousedown="handlePan(0,-1)">
                  <use xlink:href="#rim" fill="#404040">
                        <set attributeName="fill" to="#808080" begin="arrowUp.mouseover" end="arrowUp.mouseout"/>
                  </use>
                  <path fill="none" stroke="white" stroke-width="1.5" d="M0,-3.0v7 M-2.5,-0.5L0,-3.0L2.5,-0.5"/>
                </g>
                <g id="arrowRight" xlink:href="#dirArrow" transform="rotate(90) translate(36 -43)" onmousedown="handlePan(1,0)">
                  <use xlink:href="#rim" fill="#404040">
                        <set attributeName="fill" to="#808080" begin="arrowRight.mouseover" end="arrowRight.mouseout"/>
                  </use>
                  <path fill="none" stroke="white" stroke-width="1.5" d="M0,-3.0v7 M-2.5,-0.5L0,-3.0L2.5,-0.5"/>
                </g>
                <g id="arrowDown" xlink:href="#dirArrow" transform="rotate(180) translate(-30 -48)" onmousedown="handlePan(0,1)">
                  <use xlink:href="#rim" fill="#404040">
                        <set attributeName="fill" to="#808080" begin="arrowDown.mouseover" end="arrowDown.mouseout"/>
                  </use>
                  <path fill="none" stroke="white" stroke-width="1.5" d="M0,-3.0v7 M-2.5,-0.5L0,-3.0L2.5,-0.5"/>
                </g>
                <g id="arrowLeft" xlink:href="#dirArrow" transform="rotate(270) translate(-36 17)" onmousedown="handlePan(-1,0)">
                  <use xlink:href="#rim" fill="#404040">
                        <set attributeName="fill" to="#808080" begin="arrowLeft.mouseover" end="arrowLeft.mouseout"/>
                  </use>
                  <path fill="none" stroke="white" stroke-width="1.5" d="M0,-3.0v7 M-2.5,-0.5L0,-3.0L2.5,-0.5"/>
                </g>
        </g>
        <svg viewBox="0 0 15 15" width="100%" height="30px" preserveAspectRatio="xMaxYMin meet">
         <g id="arrow_out" transform="scale(0.3 0.3)">
          <a xlink:href="classQuantConnect_1_1Securities_1_1BuyingPowerModel_a0140983f8f8ab4d126538464a6e24bb1_cgraph_org.svg" target="_base">
           <rect id="button" ry="5" rx="5" y="6" x="6" height="38" width="38"
                fill="#f2f5e9" fill-opacity="0.5" stroke="#606060" stroke-width="1.0"/>
           <path id="arrow"
             d="M 11.500037,31.436501 C 11.940474,20.09759 22.043105,11.32322 32.158766,21.979434 L 37.068811,17.246167 C 37.068811,17.246167 37.088388,32 37.088388,32 L 22.160133,31.978069 C 22.160133,31.978069 26.997745,27.140456 26.997745,27.140456 C 18.528582,18.264221 13.291696,25.230495 11.500037,31.436501 z"
             style="fill:#404040;"/>
          </a>
         </g>
        </svg>
</svg>
