<?xml version="1.0" encoding="UTF-8" standalone="no"?>
<!DOCTYPE svg PUBLIC "-//W3C//DTD SVG 1.1//EN"
 "http://www.w3.org/Graphics/SVG/1.1/DTD/svg11.dtd">
<!-- Generated by graphviz version 2.43.0 (0)
 -->
<!-- Title: QuantConnect.ToolBox.CoinApi.CoinApiDataQueueHandler.CoinApiDataQueueHandler Pages: 1 -->
<!--zoomable 228 -->
<svg id="main" version="1.1" xmlns="http://www.w3.org/2000/svg" xmlns:xlink="http://www.w3.org/1999/xlink" xml:space="preserve" onload="init(evt)">
<style type="text/css"><![CDATA[
.edge:hover path { stroke: red; }
.edge:hover polygon { stroke: red; fill: red; }
]]></style>
<script type="text/javascript"><![CDATA[
var edges = document.getElementsByTagName('g');
if (edges && edges.length) {
  for (var i=0;i<edges.length;i++) {
    if (edges[i].id.substr(0,4)=='edge') {
      edges[i].setAttribute('class','edge');
    }
  }
}
]]></script>
        <defs>
                <circle id="rim" cx="0" cy="0" r="7"/>
                <circle id="rim2" cx="0" cy="0" r="3.5"/>
                <g id="zoomPlus">
                        <use xlink:href="#rim" fill="#404040">
                                <set attributeName="fill" to="#808080" begin="zoomplus.mouseover" end="zoomplus.mouseout"/>
                        </use>
                        <path d="M-4,0h8M0,-4v8" fill="none" stroke="white" stroke-width="1.5" pointer-events="none"/>
                </g>
                <g id="zoomMin">
                        <use xlink:href="#rim" fill="#404040">
                                <set attributeName="fill" to="#808080" begin="zoomminus.mouseover" end="zoomminus.mouseout"/>
                        </use>
                        <path d="M-4,0h8" fill="none" stroke="white" stroke-width="1.5" pointer-events="none"/>
                </g>
                <g id="dirArrow">
                        <path fill="none" stroke="white" stroke-width="1.5" d="M0,-3.0v7 M-2.5,-0.5L0,-3.0L2.5,-0.5"/>
                </g>
               <g id="resetDef">
                       <use xlink:href="#rim2" fill="#404040">
                               <set attributeName="fill" to="#808080" begin="reset.mouseover" end="reset.mouseout"/>
                       </use>
               </g>
        </defs>

<script type="text/javascript">
var viewWidth = 841;
var viewHeight = 228;
var sectionId = 'dynsection-1';
</script>
<script xlink:href="svgpan.js"/>
<svg id="graph" class="graph">
<g id="viewport">
<title>QuantConnect.ToolBox.CoinApi.CoinApiDataQueueHandler.CoinApiDataQueueHandler</title>
<polygon fill="white" stroke="transparent" points="-4,4 -4,-224 837,-224 837,4 -4,4"/>
<!-- Node1 -->
<g id="node1" class="node">
<title>Node1</title>
<g id="a_node1"><a xlink:title="Initializes a new instance of the CoinApiDataQueueHandler class">
<polygon fill="#bfbfbf" stroke="black" points="0,-66 0,-107 190,-107 190,-66 0,-66"/>
<text text-anchor="start" x="8" y="-95" font-family="Helvetica,sans-Serif" font-size="10.00">QuantConnect.ToolBox.Coin</text>
<text text-anchor="start" x="8" y="-84" font-family="Helvetica,sans-Serif" font-size="10.00">Api.CoinApiDataQueueHandler.Coin</text>
<text text-anchor="middle" x="95" y="-73" font-family="Helvetica,sans-Serif" font-size="10.00">ApiDataQueueHandler</text>
</a>
</g>
</g>
<!-- Node2 -->
<g id="node2" class="node">
<title>Node2</title>
<g id="a_node2"><a xlink:href="classQuantConnect_1_1Configuration_1_1Config.html#aaabf1286e33a675b2e116f3289981839" target="_top" xlink:title="Get the matching config setting from the file searching for this key.">
<polygon fill="white" stroke="black" points="261.5,-139.5 261.5,-169.5 418.5,-169.5 418.5,-139.5 261.5,-139.5"/>
<text text-anchor="start" x="269.5" y="-157.5" font-family="Helvetica,sans-Serif" font-size="10.00">QuantConnect.Configuration.</text>
<text text-anchor="middle" x="340" y="-146.5" font-family="Helvetica,sans-Serif" font-size="10.00">Config.Get</text>
</a>
</g>
</g>
<!-- Node1&#45;&gt;Node2 -->
<g id="edge1" class="edge">
<title>Node1&#45;&gt;Node2</title>
<path fill="none" stroke="midnightblue" d="M169.57,-107.09C203.37,-116.55 243.06,-127.65 275.53,-136.74"/>
<polygon fill="midnightblue" stroke="midnightblue" points="274.79,-140.17 285.36,-139.49 276.67,-133.42 274.79,-140.17"/>
</g>
<!-- Node5 -->
<g id="node5" class="node">
<title>Node5</title>
<g id="a_node5"><a xlink:href="classQuantConnect_1_1Logging_1_1Log.html#a4e55477fbc790846b74550a57198cea9" target="_top" xlink:title="Log trace">
<polygon fill="white" stroke="black" points="493.5,-91.5 493.5,-121.5 643.5,-121.5 643.5,-91.5 493.5,-91.5"/>
<text text-anchor="start" x="501.5" y="-109.5" font-family="Helvetica,sans-Serif" font-size="10.00">QuantConnect.Logging.Log.</text>
<text text-anchor="middle" x="568.5" y="-98.5" font-family="Helvetica,sans-Serif" font-size="10.00">Trace</text>
</a>
</g>
</g>
<!-- Node1&#45;&gt;Node5 -->
<g id="edge7" class="edge">
<title>Node1&#45;&gt;Node5</title>
<path fill="none" stroke="midnightblue" d="M190.28,-90.5C275.93,-94.13 401.11,-99.44 483.43,-102.93"/>
<polygon fill="midnightblue" stroke="midnightblue" points="483.36,-106.43 493.5,-103.36 483.65,-99.44 483.36,-106.43"/>
</g>
<!-- Node7 -->
<g id="node7" class="node">
<title>Node7</title>
<g id="a_node7"><a xlink:href="classQuantConnect_1_1ToolBox_1_1CoinApi_1_1CoinApiDataQueueHandler.html#af6fb914ba616573d4db217e681c97b18" target="_top" xlink:title="Subscribe to the specified configuration">
<polygon fill="white" stroke="black" points="232.5,-49.5 232.5,-79.5 447.5,-79.5 447.5,-49.5 232.5,-49.5"/>
<text text-anchor="start" x="240.5" y="-67.5" font-family="Helvetica,sans-Serif" font-size="10.00">QuantConnect.ToolBox.Coin</text>
<text text-anchor="middle" x="340" y="-56.5" font-family="Helvetica,sans-Serif" font-size="10.00">Api.CoinApiDataQueueHandler.Subscribe</text>
</a>
</g>
</g>
<!-- Node1&#45;&gt;Node7 -->
<g id="edge6" class="edge">
<title>Node1&#45;&gt;Node7</title>
<path fill="none" stroke="midnightblue" d="M190.3,-77.96C200.71,-77.02 211.41,-76.05 222.05,-75.09"/>
<polygon fill="midnightblue" stroke="midnightblue" points="222.59,-78.55 232.24,-74.17 221.96,-71.58 222.59,-78.55"/>
</g>
<!-- Node8 -->
<g id="node8" class="node">
<title>Node8</title>
<g id="a_node8"><a xlink:href="classQuantConnect_1_1ToolBox_1_1CoinApi_1_1CoinApiDataQueueHandler.html#a0d69587d992a575e97d434979c259d58" target="_top" xlink:title="Removes the specified configuration">
<polygon fill="white" stroke="black" points="226,-0.5 226,-30.5 454,-30.5 454,-0.5 226,-0.5"/>
<text text-anchor="start" x="234" y="-18.5" font-family="Helvetica,sans-Serif" font-size="10.00">QuantConnect.ToolBox.Coin</text>
<text text-anchor="middle" x="340" y="-7.5" font-family="Helvetica,sans-Serif" font-size="10.00">Api.CoinApiDataQueueHandler.Unsubscribe</text>
</a>
</g>
</g>
<!-- Node1&#45;&gt;Node8 -->
<g id="edge8" class="edge">
<title>Node1&#45;&gt;Node8</title>
<path fill="none" stroke="midnightblue" d="M147.65,-65.97C171.29,-57.06 199.81,-46.98 226,-39.5 234.2,-37.16 242.79,-34.94 251.41,-32.85"/>
<polygon fill="midnightblue" stroke="midnightblue" points="252.22,-36.26 261.15,-30.56 250.61,-29.44 252.22,-36.26"/>
</g>
<!-- Node3 -->
<g id="node3" class="node">
<title>Node3</title>
<g id="a_node3"><a xlink:href="classQuantConnect_1_1Configuration_1_1Config.html#a1504ca19b3759d008b090375ddf4ad10" target="_top" xlink:title="Gets the currently selected environment. If sub&#45;environments are defined, they&#39;ll be returned as {env...">
<polygon fill="white" stroke="black" points="490,-189.5 490,-219.5 647,-219.5 647,-189.5 490,-189.5"/>
<text text-anchor="start" x="498" y="-207.5" font-family="Helvetica,sans-Serif" font-size="10.00">QuantConnect.Configuration.</text>
<text text-anchor="middle" x="568.5" y="-196.5" font-family="Helvetica,sans-Serif" font-size="10.00">Config.GetEnvironment</text>
</a>
</g>
</g>
<!-- Node2&#45;&gt;Node3 -->
<g id="edge2" class="edge">
<title>Node2&#45;&gt;Node3</title>
<path fill="none" stroke="midnightblue" d="M408.96,-169.5C434.26,-175.09 463.18,-181.47 489.33,-187.24"/>
<polygon fill="midnightblue" stroke="midnightblue" points="488.68,-190.68 499.2,-189.42 490.19,-183.85 488.68,-190.68"/>
</g>
<!-- Node4 -->
<g id="node4" class="node">
<title>Node4</title>
<g id="a_node4"><a xlink:href="classQuantConnect_1_1Configuration_1_1Config.html#a9ed01bc116e8181a7557f3e668f34691" target="_top" xlink:title="Gets the underlying JToken for the specified key">
<polygon fill="white" stroke="black" points="490,-140.5 490,-170.5 647,-170.5 647,-140.5 490,-140.5"/>
<text text-anchor="start" x="498" y="-158.5" font-family="Helvetica,sans-Serif" font-size="10.00">QuantConnect.Configuration.</text>
<text text-anchor="middle" x="568.5" y="-147.5" font-family="Helvetica,sans-Serif" font-size="10.00">Config.GetToken</text>
</a>
</g>
</g>
<!-- Node2&#45;&gt;Node4 -->
<g id="edge3" class="edge">
<title>Node2&#45;&gt;Node4</title>
<path fill="none" stroke="midnightblue" d="M418.63,-154.84C438.35,-154.93 459.67,-155.02 479.85,-155.11"/>
<polygon fill="midnightblue" stroke="midnightblue" points="479.95,-158.61 489.97,-155.16 479.99,-151.61 479.95,-158.61"/>
</g>
<!-- Node2&#45;&gt;Node5 -->
<g id="edge4" class="edge">
<title>Node2&#45;&gt;Node5</title>
<path fill="none" stroke="midnightblue" d="M412.04,-139.44C435.76,-134.42 462.36,-128.78 486.76,-123.61"/>
<polygon fill="midnightblue" stroke="midnightblue" points="487.65,-127 496.71,-121.5 486.2,-120.15 487.65,-127"/>
</g>
<!-- Node6 -->
<g id="node6" class="node">
<title>Node6</title>
<g id="a_node6"><a xlink:href="interfaceQuantConnect_1_1Logging_1_1ILogHandler.html#a3fb71a33ac66129240b63f12b6fcda3b" target="_top" xlink:title="Write debug message to log">
<polygon fill="white" stroke="black" points="683,-91.5 683,-121.5 833,-121.5 833,-91.5 683,-91.5"/>
<text text-anchor="start" x="691" y="-109.5" font-family="Helvetica,sans-Serif" font-size="10.00">QuantConnect.Logging.ILog</text>
<text text-anchor="middle" x="758" y="-98.5" font-family="Helvetica,sans-Serif" font-size="10.00">Handler.Trace</text>
</a>
</g>
</g>
<!-- Node5&#45;&gt;Node6 -->
<g id="edge5" class="edge">
<title>Node5&#45;&gt;Node6</title>
<path fill="none" stroke="midnightblue" d="M643.6,-106.5C653.18,-106.5 663.04,-106.5 672.76,-106.5"/>
<polygon fill="midnightblue" stroke="midnightblue" points="672.82,-110 682.82,-106.5 672.82,-103 672.82,-110"/>
</g>
</g>
</svg>
        <g id="navigator" transform="translate(0 0)" fill="#404254">
                <rect fill="#f2f5e9" fill-opacity="0.5" stroke="#606060" stroke-width=".5" x="0" y="0" width="60" height="60"/>
                <use id="zoomplus" xlink:href="#zoomPlus" x="17" y="9" onmousedown="handleZoom(evt,'in')"/>
                <use id="zoomminus" xlink:href="#zoomMin" x="42" y="9" onmousedown="handleZoom(evt,'out')"/>
                <use id="reset" xlink:href="#resetDef" x="30" y="36" onmousedown="handleReset()"/>
                <g id="arrowUp" xlink:href="#dirArrow" transform="translate(30 24)" onmousedown="handlePan(0,-1)">
                  <use xlink:href="#rim" fill="#404040">
                        <set attributeName="fill" to="#808080" begin="arrowUp.mouseover" end="arrowUp.mouseout"/>
                  </use>
                  <path fill="none" stroke="white" stroke-width="1.5" d="M0,-3.0v7 M-2.5,-0.5L0,-3.0L2.5,-0.5"/>
                </g>
                <g id="arrowRight" xlink:href="#dirArrow" transform="rotate(90) translate(36 -43)" onmousedown="handlePan(1,0)">
                  <use xlink:href="#rim" fill="#404040">
                        <set attributeName="fill" to="#808080" begin="arrowRight.mouseover" end="arrowRight.mouseout"/>
                  </use>
                  <path fill="none" stroke="white" stroke-width="1.5" d="M0,-3.0v7 M-2.5,-0.5L0,-3.0L2.5,-0.5"/>
                </g>
                <g id="arrowDown" xlink:href="#dirArrow" transform="rotate(180) translate(-30 -48)" onmousedown="handlePan(0,1)">
                  <use xlink:href="#rim" fill="#404040">
                        <set attributeName="fill" to="#808080" begin="arrowDown.mouseover" end="arrowDown.mouseout"/>
                  </use>
                  <path fill="none" stroke="white" stroke-width="1.5" d="M0,-3.0v7 M-2.5,-0.5L0,-3.0L2.5,-0.5"/>
                </g>
                <g id="arrowLeft" xlink:href="#dirArrow" transform="rotate(270) translate(-36 17)" onmousedown="handlePan(-1,0)">
                  <use xlink:href="#rim" fill="#404040">
                        <set attributeName="fill" to="#808080" begin="arrowLeft.mouseover" end="arrowLeft.mouseout"/>
                  </use>
                  <path fill="none" stroke="white" stroke-width="1.5" d="M0,-3.0v7 M-2.5,-0.5L0,-3.0L2.5,-0.5"/>
                </g>
        </g>
        <svg viewBox="0 0 15 15" width="100%" height="30px" preserveAspectRatio="xMaxYMin meet">
         <g id="arrow_out" transform="scale(0.3 0.3)">
          <a xlink:href="classQuantConnect_1_1ToolBox_1_1CoinApi_1_1CoinApiDataQueueHandler_ac8244b889318588a9fd9f0c70c03d0de_cgraph_org.svg" target="_base">
           <rect id="button" ry="5" rx="5" y="6" x="6" height="38" width="38"
                fill="#f2f5e9" fill-opacity="0.5" stroke="#606060" stroke-width="1.0"/>
           <path id="arrow"
             d="M 11.500037,31.436501 C 11.940474,20.09759 22.043105,11.32322 32.158766,21.979434 L 37.068811,17.246167 C 37.068811,17.246167 37.088388,32 37.088388,32 L 22.160133,31.978069 C 22.160133,31.978069 26.997745,27.140456 26.997745,27.140456 C 18.528582,18.264221 13.291696,25.230495 11.500037,31.436501 z"
             style="fill:#404040;"/>
          </a>
         </g>
        </svg>
</svg>
