<?xml version="1.0" encoding="UTF-8" standalone="no"?>
<!DOCTYPE svg PUBLIC "-//W3C//DTD SVG 1.1//EN"
 "http://www.w3.org/Graphics/SVG/1.1/DTD/svg11.dtd">
<!-- Generated by graphviz version 2.43.0 (0)
 -->
<!-- Title: QuantConnect.Securities.MarketHoursDatabase.FromDataFolder Pages: 1 -->
<svg width="390pt" height="88pt"
 viewBox="0.00 0.00 390.00 88.00" xmlns="http://www.w3.org/2000/svg" xmlns:xlink="http://www.w3.org/1999/xlink">
<g id="graph0" class="graph" transform="scale(1 1) rotate(0) translate(4 84)">
<title>QuantConnect.Securities.MarketHoursDatabase.FromDataFolder</title>
<polygon fill="white" stroke="transparent" points="-4,4 -4,-84 386,-84 386,4 -4,4"/>
<!-- Node1 -->
<g id="node1" class="node">
<title>Node1</title>
<g id="a_node1"><a xlink:title="Gets the instance of the MarketHoursDatabase class produced by reading in the market hours data found...">
<polygon fill="#bfbfbf" stroke="black" points="0,-19 0,-60 176,-60 176,-19 0,-19"/>
<text text-anchor="start" x="8" y="-48" font-family="Helvetica,sans-Serif" font-size="10.00">QuantConnect.Securities.</text>
<text text-anchor="start" x="8" y="-37" font-family="Helvetica,sans-Serif" font-size="10.00">MarketHoursDatabase.FromData</text>
<text text-anchor="middle" x="88" y="-26" font-family="Helvetica,sans-Serif" font-size="10.00">Folder</text>
</a>
</g>
</g>
<!-- Node2 -->
<g id="node2" class="node">
<title>Node2</title>
<g id="a_node2"><a xlink:href="classQuantConnect_1_1Securities_1_1MarketHoursDatabase.html#a6fdcc5f6d09cc11743e258e570d0a9eb" target="_top" xlink:title="Reads the specified file as a market hours database instance">
<polygon fill="white" stroke="black" points="212,-49.5 212,-79.5 382,-79.5 382,-49.5 212,-49.5"/>
<text text-anchor="start" x="220" y="-67.5" font-family="Helvetica,sans-Serif" font-size="10.00">QuantConnect.Securities.</text>
<text text-anchor="middle" x="297" y="-56.5" font-family="Helvetica,sans-Serif" font-size="10.00">MarketHoursDatabase.FromFile</text>
</a>
</g>
</g>
<!-- Node1&#45;&gt;Node2 -->
<g id="edge1" class="edge">
<title>Node1&#45;&gt;Node2</title>
<path fill="none" stroke="midnightblue" d="M176.19,-50.03C184.68,-51.06 193.33,-52.1 201.89,-53.13"/>
<polygon fill="midnightblue" stroke="midnightblue" points="201.54,-56.62 211.89,-54.34 202.38,-49.67 201.54,-56.62"/>
</g>
<!-- Node3 -->
<g id="node3" class="node">
<title>Node3</title>
<g id="a_node3"><a xlink:href="classQuantConnect_1_1Globals.html#ae01b5c94ef475a21ab1a62fe1b04ea5c" target="_top" xlink:title="Helper method that will build a data folder path checking if it exists on the cache folder else will ...">
<polygon fill="white" stroke="black" points="224,-0.5 224,-30.5 370,-30.5 370,-0.5 224,-0.5"/>
<text text-anchor="start" x="232" y="-18.5" font-family="Helvetica,sans-Serif" font-size="10.00">QuantConnect.Globals.Get</text>
<text text-anchor="middle" x="297" y="-7.5" font-family="Helvetica,sans-Serif" font-size="10.00">DataFolderPath</text>
</a>
</g>
</g>
<!-- Node1&#45;&gt;Node3 -->
<g id="edge2" class="edge">
<title>Node1&#45;&gt;Node3</title>
<path fill="none" stroke="midnightblue" d="M176.19,-29.39C188.62,-27.95 201.37,-26.47 213.7,-25.04"/>
<polygon fill="midnightblue" stroke="midnightblue" points="214.42,-28.48 223.95,-23.85 213.61,-21.53 214.42,-28.48"/>
</g>
</g>
</svg>
