<?xml version="1.0" encoding="UTF-8" standalone="no"?>
<!DOCTYPE svg PUBLIC "-//W3C//DTD SVG 1.1//EN"
 "http://www.w3.org/Graphics/SVG/1.1/DTD/svg11.dtd">
<!-- Generated by graphviz version 2.43.0 (0)
 -->
<!-- Title: QuantConnect.Algorithm.QCAlgorithm.SetLiveMode Pages: 1 -->
<svg width="607pt" height="88pt"
 viewBox="0.00 0.00 607.00 88.00" xmlns="http://www.w3.org/2000/svg" xmlns:xlink="http://www.w3.org/1999/xlink">
<g id="graph0" class="graph" transform="scale(1 1) rotate(0) translate(4 84)">
<title>QuantConnect.Algorithm.QCAlgorithm.SetLiveMode</title>
<polygon fill="white" stroke="transparent" points="-4,4 -4,-84 603,-84 603,4 -4,4"/>
<!-- Node1 -->
<g id="node1" class="node">
<title>Node1</title>
<g id="a_node1"><a xlink:title="Set live mode state of the algorithm run: Public setter for the algorithm property LiveMode.">
<polygon fill="#bfbfbf" stroke="black" points="0,-24.5 0,-54.5 205,-54.5 205,-24.5 0,-24.5"/>
<text text-anchor="start" x="8" y="-42.5" font-family="Helvetica,sans-Serif" font-size="10.00">QuantConnect.Algorithm.QCAlgorithm.</text>
<text text-anchor="middle" x="102.5" y="-31.5" font-family="Helvetica,sans-Serif" font-size="10.00">SetLiveMode</text>
</a>
</g>
</g>
<!-- Node2 -->
<g id="node2" class="node">
<title>Node2</title>
<g id="a_node2"><a xlink:href="classQuantConnect_1_1Statistics_1_1TradeBuilder.html#a36ad17c727161c8fb7a25109941e9a48" target="_top" xlink:title="Sets the live mode flag">
<polygon fill="white" stroke="black" points="251.5,-49.5 251.5,-79.5 394.5,-79.5 394.5,-49.5 251.5,-49.5"/>
<text text-anchor="start" x="259.5" y="-67.5" font-family="Helvetica,sans-Serif" font-size="10.00">QuantConnect.Statistics.</text>
<text text-anchor="middle" x="323" y="-56.5" font-family="Helvetica,sans-Serif" font-size="10.00">TradeBuilder.SetLiveMode</text>
</a>
</g>
</g>
<!-- Node1&#45;&gt;Node2 -->
<g id="edge1" class="edge">
<title>Node1&#45;&gt;Node2</title>
<path fill="none" stroke="midnightblue" d="M205.07,-51.12C217.14,-52.5 229.33,-53.9 241.06,-55.24"/>
<polygon fill="midnightblue" stroke="midnightblue" points="240.9,-58.74 251.23,-56.4 241.69,-51.79 240.9,-58.74"/>
</g>
<!-- Node3 -->
<g id="node3" class="node">
<title>Node3</title>
<g id="a_node3"><a xlink:href="classQuantConnect_1_1Securities_1_1SecurityManager.html#a3d297da1225d475edbc6279b26445244" target="_top" xlink:title="Set live mode state of the algorithm">
<polygon fill="white" stroke="black" points="241,-0.5 241,-30.5 405,-30.5 405,-0.5 241,-0.5"/>
<text text-anchor="start" x="249" y="-18.5" font-family="Helvetica,sans-Serif" font-size="10.00">QuantConnect.Securities.</text>
<text text-anchor="middle" x="323" y="-7.5" font-family="Helvetica,sans-Serif" font-size="10.00">SecurityManager.SetLiveMode</text>
</a>
</g>
</g>
<!-- Node1&#45;&gt;Node3 -->
<g id="edge2" class="edge">
<title>Node1&#45;&gt;Node3</title>
<path fill="none" stroke="midnightblue" d="M205.07,-28.34C213.72,-27.39 222.44,-26.44 231,-25.5"/>
<polygon fill="midnightblue" stroke="midnightblue" points="231.41,-28.97 240.97,-24.4 230.65,-22.01 231.41,-28.97"/>
</g>
<!-- Node4 -->
<g id="node4" class="node">
<title>Node4</title>
<g id="a_node4"><a xlink:href="classQuantConnect_1_1Securities_1_1SecurityService.html#abb1391cd605b925d2a9fa0a0a059ade8" target="_top" xlink:title="Set live mode state of the algorithm">
<polygon fill="white" stroke="black" points="441,-0.5 441,-30.5 599,-30.5 599,-0.5 441,-0.5"/>
<text text-anchor="start" x="449" y="-18.5" font-family="Helvetica,sans-Serif" font-size="10.00">QuantConnect.Securities.</text>
<text text-anchor="middle" x="520" y="-7.5" font-family="Helvetica,sans-Serif" font-size="10.00">SecurityService.SetLiveMode</text>
</a>
</g>
</g>
<!-- Node3&#45;&gt;Node4 -->
<g id="edge3" class="edge">
<title>Node3&#45;&gt;Node4</title>
<path fill="none" stroke="midnightblue" d="M405,-15.5C413.5,-15.5 422.17,-15.5 430.75,-15.5"/>
<polygon fill="midnightblue" stroke="midnightblue" points="430.75,-19 440.75,-15.5 430.75,-12 430.75,-19"/>
</g>
</g>
</svg>
