<?xml version="1.0" encoding="UTF-8" standalone="no"?>
<!DOCTYPE svg PUBLIC "-//W3C//DTD SVG 1.1//EN"
 "http://www.w3.org/Graphics/SVG/1.1/DTD/svg11.dtd">
<!-- Generated by graphviz version 2.43.0 (0)
 -->
<!-- Title: QuantConnect.Indicators.CandlestickPatterns.HomingPigeon.ComputeNextValue Pages: 1 -->
<!--zoomable 280 -->
<svg id="main" version="1.1" xmlns="http://www.w3.org/2000/svg" xmlns:xlink="http://www.w3.org/1999/xlink" xml:space="preserve" onload="init(evt)">
<style type="text/css"><![CDATA[
.edge:hover path { stroke: red; }
.edge:hover polygon { stroke: red; fill: red; }
]]></style>
<script type="text/javascript"><![CDATA[
var edges = document.getElementsByTagName('g');
if (edges && edges.length) {
  for (var i=0;i<edges.length;i++) {
    if (edges[i].id.substr(0,4)=='edge') {
      edges[i].setAttribute('class','edge');
    }
  }
}
]]></script>
        <defs>
                <circle id="rim" cx="0" cy="0" r="7"/>
                <circle id="rim2" cx="0" cy="0" r="3.5"/>
                <g id="zoomPlus">
                        <use xlink:href="#rim" fill="#404040">
                                <set attributeName="fill" to="#808080" begin="zoomplus.mouseover" end="zoomplus.mouseout"/>
                        </use>
                        <path d="M-4,0h8M0,-4v8" fill="none" stroke="white" stroke-width="1.5" pointer-events="none"/>
                </g>
                <g id="zoomMin">
                        <use xlink:href="#rim" fill="#404040">
                                <set attributeName="fill" to="#808080" begin="zoomminus.mouseover" end="zoomminus.mouseout"/>
                        </use>
                        <path d="M-4,0h8" fill="none" stroke="white" stroke-width="1.5" pointer-events="none"/>
                </g>
                <g id="dirArrow">
                        <path fill="none" stroke="white" stroke-width="1.5" d="M0,-3.0v7 M-2.5,-0.5L0,-3.0L2.5,-0.5"/>
                </g>
               <g id="resetDef">
                       <use xlink:href="#rim2" fill="#404040">
                               <set attributeName="fill" to="#808080" begin="reset.mouseover" end="reset.mouseout"/>
                       </use>
               </g>
        </defs>

<script type="text/javascript">
var viewWidth = 863;
var viewHeight = 280;
var sectionId = 'dynsection-2';
</script>
<script xlink:href="svgpan.js"/>
<svg id="graph" class="graph">
<g id="viewport">
<title>QuantConnect.Indicators.CandlestickPatterns.HomingPigeon.ComputeNextValue</title>
<polygon fill="white" stroke="transparent" points="-4,4 -4,-275.5 859,-275.5 859,4 -4,4"/>
<!-- Node1 -->
<g id="node1" class="node">
<title>Node1</title>
<g id="a_node1"><a xlink:title="Computes the next value of this indicator from the given state">
<polygon fill="#bfbfbf" stroke="black" points="0,-71.5 0,-112.5 191,-112.5 191,-71.5 0,-71.5"/>
<text text-anchor="start" x="8" y="-100.5" font-family="Helvetica,sans-Serif" font-size="10.00">QuantConnect.Indicators.</text>
<text text-anchor="start" x="8" y="-89.5" font-family="Helvetica,sans-Serif" font-size="10.00">CandlestickPatterns.HomingPigeon.</text>
<text text-anchor="middle" x="95.5" y="-78.5" font-family="Helvetica,sans-Serif" font-size="10.00">ComputeNextValue</text>
</a>
</g>
</g>
<!-- Node2 -->
<g id="node2" class="node">
<title>Node2</title>
<g id="a_node2"><a xlink:href="classQuantConnect_1_1Indicators_1_1CandlestickPatterns_1_1CandlestickPattern.html#abfef9cee8cff1859d77bb2c54ded7322" target="_top" xlink:title="Returns the average range of the previous candles">
<polygon fill="white" stroke="black" points="227,-139.5 227,-180.5 400,-180.5 400,-139.5 227,-139.5"/>
<text text-anchor="start" x="235" y="-168.5" font-family="Helvetica,sans-Serif" font-size="10.00">QuantConnect.Indicators.</text>
<text text-anchor="start" x="235" y="-157.5" font-family="Helvetica,sans-Serif" font-size="10.00">CandlestickPatterns.Candlestick</text>
<text text-anchor="middle" x="313.5" y="-146.5" font-family="Helvetica,sans-Serif" font-size="10.00">Pattern.GetCandleAverage</text>
</a>
</g>
</g>
<!-- Node1&#45;&gt;Node2 -->
<g id="edge1" class="edge">
<title>Node1&#45;&gt;Node2</title>
<path fill="none" stroke="midnightblue" d="M161.89,-112.59C185.79,-120.11 213,-128.68 237.66,-136.44"/>
<polygon fill="midnightblue" stroke="midnightblue" points="236.74,-139.82 247.33,-139.48 238.84,-133.14 236.74,-139.82"/>
</g>
<!-- Node4 -->
<g id="node4" class="node">
<title>Node4</title>
<g id="a_node4"><a xlink:href="classQuantConnect_1_1Indicators_1_1CandlestickPatterns_1_1CandlestickPattern.html#a05b2e39af6efdc4ef734663b1c31d61e" target="_top" xlink:title="Returns the range of a candle">
<polygon fill="white" stroke="black" points="436,-120.5 436,-161.5 609,-161.5 609,-120.5 436,-120.5"/>
<text text-anchor="start" x="444" y="-149.5" font-family="Helvetica,sans-Serif" font-size="10.00">QuantConnect.Indicators.</text>
<text text-anchor="start" x="444" y="-138.5" font-family="Helvetica,sans-Serif" font-size="10.00">CandlestickPatterns.Candlestick</text>
<text text-anchor="middle" x="522.5" y="-127.5" font-family="Helvetica,sans-Serif" font-size="10.00">Pattern.GetCandleRange</text>
</a>
</g>
</g>
<!-- Node1&#45;&gt;Node4 -->
<g id="edge10" class="edge">
<title>Node1&#45;&gt;Node4</title>
<path fill="none" stroke="midnightblue" d="M191.09,-102.91C260.91,-110.96 355.58,-121.87 425.69,-129.95"/>
<polygon fill="midnightblue" stroke="midnightblue" points="425.52,-133.46 435.85,-131.13 426.32,-126.5 425.52,-133.46"/>
</g>
<!-- Node7 -->
<g id="node7" class="node">
<title>Node7</title>
<g id="a_node7"><a xlink:href="classQuantConnect_1_1Indicators_1_1CandlestickPatterns_1_1CandlestickPattern.html#a47cb6b45c58d94689f6233487e981d10" target="_top" xlink:title="Returns the distance between the close and the open of a candle">
<polygon fill="white" stroke="black" points="663.5,-0.5 663.5,-41.5 836.5,-41.5 836.5,-0.5 663.5,-0.5"/>
<text text-anchor="start" x="671.5" y="-29.5" font-family="Helvetica,sans-Serif" font-size="10.00">QuantConnect.Indicators.</text>
<text text-anchor="start" x="671.5" y="-18.5" font-family="Helvetica,sans-Serif" font-size="10.00">CandlestickPatterns.Candlestick</text>
<text text-anchor="middle" x="750" y="-7.5" font-family="Helvetica,sans-Serif" font-size="10.00">Pattern.GetRealBody</text>
</a>
</g>
</g>
<!-- Node1&#45;&gt;Node7 -->
<g id="edge11" class="edge">
<title>Node1&#45;&gt;Node7</title>
<path fill="none" stroke="midnightblue" d="M191.03,-81.71C314.36,-68.29 528.99,-44.94 653.03,-31.44"/>
<polygon fill="midnightblue" stroke="midnightblue" points="653.71,-34.89 663.27,-30.33 652.95,-27.93 653.71,-34.89"/>
</g>
<!-- Node9 -->
<g id="node9" class="node">
<title>Node9</title>
<g id="a_node9"><a xlink:href="classQuantConnect_1_1Indicators_1_1CandlestickPatterns_1_1CandlestickPattern.html#a4ffcf1c3b910415989e6d399b917f499" target="_top" xlink:title="Returns the candle color of a candle">
<polygon fill="white" stroke="black" points="227,-3.5 227,-44.5 400,-44.5 400,-3.5 227,-3.5"/>
<text text-anchor="start" x="235" y="-32.5" font-family="Helvetica,sans-Serif" font-size="10.00">QuantConnect.Indicators.</text>
<text text-anchor="start" x="235" y="-21.5" font-family="Helvetica,sans-Serif" font-size="10.00">CandlestickPatterns.Candlestick</text>
<text text-anchor="middle" x="313.5" y="-10.5" font-family="Helvetica,sans-Serif" font-size="10.00">Pattern.GetCandleColor</text>
</a>
</g>
</g>
<!-- Node1&#45;&gt;Node9 -->
<g id="edge9" class="edge">
<title>Node1&#45;&gt;Node9</title>
<path fill="none" stroke="midnightblue" d="M161.89,-71.41C185.79,-63.89 213,-55.32 237.66,-47.56"/>
<polygon fill="midnightblue" stroke="midnightblue" points="238.84,-50.86 247.33,-44.52 236.74,-44.18 238.84,-50.86"/>
</g>
<!-- Node3 -->
<g id="node3" class="node">
<title>Node3</title>
<g id="a_node3"><a xlink:href="classQuantConnect_1_1Indicators_1_1CandlestickPatterns_1_1CandleSettings.html#a1e65d2caf61e018e94574519fee75620" target="_top" xlink:title="Returns the candle setting for the requested type">
<polygon fill="white" stroke="black" points="645,-241 645,-271 855,-271 855,-241 645,-241"/>
<text text-anchor="start" x="653" y="-259" font-family="Helvetica,sans-Serif" font-size="10.00">QuantConnect.Indicators.</text>
<text text-anchor="middle" x="750" y="-248" font-family="Helvetica,sans-Serif" font-size="10.00">CandlestickPatterns.CandleSettings.Get</text>
</a>
</g>
</g>
<!-- Node2&#45;&gt;Node3 -->
<g id="edge2" class="edge">
<title>Node2&#45;&gt;Node3</title>
<path fill="none" stroke="midnightblue" d="M400.08,-178.91C478.87,-196.32 594.76,-221.92 671.04,-238.78"/>
<polygon fill="midnightblue" stroke="midnightblue" points="670.55,-242.25 681.07,-240.99 672.06,-235.42 670.55,-242.25"/>
</g>
<!-- Node2&#45;&gt;Node4 -->
<g id="edge3" class="edge">
<title>Node2&#45;&gt;Node4</title>
<path fill="none" stroke="midnightblue" d="M400.19,-152.13C408.66,-151.36 417.3,-150.56 425.87,-149.78"/>
<polygon fill="midnightblue" stroke="midnightblue" points="426.24,-153.26 435.88,-148.86 425.6,-146.29 426.24,-153.26"/>
</g>
<!-- Node4&#45;&gt;Node3 -->
<g id="edge4" class="edge">
<title>Node4&#45;&gt;Node3</title>
<path fill="none" stroke="midnightblue" d="M548.84,-161.66C578.11,-185.19 624.84,-221.59 645,-231 650.28,-233.47 655.83,-235.7 661.51,-237.73"/>
<polygon fill="midnightblue" stroke="midnightblue" points="660.55,-241.1 671.14,-240.95 662.77,-234.46 660.55,-241.1"/>
</g>
<!-- Node5 -->
<g id="node5" class="node">
<title>Node5</title>
<g id="a_node5"><a xlink:href="classQuantConnect_1_1Indicators_1_1CandlestickPatterns_1_1CandlestickPattern.html#ae61e2032511d5338a48f8d5b8be906b7" target="_top" xlink:title="Returns the full range of the candle">
<polygon fill="white" stroke="black" points="663.5,-180.5 663.5,-221.5 836.5,-221.5 836.5,-180.5 663.5,-180.5"/>
<text text-anchor="start" x="671.5" y="-209.5" font-family="Helvetica,sans-Serif" font-size="10.00">QuantConnect.Indicators.</text>
<text text-anchor="start" x="671.5" y="-198.5" font-family="Helvetica,sans-Serif" font-size="10.00">CandlestickPatterns.Candlestick</text>
<text text-anchor="middle" x="750" y="-187.5" font-family="Helvetica,sans-Serif" font-size="10.00">Pattern.GetHighLowRange</text>
</a>
</g>
</g>
<!-- Node4&#45;&gt;Node5 -->
<g id="edge5" class="edge">
<title>Node4&#45;&gt;Node5</title>
<path fill="none" stroke="midnightblue" d="M600.79,-161.56C620.51,-166.81 641.84,-172.49 662.02,-177.86"/>
<polygon fill="midnightblue" stroke="midnightblue" points="661.25,-181.27 671.81,-180.46 663.05,-174.51 661.25,-181.27"/>
</g>
<!-- Node6 -->
<g id="node6" class="node">
<title>Node6</title>
<g id="a_node6"><a xlink:href="classQuantConnect_1_1Indicators_1_1CandlestickPatterns_1_1CandlestickPattern.html#ae57bf84c9247ead2c32aab56c2e4ecac" target="_top" xlink:title="Returns the range of the candle&#39;s lower shadow">
<polygon fill="white" stroke="black" points="663.5,-120.5 663.5,-161.5 836.5,-161.5 836.5,-120.5 663.5,-120.5"/>
<text text-anchor="start" x="671.5" y="-149.5" font-family="Helvetica,sans-Serif" font-size="10.00">QuantConnect.Indicators.</text>
<text text-anchor="start" x="671.5" y="-138.5" font-family="Helvetica,sans-Serif" font-size="10.00">CandlestickPatterns.Candlestick</text>
<text text-anchor="middle" x="750" y="-127.5" font-family="Helvetica,sans-Serif" font-size="10.00">Pattern.GetLowerShadow</text>
</a>
</g>
</g>
<!-- Node4&#45;&gt;Node6 -->
<g id="edge6" class="edge">
<title>Node4&#45;&gt;Node6</title>
<path fill="none" stroke="midnightblue" d="M609.07,-141C623.55,-141 638.66,-141 653.38,-141"/>
<polygon fill="midnightblue" stroke="midnightblue" points="653.49,-144.5 663.49,-141 653.48,-137.5 653.49,-144.5"/>
</g>
<!-- Node4&#45;&gt;Node7 -->
<g id="edge7" class="edge">
<title>Node4&#45;&gt;Node7</title>
<path fill="none" stroke="midnightblue" d="M560.07,-120.36C575.68,-110.94 593.78,-99.17 609,-87 626.67,-72.87 625.51,-62.5 645,-51 648.18,-49.12 651.49,-47.36 654.88,-45.7"/>
<polygon fill="midnightblue" stroke="midnightblue" points="656.37,-48.86 664.04,-41.54 653.48,-42.49 656.37,-48.86"/>
</g>
<!-- Node8 -->
<g id="node8" class="node">
<title>Node8</title>
<g id="a_node8"><a xlink:href="classQuantConnect_1_1Indicators_1_1CandlestickPatterns_1_1CandlestickPattern.html#ab499aa69437c2a6e83b2f1c05421c203" target="_top" xlink:title="Returns the range of the candle&#39;s upper shadow">
<polygon fill="white" stroke="black" points="663.5,-60.5 663.5,-101.5 836.5,-101.5 836.5,-60.5 663.5,-60.5"/>
<text text-anchor="start" x="671.5" y="-89.5" font-family="Helvetica,sans-Serif" font-size="10.00">QuantConnect.Indicators.</text>
<text text-anchor="start" x="671.5" y="-78.5" font-family="Helvetica,sans-Serif" font-size="10.00">CandlestickPatterns.Candlestick</text>
<text text-anchor="middle" x="750" y="-67.5" font-family="Helvetica,sans-Serif" font-size="10.00">Pattern.GetUpperShadow</text>
</a>
</g>
</g>
<!-- Node4&#45;&gt;Node8 -->
<g id="edge8" class="edge">
<title>Node4&#45;&gt;Node8</title>
<path fill="none" stroke="midnightblue" d="M600.79,-120.44C620.51,-115.19 641.84,-109.51 662.02,-104.14"/>
<polygon fill="midnightblue" stroke="midnightblue" points="663.05,-107.49 671.81,-101.54 661.25,-100.73 663.05,-107.49"/>
</g>
</g>
</svg>
        <g id="navigator" transform="translate(0 0)" fill="#404254">
                <rect fill="#f2f5e9" fill-opacity="0.5" stroke="#606060" stroke-width=".5" x="0" y="0" width="60" height="60"/>
                <use id="zoomplus" xlink:href="#zoomPlus" x="17" y="9" onmousedown="handleZoom(evt,'in')"/>
                <use id="zoomminus" xlink:href="#zoomMin" x="42" y="9" onmousedown="handleZoom(evt,'out')"/>
                <use id="reset" xlink:href="#resetDef" x="30" y="36" onmousedown="handleReset()"/>
                <g id="arrowUp" xlink:href="#dirArrow" transform="translate(30 24)" onmousedown="handlePan(0,-1)">
                  <use xlink:href="#rim" fill="#404040">
                        <set attributeName="fill" to="#808080" begin="arrowUp.mouseover" end="arrowUp.mouseout"/>
                  </use>
                  <path fill="none" stroke="white" stroke-width="1.5" d="M0,-3.0v7 M-2.5,-0.5L0,-3.0L2.5,-0.5"/>
                </g>
                <g id="arrowRight" xlink:href="#dirArrow" transform="rotate(90) translate(36 -43)" onmousedown="handlePan(1,0)">
                  <use xlink:href="#rim" fill="#404040">
                        <set attributeName="fill" to="#808080" begin="arrowRight.mouseover" end="arrowRight.mouseout"/>
                  </use>
                  <path fill="none" stroke="white" stroke-width="1.5" d="M0,-3.0v7 M-2.5,-0.5L0,-3.0L2.5,-0.5"/>
                </g>
                <g id="arrowDown" xlink:href="#dirArrow" transform="rotate(180) translate(-30 -48)" onmousedown="handlePan(0,1)">
                  <use xlink:href="#rim" fill="#404040">
                        <set attributeName="fill" to="#808080" begin="arrowDown.mouseover" end="arrowDown.mouseout"/>
                  </use>
                  <path fill="none" stroke="white" stroke-width="1.5" d="M0,-3.0v7 M-2.5,-0.5L0,-3.0L2.5,-0.5"/>
                </g>
                <g id="arrowLeft" xlink:href="#dirArrow" transform="rotate(270) translate(-36 17)" onmousedown="handlePan(-1,0)">
                  <use xlink:href="#rim" fill="#404040">
                        <set attributeName="fill" to="#808080" begin="arrowLeft.mouseover" end="arrowLeft.mouseout"/>
                  </use>
                  <path fill="none" stroke="white" stroke-width="1.5" d="M0,-3.0v7 M-2.5,-0.5L0,-3.0L2.5,-0.5"/>
                </g>
        </g>
        <svg viewBox="0 0 15 15" width="100%" height="30px" preserveAspectRatio="xMaxYMin meet">
         <g id="arrow_out" transform="scale(0.3 0.3)">
          <a xlink:href="classQuantConnect_1_1Indicators_1_1CandlestickPatterns_1_1HomingPigeon_a9c51973c30c0594d81a75a971396bfe0_cgraph_org.svg" target="_base">
           <rect id="button" ry="5" rx="5" y="6" x="6" height="38" width="38"
                fill="#f2f5e9" fill-opacity="0.5" stroke="#606060" stroke-width="1.0"/>
           <path id="arrow"
             d="M 11.500037,31.436501 C 11.940474,20.09759 22.043105,11.32322 32.158766,21.979434 L 37.068811,17.246167 C 37.068811,17.246167 37.088388,32 37.088388,32 L 22.160133,31.978069 C 22.160133,31.978069 26.997745,27.140456 26.997745,27.140456 C 18.528582,18.264221 13.291696,25.230495 11.500037,31.436501 z"
             style="fill:#404040;"/>
          </a>
         </g>
        </svg>
</svg>
