<?xml version="1.0" encoding="UTF-8" standalone="no"?>
<!DOCTYPE svg PUBLIC "-//W3C//DTD SVG 1.1//EN"
 "http://www.w3.org/Graphics/SVG/1.1/DTD/svg11.dtd">
<!-- Generated by graphviz version 2.43.0 (0)
 -->
<!-- Title: QuantConnect.SymbolRepresentation.GenerateFutureTicker Pages: 1 -->
<svg width="513pt" height="50pt"
 viewBox="0.00 0.00 513.00 50.00" xmlns="http://www.w3.org/2000/svg" xmlns:xlink="http://www.w3.org/1999/xlink">
<g id="graph0" class="graph" transform="scale(1 1) rotate(0) translate(4 46)">
<title>QuantConnect.SymbolRepresentation.GenerateFutureTicker</title>
<polygon fill="white" stroke="transparent" points="-4,4 -4,-46 509,-46 509,4 -4,4"/>
<!-- Node1 -->
<g id="node1" class="node">
<title>Node1</title>
<g id="a_node1"><a xlink:title="Returns future symbol ticker from underlying and expiration date. Function can generate tickers of tw...">
<polygon fill="#bfbfbf" stroke="black" points="0,-6 0,-36 203,-36 203,-6 0,-6"/>
<text text-anchor="start" x="8" y="-24" font-family="Helvetica,sans-Serif" font-size="10.00">QuantConnect.SymbolRepresentation.</text>
<text text-anchor="middle" x="101.5" y="-13" font-family="Helvetica,sans-Serif" font-size="10.00">GenerateFutureTicker</text>
</a>
</g>
</g>
<!-- Node2 -->
<g id="node2" class="node">
<title>Node2</title>
<g id="a_node2"><a xlink:href="classQuantConnect_1_1Securities_1_1Future_1_1FuturesExpiryUtilityFunctions.html#a4ccb1e2f2fe40ff09785a74a02f26df1" target="_top" xlink:title="Gets the number of months between the contract month and the expiry date.">
<polygon fill="white" stroke="black" points="239,-0.5 239,-41.5 505,-41.5 505,-0.5 239,-0.5"/>
<text text-anchor="start" x="247" y="-29.5" font-family="Helvetica,sans-Serif" font-size="10.00">QuantConnect.Securities.</text>
<text text-anchor="start" x="247" y="-18.5" font-family="Helvetica,sans-Serif" font-size="10.00">Future.FuturesExpiryUtilityFunctions.</text>
<text text-anchor="middle" x="372" y="-7.5" font-family="Helvetica,sans-Serif" font-size="10.00">GetDeltaBetweenContractMonthAndContractExpiry</text>
</a>
</g>
</g>
<!-- Node1&#45;&gt;Node2 -->
<g id="edge1" class="edge">
<title>Node1&#45;&gt;Node2</title>
<path fill="none" stroke="midnightblue" d="M203.24,-21C211.59,-21 220.11,-21 228.68,-21"/>
<polygon fill="midnightblue" stroke="midnightblue" points="228.76,-24.5 238.76,-21 228.76,-17.5 228.76,-24.5"/>
</g>
</g>
</svg>
