<?xml version="1.0" encoding="UTF-8" standalone="no"?>
<!DOCTYPE svg PUBLIC "-//W3C//DTD SVG 1.1//EN"
 "http://www.w3.org/Graphics/SVG/1.1/DTD/svg11.dtd">
<!-- Generated by graphviz version 2.43.0 (0)
 -->
<!-- Title: QuantConnect.Brokerages.DefaultBrokerageModel.IsValidOrderSize Pages: 1 -->
<svg width="439pt" height="394pt"
 viewBox="0.00 0.00 439.00 394.00" xmlns="http://www.w3.org/2000/svg" xmlns:xlink="http://www.w3.org/1999/xlink">
<g id="graph0" class="graph" transform="scale(1 1) rotate(0) translate(4 390)">
<title>QuantConnect.Brokerages.DefaultBrokerageModel.IsValidOrderSize</title>
<polygon fill="white" stroke="transparent" points="-4,4 -4,-390 435,-390 435,4 -4,4"/>
<!-- Node1 -->
<g id="node1" class="node">
<title>Node1</title>
<g id="a_node1"><a xlink:title="Checks if the order quantity is valid, it means, the order size is bigger than the minimum size allow...">
<polygon fill="#bfbfbf" stroke="black" points="264,-166 264,-207 431,-207 431,-166 264,-166"/>
<text text-anchor="start" x="272" y="-195" font-family="Helvetica,sans-Serif" font-size="10.00">QuantConnect.Brokerages.</text>
<text text-anchor="start" x="272" y="-184" font-family="Helvetica,sans-Serif" font-size="10.00">DefaultBrokerageModel.IsValid</text>
<text text-anchor="middle" x="347.5" y="-173" font-family="Helvetica,sans-Serif" font-size="10.00">OrderSize</text>
</a>
</g>
</g>
<!-- Node2 -->
<g id="node2" class="node">
<title>Node2</title>
<g id="a_node2"><a xlink:href="classQuantConnect_1_1Brokerages_1_1WolverineBrokerageModel.html#a9170c2b6bd35d0c825407a68d2ee22cd" target="_top" xlink:title="Returns true if the brokerage could accept this order. This takes into account order type,...">
<polygon fill="white" stroke="black" points="0,-355.5 0,-385.5 228,-385.5 228,-355.5 0,-355.5"/>
<text text-anchor="start" x="8" y="-373.5" font-family="Helvetica,sans-Serif" font-size="10.00">QuantConnect.Brokerages.</text>
<text text-anchor="middle" x="114" y="-362.5" font-family="Helvetica,sans-Serif" font-size="10.00">WolverineBrokerageModel.CanSubmitOrder</text>
</a>
</g>
</g>
<!-- Node1&#45;&gt;Node2 -->
<g id="edge1" class="edge">
<title>Node1&#45;&gt;Node2</title>
<path fill="none" stroke="midnightblue" d="M332.79,-216.41C314.36,-253.09 278.05,-314.33 228,-346.5 222.69,-349.92 216.97,-352.85 211.03,-355.38"/>
<polygon fill="midnightblue" stroke="midnightblue" points="336.04,-217.73 337.3,-207.21 329.76,-214.65 336.04,-217.73"/>
</g>
<!-- Node3 -->
<g id="node3" class="node">
<title>Node3</title>
<g id="a_node3"><a xlink:href="classQuantConnect_1_1Brokerages_1_1RBIBrokerageModel.html#a0d2fcf15ff4420059756f5ca495dd5a7" target="_top" xlink:title="Returns true if the brokerage could accept this order. This takes into account order type,...">
<polygon fill="white" stroke="black" points="16,-306.5 16,-336.5 212,-336.5 212,-306.5 16,-306.5"/>
<text text-anchor="start" x="24" y="-324.5" font-family="Helvetica,sans-Serif" font-size="10.00">QuantConnect.Brokerages.</text>
<text text-anchor="middle" x="114" y="-313.5" font-family="Helvetica,sans-Serif" font-size="10.00">RBIBrokerageModel.CanSubmitOrder</text>
</a>
</g>
</g>
<!-- Node1&#45;&gt;Node3 -->
<g id="edge2" class="edge">
<title>Node1&#45;&gt;Node3</title>
<path fill="none" stroke="midnightblue" d="M323.8,-214.82C301.94,-240.14 266.58,-276.27 228,-296.5 220.62,-300.37 212.66,-303.65 204.5,-306.41"/>
<polygon fill="midnightblue" stroke="midnightblue" points="326.62,-216.91 330.41,-207.02 321.27,-212.38 326.62,-216.91"/>
</g>
<!-- Node4 -->
<g id="node4" class="node">
<title>Node4</title>
<g id="a_node4"><a xlink:href="classQuantConnect_1_1Brokerages_1_1TDAmeritradeBrokerageModel.html#ab8d95519106607a7f184cbafeb10e2bd" target="_top" xlink:title="Returns true if the brokerage could accept this order. This takes into account order type,...">
<polygon fill="white" stroke="black" points="21,-246 21,-287 207,-287 207,-246 21,-246"/>
<text text-anchor="start" x="29" y="-275" font-family="Helvetica,sans-Serif" font-size="10.00">QuantConnect.Brokerages.</text>
<text text-anchor="start" x="29" y="-264" font-family="Helvetica,sans-Serif" font-size="10.00">TDAmeritradeBrokerageModel.Can</text>
<text text-anchor="middle" x="114" y="-253" font-family="Helvetica,sans-Serif" font-size="10.00">SubmitOrder</text>
</a>
</g>
</g>
<!-- Node1&#45;&gt;Node4 -->
<g id="edge3" class="edge">
<title>Node1&#45;&gt;Node4</title>
<path fill="none" stroke="midnightblue" d="M292.51,-211.16C272.48,-219.8 249.43,-229.17 228,-236.5 218.3,-239.82 208.03,-242.99 197.79,-245.95"/>
<polygon fill="midnightblue" stroke="midnightblue" points="294.01,-214.32 301.78,-207.12 291.21,-207.91 294.01,-214.32"/>
</g>
<!-- Node5 -->
<g id="node5" class="node">
<title>Node5</title>
<g id="a_node5"><a xlink:href="classQuantConnect_1_1Brokerages_1_1KrakenBrokerageModel.html#a37692d0d24f80c27c244a226333edbc5" target="_top" xlink:title="Returns true if the brokerage could accept this order. This takes into account order type,...">
<polygon fill="white" stroke="black" points="7.5,-196.5 7.5,-226.5 220.5,-226.5 220.5,-196.5 7.5,-196.5"/>
<text text-anchor="start" x="15.5" y="-214.5" font-family="Helvetica,sans-Serif" font-size="10.00">QuantConnect.Brokerages.</text>
<text text-anchor="middle" x="114" y="-203.5" font-family="Helvetica,sans-Serif" font-size="10.00">KrakenBrokerageModel.CanSubmitOrder</text>
</a>
</g>
</g>
<!-- Node1&#45;&gt;Node5 -->
<g id="edge4" class="edge">
<title>Node1&#45;&gt;Node5</title>
<path fill="none" stroke="midnightblue" d="M253.94,-196.5C242.99,-197.68 231.74,-198.89 220.63,-200.09"/>
<polygon fill="midnightblue" stroke="midnightblue" points="254.34,-199.97 263.9,-195.42 253.59,-193.01 254.34,-199.97"/>
</g>
<!-- Node6 -->
<g id="node6" class="node">
<title>Node6</title>
<g id="a_node6"><a xlink:href="classQuantConnect_1_1Brokerages_1_1FTXBrokerageModel.html#a0986a3547ce500de8dd64cfecb1ee51a" target="_top" xlink:title="Returns true if the brokerage could accept this order. This takes into account order type,...">
<polygon fill="white" stroke="black" points="15.5,-147.5 15.5,-177.5 212.5,-177.5 212.5,-147.5 15.5,-147.5"/>
<text text-anchor="start" x="23.5" y="-165.5" font-family="Helvetica,sans-Serif" font-size="10.00">QuantConnect.Brokerages.</text>
<text text-anchor="middle" x="114" y="-154.5" font-family="Helvetica,sans-Serif" font-size="10.00">FTXBrokerageModel.CanSubmitOrder</text>
</a>
</g>
</g>
<!-- Node1&#45;&gt;Node6 -->
<g id="edge5" class="edge">
<title>Node1&#45;&gt;Node6</title>
<path fill="none" stroke="midnightblue" d="M253.66,-176.88C240.15,-175.47 226.2,-174.03 212.59,-172.62"/>
<polygon fill="midnightblue" stroke="midnightblue" points="253.6,-180.39 263.9,-177.94 254.32,-173.42 253.6,-180.39"/>
</g>
<!-- Node7 -->
<g id="node7" class="node">
<title>Node7</title>
<g id="a_node7"><a xlink:href="classQuantConnect_1_1Brokerages_1_1BitfinexBrokerageModel.html#ac68c621edc8a0ad68f91131c269d0cef" target="_top" xlink:title="Returns true if the brokerage could accept this order. This takes into account order type,...">
<polygon fill="white" stroke="black" points="5.5,-98.5 5.5,-128.5 222.5,-128.5 222.5,-98.5 5.5,-98.5"/>
<text text-anchor="start" x="13.5" y="-116.5" font-family="Helvetica,sans-Serif" font-size="10.00">QuantConnect.Brokerages.</text>
<text text-anchor="middle" x="114" y="-105.5" font-family="Helvetica,sans-Serif" font-size="10.00">BitfinexBrokerageModel.CanSubmitOrder</text>
</a>
</g>
</g>
<!-- Node1&#45;&gt;Node7 -->
<g id="edge6" class="edge">
<title>Node1&#45;&gt;Node7</title>
<path fill="none" stroke="midnightblue" d="M291.55,-162.01C271.77,-153.8 249.13,-145.07 228,-138.5 216.2,-134.83 203.55,-131.49 191.13,-128.51"/>
<polygon fill="midnightblue" stroke="midnightblue" points="290.43,-165.34 301,-165.99 293.14,-158.89 290.43,-165.34"/>
</g>
<!-- Node8 -->
<g id="node8" class="node">
<title>Node8</title>
<g id="a_node8"><a xlink:href="classQuantConnect_1_1Brokerages_1_1CoinbaseBrokerageModel.html#a4733c3d643ca7eec26b1387e093bf1d4" target="_top" xlink:title="Evaluates whether exchange will accept order. Will reject order update">
<polygon fill="white" stroke="black" points="2,-49.5 2,-79.5 226,-79.5 226,-49.5 2,-49.5"/>
<text text-anchor="start" x="10" y="-67.5" font-family="Helvetica,sans-Serif" font-size="10.00">QuantConnect.Brokerages.</text>
<text text-anchor="middle" x="114" y="-56.5" font-family="Helvetica,sans-Serif" font-size="10.00">CoinbaseBrokerageModel.CanSubmitOrder</text>
</a>
</g>
</g>
<!-- Node1&#45;&gt;Node8 -->
<g id="edge7" class="edge">
<title>Node1&#45;&gt;Node8</title>
<path fill="none" stroke="midnightblue" d="M320.03,-158.56C297.59,-136.51 263.46,-106.71 228,-89.5 219.96,-85.6 211.29,-82.29 202.47,-79.5"/>
<polygon fill="midnightblue" stroke="midnightblue" points="317.64,-161.11 327.19,-165.7 322.59,-156.16 317.64,-161.11"/>
</g>
<!-- Node9 -->
<g id="node9" class="node">
<title>Node9</title>
<g id="a_node9"><a xlink:href="classQuantConnect_1_1Brokerages_1_1BitfinexBrokerageModel.html#a75c5a4d642f366e0ae0019e98c82f681" target="_top" xlink:title="Checks whether an order can be updated or not in the Bitfinex brokerage model">
<polygon fill="white" stroke="black" points="5,-0.5 5,-30.5 223,-30.5 223,-0.5 5,-0.5"/>
<text text-anchor="start" x="13" y="-18.5" font-family="Helvetica,sans-Serif" font-size="10.00">QuantConnect.Brokerages.</text>
<text text-anchor="middle" x="114" y="-7.5" font-family="Helvetica,sans-Serif" font-size="10.00">BitfinexBrokerageModel.CanUpdateOrder</text>
</a>
</g>
</g>
<!-- Node1&#45;&gt;Node9 -->
<g id="edge8" class="edge">
<title>Node1&#45;&gt;Node9</title>
<path fill="none" stroke="midnightblue" d="M330.73,-156.94C311.19,-123.31 274.71,-69.36 228,-40.5 221.68,-36.59 214.82,-33.29 207.72,-30.51"/>
<polygon fill="midnightblue" stroke="midnightblue" points="327.8,-158.87 335.78,-165.84 333.89,-155.42 327.8,-158.87"/>
</g>
</g>
</svg>
