<?xml version="1.0" encoding="UTF-8" standalone="no"?>
<!DOCTYPE svg PUBLIC "-//W3C//DTD SVG 1.1//EN"
 "http://www.w3.org/Graphics/SVG/1.1/DTD/svg11.dtd">
<!-- Generated by graphviz version 2.43.0 (0)
 -->
<!-- Title: QuantConnect.Securities.Option.OptionStrategyPositionGroupBuyingPowerModel.GetMaintenanceMargin Pages: 1 -->
<svg width="779pt" height="61pt"
 viewBox="0.00 0.00 779.00 61.00" xmlns="http://www.w3.org/2000/svg" xmlns:xlink="http://www.w3.org/1999/xlink">
<g id="graph0" class="graph" transform="scale(1 1) rotate(0) translate(4 57)">
<title>QuantConnect.Securities.Option.OptionStrategyPositionGroupBuyingPowerModel.GetMaintenanceMargin</title>
<polygon fill="white" stroke="transparent" points="-4,4 -4,-57 775,-57 775,4 -4,4"/>
<!-- Node1 -->
<g id="node1" class="node">
<title>Node1</title>
<g id="a_node1"><a xlink:title="Gets the margin currently allocated to the specified holding">
<polygon fill="#bfbfbf" stroke="black" points="514,-6 514,-47 771,-47 771,-6 514,-6"/>
<text text-anchor="start" x="522" y="-35" font-family="Helvetica,sans-Serif" font-size="10.00">QuantConnect.Securities.</text>
<text text-anchor="start" x="522" y="-24" font-family="Helvetica,sans-Serif" font-size="10.00">Option.OptionStrategyPosition</text>
<text text-anchor="middle" x="642.5" y="-13" font-family="Helvetica,sans-Serif" font-size="10.00">GroupBuyingPowerModel.GetMaintenanceMargin</text>
</a>
</g>
</g>
<!-- Node2 -->
<g id="node2" class="node">
<title>Node2</title>
<g id="a_node2"><a xlink:href="classQuantConnect_1_1Securities_1_1Option_1_1OptionStrategyPositionGroupBuyingPowerModel.html#abf48b9fd6f6e94bf46b02bed00a49482" target="_top" xlink:title="The margin that must be held in order to increase the position by the provided quantity">
<polygon fill="white" stroke="black" points="257,-0.5 257,-52.5 478,-52.5 478,-0.5 257,-0.5"/>
<text text-anchor="start" x="265" y="-40.5" font-family="Helvetica,sans-Serif" font-size="10.00">QuantConnect.Securities.</text>
<text text-anchor="start" x="265" y="-29.5" font-family="Helvetica,sans-Serif" font-size="10.00">Option.OptionStrategyPosition</text>
<text text-anchor="start" x="265" y="-18.5" font-family="Helvetica,sans-Serif" font-size="10.00">GroupBuyingPowerModel.GetInitialMargin</text>
<text text-anchor="middle" x="367.5" y="-7.5" font-family="Helvetica,sans-Serif" font-size="10.00">Requirement</text>
</a>
</g>
</g>
<!-- Node1&#45;&gt;Node2 -->
<g id="edge1" class="edge">
<title>Node1&#45;&gt;Node2</title>
<path fill="none" stroke="midnightblue" d="M503.71,-26.5C495.12,-26.5 486.53,-26.5 478.09,-26.5"/>
<polygon fill="midnightblue" stroke="midnightblue" points="503.79,-30 513.79,-26.5 503.79,-23 503.79,-30"/>
</g>
<!-- Node3 -->
<g id="node3" class="node">
<title>Node3</title>
<g id="a_node3"><a xlink:href="classQuantConnect_1_1Securities_1_1Option_1_1OptionStrategyPositionGroupBuyingPowerModel.html#a2d9855757dd79a4cfa4705183e96f2b9" target="_top" xlink:title="Gets the total margin required to execute the specified order in units of the account currency includ...">
<polygon fill="white" stroke="black" points="0,-0.5 0,-52.5 221,-52.5 221,-0.5 0,-0.5"/>
<text text-anchor="start" x="8" y="-40.5" font-family="Helvetica,sans-Serif" font-size="10.00">QuantConnect.Securities.</text>
<text text-anchor="start" x="8" y="-29.5" font-family="Helvetica,sans-Serif" font-size="10.00">Option.OptionStrategyPosition</text>
<text text-anchor="start" x="8" y="-18.5" font-family="Helvetica,sans-Serif" font-size="10.00">GroupBuyingPowerModel.GetInitialMargin</text>
<text text-anchor="middle" x="110.5" y="-7.5" font-family="Helvetica,sans-Serif" font-size="10.00">RequiredForOrder</text>
</a>
</g>
</g>
<!-- Node2&#45;&gt;Node3 -->
<g id="edge2" class="edge">
<title>Node2&#45;&gt;Node3</title>
<path fill="none" stroke="midnightblue" d="M246.81,-26.5C238.21,-26.5 229.57,-26.5 221.03,-26.5"/>
<polygon fill="midnightblue" stroke="midnightblue" points="246.88,-30 256.88,-26.5 246.88,-23 246.88,-30"/>
</g>
</g>
</svg>
