<?xml version="1.0" encoding="UTF-8" standalone="no"?>
<!DOCTYPE svg PUBLIC "-//W3C//DTD SVG 1.1//EN"
 "http://www.w3.org/Graphics/SVG/1.1/DTD/svg11.dtd">
<!-- Generated by graphviz version 2.43.0 (0)
 -->
<!-- Title: QuantConnect.Lean.Engine.DataFeeds.ApiDataProvider.Fetch Pages: 1 -->
<svg width="890pt" height="258pt"
 viewBox="0.00 0.00 890.00 258.00" xmlns="http://www.w3.org/2000/svg" xmlns:xlink="http://www.w3.org/1999/xlink">
<g id="graph0" class="graph" transform="scale(1 1) rotate(0) translate(4 254)">
<title>QuantConnect.Lean.Engine.DataFeeds.ApiDataProvider.Fetch</title>
<polygon fill="white" stroke="transparent" points="-4,4 -4,-254 886,-254 886,4 -4,4"/>
<!-- Node1 -->
<g id="node1" class="node">
<title>Node1</title>
<g id="a_node1"><a xlink:title="Retrieves data to be used in an algorithm. If file does not exist, an attempt is made to download the...">
<polygon fill="#bfbfbf" stroke="black" points="0,-100.5 0,-130.5 179,-130.5 179,-100.5 0,-100.5"/>
<text text-anchor="start" x="8" y="-118.5" font-family="Helvetica,sans-Serif" font-size="10.00">QuantConnect.Lean.Engine.</text>
<text text-anchor="middle" x="89.5" y="-107.5" font-family="Helvetica,sans-Serif" font-size="10.00">DataFeeds.ApiDataProvider.Fetch</text>
</a>
</g>
</g>
<!-- Node2 -->
<g id="node2" class="node">
<title>Node2</title>
<g id="a_node2"><a xlink:href="classQuantConnect_1_1Lean_1_1Engine_1_1DataFeeds_1_1ApiDataProvider.html#a64ac6ab055506a450fcfba7d9a4242d3" target="_top" xlink:title="Attempt to download data using the Api for and return a FileStream of that data.">
<polygon fill="white" stroke="black" points="215,-170.5 215,-200.5 440,-200.5 440,-170.5 215,-170.5"/>
<text text-anchor="start" x="223" y="-188.5" font-family="Helvetica,sans-Serif" font-size="10.00">QuantConnect.Lean.Engine.</text>
<text text-anchor="middle" x="327.5" y="-177.5" font-family="Helvetica,sans-Serif" font-size="10.00">DataFeeds.ApiDataProvider.DownloadData</text>
</a>
</g>
</g>
<!-- Node1&#45;&gt;Node2 -->
<g id="edge1" class="edge">
<title>Node1&#45;&gt;Node2</title>
<path fill="none" stroke="midnightblue" d="M141.13,-130.52C177.56,-141.32 226.87,-155.95 265.47,-167.4"/>
<polygon fill="midnightblue" stroke="midnightblue" points="264.97,-170.9 275.55,-170.39 266.96,-164.19 264.97,-170.9"/>
</g>
<!-- Node7 -->
<g id="node7" class="node">
<title>Node7</title>
<g id="a_node7"><a xlink:href="classQuantConnect_1_1Lean_1_1Engine_1_1DataFeeds_1_1BaseDownloaderDataProvider.html#a54edacc384d897c71b64bb4544257530" target="_top" xlink:title="Helper method which guarantees each requested key is downloaded only once concurrently if required ba...">
<polygon fill="white" stroke="black" points="217.5,-95 217.5,-136 437.5,-136 437.5,-95 217.5,-95"/>
<text text-anchor="start" x="225.5" y="-124" font-family="Helvetica,sans-Serif" font-size="10.00">QuantConnect.Lean.Engine.</text>
<text text-anchor="start" x="225.5" y="-113" font-family="Helvetica,sans-Serif" font-size="10.00">DataFeeds.BaseDownloaderDataProvider.</text>
<text text-anchor="middle" x="327.5" y="-102" font-family="Helvetica,sans-Serif" font-size="10.00">DownloadOnce</text>
</a>
</g>
</g>
<!-- Node1&#45;&gt;Node7 -->
<g id="edge6" class="edge">
<title>Node1&#45;&gt;Node7</title>
<path fill="none" stroke="midnightblue" d="M179.05,-115.5C188.17,-115.5 197.55,-115.5 206.94,-115.5"/>
<polygon fill="midnightblue" stroke="midnightblue" points="207.12,-119 217.12,-115.5 207.12,-112 207.12,-119"/>
</g>
<!-- Node10 -->
<g id="node10" class="node">
<title>Node10</title>
<g id="a_node10"><a xlink:href="classQuantConnect_1_1Api_1_1Api.html#af6fa3039e893707a6609b967051ad4c6" target="_top" xlink:title="Helper method to normalize path for api data requests">
<polygon fill="white" stroke="black" points="247,-15.5 247,-45.5 408,-45.5 408,-15.5 247,-15.5"/>
<text text-anchor="start" x="255" y="-33.5" font-family="Helvetica,sans-Serif" font-size="10.00">QuantConnect.Api.Api.Format</text>
<text text-anchor="middle" x="327.5" y="-22.5" font-family="Helvetica,sans-Serif" font-size="10.00">PathForDataRequest</text>
</a>
</g>
</g>
<!-- Node1&#45;&gt;Node10 -->
<g id="edge9" class="edge">
<title>Node1&#45;&gt;Node10</title>
<path fill="none" stroke="midnightblue" d="M132.15,-100.5C171.92,-86.17 231.98,-64.54 274.8,-49.12"/>
<polygon fill="midnightblue" stroke="midnightblue" points="276.25,-52.32 284.47,-45.64 273.88,-45.73 276.25,-52.32"/>
</g>
<!-- Node3 -->
<g id="node3" class="node">
<title>Node3</title>
<g id="a_node3"><a xlink:href="classQuantConnect_1_1Logging_1_1Log.html#ad908daef9d61532d7d60c9dcfb9a3e0c" target="_top" xlink:title="Output to the console">
<polygon fill="white" stroke="black" points="511,-219.5 511,-249.5 661,-249.5 661,-219.5 511,-219.5"/>
<text text-anchor="start" x="519" y="-237.5" font-family="Helvetica,sans-Serif" font-size="10.00">QuantConnect.Logging.Log.</text>
<text text-anchor="middle" x="586" y="-226.5" font-family="Helvetica,sans-Serif" font-size="10.00">Debug</text>
</a>
</g>
</g>
<!-- Node2&#45;&gt;Node3 -->
<g id="edge2" class="edge">
<title>Node2&#45;&gt;Node3</title>
<path fill="none" stroke="midnightblue" d="M407.2,-200.53C436.84,-206.2 470.65,-212.65 500.77,-218.41"/>
<polygon fill="midnightblue" stroke="midnightblue" points="500.35,-221.89 510.83,-220.33 501.67,-215.02 500.35,-221.89"/>
</g>
<!-- Node5 -->
<g id="node5" class="node">
<title>Node5</title>
<g id="a_node5"><a xlink:href="classQuantConnect_1_1Logging_1_1Log.html#a4e55477fbc790846b74550a57198cea9" target="_top" xlink:title="Log trace">
<polygon fill="white" stroke="black" points="511,-170.5 511,-200.5 661,-200.5 661,-170.5 511,-170.5"/>
<text text-anchor="start" x="519" y="-188.5" font-family="Helvetica,sans-Serif" font-size="10.00">QuantConnect.Logging.Log.</text>
<text text-anchor="middle" x="586" y="-177.5" font-family="Helvetica,sans-Serif" font-size="10.00">Trace</text>
</a>
</g>
</g>
<!-- Node2&#45;&gt;Node5 -->
<g id="edge4" class="edge">
<title>Node2&#45;&gt;Node5</title>
<path fill="none" stroke="midnightblue" d="M440.26,-185.5C460.51,-185.5 481.33,-185.5 500.63,-185.5"/>
<polygon fill="midnightblue" stroke="midnightblue" points="500.88,-189 510.88,-185.5 500.88,-182 500.88,-189"/>
</g>
<!-- Node4 -->
<g id="node4" class="node">
<title>Node4</title>
<g id="a_node4"><a xlink:href="interfaceQuantConnect_1_1Logging_1_1ILogHandler.html#a2c738b8e78dd5b54244bc68b969ba91d" target="_top" xlink:title="Write debug message to log">
<polygon fill="white" stroke="black" points="732,-219.5 732,-249.5 882,-249.5 882,-219.5 732,-219.5"/>
<text text-anchor="start" x="740" y="-237.5" font-family="Helvetica,sans-Serif" font-size="10.00">QuantConnect.Logging.ILog</text>
<text text-anchor="middle" x="807" y="-226.5" font-family="Helvetica,sans-Serif" font-size="10.00">Handler.Debug</text>
</a>
</g>
</g>
<!-- Node3&#45;&gt;Node4 -->
<g id="edge3" class="edge">
<title>Node3&#45;&gt;Node4</title>
<path fill="none" stroke="midnightblue" d="M661.14,-234.5C680.68,-234.5 701.89,-234.5 721.9,-234.5"/>
<polygon fill="midnightblue" stroke="midnightblue" points="721.93,-238 731.93,-234.5 721.93,-231 721.93,-238"/>
</g>
<!-- Node6 -->
<g id="node6" class="node">
<title>Node6</title>
<g id="a_node6"><a xlink:href="interfaceQuantConnect_1_1Logging_1_1ILogHandler.html#a3fb71a33ac66129240b63f12b6fcda3b" target="_top" xlink:title="Write debug message to log">
<polygon fill="white" stroke="black" points="732,-170.5 732,-200.5 882,-200.5 882,-170.5 732,-170.5"/>
<text text-anchor="start" x="740" y="-188.5" font-family="Helvetica,sans-Serif" font-size="10.00">QuantConnect.Logging.ILog</text>
<text text-anchor="middle" x="807" y="-177.5" font-family="Helvetica,sans-Serif" font-size="10.00">Handler.Trace</text>
</a>
</g>
</g>
<!-- Node5&#45;&gt;Node6 -->
<g id="edge5" class="edge">
<title>Node5&#45;&gt;Node6</title>
<path fill="none" stroke="midnightblue" d="M661.14,-185.5C680.68,-185.5 701.89,-185.5 721.9,-185.5"/>
<polygon fill="midnightblue" stroke="midnightblue" points="721.93,-189 731.93,-185.5 721.93,-182 721.93,-189"/>
</g>
<!-- Node8 -->
<g id="node8" class="node">
<title>Node8</title>
<g id="a_node8"><a xlink:href="classQuantConnect_1_1Lean_1_1Engine_1_1DataFeeds_1_1BaseDownloaderDataProvider.html#a0da114c51e0508550bc99e20ce04d9d6" target="_top" xlink:title="Get&#39;s the stream for a given file path">
<polygon fill="white" stroke="black" points="476,-110 476,-151 696,-151 696,-110 476,-110"/>
<text text-anchor="start" x="484" y="-139" font-family="Helvetica,sans-Serif" font-size="10.00">QuantConnect.Lean.Engine.</text>
<text text-anchor="start" x="484" y="-128" font-family="Helvetica,sans-Serif" font-size="10.00">DataFeeds.BaseDownloaderDataProvider.</text>
<text text-anchor="middle" x="586" y="-117" font-family="Helvetica,sans-Serif" font-size="10.00">GetStream</text>
</a>
</g>
</g>
<!-- Node7&#45;&gt;Node8 -->
<g id="edge7" class="edge">
<title>Node7&#45;&gt;Node8</title>
<path fill="none" stroke="midnightblue" d="M437.65,-121.88C446.96,-122.43 456.41,-122.98 465.8,-123.53"/>
<polygon fill="midnightblue" stroke="midnightblue" points="465.76,-127.03 475.95,-124.12 466.17,-120.04 465.76,-127.03"/>
</g>
<!-- Node9 -->
<g id="node9" class="node">
<title>Node9</title>
<g id="a_node9"><a xlink:href="classQuantConnect_1_1Lean_1_1Engine_1_1DataFeeds_1_1BaseDownloaderDataProvider.html#a78871e11048546c514f3a35b83d61fab" target="_top" xlink:title="Main filter to determine if this file needs to be downloaded">
<polygon fill="white" stroke="black" points="476,-50 476,-91 696,-91 696,-50 476,-50"/>
<text text-anchor="start" x="484" y="-79" font-family="Helvetica,sans-Serif" font-size="10.00">QuantConnect.Lean.Engine.</text>
<text text-anchor="start" x="484" y="-68" font-family="Helvetica,sans-Serif" font-size="10.00">DataFeeds.BaseDownloaderDataProvider.</text>
<text text-anchor="middle" x="586" y="-57" font-family="Helvetica,sans-Serif" font-size="10.00">NeedToDownload</text>
</a>
</g>
</g>
<!-- Node7&#45;&gt;Node9 -->
<g id="edge8" class="edge">
<title>Node7&#45;&gt;Node9</title>
<path fill="none" stroke="midnightblue" d="M437.65,-96.35C446.96,-94.72 456.41,-93.06 465.8,-91.41"/>
<polygon fill="midnightblue" stroke="midnightblue" points="466.7,-94.81 475.95,-89.63 465.49,-87.91 466.7,-94.81"/>
</g>
<!-- Node11 -->
<g id="node11" class="node">
<title>Node11</title>
<g id="a_node11"><a xlink:href="classQuantConnect_1_1Logging_1_1Log.html#af0e7955911bc7664b37661b2a303a9e3" target="_top" xlink:title="Log error">
<polygon fill="white" stroke="black" points="511,-0.5 511,-30.5 661,-30.5 661,-0.5 511,-0.5"/>
<text text-anchor="start" x="519" y="-18.5" font-family="Helvetica,sans-Serif" font-size="10.00">QuantConnect.Logging.Log.</text>
<text text-anchor="middle" x="586" y="-7.5" font-family="Helvetica,sans-Serif" font-size="10.00">Error</text>
</a>
</g>
</g>
<!-- Node10&#45;&gt;Node11 -->
<g id="edge10" class="edge">
<title>Node10&#45;&gt;Node11</title>
<path fill="none" stroke="midnightblue" d="M408.25,-25.84C437.59,-24.12 470.89,-22.17 500.62,-20.43"/>
<polygon fill="midnightblue" stroke="midnightblue" points="501.2,-23.91 510.98,-19.83 500.79,-16.92 501.2,-23.91"/>
</g>
<!-- Node12 -->
<g id="node12" class="node">
<title>Node12</title>
<g id="a_node12"><a xlink:href="interfaceQuantConnect_1_1Logging_1_1ILogHandler.html#a35373a0c5d76031fa5ccf5dc39e5c25d" target="_top" xlink:title="Write error message to log">
<polygon fill="white" stroke="black" points="732,-0.5 732,-30.5 882,-30.5 882,-0.5 732,-0.5"/>
<text text-anchor="start" x="740" y="-18.5" font-family="Helvetica,sans-Serif" font-size="10.00">QuantConnect.Logging.ILog</text>
<text text-anchor="middle" x="807" y="-7.5" font-family="Helvetica,sans-Serif" font-size="10.00">Handler.Error</text>
</a>
</g>
</g>
<!-- Node11&#45;&gt;Node12 -->
<g id="edge11" class="edge">
<title>Node11&#45;&gt;Node12</title>
<path fill="none" stroke="midnightblue" d="M661.14,-15.5C680.68,-15.5 701.89,-15.5 721.9,-15.5"/>
<polygon fill="midnightblue" stroke="midnightblue" points="721.93,-19 731.93,-15.5 721.93,-12 721.93,-19"/>
</g>
</g>
</svg>
