<?xml version="1.0" encoding="UTF-8" standalone="no"?>
<!DOCTYPE svg PUBLIC "-//W3C//DTD SVG 1.1//EN"
 "http://www.w3.org/Graphics/SVG/1.1/DTD/svg11.dtd">
<!-- Generated by graphviz version 2.43.0 (0)
 -->
<!-- Title: QuantConnect.Securities.Forex.ForexHolding.TotalCloseProfitPips Pages: 1 -->
<svg width="600pt" height="50pt"
 viewBox="0.00 0.00 600.00 50.00" xmlns="http://www.w3.org/2000/svg" xmlns:xlink="http://www.w3.org/1999/xlink">
<g id="graph0" class="graph" transform="scale(1 1) rotate(0) translate(4 46)">
<title>QuantConnect.Securities.Forex.ForexHolding.TotalCloseProfitPips</title>
<polygon fill="white" stroke="transparent" points="-4,4 -4,-46 596,-46 596,4 -4,4"/>
<!-- Node1 -->
<g id="node1" class="node">
<title>Node1</title>
<g id="a_node1"><a xlink:title="Profit in pips if we closed the holdings right now including the approximate fees">
<polygon fill="#bfbfbf" stroke="black" points="0,-0.5 0,-41.5 164,-41.5 164,-0.5 0,-0.5"/>
<text text-anchor="start" x="8" y="-29.5" font-family="Helvetica,sans-Serif" font-size="10.00">QuantConnect.Securities.</text>
<text text-anchor="start" x="8" y="-18.5" font-family="Helvetica,sans-Serif" font-size="10.00">Forex.ForexHolding.TotalClose</text>
<text text-anchor="middle" x="82" y="-7.5" font-family="Helvetica,sans-Serif" font-size="10.00">ProfitPips</text>
</a>
</g>
</g>
<!-- Node2 -->
<g id="node2" class="node">
<title>Node2</title>
<g id="a_node2"><a xlink:href="classQuantConnect_1_1Securities_1_1SecurityHolding.html#a4bc70d2b17f24b1f755183e2eeec7674" target="_top" xlink:title="Profit if we closed the holdings right now including the approximate fees in units of the account&#39;s c...">
<polygon fill="white" stroke="black" points="200,-6 200,-36 373,-36 373,-6 200,-6"/>
<text text-anchor="start" x="208" y="-24" font-family="Helvetica,sans-Serif" font-size="10.00">QuantConnect.Securities.</text>
<text text-anchor="middle" x="286.5" y="-13" font-family="Helvetica,sans-Serif" font-size="10.00">SecurityHolding.TotalCloseProfit</text>
</a>
</g>
</g>
<!-- Node1&#45;&gt;Node2 -->
<g id="edge1" class="edge">
<title>Node1&#45;&gt;Node2</title>
<path fill="none" stroke="midnightblue" d="M164.2,-21C172.66,-21 181.32,-21 189.92,-21"/>
<polygon fill="midnightblue" stroke="midnightblue" points="189.98,-24.5 199.98,-21 189.98,-17.5 189.98,-24.5"/>
</g>
<!-- Node3 -->
<g id="node3" class="node">
<title>Node3</title>
<g id="a_node3"><a xlink:href="classQuantConnect_1_1Securities_1_1SecurityHolding.html#a88902e4d2b5e59fd73934daa215efb0e" target="_top" xlink:title="Gets the total value of the specified quantity &#160;of shares of this security in the account currency">
<polygon fill="white" stroke="black" points="409,-6 409,-36 592,-36 592,-6 409,-6"/>
<text text-anchor="start" x="417" y="-24" font-family="Helvetica,sans-Serif" font-size="10.00">QuantConnect.Securities.</text>
<text text-anchor="middle" x="500.5" y="-13" font-family="Helvetica,sans-Serif" font-size="10.00">SecurityHolding.GetQuantityValue</text>
</a>
</g>
</g>
<!-- Node2&#45;&gt;Node3 -->
<g id="edge2" class="edge">
<title>Node2&#45;&gt;Node3</title>
<path fill="none" stroke="midnightblue" d="M373.12,-21C381.54,-21 390.15,-21 398.7,-21"/>
<polygon fill="midnightblue" stroke="midnightblue" points="398.72,-24.5 408.72,-21 398.72,-17.5 398.72,-24.5"/>
</g>
</g>
</svg>
