<?xml version="1.0" encoding="UTF-8" standalone="no"?>
<!DOCTYPE svg PUBLIC "-//W3C//DTD SVG 1.1//EN"
 "http://www.w3.org/Graphics/SVG/1.1/DTD/svg11.dtd">
<!-- Generated by graphviz version 2.43.0 (0)
 -->
<!-- Title: QuantConnect.Securities.UniverseManager.Remove Pages: 1 -->
<svg width="636pt" height="39pt"
 viewBox="0.00 0.00 636.00 39.00" xmlns="http://www.w3.org/2000/svg" xmlns:xlink="http://www.w3.org/1999/xlink">
<g id="graph0" class="graph" transform="scale(1 1) rotate(0) translate(4 35)">
<title>QuantConnect.Securities.UniverseManager.Remove</title>
<polygon fill="white" stroke="transparent" points="-4,4 -4,-35 632,-35 632,4 -4,4"/>
<!-- Node1 -->
<g id="node1" class="node">
<title>Node1</title>
<g id="a_node1"><a xlink:title="Removes the first occurrence of a specific object from the T:System.Collections.Generic....">
<polygon fill="#bfbfbf" stroke="black" points="482,-0.5 482,-30.5 628,-30.5 628,-0.5 482,-0.5"/>
<text text-anchor="start" x="490" y="-18.5" font-family="Helvetica,sans-Serif" font-size="10.00">QuantConnect.Securities.</text>
<text text-anchor="middle" x="555" y="-7.5" font-family="Helvetica,sans-Serif" font-size="10.00">UniverseManager.Remove</text>
</a>
</g>
</g>
<!-- Node2 -->
<g id="node2" class="node">
<title>Node2</title>
<g id="a_node2"><a xlink:href="classQuantConnect_1_1Algorithm_1_1QCAlgorithm.html#a6ece1896dff33aafccfb1707a83a77c3" target="_top" xlink:title="Removes the security with the specified symbol. This will cancel all open orders and then liquidate a...">
<polygon fill="white" stroke="black" points="241,-0.5 241,-30.5 446,-30.5 446,-0.5 241,-0.5"/>
<text text-anchor="start" x="249" y="-18.5" font-family="Helvetica,sans-Serif" font-size="10.00">QuantConnect.Algorithm.QCAlgorithm.</text>
<text text-anchor="middle" x="343.5" y="-7.5" font-family="Helvetica,sans-Serif" font-size="10.00">RemoveSecurity</text>
</a>
</g>
</g>
<!-- Node1&#45;&gt;Node2 -->
<g id="edge1" class="edge">
<title>Node1&#45;&gt;Node2</title>
<path fill="none" stroke="midnightblue" d="M471.82,-15.5C463.45,-15.5 454.89,-15.5 446.35,-15.5"/>
<polygon fill="midnightblue" stroke="midnightblue" points="471.9,-19 481.9,-15.5 471.9,-12 471.9,-19"/>
</g>
<!-- Node3 -->
<g id="node3" class="node">
<title>Node3</title>
<g id="a_node3"><a xlink:href="classQuantConnect_1_1Algorithm_1_1QCAlgorithm.html#aaa03fad6a4f4df5db3a0273d94df6436" target="_top" xlink:title="Removes the security with the specified symbol. This will cancel all open orders and then liquidate a...">
<polygon fill="white" stroke="black" points="0,-0.5 0,-30.5 205,-30.5 205,-0.5 0,-0.5"/>
<text text-anchor="start" x="8" y="-18.5" font-family="Helvetica,sans-Serif" font-size="10.00">QuantConnect.Algorithm.QCAlgorithm.</text>
<text text-anchor="middle" x="102.5" y="-7.5" font-family="Helvetica,sans-Serif" font-size="10.00">RemoveOptionContract</text>
</a>
</g>
</g>
<!-- Node2&#45;&gt;Node3 -->
<g id="edge2" class="edge">
<title>Node2&#45;&gt;Node3</title>
<path fill="none" stroke="midnightblue" d="M230.78,-15.5C222.22,-15.5 213.6,-15.5 205.11,-15.5"/>
<polygon fill="midnightblue" stroke="midnightblue" points="230.8,-19 240.8,-15.5 230.8,-12 230.8,-19"/>
</g>
</g>
</svg>
