<?xml version="1.0" encoding="UTF-8" standalone="no"?>
<!DOCTYPE svg PUBLIC "-//W3C//DTD SVG 1.1//EN"
 "http://www.w3.org/Graphics/SVG/1.1/DTD/svg11.dtd">
<!-- Generated by graphviz version 2.43.0 (0)
 -->
<!-- Title: QuantConnect.Orders.TimeInForces.GoodTilDateTimeInForce.GetForexOrderExpiryDateTime Pages: 1 -->
<svg width="412pt" height="50pt"
 viewBox="0.00 0.00 412.00 50.00" xmlns="http://www.w3.org/2000/svg" xmlns:xlink="http://www.w3.org/1999/xlink">
<g id="graph0" class="graph" transform="scale(1 1) rotate(0) translate(4 46)">
<title>QuantConnect.Orders.TimeInForces.GoodTilDateTimeInForce.GetForexOrderExpiryDateTime</title>
<polygon fill="white" stroke="transparent" points="-4,4 -4,-46 408,-46 408,4 -4,4"/>
<!-- Node1 -->
<g id="node1" class="node">
<title>Node1</title>
<g id="a_node1"><a xlink:title="Returns the expiry date and time (UTC) for a Forex order">
<polygon fill="#bfbfbf" stroke="black" points="220,-0.5 220,-41.5 404,-41.5 404,-0.5 220,-0.5"/>
<text text-anchor="start" x="228" y="-29.5" font-family="Helvetica,sans-Serif" font-size="10.00">QuantConnect.Orders.Time</text>
<text text-anchor="start" x="228" y="-18.5" font-family="Helvetica,sans-Serif" font-size="10.00">InForces.GoodTilDateTimeInForce.</text>
<text text-anchor="middle" x="312" y="-7.5" font-family="Helvetica,sans-Serif" font-size="10.00">GetForexOrderExpiryDateTime</text>
</a>
</g>
</g>
<!-- Node2 -->
<g id="node2" class="node">
<title>Node2</title>
<g id="a_node2"><a xlink:href="classQuantConnect_1_1Orders_1_1TimeInForces_1_1GoodTilDateTimeInForce.html#ae1b5705cce56daa8633f94e13ba2c3dc" target="_top" xlink:title="Checks if an order is expired">
<polygon fill="white" stroke="black" points="0,-0.5 0,-41.5 184,-41.5 184,-0.5 0,-0.5"/>
<text text-anchor="start" x="8" y="-29.5" font-family="Helvetica,sans-Serif" font-size="10.00">QuantConnect.Orders.Time</text>
<text text-anchor="start" x="8" y="-18.5" font-family="Helvetica,sans-Serif" font-size="10.00">InForces.GoodTilDateTimeInForce.</text>
<text text-anchor="middle" x="92" y="-7.5" font-family="Helvetica,sans-Serif" font-size="10.00">IsOrderExpired</text>
</a>
</g>
</g>
<!-- Node1&#45;&gt;Node2 -->
<g id="edge1" class="edge">
<title>Node1&#45;&gt;Node2</title>
<path fill="none" stroke="midnightblue" d="M209.53,-21C201.07,-21 192.55,-21 184.17,-21"/>
<polygon fill="midnightblue" stroke="midnightblue" points="209.81,-24.5 219.81,-21 209.81,-17.5 209.81,-24.5"/>
</g>
</g>
</svg>
