<?xml version="1.0" encoding="UTF-8" standalone="no"?>
<!DOCTYPE svg PUBLIC "-//W3C//DTD SVG 1.1//EN"
 "http://www.w3.org/Graphics/SVG/1.1/DTD/svg11.dtd">
<!-- Generated by graphviz version 2.43.0 (0)
 -->
<!-- Title: QuantConnect.Configuration.OptimizerArgumentParser.ParseArguments Pages: 1 -->
<svg width="425pt" height="39pt"
 viewBox="0.00 0.00 425.00 39.00" xmlns="http://www.w3.org/2000/svg" xmlns:xlink="http://www.w3.org/1999/xlink">
<g id="graph0" class="graph" transform="scale(1 1) rotate(0) translate(4 35)">
<title>QuantConnect.Configuration.OptimizerArgumentParser.ParseArguments</title>
<polygon fill="white" stroke="transparent" points="-4,4 -4,-35 421,-35 421,4 -4,4"/>
<!-- Node1 -->
<g id="node1" class="node">
<title>Node1</title>
<g id="a_node1"><a xlink:title="Parse and construct the args">
<polygon fill="#bfbfbf" stroke="black" points="0,-0.5 0,-30.5 224,-30.5 224,-0.5 0,-0.5"/>
<text text-anchor="start" x="8" y="-18.5" font-family="Helvetica,sans-Serif" font-size="10.00">QuantConnect.Configuration.</text>
<text text-anchor="middle" x="112" y="-7.5" font-family="Helvetica,sans-Serif" font-size="10.00">OptimizerArgumentParser.ParseArguments</text>
</a>
</g>
</g>
<!-- Node2 -->
<g id="node2" class="node">
<title>Node2</title>
<g id="a_node2"><a xlink:href="classQuantConnect_1_1Configuration_1_1ApplicationParser.html#a38efbb8e19a1a7dcc289a47e11981030" target="_top" xlink:title="This function will parse args based on options and will show application name, version,...">
<polygon fill="white" stroke="black" points="260,-0.5 260,-30.5 417,-30.5 417,-0.5 260,-0.5"/>
<text text-anchor="start" x="268" y="-18.5" font-family="Helvetica,sans-Serif" font-size="10.00">QuantConnect.Configuration.</text>
<text text-anchor="middle" x="338.5" y="-7.5" font-family="Helvetica,sans-Serif" font-size="10.00">ApplicationParser.Parse</text>
</a>
</g>
</g>
<!-- Node1&#45;&gt;Node2 -->
<g id="edge1" class="edge">
<title>Node1&#45;&gt;Node2</title>
<path fill="none" stroke="midnightblue" d="M224.26,-15.5C232.81,-15.5 241.36,-15.5 249.72,-15.5"/>
<polygon fill="midnightblue" stroke="midnightblue" points="249.81,-19 259.81,-15.5 249.81,-12 249.81,-19"/>
</g>
</g>
</svg>
