<?xml version="1.0" encoding="UTF-8" standalone="no"?>
<!DOCTYPE svg PUBLIC "-//W3C//DTD SVG 1.1//EN"
 "http://www.w3.org/Graphics/SVG/1.1/DTD/svg11.dtd">
<!-- Generated by graphviz version 2.43.0 (0)
 -->
<!-- Title: QuantConnect.Lean.Engine.HistoricalData.SubscriptionDataReaderHistoryProvider.Initialize Pages: 1 -->
<svg width="604pt" height="50pt"
 viewBox="0.00 0.00 604.00 50.00" xmlns="http://www.w3.org/2000/svg" xmlns:xlink="http://www.w3.org/1999/xlink">
<g id="graph0" class="graph" transform="scale(1 1) rotate(0) translate(4 46)">
<title>QuantConnect.Lean.Engine.HistoricalData.SubscriptionDataReaderHistoryProvider.Initialize</title>
<polygon fill="white" stroke="transparent" points="-4,4 -4,-46 600,-46 600,4 -4,4"/>
<!-- Node1 -->
<g id="node1" class="node">
<title>Node1</title>
<g id="a_node1"><a xlink:title="Initializes this history provider to work for the specified job">
<polygon fill="#bfbfbf" stroke="black" points="0,-0.5 0,-41.5 173,-41.5 173,-0.5 0,-0.5"/>
<text text-anchor="start" x="8" y="-29.5" font-family="Helvetica,sans-Serif" font-size="10.00">QuantConnect.Lean.Engine.</text>
<text text-anchor="start" x="8" y="-18.5" font-family="Helvetica,sans-Serif" font-size="10.00">HistoricalData.SubscriptionData</text>
<text text-anchor="middle" x="86.5" y="-7.5" font-family="Helvetica,sans-Serif" font-size="10.00">ReaderHistoryProvider.Initialize</text>
</a>
</g>
</g>
<!-- Node2 -->
<g id="node2" class="node">
<title>Node2</title>
<g id="a_node2"><a xlink:href="classQuantConnect_1_1Securities_1_1SymbolProperties.html#ad148190d1dfce7109d38d3107b7b8fbf" target="_top" xlink:title="Gets a default instance of the SymbolProperties class for the specified quoteCurrency">
<polygon fill="white" stroke="black" points="209,-6 209,-36 368,-36 368,-6 209,-6"/>
<text text-anchor="start" x="217" y="-24" font-family="Helvetica,sans-Serif" font-size="10.00">QuantConnect.Securities.</text>
<text text-anchor="middle" x="288.5" y="-13" font-family="Helvetica,sans-Serif" font-size="10.00">SymbolProperties.GetDefault</text>
</a>
</g>
</g>
<!-- Node1&#45;&gt;Node2 -->
<g id="edge1" class="edge">
<title>Node1&#45;&gt;Node2</title>
<path fill="none" stroke="midnightblue" d="M173.19,-21C181.63,-21 190.21,-21 198.68,-21"/>
<polygon fill="midnightblue" stroke="midnightblue" points="198.95,-24.5 208.95,-21 198.95,-17.5 198.95,-24.5"/>
</g>
<!-- Node3 -->
<g id="node3" class="node">
<title>Node3</title>
<g id="a_node3"><a xlink:href="classQuantConnect_1_1Securities_1_1SymbolProperties.html#a0f421617bcddd5b08a830689b1e2dcfa" target="_top" xlink:title="Creates an instance of the SymbolProperties class">
<polygon fill="white" stroke="black" points="404,-6 404,-36 596,-36 596,-6 404,-6"/>
<text text-anchor="start" x="412" y="-24" font-family="Helvetica,sans-Serif" font-size="10.00">QuantConnect.Securities.</text>
<text text-anchor="middle" x="500" y="-13" font-family="Helvetica,sans-Serif" font-size="10.00">SymbolProperties.SymbolProperties</text>
</a>
</g>
</g>
<!-- Node2&#45;&gt;Node3 -->
<g id="edge2" class="edge">
<title>Node2&#45;&gt;Node3</title>
<path fill="none" stroke="midnightblue" d="M368.11,-21C376.45,-21 385.03,-21 393.62,-21"/>
<polygon fill="midnightblue" stroke="midnightblue" points="393.69,-24.5 403.69,-21 393.69,-17.5 393.69,-24.5"/>
</g>
</g>
</svg>
