<?xml version="1.0" encoding="UTF-8" standalone="no"?>
<!DOCTYPE svg PUBLIC "-//W3C//DTD SVG 1.1//EN"
 "http://www.w3.org/Graphics/SVG/1.1/DTD/svg11.dtd">
<!-- Generated by graphviz version 2.43.0 (0)
 -->
<!-- Title: QuantConnect.Algorithm.Framework.Portfolio.BlackLittermanOptimizationPortfolioConstructionModel.GetTargetInsights Pages: 1 -->
<svg width="506pt" height="50pt"
 viewBox="0.00 0.00 506.00 50.00" xmlns="http://www.w3.org/2000/svg" xmlns:xlink="http://www.w3.org/1999/xlink">
<g id="graph0" class="graph" transform="scale(1 1) rotate(0) translate(4 46)">
<title>QuantConnect.Algorithm.Framework.Portfolio.BlackLittermanOptimizationPortfolioConstructionModel.GetTargetInsights</title>
<polygon fill="white" stroke="transparent" points="-4,4 -4,-46 502,-46 502,4 -4,4"/>
<!-- Node1 -->
<g id="node1" class="node">
<title>Node1</title>
<g id="a_node1"><a xlink:title="Gets the target insights to calculate a portfolio target percent for">
<polygon fill="#bfbfbf" stroke="black" points="0,-0.5 0,-41.5 238,-41.5 238,-0.5 0,-0.5"/>
<text text-anchor="start" x="8" y="-29.5" font-family="Helvetica,sans-Serif" font-size="10.00">QuantConnect.Algorithm.Framework.</text>
<text text-anchor="start" x="8" y="-18.5" font-family="Helvetica,sans-Serif" font-size="10.00">Portfolio.BlackLittermanOptimization</text>
<text text-anchor="middle" x="119" y="-7.5" font-family="Helvetica,sans-Serif" font-size="10.00">PortfolioConstructionModel.GetTargetInsights</text>
</a>
</g>
</g>
<!-- Node2 -->
<g id="node2" class="node">
<title>Node2</title>
<g id="a_node2"><a xlink:href="classQuantConnect_1_1Algorithm_1_1Framework_1_1Alphas_1_1InsightCollection.html#a258c9e7f7721b10c2618f4b76d8e1813" target="_top" xlink:title="Gets the last generated active insight">
<polygon fill="white" stroke="black" points="274,-6 274,-36 498,-36 498,-6 274,-6"/>
<text text-anchor="start" x="282" y="-24" font-family="Helvetica,sans-Serif" font-size="10.00">QuantConnect.Algorithm.Framework.</text>
<text text-anchor="middle" x="386" y="-13" font-family="Helvetica,sans-Serif" font-size="10.00">Alphas.InsightCollection.GetActiveInsights</text>
</a>
</g>
</g>
<!-- Node1&#45;&gt;Node2 -->
<g id="edge1" class="edge">
<title>Node1&#45;&gt;Node2</title>
<path fill="none" stroke="midnightblue" d="M238.16,-21C246.6,-21 255.12,-21 263.57,-21"/>
<polygon fill="midnightblue" stroke="midnightblue" points="263.85,-24.5 273.85,-21 263.85,-17.5 263.85,-24.5"/>
</g>
</g>
</svg>
