<?xml version="1.0" encoding="UTF-8" standalone="no"?>
<!DOCTYPE svg PUBLIC "-//W3C//DTD SVG 1.1//EN"
 "http://www.w3.org/Graphics/SVG/1.1/DTD/svg11.dtd">
<!-- Generated by graphviz version 2.43.0 (0)
 -->
<!-- Title: QuantConnect.Algorithm.Framework.Portfolio.RiskParityPortfolioConstructionModel Pages: 1 -->
<svg width="250pt" height="207pt"
 viewBox="0.00 0.00 250.00 207.00" xmlns="http://www.w3.org/2000/svg" xmlns:xlink="http://www.w3.org/1999/xlink">
<g id="graph0" class="graph" transform="scale(1 1) rotate(0) translate(4 203)">
<title>QuantConnect.Algorithm.Framework.Portfolio.RiskParityPortfolioConstructionModel</title>
<polygon fill="white" stroke="transparent" points="-4,4 -4,-203 246,-203 246,4 -4,4"/>
<!-- Node1 -->
<g id="node1" class="node">
<title>Node1</title>
<g id="a_node1"><a xlink:title="Risk Parity Portfolio Construction Model">
<polygon fill="#bfbfbf" stroke="black" points="0,-0.5 0,-30.5 242,-30.5 242,-0.5 0,-0.5"/>
<text text-anchor="start" x="8" y="-18.5" font-family="Helvetica,sans-Serif" font-size="10.00">QuantConnect.Algorithm.Framework.</text>
<text text-anchor="middle" x="121" y="-7.5" font-family="Helvetica,sans-Serif" font-size="10.00">Portfolio.RiskParityPortfolioConstructionModel</text>
</a>
</g>
</g>
<!-- Node2 -->
<g id="node2" class="node">
<title>Node2</title>
<g id="a_node2"><a xlink:href="classQuantConnect_1_1Algorithm_1_1Framework_1_1Portfolio_1_1PortfolioConstructionModel.html" target="_top" xlink:title="Provides a base class for portfolio construction models">
<polygon fill="white" stroke="black" points="46.5,-67.5 46.5,-86.5 195.5,-86.5 195.5,-67.5 46.5,-67.5"/>
<text text-anchor="middle" x="121" y="-74.5" font-family="Helvetica,sans-Serif" font-size="10.00">PortfolioConstructionModel</text>
</a>
</g>
</g>
<!-- Node2&#45;&gt;Node1 -->
<g id="edge1" class="edge">
<title>Node2&#45;&gt;Node1</title>
<path fill="none" stroke="midnightblue" d="M121,-57.23C121,-48.59 121,-38.5 121,-30.52"/>
<polygon fill="midnightblue" stroke="midnightblue" points="117.5,-57.48 121,-67.48 124.5,-57.48 117.5,-57.48"/>
</g>
<!-- Node3 -->
<g id="node3" class="node">
<title>Node3</title>
<g id="a_node3"><a xlink:href="interfaceQuantConnect_1_1Algorithm_1_1Framework_1_1Portfolio_1_1IPortfolioConstructionModel.html" target="_top" xlink:title="Algorithm framework model that">
<polygon fill="white" stroke="black" points="45,-123.5 45,-142.5 197,-142.5 197,-123.5 45,-123.5"/>
<text text-anchor="middle" x="121" y="-130.5" font-family="Helvetica,sans-Serif" font-size="10.00">IPortfolioConstructionModel</text>
</a>
</g>
</g>
<!-- Node3&#45;&gt;Node2 -->
<g id="edge2" class="edge">
<title>Node3&#45;&gt;Node2</title>
<path fill="none" stroke="midnightblue" d="M121,-112.8C121,-103.91 121,-93.78 121,-86.75"/>
<polygon fill="midnightblue" stroke="midnightblue" points="117.5,-113.08 121,-123.08 124.5,-113.08 117.5,-113.08"/>
</g>
<!-- Node4 -->
<g id="node4" class="node">
<title>Node4</title>
<g id="a_node4"><a xlink:href="interfaceQuantConnect_1_1Algorithm_1_1Framework_1_1INotifiedSecurityChanges.html" target="_top" xlink:title="Types implementing this interface will be called when the algorithm&#39;s set of securities changes">
<polygon fill="white" stroke="black" points="51,-179.5 51,-198.5 191,-198.5 191,-179.5 51,-179.5"/>
<text text-anchor="middle" x="121" y="-186.5" font-family="Helvetica,sans-Serif" font-size="10.00">INotifiedSecurityChanges</text>
</a>
</g>
</g>
<!-- Node4&#45;&gt;Node3 -->
<g id="edge3" class="edge">
<title>Node4&#45;&gt;Node3</title>
<path fill="none" stroke="midnightblue" d="M121,-168.8C121,-159.91 121,-149.78 121,-142.75"/>
<polygon fill="midnightblue" stroke="midnightblue" points="117.5,-169.08 121,-179.08 124.5,-169.08 117.5,-169.08"/>
</g>
</g>
</svg>
