<?xml version="1.0" encoding="UTF-8" standalone="no"?>
<!DOCTYPE svg PUBLIC "-//W3C//DTD SVG 1.1//EN"
 "http://www.w3.org/Graphics/SVG/1.1/DTD/svg11.dtd">
<!-- Generated by graphviz version 2.43.0 (0)
 -->
<!-- Title: QuantConnect.Data.UniverseSelection.FuncUniverse&lt; T &gt; Pages: 1 -->
<svg width="167pt" height="229pt"
 viewBox="0.00 0.00 167.00 229.00" xmlns="http://www.w3.org/2000/svg" xmlns:xlink="http://www.w3.org/1999/xlink">
<g id="graph0" class="graph" transform="scale(1 1) rotate(0) translate(4 225)">
<title>QuantConnect.Data.UniverseSelection.FuncUniverse&lt; T &gt;</title>
<polygon fill="white" stroke="transparent" points="-4,4 -4,-225 163,-225 163,4 -4,4"/>
<!-- Node1 -->
<g id="node1" class="node">
<title>Node1</title>
<g id="a_node1"><a xlink:title="Provides a functional implementation of Universe">
<polygon fill="#bfbfbf" stroke="black" points="0,-78.5 0,-108.5 159,-108.5 159,-78.5 0,-78.5"/>
<text text-anchor="start" x="8" y="-96.5" font-family="Helvetica,sans-Serif" font-size="10.00">QuantConnect.Data.Universe</text>
<text text-anchor="middle" x="79.5" y="-85.5" font-family="Helvetica,sans-Serif" font-size="10.00">Selection.FuncUniverse&lt; T &gt;</text>
</a>
</g>
</g>
<!-- Node4 -->
<g id="node4" class="node">
<title>Node4</title>
<g id="a_node4"><a xlink:href="classQuantConnect_1_1Data_1_1UniverseSelection_1_1ConstituentsUniverse.html" target="_top" xlink:title="ConstituentsUniverse allows to perform universe selection based on an already preselected set of Symb...">
<polygon fill="white" stroke="black" points="1.5,-0.5 1.5,-41.5 157.5,-41.5 157.5,-0.5 1.5,-0.5"/>
<text text-anchor="start" x="9.5" y="-29.5" font-family="Helvetica,sans-Serif" font-size="10.00">QuantConnect::Data</text>
<text text-anchor="start" x="9.5" y="-18.5" font-family="Helvetica,sans-Serif" font-size="10.00">::UniverseSelection</text>
<text text-anchor="middle" x="79.5" y="-7.5" font-family="Helvetica,sans-Serif" font-size="10.00">::ConstituentsUniverse&lt; T &gt;</text>
</a>
</g>
</g>
<!-- Node1&#45;&gt;Node4 -->
<g id="edge3" class="edge">
<title>Node1&#45;&gt;Node4</title>
<path fill="none" stroke="midnightblue" d="M79.5,-67.98C79.5,-59.35 79.5,-49.76 79.5,-41.59"/>
<polygon fill="midnightblue" stroke="midnightblue" points="76,-68.23 79.5,-78.23 83,-68.23 76,-68.23"/>
</g>
<!-- Node2 -->
<g id="node2" class="node">
<title>Node2</title>
<g id="a_node2"><a xlink:href="classQuantConnect_1_1Data_1_1UniverseSelection_1_1Universe.html" target="_top" xlink:title="Provides a base class for all universes to derive from.">
<polygon fill="white" stroke="black" points="49.5,-145.5 49.5,-164.5 109.5,-164.5 109.5,-145.5 49.5,-145.5"/>
<text text-anchor="middle" x="79.5" y="-152.5" font-family="Helvetica,sans-Serif" font-size="10.00">Universe</text>
</a>
</g>
</g>
<!-- Node2&#45;&gt;Node1 -->
<g id="edge1" class="edge">
<title>Node2&#45;&gt;Node1</title>
<path fill="none" stroke="midnightblue" d="M79.5,-135.23C79.5,-126.59 79.5,-116.5 79.5,-108.52"/>
<polygon fill="midnightblue" stroke="midnightblue" points="76,-135.48 79.5,-145.48 83,-135.48 76,-135.48"/>
</g>
<!-- Node3 -->
<g id="node3" class="node">
<title>Node3</title>
<g id="a_node3"><a xlink:title=" ">
<polygon fill="white" stroke="#bfbfbf" points="42.5,-201.5 42.5,-220.5 116.5,-220.5 116.5,-201.5 42.5,-201.5"/>
<text text-anchor="middle" x="79.5" y="-208.5" font-family="Helvetica,sans-Serif" font-size="10.00">IDisposable</text>
</a>
</g>
</g>
<!-- Node3&#45;&gt;Node2 -->
<g id="edge2" class="edge">
<title>Node3&#45;&gt;Node2</title>
<path fill="none" stroke="midnightblue" d="M79.5,-190.8C79.5,-181.91 79.5,-171.78 79.5,-164.75"/>
<polygon fill="midnightblue" stroke="midnightblue" points="76,-191.08 79.5,-201.08 83,-191.08 76,-191.08"/>
</g>
</g>
</svg>
