<?xml version="1.0" encoding="UTF-8" standalone="no"?>
<!DOCTYPE svg PUBLIC "-//W3C//DTD SVG 1.1//EN"
 "http://www.w3.org/Graphics/SVG/1.1/DTD/svg11.dtd">
<!-- Generated by graphviz version 2.43.0 (0)
 -->
<!-- Title: QuantConnect.Symbol.CreateOption Pages: 1 -->
<svg width="1134pt" height="126pt"
 viewBox="0.00 0.00 1134.00 126.00" xmlns="http://www.w3.org/2000/svg" xmlns:xlink="http://www.w3.org/1999/xlink">
<g id="graph0" class="graph" transform="scale(1 1) rotate(0) translate(4 122)">
<title>QuantConnect.Symbol.CreateOption</title>
<polygon fill="white" stroke="transparent" points="-4,4 -4,-122 1130,-122 1130,4 -4,4"/>
<!-- Node1 -->
<g id="node1" class="node">
<title>Node1</title>
<g id="a_node1"><a xlink:title="Provides a convenience method for creating an option Symbol using SecurityIdentifier.">
<polygon fill="#bfbfbf" stroke="black" points="0,-43.5 0,-73.5 161,-73.5 161,-43.5 0,-43.5"/>
<text text-anchor="start" x="8" y="-61.5" font-family="Helvetica,sans-Serif" font-size="10.00">QuantConnect.Symbol.Create</text>
<text text-anchor="middle" x="80.5" y="-50.5" font-family="Helvetica,sans-Serif" font-size="10.00">Option</text>
</a>
</g>
</g>
<!-- Node2 -->
<g id="node2" class="node">
<title>Node2</title>
<g id="a_node2"><a xlink:href="classQuantConnect_1_1SecurityIdentifier.html#a58becf4433a3155807bc4959679ccca7" target="_top" xlink:title="Generates a new SecurityIdentifier for an option">
<polygon fill="white" stroke="black" points="197,-87.5 197,-117.5 371,-117.5 371,-87.5 197,-87.5"/>
<text text-anchor="start" x="205" y="-105.5" font-family="Helvetica,sans-Serif" font-size="10.00">QuantConnect.SecurityIdentifier.</text>
<text text-anchor="middle" x="284" y="-94.5" font-family="Helvetica,sans-Serif" font-size="10.00">GenerateOption</text>
</a>
</g>
</g>
<!-- Node1&#45;&gt;Node2 -->
<g id="edge1" class="edge">
<title>Node1&#45;&gt;Node2</title>
<path fill="none" stroke="midnightblue" d="M150.28,-73.52C167.69,-77.32 186.53,-81.43 204.38,-85.33"/>
<polygon fill="midnightblue" stroke="midnightblue" points="203.67,-88.76 214.19,-87.47 205.16,-81.92 203.67,-88.76"/>
</g>
<!-- Node4 -->
<g id="node4" class="node">
<title>Node4</title>
<g id="a_node4"><a xlink:href="classQuantConnect_1_1Symbol.html#a59b0795fa21f46c306deb5576fa03bb9" target="_top" xlink:title="Centralized helper method to resolve alias for a symbol">
<polygon fill="white" stroke="black" points="411,-30 411,-49 581,-49 581,-30 411,-30"/>
<text text-anchor="middle" x="496" y="-37" font-family="Helvetica,sans-Serif" font-size="10.00">QuantConnect.Symbol.GetAlias</text>
</a>
</g>
</g>
<!-- Node1&#45;&gt;Node4 -->
<g id="edge3" class="edge">
<title>Node1&#45;&gt;Node4</title>
<path fill="none" stroke="midnightblue" d="M161.23,-54.84C229.7,-51.69 328.53,-47.15 400.87,-43.82"/>
<polygon fill="midnightblue" stroke="midnightblue" points="401.07,-47.32 410.9,-43.36 400.75,-40.33 401.07,-47.32"/>
</g>
<!-- Node8 -->
<g id="node8" class="node">
<title>Node8</title>
<g id="a_node8"><a xlink:href="classQuantConnect_1_1Symbol.html#a59158f74116be3dad0ea0f3f3f134416" target="_top" xlink:title="Initializes a new instance of the Symbol class">
<polygon fill="white" stroke="black" points="201.5,-11 201.5,-30 366.5,-30 366.5,-11 201.5,-11"/>
<text text-anchor="middle" x="284" y="-18" font-family="Helvetica,sans-Serif" font-size="10.00">QuantConnect.Symbol.Symbol</text>
</a>
</g>
</g>
<!-- Node1&#45;&gt;Node8 -->
<g id="edge7" class="edge">
<title>Node1&#45;&gt;Node8</title>
<path fill="none" stroke="midnightblue" d="M161.14,-43.48C181.65,-39.61 203.39,-35.51 222.74,-31.86"/>
<polygon fill="midnightblue" stroke="midnightblue" points="223.44,-35.29 232.62,-30 222.14,-28.41 223.44,-35.29"/>
</g>
<!-- Node3 -->
<g id="node3" class="node">
<title>Node3</title>
<g id="a_node3"><a xlink:href="classQuantConnect_1_1Symbol.html#ae4c4c626fa68f4bc1e67e5ee8d9870fc" target="_top" xlink:title="Determines the SecurityType based on the underlying Symbol&#39;s SecurityType">
<polygon fill="white" stroke="black" points="407,-87.5 407,-117.5 585,-117.5 585,-87.5 407,-87.5"/>
<text text-anchor="start" x="415" y="-105.5" font-family="Helvetica,sans-Serif" font-size="10.00">QuantConnect.Symbol.GetOption</text>
<text text-anchor="middle" x="496" y="-94.5" font-family="Helvetica,sans-Serif" font-size="10.00">TypeFromUnderlying</text>
</a>
</g>
</g>
<!-- Node2&#45;&gt;Node3 -->
<g id="edge2" class="edge">
<title>Node2&#45;&gt;Node3</title>
<path fill="none" stroke="midnightblue" d="M371.02,-102.5C379.49,-102.5 388.13,-102.5 396.7,-102.5"/>
<polygon fill="midnightblue" stroke="midnightblue" points="396.73,-106 406.73,-102.5 396.73,-99 396.73,-106"/>
</g>
<!-- Node5 -->
<g id="node5" class="node">
<title>Node5</title>
<g id="a_node5"><a xlink:href="classQuantConnect_1_1SymbolRepresentation.html#abe54ff47eb211a2a99fb47b72683e3b9" target="_top" xlink:title="Returns future symbol ticker from underlying and expiration date. Function can generate tickers of tw...">
<polygon fill="white" stroke="black" points="621,-49.5 621,-79.5 824,-79.5 824,-49.5 621,-49.5"/>
<text text-anchor="start" x="629" y="-67.5" font-family="Helvetica,sans-Serif" font-size="10.00">QuantConnect.SymbolRepresentation.</text>
<text text-anchor="middle" x="722.5" y="-56.5" font-family="Helvetica,sans-Serif" font-size="10.00">GenerateFutureTicker</text>
</a>
</g>
</g>
<!-- Node4&#45;&gt;Node5 -->
<g id="edge4" class="edge">
<title>Node4&#45;&gt;Node5</title>
<path fill="none" stroke="midnightblue" d="M581.23,-48.88C590.94,-49.96 600.94,-51.07 610.93,-52.19"/>
<polygon fill="midnightblue" stroke="midnightblue" points="610.57,-55.67 620.9,-53.3 611.34,-48.71 610.57,-55.67"/>
</g>
<!-- Node7 -->
<g id="node7" class="node">
<title>Node7</title>
<g id="a_node7"><a xlink:href="classQuantConnect_1_1SymbolRepresentation.html#ab133044f5cf8c16e700190a2202b215e" target="_top" xlink:title="Returns option symbol ticker in accordance with OSI symbology More information can be found at http:/...">
<polygon fill="white" stroke="black" points="621,-0.5 621,-30.5 824,-30.5 824,-0.5 621,-0.5"/>
<text text-anchor="start" x="629" y="-18.5" font-family="Helvetica,sans-Serif" font-size="10.00">QuantConnect.SymbolRepresentation.</text>
<text text-anchor="middle" x="722.5" y="-7.5" font-family="Helvetica,sans-Serif" font-size="10.00">GenerateOptionTickerOSI</text>
</a>
</g>
</g>
<!-- Node4&#45;&gt;Node7 -->
<g id="edge6" class="edge">
<title>Node4&#45;&gt;Node7</title>
<path fill="none" stroke="midnightblue" d="M581.23,-30.5C590.94,-29.46 600.94,-28.39 610.93,-27.32"/>
<polygon fill="midnightblue" stroke="midnightblue" points="611.32,-30.8 620.9,-26.26 610.58,-23.84 611.32,-30.8"/>
</g>
<!-- Node6 -->
<g id="node6" class="node">
<title>Node6</title>
<g id="a_node6"><a xlink:href="classQuantConnect_1_1Securities_1_1Future_1_1FuturesExpiryUtilityFunctions.html#a4ccb1e2f2fe40ff09785a74a02f26df1" target="_top" xlink:title="Gets the number of months between the contract month and the expiry date.">
<polygon fill="white" stroke="black" points="860,-44 860,-85 1126,-85 1126,-44 860,-44"/>
<text text-anchor="start" x="868" y="-73" font-family="Helvetica,sans-Serif" font-size="10.00">QuantConnect.Securities.</text>
<text text-anchor="start" x="868" y="-62" font-family="Helvetica,sans-Serif" font-size="10.00">Future.FuturesExpiryUtilityFunctions.</text>
<text text-anchor="middle" x="993" y="-51" font-family="Helvetica,sans-Serif" font-size="10.00">GetDeltaBetweenContractMonthAndContractExpiry</text>
</a>
</g>
</g>
<!-- Node5&#45;&gt;Node6 -->
<g id="edge5" class="edge">
<title>Node5&#45;&gt;Node6</title>
<path fill="none" stroke="midnightblue" d="M824.24,-64.5C832.59,-64.5 841.11,-64.5 849.68,-64.5"/>
<polygon fill="midnightblue" stroke="midnightblue" points="849.76,-68 859.76,-64.5 849.76,-61 849.76,-68"/>
</g>
<!-- Node8&#45;&gt;Node4 -->
<g id="edge8" class="edge">
<title>Node8&#45;&gt;Node4</title>
<path fill="none" stroke="midnightblue" d="M366.79,-27.9C377.81,-28.9 389.2,-29.93 400.42,-30.94"/>
<polygon fill="midnightblue" stroke="midnightblue" points="400.39,-34.45 410.66,-31.87 401.02,-27.48 400.39,-34.45"/>
</g>
</g>
</svg>
