<?xml version="1.0" encoding="UTF-8" standalone="no"?>
<!DOCTYPE svg PUBLIC "-//W3C//DTD SVG 1.1//EN"
 "http://www.w3.org/Graphics/SVG/1.1/DTD/svg11.dtd">
<!-- Generated by graphviz version 2.43.0 (0)
 -->
<!-- Title: QuantConnect.Securities.SecurityExchangeHours.GetPreviousMarketOpen Pages: 1 -->
<svg width="665pt" height="74pt"
 viewBox="0.00 0.00 665.00 74.00" xmlns="http://www.w3.org/2000/svg" xmlns:xlink="http://www.w3.org/1999/xlink">
<g id="graph0" class="graph" transform="scale(1 1) rotate(0) translate(4 70)">
<title>QuantConnect.Securities.SecurityExchangeHours.GetPreviousMarketOpen</title>
<polygon fill="white" stroke="transparent" points="-4,4 -4,-70 661,-70 661,4 -4,4"/>
<!-- Node1 -->
<g id="node1" class="node">
<title>Node1</title>
<g id="a_node1"><a xlink:title="Gets the local date time corresponding to the previous market open to the specified time">
<polygon fill="#bfbfbf" stroke="black" points="0,-24.5 0,-65.5 194,-65.5 194,-24.5 0,-24.5"/>
<text text-anchor="start" x="8" y="-53.5" font-family="Helvetica,sans-Serif" font-size="10.00">QuantConnect.Securities.</text>
<text text-anchor="start" x="8" y="-42.5" font-family="Helvetica,sans-Serif" font-size="10.00">SecurityExchangeHours.GetPrevious</text>
<text text-anchor="middle" x="97" y="-31.5" font-family="Helvetica,sans-Serif" font-size="10.00">MarketOpen</text>
</a>
</g>
</g>
<!-- Node2 -->
<g id="node2" class="node">
<title>Node2</title>
<g id="a_node2"><a xlink:href="classQuantConnect_1_1Securities_1_1SecurityExchangeHours.html#a106e2dd187ab76452e14ac6a28f929aa" target="_top" xlink:title="Helper to access the market hours field based on the day of week">
<polygon fill="white" stroke="black" points="442,-30 442,-60 657,-60 657,-30 442,-30"/>
<text text-anchor="start" x="450" y="-48" font-family="Helvetica,sans-Serif" font-size="10.00">QuantConnect.Securities.</text>
<text text-anchor="middle" x="549.5" y="-37" font-family="Helvetica,sans-Serif" font-size="10.00">SecurityExchangeHours.GetMarketHours</text>
</a>
</g>
</g>
<!-- Node1&#45;&gt;Node2 -->
<g id="edge1" class="edge">
<title>Node1&#45;&gt;Node2</title>
<path fill="none" stroke="midnightblue" d="M194.23,-49.88C206.27,-50.34 218.42,-50.74 230,-51 308.2,-52.78 327.8,-52.65 406,-51 414.36,-50.82 423,-50.59 431.69,-50.32"/>
<polygon fill="midnightblue" stroke="midnightblue" points="432.03,-53.81 441.91,-49.98 431.8,-46.81 432.03,-53.81"/>
</g>
<!-- Node3 -->
<g id="node3" class="node">
<title>Node3</title>
<g id="a_node3"><a xlink:href="classQuantConnect_1_1Securities_1_1SecurityExchangeHours.html#a180c418cdce27edaa7d55170a225761e" target="_top" xlink:title="Gets the local date time corresponding to the next market open following the specified time">
<polygon fill="white" stroke="black" points="230,-0.5 230,-41.5 406,-41.5 406,-0.5 230,-0.5"/>
<text text-anchor="start" x="238" y="-29.5" font-family="Helvetica,sans-Serif" font-size="10.00">QuantConnect.Securities.</text>
<text text-anchor="start" x="238" y="-18.5" font-family="Helvetica,sans-Serif" font-size="10.00">SecurityExchangeHours.GetNext</text>
<text text-anchor="middle" x="318" y="-7.5" font-family="Helvetica,sans-Serif" font-size="10.00">MarketOpen</text>
</a>
</g>
</g>
<!-- Node1&#45;&gt;Node3 -->
<g id="edge2" class="edge">
<title>Node1&#45;&gt;Node3</title>
<path fill="none" stroke="midnightblue" d="M194.06,-34.47C202.65,-33.53 211.35,-32.58 219.95,-31.64"/>
<polygon fill="midnightblue" stroke="midnightblue" points="220.42,-35.1 229.98,-30.54 219.66,-28.15 220.42,-35.1"/>
</g>
<!-- Node3&#45;&gt;Node2 -->
<g id="edge3" class="edge">
<title>Node3&#45;&gt;Node2</title>
<path fill="none" stroke="midnightblue" d="M406.09,-30.11C414.48,-30.98 423.07,-31.88 431.68,-32.78"/>
<polygon fill="midnightblue" stroke="midnightblue" points="431.47,-36.28 441.78,-33.84 432.2,-29.32 431.47,-36.28"/>
</g>
</g>
</svg>
