<?xml version="1.0" encoding="UTF-8" standalone="no"?>
<!DOCTYPE svg PUBLIC "-//W3C//DTD SVG 1.1//EN"
 "http://www.w3.org/Graphics/SVG/1.1/DTD/svg11.dtd">
<!-- Generated by graphviz version 2.43.0 (0)
 -->
<!-- Title: QuantConnect.Lean.Engine.DataFeeds.Enumerators.DataQueueOptionChainUniverseDataCollectionEnumerator.MoveNext Pages: 1 -->
<!--zoomable 138 -->
<svg id="main" version="1.1" xmlns="http://www.w3.org/2000/svg" xmlns:xlink="http://www.w3.org/1999/xlink" xml:space="preserve" onload="init(evt)">
<style type="text/css"><![CDATA[
.edge:hover path { stroke: red; }
.edge:hover polygon { stroke: red; fill: red; }
]]></style>
<script type="text/javascript"><![CDATA[
var edges = document.getElementsByTagName('g');
if (edges && edges.length) {
  for (var i=0;i<edges.length;i++) {
    if (edges[i].id.substr(0,4)=='edge') {
      edges[i].setAttribute('class','edge');
    }
  }
}
]]></script>
        <defs>
                <circle id="rim" cx="0" cy="0" r="7"/>
                <circle id="rim2" cx="0" cy="0" r="3.5"/>
                <g id="zoomPlus">
                        <use xlink:href="#rim" fill="#404040">
                                <set attributeName="fill" to="#808080" begin="zoomplus.mouseover" end="zoomplus.mouseout"/>
                        </use>
                        <path d="M-4,0h8M0,-4v8" fill="none" stroke="white" stroke-width="1.5" pointer-events="none"/>
                </g>
                <g id="zoomMin">
                        <use xlink:href="#rim" fill="#404040">
                                <set attributeName="fill" to="#808080" begin="zoomminus.mouseover" end="zoomminus.mouseout"/>
                        </use>
                        <path d="M-4,0h8" fill="none" stroke="white" stroke-width="1.5" pointer-events="none"/>
                </g>
                <g id="dirArrow">
                        <path fill="none" stroke="white" stroke-width="1.5" d="M0,-3.0v7 M-2.5,-0.5L0,-3.0L2.5,-0.5"/>
                </g>
               <g id="resetDef">
                       <use xlink:href="#rim2" fill="#404040">
                               <set attributeName="fill" to="#808080" begin="reset.mouseover" end="reset.mouseout"/>
                       </use>
               </g>
        </defs>

<script type="text/javascript">
var viewWidth = 1251;
var viewHeight = 138;
var sectionId = 'dynsection-1';
</script>
<script xlink:href="svgpan.js"/>
<svg id="graph" class="graph">
<g id="viewport">
<title>QuantConnect.Lean.Engine.DataFeeds.Enumerators.DataQueueOptionChainUniverseDataCollectionEnumerator.MoveNext</title>
<polygon fill="white" stroke="transparent" points="-4,4 -4,-133.5 1247,-133.5 1247,4 -4,4"/>
<!-- Node1 -->
<g id="node1" class="node">
<title>Node1</title>
<g id="a_node1"><a xlink:title="Advances the enumerator to the next element of the collection.">
<polygon fill="#bfbfbf" stroke="black" points="0,-33.5 0,-85.5 251,-85.5 251,-33.5 0,-33.5"/>
<text text-anchor="start" x="8" y="-73.5" font-family="Helvetica,sans-Serif" font-size="10.00">QuantConnect.Lean.Engine.</text>
<text text-anchor="start" x="8" y="-62.5" font-family="Helvetica,sans-Serif" font-size="10.00">DataFeeds.Enumerators.DataQueue</text>
<text text-anchor="start" x="8" y="-51.5" font-family="Helvetica,sans-Serif" font-size="10.00">OptionChainUniverseDataCollectionEnumerator.</text>
<text text-anchor="middle" x="125.5" y="-40.5" font-family="Helvetica,sans-Serif" font-size="10.00">MoveNext</text>
</a>
</g>
</g>
<!-- Node2 -->
<g id="node2" class="node">
<title>Node2</title>
<g id="a_node2"><a xlink:href="classQuantConnect_1_1Data_1_1UniverseSelection_1_1BaseDataCollection.html#ad659123c7e77ca68b033cc5ce9ba81e1" target="_top" xlink:title="Return a new instance clone of this object, used in fill forward">
<polygon fill="white" stroke="black" points="287,-90.5 287,-120.5 478,-120.5 478,-90.5 287,-90.5"/>
<text text-anchor="start" x="295" y="-108.5" font-family="Helvetica,sans-Serif" font-size="10.00">QuantConnect.Data.Universe</text>
<text text-anchor="middle" x="382.5" y="-97.5" font-family="Helvetica,sans-Serif" font-size="10.00">Selection.BaseDataCollection.Clone</text>
</a>
</g>
</g>
<!-- Node1&#45;&gt;Node2 -->
<g id="edge1" class="edge">
<title>Node1&#45;&gt;Node2</title>
<path fill="none" stroke="midnightblue" d="M251.01,-81.96C263.46,-84.21 275.94,-86.46 287.99,-88.63"/>
<polygon fill="midnightblue" stroke="midnightblue" points="287.53,-92.1 297.99,-90.44 288.77,-85.22 287.53,-92.1"/>
</g>
<!-- Node4 -->
<g id="node4" class="node">
<title>Node4</title>
<g id="a_node4"><a xlink:href="classQuantConnect_1_1Symbol.html#a59158f74116be3dad0ea0f3f3f134416" target="_top" xlink:title="Initializes a new instance of the Symbol class">
<polygon fill="white" stroke="black" points="300,-50 300,-69 465,-69 465,-50 300,-50"/>
<text text-anchor="middle" x="382.5" y="-57" font-family="Helvetica,sans-Serif" font-size="10.00">QuantConnect.Symbol.Symbol</text>
</a>
</g>
</g>
<!-- Node1&#45;&gt;Node4 -->
<g id="edge3" class="edge">
<title>Node1&#45;&gt;Node4</title>
<path fill="none" stroke="midnightblue" d="M251.01,-59.5C263.95,-59.5 276.93,-59.5 289.42,-59.5"/>
<polygon fill="midnightblue" stroke="midnightblue" points="289.78,-63 299.78,-59.5 289.78,-56 289.78,-63"/>
</g>
<!-- Node9 -->
<g id="node9" class="node">
<title>Node9</title>
<g id="a_node9"><a xlink:href="classQuantConnect_1_1Logging_1_1Log.html#a4e55477fbc790846b74550a57198cea9" target="_top" xlink:title="Log trace">
<polygon fill="white" stroke="black" points="307.5,-0.5 307.5,-30.5 457.5,-30.5 457.5,-0.5 307.5,-0.5"/>
<text text-anchor="start" x="315.5" y="-18.5" font-family="Helvetica,sans-Serif" font-size="10.00">QuantConnect.Logging.Log.</text>
<text text-anchor="middle" x="382.5" y="-7.5" font-family="Helvetica,sans-Serif" font-size="10.00">Trace</text>
</a>
</g>
</g>
<!-- Node1&#45;&gt;Node9 -->
<g id="edge8" class="edge">
<title>Node1&#45;&gt;Node9</title>
<path fill="none" stroke="midnightblue" d="M251.01,-38.02C266.63,-35.32 282.3,-32.62 297.09,-30.06"/>
<polygon fill="midnightblue" stroke="midnightblue" points="297.93,-33.47 307.19,-28.32 296.74,-26.57 297.93,-33.47"/>
</g>
<!-- Node3 -->
<g id="node3" class="node">
<title>Node3</title>
<g id="a_node3"><a xlink:href="classQuantConnect_1_1Data_1_1UniverseSelection_1_1BaseDataCollection.html#a5d425a0d9defce71ec8d0fc30917b7cf" target="_top" xlink:title="Initializes a new default instance of the BaseDataCollection c;ass">
<polygon fill="white" stroke="black" points="514,-88 514,-129 702,-129 702,-88 514,-88"/>
<text text-anchor="start" x="522" y="-117" font-family="Helvetica,sans-Serif" font-size="10.00">QuantConnect.Data.Universe</text>
<text text-anchor="start" x="522" y="-106" font-family="Helvetica,sans-Serif" font-size="10.00">Selection.BaseDataCollection.Base</text>
<text text-anchor="middle" x="608" y="-95" font-family="Helvetica,sans-Serif" font-size="10.00">DataCollection</text>
</a>
</g>
</g>
<!-- Node2&#45;&gt;Node3 -->
<g id="edge2" class="edge">
<title>Node2&#45;&gt;Node3</title>
<path fill="none" stroke="midnightblue" d="M478.28,-106.77C486.66,-106.88 495.16,-107 503.6,-107.11"/>
<polygon fill="midnightblue" stroke="midnightblue" points="503.81,-110.62 513.85,-107.25 503.9,-103.62 503.81,-110.62"/>
</g>
<!-- Node5 -->
<g id="node5" class="node">
<title>Node5</title>
<g id="a_node5"><a xlink:href="classQuantConnect_1_1Symbol.html#a59b0795fa21f46c306deb5576fa03bb9" target="_top" xlink:title="Centralized helper method to resolve alias for a symbol">
<polygon fill="white" stroke="black" points="523,-50 523,-69 693,-69 693,-50 523,-50"/>
<text text-anchor="middle" x="608" y="-57" font-family="Helvetica,sans-Serif" font-size="10.00">QuantConnect.Symbol.GetAlias</text>
</a>
</g>
</g>
<!-- Node4&#45;&gt;Node5 -->
<g id="edge4" class="edge">
<title>Node4&#45;&gt;Node5</title>
<path fill="none" stroke="midnightblue" d="M465.14,-59.5C480.58,-59.5 496.86,-59.5 512.66,-59.5"/>
<polygon fill="midnightblue" stroke="midnightblue" points="512.96,-63 522.96,-59.5 512.96,-56 512.96,-63"/>
</g>
<!-- Node6 -->
<g id="node6" class="node">
<title>Node6</title>
<g id="a_node6"><a xlink:href="classQuantConnect_1_1SymbolRepresentation.html#ad43ac907f6c19083821f58f21c6de017" target="_top" xlink:title="Returns future symbol ticker from underlying and expiration date. Function can generate tickers of tw...">
<polygon fill="white" stroke="black" points="738,-69.5 738,-99.5 941,-99.5 941,-69.5 738,-69.5"/>
<text text-anchor="start" x="746" y="-87.5" font-family="Helvetica,sans-Serif" font-size="10.00">QuantConnect.SymbolRepresentation.</text>
<text text-anchor="middle" x="839.5" y="-76.5" font-family="Helvetica,sans-Serif" font-size="10.00">GenerateFutureTicker</text>
</a>
</g>
</g>
<!-- Node5&#45;&gt;Node6 -->
<g id="edge5" class="edge">
<title>Node5&#45;&gt;Node6</title>
<path fill="none" stroke="midnightblue" d="M693.15,-68.67C704.43,-69.9 716.14,-71.17 727.79,-72.44"/>
<polygon fill="midnightblue" stroke="midnightblue" points="727.68,-75.95 738,-73.55 728.44,-68.99 727.68,-75.95"/>
</g>
<!-- Node8 -->
<g id="node8" class="node">
<title>Node8</title>
<g id="a_node8"><a xlink:href="classQuantConnect_1_1SymbolRepresentation.html#ab133044f5cf8c16e700190a2202b215e" target="_top" xlink:title="Returns option symbol ticker in accordance with OSI symbology More information can be found at http:/...">
<polygon fill="white" stroke="black" points="738,-20.5 738,-50.5 941,-50.5 941,-20.5 738,-20.5"/>
<text text-anchor="start" x="746" y="-38.5" font-family="Helvetica,sans-Serif" font-size="10.00">QuantConnect.SymbolRepresentation.</text>
<text text-anchor="middle" x="839.5" y="-27.5" font-family="Helvetica,sans-Serif" font-size="10.00">GenerateOptionTickerOSI</text>
</a>
</g>
</g>
<!-- Node5&#45;&gt;Node8 -->
<g id="edge7" class="edge">
<title>Node5&#45;&gt;Node8</title>
<path fill="none" stroke="midnightblue" d="M693.15,-50.7C704.43,-49.52 716.14,-48.3 727.79,-47.08"/>
<polygon fill="midnightblue" stroke="midnightblue" points="728.42,-50.53 738,-46.01 727.69,-43.57 728.42,-50.53"/>
</g>
<!-- Node7 -->
<g id="node7" class="node">
<title>Node7</title>
<g id="a_node7"><a xlink:href="classQuantConnect_1_1Securities_1_1Future_1_1FuturesExpiryUtilityFunctions.html#a4ccb1e2f2fe40ff09785a74a02f26df1" target="_top" xlink:title="Gets the number of months between the contract month and the expiry date.">
<polygon fill="white" stroke="black" points="977,-64 977,-105 1243,-105 1243,-64 977,-64"/>
<text text-anchor="start" x="985" y="-93" font-family="Helvetica,sans-Serif" font-size="10.00">QuantConnect.Securities.</text>
<text text-anchor="start" x="985" y="-82" font-family="Helvetica,sans-Serif" font-size="10.00">Future.FuturesExpiryUtilityFunctions.</text>
<text text-anchor="middle" x="1110" y="-71" font-family="Helvetica,sans-Serif" font-size="10.00">GetDeltaBetweenContractMonthAndContractExpiry</text>
</a>
</g>
</g>
<!-- Node6&#45;&gt;Node7 -->
<g id="edge6" class="edge">
<title>Node6&#45;&gt;Node7</title>
<path fill="none" stroke="midnightblue" d="M941.24,-84.5C949.59,-84.5 958.11,-84.5 966.68,-84.5"/>
<polygon fill="midnightblue" stroke="midnightblue" points="966.76,-88 976.76,-84.5 966.76,-81 966.76,-88"/>
</g>
<!-- Node10 -->
<g id="node10" class="node">
<title>Node10</title>
<g id="a_node10"><a xlink:href="interfaceQuantConnect_1_1Logging_1_1ILogHandler.html#a3fb71a33ac66129240b63f12b6fcda3b" target="_top" xlink:title="Write debug message to log">
<polygon fill="white" stroke="black" points="533,-0.5 533,-30.5 683,-30.5 683,-0.5 533,-0.5"/>
<text text-anchor="start" x="541" y="-18.5" font-family="Helvetica,sans-Serif" font-size="10.00">QuantConnect.Logging.ILog</text>
<text text-anchor="middle" x="608" y="-7.5" font-family="Helvetica,sans-Serif" font-size="10.00">Handler.Trace</text>
</a>
</g>
</g>
<!-- Node9&#45;&gt;Node10 -->
<g id="edge9" class="edge">
<title>Node9&#45;&gt;Node10</title>
<path fill="none" stroke="midnightblue" d="M457.61,-15.5C478.45,-15.5 501.27,-15.5 522.67,-15.5"/>
<polygon fill="midnightblue" stroke="midnightblue" points="522.71,-19 532.71,-15.5 522.71,-12 522.71,-19"/>
</g>
</g>
</svg>
        <g id="navigator" transform="translate(0 0)" fill="#404254">
                <rect fill="#f2f5e9" fill-opacity="0.5" stroke="#606060" stroke-width=".5" x="0" y="0" width="60" height="60"/>
                <use id="zoomplus" xlink:href="#zoomPlus" x="17" y="9" onmousedown="handleZoom(evt,'in')"/>
                <use id="zoomminus" xlink:href="#zoomMin" x="42" y="9" onmousedown="handleZoom(evt,'out')"/>
                <use id="reset" xlink:href="#resetDef" x="30" y="36" onmousedown="handleReset()"/>
                <g id="arrowUp" xlink:href="#dirArrow" transform="translate(30 24)" onmousedown="handlePan(0,-1)">
                  <use xlink:href="#rim" fill="#404040">
                        <set attributeName="fill" to="#808080" begin="arrowUp.mouseover" end="arrowUp.mouseout"/>
                  </use>
                  <path fill="none" stroke="white" stroke-width="1.5" d="M0,-3.0v7 M-2.5,-0.5L0,-3.0L2.5,-0.5"/>
                </g>
                <g id="arrowRight" xlink:href="#dirArrow" transform="rotate(90) translate(36 -43)" onmousedown="handlePan(1,0)">
                  <use xlink:href="#rim" fill="#404040">
                        <set attributeName="fill" to="#808080" begin="arrowRight.mouseover" end="arrowRight.mouseout"/>
                  </use>
                  <path fill="none" stroke="white" stroke-width="1.5" d="M0,-3.0v7 M-2.5,-0.5L0,-3.0L2.5,-0.5"/>
                </g>
                <g id="arrowDown" xlink:href="#dirArrow" transform="rotate(180) translate(-30 -48)" onmousedown="handlePan(0,1)">
                  <use xlink:href="#rim" fill="#404040">
                        <set attributeName="fill" to="#808080" begin="arrowDown.mouseover" end="arrowDown.mouseout"/>
                  </use>
                  <path fill="none" stroke="white" stroke-width="1.5" d="M0,-3.0v7 M-2.5,-0.5L0,-3.0L2.5,-0.5"/>
                </g>
                <g id="arrowLeft" xlink:href="#dirArrow" transform="rotate(270) translate(-36 17)" onmousedown="handlePan(-1,0)">
                  <use xlink:href="#rim" fill="#404040">
                        <set attributeName="fill" to="#808080" begin="arrowLeft.mouseover" end="arrowLeft.mouseout"/>
                  </use>
                  <path fill="none" stroke="white" stroke-width="1.5" d="M0,-3.0v7 M-2.5,-0.5L0,-3.0L2.5,-0.5"/>
                </g>
        </g>
        <svg viewBox="0 0 15 15" width="100%" height="30px" preserveAspectRatio="xMaxYMin meet">
         <g id="arrow_out" transform="scale(0.3 0.3)">
          <a xlink:href="classQuantConnect_1_1Lean_1_1Engine_1_1DataFeeds_1_1Enumerators_1_1DataQueueOptionChainUniverseDataCollectionEnumerator_adfffe3d1c177d2840b911b3151f953cc_cgraph_org.svg" target="_base">
           <rect id="button" ry="5" rx="5" y="6" x="6" height="38" width="38"
                fill="#f2f5e9" fill-opacity="0.5" stroke="#606060" stroke-width="1.0"/>
           <path id="arrow"
             d="M 11.500037,31.436501 C 11.940474,20.09759 22.043105,11.32322 32.158766,21.979434 L 37.068811,17.246167 C 37.068811,17.246167 37.088388,32 37.088388,32 L 22.160133,31.978069 C 22.160133,31.978069 26.997745,27.140456 26.997745,27.140456 C 18.528582,18.264221 13.291696,25.230495 11.500037,31.436501 z"
             style="fill:#404040;"/>
          </a>
         </g>
        </svg>
</svg>
