<?xml version="1.0" encoding="UTF-8" standalone="no"?>
<!DOCTYPE svg PUBLIC "-//W3C//DTD SVG 1.1//EN"
 "http://www.w3.org/Graphics/SVG/1.1/DTD/svg11.dtd">
<!-- Generated by graphviz version 2.43.0 (0)
 -->
<!-- Title: QuantConnect.Lean.Engine.TransactionHandlers.BrokerageTransactionHandler.AddOrder Pages: 1 -->
<svg width="865pt" height="433pt"
 viewBox="0.00 0.00 865.00 432.50" xmlns="http://www.w3.org/2000/svg" xmlns:xlink="http://www.w3.org/1999/xlink">
<g id="graph0" class="graph" transform="scale(1 1) rotate(0) translate(4 428.5)">
<title>QuantConnect.Lean.Engine.TransactionHandlers.BrokerageTransactionHandler.AddOrder</title>
<polygon fill="white" stroke="transparent" points="-4,4 -4,-428.5 861,-428.5 861,4 -4,4"/>
<!-- Node1 -->
<g id="node1" class="node">
<title>Node1</title>
<g id="a_node1"><a xlink:title="Add an order to collection and return the unique order id or negative if an error.">
<polygon fill="#bfbfbf" stroke="black" points="0,-202.5 0,-243.5 224,-243.5 224,-202.5 0,-202.5"/>
<text text-anchor="start" x="8" y="-231.5" font-family="Helvetica,sans-Serif" font-size="10.00">QuantConnect.Lean.Engine.</text>
<text text-anchor="start" x="8" y="-220.5" font-family="Helvetica,sans-Serif" font-size="10.00">TransactionHandlers.BrokerageTransaction</text>
<text text-anchor="middle" x="112" y="-209.5" font-family="Helvetica,sans-Serif" font-size="10.00">Handler.AddOrder</text>
</a>
</g>
</g>
<!-- Node2 -->
<g id="node2" class="node">
<title>Node2</title>
<g id="a_node2"><a xlink:href="interfaceQuantConnect_1_1Interfaces_1_1IBusyCollection.html#aac99900d75deacec4ccabb0c7f570c27" target="_top" xlink:title="Adds the items to this collection">
<polygon fill="white" stroke="black" points="302,-394 302,-424 442,-424 442,-394 302,-394"/>
<text text-anchor="start" x="310" y="-412" font-family="Helvetica,sans-Serif" font-size="10.00">QuantConnect.Interfaces.</text>
<text text-anchor="middle" x="372" y="-401" font-family="Helvetica,sans-Serif" font-size="10.00">IBusyCollection.Add</text>
</a>
</g>
</g>
<!-- Node1&#45;&gt;Node2 -->
<g id="edge1" class="edge">
<title>Node1&#45;&gt;Node2</title>
<path fill="none" stroke="midnightblue" d="M125.52,-243.66C147.87,-278.67 198.16,-349.31 260,-385 269.84,-390.68 280.87,-395.02 292.06,-398.33"/>
<polygon fill="midnightblue" stroke="midnightblue" points="291.35,-401.76 301.91,-400.99 293.17,-395 291.35,-401.76"/>
</g>
<!-- Node3 -->
<g id="node3" class="node">
<title>Node3</title>
<g id="a_node3"><a xlink:href="classQuantConnect_1_1Orders_1_1Order.html#afbc537575c31e60fcda07aba2e1368e9" target="_top" xlink:title="Creates an Order to match the specified request">
<polygon fill="white" stroke="black" points="295.5,-345 295.5,-375 448.5,-375 448.5,-345 295.5,-345"/>
<text text-anchor="start" x="303.5" y="-363" font-family="Helvetica,sans-Serif" font-size="10.00">QuantConnect.Orders.Order.</text>
<text text-anchor="middle" x="372" y="-352" font-family="Helvetica,sans-Serif" font-size="10.00">CreateOrder</text>
</a>
</g>
</g>
<!-- Node1&#45;&gt;Node3 -->
<g id="edge2" class="edge">
<title>Node1&#45;&gt;Node3</title>
<path fill="none" stroke="midnightblue" d="M133.4,-243.55C160.11,-269.21 209.48,-312.58 260,-336 268.14,-339.78 276.9,-342.97 285.8,-345.66"/>
<polygon fill="midnightblue" stroke="midnightblue" points="284.91,-349.05 295.48,-348.4 286.81,-342.31 284.91,-349.05"/>
</g>
<!-- Node4 -->
<g id="node4" class="node">
<title>Node4</title>
<g id="a_node4"><a xlink:href="interfaceQuantConnect_1_1Interfaces_1_1IAlgorithm.html#a63cc959667fa0f4dfd13048a9b7dac94" target="_top" xlink:title="Send debug message">
<polygon fill="white" stroke="black" points="302,-296 302,-326 442,-326 442,-296 302,-296"/>
<text text-anchor="start" x="310" y="-314" font-family="Helvetica,sans-Serif" font-size="10.00">QuantConnect.Interfaces.</text>
<text text-anchor="middle" x="372" y="-303" font-family="Helvetica,sans-Serif" font-size="10.00">IAlgorithm.Debug</text>
</a>
</g>
</g>
<!-- Node1&#45;&gt;Node4 -->
<g id="edge3" class="edge">
<title>Node1&#45;&gt;Node4</title>
<path fill="none" stroke="midnightblue" d="M161.17,-243.58C189.63,-255.34 226.53,-269.91 260,-281 273.04,-285.32 287.08,-289.48 300.66,-293.26"/>
<polygon fill="midnightblue" stroke="midnightblue" points="299.86,-296.68 310.43,-295.95 301.72,-289.93 299.86,-296.68"/>
</g>
<!-- Node5 -->
<g id="node5" class="node">
<title>Node5</title>
<g id="a_node5"><a xlink:href="classQuantConnect_1_1Orders_1_1OrderResponse.html#a14ded2753785926becc5e7f8e5a02a09" target="_top" xlink:title="Helper method to create an error response from a request">
<polygon fill="white" stroke="black" points="520,-156 520,-186 671,-186 671,-156 520,-156"/>
<text text-anchor="start" x="528" y="-174" font-family="Helvetica,sans-Serif" font-size="10.00">QuantConnect.Orders.Order</text>
<text text-anchor="middle" x="595.5" y="-163" font-family="Helvetica,sans-Serif" font-size="10.00">Response.Error</text>
</a>
</g>
</g>
<!-- Node1&#45;&gt;Node5 -->
<g id="edge4" class="edge">
<title>Node1&#45;&gt;Node5</title>
<path fill="none" stroke="midnightblue" d="M187.03,-243.56C263.29,-261.17 384.69,-279.19 484,-248 518.22,-237.25 551.11,-211.74 571.97,-193.01"/>
<polygon fill="midnightblue" stroke="midnightblue" points="574.37,-195.56 579.36,-186.21 569.63,-190.41 574.37,-195.56"/>
</g>
<!-- Node6 -->
<g id="node6" class="node">
<title>Node6</title>
<g id="a_node6"><a xlink:href="classQuantConnect_1_1Orders_1_1OrderRequest.html#aed73f8f311c9224866211078cd6caef1" target="_top" xlink:title="Sets the Response for this request">
<polygon fill="white" stroke="black" points="296.5,-208 296.5,-238 447.5,-238 447.5,-208 296.5,-208"/>
<text text-anchor="start" x="304.5" y="-226" font-family="Helvetica,sans-Serif" font-size="10.00">QuantConnect.Orders.Order</text>
<text text-anchor="middle" x="372" y="-215" font-family="Helvetica,sans-Serif" font-size="10.00">Request.SetResponse</text>
</a>
</g>
</g>
<!-- Node1&#45;&gt;Node6 -->
<g id="edge5" class="edge">
<title>Node1&#45;&gt;Node6</title>
<path fill="none" stroke="midnightblue" d="M224.29,-223C244.96,-223 266.25,-223 285.98,-223"/>
<polygon fill="midnightblue" stroke="midnightblue" points="286.15,-226.5 296.15,-223 286.15,-219.5 286.15,-226.5"/>
</g>
<!-- Node7 -->
<g id="node7" class="node">
<title>Node7</title>
<g id="a_node7"><a xlink:href="interfaceQuantConnect_1_1Interfaces_1_1IAlgorithm.html#a78de707fdc6a880c5ebb8cbe46d82e55" target="_top" xlink:title="Determines if the Symbol is shortable at the brokerage">
<polygon fill="white" stroke="black" points="302,-159 302,-189 442,-189 442,-159 302,-159"/>
<text text-anchor="start" x="310" y="-177" font-family="Helvetica,sans-Serif" font-size="10.00">QuantConnect.Interfaces.</text>
<text text-anchor="middle" x="372" y="-166" font-family="Helvetica,sans-Serif" font-size="10.00">IAlgorithm.Shortable</text>
</a>
</g>
</g>
<!-- Node1&#45;&gt;Node7 -->
<g id="edge6" class="edge">
<title>Node1&#45;&gt;Node7</title>
<path fill="none" stroke="midnightblue" d="M221.29,-202.43C244.97,-197.94 269.6,-193.26 291.89,-189.02"/>
<polygon fill="midnightblue" stroke="midnightblue" points="292.78,-192.42 301.95,-187.11 291.47,-185.54 292.78,-192.42"/>
</g>
<!-- Node8 -->
<g id="node8" class="node">
<title>Node8</title>
<g id="a_node8"><a xlink:href="classQuantConnect_1_1Orders_1_1OrderResponse.html#a1d69bcc60eb408bfe45cf6a5f628c721" target="_top" xlink:title="Helper method to create a successful response from a request">
<polygon fill="white" stroke="black" points="296.5,-110 296.5,-140 447.5,-140 447.5,-110 296.5,-110"/>
<text text-anchor="start" x="304.5" y="-128" font-family="Helvetica,sans-Serif" font-size="10.00">QuantConnect.Orders.Order</text>
<text text-anchor="middle" x="372" y="-117" font-family="Helvetica,sans-Serif" font-size="10.00">Response.Success</text>
</a>
</g>
</g>
<!-- Node1&#45;&gt;Node8 -->
<g id="edge7" class="edge">
<title>Node1&#45;&gt;Node8</title>
<path fill="none" stroke="midnightblue" d="M148.49,-202.36C177.63,-186.16 220.39,-164.06 260,-150 268.48,-146.99 277.45,-144.26 286.47,-141.81"/>
<polygon fill="midnightblue" stroke="midnightblue" points="287.47,-145.16 296.26,-139.25 285.7,-138.39 287.47,-145.16"/>
</g>
<!-- Node9 -->
<g id="node9" class="node">
<title>Node9</title>
<g id="a_node9"><a xlink:href="classQuantConnect_1_1Lean_1_1Engine_1_1TransactionHandlers_1_1BrokerageTransactionHandler.html#a478c44320a2153a038ab09f2514ed5b7" target="_top" xlink:title="Wait for the order to be handled by the _processingThread">
<polygon fill="white" stroke="black" points="260,-0.5 260,-41.5 484,-41.5 484,-0.5 260,-0.5"/>
<text text-anchor="start" x="268" y="-29.5" font-family="Helvetica,sans-Serif" font-size="10.00">QuantConnect.Lean.Engine.</text>
<text text-anchor="start" x="268" y="-18.5" font-family="Helvetica,sans-Serif" font-size="10.00">TransactionHandlers.BrokerageTransaction</text>
<text text-anchor="middle" x="372" y="-7.5" font-family="Helvetica,sans-Serif" font-size="10.00">Handler.WaitForOrderSubmission</text>
</a>
</g>
</g>
<!-- Node1&#45;&gt;Node9 -->
<g id="edge8" class="edge">
<title>Node1&#45;&gt;Node9</title>
<path fill="none" stroke="midnightblue" d="M124.87,-202.26C146.76,-165.91 197.08,-90.78 260,-51 262.78,-49.24 265.67,-47.58 268.63,-46.02"/>
<polygon fill="midnightblue" stroke="midnightblue" points="270.25,-49.12 277.73,-41.62 267.21,-42.82 270.25,-49.12"/>
</g>
<!-- Node12 -->
<g id="node12" class="node">
<title>Node12</title>
<g id="a_node12"><a xlink:href="classQuantConnect_1_1Orders_1_1OrderResponse.html#af8bdc5b0fd7d8e5929a659099d1d939f" target="_top" xlink:title="Helper method to create an error response due to algorithm still in warmup mode">
<polygon fill="white" stroke="black" points="296.5,-61 296.5,-91 447.5,-91 447.5,-61 296.5,-61"/>
<text text-anchor="start" x="304.5" y="-79" font-family="Helvetica,sans-Serif" font-size="10.00">QuantConnect.Orders.Order</text>
<text text-anchor="middle" x="372" y="-68" font-family="Helvetica,sans-Serif" font-size="10.00">Response.WarmingUp</text>
</a>
</g>
</g>
<!-- Node1&#45;&gt;Node12 -->
<g id="edge11" class="edge">
<title>Node1&#45;&gt;Node12</title>
<path fill="none" stroke="midnightblue" d="M131.75,-202.25C157.78,-174.77 207.62,-126.76 260,-101 268.42,-96.86 277.54,-93.39 286.8,-90.5"/>
<polygon fill="midnightblue" stroke="midnightblue" points="287.86,-93.83 296.49,-87.68 285.91,-87.11 287.86,-93.83"/>
</g>
<!-- Node10 -->
<g id="node10" class="node">
<title>Node10</title>
<g id="a_node10"><a xlink:href="classQuantConnect_1_1Logging_1_1Log.html#af0e7955911bc7664b37661b2a303a9e3" target="_top" xlink:title="Log error">
<polygon fill="white" stroke="black" points="520.5,-6 520.5,-36 670.5,-36 670.5,-6 520.5,-6"/>
<text text-anchor="start" x="528.5" y="-24" font-family="Helvetica,sans-Serif" font-size="10.00">QuantConnect.Logging.Log.</text>
<text text-anchor="middle" x="595.5" y="-13" font-family="Helvetica,sans-Serif" font-size="10.00">Error</text>
</a>
</g>
</g>
<!-- Node9&#45;&gt;Node10 -->
<g id="edge9" class="edge">
<title>Node9&#45;&gt;Node10</title>
<path fill="none" stroke="midnightblue" d="M484.07,-21C492.82,-21 501.57,-21 510.09,-21"/>
<polygon fill="midnightblue" stroke="midnightblue" points="510.37,-24.5 520.37,-21 510.37,-17.5 510.37,-24.5"/>
</g>
<!-- Node11 -->
<g id="node11" class="node">
<title>Node11</title>
<g id="a_node11"><a xlink:href="interfaceQuantConnect_1_1Logging_1_1ILogHandler.html#a35373a0c5d76031fa5ccf5dc39e5c25d" target="_top" xlink:title="Write error message to log">
<polygon fill="white" stroke="black" points="707,-6 707,-36 857,-36 857,-6 707,-6"/>
<text text-anchor="start" x="715" y="-24" font-family="Helvetica,sans-Serif" font-size="10.00">QuantConnect.Logging.ILog</text>
<text text-anchor="middle" x="782" y="-13" font-family="Helvetica,sans-Serif" font-size="10.00">Handler.Error</text>
</a>
</g>
</g>
<!-- Node10&#45;&gt;Node11 -->
<g id="edge10" class="edge">
<title>Node10&#45;&gt;Node11</title>
<path fill="none" stroke="midnightblue" d="M670.75,-21C679.31,-21 688.09,-21 696.77,-21"/>
<polygon fill="midnightblue" stroke="midnightblue" points="696.91,-24.5 706.91,-21 696.91,-17.5 696.91,-24.5"/>
</g>
<!-- Node12&#45;&gt;Node5 -->
<g id="edge12" class="edge">
<title>Node12&#45;&gt;Node5</title>
<path fill="none" stroke="midnightblue" d="M447.54,-89.07C459.94,-92.3 472.5,-96.23 484,-101 514.24,-113.54 545.46,-134.15 566.96,-149.77"/>
<polygon fill="midnightblue" stroke="midnightblue" points="565.15,-152.78 575.27,-155.9 569.31,-147.15 565.15,-152.78"/>
</g>
</g>
</svg>
