<?xml version="1.0" encoding="UTF-8" standalone="no"?>
<!DOCTYPE svg PUBLIC "-//W3C//DTD SVG 1.1//EN"
 "http://www.w3.org/Graphics/SVG/1.1/DTD/svg11.dtd">
<!-- Generated by graphviz version 2.43.0 (0)
 -->
<!-- Title: QuantConnect.Securities.Security Pages: 1 -->
<svg width="625pt" height="357pt"
 viewBox="0.00 0.00 625.00 357.00" xmlns="http://www.w3.org/2000/svg" xmlns:xlink="http://www.w3.org/1999/xlink">
<g id="graph0" class="graph" transform="scale(1 1) rotate(0) translate(4 353)">
<title>QuantConnect.Securities.Security</title>
<polygon fill="white" stroke="transparent" points="-4,4 -4,-353 621,-353 621,4 -4,4"/>
<!-- Node1 -->
<g id="node1" class="node">
<title>Node1</title>
<g id="a_node1"><a xlink:title="A base vehicle properties class for providing a common interface to all assets in QuantConnect.">
<polygon fill="#bfbfbf" stroke="black" points="119,-171.5 119,-201.5 259,-201.5 259,-171.5 119,-171.5"/>
<text text-anchor="start" x="127" y="-189.5" font-family="Helvetica,sans-Serif" font-size="10.00">QuantConnect.Securities.</text>
<text text-anchor="middle" x="189" y="-178.5" font-family="Helvetica,sans-Serif" font-size="10.00">Security</text>
</a>
</g>
</g>
<!-- Node3 -->
<g id="node3" class="node">
<title>Node3</title>
<g id="a_node3"><a xlink:href="classQuantConnect_1_1Securities_1_1Cfd_1_1Cfd.html" target="_top" xlink:title="CFD Security Object Implementation for CFD Assets">
<polygon fill="white" stroke="black" points="295,-318.5 295,-348.5 435,-348.5 435,-318.5 295,-318.5"/>
<text text-anchor="start" x="303" y="-336.5" font-family="Helvetica,sans-Serif" font-size="10.00">QuantConnect.Securities.</text>
<text text-anchor="middle" x="365" y="-325.5" font-family="Helvetica,sans-Serif" font-size="10.00">Cfd.Cfd</text>
</a>
</g>
</g>
<!-- Node1&#45;&gt;Node3 -->
<g id="edge2" class="edge">
<title>Node1&#45;&gt;Node3</title>
<path fill="none" stroke="midnightblue" d="M204.59,-210.23C222.65,-237.75 255.85,-282.74 295,-309.5 299.92,-312.86 305.36,-315.8 310.96,-318.35"/>
<polygon fill="midnightblue" stroke="midnightblue" points="207.41,-208.14 199.06,-201.62 201.52,-211.93 207.41,-208.14"/>
</g>
<!-- Node4 -->
<g id="node4" class="node">
<title>Node4</title>
<g id="a_node4"><a xlink:href="classQuantConnect_1_1Securities_1_1Crypto_1_1Crypto.html" target="_top" xlink:title="Crypto Security Object Implementation for Crypto Assets">
<polygon fill="white" stroke="black" points="295,-269.5 295,-299.5 435,-299.5 435,-269.5 295,-269.5"/>
<text text-anchor="start" x="303" y="-287.5" font-family="Helvetica,sans-Serif" font-size="10.00">QuantConnect.Securities.</text>
<text text-anchor="middle" x="365" y="-276.5" font-family="Helvetica,sans-Serif" font-size="10.00">Crypto.Crypto</text>
</a>
</g>
</g>
<!-- Node1&#45;&gt;Node4 -->
<g id="edge3" class="edge">
<title>Node1&#45;&gt;Node4</title>
<path fill="none" stroke="midnightblue" d="M215.87,-207.84C236.36,-223.95 266.23,-245.73 295,-260.5 301.32,-263.74 308.17,-266.72 315.03,-269.38"/>
<polygon fill="midnightblue" stroke="midnightblue" points="217.96,-205.03 207.96,-201.53 213.6,-210.5 217.96,-205.03"/>
</g>
<!-- Node5 -->
<g id="node5" class="node">
<title>Node5</title>
<g id="a_node5"><a xlink:href="classQuantConnect_1_1Securities_1_1Equity_1_1Equity.html" target="_top" xlink:title="Equity Security Type : Extension of the underlying Security class for equity specific behaviours.">
<polygon fill="white" stroke="black" points="295,-220.5 295,-250.5 435,-250.5 435,-220.5 295,-220.5"/>
<text text-anchor="start" x="303" y="-238.5" font-family="Helvetica,sans-Serif" font-size="10.00">QuantConnect.Securities.</text>
<text text-anchor="middle" x="365" y="-227.5" font-family="Helvetica,sans-Serif" font-size="10.00">Equity.Equity</text>
</a>
</g>
</g>
<!-- Node1&#45;&gt;Node5 -->
<g id="edge4" class="edge">
<title>Node1&#45;&gt;Node5</title>
<path fill="none" stroke="midnightblue" d="M253.28,-204.32C272.07,-209.61 292.45,-215.35 310.55,-220.45"/>
<polygon fill="midnightblue" stroke="midnightblue" points="254.2,-200.94 243.63,-201.6 252.3,-207.68 254.2,-200.94"/>
</g>
<!-- Node6 -->
<g id="node6" class="node">
<title>Node6</title>
<g id="a_node6"><a xlink:href="classQuantConnect_1_1Securities_1_1Forex_1_1Forex.html" target="_top" xlink:title="FOREX Security Object Implementation for FOREX Assets">
<polygon fill="white" stroke="black" points="295,-171.5 295,-201.5 435,-201.5 435,-171.5 295,-171.5"/>
<text text-anchor="start" x="303" y="-189.5" font-family="Helvetica,sans-Serif" font-size="10.00">QuantConnect.Securities.</text>
<text text-anchor="middle" x="365" y="-178.5" font-family="Helvetica,sans-Serif" font-size="10.00">Forex.Forex</text>
</a>
</g>
</g>
<!-- Node1&#45;&gt;Node6 -->
<g id="edge5" class="edge">
<title>Node1&#45;&gt;Node6</title>
<path fill="none" stroke="midnightblue" d="M269.03,-186.5C277.62,-186.5 286.32,-186.5 294.78,-186.5"/>
<polygon fill="midnightblue" stroke="midnightblue" points="269.02,-183 259.02,-186.5 269.02,-190 269.02,-183"/>
</g>
<!-- Node7 -->
<g id="node7" class="node">
<title>Node7</title>
<g id="a_node7"><a xlink:href="classQuantConnect_1_1Securities_1_1Future_1_1Future.html" target="_top" xlink:title="Futures Security Object Implementation for Futures Assets">
<polygon fill="white" stroke="black" points="295,-122.5 295,-152.5 435,-152.5 435,-122.5 295,-122.5"/>
<text text-anchor="start" x="303" y="-140.5" font-family="Helvetica,sans-Serif" font-size="10.00">QuantConnect.Securities.</text>
<text text-anchor="middle" x="365" y="-129.5" font-family="Helvetica,sans-Serif" font-size="10.00">Future.Future</text>
</a>
</g>
</g>
<!-- Node1&#45;&gt;Node7 -->
<g id="edge6" class="edge">
<title>Node1&#45;&gt;Node7</title>
<path fill="none" stroke="midnightblue" d="M253.28,-168.68C272.07,-163.39 292.45,-157.65 310.55,-152.55"/>
<polygon fill="midnightblue" stroke="midnightblue" points="252.3,-165.32 243.63,-171.4 254.2,-172.06 252.3,-165.32"/>
</g>
<!-- Node8 -->
<g id="node8" class="node">
<title>Node8</title>
<g id="a_node8"><a xlink:href="classQuantConnect_1_1Securities_1_1Index_1_1Index.html" target="_top" xlink:title="INDEX Security Object Implementation for INDEX Assets">
<polygon fill="white" stroke="black" points="295,-73.5 295,-103.5 435,-103.5 435,-73.5 295,-73.5"/>
<text text-anchor="start" x="303" y="-91.5" font-family="Helvetica,sans-Serif" font-size="10.00">QuantConnect.Securities.</text>
<text text-anchor="middle" x="365" y="-80.5" font-family="Helvetica,sans-Serif" font-size="10.00">Index.Index</text>
</a>
</g>
</g>
<!-- Node1&#45;&gt;Node8 -->
<g id="edge7" class="edge">
<title>Node1&#45;&gt;Node8</title>
<path fill="none" stroke="midnightblue" d="M215.87,-165.16C236.36,-149.05 266.23,-127.27 295,-112.5 301.32,-109.26 308.17,-106.28 315.03,-103.62"/>
<polygon fill="midnightblue" stroke="midnightblue" points="213.6,-162.5 207.96,-171.47 217.96,-167.97 213.6,-162.5"/>
</g>
<!-- Node9 -->
<g id="node9" class="node">
<title>Node9</title>
<g id="a_node9"><a xlink:href="classQuantConnect_1_1Securities_1_1Option_1_1Option.html" target="_top" xlink:title="Option Security Object Implementation for Option Assets">
<polygon fill="white" stroke="black" points="295,-24.5 295,-54.5 435,-54.5 435,-24.5 295,-24.5"/>
<text text-anchor="start" x="303" y="-42.5" font-family="Helvetica,sans-Serif" font-size="10.00">QuantConnect.Securities.</text>
<text text-anchor="middle" x="365" y="-31.5" font-family="Helvetica,sans-Serif" font-size="10.00">Option.Option</text>
</a>
</g>
</g>
<!-- Node1&#45;&gt;Node9 -->
<g id="edge8" class="edge">
<title>Node1&#45;&gt;Node9</title>
<path fill="none" stroke="midnightblue" d="M204.59,-162.77C222.65,-135.25 255.85,-90.26 295,-63.5 299.92,-60.14 305.36,-57.2 310.96,-54.65"/>
<polygon fill="midnightblue" stroke="midnightblue" points="201.52,-161.07 199.06,-171.38 207.41,-164.86 201.52,-161.07"/>
</g>
<!-- Node2 -->
<g id="node2" class="node">
<title>Node2</title>
<g id="a_node2"><a xlink:href="interfaceQuantConnect_1_1Interfaces_1_1ISecurityPrice.html" target="_top" xlink:title="Reduced interface which allows setting and accessing price properties for a Security">
<polygon fill="white" stroke="black" points="0,-177 0,-196 83,-196 83,-177 0,-177"/>
<text text-anchor="middle" x="41.5" y="-184" font-family="Helvetica,sans-Serif" font-size="10.00">ISecurityPrice</text>
</a>
</g>
</g>
<!-- Node2&#45;&gt;Node1 -->
<g id="edge1" class="edge">
<title>Node2&#45;&gt;Node1</title>
<path fill="none" stroke="midnightblue" d="M93.29,-186.5C101.6,-186.5 110.33,-186.5 118.98,-186.5"/>
<polygon fill="midnightblue" stroke="midnightblue" points="93.03,-183 83.03,-186.5 93.03,-190 93.03,-183"/>
</g>
<!-- Node10 -->
<g id="node10" class="node">
<title>Node10</title>
<g id="a_node10"><a xlink:href="classQuantConnect_1_1Securities_1_1FutureOption_1_1FutureOption.html" target="_top" xlink:title="Futures Options security">
<polygon fill="white" stroke="black" points="471,-49.5 471,-79.5 617,-79.5 617,-49.5 471,-49.5"/>
<text text-anchor="start" x="479" y="-67.5" font-family="Helvetica,sans-Serif" font-size="10.00">QuantConnect.Securities.</text>
<text text-anchor="middle" x="544" y="-56.5" font-family="Helvetica,sans-Serif" font-size="10.00">FutureOption.FutureOption</text>
</a>
</g>
</g>
<!-- Node9&#45;&gt;Node10 -->
<g id="edge9" class="edge">
<title>Node9&#45;&gt;Node10</title>
<path fill="none" stroke="midnightblue" d="M445.19,-50.68C453.76,-51.9 462.45,-53.12 470.94,-54.32"/>
<polygon fill="midnightblue" stroke="midnightblue" points="445.58,-47.21 435.19,-49.27 444.61,-54.14 445.58,-47.21"/>
</g>
<!-- Node11 -->
<g id="node11" class="node">
<title>Node11</title>
<g id="a_node11"><a xlink:href="classQuantConnect_1_1Securities_1_1IndexOption_1_1IndexOption.html" target="_top" xlink:title="Index Options security">
<polygon fill="white" stroke="black" points="474,-0.5 474,-30.5 614,-30.5 614,-0.5 474,-0.5"/>
<text text-anchor="start" x="482" y="-18.5" font-family="Helvetica,sans-Serif" font-size="10.00">QuantConnect.Securities.</text>
<text text-anchor="middle" x="544" y="-7.5" font-family="Helvetica,sans-Serif" font-size="10.00">IndexOption.IndexOption</text>
</a>
</g>
</g>
<!-- Node9&#45;&gt;Node11 -->
<g id="edge10" class="edge">
<title>Node9&#45;&gt;Node11</title>
<path fill="none" stroke="midnightblue" d="M445.11,-28.77C454.69,-27.47 464.43,-26.15 473.85,-24.88"/>
<polygon fill="midnightblue" stroke="midnightblue" points="444.63,-25.31 435.19,-30.12 445.57,-32.24 444.63,-25.31"/>
</g>
</g>
</svg>
