<?xml version="1.0" encoding="UTF-8" standalone="no"?>
<!DOCTYPE svg PUBLIC "-//W3C//DTD SVG 1.1//EN"
 "http://www.w3.org/Graphics/SVG/1.1/DTD/svg11.dtd">
<!-- Generated by graphviz version 2.43.0 (0)
 -->
<!-- Title: QuantConnect.Optimizer.LeanOptimizer.GetCurrentEstimate Pages: 1 -->
<svg width="396pt" height="39pt"
 viewBox="0.00 0.00 396.00 39.00" xmlns="http://www.w3.org/2000/svg" xmlns:xlink="http://www.w3.org/1999/xlink">
<g id="graph0" class="graph" transform="scale(1 1) rotate(0) translate(4 35)">
<title>QuantConnect.Optimizer.LeanOptimizer.GetCurrentEstimate</title>
<polygon fill="white" stroke="transparent" points="-4,4 -4,-35 392,-35 392,4 -4,4"/>
<!-- Node1 -->
<g id="node1" class="node">
<title>Node1</title>
<g id="a_node1"><a xlink:title="Returns the current optimization status and strategy estimates">
<polygon fill="#bfbfbf" stroke="black" points="224,-0.5 224,-30.5 388,-30.5 388,-0.5 224,-0.5"/>
<text text-anchor="start" x="232" y="-18.5" font-family="Helvetica,sans-Serif" font-size="10.00">QuantConnect.Optimizer.Lean</text>
<text text-anchor="middle" x="306" y="-7.5" font-family="Helvetica,sans-Serif" font-size="10.00">Optimizer.GetCurrentEstimate</text>
</a>
</g>
</g>
<!-- Node2 -->
<g id="node2" class="node">
<title>Node2</title>
<g id="a_node2"><a xlink:href="classQuantConnect_1_1Optimizer_1_1Launcher_1_1ConsoleLeanOptimizer.html#a727f46a7d9abd51ec8cec50bdde59711" target="_top" xlink:title="Sends an update of the current optimization status to the user">
<polygon fill="white" stroke="black" points="0,-0.5 0,-30.5 188,-30.5 188,-0.5 0,-0.5"/>
<text text-anchor="start" x="8" y="-18.5" font-family="Helvetica,sans-Serif" font-size="10.00">QuantConnect.Optimizer.Launcher.</text>
<text text-anchor="middle" x="94" y="-7.5" font-family="Helvetica,sans-Serif" font-size="10.00">ConsoleLeanOptimizer.SendUpdate</text>
</a>
</g>
</g>
<!-- Node1&#45;&gt;Node2 -->
<g id="edge1" class="edge">
<title>Node1&#45;&gt;Node2</title>
<path fill="none" stroke="midnightblue" d="M213.61,-15.5C205.19,-15.5 196.65,-15.5 188.21,-15.5"/>
<polygon fill="midnightblue" stroke="midnightblue" points="213.81,-19 223.81,-15.5 213.81,-12 213.81,-19"/>
</g>
</g>
</svg>
