<?xml version="1.0" encoding="UTF-8" standalone="no"?>
<!DOCTYPE svg PUBLIC "-//W3C//DTD SVG 1.1//EN"
 "http://www.w3.org/Graphics/SVG/1.1/DTD/svg11.dtd">
<!-- Generated by graphviz version 2.43.0 (0)
 -->
<!-- Title: QuantConnect.Algorithm.QCAlgorithm.V Pages: 1 -->
<svg width="702pt" height="61pt"
 viewBox="0.00 0.00 702.00 61.00" xmlns="http://www.w3.org/2000/svg" xmlns:xlink="http://www.w3.org/1999/xlink">
<g id="graph0" class="graph" transform="scale(1 1) rotate(0) translate(4 57)">
<title>QuantConnect.Algorithm.QCAlgorithm.V</title>
<polygon fill="white" stroke="transparent" points="-4,4 -4,-57 698,-57 698,4 -4,4"/>
<!-- Node1 -->
<g id="node1" class="node">
<title>Node1</title>
<g id="a_node1"><a xlink:title="Creates a new Vega indicator for the symbol The indicator will be automatically updated on the symbol...">
<polygon fill="#bfbfbf" stroke="black" points="0,-6 0,-25 212,-25 212,-6 0,-6"/>
<text text-anchor="middle" x="106" y="-13" font-family="Helvetica,sans-Serif" font-size="10.00">QuantConnect.Algorithm.QCAlgorithm.V</text>
</a>
</g>
</g>
<!-- Node2 -->
<g id="node2" class="node">
<title>Node2</title>
<g id="a_node2"><a xlink:href="classQuantConnect_1_1Algorithm_1_1QCAlgorithm.html#a918f318ce76cdc3ed9efad235ff7481e" target="_top" xlink:title="Creates and registers a new consolidator to receive automatic updates at the specified resolution as ...">
<polygon fill="white" stroke="black" points="248,-22.5 248,-52.5 453,-52.5 453,-22.5 248,-22.5"/>
<text text-anchor="start" x="256" y="-40.5" font-family="Helvetica,sans-Serif" font-size="10.00">QuantConnect.Algorithm.QCAlgorithm.</text>
<text text-anchor="middle" x="350.5" y="-29.5" font-family="Helvetica,sans-Serif" font-size="10.00">RegisterIndicator</text>
</a>
</g>
</g>
<!-- Node1&#45;&gt;Node2 -->
<g id="edge1" class="edge">
<title>Node1&#45;&gt;Node2</title>
<path fill="none" stroke="midnightblue" d="M211.95,-25.02C220.51,-25.8 229.18,-26.58 237.78,-27.36"/>
<polygon fill="midnightblue" stroke="midnightblue" points="237.56,-30.86 247.84,-28.28 238.19,-23.89 237.56,-30.86"/>
</g>
<!-- Node3 -->
<g id="node3" class="node">
<title>Node3</title>
<g id="a_node3"><a xlink:href="classQuantConnect_1_1Algorithm_1_1QCAlgorithm.html#ade17e71e20d320dc9a1efa3ddf8aa3cd" target="_top" xlink:title="Gets the default consolidator for the specified symbol and resolution">
<polygon fill="white" stroke="black" points="489,-0.5 489,-30.5 694,-30.5 694,-0.5 489,-0.5"/>
<text text-anchor="start" x="497" y="-18.5" font-family="Helvetica,sans-Serif" font-size="10.00">QuantConnect.Algorithm.QCAlgorithm.</text>
<text text-anchor="middle" x="591.5" y="-7.5" font-family="Helvetica,sans-Serif" font-size="10.00">ResolveConsolidator</text>
</a>
</g>
</g>
<!-- Node1&#45;&gt;Node3 -->
<g id="edge3" class="edge">
<title>Node1&#45;&gt;Node3</title>
<path fill="none" stroke="midnightblue" d="M212.1,-13.85C224.2,-13.7 236.37,-13.58 248,-13.5 339.11,-12.85 361.89,-12.84 453,-13.5 461.32,-13.56 469.93,-13.64 478.58,-13.74"/>
<polygon fill="midnightblue" stroke="midnightblue" points="478.72,-17.24 488.76,-13.85 478.8,-10.24 478.72,-17.24"/>
</g>
<!-- Node2&#45;&gt;Node3 -->
<g id="edge2" class="edge">
<title>Node2&#45;&gt;Node3</title>
<path fill="none" stroke="midnightblue" d="M453.2,-28.14C461.7,-27.36 470.31,-26.56 478.87,-25.78"/>
<polygon fill="midnightblue" stroke="midnightblue" points="479.25,-29.26 488.89,-24.85 478.61,-22.28 479.25,-29.26"/>
</g>
</g>
</svg>
