<?xml version="1.0" encoding="UTF-8" standalone="no"?>
<!DOCTYPE svg PUBLIC "-//W3C//DTD SVG 1.1//EN"
 "http://www.w3.org/Graphics/SVG/1.1/DTD/svg11.dtd">
<!-- Generated by graphviz version 2.43.0 (0)
 -->
<!-- Title: QuantConnect.Securities.Positions.PositionManager.CreateDefaultKey Pages: 1 -->
<!--zoomable 220 -->
<svg id="main" version="1.1" xmlns="http://www.w3.org/2000/svg" xmlns:xlink="http://www.w3.org/1999/xlink" xml:space="preserve" onload="init(evt)">
<style type="text/css"><![CDATA[
.edge:hover path { stroke: red; }
.edge:hover polygon { stroke: red; fill: red; }
]]></style>
<script type="text/javascript"><![CDATA[
var edges = document.getElementsByTagName('g');
if (edges && edges.length) {
  for (var i=0;i<edges.length;i++) {
    if (edges[i].id.substr(0,4)=='edge') {
      edges[i].setAttribute('class','edge');
    }
  }
}
]]></script>
        <defs>
                <circle id="rim" cx="0" cy="0" r="7"/>
                <circle id="rim2" cx="0" cy="0" r="3.5"/>
                <g id="zoomPlus">
                        <use xlink:href="#rim" fill="#404040">
                                <set attributeName="fill" to="#808080" begin="zoomplus.mouseover" end="zoomplus.mouseout"/>
                        </use>
                        <path d="M-4,0h8M0,-4v8" fill="none" stroke="white" stroke-width="1.5" pointer-events="none"/>
                </g>
                <g id="zoomMin">
                        <use xlink:href="#rim" fill="#404040">
                                <set attributeName="fill" to="#808080" begin="zoomminus.mouseover" end="zoomminus.mouseout"/>
                        </use>
                        <path d="M-4,0h8" fill="none" stroke="white" stroke-width="1.5" pointer-events="none"/>
                </g>
                <g id="dirArrow">
                        <path fill="none" stroke="white" stroke-width="1.5" d="M0,-3.0v7 M-2.5,-0.5L0,-3.0L2.5,-0.5"/>
                </g>
               <g id="resetDef">
                       <use xlink:href="#rim2" fill="#404040">
                               <set attributeName="fill" to="#808080" begin="reset.mouseover" end="reset.mouseout"/>
                       </use>
               </g>
        </defs>

<script type="text/javascript">
var viewWidth = 882;
var viewHeight = 220;
var sectionId = 'dynsection-2';
</script>
<script xlink:href="svgpan.js"/>
<svg id="graph" class="graph">
<g id="viewport">
<title>QuantConnect.Securities.Positions.PositionManager.CreateDefaultKey</title>
<polygon fill="white" stroke="transparent" points="-4,4 -4,-215.5 878,-215.5 878,4 -4,4"/>
<!-- Node1 -->
<g id="node1" class="node">
<title>Node1</title>
<g id="a_node1"><a xlink:title="Creates a PositionGroupKey for the security&#39;s default position group">
<polygon fill="#bfbfbf" stroke="black" points="694,-80 694,-121 874,-121 874,-80 694,-80"/>
<text text-anchor="start" x="702" y="-109" font-family="Helvetica,sans-Serif" font-size="10.00">QuantConnect.Securities.</text>
<text text-anchor="start" x="702" y="-98" font-family="Helvetica,sans-Serif" font-size="10.00">Positions.PositionManager.Create</text>
<text text-anchor="middle" x="784" y="-87" font-family="Helvetica,sans-Serif" font-size="10.00">DefaultKey</text>
</a>
</g>
</g>
<!-- Node2 -->
<g id="node2" class="node">
<title>Node2</title>
<g id="a_node2"><a xlink:href="classQuantConnect_1_1Securities_1_1Positions_1_1PositionManager.html#a5bc4ec6a7048106a42ec4cd765a626cc" target="_top" xlink:title="Gets or creates the default position group for the specified security">
<polygon fill="white" stroke="black" points="493,-80 493,-121 658,-121 658,-80 493,-80"/>
<text text-anchor="start" x="501" y="-109" font-family="Helvetica,sans-Serif" font-size="10.00">QuantConnect.Securities.</text>
<text text-anchor="start" x="501" y="-98" font-family="Helvetica,sans-Serif" font-size="10.00">Positions.PositionManager.Get</text>
<text text-anchor="middle" x="575.5" y="-87" font-family="Helvetica,sans-Serif" font-size="10.00">OrCreateDefaultGroup</text>
</a>
</g>
</g>
<!-- Node1&#45;&gt;Node2 -->
<g id="edge1" class="edge">
<title>Node1&#45;&gt;Node2</title>
<path fill="none" stroke="midnightblue" d="M683.84,-100.5C675.22,-100.5 666.57,-100.5 658.11,-100.5"/>
<polygon fill="midnightblue" stroke="midnightblue" points="683.93,-104 693.93,-100.5 683.93,-97 683.93,-104"/>
</g>
<!-- Node3 -->
<g id="node3" class="node">
<title>Node3</title>
<g id="a_node3"><a xlink:href="classQuantConnect_1_1Securities_1_1DefaultMarginCallModel.html#a8a6b59aac5cae79756d127f9aefdf76f" target="_top" xlink:title="Generates a new order for the specified security taking into account the total margin used by the acc...">
<polygon fill="white" stroke="black" points="267,-170 267,-211 450,-211 450,-170 267,-170"/>
<text text-anchor="start" x="275" y="-199" font-family="Helvetica,sans-Serif" font-size="10.00">QuantConnect.Securities.</text>
<text text-anchor="start" x="275" y="-188" font-family="Helvetica,sans-Serif" font-size="10.00">DefaultMarginCallModel.Generate</text>
<text text-anchor="middle" x="358.5" y="-177" font-family="Helvetica,sans-Serif" font-size="10.00">MarginCallOrder</text>
</a>
</g>
</g>
<!-- Node2&#45;&gt;Node3 -->
<g id="edge2" class="edge">
<title>Node2&#45;&gt;Node3</title>
<path fill="none" stroke="midnightblue" d="M529.32,-125.9C507.83,-137.37 481.52,-150.56 457,-160.5 448.79,-163.83 440.07,-167 431.35,-169.95"/>
<polygon fill="midnightblue" stroke="midnightblue" points="531.08,-128.92 538.22,-121.1 527.76,-122.76 531.08,-128.92"/>
</g>
<!-- Node5 -->
<g id="node5" class="node">
<title>Node5</title>
<g id="a_node5"><a xlink:href="classQuantConnect_1_1Securities_1_1SecurityPortfolioManager.html#a879d4fd3f94f610f74223f88b265e1e2" target="_top" xlink:title="Gets the margin available for trading a specific symbol in a specific direction.">
<polygon fill="white" stroke="black" points="278.5,-110 278.5,-151 438.5,-151 438.5,-110 278.5,-110"/>
<text text-anchor="start" x="286.5" y="-139" font-family="Helvetica,sans-Serif" font-size="10.00">QuantConnect.Securities.</text>
<text text-anchor="start" x="286.5" y="-128" font-family="Helvetica,sans-Serif" font-size="10.00">SecurityPortfolioManager.Get</text>
<text text-anchor="middle" x="358.5" y="-117" font-family="Helvetica,sans-Serif" font-size="10.00">MarginRemaining</text>
</a>
</g>
</g>
<!-- Node2&#45;&gt;Node5 -->
<g id="edge4" class="edge">
<title>Node2&#45;&gt;Node5</title>
<path fill="none" stroke="midnightblue" d="M482.8,-113.3C468.07,-115.35 452.94,-117.46 438.55,-119.47"/>
<polygon fill="midnightblue" stroke="midnightblue" points="483.49,-116.73 492.91,-111.88 482.52,-109.8 483.49,-116.73"/>
</g>
<!-- Node6 -->
<g id="node6" class="node">
<title>Node6</title>
<g id="a_node6"><a xlink:href="classQuantConnect_1_1Securities_1_1SecurityPortfolioManager.html#a7eb96c8a566ea8780edbbad71794af25" target="_top" xlink:title="Logs margin information for debugging">
<polygon fill="white" stroke="black" points="278.5,-50 278.5,-91 438.5,-91 438.5,-50 278.5,-50"/>
<text text-anchor="start" x="286.5" y="-79" font-family="Helvetica,sans-Serif" font-size="10.00">QuantConnect.Securities.</text>
<text text-anchor="start" x="286.5" y="-68" font-family="Helvetica,sans-Serif" font-size="10.00">SecurityPortfolioManager.Log</text>
<text text-anchor="middle" x="358.5" y="-57" font-family="Helvetica,sans-Serif" font-size="10.00">MarginInformation</text>
</a>
</g>
</g>
<!-- Node2&#45;&gt;Node6 -->
<g id="edge5" class="edge">
<title>Node2&#45;&gt;Node6</title>
<path fill="none" stroke="midnightblue" d="M482.8,-87.7C468.07,-85.65 452.94,-83.54 438.55,-81.53"/>
<polygon fill="midnightblue" stroke="midnightblue" points="482.52,-91.2 492.91,-89.12 483.49,-84.27 482.52,-91.2"/>
</g>
<!-- Node8 -->
<g id="node8" class="node">
<title>Node8</title>
<g id="a_node8"><a xlink:href="classQuantConnect_1_1Algorithm_1_1Framework_1_1Portfolio_1_1PortfolioTarget.html#a411ca9e7e837893cba37cf579b36c31d" target="_top" xlink:title="Creates a new target for the specified percent">
<polygon fill="white" stroke="black" points="260,-0.5 260,-30.5 457,-30.5 457,-0.5 260,-0.5"/>
<text text-anchor="start" x="268" y="-18.5" font-family="Helvetica,sans-Serif" font-size="10.00">QuantConnect.Algorithm.Framework.</text>
<text text-anchor="middle" x="358.5" y="-7.5" font-family="Helvetica,sans-Serif" font-size="10.00">Portfolio.PortfolioTarget.Percent</text>
</a>
</g>
</g>
<!-- Node2&#45;&gt;Node8 -->
<g id="edge7" class="edge">
<title>Node2&#45;&gt;Node8</title>
<path fill="none" stroke="midnightblue" d="M530.26,-74.97C508.68,-63.28 482.03,-49.96 457,-40.5 447.19,-36.79 436.63,-33.45 426.2,-30.5"/>
<polygon fill="midnightblue" stroke="midnightblue" points="528.73,-78.12 539.18,-79.86 532.1,-71.99 528.73,-78.12"/>
</g>
<!-- Node4 -->
<g id="node4" class="node">
<title>Node4</title>
<g id="a_node4"><a xlink:href="classQuantConnect_1_1Securities_1_1DefaultMarginCallModel.html#a9009415ee21ef27ddfd58b88bf6e48bf" target="_top" xlink:title="Scan the portfolio and the updated data for a potential margin call situation which may get the holdi...">
<polygon fill="white" stroke="black" points="17.5,-170 17.5,-211 206.5,-211 206.5,-170 17.5,-170"/>
<text text-anchor="start" x="25.5" y="-199" font-family="Helvetica,sans-Serif" font-size="10.00">QuantConnect.Securities.</text>
<text text-anchor="start" x="25.5" y="-188" font-family="Helvetica,sans-Serif" font-size="10.00">DefaultMarginCallModel.GetMargin</text>
<text text-anchor="middle" x="112" y="-177" font-family="Helvetica,sans-Serif" font-size="10.00">CallOrders</text>
</a>
</g>
</g>
<!-- Node3&#45;&gt;Node4 -->
<g id="edge3" class="edge">
<title>Node3&#45;&gt;Node4</title>
<path fill="none" stroke="midnightblue" d="M256.62,-190.5C240.14,-190.5 223.12,-190.5 206.82,-190.5"/>
<polygon fill="midnightblue" stroke="midnightblue" points="256.8,-194 266.8,-190.5 256.8,-187 256.8,-194"/>
</g>
<!-- Node7 -->
<g id="node7" class="node">
<title>Node7</title>
<g id="a_node7"><a xlink:href="classQuantConnect_1_1Lean_1_1Engine_1_1TransactionHandlers_1_1BrokerageTransactionHandler.html#ad7914edfb9b6e24fcbcd637e2c468cd5" target="_top" xlink:title="Adds the specified order to be processed">
<polygon fill="white" stroke="black" points="0,-50 0,-91 224,-91 224,-50 0,-50"/>
<text text-anchor="start" x="8" y="-79" font-family="Helvetica,sans-Serif" font-size="10.00">QuantConnect.Lean.Engine.</text>
<text text-anchor="start" x="8" y="-68" font-family="Helvetica,sans-Serif" font-size="10.00">TransactionHandlers.BrokerageTransaction</text>
<text text-anchor="middle" x="112" y="-57" font-family="Helvetica,sans-Serif" font-size="10.00">Handler.Process</text>
</a>
</g>
</g>
<!-- Node6&#45;&gt;Node7 -->
<g id="edge6" class="edge">
<title>Node6&#45;&gt;Node7</title>
<path fill="none" stroke="midnightblue" d="M268.18,-70.5C253.89,-70.5 238.96,-70.5 224.24,-70.5"/>
<polygon fill="midnightblue" stroke="midnightblue" points="268.46,-74 278.46,-70.5 268.46,-67 268.46,-74"/>
</g>
</g>
</svg>
        <g id="navigator" transform="translate(0 0)" fill="#404254">
                <rect fill="#f2f5e9" fill-opacity="0.5" stroke="#606060" stroke-width=".5" x="0" y="0" width="60" height="60"/>
                <use id="zoomplus" xlink:href="#zoomPlus" x="17" y="9" onmousedown="handleZoom(evt,'in')"/>
                <use id="zoomminus" xlink:href="#zoomMin" x="42" y="9" onmousedown="handleZoom(evt,'out')"/>
                <use id="reset" xlink:href="#resetDef" x="30" y="36" onmousedown="handleReset()"/>
                <g id="arrowUp" xlink:href="#dirArrow" transform="translate(30 24)" onmousedown="handlePan(0,-1)">
                  <use xlink:href="#rim" fill="#404040">
                        <set attributeName="fill" to="#808080" begin="arrowUp.mouseover" end="arrowUp.mouseout"/>
                  </use>
                  <path fill="none" stroke="white" stroke-width="1.5" d="M0,-3.0v7 M-2.5,-0.5L0,-3.0L2.5,-0.5"/>
                </g>
                <g id="arrowRight" xlink:href="#dirArrow" transform="rotate(90) translate(36 -43)" onmousedown="handlePan(1,0)">
                  <use xlink:href="#rim" fill="#404040">
                        <set attributeName="fill" to="#808080" begin="arrowRight.mouseover" end="arrowRight.mouseout"/>
                  </use>
                  <path fill="none" stroke="white" stroke-width="1.5" d="M0,-3.0v7 M-2.5,-0.5L0,-3.0L2.5,-0.5"/>
                </g>
                <g id="arrowDown" xlink:href="#dirArrow" transform="rotate(180) translate(-30 -48)" onmousedown="handlePan(0,1)">
                  <use xlink:href="#rim" fill="#404040">
                        <set attributeName="fill" to="#808080" begin="arrowDown.mouseover" end="arrowDown.mouseout"/>
                  </use>
                  <path fill="none" stroke="white" stroke-width="1.5" d="M0,-3.0v7 M-2.5,-0.5L0,-3.0L2.5,-0.5"/>
                </g>
                <g id="arrowLeft" xlink:href="#dirArrow" transform="rotate(270) translate(-36 17)" onmousedown="handlePan(-1,0)">
                  <use xlink:href="#rim" fill="#404040">
                        <set attributeName="fill" to="#808080" begin="arrowLeft.mouseover" end="arrowLeft.mouseout"/>
                  </use>
                  <path fill="none" stroke="white" stroke-width="1.5" d="M0,-3.0v7 M-2.5,-0.5L0,-3.0L2.5,-0.5"/>
                </g>
        </g>
        <svg viewBox="0 0 15 15" width="100%" height="30px" preserveAspectRatio="xMaxYMin meet">
         <g id="arrow_out" transform="scale(0.3 0.3)">
          <a xlink:href="classQuantConnect_1_1Securities_1_1Positions_1_1PositionManager_a6cd4f628427cacf14b7990fb884d51ae_icgraph_org.svg" target="_base">
           <rect id="button" ry="5" rx="5" y="6" x="6" height="38" width="38"
                fill="#f2f5e9" fill-opacity="0.5" stroke="#606060" stroke-width="1.0"/>
           <path id="arrow"
             d="M 11.500037,31.436501 C 11.940474,20.09759 22.043105,11.32322 32.158766,21.979434 L 37.068811,17.246167 C 37.068811,17.246167 37.088388,32 37.088388,32 L 22.160133,31.978069 C 22.160133,31.978069 26.997745,27.140456 26.997745,27.140456 C 18.528582,18.264221 13.291696,25.230495 11.500037,31.436501 z"
             style="fill:#404040;"/>
          </a>
         </g>
        </svg>
</svg>
