<?xml version="1.0" encoding="UTF-8" standalone="no"?>
<!DOCTYPE svg PUBLIC "-//W3C//DTD SVG 1.1//EN"
 "http://www.w3.org/Graphics/SVG/1.1/DTD/svg11.dtd">
<!-- Generated by graphviz version 2.43.0 (0)
 -->
<!-- Title: QuantConnect.Data.DiskDataCacheProvider.GetZipEntries Pages: 1 -->
<svg width="361pt" height="88pt"
 viewBox="0.00 0.00 361.00 88.00" xmlns="http://www.w3.org/2000/svg" xmlns:xlink="http://www.w3.org/1999/xlink">
<g id="graph0" class="graph" transform="scale(1 1) rotate(0) translate(4 84)">
<title>QuantConnect.Data.DiskDataCacheProvider.GetZipEntries</title>
<polygon fill="white" stroke="transparent" points="-4,4 -4,-84 357,-84 357,4 -4,4"/>
<!-- Node1 -->
<g id="node1" class="node">
<title>Node1</title>
<g id="a_node1"><a xlink:title="Returns a list of zip entries in a provided zip file">
<polygon fill="#bfbfbf" stroke="black" points="0,-24.5 0,-54.5 160,-54.5 160,-24.5 0,-24.5"/>
<text text-anchor="start" x="8" y="-42.5" font-family="Helvetica,sans-Serif" font-size="10.00">QuantConnect.Data.DiskData</text>
<text text-anchor="middle" x="80" y="-31.5" font-family="Helvetica,sans-Serif" font-size="10.00">CacheProvider.GetZipEntries</text>
</a>
</g>
</g>
<!-- Node2 -->
<g id="node2" class="node">
<title>Node2</title>
<g id="a_node2"><a xlink:href="classQuantConnect_1_1Compression.html#af62080d70c8729b62c0eb4a9f127cde5" target="_top" xlink:title="Returns the entry file names contained in a zip file">
<polygon fill="white" stroke="black" points="197,-49.5 197,-79.5 352,-79.5 352,-49.5 197,-49.5"/>
<text text-anchor="start" x="205" y="-67.5" font-family="Helvetica,sans-Serif" font-size="10.00">QuantConnect.Compression.</text>
<text text-anchor="middle" x="274.5" y="-56.5" font-family="Helvetica,sans-Serif" font-size="10.00">GetZipEntryFileNames</text>
</a>
</g>
</g>
<!-- Node1&#45;&gt;Node2 -->
<g id="edge1" class="edge">
<title>Node1&#45;&gt;Node2</title>
<path fill="none" stroke="midnightblue" d="M160.13,-49.78C168.95,-50.92 177.96,-52.09 186.86,-53.25"/>
<polygon fill="midnightblue" stroke="midnightblue" points="186.48,-56.73 196.85,-54.55 187.38,-49.79 186.48,-56.73"/>
</g>
<!-- Node3 -->
<g id="node3" class="node">
<title>Node3</title>
<g id="a_node3"><a xlink:href="classQuantConnect_1_1FileExtension.html#a6752b1febfd438db134a349a442c5322" target="_top" xlink:title="Takes a given path and (if applicable) returns a modified path accepted by Windows OS">
<polygon fill="white" stroke="black" points="196,-0.5 196,-30.5 353,-30.5 353,-0.5 196,-0.5"/>
<text text-anchor="start" x="204" y="-18.5" font-family="Helvetica,sans-Serif" font-size="10.00">QuantConnect.FileExtension.</text>
<text text-anchor="middle" x="274.5" y="-7.5" font-family="Helvetica,sans-Serif" font-size="10.00">ToNormalizedPath</text>
</a>
</g>
</g>
<!-- Node1&#45;&gt;Node3 -->
<g id="edge2" class="edge">
<title>Node1&#45;&gt;Node3</title>
<path fill="none" stroke="midnightblue" d="M160.13,-29.63C168.63,-28.58 177.31,-27.49 185.9,-26.42"/>
<polygon fill="midnightblue" stroke="midnightblue" points="186.43,-29.88 195.92,-25.17 185.56,-22.94 186.43,-29.88"/>
</g>
</g>
</svg>
