<?xml version="1.0" encoding="UTF-8" standalone="no"?>
<!DOCTYPE svg PUBLIC "-//W3C//DTD SVG 1.1//EN"
 "http://www.w3.org/Graphics/SVG/1.1/DTD/svg11.dtd">
<!-- Generated by graphviz version 2.43.0 (0)
 -->
<!-- Title: QuantConnect.Configuration.Config.GetInt Pages: 1 -->
<svg width="601pt" height="192pt"
 viewBox="0.00 0.00 601.00 192.00" xmlns="http://www.w3.org/2000/svg" xmlns:xlink="http://www.w3.org/1999/xlink">
<g id="graph0" class="graph" transform="scale(1 1) rotate(0) translate(4 188)">
<title>QuantConnect.Configuration.Config.GetInt</title>
<polygon fill="white" stroke="transparent" points="-4,4 -4,-188 597,-188 597,4 -4,4"/>
<!-- Node1 -->
<g id="node1" class="node">
<title>Node1</title>
<g id="a_node1"><a xlink:title="Get the int value of a config string.">
<polygon fill="#bfbfbf" stroke="black" points="436,-79.5 436,-109.5 593,-109.5 593,-79.5 436,-79.5"/>
<text text-anchor="start" x="444" y="-97.5" font-family="Helvetica,sans-Serif" font-size="10.00">QuantConnect.Configuration.</text>
<text text-anchor="middle" x="514.5" y="-86.5" font-family="Helvetica,sans-Serif" font-size="10.00">Config.GetInt</text>
</a>
</g>
</g>
<!-- Node2 -->
<g id="node2" class="node">
<title>Node2</title>
<g id="a_node2"><a xlink:href="classQuantConnect_1_1Lean_1_1Engine_1_1LeanEngineSystemHandlers.html#aeec8d5663f22422a0c85f80d2b1bc685" target="_top" xlink:title="Initializes the Api, Messaging, and JobQueue components">
<polygon fill="white" stroke="black" points="202,-148.5 202,-178.5 400,-178.5 400,-148.5 202,-148.5"/>
<text text-anchor="start" x="210" y="-166.5" font-family="Helvetica,sans-Serif" font-size="10.00">QuantConnect.Lean.Engine.</text>
<text text-anchor="middle" x="301" y="-155.5" font-family="Helvetica,sans-Serif" font-size="10.00">LeanEngineSystemHandlers.Initialize</text>
</a>
</g>
</g>
<!-- Node1&#45;&gt;Node2 -->
<g id="edge1" class="edge">
<title>Node1&#45;&gt;Node2</title>
<path fill="none" stroke="midnightblue" d="M461.28,-112.86C442.07,-119.5 420.09,-126.98 400,-133.5 384.52,-138.53 367.58,-143.8 352.21,-148.49"/>
<polygon fill="midnightblue" stroke="midnightblue" points="462.47,-116.15 470.77,-109.57 460.17,-109.54 462.47,-116.15"/>
</g>
<!-- Node4 -->
<g id="node4" class="node">
<title>Node4</title>
<g id="a_node4"><a xlink:href="classQuantConnect_1_1Research_1_1QuantBook.html#a239bcca3c726a8cc25b9a6a3cd0c244f" target="_top" xlink:title="QuantBook constructor. Provides access to data for quantitative analysis">
<polygon fill="white" stroke="black" points="0,-104.5 0,-134.5 166,-134.5 166,-104.5 0,-104.5"/>
<text text-anchor="start" x="8" y="-122.5" font-family="Helvetica,sans-Serif" font-size="10.00">QuantConnect.Research.Quant</text>
<text text-anchor="middle" x="83" y="-111.5" font-family="Helvetica,sans-Serif" font-size="10.00">Book.QuantBook</text>
</a>
</g>
</g>
<!-- Node1&#45;&gt;Node4 -->
<g id="edge6" class="edge">
<title>Node1&#45;&gt;Node4</title>
<path fill="none" stroke="midnightblue" d="M425.69,-99.61C349.71,-104.03 240.65,-110.38 166.32,-114.71"/>
<polygon fill="midnightblue" stroke="midnightblue" points="425.94,-103.1 435.72,-99.03 425.53,-96.11 425.94,-103.1"/>
</g>
<!-- Node5 -->
<g id="node5" class="node">
<title>Node5</title>
<g id="a_node5"><a xlink:href="classQuantConnect_1_1Lean_1_1Engine_1_1Results_1_1LiveTradingResultHandler.html#a4306318567dd0e3784d3b96638c23a80" target="_top" xlink:title="Creates a new instance">
<polygon fill="white" stroke="black" points="210,-50 210,-91 392,-91 392,-50 210,-50"/>
<text text-anchor="start" x="218" y="-79" font-family="Helvetica,sans-Serif" font-size="10.00">QuantConnect.Lean.Engine.</text>
<text text-anchor="start" x="218" y="-68" font-family="Helvetica,sans-Serif" font-size="10.00">Results.LiveTradingResultHandler.</text>
<text text-anchor="middle" x="301" y="-57" font-family="Helvetica,sans-Serif" font-size="10.00">LiveTradingResultHandler</text>
</a>
</g>
</g>
<!-- Node1&#45;&gt;Node5 -->
<g id="edge4" class="edge">
<title>Node1&#45;&gt;Node5</title>
<path fill="none" stroke="midnightblue" d="M425.81,-84.55C414.67,-83.29 403.26,-81.99 392.08,-80.72"/>
<polygon fill="midnightblue" stroke="midnightblue" points="425.62,-88.05 435.95,-85.7 426.4,-81.09 425.62,-88.05"/>
</g>
<!-- Node6 -->
<g id="node6" class="node">
<title>Node6</title>
<g id="a_node6"><a xlink:href="classQuantConnect_1_1Queues_1_1JobQueue.html#a3e74770d498b6609702b5850479002ee" target="_top" xlink:title="Desktop/Local Get Next Task &#45; Get task from the Algorithm folder of VS Solution.">
<polygon fill="white" stroke="black" points="212,-0.5 212,-30.5 390,-30.5 390,-0.5 212,-0.5"/>
<text text-anchor="start" x="220" y="-18.5" font-family="Helvetica,sans-Serif" font-size="10.00">QuantConnect.Queues.JobQueue.</text>
<text text-anchor="middle" x="301" y="-7.5" font-family="Helvetica,sans-Serif" font-size="10.00">NextJob</text>
</a>
</g>
</g>
<!-- Node1&#45;&gt;Node6 -->
<g id="edge5" class="edge">
<title>Node1&#45;&gt;Node6</title>
<path fill="none" stroke="midnightblue" d="M476.77,-74.79C454.92,-63.63 426.4,-50.04 400,-40.5 389.84,-36.83 378.91,-33.48 368.16,-30.51"/>
<polygon fill="midnightblue" stroke="midnightblue" points="475.21,-77.92 485.7,-79.4 478.42,-71.7 475.21,-77.92"/>
</g>
<!-- Node3 -->
<g id="node3" class="node">
<title>Node3</title>
<g id="a_node3"><a xlink:href="classQuantConnect_1_1Lean_1_1Engine_1_1Initializer.html#a7524eafaf359e6e12cc30b9ade9a193f" target="_top" xlink:title="Get and initializes System Handler">
<polygon fill="white" stroke="black" points="2,-153.5 2,-183.5 164,-183.5 164,-153.5 2,-153.5"/>
<text text-anchor="start" x="10" y="-171.5" font-family="Helvetica,sans-Serif" font-size="10.00">QuantConnect.Lean.Engine.</text>
<text text-anchor="middle" x="83" y="-160.5" font-family="Helvetica,sans-Serif" font-size="10.00">Initializer.GetSystemHandlers</text>
</a>
</g>
</g>
<!-- Node2&#45;&gt;Node3 -->
<g id="edge2" class="edge">
<title>Node2&#45;&gt;Node3</title>
<path fill="none" stroke="midnightblue" d="M191.74,-166.01C182.45,-166.22 173.17,-166.44 164.17,-166.64"/>
<polygon fill="midnightblue" stroke="midnightblue" points="191.88,-169.5 201.8,-165.77 191.72,-162.51 191.88,-169.5"/>
</g>
<!-- Node2&#45;&gt;Node4 -->
<g id="edge3" class="edge">
<title>Node2&#45;&gt;Node4</title>
<path fill="none" stroke="midnightblue" d="M216.29,-146.45C196.99,-142.52 176.6,-138.36 157.77,-134.53"/>
<polygon fill="midnightblue" stroke="midnightblue" points="215.77,-149.91 226.27,-148.48 217.17,-143.06 215.77,-149.91"/>
</g>
</g>
</svg>
