<?xml version="1.0" encoding="UTF-8" standalone="no"?>
<!DOCTYPE svg PUBLIC "-//W3C//DTD SVG 1.1//EN"
 "http://www.w3.org/Graphics/SVG/1.1/DTD/svg11.dtd">
<!-- Generated by graphviz version 2.43.0 (0)
 -->
<!-- Title: QuantConnect.Lean.Engine.DataFeeds.DataQueueHandlerManager.Subscribe Pages: 1 -->
<svg width="412pt" height="50pt"
 viewBox="0.00 0.00 412.00 50.00" xmlns="http://www.w3.org/2000/svg" xmlns:xlink="http://www.w3.org/1999/xlink">
<g id="graph0" class="graph" transform="scale(1 1) rotate(0) translate(4 46)">
<title>QuantConnect.Lean.Engine.DataFeeds.DataQueueHandlerManager.Subscribe</title>
<polygon fill="white" stroke="transparent" points="-4,4 -4,-46 408,-46 408,4 -4,4"/>
<!-- Node1 -->
<g id="node1" class="node">
<title>Node1</title>
<g id="a_node1"><a xlink:title="Subscribe to the specified configuration">
<polygon fill="#bfbfbf" stroke="black" points="0,-0.5 0,-41.5 209,-41.5 209,-0.5 0,-0.5"/>
<text text-anchor="start" x="8" y="-29.5" font-family="Helvetica,sans-Serif" font-size="10.00">QuantConnect.Lean.Engine.</text>
<text text-anchor="start" x="8" y="-18.5" font-family="Helvetica,sans-Serif" font-size="10.00">DataFeeds.DataQueueHandlerManager.</text>
<text text-anchor="middle" x="104.5" y="-7.5" font-family="Helvetica,sans-Serif" font-size="10.00">Subscribe</text>
</a>
</g>
</g>
<!-- Node2 -->
<g id="node2" class="node">
<title>Node2</title>
<g id="a_node2"><a xlink:href="interfaceQuantConnect_1_1ITimeProvider.html#ae51737f869d879dfbb297496e4feb036" target="_top" xlink:title="Gets the current time in UTC">
<polygon fill="white" stroke="black" points="245,-6 245,-36 404,-36 404,-6 245,-6"/>
<text text-anchor="start" x="253" y="-24" font-family="Helvetica,sans-Serif" font-size="10.00">QuantConnect.ITimeProvider.</text>
<text text-anchor="middle" x="324.5" y="-13" font-family="Helvetica,sans-Serif" font-size="10.00">GetUtcNow</text>
</a>
</g>
</g>
<!-- Node1&#45;&gt;Node2 -->
<g id="edge1" class="edge">
<title>Node1&#45;&gt;Node2</title>
<path fill="none" stroke="midnightblue" d="M209.07,-21C217.66,-21 226.3,-21 234.77,-21"/>
<polygon fill="midnightblue" stroke="midnightblue" points="235,-24.5 245,-21 235,-17.5 235,-24.5"/>
</g>
</g>
</svg>
