<?xml version="1.0" encoding="UTF-8" standalone="no"?>
<!DOCTYPE svg PUBLIC "-//W3C//DTD SVG 1.1//EN"
 "http://www.w3.org/Graphics/SVG/1.1/DTD/svg11.dtd">
<!-- Generated by graphviz version 2.43.0 (0)
 -->
<!-- Title: QuantConnect.Data.Auxiliary.MapFileResolver.ResolveMapFile Pages: 1 -->
<svg width="413pt" height="100pt"
 viewBox="0.00 0.00 413.00 99.50" xmlns="http://www.w3.org/2000/svg" xmlns:xlink="http://www.w3.org/1999/xlink">
<g id="graph0" class="graph" transform="scale(1 1) rotate(0) translate(4 95.5)">
<title>QuantConnect.Data.Auxiliary.MapFileResolver.ResolveMapFile</title>
<polygon fill="white" stroke="transparent" points="-4,4 -4,-95.5 409,-95.5 409,4 -4,4"/>
<!-- Node1 -->
<g id="node1" class="node">
<title>Node1</title>
<g id="a_node1"><a xlink:title="Resolves the map file path containing the mapping information for the symbol defined at date">
<polygon fill="#bfbfbf" stroke="black" points="228,-27.5 228,-57.5 405,-57.5 405,-27.5 228,-27.5"/>
<text text-anchor="start" x="236" y="-45.5" font-family="Helvetica,sans-Serif" font-size="10.00">QuantConnect.Data.Auxiliary.</text>
<text text-anchor="middle" x="316.5" y="-34.5" font-family="Helvetica,sans-Serif" font-size="10.00">MapFileResolver.ResolveMapFile</text>
</a>
</g>
</g>
<!-- Node2 -->
<g id="node2" class="node">
<title>Node2</title>
<g id="a_node2"><a xlink:href="classQuantConnect_1_1Lean_1_1Engine_1_1DataFeeds_1_1BacktestingOptionChainProvider.html#a5b140615fad8e3c0f8d08597a7ca1509" target="_top" xlink:title="Gets the list of option contracts for a given underlying symbol">
<polygon fill="white" stroke="black" points="1.5,-50 1.5,-91 190.5,-91 190.5,-50 1.5,-50"/>
<text text-anchor="start" x="9.5" y="-79" font-family="Helvetica,sans-Serif" font-size="10.00">QuantConnect.Lean.Engine.</text>
<text text-anchor="start" x="9.5" y="-68" font-family="Helvetica,sans-Serif" font-size="10.00">DataFeeds.BacktestingOptionChain</text>
<text text-anchor="middle" x="96" y="-57" font-family="Helvetica,sans-Serif" font-size="10.00">Provider.GetOptionContractList</text>
</a>
</g>
</g>
<!-- Node1&#45;&gt;Node2 -->
<g id="edge1" class="edge">
<title>Node1&#45;&gt;Node2</title>
<path fill="none" stroke="midnightblue" d="M217.78,-55.02C208.78,-56.18 199.68,-57.34 190.72,-58.49"/>
<polygon fill="midnightblue" stroke="midnightblue" points="218.41,-58.47 227.89,-53.73 217.52,-51.53 218.41,-58.47"/>
</g>
<!-- Node3 -->
<g id="node3" class="node">
<title>Node3</title>
<g id="a_node3"><a xlink:href="classQuantConnect_1_1Data_1_1Auxiliary_1_1MappingExtensions.html#aa30b0eaaacab51ed94c6839b7da0d216" target="_top" xlink:title="Helper method to resolve the mapping file to use.">
<polygon fill="white" stroke="black" points="0,-0.5 0,-30.5 192,-30.5 192,-0.5 0,-0.5"/>
<text text-anchor="start" x="8" y="-18.5" font-family="Helvetica,sans-Serif" font-size="10.00">QuantConnect.Data.Auxiliary.</text>
<text text-anchor="middle" x="96" y="-7.5" font-family="Helvetica,sans-Serif" font-size="10.00">MappingExtensions.ResolveMapFile</text>
</a>
</g>
</g>
<!-- Node1&#45;&gt;Node3 -->
<g id="edge2" class="edge">
<title>Node1&#45;&gt;Node3</title>
<path fill="none" stroke="midnightblue" d="M217.9,-30.44C209.34,-29.38 200.69,-28.31 192.15,-27.26"/>
<polygon fill="midnightblue" stroke="midnightblue" points="217.53,-33.92 227.89,-31.67 218.39,-26.97 217.53,-33.92"/>
</g>
</g>
</svg>
