<?xml version="1.0" encoding="UTF-8" standalone="no"?>
<!DOCTYPE svg PUBLIC "-//W3C//DTD SVG 1.1//EN"
 "http://www.w3.org/Graphics/SVG/1.1/DTD/svg11.dtd">
<!-- Generated by graphviz version 2.43.0 (0)
 -->
<!-- Title: QuantConnect.Lean.Engine.DataFeeds.UniverseSelection.EnsureCurrencyDataFeeds Pages: 1 -->
<svg width="680pt" height="110pt"
 viewBox="0.00 0.00 680.00 110.00" xmlns="http://www.w3.org/2000/svg" xmlns:xlink="http://www.w3.org/1999/xlink">
<g id="graph0" class="graph" transform="scale(1 1) rotate(0) translate(4 106)">
<title>QuantConnect.Lean.Engine.DataFeeds.UniverseSelection.EnsureCurrencyDataFeeds</title>
<polygon fill="white" stroke="transparent" points="-4,4 -4,-106 676,-106 676,4 -4,4"/>
<!-- Node1 -->
<g id="node1" class="node">
<title>Node1</title>
<g id="a_node1"><a xlink:title="Checks the current subscriptions and adds necessary currency pair feeds to provide real time conversi...">
<polygon fill="#bfbfbf" stroke="black" points="476,-30.5 476,-71.5 672,-71.5 672,-30.5 476,-30.5"/>
<text text-anchor="start" x="484" y="-59.5" font-family="Helvetica,sans-Serif" font-size="10.00">QuantConnect.Lean.Engine.</text>
<text text-anchor="start" x="484" y="-48.5" font-family="Helvetica,sans-Serif" font-size="10.00">DataFeeds.UniverseSelection.Ensure</text>
<text text-anchor="middle" x="574" y="-37.5" font-family="Helvetica,sans-Serif" font-size="10.00">CurrencyDataFeeds</text>
</a>
</g>
</g>
<!-- Node2 -->
<g id="node2" class="node">
<title>Node2</title>
<g id="a_node2"><a xlink:href="classQuantConnect_1_1Lean_1_1Engine_1_1DataFeeds_1_1UniverseSelection.html#a7e4844c9b81427d9dbbd768efd24abff" target="_top" xlink:title="Applies universe selection the the data feed and algorithm">
<polygon fill="white" stroke="black" points="239,-60.5 239,-101.5 430,-101.5 430,-60.5 239,-60.5"/>
<text text-anchor="start" x="247" y="-89.5" font-family="Helvetica,sans-Serif" font-size="10.00">QuantConnect.Lean.Engine.</text>
<text text-anchor="start" x="247" y="-78.5" font-family="Helvetica,sans-Serif" font-size="10.00">DataFeeds.UniverseSelection.Apply</text>
<text text-anchor="middle" x="334.5" y="-67.5" font-family="Helvetica,sans-Serif" font-size="10.00">UniverseSelection</text>
</a>
</g>
</g>
<!-- Node1&#45;&gt;Node2 -->
<g id="edge1" class="edge">
<title>Node1&#45;&gt;Node2</title>
<path fill="none" stroke="midnightblue" d="M465.47,-64.58C453.75,-66.06 441.88,-67.56 430.33,-69.02"/>
<polygon fill="midnightblue" stroke="midnightblue" points="466.23,-68.01 475.71,-63.29 465.35,-61.07 466.23,-68.01"/>
</g>
<!-- Node3 -->
<g id="node3" class="node">
<title>Node3</title>
<g id="a_node3"><a xlink:href="classQuantConnect_1_1Lean_1_1Engine_1_1Setup_1_1BaseSetupHandler.html#a47538e4895beedbc90a28866b13cbc0c" target="_top" xlink:title="Will first check and add all the required conversion rate securities and later will seed an initial v...">
<polygon fill="white" stroke="black" points="229,-0.5 229,-41.5 440,-41.5 440,-0.5 229,-0.5"/>
<text text-anchor="start" x="237" y="-29.5" font-family="Helvetica,sans-Serif" font-size="10.00">QuantConnect.Lean.Engine.</text>
<text text-anchor="start" x="237" y="-18.5" font-family="Helvetica,sans-Serif" font-size="10.00">Setup.BaseSetupHandler.SetupCurrency</text>
<text text-anchor="middle" x="334.5" y="-7.5" font-family="Helvetica,sans-Serif" font-size="10.00">Conversions</text>
</a>
</g>
</g>
<!-- Node1&#45;&gt;Node3 -->
<g id="edge2" class="edge">
<title>Node1&#45;&gt;Node3</title>
<path fill="none" stroke="midnightblue" d="M465.55,-37.43C457.17,-36.37 448.72,-35.3 440.36,-34.24"/>
<polygon fill="midnightblue" stroke="midnightblue" points="465.35,-40.93 475.71,-38.71 466.23,-33.99 465.35,-40.93"/>
</g>
<!-- Node4 -->
<g id="node4" class="node">
<title>Node4</title>
<g id="a_node4"><a xlink:href="classQuantConnect_1_1Lean_1_1Engine_1_1Setup_1_1BrokerageSetupHandler.html#a31fba19179b2197553a8f0152885886b" target="_top" xlink:title="Primary entry point to setup a new algorithm">
<polygon fill="white" stroke="black" points="0,-6 0,-36 193,-36 193,-6 0,-6"/>
<text text-anchor="start" x="8" y="-24" font-family="Helvetica,sans-Serif" font-size="10.00">QuantConnect.Lean.Engine.</text>
<text text-anchor="middle" x="96.5" y="-13" font-family="Helvetica,sans-Serif" font-size="10.00">Setup.BrokerageSetupHandler.Setup</text>
</a>
</g>
</g>
<!-- Node3&#45;&gt;Node4 -->
<g id="edge3" class="edge">
<title>Node3&#45;&gt;Node4</title>
<path fill="none" stroke="midnightblue" d="M218.83,-21C210.19,-21 201.52,-21 193.02,-21"/>
<polygon fill="midnightblue" stroke="midnightblue" points="218.96,-24.5 228.96,-21 218.96,-17.5 218.96,-24.5"/>
</g>
</g>
</svg>
