<?xml version="1.0" encoding="UTF-8" standalone="no"?>
<!DOCTYPE svg PUBLIC "-//W3C//DTD SVG 1.1//EN"
 "http://www.w3.org/Graphics/SVG/1.1/DTD/svg11.dtd">
<!-- Generated by graphviz version 2.43.0 (0)
 -->
<!-- Title: QuantConnect.Data.UniverseSelection.Universe.OnSelectionChanged Pages: 1 -->
<svg width="668pt" height="105pt"
 viewBox="0.00 0.00 668.00 105.00" xmlns="http://www.w3.org/2000/svg" xmlns:xlink="http://www.w3.org/1999/xlink">
<g id="graph0" class="graph" transform="scale(1 1) rotate(0) translate(4 101)">
<title>QuantConnect.Data.UniverseSelection.Universe.OnSelectionChanged</title>
<polygon fill="white" stroke="transparent" points="-4,4 -4,-101 664,-101 664,4 -4,4"/>
<!-- Node1 -->
<g id="node1" class="node">
<title>Node1</title>
<g id="a_node1"><a xlink:title="Event invocator for the SelectionChanged event">
<polygon fill="#bfbfbf" stroke="black" points="490,-27.5 490,-68.5 660,-68.5 660,-27.5 490,-27.5"/>
<text text-anchor="start" x="498" y="-56.5" font-family="Helvetica,sans-Serif" font-size="10.00">QuantConnect.Data.Universe</text>
<text text-anchor="start" x="498" y="-45.5" font-family="Helvetica,sans-Serif" font-size="10.00">Selection.Universe.OnSelection</text>
<text text-anchor="middle" x="575" y="-34.5" font-family="Helvetica,sans-Serif" font-size="10.00">Changed</text>
</a>
</g>
</g>
<!-- Node2 -->
<g id="node2" class="node">
<title>Node2</title>
<g id="a_node2"><a xlink:href="classQuantConnect_1_1Data_1_1UniverseSelection_1_1FineFundamentalFilteredUniverse.html#a216d74171d5be15bbf04af7576ebf2e7" target="_top" xlink:title="Initializes a new instance of the FineFundamentalFilteredUniverse class">
<polygon fill="white" stroke="black" points="227,-55.5 227,-96.5 454,-96.5 454,-55.5 227,-55.5"/>
<text text-anchor="start" x="235" y="-84.5" font-family="Helvetica,sans-Serif" font-size="10.00">QuantConnect.Data.Universe</text>
<text text-anchor="start" x="235" y="-73.5" font-family="Helvetica,sans-Serif" font-size="10.00">Selection.FineFundamentalFiltered</text>
<text text-anchor="middle" x="340.5" y="-62.5" font-family="Helvetica,sans-Serif" font-size="10.00">Universe.FineFundamentalFilteredUniverse</text>
</a>
</g>
</g>
<!-- Node1&#45;&gt;Node2 -->
<g id="edge1" class="edge">
<title>Node1&#45;&gt;Node2</title>
<path fill="none" stroke="midnightblue" d="M479.6,-59.37C471.22,-60.38 462.68,-61.41 454.17,-62.43"/>
<polygon fill="midnightblue" stroke="midnightblue" points="480.22,-62.82 489.73,-58.15 479.39,-55.87 480.22,-62.82"/>
</g>
<!-- Node3 -->
<g id="node3" class="node">
<title>Node3</title>
<g id="a_node3"><a xlink:href="classQuantConnect_1_1Data_1_1UniverseSelection_1_1Universe.html#a34a60454813c0283f0ba287dd09fe018" target="_top" xlink:title="Performs universe selection using the data specified">
<polygon fill="white" stroke="black" points="243,-6 243,-36 438,-36 438,-6 243,-6"/>
<text text-anchor="start" x="251" y="-24" font-family="Helvetica,sans-Serif" font-size="10.00">QuantConnect.Data.Universe</text>
<text text-anchor="middle" x="340.5" y="-13" font-family="Helvetica,sans-Serif" font-size="10.00">Selection.Universe.PerformSelection</text>
</a>
</g>
</g>
<!-- Node1&#45;&gt;Node3 -->
<g id="edge2" class="edge">
<title>Node1&#45;&gt;Node3</title>
<path fill="none" stroke="midnightblue" d="M479.41,-37.02C465.79,-35.43 451.76,-33.8 438.1,-32.22"/>
<polygon fill="midnightblue" stroke="midnightblue" points="479.4,-40.54 489.73,-38.21 480.2,-33.58 479.4,-40.54"/>
</g>
<!-- Node4 -->
<g id="node4" class="node">
<title>Node4</title>
<g id="a_node4"><a xlink:href="classQuantConnect_1_1Lean_1_1Engine_1_1DataFeeds_1_1UniverseSelection.html#a7e4844c9b81427d9dbbd768efd24abff" target="_top" xlink:title="Applies universe selection the the data feed and algorithm">
<polygon fill="white" stroke="black" points="0,-0.5 0,-41.5 191,-41.5 191,-0.5 0,-0.5"/>
<text text-anchor="start" x="8" y="-29.5" font-family="Helvetica,sans-Serif" font-size="10.00">QuantConnect.Lean.Engine.</text>
<text text-anchor="start" x="8" y="-18.5" font-family="Helvetica,sans-Serif" font-size="10.00">DataFeeds.UniverseSelection.Apply</text>
<text text-anchor="middle" x="95.5" y="-7.5" font-family="Helvetica,sans-Serif" font-size="10.00">UniverseSelection</text>
</a>
</g>
</g>
<!-- Node3&#45;&gt;Node4 -->
<g id="edge3" class="edge">
<title>Node3&#45;&gt;Node4</title>
<path fill="none" stroke="midnightblue" d="M232.37,-21C218.7,-21 204.78,-21 191.32,-21"/>
<polygon fill="midnightblue" stroke="midnightblue" points="232.76,-24.5 242.76,-21 232.76,-17.5 232.76,-24.5"/>
</g>
</g>
</svg>
