<?xml version="1.0" encoding="UTF-8" standalone="no"?>
<!DOCTYPE svg PUBLIC "-//W3C//DTD SVG 1.1//EN"
 "http://www.w3.org/Graphics/SVG/1.1/DTD/svg11.dtd">
<!-- Generated by graphviz version 2.43.0 (0)
 -->
<!-- Title: QuantConnect.Algorithm.Framework.Execution.StandardDeviationExecutionModel.Execute Pages: 1 -->
<svg width="641pt" height="198pt"
 viewBox="0.00 0.00 641.00 197.50" xmlns="http://www.w3.org/2000/svg" xmlns:xlink="http://www.w3.org/1999/xlink">
<g id="graph0" class="graph" transform="scale(1 1) rotate(0) translate(4 193.5)">
<title>QuantConnect.Algorithm.Framework.Execution.StandardDeviationExecutionModel.Execute</title>
<polygon fill="white" stroke="transparent" points="-4,4 -4,-193.5 637,-193.5 637,4 -4,4"/>
<!-- Node1 -->
<g id="node1" class="node">
<title>Node1</title>
<g id="a_node1"><a xlink:title="Executes market orders if the standard deviation of price is more than the configured number of devia...">
<polygon fill="#bfbfbf" stroke="black" points="0,-79.5 0,-120.5 205,-120.5 205,-79.5 0,-79.5"/>
<text text-anchor="start" x="8" y="-108.5" font-family="Helvetica,sans-Serif" font-size="10.00">QuantConnect.Algorithm.Framework.</text>
<text text-anchor="start" x="8" y="-97.5" font-family="Helvetica,sans-Serif" font-size="10.00">Execution.StandardDeviationExecution</text>
<text text-anchor="middle" x="102.5" y="-86.5" font-family="Helvetica,sans-Serif" font-size="10.00">Model.Execute</text>
</a>
</g>
</g>
<!-- Node2 -->
<g id="node2" class="node">
<title>Node2</title>
<g id="a_node2"><a xlink:href="classQuantConnect_1_1Orders_1_1OrderSizing.html#a3e48c76e210bb2b4146ac9597990e3f0" target="_top" xlink:title="Adjust the provided order size to respect the maximum total order value">
<polygon fill="white" stroke="black" points="241,-159 241,-189 446,-189 446,-159 241,-159"/>
<text text-anchor="start" x="249" y="-177" font-family="Helvetica,sans-Serif" font-size="10.00">QuantConnect.Orders.Order</text>
<text text-anchor="middle" x="343.5" y="-166" font-family="Helvetica,sans-Serif" font-size="10.00">Sizing.GetOrderSizeForMaximumValue</text>
</a>
</g>
</g>
<!-- Node1&#45;&gt;Node2 -->
<g id="edge1" class="edge">
<title>Node1&#45;&gt;Node2</title>
<path fill="none" stroke="midnightblue" d="M155.58,-120.56C181.09,-130.22 212.4,-141.45 241,-150 248.44,-152.22 256.24,-154.38 264.06,-156.42"/>
<polygon fill="midnightblue" stroke="midnightblue" points="263.41,-159.86 273.96,-158.95 265.14,-153.08 263.41,-159.86"/>
</g>
<!-- Node4 -->
<g id="node4" class="node">
<title>Node4</title>
<g id="a_node4"><a xlink:href="classQuantConnect_1_1Orders_1_1OrderSizing.html#a842c9dd8cdb14899938bf6b75b159f24" target="_top" xlink:title="Gets the remaining quantity to be ordered to reach the specified target quantity.">
<polygon fill="white" stroke="black" points="264,-110 264,-140 423,-140 423,-110 264,-110"/>
<text text-anchor="start" x="272" y="-128" font-family="Helvetica,sans-Serif" font-size="10.00">QuantConnect.Orders.Order</text>
<text text-anchor="middle" x="343.5" y="-117" font-family="Helvetica,sans-Serif" font-size="10.00">Sizing.GetUnorderedQuantity</text>
</a>
</g>
</g>
<!-- Node1&#45;&gt;Node4 -->
<g id="edge3" class="edge">
<title>Node1&#45;&gt;Node4</title>
<path fill="none" stroke="midnightblue" d="M205.2,-110.64C221.25,-112.32 237.74,-114.04 253.48,-115.69"/>
<polygon fill="midnightblue" stroke="midnightblue" points="253.38,-119.2 263.69,-116.76 254.11,-112.24 253.38,-119.2"/>
</g>
<!-- Node5 -->
<g id="node5" class="node">
<title>Node5</title>
<g id="a_node5"><a xlink:href="classQuantConnect_1_1Algorithm_1_1QCAlgorithm.html#ad9061f61a3835394d616c79d7e602cc8" target="_top" xlink:title="Market order implementation: Send a market order and wait for it to be filled.">
<polygon fill="white" stroke="black" points="241,-61 241,-91 446,-91 446,-61 241,-61"/>
<text text-anchor="start" x="249" y="-79" font-family="Helvetica,sans-Serif" font-size="10.00">QuantConnect.Algorithm.QCAlgorithm.</text>
<text text-anchor="middle" x="343.5" y="-68" font-family="Helvetica,sans-Serif" font-size="10.00">MarketOrder</text>
</a>
</g>
</g>
<!-- Node1&#45;&gt;Node5 -->
<g id="edge4" class="edge">
<title>Node1&#45;&gt;Node5</title>
<path fill="none" stroke="midnightblue" d="M205.2,-89.79C213.7,-88.93 222.31,-88.07 230.87,-87.21"/>
<polygon fill="midnightblue" stroke="midnightblue" points="231.29,-90.69 240.89,-86.2 230.59,-83.72 231.29,-90.69"/>
</g>
<!-- Node6 -->
<g id="node6" class="node">
<title>Node6</title>
<g id="a_node6"><a xlink:href="classQuantConnect_1_1Algorithm_1_1Framework_1_1Execution_1_1StandardDeviationExecutionModel.html#af377d1e12faa31c9c39e30dd7c26953a" target="_top" xlink:title="Determines if the current price is more than the configured number of standard deviations away from t...">
<polygon fill="white" stroke="black" points="241,-0.5 241,-41.5 446,-41.5 446,-0.5 241,-0.5"/>
<text text-anchor="start" x="249" y="-29.5" font-family="Helvetica,sans-Serif" font-size="10.00">QuantConnect.Algorithm.Framework.</text>
<text text-anchor="start" x="249" y="-18.5" font-family="Helvetica,sans-Serif" font-size="10.00">Execution.StandardDeviationExecution</text>
<text text-anchor="middle" x="343.5" y="-7.5" font-family="Helvetica,sans-Serif" font-size="10.00">Model.PriceIsFavorable</text>
</a>
</g>
</g>
<!-- Node1&#45;&gt;Node6 -->
<g id="edge5" class="edge">
<title>Node1&#45;&gt;Node6</title>
<path fill="none" stroke="midnightblue" d="M160.86,-79.41C185.46,-70.73 214.57,-60.65 241,-52 248.53,-49.54 256.4,-47.03 264.27,-44.55"/>
<polygon fill="midnightblue" stroke="midnightblue" points="265.36,-47.88 273.86,-41.56 263.27,-41.2 265.36,-47.88"/>
</g>
<!-- Node3 -->
<g id="node3" class="node">
<title>Node3</title>
<g id="a_node3"><a xlink:href="classQuantConnect_1_1Orders_1_1OrderSizing.html#aef2d6370075548b8f4d8a8dcb15062b7" target="_top" xlink:title="Adjusts the provided order quantity to respect the securities lot size. If the quantity is missing 1M...">
<polygon fill="white" stroke="black" points="482,-159 482,-189 633,-189 633,-159 482,-159"/>
<text text-anchor="start" x="490" y="-177" font-family="Helvetica,sans-Serif" font-size="10.00">QuantConnect.Orders.Order</text>
<text text-anchor="middle" x="557.5" y="-166" font-family="Helvetica,sans-Serif" font-size="10.00">Sizing.AdjustByLotSize</text>
</a>
</g>
</g>
<!-- Node2&#45;&gt;Node3 -->
<g id="edge2" class="edge">
<title>Node2&#45;&gt;Node3</title>
<path fill="none" stroke="midnightblue" d="M446.15,-174C454.69,-174 463.27,-174 471.66,-174"/>
<polygon fill="midnightblue" stroke="midnightblue" points="471.78,-177.5 481.78,-174 471.78,-170.5 471.78,-177.5"/>
</g>
</g>
</svg>
