<?xml version="1.0" encoding="UTF-8" standalone="no"?>
<!DOCTYPE svg PUBLIC "-//W3C//DTD SVG 1.1//EN"
 "http://www.w3.org/Graphics/SVG/1.1/DTD/svg11.dtd">
<!-- Generated by graphviz version 2.43.0 (0)
 -->
<!-- Title: QuantConnect.Algorithm.Framework.Portfolio.PortfolioTarget.Percent Pages: 1 -->
<svg width="732pt" height="258pt"
 viewBox="0.00 0.00 732.00 258.00" xmlns="http://www.w3.org/2000/svg" xmlns:xlink="http://www.w3.org/1999/xlink">
<g id="graph0" class="graph" transform="scale(1 1) rotate(0) translate(4 254)">
<title>QuantConnect.Algorithm.Framework.Portfolio.PortfolioTarget.Percent</title>
<polygon fill="white" stroke="transparent" points="-4,4 -4,-254 728,-254 728,4 -4,4"/>
<!-- Node1 -->
<g id="node1" class="node">
<title>Node1</title>
<g id="a_node1"><a xlink:title="Creates a new target for the specified percent">
<polygon fill="#bfbfbf" stroke="black" points="0,-115.5 0,-145.5 197,-145.5 197,-115.5 0,-115.5"/>
<text text-anchor="start" x="8" y="-133.5" font-family="Helvetica,sans-Serif" font-size="10.00">QuantConnect.Algorithm.Framework.</text>
<text text-anchor="middle" x="98.5" y="-122.5" font-family="Helvetica,sans-Serif" font-size="10.00">Portfolio.PortfolioTarget.Percent</text>
</a>
</g>
</g>
<!-- Node2 -->
<g id="node2" class="node">
<title>Node2</title>
<g id="a_node2"><a xlink:href="interfaceQuantConnect_1_1Interfaces_1_1IAlgorithm.html#a7b8af1af90d91f0702ae39686c073dce" target="_top" xlink:title="Send an error message for the algorithm">
<polygon fill="white" stroke="black" points="300.5,-219.5 300.5,-249.5 440.5,-249.5 440.5,-219.5 300.5,-219.5"/>
<text text-anchor="start" x="308.5" y="-237.5" font-family="Helvetica,sans-Serif" font-size="10.00">QuantConnect.Interfaces.</text>
<text text-anchor="middle" x="370.5" y="-226.5" font-family="Helvetica,sans-Serif" font-size="10.00">IAlgorithm.Error</text>
</a>
</g>
</g>
<!-- Node1&#45;&gt;Node2 -->
<g id="edge1" class="edge">
<title>Node1&#45;&gt;Node2</title>
<path fill="none" stroke="midnightblue" d="M119.56,-145.76C144.69,-164.08 189.71,-194.36 233,-210.5 251.05,-217.23 271.15,-222.1 290.27,-225.61"/>
<polygon fill="midnightblue" stroke="midnightblue" points="289.7,-229.06 300.16,-227.33 290.9,-222.17 289.7,-229.06"/>
</g>
<!-- Node3 -->
<g id="node3" class="node">
<title>Node3</title>
<g id="a_node3"><a xlink:href="interfaceQuantConnect_1_1Securities_1_1IBuyingPowerModel.html#a71a4a692ddcf85b3781a510cc3a3764f" target="_top" xlink:title="Gets the current leverage of the security">
<polygon fill="white" stroke="black" points="281,-170.5 281,-200.5 460,-200.5 460,-170.5 281,-170.5"/>
<text text-anchor="start" x="289" y="-188.5" font-family="Helvetica,sans-Serif" font-size="10.00">QuantConnect.Securities.</text>
<text text-anchor="middle" x="370.5" y="-177.5" font-family="Helvetica,sans-Serif" font-size="10.00">IBuyingPowerModel.GetLeverage</text>
</a>
</g>
</g>
<!-- Node1&#45;&gt;Node3 -->
<g id="edge2" class="edge">
<title>Node1&#45;&gt;Node3</title>
<path fill="none" stroke="midnightblue" d="M163.9,-145.52C185.79,-150.48 210.42,-155.9 233,-160.5 246.39,-163.23 260.55,-165.98 274.48,-168.6"/>
<polygon fill="midnightblue" stroke="midnightblue" points="274.1,-172.09 284.57,-170.49 275.38,-165.21 274.1,-172.09"/>
</g>
<!-- Node4 -->
<g id="node4" class="node">
<title>Node4</title>
<g id="a_node4"><a xlink:href="interfaceQuantConnect_1_1Securities_1_1Positions_1_1IPositionGroupBuyingPowerModel.html#ad9b3419d94d2c584a9706bfe14b7e260" target="_top" xlink:title="Get the maximum position group order quantity to obtain a position with a given buying power percenta...">
<polygon fill="white" stroke="black" points="233,-110 233,-151 508,-151 508,-110 233,-110"/>
<text text-anchor="start" x="241" y="-139" font-family="Helvetica,sans-Serif" font-size="10.00">QuantConnect.Securities.</text>
<text text-anchor="start" x="241" y="-128" font-family="Helvetica,sans-Serif" font-size="10.00">Positions.IPositionGroupBuying</text>
<text text-anchor="middle" x="370.5" y="-117" font-family="Helvetica,sans-Serif" font-size="10.00">PowerModel.GetMaximumLotsForTargetBuyingPower</text>
</a>
</g>
</g>
<!-- Node1&#45;&gt;Node4 -->
<g id="edge3" class="edge">
<title>Node1&#45;&gt;Node4</title>
<path fill="none" stroke="midnightblue" d="M197.36,-130.5C205.6,-130.5 214.05,-130.5 222.55,-130.5"/>
<polygon fill="midnightblue" stroke="midnightblue" points="222.56,-134 232.56,-130.5 222.56,-127 222.56,-134"/>
</g>
<!-- Node5 -->
<g id="node5" class="node">
<title>Node5</title>
<g id="a_node5"><a xlink:href="classQuantConnect_1_1Securities_1_1Positions_1_1PositionManager.html#a5bc4ec6a7048106a42ec4cd765a626cc" target="_top" xlink:title="Gets or creates the default position group for the specified security">
<polygon fill="white" stroke="black" points="288,-50 288,-91 453,-91 453,-50 288,-50"/>
<text text-anchor="start" x="296" y="-79" font-family="Helvetica,sans-Serif" font-size="10.00">QuantConnect.Securities.</text>
<text text-anchor="start" x="296" y="-68" font-family="Helvetica,sans-Serif" font-size="10.00">Positions.PositionManager.Get</text>
<text text-anchor="middle" x="370.5" y="-57" font-family="Helvetica,sans-Serif" font-size="10.00">OrCreateDefaultGroup</text>
</a>
</g>
</g>
<!-- Node1&#45;&gt;Node5 -->
<g id="edge4" class="edge">
<title>Node1&#45;&gt;Node5</title>
<path fill="none" stroke="midnightblue" d="M166.03,-115.48C187.41,-110.68 211.2,-105.34 233,-100.5 247.57,-97.26 263.02,-93.85 278.09,-90.53"/>
<polygon fill="midnightblue" stroke="midnightblue" points="278.91,-93.93 287.92,-88.36 277.4,-87.09 278.91,-93.93"/>
</g>
<!-- Node7 -->
<g id="node7" class="node">
<title>Node7</title>
<g id="a_node7"><a xlink:href="classQuantConnect_1_1Algorithm_1_1Framework_1_1Portfolio_1_1PortfolioTarget.html#aa683d1651bc105cb4c8f9efd60166618" target="_top" xlink:title="Initializes a new instance of the PortfolioTarget class">
<polygon fill="white" stroke="black" points="267.5,-0.5 267.5,-30.5 473.5,-30.5 473.5,-0.5 267.5,-0.5"/>
<text text-anchor="start" x="275.5" y="-18.5" font-family="Helvetica,sans-Serif" font-size="10.00">QuantConnect.Algorithm.Framework.</text>
<text text-anchor="middle" x="370.5" y="-7.5" font-family="Helvetica,sans-Serif" font-size="10.00">Portfolio.PortfolioTarget.PortfolioTarget</text>
</a>
</g>
</g>
<!-- Node1&#45;&gt;Node7 -->
<g id="edge6" class="edge">
<title>Node1&#45;&gt;Node7</title>
<path fill="none" stroke="midnightblue" d="M116.7,-115.41C140.91,-95.05 187.19,-59.18 233,-40.5 240.78,-37.33 248.97,-34.56 257.31,-32.14"/>
<polygon fill="midnightblue" stroke="midnightblue" points="258.44,-35.46 267.17,-29.45 256.6,-28.7 258.44,-35.46"/>
</g>
<!-- Node6 -->
<g id="node6" class="node">
<title>Node6</title>
<g id="a_node6"><a xlink:href="classQuantConnect_1_1Securities_1_1Positions_1_1PositionManager.html#a6cd4f628427cacf14b7990fb884d51ae" target="_top" xlink:title="Creates a PositionGroupKey for the security&#39;s default position group">
<polygon fill="white" stroke="black" points="544,-50 544,-91 724,-91 724,-50 544,-50"/>
<text text-anchor="start" x="552" y="-79" font-family="Helvetica,sans-Serif" font-size="10.00">QuantConnect.Securities.</text>
<text text-anchor="start" x="552" y="-68" font-family="Helvetica,sans-Serif" font-size="10.00">Positions.PositionManager.Create</text>
<text text-anchor="middle" x="634" y="-57" font-family="Helvetica,sans-Serif" font-size="10.00">DefaultKey</text>
</a>
</g>
</g>
<!-- Node5&#45;&gt;Node6 -->
<g id="edge5" class="edge">
<title>Node5&#45;&gt;Node6</title>
<path fill="none" stroke="midnightblue" d="M453.16,-70.5C478.68,-70.5 507.11,-70.5 533.69,-70.5"/>
<polygon fill="midnightblue" stroke="midnightblue" points="533.78,-74 543.78,-70.5 533.78,-67 533.78,-74"/>
</g>
</g>
</svg>
