<?xml version="1.0" encoding="UTF-8" standalone="no"?>
<!DOCTYPE svg PUBLIC "-//W3C//DTD SVG 1.1//EN"
 "http://www.w3.org/Graphics/SVG/1.1/DTD/svg11.dtd">
<!-- Generated by graphviz version 2.43.0 (0)
 -->
<!-- Title: QuantConnect.Statistics.Statistics.AnnualVariance Pages: 1 -->
<!--zoomable 187 -->
<svg id="main" version="1.1" xmlns="http://www.w3.org/2000/svg" xmlns:xlink="http://www.w3.org/1999/xlink" xml:space="preserve" onload="init(evt)">
<style type="text/css"><![CDATA[
.edge:hover path { stroke: red; }
.edge:hover polygon { stroke: red; fill: red; }
]]></style>
<script type="text/javascript"><![CDATA[
var edges = document.getElementsByTagName('g');
if (edges && edges.length) {
  for (var i=0;i<edges.length;i++) {
    if (edges[i].id.substr(0,4)=='edge') {
      edges[i].setAttribute('class','edge');
    }
  }
}
]]></script>
        <defs>
                <circle id="rim" cx="0" cy="0" r="7"/>
                <circle id="rim2" cx="0" cy="0" r="3.5"/>
                <g id="zoomPlus">
                        <use xlink:href="#rim" fill="#404040">
                                <set attributeName="fill" to="#808080" begin="zoomplus.mouseover" end="zoomplus.mouseout"/>
                        </use>
                        <path d="M-4,0h8M0,-4v8" fill="none" stroke="white" stroke-width="1.5" pointer-events="none"/>
                </g>
                <g id="zoomMin">
                        <use xlink:href="#rim" fill="#404040">
                                <set attributeName="fill" to="#808080" begin="zoomminus.mouseover" end="zoomminus.mouseout"/>
                        </use>
                        <path d="M-4,0h8" fill="none" stroke="white" stroke-width="1.5" pointer-events="none"/>
                </g>
                <g id="dirArrow">
                        <path fill="none" stroke="white" stroke-width="1.5" d="M0,-3.0v7 M-2.5,-0.5L0,-3.0L2.5,-0.5"/>
                </g>
               <g id="resetDef">
                       <use xlink:href="#rim2" fill="#404040">
                               <set attributeName="fill" to="#808080" begin="reset.mouseover" end="reset.mouseout"/>
                       </use>
               </g>
        </defs>

<script type="text/javascript">
var viewWidth = 782;
var viewHeight = 187;
var sectionId = 'dynsection-4';
</script>
<script xlink:href="svgpan.js"/>
<svg id="graph" class="graph">
<g id="viewport">
<title>QuantConnect.Statistics.Statistics.AnnualVariance</title>
<polygon fill="white" stroke="transparent" points="-4,4 -4,-182.5 778,-182.5 778,4 -4,4"/>
<!-- Node1 -->
<g id="node1" class="node">
<title>Node1</title>
<g id="a_node1"><a xlink:title="Annualized variance statistic calculation using the daily performance variance and trading days per y...">
<polygon fill="#bfbfbf" stroke="black" points="634,-71.5 634,-101.5 774,-101.5 774,-71.5 634,-71.5"/>
<text text-anchor="start" x="642" y="-89.5" font-family="Helvetica,sans-Serif" font-size="10.00">QuantConnect.Statistics.</text>
<text text-anchor="middle" x="704" y="-78.5" font-family="Helvetica,sans-Serif" font-size="10.00">Statistics.AnnualVariance</text>
</a>
</g>
</g>
<!-- Node2 -->
<g id="node2" class="node">
<title>Node2</title>
<g id="a_node2"><a xlink:href="classQuantConnect_1_1Statistics_1_1Statistics.html#a670cedaa29864eaa7d488cd2f6885bc6" target="_top" xlink:title="Annualized variance statistic calculation using the daily performance variance and trading days per y...">
<polygon fill="white" stroke="black" points="409.5,-139.5 409.5,-169.5 597.5,-169.5 597.5,-139.5 409.5,-139.5"/>
<text text-anchor="start" x="417.5" y="-157.5" font-family="Helvetica,sans-Serif" font-size="10.00">QuantConnect.Statistics.</text>
<text text-anchor="middle" x="503.5" y="-146.5" font-family="Helvetica,sans-Serif" font-size="10.00">Statistics.AnnualDownsideVariance</text>
</a>
</g>
</g>
<!-- Node1&#45;&gt;Node2 -->
<g id="edge1" class="edge">
<title>Node1&#45;&gt;Node2</title>
<path fill="none" stroke="midnightblue" d="M649.56,-104.83C633.03,-110.5 614.76,-116.76 598,-122.5 581.93,-128 564.31,-134.04 548.73,-139.37"/>
<polygon fill="midnightblue" stroke="midnightblue" points="650.74,-108.12 659.07,-101.57 648.47,-101.5 650.74,-108.12"/>
</g>
<!-- Node4 -->
<g id="node4" class="node">
<title>Node4</title>
<g id="a_node4"><a xlink:href="classQuantConnect_1_1Statistics_1_1PortfolioStatistics.html#af38dcd6519a76dade550dc80e92d228f" target="_top" xlink:title="Initializes a new instance of the PortfolioStatistics class">
<polygon fill="white" stroke="black" points="0,-85 0,-126 147,-126 147,-85 0,-85"/>
<text text-anchor="start" x="8" y="-114" font-family="Helvetica,sans-Serif" font-size="10.00">QuantConnect.Statistics.</text>
<text text-anchor="start" x="8" y="-103" font-family="Helvetica,sans-Serif" font-size="10.00">PortfolioStatistics.Portfolio</text>
<text text-anchor="middle" x="73.5" y="-92" font-family="Helvetica,sans-Serif" font-size="10.00">Statistics</text>
</a>
</g>
</g>
<!-- Node1&#45;&gt;Node4 -->
<g id="edge7" class="edge">
<title>Node1&#45;&gt;Node4</title>
<path fill="none" stroke="midnightblue" d="M623.84,-88.89C500.89,-92.61 265.85,-99.72 147.06,-103.31"/>
<polygon fill="midnightblue" stroke="midnightblue" points="624.05,-92.39 633.94,-88.59 623.84,-85.39 624.05,-92.39"/>
</g>
<!-- Node6 -->
<g id="node6" class="node">
<title>Node6</title>
<g id="a_node6"><a xlink:href="classQuantConnect_1_1Statistics_1_1Statistics.html#afba2db783af88b237f307162f8384389" target="_top" xlink:title="Annualized standard deviation">
<polygon fill="white" stroke="black" points="409,-49.5 409,-79.5 598,-79.5 598,-49.5 409,-49.5"/>
<text text-anchor="start" x="417" y="-67.5" font-family="Helvetica,sans-Serif" font-size="10.00">QuantConnect.Statistics.</text>
<text text-anchor="middle" x="503.5" y="-56.5" font-family="Helvetica,sans-Serif" font-size="10.00">Statistics.AnnualStandardDeviation</text>
</a>
</g>
</g>
<!-- Node1&#45;&gt;Node6 -->
<g id="edge5" class="edge">
<title>Node1&#45;&gt;Node6</title>
<path fill="none" stroke="midnightblue" d="M623.73,-77.71C615.33,-76.78 606.73,-75.83 598.19,-74.88"/>
<polygon fill="midnightblue" stroke="midnightblue" points="623.53,-81.21 633.85,-78.84 624.3,-74.26 623.53,-81.21"/>
</g>
<!-- Node8 -->
<g id="node8" class="node">
<title>Node8</title>
<g id="a_node8"><a xlink:href="classQuantConnect_1_1Statistics_1_1Statistics.html#af1d3ad94ddd5b9a905df274d5bb91545" target="_top" xlink:title="Tracking error volatility (TEV) statistic &#45; a measure of how closely a portfolio follows the index to...">
<polygon fill="white" stroke="black" points="209.5,-0.5 209.5,-30.5 346.5,-30.5 346.5,-0.5 209.5,-0.5"/>
<text text-anchor="start" x="217.5" y="-18.5" font-family="Helvetica,sans-Serif" font-size="10.00">QuantConnect.Statistics.</text>
<text text-anchor="middle" x="278" y="-7.5" font-family="Helvetica,sans-Serif" font-size="10.00">Statistics.TrackingError</text>
</a>
</g>
</g>
<!-- Node1&#45;&gt;Node8 -->
<g id="edge8" class="edge">
<title>Node1&#45;&gt;Node8</title>
<path fill="none" stroke="midnightblue" d="M666.19,-66.74C646.52,-57.13 621.56,-46.4 598,-40.5 513.13,-19.23 411.94,-14.67 346.64,-14.31"/>
<polygon fill="midnightblue" stroke="midnightblue" points="664.88,-70 675.39,-71.35 668.01,-63.74 664.88,-70"/>
</g>
<!-- Node3 -->
<g id="node3" class="node">
<title>Node3</title>
<g id="a_node3"><a xlink:href="classQuantConnect_1_1Statistics_1_1Statistics.html#a18dd1fb0667d8701fdf3995fb9d65913" target="_top" xlink:title="Annualized downside standard deviation">
<polygon fill="white" stroke="black" points="183,-137 183,-178 373,-178 373,-137 183,-137"/>
<text text-anchor="start" x="191" y="-166" font-family="Helvetica,sans-Serif" font-size="10.00">QuantConnect.Statistics.</text>
<text text-anchor="start" x="191" y="-155" font-family="Helvetica,sans-Serif" font-size="10.00">Statistics.AnnualDownsideStandard</text>
<text text-anchor="middle" x="278" y="-144" font-family="Helvetica,sans-Serif" font-size="10.00">Deviation</text>
</a>
</g>
</g>
<!-- Node2&#45;&gt;Node3 -->
<g id="edge2" class="edge">
<title>Node2&#45;&gt;Node3</title>
<path fill="none" stroke="midnightblue" d="M399.17,-155.89C390.48,-156 381.71,-156.12 373.09,-156.24"/>
<polygon fill="midnightblue" stroke="midnightblue" points="399.38,-159.38 409.33,-155.75 399.29,-152.39 399.38,-159.38"/>
</g>
<!-- Node3&#45;&gt;Node4 -->
<g id="edge3" class="edge">
<title>Node3&#45;&gt;Node4</title>
<path fill="none" stroke="midnightblue" d="M187.24,-134.45C173.79,-131 160.08,-127.48 147.05,-124.13"/>
<polygon fill="midnightblue" stroke="midnightblue" points="186.41,-137.85 196.97,-136.95 188.15,-131.07 186.41,-137.85"/>
</g>
<!-- Node5 -->
<g id="node5" class="node">
<title>Node5</title>
<g id="a_node5"><a xlink:href="classQuantConnect_1_1Statistics_1_1Statistics.html#abf0b4352ba9c1bfede7a4f9ccb99ce84" target="_top" xlink:title="Sortino ratio with respect to risk free rate: measures excess of return per unit of downside risk.">
<polygon fill="white" stroke="black" points="5,-145.5 5,-175.5 142,-175.5 142,-145.5 5,-145.5"/>
<text text-anchor="start" x="13" y="-163.5" font-family="Helvetica,sans-Serif" font-size="10.00">QuantConnect.Statistics.</text>
<text text-anchor="middle" x="73.5" y="-152.5" font-family="Helvetica,sans-Serif" font-size="10.00">Statistics.SortinoRatio</text>
</a>
</g>
</g>
<!-- Node3&#45;&gt;Node5 -->
<g id="edge4" class="edge">
<title>Node3&#45;&gt;Node5</title>
<path fill="none" stroke="midnightblue" d="M172.54,-159.05C162.22,-159.2 151.95,-159.35 142.15,-159.5"/>
<polygon fill="midnightblue" stroke="midnightblue" points="172.92,-162.54 182.86,-158.89 172.81,-155.54 172.92,-162.54"/>
</g>
<!-- Node7 -->
<g id="node7" class="node">
<title>Node7</title>
<g id="a_node7"><a xlink:href="classQuantConnect_1_1Statistics_1_1Statistics.html#adec7431a0c08303f3e4e95da225d304f" target="_top" xlink:title="Sharpe ratio with respect to risk free rate: measures excess of return per unit of risk.">
<polygon fill="white" stroke="black" points="209.5,-49.5 209.5,-79.5 346.5,-79.5 346.5,-49.5 209.5,-49.5"/>
<text text-anchor="start" x="217.5" y="-67.5" font-family="Helvetica,sans-Serif" font-size="10.00">QuantConnect.Statistics.</text>
<text text-anchor="middle" x="278" y="-56.5" font-family="Helvetica,sans-Serif" font-size="10.00">Statistics.SharpeRatio</text>
</a>
</g>
</g>
<!-- Node6&#45;&gt;Node7 -->
<g id="edge6" class="edge">
<title>Node6&#45;&gt;Node7</title>
<path fill="none" stroke="midnightblue" d="M398.4,-64.5C380.86,-64.5 363.06,-64.5 346.76,-64.5"/>
<polygon fill="midnightblue" stroke="midnightblue" points="398.69,-68 408.69,-64.5 398.69,-61 398.69,-68"/>
</g>
<!-- Node8&#45;&gt;Node4 -->
<g id="edge9" class="edge">
<title>Node8&#45;&gt;Node4</title>
<path fill="none" stroke="midnightblue" d="M201.16,-33.68C194.94,-35.77 188.82,-38.04 183,-40.5 154.68,-52.47 124.89,-70.78 103.7,-84.93"/>
<polygon fill="midnightblue" stroke="midnightblue" points="202.52,-36.92 210.98,-30.54 200.39,-30.25 202.52,-36.92"/>
</g>
</g>
</svg>
        <g id="navigator" transform="translate(0 0)" fill="#404254">
                <rect fill="#f2f5e9" fill-opacity="0.5" stroke="#606060" stroke-width=".5" x="0" y="0" width="60" height="60"/>
                <use id="zoomplus" xlink:href="#zoomPlus" x="17" y="9" onmousedown="handleZoom(evt,'in')"/>
                <use id="zoomminus" xlink:href="#zoomMin" x="42" y="9" onmousedown="handleZoom(evt,'out')"/>
                <use id="reset" xlink:href="#resetDef" x="30" y="36" onmousedown="handleReset()"/>
                <g id="arrowUp" xlink:href="#dirArrow" transform="translate(30 24)" onmousedown="handlePan(0,-1)">
                  <use xlink:href="#rim" fill="#404040">
                        <set attributeName="fill" to="#808080" begin="arrowUp.mouseover" end="arrowUp.mouseout"/>
                  </use>
                  <path fill="none" stroke="white" stroke-width="1.5" d="M0,-3.0v7 M-2.5,-0.5L0,-3.0L2.5,-0.5"/>
                </g>
                <g id="arrowRight" xlink:href="#dirArrow" transform="rotate(90) translate(36 -43)" onmousedown="handlePan(1,0)">
                  <use xlink:href="#rim" fill="#404040">
                        <set attributeName="fill" to="#808080" begin="arrowRight.mouseover" end="arrowRight.mouseout"/>
                  </use>
                  <path fill="none" stroke="white" stroke-width="1.5" d="M0,-3.0v7 M-2.5,-0.5L0,-3.0L2.5,-0.5"/>
                </g>
                <g id="arrowDown" xlink:href="#dirArrow" transform="rotate(180) translate(-30 -48)" onmousedown="handlePan(0,1)">
                  <use xlink:href="#rim" fill="#404040">
                        <set attributeName="fill" to="#808080" begin="arrowDown.mouseover" end="arrowDown.mouseout"/>
                  </use>
                  <path fill="none" stroke="white" stroke-width="1.5" d="M0,-3.0v7 M-2.5,-0.5L0,-3.0L2.5,-0.5"/>
                </g>
                <g id="arrowLeft" xlink:href="#dirArrow" transform="rotate(270) translate(-36 17)" onmousedown="handlePan(-1,0)">
                  <use xlink:href="#rim" fill="#404040">
                        <set attributeName="fill" to="#808080" begin="arrowLeft.mouseover" end="arrowLeft.mouseout"/>
                  </use>
                  <path fill="none" stroke="white" stroke-width="1.5" d="M0,-3.0v7 M-2.5,-0.5L0,-3.0L2.5,-0.5"/>
                </g>
        </g>
        <svg viewBox="0 0 15 15" width="100%" height="30px" preserveAspectRatio="xMaxYMin meet">
         <g id="arrow_out" transform="scale(0.3 0.3)">
          <a xlink:href="classQuantConnect_1_1Statistics_1_1Statistics_a351c06d27f5c5fed38d503c7f965978f_icgraph_org.svg" target="_base">
           <rect id="button" ry="5" rx="5" y="6" x="6" height="38" width="38"
                fill="#f2f5e9" fill-opacity="0.5" stroke="#606060" stroke-width="1.0"/>
           <path id="arrow"
             d="M 11.500037,31.436501 C 11.940474,20.09759 22.043105,11.32322 32.158766,21.979434 L 37.068811,17.246167 C 37.068811,17.246167 37.088388,32 37.088388,32 L 22.160133,31.978069 C 22.160133,31.978069 26.997745,27.140456 26.997745,27.140456 C 18.528582,18.264221 13.291696,25.230495 11.500037,31.436501 z"
             style="fill:#404040;"/>
          </a>
         </g>
        </svg>
</svg>
