<?xml version="1.0" encoding="UTF-8" standalone="no"?>
<!DOCTYPE svg PUBLIC "-//W3C//DTD SVG 1.1//EN"
 "http://www.w3.org/Graphics/SVG/1.1/DTD/svg11.dtd">
<!-- Generated by graphviz version 2.43.0 (0)
 -->
<!-- Title: QuantConnect.Report.DrawdownCollection.GetUnderwaterFrame Pages: 1 -->
<svg width="608pt" height="39pt"
 viewBox="0.00 0.00 608.00 39.00" xmlns="http://www.w3.org/2000/svg" xmlns:xlink="http://www.w3.org/1999/xlink">
<g id="graph0" class="graph" transform="scale(1 1) rotate(0) translate(4 35)">
<title>QuantConnect.Report.DrawdownCollection.GetUnderwaterFrame</title>
<polygon fill="white" stroke="transparent" points="-4,4 -4,-35 604,-35 604,4 -4,4"/>
<!-- Node1 -->
<g id="node1" class="node">
<title>Node1</title>
<g id="a_node1"><a xlink:title="Gets all the data associated with the underwater plot and everything used to generate it....">
<polygon fill="#bfbfbf" stroke="black" points="424,-0.5 424,-30.5 600,-30.5 600,-0.5 424,-0.5"/>
<text text-anchor="start" x="432" y="-18.5" font-family="Helvetica,sans-Serif" font-size="10.00">QuantConnect.Report.Drawdown</text>
<text text-anchor="middle" x="512" y="-7.5" font-family="Helvetica,sans-Serif" font-size="10.00">Collection.GetUnderwaterFrame</text>
</a>
</g>
</g>
<!-- Node2 -->
<g id="node2" class="node">
<title>Node2</title>
<g id="a_node2"><a xlink:href="classQuantConnect_1_1Report_1_1DrawdownCollection.html#a0f3aa9a37050cda267b709ffebc9cde9" target="_top" xlink:title="Gets the given drawdown periods from the equity curve and the set periods">
<polygon fill="white" stroke="black" points="212,-0.5 212,-30.5 388,-30.5 388,-0.5 212,-0.5"/>
<text text-anchor="start" x="220" y="-18.5" font-family="Helvetica,sans-Serif" font-size="10.00">QuantConnect.Report.Drawdown</text>
<text text-anchor="middle" x="300" y="-7.5" font-family="Helvetica,sans-Serif" font-size="10.00">Collection.GetDrawdownPeriods</text>
</a>
</g>
</g>
<!-- Node1&#45;&gt;Node2 -->
<g id="edge1" class="edge">
<title>Node1&#45;&gt;Node2</title>
<path fill="none" stroke="midnightblue" d="M413.54,-15.5C405.12,-15.5 396.63,-15.5 388.3,-15.5"/>
<polygon fill="midnightblue" stroke="midnightblue" points="413.77,-19 423.77,-15.5 413.77,-12 413.77,-19"/>
</g>
<!-- Node3 -->
<g id="node3" class="node">
<title>Node3</title>
<g id="a_node3"><a xlink:href="classQuantConnect_1_1Report_1_1DrawdownCollection.html#aae83d068f4d80e567e63b9fcd5ced9e0" target="_top" xlink:title="Creates an instance from the given drawdowns and the top N worst drawdowns">
<polygon fill="white" stroke="black" points="0,-0.5 0,-30.5 176,-30.5 176,-0.5 0,-0.5"/>
<text text-anchor="start" x="8" y="-18.5" font-family="Helvetica,sans-Serif" font-size="10.00">QuantConnect.Report.Drawdown</text>
<text text-anchor="middle" x="88" y="-7.5" font-family="Helvetica,sans-Serif" font-size="10.00">Collection.DrawdownCollection</text>
</a>
</g>
</g>
<!-- Node2&#45;&gt;Node3 -->
<g id="edge2" class="edge">
<title>Node2&#45;&gt;Node3</title>
<path fill="none" stroke="midnightblue" d="M201.54,-15.5C193.12,-15.5 184.63,-15.5 176.3,-15.5"/>
<polygon fill="midnightblue" stroke="midnightblue" points="201.77,-19 211.77,-15.5 201.77,-12 201.77,-19"/>
</g>
</g>
</svg>
