<?xml version="1.0" encoding="UTF-8" standalone="no"?>
<!DOCTYPE svg PUBLIC "-//W3C//DTD SVG 1.1//EN"
 "http://www.w3.org/Graphics/SVG/1.1/DTD/svg11.dtd">
<!-- Generated by graphviz version 2.43.0 (0)
 -->
<!-- Title: QuantConnect.Securities.ImmediateSettlementModel Pages: 1 -->
<svg width="574pt" height="88pt"
 viewBox="0.00 0.00 574.00 88.00" xmlns="http://www.w3.org/2000/svg" xmlns:xlink="http://www.w3.org/1999/xlink">
<g id="graph0" class="graph" transform="scale(1 1) rotate(0) translate(4 84)">
<title>QuantConnect.Securities.ImmediateSettlementModel</title>
<polygon fill="white" stroke="transparent" points="-4,4 -4,-84 570,-84 570,4 -4,4"/>
<!-- Node1 -->
<g id="node1" class="node">
<title>Node1</title>
<g id="a_node1"><a xlink:title="Represents the model responsible for applying cash settlement rules">
<polygon fill="#bfbfbf" stroke="black" points="140,-24.5 140,-54.5 294,-54.5 294,-24.5 140,-24.5"/>
<text text-anchor="start" x="148" y="-42.5" font-family="Helvetica,sans-Serif" font-size="10.00">QuantConnect.Securities.</text>
<text text-anchor="middle" x="217" y="-31.5" font-family="Helvetica,sans-Serif" font-size="10.00">ImmediateSettlementModel</text>
</a>
</g>
</g>
<!-- Node3 -->
<g id="node3" class="node">
<title>Node3</title>
<g id="a_node3"><a xlink:href="classQuantConnect_1_1Securities_1_1AccountCurrencyImmediateSettlementModel.html" target="_top" xlink:title="Represents the model responsible for applying cash settlement rules">
<polygon fill="white" stroke="black" points="330,-49.5 330,-79.5 566,-79.5 566,-49.5 330,-49.5"/>
<text text-anchor="start" x="338" y="-67.5" font-family="Helvetica,sans-Serif" font-size="10.00">QuantConnect.Securities.</text>
<text text-anchor="middle" x="448" y="-56.5" font-family="Helvetica,sans-Serif" font-size="10.00">AccountCurrencyImmediateSettlementModel</text>
</a>
</g>
</g>
<!-- Node1&#45;&gt;Node3 -->
<g id="edge2" class="edge">
<title>Node1&#45;&gt;Node3</title>
<path fill="none" stroke="midnightblue" d="M304.31,-48.92C312.66,-49.83 321.22,-50.77 329.8,-51.7"/>
<polygon fill="midnightblue" stroke="midnightblue" points="304.57,-45.43 294.25,-47.82 303.81,-52.39 304.57,-45.43"/>
</g>
<!-- Node4 -->
<g id="node4" class="node">
<title>Node4</title>
<g id="a_node4"><a xlink:href="classQuantConnect_1_1Securities_1_1Future_1_1FutureSettlementModel.html" target="_top" xlink:title="Settlement model which can handle daily profit and loss settlement">
<polygon fill="white" stroke="black" points="365.5,-0.5 365.5,-30.5 530.5,-30.5 530.5,-0.5 365.5,-0.5"/>
<text text-anchor="start" x="373.5" y="-18.5" font-family="Helvetica,sans-Serif" font-size="10.00">QuantConnect.Securities.</text>
<text text-anchor="middle" x="448" y="-7.5" font-family="Helvetica,sans-Serif" font-size="10.00">Future.FutureSettlementModel</text>
</a>
</g>
</g>
<!-- Node1&#45;&gt;Node4 -->
<g id="edge3" class="edge">
<title>Node1&#45;&gt;Node4</title>
<path fill="none" stroke="midnightblue" d="M304.26,-30.46C324.22,-28.37 345.41,-26.15 365.18,-24.07"/>
<polygon fill="midnightblue" stroke="midnightblue" points="303.83,-26.98 294.25,-31.51 304.56,-33.95 303.83,-26.98"/>
</g>
<!-- Node2 -->
<g id="node2" class="node">
<title>Node2</title>
<g id="a_node2"><a xlink:href="interfaceQuantConnect_1_1Securities_1_1ISettlementModel.html" target="_top" xlink:title="Represents the model responsible for applying cash settlement rules">
<polygon fill="white" stroke="black" points="0,-30 0,-49 104,-49 104,-30 0,-30"/>
<text text-anchor="middle" x="52" y="-37" font-family="Helvetica,sans-Serif" font-size="10.00">ISettlementModel</text>
</a>
</g>
</g>
<!-- Node2&#45;&gt;Node1 -->
<g id="edge1" class="edge">
<title>Node2&#45;&gt;Node1</title>
<path fill="none" stroke="midnightblue" d="M114.21,-39.5C122.62,-39.5 131.34,-39.5 139.98,-39.5"/>
<polygon fill="midnightblue" stroke="midnightblue" points="114.13,-36 104.13,-39.5 114.13,-43 114.13,-36"/>
</g>
</g>
</svg>
