<?xml version="1.0" encoding="UTF-8" standalone="no"?>
<!DOCTYPE svg PUBLIC "-//W3C//DTD SVG 1.1//EN"
 "http://www.w3.org/Graphics/SVG/1.1/DTD/svg11.dtd">
<!-- Generated by graphviz version 2.43.0 (0)
 -->
<!-- Title: QuantConnect.Algorithm.Framework.Execution.ImmediateExecutionModel.Execute Pages: 1 -->
<svg width="488pt" height="88pt"
 viewBox="0.00 0.00 488.00 88.00" xmlns="http://www.w3.org/2000/svg" xmlns:xlink="http://www.w3.org/1999/xlink">
<g id="graph0" class="graph" transform="scale(1 1) rotate(0) translate(4 84)">
<title>QuantConnect.Algorithm.Framework.Execution.ImmediateExecutionModel.Execute</title>
<polygon fill="white" stroke="transparent" points="-4,4 -4,-84 484,-84 484,4 -4,4"/>
<!-- Node1 -->
<g id="node1" class="node">
<title>Node1</title>
<g id="a_node1"><a xlink:title="Immediately submits orders for the specified portfolio targets.">
<polygon fill="#bfbfbf" stroke="black" points="0,-24.5 0,-54.5 239,-54.5 239,-24.5 0,-24.5"/>
<text text-anchor="start" x="8" y="-42.5" font-family="Helvetica,sans-Serif" font-size="10.00">QuantConnect.Algorithm.Framework.</text>
<text text-anchor="middle" x="119.5" y="-31.5" font-family="Helvetica,sans-Serif" font-size="10.00">Execution.ImmediateExecutionModel.Execute</text>
</a>
</g>
</g>
<!-- Node2 -->
<g id="node2" class="node">
<title>Node2</title>
<g id="a_node2"><a xlink:href="classQuantConnect_1_1Orders_1_1OrderSizing.html#a842c9dd8cdb14899938bf6b75b159f24" target="_top" xlink:title="Gets the remaining quantity to be ordered to reach the specified target quantity.">
<polygon fill="white" stroke="black" points="298,-49.5 298,-79.5 457,-79.5 457,-49.5 298,-49.5"/>
<text text-anchor="start" x="306" y="-67.5" font-family="Helvetica,sans-Serif" font-size="10.00">QuantConnect.Orders.Order</text>
<text text-anchor="middle" x="377.5" y="-56.5" font-family="Helvetica,sans-Serif" font-size="10.00">Sizing.GetUnorderedQuantity</text>
</a>
</g>
</g>
<!-- Node1&#45;&gt;Node2 -->
<g id="edge1" class="edge">
<title>Node1&#45;&gt;Node2</title>
<path fill="none" stroke="midnightblue" d="M239.13,-51.09C255.44,-52.68 271.95,-54.29 287.6,-55.82"/>
<polygon fill="midnightblue" stroke="midnightblue" points="287.46,-59.32 297.75,-56.81 288.14,-52.35 287.46,-59.32"/>
</g>
<!-- Node3 -->
<g id="node3" class="node">
<title>Node3</title>
<g id="a_node3"><a xlink:href="classQuantConnect_1_1Algorithm_1_1QCAlgorithm.html#ad9061f61a3835394d616c79d7e602cc8" target="_top" xlink:title="Market order implementation: Send a market order and wait for it to be filled.">
<polygon fill="white" stroke="black" points="275,-0.5 275,-30.5 480,-30.5 480,-0.5 275,-0.5"/>
<text text-anchor="start" x="283" y="-18.5" font-family="Helvetica,sans-Serif" font-size="10.00">QuantConnect.Algorithm.QCAlgorithm.</text>
<text text-anchor="middle" x="377.5" y="-7.5" font-family="Helvetica,sans-Serif" font-size="10.00">MarketOrder</text>
</a>
</g>
</g>
<!-- Node1&#45;&gt;Node3 -->
<g id="edge2" class="edge">
<title>Node1&#45;&gt;Node3</title>
<path fill="none" stroke="midnightblue" d="M239.13,-28.38C247.59,-27.58 256.11,-26.79 264.53,-26"/>
<polygon fill="midnightblue" stroke="midnightblue" points="265.12,-29.46 274.75,-25.04 264.47,-22.49 265.12,-29.46"/>
</g>
</g>
</svg>
