<?xml version="1.0" encoding="UTF-8" standalone="no"?>
<!DOCTYPE svg PUBLIC "-//W3C//DTD SVG 1.1//EN"
 "http://www.w3.org/Graphics/SVG/1.1/DTD/svg11.dtd">
<!-- Generated by graphviz version 2.43.0 (0)
 -->
<!-- Title: QuantConnect.Indicators.PivotPointsHighLow.FindNextHighPivotPoint Pages: 1 -->
<svg width="436pt" height="50pt"
 viewBox="0.00 0.00 436.00 50.00" xmlns="http://www.w3.org/2000/svg" xmlns:xlink="http://www.w3.org/1999/xlink">
<g id="graph0" class="graph" transform="scale(1 1) rotate(0) translate(4 46)">
<title>QuantConnect.Indicators.PivotPointsHighLow.FindNextHighPivotPoint</title>
<polygon fill="white" stroke="transparent" points="-4,4 -4,-46 432,-46 432,4 -4,4"/>
<!-- Node1 -->
<g id="node1" class="node">
<title>Node1</title>
<g id="a_node1"><a xlink:title="Looks for the next high pivot point.">
<polygon fill="#bfbfbf" stroke="black" points="246,-0.5 246,-41.5 428,-41.5 428,-0.5 246,-0.5"/>
<text text-anchor="start" x="254" y="-29.5" font-family="Helvetica,sans-Serif" font-size="10.00">QuantConnect.Indicators.</text>
<text text-anchor="start" x="254" y="-18.5" font-family="Helvetica,sans-Serif" font-size="10.00">PivotPointsHighLow.FindNextHigh</text>
<text text-anchor="middle" x="337" y="-7.5" font-family="Helvetica,sans-Serif" font-size="10.00">PivotPoint</text>
</a>
</g>
</g>
<!-- Node2 -->
<g id="node2" class="node">
<title>Node2</title>
<g id="a_node2"><a xlink:href="classQuantConnect_1_1Indicators_1_1PivotPointsHighLow.html#acef13f5e04c6e5ef83286898ae2241ce" target="_top" xlink:title="Computes the next value of this indicator from the given state">
<polygon fill="white" stroke="black" points="0,-6 0,-36 210,-36 210,-6 0,-6"/>
<text text-anchor="start" x="8" y="-24" font-family="Helvetica,sans-Serif" font-size="10.00">QuantConnect.Indicators.</text>
<text text-anchor="middle" x="105" y="-13" font-family="Helvetica,sans-Serif" font-size="10.00">PivotPointsHighLow.ComputeNextValue</text>
</a>
</g>
</g>
<!-- Node1&#45;&gt;Node2 -->
<g id="edge1" class="edge">
<title>Node1&#45;&gt;Node2</title>
<path fill="none" stroke="midnightblue" d="M235.53,-21C227.09,-21 218.55,-21 210.08,-21"/>
<polygon fill="midnightblue" stroke="midnightblue" points="235.76,-24.5 245.76,-21 235.76,-17.5 235.76,-24.5"/>
</g>
</g>
</svg>
