<?xml version="1.0" encoding="UTF-8" standalone="no"?>
<!DOCTYPE svg PUBLIC "-//W3C//DTD SVG 1.1//EN"
 "http://www.w3.org/Graphics/SVG/1.1/DTD/svg11.dtd">
<!-- Generated by graphviz version 2.43.0 (0)
 -->
<!-- Title: QuantConnect.Time.UnixTimeStampToDateTime Pages: 1 -->
<!--zoomable 235 -->
<svg id="main" version="1.1" xmlns="http://www.w3.org/2000/svg" xmlns:xlink="http://www.w3.org/1999/xlink" xml:space="preserve" onload="init(evt)">
<style type="text/css"><![CDATA[
.edge:hover path { stroke: red; }
.edge:hover polygon { stroke: red; fill: red; }
]]></style>
<script type="text/javascript"><![CDATA[
var edges = document.getElementsByTagName('g');
if (edges && edges.length) {
  for (var i=0;i<edges.length;i++) {
    if (edges[i].id.substr(0,4)=='edge') {
      edges[i].setAttribute('class','edge');
    }
  }
}
]]></script>
        <defs>
                <circle id="rim" cx="0" cy="0" r="7"/>
                <circle id="rim2" cx="0" cy="0" r="3.5"/>
                <g id="zoomPlus">
                        <use xlink:href="#rim" fill="#404040">
                                <set attributeName="fill" to="#808080" begin="zoomplus.mouseover" end="zoomplus.mouseout"/>
                        </use>
                        <path d="M-4,0h8M0,-4v8" fill="none" stroke="white" stroke-width="1.5" pointer-events="none"/>
                </g>
                <g id="zoomMin">
                        <use xlink:href="#rim" fill="#404040">
                                <set attributeName="fill" to="#808080" begin="zoomminus.mouseover" end="zoomminus.mouseout"/>
                        </use>
                        <path d="M-4,0h8" fill="none" stroke="white" stroke-width="1.5" pointer-events="none"/>
                </g>
                <g id="dirArrow">
                        <path fill="none" stroke="white" stroke-width="1.5" d="M0,-3.0v7 M-2.5,-0.5L0,-3.0L2.5,-0.5"/>
                </g>
               <g id="resetDef">
                       <use xlink:href="#rim2" fill="#404040">
                               <set attributeName="fill" to="#808080" begin="reset.mouseover" end="reset.mouseout"/>
                       </use>
               </g>
        </defs>

<script type="text/javascript">
var viewWidth = 661;
var viewHeight = 235;
var sectionId = 'dynsection-2';
</script>
<script xlink:href="svgpan.js"/>
<svg id="graph" class="graph">
<g id="viewport">
<title>QuantConnect.Time.UnixTimeStampToDateTime</title>
<polygon fill="white" stroke="transparent" points="-4,4 -4,-231 657,-231 657,4 -4,4"/>
<!-- Node1 -->
<g id="node1" class="node">
<title>Node1</title>
<g id="a_node1"><a xlink:title="Create a C# DateTime from a UnixTimestamp">
<polygon fill="#bfbfbf" stroke="black" points="489,-98.5 489,-128.5 653,-128.5 653,-98.5 489,-98.5"/>
<text text-anchor="start" x="497" y="-116.5" font-family="Helvetica,sans-Serif" font-size="10.00">QuantConnect.Time.UnixTime</text>
<text text-anchor="middle" x="571" y="-105.5" font-family="Helvetica,sans-Serif" font-size="10.00">StampToDateTime</text>
</a>
</g>
</g>
<!-- Node2 -->
<g id="node2" class="node">
<title>Node2</title>
<g id="a_node2"><a xlink:href="classQuantConnect_1_1Report_1_1ResultsUtil.html#a1283b789256e20c34dc2e56a3ec4ace3" target="_top" xlink:title="Gets the points of the benchmark">
<polygon fill="white" stroke="black" points="274.5,-196.5 274.5,-226.5 434.5,-226.5 434.5,-196.5 274.5,-196.5"/>
<text text-anchor="start" x="282.5" y="-214.5" font-family="Helvetica,sans-Serif" font-size="10.00">QuantConnect.Report.Results</text>
<text text-anchor="middle" x="354.5" y="-203.5" font-family="Helvetica,sans-Serif" font-size="10.00">Util.BenchmarkPoints</text>
</a>
</g>
</g>
<!-- Node1&#45;&gt;Node2 -->
<g id="edge1" class="edge">
<title>Node1&#45;&gt;Node2</title>
<path fill="none" stroke="midnightblue" d="M542.2,-134.73C519.35,-151.25 485.55,-173.64 453,-187.5 445.06,-190.88 436.55,-193.85 427.98,-196.45"/>
<polygon fill="midnightblue" stroke="midnightblue" points="544.41,-137.45 550.4,-128.71 540.26,-131.81 544.41,-137.45"/>
</g>
<!-- Node3 -->
<g id="node3" class="node">
<title>Node3</title>
<g id="a_node3"><a xlink:href="classQuantConnect_1_1Orders_1_1OrderEvent.html#ab5201a3c4066f451616e2602bdb36a7d" target="_top" xlink:title="Creates a new instance based on the provided serialized order event">
<polygon fill="white" stroke="black" points="279,-147.5 279,-177.5 430,-177.5 430,-147.5 279,-147.5"/>
<text text-anchor="start" x="287" y="-165.5" font-family="Helvetica,sans-Serif" font-size="10.00">QuantConnect.Orders.Order</text>
<text text-anchor="middle" x="354.5" y="-154.5" font-family="Helvetica,sans-Serif" font-size="10.00">Event.FromSerialized</text>
</a>
</g>
</g>
<!-- Node1&#45;&gt;Node3 -->
<g id="edge2" class="edge">
<title>Node1&#45;&gt;Node3</title>
<path fill="none" stroke="midnightblue" d="M494.13,-130.83C470.32,-136.27 444.24,-142.23 421.19,-147.49"/>
<polygon fill="midnightblue" stroke="midnightblue" points="495.22,-134.17 504.19,-128.53 493.66,-127.35 495.22,-134.17"/>
</g>
<!-- Node5 -->
<g id="node5" class="node">
<title>Node5</title>
<g id="a_node5"><a xlink:href="classQuantConnect_1_1Orders_1_1Order.html#a78fe84a79fafe9377035e67e22d71de8" target="_top" xlink:title="Creates a new Order instance from a SerializedOrder instance">
<polygon fill="white" stroke="black" points="278,-98.5 278,-128.5 431,-128.5 431,-98.5 278,-98.5"/>
<text text-anchor="start" x="286" y="-116.5" font-family="Helvetica,sans-Serif" font-size="10.00">QuantConnect.Orders.Order.</text>
<text text-anchor="middle" x="354.5" y="-105.5" font-family="Helvetica,sans-Serif" font-size="10.00">FromSerialized</text>
</a>
</g>
</g>
<!-- Node1&#45;&gt;Node5 -->
<g id="edge4" class="edge">
<title>Node1&#45;&gt;Node5</title>
<path fill="none" stroke="midnightblue" d="M478.58,-113.5C462.73,-113.5 446.41,-113.5 431.05,-113.5"/>
<polygon fill="midnightblue" stroke="midnightblue" points="478.91,-117 488.91,-113.5 478.91,-110 478.91,-117"/>
</g>
<!-- Node7 -->
<g id="node7" class="node">
<title>Node7</title>
<g id="a_node7"><a xlink:href="classQuantConnect_1_1Algorithm_1_1Framework_1_1Alphas_1_1Insight.html#a45c92b494352cbd2da4db9890911200f" target="_top" xlink:title="Creates a new Insight object from the specified serialized form">
<polygon fill="white" stroke="black" points="256,-49.5 256,-79.5 453,-79.5 453,-49.5 256,-49.5"/>
<text text-anchor="start" x="264" y="-67.5" font-family="Helvetica,sans-Serif" font-size="10.00">QuantConnect.Algorithm.Framework.</text>
<text text-anchor="middle" x="354.5" y="-56.5" font-family="Helvetica,sans-Serif" font-size="10.00">Alphas.Insight.FromSerializedInsight</text>
</a>
</g>
</g>
<!-- Node1&#45;&gt;Node7 -->
<g id="edge6" class="edge">
<title>Node1&#45;&gt;Node7</title>
<path fill="none" stroke="midnightblue" d="M494.13,-96.17C470.32,-90.73 444.24,-84.77 421.19,-79.51"/>
<polygon fill="midnightblue" stroke="midnightblue" points="493.66,-99.65 504.19,-98.47 495.22,-92.83 493.66,-99.65"/>
</g>
<!-- Node9 -->
<g id="node9" class="node">
<title>Node9</title>
<g id="a_node9"><a xlink:href="classQuantConnect_1_1Time.html#ac8cbc28869423f26766cb5970ae957f2" target="_top" xlink:title="Create a C# DateTime from a UnixTimestamp">
<polygon fill="white" stroke="black" points="272.5,-0.5 272.5,-30.5 436.5,-30.5 436.5,-0.5 272.5,-0.5"/>
<text text-anchor="start" x="280.5" y="-18.5" font-family="Helvetica,sans-Serif" font-size="10.00">QuantConnect.Time.UnixTime</text>
<text text-anchor="middle" x="354.5" y="-7.5" font-family="Helvetica,sans-Serif" font-size="10.00">StampToDateTime</text>
</a>
</g>
</g>
<!-- Node1&#45;&gt;Node9 -->
<g id="edge8" class="edge">
<title>Node1&#45;&gt;Node9</title>
<path fill="none" stroke="midnightblue" d="M542.2,-92.27C519.35,-75.75 485.55,-53.36 453,-39.5 445.06,-36.12 436.55,-33.15 427.98,-30.55"/>
<polygon fill="midnightblue" stroke="midnightblue" points="540.26,-95.19 550.4,-98.29 544.41,-89.55 540.26,-95.19"/>
</g>
<!-- Node4 -->
<g id="node4" class="node">
<title>Node4</title>
<g id="a_node4"><a xlink:href="classQuantConnect_1_1Orders_1_1Serialization_1_1OrderEventJsonConverter.html#ae6c48e8ac3a202ba0187ea307c82b22d" target="_top" xlink:title="Converts the input value to be deserialized">
<polygon fill="white" stroke="black" points="16,-147.5 16,-177.5 204,-177.5 204,-147.5 16,-147.5"/>
<text text-anchor="start" x="24" y="-165.5" font-family="Helvetica,sans-Serif" font-size="10.00">QuantConnect.Orders.Serialization.</text>
<text text-anchor="middle" x="110" y="-154.5" font-family="Helvetica,sans-Serif" font-size="10.00">OrderEventJsonConverter.Convert</text>
</a>
</g>
</g>
<!-- Node3&#45;&gt;Node4 -->
<g id="edge3" class="edge">
<title>Node3&#45;&gt;Node4</title>
<path fill="none" stroke="midnightblue" d="M268.69,-162.5C247.89,-162.5 225.51,-162.5 204.33,-162.5"/>
<polygon fill="midnightblue" stroke="midnightblue" points="268.76,-166 278.76,-162.5 268.76,-159 268.76,-166"/>
</g>
<!-- Node6 -->
<g id="node6" class="node">
<title>Node6</title>
<g id="a_node6"><a xlink:href="classQuantConnect_1_1Orders_1_1Serialization_1_1SerializedOrderJsonConverter.html#a6cfaeafcc6f3697d680ed0cf2dfa6a47" target="_top" xlink:title="Converts the input value to be deserialized">
<polygon fill="white" stroke="black" points="10,-98.5 10,-128.5 210,-128.5 210,-98.5 10,-98.5"/>
<text text-anchor="start" x="18" y="-116.5" font-family="Helvetica,sans-Serif" font-size="10.00">QuantConnect.Orders.Serialization.</text>
<text text-anchor="middle" x="110" y="-105.5" font-family="Helvetica,sans-Serif" font-size="10.00">SerializedOrderJsonConverter.Convert</text>
</a>
</g>
</g>
<!-- Node5&#45;&gt;Node6 -->
<g id="edge5" class="edge">
<title>Node5&#45;&gt;Node6</title>
<path fill="none" stroke="midnightblue" d="M267.59,-113.5C249.01,-113.5 229.23,-113.5 210.19,-113.5"/>
<polygon fill="midnightblue" stroke="midnightblue" points="267.77,-117 277.77,-113.5 267.77,-110 267.77,-117"/>
</g>
<!-- Node8 -->
<g id="node8" class="node">
<title>Node8</title>
<g id="a_node8"><a xlink:href="classQuantConnect_1_1Algorithm_1_1Framework_1_1Alphas_1_1Serialization_1_1InsightJsonConverter.html#af2dd7ec283dc30929df11534ca3cc274" target="_top" xlink:title="Converts the input value to be deserialized">
<polygon fill="white" stroke="black" points="0,-38 0,-79 220,-79 220,-38 0,-38"/>
<text text-anchor="start" x="8" y="-67" font-family="Helvetica,sans-Serif" font-size="10.00">QuantConnect.Algorithm.Framework.</text>
<text text-anchor="start" x="8" y="-56" font-family="Helvetica,sans-Serif" font-size="10.00">Alphas.Serialization.InsightJsonConverter.</text>
<text text-anchor="middle" x="110" y="-45" font-family="Helvetica,sans-Serif" font-size="10.00">Convert</text>
</a>
</g>
</g>
<!-- Node7&#45;&gt;Node8 -->
<g id="edge7" class="edge">
<title>Node7&#45;&gt;Node8</title>
<path fill="none" stroke="midnightblue" d="M245.69,-61.83C237.26,-61.62 228.75,-61.41 220.32,-61.2"/>
<polygon fill="midnightblue" stroke="midnightblue" points="245.83,-65.34 255.91,-62.09 246,-58.34 245.83,-65.34"/>
</g>
</g>
</svg>
        <g id="navigator" transform="translate(0 0)" fill="#404254">
                <rect fill="#f2f5e9" fill-opacity="0.5" stroke="#606060" stroke-width=".5" x="0" y="0" width="60" height="60"/>
                <use id="zoomplus" xlink:href="#zoomPlus" x="17" y="9" onmousedown="handleZoom(evt,'in')"/>
                <use id="zoomminus" xlink:href="#zoomMin" x="42" y="9" onmousedown="handleZoom(evt,'out')"/>
                <use id="reset" xlink:href="#resetDef" x="30" y="36" onmousedown="handleReset()"/>
                <g id="arrowUp" xlink:href="#dirArrow" transform="translate(30 24)" onmousedown="handlePan(0,-1)">
                  <use xlink:href="#rim" fill="#404040">
                        <set attributeName="fill" to="#808080" begin="arrowUp.mouseover" end="arrowUp.mouseout"/>
                  </use>
                  <path fill="none" stroke="white" stroke-width="1.5" d="M0,-3.0v7 M-2.5,-0.5L0,-3.0L2.5,-0.5"/>
                </g>
                <g id="arrowRight" xlink:href="#dirArrow" transform="rotate(90) translate(36 -43)" onmousedown="handlePan(1,0)">
                  <use xlink:href="#rim" fill="#404040">
                        <set attributeName="fill" to="#808080" begin="arrowRight.mouseover" end="arrowRight.mouseout"/>
                  </use>
                  <path fill="none" stroke="white" stroke-width="1.5" d="M0,-3.0v7 M-2.5,-0.5L0,-3.0L2.5,-0.5"/>
                </g>
                <g id="arrowDown" xlink:href="#dirArrow" transform="rotate(180) translate(-30 -48)" onmousedown="handlePan(0,1)">
                  <use xlink:href="#rim" fill="#404040">
                        <set attributeName="fill" to="#808080" begin="arrowDown.mouseover" end="arrowDown.mouseout"/>
                  </use>
                  <path fill="none" stroke="white" stroke-width="1.5" d="M0,-3.0v7 M-2.5,-0.5L0,-3.0L2.5,-0.5"/>
                </g>
                <g id="arrowLeft" xlink:href="#dirArrow" transform="rotate(270) translate(-36 17)" onmousedown="handlePan(-1,0)">
                  <use xlink:href="#rim" fill="#404040">
                        <set attributeName="fill" to="#808080" begin="arrowLeft.mouseover" end="arrowLeft.mouseout"/>
                  </use>
                  <path fill="none" stroke="white" stroke-width="1.5" d="M0,-3.0v7 M-2.5,-0.5L0,-3.0L2.5,-0.5"/>
                </g>
        </g>
        <svg viewBox="0 0 15 15" width="100%" height="30px" preserveAspectRatio="xMaxYMin meet">
         <g id="arrow_out" transform="scale(0.3 0.3)">
          <a xlink:href="classQuantConnect_1_1Time_a8cfbdb6709b3fff2bcf96207bbd5a718_icgraph_org.svg" target="_base">
           <rect id="button" ry="5" rx="5" y="6" x="6" height="38" width="38"
                fill="#f2f5e9" fill-opacity="0.5" stroke="#606060" stroke-width="1.0"/>
           <path id="arrow"
             d="M 11.500037,31.436501 C 11.940474,20.09759 22.043105,11.32322 32.158766,21.979434 L 37.068811,17.246167 C 37.068811,17.246167 37.088388,32 37.088388,32 L 22.160133,31.978069 C 22.160133,31.978069 26.997745,27.140456 26.997745,27.140456 C 18.528582,18.264221 13.291696,25.230495 11.500037,31.436501 z"
             style="fill:#404040;"/>
          </a>
         </g>
        </svg>
</svg>
