<?xml version="1.0" encoding="UTF-8" standalone="no"?>
<!DOCTYPE svg PUBLIC "-//W3C//DTD SVG 1.1//EN"
 "http://www.w3.org/Graphics/SVG/1.1/DTD/svg11.dtd">
<!-- Generated by graphviz version 2.43.0 (0)
 -->
<!-- Title: QuantConnect.Algorithm.QCAlgorithm.RemoveSecurity Pages: 1 -->
<svg width="1596pt" height="558pt"
 viewBox="0.00 0.00 1596.00 558.00" xmlns="http://www.w3.org/2000/svg" xmlns:xlink="http://www.w3.org/1999/xlink">
<g id="graph0" class="graph" transform="scale(1 1) rotate(0) translate(4 554)">
<title>QuantConnect.Algorithm.QCAlgorithm.RemoveSecurity</title>
<polygon fill="white" stroke="transparent" points="-4,4 -4,-554 1592,-554 1592,4 -4,4"/>
<!-- Node1 -->
<g id="node1" class="node">
<title>Node1</title>
<g id="a_node1"><a xlink:title="Removes the security with the specified symbol. This will cancel all open orders and then liquidate a...">
<polygon fill="#bfbfbf" stroke="black" points="0,-199.5 0,-229.5 205,-229.5 205,-199.5 0,-199.5"/>
<text text-anchor="start" x="8" y="-217.5" font-family="Helvetica,sans-Serif" font-size="10.00">QuantConnect.Algorithm.QCAlgorithm.</text>
<text text-anchor="middle" x="102.5" y="-206.5" font-family="Helvetica,sans-Serif" font-size="10.00">RemoveSecurity</text>
</a>
</g>
</g>
<!-- Node2 -->
<g id="node2" class="node">
<title>Node2</title>
<g id="a_node2"><a xlink:href="classQuantConnect_1_1Securities_1_1SecurityTransactionManager.html#ad21f183822521891147c190aed4fc5e2" target="_top" xlink:title="Cancels all open orders for all symbols">
<polygon fill="white" stroke="black" points="249.5,-370 249.5,-411 439.5,-411 439.5,-370 249.5,-370"/>
<text text-anchor="start" x="257.5" y="-399" font-family="Helvetica,sans-Serif" font-size="10.00">QuantConnect.Securities.</text>
<text text-anchor="start" x="257.5" y="-388" font-family="Helvetica,sans-Serif" font-size="10.00">SecurityTransactionManager.Cancel</text>
<text text-anchor="middle" x="344.5" y="-377" font-family="Helvetica,sans-Serif" font-size="10.00">OpenOrders</text>
</a>
</g>
</g>
<!-- Node1&#45;&gt;Node2 -->
<g id="edge1" class="edge">
<title>Node1&#45;&gt;Node2</title>
<path fill="none" stroke="midnightblue" d="M116.17,-229.63C138.9,-256.02 189.13,-310.96 241,-345.5 252.39,-353.08 265.27,-359.9 277.95,-365.8"/>
<polygon fill="midnightblue" stroke="midnightblue" points="276.58,-369.02 287.13,-369.93 279.45,-362.63 276.58,-369.02"/>
</g>
<!-- Node4 -->
<g id="node4" class="node">
<title>Node4</title>
<g id="a_node4"><a xlink:href="classQuantConnect_1_1Data_1_1UniverseSelection_1_1ContinuousContractUniverse.html#a8936fedb0ce5c206ac4bb0751c449552" target="_top" xlink:title="Creates a continuous universe symbol">
<polygon fill="white" stroke="black" points="241,-295 241,-336 448,-336 448,-295 241,-295"/>
<text text-anchor="start" x="249" y="-324" font-family="Helvetica,sans-Serif" font-size="10.00">QuantConnect.Data.Universe</text>
<text text-anchor="start" x="249" y="-313" font-family="Helvetica,sans-Serif" font-size="10.00">Selection.ContinuousContractUniverse.</text>
<text text-anchor="middle" x="344.5" y="-302" font-family="Helvetica,sans-Serif" font-size="10.00">CreateSymbol</text>
</a>
</g>
</g>
<!-- Node1&#45;&gt;Node4 -->
<g id="edge3" class="edge">
<title>Node1&#45;&gt;Node4</title>
<path fill="none" stroke="midnightblue" d="M139.17,-229.51C177.69,-245.72 239.66,-271.8 285.27,-290.99"/>
<polygon fill="midnightblue" stroke="midnightblue" points="284.16,-294.33 294.74,-294.98 286.88,-287.87 284.16,-294.33"/>
</g>
<!-- Node16 -->
<g id="node16" class="node">
<title>Node16</title>
<g id="a_node16"><a xlink:href="classQuantConnect_1_1Symbol.html#a1f3c25223fd9a7b753a4f84ece6469ab" target="_top" xlink:title="Method returns true, if symbol is a derivative canonical symbol">
<polygon fill="white" stroke="black" points="252,-227 252,-246 437,-246 437,-227 252,-227"/>
<text text-anchor="middle" x="344.5" y="-234" font-family="Helvetica,sans-Serif" font-size="10.00">QuantConnect.Symbol.IsCanonical</text>
</a>
</g>
</g>
<!-- Node1&#45;&gt;Node16 -->
<g id="edge15" class="edge">
<title>Node1&#45;&gt;Node16</title>
<path fill="none" stroke="midnightblue" d="M205.28,-223.83C217.36,-224.94 229.69,-226.07 241.76,-227.17"/>
<polygon fill="midnightblue" stroke="midnightblue" points="241.56,-230.67 251.84,-228.1 242.2,-223.7 241.56,-230.67"/>
</g>
<!-- Node17 -->
<g id="node17" class="node">
<title>Node17</title>
<g id="a_node17"><a xlink:href="classQuantConnect_1_1Algorithm_1_1QCAlgorithm.html#a508fd4e5eb28d4280af51f647994d6ee" target="_top" xlink:title="Liquidate all holdings and cancel open orders. Called at the end of day for tick&#45;strategies.">
<polygon fill="white" stroke="black" points="242,-177.5 242,-207.5 447,-207.5 447,-177.5 242,-177.5"/>
<text text-anchor="start" x="250" y="-195.5" font-family="Helvetica,sans-Serif" font-size="10.00">QuantConnect.Algorithm.QCAlgorithm.</text>
<text text-anchor="middle" x="344.5" y="-184.5" font-family="Helvetica,sans-Serif" font-size="10.00">Liquidate</text>
</a>
</g>
</g>
<!-- Node1&#45;&gt;Node17 -->
<g id="edge16" class="edge">
<title>Node1&#45;&gt;Node17</title>
<path fill="none" stroke="midnightblue" d="M205.28,-205.17C214.1,-204.36 223.05,-203.54 231.94,-202.73"/>
<polygon fill="midnightblue" stroke="midnightblue" points="232.31,-206.21 241.94,-201.81 231.67,-199.24 232.31,-206.21"/>
</g>
<!-- Node32 -->
<g id="node32" class="node">
<title>Node32</title>
<g id="a_node32"><a xlink:href="classQuantConnect_1_1Securities_1_1UniverseManager.html#a836a9f06d5e6539c66b3dd9712045996" target="_top" xlink:title="Removes the first occurrence of a specific object from the T:System.Collections.Generic....">
<polygon fill="white" stroke="black" points="271.5,-128.5 271.5,-158.5 417.5,-158.5 417.5,-128.5 271.5,-128.5"/>
<text text-anchor="start" x="279.5" y="-146.5" font-family="Helvetica,sans-Serif" font-size="10.00">QuantConnect.Securities.</text>
<text text-anchor="middle" x="344.5" y="-135.5" font-family="Helvetica,sans-Serif" font-size="10.00">UniverseManager.Remove</text>
</a>
</g>
</g>
<!-- Node1&#45;&gt;Node32 -->
<g id="edge31" class="edge">
<title>Node1&#45;&gt;Node32</title>
<path fill="none" stroke="midnightblue" d="M145.34,-199.49C172.44,-190.02 208.59,-177.86 241,-168.5 249.79,-165.96 259.05,-163.46 268.26,-161.09"/>
<polygon fill="midnightblue" stroke="midnightblue" points="269.39,-164.41 278.22,-158.56 267.66,-157.63 269.39,-164.41"/>
</g>
<!-- Node33 -->
<g id="node33" class="node">
<title>Node33</title>
<g id="a_node33"><a xlink:href="classQuantConnect_1_1Securities_1_1SecurityManager.html#af3ad97e370ceec706ac1afe70f7fbb42" target="_top" xlink:title="Try and get this security object with matching symbol and return true on success.">
<polygon fill="white" stroke="black" points="264.5,-79.5 264.5,-109.5 424.5,-109.5 424.5,-79.5 264.5,-79.5"/>
<text text-anchor="start" x="272.5" y="-97.5" font-family="Helvetica,sans-Serif" font-size="10.00">QuantConnect.Securities.</text>
<text text-anchor="middle" x="344.5" y="-86.5" font-family="Helvetica,sans-Serif" font-size="10.00">SecurityManager.TryGetValue</text>
</a>
</g>
</g>
<!-- Node1&#45;&gt;Node33 -->
<g id="edge32" class="edge">
<title>Node1&#45;&gt;Node33</title>
<path fill="none" stroke="midnightblue" d="M120.42,-199.43C145.15,-178.21 193.41,-139.74 241,-118.5 245.68,-116.41 250.56,-114.49 255.55,-112.73"/>
<polygon fill="midnightblue" stroke="midnightblue" points="256.84,-115.99 265.24,-109.54 254.64,-109.35 256.84,-115.99"/>
</g>
<!-- Node3 -->
<g id="node3" class="node">
<title>Node3</title>
<g id="a_node3"><a xlink:href="classQuantConnect_1_1Securities_1_1SecurityTransactionManager.html#a40a5adc0c964d6f0f472f93fc56d4d53" target="_top" xlink:title="Get an enumerable of open OrderTicket for the specified symbol">
<polygon fill="white" stroke="black" points="505.5,-378 505.5,-419 679.5,-419 679.5,-378 505.5,-378"/>
<text text-anchor="start" x="513.5" y="-407" font-family="Helvetica,sans-Serif" font-size="10.00">QuantConnect.Securities.</text>
<text text-anchor="start" x="513.5" y="-396" font-family="Helvetica,sans-Serif" font-size="10.00">SecurityTransactionManager.Get</text>
<text text-anchor="middle" x="592.5" y="-385" font-family="Helvetica,sans-Serif" font-size="10.00">OpenOrderTickets</text>
</a>
</g>
</g>
<!-- Node2&#45;&gt;Node3 -->
<g id="edge2" class="edge">
<title>Node2&#45;&gt;Node3</title>
<path fill="none" stroke="midnightblue" d="M439.56,-393.56C457.75,-394.15 476.84,-394.77 495.11,-395.37"/>
<polygon fill="midnightblue" stroke="midnightblue" points="495.06,-398.87 505.17,-395.69 495.29,-391.87 495.06,-398.87"/>
</g>
<!-- Node5 -->
<g id="node5" class="node">
<title>Node5</title>
<g id="a_node5"><a xlink:href="classQuantConnect_1_1Data_1_1UniverseSelection_1_1UniverseExtensions.html#a3c3f2f38446c96bf7e5e2a66d77f6bf3" target="_top" xlink:title="Creates a universe symbol">
<polygon fill="white" stroke="black" points="494,-318 494,-359 691,-359 691,-318 494,-318"/>
<text text-anchor="start" x="502" y="-347" font-family="Helvetica,sans-Serif" font-size="10.00">QuantConnect.Data.Universe</text>
<text text-anchor="start" x="502" y="-336" font-family="Helvetica,sans-Serif" font-size="10.00">Selection.UniverseExtensions.Create</text>
<text text-anchor="middle" x="592.5" y="-325" font-family="Helvetica,sans-Serif" font-size="10.00">Symbol</text>
</a>
</g>
</g>
<!-- Node4&#45;&gt;Node5 -->
<g id="edge4" class="edge">
<title>Node4&#45;&gt;Node5</title>
<path fill="none" stroke="midnightblue" d="M448.04,-325.09C459.77,-326.18 471.75,-327.3 483.55,-328.41"/>
<polygon fill="midnightblue" stroke="midnightblue" points="483.57,-331.92 493.85,-329.37 484.22,-324.95 483.57,-331.92"/>
</g>
<!-- Node6 -->
<g id="node6" class="node">
<title>Node6</title>
<g id="a_node6"><a xlink:href="classQuantConnect_1_1SecurityIdentifier.html#a02ca750115844561c001c2346fbafc00" target="_top" xlink:title="Generates a new SecurityIdentifier for a custom security with the option of providing the first date">
<polygon fill="white" stroke="black" points="762,-519.5 762,-549.5 936,-549.5 936,-519.5 762,-519.5"/>
<text text-anchor="start" x="770" y="-537.5" font-family="Helvetica,sans-Serif" font-size="10.00">QuantConnect.SecurityIdentifier.</text>
<text text-anchor="middle" x="849" y="-526.5" font-family="Helvetica,sans-Serif" font-size="10.00">GenerateBase</text>
</a>
</g>
</g>
<!-- Node5&#45;&gt;Node6 -->
<g id="edge5" class="edge">
<title>Node5&#45;&gt;Node6</title>
<path fill="none" stroke="midnightblue" d="M689.86,-359.23C693.87,-361.96 697.62,-365.03 701,-368.5 746.49,-415.08 690.16,-465.28 737,-510.5 741.65,-514.99 746.94,-518.73 752.62,-521.83"/>
<polygon fill="midnightblue" stroke="midnightblue" points="751.29,-525.07 761.83,-526.19 754.29,-518.75 751.29,-525.07"/>
</g>
<!-- Node8 -->
<g id="node8" class="node">
<title>Node8</title>
<g id="a_node8"><a xlink:href="classQuantConnect_1_1SecurityIdentifier.html#a53953b18d814c5445e4ecdcb3b555080" target="_top" xlink:title="Generates a new SecurityIdentifier for a CFD security">
<polygon fill="white" stroke="black" points="762,-470.5 762,-500.5 936,-500.5 936,-470.5 762,-470.5"/>
<text text-anchor="start" x="770" y="-488.5" font-family="Helvetica,sans-Serif" font-size="10.00">QuantConnect.SecurityIdentifier.</text>
<text text-anchor="middle" x="849" y="-477.5" font-family="Helvetica,sans-Serif" font-size="10.00">GenerateCfd</text>
</a>
</g>
</g>
<!-- Node5&#45;&gt;Node8 -->
<g id="edge7" class="edge">
<title>Node5&#45;&gt;Node8</title>
<path fill="none" stroke="midnightblue" d="M688.36,-359.13C692.87,-361.88 697.13,-364.98 701,-368.5 733.83,-398.28 703.31,-432.7 737,-461.5 741.66,-465.48 746.82,-468.85 752.29,-471.69"/>
<polygon fill="midnightblue" stroke="midnightblue" points="751.22,-475.05 761.77,-476 754.12,-468.68 751.22,-475.05"/>
</g>
<!-- Node9 -->
<g id="node9" class="node">
<title>Node9</title>
<g id="a_node9"><a xlink:href="classQuantConnect_1_1SecurityIdentifier.html#a5889a95a36ce927dd0a109cbfbcbe663" target="_top" xlink:title="Generates a new SecurityIdentifier for a Crypto pair">
<polygon fill="white" stroke="black" points="762,-421.5 762,-451.5 936,-451.5 936,-421.5 762,-421.5"/>
<text text-anchor="start" x="770" y="-439.5" font-family="Helvetica,sans-Serif" font-size="10.00">QuantConnect.SecurityIdentifier.</text>
<text text-anchor="middle" x="849" y="-428.5" font-family="Helvetica,sans-Serif" font-size="10.00">GenerateCrypto</text>
</a>
</g>
</g>
<!-- Node5&#45;&gt;Node9 -->
<g id="edge8" class="edge">
<title>Node5&#45;&gt;Node9</title>
<path fill="none" stroke="midnightblue" d="M683.64,-359.05C689.71,-361.82 695.57,-364.95 701,-368.5 722.15,-382.32 715.45,-399.31 737,-412.5 741.78,-415.43 746.87,-418 752.14,-420.26"/>
<polygon fill="midnightblue" stroke="midnightblue" points="751.21,-423.65 761.79,-424 753.74,-417.12 751.21,-423.65"/>
</g>
<!-- Node10 -->
<g id="node10" class="node">
<title>Node10</title>
<g id="a_node10"><a xlink:href="classQuantConnect_1_1SecurityIdentifier.html#a0c21d7880c9fdd260883d11ea0c99a00" target="_top" xlink:title="Helper overload that will search the mapfiles to resolve the first date. This implementation uses the...">
<polygon fill="white" stroke="black" points="762,-372.5 762,-402.5 936,-402.5 936,-372.5 762,-372.5"/>
<text text-anchor="start" x="770" y="-390.5" font-family="Helvetica,sans-Serif" font-size="10.00">QuantConnect.SecurityIdentifier.</text>
<text text-anchor="middle" x="849" y="-379.5" font-family="Helvetica,sans-Serif" font-size="10.00">GenerateEquity</text>
</a>
</g>
</g>
<!-- Node5&#45;&gt;Node10 -->
<g id="edge9" class="edge">
<title>Node5&#45;&gt;Node10</title>
<path fill="none" stroke="midnightblue" d="M691.17,-357.3C713.78,-361.66 737.71,-366.26 759.88,-370.53"/>
<polygon fill="midnightblue" stroke="midnightblue" points="759.45,-374.02 769.93,-372.47 760.78,-367.14 759.45,-374.02"/>
</g>
<!-- Node11 -->
<g id="node11" class="node">
<title>Node11</title>
<g id="a_node11"><a xlink:href="classQuantConnect_1_1SecurityIdentifier.html#a9cf0d3b208a5171e6112516ce441f18d" target="_top" xlink:title="Generates a new SecurityIdentifier for a forex pair">
<polygon fill="white" stroke="black" points="762,-323.5 762,-353.5 936,-353.5 936,-323.5 762,-323.5"/>
<text text-anchor="start" x="770" y="-341.5" font-family="Helvetica,sans-Serif" font-size="10.00">QuantConnect.SecurityIdentifier.</text>
<text text-anchor="middle" x="849" y="-330.5" font-family="Helvetica,sans-Serif" font-size="10.00">GenerateForex</text>
</a>
</g>
</g>
<!-- Node5&#45;&gt;Node11 -->
<g id="edge10" class="edge">
<title>Node5&#45;&gt;Node11</title>
<path fill="none" stroke="midnightblue" d="M691.17,-338.5C710.98,-338.5 731.81,-338.5 751.58,-338.5"/>
<polygon fill="midnightblue" stroke="midnightblue" points="751.82,-342 761.82,-338.5 751.82,-335 751.82,-342"/>
</g>
<!-- Node12 -->
<g id="node12" class="node">
<title>Node12</title>
<g id="a_node12"><a xlink:href="classQuantConnect_1_1SecurityIdentifier.html#ad50a891c97cb0c084a9e2aa43607ed66" target="_top" xlink:title="Generates a new SecurityIdentifier for a future">
<polygon fill="white" stroke="black" points="762,-274.5 762,-304.5 936,-304.5 936,-274.5 762,-274.5"/>
<text text-anchor="start" x="770" y="-292.5" font-family="Helvetica,sans-Serif" font-size="10.00">QuantConnect.SecurityIdentifier.</text>
<text text-anchor="middle" x="849" y="-281.5" font-family="Helvetica,sans-Serif" font-size="10.00">GenerateFuture</text>
</a>
</g>
</g>
<!-- Node5&#45;&gt;Node12 -->
<g id="edge11" class="edge">
<title>Node5&#45;&gt;Node12</title>
<path fill="none" stroke="midnightblue" d="M691.17,-319.7C713.78,-315.34 737.71,-310.74 759.88,-306.47"/>
<polygon fill="midnightblue" stroke="midnightblue" points="760.78,-309.86 769.93,-304.53 759.45,-302.98 760.78,-309.86"/>
</g>
<!-- Node13 -->
<g id="node13" class="node">
<title>Node13</title>
<g id="a_node13"><a xlink:href="classQuantConnect_1_1SecurityIdentifier.html#ade05a8e57b041ab484cf585be8d05699" target="_top" xlink:title="Generates a new SecurityIdentifier for a INDEX security">
<polygon fill="white" stroke="black" points="762,-225.5 762,-255.5 936,-255.5 936,-225.5 762,-225.5"/>
<text text-anchor="start" x="770" y="-243.5" font-family="Helvetica,sans-Serif" font-size="10.00">QuantConnect.SecurityIdentifier.</text>
<text text-anchor="middle" x="849" y="-232.5" font-family="Helvetica,sans-Serif" font-size="10.00">GenerateIndex</text>
</a>
</g>
</g>
<!-- Node5&#45;&gt;Node13 -->
<g id="edge12" class="edge">
<title>Node5&#45;&gt;Node13</title>
<path fill="none" stroke="midnightblue" d="M683.6,-317.88C689.68,-315.13 695.55,-312.02 701,-308.5 721.94,-294.99 715.72,-278.48 737,-265.5 741.8,-262.58 746.9,-259.99 752.17,-257.71"/>
<polygon fill="midnightblue" stroke="midnightblue" points="753.81,-260.83 761.84,-253.92 751.25,-254.31 753.81,-260.83"/>
</g>
<!-- Node14 -->
<g id="node14" class="node">
<title>Node14</title>
<g id="a_node14"><a xlink:href="classQuantConnect_1_1SecurityIdentifier.html#a58becf4433a3155807bc4959679ccca7" target="_top" xlink:title="Generates a new SecurityIdentifier for an option">
<polygon fill="white" stroke="black" points="762,-176.5 762,-206.5 936,-206.5 936,-176.5 762,-176.5"/>
<text text-anchor="start" x="770" y="-194.5" font-family="Helvetica,sans-Serif" font-size="10.00">QuantConnect.SecurityIdentifier.</text>
<text text-anchor="middle" x="849" y="-183.5" font-family="Helvetica,sans-Serif" font-size="10.00">GenerateOption</text>
</a>
</g>
</g>
<!-- Node5&#45;&gt;Node14 -->
<g id="edge13" class="edge">
<title>Node5&#45;&gt;Node14</title>
<path fill="none" stroke="midnightblue" d="M688.35,-317.85C692.86,-315.11 697.12,-312.01 701,-308.5 733.57,-279.06 703.69,-245.11 737,-216.5 741.66,-212.5 746.82,-209.1 752.29,-206.22"/>
<polygon fill="midnightblue" stroke="midnightblue" points="754.16,-209.22 761.77,-201.84 751.22,-202.86 754.16,-209.22"/>
</g>
<!-- Node7 -->
<g id="node7" class="node">
<title>Node7</title>
<g id="a_node7"><a xlink:href="classQuantConnect_1_1SecurityIdentifier.html#a19e1f9da410608020d74ed9e7d283575" target="_top" xlink:title="Generates the Symbol property for QuantConnect.SecurityType.Base security identifiers">
<polygon fill="white" stroke="black" points="1007,-519.5 1007,-549.5 1181,-549.5 1181,-519.5 1007,-519.5"/>
<text text-anchor="start" x="1015" y="-537.5" font-family="Helvetica,sans-Serif" font-size="10.00">QuantConnect.SecurityIdentifier.</text>
<text text-anchor="middle" x="1094" y="-526.5" font-family="Helvetica,sans-Serif" font-size="10.00">GenerateBaseSymbol</text>
</a>
</g>
</g>
<!-- Node6&#45;&gt;Node7 -->
<g id="edge6" class="edge">
<title>Node6&#45;&gt;Node7</title>
<path fill="none" stroke="midnightblue" d="M936.01,-534.5C955.64,-534.5 976.61,-534.5 996.64,-534.5"/>
<polygon fill="midnightblue" stroke="midnightblue" points="996.69,-538 1006.69,-534.5 996.69,-531 996.69,-538"/>
</g>
<!-- Node15 -->
<g id="node15" class="node">
<title>Node15</title>
<g id="a_node15"><a xlink:href="classQuantConnect_1_1Symbol.html#ae4c4c626fa68f4bc1e67e5ee8d9870fc" target="_top" xlink:title="Determines the SecurityType based on the underlying Symbol&#39;s SecurityType">
<polygon fill="white" stroke="black" points="1005,-178.5 1005,-208.5 1183,-208.5 1183,-178.5 1005,-178.5"/>
<text text-anchor="start" x="1013" y="-196.5" font-family="Helvetica,sans-Serif" font-size="10.00">QuantConnect.Symbol.GetOption</text>
<text text-anchor="middle" x="1094" y="-185.5" font-family="Helvetica,sans-Serif" font-size="10.00">TypeFromUnderlying</text>
</a>
</g>
</g>
<!-- Node14&#45;&gt;Node15 -->
<g id="edge14" class="edge">
<title>Node14&#45;&gt;Node15</title>
<path fill="none" stroke="midnightblue" d="M936.01,-192.21C954.97,-192.36 975.18,-192.53 994.58,-192.69"/>
<polygon fill="midnightblue" stroke="midnightblue" points="994.61,-196.19 1004.64,-192.77 994.67,-189.19 994.61,-196.19"/>
</g>
<!-- Node18 -->
<g id="node18" class="node">
<title>Node18</title>
<g id="a_node18"><a xlink:href="classQuantConnect_1_1Securities_1_1SecurityTransactionManager.html#a55a9fd6793fffa2a3b897bb3e72d6674" target="_top" xlink:title="Added alias for RemoveOrder &#45;">
<polygon fill="white" stroke="black" points="484,-268.5 484,-298.5 701,-298.5 701,-268.5 484,-268.5"/>
<text text-anchor="start" x="492" y="-286.5" font-family="Helvetica,sans-Serif" font-size="10.00">QuantConnect.Securities.</text>
<text text-anchor="middle" x="592.5" y="-275.5" font-family="Helvetica,sans-Serif" font-size="10.00">SecurityTransactionManager.CancelOrder</text>
</a>
</g>
</g>
<!-- Node17&#45;&gt;Node18 -->
<g id="edge17" class="edge">
<title>Node17&#45;&gt;Node18</title>
<path fill="none" stroke="midnightblue" d="M427.68,-207.57C434.79,-210.34 441.68,-213.62 448,-217.5 468.95,-230.37 462.92,-246.84 484,-259.5 486.87,-261.22 489.85,-262.82 492.91,-264.31"/>
<polygon fill="midnightblue" stroke="midnightblue" points="491.74,-267.62 502.31,-268.43 494.55,-261.21 491.74,-267.62"/>
</g>
<!-- Node26 -->
<g id="node26" class="node">
<title>Node26</title>
<g id="a_node26"><a xlink:href="classQuantConnect_1_1Securities_1_1SecurityManager.html#ac53ed019a68266ecfa144ab91162b6cb" target="_top" xlink:title="Check if this collection contains this symbol.">
<polygon fill="white" stroke="black" points="511.5,-219.5 511.5,-249.5 673.5,-249.5 673.5,-219.5 511.5,-219.5"/>
<text text-anchor="start" x="519.5" y="-237.5" font-family="Helvetica,sans-Serif" font-size="10.00">QuantConnect.Securities.</text>
<text text-anchor="middle" x="592.5" y="-226.5" font-family="Helvetica,sans-Serif" font-size="10.00">SecurityManager.ContainsKey</text>
</a>
</g>
</g>
<!-- Node17&#45;&gt;Node26 -->
<g id="edge25" class="edge">
<title>Node17&#45;&gt;Node26</title>
<path fill="none" stroke="midnightblue" d="M433.62,-207.54C455.61,-211.3 479.24,-215.33 501.33,-219.11"/>
<polygon fill="midnightblue" stroke="midnightblue" points="500.92,-222.59 511.37,-220.82 502.1,-215.69 500.92,-222.59"/>
</g>
<!-- Node27 -->
<g id="node27" class="node">
<title>Node27</title>
<g id="a_node27"><a xlink:href="classQuantConnect_1_1Algorithm_1_1QCAlgorithm.html#a16bd52d937ab647c889e8d5f6577f744" target="_top" xlink:title="Send a debug message to the web console:">
<polygon fill="white" stroke="black" points="490,-170.5 490,-200.5 695,-200.5 695,-170.5 490,-170.5"/>
<text text-anchor="start" x="498" y="-188.5" font-family="Helvetica,sans-Serif" font-size="10.00">QuantConnect.Algorithm.QCAlgorithm.</text>
<text text-anchor="middle" x="592.5" y="-177.5" font-family="Helvetica,sans-Serif" font-size="10.00">Debug</text>
</a>
</g>
</g>
<!-- Node17&#45;&gt;Node27 -->
<g id="edge26" class="edge">
<title>Node17&#45;&gt;Node27</title>
<path fill="none" stroke="midnightblue" d="M447.33,-189.6C457.95,-189.3 468.79,-188.99 479.51,-188.69"/>
<polygon fill="midnightblue" stroke="midnightblue" points="479.85,-192.18 489.74,-188.4 479.65,-185.18 479.85,-192.18"/>
</g>
<!-- Node28 -->
<g id="node28" class="node">
<title>Node28</title>
<g id="a_node28"><a xlink:href="classQuantConnect_1_1Securities_1_1SecurityTransactionManager.html#a09717090ee95e9f5cc1c655e3793c070" target="_top" xlink:title="Get a list of all open orders for a symbol.">
<polygon fill="white" stroke="black" points="505.5,-110 505.5,-151 679.5,-151 679.5,-110 505.5,-110"/>
<text text-anchor="start" x="513.5" y="-139" font-family="Helvetica,sans-Serif" font-size="10.00">QuantConnect.Securities.</text>
<text text-anchor="start" x="513.5" y="-128" font-family="Helvetica,sans-Serif" font-size="10.00">SecurityTransactionManager.Get</text>
<text text-anchor="middle" x="592.5" y="-117" font-family="Helvetica,sans-Serif" font-size="10.00">OpenOrders</text>
</a>
</g>
</g>
<!-- Node17&#45;&gt;Node28 -->
<g id="edge27" class="edge">
<title>Node17&#45;&gt;Node28</title>
<path fill="none" stroke="midnightblue" d="M410.91,-177.48C423.25,-174.57 436.03,-171.49 448,-168.5 466.74,-163.83 486.8,-158.63 505.81,-153.62"/>
<polygon fill="midnightblue" stroke="midnightblue" points="506.87,-156.96 515.64,-151.03 505.08,-150.2 506.87,-156.96"/>
</g>
<!-- Node29 -->
<g id="node29" class="node">
<title>Node29</title>
<g id="a_node29"><a xlink:href="classQuantConnect_1_1Securities_1_1SecurityTransactionManager.html#ab2d222cc403ed3c9445f691c851dd232" target="_top" xlink:title="Gets the order ticket for the specified order id. Returns null if not found">
<polygon fill="white" stroke="black" points="505.5,-50 505.5,-91 679.5,-91 679.5,-50 505.5,-50"/>
<text text-anchor="start" x="513.5" y="-79" font-family="Helvetica,sans-Serif" font-size="10.00">QuantConnect.Securities.</text>
<text text-anchor="start" x="513.5" y="-68" font-family="Helvetica,sans-Serif" font-size="10.00">SecurityTransactionManager.Get</text>
<text text-anchor="middle" x="592.5" y="-57" font-family="Helvetica,sans-Serif" font-size="10.00">OrderTicket</text>
</a>
</g>
</g>
<!-- Node17&#45;&gt;Node29 -->
<g id="edge28" class="edge">
<title>Node17&#45;&gt;Node29</title>
<path fill="none" stroke="midnightblue" d="M433.46,-177.49C438.61,-174.93 443.51,-171.96 448,-168.5 475.08,-147.62 457.37,-121.95 484,-100.5 487.81,-97.43 491.91,-94.68 496.21,-92.21"/>
<polygon fill="midnightblue" stroke="midnightblue" points="498.01,-95.22 505.29,-87.52 494.8,-89 498.01,-95.22"/>
</g>
<!-- Node31 -->
<g id="node31" class="node">
<title>Node31</title>
<g id="a_node31"><a xlink:href="classQuantConnect_1_1Algorithm_1_1QCAlgorithm.html#addc408ce5bfb42cbe76d7098fbe7375f" target="_top" xlink:title="Issue an order/trade for asset: Alias wrapper for Order(string, int);">
<polygon fill="white" stroke="black" points="490,-0.5 490,-30.5 695,-30.5 695,-0.5 490,-0.5"/>
<text text-anchor="start" x="498" y="-18.5" font-family="Helvetica,sans-Serif" font-size="10.00">QuantConnect.Algorithm.QCAlgorithm.</text>
<text text-anchor="middle" x="592.5" y="-7.5" font-family="Helvetica,sans-Serif" font-size="10.00">Order</text>
</a>
</g>
</g>
<!-- Node17&#45;&gt;Node31 -->
<g id="edge30" class="edge">
<title>Node17&#45;&gt;Node31</title>
<path fill="none" stroke="midnightblue" d="M436.26,-177.43C440.48,-174.87 444.43,-171.91 448,-168.5 490.7,-127.65 441.27,-81.32 484,-40.5 485.51,-39.06 487.08,-37.7 488.71,-36.41"/>
<polygon fill="midnightblue" stroke="midnightblue" points="491.01,-39.08 497.3,-30.56 487.07,-33.29 491.01,-39.08"/>
</g>
<!-- Node19 -->
<g id="node19" class="node">
<title>Node19</title>
<g id="a_node19"><a xlink:href="classQuantConnect_1_1Securities_1_1SecurityTransactionManager.html#a6fe591d16ed8ad4a34c018ddcf8111b1" target="_top" xlink:title="Remove this order from outstanding queue: user is requesting a cancel.">
<polygon fill="white" stroke="black" points="737,-124.5 737,-154.5 961,-154.5 961,-124.5 737,-124.5"/>
<text text-anchor="start" x="745" y="-142.5" font-family="Helvetica,sans-Serif" font-size="10.00">QuantConnect.Securities.</text>
<text text-anchor="middle" x="849" y="-131.5" font-family="Helvetica,sans-Serif" font-size="10.00">SecurityTransactionManager.RemoveOrder</text>
</a>
</g>
</g>
<!-- Node18&#45;&gt;Node19 -->
<g id="edge18" class="edge">
<title>Node18&#45;&gt;Node19</title>
<path fill="none" stroke="midnightblue" d="M688,-268.45C692.63,-265.89 697.01,-262.92 701,-259.5 734.33,-230.92 704.06,-196.53 737,-167.5 740.4,-164.5 744.09,-161.81 747.97,-159.4"/>
<polygon fill="midnightblue" stroke="midnightblue" points="749.68,-162.46 756.75,-154.57 746.3,-156.32 749.68,-162.46"/>
</g>
<!-- Node20 -->
<g id="node20" class="node">
<title>Node20</title>
<g id="a_node20"><a xlink:href="classQuantConnect_1_1Securities_1_1SecurityTransactionManager.html#a136cdc31b644e087e48f4f986e8c064b" target="_top" xlink:title="Processes the order request">
<polygon fill="white" stroke="black" points="997,-118 997,-159 1191,-159 1191,-118 997,-118"/>
<text text-anchor="start" x="1005" y="-147" font-family="Helvetica,sans-Serif" font-size="10.00">QuantConnect.Securities.</text>
<text text-anchor="start" x="1005" y="-136" font-family="Helvetica,sans-Serif" font-size="10.00">SecurityTransactionManager.Process</text>
<text text-anchor="middle" x="1094" y="-125" font-family="Helvetica,sans-Serif" font-size="10.00">Request</text>
</a>
</g>
</g>
<!-- Node19&#45;&gt;Node20 -->
<g id="edge19" class="edge">
<title>Node19&#45;&gt;Node20</title>
<path fill="none" stroke="midnightblue" d="M961.19,-139.04C969.63,-139.01 978.14,-138.97 986.55,-138.94"/>
<polygon fill="midnightblue" stroke="midnightblue" points="986.76,-142.44 996.74,-138.9 986.73,-135.44 986.76,-142.44"/>
</g>
<!-- Node21 -->
<g id="node21" class="node">
<title>Node21</title>
<g id="a_node21"><a xlink:href="classQuantConnect_1_1Securities_1_1SecurityTransactionManager.html#a470623a731aa5e8e241518af157c9ffe" target="_top" xlink:title="Get a new order id, and increment the internal counter.">
<polygon fill="white" stroke="black" points="1227,-198 1227,-239 1401,-239 1401,-198 1227,-198"/>
<text text-anchor="start" x="1235" y="-227" font-family="Helvetica,sans-Serif" font-size="10.00">QuantConnect.Securities.</text>
<text text-anchor="start" x="1235" y="-216" font-family="Helvetica,sans-Serif" font-size="10.00">SecurityTransactionManager.Get</text>
<text text-anchor="middle" x="1314" y="-205" font-family="Helvetica,sans-Serif" font-size="10.00">IncrementOrderId</text>
</a>
</g>
</g>
<!-- Node20&#45;&gt;Node21 -->
<g id="edge20" class="edge">
<title>Node20&#45;&gt;Node21</title>
<path fill="none" stroke="midnightblue" d="M1163.71,-159.08C1172.98,-162.32 1182.29,-165.83 1191,-169.5 1207.67,-176.53 1210.41,-181.28 1227,-188.5 1231.59,-190.5 1236.37,-192.46 1241.21,-194.37"/>
<polygon fill="midnightblue" stroke="midnightblue" points="1239.98,-197.65 1250.57,-197.96 1242.48,-191.11 1239.98,-197.65"/>
</g>
<!-- Node22 -->
<g id="node22" class="node">
<title>Node22</title>
<g id="a_node22"><a xlink:href="interfaceQuantConnect_1_1Securities_1_1IOrderProcessor.html#a153e85c4defb70ea096de8e35c340f4e" target="_top" xlink:title="Adds the specified order to be processed">
<polygon fill="white" stroke="black" points="1244,-148.5 1244,-178.5 1384,-178.5 1384,-148.5 1244,-148.5"/>
<text text-anchor="start" x="1252" y="-166.5" font-family="Helvetica,sans-Serif" font-size="10.00">QuantConnect.Securities.</text>
<text text-anchor="middle" x="1314" y="-155.5" font-family="Helvetica,sans-Serif" font-size="10.00">IOrderProcessor.Process</text>
</a>
</g>
</g>
<!-- Node20&#45;&gt;Node22 -->
<g id="edge21" class="edge">
<title>Node20&#45;&gt;Node22</title>
<path fill="none" stroke="midnightblue" d="M1191.25,-149.54C1205.34,-151.15 1219.72,-152.8 1233.42,-154.37"/>
<polygon fill="midnightblue" stroke="midnightblue" points="1233.42,-157.9 1243.76,-155.56 1234.22,-150.94 1233.42,-157.9"/>
</g>
<!-- Node23 -->
<g id="node23" class="node">
<title>Node23</title>
<g id="a_node23"><a xlink:href="classQuantConnect_1_1Orders_1_1OrderResponse.html#aee85b2e31d5c1887ec0cfa15568777c9" target="_top" xlink:title="Returns a string that represents the current object.">
<polygon fill="white" stroke="black" points="1238.5,-99.5 1238.5,-129.5 1389.5,-129.5 1389.5,-99.5 1238.5,-99.5"/>
<text text-anchor="start" x="1246.5" y="-117.5" font-family="Helvetica,sans-Serif" font-size="10.00">QuantConnect.Orders.Order</text>
<text text-anchor="middle" x="1314" y="-106.5" font-family="Helvetica,sans-Serif" font-size="10.00">Response.ToString</text>
</a>
</g>
</g>
<!-- Node20&#45;&gt;Node23 -->
<g id="edge22" class="edge">
<title>Node20&#45;&gt;Node23</title>
<path fill="none" stroke="midnightblue" d="M1191.25,-127.9C1203.55,-126.55 1216.07,-125.17 1228.16,-123.84"/>
<polygon fill="midnightblue" stroke="midnightblue" points="1228.66,-127.31 1238.22,-122.73 1227.89,-120.35 1228.66,-127.31"/>
</g>
<!-- Node24 -->
<g id="node24" class="node">
<title>Node24</title>
<g id="a_node24"><a xlink:href="classQuantConnect_1_1Orders_1_1OrderResponse.html#af8bdc5b0fd7d8e5929a659099d1d939f" target="_top" xlink:title="Helper method to create an error response due to algorithm still in warmup mode">
<polygon fill="white" stroke="black" points="1238.5,-50.5 1238.5,-80.5 1389.5,-80.5 1389.5,-50.5 1238.5,-50.5"/>
<text text-anchor="start" x="1246.5" y="-68.5" font-family="Helvetica,sans-Serif" font-size="10.00">QuantConnect.Orders.Order</text>
<text text-anchor="middle" x="1314" y="-57.5" font-family="Helvetica,sans-Serif" font-size="10.00">Response.WarmingUp</text>
</a>
</g>
</g>
<!-- Node20&#45;&gt;Node24 -->
<g id="edge23" class="edge">
<title>Node20&#45;&gt;Node24</title>
<path fill="none" stroke="midnightblue" d="M1147.32,-117.94C1171.42,-108.76 1200.49,-98.1 1227,-89.5 1233.34,-87.44 1239.98,-85.4 1246.63,-83.42"/>
<polygon fill="midnightblue" stroke="midnightblue" points="1247.74,-86.74 1256.36,-80.58 1245.78,-80.03 1247.74,-86.74"/>
</g>
<!-- Node25 -->
<g id="node25" class="node">
<title>Node25</title>
<g id="a_node25"><a xlink:href="classQuantConnect_1_1Orders_1_1OrderResponse.html#a14ded2753785926becc5e7f8e5a02a09" target="_top" xlink:title="Helper method to create an error response from a request">
<polygon fill="white" stroke="black" points="1437,-50.5 1437,-80.5 1588,-80.5 1588,-50.5 1437,-50.5"/>
<text text-anchor="start" x="1445" y="-68.5" font-family="Helvetica,sans-Serif" font-size="10.00">QuantConnect.Orders.Order</text>
<text text-anchor="middle" x="1512.5" y="-57.5" font-family="Helvetica,sans-Serif" font-size="10.00">Response.Error</text>
</a>
</g>
</g>
<!-- Node24&#45;&gt;Node25 -->
<g id="edge24" class="edge">
<title>Node24&#45;&gt;Node25</title>
<path fill="none" stroke="midnightblue" d="M1389.57,-65.5C1401.7,-65.5 1414.34,-65.5 1426.69,-65.5"/>
<polygon fill="midnightblue" stroke="midnightblue" points="1426.98,-69 1436.98,-65.5 1426.98,-62 1426.98,-69"/>
</g>
<!-- Node30 -->
<g id="node30" class="node">
<title>Node30</title>
<g id="a_node30"><a xlink:href="interfaceQuantConnect_1_1Securities_1_1IOrderProvider.html#a299559676284f079d519275b43523a5e" target="_top" xlink:title="Gets the order ticket for the specified order id. Returns null if not found">
<polygon fill="white" stroke="black" points="767.5,-55.5 767.5,-85.5 930.5,-85.5 930.5,-55.5 767.5,-55.5"/>
<text text-anchor="start" x="775.5" y="-73.5" font-family="Helvetica,sans-Serif" font-size="10.00">QuantConnect.Securities.</text>
<text text-anchor="middle" x="849" y="-62.5" font-family="Helvetica,sans-Serif" font-size="10.00">IOrderProvider.GetOrderTicket</text>
</a>
</g>
</g>
<!-- Node29&#45;&gt;Node30 -->
<g id="edge29" class="edge">
<title>Node29&#45;&gt;Node30</title>
<path fill="none" stroke="midnightblue" d="M679.66,-70.5C704.5,-70.5 731.69,-70.5 756.82,-70.5"/>
<polygon fill="midnightblue" stroke="midnightblue" points="757.08,-74 767.08,-70.5 757.08,-67 757.08,-74"/>
</g>
</g>
</svg>
