<?xml version="1.0" encoding="UTF-8" standalone="no"?>
<!DOCTYPE svg PUBLIC "-//W3C//DTD SVG 1.1//EN"
 "http://www.w3.org/Graphics/SVG/1.1/DTD/svg11.dtd">
<!-- Generated by graphviz version 2.43.0 (0)
 -->
<!-- Title: QuantConnect.Securities.LocalMarketHours.IsContinuousMarketOpen Pages: 1 -->
<svg width="617pt" height="88pt"
 viewBox="0.00 0.00 617.00 88.00" xmlns="http://www.w3.org/2000/svg" xmlns:xlink="http://www.w3.org/1999/xlink">
<g id="graph0" class="graph" transform="scale(1 1) rotate(0) translate(4 84)">
<title>QuantConnect.Securities.LocalMarketHours.IsContinuousMarketOpen</title>
<polygon fill="white" stroke="transparent" points="-4,4 -4,-84 613,-84 613,4 -4,4"/>
<!-- Node1 -->
<g id="node1" class="node">
<title>Node1</title>
<g id="a_node1"><a xlink:title="Check the given segment is not part of the current previous segment">
<polygon fill="#bfbfbf" stroke="black" points="439,-19 439,-60 609,-60 609,-19 439,-19"/>
<text text-anchor="start" x="447" y="-48" font-family="Helvetica,sans-Serif" font-size="10.00">QuantConnect.Securities.</text>
<text text-anchor="start" x="447" y="-37" font-family="Helvetica,sans-Serif" font-size="10.00">LocalMarketHours.IsContinuous</text>
<text text-anchor="middle" x="524" y="-26" font-family="Helvetica,sans-Serif" font-size="10.00">MarketOpen</text>
</a>
</g>
</g>
<!-- Node2 -->
<g id="node2" class="node">
<title>Node2</title>
<g id="a_node2"><a xlink:href="classQuantConnect_1_1Securities_1_1LocalMarketHours.html#a6ce5b665cff3c8e6b0f23ccc51d89460" target="_top" xlink:title="Gets the market closing time of day">
<polygon fill="white" stroke="black" points="218,-49.5 218,-79.5 403,-79.5 403,-49.5 218,-49.5"/>
<text text-anchor="start" x="226" y="-67.5" font-family="Helvetica,sans-Serif" font-size="10.00">QuantConnect.Securities.</text>
<text text-anchor="middle" x="310.5" y="-56.5" font-family="Helvetica,sans-Serif" font-size="10.00">LocalMarketHours.GetMarketClose</text>
</a>
</g>
</g>
<!-- Node1&#45;&gt;Node2 -->
<g id="edge1" class="edge">
<title>Node1&#45;&gt;Node2</title>
<path fill="none" stroke="midnightblue" d="M428.81,-50.63C420.25,-51.65 411.59,-52.67 403.05,-53.68"/>
<polygon fill="midnightblue" stroke="midnightblue" points="429.28,-54.1 438.8,-49.45 428.46,-47.15 429.28,-54.1"/>
</g>
<!-- Node3 -->
<g id="node3" class="node">
<title>Node3</title>
<g id="a_node3"><a xlink:href="classQuantConnect_1_1Securities_1_1LocalMarketHours.html#a0f389bbd5cc5666e8c60bf364ab08a34" target="_top" xlink:title="Gets the market opening time of day">
<polygon fill="white" stroke="black" points="218.5,-0.5 218.5,-30.5 402.5,-30.5 402.5,-0.5 218.5,-0.5"/>
<text text-anchor="start" x="226.5" y="-18.5" font-family="Helvetica,sans-Serif" font-size="10.00">QuantConnect.Securities.</text>
<text text-anchor="middle" x="310.5" y="-7.5" font-family="Helvetica,sans-Serif" font-size="10.00">LocalMarketHours.GetMarketOpen</text>
</a>
</g>
</g>
<!-- Node1&#45;&gt;Node3 -->
<g id="edge2" class="edge">
<title>Node1&#45;&gt;Node3</title>
<path fill="none" stroke="midnightblue" d="M428.71,-28.8C420.07,-27.82 411.32,-26.83 402.7,-25.85"/>
<polygon fill="midnightblue" stroke="midnightblue" points="428.47,-32.3 438.8,-29.95 429.26,-25.34 428.47,-32.3"/>
</g>
<!-- Node4 -->
<g id="node4" class="node">
<title>Node4</title>
<g id="a_node4"><a xlink:href="classQuantConnect_1_1Orders_1_1Fills_1_1EquityFillModel.html#a2cc8fb9eafec5a645f7901a20b6c0594" target="_top" xlink:title="Market on Open Fill Model. Return an order event with the fill details">
<polygon fill="white" stroke="black" points="0,-0.5 0,-30.5 182,-30.5 182,-0.5 0,-0.5"/>
<text text-anchor="start" x="8" y="-18.5" font-family="Helvetica,sans-Serif" font-size="10.00">QuantConnect.Orders.Fills.</text>
<text text-anchor="middle" x="91" y="-7.5" font-family="Helvetica,sans-Serif" font-size="10.00">EquityFillModel.MarketOnOpenFill</text>
</a>
</g>
</g>
<!-- Node3&#45;&gt;Node4 -->
<g id="edge3" class="edge">
<title>Node3&#45;&gt;Node4</title>
<path fill="none" stroke="midnightblue" d="M208.05,-15.5C199.36,-15.5 190.61,-15.5 182.02,-15.5"/>
<polygon fill="midnightblue" stroke="midnightblue" points="208.21,-19 218.21,-15.5 208.21,-12 208.21,-19"/>
</g>
</g>
</svg>
