<?xml version="1.0" encoding="UTF-8" standalone="no"?>
<!DOCTYPE svg PUBLIC "-//W3C//DTD SVG 1.1//EN"
 "http://www.w3.org/Graphics/SVG/1.1/DTD/svg11.dtd">
<!-- Generated by graphviz version 2.43.0 (0)
 -->
<!-- Title: QuantConnect.ToolBox.CoinApiDataConverter.CoinApiDataConverter.Run Pages: 1 -->
<svg width="1152pt" height="296pt"
 viewBox="0.00 0.00 1152.00 296.00" xmlns="http://www.w3.org/2000/svg" xmlns:xlink="http://www.w3.org/1999/xlink">
<g id="graph0" class="graph" transform="scale(1 1) rotate(0) translate(4 292)">
<title>QuantConnect.ToolBox.CoinApiDataConverter.CoinApiDataConverter.Run</title>
<polygon fill="white" stroke="transparent" points="-4,4 -4,-292 1148,-292 1148,4 -4,4"/>
<!-- Node1 -->
<g id="node1" class="node">
<title>Node1</title>
<g id="a_node1"><a xlink:title="Runs this instance.">
<polygon fill="#bfbfbf" stroke="black" points="0,-49.5 0,-79.5 236,-79.5 236,-49.5 0,-49.5"/>
<text text-anchor="start" x="8" y="-67.5" font-family="Helvetica,sans-Serif" font-size="10.00">QuantConnect.ToolBox.Coin</text>
<text text-anchor="middle" x="118" y="-56.5" font-family="Helvetica,sans-Serif" font-size="10.00">ApiDataConverter.CoinApiDataConverter.Run</text>
</a>
</g>
</g>
<!-- Node2 -->
<g id="node2" class="node">
<title>Node2</title>
<g id="a_node2"><a xlink:href="classQuantConnect_1_1Util_1_1CurrencyPairUtil.html#af097148889729df56066a7f324c558a0" target="_top" xlink:title="Decomposes the specified currency pair into a base and quote currency provided as out parameters">
<polygon fill="white" stroke="black" points="272,-159.5 272,-189.5 446,-189.5 446,-159.5 272,-159.5"/>
<text text-anchor="start" x="280" y="-177.5" font-family="Helvetica,sans-Serif" font-size="10.00">QuantConnect.Util.Currency</text>
<text text-anchor="middle" x="359" y="-166.5" font-family="Helvetica,sans-Serif" font-size="10.00">PairUtil.DecomposeCurrencyPair</text>
</a>
</g>
</g>
<!-- Node1&#45;&gt;Node2 -->
<g id="edge1" class="edge">
<title>Node1&#45;&gt;Node2</title>
<path fill="none" stroke="midnightblue" d="M151.73,-79.56C194.43,-99.22 269.19,-133.63 316.02,-155.18"/>
<polygon fill="midnightblue" stroke="midnightblue" points="314.73,-158.44 325.28,-159.44 317.66,-152.08 314.73,-158.44"/>
</g>
<!-- Node10 -->
<g id="node10" class="node">
<title>Node10</title>
<g id="a_node10"><a xlink:href="classQuantConnect_1_1Logging_1_1Log.html#af0e7955911bc7664b37661b2a303a9e3" target="_top" xlink:title="Log error">
<polygon fill="white" stroke="black" points="284,-49.5 284,-79.5 434,-79.5 434,-49.5 284,-49.5"/>
<text text-anchor="start" x="292" y="-67.5" font-family="Helvetica,sans-Serif" font-size="10.00">QuantConnect.Logging.Log.</text>
<text text-anchor="middle" x="359" y="-56.5" font-family="Helvetica,sans-Serif" font-size="10.00">Error</text>
</a>
</g>
</g>
<!-- Node1&#45;&gt;Node10 -->
<g id="edge9" class="edge">
<title>Node1&#45;&gt;Node10</title>
<path fill="none" stroke="midnightblue" d="M236.05,-64.5C248.8,-64.5 261.59,-64.5 273.83,-64.5"/>
<polygon fill="midnightblue" stroke="midnightblue" points="273.98,-68 283.98,-64.5 273.98,-61 273.98,-68"/>
</g>
<!-- Node12 -->
<g id="node12" class="node">
<title>Node12</title>
<g id="a_node12"><a xlink:href="classQuantConnect_1_1Logging_1_1Log.html#a4e55477fbc790846b74550a57198cea9" target="_top" xlink:title="Log trace">
<polygon fill="white" stroke="black" points="284,-0.5 284,-30.5 434,-30.5 434,-0.5 284,-0.5"/>
<text text-anchor="start" x="292" y="-18.5" font-family="Helvetica,sans-Serif" font-size="10.00">QuantConnect.Logging.Log.</text>
<text text-anchor="middle" x="359" y="-7.5" font-family="Helvetica,sans-Serif" font-size="10.00">Trace</text>
</a>
</g>
</g>
<!-- Node1&#45;&gt;Node12 -->
<g id="edge11" class="edge">
<title>Node1&#45;&gt;Node12</title>
<path fill="none" stroke="midnightblue" d="M192.33,-49.47C218.37,-44.13 247.86,-38.08 274.68,-32.58"/>
<polygon fill="midnightblue" stroke="midnightblue" points="275.71,-35.94 284.81,-30.51 274.31,-29.09 275.71,-35.94"/>
</g>
<!-- Node3 -->
<g id="node3" class="node">
<title>Node3</title>
<g id="a_node3"><a xlink:href="classQuantConnect_1_1Securities_1_1Cfd_1_1Cfd.html#a29bdbe6a6d36ed75a1816cad31ee6eaa" target="_top" xlink:title="Decomposes the specified currency pair into a base and quote currency provided as out parameters">
<polygon fill="white" stroke="black" points="497.5,-257.5 497.5,-287.5 672.5,-287.5 672.5,-257.5 497.5,-257.5"/>
<text text-anchor="start" x="505.5" y="-275.5" font-family="Helvetica,sans-Serif" font-size="10.00">QuantConnect.Securities.</text>
<text text-anchor="middle" x="585" y="-264.5" font-family="Helvetica,sans-Serif" font-size="10.00">Cfd.Cfd.DecomposeCurrencyPair</text>
</a>
</g>
</g>
<!-- Node2&#45;&gt;Node3 -->
<g id="edge2" class="edge">
<title>Node2&#45;&gt;Node3</title>
<path fill="none" stroke="midnightblue" d="M380.52,-189.74C403.94,-206.44 443.94,-232.94 482,-248.5 487.34,-250.68 492.92,-252.69 498.6,-254.54"/>
<polygon fill="midnightblue" stroke="midnightblue" points="497.65,-257.91 508.24,-257.5 499.7,-251.22 497.65,-257.91"/>
</g>
<!-- Node4 -->
<g id="node4" class="node">
<title>Node4</title>
<g id="a_node4"><a xlink:href="classQuantConnect_1_1Securities_1_1Forex_1_1Forex.html#af7fbd660dcbbc46527c61baafe2549bb" target="_top" xlink:title="Decomposes the specified currency pair into a base and quote currency provided as out parameters">
<polygon fill="white" stroke="black" points="487,-208.5 487,-238.5 683,-238.5 683,-208.5 487,-208.5"/>
<text text-anchor="start" x="495" y="-226.5" font-family="Helvetica,sans-Serif" font-size="10.00">QuantConnect.Securities.</text>
<text text-anchor="middle" x="585" y="-215.5" font-family="Helvetica,sans-Serif" font-size="10.00">Forex.Forex.DecomposeCurrencyPair</text>
</a>
</g>
</g>
<!-- Node2&#45;&gt;Node4 -->
<g id="edge3" class="edge">
<title>Node2&#45;&gt;Node4</title>
<path fill="none" stroke="midnightblue" d="M428.73,-189.53C453.03,-194.85 480.53,-200.87 505.57,-206.34"/>
<polygon fill="midnightblue" stroke="midnightblue" points="504.88,-209.78 515.4,-208.49 506.38,-202.94 504.88,-209.78"/>
</g>
<!-- Node5 -->
<g id="node5" class="node">
<title>Node5</title>
<g id="a_node5"><a xlink:href="classQuantConnect_1_1Securities_1_1Crypto_1_1Crypto.html#a34f3ec6157d9575e34127b5172706403" target="_top" xlink:title="Decomposes the specified currency pair into a base and quote currency provided as out parameters">
<polygon fill="white" stroke="black" points="482,-159.5 482,-189.5 688,-189.5 688,-159.5 482,-159.5"/>
<text text-anchor="start" x="490" y="-177.5" font-family="Helvetica,sans-Serif" font-size="10.00">QuantConnect.Securities.</text>
<text text-anchor="middle" x="585" y="-166.5" font-family="Helvetica,sans-Serif" font-size="10.00">Crypto.Crypto.DecomposeCurrencyPair</text>
</a>
</g>
</g>
<!-- Node2&#45;&gt;Node5 -->
<g id="edge4" class="edge">
<title>Node2&#45;&gt;Node5</title>
<path fill="none" stroke="midnightblue" d="M446.28,-174.5C454.61,-174.5 463.14,-174.5 471.67,-174.5"/>
<polygon fill="midnightblue" stroke="midnightblue" points="471.67,-178 481.67,-174.5 471.67,-171 471.67,-178"/>
</g>
<!-- Node6 -->
<g id="node6" class="node">
<title>Node6</title>
<g id="a_node6"><a xlink:href="classQuantConnect_1_1Securities_1_1SymbolPropertiesDatabase.html#a3ea48557a7a885c2c53529f8c4b75598" target="_top" xlink:title="Gets the symbol properties for the specified market/symbol/security&#45;type">
<polygon fill="white" stroke="black" points="500,-99 500,-140 670,-140 670,-99 500,-99"/>
<text text-anchor="start" x="508" y="-128" font-family="Helvetica,sans-Serif" font-size="10.00">QuantConnect.Securities.</text>
<text text-anchor="start" x="508" y="-117" font-family="Helvetica,sans-Serif" font-size="10.00">SymbolPropertiesDatabase.Get</text>
<text text-anchor="middle" x="585" y="-106" font-family="Helvetica,sans-Serif" font-size="10.00">SymbolProperties</text>
</a>
</g>
</g>
<!-- Node2&#45;&gt;Node6 -->
<g id="edge5" class="edge">
<title>Node2&#45;&gt;Node6</title>
<path fill="none" stroke="midnightblue" d="M421.21,-159.47C442.52,-154.24 466.94,-148.24 490.27,-142.51"/>
<polygon fill="midnightblue" stroke="midnightblue" points="491.32,-145.86 500.19,-140.08 489.65,-139.06 491.32,-145.86"/>
</g>
<!-- Node7 -->
<g id="node7" class="node">
<title>Node7</title>
<g id="a_node7"><a xlink:href="classQuantConnect_1_1Securities_1_1MarketHoursDatabase.html#aa717adb9bb04be931913608ffd5a2733" target="_top" xlink:title="Gets the correct string symbol to use as a database key">
<polygon fill="white" stroke="black" points="724,-126 724,-167 916,-167 916,-126 724,-126"/>
<text text-anchor="start" x="732" y="-155" font-family="Helvetica,sans-Serif" font-size="10.00">QuantConnect.Securities.</text>
<text text-anchor="start" x="732" y="-144" font-family="Helvetica,sans-Serif" font-size="10.00">MarketHoursDatabase.GetDatabase</text>
<text text-anchor="middle" x="820" y="-133" font-family="Helvetica,sans-Serif" font-size="10.00">SymbolKey</text>
</a>
</g>
</g>
<!-- Node6&#45;&gt;Node7 -->
<g id="edge6" class="edge">
<title>Node6&#45;&gt;Node7</title>
<path fill="none" stroke="midnightblue" d="M670.12,-129.25C684.31,-130.89 699.2,-132.62 713.85,-134.31"/>
<polygon fill="midnightblue" stroke="midnightblue" points="713.6,-137.81 723.94,-135.48 714.41,-130.86 713.6,-137.81"/>
</g>
<!-- Node8 -->
<g id="node8" class="node">
<title>Node8</title>
<g id="a_node8"><a xlink:href="classQuantConnect_1_1Securities_1_1SymbolProperties.html#ad148190d1dfce7109d38d3107b7b8fbf" target="_top" xlink:title="Gets a default instance of the SymbolProperties class for the specified quoteCurrency">
<polygon fill="white" stroke="black" points="740.5,-76.5 740.5,-106.5 899.5,-106.5 899.5,-76.5 740.5,-76.5"/>
<text text-anchor="start" x="748.5" y="-94.5" font-family="Helvetica,sans-Serif" font-size="10.00">QuantConnect.Securities.</text>
<text text-anchor="middle" x="820" y="-83.5" font-family="Helvetica,sans-Serif" font-size="10.00">SymbolProperties.GetDefault</text>
</a>
</g>
</g>
<!-- Node6&#45;&gt;Node8 -->
<g id="edge7" class="edge">
<title>Node6&#45;&gt;Node8</title>
<path fill="none" stroke="midnightblue" d="M670.12,-109.39C689.74,-107.03 710.7,-104.51 730.51,-102.13"/>
<polygon fill="midnightblue" stroke="midnightblue" points="730.93,-105.61 740.44,-100.94 730.1,-98.66 730.93,-105.61"/>
</g>
<!-- Node9 -->
<g id="node9" class="node">
<title>Node9</title>
<g id="a_node9"><a xlink:href="classQuantConnect_1_1Securities_1_1SymbolProperties.html#a484c9f2f6fc4a269beb7b6c88c1907f0" target="_top" xlink:title="Creates an instance of the SymbolProperties class">
<polygon fill="white" stroke="black" points="952,-76.5 952,-106.5 1144,-106.5 1144,-76.5 952,-76.5"/>
<text text-anchor="start" x="960" y="-94.5" font-family="Helvetica,sans-Serif" font-size="10.00">QuantConnect.Securities.</text>
<text text-anchor="middle" x="1048" y="-83.5" font-family="Helvetica,sans-Serif" font-size="10.00">SymbolProperties.SymbolProperties</text>
</a>
</g>
</g>
<!-- Node8&#45;&gt;Node9 -->
<g id="edge8" class="edge">
<title>Node8&#45;&gt;Node9</title>
<path fill="none" stroke="midnightblue" d="M899.73,-91.5C913.26,-91.5 927.51,-91.5 941.61,-91.5"/>
<polygon fill="midnightblue" stroke="midnightblue" points="941.83,-95 951.83,-91.5 941.83,-88 941.83,-95"/>
</g>
<!-- Node11 -->
<g id="node11" class="node">
<title>Node11</title>
<g id="a_node11"><a xlink:href="interfaceQuantConnect_1_1Logging_1_1ILogHandler.html#a35373a0c5d76031fa5ccf5dc39e5c25d" target="_top" xlink:title="Write error message to log">
<polygon fill="white" stroke="black" points="510,-49.5 510,-79.5 660,-79.5 660,-49.5 510,-49.5"/>
<text text-anchor="start" x="518" y="-67.5" font-family="Helvetica,sans-Serif" font-size="10.00">QuantConnect.Logging.ILog</text>
<text text-anchor="middle" x="585" y="-56.5" font-family="Helvetica,sans-Serif" font-size="10.00">Handler.Error</text>
</a>
</g>
</g>
<!-- Node10&#45;&gt;Node11 -->
<g id="edge10" class="edge">
<title>Node10&#45;&gt;Node11</title>
<path fill="none" stroke="midnightblue" d="M434.28,-64.5C455.28,-64.5 478.28,-64.5 499.81,-64.5"/>
<polygon fill="midnightblue" stroke="midnightblue" points="499.92,-68 509.92,-64.5 499.92,-61 499.92,-68"/>
</g>
<!-- Node13 -->
<g id="node13" class="node">
<title>Node13</title>
<g id="a_node13"><a xlink:href="interfaceQuantConnect_1_1Logging_1_1ILogHandler.html#a3fb71a33ac66129240b63f12b6fcda3b" target="_top" xlink:title="Write debug message to log">
<polygon fill="white" stroke="black" points="510,-0.5 510,-30.5 660,-30.5 660,-0.5 510,-0.5"/>
<text text-anchor="start" x="518" y="-18.5" font-family="Helvetica,sans-Serif" font-size="10.00">QuantConnect.Logging.ILog</text>
<text text-anchor="middle" x="585" y="-7.5" font-family="Helvetica,sans-Serif" font-size="10.00">Handler.Trace</text>
</a>
</g>
</g>
<!-- Node12&#45;&gt;Node13 -->
<g id="edge12" class="edge">
<title>Node12&#45;&gt;Node13</title>
<path fill="none" stroke="midnightblue" d="M434.28,-15.5C455.28,-15.5 478.28,-15.5 499.81,-15.5"/>
<polygon fill="midnightblue" stroke="midnightblue" points="499.92,-19 509.92,-15.5 499.92,-12 499.92,-19"/>
</g>
</g>
</svg>
