<?xml version="1.0" encoding="UTF-8" standalone="no"?>
<!DOCTYPE svg PUBLIC "-//W3C//DTD SVG 1.1//EN"
 "http://www.w3.org/Graphics/SVG/1.1/DTD/svg11.dtd">
<!-- Generated by graphviz version 2.43.0 (0)
 -->
<!-- Title: QuantConnect.Algorithm.Framework.Alphas.Insight.Cancel Pages: 1 -->
<svg width="904pt" height="39pt"
 viewBox="0.00 0.00 904.00 39.00" xmlns="http://www.w3.org/2000/svg" xmlns:xlink="http://www.w3.org/1999/xlink">
<g id="graph0" class="graph" transform="scale(1 1) rotate(0) translate(4 35)">
<title>QuantConnect.Algorithm.Framework.Alphas.Insight.Cancel</title>
<polygon fill="white" stroke="transparent" points="-4,4 -4,-35 900,-35 900,4 -4,4"/>
<!-- Node1 -->
<g id="node1" class="node">
<title>Node1</title>
<g id="a_node1"><a xlink:title="Cancel this insight">
<polygon fill="#bfbfbf" stroke="black" points="0,-0.5 0,-30.5 197,-30.5 197,-0.5 0,-0.5"/>
<text text-anchor="start" x="8" y="-18.5" font-family="Helvetica,sans-Serif" font-size="10.00">QuantConnect.Algorithm.Framework.</text>
<text text-anchor="middle" x="98.5" y="-7.5" font-family="Helvetica,sans-Serif" font-size="10.00">Alphas.Insight.Cancel</text>
</a>
</g>
</g>
<!-- Node2 -->
<g id="node2" class="node">
<title>Node2</title>
<g id="a_node2"><a xlink:href="classQuantConnect_1_1Algorithm_1_1Framework_1_1Alphas_1_1Insight.html#aaea28f68429191826fa1f7d8d084e1cf" target="_top" xlink:title="Expire this insight">
<polygon fill="white" stroke="black" points="233,-0.5 233,-30.5 430,-30.5 430,-0.5 233,-0.5"/>
<text text-anchor="start" x="241" y="-18.5" font-family="Helvetica,sans-Serif" font-size="10.00">QuantConnect.Algorithm.Framework.</text>
<text text-anchor="middle" x="331.5" y="-7.5" font-family="Helvetica,sans-Serif" font-size="10.00">Alphas.Insight.Expire</text>
</a>
</g>
</g>
<!-- Node1&#45;&gt;Node2 -->
<g id="edge1" class="edge">
<title>Node1&#45;&gt;Node2</title>
<path fill="none" stroke="midnightblue" d="M197.13,-15.5C205.63,-15.5 214.25,-15.5 222.83,-15.5"/>
<polygon fill="midnightblue" stroke="midnightblue" points="222.85,-19 232.85,-15.5 222.85,-12 222.85,-19"/>
</g>
<!-- Node3 -->
<g id="node3" class="node">
<title>Node3</title>
<g id="a_node3"><a xlink:href="classQuantConnect_1_1Algorithm_1_1Framework_1_1Alphas_1_1Insight.html#ad8d5c5b1a2bbb469d02801d89e8f7298" target="_top" xlink:title="Determines whether or not this insight is considered active at the specified utcTime">
<polygon fill="white" stroke="black" points="466,-0.5 466,-30.5 663,-30.5 663,-0.5 466,-0.5"/>
<text text-anchor="start" x="474" y="-18.5" font-family="Helvetica,sans-Serif" font-size="10.00">QuantConnect.Algorithm.Framework.</text>
<text text-anchor="middle" x="564.5" y="-7.5" font-family="Helvetica,sans-Serif" font-size="10.00">Alphas.Insight.IsActive</text>
</a>
</g>
</g>
<!-- Node2&#45;&gt;Node3 -->
<g id="edge2" class="edge">
<title>Node2&#45;&gt;Node3</title>
<path fill="none" stroke="midnightblue" d="M430.13,-15.5C438.63,-15.5 447.25,-15.5 455.83,-15.5"/>
<polygon fill="midnightblue" stroke="midnightblue" points="455.85,-19 465.85,-15.5 455.85,-12 455.85,-19"/>
</g>
<!-- Node4 -->
<g id="node4" class="node">
<title>Node4</title>
<g id="a_node4"><a xlink:href="classQuantConnect_1_1Algorithm_1_1Framework_1_1Alphas_1_1Insight.html#ab7f55ea7f27e85b4417100a272d82dd1" target="_top" xlink:title="Determines whether or not this insight is considered expired at the specified utcTime">
<polygon fill="white" stroke="black" points="699,-0.5 699,-30.5 896,-30.5 896,-0.5 699,-0.5"/>
<text text-anchor="start" x="707" y="-18.5" font-family="Helvetica,sans-Serif" font-size="10.00">QuantConnect.Algorithm.Framework.</text>
<text text-anchor="middle" x="797.5" y="-7.5" font-family="Helvetica,sans-Serif" font-size="10.00">Alphas.Insight.IsExpired</text>
</a>
</g>
</g>
<!-- Node3&#45;&gt;Node4 -->
<g id="edge3" class="edge">
<title>Node3&#45;&gt;Node4</title>
<path fill="none" stroke="midnightblue" d="M663.13,-15.5C671.63,-15.5 680.25,-15.5 688.83,-15.5"/>
<polygon fill="midnightblue" stroke="midnightblue" points="688.85,-19 698.85,-15.5 688.85,-12 688.85,-19"/>
</g>
</g>
</svg>
