<?xml version="1.0" encoding="UTF-8" standalone="no"?>
<!DOCTYPE svg PUBLIC "-//W3C//DTD SVG 1.1//EN"
 "http://www.w3.org/Graphics/SVG/1.1/DTD/svg11.dtd">
<!-- Generated by graphviz version 2.43.0 (0)
 -->
<!-- Title: QuantConnect.Indicators.CandlestickPatterns.Doji.ComputeNextValue Pages: 1 -->
<svg width="855pt" height="280pt"
 viewBox="0.00 0.00 855.00 279.50" xmlns="http://www.w3.org/2000/svg" xmlns:xlink="http://www.w3.org/1999/xlink">
<g id="graph0" class="graph" transform="scale(1 1) rotate(0) translate(4 275.5)">
<title>QuantConnect.Indicators.CandlestickPatterns.Doji.ComputeNextValue</title>
<polygon fill="white" stroke="transparent" points="-4,4 -4,-275.5 851,-275.5 851,4 -4,4"/>
<!-- Node1 -->
<g id="node1" class="node">
<title>Node1</title>
<g id="a_node1"><a xlink:title="Computes the next value of this indicator from the given state">
<polygon fill="#bfbfbf" stroke="black" points="0,-93.5 0,-134.5 183,-134.5 183,-93.5 0,-93.5"/>
<text text-anchor="start" x="8" y="-122.5" font-family="Helvetica,sans-Serif" font-size="10.00">QuantConnect.Indicators.</text>
<text text-anchor="start" x="8" y="-111.5" font-family="Helvetica,sans-Serif" font-size="10.00">CandlestickPatterns.Doji.Compute</text>
<text text-anchor="middle" x="91.5" y="-100.5" font-family="Helvetica,sans-Serif" font-size="10.00">NextValue</text>
</a>
</g>
</g>
<!-- Node2 -->
<g id="node2" class="node">
<title>Node2</title>
<g id="a_node2"><a xlink:href="classQuantConnect_1_1Indicators_1_1CandlestickPatterns_1_1CandlestickPattern.html#abfef9cee8cff1859d77bb2c54ded7322" target="_top" xlink:title="Returns the average range of the previous candles">
<polygon fill="white" stroke="black" points="219,-142.5 219,-183.5 392,-183.5 392,-142.5 219,-142.5"/>
<text text-anchor="start" x="227" y="-171.5" font-family="Helvetica,sans-Serif" font-size="10.00">QuantConnect.Indicators.</text>
<text text-anchor="start" x="227" y="-160.5" font-family="Helvetica,sans-Serif" font-size="10.00">CandlestickPatterns.Candlestick</text>
<text text-anchor="middle" x="305.5" y="-149.5" font-family="Helvetica,sans-Serif" font-size="10.00">Pattern.GetCandleAverage</text>
</a>
</g>
</g>
<!-- Node1&#45;&gt;Node2 -->
<g id="edge1" class="edge">
<title>Node1&#45;&gt;Node2</title>
<path fill="none" stroke="midnightblue" d="M181.49,-134.57C190.56,-136.66 199.8,-138.8 208.93,-140.91"/>
<polygon fill="midnightblue" stroke="midnightblue" points="208.26,-144.35 218.79,-143.19 209.84,-137.53 208.26,-144.35"/>
</g>
<!-- Node4 -->
<g id="node4" class="node">
<title>Node4</title>
<g id="a_node4"><a xlink:href="classQuantConnect_1_1Indicators_1_1CandlestickPatterns_1_1CandlestickPattern.html#a05b2e39af6efdc4ef734663b1c31d61e" target="_top" xlink:title="Returns the range of a candle">
<polygon fill="white" stroke="black" points="428,-120.5 428,-161.5 601,-161.5 601,-120.5 428,-120.5"/>
<text text-anchor="start" x="436" y="-149.5" font-family="Helvetica,sans-Serif" font-size="10.00">QuantConnect.Indicators.</text>
<text text-anchor="start" x="436" y="-138.5" font-family="Helvetica,sans-Serif" font-size="10.00">CandlestickPatterns.Candlestick</text>
<text text-anchor="middle" x="514.5" y="-127.5" font-family="Helvetica,sans-Serif" font-size="10.00">Pattern.GetCandleRange</text>
</a>
</g>
</g>
<!-- Node1&#45;&gt;Node4 -->
<g id="edge9" class="edge">
<title>Node1&#45;&gt;Node4</title>
<path fill="none" stroke="midnightblue" d="M183.27,-119.7C242.65,-123.45 321.94,-128.47 392,-133 400.34,-133.54 409,-134.1 417.68,-134.67"/>
<polygon fill="midnightblue" stroke="midnightblue" points="417.67,-138.18 427.87,-135.34 418.12,-131.19 417.67,-138.18"/>
</g>
<!-- Node7 -->
<g id="node7" class="node">
<title>Node7</title>
<g id="a_node7"><a xlink:href="classQuantConnect_1_1Indicators_1_1CandlestickPatterns_1_1CandlestickPattern.html#a47cb6b45c58d94689f6233487e981d10" target="_top" xlink:title="Returns the distance between the close and the open of a candle">
<polygon fill="white" stroke="black" points="655.5,-0.5 655.5,-41.5 828.5,-41.5 828.5,-0.5 655.5,-0.5"/>
<text text-anchor="start" x="663.5" y="-29.5" font-family="Helvetica,sans-Serif" font-size="10.00">QuantConnect.Indicators.</text>
<text text-anchor="start" x="663.5" y="-18.5" font-family="Helvetica,sans-Serif" font-size="10.00">CandlestickPatterns.Candlestick</text>
<text text-anchor="middle" x="742" y="-7.5" font-family="Helvetica,sans-Serif" font-size="10.00">Pattern.GetRealBody</text>
</a>
</g>
</g>
<!-- Node1&#45;&gt;Node7 -->
<g id="edge10" class="edge">
<title>Node1&#45;&gt;Node7</title>
<path fill="none" stroke="midnightblue" d="M183.01,-101.02C304.93,-83.54 520.93,-52.56 645.4,-34.71"/>
<polygon fill="midnightblue" stroke="midnightblue" points="645.91,-38.17 655.31,-33.29 644.91,-31.24 645.91,-38.17"/>
</g>
<!-- Node3 -->
<g id="node3" class="node">
<title>Node3</title>
<g id="a_node3"><a xlink:href="classQuantConnect_1_1Indicators_1_1CandlestickPatterns_1_1CandleSettings.html#a1e65d2caf61e018e94574519fee75620" target="_top" xlink:title="Returns the candle setting for the requested type">
<polygon fill="white" stroke="black" points="637,-241 637,-271 847,-271 847,-241 637,-241"/>
<text text-anchor="start" x="645" y="-259" font-family="Helvetica,sans-Serif" font-size="10.00">QuantConnect.Indicators.</text>
<text text-anchor="middle" x="742" y="-248" font-family="Helvetica,sans-Serif" font-size="10.00">CandlestickPatterns.CandleSettings.Get</text>
</a>
</g>
</g>
<!-- Node2&#45;&gt;Node3 -->
<g id="edge2" class="edge">
<title>Node2&#45;&gt;Node3</title>
<path fill="none" stroke="midnightblue" d="M392.08,-181.32C470.05,-198.01 584.33,-222.47 660.62,-238.8"/>
<polygon fill="midnightblue" stroke="midnightblue" points="660.15,-242.27 670.66,-240.94 661.61,-235.43 660.15,-242.27"/>
</g>
<!-- Node2&#45;&gt;Node4 -->
<g id="edge3" class="edge">
<title>Node2&#45;&gt;Node4</title>
<path fill="none" stroke="midnightblue" d="M392.19,-153.89C400.66,-152.99 409.3,-152.07 417.87,-151.16"/>
<polygon fill="midnightblue" stroke="midnightblue" points="418.3,-154.64 427.88,-150.1 417.56,-147.68 418.3,-154.64"/>
</g>
<!-- Node4&#45;&gt;Node3 -->
<g id="edge4" class="edge">
<title>Node4&#45;&gt;Node3</title>
<path fill="none" stroke="midnightblue" d="M540.84,-161.66C570.11,-185.19 616.84,-221.59 637,-231 642.28,-233.47 647.83,-235.7 653.51,-237.73"/>
<polygon fill="midnightblue" stroke="midnightblue" points="652.55,-241.1 663.14,-240.95 654.77,-234.46 652.55,-241.1"/>
</g>
<!-- Node5 -->
<g id="node5" class="node">
<title>Node5</title>
<g id="a_node5"><a xlink:href="classQuantConnect_1_1Indicators_1_1CandlestickPatterns_1_1CandlestickPattern.html#ae61e2032511d5338a48f8d5b8be906b7" target="_top" xlink:title="Returns the full range of the candle">
<polygon fill="white" stroke="black" points="655.5,-180.5 655.5,-221.5 828.5,-221.5 828.5,-180.5 655.5,-180.5"/>
<text text-anchor="start" x="663.5" y="-209.5" font-family="Helvetica,sans-Serif" font-size="10.00">QuantConnect.Indicators.</text>
<text text-anchor="start" x="663.5" y="-198.5" font-family="Helvetica,sans-Serif" font-size="10.00">CandlestickPatterns.Candlestick</text>
<text text-anchor="middle" x="742" y="-187.5" font-family="Helvetica,sans-Serif" font-size="10.00">Pattern.GetHighLowRange</text>
</a>
</g>
</g>
<!-- Node4&#45;&gt;Node5 -->
<g id="edge5" class="edge">
<title>Node4&#45;&gt;Node5</title>
<path fill="none" stroke="midnightblue" d="M592.79,-161.56C612.51,-166.81 633.84,-172.49 654.02,-177.86"/>
<polygon fill="midnightblue" stroke="midnightblue" points="653.25,-181.27 663.81,-180.46 655.05,-174.51 653.25,-181.27"/>
</g>
<!-- Node6 -->
<g id="node6" class="node">
<title>Node6</title>
<g id="a_node6"><a xlink:href="classQuantConnect_1_1Indicators_1_1CandlestickPatterns_1_1CandlestickPattern.html#ae57bf84c9247ead2c32aab56c2e4ecac" target="_top" xlink:title="Returns the range of the candle&#39;s lower shadow">
<polygon fill="white" stroke="black" points="655.5,-120.5 655.5,-161.5 828.5,-161.5 828.5,-120.5 655.5,-120.5"/>
<text text-anchor="start" x="663.5" y="-149.5" font-family="Helvetica,sans-Serif" font-size="10.00">QuantConnect.Indicators.</text>
<text text-anchor="start" x="663.5" y="-138.5" font-family="Helvetica,sans-Serif" font-size="10.00">CandlestickPatterns.Candlestick</text>
<text text-anchor="middle" x="742" y="-127.5" font-family="Helvetica,sans-Serif" font-size="10.00">Pattern.GetLowerShadow</text>
</a>
</g>
</g>
<!-- Node4&#45;&gt;Node6 -->
<g id="edge6" class="edge">
<title>Node4&#45;&gt;Node6</title>
<path fill="none" stroke="midnightblue" d="M601.07,-141C615.55,-141 630.66,-141 645.38,-141"/>
<polygon fill="midnightblue" stroke="midnightblue" points="645.49,-144.5 655.49,-141 645.48,-137.5 645.49,-144.5"/>
</g>
<!-- Node4&#45;&gt;Node7 -->
<g id="edge7" class="edge">
<title>Node4&#45;&gt;Node7</title>
<path fill="none" stroke="midnightblue" d="M550.16,-120.26C566.1,-110.23 584.98,-97.65 601,-85 618.27,-71.36 617.89,-61.91 637,-51 640.29,-49.12 643.72,-47.35 647.22,-45.68"/>
<polygon fill="midnightblue" stroke="midnightblue" points="648.95,-48.75 656.68,-41.51 646.12,-42.34 648.95,-48.75"/>
</g>
<!-- Node8 -->
<g id="node8" class="node">
<title>Node8</title>
<g id="a_node8"><a xlink:href="classQuantConnect_1_1Indicators_1_1CandlestickPatterns_1_1CandlestickPattern.html#ab499aa69437c2a6e83b2f1c05421c203" target="_top" xlink:title="Returns the range of the candle&#39;s upper shadow">
<polygon fill="white" stroke="black" points="655.5,-60.5 655.5,-101.5 828.5,-101.5 828.5,-60.5 655.5,-60.5"/>
<text text-anchor="start" x="663.5" y="-89.5" font-family="Helvetica,sans-Serif" font-size="10.00">QuantConnect.Indicators.</text>
<text text-anchor="start" x="663.5" y="-78.5" font-family="Helvetica,sans-Serif" font-size="10.00">CandlestickPatterns.Candlestick</text>
<text text-anchor="middle" x="742" y="-67.5" font-family="Helvetica,sans-Serif" font-size="10.00">Pattern.GetUpperShadow</text>
</a>
</g>
</g>
<!-- Node4&#45;&gt;Node8 -->
<g id="edge8" class="edge">
<title>Node4&#45;&gt;Node8</title>
<path fill="none" stroke="midnightblue" d="M592.79,-120.44C612.51,-115.19 633.84,-109.51 654.02,-104.14"/>
<polygon fill="midnightblue" stroke="midnightblue" points="655.05,-107.49 663.81,-101.54 653.25,-100.73 655.05,-107.49"/>
</g>
</g>
</svg>
