<?xml version="1.0" encoding="UTF-8" standalone="no"?>
<!DOCTYPE svg PUBLIC "-//W3C//DTD SVG 1.1//EN"
 "http://www.w3.org/Graphics/SVG/1.1/DTD/svg11.dtd">
<!-- Generated by graphviz version 2.43.0 (0)
 -->
<!-- Title: QuantConnect.Orders.TimeInForces.GoodTilCanceledTimeInForce Pages: 1 -->
<svg width="175pt" height="162pt"
 viewBox="0.00 0.00 175.00 162.00" xmlns="http://www.w3.org/2000/svg" xmlns:xlink="http://www.w3.org/1999/xlink">
<g id="graph0" class="graph" transform="scale(1 1) rotate(0) translate(4 158)">
<title>QuantConnect.Orders.TimeInForces.GoodTilCanceledTimeInForce</title>
<polygon fill="white" stroke="transparent" points="-4,4 -4,-158 171,-158 171,4 -4,4"/>
<!-- Node1 -->
<g id="node1" class="node">
<title>Node1</title>
<g id="a_node1"><a xlink:title="Good Til Canceled Time In Force &#45; order does never expires">
<polygon fill="#bfbfbf" stroke="black" points="0,-0.5 0,-41.5 167,-41.5 167,-0.5 0,-0.5"/>
<text text-anchor="start" x="8" y="-29.5" font-family="Helvetica,sans-Serif" font-size="10.00">QuantConnect.Orders.Time</text>
<text text-anchor="start" x="8" y="-18.5" font-family="Helvetica,sans-Serif" font-size="10.00">InForces.GoodTilCanceledTime</text>
<text text-anchor="middle" x="83.5" y="-7.5" font-family="Helvetica,sans-Serif" font-size="10.00">InForce</text>
</a>
</g>
</g>
<!-- Node2 -->
<g id="node2" class="node">
<title>Node2</title>
<g id="a_node2"><a xlink:href="classQuantConnect_1_1Orders_1_1TimeInForce.html" target="_top" xlink:title="Time In Force &#45; defines the length of time over which an order will continue working before it is can...">
<polygon fill="white" stroke="black" points="45,-78.5 45,-97.5 122,-97.5 122,-78.5 45,-78.5"/>
<text text-anchor="middle" x="83.5" y="-85.5" font-family="Helvetica,sans-Serif" font-size="10.00">TimeInForce</text>
</a>
</g>
</g>
<!-- Node2&#45;&gt;Node1 -->
<g id="edge1" class="edge">
<title>Node2&#45;&gt;Node1</title>
<path fill="none" stroke="midnightblue" d="M83.5,-68.04C83.5,-59.71 83.5,-49.94 83.5,-41.54"/>
<polygon fill="midnightblue" stroke="midnightblue" points="80,-68.23 83.5,-78.23 87,-68.23 80,-68.23"/>
</g>
<!-- Node3 -->
<g id="node3" class="node">
<title>Node3</title>
<g id="a_node3"><a xlink:href="interfaceQuantConnect_1_1Interfaces_1_1ITimeInForceHandler.html" target="_top" xlink:title="Handles the time in force for an order">
<polygon fill="white" stroke="black" points="24.5,-134.5 24.5,-153.5 142.5,-153.5 142.5,-134.5 24.5,-134.5"/>
<text text-anchor="middle" x="83.5" y="-141.5" font-family="Helvetica,sans-Serif" font-size="10.00">ITimeInForceHandler</text>
</a>
</g>
</g>
<!-- Node3&#45;&gt;Node2 -->
<g id="edge2" class="edge">
<title>Node3&#45;&gt;Node2</title>
<path fill="none" stroke="midnightblue" d="M83.5,-123.8C83.5,-114.91 83.5,-104.78 83.5,-97.75"/>
<polygon fill="midnightblue" stroke="midnightblue" points="80,-124.08 83.5,-134.08 87,-124.08 80,-124.08"/>
</g>
</g>
</svg>
