<?xml version="1.0" encoding="UTF-8" standalone="no"?>
<!DOCTYPE svg PUBLIC "-//W3C//DTD SVG 1.1//EN"
 "http://www.w3.org/Graphics/SVG/1.1/DTD/svg11.dtd">
<!-- Generated by graphviz version 2.43.0 (0)
 -->
<!-- Title: QuantConnect.Orders.OrderResponse.UnableToFindOrder Pages: 1 -->
<svg width="876pt" height="123pt"
 viewBox="0.00 0.00 876.00 123.10" xmlns="http://www.w3.org/2000/svg" xmlns:xlink="http://www.w3.org/1999/xlink">
<g id="graph0" class="graph" transform="scale(1 1) rotate(0) translate(4 119.1)">
<title>QuantConnect.Orders.OrderResponse.UnableToFindOrder</title>
<polygon fill="white" stroke="transparent" points="-4,4 -4,-119.1 872,-119.1 872,4 -4,4"/>
<!-- Node1 -->
<g id="node1" class="node">
<title>Node1</title>
<g id="a_node1"><a xlink:title="Helper method to create an error response due to a bad order id">
<polygon fill="#bfbfbf" stroke="black" points="709,-41.42 709,-71.42 868,-71.42 868,-41.42 709,-41.42"/>
<text text-anchor="start" x="717" y="-59.42" font-family="Helvetica,sans-Serif" font-size="10.00">QuantConnect.Orders.Order</text>
<text text-anchor="middle" x="788.5" y="-48.42" font-family="Helvetica,sans-Serif" font-size="10.00">Response.UnableToFindOrder</text>
</a>
</g>
</g>
<!-- Node2 -->
<g id="node2" class="node">
<title>Node2</title>
<g id="a_node2"><a xlink:href="classQuantConnect_1_1Lean_1_1Engine_1_1TransactionHandlers_1_1BrokerageTransactionHandler.html#afb049bcccdaba6992bd31bf91280d9a9" target="_top" xlink:title="Remove this order from outstanding queue: user is requesting a cancel.">
<polygon fill="white" stroke="black" points="260,-65.92 260,-106.92 484,-106.92 484,-65.92 260,-65.92"/>
<text text-anchor="start" x="268" y="-94.92" font-family="Helvetica,sans-Serif" font-size="10.00">QuantConnect.Lean.Engine.</text>
<text text-anchor="start" x="268" y="-83.92" font-family="Helvetica,sans-Serif" font-size="10.00">TransactionHandlers.BrokerageTransaction</text>
<text text-anchor="middle" x="372" y="-72.92" font-family="Helvetica,sans-Serif" font-size="10.00">Handler.CancelOrder</text>
</a>
</g>
</g>
<!-- Node1&#45;&gt;Node2 -->
<g id="edge1" class="edge">
<title>Node1&#45;&gt;Node2</title>
<path fill="none" stroke="midnightblue" d="M752.28,-76.32C730.26,-87.61 700.87,-100.6 673,-106.42 608.36,-119.92 534.35,-115.19 476.02,-106.96"/>
<polygon fill="midnightblue" stroke="midnightblue" points="754.02,-79.37 761.25,-71.62 750.77,-73.17 754.02,-79.37"/>
</g>
<!-- Node4 -->
<g id="node4" class="node">
<title>Node4</title>
<g id="a_node4"><a xlink:href="classQuantConnect_1_1Orders_1_1OrderTicket.html#a2e38fdbc2be3fab72339de9ce4447818" target="_top" xlink:title="Creates a new OrderTicket that represents trying to cancel an order for which no ticket exists">
<polygon fill="white" stroke="black" points="521,-66.42 521,-96.42 672,-96.42 672,-66.42 521,-66.42"/>
<text text-anchor="start" x="529" y="-84.42" font-family="Helvetica,sans-Serif" font-size="10.00">QuantConnect.Orders.Order</text>
<text text-anchor="middle" x="596.5" y="-73.42" font-family="Helvetica,sans-Serif" font-size="10.00">Ticket.InvalidCancelOrderId</text>
</a>
</g>
</g>
<!-- Node1&#45;&gt;Node4 -->
<g id="edge3" class="edge">
<title>Node1&#45;&gt;Node4</title>
<path fill="none" stroke="midnightblue" d="M698.82,-68.09C689.89,-69.26 680.89,-70.45 672.13,-71.6"/>
<polygon fill="midnightblue" stroke="midnightblue" points="699.39,-71.54 708.85,-66.77 698.48,-64.6 699.39,-71.54"/>
</g>
<!-- Node5 -->
<g id="node5" class="node">
<title>Node5</title>
<g id="a_node5"><a xlink:href="classQuantConnect_1_1Orders_1_1OrderTicket.html#ac5c45504b60e43e1c8295e739ea5a797" target="_top" xlink:title="Creates a new OrderTicket that represents trying to update an order for which no ticket exists">
<polygon fill="white" stroke="black" points="520,-17.42 520,-47.42 673,-47.42 673,-17.42 520,-17.42"/>
<text text-anchor="start" x="528" y="-35.42" font-family="Helvetica,sans-Serif" font-size="10.00">QuantConnect.Orders.Order</text>
<text text-anchor="middle" x="596.5" y="-24.42" font-family="Helvetica,sans-Serif" font-size="10.00">Ticket.InvalidUpdateOrderId</text>
</a>
</g>
</g>
<!-- Node1&#45;&gt;Node5 -->
<g id="edge5" class="edge">
<title>Node1&#45;&gt;Node5</title>
<path fill="none" stroke="midnightblue" d="M698.79,-45.22C690.18,-44.13 681.5,-43.03 673.04,-41.96"/>
<polygon fill="midnightblue" stroke="midnightblue" points="698.49,-48.71 708.85,-46.49 699.37,-41.76 698.49,-48.71"/>
</g>
<!-- Node6 -->
<g id="node6" class="node">
<title>Node6</title>
<g id="a_node6"><a xlink:href="classQuantConnect_1_1Lean_1_1Engine_1_1TransactionHandlers_1_1BrokerageTransactionHandler.html#a1a38e71d6ea75fe654d365cb6b7501d2" target="_top" xlink:title="Update an order yet to be filled such as stop or limit orders.">
<polygon fill="white" stroke="black" points="260,-5.92 260,-46.92 484,-46.92 484,-5.92 260,-5.92"/>
<text text-anchor="start" x="268" y="-34.92" font-family="Helvetica,sans-Serif" font-size="10.00">QuantConnect.Lean.Engine.</text>
<text text-anchor="start" x="268" y="-23.92" font-family="Helvetica,sans-Serif" font-size="10.00">TransactionHandlers.BrokerageTransaction</text>
<text text-anchor="middle" x="372" y="-12.92" font-family="Helvetica,sans-Serif" font-size="10.00">Handler.UpdateOrder</text>
</a>
</g>
</g>
<!-- Node1&#45;&gt;Node6 -->
<g id="edge8" class="edge">
<title>Node1&#45;&gt;Node6</title>
<path fill="none" stroke="midnightblue" d="M751.3,-36.87C729.34,-26.14 700.37,-13.92 673,-8.42 611.23,4 540.99,0.7 484.01,-6.25"/>
<polygon fill="midnightblue" stroke="midnightblue" points="749.75,-40.01 760.26,-41.36 752.88,-33.75 749.75,-40.01"/>
</g>
<!-- Node3 -->
<g id="node3" class="node">
<title>Node3</title>
<g id="a_node3"><a xlink:href="classQuantConnect_1_1Lean_1_1Engine_1_1TransactionHandlers_1_1BrokerageTransactionHandler.html#ad7914edfb9b6e24fcbcd637e2c468cd5" target="_top" xlink:title="Adds the specified order to be processed">
<polygon fill="white" stroke="black" points="0,-35.92 0,-76.92 224,-76.92 224,-35.92 0,-35.92"/>
<text text-anchor="start" x="8" y="-64.92" font-family="Helvetica,sans-Serif" font-size="10.00">QuantConnect.Lean.Engine.</text>
<text text-anchor="start" x="8" y="-53.92" font-family="Helvetica,sans-Serif" font-size="10.00">TransactionHandlers.BrokerageTransaction</text>
<text text-anchor="middle" x="112" y="-42.92" font-family="Helvetica,sans-Serif" font-size="10.00">Handler.Process</text>
</a>
</g>
</g>
<!-- Node2&#45;&gt;Node3 -->
<g id="edge2" class="edge">
<title>Node2&#45;&gt;Node3</title>
<path fill="none" stroke="midnightblue" d="M249.78,-72.33C241.29,-71.34 232.76,-70.35 224.33,-69.37"/>
<polygon fill="midnightblue" stroke="midnightblue" points="249.38,-75.8 259.71,-73.48 250.18,-68.85 249.38,-75.8"/>
</g>
<!-- Node4&#45;&gt;Node2 -->
<g id="edge4" class="edge">
<title>Node4&#45;&gt;Node2</title>
<path fill="none" stroke="midnightblue" d="M510.75,-83.33C502.1,-83.52 493.22,-83.72 484.35,-83.92"/>
<polygon fill="midnightblue" stroke="midnightblue" points="510.87,-86.82 520.79,-83.1 510.72,-79.83 510.87,-86.82"/>
</g>
<!-- Node5&#45;&gt;Node6 -->
<g id="edge6" class="edge">
<title>Node5&#45;&gt;Node6</title>
<path fill="none" stroke="midnightblue" d="M509.79,-30.11C501.44,-29.88 492.89,-29.65 484.34,-29.42"/>
<polygon fill="midnightblue" stroke="midnightblue" points="509.77,-33.61 519.86,-30.38 509.96,-26.61 509.77,-33.61"/>
</g>
<!-- Node6&#45;&gt;Node3 -->
<g id="edge7" class="edge">
<title>Node6&#45;&gt;Node3</title>
<path fill="none" stroke="midnightblue" d="M249.78,-40.52C241.29,-41.5 232.76,-42.5 224.33,-43.48"/>
<polygon fill="midnightblue" stroke="midnightblue" points="250.18,-43.99 259.71,-39.36 249.38,-37.04 250.18,-43.99"/>
</g>
</g>
</svg>
