<?xml version="1.0" encoding="UTF-8" standalone="no"?>
<!DOCTYPE svg PUBLIC "-//W3C//DTD SVG 1.1//EN"
 "http://www.w3.org/Graphics/SVG/1.1/DTD/svg11.dtd">
<!-- Generated by graphviz version 2.43.0 (0)
 -->
<!-- Title: QuantConnect.Indicators.SharpeRatio Pages: 1 -->
<svg width="340pt" height="173pt"
 viewBox="0.00 0.00 339.50 173.00" xmlns="http://www.w3.org/2000/svg" xmlns:xlink="http://www.w3.org/1999/xlink">
<g id="graph0" class="graph" transform="scale(1 1) rotate(0) translate(4 169)">
<title>QuantConnect.Indicators.SharpeRatio</title>
<polygon fill="white" stroke="transparent" points="-4,4 -4,-169 335.5,-169 335.5,4 -4,4"/>
<!-- Node1 -->
<g id="node1" class="node">
<title>Node1</title>
<g id="a_node1"><a xlink:title="Calculation of the Sharpe Ratio (SR) developed by William F. Sharpe.">
<polygon fill="#bfbfbf" stroke="black" points="85.5,-67.5 85.5,-97.5 225.5,-97.5 225.5,-67.5 85.5,-67.5"/>
<text text-anchor="start" x="93.5" y="-85.5" font-family="Helvetica,sans-Serif" font-size="10.00">QuantConnect.Indicators.</text>
<text text-anchor="middle" x="155.5" y="-74.5" font-family="Helvetica,sans-Serif" font-size="10.00">SharpeRatio</text>
</a>
</g>
</g>
<!-- Node4 -->
<g id="node4" class="node">
<title>Node4</title>
<g id="a_node4"><a xlink:href="classQuantConnect_1_1Indicators_1_1SortinoRatio.html" target="_top" xlink:title="Calculation of the Sortino Ratio, a modification of the SharpeRatio.">
<polygon fill="white" stroke="black" points="85.5,-0.5 85.5,-30.5 225.5,-30.5 225.5,-0.5 85.5,-0.5"/>
<text text-anchor="start" x="93.5" y="-18.5" font-family="Helvetica,sans-Serif" font-size="10.00">QuantConnect.Indicators.</text>
<text text-anchor="middle" x="155.5" y="-7.5" font-family="Helvetica,sans-Serif" font-size="10.00">SortinoRatio</text>
</a>
</g>
</g>
<!-- Node1&#45;&gt;Node4 -->
<g id="edge3" class="edge">
<title>Node1&#45;&gt;Node4</title>
<path fill="none" stroke="midnightblue" d="M155.5,-57.11C155.5,-48.15 155.5,-38.32 155.5,-30.58"/>
<polygon fill="midnightblue" stroke="midnightblue" points="152,-57.4 155.5,-67.4 159,-57.4 152,-57.4"/>
</g>
<!-- Node2 -->
<g id="node2" class="node">
<title>Node2</title>
<g id="a_node2"><a xlink:href="classQuantConnect_1_1Indicators_1_1IndicatorBase.html" target="_top" xlink:title=" ">
<polygon fill="white" stroke="black" points="0,-134.5 0,-164.5 137,-164.5 137,-134.5 0,-134.5"/>
<text text-anchor="start" x="8" y="-152.5" font-family="Helvetica,sans-Serif" font-size="10.00">IndicatorBase&lt; Indicator</text>
<text text-anchor="middle" x="68.5" y="-141.5" font-family="Helvetica,sans-Serif" font-size="10.00">DataPoint &gt;</text>
</a>
</g>
</g>
<!-- Node2&#45;&gt;Node1 -->
<g id="edge1" class="edge">
<title>Node2&#45;&gt;Node1</title>
<path fill="none" stroke="midnightblue" d="M95.71,-128.17C109.02,-118.23 124.7,-106.51 136.66,-97.58"/>
<polygon fill="midnightblue" stroke="midnightblue" points="93.29,-125.61 87.38,-134.4 97.48,-131.21 93.29,-125.61"/>
</g>
<!-- Node3 -->
<g id="node3" class="node">
<title>Node3</title>
<g id="a_node3"><a xlink:href="interfaceQuantConnect_1_1Indicators_1_1IIndicatorWarmUpPeriodProvider.html" target="_top" xlink:title="Represents an indicator with a warm up period provider.">
<polygon fill="white" stroke="black" points="155.5,-140 155.5,-159 331.5,-159 331.5,-140 155.5,-140"/>
<text text-anchor="middle" x="243.5" y="-147" font-family="Helvetica,sans-Serif" font-size="10.00">IIndicatorWarmUpPeriodProvider</text>
</a>
</g>
</g>
<!-- Node3&#45;&gt;Node1 -->
<g id="edge2" class="edge">
<title>Node3&#45;&gt;Node1</title>
<path fill="none" stroke="midnightblue" d="M223.25,-133.54C208.61,-122.73 188.94,-108.2 174.57,-97.59"/>
<polygon fill="midnightblue" stroke="midnightblue" points="221.51,-136.61 231.63,-139.73 225.67,-130.98 221.51,-136.61"/>
</g>
</g>
</svg>
