<?xml version="1.0" encoding="UTF-8" standalone="no"?>
<!DOCTYPE svg PUBLIC "-//W3C//DTD SVG 1.1//EN"
 "http://www.w3.org/Graphics/SVG/1.1/DTD/svg11.dtd">
<!-- Generated by graphviz version 2.43.0 (0)
 -->
<!-- Title: QuantConnect.Lean.Engine.DataFeeds.SubscriptionDataReader Pages: 1 -->
<svg width="432pt" height="95pt"
 viewBox="0.00 0.00 432.00 95.00" xmlns="http://www.w3.org/2000/svg" xmlns:xlink="http://www.w3.org/1999/xlink">
<g id="graph0" class="graph" transform="scale(1 1) rotate(0) translate(4 91)">
<title>QuantConnect.Lean.Engine.DataFeeds.SubscriptionDataReader</title>
<polygon fill="white" stroke="transparent" points="-4,4 -4,-91 428,-91 428,4 -4,4"/>
<!-- Node1 -->
<g id="node1" class="node">
<title>Node1</title>
<g id="a_node1"><a xlink:title="Subscription data reader is a wrapper on the stream reader class to download, unpack and iterate over...">
<polygon fill="#bfbfbf" stroke="black" points="132.5,-0.5 132.5,-30.5 321.5,-30.5 321.5,-0.5 132.5,-0.5"/>
<text text-anchor="start" x="140.5" y="-18.5" font-family="Helvetica,sans-Serif" font-size="10.00">QuantConnect.Lean.Engine.</text>
<text text-anchor="middle" x="227" y="-7.5" font-family="Helvetica,sans-Serif" font-size="10.00">DataFeeds.SubscriptionDataReader</text>
</a>
</g>
</g>
<!-- Node2 -->
<g id="node2" class="node">
<title>Node2</title>
<g id="a_node2"><a xlink:title=" ">
<polygon fill="white" stroke="#bfbfbf" points="0,-67.5 0,-86.5 146,-86.5 146,-67.5 0,-67.5"/>
<text text-anchor="middle" x="73" y="-74.5" font-family="Helvetica,sans-Serif" font-size="10.00">IEnumerator&lt; BaseData &gt;</text>
</a>
</g>
</g>
<!-- Node2&#45;&gt;Node1 -->
<g id="edge1" class="edge">
<title>Node2&#45;&gt;Node1</title>
<path fill="none" stroke="midnightblue" d="M104.45,-63.85C129.47,-54.18 164.5,-40.65 190.71,-30.52"/>
<polygon fill="midnightblue" stroke="midnightblue" points="103.13,-60.61 95.06,-67.48 105.65,-67.14 103.13,-60.61"/>
</g>
<!-- Node3 -->
<g id="node3" class="node">
<title>Node3</title>
<g id="a_node3"><a xlink:href="interfaceQuantConnect_1_1Lean_1_1Engine_1_1DataFeeds_1_1Enumerators_1_1ITradableDatesNotifier.html" target="_top" xlink:title="Interface which will provide an event handler who will be fired with each new tradable day">
<polygon fill="white" stroke="black" points="164.5,-67.5 164.5,-86.5 289.5,-86.5 289.5,-67.5 164.5,-67.5"/>
<text text-anchor="middle" x="227" y="-74.5" font-family="Helvetica,sans-Serif" font-size="10.00">ITradableDatesNotifier</text>
</a>
</g>
</g>
<!-- Node3&#45;&gt;Node1 -->
<g id="edge2" class="edge">
<title>Node3&#45;&gt;Node1</title>
<path fill="none" stroke="midnightblue" d="M227,-57.23C227,-48.59 227,-38.5 227,-30.52"/>
<polygon fill="midnightblue" stroke="midnightblue" points="223.5,-57.48 227,-67.48 230.5,-57.48 223.5,-57.48"/>
</g>
<!-- Node4 -->
<g id="node4" class="node">
<title>Node4</title>
<g id="a_node4"><a xlink:href="interfaceQuantConnect_1_1Interfaces_1_1IDataProviderEvents.html" target="_top" xlink:title="Events related to data providers">
<polygon fill="white" stroke="black" points="308,-67.5 308,-86.5 424,-86.5 424,-67.5 308,-67.5"/>
<text text-anchor="middle" x="366" y="-74.5" font-family="Helvetica,sans-Serif" font-size="10.00">IDataProviderEvents</text>
</a>
</g>
</g>
<!-- Node4&#45;&gt;Node1 -->
<g id="edge3" class="edge">
<title>Node4&#45;&gt;Node1</title>
<path fill="none" stroke="midnightblue" d="M336.71,-63.46C314.19,-53.82 283.1,-40.51 259.76,-30.52"/>
<polygon fill="midnightblue" stroke="midnightblue" points="335.51,-66.76 346.08,-67.48 338.27,-60.32 335.51,-66.76"/>
</g>
</g>
</svg>
