<?xml version="1.0" encoding="UTF-8" standalone="no"?>
<!DOCTYPE svg PUBLIC "-//W3C//DTD SVG 1.1//EN"
 "http://www.w3.org/Graphics/SVG/1.1/DTD/svg11.dtd">
<!-- Generated by graphviz version 2.43.0 (0)
 -->
<!-- Title: QuantConnect.Securities.Option.OptionSymbol.IsStandard Pages: 1 -->
<svg width="582pt" height="210pt"
 viewBox="0.00 0.00 582.00 209.50" xmlns="http://www.w3.org/2000/svg" xmlns:xlink="http://www.w3.org/1999/xlink">
<g id="graph0" class="graph" transform="scale(1 1) rotate(0) translate(4 205.5)">
<title>QuantConnect.Securities.Option.OptionSymbol.IsStandard</title>
<polygon fill="white" stroke="transparent" points="-4,4 -4,-205.5 578,-205.5 578,4 -4,4"/>
<!-- Node1 -->
<g id="node1" class="node">
<title>Node1</title>
<g id="a_node1"><a xlink:title="Returns true if the option is a standard contract that expires 3rd Friday of the month">
<polygon fill="#bfbfbf" stroke="black" points="398,-82.5 398,-112.5 574,-112.5 574,-82.5 398,-82.5"/>
<text text-anchor="start" x="406" y="-100.5" font-family="Helvetica,sans-Serif" font-size="10.00">QuantConnect.Securities.</text>
<text text-anchor="middle" x="486" y="-89.5" font-family="Helvetica,sans-Serif" font-size="10.00">Option.OptionSymbol.IsStandard</text>
</a>
</g>
</g>
<!-- Node2 -->
<g id="node2" class="node">
<title>Node2</title>
<g id="a_node2"><a xlink:href="classQuantConnect_1_1Securities_1_1Option_1_1OptionSymbol.html#a75217e30f16bc69188675c474bb703b0" target="_top" xlink:title="Returns the last trading date for the option contract">
<polygon fill="white" stroke="black" points="181,-160 181,-201 362,-201 362,-160 181,-160"/>
<text text-anchor="start" x="189" y="-189" font-family="Helvetica,sans-Serif" font-size="10.00">QuantConnect.Securities.</text>
<text text-anchor="start" x="189" y="-178" font-family="Helvetica,sans-Serif" font-size="10.00">Option.OptionSymbol.GetLastDay</text>
<text text-anchor="middle" x="271.5" y="-167" font-family="Helvetica,sans-Serif" font-size="10.00">OfTrading</text>
</a>
</g>
</g>
<!-- Node1&#45;&gt;Node2 -->
<g id="edge1" class="edge">
<title>Node1&#45;&gt;Node2</title>
<path fill="none" stroke="midnightblue" d="M442.8,-116.72C419.23,-127.19 389.2,-140.1 362,-150.5 353.73,-153.66 344.97,-156.82 336.29,-159.84"/>
<polygon fill="midnightblue" stroke="midnightblue" points="444.45,-119.81 452.16,-112.54 441.6,-113.42 444.45,-119.81"/>
</g>
<!-- Node4 -->
<g id="node4" class="node">
<title>Node4</title>
<g id="a_node4"><a xlink:href="classQuantConnect_1_1Securities_1_1OptionFilterUniverse.html#a954c7f72326b4a248dd5a8be194cc971" target="_top" xlink:title="Determine if the given Option contract symbol is standard">
<polygon fill="white" stroke="black" points="185.5,-110.5 185.5,-140.5 357.5,-140.5 357.5,-110.5 185.5,-110.5"/>
<text text-anchor="start" x="193.5" y="-128.5" font-family="Helvetica,sans-Serif" font-size="10.00">QuantConnect.Securities.</text>
<text text-anchor="middle" x="271.5" y="-117.5" font-family="Helvetica,sans-Serif" font-size="10.00">OptionFilterUniverse.IsStandard</text>
</a>
</g>
</g>
<!-- Node1&#45;&gt;Node4 -->
<g id="edge3" class="edge">
<title>Node1&#45;&gt;Node4</title>
<path fill="none" stroke="midnightblue" d="M387.92,-110.29C377.83,-111.62 367.63,-112.96 357.69,-114.27"/>
<polygon fill="midnightblue" stroke="midnightblue" points="388.5,-113.75 397.95,-108.97 387.58,-106.81 388.5,-113.75"/>
</g>
<!-- Node5 -->
<g id="node5" class="node">
<title>Node5</title>
<g id="a_node5"><a xlink:href="classQuantConnect_1_1Securities_1_1Option_1_1OptionSymbol.html#a111001806cbc9bd5c096d716de9cc622" target="_top" xlink:title="Returns true if the option is a standard contract that expires 3rd Friday of the month">
<polygon fill="white" stroke="black" points="183.5,-50 183.5,-91 359.5,-91 359.5,-50 183.5,-50"/>
<text text-anchor="start" x="191.5" y="-79" font-family="Helvetica,sans-Serif" font-size="10.00">QuantConnect.Securities.</text>
<text text-anchor="start" x="191.5" y="-68" font-family="Helvetica,sans-Serif" font-size="10.00">Option.OptionSymbol.IsStandard</text>
<text text-anchor="middle" x="271.5" y="-57" font-family="Helvetica,sans-Serif" font-size="10.00">Contract</text>
</a>
</g>
</g>
<!-- Node1&#45;&gt;Node5 -->
<g id="edge4" class="edge">
<title>Node1&#45;&gt;Node5</title>
<path fill="none" stroke="midnightblue" d="M387.84,-85.16C378.48,-83.97 369.02,-82.76 359.75,-81.59"/>
<polygon fill="midnightblue" stroke="midnightblue" points="387.59,-88.65 397.95,-86.44 388.48,-81.71 387.59,-88.65"/>
</g>
<!-- Node6 -->
<g id="node6" class="node">
<title>Node6</title>
<g id="a_node6"><a xlink:href="classQuantConnect_1_1Securities_1_1Option_1_1OptionSymbol.html#a1fb22470f1ace3a13ddf091ec0832fe4" target="_top" xlink:title="Returns true if the option is a weekly contract that expires on Friday , except 3rd Friday of the mon...">
<polygon fill="white" stroke="black" points="187.5,-0.5 187.5,-30.5 355.5,-30.5 355.5,-0.5 187.5,-0.5"/>
<text text-anchor="start" x="195.5" y="-18.5" font-family="Helvetica,sans-Serif" font-size="10.00">QuantConnect.Securities.</text>
<text text-anchor="middle" x="271.5" y="-7.5" font-family="Helvetica,sans-Serif" font-size="10.00">Option.OptionSymbol.IsWeekly</text>
</a>
</g>
</g>
<!-- Node1&#45;&gt;Node6 -->
<g id="edge5" class="edge">
<title>Node1&#45;&gt;Node6</title>
<path fill="none" stroke="midnightblue" d="M446.65,-77.77C422.72,-65.96 391.05,-51.21 362,-40.5 352.31,-36.93 341.87,-33.58 331.67,-30.57"/>
<polygon fill="midnightblue" stroke="midnightblue" points="445.23,-80.98 455.74,-82.31 448.35,-74.71 445.23,-80.98"/>
</g>
<!-- Node3 -->
<g id="node3" class="node">
<title>Node3</title>
<g id="a_node3"><a xlink:href="classQuantConnect_1_1Extensions.html#a0ffdbe5701923c4217f90dd5fbe87641" target="_top" xlink:title="Gets the delisting date for the provided Symbol">
<polygon fill="white" stroke="black" points="0,-165.5 0,-195.5 145,-195.5 145,-165.5 0,-165.5"/>
<text text-anchor="start" x="8" y="-183.5" font-family="Helvetica,sans-Serif" font-size="10.00">QuantConnect.Extensions.</text>
<text text-anchor="middle" x="72.5" y="-172.5" font-family="Helvetica,sans-Serif" font-size="10.00">GetDelistingDate</text>
</a>
</g>
</g>
<!-- Node2&#45;&gt;Node3 -->
<g id="edge2" class="edge">
<title>Node2&#45;&gt;Node3</title>
<path fill="none" stroke="midnightblue" d="M170.79,-180.5C162.14,-180.5 153.5,-180.5 145.14,-180.5"/>
<polygon fill="midnightblue" stroke="midnightblue" points="170.93,-184 180.93,-180.5 170.93,-177 170.93,-184"/>
</g>
</g>
</svg>
