<?xml version="1.0" encoding="UTF-8" standalone="no"?>
<!DOCTYPE svg PUBLIC "-//W3C//DTD SVG 1.1//EN"
 "http://www.w3.org/Graphics/SVG/1.1/DTD/svg11.dtd">
<!-- Generated by graphviz version 2.43.0 (0)
 -->
<!-- Title: QuantConnect.Lean.Engine.HistoricalData.SubscriptionDataReaderHistoryProvider Pages: 1 -->
<svg width="181pt" height="274pt"
 viewBox="0.00 0.00 181.00 274.00" xmlns="http://www.w3.org/2000/svg" xmlns:xlink="http://www.w3.org/1999/xlink">
<g id="graph0" class="graph" transform="scale(1 1) rotate(0) translate(4 270)">
<title>QuantConnect.Lean.Engine.HistoricalData.SubscriptionDataReaderHistoryProvider</title>
<polygon fill="white" stroke="transparent" points="-4,4 -4,-270 177,-270 177,4 -4,4"/>
<!-- Node1 -->
<g id="node1" class="node">
<title>Node1</title>
<g id="a_node1"><a xlink:title="Provides an implementation of IHistoryProvider that uses BaseData instances to retrieve historical da...">
<polygon fill="#bfbfbf" stroke="black" points="0,-0.5 0,-41.5 173,-41.5 173,-0.5 0,-0.5"/>
<text text-anchor="start" x="8" y="-29.5" font-family="Helvetica,sans-Serif" font-size="10.00">QuantConnect.Lean.Engine.</text>
<text text-anchor="start" x="8" y="-18.5" font-family="Helvetica,sans-Serif" font-size="10.00">HistoricalData.SubscriptionData</text>
<text text-anchor="middle" x="86.5" y="-7.5" font-family="Helvetica,sans-Serif" font-size="10.00">ReaderHistoryProvider</text>
</a>
</g>
</g>
<!-- Node2 -->
<g id="node2" class="node">
<title>Node2</title>
<g id="a_node2"><a xlink:href="classQuantConnect_1_1Lean_1_1Engine_1_1HistoricalData_1_1SynchronizingHistoryProvider.html" target="_top" xlink:title="Provides an abstract implementation of IHistoryProvider which provides synchronization of multiple hi...">
<polygon fill="white" stroke="black" points="6,-78.5 6,-97.5 167,-97.5 167,-78.5 6,-78.5"/>
<text text-anchor="middle" x="86.5" y="-85.5" font-family="Helvetica,sans-Serif" font-size="10.00">SynchronizingHistoryProvider</text>
</a>
</g>
</g>
<!-- Node2&#45;&gt;Node1 -->
<g id="edge1" class="edge">
<title>Node2&#45;&gt;Node1</title>
<path fill="none" stroke="midnightblue" d="M86.5,-68.04C86.5,-59.71 86.5,-49.94 86.5,-41.54"/>
<polygon fill="midnightblue" stroke="midnightblue" points="83,-68.23 86.5,-78.23 90,-68.23 83,-68.23"/>
</g>
<!-- Node3 -->
<g id="node3" class="node">
<title>Node3</title>
<g id="a_node3"><a xlink:href="classQuantConnect_1_1Data_1_1HistoryProviderBase.html" target="_top" xlink:title="Provides a base type for all history providers">
<polygon fill="white" stroke="black" points="28.5,-134.5 28.5,-153.5 144.5,-153.5 144.5,-134.5 28.5,-134.5"/>
<text text-anchor="middle" x="86.5" y="-141.5" font-family="Helvetica,sans-Serif" font-size="10.00">HistoryProviderBase</text>
</a>
</g>
</g>
<!-- Node3&#45;&gt;Node2 -->
<g id="edge2" class="edge">
<title>Node3&#45;&gt;Node2</title>
<path fill="none" stroke="midnightblue" d="M86.5,-123.8C86.5,-114.91 86.5,-104.78 86.5,-97.75"/>
<polygon fill="midnightblue" stroke="midnightblue" points="83,-124.08 86.5,-134.08 90,-124.08 83,-124.08"/>
</g>
<!-- Node4 -->
<g id="node4" class="node">
<title>Node4</title>
<g id="a_node4"><a xlink:href="interfaceQuantConnect_1_1Interfaces_1_1IHistoryProvider.html" target="_top" xlink:title="Provides historical data to an algorithm at runtime">
<polygon fill="white" stroke="black" points="39,-190.5 39,-209.5 134,-209.5 134,-190.5 39,-190.5"/>
<text text-anchor="middle" x="86.5" y="-197.5" font-family="Helvetica,sans-Serif" font-size="10.00">IHistoryProvider</text>
</a>
</g>
</g>
<!-- Node4&#45;&gt;Node3 -->
<g id="edge3" class="edge">
<title>Node4&#45;&gt;Node3</title>
<path fill="none" stroke="midnightblue" d="M86.5,-179.8C86.5,-170.91 86.5,-160.78 86.5,-153.75"/>
<polygon fill="midnightblue" stroke="midnightblue" points="83,-180.08 86.5,-190.08 90,-180.08 83,-180.08"/>
</g>
<!-- Node5 -->
<g id="node5" class="node">
<title>Node5</title>
<g id="a_node5"><a xlink:href="interfaceQuantConnect_1_1Interfaces_1_1IDataProviderEvents.html" target="_top" xlink:title="Events related to data providers">
<polygon fill="white" stroke="black" points="28.5,-246.5 28.5,-265.5 144.5,-265.5 144.5,-246.5 28.5,-246.5"/>
<text text-anchor="middle" x="86.5" y="-253.5" font-family="Helvetica,sans-Serif" font-size="10.00">IDataProviderEvents</text>
</a>
</g>
</g>
<!-- Node5&#45;&gt;Node4 -->
<g id="edge4" class="edge">
<title>Node5&#45;&gt;Node4</title>
<path fill="none" stroke="midnightblue" d="M86.5,-235.8C86.5,-226.91 86.5,-216.78 86.5,-209.75"/>
<polygon fill="midnightblue" stroke="midnightblue" points="83,-236.08 86.5,-246.08 90,-236.08 83,-236.08"/>
</g>
</g>
</svg>
