<?xml version="1.0" encoding="UTF-8" standalone="no"?>
<!DOCTYPE svg PUBLIC "-//W3C//DTD SVG 1.1//EN"
 "http://www.w3.org/Graphics/SVG/1.1/DTD/svg11.dtd">
<!-- Generated by graphviz version 2.43.0 (0)
 -->
<!-- Title: QuantConnect.ToolBox.IQFeed.IQFeedDataQueueHandler.GetHistory Pages: 1 -->
<svg width="841pt" height="78pt"
 viewBox="0.00 0.00 841.00 77.50" xmlns="http://www.w3.org/2000/svg" xmlns:xlink="http://www.w3.org/1999/xlink">
<g id="graph0" class="graph" transform="scale(1 1) rotate(0) translate(4 73.5)">
<title>QuantConnect.ToolBox.IQFeed.IQFeedDataQueueHandler.GetHistory</title>
<polygon fill="white" stroke="transparent" points="-4,4 -4,-73.5 837,-73.5 837,4 -4,4"/>
<!-- Node1 -->
<g id="node1" class="node">
<title>Node1</title>
<g id="a_node1"><a xlink:title="Gets the history for the requested securities">
<polygon fill="#bfbfbf" stroke="black" points="0,-22.5 0,-52.5 198,-52.5 198,-22.5 0,-22.5"/>
<text text-anchor="start" x="8" y="-40.5" font-family="Helvetica,sans-Serif" font-size="10.00">QuantConnect.ToolBox.IQFeed.</text>
<text text-anchor="middle" x="99" y="-29.5" font-family="Helvetica,sans-Serif" font-size="10.00">IQFeedDataQueueHandler.GetHistory</text>
</a>
</g>
</g>
<!-- Node2 -->
<g id="node2" class="node">
<title>Node2</title>
<g id="a_node2"><a xlink:href="classQuantConnect_1_1ToolBox_1_1IQFeed_1_1HistoryPort.html#a5367485aae47c183a0848013c4a5f05d" target="_top" xlink:title="Populate request data">
<polygon fill="white" stroke="black" points="234,-22.5 234,-52.5 426,-52.5 426,-22.5 234,-22.5"/>
<text text-anchor="start" x="242" y="-40.5" font-family="Helvetica,sans-Serif" font-size="10.00">QuantConnect.ToolBox.IQFeed.</text>
<text text-anchor="middle" x="330" y="-29.5" font-family="Helvetica,sans-Serif" font-size="10.00">HistoryPort.ProcessHistoryRequests</text>
</a>
</g>
</g>
<!-- Node1&#45;&gt;Node2 -->
<g id="edge1" class="edge">
<title>Node1&#45;&gt;Node2</title>
<path fill="none" stroke="midnightblue" d="M198.11,-37.5C206.66,-37.5 215.34,-37.5 223.94,-37.5"/>
<polygon fill="midnightblue" stroke="midnightblue" points="224,-41 234,-37.5 224,-34 224,-41"/>
</g>
<!-- Node3 -->
<g id="node3" class="node">
<title>Node3</title>
<g id="a_node3"><a xlink:href="classQuantConnect_1_1Symbol.html#a1f3c25223fd9a7b753a4f84ece6469ab" target="_top" xlink:title="Method returns true, if symbol is a derivative canonical symbol">
<polygon fill="white" stroke="black" points="462,-50 462,-69 647,-69 647,-50 462,-50"/>
<text text-anchor="middle" x="554.5" y="-57" font-family="Helvetica,sans-Serif" font-size="10.00">QuantConnect.Symbol.IsCanonical</text>
</a>
</g>
</g>
<!-- Node2&#45;&gt;Node3 -->
<g id="edge2" class="edge">
<title>Node2&#45;&gt;Node3</title>
<path fill="none" stroke="midnightblue" d="M426.01,-46.89C434.58,-47.74 443.29,-48.6 451.91,-49.46"/>
<polygon fill="midnightblue" stroke="midnightblue" points="451.7,-52.95 461.99,-50.45 452.39,-45.99 451.7,-52.95"/>
</g>
<!-- Node4 -->
<g id="node4" class="node">
<title>Node4</title>
<g id="a_node4"><a xlink:href="classQuantConnect_1_1Logging_1_1Log.html#a4e55477fbc790846b74550a57198cea9" target="_top" xlink:title="Log trace">
<polygon fill="white" stroke="black" points="479.5,-0.5 479.5,-30.5 629.5,-30.5 629.5,-0.5 479.5,-0.5"/>
<text text-anchor="start" x="487.5" y="-18.5" font-family="Helvetica,sans-Serif" font-size="10.00">QuantConnect.Logging.Log.</text>
<text text-anchor="middle" x="554.5" y="-7.5" font-family="Helvetica,sans-Serif" font-size="10.00">Trace</text>
</a>
</g>
</g>
<!-- Node2&#45;&gt;Node4 -->
<g id="edge3" class="edge">
<title>Node2&#45;&gt;Node4</title>
<path fill="none" stroke="midnightblue" d="M426.01,-28.11C440.36,-26.69 455.08,-25.23 469.18,-23.84"/>
<polygon fill="midnightblue" stroke="midnightblue" points="469.73,-27.3 479.33,-22.83 469.04,-20.33 469.73,-27.3"/>
</g>
<!-- Node5 -->
<g id="node5" class="node">
<title>Node5</title>
<g id="a_node5"><a xlink:href="interfaceQuantConnect_1_1Logging_1_1ILogHandler.html#a3fb71a33ac66129240b63f12b6fcda3b" target="_top" xlink:title="Write debug message to log">
<polygon fill="white" stroke="black" points="683,-0.5 683,-30.5 833,-30.5 833,-0.5 683,-0.5"/>
<text text-anchor="start" x="691" y="-18.5" font-family="Helvetica,sans-Serif" font-size="10.00">QuantConnect.Logging.ILog</text>
<text text-anchor="middle" x="758" y="-7.5" font-family="Helvetica,sans-Serif" font-size="10.00">Handler.Trace</text>
</a>
</g>
</g>
<!-- Node4&#45;&gt;Node5 -->
<g id="edge4" class="edge">
<title>Node4&#45;&gt;Node5</title>
<path fill="none" stroke="midnightblue" d="M629.67,-15.5C643.67,-15.5 658.4,-15.5 672.68,-15.5"/>
<polygon fill="midnightblue" stroke="midnightblue" points="672.98,-19 682.98,-15.5 672.98,-12 672.98,-19"/>
</g>
</g>
</svg>
