<?xml version="1.0" encoding="UTF-8" standalone="no"?>
<!DOCTYPE svg PUBLIC "-//W3C//DTD SVG 1.1//EN"
 "http://www.w3.org/Graphics/SVG/1.1/DTD/svg11.dtd">
<!-- Generated by graphviz version 2.43.0 (0)
 -->
<!-- Title: QuantConnect.Util.PythonUtil.PythonExceptionParser Pages: 1 -->
<svg width="385pt" height="88pt"
 viewBox="0.00 0.00 385.00 88.00" xmlns="http://www.w3.org/2000/svg" xmlns:xlink="http://www.w3.org/1999/xlink">
<g id="graph0" class="graph" transform="scale(1 1) rotate(0) translate(4 84)">
<title>QuantConnect.Util.PythonUtil.PythonExceptionParser</title>
<polygon fill="white" stroke="transparent" points="-4,4 -4,-84 381,-84 381,4 -4,4"/>
<!-- Node1 -->
<g id="node1" class="node">
<title>Node1</title>
<g id="a_node1"><a xlink:title="Parsers PythonException into a readable message">
<polygon fill="#bfbfbf" stroke="black" points="0,-24.5 0,-54.5 149,-54.5 149,-24.5 0,-24.5"/>
<text text-anchor="start" x="8" y="-42.5" font-family="Helvetica,sans-Serif" font-size="10.00">QuantConnect.Util.Python</text>
<text text-anchor="middle" x="74.5" y="-31.5" font-family="Helvetica,sans-Serif" font-size="10.00">Util.PythonExceptionParser</text>
</a>
</g>
</g>
<!-- Node2 -->
<g id="node2" class="node">
<title>Node2</title>
<g id="a_node2"><a xlink:href="classQuantConnect_1_1Util_1_1PythonUtil.html#a8da471b355fa961dfce4e9280c56a80d" target="_top" xlink:title="Parsers PythonException.Message into a readable message">
<polygon fill="white" stroke="black" points="185,-49.5 185,-79.5 377,-79.5 377,-49.5 185,-49.5"/>
<text text-anchor="start" x="193" y="-67.5" font-family="Helvetica,sans-Serif" font-size="10.00">QuantConnect.Util.Python</text>
<text text-anchor="middle" x="281" y="-56.5" font-family="Helvetica,sans-Serif" font-size="10.00">Util.PythonExceptionMessageParser</text>
</a>
</g>
</g>
<!-- Node1&#45;&gt;Node2 -->
<g id="edge1" class="edge">
<title>Node1&#45;&gt;Node2</title>
<path fill="none" stroke="midnightblue" d="M149.04,-48.49C157.35,-49.51 165.94,-50.56 174.56,-51.61"/>
<polygon fill="midnightblue" stroke="midnightblue" points="174.32,-55.11 184.68,-52.85 175.17,-48.16 174.32,-55.11"/>
</g>
<!-- Node3 -->
<g id="node3" class="node">
<title>Node3</title>
<g id="a_node3"><a xlink:href="classQuantConnect_1_1Util_1_1PythonUtil.html#a092a2692ea8e8fd23fe5e3b3357c336f" target="_top" xlink:title="Parsers PythonException.StackTrace into a readable message">
<polygon fill="white" stroke="black" points="193,-0.5 193,-30.5 369,-30.5 369,-0.5 193,-0.5"/>
<text text-anchor="start" x="201" y="-18.5" font-family="Helvetica,sans-Serif" font-size="10.00">QuantConnect.Util.Python</text>
<text text-anchor="middle" x="281" y="-7.5" font-family="Helvetica,sans-Serif" font-size="10.00">Util.PythonExceptionStackParser</text>
</a>
</g>
</g>
<!-- Node1&#45;&gt;Node3 -->
<g id="edge2" class="edge">
<title>Node1&#45;&gt;Node3</title>
<path fill="none" stroke="midnightblue" d="M149.04,-30.87C160.02,-29.58 171.49,-28.24 182.86,-26.9"/>
<polygon fill="midnightblue" stroke="midnightblue" points="183.3,-30.37 192.83,-25.73 182.49,-23.42 183.3,-30.37"/>
</g>
</g>
</svg>
