<?xml version="1.0" encoding="UTF-8" standalone="no"?>
<!DOCTYPE svg PUBLIC "-//W3C//DTD SVG 1.1//EN"
 "http://www.w3.org/Graphics/SVG/1.1/DTD/svg11.dtd">
<!-- Generated by graphviz version 2.43.0 (0)
 -->
<!-- Title: QuantConnect.Data.Auxiliary.LocalZipFactorFileProvider.StartExpirationTask Pages: 1 -->
<svg width="403pt" height="50pt"
 viewBox="0.00 0.00 403.00 50.00" xmlns="http://www.w3.org/2000/svg" xmlns:xlink="http://www.w3.org/1999/xlink">
<g id="graph0" class="graph" transform="scale(1 1) rotate(0) translate(4 46)">
<title>QuantConnect.Data.Auxiliary.LocalZipFactorFileProvider.StartExpirationTask</title>
<polygon fill="white" stroke="transparent" points="-4,4 -4,-46 399,-46 399,4 -4,4"/>
<!-- Node1 -->
<g id="node1" class="node">
<title>Node1</title>
<g id="a_node1"><a xlink:title="Helper method that will clear any cached factor files in a daily basis, this is useful for live tradi...">
<polygon fill="#bfbfbf" stroke="black" points="225,-0.5 225,-41.5 395,-41.5 395,-0.5 225,-0.5"/>
<text text-anchor="start" x="233" y="-29.5" font-family="Helvetica,sans-Serif" font-size="10.00">QuantConnect.Data.Auxiliary.</text>
<text text-anchor="start" x="233" y="-18.5" font-family="Helvetica,sans-Serif" font-size="10.00">LocalZipFactorFileProvider.Start</text>
<text text-anchor="middle" x="310" y="-7.5" font-family="Helvetica,sans-Serif" font-size="10.00">ExpirationTask</text>
</a>
</g>
</g>
<!-- Node2 -->
<g id="node2" class="node">
<title>Node2</title>
<g id="a_node2"><a xlink:href="classQuantConnect_1_1Data_1_1Auxiliary_1_1LocalZipFactorFileProvider.html#ab7843d2b7cbe051335e5e1f1a3740c96" target="_top" xlink:title="Initializes our FactorFileProvider by supplying our mapFileProvider and dataProvider">
<polygon fill="white" stroke="black" points="0,-6 0,-36 189,-36 189,-6 0,-6"/>
<text text-anchor="start" x="8" y="-24" font-family="Helvetica,sans-Serif" font-size="10.00">QuantConnect.Data.Auxiliary.</text>
<text text-anchor="middle" x="94.5" y="-13" font-family="Helvetica,sans-Serif" font-size="10.00">LocalZipFactorFileProvider.Initialize</text>
</a>
</g>
</g>
<!-- Node1&#45;&gt;Node2 -->
<g id="edge1" class="edge">
<title>Node1&#45;&gt;Node2</title>
<path fill="none" stroke="midnightblue" d="M214.9,-21C206.31,-21 197.61,-21 189.02,-21"/>
<polygon fill="midnightblue" stroke="midnightblue" points="214.93,-24.5 224.93,-21 214.93,-17.5 214.93,-24.5"/>
</g>
</g>
</svg>
