<?xml version="1.0" encoding="UTF-8" standalone="no"?>
<!DOCTYPE svg PUBLIC "-//W3C//DTD SVG 1.1//EN"
 "http://www.w3.org/Graphics/SVG/1.1/DTD/svg11.dtd">
<!-- Generated by graphviz version 2.43.0 (0)
 -->
<!-- Title: QuantConnect.Time.GetStartTimeForTradeBars Pages: 1 -->
<svg width="649pt" height="390pt"
 viewBox="0.00 0.00 649.00 390.00" xmlns="http://www.w3.org/2000/svg" xmlns:xlink="http://www.w3.org/1999/xlink">
<g id="graph0" class="graph" transform="scale(1 1) rotate(0) translate(4 386)">
<title>QuantConnect.Time.GetStartTimeForTradeBars</title>
<polygon fill="white" stroke="transparent" points="-4,4 -4,-386 645,-386 645,4 -4,4"/>
<!-- Node1 -->
<g id="node1" class="node">
<title>Node1</title>
<g id="a_node1"><a xlink:title="Determines the start time required to produce the requested number of bars and the given size">
<polygon fill="#bfbfbf" stroke="black" points="484,-203 484,-233 641,-233 641,-203 484,-203"/>
<text text-anchor="start" x="492" y="-221" font-family="Helvetica,sans-Serif" font-size="10.00">QuantConnect.Time.GetStart</text>
<text text-anchor="middle" x="562.5" y="-210" font-family="Helvetica,sans-Serif" font-size="10.00">TimeForTradeBars</text>
</a>
</g>
</g>
<!-- Node2 -->
<g id="node2" class="node">
<title>Node2</title>
<g id="a_node2"><a xlink:href="classQuantConnect_1_1Lean_1_1Engine_1_1DataFeeds_1_1UniverseSelection.html#aa1f5bba72357a2a66d98099a3d20a0e5" target="_top" xlink:title="Will add any pending internal currency subscriptions">
<polygon fill="white" stroke="black" points="253.5,-340.5 253.5,-381.5 435.5,-381.5 435.5,-340.5 253.5,-340.5"/>
<text text-anchor="start" x="261.5" y="-369.5" font-family="Helvetica,sans-Serif" font-size="10.00">QuantConnect.Lean.Engine.</text>
<text text-anchor="start" x="261.5" y="-358.5" font-family="Helvetica,sans-Serif" font-size="10.00">DataFeeds.UniverseSelection.Add</text>
<text text-anchor="middle" x="344.5" y="-347.5" font-family="Helvetica,sans-Serif" font-size="10.00">PendingInternalDataFeeds</text>
</a>
</g>
</g>
<!-- Node1&#45;&gt;Node2 -->
<g id="edge1" class="edge">
<title>Node1&#45;&gt;Node2</title>
<path fill="none" stroke="midnightblue" d="M544.09,-241.27C523.75,-266.87 487.78,-307.48 448,-331 442.01,-334.54 435.58,-337.68 428.97,-340.48"/>
<polygon fill="midnightblue" stroke="midnightblue" points="546.98,-243.25 550.37,-233.21 541.46,-238.95 546.98,-243.25"/>
</g>
<!-- Node3 -->
<g id="node3" class="node">
<title>Node3</title>
<g id="a_node3"><a xlink:href="classQuantConnect_1_1Lean_1_1Engine_1_1DataFeeds_1_1FileSystemDataFeed.html#ac148e78fc814fca88c70a1835be51a25" target="_top" xlink:title="Creates a new subscription to provide data for the specified security.">
<polygon fill="white" stroke="black" points="241,-280.5 241,-321.5 448,-321.5 448,-280.5 241,-280.5"/>
<text text-anchor="start" x="249" y="-309.5" font-family="Helvetica,sans-Serif" font-size="10.00">QuantConnect.Lean.Engine.</text>
<text text-anchor="start" x="249" y="-298.5" font-family="Helvetica,sans-Serif" font-size="10.00">DataFeeds.FileSystemDataFeed.Create</text>
<text text-anchor="middle" x="344.5" y="-287.5" font-family="Helvetica,sans-Serif" font-size="10.00">Subscription</text>
</a>
</g>
</g>
<!-- Node1&#45;&gt;Node3 -->
<g id="edge2" class="edge">
<title>Node1&#45;&gt;Node3</title>
<path fill="none" stroke="midnightblue" d="M522.96,-237.78C501.28,-248.45 473.52,-261.37 448,-271 439.24,-274.31 429.95,-277.47 420.67,-280.43"/>
<polygon fill="midnightblue" stroke="midnightblue" points="524.76,-240.79 532.16,-233.21 521.65,-234.53 524.76,-240.79"/>
</g>
<!-- Node4 -->
<g id="node4" class="node">
<title>Node4</title>
<g id="a_node4"><a xlink:href="classQuantConnect_1_1Lean_1_1Engine_1_1DataFeeds_1_1DataManager.html#acf9050df1be040d4259dc9a89c2cb740" target="_top" xlink:title="Creates a new instance of the DataManager">
<polygon fill="white" stroke="black" points="241.5,-231 241.5,-261 447.5,-261 447.5,-231 241.5,-231"/>
<text text-anchor="start" x="249.5" y="-249" font-family="Helvetica,sans-Serif" font-size="10.00">QuantConnect.Lean.Engine.</text>
<text text-anchor="middle" x="344.5" y="-238" font-family="Helvetica,sans-Serif" font-size="10.00">DataFeeds.DataManager.DataManager</text>
</a>
</g>
</g>
<!-- Node1&#45;&gt;Node4 -->
<g id="edge3" class="edge">
<title>Node1&#45;&gt;Node4</title>
<path fill="none" stroke="midnightblue" d="M473.82,-229.37C465.21,-230.48 456.42,-231.62 447.69,-232.75"/>
<polygon fill="midnightblue" stroke="midnightblue" points="474.36,-232.83 483.82,-228.07 473.46,-225.88 474.36,-232.83"/>
</g>
<!-- Node5 -->
<g id="node5" class="node">
<title>Node5</title>
<g id="a_node5"><a xlink:href="classQuantConnect_1_1Securities_1_1Volatility_1_1BaseVolatilityModel.html#a1447baed13180db4f86dc485496400b8" target="_top" xlink:title="Gets history requests required for warming up the greeks with the provided resolution">
<polygon fill="white" stroke="black" points="263.5,-170.5 263.5,-211.5 425.5,-211.5 425.5,-170.5 263.5,-170.5"/>
<text text-anchor="start" x="271.5" y="-199.5" font-family="Helvetica,sans-Serif" font-size="10.00">QuantConnect.Securities.</text>
<text text-anchor="start" x="271.5" y="-188.5" font-family="Helvetica,sans-Serif" font-size="10.00">Volatility.BaseVolatilityModel.</text>
<text text-anchor="middle" x="344.5" y="-177.5" font-family="Helvetica,sans-Serif" font-size="10.00">GetHistoryRequirements</text>
</a>
</g>
</g>
<!-- Node1&#45;&gt;Node5 -->
<g id="edge4" class="edge">
<title>Node1&#45;&gt;Node5</title>
<path fill="none" stroke="midnightblue" d="M473.54,-207C457.73,-205.03 441.33,-202.98 425.76,-201.03"/>
<polygon fill="midnightblue" stroke="midnightblue" points="473.47,-210.52 483.82,-208.29 474.34,-203.58 473.47,-210.52"/>
</g>
<!-- Node6 -->
<g id="node6" class="node">
<title>Node6</title>
<g id="a_node6"><a xlink:href="classQuantConnect_1_1Data_1_1HistoryRequestFactory.html#a4621950ffe40844b66d05648137f3d93" target="_top" xlink:title="Gets the start time required for the specified bar count in terms of the algorithm&#39;s time zone">
<polygon fill="white" stroke="black" points="249,-121 249,-151 440,-151 440,-121 249,-121"/>
<text text-anchor="start" x="257" y="-139" font-family="Helvetica,sans-Serif" font-size="10.00">QuantConnect.Data.History</text>
<text text-anchor="middle" x="344.5" y="-128" font-family="Helvetica,sans-Serif" font-size="10.00">RequestFactory.GetStartTimeAlgoTz</text>
</a>
</g>
</g>
<!-- Node1&#45;&gt;Node6 -->
<g id="edge5" class="edge">
<title>Node1&#45;&gt;Node6</title>
<path fill="none" stroke="midnightblue" d="M526.7,-197.94C504.7,-185.91 475.34,-171.05 448,-161 437.86,-157.27 426.94,-153.93 416.16,-151"/>
<polygon fill="midnightblue" stroke="midnightblue" points="525.21,-201.11 535.65,-202.9 528.6,-194.99 525.21,-201.11"/>
</g>
<!-- Node8 -->
<g id="node8" class="node">
<title>Node8</title>
<g id="a_node8"><a xlink:href="classQuantConnect_1_1Lean_1_1Engine_1_1DataFeeds_1_1BacktestingChainProvider.html#a903ec0b9ee074f1a7ee6d1eccc5f712b" target="_top" xlink:title="Get the contract symbols associated with the given canonical symbol and date">
<polygon fill="white" stroke="black" points="244.5,-60.5 244.5,-101.5 444.5,-101.5 444.5,-60.5 244.5,-60.5"/>
<text text-anchor="start" x="252.5" y="-89.5" font-family="Helvetica,sans-Serif" font-size="10.00">QuantConnect.Lean.Engine.</text>
<text text-anchor="start" x="252.5" y="-78.5" font-family="Helvetica,sans-Serif" font-size="10.00">DataFeeds.BacktestingChainProvider.</text>
<text text-anchor="middle" x="344.5" y="-67.5" font-family="Helvetica,sans-Serif" font-size="10.00">GetSymbols</text>
</a>
</g>
</g>
<!-- Node1&#45;&gt;Node8 -->
<g id="edge7" class="edge">
<title>Node1&#45;&gt;Node8</title>
<path fill="none" stroke="midnightblue" d="M542.45,-194.79C521.6,-170.82 486.04,-133.9 448,-112 441.23,-108.1 433.93,-104.65 426.44,-101.6"/>
<polygon fill="midnightblue" stroke="midnightblue" points="540.04,-197.36 549.19,-202.69 545.36,-192.81 540.04,-197.36"/>
</g>
<!-- Node7 -->
<g id="node7" class="node">
<title>Node7</title>
<g id="a_node7"><a xlink:href="classQuantConnect_1_1Algorithm_1_1QCAlgorithm.html#a19eb02af4db607f8bf5d1e9cb0cfd2a8" target="_top" xlink:title="Gets the historical data for the specified symbol. The exact number of bars will be returned....">
<polygon fill="white" stroke="black" points="0,-121 0,-151 205,-151 205,-121 0,-121"/>
<text text-anchor="start" x="8" y="-139" font-family="Helvetica,sans-Serif" font-size="10.00">QuantConnect.Algorithm.QCAlgorithm.</text>
<text text-anchor="middle" x="102.5" y="-128" font-family="Helvetica,sans-Serif" font-size="10.00">History</text>
</a>
</g>
</g>
<!-- Node6&#45;&gt;Node7 -->
<g id="edge6" class="edge">
<title>Node6&#45;&gt;Node7</title>
<path fill="none" stroke="midnightblue" d="M238.77,-136C227.58,-136 216.2,-136 205.04,-136"/>
<polygon fill="midnightblue" stroke="midnightblue" points="238.99,-139.5 248.99,-136 238.99,-132.5 238.99,-139.5"/>
</g>
<!-- Node9 -->
<g id="node9" class="node">
<title>Node9</title>
<g id="a_node9"><a xlink:href="classQuantConnect_1_1Lean_1_1Engine_1_1DataFeeds_1_1BacktestingFutureChainProvider.html#ad95ac9ea6895b03fa51209aa7e9c2fb4" target="_top" xlink:title="Gets the list of future contracts for a given underlying symbol">
<polygon fill="white" stroke="black" points="8.5,-60.5 8.5,-101.5 196.5,-101.5 196.5,-60.5 8.5,-60.5"/>
<text text-anchor="start" x="16.5" y="-89.5" font-family="Helvetica,sans-Serif" font-size="10.00">QuantConnect.Lean.Engine.</text>
<text text-anchor="start" x="16.5" y="-78.5" font-family="Helvetica,sans-Serif" font-size="10.00">DataFeeds.BacktestingFutureChain</text>
<text text-anchor="middle" x="102.5" y="-67.5" font-family="Helvetica,sans-Serif" font-size="10.00">Provider.GetFutureContractList</text>
</a>
</g>
</g>
<!-- Node8&#45;&gt;Node9 -->
<g id="edge8" class="edge">
<title>Node8&#45;&gt;Node9</title>
<path fill="none" stroke="midnightblue" d="M234.47,-81C221.92,-81 209.2,-81 196.88,-81"/>
<polygon fill="midnightblue" stroke="midnightblue" points="234.5,-84.5 244.5,-81 234.5,-77.5 234.5,-84.5"/>
</g>
<!-- Node10 -->
<g id="node10" class="node">
<title>Node10</title>
<g id="a_node10"><a xlink:href="classQuantConnect_1_1Lean_1_1Engine_1_1DataFeeds_1_1BacktestingOptionChainProvider.html#a5b140615fad8e3c0f8d08597a7ca1509" target="_top" xlink:title="Gets the list of option contracts for a given underlying symbol">
<polygon fill="white" stroke="black" points="8,-0.5 8,-41.5 197,-41.5 197,-0.5 8,-0.5"/>
<text text-anchor="start" x="16" y="-29.5" font-family="Helvetica,sans-Serif" font-size="10.00">QuantConnect.Lean.Engine.</text>
<text text-anchor="start" x="16" y="-18.5" font-family="Helvetica,sans-Serif" font-size="10.00">DataFeeds.BacktestingOptionChain</text>
<text text-anchor="middle" x="102.5" y="-7.5" font-family="Helvetica,sans-Serif" font-size="10.00">Provider.GetOptionContractList</text>
</a>
</g>
</g>
<!-- Node8&#45;&gt;Node10 -->
<g id="edge9" class="edge">
<title>Node8&#45;&gt;Node10</title>
<path fill="none" stroke="midnightblue" d="M251.4,-57.97C229.75,-52.56 206.83,-46.83 185.65,-41.54"/>
<polygon fill="midnightblue" stroke="midnightblue" points="250.69,-61.41 261.24,-60.44 252.39,-54.61 250.69,-61.41"/>
</g>
</g>
</svg>
