<?xml version="1.0" encoding="UTF-8" standalone="no"?>
<!DOCTYPE svg PUBLIC "-//W3C//DTD SVG 1.1//EN"
 "http://www.w3.org/Graphics/SVG/1.1/DTD/svg11.dtd">
<!-- Generated by graphviz version 2.43.0 (0)
 -->
<!-- Title: QuantConnect.Brokerages.Backtesting.BacktestingBrokerage.Scan Pages: 1 -->
<svg width="828pt" height="297pt"
 viewBox="0.00 0.00 828.00 296.50" xmlns="http://www.w3.org/2000/svg" xmlns:xlink="http://www.w3.org/1999/xlink">
<g id="graph0" class="graph" transform="scale(1 1) rotate(0) translate(4 292.5)">
<title>QuantConnect.Brokerages.Backtesting.BacktestingBrokerage.Scan</title>
<polygon fill="white" stroke="transparent" points="-4,4 -4,-292.5 824,-292.5 824,4 -4,4"/>
<!-- Node1 -->
<g id="node1" class="node">
<title>Node1</title>
<g id="a_node1"><a xlink:title="Scans all the outstanding orders and applies the algorithm model fills to generate the order events">
<polygon fill="#bfbfbf" stroke="black" points="0,-134.5 0,-164.5 211,-164.5 211,-134.5 0,-134.5"/>
<text text-anchor="start" x="8" y="-152.5" font-family="Helvetica,sans-Serif" font-size="10.00">QuantConnect.Brokerages.</text>
<text text-anchor="middle" x="105.5" y="-141.5" font-family="Helvetica,sans-Serif" font-size="10.00">Backtesting.BacktestingBrokerage.Scan</text>
</a>
</g>
</g>
<!-- Node2 -->
<g id="node2" class="node">
<title>Node2</title>
<g id="a_node2"><a xlink:href="classQuantConnect_1_1Securities_1_1Positions_1_1PositionManager.html#a3b603947ec7f0f2b2882f1f10dd02a02" target="_top" xlink:title="Creates a position group for the specified order, pulling">
<polygon fill="white" stroke="black" points="256,-247 256,-288 436,-288 436,-247 256,-247"/>
<text text-anchor="start" x="264" y="-276" font-family="Helvetica,sans-Serif" font-size="10.00">QuantConnect.Securities.</text>
<text text-anchor="start" x="264" y="-265" font-family="Helvetica,sans-Serif" font-size="10.00">Positions.PositionManager.Create</text>
<text text-anchor="middle" x="346" y="-254" font-family="Helvetica,sans-Serif" font-size="10.00">PositionGroup</text>
</a>
</g>
</g>
<!-- Node1&#45;&gt;Node2 -->
<g id="edge1" class="edge">
<title>Node1&#45;&gt;Node2</title>
<path fill="none" stroke="midnightblue" d="M129.13,-164.7C156.3,-182.52 203.65,-212.18 247,-232.5 255.11,-236.3 263.75,-239.94 272.42,-243.34"/>
<polygon fill="midnightblue" stroke="midnightblue" points="271.22,-246.63 281.81,-246.93 273.72,-240.09 271.22,-246.63"/>
</g>
<!-- Node4 -->
<g id="node4" class="node">
<title>Node4</title>
<g id="a_node4"><a xlink:href="classQuantConnect_1_1Logging_1_1Log.html#af0e7955911bc7664b37661b2a303a9e3" target="_top" xlink:title="Log error">
<polygon fill="white" stroke="black" points="482.5,-181.5 482.5,-211.5 632.5,-211.5 632.5,-181.5 482.5,-181.5"/>
<text text-anchor="start" x="490.5" y="-199.5" font-family="Helvetica,sans-Serif" font-size="10.00">QuantConnect.Logging.Log.</text>
<text text-anchor="middle" x="557.5" y="-188.5" font-family="Helvetica,sans-Serif" font-size="10.00">Error</text>
</a>
</g>
</g>
<!-- Node1&#45;&gt;Node4 -->
<g id="edge3" class="edge">
<title>Node1&#45;&gt;Node4</title>
<path fill="none" stroke="midnightblue" d="M138.85,-164.6C166.79,-176.76 208.6,-192.87 247,-199.5 322.36,-212.51 409.59,-210.13 472.2,-205.44"/>
<polygon fill="midnightblue" stroke="midnightblue" points="472.73,-208.91 482.42,-204.64 472.18,-201.94 472.73,-208.91"/>
</g>
<!-- Node6 -->
<g id="node6" class="node">
<title>Node6</title>
<g id="a_node6"><a xlink:href="interfaceQuantConnect_1_1Interfaces_1_1IAlgorithm.html#a7b8af1af90d91f0702ae39686c073dce" target="_top" xlink:title="Send an error message for the algorithm">
<polygon fill="white" stroke="black" points="276,-159.5 276,-189.5 416,-189.5 416,-159.5 276,-159.5"/>
<text text-anchor="start" x="284" y="-177.5" font-family="Helvetica,sans-Serif" font-size="10.00">QuantConnect.Interfaces.</text>
<text text-anchor="middle" x="346" y="-166.5" font-family="Helvetica,sans-Serif" font-size="10.00">IAlgorithm.Error</text>
</a>
</g>
</g>
<!-- Node1&#45;&gt;Node6 -->
<g id="edge5" class="edge">
<title>Node1&#45;&gt;Node6</title>
<path fill="none" stroke="midnightblue" d="M211.11,-160.47C229.42,-162.38 248.2,-164.35 265.68,-166.19"/>
<polygon fill="midnightblue" stroke="midnightblue" points="265.5,-169.69 275.81,-167.25 266.23,-162.72 265.5,-169.69"/>
</g>
<!-- Node7 -->
<g id="node7" class="node">
<title>Node7</title>
<g id="a_node7"><a xlink:href="classQuantConnect_1_1Brokerages_1_1Brokerage.html#a45354037630d2e3fc9252d481a144c06" target="_top" xlink:title="Event invocator for the OptionPositionAssigned event">
<polygon fill="white" stroke="black" points="247,-110.5 247,-140.5 445,-140.5 445,-110.5 247,-110.5"/>
<text text-anchor="start" x="255" y="-128.5" font-family="Helvetica,sans-Serif" font-size="10.00">QuantConnect.Brokerages.</text>
<text text-anchor="middle" x="346" y="-117.5" font-family="Helvetica,sans-Serif" font-size="10.00">Brokerage.OnOptionPositionAssigned</text>
</a>
</g>
</g>
<!-- Node1&#45;&gt;Node7 -->
<g id="edge6" class="edge">
<title>Node1&#45;&gt;Node7</title>
<path fill="none" stroke="midnightblue" d="M211.11,-138.97C219.66,-138.11 228.3,-137.24 236.87,-136.38"/>
<polygon fill="midnightblue" stroke="midnightblue" points="237.29,-139.86 246.89,-135.37 236.59,-132.89 237.29,-139.86"/>
</g>
<!-- Node10 -->
<g id="node10" class="node">
<title>Node10</title>
<g id="a_node10"><a xlink:href="classQuantConnect_1_1Brokerages_1_1Backtesting_1_1BacktestingBrokerage.html#a9591330d2ce2fa8d0a3af1b765cfd66a" target="_top" xlink:title="Event invocator for the OrderFilled event">
<polygon fill="white" stroke="black" points="252,-50 252,-91 440,-91 440,-50 252,-50"/>
<text text-anchor="start" x="260" y="-79" font-family="Helvetica,sans-Serif" font-size="10.00">QuantConnect.Brokerages.</text>
<text text-anchor="start" x="260" y="-68" font-family="Helvetica,sans-Serif" font-size="10.00">Backtesting.BacktestingBrokerage.</text>
<text text-anchor="middle" x="346" y="-57" font-family="Helvetica,sans-Serif" font-size="10.00">OnOrderEvent</text>
</a>
</g>
</g>
<!-- Node1&#45;&gt;Node10 -->
<g id="edge10" class="edge">
<title>Node1&#45;&gt;Node10</title>
<path fill="none" stroke="midnightblue" d="M148.16,-134.5C176.04,-124.57 213.61,-111.43 247,-100.5 253.42,-98.4 260.09,-96.26 266.8,-94.14"/>
<polygon fill="midnightblue" stroke="midnightblue" points="268.13,-97.4 276.62,-91.06 266.03,-90.72 268.13,-97.4"/>
</g>
<!-- Node11 -->
<g id="node11" class="node">
<title>Node11</title>
<g id="a_node11"><a xlink:href="classQuantConnect_1_1Securities_1_1SecurityManager.html#af3ad97e370ceec706ac1afe70f7fbb42" target="_top" xlink:title="Try and get this security object with matching symbol and return true on success.">
<polygon fill="white" stroke="black" points="266,-0.5 266,-30.5 426,-30.5 426,-0.5 266,-0.5"/>
<text text-anchor="start" x="274" y="-18.5" font-family="Helvetica,sans-Serif" font-size="10.00">QuantConnect.Securities.</text>
<text text-anchor="middle" x="346" y="-7.5" font-family="Helvetica,sans-Serif" font-size="10.00">SecurityManager.TryGetValue</text>
</a>
</g>
</g>
<!-- Node1&#45;&gt;Node11 -->
<g id="edge11" class="edge">
<title>Node1&#45;&gt;Node11</title>
<path fill="none" stroke="midnightblue" d="M121.48,-134.41C145.71,-110.85 195.97,-65.45 247,-40.5 251.93,-38.09 257.12,-35.9 262.42,-33.9"/>
<polygon fill="midnightblue" stroke="midnightblue" points="263.79,-37.13 272.08,-30.52 261.48,-30.52 263.79,-37.13"/>
</g>
<!-- Node3 -->
<g id="node3" class="node">
<title>Node3</title>
<g id="a_node3"><a xlink:href="classQuantConnect_1_1Orders_1_1Order.html#a8324286f8545c74a96c48fe95df34e4c" target="_top" xlink:title="Creates an enumerable containing each position resulting from executing this order.">
<polygon fill="white" stroke="black" points="481,-252.5 481,-282.5 634,-282.5 634,-252.5 481,-252.5"/>
<text text-anchor="start" x="489" y="-270.5" font-family="Helvetica,sans-Serif" font-size="10.00">QuantConnect.Orders.Order.</text>
<text text-anchor="middle" x="557.5" y="-259.5" font-family="Helvetica,sans-Serif" font-size="10.00">CreatePositions</text>
</a>
</g>
</g>
<!-- Node2&#45;&gt;Node3 -->
<g id="edge2" class="edge">
<title>Node2&#45;&gt;Node3</title>
<path fill="none" stroke="midnightblue" d="M436.15,-267.5C447.58,-267.5 459.26,-267.5 470.63,-267.5"/>
<polygon fill="midnightblue" stroke="midnightblue" points="470.97,-271 480.97,-267.5 470.97,-264 470.97,-271"/>
</g>
<!-- Node5 -->
<g id="node5" class="node">
<title>Node5</title>
<g id="a_node5"><a xlink:href="interfaceQuantConnect_1_1Logging_1_1ILogHandler.html#a35373a0c5d76031fa5ccf5dc39e5c25d" target="_top" xlink:title="Write error message to log">
<polygon fill="white" stroke="black" points="670,-181.5 670,-211.5 820,-211.5 820,-181.5 670,-181.5"/>
<text text-anchor="start" x="678" y="-199.5" font-family="Helvetica,sans-Serif" font-size="10.00">QuantConnect.Logging.ILog</text>
<text text-anchor="middle" x="745" y="-188.5" font-family="Helvetica,sans-Serif" font-size="10.00">Handler.Error</text>
</a>
</g>
</g>
<!-- Node4&#45;&gt;Node5 -->
<g id="edge4" class="edge">
<title>Node4&#45;&gt;Node5</title>
<path fill="none" stroke="midnightblue" d="M632.61,-196.5C641.49,-196.5 650.6,-196.5 659.6,-196.5"/>
<polygon fill="midnightblue" stroke="midnightblue" points="659.7,-200 669.7,-196.5 659.7,-193 659.7,-200"/>
</g>
<!-- Node7&#45;&gt;Node4 -->
<g id="edge9" class="edge">
<title>Node7&#45;&gt;Node4</title>
<path fill="none" stroke="midnightblue" d="M414.62,-140.57C424.87,-143.28 435.27,-146.28 445,-149.5 468.69,-157.34 494.41,-168.03 515.17,-177.23"/>
<polygon fill="midnightblue" stroke="midnightblue" points="513.78,-180.44 524.33,-181.34 516.64,-174.05 513.78,-180.44"/>
</g>
<!-- Node8 -->
<g id="node8" class="node">
<title>Node8</title>
<g id="a_node8"><a xlink:href="classQuantConnect_1_1Logging_1_1Log.html#ad908daef9d61532d7d60c9dcfb9a3e0c" target="_top" xlink:title="Output to the console">
<polygon fill="white" stroke="black" points="482.5,-110.5 482.5,-140.5 632.5,-140.5 632.5,-110.5 482.5,-110.5"/>
<text text-anchor="start" x="490.5" y="-128.5" font-family="Helvetica,sans-Serif" font-size="10.00">QuantConnect.Logging.Log.</text>
<text text-anchor="middle" x="557.5" y="-117.5" font-family="Helvetica,sans-Serif" font-size="10.00">Debug</text>
</a>
</g>
</g>
<!-- Node7&#45;&gt;Node8 -->
<g id="edge7" class="edge">
<title>Node7&#45;&gt;Node8</title>
<path fill="none" stroke="midnightblue" d="M445,-125.5C454.13,-125.5 463.33,-125.5 472.32,-125.5"/>
<polygon fill="midnightblue" stroke="midnightblue" points="472.36,-129 482.36,-125.5 472.36,-122 472.36,-129"/>
</g>
<!-- Node9 -->
<g id="node9" class="node">
<title>Node9</title>
<g id="a_node9"><a xlink:href="interfaceQuantConnect_1_1Logging_1_1ILogHandler.html#a2c738b8e78dd5b54244bc68b969ba91d" target="_top" xlink:title="Write debug message to log">
<polygon fill="white" stroke="black" points="670,-110.5 670,-140.5 820,-140.5 820,-110.5 670,-110.5"/>
<text text-anchor="start" x="678" y="-128.5" font-family="Helvetica,sans-Serif" font-size="10.00">QuantConnect.Logging.ILog</text>
<text text-anchor="middle" x="745" y="-117.5" font-family="Helvetica,sans-Serif" font-size="10.00">Handler.Debug</text>
</a>
</g>
</g>
<!-- Node8&#45;&gt;Node9 -->
<g id="edge8" class="edge">
<title>Node8&#45;&gt;Node9</title>
<path fill="none" stroke="midnightblue" d="M632.61,-125.5C641.49,-125.5 650.6,-125.5 659.6,-125.5"/>
<polygon fill="midnightblue" stroke="midnightblue" points="659.7,-129 669.7,-125.5 659.7,-122 659.7,-129"/>
</g>
</g>
</svg>
