<?xml version="1.0" encoding="UTF-8" standalone="no"?>
<!DOCTYPE svg PUBLIC "-//W3C//DTD SVG 1.1//EN"
 "http://www.w3.org/Graphics/SVG/1.1/DTD/svg11.dtd">
<!-- Generated by graphviz version 2.43.0 (0)
 -->
<!-- Title: QuantConnect.Lean.Engine.TransactionHandlers.BrokerageTransactionHandler.CancelOrder Pages: 1 -->
<!--zoomable 486 -->
<svg id="main" version="1.1" xmlns="http://www.w3.org/2000/svg" xmlns:xlink="http://www.w3.org/1999/xlink" xml:space="preserve" onload="init(evt)">
<style type="text/css"><![CDATA[
.edge:hover path { stroke: red; }
.edge:hover polygon { stroke: red; fill: red; }
]]></style>
<script type="text/javascript"><![CDATA[
var edges = document.getElementsByTagName('g');
if (edges && edges.length) {
  for (var i=0;i<edges.length;i++) {
    if (edges[i].id.substr(0,4)=='edge') {
      edges[i].setAttribute('class','edge');
    }
  }
}
]]></script>
        <defs>
                <circle id="rim" cx="0" cy="0" r="7"/>
                <circle id="rim2" cx="0" cy="0" r="3.5"/>
                <g id="zoomPlus">
                        <use xlink:href="#rim" fill="#404040">
                                <set attributeName="fill" to="#808080" begin="zoomplus.mouseover" end="zoomplus.mouseout"/>
                        </use>
                        <path d="M-4,0h8M0,-4v8" fill="none" stroke="white" stroke-width="1.5" pointer-events="none"/>
                </g>
                <g id="zoomMin">
                        <use xlink:href="#rim" fill="#404040">
                                <set attributeName="fill" to="#808080" begin="zoomminus.mouseover" end="zoomminus.mouseout"/>
                        </use>
                        <path d="M-4,0h8" fill="none" stroke="white" stroke-width="1.5" pointer-events="none"/>
                </g>
                <g id="dirArrow">
                        <path fill="none" stroke="white" stroke-width="1.5" d="M0,-3.0v7 M-2.5,-0.5L0,-3.0L2.5,-0.5"/>
                </g>
               <g id="resetDef">
                       <use xlink:href="#rim2" fill="#404040">
                               <set attributeName="fill" to="#808080" begin="reset.mouseover" end="reset.mouseout"/>
                       </use>
               </g>
        </defs>

<script type="text/javascript">
var viewWidth = 841;
var viewHeight = 486;
var sectionId = 'dynsection-11';
</script>
<script xlink:href="svgpan.js"/>
<svg id="graph" class="graph">
<g id="viewport">
<title>QuantConnect.Lean.Engine.TransactionHandlers.BrokerageTransactionHandler.CancelOrder</title>
<polygon fill="white" stroke="transparent" points="-4,4 -4,-481.61 837,-481.61 837,4 -4,4"/>
<!-- Node1 -->
<g id="node1" class="node">
<title>Node1</title>
<g id="a_node1"><a xlink:title="Remove this order from outstanding queue: user is requesting a cancel.">
<polygon fill="#bfbfbf" stroke="black" points="0,-222.61 0,-263.61 224,-263.61 224,-222.61 0,-222.61"/>
<text text-anchor="start" x="8" y="-251.61" font-family="Helvetica,sans-Serif" font-size="10.00">QuantConnect.Lean.Engine.</text>
<text text-anchor="start" x="8" y="-240.61" font-family="Helvetica,sans-Serif" font-size="10.00">TransactionHandlers.BrokerageTransaction</text>
<text text-anchor="middle" x="112" y="-229.61" font-family="Helvetica,sans-Serif" font-size="10.00">Handler.CancelOrder</text>
</a>
</g>
</g>
<!-- Node2 -->
<g id="node2" class="node">
<title>Node2</title>
<g id="a_node2"><a xlink:href="interfaceQuantConnect_1_1Interfaces_1_1IBusyCollection.html#aac99900d75deacec4ccabb0c7f570c27" target="_top" xlink:title="Adds the items to this collection">
<polygon fill="white" stroke="black" points="285.5,-447.11 285.5,-477.11 425.5,-477.11 425.5,-447.11 285.5,-447.11"/>
<text text-anchor="start" x="293.5" y="-465.11" font-family="Helvetica,sans-Serif" font-size="10.00">QuantConnect.Interfaces.</text>
<text text-anchor="middle" x="355.5" y="-454.11" font-family="Helvetica,sans-Serif" font-size="10.00">IBusyCollection.Add</text>
</a>
</g>
</g>
<!-- Node1&#45;&gt;Node2 -->
<g id="edge1" class="edge">
<title>Node1&#45;&gt;Node2</title>
<path fill="none" stroke="midnightblue" d="M122.64,-263.87C142.41,-304.06 191.51,-392.57 260,-438.11 264.88,-441.35 270.16,-444.15 275.65,-446.58"/>
<polygon fill="midnightblue" stroke="midnightblue" points="274.47,-449.87 285.06,-450.31 277.06,-443.37 274.47,-449.87"/>
</g>
<!-- Node3 -->
<g id="node3" class="node">
<title>Node3</title>
<g id="a_node3"><a xlink:href="classQuantConnect_1_1Logging_1_1Log.html#af0e7955911bc7664b37661b2a303a9e3" target="_top" xlink:title="Log error">
<polygon fill="white" stroke="black" points="280.5,-398.11 280.5,-428.11 430.5,-428.11 430.5,-398.11 280.5,-398.11"/>
<text text-anchor="start" x="288.5" y="-416.11" font-family="Helvetica,sans-Serif" font-size="10.00">QuantConnect.Logging.Log.</text>
<text text-anchor="middle" x="355.5" y="-405.11" font-family="Helvetica,sans-Serif" font-size="10.00">Error</text>
</a>
</g>
</g>
<!-- Node1&#45;&gt;Node3 -->
<g id="edge2" class="edge">
<title>Node1&#45;&gt;Node3</title>
<path fill="none" stroke="midnightblue" d="M129.32,-263.75C154.35,-294.09 205.1,-350.63 260,-383.11 267.24,-387.39 275.16,-391.13 283.24,-394.38"/>
<polygon fill="midnightblue" stroke="midnightblue" points="282.17,-397.72 292.76,-397.97 284.64,-391.17 282.17,-397.72"/>
</g>
<!-- Node5 -->
<g id="node5" class="node">
<title>Node5</title>
<g id="a_node5"><a xlink:href="classQuantConnect_1_1Orders_1_1OrderResponse.html#a14ded2753785926becc5e7f8e5a02a09" target="_top" xlink:title="Helper method to create an error response from a request">
<polygon fill="white" stroke="black" points="682,-171.11 682,-201.11 833,-201.11 833,-171.11 682,-171.11"/>
<text text-anchor="start" x="690" y="-189.11" font-family="Helvetica,sans-Serif" font-size="10.00">QuantConnect.Orders.Order</text>
<text text-anchor="middle" x="757.5" y="-178.11" font-family="Helvetica,sans-Serif" font-size="10.00">Response.Error</text>
</a>
</g>
</g>
<!-- Node1&#45;&gt;Node5 -->
<g id="edge4" class="edge">
<title>Node1&#45;&gt;Node5</title>
<path fill="none" stroke="midnightblue" d="M119.6,-222.28C135.33,-176.67 179.8,-68.64 260,-26.11 428.32,63.18 655.32,-102.36 730.87,-164.18"/>
<polygon fill="midnightblue" stroke="midnightblue" points="728.98,-167.16 738.91,-170.84 733.44,-161.77 728.98,-167.16"/>
</g>
<!-- Node6 -->
<g id="node6" class="node">
<title>Node6</title>
<g id="a_node6"><a xlink:href="classQuantConnect_1_1Orders_1_1OrderTicket.html#a2e38fdbc2be3fab72339de9ce4447818" target="_top" xlink:title="Creates a new OrderTicket that represents trying to cancel an order for which no ticket exists">
<polygon fill="white" stroke="black" points="280,-272.11 280,-302.11 431,-302.11 431,-272.11 280,-272.11"/>
<text text-anchor="start" x="288" y="-290.11" font-family="Helvetica,sans-Serif" font-size="10.00">QuantConnect.Orders.Order</text>
<text text-anchor="middle" x="355.5" y="-279.11" font-family="Helvetica,sans-Serif" font-size="10.00">Ticket.InvalidCancelOrderId</text>
</a>
</g>
</g>
<!-- Node1&#45;&gt;Node6 -->
<g id="edge5" class="edge">
<title>Node1&#45;&gt;Node6</title>
<path fill="none" stroke="midnightblue" d="M224.21,-263.37C239.5,-266.15 254.99,-268.98 269.7,-271.66"/>
<polygon fill="midnightblue" stroke="midnightblue" points="269.28,-275.14 279.75,-273.49 270.54,-268.25 269.28,-275.14"/>
</g>
<!-- Node8 -->
<g id="node8" class="node">
<title>Node8</title>
<g id="a_node8"><a xlink:href="classQuantConnect_1_1Orders_1_1OrderRequest.html#aed73f8f311c9224866211078cd6caef1" target="_top" xlink:title="Sets the Response for this request">
<polygon fill="white" stroke="black" points="491,-318.11 491,-348.11 642,-348.11 642,-318.11 491,-318.11"/>
<text text-anchor="start" x="499" y="-336.11" font-family="Helvetica,sans-Serif" font-size="10.00">QuantConnect.Orders.Order</text>
<text text-anchor="middle" x="566.5" y="-325.11" font-family="Helvetica,sans-Serif" font-size="10.00">Request.SetResponse</text>
</a>
</g>
</g>
<!-- Node1&#45;&gt;Node8 -->
<g id="edge15" class="edge">
<title>Node1&#45;&gt;Node8</title>
<path fill="none" stroke="midnightblue" d="M147.26,-263.66C176.21,-279.92 219.34,-301.56 260,-312.11 332.88,-331.01 418.61,-335.42 480.68,-335.59"/>
<polygon fill="midnightblue" stroke="midnightblue" points="480.82,-339.09 490.82,-335.59 480.82,-332.09 480.82,-339.09"/>
</g>
<!-- Node9 -->
<g id="node9" class="node">
<title>Node9</title>
<g id="a_node9"><a xlink:href="classQuantConnect_1_1Orders_1_1OrderResponse.html#a1da35cb92d94723fc18b1937861860f7" target="_top" xlink:title="Helper method to create an error response due to a bad order id">
<polygon fill="white" stroke="black" points="487,-220.11 487,-250.11 646,-250.11 646,-220.11 487,-220.11"/>
<text text-anchor="start" x="495" y="-238.11" font-family="Helvetica,sans-Serif" font-size="10.00">QuantConnect.Orders.Order</text>
<text text-anchor="middle" x="566.5" y="-227.11" font-family="Helvetica,sans-Serif" font-size="10.00">Response.UnableToFindOrder</text>
</a>
</g>
</g>
<!-- Node1&#45;&gt;Node9 -->
<g id="edge17" class="edge">
<title>Node1&#45;&gt;Node9</title>
<path fill="none" stroke="midnightblue" d="M224.27,-241.14C301.84,-239.77 403.97,-237.96 476.21,-236.68"/>
<polygon fill="midnightblue" stroke="midnightblue" points="476.71,-240.18 486.65,-236.5 476.59,-233.18 476.71,-240.18"/>
</g>
<!-- Node10 -->
<g id="node10" class="node">
<title>Node10</title>
<g id="a_node10"><a xlink:href="classQuantConnect_1_1Orders_1_1OrderResponse.html#a9861e49e902d763e9f79131a8646adac" target="_top" xlink:title="Helper method to create an error response due to the &quot;New&quot; order status">
<polygon fill="white" stroke="black" points="490.5,-367.11 490.5,-397.11 642.5,-397.11 642.5,-367.11 490.5,-367.11"/>
<text text-anchor="start" x="498.5" y="-385.11" font-family="Helvetica,sans-Serif" font-size="10.00">QuantConnect.Orders.Order</text>
<text text-anchor="middle" x="566.5" y="-374.11" font-family="Helvetica,sans-Serif" font-size="10.00">Response.InvalidNewStatus</text>
</a>
</g>
</g>
<!-- Node1&#45;&gt;Node10 -->
<g id="edge10" class="edge">
<title>Node1&#45;&gt;Node10</title>
<path fill="none" stroke="midnightblue" d="M137.77,-263.66C165.65,-285.62 213.18,-319.61 260,-337.11 331.36,-363.77 417.62,-374.7 480.25,-379.14"/>
<polygon fill="midnightblue" stroke="midnightblue" points="480.28,-382.65 490.49,-379.83 480.74,-375.67 480.28,-382.65"/>
</g>
<!-- Node11 -->
<g id="node11" class="node">
<title>Node11</title>
<g id="a_node11"><a xlink:href="classQuantConnect_1_1Orders_1_1OrderResponse.html#a14f5d9f827bfd8e6cc821b52063dfe71" target="_top" xlink:title="Helper method to create an error response due to an invalid order status">
<polygon fill="white" stroke="black" points="491,-171.11 491,-201.11 642,-201.11 642,-171.11 491,-171.11"/>
<text text-anchor="start" x="499" y="-189.11" font-family="Helvetica,sans-Serif" font-size="10.00">QuantConnect.Orders.Order</text>
<text text-anchor="middle" x="566.5" y="-178.11" font-family="Helvetica,sans-Serif" font-size="10.00">Response.InvalidStatus</text>
</a>
</g>
</g>
<!-- Node1&#45;&gt;Node11 -->
<g id="edge12" class="edge">
<title>Node1&#45;&gt;Node11</title>
<path fill="none" stroke="midnightblue" d="M224.27,-229.09C303.5,-219.11 408.35,-205.9 480.81,-196.77"/>
<polygon fill="midnightblue" stroke="midnightblue" points="481.33,-200.24 490.81,-195.51 480.45,-193.29 481.33,-200.24"/>
</g>
<!-- Node12 -->
<g id="node12" class="node">
<title>Node12</title>
<g id="a_node12"><a xlink:href="classQuantConnect_1_1Lean_1_1Engine_1_1TransactionHandlers_1_1CancelPendingOrders.html#a7344f9958039adf031a478433b5c50a5" target="_top" xlink:title="Adds an order which will be canceled and we want to keep track of it Status in case of fallback">
<polygon fill="white" stroke="black" points="260,-85.61 260,-126.61 451,-126.61 451,-85.61 260,-85.61"/>
<text text-anchor="start" x="268" y="-114.61" font-family="Helvetica,sans-Serif" font-size="10.00">QuantConnect.Lean.Engine.</text>
<text text-anchor="start" x="268" y="-103.61" font-family="Helvetica,sans-Serif" font-size="10.00">TransactionHandlers.CancelPending</text>
<text text-anchor="middle" x="355.5" y="-92.61" font-family="Helvetica,sans-Serif" font-size="10.00">Orders.Set</text>
</a>
</g>
</g>
<!-- Node1&#45;&gt;Node12 -->
<g id="edge14" class="edge">
<title>Node1&#45;&gt;Node12</title>
<path fill="none" stroke="midnightblue" d="M136.72,-222.43C164.6,-199.01 213.03,-161.01 260,-137.11 264.55,-134.79 269.3,-132.6 274.16,-130.53"/>
<polygon fill="midnightblue" stroke="midnightblue" points="275.65,-133.7 283.6,-126.7 273.02,-127.22 275.65,-133.7"/>
</g>
<!-- Node13 -->
<g id="node13" class="node">
<title>Node13</title>
<g id="a_node13"><a xlink:href="classQuantConnect_1_1Orders_1_1OrderResponse.html#a1d69bcc60eb408bfe45cf6a5f628c721" target="_top" xlink:title="Helper method to create a successful response from a request">
<polygon fill="white" stroke="black" points="280,-36.11 280,-66.11 431,-66.11 431,-36.11 280,-36.11"/>
<text text-anchor="start" x="288" y="-54.11" font-family="Helvetica,sans-Serif" font-size="10.00">QuantConnect.Orders.Order</text>
<text text-anchor="middle" x="355.5" y="-43.11" font-family="Helvetica,sans-Serif" font-size="10.00">Response.Success</text>
</a>
</g>
</g>
<!-- Node1&#45;&gt;Node13 -->
<g id="edge16" class="edge">
<title>Node1&#45;&gt;Node13</title>
<path fill="none" stroke="midnightblue" d="M125.35,-222.38C147.64,-186.84 198.07,-114.4 260,-76.11 263.39,-74.01 266.96,-72.08 270.64,-70.32"/>
<polygon fill="midnightblue" stroke="midnightblue" points="272.22,-73.45 279.99,-66.26 269.43,-67.03 272.22,-73.45"/>
</g>
<!-- Node14 -->
<g id="node14" class="node">
<title>Node14</title>
<g id="a_node14"><a xlink:href="classQuantConnect_1_1Orders_1_1OrderResponse.html#af8bdc5b0fd7d8e5929a659099d1d939f" target="_top" xlink:title="Helper method to create an error response due to algorithm still in warmup mode">
<polygon fill="white" stroke="black" points="280,-146.11 280,-176.11 431,-176.11 431,-146.11 280,-146.11"/>
<text text-anchor="start" x="288" y="-164.11" font-family="Helvetica,sans-Serif" font-size="10.00">QuantConnect.Orders.Order</text>
<text text-anchor="middle" x="355.5" y="-153.11" font-family="Helvetica,sans-Serif" font-size="10.00">Response.WarmingUp</text>
</a>
</g>
</g>
<!-- Node1&#45;&gt;Node14 -->
<g id="edge18" class="edge">
<title>Node1&#45;&gt;Node14</title>
<path fill="none" stroke="midnightblue" d="M169.74,-222.55C196.97,-212.81 230.1,-201.14 260,-191.11 271.6,-187.21 284.05,-183.17 295.97,-179.36"/>
<polygon fill="midnightblue" stroke="midnightblue" points="297.37,-182.59 305.84,-176.22 295.25,-175.91 297.37,-182.59"/>
</g>
<!-- Node4 -->
<g id="node4" class="node">
<title>Node4</title>
<g id="a_node4"><a xlink:href="interfaceQuantConnect_1_1Logging_1_1ILogHandler.html#a35373a0c5d76031fa5ccf5dc39e5c25d" target="_top" xlink:title="Write error message to log">
<polygon fill="white" stroke="black" points="491.5,-416.11 491.5,-446.11 641.5,-446.11 641.5,-416.11 491.5,-416.11"/>
<text text-anchor="start" x="499.5" y="-434.11" font-family="Helvetica,sans-Serif" font-size="10.00">QuantConnect.Logging.ILog</text>
<text text-anchor="middle" x="566.5" y="-423.11" font-family="Helvetica,sans-Serif" font-size="10.00">Handler.Error</text>
</a>
</g>
</g>
<!-- Node3&#45;&gt;Node4 -->
<g id="edge3" class="edge">
<title>Node3&#45;&gt;Node4</title>
<path fill="none" stroke="midnightblue" d="M430.77,-419.5C447.1,-420.91 464.5,-422.41 481.18,-423.84"/>
<polygon fill="midnightblue" stroke="midnightblue" points="481.2,-427.36 491.47,-424.73 481.8,-420.38 481.2,-427.36"/>
</g>
<!-- Node7 -->
<g id="node7" class="node">
<title>Node7</title>
<g id="a_node7"><a xlink:href="classQuantConnect_1_1Orders_1_1OrderTicket.html#a98ce7c56ada5180837251daf129901be" target="_top" xlink:title="Initializes a new instance of the OrderTicket class">
<polygon fill="white" stroke="black" points="491,-269.11 491,-299.11 642,-299.11 642,-269.11 491,-269.11"/>
<text text-anchor="start" x="499" y="-287.11" font-family="Helvetica,sans-Serif" font-size="10.00">QuantConnect.Orders.Order</text>
<text text-anchor="middle" x="566.5" y="-276.11" font-family="Helvetica,sans-Serif" font-size="10.00">Ticket.OrderTicket</text>
</a>
</g>
</g>
<!-- Node6&#45;&gt;Node7 -->
<g id="edge6" class="edge">
<title>Node6&#45;&gt;Node7</title>
<path fill="none" stroke="midnightblue" d="M431.07,-286.04C447.18,-285.8 464.34,-285.56 480.81,-285.32"/>
<polygon fill="midnightblue" stroke="midnightblue" points="481.01,-288.82 490.96,-285.18 480.91,-281.82 481.01,-288.82"/>
</g>
<!-- Node6&#45;&gt;Node8 -->
<g id="edge7" class="edge">
<title>Node6&#45;&gt;Node8</title>
<path fill="none" stroke="midnightblue" d="M424.93,-302.17C444.88,-306.56 466.83,-311.39 487.34,-315.9"/>
<polygon fill="midnightblue" stroke="midnightblue" points="486.75,-319.36 497.27,-318.09 488.26,-312.52 486.75,-319.36"/>
</g>
<!-- Node6&#45;&gt;Node9 -->
<g id="edge8" class="edge">
<title>Node6&#45;&gt;Node9</title>
<path fill="none" stroke="midnightblue" d="M416.95,-272.06C441.43,-265.97 469.86,-258.9 495.25,-252.58"/>
<polygon fill="midnightblue" stroke="midnightblue" points="496.33,-255.92 505.18,-250.11 494.64,-249.13 496.33,-255.92"/>
</g>
<!-- Node9&#45;&gt;Node5 -->
<g id="edge9" class="edge">
<title>Node9&#45;&gt;Node5</title>
<path fill="none" stroke="midnightblue" d="M625.49,-220.07C645.54,-214.87 668.17,-209 688.92,-203.63"/>
<polygon fill="midnightblue" stroke="midnightblue" points="689.82,-207.01 698.62,-201.11 688.06,-200.23 689.82,-207.01"/>
</g>
<!-- Node10&#45;&gt;Node5 -->
<g id="edge11" class="edge">
<title>Node10&#45;&gt;Node5</title>
<path fill="none" stroke="midnightblue" d="M631.14,-367.03C636.42,-364.5 641.46,-361.55 646,-358.11 697.59,-319.03 731.75,-248.35 747.14,-210.92"/>
<polygon fill="midnightblue" stroke="midnightblue" points="750.52,-211.88 750.98,-201.29 744.02,-209.28 750.52,-211.88"/>
</g>
<!-- Node11&#45;&gt;Node5 -->
<g id="edge13" class="edge">
<title>Node11&#45;&gt;Node5</title>
<path fill="none" stroke="midnightblue" d="M642.2,-186.11C651.85,-186.11 661.78,-186.11 671.58,-186.11"/>
<polygon fill="midnightblue" stroke="midnightblue" points="671.73,-189.61 681.73,-186.11 671.73,-182.61 671.73,-189.61"/>
</g>
<!-- Node14&#45;&gt;Node5 -->
<g id="edge19" class="edge">
<title>Node14&#45;&gt;Node5</title>
<path fill="none" stroke="midnightblue" d="M431.12,-157.07C489.72,-154.94 573.3,-154.17 646,-162.11 659.82,-163.61 674.45,-166.12 688.38,-168.97"/>
<polygon fill="midnightblue" stroke="midnightblue" points="687.87,-172.44 698.38,-171.08 689.33,-165.59 687.87,-172.44"/>
</g>
</g>
</svg>
        <g id="navigator" transform="translate(0 0)" fill="#404254">
                <rect fill="#f2f5e9" fill-opacity="0.5" stroke="#606060" stroke-width=".5" x="0" y="0" width="60" height="60"/>
                <use id="zoomplus" xlink:href="#zoomPlus" x="17" y="9" onmousedown="handleZoom(evt,'in')"/>
                <use id="zoomminus" xlink:href="#zoomMin" x="42" y="9" onmousedown="handleZoom(evt,'out')"/>
                <use id="reset" xlink:href="#resetDef" x="30" y="36" onmousedown="handleReset()"/>
                <g id="arrowUp" xlink:href="#dirArrow" transform="translate(30 24)" onmousedown="handlePan(0,-1)">
                  <use xlink:href="#rim" fill="#404040">
                        <set attributeName="fill" to="#808080" begin="arrowUp.mouseover" end="arrowUp.mouseout"/>
                  </use>
                  <path fill="none" stroke="white" stroke-width="1.5" d="M0,-3.0v7 M-2.5,-0.5L0,-3.0L2.5,-0.5"/>
                </g>
                <g id="arrowRight" xlink:href="#dirArrow" transform="rotate(90) translate(36 -43)" onmousedown="handlePan(1,0)">
                  <use xlink:href="#rim" fill="#404040">
                        <set attributeName="fill" to="#808080" begin="arrowRight.mouseover" end="arrowRight.mouseout"/>
                  </use>
                  <path fill="none" stroke="white" stroke-width="1.5" d="M0,-3.0v7 M-2.5,-0.5L0,-3.0L2.5,-0.5"/>
                </g>
                <g id="arrowDown" xlink:href="#dirArrow" transform="rotate(180) translate(-30 -48)" onmousedown="handlePan(0,1)">
                  <use xlink:href="#rim" fill="#404040">
                        <set attributeName="fill" to="#808080" begin="arrowDown.mouseover" end="arrowDown.mouseout"/>
                  </use>
                  <path fill="none" stroke="white" stroke-width="1.5" d="M0,-3.0v7 M-2.5,-0.5L0,-3.0L2.5,-0.5"/>
                </g>
                <g id="arrowLeft" xlink:href="#dirArrow" transform="rotate(270) translate(-36 17)" onmousedown="handlePan(-1,0)">
                  <use xlink:href="#rim" fill="#404040">
                        <set attributeName="fill" to="#808080" begin="arrowLeft.mouseover" end="arrowLeft.mouseout"/>
                  </use>
                  <path fill="none" stroke="white" stroke-width="1.5" d="M0,-3.0v7 M-2.5,-0.5L0,-3.0L2.5,-0.5"/>
                </g>
        </g>
        <svg viewBox="0 0 15 15" width="100%" height="30px" preserveAspectRatio="xMaxYMin meet">
         <g id="arrow_out" transform="scale(0.3 0.3)">
          <a xlink:href="classQuantConnect_1_1Lean_1_1Engine_1_1TransactionHandlers_1_1BrokerageTransactionHandler_afb049bcccdaba6992bd31bf91280d9a9_cgraph_org.svg" target="_base">
           <rect id="button" ry="5" rx="5" y="6" x="6" height="38" width="38"
                fill="#f2f5e9" fill-opacity="0.5" stroke="#606060" stroke-width="1.0"/>
           <path id="arrow"
             d="M 11.500037,31.436501 C 11.940474,20.09759 22.043105,11.32322 32.158766,21.979434 L 37.068811,17.246167 C 37.068811,17.246167 37.088388,32 37.088388,32 L 22.160133,31.978069 C 22.160133,31.978069 26.997745,27.140456 26.997745,27.140456 C 18.528582,18.264221 13.291696,25.230495 11.500037,31.436501 z"
             style="fill:#404040;"/>
          </a>
         </g>
        </svg>
</svg>
