<?xml version="1.0" encoding="UTF-8" standalone="no"?>
<!DOCTYPE svg PUBLIC "-//W3C//DTD SVG 1.1//EN"
 "http://www.w3.org/Graphics/SVG/1.1/DTD/svg11.dtd">
<!-- Generated by graphviz version 2.43.0 (0)
 -->
<!-- Title: QuantConnect.Securities.MarketHoursDatabase.GetExchangeHours Pages: 1 -->
<svg width="885pt" height="210pt"
 viewBox="0.00 0.00 885.00 209.50" xmlns="http://www.w3.org/2000/svg" xmlns:xlink="http://www.w3.org/1999/xlink">
<g id="graph0" class="graph" transform="scale(1 1) rotate(0) translate(4 205.5)">
<title>QuantConnect.Securities.MarketHoursDatabase.GetExchangeHours</title>
<polygon fill="white" stroke="transparent" points="-4,4 -4,-205.5 881,-205.5 881,4 -4,4"/>
<!-- Node1 -->
<g id="node1" class="node">
<title>Node1</title>
<g id="a_node1"><a xlink:title="Convenience method for retrieving exchange hours from market hours database using a subscription conf...">
<polygon fill="#bfbfbf" stroke="black" points="0,-88 0,-118 221,-118 221,-88 0,-88"/>
<text text-anchor="start" x="8" y="-106" font-family="Helvetica,sans-Serif" font-size="10.00">QuantConnect.Securities.</text>
<text text-anchor="middle" x="110.5" y="-95" font-family="Helvetica,sans-Serif" font-size="10.00">MarketHoursDatabase.GetExchangeHours</text>
</a>
</g>
</g>
<!-- Node2 -->
<g id="node2" class="node">
<title>Node2</title>
<g id="a_node2"><a xlink:href="classQuantConnect_1_1Securities_1_1MarketHoursDatabase.html#aeac6cf20dbffdbafd258f0d5f4473713" target="_top" xlink:title="Gets the entry for the specified market/symbol/security&#45;type">
<polygon fill="white" stroke="black" points="257,-88 257,-118 428,-118 428,-88 257,-88"/>
<text text-anchor="start" x="265" y="-106" font-family="Helvetica,sans-Serif" font-size="10.00">QuantConnect.Securities.</text>
<text text-anchor="middle" x="342.5" y="-95" font-family="Helvetica,sans-Serif" font-size="10.00">MarketHoursDatabase.GetEntry</text>
</a>
</g>
</g>
<!-- Node1&#45;&gt;Node2 -->
<g id="edge1" class="edge">
<title>Node1&#45;&gt;Node2</title>
<path fill="none" stroke="midnightblue" d="M221.11,-103C229.67,-103 238.26,-103 246.7,-103"/>
<polygon fill="midnightblue" stroke="midnightblue" points="246.92,-106.5 256.92,-103 246.92,-99.5 246.92,-106.5"/>
</g>
<!-- Node3 -->
<g id="node3" class="node">
<title>Node3</title>
<g id="a_node3"><a xlink:href="classQuantConnect_1_1Logging_1_1Log.html#af0e7955911bc7664b37661b2a303a9e3" target="_top" xlink:title="Log error">
<polygon fill="white" stroke="black" points="481.5,-171 481.5,-201 631.5,-201 631.5,-171 481.5,-171"/>
<text text-anchor="start" x="489.5" y="-189" font-family="Helvetica,sans-Serif" font-size="10.00">QuantConnect.Logging.Log.</text>
<text text-anchor="middle" x="556.5" y="-178" font-family="Helvetica,sans-Serif" font-size="10.00">Error</text>
</a>
</g>
</g>
<!-- Node2&#45;&gt;Node3 -->
<g id="edge2" class="edge">
<title>Node2&#45;&gt;Node3</title>
<path fill="none" stroke="midnightblue" d="M371.11,-118.07C395.14,-130.75 431.16,-148.73 464,-161 470.68,-163.5 477.72,-165.86 484.81,-168.08"/>
<polygon fill="midnightblue" stroke="midnightblue" points="483.88,-171.45 494.47,-170.99 485.9,-164.75 483.88,-171.45"/>
</g>
<!-- Node5 -->
<g id="node5" class="node">
<title>Node5</title>
<g id="a_node5"><a xlink:href="classQuantConnect_1_1Securities_1_1SymbolPropertiesDatabase.html#aee26fb588793fd311c44eb8b2909cc33" target="_top" xlink:title="Gets the instance of the SymbolPropertiesDatabase class produced by reading in the symbol properties ...">
<polygon fill="white" stroke="black" points="468,-110.5 468,-151.5 645,-151.5 645,-110.5 468,-110.5"/>
<text text-anchor="start" x="476" y="-139.5" font-family="Helvetica,sans-Serif" font-size="10.00">QuantConnect.Securities.</text>
<text text-anchor="start" x="476" y="-128.5" font-family="Helvetica,sans-Serif" font-size="10.00">SymbolPropertiesDatabase.From</text>
<text text-anchor="middle" x="556.5" y="-117.5" font-family="Helvetica,sans-Serif" font-size="10.00">DataFolder</text>
</a>
</g>
</g>
<!-- Node2&#45;&gt;Node5 -->
<g id="edge4" class="edge">
<title>Node2&#45;&gt;Node5</title>
<path fill="none" stroke="midnightblue" d="M428.2,-114.19C437.87,-115.46 447.79,-116.77 457.62,-118.07"/>
<polygon fill="midnightblue" stroke="midnightblue" points="457.44,-121.58 467.81,-119.42 458.36,-114.64 457.44,-121.58"/>
</g>
<!-- Node7 -->
<g id="node7" class="node">
<title>Node7</title>
<g id="a_node7"><a xlink:href="classQuantConnect_1_1Securities_1_1MarketHoursDatabase.html#a3eedd1459368e8f50da2cedfc7508006" target="_top" xlink:title="Tries to get the entry for the specified market/symbol/security&#45;type">
<polygon fill="white" stroke="black" points="464,-61 464,-91 649,-91 649,-61 464,-61"/>
<text text-anchor="start" x="472" y="-79" font-family="Helvetica,sans-Serif" font-size="10.00">QuantConnect.Securities.</text>
<text text-anchor="middle" x="556.5" y="-68" font-family="Helvetica,sans-Serif" font-size="10.00">MarketHoursDatabase.TryGetEntry</text>
</a>
</g>
</g>
<!-- Node2&#45;&gt;Node7 -->
<g id="edge6" class="edge">
<title>Node2&#45;&gt;Node7</title>
<path fill="none" stroke="midnightblue" d="M428.2,-92.21C436.66,-91.14 445.3,-90.03 453.91,-88.94"/>
<polygon fill="midnightblue" stroke="midnightblue" points="454.5,-92.39 463.98,-87.66 453.61,-85.45 454.5,-92.39"/>
</g>
<!-- Node9 -->
<g id="node9" class="node">
<title>Node9</title>
<g id="a_node9"><a xlink:href="classQuantConnect_1_1Securities_1_1SymbolPropertiesDatabase.html#a5a7baeddd03bfc7fb60cef8ab2e6834b" target="_top" xlink:title="Tries to get the market for the provided symbol/security type">
<polygon fill="white" stroke="black" points="473,-0.5 473,-41.5 640,-41.5 640,-0.5 473,-0.5"/>
<text text-anchor="start" x="481" y="-29.5" font-family="Helvetica,sans-Serif" font-size="10.00">QuantConnect.Securities.</text>
<text text-anchor="start" x="481" y="-18.5" font-family="Helvetica,sans-Serif" font-size="10.00">SymbolPropertiesDatabase.Try</text>
<text text-anchor="middle" x="556.5" y="-7.5" font-family="Helvetica,sans-Serif" font-size="10.00">GetMarket</text>
</a>
</g>
</g>
<!-- Node2&#45;&gt;Node9 -->
<g id="edge8" class="edge">
<title>Node2&#45;&gt;Node9</title>
<path fill="none" stroke="midnightblue" d="M376.16,-87.95C400.22,-77.1 433.85,-62.42 464,-51 469.41,-48.95 475.03,-46.91 480.7,-44.91"/>
<polygon fill="midnightblue" stroke="midnightblue" points="481.97,-48.17 490.26,-41.59 479.67,-41.56 481.97,-48.17"/>
</g>
<!-- Node4 -->
<g id="node4" class="node">
<title>Node4</title>
<g id="a_node4"><a xlink:href="interfaceQuantConnect_1_1Logging_1_1ILogHandler.html#a35373a0c5d76031fa5ccf5dc39e5c25d" target="_top" xlink:title="Write error message to log">
<polygon fill="white" stroke="black" points="706,-171 706,-201 856,-201 856,-171 706,-171"/>
<text text-anchor="start" x="714" y="-189" font-family="Helvetica,sans-Serif" font-size="10.00">QuantConnect.Logging.ILog</text>
<text text-anchor="middle" x="781" y="-178" font-family="Helvetica,sans-Serif" font-size="10.00">Handler.Error</text>
</a>
</g>
</g>
<!-- Node3&#45;&gt;Node4 -->
<g id="edge3" class="edge">
<title>Node3&#45;&gt;Node4</title>
<path fill="none" stroke="midnightblue" d="M631.59,-186C652.12,-186 674.56,-186 695.64,-186"/>
<polygon fill="midnightblue" stroke="midnightblue" points="695.86,-189.5 705.86,-186 695.86,-182.5 695.86,-189.5"/>
</g>
<!-- Node6 -->
<g id="node6" class="node">
<title>Node6</title>
<g id="a_node6"><a xlink:href="classQuantConnect_1_1Securities_1_1SymbolPropertiesDatabase.html#a1658f93bf0dce7022bb7584e1a95cc7a" target="_top" xlink:title="Initialize a new instance of SymbolPropertiesDatabase using the given file">
<polygon fill="white" stroke="black" points="686.5,-110.5 686.5,-151.5 875.5,-151.5 875.5,-110.5 686.5,-110.5"/>
<text text-anchor="start" x="694.5" y="-139.5" font-family="Helvetica,sans-Serif" font-size="10.00">QuantConnect.Securities.</text>
<text text-anchor="start" x="694.5" y="-128.5" font-family="Helvetica,sans-Serif" font-size="10.00">SymbolPropertiesDatabase.Symbol</text>
<text text-anchor="middle" x="781" y="-117.5" font-family="Helvetica,sans-Serif" font-size="10.00">PropertiesDatabase</text>
</a>
</g>
</g>
<!-- Node5&#45;&gt;Node6 -->
<g id="edge5" class="edge">
<title>Node5&#45;&gt;Node6</title>
<path fill="none" stroke="midnightblue" d="M645.12,-131C655.24,-131 665.64,-131 675.95,-131"/>
<polygon fill="midnightblue" stroke="midnightblue" points="676.23,-134.5 686.23,-131 676.23,-127.5 676.23,-134.5"/>
</g>
<!-- Node8 -->
<g id="node8" class="node">
<title>Node8</title>
<g id="a_node8"><a xlink:href="classQuantConnect_1_1Securities_1_1MarketHoursDatabase.html#aa717adb9bb04be931913608ffd5a2733" target="_top" xlink:title="Gets the correct string symbol to use as a database key">
<polygon fill="white" stroke="black" points="685,-50.5 685,-91.5 877,-91.5 877,-50.5 685,-50.5"/>
<text text-anchor="start" x="693" y="-79.5" font-family="Helvetica,sans-Serif" font-size="10.00">QuantConnect.Securities.</text>
<text text-anchor="start" x="693" y="-68.5" font-family="Helvetica,sans-Serif" font-size="10.00">MarketHoursDatabase.GetDatabase</text>
<text text-anchor="middle" x="781" y="-57.5" font-family="Helvetica,sans-Serif" font-size="10.00">SymbolKey</text>
</a>
</g>
</g>
<!-- Node7&#45;&gt;Node8 -->
<g id="edge7" class="edge">
<title>Node7&#45;&gt;Node8</title>
<path fill="none" stroke="midnightblue" d="M649.28,-73.94C657.62,-73.75 666.11,-73.56 674.56,-73.37"/>
<polygon fill="midnightblue" stroke="midnightblue" points="674.91,-76.86 684.83,-73.14 674.75,-69.86 674.91,-76.86"/>
</g>
</g>
</svg>
