<?xml version="1.0" encoding="UTF-8" standalone="no"?>
<!DOCTYPE svg PUBLIC "-//W3C//DTD SVG 1.1//EN"
 "http://www.w3.org/Graphics/SVG/1.1/DTD/svg11.dtd">
<!-- Generated by graphviz version 2.43.0 (0)
 -->
<!-- Title: QuantConnect.Data.Market.TradeBar.Parse Pages: 1 -->
<svg width="536pt" height="127pt"
 viewBox="0.00 0.00 536.00 127.00" xmlns="http://www.w3.org/2000/svg" xmlns:xlink="http://www.w3.org/1999/xlink">
<g id="graph0" class="graph" transform="scale(1 1) rotate(0) translate(4 123)">
<title>QuantConnect.Data.Market.TradeBar.Parse</title>
<polygon fill="white" stroke="transparent" points="-4,4 -4,-123 532,-123 532,4 -4,4"/>
<!-- Node1 -->
<g id="node1" class="node">
<title>Node1</title>
<g id="a_node1"><a xlink:title="Parses the trade bar data line assuming QC data formats">
<polygon fill="#bfbfbf" stroke="black" points="0,-44.5 0,-74.5 152,-74.5 152,-44.5 0,-44.5"/>
<text text-anchor="start" x="8" y="-62.5" font-family="Helvetica,sans-Serif" font-size="10.00">QuantConnect.Data.Market.</text>
<text text-anchor="middle" x="76" y="-51.5" font-family="Helvetica,sans-Serif" font-size="10.00">TradeBar.Parse</text>
</a>
</g>
</g>
<!-- Node2 -->
<g id="node2" class="node">
<title>Node2</title>
<g id="a_node2"><a xlink:href="classQuantConnect_1_1Data_1_1Market_1_1TradeBar.html#a5812fe5ce6b7760dc87c462299a3e444" target="_top" xlink:title="Parses CFD trade bar data into the specified tradebar type, useful for custom types with OHLCV data d...">
<polygon fill="white" stroke="black" points="188,-88.5 188,-118.5 340,-118.5 340,-88.5 188,-88.5"/>
<text text-anchor="start" x="196" y="-106.5" font-family="Helvetica,sans-Serif" font-size="10.00">QuantConnect.Data.Market.</text>
<text text-anchor="middle" x="264" y="-95.5" font-family="Helvetica,sans-Serif" font-size="10.00">TradeBar.ParseCfd</text>
</a>
</g>
</g>
<!-- Node1&#45;&gt;Node2 -->
<g id="edge1" class="edge">
<title>Node1&#45;&gt;Node2</title>
<path fill="none" stroke="midnightblue" d="M140.49,-74.52C156.26,-78.25 173.3,-82.28 189.51,-86.12"/>
<polygon fill="midnightblue" stroke="midnightblue" points="188.94,-89.58 199.48,-88.47 190.55,-82.77 188.94,-89.58"/>
</g>
<!-- Node3 -->
<g id="node3" class="node">
<title>Node3</title>
<g id="a_node3"><a xlink:href="classQuantConnect_1_1Data_1_1Market_1_1TradeBar.html#aa932ec9a13842aef43f4a8944ebef3bb" target="_top" xlink:title="Parses forex trade bar data into the specified tradebar type, useful for custom types with OHLCV data...">
<polygon fill="white" stroke="black" points="376,-66.5 376,-96.5 528,-96.5 528,-66.5 376,-66.5"/>
<text text-anchor="start" x="384" y="-84.5" font-family="Helvetica,sans-Serif" font-size="10.00">QuantConnect.Data.Market.</text>
<text text-anchor="middle" x="452" y="-73.5" font-family="Helvetica,sans-Serif" font-size="10.00">TradeBar.ParseForex</text>
</a>
</g>
</g>
<!-- Node1&#45;&gt;Node3 -->
<g id="edge4" class="edge">
<title>Node1&#45;&gt;Node3</title>
<path fill="none" stroke="midnightblue" d="M152.23,-63.93C213.99,-67.56 301.43,-72.7 365.77,-76.49"/>
<polygon fill="midnightblue" stroke="midnightblue" points="365.7,-79.99 375.89,-77.08 366.11,-73 365.7,-79.99"/>
</g>
<!-- Node4 -->
<g id="node4" class="node">
<title>Node4</title>
<g id="a_node4"><a xlink:href="classQuantConnect_1_1Data_1_1Market_1_1TradeBar.html#a1024a2dc9ee173bc50d23cf62067a304" target="_top" xlink:title="Parses equity trade bar data into the specified tradebar type, useful for custom types with OHLCV dat...">
<polygon fill="white" stroke="black" points="188,-0.5 188,-30.5 340,-30.5 340,-0.5 188,-0.5"/>
<text text-anchor="start" x="196" y="-18.5" font-family="Helvetica,sans-Serif" font-size="10.00">QuantConnect.Data.Market.</text>
<text text-anchor="middle" x="264" y="-7.5" font-family="Helvetica,sans-Serif" font-size="10.00">TradeBar.ParseEquity</text>
</a>
</g>
</g>
<!-- Node1&#45;&gt;Node4 -->
<g id="edge3" class="edge">
<title>Node1&#45;&gt;Node4</title>
<path fill="none" stroke="midnightblue" d="M140.49,-44.48C156.26,-40.75 173.3,-36.72 189.51,-32.88"/>
<polygon fill="midnightblue" stroke="midnightblue" points="190.55,-36.23 199.48,-30.53 188.94,-29.42 190.55,-36.23"/>
</g>
<!-- Node2&#45;&gt;Node3 -->
<g id="edge2" class="edge">
<title>Node2&#45;&gt;Node3</title>
<path fill="none" stroke="midnightblue" d="M340.12,-94.62C348.6,-93.61 357.28,-92.59 365.87,-91.57"/>
<polygon fill="midnightblue" stroke="midnightblue" points="366.39,-95.03 375.9,-90.38 365.56,-88.08 366.39,-95.03"/>
</g>
</g>
</svg>
