<?xml version="1.0" encoding="UTF-8" standalone="no"?>
<!DOCTYPE svg PUBLIC "-//W3C//DTD SVG 1.1//EN"
 "http://www.w3.org/Graphics/SVG/1.1/DTD/svg11.dtd">
<!-- Generated by graphviz version 2.43.0 (0)
 -->
<!-- Title: QuantConnect.Securities.Positions.SecurityPositionGroupModel.GetPositionGroupResolver Pages: 1 -->
<svg width="394pt" height="50pt"
 viewBox="0.00 0.00 394.00 50.00" xmlns="http://www.w3.org/2000/svg" xmlns:xlink="http://www.w3.org/1999/xlink">
<g id="graph0" class="graph" transform="scale(1 1) rotate(0) translate(4 46)">
<title>QuantConnect.Securities.Positions.SecurityPositionGroupModel.GetPositionGroupResolver</title>
<polygon fill="white" stroke="transparent" points="-4,4 -4,-46 390,-46 390,4 -4,4"/>
<!-- Node1 -->
<g id="node1" class="node">
<title>Node1</title>
<g id="a_node1"><a xlink:title="Get the position group resolver instance to use">
<polygon fill="#bfbfbf" stroke="black" points="208,-0.5 208,-41.5 386,-41.5 386,-0.5 208,-0.5"/>
<text text-anchor="start" x="216" y="-29.5" font-family="Helvetica,sans-Serif" font-size="10.00">QuantConnect.Securities.</text>
<text text-anchor="start" x="216" y="-18.5" font-family="Helvetica,sans-Serif" font-size="10.00">Positions.SecurityPositionGroup</text>
<text text-anchor="middle" x="297" y="-7.5" font-family="Helvetica,sans-Serif" font-size="10.00">Model.GetPositionGroupResolver</text>
</a>
</g>
</g>
<!-- Node2 -->
<g id="node2" class="node">
<title>Node2</title>
<g id="a_node2"><a xlink:href="classQuantConnect_1_1Securities_1_1Positions_1_1SecurityPositionGroupModel.html#a2a7fcd6531a3df788c70bc4e3728186a" target="_top" xlink:title="Initializes a new instance of the SecurityPositionGroupModel class">
<polygon fill="white" stroke="black" points="0,-0.5 0,-41.5 172,-41.5 172,-0.5 0,-0.5"/>
<text text-anchor="start" x="8" y="-29.5" font-family="Helvetica,sans-Serif" font-size="10.00">QuantConnect.Securities.</text>
<text text-anchor="start" x="8" y="-18.5" font-family="Helvetica,sans-Serif" font-size="10.00">Positions.SecurityPositionGroup</text>
<text text-anchor="middle" x="86" y="-7.5" font-family="Helvetica,sans-Serif" font-size="10.00">Model.Initialize</text>
</a>
</g>
</g>
<!-- Node1&#45;&gt;Node2 -->
<g id="edge1" class="edge">
<title>Node1&#45;&gt;Node2</title>
<path fill="none" stroke="midnightblue" d="M197.94,-21C189.36,-21 180.72,-21 172.26,-21"/>
<polygon fill="midnightblue" stroke="midnightblue" points="197.97,-24.5 207.97,-21 197.97,-17.5 197.97,-24.5"/>
</g>
</g>
</svg>
