<?xml version="1.0" encoding="UTF-8" standalone="no"?>
<!DOCTYPE svg PUBLIC "-//W3C//DTD SVG 1.1//EN"
 "http://www.w3.org/Graphics/SVG/1.1/DTD/svg11.dtd">
<!-- Generated by graphviz version 2.43.0 (0)
 -->
<!-- Title: QuantConnect.Data.Auxiliary.CorporateFactorProvider.HasDividendEventOnNextTradingDay Pages: 1 -->
<svg width="423pt" height="50pt"
 viewBox="0.00 0.00 423.00 50.00" xmlns="http://www.w3.org/2000/svg" xmlns:xlink="http://www.w3.org/1999/xlink">
<g id="graph0" class="graph" transform="scale(1 1) rotate(0) translate(4 46)">
<title>QuantConnect.Data.Auxiliary.CorporateFactorProvider.HasDividendEventOnNextTradingDay</title>
<polygon fill="white" stroke="transparent" points="-4,4 -4,-46 419,-46 419,4 -4,4"/>
<!-- Node1 -->
<g id="node1" class="node">
<title>Node1</title>
<g id="a_node1"><a xlink:title="Returns true if the specified date is the last trading day before a dividend event is to be fired">
<polygon fill="#bfbfbf" stroke="black" points="216,-0.5 216,-41.5 415,-41.5 415,-0.5 216,-0.5"/>
<text text-anchor="start" x="224" y="-29.5" font-family="Helvetica,sans-Serif" font-size="10.00">QuantConnect.Data.Auxiliary.</text>
<text text-anchor="start" x="224" y="-18.5" font-family="Helvetica,sans-Serif" font-size="10.00">CorporateFactorProvider.HasDividend</text>
<text text-anchor="middle" x="315.5" y="-7.5" font-family="Helvetica,sans-Serif" font-size="10.00">EventOnNextTradingDay</text>
</a>
</g>
</g>
<!-- Node2 -->
<g id="node2" class="node">
<title>Node2</title>
<g id="a_node2"><a xlink:href="classQuantConnect_1_1Lean_1_1Engine_1_1DataFeeds_1_1Enumerators_1_1DividendEventProvider.html#ac0faabb7ac460a13c4aaffca7fcae75f" target="_top" xlink:title="Check for dividends and returns them">
<polygon fill="white" stroke="black" points="0,-0.5 0,-41.5 180,-41.5 180,-0.5 0,-0.5"/>
<text text-anchor="start" x="8" y="-29.5" font-family="Helvetica,sans-Serif" font-size="10.00">QuantConnect.Lean.Engine.</text>
<text text-anchor="start" x="8" y="-18.5" font-family="Helvetica,sans-Serif" font-size="10.00">DataFeeds.Enumerators.Dividend</text>
<text text-anchor="middle" x="90" y="-7.5" font-family="Helvetica,sans-Serif" font-size="10.00">EventProvider.GetEvents</text>
</a>
</g>
</g>
<!-- Node1&#45;&gt;Node2 -->
<g id="edge1" class="edge">
<title>Node1&#45;&gt;Node2</title>
<path fill="none" stroke="midnightblue" d="M205.82,-21C197.28,-21 188.72,-21 180.33,-21"/>
<polygon fill="midnightblue" stroke="midnightblue" points="205.82,-24.5 215.82,-21 205.82,-17.5 205.82,-24.5"/>
</g>
</g>
</svg>
