<?xml version="1.0" encoding="UTF-8" standalone="no"?>
<!DOCTYPE svg PUBLIC "-//W3C//DTD SVG 1.1//EN"
 "http://www.w3.org/Graphics/SVG/1.1/DTD/svg11.dtd">
<!-- Generated by graphviz version 2.43.0 (0)
 -->
<!-- Title: QuantConnect.Data.Auxiliary.CorporateFactorRow.CorporateFactorRow Pages: 1 -->
<svg width="419pt" height="39pt"
 viewBox="0.00 0.00 419.00 39.00" xmlns="http://www.w3.org/2000/svg" xmlns:xlink="http://www.w3.org/1999/xlink">
<g id="graph0" class="graph" transform="scale(1 1) rotate(0) translate(4 35)">
<title>QuantConnect.Data.Auxiliary.CorporateFactorRow.CorporateFactorRow</title>
<polygon fill="white" stroke="transparent" points="-4,4 -4,-35 415,-35 415,4 -4,4"/>
<!-- Node1 -->
<g id="node1" class="node">
<title>Node1</title>
<g id="a_node1"><a xlink:title="Initializes a new instance of the CorporateFactorRow class">
<polygon fill="#bfbfbf" stroke="black" points="196,-0.5 196,-30.5 411,-30.5 411,-0.5 196,-0.5"/>
<text text-anchor="start" x="204" y="-18.5" font-family="Helvetica,sans-Serif" font-size="10.00">QuantConnect.Data.Auxiliary.</text>
<text text-anchor="middle" x="303.5" y="-7.5" font-family="Helvetica,sans-Serif" font-size="10.00">CorporateFactorRow.CorporateFactorRow</text>
</a>
</g>
</g>
<!-- Node2 -->
<g id="node2" class="node">
<title>Node2</title>
<g id="a_node2"><a xlink:href="classQuantConnect_1_1Data_1_1Auxiliary_1_1CorporateFactorRow.html#a192755fd93088aa5714655082bda1420" target="_top" xlink:title="Applies the split to this factor file row. This split date must be on or before the factor file row d...">
<polygon fill="white" stroke="black" points="0,-0.5 0,-30.5 160,-30.5 160,-0.5 0,-0.5"/>
<text text-anchor="start" x="8" y="-18.5" font-family="Helvetica,sans-Serif" font-size="10.00">QuantConnect.Data.Auxiliary.</text>
<text text-anchor="middle" x="80" y="-7.5" font-family="Helvetica,sans-Serif" font-size="10.00">CorporateFactorRow.Apply</text>
</a>
</g>
</g>
<!-- Node1&#45;&gt;Node2 -->
<g id="edge1" class="edge">
<title>Node1&#45;&gt;Node2</title>
<path fill="none" stroke="midnightblue" d="M185.77,-15.5C177.09,-15.5 168.47,-15.5 160.1,-15.5"/>
<polygon fill="midnightblue" stroke="midnightblue" points="185.97,-19 195.97,-15.5 185.97,-12 185.97,-19"/>
</g>
</g>
</svg>
