<?xml version="1.0" encoding="UTF-8" standalone="no"?>
<!DOCTYPE svg PUBLIC "-//W3C//DTD SVG 1.1//EN"
 "http://www.w3.org/Graphics/SVG/1.1/DTD/svg11.dtd">
<!-- Generated by graphviz version 2.43.0 (0)
 -->
<!-- Title: QuantConnect.Data.UniverseSelection.CoarseFundamental Pages: 1 -->
<svg width="599pt" height="50pt"
 viewBox="0.00 0.00 599.00 50.00" xmlns="http://www.w3.org/2000/svg" xmlns:xlink="http://www.w3.org/1999/xlink">
<g id="graph0" class="graph" transform="scale(1 1) rotate(0) translate(4 46)">
<title>QuantConnect.Data.UniverseSelection.CoarseFundamental</title>
<polygon fill="white" stroke="transparent" points="-4,4 -4,-46 595,-46 595,4 -4,4"/>
<!-- Node1 -->
<g id="node1" class="node">
<title>Node1</title>
<g id="a_node1"><a xlink:title="Defines summary information about a single symbol for a given date">
<polygon fill="#bfbfbf" stroke="black" points="203,-6 203,-36 365,-36 365,-6 203,-6"/>
<text text-anchor="start" x="211" y="-24" font-family="Helvetica,sans-Serif" font-size="10.00">QuantConnect.Data.Universe</text>
<text text-anchor="middle" x="284" y="-13" font-family="Helvetica,sans-Serif" font-size="10.00">Selection.CoarseFundamental</text>
</a>
</g>
</g>
<!-- Node4 -->
<g id="node4" class="node">
<title>Node4</title>
<g id="a_node4"><a xlink:href="classQuantConnect_1_1Data_1_1UniverseSelection_1_1CoarseFundamentalDataProvider_1_1CoarseFundamentalSource.html" target="_top" xlink:title="Coarse fundamental with setters">
<polygon fill="white" stroke="black" points="401,-0.5 401,-41.5 591,-41.5 591,-0.5 401,-0.5"/>
<text text-anchor="start" x="409" y="-29.5" font-family="Helvetica,sans-Serif" font-size="10.00">QuantConnect.Data.Universe</text>
<text text-anchor="start" x="409" y="-18.5" font-family="Helvetica,sans-Serif" font-size="10.00">Selection.CoarseFundamentalData</text>
<text text-anchor="middle" x="496" y="-7.5" font-family="Helvetica,sans-Serif" font-size="10.00">Provider.CoarseFundamentalSource</text>
</a>
</g>
</g>
<!-- Node1&#45;&gt;Node4 -->
<g id="edge3" class="edge">
<title>Node1&#45;&gt;Node4</title>
<path fill="none" stroke="midnightblue" d="M375.42,-21C383.79,-21 392.29,-21 400.69,-21"/>
<polygon fill="midnightblue" stroke="midnightblue" points="375.29,-17.5 365.29,-21 375.29,-24.5 375.29,-17.5"/>
</g>
<!-- Node2 -->
<g id="node2" class="node">
<title>Node2</title>
<g id="a_node2"><a xlink:href="classQuantConnect_1_1Data_1_1BaseData.html" target="_top" xlink:title="Abstract base data class of QuantConnect. It is intended to be extended to define generic user custom...">
<polygon fill="white" stroke="black" points="103,-11.5 103,-30.5 167,-30.5 167,-11.5 103,-11.5"/>
<text text-anchor="middle" x="135" y="-18.5" font-family="Helvetica,sans-Serif" font-size="10.00">BaseData</text>
</a>
</g>
</g>
<!-- Node2&#45;&gt;Node1 -->
<g id="edge1" class="edge">
<title>Node2&#45;&gt;Node1</title>
<path fill="none" stroke="midnightblue" d="M177.34,-21C185.38,-21 194.06,-21 202.87,-21"/>
<polygon fill="midnightblue" stroke="midnightblue" points="177.17,-17.5 167.17,-21 177.17,-24.5 177.17,-17.5"/>
</g>
<!-- Node3 -->
<g id="node3" class="node">
<title>Node3</title>
<g id="a_node3"><a xlink:href="interfaceQuantConnect_1_1Data_1_1IBaseData.html" target="_top" xlink:title="Base Data Class: Type, Timestamp, Key – Base Features.">
<polygon fill="white" stroke="black" points="0,-11.5 0,-30.5 67,-30.5 67,-11.5 0,-11.5"/>
<text text-anchor="middle" x="33.5" y="-18.5" font-family="Helvetica,sans-Serif" font-size="10.00">IBaseData</text>
</a>
</g>
</g>
<!-- Node3&#45;&gt;Node2 -->
<g id="edge2" class="edge">
<title>Node3&#45;&gt;Node2</title>
<path fill="none" stroke="midnightblue" d="M77.29,-21C85.82,-21 94.64,-21 102.7,-21"/>
<polygon fill="midnightblue" stroke="midnightblue" points="77.08,-17.5 67.08,-21 77.08,-24.5 77.08,-17.5"/>
</g>
</g>
</svg>
