<?xml version="1.0" encoding="UTF-8" standalone="no"?>
<!DOCTYPE svg PUBLIC "-//W3C//DTD SVG 1.1//EN"
 "http://www.w3.org/Graphics/SVG/1.1/DTD/svg11.dtd">
<!-- Generated by graphviz version 2.43.0 (0)
 -->
<!-- Title: QuantConnect.Lean.Engine.DataFeeds.BacktestingOptionChainProvider.GetOptionContractList Pages: 1 -->
<!--zoomable 498 -->
<svg id="main" version="1.1" xmlns="http://www.w3.org/2000/svg" xmlns:xlink="http://www.w3.org/1999/xlink" xml:space="preserve" onload="init(evt)">
<style type="text/css"><![CDATA[
.edge:hover path { stroke: red; }
.edge:hover polygon { stroke: red; fill: red; }
]]></style>
<script type="text/javascript"><![CDATA[
var edges = document.getElementsByTagName('g');
if (edges && edges.length) {
  for (var i=0;i<edges.length;i++) {
    if (edges[i].id.substr(0,4)=='edge') {
      edges[i].setAttribute('class','edge');
    }
  }
}
]]></script>
        <defs>
                <circle id="rim" cx="0" cy="0" r="7"/>
                <circle id="rim2" cx="0" cy="0" r="3.5"/>
                <g id="zoomPlus">
                        <use xlink:href="#rim" fill="#404040">
                                <set attributeName="fill" to="#808080" begin="zoomplus.mouseover" end="zoomplus.mouseout"/>
                        </use>
                        <path d="M-4,0h8M0,-4v8" fill="none" stroke="white" stroke-width="1.5" pointer-events="none"/>
                </g>
                <g id="zoomMin">
                        <use xlink:href="#rim" fill="#404040">
                                <set attributeName="fill" to="#808080" begin="zoomminus.mouseover" end="zoomminus.mouseout"/>
                        </use>
                        <path d="M-4,0h8" fill="none" stroke="white" stroke-width="1.5" pointer-events="none"/>
                </g>
                <g id="dirArrow">
                        <path fill="none" stroke="white" stroke-width="1.5" d="M0,-3.0v7 M-2.5,-0.5L0,-3.0L2.5,-0.5"/>
                </g>
               <g id="resetDef">
                       <use xlink:href="#rim2" fill="#404040">
                               <set attributeName="fill" to="#808080" begin="reset.mouseover" end="reset.mouseout"/>
                       </use>
               </g>
        </defs>

<script type="text/javascript">
var viewWidth = 1873;
var viewHeight = 498;
var sectionId = 'dynsection-1';
</script>
<script xlink:href="svgpan.js"/>
<svg id="graph" class="graph">
<g id="viewport">
<title>QuantConnect.Lean.Engine.DataFeeds.BacktestingOptionChainProvider.GetOptionContractList</title>
<polygon fill="white" stroke="transparent" points="-4,4 -4,-494 1869,-494 1869,4 -4,4"/>
<!-- Node1 -->
<g id="node1" class="node">
<title>Node1</title>
<g id="a_node1"><a xlink:title="Gets the list of option contracts for a given underlying symbol">
<polygon fill="#bfbfbf" stroke="black" points="0,-303 0,-344 189,-344 189,-303 0,-303"/>
<text text-anchor="start" x="8" y="-332" font-family="Helvetica,sans-Serif" font-size="10.00">QuantConnect.Lean.Engine.</text>
<text text-anchor="start" x="8" y="-321" font-family="Helvetica,sans-Serif" font-size="10.00">DataFeeds.BacktestingOptionChain</text>
<text text-anchor="middle" x="94.5" y="-310" font-family="Helvetica,sans-Serif" font-size="10.00">Provider.GetOptionContractList</text>
</a>
</g>
</g>
<!-- Node2 -->
<g id="node2" class="node">
<title>Node2</title>
<g id="a_node2"><a xlink:href="classQuantConnect_1_1Symbol.html#af65aa2b28fbdc943c979198070eb16a2" target="_top" xlink:title="Simple method to create the canonical option symbol for any given underlying symbol">
<polygon fill="white" stroke="black" points="244.5,-336.5 244.5,-366.5 405.5,-366.5 405.5,-336.5 244.5,-336.5"/>
<text text-anchor="start" x="252.5" y="-354.5" font-family="Helvetica,sans-Serif" font-size="10.00">QuantConnect.Symbol.Create</text>
<text text-anchor="middle" x="325" y="-343.5" font-family="Helvetica,sans-Serif" font-size="10.00">CanonicalOption</text>
</a>
</g>
</g>
<!-- Node1&#45;&gt;Node2 -->
<g id="edge1" class="edge">
<title>Node1&#45;&gt;Node2</title>
<path fill="none" stroke="midnightblue" d="M189.1,-334.97C204.02,-336.8 219.43,-338.69 234.26,-340.5"/>
<polygon fill="midnightblue" stroke="midnightblue" points="234.06,-344.01 244.42,-341.75 234.92,-337.06 234.06,-344.01"/>
</g>
<!-- Node3 -->
<g id="node3" class="node">
<title>Node3</title>
<g id="a_node3"><a xlink:href="classQuantConnect_1_1Lean_1_1Engine_1_1DataFeeds_1_1BacktestingChainProvider.html#a903ec0b9ee074f1a7ee6d1eccc5f712b" target="_top" xlink:title="Get the contract symbols associated with the given canonical symbol and date">
<polygon fill="white" stroke="black" points="225,-276 225,-317 425,-317 425,-276 225,-276"/>
<text text-anchor="start" x="233" y="-305" font-family="Helvetica,sans-Serif" font-size="10.00">QuantConnect.Lean.Engine.</text>
<text text-anchor="start" x="233" y="-294" font-family="Helvetica,sans-Serif" font-size="10.00">DataFeeds.BacktestingChainProvider.</text>
<text text-anchor="middle" x="325" y="-283" font-family="Helvetica,sans-Serif" font-size="10.00">GetSymbols</text>
</a>
</g>
</g>
<!-- Node1&#45;&gt;Node3 -->
<g id="edge2" class="edge">
<title>Node1&#45;&gt;Node3</title>
<path fill="none" stroke="midnightblue" d="M189.1,-312.44C197.6,-311.44 206.27,-310.41 214.89,-309.39"/>
<polygon fill="midnightblue" stroke="midnightblue" points="215.46,-312.85 224.98,-308.2 214.64,-305.9 215.46,-312.85"/>
</g>
<!-- Node4 -->
<g id="node4" class="node">
<title>Node4</title>
<g id="a_node4"><a xlink:href="classQuantConnect_1_1Logging_1_1Log.html#ad908daef9d61532d7d60c9dcfb9a3e0c" target="_top" xlink:title="Output to the console">
<polygon fill="white" stroke="black" points="486,-440.5 486,-470.5 636,-470.5 636,-440.5 486,-440.5"/>
<text text-anchor="start" x="494" y="-458.5" font-family="Helvetica,sans-Serif" font-size="10.00">QuantConnect.Logging.Log.</text>
<text text-anchor="middle" x="561" y="-447.5" font-family="Helvetica,sans-Serif" font-size="10.00">Debug</text>
</a>
</g>
</g>
<!-- Node3&#45;&gt;Node4 -->
<g id="edge3" class="edge">
<title>Node3&#45;&gt;Node4</title>
<path fill="none" stroke="midnightblue" d="M410.41,-317.06C415.64,-320.08 420.57,-323.54 425,-327.5 454.65,-354.05 433.16,-381.06 461,-409.5 472.04,-420.78 486.37,-429.58 500.68,-436.33"/>
<polygon fill="midnightblue" stroke="midnightblue" points="499.49,-439.63 510.05,-440.48 502.32,-433.23 499.49,-439.63"/>
</g>
<!-- Node6 -->
<g id="node6" class="node">
<title>Node6</title>
<g id="a_node6"><a xlink:href="classQuantConnect_1_1Securities_1_1MarketHoursDatabase.html#aa01232d91c17c556b18ea8f1f7fabcd0" target="_top" xlink:title="Gets the instance of the MarketHoursDatabase class produced by reading in the market hours data found...">
<polygon fill="white" stroke="black" points="473,-359 473,-400 649,-400 649,-359 473,-359"/>
<text text-anchor="start" x="481" y="-388" font-family="Helvetica,sans-Serif" font-size="10.00">QuantConnect.Securities.</text>
<text text-anchor="start" x="481" y="-377" font-family="Helvetica,sans-Serif" font-size="10.00">MarketHoursDatabase.FromData</text>
<text text-anchor="middle" x="561" y="-366" font-family="Helvetica,sans-Serif" font-size="10.00">Folder</text>
</a>
</g>
</g>
<!-- Node3&#45;&gt;Node6 -->
<g id="edge5" class="edge">
<title>Node3&#45;&gt;Node6</title>
<path fill="none" stroke="midnightblue" d="M398.95,-317.09C407.85,-320.26 416.72,-323.74 425,-327.5 442.08,-335.25 443.89,-341.83 461,-349.5 465.64,-351.58 470.47,-353.57 475.39,-355.46"/>
<polygon fill="midnightblue" stroke="midnightblue" points="474.33,-358.8 484.92,-358.97 476.75,-352.23 474.33,-358.8"/>
</g>
<!-- Node9 -->
<g id="node9" class="node">
<title>Node9</title>
<g id="a_node9"><a xlink:href="classQuantConnect_1_1Time.html#a4ddb0f529e1af3d182ea19aaf12a4ae7" target="_top" xlink:title="Determines the start time required to produce the requested number of bars and the given size">
<polygon fill="white" stroke="black" points="482.5,-309.5 482.5,-339.5 639.5,-339.5 639.5,-309.5 482.5,-309.5"/>
<text text-anchor="start" x="490.5" y="-327.5" font-family="Helvetica,sans-Serif" font-size="10.00">QuantConnect.Time.GetStart</text>
<text text-anchor="middle" x="561" y="-316.5" font-family="Helvetica,sans-Serif" font-size="10.00">TimeForTradeBars</text>
</a>
</g>
</g>
<!-- Node3&#45;&gt;Node9 -->
<g id="edge8" class="edge">
<title>Node3&#45;&gt;Node9</title>
<path fill="none" stroke="midnightblue" d="M425.24,-308.37C440.87,-310.25 456.94,-312.17 472.29,-314"/>
<polygon fill="midnightblue" stroke="midnightblue" points="471.91,-317.48 482.26,-315.2 472.74,-310.53 471.91,-317.48"/>
</g>
<!-- Node13 -->
<g id="node13" class="node">
<title>Node13</title>
<g id="a_node13"><a xlink:href="classQuantConnect_1_1Lean_1_1Engine_1_1DataFeeds_1_1BacktestingChainProvider.html#a141131419936eb9482aab49e0664c8fc" target="_top" xlink:title="Helper method to determine if a contract is expired for the requested date">
<polygon fill="white" stroke="black" points="461,-249 461,-290 661,-290 661,-249 461,-249"/>
<text text-anchor="start" x="469" y="-278" font-family="Helvetica,sans-Serif" font-size="10.00">QuantConnect.Lean.Engine.</text>
<text text-anchor="start" x="469" y="-267" font-family="Helvetica,sans-Serif" font-size="10.00">DataFeeds.BacktestingChainProvider.</text>
<text text-anchor="middle" x="561" y="-256" font-family="Helvetica,sans-Serif" font-size="10.00">IsContractExpired</text>
</a>
</g>
</g>
<!-- Node3&#45;&gt;Node13 -->
<g id="edge12" class="edge">
<title>Node3&#45;&gt;Node13</title>
<path fill="none" stroke="midnightblue" d="M425.24,-285.05C433.74,-284.07 442.38,-283.07 450.95,-282.08"/>
<polygon fill="midnightblue" stroke="midnightblue" points="451.45,-285.55 460.98,-280.93 450.65,-278.59 451.45,-285.55"/>
</g>
<!-- Node14 -->
<g id="node14" class="node">
<title>Node14</title>
<g id="a_node14"><a xlink:href="classQuantConnect_1_1Util_1_1LeanData.html#a4b8de0cf279dc49a62d734fda97ed1ef" target="_top" xlink:title="Creates a symbol from the specified zip entry name">
<polygon fill="white" stroke="black" points="482,-172.5 482,-202.5 640,-202.5 640,-172.5 482,-172.5"/>
<text text-anchor="start" x="490" y="-190.5" font-family="Helvetica,sans-Serif" font-size="10.00">QuantConnect.Util.LeanData.</text>
<text text-anchor="middle" x="561" y="-179.5" font-family="Helvetica,sans-Serif" font-size="10.00">ReadSymbolFromZipEntry</text>
</a>
</g>
</g>
<!-- Node3&#45;&gt;Node14 -->
<g id="edge13" class="edge">
<title>Node3&#45;&gt;Node14</title>
<path fill="none" stroke="midnightblue" d="M370.01,-276C412.6,-256.16 476.67,-226.32 518.41,-206.87"/>
<polygon fill="midnightblue" stroke="midnightblue" points="519.9,-210.04 527.48,-202.65 516.94,-203.7 519.9,-210.04"/>
</g>
<!-- Node27 -->
<g id="node27" class="node">
<title>Node27</title>
<g id="a_node27"><a xlink:href="classQuantConnect_1_1Logging_1_1Log.html#a4e55477fbc790846b74550a57198cea9" target="_top" xlink:title="Log trace">
<polygon fill="white" stroke="black" points="486,-74.5 486,-104.5 636,-104.5 636,-74.5 486,-74.5"/>
<text text-anchor="start" x="494" y="-92.5" font-family="Helvetica,sans-Serif" font-size="10.00">QuantConnect.Logging.Log.</text>
<text text-anchor="middle" x="561" y="-81.5" font-family="Helvetica,sans-Serif" font-size="10.00">Trace</text>
</a>
</g>
</g>
<!-- Node3&#45;&gt;Node27 -->
<g id="edge28" class="edge">
<title>Node3&#45;&gt;Node27</title>
<path fill="none" stroke="midnightblue" d="M345.32,-275.79C370.82,-248.85 417.58,-200.81 461,-163.5 483.12,-144.49 509.65,-124.82 529.68,-110.53"/>
<polygon fill="midnightblue" stroke="midnightblue" points="531.97,-113.2 538.1,-104.57 527.92,-107.49 531.97,-113.2"/>
</g>
<!-- Node5 -->
<g id="node5" class="node">
<title>Node5</title>
<g id="a_node5"><a xlink:href="interfaceQuantConnect_1_1Logging_1_1ILogHandler.html#a2c738b8e78dd5b54244bc68b969ba91d" target="_top" xlink:title="Write debug message to log">
<polygon fill="white" stroke="black" points="707,-459.5 707,-489.5 857,-489.5 857,-459.5 707,-459.5"/>
<text text-anchor="start" x="715" y="-477.5" font-family="Helvetica,sans-Serif" font-size="10.00">QuantConnect.Logging.ILog</text>
<text text-anchor="middle" x="782" y="-466.5" font-family="Helvetica,sans-Serif" font-size="10.00">Handler.Debug</text>
</a>
</g>
</g>
<!-- Node4&#45;&gt;Node5 -->
<g id="edge4" class="edge">
<title>Node4&#45;&gt;Node5</title>
<path fill="none" stroke="midnightblue" d="M636.14,-461.93C655.68,-463.63 676.89,-465.47 696.9,-467.2"/>
<polygon fill="midnightblue" stroke="midnightblue" points="696.67,-470.7 706.93,-468.07 697.27,-463.72 696.67,-470.7"/>
</g>
<!-- Node7 -->
<g id="node7" class="node">
<title>Node7</title>
<g id="a_node7"><a xlink:href="classQuantConnect_1_1Securities_1_1MarketHoursDatabase.html#a6fdcc5f6d09cc11743e258e570d0a9eb" target="_top" xlink:title="Reads the specified file as a market hours database instance">
<polygon fill="white" stroke="black" points="697,-410.5 697,-440.5 867,-440.5 867,-410.5 697,-410.5"/>
<text text-anchor="start" x="705" y="-428.5" font-family="Helvetica,sans-Serif" font-size="10.00">QuantConnect.Securities.</text>
<text text-anchor="middle" x="782" y="-417.5" font-family="Helvetica,sans-Serif" font-size="10.00">MarketHoursDatabase.FromFile</text>
</a>
</g>
</g>
<!-- Node6&#45;&gt;Node7 -->
<g id="edge6" class="edge">
<title>Node6&#45;&gt;Node7</title>
<path fill="none" stroke="midnightblue" d="M649.18,-397.81C665.78,-401.3 683.09,-404.93 699.5,-408.38"/>
<polygon fill="midnightblue" stroke="midnightblue" points="699.08,-411.87 709.58,-410.5 700.52,-405.02 699.08,-411.87"/>
</g>
<!-- Node8 -->
<g id="node8" class="node">
<title>Node8</title>
<g id="a_node8"><a xlink:href="classQuantConnect_1_1Globals.html#ae01b5c94ef475a21ab1a62fe1b04ea5c" target="_top" xlink:title="Helper method that will build a data folder path checking if it exists on the cache folder else will ...">
<polygon fill="white" stroke="black" points="709,-361.5 709,-391.5 855,-391.5 855,-361.5 709,-361.5"/>
<text text-anchor="start" x="717" y="-379.5" font-family="Helvetica,sans-Serif" font-size="10.00">QuantConnect.Globals.Get</text>
<text text-anchor="middle" x="782" y="-368.5" font-family="Helvetica,sans-Serif" font-size="10.00">DataFolderPath</text>
</a>
</g>
</g>
<!-- Node6&#45;&gt;Node8 -->
<g id="edge7" class="edge">
<title>Node6&#45;&gt;Node8</title>
<path fill="none" stroke="midnightblue" d="M649.18,-378.31C665.43,-378.08 682.35,-377.85 698.45,-377.63"/>
<polygon fill="midnightblue" stroke="midnightblue" points="698.94,-381.12 708.9,-377.49 698.85,-374.13 698.94,-381.12"/>
</g>
<!-- Node10 -->
<g id="node10" class="node">
<title>Node10</title>
<g id="a_node10"><a xlink:href="classQuantConnect_1_1Securities_1_1SecurityExchangeHours.html#af2deedeacdcb6bbe40f4874002cdbac3" target="_top" xlink:title="Determines if the exchange is open at the specified local date time.">
<polygon fill="white" stroke="black" points="697.5,-312.5 697.5,-342.5 866.5,-342.5 866.5,-312.5 697.5,-312.5"/>
<text text-anchor="start" x="705.5" y="-330.5" font-family="Helvetica,sans-Serif" font-size="10.00">QuantConnect.Securities.</text>
<text text-anchor="middle" x="782" y="-319.5" font-family="Helvetica,sans-Serif" font-size="10.00">SecurityExchangeHours.IsOpen</text>
</a>
</g>
</g>
<!-- Node9&#45;&gt;Node10 -->
<g id="edge9" class="edge">
<title>Node9&#45;&gt;Node10</title>
<path fill="none" stroke="midnightblue" d="M639.52,-325.56C654.86,-325.77 671.12,-325.99 686.94,-326.21"/>
<polygon fill="midnightblue" stroke="midnightblue" points="687.22,-329.72 697.26,-326.35 687.31,-322.72 687.22,-329.72"/>
</g>
<!-- Node11 -->
<g id="node11" class="node">
<title>Node11</title>
<g id="a_node11"><a xlink:href="classQuantConnect_1_1Securities_1_1SecurityExchangeHours.html#a106e2dd187ab76452e14ac6a28f929aa" target="_top" xlink:title="Helper to access the market hours field based on the day of week">
<polygon fill="white" stroke="black" points="903,-377.5 903,-407.5 1118,-407.5 1118,-377.5 903,-377.5"/>
<text text-anchor="start" x="911" y="-395.5" font-family="Helvetica,sans-Serif" font-size="10.00">QuantConnect.Securities.</text>
<text text-anchor="middle" x="1010.5" y="-384.5" font-family="Helvetica,sans-Serif" font-size="10.00">SecurityExchangeHours.GetMarketHours</text>
</a>
</g>
</g>
<!-- Node10&#45;&gt;Node11 -->
<g id="edge10" class="edge">
<title>Node10&#45;&gt;Node11</title>
<path fill="none" stroke="midnightblue" d="M837.56,-342.62C847.43,-345.67 857.58,-349.02 867,-352.5 883.42,-358.57 886.38,-362.99 903,-368.5 909.86,-370.77 917.05,-372.9 924.31,-374.88"/>
<polygon fill="midnightblue" stroke="midnightblue" points="923.66,-378.33 934.22,-377.48 925.44,-371.56 923.66,-378.33"/>
</g>
<!-- Node12 -->
<g id="node12" class="node">
<title>Node12</title>
<g id="a_node12"><a xlink:href="classQuantConnect_1_1Securities_1_1LocalMarketHours.html#a97e5d374a28d55f3ebee72c328a0810f" target="_top" xlink:title="Determines if the exchange is open at the specified time">
<polygon fill="white" stroke="black" points="940,-328.5 940,-358.5 1081,-358.5 1081,-328.5 940,-328.5"/>
<text text-anchor="start" x="948" y="-346.5" font-family="Helvetica,sans-Serif" font-size="10.00">QuantConnect.Securities.</text>
<text text-anchor="middle" x="1010.5" y="-335.5" font-family="Helvetica,sans-Serif" font-size="10.00">LocalMarketHours.IsOpen</text>
</a>
</g>
</g>
<!-- Node10&#45;&gt;Node12 -->
<g id="edge11" class="edge">
<title>Node10&#45;&gt;Node12</title>
<path fill="none" stroke="midnightblue" d="M866.7,-333.41C887.29,-334.87 909.28,-336.42 929.68,-337.86"/>
<polygon fill="midnightblue" stroke="midnightblue" points="929.65,-341.37 939.87,-338.58 930.14,-334.39 929.65,-341.37"/>
</g>
<!-- Node15 -->
<g id="node15" class="node">
<title>Node15</title>
<g id="a_node15"><a xlink:href="classQuantConnect_1_1Symbol.html#a484f4a4845d55c491201a7998f0d6ec4" target="_top" xlink:title="Provides a convenience method for creating a future Symbol.">
<polygon fill="white" stroke="black" points="701.5,-246.5 701.5,-276.5 862.5,-276.5 862.5,-246.5 701.5,-246.5"/>
<text text-anchor="start" x="709.5" y="-264.5" font-family="Helvetica,sans-Serif" font-size="10.00">QuantConnect.Symbol.Create</text>
<text text-anchor="middle" x="782" y="-253.5" font-family="Helvetica,sans-Serif" font-size="10.00">Future</text>
</a>
</g>
</g>
<!-- Node14&#45;&gt;Node15 -->
<g id="edge14" class="edge">
<title>Node14&#45;&gt;Node15</title>
<path fill="none" stroke="midnightblue" d="M600.13,-202.51C627.02,-212.88 663.98,-226.69 697,-237.5 703.29,-239.56 709.89,-241.62 716.49,-243.61"/>
<polygon fill="midnightblue" stroke="midnightblue" points="715.56,-246.99 726.14,-246.48 717.55,-240.28 715.56,-246.99"/>
</g>
<!-- Node22 -->
<g id="node22" class="node">
<title>Node22</title>
<g id="a_node22"><a xlink:href="classQuantConnect_1_1Symbol.html#a7518a1932d1babbff128f2ba9666a78b" target="_top" xlink:title="Provides a convenience method for creating an option Symbol.">
<polygon fill="white" stroke="black" points="701.5,-197.5 701.5,-227.5 862.5,-227.5 862.5,-197.5 701.5,-197.5"/>
<text text-anchor="start" x="709.5" y="-215.5" font-family="Helvetica,sans-Serif" font-size="10.00">QuantConnect.Symbol.Create</text>
<text text-anchor="middle" x="782" y="-204.5" font-family="Helvetica,sans-Serif" font-size="10.00">Option</text>
</a>
</g>
</g>
<!-- Node14&#45;&gt;Node22 -->
<g id="edge22" class="edge">
<title>Node14&#45;&gt;Node22</title>
<path fill="none" stroke="midnightblue" d="M640.14,-196.42C656.62,-198.3 674.13,-200.3 691.01,-202.23"/>
<polygon fill="midnightblue" stroke="midnightblue" points="691.08,-205.76 701.42,-203.42 691.88,-198.8 691.08,-205.76"/>
</g>
<!-- Node24 -->
<g id="node24" class="node">
<title>Node24</title>
<g id="a_node24"><a xlink:href="classQuantConnect_1_1Parse.html#a059d312ae5ffeb051e50a1464236116c" target="_top" xlink:title="Parses the provided value as a System.DateTime using System.DateTime.ParseExact(string,...">
<polygon fill="white" stroke="black" points="699,-148.5 699,-178.5 865,-178.5 865,-148.5 699,-148.5"/>
<text text-anchor="start" x="707" y="-166.5" font-family="Helvetica,sans-Serif" font-size="10.00">QuantConnect.Parse.DateTime</text>
<text text-anchor="middle" x="782" y="-155.5" font-family="Helvetica,sans-Serif" font-size="10.00">Exact</text>
</a>
</g>
</g>
<!-- Node14&#45;&gt;Node24 -->
<g id="edge25" class="edge">
<title>Node14&#45;&gt;Node24</title>
<path fill="none" stroke="midnightblue" d="M640.14,-178.94C655.9,-177.21 672.62,-175.38 688.82,-173.6"/>
<polygon fill="midnightblue" stroke="midnightblue" points="689.26,-177.07 698.82,-172.51 688.5,-170.12 689.26,-177.07"/>
</g>
<!-- Node25 -->
<g id="node25" class="node">
<title>Node25</title>
<g id="a_node25"><a xlink:href="classQuantConnect_1_1Parse.html#aac0a89458d90280d2b3b04afa9e197a2" target="_top" xlink:title="Parses the provided value as a decimal using CultureInfo.InvariantCulture">
<polygon fill="white" stroke="black" points="703,-110 703,-129 861,-129 861,-110 703,-110"/>
<text text-anchor="middle" x="782" y="-117" font-family="Helvetica,sans-Serif" font-size="10.00">QuantConnect.Parse.Decimal</text>
</a>
</g>
</g>
<!-- Node14&#45;&gt;Node25 -->
<g id="edge26" class="edge">
<title>Node14&#45;&gt;Node25</title>
<path fill="none" stroke="midnightblue" d="M599.4,-172.49C626.27,-162.06 663.5,-148.32 697,-138.5 705.75,-135.93 715.09,-133.51 724.25,-131.31"/>
<polygon fill="midnightblue" stroke="midnightblue" points="725.14,-134.7 734.08,-129.02 723.54,-127.88 725.14,-134.7"/>
</g>
<!-- Node26 -->
<g id="node26" class="node">
<title>Node26</title>
<g id="a_node26"><a xlink:href="classQuantConnect_1_1Securities_1_1Future_1_1FuturesExpiryFunctions.html#a0d6bb7f1fd71689f70b115ccb0f470e0" target="_top" xlink:title="Method to retrieve the Function for a specific future symbol">
<polygon fill="white" stroke="black" points="698.5,-50 698.5,-91 865.5,-91 865.5,-50 698.5,-50"/>
<text text-anchor="start" x="706.5" y="-79" font-family="Helvetica,sans-Serif" font-size="10.00">QuantConnect.Securities.</text>
<text text-anchor="start" x="706.5" y="-68" font-family="Helvetica,sans-Serif" font-size="10.00">Future.FuturesExpiryFunctions.</text>
<text text-anchor="middle" x="782" y="-57" font-family="Helvetica,sans-Serif" font-size="10.00">FuturesExpiryFunction</text>
</a>
</g>
</g>
<!-- Node14&#45;&gt;Node26 -->
<g id="edge27" class="edge">
<title>Node14&#45;&gt;Node26</title>
<path fill="none" stroke="midnightblue" d="M582.17,-172.39C607.83,-153.68 653.98,-121.69 697,-100.5 700.83,-98.61 704.81,-96.79 708.86,-95.03"/>
<polygon fill="midnightblue" stroke="midnightblue" points="710.52,-98.12 718.41,-91.05 707.83,-91.66 710.52,-98.12"/>
</g>
<!-- Node16 -->
<g id="node16" class="node">
<title>Node16</title>
<g id="a_node16"><a xlink:href="classQuantConnect_1_1SecurityIdentifier.html#ad50a891c97cb0c084a9e2aa43607ed66" target="_top" xlink:title="Generates a new SecurityIdentifier for a future">
<polygon fill="white" stroke="black" points="923.5,-279.5 923.5,-309.5 1097.5,-309.5 1097.5,-279.5 923.5,-279.5"/>
<text text-anchor="start" x="931.5" y="-297.5" font-family="Helvetica,sans-Serif" font-size="10.00">QuantConnect.SecurityIdentifier.</text>
<text text-anchor="middle" x="1010.5" y="-286.5" font-family="Helvetica,sans-Serif" font-size="10.00">GenerateFuture</text>
</a>
</g>
</g>
<!-- Node15&#45;&gt;Node16 -->
<g id="edge15" class="edge">
<title>Node15&#45;&gt;Node16</title>
<path fill="none" stroke="midnightblue" d="M862.54,-273.09C878.79,-275.46 896.07,-277.97 912.85,-280.42"/>
<polygon fill="midnightblue" stroke="midnightblue" points="912.82,-283.95 923.22,-281.93 913.83,-277.02 912.82,-283.95"/>
</g>
<!-- Node17 -->
<g id="node17" class="node">
<title>Node17</title>
<g id="a_node17"><a xlink:href="classQuantConnect_1_1Symbol.html#a59b0795fa21f46c306deb5576fa03bb9" target="_top" xlink:title="Centralized helper method to resolve alias for a symbol">
<polygon fill="white" stroke="black" points="1154,-222 1154,-241 1324,-241 1324,-222 1154,-222"/>
<text text-anchor="middle" x="1239" y="-229" font-family="Helvetica,sans-Serif" font-size="10.00">QuantConnect.Symbol.GetAlias</text>
</a>
</g>
</g>
<!-- Node15&#45;&gt;Node17 -->
<g id="edge16" class="edge">
<title>Node15&#45;&gt;Node17</title>
<path fill="none" stroke="midnightblue" d="M862.52,-256.26C940.89,-251.09 1060.66,-243.19 1143.77,-237.71"/>
<polygon fill="midnightblue" stroke="midnightblue" points="1144.23,-241.19 1153.97,-237.04 1143.77,-234.21 1144.23,-241.19"/>
</g>
<!-- Node21 -->
<g id="node21" class="node">
<title>Node21</title>
<g id="a_node21"><a xlink:href="classQuantConnect_1_1Symbol.html#a59158f74116be3dad0ea0f3f3f134416" target="_top" xlink:title="Initializes a new instance of the Symbol class">
<polygon fill="white" stroke="black" points="928,-203 928,-222 1093,-222 1093,-203 928,-203"/>
<text text-anchor="middle" x="1010.5" y="-210" font-family="Helvetica,sans-Serif" font-size="10.00">QuantConnect.Symbol.Symbol</text>
</a>
</g>
</g>
<!-- Node15&#45;&gt;Node21 -->
<g id="edge20" class="edge">
<title>Node15&#45;&gt;Node21</title>
<path fill="none" stroke="midnightblue" d="M852.5,-246.47C885.56,-239.31 924.5,-230.89 955.33,-224.22"/>
<polygon fill="midnightblue" stroke="midnightblue" points="956.42,-227.56 965.46,-222.03 954.94,-220.72 956.42,-227.56"/>
</g>
<!-- Node18 -->
<g id="node18" class="node">
<title>Node18</title>
<g id="a_node18"><a xlink:href="classQuantConnect_1_1SymbolRepresentation.html#ad43ac907f6c19083821f58f21c6de017" target="_top" xlink:title="Returns future symbol ticker from underlying and expiration date. Function can generate tickers of tw...">
<polygon fill="white" stroke="black" points="1360,-241.5 1360,-271.5 1563,-271.5 1563,-241.5 1360,-241.5"/>
<text text-anchor="start" x="1368" y="-259.5" font-family="Helvetica,sans-Serif" font-size="10.00">QuantConnect.SymbolRepresentation.</text>
<text text-anchor="middle" x="1461.5" y="-248.5" font-family="Helvetica,sans-Serif" font-size="10.00">GenerateFutureTicker</text>
</a>
</g>
</g>
<!-- Node17&#45;&gt;Node18 -->
<g id="edge17" class="edge">
<title>Node17&#45;&gt;Node18</title>
<path fill="none" stroke="midnightblue" d="M1323.99,-241.02C1332.39,-241.97 1341,-242.95 1349.62,-243.93"/>
<polygon fill="midnightblue" stroke="midnightblue" points="1349.4,-247.43 1359.73,-245.07 1350.19,-240.47 1349.4,-247.43"/>
</g>
<!-- Node20 -->
<g id="node20" class="node">
<title>Node20</title>
<g id="a_node20"><a xlink:href="classQuantConnect_1_1SymbolRepresentation.html#ab133044f5cf8c16e700190a2202b215e" target="_top" xlink:title="Returns option symbol ticker in accordance with OSI symbology More information can be found at http:/...">
<polygon fill="white" stroke="black" points="1360,-192.5 1360,-222.5 1563,-222.5 1563,-192.5 1360,-192.5"/>
<text text-anchor="start" x="1368" y="-210.5" font-family="Helvetica,sans-Serif" font-size="10.00">QuantConnect.SymbolRepresentation.</text>
<text text-anchor="middle" x="1461.5" y="-199.5" font-family="Helvetica,sans-Serif" font-size="10.00">GenerateOptionTickerOSI</text>
</a>
</g>
</g>
<!-- Node17&#45;&gt;Node20 -->
<g id="edge19" class="edge">
<title>Node17&#45;&gt;Node20</title>
<path fill="none" stroke="midnightblue" d="M1324.31,-222.32C1332.69,-221.41 1341.3,-220.47 1349.9,-219.54"/>
<polygon fill="midnightblue" stroke="midnightblue" points="1350.43,-223 1359.99,-218.44 1349.67,-216.04 1350.43,-223"/>
</g>
<!-- Node19 -->
<g id="node19" class="node">
<title>Node19</title>
<g id="a_node19"><a xlink:href="classQuantConnect_1_1Securities_1_1Future_1_1FuturesExpiryUtilityFunctions.html#a4ccb1e2f2fe40ff09785a74a02f26df1" target="_top" xlink:title="Gets the number of months between the contract month and the expiry date.">
<polygon fill="white" stroke="black" points="1599,-236 1599,-277 1865,-277 1865,-236 1599,-236"/>
<text text-anchor="start" x="1607" y="-265" font-family="Helvetica,sans-Serif" font-size="10.00">QuantConnect.Securities.</text>
<text text-anchor="start" x="1607" y="-254" font-family="Helvetica,sans-Serif" font-size="10.00">Future.FuturesExpiryUtilityFunctions.</text>
<text text-anchor="middle" x="1732" y="-243" font-family="Helvetica,sans-Serif" font-size="10.00">GetDeltaBetweenContractMonthAndContractExpiry</text>
</a>
</g>
</g>
<!-- Node18&#45;&gt;Node19 -->
<g id="edge18" class="edge">
<title>Node18&#45;&gt;Node19</title>
<path fill="none" stroke="midnightblue" d="M1563.24,-256.5C1571.59,-256.5 1580.11,-256.5 1588.68,-256.5"/>
<polygon fill="midnightblue" stroke="midnightblue" points="1588.76,-260 1598.76,-256.5 1588.76,-253 1588.76,-260"/>
</g>
<!-- Node21&#45;&gt;Node17 -->
<g id="edge21" class="edge">
<title>Node21&#45;&gt;Node17</title>
<path fill="none" stroke="midnightblue" d="M1093.27,-219.36C1109.54,-220.72 1126.74,-222.17 1143.4,-223.56"/>
<polygon fill="midnightblue" stroke="midnightblue" points="1143.42,-227.08 1153.68,-224.43 1144.01,-220.1 1143.42,-227.08"/>
</g>
<!-- Node22&#45;&gt;Node21 -->
<g id="edge24" class="edge">
<title>Node22&#45;&gt;Node21</title>
<path fill="none" stroke="midnightblue" d="M862.54,-212.5C880.39,-212.5 899.47,-212.5 917.78,-212.5"/>
<polygon fill="midnightblue" stroke="midnightblue" points="917.85,-216 927.85,-212.5 917.85,-209 917.85,-216"/>
</g>
<!-- Node23 -->
<g id="node23" class="node">
<title>Node23</title>
<g id="a_node23"><a xlink:href="classQuantConnect_1_1SecurityIdentifier.html#a0c21d7880c9fdd260883d11ea0c99a00" target="_top" xlink:title="Helper overload that will search the mapfiles to resolve the first date. This implementation uses the...">
<polygon fill="white" stroke="black" points="923.5,-153.5 923.5,-183.5 1097.5,-183.5 1097.5,-153.5 923.5,-153.5"/>
<text text-anchor="start" x="931.5" y="-171.5" font-family="Helvetica,sans-Serif" font-size="10.00">QuantConnect.SecurityIdentifier.</text>
<text text-anchor="middle" x="1010.5" y="-160.5" font-family="Helvetica,sans-Serif" font-size="10.00">GenerateEquity</text>
</a>
</g>
</g>
<!-- Node22&#45;&gt;Node23 -->
<g id="edge23" class="edge">
<title>Node22&#45;&gt;Node23</title>
<path fill="none" stroke="midnightblue" d="M860.31,-197.48C880.25,-193.61 901.84,-189.41 922.24,-185.45"/>
<polygon fill="midnightblue" stroke="midnightblue" points="923,-188.87 932.15,-183.53 921.67,-182 923,-188.87"/>
</g>
<!-- Node28 -->
<g id="node28" class="node">
<title>Node28</title>
<g id="a_node28"><a xlink:href="interfaceQuantConnect_1_1Logging_1_1ILogHandler.html#a3fb71a33ac66129240b63f12b6fcda3b" target="_top" xlink:title="Write debug message to log">
<polygon fill="white" stroke="black" points="707,-0.5 707,-30.5 857,-30.5 857,-0.5 707,-0.5"/>
<text text-anchor="start" x="715" y="-18.5" font-family="Helvetica,sans-Serif" font-size="10.00">QuantConnect.Logging.ILog</text>
<text text-anchor="middle" x="782" y="-7.5" font-family="Helvetica,sans-Serif" font-size="10.00">Handler.Trace</text>
</a>
</g>
</g>
<!-- Node27&#45;&gt;Node28 -->
<g id="edge29" class="edge">
<title>Node27&#45;&gt;Node28</title>
<path fill="none" stroke="midnightblue" d="M601.66,-74.41C628.44,-64.39 664.68,-51.16 697,-40.5 703.95,-38.21 711.26,-35.89 718.54,-33.64"/>
<polygon fill="midnightblue" stroke="midnightblue" points="719.88,-36.89 728.42,-30.63 717.84,-30.2 719.88,-36.89"/>
</g>
</g>
</svg>
        <g id="navigator" transform="translate(0 0)" fill="#404254">
                <rect fill="#f2f5e9" fill-opacity="0.5" stroke="#606060" stroke-width=".5" x="0" y="0" width="60" height="60"/>
                <use id="zoomplus" xlink:href="#zoomPlus" x="17" y="9" onmousedown="handleZoom(evt,'in')"/>
                <use id="zoomminus" xlink:href="#zoomMin" x="42" y="9" onmousedown="handleZoom(evt,'out')"/>
                <use id="reset" xlink:href="#resetDef" x="30" y="36" onmousedown="handleReset()"/>
                <g id="arrowUp" xlink:href="#dirArrow" transform="translate(30 24)" onmousedown="handlePan(0,-1)">
                  <use xlink:href="#rim" fill="#404040">
                        <set attributeName="fill" to="#808080" begin="arrowUp.mouseover" end="arrowUp.mouseout"/>
                  </use>
                  <path fill="none" stroke="white" stroke-width="1.5" d="M0,-3.0v7 M-2.5,-0.5L0,-3.0L2.5,-0.5"/>
                </g>
                <g id="arrowRight" xlink:href="#dirArrow" transform="rotate(90) translate(36 -43)" onmousedown="handlePan(1,0)">
                  <use xlink:href="#rim" fill="#404040">
                        <set attributeName="fill" to="#808080" begin="arrowRight.mouseover" end="arrowRight.mouseout"/>
                  </use>
                  <path fill="none" stroke="white" stroke-width="1.5" d="M0,-3.0v7 M-2.5,-0.5L0,-3.0L2.5,-0.5"/>
                </g>
                <g id="arrowDown" xlink:href="#dirArrow" transform="rotate(180) translate(-30 -48)" onmousedown="handlePan(0,1)">
                  <use xlink:href="#rim" fill="#404040">
                        <set attributeName="fill" to="#808080" begin="arrowDown.mouseover" end="arrowDown.mouseout"/>
                  </use>
                  <path fill="none" stroke="white" stroke-width="1.5" d="M0,-3.0v7 M-2.5,-0.5L0,-3.0L2.5,-0.5"/>
                </g>
                <g id="arrowLeft" xlink:href="#dirArrow" transform="rotate(270) translate(-36 17)" onmousedown="handlePan(-1,0)">
                  <use xlink:href="#rim" fill="#404040">
                        <set attributeName="fill" to="#808080" begin="arrowLeft.mouseover" end="arrowLeft.mouseout"/>
                  </use>
                  <path fill="none" stroke="white" stroke-width="1.5" d="M0,-3.0v7 M-2.5,-0.5L0,-3.0L2.5,-0.5"/>
                </g>
        </g>
        <svg viewBox="0 0 15 15" width="100%" height="30px" preserveAspectRatio="xMaxYMin meet">
         <g id="arrow_out" transform="scale(0.3 0.3)">
          <a xlink:href="classQuantConnect_1_1Lean_1_1Engine_1_1DataFeeds_1_1BacktestingOptionChainProvider_a5b140615fad8e3c0f8d08597a7ca1509_cgraph_org.svg" target="_base">
           <rect id="button" ry="5" rx="5" y="6" x="6" height="38" width="38"
                fill="#f2f5e9" fill-opacity="0.5" stroke="#606060" stroke-width="1.0"/>
           <path id="arrow"
             d="M 11.500037,31.436501 C 11.940474,20.09759 22.043105,11.32322 32.158766,21.979434 L 37.068811,17.246167 C 37.068811,17.246167 37.088388,32 37.088388,32 L 22.160133,31.978069 C 22.160133,31.978069 26.997745,27.140456 26.997745,27.140456 C 18.528582,18.264221 13.291696,25.230495 11.500037,31.436501 z"
             style="fill:#404040;"/>
          </a>
         </g>
        </svg>
</svg>
