<?xml version="1.0" encoding="UTF-8" standalone="no"?>
<!DOCTYPE svg PUBLIC "-//W3C//DTD SVG 1.1//EN"
 "http://www.w3.org/Graphics/SVG/1.1/DTD/svg11.dtd">
<!-- Generated by graphviz version 2.43.0 (0)
 -->
<!-- Title: QuantConnect.Algorithm.QCAlgorithm.CompositeFIGI Pages: 1 -->
<svg width="434pt" height="50pt"
 viewBox="0.00 0.00 434.00 50.00" xmlns="http://www.w3.org/2000/svg" xmlns:xlink="http://www.w3.org/1999/xlink">
<g id="graph0" class="graph" transform="scale(1 1) rotate(0) translate(4 46)">
<title>QuantConnect.Algorithm.QCAlgorithm.CompositeFIGI</title>
<polygon fill="white" stroke="transparent" points="-4,4 -4,-46 430,-46 430,4 -4,4"/>
<!-- Node1 -->
<g id="node1" class="node">
<title>Node1</title>
<g id="a_node1"><a xlink:title="Converts a composite FIGI identifier into a Symbol">
<polygon fill="#bfbfbf" stroke="black" points="0,-6 0,-36 205,-36 205,-6 0,-6"/>
<text text-anchor="start" x="8" y="-24" font-family="Helvetica,sans-Serif" font-size="10.00">QuantConnect.Algorithm.QCAlgorithm.</text>
<text text-anchor="middle" x="102.5" y="-13" font-family="Helvetica,sans-Serif" font-size="10.00">CompositeFIGI</text>
</a>
</g>
</g>
<!-- Node2 -->
<g id="node2" class="node">
<title>Node2</title>
<g id="a_node2"><a xlink:href="classQuantConnect_1_1Securities_1_1SecurityDefinitionSymbolResolver.html#af7ef699c51a49b420b4a7b2f4214dd65" target="_top" xlink:title="Converts an asset&#39;s composite FIGI into a Lean Symbol">
<polygon fill="white" stroke="black" points="241,-0.5 241,-41.5 426,-41.5 426,-0.5 241,-0.5"/>
<text text-anchor="start" x="249" y="-29.5" font-family="Helvetica,sans-Serif" font-size="10.00">QuantConnect.Securities.</text>
<text text-anchor="start" x="249" y="-18.5" font-family="Helvetica,sans-Serif" font-size="10.00">SecurityDefinitionSymbolResolver.</text>
<text text-anchor="middle" x="333.5" y="-7.5" font-family="Helvetica,sans-Serif" font-size="10.00">CompositeFIGI</text>
</a>
</g>
</g>
<!-- Node1&#45;&gt;Node2 -->
<g id="edge1" class="edge">
<title>Node1&#45;&gt;Node2</title>
<path fill="none" stroke="midnightblue" d="M205.28,-21C213.68,-21 222.18,-21 230.59,-21"/>
<polygon fill="midnightblue" stroke="midnightblue" points="230.79,-24.5 240.79,-21 230.79,-17.5 230.79,-24.5"/>
</g>
</g>
</svg>
