<?xml version="1.0" encoding="UTF-8" standalone="no"?>
<!DOCTYPE svg PUBLIC "-//W3C//DTD SVG 1.1//EN"
 "http://www.w3.org/Graphics/SVG/1.1/DTD/svg11.dtd">
<!-- Generated by graphviz version 2.43.0 (0)
 -->
<!-- Title: QuantConnect.Lean.Engine.DataFeeds.Enumerators.LiveMappingEventProvider.GetEvents Pages: 1 -->
<svg width="635pt" height="100pt"
 viewBox="0.00 0.00 635.00 99.50" xmlns="http://www.w3.org/2000/svg" xmlns:xlink="http://www.w3.org/1999/xlink">
<g id="graph0" class="graph" transform="scale(1 1) rotate(0) translate(4 95.5)">
<title>QuantConnect.Lean.Engine.DataFeeds.Enumerators.LiveMappingEventProvider.GetEvents</title>
<polygon fill="white" stroke="transparent" points="-4,4 -4,-95.5 631,-95.5 631,4 -4,4"/>
<!-- Node1 -->
<g id="node1" class="node">
<title>Node1</title>
<g id="a_node1"><a xlink:title="Check for new mappings">
<polygon fill="#bfbfbf" stroke="black" points="0,-22 0,-63 199,-63 199,-22 0,-22"/>
<text text-anchor="start" x="8" y="-51" font-family="Helvetica,sans-Serif" font-size="10.00">QuantConnect.Lean.Engine.</text>
<text text-anchor="start" x="8" y="-40" font-family="Helvetica,sans-Serif" font-size="10.00">DataFeeds.Enumerators.LiveMapping</text>
<text text-anchor="middle" x="99.5" y="-29" font-family="Helvetica,sans-Serif" font-size="10.00">EventProvider.GetEvents</text>
</a>
</g>
</g>
<!-- Node2 -->
<g id="node2" class="node">
<title>Node2</title>
<g id="a_node2"><a xlink:href="classQuantConnect_1_1Lean_1_1Engine_1_1DataFeeds_1_1Enumerators_1_1MappingEventProvider.html#ab68c8d755608d4f64f61e159aaea6fbb" target="_top" xlink:title="Initializes the map file to use">
<polygon fill="white" stroke="black" points="235,-50 235,-91 441,-91 441,-50 235,-50"/>
<text text-anchor="start" x="243" y="-79" font-family="Helvetica,sans-Serif" font-size="10.00">QuantConnect.Lean.Engine.</text>
<text text-anchor="start" x="243" y="-68" font-family="Helvetica,sans-Serif" font-size="10.00">DataFeeds.Enumerators.MappingEvent</text>
<text text-anchor="middle" x="338" y="-57" font-family="Helvetica,sans-Serif" font-size="10.00">Provider.InitializeMapFile</text>
</a>
</g>
</g>
<!-- Node1&#45;&gt;Node2 -->
<g id="edge1" class="edge">
<title>Node1&#45;&gt;Node2</title>
<path fill="none" stroke="midnightblue" d="M199.08,-54.17C207.56,-55.17 216.17,-56.19 224.74,-57.21"/>
<polygon fill="midnightblue" stroke="midnightblue" points="224.42,-60.7 234.76,-58.4 225.25,-53.74 224.42,-60.7"/>
</g>
<!-- Node3 -->
<g id="node3" class="node">
<title>Node3</title>
<g id="a_node3"><a xlink:href="classQuantConnect_1_1Logging_1_1Log.html#a4e55477fbc790846b74550a57198cea9" target="_top" xlink:title="Log trace">
<polygon fill="white" stroke="black" points="263,-0.5 263,-30.5 413,-30.5 413,-0.5 263,-0.5"/>
<text text-anchor="start" x="271" y="-18.5" font-family="Helvetica,sans-Serif" font-size="10.00">QuantConnect.Logging.Log.</text>
<text text-anchor="middle" x="338" y="-7.5" font-family="Helvetica,sans-Serif" font-size="10.00">Trace</text>
</a>
</g>
</g>
<!-- Node1&#45;&gt;Node3 -->
<g id="edge2" class="edge">
<title>Node1&#45;&gt;Node3</title>
<path fill="none" stroke="midnightblue" d="M199.08,-31.25C216.88,-29.21 235.3,-27.11 252.64,-25.13"/>
<polygon fill="midnightblue" stroke="midnightblue" points="253.18,-28.59 262.72,-23.98 252.39,-21.64 253.18,-28.59"/>
</g>
<!-- Node4 -->
<g id="node4" class="node">
<title>Node4</title>
<g id="a_node4"><a xlink:href="interfaceQuantConnect_1_1Logging_1_1ILogHandler.html#a3fb71a33ac66129240b63f12b6fcda3b" target="_top" xlink:title="Write debug message to log">
<polygon fill="white" stroke="black" points="477,-0.5 477,-30.5 627,-30.5 627,-0.5 477,-0.5"/>
<text text-anchor="start" x="485" y="-18.5" font-family="Helvetica,sans-Serif" font-size="10.00">QuantConnect.Logging.ILog</text>
<text text-anchor="middle" x="552" y="-7.5" font-family="Helvetica,sans-Serif" font-size="10.00">Handler.Trace</text>
</a>
</g>
</g>
<!-- Node3&#45;&gt;Node4 -->
<g id="edge3" class="edge">
<title>Node3&#45;&gt;Node4</title>
<path fill="none" stroke="midnightblue" d="M413.15,-15.5C430.42,-15.5 448.93,-15.5 466.6,-15.5"/>
<polygon fill="midnightblue" stroke="midnightblue" points="466.89,-19 476.89,-15.5 466.89,-12 466.89,-19"/>
</g>
</g>
</svg>
