<?xml version="1.0" encoding="UTF-8" standalone="no"?>
<!DOCTYPE svg PUBLIC "-//W3C//DTD SVG 1.1//EN"
 "http://www.w3.org/Graphics/SVG/1.1/DTD/svg11.dtd">
<!-- Generated by graphviz version 2.43.0 (0)
 -->
<!-- Title: QuantConnect.Lean.Engine.DataFeeds.SubscriptionDataReader.Initialize Pages: 1 -->
<!--zoomable 404 -->
<svg id="main" version="1.1" xmlns="http://www.w3.org/2000/svg" xmlns:xlink="http://www.w3.org/1999/xlink" xml:space="preserve" onload="init(evt)">
<style type="text/css"><![CDATA[
.edge:hover path { stroke: red; }
.edge:hover polygon { stroke: red; fill: red; }
]]></style>
<script type="text/javascript"><![CDATA[
var edges = document.getElementsByTagName('g');
if (edges && edges.length) {
  for (var i=0;i<edges.length;i++) {
    if (edges[i].id.substr(0,4)=='edge') {
      edges[i].setAttribute('class','edge');
    }
  }
}
]]></script>
        <defs>
                <circle id="rim" cx="0" cy="0" r="7"/>
                <circle id="rim2" cx="0" cy="0" r="3.5"/>
                <g id="zoomPlus">
                        <use xlink:href="#rim" fill="#404040">
                                <set attributeName="fill" to="#808080" begin="zoomplus.mouseover" end="zoomplus.mouseout"/>
                        </use>
                        <path d="M-4,0h8M0,-4v8" fill="none" stroke="white" stroke-width="1.5" pointer-events="none"/>
                </g>
                <g id="zoomMin">
                        <use xlink:href="#rim" fill="#404040">
                                <set attributeName="fill" to="#808080" begin="zoomminus.mouseover" end="zoomminus.mouseout"/>
                        </use>
                        <path d="M-4,0h8" fill="none" stroke="white" stroke-width="1.5" pointer-events="none"/>
                </g>
                <g id="dirArrow">
                        <path fill="none" stroke="white" stroke-width="1.5" d="M0,-3.0v7 M-2.5,-0.5L0,-3.0L2.5,-0.5"/>
                </g>
               <g id="resetDef">
                       <use xlink:href="#rim2" fill="#404040">
                               <set attributeName="fill" to="#808080" begin="reset.mouseover" end="reset.mouseout"/>
                       </use>
               </g>
        </defs>

<script type="text/javascript">
var viewWidth = 805;
var viewHeight = 404;
var sectionId = 'dynsection-1';
</script>
<script xlink:href="svgpan.js"/>
<svg id="graph" class="graph">
<g id="viewport">
<title>QuantConnect.Lean.Engine.DataFeeds.SubscriptionDataReader.Initialize</title>
<polygon fill="white" stroke="transparent" points="-4,4 -4,-400 801,-400 801,4 -4,4"/>
<!-- Node1 -->
<g id="node1" class="node">
<title>Node1</title>
<g id="a_node1"><a xlink:title="Initializes the SubscriptionDataReader instance">
<polygon fill="#bfbfbf" stroke="black" points="0,-159 0,-200 191,-200 191,-159 0,-159"/>
<text text-anchor="start" x="8" y="-188" font-family="Helvetica,sans-Serif" font-size="10.00">QuantConnect.Lean.Engine.</text>
<text text-anchor="start" x="8" y="-177" font-family="Helvetica,sans-Serif" font-size="10.00">DataFeeds.SubscriptionDataReader.</text>
<text text-anchor="middle" x="95.5" y="-166" font-family="Helvetica,sans-Serif" font-size="10.00">Initialize</text>
</a>
</g>
</g>
<!-- Node2 -->
<g id="node2" class="node">
<title>Node2</title>
<g id="a_node2"><a xlink:href="classQuantConnect_1_1Logging_1_1Log.html#af0e7955911bc7664b37661b2a303a9e3" target="_top" xlink:title="Log error">
<polygon fill="white" stroke="black" points="247.5,-352.5 247.5,-382.5 397.5,-382.5 397.5,-352.5 247.5,-352.5"/>
<text text-anchor="start" x="255.5" y="-370.5" font-family="Helvetica,sans-Serif" font-size="10.00">QuantConnect.Logging.Log.</text>
<text text-anchor="middle" x="322.5" y="-359.5" font-family="Helvetica,sans-Serif" font-size="10.00">Error</text>
</a>
</g>
</g>
<!-- Node1&#45;&gt;Node2 -->
<g id="edge1" class="edge">
<title>Node1&#45;&gt;Node2</title>
<path fill="none" stroke="midnightblue" d="M111.92,-200.17C134.61,-229.54 179.48,-283.73 227,-319.5 241.75,-330.6 259.45,-340.37 275.52,-348.15"/>
<polygon fill="midnightblue" stroke="midnightblue" points="274.22,-351.41 284.76,-352.5 277.2,-345.07 274.22,-351.41"/>
</g>
<!-- Node4 -->
<g id="node4" class="node">
<title>Node4</title>
<g id="a_node4"><a xlink:href="classQuantConnect_1_1Configuration_1_1Config.html#aaabf1286e33a675b2e116f3289981839" target="_top" xlink:title="Get the matching config setting from the file searching for this key.">
<polygon fill="white" stroke="black" points="244,-279.5 244,-309.5 401,-309.5 401,-279.5 244,-279.5"/>
<text text-anchor="start" x="252" y="-297.5" font-family="Helvetica,sans-Serif" font-size="10.00">QuantConnect.Configuration.</text>
<text text-anchor="middle" x="322.5" y="-286.5" font-family="Helvetica,sans-Serif" font-size="10.00">Config.Get</text>
</a>
</g>
</g>
<!-- Node1&#45;&gt;Node4 -->
<g id="edge3" class="edge">
<title>Node1&#45;&gt;Node4</title>
<path fill="none" stroke="midnightblue" d="M120.91,-200.21C146.02,-220.54 187,-251.1 227,-269.5 232.28,-271.93 237.85,-274.16 243.52,-276.2"/>
<polygon fill="midnightblue" stroke="midnightblue" points="242.55,-279.56 253.14,-279.44 244.78,-272.93 242.55,-279.56"/>
</g>
<!-- Node9 -->
<g id="node9" class="node">
<title>Node9</title>
<g id="a_node9"><a xlink:href="classQuantConnect_1_1Lean_1_1Engine_1_1DataFeeds_1_1SubscriptionDataReader.html#a86fa4369f370341a85cd65f06420a942" target="_top" xlink:title="Event invocator for the InvalidConfigurationDetected event">
<polygon fill="white" stroke="black" points="227,-219 227,-260 418,-260 418,-219 227,-219"/>
<text text-anchor="start" x="235" y="-248" font-family="Helvetica,sans-Serif" font-size="10.00">QuantConnect.Lean.Engine.</text>
<text text-anchor="start" x="235" y="-237" font-family="Helvetica,sans-Serif" font-size="10.00">DataFeeds.SubscriptionDataReader.</text>
<text text-anchor="middle" x="322.5" y="-226" font-family="Helvetica,sans-Serif" font-size="10.00">OnInvalidConfigurationDetected</text>
</a>
</g>
</g>
<!-- Node1&#45;&gt;Node9 -->
<g id="edge8" class="edge">
<title>Node1&#45;&gt;Node9</title>
<path fill="none" stroke="midnightblue" d="M173.62,-200.06C193.3,-205.31 214.58,-210.99 234.71,-216.36"/>
<polygon fill="midnightblue" stroke="midnightblue" points="233.92,-219.77 244.48,-218.96 235.72,-213 233.92,-219.77"/>
</g>
<!-- Node10 -->
<g id="node10" class="node">
<title>Node10</title>
<g id="a_node10"><a xlink:href="classQuantConnect_1_1Lean_1_1Engine_1_1DataFeeds_1_1SubscriptionDataReader.html#a4e21097a57805d51f897753a5d4dc28a" target="_top" xlink:title="Event invocator for the NumericalPrecisionLimited event">
<polygon fill="white" stroke="black" points="227,-159 227,-200 418,-200 418,-159 227,-159"/>
<text text-anchor="start" x="235" y="-188" font-family="Helvetica,sans-Serif" font-size="10.00">QuantConnect.Lean.Engine.</text>
<text text-anchor="start" x="235" y="-177" font-family="Helvetica,sans-Serif" font-size="10.00">DataFeeds.SubscriptionDataReader.</text>
<text text-anchor="middle" x="322.5" y="-166" font-family="Helvetica,sans-Serif" font-size="10.00">OnNumericalPrecisionLimited</text>
</a>
</g>
</g>
<!-- Node1&#45;&gt;Node10 -->
<g id="edge9" class="edge">
<title>Node1&#45;&gt;Node10</title>
<path fill="none" stroke="midnightblue" d="M191.27,-179.5C199.64,-179.5 208.14,-179.5 216.58,-179.5"/>
<polygon fill="midnightblue" stroke="midnightblue" points="216.84,-183 226.84,-179.5 216.84,-176 216.84,-183"/>
</g>
<!-- Node11 -->
<g id="node11" class="node">
<title>Node11</title>
<g id="a_node11"><a xlink:href="classQuantConnect_1_1Lean_1_1Engine_1_1DataFeeds_1_1SubscriptionDataReader.html#ac013090daa1a9330d28e53bdf801e429" target="_top" xlink:title="Event invocator for the StartDateLimited event">
<polygon fill="white" stroke="black" points="227,-99 227,-140 418,-140 418,-99 227,-99"/>
<text text-anchor="start" x="235" y="-128" font-family="Helvetica,sans-Serif" font-size="10.00">QuantConnect.Lean.Engine.</text>
<text text-anchor="start" x="235" y="-117" font-family="Helvetica,sans-Serif" font-size="10.00">DataFeeds.SubscriptionDataReader.</text>
<text text-anchor="middle" x="322.5" y="-106" font-family="Helvetica,sans-Serif" font-size="10.00">OnStartDateLimited</text>
</a>
</g>
</g>
<!-- Node1&#45;&gt;Node11 -->
<g id="edge10" class="edge">
<title>Node1&#45;&gt;Node11</title>
<path fill="none" stroke="midnightblue" d="M173.62,-158.94C193.3,-153.69 214.58,-148.01 234.71,-142.64"/>
<polygon fill="midnightblue" stroke="midnightblue" points="235.72,-146 244.48,-140.04 233.92,-139.23 235.72,-146"/>
</g>
<!-- Node12 -->
<g id="node12" class="node">
<title>Node12</title>
<g id="a_node12"><a xlink:href="classQuantConnect_1_1Data_1_1BaseData.html#a238a7416420cbc91734fd14c70d77e83" target="_top" xlink:title="Indicates if there is support for mapping">
<polygon fill="white" stroke="black" points="240,-49.5 240,-79.5 405,-79.5 405,-49.5 240,-49.5"/>
<text text-anchor="start" x="248" y="-67.5" font-family="Helvetica,sans-Serif" font-size="10.00">QuantConnect.Data.BaseData.</text>
<text text-anchor="middle" x="322.5" y="-56.5" font-family="Helvetica,sans-Serif" font-size="10.00">RequiresMapping</text>
</a>
</g>
</g>
<!-- Node1&#45;&gt;Node12 -->
<g id="edge11" class="edge">
<title>Node1&#45;&gt;Node12</title>
<path fill="none" stroke="midnightblue" d="M120.91,-158.79C146.02,-138.46 187,-107.9 227,-89.5 232.28,-87.07 237.85,-84.84 243.52,-82.8"/>
<polygon fill="midnightblue" stroke="midnightblue" points="244.78,-86.07 253.14,-79.56 242.55,-79.44 244.78,-86.07"/>
</g>
<!-- Node13 -->
<g id="node13" class="node">
<title>Node13</title>
<g id="a_node13"><a xlink:href="classQuantConnect_1_1Data_1_1Custom_1_1Tiingo_1_1Tiingo.html#aaabe0084337b4f8fca8f5609ddab6f40" target="_top" xlink:title="Sets the Tiingo API token.">
<polygon fill="white" stroke="black" points="245,-0.5 245,-30.5 400,-30.5 400,-0.5 245,-0.5"/>
<text text-anchor="start" x="253" y="-18.5" font-family="Helvetica,sans-Serif" font-size="10.00">QuantConnect.Data.Custom.</text>
<text text-anchor="middle" x="322.5" y="-7.5" font-family="Helvetica,sans-Serif" font-size="10.00">Tiingo.Tiingo.SetAuthCode</text>
</a>
</g>
</g>
<!-- Node1&#45;&gt;Node13 -->
<g id="edge12" class="edge">
<title>Node1&#45;&gt;Node13</title>
<path fill="none" stroke="midnightblue" d="M109.86,-158.89C130.96,-128.07 174.96,-70.31 227,-39.5 230,-37.72 233.14,-36.07 236.36,-34.55"/>
<polygon fill="midnightblue" stroke="midnightblue" points="237.84,-37.72 245.64,-30.56 235.07,-31.29 237.84,-37.72"/>
</g>
<!-- Node3 -->
<g id="node3" class="node">
<title>Node3</title>
<g id="a_node3"><a xlink:href="interfaceQuantConnect_1_1Logging_1_1ILogHandler.html#a35373a0c5d76031fa5ccf5dc39e5c25d" target="_top" xlink:title="Write error message to log">
<polygon fill="white" stroke="black" points="457.5,-365.5 457.5,-395.5 607.5,-395.5 607.5,-365.5 457.5,-365.5"/>
<text text-anchor="start" x="465.5" y="-383.5" font-family="Helvetica,sans-Serif" font-size="10.00">QuantConnect.Logging.ILog</text>
<text text-anchor="middle" x="532.5" y="-372.5" font-family="Helvetica,sans-Serif" font-size="10.00">Handler.Error</text>
</a>
</g>
</g>
<!-- Node2&#45;&gt;Node3 -->
<g id="edge2" class="edge">
<title>Node2&#45;&gt;Node3</title>
<path fill="none" stroke="midnightblue" d="M397.71,-372.14C413.75,-373.14 430.82,-374.21 447.21,-375.23"/>
<polygon fill="midnightblue" stroke="midnightblue" points="447.12,-378.73 457.32,-375.86 447.55,-371.75 447.12,-378.73"/>
</g>
<!-- Node5 -->
<g id="node5" class="node">
<title>Node5</title>
<g id="a_node5"><a xlink:href="classQuantConnect_1_1Configuration_1_1Config.html#a1504ca19b3759d008b090375ddf4ad10" target="_top" xlink:title="Gets the currently selected environment. If sub&#45;environments are defined, they&#39;ll be returned as {env...">
<polygon fill="white" stroke="black" points="454,-316.5 454,-346.5 611,-346.5 611,-316.5 454,-316.5"/>
<text text-anchor="start" x="462" y="-334.5" font-family="Helvetica,sans-Serif" font-size="10.00">QuantConnect.Configuration.</text>
<text text-anchor="middle" x="532.5" y="-323.5" font-family="Helvetica,sans-Serif" font-size="10.00">Config.GetEnvironment</text>
</a>
</g>
</g>
<!-- Node4&#45;&gt;Node5 -->
<g id="edge4" class="edge">
<title>Node4&#45;&gt;Node5</title>
<path fill="none" stroke="midnightblue" d="M401.25,-308.33C415.08,-310.79 429.58,-313.37 443.67,-315.88"/>
<polygon fill="midnightblue" stroke="midnightblue" points="443.39,-319.38 453.85,-317.69 444.61,-312.49 443.39,-319.38"/>
</g>
<!-- Node6 -->
<g id="node6" class="node">
<title>Node6</title>
<g id="a_node6"><a xlink:href="classQuantConnect_1_1Configuration_1_1Config.html#a9ed01bc116e8181a7557f3e668f34691" target="_top" xlink:title="Gets the underlying JToken for the specified key">
<polygon fill="white" stroke="black" points="454,-267.5 454,-297.5 611,-297.5 611,-267.5 454,-267.5"/>
<text text-anchor="start" x="462" y="-285.5" font-family="Helvetica,sans-Serif" font-size="10.00">QuantConnect.Configuration.</text>
<text text-anchor="middle" x="532.5" y="-274.5" font-family="Helvetica,sans-Serif" font-size="10.00">Config.GetToken</text>
</a>
</g>
</g>
<!-- Node4&#45;&gt;Node6 -->
<g id="edge5" class="edge">
<title>Node4&#45;&gt;Node6</title>
<path fill="none" stroke="midnightblue" d="M401.25,-290.01C415.08,-289.22 429.58,-288.38 443.67,-287.57"/>
<polygon fill="midnightblue" stroke="midnightblue" points="444.07,-291.05 453.85,-286.98 443.66,-284.06 444.07,-291.05"/>
</g>
<!-- Node7 -->
<g id="node7" class="node">
<title>Node7</title>
<g id="a_node7"><a xlink:href="classQuantConnect_1_1Logging_1_1Log.html#a4e55477fbc790846b74550a57198cea9" target="_top" xlink:title="Log trace">
<polygon fill="white" stroke="black" points="457.5,-218.5 457.5,-248.5 607.5,-248.5 607.5,-218.5 457.5,-218.5"/>
<text text-anchor="start" x="465.5" y="-236.5" font-family="Helvetica,sans-Serif" font-size="10.00">QuantConnect.Logging.Log.</text>
<text text-anchor="middle" x="532.5" y="-225.5" font-family="Helvetica,sans-Serif" font-size="10.00">Trace</text>
</a>
</g>
</g>
<!-- Node4&#45;&gt;Node7 -->
<g id="edge6" class="edge">
<title>Node4&#45;&gt;Node7</title>
<path fill="none" stroke="midnightblue" d="M382.64,-279.47C394.39,-276.31 406.62,-272.9 418,-269.5 434.16,-264.67 437.94,-262.66 454,-257.5 459.98,-255.58 466.24,-253.59 472.48,-251.63"/>
<polygon fill="midnightblue" stroke="midnightblue" points="473.75,-254.9 482.25,-248.58 471.66,-248.22 473.75,-254.9"/>
</g>
<!-- Node8 -->
<g id="node8" class="node">
<title>Node8</title>
<g id="a_node8"><a xlink:href="interfaceQuantConnect_1_1Logging_1_1ILogHandler.html#a3fb71a33ac66129240b63f12b6fcda3b" target="_top" xlink:title="Write debug message to log">
<polygon fill="white" stroke="black" points="647,-218.5 647,-248.5 797,-248.5 797,-218.5 647,-218.5"/>
<text text-anchor="start" x="655" y="-236.5" font-family="Helvetica,sans-Serif" font-size="10.00">QuantConnect.Logging.ILog</text>
<text text-anchor="middle" x="722" y="-225.5" font-family="Helvetica,sans-Serif" font-size="10.00">Handler.Trace</text>
</a>
</g>
</g>
<!-- Node7&#45;&gt;Node8 -->
<g id="edge7" class="edge">
<title>Node7&#45;&gt;Node8</title>
<path fill="none" stroke="midnightblue" d="M607.6,-233.5C617.18,-233.5 627.04,-233.5 636.76,-233.5"/>
<polygon fill="midnightblue" stroke="midnightblue" points="636.82,-237 646.82,-233.5 636.82,-230 636.82,-237"/>
</g>
</g>
</svg>
        <g id="navigator" transform="translate(0 0)" fill="#404254">
                <rect fill="#f2f5e9" fill-opacity="0.5" stroke="#606060" stroke-width=".5" x="0" y="0" width="60" height="60"/>
                <use id="zoomplus" xlink:href="#zoomPlus" x="17" y="9" onmousedown="handleZoom(evt,'in')"/>
                <use id="zoomminus" xlink:href="#zoomMin" x="42" y="9" onmousedown="handleZoom(evt,'out')"/>
                <use id="reset" xlink:href="#resetDef" x="30" y="36" onmousedown="handleReset()"/>
                <g id="arrowUp" xlink:href="#dirArrow" transform="translate(30 24)" onmousedown="handlePan(0,-1)">
                  <use xlink:href="#rim" fill="#404040">
                        <set attributeName="fill" to="#808080" begin="arrowUp.mouseover" end="arrowUp.mouseout"/>
                  </use>
                  <path fill="none" stroke="white" stroke-width="1.5" d="M0,-3.0v7 M-2.5,-0.5L0,-3.0L2.5,-0.5"/>
                </g>
                <g id="arrowRight" xlink:href="#dirArrow" transform="rotate(90) translate(36 -43)" onmousedown="handlePan(1,0)">
                  <use xlink:href="#rim" fill="#404040">
                        <set attributeName="fill" to="#808080" begin="arrowRight.mouseover" end="arrowRight.mouseout"/>
                  </use>
                  <path fill="none" stroke="white" stroke-width="1.5" d="M0,-3.0v7 M-2.5,-0.5L0,-3.0L2.5,-0.5"/>
                </g>
                <g id="arrowDown" xlink:href="#dirArrow" transform="rotate(180) translate(-30 -48)" onmousedown="handlePan(0,1)">
                  <use xlink:href="#rim" fill="#404040">
                        <set attributeName="fill" to="#808080" begin="arrowDown.mouseover" end="arrowDown.mouseout"/>
                  </use>
                  <path fill="none" stroke="white" stroke-width="1.5" d="M0,-3.0v7 M-2.5,-0.5L0,-3.0L2.5,-0.5"/>
                </g>
                <g id="arrowLeft" xlink:href="#dirArrow" transform="rotate(270) translate(-36 17)" onmousedown="handlePan(-1,0)">
                  <use xlink:href="#rim" fill="#404040">
                        <set attributeName="fill" to="#808080" begin="arrowLeft.mouseover" end="arrowLeft.mouseout"/>
                  </use>
                  <path fill="none" stroke="white" stroke-width="1.5" d="M0,-3.0v7 M-2.5,-0.5L0,-3.0L2.5,-0.5"/>
                </g>
        </g>
        <svg viewBox="0 0 15 15" width="100%" height="30px" preserveAspectRatio="xMaxYMin meet">
         <g id="arrow_out" transform="scale(0.3 0.3)">
          <a xlink:href="classQuantConnect_1_1Lean_1_1Engine_1_1DataFeeds_1_1SubscriptionDataReader_a44ab08d71bc4ea22bb19ae8ea4099b05_cgraph_org.svg" target="_base">
           <rect id="button" ry="5" rx="5" y="6" x="6" height="38" width="38"
                fill="#f2f5e9" fill-opacity="0.5" stroke="#606060" stroke-width="1.0"/>
           <path id="arrow"
             d="M 11.500037,31.436501 C 11.940474,20.09759 22.043105,11.32322 32.158766,21.979434 L 37.068811,17.246167 C 37.068811,17.246167 37.088388,32 37.088388,32 L 22.160133,31.978069 C 22.160133,31.978069 26.997745,27.140456 26.997745,27.140456 C 18.528582,18.264221 13.291696,25.230495 11.500037,31.436501 z"
             style="fill:#404040;"/>
          </a>
         </g>
        </svg>
</svg>
