<?xml version="1.0" encoding="UTF-8" standalone="no"?>
<!DOCTYPE svg PUBLIC "-//W3C//DTD SVG 1.1//EN"
 "http://www.w3.org/Graphics/SVG/1.1/DTD/svg11.dtd">
<!-- Generated by graphviz version 2.43.0 (0)
 -->
<!-- Title: QuantConnect.Brokerages.WebSocketClientWrapper.MessageData Pages: 1 -->
<svg width="459pt" height="100pt"
 viewBox="0.00 0.00 459.00 99.50" xmlns="http://www.w3.org/2000/svg" xmlns:xlink="http://www.w3.org/1999/xlink">
<g id="graph0" class="graph" transform="scale(1 1) rotate(0) translate(4 95.5)">
<title>QuantConnect.Brokerages.WebSocketClientWrapper.MessageData</title>
<polygon fill="white" stroke="transparent" points="-4,4 -4,-95.5 455,-95.5 455,4 -4,4"/>
<!-- Node1 -->
<g id="node1" class="node">
<title>Node1</title>
<g id="a_node1"><a xlink:title="Defines a message of websocket data">
<polygon fill="#bfbfbf" stroke="black" points="0,-27.5 0,-57.5 209,-57.5 209,-27.5 0,-27.5"/>
<text text-anchor="start" x="8" y="-45.5" font-family="Helvetica,sans-Serif" font-size="10.00">QuantConnect.Brokerages.</text>
<text text-anchor="middle" x="104.5" y="-34.5" font-family="Helvetica,sans-Serif" font-size="10.00">WebSocketClientWrapper.MessageData</text>
</a>
</g>
</g>
<!-- Node2 -->
<g id="node2" class="node">
<title>Node2</title>
<g id="a_node2"><a xlink:href="classQuantConnect_1_1Brokerages_1_1WebSocketClientWrapper_1_1BinaryMessage.html" target="_top" xlink:title="Defines a byte&#45;Type message of websocket data">
<polygon fill="white" stroke="black" points="261.5,-50 261.5,-91 434.5,-91 434.5,-50 261.5,-50"/>
<text text-anchor="start" x="269.5" y="-79" font-family="Helvetica,sans-Serif" font-size="10.00">QuantConnect.Brokerages.</text>
<text text-anchor="start" x="269.5" y="-68" font-family="Helvetica,sans-Serif" font-size="10.00">WebSocketClientWrapper.Binary</text>
<text text-anchor="middle" x="348" y="-57" font-family="Helvetica,sans-Serif" font-size="10.00">Message</text>
</a>
</g>
</g>
<!-- Node1&#45;&gt;Node2 -->
<g id="edge1" class="edge">
<title>Node1&#45;&gt;Node2</title>
<path fill="none" stroke="midnightblue" d="M219.55,-55.72C233.65,-57.36 247.86,-59.01 261.43,-60.58"/>
<polygon fill="midnightblue" stroke="midnightblue" points="219.66,-52.21 209.32,-54.54 218.85,-59.17 219.66,-52.21"/>
</g>
<!-- Node3 -->
<g id="node3" class="node">
<title>Node3</title>
<g id="a_node3"><a xlink:href="classQuantConnect_1_1Brokerages_1_1WebSocketClientWrapper_1_1TextMessage.html" target="_top" xlink:title="Defines a text&#45;Type message of websocket data">
<polygon fill="white" stroke="black" points="245,-0.5 245,-30.5 451,-30.5 451,-0.5 245,-0.5"/>
<text text-anchor="start" x="253" y="-18.5" font-family="Helvetica,sans-Serif" font-size="10.00">QuantConnect.Brokerages.</text>
<text text-anchor="middle" x="348" y="-7.5" font-family="Helvetica,sans-Serif" font-size="10.00">WebSocketClientWrapper.TextMessage</text>
</a>
</g>
</g>
<!-- Node1&#45;&gt;Node3 -->
<g id="edge2" class="edge">
<title>Node1&#45;&gt;Node3</title>
<path fill="none" stroke="midnightblue" d="M219.28,-29.78C227.8,-28.83 236.36,-27.87 244.8,-26.93"/>
<polygon fill="midnightblue" stroke="midnightblue" points="218.87,-26.3 209.32,-30.89 219.65,-33.26 218.87,-26.3"/>
</g>
</g>
</svg>
