<?xml version="1.0" encoding="UTF-8" standalone="no"?>
<!DOCTYPE svg PUBLIC "-//W3C//DTD SVG 1.1//EN"
 "http://www.w3.org/Graphics/SVG/1.1/DTD/svg11.dtd">
<!-- Generated by graphviz version 2.43.0 (0)
 -->
<!-- Title: QuantConnect.Securities.SecurityPortfolioManager.GetMarginRemaining Pages: 1 -->
<svg width="588pt" height="50pt"
 viewBox="0.00 0.00 588.00 50.00" xmlns="http://www.w3.org/2000/svg" xmlns:xlink="http://www.w3.org/1999/xlink">
<g id="graph0" class="graph" transform="scale(1 1) rotate(0) translate(4 46)">
<title>QuantConnect.Securities.SecurityPortfolioManager.GetMarginRemaining</title>
<polygon fill="white" stroke="transparent" points="-4,4 -4,-46 584,-46 584,4 -4,4"/>
<!-- Node1 -->
<g id="node1" class="node">
<title>Node1</title>
<g id="a_node1"><a xlink:title="Gets the margin available for trading a specific symbol in a specific direction.">
<polygon fill="#bfbfbf" stroke="black" points="0,-0.5 0,-41.5 160,-41.5 160,-0.5 0,-0.5"/>
<text text-anchor="start" x="8" y="-29.5" font-family="Helvetica,sans-Serif" font-size="10.00">QuantConnect.Securities.</text>
<text text-anchor="start" x="8" y="-18.5" font-family="Helvetica,sans-Serif" font-size="10.00">SecurityPortfolioManager.Get</text>
<text text-anchor="middle" x="80" y="-7.5" font-family="Helvetica,sans-Serif" font-size="10.00">MarginRemaining</text>
</a>
</g>
</g>
<!-- Node2 -->
<g id="node2" class="node">
<title>Node2</title>
<g id="a_node2"><a xlink:href="classQuantConnect_1_1Securities_1_1Positions_1_1SecurityPositionGroupModel.html#ab38609d426f6ebc69ed07a547e13b933" target="_top" xlink:title="Gets or creates the default position group for the specified security">
<polygon fill="white" stroke="black" points="196,-0.5 196,-41.5 372,-41.5 372,-0.5 196,-0.5"/>
<text text-anchor="start" x="204" y="-29.5" font-family="Helvetica,sans-Serif" font-size="10.00">QuantConnect.Securities.</text>
<text text-anchor="start" x="204" y="-18.5" font-family="Helvetica,sans-Serif" font-size="10.00">Positions.SecurityPositionGroup</text>
<text text-anchor="middle" x="284" y="-7.5" font-family="Helvetica,sans-Serif" font-size="10.00">Model.GetOrCreateDefaultGroup</text>
</a>
</g>
</g>
<!-- Node1&#45;&gt;Node2 -->
<g id="edge1" class="edge">
<title>Node1&#45;&gt;Node2</title>
<path fill="none" stroke="midnightblue" d="M160.26,-21C168.68,-21 177.31,-21 185.9,-21"/>
<polygon fill="midnightblue" stroke="midnightblue" points="185.96,-24.5 195.96,-21 185.96,-17.5 185.96,-24.5"/>
</g>
<!-- Node3 -->
<g id="node3" class="node">
<title>Node3</title>
<g id="a_node3"><a xlink:href="classQuantConnect_1_1Securities_1_1Positions_1_1SecurityPositionGroupModel.html#aa11cb32493bfdcda2a5cee4b34c725e6" target="_top" xlink:title="Creates a PositionGroupKey for the security&#39;s default position group">
<polygon fill="white" stroke="black" points="408,-0.5 408,-41.5 580,-41.5 580,-0.5 408,-0.5"/>
<text text-anchor="start" x="416" y="-29.5" font-family="Helvetica,sans-Serif" font-size="10.00">QuantConnect.Securities.</text>
<text text-anchor="start" x="416" y="-18.5" font-family="Helvetica,sans-Serif" font-size="10.00">Positions.SecurityPositionGroup</text>
<text text-anchor="middle" x="494" y="-7.5" font-family="Helvetica,sans-Serif" font-size="10.00">Model.CreateDefaultKey</text>
</a>
</g>
</g>
<!-- Node2&#45;&gt;Node3 -->
<g id="edge2" class="edge">
<title>Node2&#45;&gt;Node3</title>
<path fill="none" stroke="midnightblue" d="M372.01,-21C380.39,-21 388.94,-21 397.4,-21"/>
<polygon fill="midnightblue" stroke="midnightblue" points="397.68,-24.5 407.68,-21 397.68,-17.5 397.68,-24.5"/>
</g>
</g>
</svg>
