<?xml version="1.0" encoding="UTF-8" standalone="no"?>
<!DOCTYPE svg PUBLIC "-//W3C//DTD SVG 1.1//EN"
 "http://www.w3.org/Graphics/SVG/1.1/DTD/svg11.dtd">
<!-- Generated by graphviz version 2.43.0 (0)
 -->
<!-- Title: QuantConnect.Report.DrawdownCollection.NormalizeResults Pages: 1 -->
<svg width="380pt" height="39pt"
 viewBox="0.00 0.00 380.00 39.00" xmlns="http://www.w3.org/2000/svg" xmlns:xlink="http://www.w3.org/1999/xlink">
<g id="graph0" class="graph" transform="scale(1 1) rotate(0) translate(4 35)">
<title>QuantConnect.Report.DrawdownCollection.NormalizeResults</title>
<polygon fill="white" stroke="transparent" points="-4,4 -4,-35 376,-35 376,4 -4,4"/>
<!-- Node1 -->
<g id="node1" class="node">
<title>Node1</title>
<g id="a_node1"><a xlink:title="Normalizes the Series used to calculate the drawdown plots and charts">
<polygon fill="#bfbfbf" stroke="black" points="0,-0.5 0,-30.5 176,-30.5 176,-0.5 0,-0.5"/>
<text text-anchor="start" x="8" y="-18.5" font-family="Helvetica,sans-Serif" font-size="10.00">QuantConnect.Report.Drawdown</text>
<text text-anchor="middle" x="88" y="-7.5" font-family="Helvetica,sans-Serif" font-size="10.00">Collection.NormalizeResults</text>
</a>
</g>
</g>
<!-- Node2 -->
<g id="node2" class="node">
<title>Node2</title>
<g id="a_node2"><a xlink:href="classQuantConnect_1_1Report_1_1ResultsUtil.html#aa3025f7eaad4f511960c2d6c9c2dd028" target="_top" xlink:title="Get the points, from the Series name given, in Strategy Equity chart">
<polygon fill="white" stroke="black" points="212,-0.5 212,-30.5 372,-30.5 372,-0.5 212,-0.5"/>
<text text-anchor="start" x="220" y="-18.5" font-family="Helvetica,sans-Serif" font-size="10.00">QuantConnect.Report.Results</text>
<text text-anchor="middle" x="292" y="-7.5" font-family="Helvetica,sans-Serif" font-size="10.00">Util.EquityPoints</text>
</a>
</g>
</g>
<!-- Node1&#45;&gt;Node2 -->
<g id="edge1" class="edge">
<title>Node1&#45;&gt;Node2</title>
<path fill="none" stroke="midnightblue" d="M176.13,-15.5C184.56,-15.5 193.12,-15.5 201.56,-15.5"/>
<polygon fill="midnightblue" stroke="midnightblue" points="201.8,-19 211.8,-15.5 201.8,-12 201.8,-19"/>
</g>
</g>
</svg>
