<?xml version="1.0" encoding="UTF-8" standalone="no"?>
<!DOCTYPE svg PUBLIC "-//W3C//DTD SVG 1.1//EN"
 "http://www.w3.org/Graphics/SVG/1.1/DTD/svg11.dtd">
<!-- Generated by graphviz version 2.43.0 (0)
 -->
<!-- Title: QuantConnect.Algorithm.Framework.Selection.UniverseSelectionModelPythonWrapper Pages: 1 -->
<svg width="225pt" height="162pt"
 viewBox="0.00 0.00 225.00 162.00" xmlns="http://www.w3.org/2000/svg" xmlns:xlink="http://www.w3.org/1999/xlink">
<g id="graph0" class="graph" transform="scale(1 1) rotate(0) translate(4 158)">
<title>QuantConnect.Algorithm.Framework.Selection.UniverseSelectionModelPythonWrapper</title>
<polygon fill="white" stroke="transparent" points="-4,4 -4,-158 221,-158 221,4 -4,4"/>
<!-- Node1 -->
<g id="node1" class="node">
<title>Node1</title>
<g id="a_node1"><a xlink:title="Provides an implementation of IUniverseSelectionModel that wraps a PyObject object">
<polygon fill="#bfbfbf" stroke="black" points="0,-0.5 0,-41.5 217,-41.5 217,-0.5 0,-0.5"/>
<text text-anchor="start" x="8" y="-29.5" font-family="Helvetica,sans-Serif" font-size="10.00">QuantConnect.Algorithm.Framework.</text>
<text text-anchor="start" x="8" y="-18.5" font-family="Helvetica,sans-Serif" font-size="10.00">Selection.UniverseSelectionModelPython</text>
<text text-anchor="middle" x="108.5" y="-7.5" font-family="Helvetica,sans-Serif" font-size="10.00">Wrapper</text>
</a>
</g>
</g>
<!-- Node2 -->
<g id="node2" class="node">
<title>Node2</title>
<g id="a_node2"><a xlink:href="classQuantConnect_1_1Algorithm_1_1Framework_1_1Selection_1_1UniverseSelectionModel.html" target="_top" xlink:title="Provides a base class for universe selection models.">
<polygon fill="white" stroke="black" points="41,-78.5 41,-97.5 176,-97.5 176,-78.5 41,-78.5"/>
<text text-anchor="middle" x="108.5" y="-85.5" font-family="Helvetica,sans-Serif" font-size="10.00">UniverseSelectionModel</text>
</a>
</g>
</g>
<!-- Node2&#45;&gt;Node1 -->
<g id="edge1" class="edge">
<title>Node2&#45;&gt;Node1</title>
<path fill="none" stroke="midnightblue" d="M108.5,-68.04C108.5,-59.71 108.5,-49.94 108.5,-41.54"/>
<polygon fill="midnightblue" stroke="midnightblue" points="105,-68.23 108.5,-78.23 112,-68.23 105,-68.23"/>
</g>
<!-- Node3 -->
<g id="node3" class="node">
<title>Node3</title>
<g id="a_node3"><a xlink:href="interfaceQuantConnect_1_1Algorithm_1_1Framework_1_1Selection_1_1IUniverseSelectionModel.html" target="_top" xlink:title="Algorithm framework model that defines the universes to be used by an algorithm">
<polygon fill="white" stroke="black" points="39.5,-134.5 39.5,-153.5 177.5,-153.5 177.5,-134.5 39.5,-134.5"/>
<text text-anchor="middle" x="108.5" y="-141.5" font-family="Helvetica,sans-Serif" font-size="10.00">IUniverseSelectionModel</text>
</a>
</g>
</g>
<!-- Node3&#45;&gt;Node2 -->
<g id="edge2" class="edge">
<title>Node3&#45;&gt;Node2</title>
<path fill="none" stroke="midnightblue" d="M108.5,-123.8C108.5,-114.91 108.5,-104.78 108.5,-97.75"/>
<polygon fill="midnightblue" stroke="midnightblue" points="105,-124.08 108.5,-134.08 112,-124.08 105,-124.08"/>
</g>
</g>
</svg>
