<?xml version="1.0" encoding="UTF-8" standalone="no"?>
<!DOCTYPE svg PUBLIC "-//W3C//DTD SVG 1.1//EN"
 "http://www.w3.org/Graphics/SVG/1.1/DTD/svg11.dtd">
<!-- Generated by graphviz version 2.43.0 (0)
 -->
<!-- Title: QuantConnect.Data.Market.TradeBar Pages: 1 -->
<svg width="794pt" height="88pt"
 viewBox="0.00 0.00 794.00 88.00" xmlns="http://www.w3.org/2000/svg" xmlns:xlink="http://www.w3.org/1999/xlink">
<g id="graph0" class="graph" transform="scale(1 1) rotate(0) translate(4 84)">
<title>QuantConnect.Data.Market.TradeBar</title>
<polygon fill="white" stroke="transparent" points="-4,4 -4,-84 790,-84 790,4 -4,4"/>
<!-- Node1 -->
<g id="node1" class="node">
<title>Node1</title>
<g id="a_node1"><a xlink:title="TradeBar class for second and minute resolution data: An OHLC implementation of the QuantConnect Base...">
<polygon fill="#bfbfbf" stroke="black" points="222,-24.5 222,-54.5 374,-54.5 374,-24.5 222,-24.5"/>
<text text-anchor="start" x="230" y="-42.5" font-family="Helvetica,sans-Serif" font-size="10.00">QuantConnect.Data.Market.</text>
<text text-anchor="middle" x="298" y="-31.5" font-family="Helvetica,sans-Serif" font-size="10.00">TradeBar</text>
</a>
</g>
</g>
<!-- Node6 -->
<g id="node6" class="node">
<title>Node6</title>
<g id="a_node6"><a xlink:href="classQuantConnect_1_1Data_1_1Custom_1_1IconicTypes_1_1UnlinkedDataTradeBar.html" target="_top" xlink:title="Data source that is unlinked (no mapping) and takes any ticker when calling AddData">
<polygon fill="white" stroke="black" points="410,-49.5 410,-79.5 595,-79.5 595,-49.5 410,-49.5"/>
<text text-anchor="start" x="418" y="-67.5" font-family="Helvetica,sans-Serif" font-size="10.00">QuantConnect.Data.Custom.</text>
<text text-anchor="middle" x="502.5" y="-56.5" font-family="Helvetica,sans-Serif" font-size="10.00">IconicTypes.UnlinkedDataTradeBar</text>
</a>
</g>
</g>
<!-- Node1&#45;&gt;Node6 -->
<g id="edge6" class="edge">
<title>Node1&#45;&gt;Node6</title>
<path fill="none" stroke="midnightblue" d="M384.28,-50.03C392.68,-51.07 401.24,-52.12 409.7,-53.17"/>
<polygon fill="midnightblue" stroke="midnightblue" points="384.47,-46.53 374.12,-48.77 383.61,-53.47 384.47,-46.53"/>
</g>
<!-- Node7 -->
<g id="node7" class="node">
<title>Node7</title>
<g id="a_node7"><a xlink:href="classQuantConnect_1_1Data_1_1Custom_1_1Tiingo_1_1TiingoPrice.html" target="_top" xlink:title="Tiingo daily price data https://api.tiingo.com/docs/tiingo/daily">
<polygon fill="white" stroke="black" points="425,-0.5 425,-30.5 580,-30.5 580,-0.5 425,-0.5"/>
<text text-anchor="start" x="433" y="-18.5" font-family="Helvetica,sans-Serif" font-size="10.00">QuantConnect.Data.Custom.</text>
<text text-anchor="middle" x="502.5" y="-7.5" font-family="Helvetica,sans-Serif" font-size="10.00">Tiingo.TiingoPrice</text>
</a>
</g>
</g>
<!-- Node1&#45;&gt;Node7 -->
<g id="edge7" class="edge">
<title>Node1&#45;&gt;Node7</title>
<path fill="none" stroke="midnightblue" d="M384.31,-29.39C397.75,-27.8 411.58,-26.16 424.81,-24.59"/>
<polygon fill="midnightblue" stroke="midnightblue" points="383.63,-25.94 374.12,-30.6 384.46,-32.9 383.63,-25.94"/>
</g>
<!-- Node2 -->
<g id="node2" class="node">
<title>Node2</title>
<g id="a_node2"><a xlink:href="classQuantConnect_1_1Data_1_1BaseData.html" target="_top" xlink:title="Abstract base data class of QuantConnect. It is intended to be extended to define generic user custom...">
<polygon fill="white" stroke="black" points="112.5,-49 112.5,-68 176.5,-68 176.5,-49 112.5,-49"/>
<text text-anchor="middle" x="144.5" y="-56" font-family="Helvetica,sans-Serif" font-size="10.00">BaseData</text>
</a>
</g>
</g>
<!-- Node2&#45;&gt;Node1 -->
<g id="edge1" class="edge">
<title>Node2&#45;&gt;Node1</title>
<path fill="none" stroke="midnightblue" d="M186.61,-53.34C197.56,-51.97 209.74,-50.44 221.9,-48.92"/>
<polygon fill="midnightblue" stroke="midnightblue" points="186.01,-49.89 176.52,-54.61 186.88,-56.84 186.01,-49.89"/>
</g>
<!-- Node3 -->
<g id="node3" class="node">
<title>Node3</title>
<g id="a_node3"><a xlink:href="interfaceQuantConnect_1_1Data_1_1IBaseData.html" target="_top" xlink:title="Base Data Class: Type, Timestamp, Key – Base Features.">
<polygon fill="white" stroke="black" points="0,-49 0,-68 67,-68 67,-49 0,-49"/>
<text text-anchor="middle" x="33.5" y="-56" font-family="Helvetica,sans-Serif" font-size="10.00">IBaseData</text>
</a>
</g>
</g>
<!-- Node3&#45;&gt;Node2 -->
<g id="edge2" class="edge">
<title>Node3&#45;&gt;Node2</title>
<path fill="none" stroke="midnightblue" d="M77.23,-58.5C88.93,-58.5 101.39,-58.5 112.32,-58.5"/>
<polygon fill="midnightblue" stroke="midnightblue" points="77.2,-55 67.2,-58.5 77.2,-62 77.2,-55"/>
</g>
<!-- Node4 -->
<g id="node4" class="node">
<title>Node4</title>
<g id="a_node4"><a xlink:href="interfaceQuantConnect_1_1Data_1_1Market_1_1IBaseDataBar.html" target="_top" xlink:title="Represents a type that is both a bar and base data">
<polygon fill="white" stroke="black" points="103,-11 103,-30 186,-30 186,-11 103,-11"/>
<text text-anchor="middle" x="144.5" y="-18" font-family="Helvetica,sans-Serif" font-size="10.00">IBaseDataBar</text>
</a>
</g>
</g>
<!-- Node3&#45;&gt;Node4 -->
<g id="edge4" class="edge">
<title>Node3&#45;&gt;Node4</title>
<path fill="none" stroke="midnightblue" d="M71.71,-45.53C86.23,-40.47 102.58,-34.77 116,-30.09"/>
<polygon fill="midnightblue" stroke="midnightblue" points="70.3,-42.31 62.01,-48.91 72.6,-48.92 70.3,-42.31"/>
</g>
<!-- Node4&#45;&gt;Node1 -->
<g id="edge3" class="edge">
<title>Node4&#45;&gt;Node1</title>
<path fill="none" stroke="midnightblue" d="M196.24,-26.86C204.46,-27.89 213.12,-28.98 221.77,-30.07"/>
<polygon fill="midnightblue" stroke="midnightblue" points="196.46,-23.36 186.1,-25.59 195.59,-30.31 196.46,-23.36"/>
</g>
<!-- Node5 -->
<g id="node5" class="node">
<title>Node5</title>
<g id="a_node5"><a xlink:href="interfaceQuantConnect_1_1Data_1_1Market_1_1IBar.html" target="_top" xlink:title="Generic bar interface with Open, High, Low and Close.">
<polygon fill="white" stroke="black" points="15.5,-11 15.5,-30 51.5,-30 51.5,-11 15.5,-11"/>
<text text-anchor="middle" x="33.5" y="-18" font-family="Helvetica,sans-Serif" font-size="10.00">IBar</text>
</a>
</g>
</g>
<!-- Node5&#45;&gt;Node4 -->
<g id="edge5" class="edge">
<title>Node5&#45;&gt;Node4</title>
<path fill="none" stroke="midnightblue" d="M61.65,-20.5C74.02,-20.5 88.92,-20.5 102.6,-20.5"/>
<polygon fill="midnightblue" stroke="midnightblue" points="61.53,-17 51.53,-20.5 61.53,-24 61.53,-17"/>
</g>
<!-- Node8 -->
<g id="node8" class="node">
<title>Node8</title>
<g id="a_node8"><a xlink:href="classQuantConnect_1_1Data_1_1Custom_1_1Tiingo_1_1TiingoDailyData.html" target="_top" xlink:title="Tiingo daily price data https://api.tiingo.com/docs/tiingo/daily">
<polygon fill="white" stroke="black" points="631,-0.5 631,-30.5 786,-30.5 786,-0.5 631,-0.5"/>
<text text-anchor="start" x="639" y="-18.5" font-family="Helvetica,sans-Serif" font-size="10.00">QuantConnect.Data.Custom.</text>
<text text-anchor="middle" x="708.5" y="-7.5" font-family="Helvetica,sans-Serif" font-size="10.00">Tiingo.TiingoDailyData</text>
</a>
</g>
</g>
<!-- Node7&#45;&gt;Node8 -->
<g id="edge8" class="edge">
<title>Node7&#45;&gt;Node8</title>
<path fill="none" stroke="midnightblue" d="M590.27,-15.5C603.77,-15.5 617.62,-15.5 630.87,-15.5"/>
<polygon fill="midnightblue" stroke="midnightblue" points="590.04,-12 580.04,-15.5 590.04,-19 590.04,-12"/>
</g>
</g>
</svg>
