<?xml version="1.0" encoding="UTF-8" standalone="no"?>
<!DOCTYPE svg PUBLIC "-//W3C//DTD SVG 1.1//EN"
 "http://www.w3.org/Graphics/SVG/1.1/DTD/svg11.dtd">
<!-- Generated by graphviz version 2.43.0 (0)
 -->
<!-- Title: QuantConnect.Util.LeanData.AggregateTicks Pages: 1 -->
<svg width="435pt" height="100pt"
 viewBox="0.00 0.00 435.00 99.50" xmlns="http://www.w3.org/2000/svg" xmlns:xlink="http://www.w3.org/1999/xlink">
<g id="graph0" class="graph" transform="scale(1 1) rotate(0) translate(4 95.5)">
<title>QuantConnect.Util.LeanData.AggregateTicks</title>
<polygon fill="white" stroke="transparent" points="-4,4 -4,-95.5 431,-95.5 431,4 -4,4"/>
<!-- Node1 -->
<g id="node1" class="node">
<title>Node1</title>
<g id="a_node1"><a xlink:title="Aggregates a list of ticks at the requested resolution">
<polygon fill="#bfbfbf" stroke="black" points="269,-27.5 269,-57.5 427,-57.5 427,-27.5 269,-27.5"/>
<text text-anchor="start" x="277" y="-45.5" font-family="Helvetica,sans-Serif" font-size="10.00">QuantConnect.Util.LeanData.</text>
<text text-anchor="middle" x="348" y="-34.5" font-family="Helvetica,sans-Serif" font-size="10.00">AggregateTicks</text>
</a>
</g>
</g>
<!-- Node2 -->
<g id="node2" class="node">
<title>Node2</title>
<g id="a_node2"><a xlink:href="classQuantConnect_1_1ToolBox_1_1DukascopyDownloader_1_1DukascopyDownloaderProgram.html#a25a38e5241b8c5b76db95d31f76bda8e" target="_top" xlink:title="Primary entry point to the program">
<polygon fill="white" stroke="black" points="0,-50 0,-91 233,-91 233,-50 0,-50"/>
<text text-anchor="start" x="8" y="-79" font-family="Helvetica,sans-Serif" font-size="10.00">QuantConnect.ToolBox.Dukascopy</text>
<text text-anchor="start" x="8" y="-68" font-family="Helvetica,sans-Serif" font-size="10.00">Downloader.DukascopyDownloaderProgram.</text>
<text text-anchor="middle" x="116.5" y="-57" font-family="Helvetica,sans-Serif" font-size="10.00">DukascopyDownloader</text>
</a>
</g>
</g>
<!-- Node1&#45;&gt;Node2 -->
<g id="edge1" class="edge">
<title>Node1&#45;&gt;Node2</title>
<path fill="none" stroke="midnightblue" d="M258.83,-53.26C250.41,-54.28 241.79,-55.34 233.16,-56.39"/>
<polygon fill="midnightblue" stroke="midnightblue" points="259.48,-56.7 268.98,-52.02 258.63,-49.76 259.48,-56.7"/>
</g>
<!-- Node3 -->
<g id="node3" class="node">
<title>Node3</title>
<g id="a_node3"><a xlink:href="classQuantConnect_1_1ToolBox_1_1DukascopyDownloader_1_1DukascopyDataDownloader.html#a7e2d13c3d5e516f6e0609d9fb5183689" target="_top" xlink:title="Get historical data enumerable for a single symbol, type and resolution given this start and end time...">
<polygon fill="white" stroke="black" points="0.5,-0.5 0.5,-30.5 232.5,-30.5 232.5,-0.5 0.5,-0.5"/>
<text text-anchor="start" x="8.5" y="-18.5" font-family="Helvetica,sans-Serif" font-size="10.00">QuantConnect.ToolBox.Dukascopy</text>
<text text-anchor="middle" x="116.5" y="-7.5" font-family="Helvetica,sans-Serif" font-size="10.00">Downloader.DukascopyDataDownloader.Get</text>
</a>
</g>
</g>
<!-- Node1&#45;&gt;Node3 -->
<g id="edge2" class="edge">
<title>Node1&#45;&gt;Node3</title>
<path fill="none" stroke="midnightblue" d="M258.99,-32.15C250.39,-31.13 241.57,-30.1 232.75,-29.06"/>
<polygon fill="midnightblue" stroke="midnightblue" points="258.64,-35.63 268.98,-33.32 259.46,-28.68 258.64,-35.63"/>
</g>
</g>
</svg>
