<?xml version="1.0" encoding="UTF-8" standalone="no"?>
<!DOCTYPE svg PUBLIC "-//W3C//DTD SVG 1.1//EN"
 "http://www.w3.org/Graphics/SVG/1.1/DTD/svg11.dtd">
<!-- Generated by graphviz version 2.43.0 (0)
 -->
<!-- Title: QuantConnect.Algorithm.ConstituentUniverseDefinitions.BeveragesNonAlcoholic Pages: 1 -->
<svg width="449pt" height="39pt"
 viewBox="0.00 0.00 449.00 39.00" xmlns="http://www.w3.org/2000/svg" xmlns:xlink="http://www.w3.org/1999/xlink">
<g id="graph0" class="graph" transform="scale(1 1) rotate(0) translate(4 35)">
<title>QuantConnect.Algorithm.ConstituentUniverseDefinitions.BeveragesNonAlcoholic</title>
<polygon fill="white" stroke="transparent" points="-4,4 -4,-35 445,-35 445,4 -4,4"/>
<!-- Node1 -->
<g id="node1" class="node">
<title>Node1</title>
<g id="a_node1"><a xlink:title="Morningstar BeveragesNonAlcoholic industry group MorningstarIndustryGroupCode">
<polygon fill="#bfbfbf" stroke="black" points="0,-0.5 0,-30.5 231,-30.5 231,-0.5 0,-0.5"/>
<text text-anchor="start" x="8" y="-18.5" font-family="Helvetica,sans-Serif" font-size="10.00">QuantConnect.Algorithm.Constituent</text>
<text text-anchor="middle" x="115.5" y="-7.5" font-family="Helvetica,sans-Serif" font-size="10.00">UniverseDefinitions.BeveragesNonAlcoholic</text>
</a>
</g>
</g>
<!-- Node2 -->
<g id="node2" class="node">
<title>Node2</title>
<g id="a_node2"><a xlink:href="classQuantConnect_1_1SecurityIdentifier.html#aa2b8c59064a75d90b2e530e829331de1" target="_top" xlink:title="Generates a new SecurityIdentifier for a ConstituentsUniverseData. Note that the symbol ticker is cas...">
<polygon fill="white" stroke="black" points="267,-0.5 267,-30.5 441,-30.5 441,-0.5 267,-0.5"/>
<text text-anchor="start" x="275" y="-18.5" font-family="Helvetica,sans-Serif" font-size="10.00">QuantConnect.SecurityIdentifier.</text>
<text text-anchor="middle" x="354" y="-7.5" font-family="Helvetica,sans-Serif" font-size="10.00">GenerateConstituentIdentifier</text>
</a>
</g>
</g>
<!-- Node1&#45;&gt;Node2 -->
<g id="edge1" class="edge">
<title>Node1&#45;&gt;Node2</title>
<path fill="none" stroke="midnightblue" d="M231.29,-15.5C239.82,-15.5 248.38,-15.5 256.78,-15.5"/>
<polygon fill="midnightblue" stroke="midnightblue" points="256.95,-19 266.95,-15.5 256.95,-12 256.95,-19"/>
</g>
</g>
</svg>
