<?xml version="1.0" encoding="UTF-8" standalone="no"?>
<!DOCTYPE svg PUBLIC "-//W3C//DTD SVG 1.1//EN"
 "http://www.w3.org/Graphics/SVG/1.1/DTD/svg11.dtd">
<!-- Generated by graphviz version 2.43.0 (0)
 -->
<!-- Title: QuantConnect.Extensions.GetDelistingDate Pages: 1 -->
<svg width="1035pt" height="210pt"
 viewBox="0.00 0.00 1035.00 209.50" xmlns="http://www.w3.org/2000/svg" xmlns:xlink="http://www.w3.org/1999/xlink">
<g id="graph0" class="graph" transform="scale(1 1) rotate(0) translate(4 205.5)">
<title>QuantConnect.Extensions.GetDelistingDate</title>
<polygon fill="white" stroke="transparent" points="-4,4 -4,-205.5 1031,-205.5 1031,4 -4,4"/>
<!-- Node1 -->
<g id="node1" class="node">
<title>Node1</title>
<g id="a_node1"><a xlink:title="Gets the delisting date for the provided Symbol">
<polygon fill="#bfbfbf" stroke="black" points="0,-88 0,-118 145,-118 145,-88 0,-88"/>
<text text-anchor="start" x="8" y="-106" font-family="Helvetica,sans-Serif" font-size="10.00">QuantConnect.Extensions.</text>
<text text-anchor="middle" x="72.5" y="-95" font-family="Helvetica,sans-Serif" font-size="10.00">GetDelistingDate</text>
</a>
</g>
</g>
<!-- Node2 -->
<g id="node2" class="node">
<title>Node2</title>
<g id="a_node2"><a xlink:href="classQuantConnect_1_1Securities_1_1FutureOption_1_1FutureOptionSymbol.html#a644e49a8f90042f002d1a16fba8437a8" target="_top" xlink:title="Gets the last day of trading, aliased to be the Futures options&#39; expiry">
<polygon fill="white" stroke="black" points="181,-142.5 181,-183.5 366,-183.5 366,-142.5 181,-142.5"/>
<text text-anchor="start" x="189" y="-171.5" font-family="Helvetica,sans-Serif" font-size="10.00">QuantConnect.Securities.</text>
<text text-anchor="start" x="189" y="-160.5" font-family="Helvetica,sans-Serif" font-size="10.00">FutureOption.FutureOptionSymbol.</text>
<text text-anchor="middle" x="273.5" y="-149.5" font-family="Helvetica,sans-Serif" font-size="10.00">GetLastDayOfTrading</text>
</a>
</g>
</g>
<!-- Node1&#45;&gt;Node2 -->
<g id="edge1" class="edge">
<title>Node1&#45;&gt;Node2</title>
<path fill="none" stroke="midnightblue" d="M123.46,-118.06C145.01,-124.56 170.73,-132.32 194.69,-139.54"/>
<polygon fill="midnightblue" stroke="midnightblue" points="193.89,-142.95 204.47,-142.49 195.91,-136.25 193.89,-142.95"/>
</g>
<!-- Node3 -->
<g id="node3" class="node">
<title>Node3</title>
<g id="a_node3"><a xlink:href="classQuantConnect_1_1Securities_1_1Option_1_1OptionSymbol.html#a75217e30f16bc69188675c474bb703b0" target="_top" xlink:title="Returns the last trading date for the option contract">
<polygon fill="white" stroke="black" points="183,-82.5 183,-123.5 364,-123.5 364,-82.5 183,-82.5"/>
<text text-anchor="start" x="191" y="-111.5" font-family="Helvetica,sans-Serif" font-size="10.00">QuantConnect.Securities.</text>
<text text-anchor="start" x="191" y="-100.5" font-family="Helvetica,sans-Serif" font-size="10.00">Option.OptionSymbol.GetLastDay</text>
<text text-anchor="middle" x="273.5" y="-89.5" font-family="Helvetica,sans-Serif" font-size="10.00">OfTrading</text>
</a>
</g>
</g>
<!-- Node1&#45;&gt;Node3 -->
<g id="edge2" class="edge">
<title>Node1&#45;&gt;Node3</title>
<path fill="none" stroke="midnightblue" d="M145.06,-103C154.06,-103 163.4,-103 172.73,-103"/>
<polygon fill="midnightblue" stroke="midnightblue" points="172.85,-106.5 182.85,-103 172.85,-99.5 172.85,-106.5"/>
</g>
<!-- Node14 -->
<g id="node14" class="node">
<title>Node14</title>
<g id="a_node14"><a xlink:href="classQuantConnect_1_1Symbol.html#a1f3c25223fd9a7b753a4f84ece6469ab" target="_top" xlink:title="Method returns true, if symbol is a derivative canonical symbol">
<polygon fill="white" stroke="black" points="181,-44.5 181,-63.5 366,-63.5 366,-44.5 181,-44.5"/>
<text text-anchor="middle" x="273.5" y="-51.5" font-family="Helvetica,sans-Serif" font-size="10.00">QuantConnect.Symbol.IsCanonical</text>
</a>
</g>
</g>
<!-- Node1&#45;&gt;Node14 -->
<g id="edge13" class="edge">
<title>Node1&#45;&gt;Node14</title>
<path fill="none" stroke="midnightblue" d="M124.71,-87.95C142.47,-82.93 162.55,-77.48 181,-73 191.5,-70.45 202.73,-67.94 213.6,-65.62"/>
<polygon fill="midnightblue" stroke="midnightblue" points="214.39,-69.03 223.45,-63.55 212.95,-62.18 214.39,-69.03"/>
</g>
<!-- Node4 -->
<g id="node4" class="node">
<title>Node4</title>
<g id="a_node4"><a xlink:href="classQuantConnect_1_1Securities_1_1MarketHoursDatabase.html#aa01232d91c17c556b18ea8f1f7fabcd0" target="_top" xlink:title="Gets the instance of the MarketHoursDatabase class produced by reading in the market hours data found...">
<polygon fill="white" stroke="black" points="402,-137.5 402,-178.5 578,-178.5 578,-137.5 402,-137.5"/>
<text text-anchor="start" x="410" y="-166.5" font-family="Helvetica,sans-Serif" font-size="10.00">QuantConnect.Securities.</text>
<text text-anchor="start" x="410" y="-155.5" font-family="Helvetica,sans-Serif" font-size="10.00">MarketHoursDatabase.FromData</text>
<text text-anchor="middle" x="490" y="-144.5" font-family="Helvetica,sans-Serif" font-size="10.00">Folder</text>
</a>
</g>
</g>
<!-- Node3&#45;&gt;Node4 -->
<g id="edge3" class="edge">
<title>Node3&#45;&gt;Node4</title>
<path fill="none" stroke="midnightblue" d="M354.68,-123.56C369.08,-127.25 384.19,-131.12 398.85,-134.88"/>
<polygon fill="midnightblue" stroke="midnightblue" points="398.36,-138.37 408.92,-137.47 400.1,-131.59 398.36,-138.37"/>
</g>
<!-- Node5 -->
<g id="node5" class="node">
<title>Node5</title>
<g id="a_node5"><a xlink:href="classQuantConnect_1_1Securities_1_1MarketHoursDatabase.html#aeac6cf20dbffdbafd258f0d5f4473713" target="_top" xlink:title="Gets the entry for the specified market/symbol/security&#45;type">
<polygon fill="white" stroke="black" points="404.5,-88 404.5,-118 575.5,-118 575.5,-88 404.5,-88"/>
<text text-anchor="start" x="412.5" y="-106" font-family="Helvetica,sans-Serif" font-size="10.00">QuantConnect.Securities.</text>
<text text-anchor="middle" x="490" y="-95" font-family="Helvetica,sans-Serif" font-size="10.00">MarketHoursDatabase.GetEntry</text>
</a>
</g>
</g>
<!-- Node3&#45;&gt;Node5 -->
<g id="edge4" class="edge">
<title>Node3&#45;&gt;Node5</title>
<path fill="none" stroke="midnightblue" d="M364.22,-103C374.11,-103 384.2,-103 394.14,-103"/>
<polygon fill="midnightblue" stroke="midnightblue" points="394.44,-106.5 404.44,-103 394.44,-99.5 394.44,-106.5"/>
</g>
<!-- Node13 -->
<g id="node13" class="node">
<title>Node13</title>
<g id="a_node13"><a xlink:href="classQuantConnect_1_1Securities_1_1Option_1_1OptionSymbol.html#a67479caa555c9b1c103efabf3e7e038c" target="_top" xlink:title="Returns true if the option is a standard contract that expires 3rd Friday of the month">
<polygon fill="white" stroke="black" points="402,-39 402,-69 578,-69 578,-39 402,-39"/>
<text text-anchor="start" x="410" y="-57" font-family="Helvetica,sans-Serif" font-size="10.00">QuantConnect.Securities.</text>
<text text-anchor="middle" x="490" y="-46" font-family="Helvetica,sans-Serif" font-size="10.00">Option.OptionSymbol.IsStandard</text>
</a>
</g>
</g>
<!-- Node3&#45;&gt;Node13 -->
<g id="edge12" class="edge">
<title>Node3&#45;&gt;Node13</title>
<path fill="none" stroke="midnightblue" d="M364.22,-82.5C380.58,-78.77 397.49,-74.9 413.38,-71.27"/>
<polygon fill="midnightblue" stroke="midnightblue" points="414.16,-74.69 423.13,-69.05 412.6,-67.86 414.16,-74.69"/>
</g>
<!-- Node6 -->
<g id="node6" class="node">
<title>Node6</title>
<g id="a_node6"><a xlink:href="classQuantConnect_1_1Logging_1_1Log.html#af0e7955911bc7664b37661b2a303a9e3" target="_top" xlink:title="Log error">
<polygon fill="white" stroke="black" points="631.5,-171 631.5,-201 781.5,-201 781.5,-171 631.5,-171"/>
<text text-anchor="start" x="639.5" y="-189" font-family="Helvetica,sans-Serif" font-size="10.00">QuantConnect.Logging.Log.</text>
<text text-anchor="middle" x="706.5" y="-178" font-family="Helvetica,sans-Serif" font-size="10.00">Error</text>
</a>
</g>
</g>
<!-- Node5&#45;&gt;Node6 -->
<g id="edge5" class="edge">
<title>Node5&#45;&gt;Node6</title>
<path fill="none" stroke="midnightblue" d="M556.02,-118.05C563.65,-120.86 571.15,-124.16 578,-128 596.93,-138.61 595,-150.51 614,-161 618,-163.21 622.21,-165.23 626.53,-167.08"/>
<polygon fill="midnightblue" stroke="midnightblue" points="625.56,-170.46 636.15,-170.87 628.13,-163.95 625.56,-170.46"/>
</g>
<!-- Node8 -->
<g id="node8" class="node">
<title>Node8</title>
<g id="a_node8"><a xlink:href="classQuantConnect_1_1Securities_1_1SymbolPropertiesDatabase.html#aee26fb588793fd311c44eb8b2909cc33" target="_top" xlink:title="Gets the instance of the SymbolPropertiesDatabase class produced by reading in the symbol properties ...">
<polygon fill="white" stroke="black" points="618,-110.5 618,-151.5 795,-151.5 795,-110.5 618,-110.5"/>
<text text-anchor="start" x="626" y="-139.5" font-family="Helvetica,sans-Serif" font-size="10.00">QuantConnect.Securities.</text>
<text text-anchor="start" x="626" y="-128.5" font-family="Helvetica,sans-Serif" font-size="10.00">SymbolPropertiesDatabase.From</text>
<text text-anchor="middle" x="706.5" y="-117.5" font-family="Helvetica,sans-Serif" font-size="10.00">DataFolder</text>
</a>
</g>
</g>
<!-- Node5&#45;&gt;Node8 -->
<g id="edge7" class="edge">
<title>Node5&#45;&gt;Node8</title>
<path fill="none" stroke="midnightblue" d="M575.78,-114.07C586.25,-115.43 597.02,-116.84 607.66,-118.23"/>
<polygon fill="midnightblue" stroke="midnightblue" points="607.45,-121.73 617.82,-119.55 608.36,-114.79 607.45,-121.73"/>
</g>
<!-- Node10 -->
<g id="node10" class="node">
<title>Node10</title>
<g id="a_node10"><a xlink:href="classQuantConnect_1_1Securities_1_1MarketHoursDatabase.html#a3eedd1459368e8f50da2cedfc7508006" target="_top" xlink:title="Tries to get the entry for the specified market/symbol/security&#45;type">
<polygon fill="white" stroke="black" points="614,-61 614,-91 799,-91 799,-61 614,-61"/>
<text text-anchor="start" x="622" y="-79" font-family="Helvetica,sans-Serif" font-size="10.00">QuantConnect.Securities.</text>
<text text-anchor="middle" x="706.5" y="-68" font-family="Helvetica,sans-Serif" font-size="10.00">MarketHoursDatabase.TryGetEntry</text>
</a>
</g>
</g>
<!-- Node5&#45;&gt;Node10 -->
<g id="edge9" class="edge">
<title>Node5&#45;&gt;Node10</title>
<path fill="none" stroke="midnightblue" d="M575.78,-92.33C584.98,-91.17 594.41,-89.98 603.79,-88.8"/>
<polygon fill="midnightblue" stroke="midnightblue" points="604.44,-92.25 613.93,-87.53 603.57,-85.3 604.44,-92.25"/>
</g>
<!-- Node12 -->
<g id="node12" class="node">
<title>Node12</title>
<g id="a_node12"><a xlink:href="classQuantConnect_1_1Securities_1_1SymbolPropertiesDatabase.html#a5a7baeddd03bfc7fb60cef8ab2e6834b" target="_top" xlink:title="Tries to get the market for the provided symbol/security type">
<polygon fill="white" stroke="black" points="623,-0.5 623,-41.5 790,-41.5 790,-0.5 623,-0.5"/>
<text text-anchor="start" x="631" y="-29.5" font-family="Helvetica,sans-Serif" font-size="10.00">QuantConnect.Securities.</text>
<text text-anchor="start" x="631" y="-18.5" font-family="Helvetica,sans-Serif" font-size="10.00">SymbolPropertiesDatabase.Try</text>
<text text-anchor="middle" x="706.5" y="-7.5" font-family="Helvetica,sans-Serif" font-size="10.00">GetMarket</text>
</a>
</g>
</g>
<!-- Node5&#45;&gt;Node12 -->
<g id="edge11" class="edge">
<title>Node5&#45;&gt;Node12</title>
<path fill="none" stroke="midnightblue" d="M553.83,-87.93C562.14,-85.08 570.4,-81.78 578,-78 595.91,-69.09 596.26,-60.24 614,-51 617.67,-49.09 621.49,-47.27 625.38,-45.53"/>
<polygon fill="midnightblue" stroke="midnightblue" points="626.74,-48.76 634.6,-41.66 624.03,-42.31 626.74,-48.76"/>
</g>
<!-- Node7 -->
<g id="node7" class="node">
<title>Node7</title>
<g id="a_node7"><a xlink:href="interfaceQuantConnect_1_1Logging_1_1ILogHandler.html#a35373a0c5d76031fa5ccf5dc39e5c25d" target="_top" xlink:title="Write error message to log">
<polygon fill="white" stroke="black" points="856,-171 856,-201 1006,-201 1006,-171 856,-171"/>
<text text-anchor="start" x="864" y="-189" font-family="Helvetica,sans-Serif" font-size="10.00">QuantConnect.Logging.ILog</text>
<text text-anchor="middle" x="931" y="-178" font-family="Helvetica,sans-Serif" font-size="10.00">Handler.Error</text>
</a>
</g>
</g>
<!-- Node6&#45;&gt;Node7 -->
<g id="edge6" class="edge">
<title>Node6&#45;&gt;Node7</title>
<path fill="none" stroke="midnightblue" d="M781.59,-186C802.12,-186 824.56,-186 845.64,-186"/>
<polygon fill="midnightblue" stroke="midnightblue" points="845.86,-189.5 855.86,-186 845.86,-182.5 845.86,-189.5"/>
</g>
<!-- Node9 -->
<g id="node9" class="node">
<title>Node9</title>
<g id="a_node9"><a xlink:href="classQuantConnect_1_1Securities_1_1SymbolPropertiesDatabase.html#a1658f93bf0dce7022bb7584e1a95cc7a" target="_top" xlink:title="Initialize a new instance of SymbolPropertiesDatabase using the given file">
<polygon fill="white" stroke="black" points="836.5,-110.5 836.5,-151.5 1025.5,-151.5 1025.5,-110.5 836.5,-110.5"/>
<text text-anchor="start" x="844.5" y="-139.5" font-family="Helvetica,sans-Serif" font-size="10.00">QuantConnect.Securities.</text>
<text text-anchor="start" x="844.5" y="-128.5" font-family="Helvetica,sans-Serif" font-size="10.00">SymbolPropertiesDatabase.Symbol</text>
<text text-anchor="middle" x="931" y="-117.5" font-family="Helvetica,sans-Serif" font-size="10.00">PropertiesDatabase</text>
</a>
</g>
</g>
<!-- Node8&#45;&gt;Node9 -->
<g id="edge8" class="edge">
<title>Node8&#45;&gt;Node9</title>
<path fill="none" stroke="midnightblue" d="M795.12,-131C805.24,-131 815.64,-131 825.95,-131"/>
<polygon fill="midnightblue" stroke="midnightblue" points="826.23,-134.5 836.23,-131 826.23,-127.5 826.23,-134.5"/>
</g>
<!-- Node11 -->
<g id="node11" class="node">
<title>Node11</title>
<g id="a_node11"><a xlink:href="classQuantConnect_1_1Securities_1_1MarketHoursDatabase.html#aa717adb9bb04be931913608ffd5a2733" target="_top" xlink:title="Gets the correct string symbol to use as a database key">
<polygon fill="white" stroke="black" points="835,-50.5 835,-91.5 1027,-91.5 1027,-50.5 835,-50.5"/>
<text text-anchor="start" x="843" y="-79.5" font-family="Helvetica,sans-Serif" font-size="10.00">QuantConnect.Securities.</text>
<text text-anchor="start" x="843" y="-68.5" font-family="Helvetica,sans-Serif" font-size="10.00">MarketHoursDatabase.GetDatabase</text>
<text text-anchor="middle" x="931" y="-57.5" font-family="Helvetica,sans-Serif" font-size="10.00">SymbolKey</text>
</a>
</g>
</g>
<!-- Node10&#45;&gt;Node11 -->
<g id="edge10" class="edge">
<title>Node10&#45;&gt;Node11</title>
<path fill="none" stroke="midnightblue" d="M799.28,-73.94C807.62,-73.75 816.11,-73.56 824.56,-73.37"/>
<polygon fill="midnightblue" stroke="midnightblue" points="824.91,-76.86 834.83,-73.14 824.75,-69.86 824.91,-76.86"/>
</g>
</g>
</svg>
