<?xml version="1.0" encoding="UTF-8" standalone="no"?>
<!DOCTYPE svg PUBLIC "-//W3C//DTD SVG 1.1//EN"
 "http://www.w3.org/Graphics/SVG/1.1/DTD/svg11.dtd">
<!-- Generated by graphviz version 2.43.0 (0)
 -->
<!-- Title: QuantConnect.Data.BaseData.Update Pages: 1 -->
<svg width="374pt" height="186pt"
 viewBox="0.00 0.00 374.00 186.00" xmlns="http://www.w3.org/2000/svg" xmlns:xlink="http://www.w3.org/1999/xlink">
<g id="graph0" class="graph" transform="scale(1 1) rotate(0) translate(4 182)">
<title>QuantConnect.Data.BaseData.Update</title>
<polygon fill="white" stroke="transparent" points="-4,4 -4,-182 370,-182 370,4 -4,4"/>
<!-- Node1 -->
<g id="node1" class="node">
<title>Node1</title>
<g id="a_node1"><a xlink:title="Update routine to build a bar/tick from a data update.">
<polygon fill="#bfbfbf" stroke="black" points="201,-73.5 201,-103.5 366,-103.5 366,-73.5 201,-73.5"/>
<text text-anchor="start" x="209" y="-91.5" font-family="Helvetica,sans-Serif" font-size="10.00">QuantConnect.Data.BaseData.</text>
<text text-anchor="middle" x="283.5" y="-80.5" font-family="Helvetica,sans-Serif" font-size="10.00">Update</text>
</a>
</g>
</g>
<!-- Node2 -->
<g id="node2" class="node">
<title>Node2</title>
<g id="a_node2"><a xlink:href="classQuantConnect_1_1Data_1_1BaseData.html#a7a42a5043c20dfa99b6af16588c1beed" target="_top" xlink:title="Updates this base data with the new quote ask information">
<polygon fill="white" stroke="black" points="0,-147.5 0,-177.5 165,-177.5 165,-147.5 0,-147.5"/>
<text text-anchor="start" x="8" y="-165.5" font-family="Helvetica,sans-Serif" font-size="10.00">QuantConnect.Data.BaseData.</text>
<text text-anchor="middle" x="82.5" y="-154.5" font-family="Helvetica,sans-Serif" font-size="10.00">UpdateAsk</text>
</a>
</g>
</g>
<!-- Node1&#45;&gt;Node2 -->
<g id="edge1" class="edge">
<title>Node1&#45;&gt;Node2</title>
<path fill="none" stroke="midnightblue" d="M240.82,-107.63C218.57,-117.49 190.56,-129.33 165,-138.5 156.25,-141.64 146.88,-144.68 137.71,-147.49"/>
<polygon fill="midnightblue" stroke="midnightblue" points="242.28,-110.81 249.98,-103.54 239.42,-104.42 242.28,-110.81"/>
</g>
<!-- Node3 -->
<g id="node3" class="node">
<title>Node3</title>
<g id="a_node3"><a xlink:href="classQuantConnect_1_1Data_1_1BaseData.html#add8b7ba672a8002ceb8103ebb12d2884" target="_top" xlink:title="Updates this base data with the new quote bid information">
<polygon fill="white" stroke="black" points="0,-98.5 0,-128.5 165,-128.5 165,-98.5 0,-98.5"/>
<text text-anchor="start" x="8" y="-116.5" font-family="Helvetica,sans-Serif" font-size="10.00">QuantConnect.Data.BaseData.</text>
<text text-anchor="middle" x="82.5" y="-105.5" font-family="Helvetica,sans-Serif" font-size="10.00">UpdateBid</text>
</a>
</g>
</g>
<!-- Node1&#45;&gt;Node3 -->
<g id="edge2" class="edge">
<title>Node1&#45;&gt;Node3</title>
<path fill="none" stroke="midnightblue" d="M190.96,-100C182.37,-101.08 173.7,-102.17 165.21,-103.23"/>
<polygon fill="midnightblue" stroke="midnightblue" points="191.5,-103.46 200.98,-98.74 190.63,-96.51 191.5,-103.46"/>
</g>
<!-- Node4 -->
<g id="node4" class="node">
<title>Node4</title>
<g id="a_node4"><a xlink:href="classQuantConnect_1_1Data_1_1BaseData.html#a15ddd451f8ab830aab34e707a16a85c1" target="_top" xlink:title="Updates this base data with new quote information">
<polygon fill="white" stroke="black" points="0,-49.5 0,-79.5 165,-79.5 165,-49.5 0,-49.5"/>
<text text-anchor="start" x="8" y="-67.5" font-family="Helvetica,sans-Serif" font-size="10.00">QuantConnect.Data.BaseData.</text>
<text text-anchor="middle" x="82.5" y="-56.5" font-family="Helvetica,sans-Serif" font-size="10.00">UpdateQuote</text>
</a>
</g>
</g>
<!-- Node1&#45;&gt;Node4 -->
<g id="edge3" class="edge">
<title>Node1&#45;&gt;Node4</title>
<path fill="none" stroke="midnightblue" d="M190.96,-77.46C182.37,-76.42 173.7,-75.38 165.21,-74.35"/>
<polygon fill="midnightblue" stroke="midnightblue" points="190.64,-80.95 200.98,-78.67 191.48,-74 190.64,-80.95"/>
</g>
<!-- Node5 -->
<g id="node5" class="node">
<title>Node5</title>
<g id="a_node5"><a xlink:href="classQuantConnect_1_1Data_1_1BaseData.html#a9759d79285c0062149c7dbf5264afc49" target="_top" xlink:title="Updates this base data with a new trade">
<polygon fill="white" stroke="black" points="0,-0.5 0,-30.5 165,-30.5 165,-0.5 0,-0.5"/>
<text text-anchor="start" x="8" y="-18.5" font-family="Helvetica,sans-Serif" font-size="10.00">QuantConnect.Data.BaseData.</text>
<text text-anchor="middle" x="82.5" y="-7.5" font-family="Helvetica,sans-Serif" font-size="10.00">UpdateTrade</text>
</a>
</g>
</g>
<!-- Node1&#45;&gt;Node5 -->
<g id="edge4" class="edge">
<title>Node1&#45;&gt;Node5</title>
<path fill="none" stroke="midnightblue" d="M238.73,-69.52C216.78,-60.29 189.68,-49.31 165,-40.5 155.38,-37.07 145.03,-33.67 135.03,-30.54"/>
<polygon fill="midnightblue" stroke="midnightblue" points="237.54,-72.82 248.11,-73.49 240.27,-66.37 237.54,-72.82"/>
</g>
</g>
</svg>
