<?xml version="1.0" encoding="UTF-8" standalone="no"?>
<!DOCTYPE svg PUBLIC "-//W3C//DTD SVG 1.1//EN"
 "http://www.w3.org/Graphics/SVG/1.1/DTD/svg11.dtd">
<!-- Generated by graphviz version 2.43.0 (0)
 -->
<!-- Title: QuantConnect.Lean.Engine.Storage.FileHandler.CreateDirectory Pages: 1 -->
<svg width="435pt" height="88pt"
 viewBox="0.00 0.00 435.00 88.00" xmlns="http://www.w3.org/2000/svg" xmlns:xlink="http://www.w3.org/1999/xlink">
<g id="graph0" class="graph" transform="scale(1 1) rotate(0) translate(4 84)">
<title>QuantConnect.Lean.Engine.Storage.FileHandler.CreateDirectory</title>
<polygon fill="white" stroke="transparent" points="-4,4 -4,-84 431,-84 431,4 -4,4"/>
<!-- Node1 -->
<g id="node1" class="node">
<title>Node1</title>
<g id="a_node1"><a xlink:title="Create the requested directory path">
<polygon fill="#bfbfbf" stroke="black" points="235,-24.5 235,-54.5 427,-54.5 427,-24.5 235,-24.5"/>
<text text-anchor="start" x="243" y="-42.5" font-family="Helvetica,sans-Serif" font-size="10.00">QuantConnect.Lean.Engine.</text>
<text text-anchor="middle" x="331" y="-31.5" font-family="Helvetica,sans-Serif" font-size="10.00">Storage.FileHandler.CreateDirectory</text>
</a>
</g>
</g>
<!-- Node2 -->
<g id="node2" class="node">
<title>Node2</title>
<g id="a_node2"><a xlink:href="classQuantConnect_1_1Lean_1_1Engine_1_1Storage_1_1LocalObjectStore.html#ab3fb265fac0cbcba5e7a179a71d31df0" target="_top" xlink:title="Initializes the object store">
<polygon fill="white" stroke="black" points="7,-49.5 7,-79.5 192,-79.5 192,-49.5 7,-49.5"/>
<text text-anchor="start" x="15" y="-67.5" font-family="Helvetica,sans-Serif" font-size="10.00">QuantConnect.Lean.Engine.</text>
<text text-anchor="middle" x="99.5" y="-56.5" font-family="Helvetica,sans-Serif" font-size="10.00">Storage.LocalObjectStore.Initialize</text>
</a>
</g>
</g>
<!-- Node1&#45;&gt;Node2 -->
<g id="edge1" class="edge">
<title>Node1&#45;&gt;Node2</title>
<path fill="none" stroke="midnightblue" d="M224.97,-50.94C214,-52.14 202.91,-53.34 192.11,-54.52"/>
<polygon fill="midnightblue" stroke="midnightblue" points="225.43,-54.41 235,-49.85 224.68,-47.45 225.43,-54.41"/>
</g>
<!-- Node3 -->
<g id="node3" class="node">
<title>Node3</title>
<g id="a_node3"><a xlink:href="classQuantConnect_1_1Lean_1_1Engine_1_1Storage_1_1LocalObjectStore.html#ad996578710d9cce84fc9af79d6ee86cb" target="_top" xlink:title="Overridable persistence function">
<polygon fill="white" stroke="black" points="0,-0.5 0,-30.5 199,-30.5 199,-0.5 0,-0.5"/>
<text text-anchor="start" x="8" y="-18.5" font-family="Helvetica,sans-Serif" font-size="10.00">QuantConnect.Lean.Engine.</text>
<text text-anchor="middle" x="99.5" y="-7.5" font-family="Helvetica,sans-Serif" font-size="10.00">Storage.LocalObjectStore.PersistData</text>
</a>
</g>
</g>
<!-- Node1&#45;&gt;Node3 -->
<g id="edge2" class="edge">
<title>Node1&#45;&gt;Node3</title>
<path fill="none" stroke="midnightblue" d="M224.95,-28.51C216.36,-27.62 207.69,-26.71 199.14,-25.82"/>
<polygon fill="midnightblue" stroke="midnightblue" points="224.69,-32.01 235,-29.57 225.42,-25.04 224.69,-32.01"/>
</g>
</g>
</svg>
