<?xml version="1.0" encoding="UTF-8" standalone="no"?>
<!DOCTYPE svg PUBLIC "-//W3C//DTD SVG 1.1//EN"
 "http://www.w3.org/Graphics/SVG/1.1/DTD/svg11.dtd">
<!-- Generated by graphviz version 2.43.0 (0)
 -->
<!-- Title: QuantConnect.Securities.Security.GetLastData Pages: 1 -->
<!--zoomable 578 -->
<svg id="main" version="1.1" xmlns="http://www.w3.org/2000/svg" xmlns:xlink="http://www.w3.org/1999/xlink" xml:space="preserve" onload="init(evt)">
<style type="text/css"><![CDATA[
.edge:hover path { stroke: red; }
.edge:hover polygon { stroke: red; fill: red; }
]]></style>
<script type="text/javascript"><![CDATA[
var edges = document.getElementsByTagName('g');
if (edges && edges.length) {
  for (var i=0;i<edges.length;i++) {
    if (edges[i].id.substr(0,4)=='edge') {
      edges[i].setAttribute('class','edge');
    }
  }
}
]]></script>
        <defs>
                <circle id="rim" cx="0" cy="0" r="7"/>
                <circle id="rim2" cx="0" cy="0" r="3.5"/>
                <g id="zoomPlus">
                        <use xlink:href="#rim" fill="#404040">
                                <set attributeName="fill" to="#808080" begin="zoomplus.mouseover" end="zoomplus.mouseout"/>
                        </use>
                        <path d="M-4,0h8M0,-4v8" fill="none" stroke="white" stroke-width="1.5" pointer-events="none"/>
                </g>
                <g id="zoomMin">
                        <use xlink:href="#rim" fill="#404040">
                                <set attributeName="fill" to="#808080" begin="zoomminus.mouseover" end="zoomminus.mouseout"/>
                        </use>
                        <path d="M-4,0h8" fill="none" stroke="white" stroke-width="1.5" pointer-events="none"/>
                </g>
                <g id="dirArrow">
                        <path fill="none" stroke="white" stroke-width="1.5" d="M0,-3.0v7 M-2.5,-0.5L0,-3.0L2.5,-0.5"/>
                </g>
               <g id="resetDef">
                       <use xlink:href="#rim2" fill="#404040">
                               <set attributeName="fill" to="#808080" begin="reset.mouseover" end="reset.mouseout"/>
                       </use>
               </g>
        </defs>

<script type="text/javascript">
var viewWidth = 838;
var viewHeight = 578;
var sectionId = 'dynsection-1';
</script>
<script xlink:href="svgpan.js"/>
<svg id="graph" class="graph">
<g id="viewport">
<title>QuantConnect.Securities.Security.GetLastData</title>
<polygon fill="white" stroke="transparent" points="-4,4 -4,-574 834,-574 834,4 -4,4"/>
<!-- Node1 -->
<g id="node1" class="node">
<title>Node1</title>
<g id="a_node1"><a xlink:title="Get the last price update set to the security if any else null">
<polygon fill="#bfbfbf" stroke="black" points="690,-368.5 690,-398.5 830,-398.5 830,-368.5 690,-368.5"/>
<text text-anchor="start" x="698" y="-386.5" font-family="Helvetica,sans-Serif" font-size="10.00">QuantConnect.Securities.</text>
<text text-anchor="middle" x="760" y="-375.5" font-family="Helvetica,sans-Serif" font-size="10.00">Security.GetLastData</text>
</a>
</g>
</g>
<!-- Node2 -->
<g id="node2" class="node">
<title>Node2</title>
<g id="a_node2"><a xlink:href="classQuantConnect_1_1Securities_1_1SecurityPortfolioManager.html#a808f4e2619ea3f081dbe17e44c6015d7" target="_top" xlink:title="Applies a split to the portfolio">
<polygon fill="white" stroke="black" points="448.5,-538.5 448.5,-568.5 640.5,-568.5 640.5,-538.5 448.5,-538.5"/>
<text text-anchor="start" x="456.5" y="-556.5" font-family="Helvetica,sans-Serif" font-size="10.00">QuantConnect.Securities.</text>
<text text-anchor="middle" x="544.5" y="-545.5" font-family="Helvetica,sans-Serif" font-size="10.00">SecurityPortfolioManager.ApplySplit</text>
</a>
</g>
</g>
<!-- Node1&#45;&gt;Node2 -->
<g id="edge1" class="edge">
<title>Node1&#45;&gt;Node2</title>
<path fill="none" stroke="midnightblue" d="M747.87,-408.15C731.88,-440.68 699.26,-497.33 654,-527.5 647.47,-531.85 640.29,-535.48 632.84,-538.5"/>
<polygon fill="midnightblue" stroke="midnightblue" points="751.14,-409.42 752.3,-398.89 744.83,-406.4 751.14,-409.42"/>
</g>
<!-- Node5 -->
<g id="node5" class="node">
<title>Node5</title>
<g id="a_node5"><a xlink:href="classQuantConnect_1_1Brokerages_1_1TradierBrokerageModel.html#a16fcd860e1d830e23658480625c26c2e" target="_top" xlink:title="Returns true if the brokerage would be able to execute this order at this time assuming market prices...">
<polygon fill="white" stroke="black" points="436.5,-487.5 436.5,-517.5 652.5,-517.5 652.5,-487.5 436.5,-487.5"/>
<text text-anchor="start" x="444.5" y="-505.5" font-family="Helvetica,sans-Serif" font-size="10.00">QuantConnect.Brokerages.</text>
<text text-anchor="middle" x="544.5" y="-494.5" font-family="Helvetica,sans-Serif" font-size="10.00">TradierBrokerageModel.CanExecuteOrder</text>
</a>
</g>
</g>
<!-- Node1&#45;&gt;Node5 -->
<g id="edge4" class="edge">
<title>Node1&#45;&gt;Node5</title>
<path fill="none" stroke="midnightblue" d="M738.64,-405.95C718.9,-426.42 687.15,-456.03 654,-473.5 643.3,-479.13 631.43,-483.74 619.56,-487.49"/>
<polygon fill="midnightblue" stroke="midnightblue" points="741.27,-408.27 745.6,-398.6 736.18,-403.46 741.27,-408.27"/>
</g>
<!-- Node7 -->
<g id="node7" class="node">
<title>Node7</title>
<g id="a_node7"><a xlink:href="classQuantConnect_1_1Orders_1_1Slippage_1_1AlphaStreamsSlippageModel.html#a57c2e1b207a22dafa535c29c6dbe3ea1" target="_top" xlink:title="Return a decimal cash slippage approximation on the order.">
<polygon fill="white" stroke="black" points="435,-423 435,-464 654,-464 654,-423 435,-423"/>
<text text-anchor="start" x="443" y="-452" font-family="Helvetica,sans-Serif" font-size="10.00">QuantConnect.Orders.Slippage.</text>
<text text-anchor="start" x="443" y="-441" font-family="Helvetica,sans-Serif" font-size="10.00">AlphaStreamsSlippageModel.GetSlippage</text>
<text text-anchor="middle" x="544.5" y="-430" font-family="Helvetica,sans-Serif" font-size="10.00">Approximation</text>
</a>
</g>
</g>
<!-- Node1&#45;&gt;Node7 -->
<g id="edge6" class="edge">
<title>Node1&#45;&gt;Node7</title>
<path fill="none" stroke="midnightblue" d="M697.05,-401.3C682.91,-405.33 667.94,-409.58 654,-413.5 643.09,-416.57 631.55,-419.78 620.23,-422.93"/>
<polygon fill="midnightblue" stroke="midnightblue" points="698.03,-404.65 706.68,-398.54 696.11,-397.92 698.03,-404.65"/>
</g>
<!-- Node8 -->
<g id="node8" class="node">
<title>Node8</title>
<g id="a_node8"><a xlink:href="classQuantConnect_1_1Orders_1_1Slippage_1_1ConstantSlippageModel.html#ac2cf0aa1ddfe8368608c8ee2ed31429a" target="_top" xlink:title="Slippage Model. Return a decimal cash slippage approximation on the order.">
<polygon fill="white" stroke="black" points="447.5,-363 447.5,-404 641.5,-404 641.5,-363 447.5,-363"/>
<text text-anchor="start" x="455.5" y="-392" font-family="Helvetica,sans-Serif" font-size="10.00">QuantConnect.Orders.Slippage.</text>
<text text-anchor="start" x="455.5" y="-381" font-family="Helvetica,sans-Serif" font-size="10.00">ConstantSlippageModel.GetSlippage</text>
<text text-anchor="middle" x="544.5" y="-370" font-family="Helvetica,sans-Serif" font-size="10.00">Approximation</text>
</a>
</g>
</g>
<!-- Node1&#45;&gt;Node8 -->
<g id="edge7" class="edge">
<title>Node1&#45;&gt;Node8</title>
<path fill="none" stroke="midnightblue" d="M679.75,-383.5C667.4,-383.5 654.53,-383.5 641.86,-383.5"/>
<polygon fill="midnightblue" stroke="midnightblue" points="679.98,-387 689.98,-383.5 679.98,-380 679.98,-387"/>
</g>
<!-- Node9 -->
<g id="node9" class="node">
<title>Node9</title>
<g id="a_node9"><a xlink:href="classQuantConnect_1_1Orders_1_1Slippage_1_1VolumeShareSlippageModel.html#add01575aca23e05cbaffe50285393f81" target="_top" xlink:title="Slippage Model. Return a decimal cash slippage approximation on the order.">
<polygon fill="white" stroke="black" points="437,-303 437,-344 652,-344 652,-303 437,-303"/>
<text text-anchor="start" x="445" y="-332" font-family="Helvetica,sans-Serif" font-size="10.00">QuantConnect.Orders.Slippage.</text>
<text text-anchor="start" x="445" y="-321" font-family="Helvetica,sans-Serif" font-size="10.00">VolumeShareSlippageModel.GetSlippage</text>
<text text-anchor="middle" x="544.5" y="-310" font-family="Helvetica,sans-Serif" font-size="10.00">Approximation</text>
</a>
</g>
</g>
<!-- Node1&#45;&gt;Node9 -->
<g id="edge8" class="edge">
<title>Node1&#45;&gt;Node9</title>
<path fill="none" stroke="midnightblue" d="M697.05,-365.7C682.91,-361.67 667.94,-357.42 654,-353.5 643.09,-350.43 631.55,-347.22 620.23,-344.07"/>
<polygon fill="midnightblue" stroke="midnightblue" points="696.11,-369.08 706.68,-368.46 698.03,-362.35 696.11,-369.08"/>
</g>
<!-- Node10 -->
<g id="node10" class="node">
<title>Node10</title>
<g id="a_node10"><a xlink:href="classQuantConnect_1_1Orders_1_1Fills_1_1FillModel.html#acc205b791cf6a99fa989502aff6b53b8" target="_top" xlink:title="Determines if the exchange is open using the current time of the asset">
<polygon fill="white" stroke="black" points="471.5,-246.5 471.5,-276.5 617.5,-276.5 617.5,-246.5 471.5,-246.5"/>
<text text-anchor="start" x="479.5" y="-264.5" font-family="Helvetica,sans-Serif" font-size="10.00">QuantConnect.Orders.Fills.</text>
<text text-anchor="middle" x="544.5" y="-253.5" font-family="Helvetica,sans-Serif" font-size="10.00">FillModel.IsExchangeOpen</text>
</a>
</g>
</g>
<!-- Node1&#45;&gt;Node10 -->
<g id="edge9" class="edge">
<title>Node1&#45;&gt;Node10</title>
<path fill="none" stroke="midnightblue" d="M738.2,-360.89C718.37,-340.58 686.74,-311.29 654,-293.5 641.23,-286.56 626.78,-280.96 612.68,-276.5"/>
<polygon fill="midnightblue" stroke="midnightblue" points="735.76,-363.4 745.2,-368.2 740.81,-358.56 735.76,-363.4"/>
</g>
<!-- Node20 -->
<g id="node20" class="node">
<title>Node20</title>
<g id="a_node20"><a xlink:href="classQuantConnect_1_1Orders_1_1Fills_1_1FillModel.html#ad6b2c831ede0fe9358c0310ba05e1290" target="_top" xlink:title="Market on Open Fill Model. Return an order event with the fill details">
<polygon fill="white" stroke="black" points="469,-99.5 469,-129.5 620,-129.5 620,-99.5 469,-99.5"/>
<text text-anchor="start" x="477" y="-117.5" font-family="Helvetica,sans-Serif" font-size="10.00">QuantConnect.Orders.Fills.</text>
<text text-anchor="middle" x="544.5" y="-106.5" font-family="Helvetica,sans-Serif" font-size="10.00">FillModel.MarketOnOpenFill</text>
</a>
</g>
</g>
<!-- Node1&#45;&gt;Node20 -->
<g id="edge19" class="edge">
<title>Node1&#45;&gt;Node20</title>
<path fill="none" stroke="midnightblue" d="M743.07,-359.85C723.07,-330.53 687.34,-279.31 654,-237.5 621.87,-197.2 580.93,-152.4 559.71,-129.61"/>
<polygon fill="midnightblue" stroke="midnightblue" points="740.23,-361.91 748.75,-368.21 746.02,-357.98 740.23,-361.91"/>
</g>
<!-- Node3 -->
<g id="node3" class="node">
<title>Node3</title>
<g id="a_node3"><a xlink:href="classQuantConnect_1_1Lean_1_1Engine_1_1AlgorithmManager.html#ab1723b951a86a876c7ae3cc7281365f3" target="_top" xlink:title="Helper method to apply a split to an algorithm instance">
<polygon fill="white" stroke="black" points="207.5,-539.5 207.5,-569.5 378.5,-569.5 378.5,-539.5 207.5,-539.5"/>
<text text-anchor="start" x="215.5" y="-557.5" font-family="Helvetica,sans-Serif" font-size="10.00">QuantConnect.Lean.Engine.</text>
<text text-anchor="middle" x="293" y="-546.5" font-family="Helvetica,sans-Serif" font-size="10.00">AlgorithmManager.HandleSplits</text>
</a>
</g>
</g>
<!-- Node2&#45;&gt;Node3 -->
<g id="edge2" class="edge">
<title>Node2&#45;&gt;Node3</title>
<path fill="none" stroke="midnightblue" d="M438.41,-553.92C418.44,-554 397.79,-554.08 378.56,-554.16"/>
<polygon fill="midnightblue" stroke="midnightblue" points="438.48,-557.42 448.46,-553.88 438.45,-550.42 438.48,-557.42"/>
</g>
<!-- Node4 -->
<g id="node4" class="node">
<title>Node4</title>
<g id="a_node4"><a xlink:href="classQuantConnect_1_1Lean_1_1Engine_1_1AlgorithmManager.html#a5ba2600e7fa0469346ee8841fa0e32f8" target="_top" xlink:title="Launch the algorithm manager to run this strategy">
<polygon fill="white" stroke="black" points="0,-539.5 0,-569.5 151,-569.5 151,-539.5 0,-539.5"/>
<text text-anchor="start" x="8" y="-557.5" font-family="Helvetica,sans-Serif" font-size="10.00">QuantConnect.Lean.Engine.</text>
<text text-anchor="middle" x="75.5" y="-546.5" font-family="Helvetica,sans-Serif" font-size="10.00">AlgorithmManager.Run</text>
</a>
</g>
</g>
<!-- Node3&#45;&gt;Node4 -->
<g id="edge3" class="edge">
<title>Node3&#45;&gt;Node4</title>
<path fill="none" stroke="midnightblue" d="M197.32,-554.5C181.82,-554.5 165.94,-554.5 151.01,-554.5"/>
<polygon fill="midnightblue" stroke="midnightblue" points="197.45,-558 207.45,-554.5 197.45,-551 197.45,-558"/>
</g>
<!-- Node6 -->
<g id="node6" class="node">
<title>Node6</title>
<g id="a_node6"><a xlink:href="classQuantConnect_1_1Brokerages_1_1TradierBrokerageModel.html#a5cafb36dfeec2e93a72842cc12ee9ec3" target="_top" xlink:title="Returns true if the brokerage could accept this order. This takes into account order type,...">
<polygon fill="white" stroke="black" points="187,-490.5 187,-520.5 399,-520.5 399,-490.5 187,-490.5"/>
<text text-anchor="start" x="195" y="-508.5" font-family="Helvetica,sans-Serif" font-size="10.00">QuantConnect.Brokerages.</text>
<text text-anchor="middle" x="293" y="-497.5" font-family="Helvetica,sans-Serif" font-size="10.00">TradierBrokerageModel.CanSubmitOrder</text>
</a>
</g>
</g>
<!-- Node5&#45;&gt;Node6 -->
<g id="edge5" class="edge">
<title>Node5&#45;&gt;Node6</title>
<path fill="none" stroke="midnightblue" d="M426.12,-503.91C417.13,-504.02 408.09,-504.13 399.19,-504.24"/>
<polygon fill="midnightblue" stroke="midnightblue" points="426.28,-507.41 436.24,-503.79 426.2,-500.41 426.28,-507.41"/>
</g>
<!-- Node11 -->
<g id="node11" class="node">
<title>Node11</title>
<g id="a_node11"><a xlink:href="classQuantConnect_1_1Orders_1_1Fills_1_1EquityFillModel.html#a26bd9d6ef294e705ff15aea24f41cb75" target="_top" xlink:title="Limit fill model implementation for Equity.">
<polygon fill="white" stroke="black" points="220,-441.5 220,-471.5 366,-471.5 366,-441.5 220,-441.5"/>
<text text-anchor="start" x="228" y="-459.5" font-family="Helvetica,sans-Serif" font-size="10.00">QuantConnect.Orders.Fills.</text>
<text text-anchor="middle" x="293" y="-448.5" font-family="Helvetica,sans-Serif" font-size="10.00">EquityFillModel.LimitFill</text>
</a>
</g>
</g>
<!-- Node10&#45;&gt;Node11 -->
<g id="edge10" class="edge">
<title>Node10&#45;&gt;Node11</title>
<path fill="none" stroke="midnightblue" d="M462.04,-275.22C451.97,-279.72 442.58,-285.66 435,-293.5 390.63,-339.37 444.77,-388.03 399,-432.5 389.95,-441.3 378.37,-447.12 366.23,-450.93"/>
<polygon fill="midnightblue" stroke="midnightblue" points="463.44,-278.43 471.44,-271.48 460.85,-271.93 463.44,-278.43"/>
</g>
<!-- Node12 -->
<g id="node12" class="node">
<title>Node12</title>
<g id="a_node12"><a xlink:href="classQuantConnect_1_1Orders_1_1Fills_1_1EquityFillModel.html#a9ece28ffc288b6632dc301189fe60a70" target="_top" xlink:title="Default limit if touched fill model implementation in base class security.">
<polygon fill="white" stroke="black" points="203,-392.5 203,-422.5 383,-422.5 383,-392.5 203,-392.5"/>
<text text-anchor="start" x="211" y="-410.5" font-family="Helvetica,sans-Serif" font-size="10.00">QuantConnect.Orders.Fills.</text>
<text text-anchor="middle" x="293" y="-399.5" font-family="Helvetica,sans-Serif" font-size="10.00">EquityFillModel.LimitIfTouchedFill</text>
</a>
</g>
</g>
<!-- Node10&#45;&gt;Node12 -->
<g id="edge11" class="edge">
<title>Node10&#45;&gt;Node12</title>
<path fill="none" stroke="midnightblue" d="M461.78,-276.63C452,-280.93 442.76,-286.44 435,-293.5 403.14,-322.5 431.74,-355.5 399,-383.5 394.17,-387.63 388.77,-391.09 383.03,-393.98"/>
<polygon fill="midnightblue" stroke="midnightblue" points="463.27,-279.81 471.28,-272.87 460.69,-273.3 463.27,-279.81"/>
</g>
<!-- Node13 -->
<g id="node13" class="node">
<title>Node13</title>
<g id="a_node13"><a xlink:href="classQuantConnect_1_1Orders_1_1Fills_1_1FutureFillModel.html#a7bc1214a98a1f4ef4920db58e1d3af15" target="_top" xlink:title="Default market fill model for the base security class. Fills at the last traded price.">
<polygon fill="white" stroke="black" points="220,-343.5 220,-373.5 366,-373.5 366,-343.5 220,-343.5"/>
<text text-anchor="start" x="228" y="-361.5" font-family="Helvetica,sans-Serif" font-size="10.00">QuantConnect.Orders.Fills.</text>
<text text-anchor="middle" x="293" y="-350.5" font-family="Helvetica,sans-Serif" font-size="10.00">FutureFillModel.MarketFill</text>
</a>
</g>
</g>
<!-- Node10&#45;&gt;Node13 -->
<g id="edge12" class="edge">
<title>Node10&#45;&gt;Node13</title>
<path fill="none" stroke="midnightblue" d="M461.8,-280.07C452.41,-283.79 443.25,-288.23 435,-293.5 414.56,-306.56 419.83,-322.08 399,-334.5 388.96,-340.48 377.57,-344.98 366.07,-348.35"/>
<polygon fill="midnightblue" stroke="midnightblue" points="463.08,-283.33 471.25,-276.59 460.66,-276.76 463.08,-283.33"/>
</g>
<!-- Node14 -->
<g id="node14" class="node">
<title>Node14</title>
<g id="a_node14"><a xlink:href="classQuantConnect_1_1Orders_1_1Fills_1_1EquityFillModel.html#a7f02ae71a851b7be45d65da18127b978" target="_top" xlink:title="Default market fill model for the base security class. Fills at the last traded price.">
<polygon fill="white" stroke="black" points="220,-294.5 220,-324.5 366,-324.5 366,-294.5 220,-294.5"/>
<text text-anchor="start" x="228" y="-312.5" font-family="Helvetica,sans-Serif" font-size="10.00">QuantConnect.Orders.Fills.</text>
<text text-anchor="middle" x="293" y="-301.5" font-family="Helvetica,sans-Serif" font-size="10.00">EquityFillModel.MarketFill</text>
</a>
</g>
</g>
<!-- Node10&#45;&gt;Node14 -->
<g id="edge13" class="edge">
<title>Node10&#45;&gt;Node14</title>
<path fill="none" stroke="midnightblue" d="M461.47,-277.28C430.64,-283.21 395.85,-289.9 366,-295.65"/>
<polygon fill="midnightblue" stroke="midnightblue" points="462.18,-280.71 471.33,-275.38 460.85,-273.84 462.18,-280.71"/>
</g>
<!-- Node15 -->
<g id="node15" class="node">
<title>Node15</title>
<g id="a_node15"><a xlink:href="classQuantConnect_1_1Orders_1_1Fills_1_1EquityFillModel.html#aca188cd71e166416b2dc8b39b9c10311" target="_top" xlink:title="Market on Close Fill Model. Return an order event with the fill details">
<polygon fill="white" stroke="black" points="201.5,-245.5 201.5,-275.5 384.5,-275.5 384.5,-245.5 201.5,-245.5"/>
<text text-anchor="start" x="209.5" y="-263.5" font-family="Helvetica,sans-Serif" font-size="10.00">QuantConnect.Orders.Fills.</text>
<text text-anchor="middle" x="293" y="-252.5" font-family="Helvetica,sans-Serif" font-size="10.00">EquityFillModel.MarketOnCloseFill</text>
</a>
</g>
</g>
<!-- Node10&#45;&gt;Node15 -->
<g id="edge14" class="edge">
<title>Node10&#45;&gt;Node15</title>
<path fill="none" stroke="midnightblue" d="M461.01,-261.17C436.54,-261.07 409.62,-260.96 384.66,-260.86"/>
<polygon fill="midnightblue" stroke="midnightblue" points="461.32,-264.67 471.33,-261.21 461.35,-257.67 461.32,-264.67"/>
</g>
<!-- Node16 -->
<g id="node16" class="node">
<title>Node16</title>
<g id="a_node16"><a xlink:href="classQuantConnect_1_1Orders_1_1Fills_1_1EquityFillModel.html#a2cc8fb9eafec5a645f7901a20b6c0594" target="_top" xlink:title="Market on Open Fill Model. Return an order event with the fill details">
<polygon fill="white" stroke="black" points="202,-196.5 202,-226.5 384,-226.5 384,-196.5 202,-196.5"/>
<text text-anchor="start" x="210" y="-214.5" font-family="Helvetica,sans-Serif" font-size="10.00">QuantConnect.Orders.Fills.</text>
<text text-anchor="middle" x="293" y="-203.5" font-family="Helvetica,sans-Serif" font-size="10.00">EquityFillModel.MarketOnOpenFill</text>
</a>
</g>
</g>
<!-- Node10&#45;&gt;Node16 -->
<g id="edge15" class="edge">
<title>Node10&#45;&gt;Node16</title>
<path fill="none" stroke="midnightblue" d="M461.39,-245.05C431.62,-239.08 398.17,-232.38 369.04,-226.54"/>
<polygon fill="midnightblue" stroke="midnightblue" points="460.84,-248.5 471.33,-247.04 462.22,-241.64 460.84,-248.5"/>
</g>
<!-- Node17 -->
<g id="node17" class="node">
<title>Node17</title>
<g id="a_node17"><a xlink:href="classQuantConnect_1_1Orders_1_1Fills_1_1EquityFillModel.html#a22aa83d2e8118b75f3d5a8416bc4542f" target="_top" xlink:title="Default stop limit fill model implementation in base class security. (Stop Limit Order Type)">
<polygon fill="white" stroke="black" points="215.5,-147.5 215.5,-177.5 370.5,-177.5 370.5,-147.5 215.5,-147.5"/>
<text text-anchor="start" x="223.5" y="-165.5" font-family="Helvetica,sans-Serif" font-size="10.00">QuantConnect.Orders.Fills.</text>
<text text-anchor="middle" x="293" y="-154.5" font-family="Helvetica,sans-Serif" font-size="10.00">EquityFillModel.StopLimitFill</text>
</a>
</g>
</g>
<!-- Node10&#45;&gt;Node17 -->
<g id="edge16" class="edge">
<title>Node10&#45;&gt;Node17</title>
<path fill="none" stroke="midnightblue" d="M509.97,-241.4C481.34,-224.96 438.61,-202.12 399,-187.5 388.89,-183.77 378.03,-180.45 367.26,-177.55"/>
<polygon fill="midnightblue" stroke="midnightblue" points="508.35,-244.51 518.75,-246.5 511.86,-238.45 508.35,-244.51"/>
</g>
<!-- Node18 -->
<g id="node18" class="node">
<title>Node18</title>
<g id="a_node18"><a xlink:href="classQuantConnect_1_1Orders_1_1Fills_1_1FutureFillModel.html#a27d0f1f5940e7e8c6569c2e5a06de387" target="_top" xlink:title="Stop fill model implementation for Future.">
<polygon fill="white" stroke="black" points="211,-98.5 211,-128.5 375,-128.5 375,-98.5 211,-98.5"/>
<text text-anchor="start" x="219" y="-116.5" font-family="Helvetica,sans-Serif" font-size="10.00">QuantConnect.Orders.Fills.</text>
<text text-anchor="middle" x="293" y="-105.5" font-family="Helvetica,sans-Serif" font-size="10.00">FutureFillModel.StopMarketFill</text>
</a>
</g>
</g>
<!-- Node10&#45;&gt;Node18 -->
<g id="edge17" class="edge">
<title>Node10&#45;&gt;Node18</title>
<path fill="none" stroke="midnightblue" d="M523.37,-238.75C497.4,-210.86 449.54,-164.14 399,-138.5 391.4,-134.64 383.18,-131.37 374.81,-128.59"/>
<polygon fill="midnightblue" stroke="midnightblue" points="521.06,-241.42 530.4,-246.42 526.22,-236.69 521.06,-241.42"/>
</g>
<!-- Node19 -->
<g id="node19" class="node">
<title>Node19</title>
<g id="a_node19"><a xlink:href="classQuantConnect_1_1Orders_1_1Fills_1_1EquityFillModel.html#a2b4a2286e47d3b55612f8ebbfe7beae9" target="_top" xlink:title="Stop fill model implementation for Equity.">
<polygon fill="white" stroke="black" points="211,-49.5 211,-79.5 375,-79.5 375,-49.5 211,-49.5"/>
<text text-anchor="start" x="219" y="-67.5" font-family="Helvetica,sans-Serif" font-size="10.00">QuantConnect.Orders.Fills.</text>
<text text-anchor="middle" x="293" y="-56.5" font-family="Helvetica,sans-Serif" font-size="10.00">EquityFillModel.StopMarketFill</text>
</a>
</g>
</g>
<!-- Node10&#45;&gt;Node19 -->
<g id="edge18" class="edge">
<title>Node10&#45;&gt;Node19</title>
<path fill="none" stroke="midnightblue" d="M521.85,-238.6C499.41,-214.54 463.66,-175.27 435,-139.5 417.88,-118.13 421.75,-104.74 399,-89.5 391.68,-84.6 383.51,-80.65 375.05,-77.48"/>
<polygon fill="midnightblue" stroke="midnightblue" points="519.53,-241.25 528.92,-246.15 524.64,-236.46 519.53,-241.25"/>
</g>
<!-- Node21 -->
<g id="node21" class="node">
<title>Node21</title>
<g id="a_node21"><a xlink:href="classQuantConnect_1_1Orders_1_1Fills_1_1FillModel.html#ab2919d2ee3ef2bd42013884458871c85" target="_top" xlink:title="Return an order event with the fill details">
<polygon fill="white" stroke="black" points="220,-0.5 220,-30.5 366,-30.5 366,-0.5 220,-0.5"/>
<text text-anchor="start" x="228" y="-18.5" font-family="Helvetica,sans-Serif" font-size="10.00">QuantConnect.Orders.Fills.</text>
<text text-anchor="middle" x="293" y="-7.5" font-family="Helvetica,sans-Serif" font-size="10.00">FillModel.Fill</text>
</a>
</g>
</g>
<!-- Node20&#45;&gt;Node21 -->
<g id="edge20" class="edge">
<title>Node20&#45;&gt;Node21</title>
<path fill="none" stroke="midnightblue" d="M510.3,-94.17C481.71,-77.42 438.87,-54.13 399,-39.5 388.56,-35.67 377.29,-32.32 366.16,-29.44"/>
<polygon fill="midnightblue" stroke="midnightblue" points="508.68,-97.27 519.06,-99.35 512.24,-91.25 508.68,-97.27"/>
</g>
</g>
</svg>
        <g id="navigator" transform="translate(0 0)" fill="#404254">
                <rect fill="#f2f5e9" fill-opacity="0.5" stroke="#606060" stroke-width=".5" x="0" y="0" width="60" height="60"/>
                <use id="zoomplus" xlink:href="#zoomPlus" x="17" y="9" onmousedown="handleZoom(evt,'in')"/>
                <use id="zoomminus" xlink:href="#zoomMin" x="42" y="9" onmousedown="handleZoom(evt,'out')"/>
                <use id="reset" xlink:href="#resetDef" x="30" y="36" onmousedown="handleReset()"/>
                <g id="arrowUp" xlink:href="#dirArrow" transform="translate(30 24)" onmousedown="handlePan(0,-1)">
                  <use xlink:href="#rim" fill="#404040">
                        <set attributeName="fill" to="#808080" begin="arrowUp.mouseover" end="arrowUp.mouseout"/>
                  </use>
                  <path fill="none" stroke="white" stroke-width="1.5" d="M0,-3.0v7 M-2.5,-0.5L0,-3.0L2.5,-0.5"/>
                </g>
                <g id="arrowRight" xlink:href="#dirArrow" transform="rotate(90) translate(36 -43)" onmousedown="handlePan(1,0)">
                  <use xlink:href="#rim" fill="#404040">
                        <set attributeName="fill" to="#808080" begin="arrowRight.mouseover" end="arrowRight.mouseout"/>
                  </use>
                  <path fill="none" stroke="white" stroke-width="1.5" d="M0,-3.0v7 M-2.5,-0.5L0,-3.0L2.5,-0.5"/>
                </g>
                <g id="arrowDown" xlink:href="#dirArrow" transform="rotate(180) translate(-30 -48)" onmousedown="handlePan(0,1)">
                  <use xlink:href="#rim" fill="#404040">
                        <set attributeName="fill" to="#808080" begin="arrowDown.mouseover" end="arrowDown.mouseout"/>
                  </use>
                  <path fill="none" stroke="white" stroke-width="1.5" d="M0,-3.0v7 M-2.5,-0.5L0,-3.0L2.5,-0.5"/>
                </g>
                <g id="arrowLeft" xlink:href="#dirArrow" transform="rotate(270) translate(-36 17)" onmousedown="handlePan(-1,0)">
                  <use xlink:href="#rim" fill="#404040">
                        <set attributeName="fill" to="#808080" begin="arrowLeft.mouseover" end="arrowLeft.mouseout"/>
                  </use>
                  <path fill="none" stroke="white" stroke-width="1.5" d="M0,-3.0v7 M-2.5,-0.5L0,-3.0L2.5,-0.5"/>
                </g>
        </g>
        <svg viewBox="0 0 15 15" width="100%" height="30px" preserveAspectRatio="xMaxYMin meet">
         <g id="arrow_out" transform="scale(0.3 0.3)">
          <a xlink:href="classQuantConnect_1_1Securities_1_1Security_ab93a58a84a4aa1b19d0972faf6c056c4_icgraph_org.svg" target="_base">
           <rect id="button" ry="5" rx="5" y="6" x="6" height="38" width="38"
                fill="#f2f5e9" fill-opacity="0.5" stroke="#606060" stroke-width="1.0"/>
           <path id="arrow"
             d="M 11.500037,31.436501 C 11.940474,20.09759 22.043105,11.32322 32.158766,21.979434 L 37.068811,17.246167 C 37.068811,17.246167 37.088388,32 37.088388,32 L 22.160133,31.978069 C 22.160133,31.978069 26.997745,27.140456 26.997745,27.140456 C 18.528582,18.264221 13.291696,25.230495 11.500037,31.436501 z"
             style="fill:#404040;"/>
          </a>
         </g>
        </svg>
</svg>
