<?xml version="1.0" encoding="UTF-8" standalone="no"?>
<!DOCTYPE svg PUBLIC "-//W3C//DTD SVG 1.1//EN"
 "http://www.w3.org/Graphics/SVG/1.1/DTD/svg11.dtd">
<!-- Generated by graphviz version 2.43.0 (0)
 -->
<!-- Title: QuantConnect.Data.Fundamental.ValuationRatios.ValuationRatios Pages: 1 -->
<svg width="444pt" height="122pt"
 viewBox="0.00 0.00 444.00 121.50" xmlns="http://www.w3.org/2000/svg" xmlns:xlink="http://www.w3.org/1999/xlink">
<g id="graph0" class="graph" transform="scale(1 1) rotate(0) translate(4 117.5)">
<title>QuantConnect.Data.Fundamental.ValuationRatios.ValuationRatios</title>
<polygon fill="white" stroke="transparent" points="-4,4 -4,-117.5 440,-117.5 440,4 -4,4"/>
<!-- Node1 -->
<g id="node1" class="node">
<title>Node1</title>
<g id="a_node1"><a xlink:title="Creates an instance of the ValuationRatios class">
<polygon fill="#bfbfbf" stroke="black" points="254,-44.5 254,-74.5 436,-74.5 436,-44.5 254,-44.5"/>
<text text-anchor="start" x="262" y="-62.5" font-family="Helvetica,sans-Serif" font-size="10.00">QuantConnect.Data.Fundamental.</text>
<text text-anchor="middle" x="345" y="-51.5" font-family="Helvetica,sans-Serif" font-size="10.00">ValuationRatios.ValuationRatios</text>
</a>
</g>
</g>
<!-- Node2 -->
<g id="node2" class="node">
<title>Node2</title>
<g id="a_node2"><a xlink:href="classQuantConnect_1_1Lean_1_1Engine_1_1DataFeeds_1_1UniverseSelection.html#a7e4844c9b81427d9dbbd768efd24abff" target="_top" xlink:title="Applies universe selection the the data feed and algorithm">
<polygon fill="white" stroke="black" points="13.5,-72 13.5,-113 204.5,-113 204.5,-72 13.5,-72"/>
<text text-anchor="start" x="21.5" y="-101" font-family="Helvetica,sans-Serif" font-size="10.00">QuantConnect.Lean.Engine.</text>
<text text-anchor="start" x="21.5" y="-90" font-family="Helvetica,sans-Serif" font-size="10.00">DataFeeds.UniverseSelection.Apply</text>
<text text-anchor="middle" x="109" y="-79" font-family="Helvetica,sans-Serif" font-size="10.00">UniverseSelection</text>
</a>
</g>
</g>
<!-- Node1&#45;&gt;Node2 -->
<g id="edge1" class="edge">
<title>Node1&#45;&gt;Node2</title>
<path fill="none" stroke="midnightblue" d="M243.6,-73.66C230.71,-75.48 217.54,-77.33 204.74,-79.14"/>
<polygon fill="midnightblue" stroke="midnightblue" points="244.45,-77.07 253.86,-72.21 243.47,-70.14 244.45,-77.07"/>
</g>
<!-- Node3 -->
<g id="node3" class="node">
<title>Node3</title>
<g id="a_node3"><a xlink:href="classQuantConnect_1_1Lean_1_1Engine_1_1DataFeeds_1_1Enumerators_1_1Factories_1_1FineFundamentalSubscriptionEnumeratorFactory.html#a7946e720547093167043a528ebe4edeb" target="_top" xlink:title="Creates an enumerator to read the specified request">
<polygon fill="white" stroke="black" points="0,-0.5 0,-52.5 218,-52.5 218,-0.5 0,-0.5"/>
<text text-anchor="start" x="8" y="-40.5" font-family="Helvetica,sans-Serif" font-size="10.00">QuantConnect.Lean.Engine.</text>
<text text-anchor="start" x="8" y="-29.5" font-family="Helvetica,sans-Serif" font-size="10.00">DataFeeds.Enumerators.Factories.</text>
<text text-anchor="start" x="8" y="-18.5" font-family="Helvetica,sans-Serif" font-size="10.00">FineFundamentalSubscriptionEnumerator</text>
<text text-anchor="middle" x="109" y="-7.5" font-family="Helvetica,sans-Serif" font-size="10.00">Factory.CreateEnumerator</text>
</a>
</g>
</g>
<!-- Node1&#45;&gt;Node3 -->
<g id="edge2" class="edge">
<title>Node1&#45;&gt;Node3</title>
<path fill="none" stroke="midnightblue" d="M243.9,-45.38C235.35,-44.18 226.69,-42.96 218.08,-41.74"/>
<polygon fill="midnightblue" stroke="midnightblue" points="243.47,-48.86 253.86,-46.79 244.45,-41.93 243.47,-48.86"/>
</g>
</g>
</svg>
