<?xml version="1.0" encoding="UTF-8" standalone="no"?>
<!DOCTYPE svg PUBLIC "-//W3C//DTD SVG 1.1//EN"
 "http://www.w3.org/Graphics/SVG/1.1/DTD/svg11.dtd">
<!-- Generated by graphviz version 2.43.0 (0)
 -->
<!-- Title: QuantConnect.Lean.Engine.DataFeeds.Enumerators.DelistingEventProvider Pages: 1 -->
<svg width="592pt" height="50pt"
 viewBox="0.00 0.00 592.00 50.00" xmlns="http://www.w3.org/2000/svg" xmlns:xlink="http://www.w3.org/1999/xlink">
<g id="graph0" class="graph" transform="scale(1 1) rotate(0) translate(4 46)">
<title>QuantConnect.Lean.Engine.DataFeeds.Enumerators.DelistingEventProvider</title>
<polygon fill="white" stroke="transparent" points="-4,4 -4,-46 588,-46 588,4 -4,4"/>
<!-- Node1 -->
<g id="node1" class="node">
<title>Node1</title>
<g id="a_node1"><a xlink:title="Event provider who will emit Delisting events">
<polygon fill="#bfbfbf" stroke="black" points="188,-0.5 188,-41.5 368,-41.5 368,-0.5 188,-0.5"/>
<text text-anchor="start" x="196" y="-29.5" font-family="Helvetica,sans-Serif" font-size="10.00">QuantConnect.Lean.Engine.</text>
<text text-anchor="start" x="196" y="-18.5" font-family="Helvetica,sans-Serif" font-size="10.00">DataFeeds.Enumerators.Delisting</text>
<text text-anchor="middle" x="278" y="-7.5" font-family="Helvetica,sans-Serif" font-size="10.00">EventProvider</text>
</a>
</g>
</g>
<!-- Node3 -->
<g id="node3" class="node">
<title>Node3</title>
<g id="a_node3"><a xlink:href="classQuantConnect_1_1Lean_1_1Engine_1_1DataFeeds_1_1Enumerators_1_1LiveDataBasedDelistingEventProvider.html" target="_top" xlink:title="Delisting event provider implementation which will source the delisting date based on the incoming da...">
<polygon fill="white" stroke="black" points="404,-0.5 404,-41.5 584,-41.5 584,-0.5 404,-0.5"/>
<text text-anchor="start" x="412" y="-29.5" font-family="Helvetica,sans-Serif" font-size="10.00">QuantConnect.Lean.Engine.</text>
<text text-anchor="start" x="412" y="-18.5" font-family="Helvetica,sans-Serif" font-size="10.00">DataFeeds.Enumerators.LiveData</text>
<text text-anchor="middle" x="494" y="-7.5" font-family="Helvetica,sans-Serif" font-size="10.00">BasedDelistingEventProvider</text>
</a>
</g>
</g>
<!-- Node1&#45;&gt;Node3 -->
<g id="edge2" class="edge">
<title>Node1&#45;&gt;Node3</title>
<path fill="none" stroke="midnightblue" d="M378.23,-21C386.81,-21 395.45,-21 403.94,-21"/>
<polygon fill="midnightblue" stroke="midnightblue" points="378.21,-17.5 368.21,-21 378.21,-24.5 378.21,-17.5"/>
</g>
<!-- Node2 -->
<g id="node2" class="node">
<title>Node2</title>
<g id="a_node2"><a xlink:href="interfaceQuantConnect_1_1Lean_1_1Engine_1_1DataFeeds_1_1Enumerators_1_1ITradableDateEventProvider.html" target="_top" xlink:title="Interface for event providers for new tradable dates">
<polygon fill="white" stroke="black" points="0,-11.5 0,-30.5 152,-30.5 152,-11.5 0,-11.5"/>
<text text-anchor="middle" x="76" y="-18.5" font-family="Helvetica,sans-Serif" font-size="10.00">ITradableDateEventProvider</text>
</a>
</g>
</g>
<!-- Node2&#45;&gt;Node1 -->
<g id="edge1" class="edge">
<title>Node2&#45;&gt;Node1</title>
<path fill="none" stroke="midnightblue" d="M162.24,-21C170.67,-21 179.24,-21 187.72,-21"/>
<polygon fill="midnightblue" stroke="midnightblue" points="162.04,-17.5 152.04,-21 162.04,-24.5 162.04,-17.5"/>
</g>
</g>
</svg>
