<?xml version="1.0" encoding="UTF-8" standalone="no"?>
<!DOCTYPE svg PUBLIC "-//W3C//DTD SVG 1.1//EN"
 "http://www.w3.org/Graphics/SVG/1.1/DTD/svg11.dtd">
<!-- Generated by graphviz version 2.43.0 (0)
 -->
<!-- Title: QuantConnect.Orders.FixOrderProperites Pages: 1 -->
<svg width="173pt" height="218pt"
 viewBox="0.00 0.00 173.00 218.00" xmlns="http://www.w3.org/2000/svg" xmlns:xlink="http://www.w3.org/1999/xlink">
<g id="graph0" class="graph" transform="scale(1 1) rotate(0) translate(4 214)">
<title>QuantConnect.Orders.FixOrderProperites</title>
<polygon fill="white" stroke="transparent" points="-4,4 -4,-214 169,-214 169,4 -4,4"/>
<!-- Node1 -->
<g id="node1" class="node">
<title>Node1</title>
<g id="a_node1"><a xlink:title="FIX (Financial Information Exchange) order properties">
<polygon fill="#bfbfbf" stroke="black" points="0,-67.5 0,-97.5 165,-97.5 165,-67.5 0,-67.5"/>
<text text-anchor="start" x="8" y="-85.5" font-family="Helvetica,sans-Serif" font-size="10.00">QuantConnect.Orders.FixOrder</text>
<text text-anchor="middle" x="82.5" y="-74.5" font-family="Helvetica,sans-Serif" font-size="10.00">Properites</text>
</a>
</g>
</g>
<!-- Node4 -->
<g id="node4" class="node">
<title>Node4</title>
<g id="a_node4"><a xlink:href="classQuantConnect_1_1Orders_1_1TradingTechnologiesOrderProperties.html" target="_top" xlink:title="Trading Technologies order properties">
<polygon fill="white" stroke="black" points="3,-0.5 3,-30.5 162,-30.5 162,-0.5 3,-0.5"/>
<text text-anchor="start" x="11" y="-18.5" font-family="Helvetica,sans-Serif" font-size="10.00">QuantConnect.Orders.Trading</text>
<text text-anchor="middle" x="82.5" y="-7.5" font-family="Helvetica,sans-Serif" font-size="10.00">TechnologiesOrderProperties</text>
</a>
</g>
</g>
<!-- Node1&#45;&gt;Node4 -->
<g id="edge3" class="edge">
<title>Node1&#45;&gt;Node4</title>
<path fill="none" stroke="midnightblue" d="M82.5,-57.11C82.5,-48.15 82.5,-38.32 82.5,-30.58"/>
<polygon fill="midnightblue" stroke="midnightblue" points="79,-57.4 82.5,-67.4 86,-57.4 79,-57.4"/>
</g>
<!-- Node2 -->
<g id="node2" class="node">
<title>Node2</title>
<g id="a_node2"><a xlink:href="classQuantConnect_1_1Orders_1_1OrderProperties.html" target="_top" xlink:title="Contains additional properties and settings for an order">
<polygon fill="white" stroke="black" points="36,-134.5 36,-153.5 129,-153.5 129,-134.5 36,-134.5"/>
<text text-anchor="middle" x="82.5" y="-141.5" font-family="Helvetica,sans-Serif" font-size="10.00">OrderProperties</text>
</a>
</g>
</g>
<!-- Node2&#45;&gt;Node1 -->
<g id="edge1" class="edge">
<title>Node2&#45;&gt;Node1</title>
<path fill="none" stroke="midnightblue" d="M82.5,-124.23C82.5,-115.59 82.5,-105.5 82.5,-97.52"/>
<polygon fill="midnightblue" stroke="midnightblue" points="79,-124.48 82.5,-134.48 86,-124.48 79,-124.48"/>
</g>
<!-- Node3 -->
<g id="node3" class="node">
<title>Node3</title>
<g id="a_node3"><a xlink:href="interfaceQuantConnect_1_1Interfaces_1_1IOrderProperties.html" target="_top" xlink:title="Contains additional properties and settings for an order">
<polygon fill="white" stroke="black" points="34.5,-190.5 34.5,-209.5 130.5,-209.5 130.5,-190.5 34.5,-190.5"/>
<text text-anchor="middle" x="82.5" y="-197.5" font-family="Helvetica,sans-Serif" font-size="10.00">IOrderProperties</text>
</a>
</g>
</g>
<!-- Node3&#45;&gt;Node2 -->
<g id="edge2" class="edge">
<title>Node3&#45;&gt;Node2</title>
<path fill="none" stroke="midnightblue" d="M82.5,-179.8C82.5,-170.91 82.5,-160.78 82.5,-153.75"/>
<polygon fill="midnightblue" stroke="midnightblue" points="79,-180.08 82.5,-190.08 86,-180.08 79,-180.08"/>
</g>
</g>
</svg>
