<?xml version="1.0" encoding="UTF-8" standalone="no"?>
<!DOCTYPE svg PUBLIC "-//W3C//DTD SVG 1.1//EN"
 "http://www.w3.org/Graphics/SVG/1.1/DTD/svg11.dtd">
<!-- Generated by graphviz version 2.43.0 (0)
 -->
<!-- Title: QuantConnect.Indicators.RollingWindow.Add Pages: 1 -->
<svg width="384pt" height="100pt"
 viewBox="0.00 0.00 384.00 99.50" xmlns="http://www.w3.org/2000/svg" xmlns:xlink="http://www.w3.org/1999/xlink">
<g id="graph0" class="graph" transform="scale(1 1) rotate(0) translate(4 95.5)">
<title>QuantConnect.Indicators.RollingWindow.Add</title>
<polygon fill="white" stroke="transparent" points="-4,4 -4,-95.5 380,-95.5 380,4 -4,4"/>
<!-- Node1 -->
<g id="node1" class="node">
<title>Node1</title>
<g id="a_node1"><a xlink:title="Adds an item to this window and shifts all other elements">
<polygon fill="#bfbfbf" stroke="black" points="236,-33 236,-63 376,-63 376,-33 236,-33"/>
<text text-anchor="start" x="244" y="-51" font-family="Helvetica,sans-Serif" font-size="10.00">QuantConnect.Indicators.</text>
<text text-anchor="middle" x="306" y="-40" font-family="Helvetica,sans-Serif" font-size="10.00">RollingWindow.Add</text>
</a>
</g>
</g>
<!-- Node2 -->
<g id="node2" class="node">
<title>Node2</title>
<g id="a_node2"><a xlink:href="classQuantConnect_1_1Indicators_1_1Beta.html#a3f9c830ae3b8a37d4ae4ee8b90d3faaa" target="_top" xlink:title="Computes the next value for this indicator from the given state.">
<polygon fill="white" stroke="black" points="30,-61 30,-91 170,-91 170,-61 30,-61"/>
<text text-anchor="start" x="38" y="-79" font-family="Helvetica,sans-Serif" font-size="10.00">QuantConnect.Indicators.</text>
<text text-anchor="middle" x="100" y="-68" font-family="Helvetica,sans-Serif" font-size="10.00">Beta.ComputeNextValue</text>
</a>
</g>
</g>
<!-- Node1&#45;&gt;Node2 -->
<g id="edge1" class="edge">
<title>Node1&#45;&gt;Node2</title>
<path fill="none" stroke="midnightblue" d="M225.88,-58.86C207.56,-61.37 188.2,-64.03 170.34,-66.48"/>
<polygon fill="midnightblue" stroke="midnightblue" points="226.5,-62.31 235.93,-57.48 225.55,-55.37 226.5,-62.31"/>
</g>
<!-- Node3 -->
<g id="node3" class="node">
<title>Node3</title>
<g id="a_node3"><a xlink:href="classQuantConnect_1_1Securities_1_1StandardDeviationOfReturnsVolatilityModel.html#a79b3aad6d8efc57dccbad7627d6e1f0f" target="_top" xlink:title="Updates this model using the new price information in the specified security instance">
<polygon fill="white" stroke="black" points="0,-0.5 0,-41.5 200,-41.5 200,-0.5 0,-0.5"/>
<text text-anchor="start" x="8" y="-29.5" font-family="Helvetica,sans-Serif" font-size="10.00">QuantConnect.Securities.</text>
<text text-anchor="start" x="8" y="-18.5" font-family="Helvetica,sans-Serif" font-size="10.00">StandardDeviationOfReturnsVolatility</text>
<text text-anchor="middle" x="100" y="-7.5" font-family="Helvetica,sans-Serif" font-size="10.00">Model.Update</text>
</a>
</g>
</g>
<!-- Node1&#45;&gt;Node3 -->
<g id="edge2" class="edge">
<title>Node1&#45;&gt;Node3</title>
<path fill="none" stroke="midnightblue" d="M225.77,-37.51C217.33,-36.4 208.68,-35.25 200.05,-34.11"/>
<polygon fill="midnightblue" stroke="midnightblue" points="225.56,-41.02 235.93,-38.86 226.48,-34.08 225.56,-41.02"/>
</g>
</g>
</svg>
