<?xml version="1.0" encoding="UTF-8" standalone="no"?>
<!DOCTYPE svg PUBLIC "-//W3C//DTD SVG 1.1//EN"
 "http://www.w3.org/Graphics/SVG/1.1/DTD/svg11.dtd">
<!-- Generated by graphviz version 2.43.0 (0)
 -->
<!-- Title: QuantConnect.ToolBox.DukascopyDownloader.DukascopySymbolMapper.GetBrokerageSecurityType Pages: 1 -->
<svg width="456pt" height="170pt"
 viewBox="0.00 0.00 456.00 170.00" xmlns="http://www.w3.org/2000/svg" xmlns:xlink="http://www.w3.org/1999/xlink">
<g id="graph0" class="graph" transform="scale(1 1) rotate(0) translate(4 166)">
<title>QuantConnect.ToolBox.DukascopyDownloader.DukascopySymbolMapper.GetBrokerageSecurityType</title>
<polygon fill="white" stroke="transparent" points="-4,4 -4,-166 452,-166 452,4 -4,4"/>
<!-- Node1 -->
<g id="node1" class="node">
<title>Node1</title>
<g id="a_node1"><a xlink:title="Returns the security type for a Dukascopy symbol">
<polygon fill="#bfbfbf" stroke="black" points="242,-60.5 242,-101.5 448,-101.5 448,-60.5 242,-60.5"/>
<text text-anchor="start" x="250" y="-89.5" font-family="Helvetica,sans-Serif" font-size="10.00">QuantConnect.ToolBox.Dukascopy</text>
<text text-anchor="start" x="250" y="-78.5" font-family="Helvetica,sans-Serif" font-size="10.00">Downloader.DukascopySymbolMapper.</text>
<text text-anchor="middle" x="345" y="-67.5" font-family="Helvetica,sans-Serif" font-size="10.00">GetBrokerageSecurityType</text>
</a>
</g>
</g>
<!-- Node2 -->
<g id="node2" class="node">
<title>Node2</title>
<g id="a_node2"><a xlink:href="classQuantConnect_1_1ToolBox_1_1DukascopyDownloader_1_1DukascopySymbolMapper.html#a121ded6cf33c4ff94e5af717fb31b414" target="_top" xlink:title="Returns the security type for a Lean symbol">
<polygon fill="white" stroke="black" points="0,-120.5 0,-161.5 206,-161.5 206,-120.5 0,-120.5"/>
<text text-anchor="start" x="8" y="-149.5" font-family="Helvetica,sans-Serif" font-size="10.00">QuantConnect.ToolBox.Dukascopy</text>
<text text-anchor="start" x="8" y="-138.5" font-family="Helvetica,sans-Serif" font-size="10.00">Downloader.DukascopySymbolMapper.</text>
<text text-anchor="middle" x="103" y="-127.5" font-family="Helvetica,sans-Serif" font-size="10.00">GetLeanSecurityType</text>
</a>
</g>
</g>
<!-- Node1&#45;&gt;Node2 -->
<g id="edge1" class="edge">
<title>Node1&#45;&gt;Node2</title>
<path fill="none" stroke="midnightblue" d="M251.9,-104.03C230.25,-109.44 207.33,-115.17 186.15,-120.46"/>
<polygon fill="midnightblue" stroke="midnightblue" points="252.89,-107.39 261.74,-101.56 251.19,-100.59 252.89,-107.39"/>
</g>
<!-- Node3 -->
<g id="node3" class="node">
<title>Node3</title>
<g id="a_node3"><a xlink:href="classQuantConnect_1_1ToolBox_1_1DukascopyDownloader_1_1DukascopySymbolMapper.html#a04180577f5f0ae2ae0c4ba995e9cb365" target="_top" xlink:title="Converts a Dukascopy symbol to a Lean symbol instance">
<polygon fill="white" stroke="black" points="0,-60.5 0,-101.5 206,-101.5 206,-60.5 0,-60.5"/>
<text text-anchor="start" x="8" y="-89.5" font-family="Helvetica,sans-Serif" font-size="10.00">QuantConnect.ToolBox.Dukascopy</text>
<text text-anchor="start" x="8" y="-78.5" font-family="Helvetica,sans-Serif" font-size="10.00">Downloader.DukascopySymbolMapper.</text>
<text text-anchor="middle" x="103" y="-67.5" font-family="Helvetica,sans-Serif" font-size="10.00">GetLeanSymbol</text>
</a>
</g>
</g>
<!-- Node1&#45;&gt;Node3 -->
<g id="edge2" class="edge">
<title>Node1&#45;&gt;Node3</title>
<path fill="none" stroke="midnightblue" d="M231.81,-81C223.22,-81 214.57,-81 206.04,-81"/>
<polygon fill="midnightblue" stroke="midnightblue" points="231.87,-84.5 241.87,-81 231.87,-77.5 231.87,-84.5"/>
</g>
<!-- Node4 -->
<g id="node4" class="node">
<title>Node4</title>
<g id="a_node4"><a xlink:href="classQuantConnect_1_1ToolBox_1_1DukascopyDownloader_1_1DukascopySymbolMapper.html#a655f8c70265d2df4208610a009ef643f" target="_top" xlink:title="Checks if the symbol is supported by Dukascopy">
<polygon fill="white" stroke="black" points="0,-0.5 0,-41.5 206,-41.5 206,-0.5 0,-0.5"/>
<text text-anchor="start" x="8" y="-29.5" font-family="Helvetica,sans-Serif" font-size="10.00">QuantConnect.ToolBox.Dukascopy</text>
<text text-anchor="start" x="8" y="-18.5" font-family="Helvetica,sans-Serif" font-size="10.00">Downloader.DukascopySymbolMapper.</text>
<text text-anchor="middle" x="103" y="-7.5" font-family="Helvetica,sans-Serif" font-size="10.00">IsKnownLeanSymbol</text>
</a>
</g>
</g>
<!-- Node1&#45;&gt;Node4 -->
<g id="edge3" class="edge">
<title>Node1&#45;&gt;Node4</title>
<path fill="none" stroke="midnightblue" d="M251.9,-57.97C230.25,-52.56 207.33,-46.83 186.15,-41.54"/>
<polygon fill="midnightblue" stroke="midnightblue" points="251.19,-61.41 261.74,-60.44 252.89,-54.61 251.19,-61.41"/>
</g>
</g>
</svg>
