<?xml version="1.0" encoding="UTF-8" standalone="no"?>
<!DOCTYPE svg PUBLIC "-//W3C//DTD SVG 1.1//EN"
 "http://www.w3.org/Graphics/SVG/1.1/DTD/svg11.dtd">
<!-- Generated by graphviz version 2.43.0 (0)
 -->
<!-- Title: QuantConnect.Securities.Option.StrategyMatcher.OptionStrategyMatcher.MatchOnce Pages: 1 -->
<svg width="629pt" height="110pt"
 viewBox="0.00 0.00 629.00 110.00" xmlns="http://www.w3.org/2000/svg" xmlns:xlink="http://www.w3.org/1999/xlink">
<g id="graph0" class="graph" transform="scale(1 1) rotate(0) translate(4 106)">
<title>QuantConnect.Securities.Option.StrategyMatcher.OptionStrategyMatcher.MatchOnce</title>
<polygon fill="white" stroke="transparent" points="-4,4 -4,-106 625,-106 625,4 -4,4"/>
<!-- Node1 -->
<g id="node1" class="node">
<title>Node1</title>
<g id="a_node1"><a xlink:title="Using the definitions provided in Options, attempts to match all positions . The resulting OptionStra...">
<polygon fill="#bfbfbf" stroke="black" points="0,-30.5 0,-71.5 167,-71.5 167,-30.5 0,-30.5"/>
<text text-anchor="start" x="8" y="-59.5" font-family="Helvetica,sans-Serif" font-size="10.00">QuantConnect.Securities.</text>
<text text-anchor="start" x="8" y="-48.5" font-family="Helvetica,sans-Serif" font-size="10.00">Option.StrategyMatcher.Option</text>
<text text-anchor="middle" x="83.5" y="-37.5" font-family="Helvetica,sans-Serif" font-size="10.00">StrategyMatcher.MatchOnce</text>
</a>
</g>
</g>
<!-- Node2 -->
<g id="node2" class="node">
<title>Node2</title>
<g id="a_node2"><a xlink:href="classQuantConnect_1_1Securities_1_1Option_1_1StrategyMatcher_1_1OptionPositionCollection.html#a06fa8f3ac9c5dd1bf10cb298b4f8b9d5" target="_top" xlink:title="Creates a new collection that is the result of adding the specified position &#160;to this collection.">
<polygon fill="white" stroke="black" points="221,-60.5 221,-101.5 388,-101.5 388,-60.5 221,-60.5"/>
<text text-anchor="start" x="229" y="-89.5" font-family="Helvetica,sans-Serif" font-size="10.00">QuantConnect.Securities.</text>
<text text-anchor="start" x="229" y="-78.5" font-family="Helvetica,sans-Serif" font-size="10.00">Option.StrategyMatcher.Option</text>
<text text-anchor="middle" x="304.5" y="-67.5" font-family="Helvetica,sans-Serif" font-size="10.00">PositionCollection.Add</text>
</a>
</g>
</g>
<!-- Node1&#45;&gt;Node2 -->
<g id="edge1" class="edge">
<title>Node1&#45;&gt;Node2</title>
<path fill="none" stroke="midnightblue" d="M167.29,-62.34C181.56,-64.3 196.48,-66.34 210.99,-68.33"/>
<polygon fill="midnightblue" stroke="midnightblue" points="210.57,-71.8 220.95,-69.69 211.52,-64.87 210.57,-71.8"/>
</g>
<!-- Node3 -->
<g id="node3" class="node">
<title>Node3</title>
<g id="a_node3"><a xlink:href="classQuantConnect_1_1Securities_1_1Option_1_1StrategyMatcher_1_1OptionStrategyDefinitionMatch.html#a462696b15f8917ac8187de03d5a89e69" target="_top" xlink:title="Deducts the matched positions from the specified positions &#160;taking into account the multiplier">
<polygon fill="white" stroke="black" points="203,-0.5 203,-41.5 406,-41.5 406,-0.5 203,-0.5"/>
<text text-anchor="start" x="211" y="-29.5" font-family="Helvetica,sans-Serif" font-size="10.00">QuantConnect.Securities.</text>
<text text-anchor="start" x="211" y="-18.5" font-family="Helvetica,sans-Serif" font-size="10.00">Option.StrategyMatcher.Option</text>
<text text-anchor="middle" x="304.5" y="-7.5" font-family="Helvetica,sans-Serif" font-size="10.00">StrategyDefinitionMatch.RemoveFrom</text>
</a>
</g>
</g>
<!-- Node1&#45;&gt;Node3 -->
<g id="edge2" class="edge">
<title>Node1&#45;&gt;Node3</title>
<path fill="none" stroke="midnightblue" d="M167.29,-39.66C175.65,-38.51 184.23,-37.34 192.82,-36.16"/>
<polygon fill="midnightblue" stroke="midnightblue" points="193.46,-39.61 202.89,-34.78 192.51,-32.67 193.46,-39.61"/>
</g>
<!-- Node4 -->
<g id="node4" class="node">
<title>Node4</title>
<g id="a_node4"><a xlink:href="classQuantConnect_1_1Securities_1_1Option_1_1StrategyMatcher_1_1OptionPositionCollection.html#a77bb3dfa80d0c3dae876401793e42f49" target="_top" xlink:title="Creates a new collection that is the result of removing the specified positions">
<polygon fill="white" stroke="black" points="442,-0.5 442,-41.5 621,-41.5 621,-0.5 442,-0.5"/>
<text text-anchor="start" x="450" y="-29.5" font-family="Helvetica,sans-Serif" font-size="10.00">QuantConnect.Securities.</text>
<text text-anchor="start" x="450" y="-18.5" font-family="Helvetica,sans-Serif" font-size="10.00">Option.StrategyMatcher.Option</text>
<text text-anchor="middle" x="531.5" y="-7.5" font-family="Helvetica,sans-Serif" font-size="10.00">PositionCollection.RemoveRange</text>
</a>
</g>
</g>
<!-- Node3&#45;&gt;Node4 -->
<g id="edge3" class="edge">
<title>Node3&#45;&gt;Node4</title>
<path fill="none" stroke="midnightblue" d="M406.15,-21C414.64,-21 423.21,-21 431.69,-21"/>
<polygon fill="midnightblue" stroke="midnightblue" points="431.95,-24.5 441.95,-21 431.95,-17.5 431.95,-24.5"/>
</g>
</g>
</svg>
