<?xml version="1.0" encoding="UTF-8" standalone="no"?>
<!DOCTYPE svg PUBLIC "-//W3C//DTD SVG 1.1//EN"
 "http://www.w3.org/Graphics/SVG/1.1/DTD/svg11.dtd">
<!-- Generated by graphviz version 2.43.0 (0)
 -->
<!-- Title: QuantConnect.Data.UniverseSelection.BaseDataCollection.Add Pages: 1 -->
<svg width="447pt" height="50pt"
 viewBox="0.00 0.00 447.00 50.00" xmlns="http://www.w3.org/2000/svg" xmlns:xlink="http://www.w3.org/1999/xlink">
<g id="graph0" class="graph" transform="scale(1 1) rotate(0) translate(4 46)">
<title>QuantConnect.Data.UniverseSelection.BaseDataCollection.Add</title>
<polygon fill="white" stroke="transparent" points="-4,4 -4,-46 443,-46 443,4 -4,4"/>
<!-- Node1 -->
<g id="node1" class="node">
<title>Node1</title>
<g id="a_node1"><a xlink:title="Adds a new data point to this collection">
<polygon fill="#bfbfbf" stroke="black" points="257,-6 257,-36 439,-36 439,-6 257,-6"/>
<text text-anchor="start" x="265" y="-24" font-family="Helvetica,sans-Serif" font-size="10.00">QuantConnect.Data.Universe</text>
<text text-anchor="middle" x="348" y="-13" font-family="Helvetica,sans-Serif" font-size="10.00">Selection.BaseDataCollection.Add</text>
</a>
</g>
</g>
<!-- Node2 -->
<g id="node2" class="node">
<title>Node2</title>
<g id="a_node2"><a xlink:href="classQuantConnect_1_1Lean_1_1Engine_1_1DataFeeds_1_1BaseDataCollectionAggregatorReader.html#a6bf97a4799a6185d548bb775566390ae" target="_top" xlink:title="Reads the specified source">
<polygon fill="white" stroke="black" points="0,-0.5 0,-41.5 221,-41.5 221,-0.5 0,-0.5"/>
<text text-anchor="start" x="8" y="-29.5" font-family="Helvetica,sans-Serif" font-size="10.00">QuantConnect.Lean.Engine.</text>
<text text-anchor="start" x="8" y="-18.5" font-family="Helvetica,sans-Serif" font-size="10.00">DataFeeds.BaseDataCollectionAggregator</text>
<text text-anchor="middle" x="110.5" y="-7.5" font-family="Helvetica,sans-Serif" font-size="10.00">Reader.Read</text>
</a>
</g>
</g>
<!-- Node1&#45;&gt;Node2 -->
<g id="edge1" class="edge">
<title>Node1&#45;&gt;Node2</title>
<path fill="none" stroke="midnightblue" d="M246.74,-21C238.3,-21 229.74,-21 221.24,-21"/>
<polygon fill="midnightblue" stroke="midnightblue" points="246.96,-24.5 256.96,-21 246.96,-17.5 246.96,-24.5"/>
</g>
</g>
</svg>
