<?xml version="1.0" encoding="UTF-8" standalone="no"?>
<!DOCTYPE svg PUBLIC "-//W3C//DTD SVG 1.1//EN"
 "http://www.w3.org/Graphics/SVG/1.1/DTD/svg11.dtd">
<!-- Generated by graphviz version 2.43.0 (0)
 -->
<!-- Title: QuantConnect.Parse.Decimal Pages: 1 -->
<!--zoomable 391 -->
<svg id="main" version="1.1" xmlns="http://www.w3.org/2000/svg" xmlns:xlink="http://www.w3.org/1999/xlink" xml:space="preserve" onload="init(evt)">
<style type="text/css"><![CDATA[
.edge:hover path { stroke: red; }
.edge:hover polygon { stroke: red; fill: red; }
]]></style>
<script type="text/javascript"><![CDATA[
var edges = document.getElementsByTagName('g');
if (edges && edges.length) {
  for (var i=0;i<edges.length;i++) {
    if (edges[i].id.substr(0,4)=='edge') {
      edges[i].setAttribute('class','edge');
    }
  }
}
]]></script>
        <defs>
                <circle id="rim" cx="0" cy="0" r="7"/>
                <circle id="rim2" cx="0" cy="0" r="3.5"/>
                <g id="zoomPlus">
                        <use xlink:href="#rim" fill="#404040">
                                <set attributeName="fill" to="#808080" begin="zoomplus.mouseover" end="zoomplus.mouseout"/>
                        </use>
                        <path d="M-4,0h8M0,-4v8" fill="none" stroke="white" stroke-width="1.5" pointer-events="none"/>
                </g>
                <g id="zoomMin">
                        <use xlink:href="#rim" fill="#404040">
                                <set attributeName="fill" to="#808080" begin="zoomminus.mouseover" end="zoomminus.mouseout"/>
                        </use>
                        <path d="M-4,0h8" fill="none" stroke="white" stroke-width="1.5" pointer-events="none"/>
                </g>
                <g id="dirArrow">
                        <path fill="none" stroke="white" stroke-width="1.5" d="M0,-3.0v7 M-2.5,-0.5L0,-3.0L2.5,-0.5"/>
                </g>
               <g id="resetDef">
                       <use xlink:href="#rim2" fill="#404040">
                               <set attributeName="fill" to="#808080" begin="reset.mouseover" end="reset.mouseout"/>
                       </use>
               </g>
        </defs>

<script type="text/javascript">
var viewWidth = 875;
var viewHeight = 391;
var sectionId = 'dynsection-4';
</script>
<script xlink:href="svgpan.js"/>
<svg id="graph" class="graph">
<g id="viewport">
<title>QuantConnect.Parse.Decimal</title>
<polygon fill="white" stroke="transparent" points="-4,4 -4,-386.5 871,-386.5 871,4 -4,4"/>
<!-- Node1 -->
<g id="node1" class="node">
<title>Node1</title>
<g id="a_node1"><a xlink:title="Parses the provided value as a decimal using CultureInfo.InvariantCulture">
<polygon fill="#bfbfbf" stroke="black" points="709,-207 709,-226 867,-226 867,-207 709,-207"/>
<text text-anchor="middle" x="788" y="-214" font-family="Helvetica,sans-Serif" font-size="10.00">QuantConnect.Parse.Decimal</text>
</a>
</g>
</g>
<!-- Node2 -->
<g id="node2" class="node">
<title>Node2</title>
<g id="a_node2"><a xlink:href="classQuantConnect_1_1ToolBox_1_1YahooDownloader_1_1YahooDataDownloader.html#a46208b48b6236bb27e9f6f22cf4a17e4" target="_top" xlink:title="Download Dividend and Split data from Yahoo">
<polygon fill="white" stroke="black" points="472,-341 472,-382 662,-382 662,-341 472,-341"/>
<text text-anchor="start" x="480" y="-370" font-family="Helvetica,sans-Serif" font-size="10.00">QuantConnect.ToolBox.Yahoo</text>
<text text-anchor="start" x="480" y="-359" font-family="Helvetica,sans-Serif" font-size="10.00">Downloader.YahooDataDownloader.</text>
<text text-anchor="middle" x="567" y="-348" font-family="Helvetica,sans-Serif" font-size="10.00">DownloadSplitAndDividendData</text>
</a>
</g>
</g>
<!-- Node1&#45;&gt;Node2 -->
<g id="edge1" class="edge">
<title>Node1&#45;&gt;Node2</title>
<path fill="none" stroke="midnightblue" d="M774.02,-234.49C754.8,-259.86 716.32,-305.88 673,-331.5 667.04,-335.02 660.65,-338.15 654.07,-340.92"/>
<polygon fill="midnightblue" stroke="midnightblue" points="777.06,-236.28 780.21,-226.16 771.44,-232.1 777.06,-236.28"/>
</g>
<!-- Node3 -->
<g id="node3" class="node">
<title>Node3</title>
<g id="a_node3"><a xlink:href="classQuantConnect_1_1ToolBox_1_1KrakenDownloader_1_1KrakenDataDownloader.html#acce7cae682f1c726942574f7dd1f5da5" target="_top" xlink:title="Get historical data enumerable for a single symbol, type and resolution given this start and end time...">
<polygon fill="white" stroke="black" points="461,-291.5 461,-321.5 673,-321.5 673,-291.5 461,-291.5"/>
<text text-anchor="start" x="469" y="-309.5" font-family="Helvetica,sans-Serif" font-size="10.00">QuantConnect.ToolBox.Kraken</text>
<text text-anchor="middle" x="567" y="-298.5" font-family="Helvetica,sans-Serif" font-size="10.00">Downloader.KrakenDataDownloader.Get</text>
</a>
</g>
</g>
<!-- Node1&#45;&gt;Node3 -->
<g id="edge2" class="edge">
<title>Node1&#45;&gt;Node3</title>
<path fill="none" stroke="midnightblue" d="M765.28,-231.74C743.05,-246.68 707.04,-269.11 673,-282.5 664.39,-285.89 655.18,-288.86 645.93,-291.46"/>
<polygon fill="midnightblue" stroke="midnightblue" points="767.35,-234.57 773.64,-226.04 763.41,-228.78 767.35,-234.57"/>
</g>
<!-- Node4 -->
<g id="node4" class="node">
<title>Node4</title>
<g id="a_node4"><a xlink:href="classQuantConnect_1_1ToolBox_1_1NseMarketDataConverter_1_1NseMarketDataConverterProgram.html#aea9695d4ade112b8ee7db2c73f74d143" target="_top" xlink:title="Supports data from http://TrueData.in">
<polygon fill="white" stroke="black" points="463,-220.5 463,-272.5 671,-272.5 671,-220.5 463,-220.5"/>
<text text-anchor="start" x="471" y="-260.5" font-family="Helvetica,sans-Serif" font-size="10.00">QuantConnect.ToolBox.Nse</text>
<text text-anchor="start" x="471" y="-249.5" font-family="Helvetica,sans-Serif" font-size="10.00">MarketDataConverter.NseMarket</text>
<text text-anchor="start" x="471" y="-238.5" font-family="Helvetica,sans-Serif" font-size="10.00">DataConverterProgram.NseMarketData</text>
<text text-anchor="middle" x="567" y="-227.5" font-family="Helvetica,sans-Serif" font-size="10.00">Converter</text>
</a>
</g>
</g>
<!-- Node1&#45;&gt;Node4 -->
<g id="edge3" class="edge">
<title>Node1&#45;&gt;Node4</title>
<path fill="none" stroke="midnightblue" d="M707.2,-227.43C695.43,-229.04 683.16,-230.72 671,-232.39"/>
<polygon fill="midnightblue" stroke="midnightblue" points="707.97,-230.86 717.41,-226.03 707.02,-223.92 707.97,-230.86"/>
</g>
<!-- Node5 -->
<g id="node5" class="node">
<title>Node5</title>
<g id="a_node5"><a xlink:href="classQuantConnect_1_1SymbolRepresentation.html#a8390f7e01ea8cc7ca5d9c650c377d8b2" target="_top" xlink:title="Parses the specified OSI options ticker into a Symbol object">
<polygon fill="white" stroke="black" points="465.5,-171.5 465.5,-201.5 668.5,-201.5 668.5,-171.5 465.5,-171.5"/>
<text text-anchor="start" x="473.5" y="-189.5" font-family="Helvetica,sans-Serif" font-size="10.00">QuantConnect.SymbolRepresentation.</text>
<text text-anchor="middle" x="567" y="-178.5" font-family="Helvetica,sans-Serif" font-size="10.00">ParseOptionTickerOSI</text>
</a>
</g>
</g>
<!-- Node1&#45;&gt;Node5 -->
<g id="edge4" class="edge">
<title>Node1&#45;&gt;Node5</title>
<path fill="none" stroke="midnightblue" d="M707.43,-205.6C694.81,-203.87 681.62,-202.06 668.6,-200.28"/>
<polygon fill="midnightblue" stroke="midnightblue" points="707.02,-209.08 717.41,-206.97 707.97,-202.14 707.02,-209.08"/>
</g>
<!-- Node6 -->
<g id="node6" class="node">
<title>Node6</title>
<g id="a_node6"><a xlink:href="classQuantConnect_1_1Data_1_1UniverseSelection_1_1ETFConstituentData.html#a91eed36f84d7a1c2673f36b5e591d3c6" target="_top" xlink:title="Reader converts each line of the data source into BaseData objects. Each data type creates its own fa...">
<polygon fill="white" stroke="black" points="467,-122.5 467,-152.5 667,-152.5 667,-122.5 467,-122.5"/>
<text text-anchor="start" x="475" y="-140.5" font-family="Helvetica,sans-Serif" font-size="10.00">QuantConnect.Data.Universe</text>
<text text-anchor="middle" x="567" y="-129.5" font-family="Helvetica,sans-Serif" font-size="10.00">Selection.ETFConstituentData.Reader</text>
</a>
</g>
</g>
<!-- Node1&#45;&gt;Node6 -->
<g id="edge5" class="edge">
<title>Node1&#45;&gt;Node6</title>
<path fill="none" stroke="midnightblue" d="M761.17,-201.96C738.52,-189.72 704.39,-172.5 673,-161.5 663.47,-158.16 653.29,-155.16 643.16,-152.51"/>
<polygon fill="midnightblue" stroke="midnightblue" points="759.68,-205.14 770.13,-206.87 763.04,-199 759.68,-205.14"/>
</g>
<!-- Node7 -->
<g id="node7" class="node">
<title>Node7</title>
<g id="a_node7"><a xlink:href="classQuantConnect_1_1Util_1_1LeanData.html#a4b8de0cf279dc49a62d734fda97ed1ef" target="_top" xlink:title="Creates a symbol from the specified zip entry name">
<polygon fill="white" stroke="black" points="488,-73.5 488,-103.5 646,-103.5 646,-73.5 488,-73.5"/>
<text text-anchor="start" x="496" y="-91.5" font-family="Helvetica,sans-Serif" font-size="10.00">QuantConnect.Util.LeanData.</text>
<text text-anchor="middle" x="567" y="-80.5" font-family="Helvetica,sans-Serif" font-size="10.00">ReadSymbolFromZipEntry</text>
</a>
</g>
</g>
<!-- Node1&#45;&gt;Node7 -->
<g id="edge6" class="edge">
<title>Node1&#45;&gt;Node7</title>
<path fill="none" stroke="midnightblue" d="M772.91,-198.92C753.14,-175.48 714.86,-134.41 673,-112.5 664.63,-108.12 655.48,-104.54 646.18,-101.6"/>
<polygon fill="midnightblue" stroke="midnightblue" points="770.27,-201.21 779.33,-206.69 775.66,-196.75 770.27,-201.21"/>
</g>
<!-- Node8 -->
<g id="node8" class="node">
<title>Node8</title>
<g id="a_node8"><a xlink:href="classQuantConnect_1_1Lean_1_1Engine_1_1DataFeeds_1_1BacktestingChainProvider.html#a903ec0b9ee074f1a7ee6d1eccc5f712b" target="_top" xlink:title="Get the contract symbols associated with the given canonical symbol and date">
<polygon fill="white" stroke="black" points="225,-148 225,-189 425,-189 425,-148 225,-148"/>
<text text-anchor="start" x="233" y="-177" font-family="Helvetica,sans-Serif" font-size="10.00">QuantConnect.Lean.Engine.</text>
<text text-anchor="start" x="233" y="-166" font-family="Helvetica,sans-Serif" font-size="10.00">DataFeeds.BacktestingChainProvider.</text>
<text text-anchor="middle" x="325" y="-155" font-family="Helvetica,sans-Serif" font-size="10.00">GetSymbols</text>
</a>
</g>
</g>
<!-- Node7&#45;&gt;Node8 -->
<g id="edge7" class="edge">
<title>Node7&#45;&gt;Node8</title>
<path fill="none" stroke="midnightblue" d="M477.93,-105.97C472.12,-107.93 466.42,-110.1 461,-112.5 443.18,-120.37 442.5,-128.94 425,-137.5 417.15,-141.34 408.73,-144.84 400.22,-147.99"/>
<polygon fill="midnightblue" stroke="midnightblue" points="479.31,-109.2 487.79,-102.86 477.2,-102.53 479.31,-109.2"/>
</g>
<!-- Node11 -->
<g id="node11" class="node">
<title>Node11</title>
<g id="a_node11"><a xlink:href="classQuantConnect_1_1ToolBox_1_1LeanDataReader.html#ac23439fd286135eaf5c3047bf52eb517" target="_top" xlink:title="Initialize a instance of LeanDataReader from a path to a zipped data file. It also supports declaring...">
<polygon fill="white" stroke="black" points="246,-98.5 246,-128.5 404,-128.5 404,-98.5 246,-98.5"/>
<text text-anchor="start" x="254" y="-116.5" font-family="Helvetica,sans-Serif" font-size="10.00">QuantConnect.ToolBox.Lean</text>
<text text-anchor="middle" x="325" y="-105.5" font-family="Helvetica,sans-Serif" font-size="10.00">DataReader.LeanDataReader</text>
</a>
</g>
</g>
<!-- Node7&#45;&gt;Node11 -->
<g id="edge10" class="edge">
<title>Node7&#45;&gt;Node11</title>
<path fill="none" stroke="midnightblue" d="M477.56,-97.71C453.49,-100.22 427.6,-102.92 404.15,-105.36"/>
<polygon fill="midnightblue" stroke="midnightblue" points="478.16,-101.17 487.75,-96.65 477.44,-94.21 478.16,-101.17"/>
</g>
<!-- Node12 -->
<g id="node12" class="node">
<title>Node12</title>
<g id="a_node12"><a xlink:href="classQuantConnect_1_1ToolBox_1_1LeanDataReader.html#acfe04bd1df4b418f463dcb012488d725" target="_top" xlink:title="Enumerate over the tick zip file and return a list of BaseData.">
<polygon fill="white" stroke="black" points="248.5,-49.5 248.5,-79.5 401.5,-79.5 401.5,-49.5 248.5,-49.5"/>
<text text-anchor="start" x="256.5" y="-67.5" font-family="Helvetica,sans-Serif" font-size="10.00">QuantConnect.ToolBox.Lean</text>
<text text-anchor="middle" x="325" y="-56.5" font-family="Helvetica,sans-Serif" font-size="10.00">DataReader.Parse</text>
</a>
</g>
</g>
<!-- Node7&#45;&gt;Node12 -->
<g id="edge11" class="edge">
<title>Node7&#45;&gt;Node12</title>
<path fill="none" stroke="midnightblue" d="M477.57,-79.66C452.66,-77.17 425.79,-74.48 401.69,-72.07"/>
<polygon fill="midnightblue" stroke="midnightblue" points="477.45,-83.16 487.75,-80.67 478.15,-76.2 477.45,-83.16"/>
</g>
<!-- Node13 -->
<g id="node13" class="node">
<title>Node13</title>
<g id="a_node13"><a xlink:href="classQuantConnect_1_1Data_1_1Auxiliary_1_1ZipEntryName.html#a2769296f026067a4aeddada62fe38972" target="_top" xlink:title="Reader converts each line of the data source into BaseData objects. Each data type creates its own fa...">
<polygon fill="white" stroke="black" points="245,-0.5 245,-30.5 405,-30.5 405,-0.5 245,-0.5"/>
<text text-anchor="start" x="253" y="-18.5" font-family="Helvetica,sans-Serif" font-size="10.00">QuantConnect.Data.Auxiliary.</text>
<text text-anchor="middle" x="325" y="-7.5" font-family="Helvetica,sans-Serif" font-size="10.00">ZipEntryName.Reader</text>
</a>
</g>
</g>
<!-- Node7&#45;&gt;Node13 -->
<g id="edge12" class="edge">
<title>Node7&#45;&gt;Node13</title>
<path fill="none" stroke="midnightblue" d="M516.36,-69.93C489.52,-60.23 455.67,-48.52 425,-39.5 414.4,-36.38 403.07,-33.35 392,-30.56"/>
<polygon fill="midnightblue" stroke="midnightblue" points="515.32,-73.28 525.92,-73.41 517.72,-66.7 515.32,-73.28"/>
</g>
<!-- Node9 -->
<g id="node9" class="node">
<title>Node9</title>
<g id="a_node9"><a xlink:href="classQuantConnect_1_1Lean_1_1Engine_1_1DataFeeds_1_1BacktestingFutureChainProvider.html#ad95ac9ea6895b03fa51209aa7e9c2fb4" target="_top" xlink:title="Gets the list of future contracts for a given underlying symbol">
<polygon fill="white" stroke="black" points="0.5,-178 0.5,-219 188.5,-219 188.5,-178 0.5,-178"/>
<text text-anchor="start" x="8.5" y="-207" font-family="Helvetica,sans-Serif" font-size="10.00">QuantConnect.Lean.Engine.</text>
<text text-anchor="start" x="8.5" y="-196" font-family="Helvetica,sans-Serif" font-size="10.00">DataFeeds.BacktestingFutureChain</text>
<text text-anchor="middle" x="94.5" y="-185" font-family="Helvetica,sans-Serif" font-size="10.00">Provider.GetFutureContractList</text>
</a>
</g>
</g>
<!-- Node8&#45;&gt;Node9 -->
<g id="edge8" class="edge">
<title>Node8&#45;&gt;Node9</title>
<path fill="none" stroke="midnightblue" d="M214.85,-182.83C206.04,-183.99 197.19,-185.15 188.51,-186.29"/>
<polygon fill="midnightblue" stroke="midnightblue" points="215.31,-186.3 224.77,-181.53 214.4,-179.36 215.31,-186.3"/>
</g>
<!-- Node10 -->
<g id="node10" class="node">
<title>Node10</title>
<g id="a_node10"><a xlink:href="classQuantConnect_1_1Lean_1_1Engine_1_1DataFeeds_1_1BacktestingOptionChainProvider.html#a5b140615fad8e3c0f8d08597a7ca1509" target="_top" xlink:title="Gets the list of option contracts for a given underlying symbol">
<polygon fill="white" stroke="black" points="0,-118 0,-159 189,-159 189,-118 0,-118"/>
<text text-anchor="start" x="8" y="-147" font-family="Helvetica,sans-Serif" font-size="10.00">QuantConnect.Lean.Engine.</text>
<text text-anchor="start" x="8" y="-136" font-family="Helvetica,sans-Serif" font-size="10.00">DataFeeds.BacktestingOptionChain</text>
<text text-anchor="middle" x="94.5" y="-125" font-family="Helvetica,sans-Serif" font-size="10.00">Provider.GetOptionContractList</text>
</a>
</g>
</g>
<!-- Node8&#45;&gt;Node10 -->
<g id="edge9" class="edge">
<title>Node8&#45;&gt;Node10</title>
<path fill="none" stroke="midnightblue" d="M214.77,-154.16C206.23,-153.04 197.65,-151.91 189.23,-150.81"/>
<polygon fill="midnightblue" stroke="midnightblue" points="214.4,-157.64 224.77,-155.47 215.31,-150.7 214.4,-157.64"/>
</g>
</g>
</svg>
        <g id="navigator" transform="translate(0 0)" fill="#404254">
                <rect fill="#f2f5e9" fill-opacity="0.5" stroke="#606060" stroke-width=".5" x="0" y="0" width="60" height="60"/>
                <use id="zoomplus" xlink:href="#zoomPlus" x="17" y="9" onmousedown="handleZoom(evt,'in')"/>
                <use id="zoomminus" xlink:href="#zoomMin" x="42" y="9" onmousedown="handleZoom(evt,'out')"/>
                <use id="reset" xlink:href="#resetDef" x="30" y="36" onmousedown="handleReset()"/>
                <g id="arrowUp" xlink:href="#dirArrow" transform="translate(30 24)" onmousedown="handlePan(0,-1)">
                  <use xlink:href="#rim" fill="#404040">
                        <set attributeName="fill" to="#808080" begin="arrowUp.mouseover" end="arrowUp.mouseout"/>
                  </use>
                  <path fill="none" stroke="white" stroke-width="1.5" d="M0,-3.0v7 M-2.5,-0.5L0,-3.0L2.5,-0.5"/>
                </g>
                <g id="arrowRight" xlink:href="#dirArrow" transform="rotate(90) translate(36 -43)" onmousedown="handlePan(1,0)">
                  <use xlink:href="#rim" fill="#404040">
                        <set attributeName="fill" to="#808080" begin="arrowRight.mouseover" end="arrowRight.mouseout"/>
                  </use>
                  <path fill="none" stroke="white" stroke-width="1.5" d="M0,-3.0v7 M-2.5,-0.5L0,-3.0L2.5,-0.5"/>
                </g>
                <g id="arrowDown" xlink:href="#dirArrow" transform="rotate(180) translate(-30 -48)" onmousedown="handlePan(0,1)">
                  <use xlink:href="#rim" fill="#404040">
                        <set attributeName="fill" to="#808080" begin="arrowDown.mouseover" end="arrowDown.mouseout"/>
                  </use>
                  <path fill="none" stroke="white" stroke-width="1.5" d="M0,-3.0v7 M-2.5,-0.5L0,-3.0L2.5,-0.5"/>
                </g>
                <g id="arrowLeft" xlink:href="#dirArrow" transform="rotate(270) translate(-36 17)" onmousedown="handlePan(-1,0)">
                  <use xlink:href="#rim" fill="#404040">
                        <set attributeName="fill" to="#808080" begin="arrowLeft.mouseover" end="arrowLeft.mouseout"/>
                  </use>
                  <path fill="none" stroke="white" stroke-width="1.5" d="M0,-3.0v7 M-2.5,-0.5L0,-3.0L2.5,-0.5"/>
                </g>
        </g>
        <svg viewBox="0 0 15 15" width="100%" height="30px" preserveAspectRatio="xMaxYMin meet">
         <g id="arrow_out" transform="scale(0.3 0.3)">
          <a xlink:href="classQuantConnect_1_1Parse_aac0a89458d90280d2b3b04afa9e197a2_icgraph_org.svg" target="_base">
           <rect id="button" ry="5" rx="5" y="6" x="6" height="38" width="38"
                fill="#f2f5e9" fill-opacity="0.5" stroke="#606060" stroke-width="1.0"/>
           <path id="arrow"
             d="M 11.500037,31.436501 C 11.940474,20.09759 22.043105,11.32322 32.158766,21.979434 L 37.068811,17.246167 C 37.068811,17.246167 37.088388,32 37.088388,32 L 22.160133,31.978069 C 22.160133,31.978069 26.997745,27.140456 26.997745,27.140456 C 18.528582,18.264221 13.291696,25.230495 11.500037,31.436501 z"
             style="fill:#404040;"/>
          </a>
         </g>
        </svg>
</svg>
