<?xml version="1.0" encoding="UTF-8" standalone="no"?>
<!DOCTYPE svg PUBLIC "-//W3C//DTD SVG 1.1//EN"
 "http://www.w3.org/Graphics/SVG/1.1/DTD/svg11.dtd">
<!-- Generated by graphviz version 2.43.0 (0)
 -->
<!-- Title: QuantConnect.ToolBox.AlgoSeekOptionsConverter.AlgoSeekOptionsProcessor.Process Pages: 1 -->
<svg width="468pt" height="50pt"
 viewBox="0.00 0.00 468.00 50.00" xmlns="http://www.w3.org/2000/svg" xmlns:xlink="http://www.w3.org/1999/xlink">
<g id="graph0" class="graph" transform="scale(1 1) rotate(0) translate(4 46)">
<title>QuantConnect.ToolBox.AlgoSeekOptionsConverter.AlgoSeekOptionsProcessor.Process</title>
<polygon fill="white" stroke="transparent" points="-4,4 -4,-46 464,-46 464,4 -4,4"/>
<!-- Node1 -->
<g id="node1" class="node">
<title>Node1</title>
<g id="a_node1"><a xlink:title="Process the tick; add to the con">
<polygon fill="#bfbfbf" stroke="black" points="248,-0.5 248,-41.5 460,-41.5 460,-0.5 248,-0.5"/>
<text text-anchor="start" x="256" y="-29.5" font-family="Helvetica,sans-Serif" font-size="10.00">QuantConnect.ToolBox.Algo</text>
<text text-anchor="start" x="256" y="-18.5" font-family="Helvetica,sans-Serif" font-size="10.00">SeekOptionsConverter.AlgoSeekOptions</text>
<text text-anchor="middle" x="354" y="-7.5" font-family="Helvetica,sans-Serif" font-size="10.00">Processor.Process</text>
</a>
</g>
</g>
<!-- Node2 -->
<g id="node2" class="node">
<title>Node2</title>
<g id="a_node2"><a xlink:href="classQuantConnect_1_1ToolBox_1_1AlgoSeekOptionsConverter_1_1AlgoSeekOptionsConverter.html#a864f504f61986bb169dd34eb22339a91" target="_top" xlink:title="Give the reference date and source directory, convert the algoseek options data into n&#45;resolutions LE...">
<polygon fill="white" stroke="black" points="0,-0.5 0,-41.5 212,-41.5 212,-0.5 0,-0.5"/>
<text text-anchor="start" x="8" y="-29.5" font-family="Helvetica,sans-Serif" font-size="10.00">QuantConnect.ToolBox.Algo</text>
<text text-anchor="start" x="8" y="-18.5" font-family="Helvetica,sans-Serif" font-size="10.00">SeekOptionsConverter.AlgoSeekOptions</text>
<text text-anchor="middle" x="106" y="-7.5" font-family="Helvetica,sans-Serif" font-size="10.00">Converter.Convert</text>
</a>
</g>
</g>
<!-- Node1&#45;&gt;Node2 -->
<g id="edge1" class="edge">
<title>Node1&#45;&gt;Node2</title>
<path fill="none" stroke="midnightblue" d="M237.89,-21C229.28,-21 220.62,-21 212.08,-21"/>
<polygon fill="midnightblue" stroke="midnightblue" points="237.96,-24.5 247.96,-21 237.96,-17.5 237.96,-24.5"/>
</g>
</g>
</svg>
