<?xml version="1.0" encoding="UTF-8" standalone="no"?>
<!DOCTYPE svg PUBLIC "-//W3C//DTD SVG 1.1//EN"
 "http://www.w3.org/Graphics/SVG/1.1/DTD/svg11.dtd">
<!-- Generated by graphviz version 2.43.0 (0)
 -->
<!-- Title: QuantConnect.Securities.Positions.PositionGroup Pages: 1 -->
<svg width="148pt" height="162pt"
 viewBox="0.00 0.00 148.00 162.00" xmlns="http://www.w3.org/2000/svg" xmlns:xlink="http://www.w3.org/1999/xlink">
<g id="graph0" class="graph" transform="scale(1 1) rotate(0) translate(4 158)">
<title>QuantConnect.Securities.Positions.PositionGroup</title>
<polygon fill="white" stroke="transparent" points="-4,4 -4,-158 144,-158 144,4 -4,4"/>
<!-- Node1 -->
<g id="node1" class="node">
<title>Node1</title>
<g id="a_node1"><a xlink:title="Provides a default implementation of IPositionGroup">
<polygon fill="#bfbfbf" stroke="black" points="0,-0.5 0,-30.5 140,-30.5 140,-0.5 0,-0.5"/>
<text text-anchor="start" x="8" y="-18.5" font-family="Helvetica,sans-Serif" font-size="10.00">QuantConnect.Securities.</text>
<text text-anchor="middle" x="70" y="-7.5" font-family="Helvetica,sans-Serif" font-size="10.00">Positions.PositionGroup</text>
</a>
</g>
</g>
<!-- Node2 -->
<g id="node2" class="node">
<title>Node2</title>
<g id="a_node2"><a xlink:href="interfaceQuantConnect_1_1Securities_1_1Positions_1_1IPositionGroup.html" target="_top" xlink:title="Defines a group of positions allowing for more efficient use of portfolio margin">
<polygon fill="white" stroke="black" points="26,-67.5 26,-86.5 114,-86.5 114,-67.5 26,-67.5"/>
<text text-anchor="middle" x="70" y="-74.5" font-family="Helvetica,sans-Serif" font-size="10.00">IPositionGroup</text>
</a>
</g>
</g>
<!-- Node2&#45;&gt;Node1 -->
<g id="edge1" class="edge">
<title>Node2&#45;&gt;Node1</title>
<path fill="none" stroke="midnightblue" d="M70,-57.23C70,-48.59 70,-38.5 70,-30.52"/>
<polygon fill="midnightblue" stroke="midnightblue" points="66.5,-57.48 70,-67.48 73.5,-57.48 66.5,-57.48"/>
</g>
<!-- Node3 -->
<g id="node3" class="node">
<title>Node3</title>
<g id="a_node3"><a xlink:title=" ">
<polygon fill="white" stroke="#bfbfbf" points="12,-123.5 12,-153.5 128,-153.5 128,-123.5 12,-123.5"/>
<text text-anchor="start" x="20" y="-141.5" font-family="Helvetica,sans-Serif" font-size="10.00">IReadOnlyCollection</text>
<text text-anchor="middle" x="70" y="-130.5" font-family="Helvetica,sans-Serif" font-size="10.00">&lt; IPosition &gt;</text>
</a>
</g>
</g>
<!-- Node3&#45;&gt;Node2 -->
<g id="edge2" class="edge">
<title>Node3&#45;&gt;Node2</title>
<path fill="none" stroke="midnightblue" d="M70,-113.29C70,-103.86 70,-93.65 70,-86.66"/>
<polygon fill="midnightblue" stroke="midnightblue" points="66.5,-113.4 70,-123.4 73.5,-113.4 66.5,-113.4"/>
</g>
</g>
</svg>
