<?xml version="1.0" encoding="UTF-8" standalone="no"?>
<!DOCTYPE svg PUBLIC "-//W3C//DTD SVG 1.1//EN"
 "http://www.w3.org/Graphics/SVG/1.1/DTD/svg11.dtd">
<!-- Generated by graphviz version 2.43.0 (0)
 -->
<!-- Title: QuantConnect.Algorithm.QCAlgorithm.AddUniverse Pages: 1 -->
<svg width="942pt" height="110pt"
 viewBox="0.00 0.00 942.00 110.00" xmlns="http://www.w3.org/2000/svg" xmlns:xlink="http://www.w3.org/1999/xlink">
<g id="graph0" class="graph" transform="scale(1 1) rotate(0) translate(4 106)">
<title>QuantConnect.Algorithm.QCAlgorithm.AddUniverse</title>
<polygon fill="white" stroke="transparent" points="-4,4 -4,-106 938,-106 938,4 -4,4"/>
<!-- Node1 -->
<g id="node1" class="node">
<title>Node1</title>
<g id="a_node1"><a xlink:title="Creates a new universe and adds it to the algorithm">
<polygon fill="#bfbfbf" stroke="black" points="0,-44.5 0,-74.5 205,-74.5 205,-44.5 0,-44.5"/>
<text text-anchor="start" x="8" y="-62.5" font-family="Helvetica,sans-Serif" font-size="10.00">QuantConnect.Algorithm.QCAlgorithm.</text>
<text text-anchor="middle" x="102.5" y="-51.5" font-family="Helvetica,sans-Serif" font-size="10.00">AddUniverse</text>
</a>
</g>
</g>
<!-- Node2 -->
<g id="node2" class="node">
<title>Node2</title>
<g id="a_node2"><a xlink:href="classQuantConnect_1_1Algorithm_1_1QCAlgorithm.html#aeac560d821c1d05c6af8864ec7075a72" target="_top" xlink:title="Creates a new universe and adds it to the algorithm. This is for coarse fundamental US Equity data an...">
<polygon fill="white" stroke="black" points="244,-68.5 244,-98.5 449,-98.5 449,-68.5 244,-68.5"/>
<text text-anchor="start" x="252" y="-86.5" font-family="Helvetica,sans-Serif" font-size="10.00">QuantConnect.Algorithm.QCAlgorithm.</text>
<text text-anchor="middle" x="346.5" y="-75.5" font-family="Helvetica,sans-Serif" font-size="10.00">AddUniverse</text>
</a>
</g>
</g>
<!-- Node1&#45;&gt;Node2 -->
<g id="edge1" class="edge">
<title>Node1&#45;&gt;Node2</title>
<path fill="none" stroke="midnightblue" d="M205.08,-69.57C214.58,-70.52 224.25,-71.48 233.84,-72.43"/>
<polygon fill="midnightblue" stroke="midnightblue" points="233.5,-75.91 243.79,-73.41 234.19,-68.94 233.5,-75.91"/>
</g>
<!-- Node4 -->
<g id="node4" class="node">
<title>Node4</title>
<g id="a_node4"><a xlink:href="classQuantConnect_1_1Algorithm_1_1QCAlgorithm.html#a900ae9f4fc865c9a8f9fdfa39a0c6a62" target="_top" xlink:title="Creates a new Theta indicator for the symbol The indicator will be automatically updated on the symbo...">
<polygon fill="white" stroke="black" points="241,-28 241,-47 452,-47 452,-28 241,-28"/>
<text text-anchor="middle" x="346.5" y="-35" font-family="Helvetica,sans-Serif" font-size="10.00">QuantConnect.Algorithm.QCAlgorithm.T</text>
</a>
</g>
</g>
<!-- Node1&#45;&gt;Node4 -->
<g id="edge3" class="edge">
<title>Node1&#45;&gt;Node4</title>
<path fill="none" stroke="midnightblue" d="M205.08,-50.27C213.54,-49.5 222.13,-48.72 230.68,-47.94"/>
<polygon fill="midnightblue" stroke="midnightblue" points="231.04,-51.42 240.68,-47.03 230.41,-44.45 231.04,-51.42"/>
</g>
<!-- Node3 -->
<g id="node3" class="node">
<title>Node3</title>
<g id="a_node3"><a xlink:href="classQuantConnect_1_1Data_1_1Fundamental_1_1FundamentalUniverse.html#a311287571a6bdb1fdbdb0a9abe5b3aa8" target="_top" xlink:title="Creates a new fundamental universe for the USA market">
<polygon fill="white" stroke="black" points="499.5,-71.5 499.5,-101.5 681.5,-101.5 681.5,-71.5 499.5,-71.5"/>
<text text-anchor="start" x="507.5" y="-89.5" font-family="Helvetica,sans-Serif" font-size="10.00">QuantConnect.Data.Fundamental.</text>
<text text-anchor="middle" x="590.5" y="-78.5" font-family="Helvetica,sans-Serif" font-size="10.00">FundamentalUniverse.USA</text>
</a>
</g>
</g>
<!-- Node2&#45;&gt;Node3 -->
<g id="edge2" class="edge">
<title>Node2&#45;&gt;Node3</title>
<path fill="none" stroke="midnightblue" d="M449.08,-84.76C462.37,-84.92 475.99,-85.09 489.27,-85.26"/>
<polygon fill="midnightblue" stroke="midnightblue" points="489.3,-88.76 499.34,-85.38 489.38,-81.76 489.3,-88.76"/>
</g>
<!-- Node5 -->
<g id="node5" class="node">
<title>Node5</title>
<g id="a_node5"><a xlink:href="classQuantConnect_1_1Algorithm_1_1QCAlgorithm.html#a918f318ce76cdc3ed9efad235ff7481e" target="_top" xlink:title="Creates and registers a new consolidator to receive automatic updates at the specified resolution as ...">
<polygon fill="white" stroke="black" points="488,-22.5 488,-52.5 693,-52.5 693,-22.5 488,-22.5"/>
<text text-anchor="start" x="496" y="-40.5" font-family="Helvetica,sans-Serif" font-size="10.00">QuantConnect.Algorithm.QCAlgorithm.</text>
<text text-anchor="middle" x="590.5" y="-29.5" font-family="Helvetica,sans-Serif" font-size="10.00">RegisterIndicator</text>
</a>
</g>
</g>
<!-- Node4&#45;&gt;Node5 -->
<g id="edge4" class="edge">
<title>Node4&#45;&gt;Node5</title>
<path fill="none" stroke="midnightblue" d="M452.24,-37.5C460.59,-37.5 469.05,-37.5 477.46,-37.5"/>
<polygon fill="midnightblue" stroke="midnightblue" points="477.66,-41 487.66,-37.5 477.66,-34 477.66,-41"/>
</g>
<!-- Node6 -->
<g id="node6" class="node">
<title>Node6</title>
<g id="a_node6"><a xlink:href="classQuantConnect_1_1Algorithm_1_1QCAlgorithm.html#ade17e71e20d320dc9a1efa3ddf8aa3cd" target="_top" xlink:title="Gets the default consolidator for the specified symbol and resolution">
<polygon fill="white" stroke="black" points="729,-0.5 729,-30.5 934,-30.5 934,-0.5 729,-0.5"/>
<text text-anchor="start" x="737" y="-18.5" font-family="Helvetica,sans-Serif" font-size="10.00">QuantConnect.Algorithm.QCAlgorithm.</text>
<text text-anchor="middle" x="831.5" y="-7.5" font-family="Helvetica,sans-Serif" font-size="10.00">ResolveConsolidator</text>
</a>
</g>
</g>
<!-- Node4&#45;&gt;Node6 -->
<g id="edge6" class="edge">
<title>Node4&#45;&gt;Node6</title>
<path fill="none" stroke="midnightblue" d="M389.66,-28C417.43,-22.23 454.68,-15.44 488,-12.5 564.77,-5.72 651.58,-6.58 718.6,-9.07"/>
<polygon fill="midnightblue" stroke="midnightblue" points="718.63,-12.58 728.76,-9.47 718.91,-5.58 718.63,-12.58"/>
</g>
<!-- Node5&#45;&gt;Node6 -->
<g id="edge5" class="edge">
<title>Node5&#45;&gt;Node6</title>
<path fill="none" stroke="midnightblue" d="M693.2,-28.14C701.7,-27.36 710.31,-26.56 718.87,-25.78"/>
<polygon fill="midnightblue" stroke="midnightblue" points="719.25,-29.26 728.89,-24.85 718.61,-22.28 719.25,-29.26"/>
</g>
</g>
</svg>
