<?xml version="1.0" encoding="UTF-8" standalone="no"?>
<!DOCTYPE svg PUBLIC "-//W3C//DTD SVG 1.1//EN"
 "http://www.w3.org/Graphics/SVG/1.1/DTD/svg11.dtd">
<!-- Generated by graphviz version 2.43.0 (0)
 -->
<!-- Title: QuantConnect.BaseSeries.CloneValues Pages: 1 -->
<svg width="339pt" height="78pt"
 viewBox="0.00 0.00 339.00 77.50" xmlns="http://www.w3.org/2000/svg" xmlns:xlink="http://www.w3.org/1999/xlink">
<g id="graph0" class="graph" transform="scale(1 1) rotate(0) translate(4 73.5)">
<title>QuantConnect.BaseSeries.CloneValues</title>
<polygon fill="white" stroke="transparent" points="-4,4 -4,-73.5 335,-73.5 335,4 -4,4"/>
<!-- Node1 -->
<g id="node1" class="node">
<title>Node1</title>
<g id="a_node1"><a xlink:title="Return a list of cloned values">
<polygon fill="#bfbfbf" stroke="black" points="185,-17 185,-47 331,-47 331,-17 185,-17"/>
<text text-anchor="start" x="193" y="-35" font-family="Helvetica,sans-Serif" font-size="10.00">QuantConnect.BaseSeries.</text>
<text text-anchor="middle" x="258" y="-24" font-family="Helvetica,sans-Serif" font-size="10.00">CloneValues</text>
</a>
</g>
</g>
<!-- Node2 -->
<g id="node2" class="node">
<title>Node2</title>
<g id="a_node2"><a xlink:href="classQuantConnect_1_1CandlestickSeries.html#a18ce7801083fc57d3f42d2d28e6aefa3" target="_top" xlink:title="Return a new instance clone of this object">
<polygon fill="white" stroke="black" points="1.5,-39 1.5,-69 147.5,-69 147.5,-39 1.5,-39"/>
<text text-anchor="start" x="9.5" y="-57" font-family="Helvetica,sans-Serif" font-size="10.00">QuantConnect.Candlestick</text>
<text text-anchor="middle" x="74.5" y="-46" font-family="Helvetica,sans-Serif" font-size="10.00">Series.Clone</text>
</a>
</g>
</g>
<!-- Node1&#45;&gt;Node2 -->
<g id="edge1" class="edge">
<title>Node1&#45;&gt;Node2</title>
<path fill="none" stroke="midnightblue" d="M174.6,-41.99C165.56,-43.08 156.41,-44.19 147.51,-45.27"/>
<polygon fill="midnightblue" stroke="midnightblue" points="175.24,-45.44 184.74,-40.76 174.4,-38.49 175.24,-45.44"/>
</g>
<!-- Node3 -->
<g id="node3" class="node">
<title>Node3</title>
<g id="a_node3"><a xlink:href="classQuantConnect_1_1Series.html#a0a6e5d6874aa482e739d18aef734426b" target="_top" xlink:title="Return a new instance clone of this object">
<polygon fill="white" stroke="black" points="0,-0.5 0,-19.5 149,-19.5 149,-0.5 0,-0.5"/>
<text text-anchor="middle" x="74.5" y="-7.5" font-family="Helvetica,sans-Serif" font-size="10.00">QuantConnect.Series.Clone</text>
</a>
</g>
</g>
<!-- Node1&#45;&gt;Node3 -->
<g id="edge2" class="edge">
<title>Node1&#45;&gt;Node3</title>
<path fill="none" stroke="midnightblue" d="M174.54,-22.01C166.12,-20.98 157.61,-19.95 149.29,-18.94"/>
<polygon fill="midnightblue" stroke="midnightblue" points="174.4,-25.51 184.74,-23.24 175.24,-18.56 174.4,-25.51"/>
</g>
</g>
</svg>
