<?xml version="1.0" encoding="UTF-8" standalone="no"?>
<!DOCTYPE svg PUBLIC "-//W3C//DTD SVG 1.1//EN"
 "http://www.w3.org/Graphics/SVG/1.1/DTD/svg11.dtd">
<!-- Generated by graphviz version 2.43.0 (0)
 -->
<!-- Title: QuantConnect.Securities.BuyingPowerModel.GetMaximumOrderQuantityForDeltaBuyingPower Pages: 1 -->
<!--zoomable 237 -->
<svg id="main" version="1.1" xmlns="http://www.w3.org/2000/svg" xmlns:xlink="http://www.w3.org/1999/xlink" xml:space="preserve" onload="init(evt)">
<style type="text/css"><![CDATA[
.edge:hover path { stroke: red; }
.edge:hover polygon { stroke: red; fill: red; }
]]></style>
<script type="text/javascript"><![CDATA[
var edges = document.getElementsByTagName('g');
if (edges && edges.length) {
  for (var i=0;i<edges.length;i++) {
    if (edges[i].id.substr(0,4)=='edge') {
      edges[i].setAttribute('class','edge');
    }
  }
}
]]></script>
        <defs>
                <circle id="rim" cx="0" cy="0" r="7"/>
                <circle id="rim2" cx="0" cy="0" r="3.5"/>
                <g id="zoomPlus">
                        <use xlink:href="#rim" fill="#404040">
                                <set attributeName="fill" to="#808080" begin="zoomplus.mouseover" end="zoomplus.mouseout"/>
                        </use>
                        <path d="M-4,0h8M0,-4v8" fill="none" stroke="white" stroke-width="1.5" pointer-events="none"/>
                </g>
                <g id="zoomMin">
                        <use xlink:href="#rim" fill="#404040">
                                <set attributeName="fill" to="#808080" begin="zoomminus.mouseover" end="zoomminus.mouseout"/>
                        </use>
                        <path d="M-4,0h8" fill="none" stroke="white" stroke-width="1.5" pointer-events="none"/>
                </g>
                <g id="dirArrow">
                        <path fill="none" stroke="white" stroke-width="1.5" d="M0,-3.0v7 M-2.5,-0.5L0,-3.0L2.5,-0.5"/>
                </g>
               <g id="resetDef">
                       <use xlink:href="#rim2" fill="#404040">
                               <set attributeName="fill" to="#808080" begin="reset.mouseover" end="reset.mouseout"/>
                       </use>
               </g>
        </defs>

<script type="text/javascript">
var viewWidth = 942;
var viewHeight = 237;
var sectionId = 'dynsection-9';
</script>
<script xlink:href="svgpan.js"/>
<svg id="graph" class="graph">
<g id="viewport">
<title>QuantConnect.Securities.BuyingPowerModel.GetMaximumOrderQuantityForDeltaBuyingPower</title>
<polygon fill="white" stroke="transparent" points="-4,4 -4,-232.5 938,-232.5 938,4 -4,4"/>
<!-- Node1 -->
<g id="node1" class="node">
<title>Node1</title>
<g id="a_node1"><a xlink:title="Get the maximum market order quantity to obtain a delta in the buying power used by a security....">
<polygon fill="#bfbfbf" stroke="black" points="0,-53 0,-94 207,-94 207,-53 0,-53"/>
<text text-anchor="start" x="8" y="-82" font-family="Helvetica,sans-Serif" font-size="10.00">QuantConnect.Securities.</text>
<text text-anchor="start" x="8" y="-71" font-family="Helvetica,sans-Serif" font-size="10.00">BuyingPowerModel.GetMaximumOrder</text>
<text text-anchor="middle" x="103.5" y="-60" font-family="Helvetica,sans-Serif" font-size="10.00">QuantityForDeltaBuyingPower</text>
</a>
</g>
</g>
<!-- Node2 -->
<g id="node2" class="node">
<title>Node2</title>
<g id="a_node2"><a xlink:href="classQuantConnect_1_1Securities_1_1BuyingPowerModel.html#ac77dd32649e7d51e54d52b2d3b695afc" target="_top" xlink:title="Get the maximum market order quantity to obtain a position with a given buying power percentage....">
<polygon fill="white" stroke="black" points="243,-83 243,-124 450,-124 450,-83 243,-83"/>
<text text-anchor="start" x="251" y="-112" font-family="Helvetica,sans-Serif" font-size="10.00">QuantConnect.Securities.</text>
<text text-anchor="start" x="251" y="-101" font-family="Helvetica,sans-Serif" font-size="10.00">BuyingPowerModel.GetMaximumOrder</text>
<text text-anchor="middle" x="346.5" y="-90" font-family="Helvetica,sans-Serif" font-size="10.00">QuantityForTargetBuyingPower</text>
</a>
</g>
</g>
<!-- Node1&#45;&gt;Node2 -->
<g id="edge1" class="edge">
<title>Node1&#45;&gt;Node2</title>
<path fill="none" stroke="midnightblue" d="M207.06,-86.27C215.53,-87.32 224.12,-88.39 232.66,-89.45"/>
<polygon fill="midnightblue" stroke="midnightblue" points="232.3,-92.94 242.65,-90.7 233.16,-85.99 232.3,-92.94"/>
</g>
<!-- Node10 -->
<g id="node10" class="node">
<title>Node10</title>
<g id="a_node10"><a xlink:href="interfaceQuantConnect_1_1Securities_1_1IBuyingPowerModel.html#a68f30be9a1112b61d4e2a6d557609b14" target="_top" xlink:title="Gets the amount of buying power reserved to maintain the specified position">
<polygon fill="white" stroke="black" points="257,-23 257,-64 436,-64 436,-23 257,-23"/>
<text text-anchor="start" x="265" y="-52" font-family="Helvetica,sans-Serif" font-size="10.00">QuantConnect.Securities.</text>
<text text-anchor="start" x="265" y="-41" font-family="Helvetica,sans-Serif" font-size="10.00">IBuyingPowerModel.GetReserved</text>
<text text-anchor="middle" x="346.5" y="-30" font-family="Helvetica,sans-Serif" font-size="10.00">BuyingPowerForPosition</text>
</a>
</g>
</g>
<!-- Node1&#45;&gt;Node10 -->
<g id="edge10" class="edge">
<title>Node1&#45;&gt;Node10</title>
<path fill="none" stroke="midnightblue" d="M207.06,-60.73C220.22,-59.09 233.69,-57.42 246.79,-55.79"/>
<polygon fill="midnightblue" stroke="midnightblue" points="247.24,-59.26 256.74,-54.55 246.38,-52.31 247.24,-59.26"/>
</g>
<!-- Node3 -->
<g id="node3" class="node">
<title>Node3</title>
<g id="a_node3"><a xlink:href="classQuantConnect_1_1Securities_1_1BuyingPowerModelExtensions.html#adecc3ccbaa197cbacbfb4c6e9cba9b0d" target="_top" xlink:title="Helper method to determine if the requested quantity is above the algorithm minimum order margin port...">
<polygon fill="white" stroke="black" points="486,-187 486,-228 706,-228 706,-187 486,-187"/>
<text text-anchor="start" x="494" y="-216" font-family="Helvetica,sans-Serif" font-size="10.00">QuantConnect.Securities.</text>
<text text-anchor="start" x="494" y="-205" font-family="Helvetica,sans-Serif" font-size="10.00">BuyingPowerModelExtensions.Above</text>
<text text-anchor="middle" x="596" y="-194" font-family="Helvetica,sans-Serif" font-size="10.00">MinimumOrderMarginPortfolioPercentage</text>
</a>
</g>
</g>
<!-- Node2&#45;&gt;Node3 -->
<g id="edge2" class="edge">
<title>Node2&#45;&gt;Node3</title>
<path fill="none" stroke="midnightblue" d="M380.92,-124.08C408.36,-140.3 448.65,-162.6 486,-177.5 491.49,-179.69 497.19,-181.78 502.99,-183.76"/>
<polygon fill="midnightblue" stroke="midnightblue" points="502.21,-187.19 512.81,-187 504.4,-180.54 502.21,-187.19"/>
</g>
<!-- Node5 -->
<g id="node5" class="node">
<title>Node5</title>
<g id="a_node5"><a xlink:href="classQuantConnect_1_1Securities_1_1CashBook.html#a439b770734d62b9b60bd06a56fbdbb1c" target="_top" xlink:title="Converts a quantity of source currency units into the account currency">
<polygon fill="white" stroke="black" points="496,-137.5 496,-167.5 696,-167.5 696,-137.5 496,-137.5"/>
<text text-anchor="start" x="504" y="-155.5" font-family="Helvetica,sans-Serif" font-size="10.00">QuantConnect.Securities.</text>
<text text-anchor="middle" x="596" y="-144.5" font-family="Helvetica,sans-Serif" font-size="10.00">CashBook.ConvertToAccountCurrency</text>
</a>
</g>
</g>
<!-- Node2&#45;&gt;Node5 -->
<g id="edge4" class="edge">
<title>Node2&#45;&gt;Node5</title>
<path fill="none" stroke="midnightblue" d="M450.31,-123.85C469.79,-127.71 489.98,-131.71 508.87,-135.45"/>
<polygon fill="midnightblue" stroke="midnightblue" points="508.43,-138.93 518.92,-137.44 509.79,-132.06 508.43,-138.93"/>
</g>
<!-- Node7 -->
<g id="node7" class="node">
<title>Node7</title>
<g id="a_node7"><a xlink:href="classQuantConnect_1_1Securities_1_1BuyingPowerModel.html#a6fb319ab1565fa5c2a40fef7ea694dff" target="_top" xlink:title="Helper function that determines the amount to order to get to a given target safely....">
<polygon fill="white" stroke="black" points="493,-88.5 493,-118.5 699,-118.5 699,-88.5 493,-88.5"/>
<text text-anchor="start" x="501" y="-106.5" font-family="Helvetica,sans-Serif" font-size="10.00">QuantConnect.Securities.</text>
<text text-anchor="middle" x="596" y="-95.5" font-family="Helvetica,sans-Serif" font-size="10.00">BuyingPowerModel.GetAmountToOrder</text>
</a>
</g>
</g>
<!-- Node2&#45;&gt;Node7 -->
<g id="edge6" class="edge">
<title>Node2&#45;&gt;Node7</title>
<path fill="none" stroke="midnightblue" d="M450.31,-103.5C460.98,-103.5 471.86,-103.5 482.63,-103.5"/>
<polygon fill="midnightblue" stroke="midnightblue" points="482.91,-107 492.91,-103.5 482.91,-100 482.91,-107"/>
</g>
<!-- Node8 -->
<g id="node8" class="node">
<title>Node8</title>
<g id="a_node8"><a xlink:href="classQuantConnect_1_1Securities_1_1BuyingPowerModel.html#a662d7e6905d1818ee738b142a05399af" target="_top" xlink:title="The margin that must be held in order to increase the position by the provided quantity">
<polygon fill="white" stroke="black" points="742,-58 742,-99 934,-99 934,-58 742,-58"/>
<text text-anchor="start" x="750" y="-87" font-family="Helvetica,sans-Serif" font-size="10.00">QuantConnect.Securities.</text>
<text text-anchor="start" x="750" y="-76" font-family="Helvetica,sans-Serif" font-size="10.00">BuyingPowerModel.GetInitialMargin</text>
<text text-anchor="middle" x="838" y="-65" font-family="Helvetica,sans-Serif" font-size="10.00">Requirement</text>
</a>
</g>
</g>
<!-- Node2&#45;&gt;Node8 -->
<g id="edge8" class="edge">
<title>Node2&#45;&gt;Node8</title>
<path fill="none" stroke="midnightblue" d="M449.33,-82.99C461.64,-81.14 474.08,-79.57 486,-78.5 568.29,-71.13 661.87,-71.57 731.7,-73.61"/>
<polygon fill="midnightblue" stroke="midnightblue" points="731.72,-77.11 741.82,-73.92 731.94,-70.12 731.72,-77.11"/>
</g>
<!-- Node9 -->
<g id="node9" class="node">
<title>Node9</title>
<g id="a_node9"><a xlink:href="interfaceQuantConnect_1_1Orders_1_1Fees_1_1IFeeModel.html#ab0bf50e204c8c07f1d37fd7680f23e59" target="_top" xlink:title="Gets the order fee associated with the specified order.">
<polygon fill="white" stroke="black" points="521.5,-0.5 521.5,-30.5 670.5,-30.5 670.5,-0.5 521.5,-0.5"/>
<text text-anchor="start" x="529.5" y="-18.5" font-family="Helvetica,sans-Serif" font-size="10.00">QuantConnect.Orders.Fees.</text>
<text text-anchor="middle" x="596" y="-7.5" font-family="Helvetica,sans-Serif" font-size="10.00">IFeeModel.GetOrderFee</text>
</a>
</g>
</g>
<!-- Node2&#45;&gt;Node9 -->
<g id="edge9" class="edge">
<title>Node2&#45;&gt;Node9</title>
<path fill="none" stroke="midnightblue" d="M428.36,-82.99C435.83,-80.16 443.15,-77 450,-73.5 468.05,-64.27 467.88,-54.59 486,-45.5 495.11,-40.93 505,-36.98 514.99,-33.59"/>
<polygon fill="midnightblue" stroke="midnightblue" points="516.13,-36.9 524.58,-30.51 513.99,-30.24 516.13,-36.9"/>
</g>
<!-- Node4 -->
<g id="node4" class="node">
<title>Node4</title>
<g id="a_node4"><a xlink:href="interfaceQuantConnect_1_1Securities_1_1IBuyingPowerModel.html#ae4a939584ffb7a7d468023f57dba17be" target="_top" xlink:title="The margin that must be held in order to increase the position by the provided quantity">
<polygon fill="white" stroke="black" points="757.5,-187 757.5,-228 918.5,-228 918.5,-187 757.5,-187"/>
<text text-anchor="start" x="765.5" y="-216" font-family="Helvetica,sans-Serif" font-size="10.00">QuantConnect.Securities.</text>
<text text-anchor="start" x="765.5" y="-205" font-family="Helvetica,sans-Serif" font-size="10.00">IBuyingPowerModel.GetInitial</text>
<text text-anchor="middle" x="838" y="-194" font-family="Helvetica,sans-Serif" font-size="10.00">MarginRequirement</text>
</a>
</g>
</g>
<!-- Node3&#45;&gt;Node4 -->
<g id="edge3" class="edge">
<title>Node3&#45;&gt;Node4</title>
<path fill="none" stroke="midnightblue" d="M706.11,-207.5C719.83,-207.5 733.74,-207.5 747.11,-207.5"/>
<polygon fill="midnightblue" stroke="midnightblue" points="747.22,-211 757.22,-207.5 747.22,-204 747.22,-211"/>
</g>
<!-- Node6 -->
<g id="node6" class="node">
<title>Node6</title>
<g id="a_node6"><a xlink:href="classQuantConnect_1_1Securities_1_1CashBook.html#a3a2cfc4aac92b0740a9bad6c94b42d3b" target="_top" xlink:title="Converts a quantity of source currency units into the specified destination currency">
<polygon fill="white" stroke="black" points="768,-137.5 768,-167.5 908,-167.5 908,-137.5 768,-137.5"/>
<text text-anchor="start" x="776" y="-155.5" font-family="Helvetica,sans-Serif" font-size="10.00">QuantConnect.Securities.</text>
<text text-anchor="middle" x="838" y="-144.5" font-family="Helvetica,sans-Serif" font-size="10.00">CashBook.Convert</text>
</a>
</g>
</g>
<!-- Node5&#45;&gt;Node6 -->
<g id="edge5" class="edge">
<title>Node5&#45;&gt;Node6</title>
<path fill="none" stroke="midnightblue" d="M696,-152.5C716.56,-152.5 737.98,-152.5 757.72,-152.5"/>
<polygon fill="midnightblue" stroke="midnightblue" points="757.88,-156 767.88,-152.5 757.88,-149 757.88,-156"/>
</g>
<!-- Node7&#45;&gt;Node8 -->
<g id="edge7" class="edge">
<title>Node7&#45;&gt;Node8</title>
<path fill="none" stroke="midnightblue" d="M699.13,-92.86C709.86,-91.74 720.79,-90.61 731.56,-89.48"/>
<polygon fill="midnightblue" stroke="midnightblue" points="732.24,-92.93 741.82,-88.41 731.51,-85.97 732.24,-92.93"/>
</g>
</g>
</svg>
        <g id="navigator" transform="translate(0 0)" fill="#404254">
                <rect fill="#f2f5e9" fill-opacity="0.5" stroke="#606060" stroke-width=".5" x="0" y="0" width="60" height="60"/>
                <use id="zoomplus" xlink:href="#zoomPlus" x="17" y="9" onmousedown="handleZoom(evt,'in')"/>
                <use id="zoomminus" xlink:href="#zoomMin" x="42" y="9" onmousedown="handleZoom(evt,'out')"/>
                <use id="reset" xlink:href="#resetDef" x="30" y="36" onmousedown="handleReset()"/>
                <g id="arrowUp" xlink:href="#dirArrow" transform="translate(30 24)" onmousedown="handlePan(0,-1)">
                  <use xlink:href="#rim" fill="#404040">
                        <set attributeName="fill" to="#808080" begin="arrowUp.mouseover" end="arrowUp.mouseout"/>
                  </use>
                  <path fill="none" stroke="white" stroke-width="1.5" d="M0,-3.0v7 M-2.5,-0.5L0,-3.0L2.5,-0.5"/>
                </g>
                <g id="arrowRight" xlink:href="#dirArrow" transform="rotate(90) translate(36 -43)" onmousedown="handlePan(1,0)">
                  <use xlink:href="#rim" fill="#404040">
                        <set attributeName="fill" to="#808080" begin="arrowRight.mouseover" end="arrowRight.mouseout"/>
                  </use>
                  <path fill="none" stroke="white" stroke-width="1.5" d="M0,-3.0v7 M-2.5,-0.5L0,-3.0L2.5,-0.5"/>
                </g>
                <g id="arrowDown" xlink:href="#dirArrow" transform="rotate(180) translate(-30 -48)" onmousedown="handlePan(0,1)">
                  <use xlink:href="#rim" fill="#404040">
                        <set attributeName="fill" to="#808080" begin="arrowDown.mouseover" end="arrowDown.mouseout"/>
                  </use>
                  <path fill="none" stroke="white" stroke-width="1.5" d="M0,-3.0v7 M-2.5,-0.5L0,-3.0L2.5,-0.5"/>
                </g>
                <g id="arrowLeft" xlink:href="#dirArrow" transform="rotate(270) translate(-36 17)" onmousedown="handlePan(-1,0)">
                  <use xlink:href="#rim" fill="#404040">
                        <set attributeName="fill" to="#808080" begin="arrowLeft.mouseover" end="arrowLeft.mouseout"/>
                  </use>
                  <path fill="none" stroke="white" stroke-width="1.5" d="M0,-3.0v7 M-2.5,-0.5L0,-3.0L2.5,-0.5"/>
                </g>
        </g>
        <svg viewBox="0 0 15 15" width="100%" height="30px" preserveAspectRatio="xMaxYMin meet">
         <g id="arrow_out" transform="scale(0.3 0.3)">
          <a xlink:href="classQuantConnect_1_1Securities_1_1BuyingPowerModel_a47123e9eef707732a20838c29a8bee69_cgraph_org.svg" target="_base">
           <rect id="button" ry="5" rx="5" y="6" x="6" height="38" width="38"
                fill="#f2f5e9" fill-opacity="0.5" stroke="#606060" stroke-width="1.0"/>
           <path id="arrow"
             d="M 11.500037,31.436501 C 11.940474,20.09759 22.043105,11.32322 32.158766,21.979434 L 37.068811,17.246167 C 37.068811,17.246167 37.088388,32 37.088388,32 L 22.160133,31.978069 C 22.160133,31.978069 26.997745,27.140456 26.997745,27.140456 C 18.528582,18.264221 13.291696,25.230495 11.500037,31.436501 z"
             style="fill:#404040;"/>
          </a>
         </g>
        </svg>
</svg>
