<?xml version="1.0" encoding="UTF-8" standalone="no"?>
<!DOCTYPE svg PUBLIC "-//W3C//DTD SVG 1.1//EN"
 "http://www.w3.org/Graphics/SVG/1.1/DTD/svg11.dtd">
<!-- Generated by graphviz version 2.43.0 (0)
 -->
<!-- Title: QuantConnect.Data.Fundamental.ROE Pages: 1 -->
<svg width="210pt" height="140pt"
 viewBox="0.00 0.00 210.00 140.00" xmlns="http://www.w3.org/2000/svg" xmlns:xlink="http://www.w3.org/1999/xlink">
<g id="graph0" class="graph" transform="scale(1 1) rotate(0) translate(4 136)">
<title>QuantConnect.Data.Fundamental.ROE</title>
<polygon fill="white" stroke="transparent" points="-4,4 -4,-136 206,-136 206,4 -4,4"/>
<!-- Node1 -->
<g id="node1" class="node">
<title>Node1</title>
<g id="a_node1"><a xlink:title="Net Income / Average Total Common Equity">
<polygon fill="#bfbfbf" stroke="black" points="0,-0.5 0,-19.5 202,-19.5 202,-0.5 0,-0.5"/>
<text text-anchor="middle" x="101" y="-7.5" font-family="Helvetica,sans-Serif" font-size="10.00">QuantConnect.Data.Fundamental.ROE</text>
</a>
</g>
</g>
<!-- Node2 -->
<g id="node2" class="node">
<title>Node2</title>
<g id="a_node2"><a xlink:href="classQuantConnect_1_1Data_1_1Fundamental_1_1MultiPeriodField.html" target="_top" xlink:title="Abstract base class for multi&#45;period fields">
<polygon fill="white" stroke="black" points="53.5,-56.5 53.5,-75.5 148.5,-75.5 148.5,-56.5 53.5,-56.5"/>
<text text-anchor="middle" x="101" y="-63.5" font-family="Helvetica,sans-Serif" font-size="10.00">MultiPeriodField</text>
</a>
</g>
</g>
<!-- Node2&#45;&gt;Node1 -->
<g id="edge1" class="edge">
<title>Node2&#45;&gt;Node1</title>
<path fill="none" stroke="midnightblue" d="M101,-45.8C101,-36.91 101,-26.78 101,-19.75"/>
<polygon fill="midnightblue" stroke="midnightblue" points="97.5,-46.08 101,-56.08 104.5,-46.08 97.5,-46.08"/>
</g>
<!-- Node3 -->
<g id="node3" class="node">
<title>Node3</title>
<g id="a_node3"><a xlink:title=" ">
<polygon fill="white" stroke="#bfbfbf" points="42,-112.5 42,-131.5 160,-131.5 160,-112.5 42,-112.5"/>
<text text-anchor="middle" x="101" y="-119.5" font-family="Helvetica,sans-Serif" font-size="10.00">ReusuableCLRObject</text>
</a>
</g>
</g>
<!-- Node3&#45;&gt;Node2 -->
<g id="edge2" class="edge">
<title>Node3&#45;&gt;Node2</title>
<path fill="none" stroke="midnightblue" d="M101,-101.8C101,-92.91 101,-82.78 101,-75.75"/>
<polygon fill="midnightblue" stroke="midnightblue" points="97.5,-102.08 101,-112.08 104.5,-102.08 97.5,-102.08"/>
</g>
</g>
</svg>
