<?xml version="1.0" encoding="UTF-8" standalone="no"?>
<!DOCTYPE svg PUBLIC "-//W3C//DTD SVG 1.1//EN"
 "http://www.w3.org/Graphics/SVG/1.1/DTD/svg11.dtd">
<!-- Generated by graphviz version 2.43.0 (0)
 -->
<!-- Title: QuantConnect.Securities.SecurityTransactionManager.ProcessRequest Pages: 1 -->
<svg width="1438pt" height="431pt"
 viewBox="0.00 0.00 1438.00 431.00" xmlns="http://www.w3.org/2000/svg" xmlns:xlink="http://www.w3.org/1999/xlink">
<g id="graph0" class="graph" transform="scale(1 1) rotate(0) translate(4 427)">
<title>QuantConnect.Securities.SecurityTransactionManager.ProcessRequest</title>
<polygon fill="white" stroke="transparent" points="-4,4 -4,-427 1434,-427 1434,4 -4,4"/>
<!-- Node1 -->
<g id="node1" class="node">
<title>Node1</title>
<g id="a_node1"><a xlink:title="Processes the order request">
<polygon fill="#bfbfbf" stroke="black" points="1236,-117 1236,-158 1430,-158 1430,-117 1236,-117"/>
<text text-anchor="start" x="1244" y="-146" font-family="Helvetica,sans-Serif" font-size="10.00">QuantConnect.Securities.</text>
<text text-anchor="start" x="1244" y="-135" font-family="Helvetica,sans-Serif" font-size="10.00">SecurityTransactionManager.Process</text>
<text text-anchor="middle" x="1333" y="-124" font-family="Helvetica,sans-Serif" font-size="10.00">Request</text>
</a>
</g>
</g>
<!-- Node2 -->
<g id="node2" class="node">
<title>Node2</title>
<g id="a_node2"><a xlink:href="classQuantConnect_1_1Securities_1_1SecurityTransactionManager.html#a1be0501e49d4cce848dcc123183fed8f" target="_top" xlink:title="Add an order to collection and return the unique order id or negative if an error.">
<polygon fill="white" stroke="black" points="986.5,-220.5 986.5,-250.5 1189.5,-250.5 1189.5,-220.5 986.5,-220.5"/>
<text text-anchor="start" x="994.5" y="-238.5" font-family="Helvetica,sans-Serif" font-size="10.00">QuantConnect.Securities.</text>
<text text-anchor="middle" x="1088" y="-227.5" font-family="Helvetica,sans-Serif" font-size="10.00">SecurityTransactionManager.AddOrder</text>
</a>
</g>
</g>
<!-- Node1&#45;&gt;Node2 -->
<g id="edge1" class="edge">
<title>Node1&#45;&gt;Node2</title>
<path fill="none" stroke="midnightblue" d="M1271.59,-161.86C1226.06,-180.22 1165.07,-204.82 1126.39,-220.42"/>
<polygon fill="midnightblue" stroke="midnightblue" points="1273.09,-165.03 1281.06,-158.04 1270.48,-158.54 1273.09,-165.03"/>
</g>
<!-- Node14 -->
<g id="node14" class="node">
<title>Node14</title>
<g id="a_node14"><a xlink:href="classQuantConnect_1_1Securities_1_1SecurityTransactionManager.html#a6fe591d16ed8ad4a34c018ddcf8111b1" target="_top" xlink:title="Remove this order from outstanding queue: user is requesting a cancel.">
<polygon fill="white" stroke="black" points="976,-122.5 976,-152.5 1200,-152.5 1200,-122.5 976,-122.5"/>
<text text-anchor="start" x="984" y="-140.5" font-family="Helvetica,sans-Serif" font-size="10.00">QuantConnect.Securities.</text>
<text text-anchor="middle" x="1088" y="-129.5" font-family="Helvetica,sans-Serif" font-size="10.00">SecurityTransactionManager.RemoveOrder</text>
</a>
</g>
</g>
<!-- Node1&#45;&gt;Node14 -->
<g id="edge13" class="edge">
<title>Node1&#45;&gt;Node14</title>
<path fill="none" stroke="midnightblue" d="M1225.93,-137.5C1217.33,-137.5 1208.63,-137.5 1200.01,-137.5"/>
<polygon fill="midnightblue" stroke="midnightblue" points="1225.96,-141 1235.96,-137.5 1225.96,-134 1225.96,-141"/>
</g>
<!-- Node19 -->
<g id="node19" class="node">
<title>Node19</title>
<g id="a_node19"><a xlink:href="classQuantConnect_1_1Securities_1_1SecurityTransactionManager.html#aaa9a95fc5ae2949cedfb01f542264308" target="_top" xlink:title="Update an order yet to be filled such as stop or limit orders.">
<polygon fill="white" stroke="black" points="978.5,-73.5 978.5,-103.5 1197.5,-103.5 1197.5,-73.5 978.5,-73.5"/>
<text text-anchor="start" x="986.5" y="-91.5" font-family="Helvetica,sans-Serif" font-size="10.00">QuantConnect.Securities.</text>
<text text-anchor="middle" x="1088" y="-80.5" font-family="Helvetica,sans-Serif" font-size="10.00">SecurityTransactionManager.UpdateOrder</text>
</a>
</g>
</g>
<!-- Node1&#45;&gt;Node19 -->
<g id="edge18" class="edge">
<title>Node1&#45;&gt;Node19</title>
<path fill="none" stroke="midnightblue" d="M1226.04,-116.13C1205.05,-111.9 1183.43,-107.54 1163.74,-103.57"/>
<polygon fill="midnightblue" stroke="midnightblue" points="1225.47,-119.59 1235.96,-118.13 1226.85,-112.73 1225.47,-119.59"/>
</g>
<!-- Node3 -->
<g id="node3" class="node">
<title>Node3</title>
<g id="a_node3"><a xlink:href="classQuantConnect_1_1Securities_1_1DefaultMarginCallModel.html#a7c489c9899a3685a318889925b306812" target="_top" xlink:title="Executes synchronous orders to bring the account within margin requirements.">
<polygon fill="white" stroke="black" points="743.5,-295 743.5,-336 919.5,-336 919.5,-295 743.5,-295"/>
<text text-anchor="start" x="751.5" y="-324" font-family="Helvetica,sans-Serif" font-size="10.00">QuantConnect.Securities.</text>
<text text-anchor="start" x="751.5" y="-313" font-family="Helvetica,sans-Serif" font-size="10.00">DefaultMarginCallModel.Execute</text>
<text text-anchor="middle" x="831.5" y="-302" font-family="Helvetica,sans-Serif" font-size="10.00">MarginCall</text>
</a>
</g>
</g>
<!-- Node2&#45;&gt;Node3 -->
<g id="edge2" class="edge">
<title>Node2&#45;&gt;Node3</title>
<path fill="none" stroke="midnightblue" d="M1035.15,-253.92C1007.1,-263.69 971.79,-275.67 940,-285.5 929.73,-288.68 918.85,-291.89 908.13,-294.97"/>
<polygon fill="midnightblue" stroke="midnightblue" points="1036.46,-257.17 1044.75,-250.57 1034.15,-250.56 1036.46,-257.17"/>
</g>
<!-- Node4 -->
<g id="node4" class="node">
<title>Node4</title>
<g id="a_node4"><a xlink:href="classQuantConnect_1_1Algorithm_1_1QCAlgorithm.html#a11352466438b0832f09b224722815e72" target="_top" xlink:title="Send an exercise order to the transaction handler">
<polygon fill="white" stroke="black" points="729,-245.5 729,-275.5 934,-275.5 934,-245.5 729,-245.5"/>
<text text-anchor="start" x="737" y="-263.5" font-family="Helvetica,sans-Serif" font-size="10.00">QuantConnect.Algorithm.QCAlgorithm.</text>
<text text-anchor="middle" x="831.5" y="-252.5" font-family="Helvetica,sans-Serif" font-size="10.00">ExerciseOption</text>
</a>
</g>
</g>
<!-- Node2&#45;&gt;Node4 -->
<g id="edge3" class="edge">
<title>Node2&#45;&gt;Node4</title>
<path fill="none" stroke="midnightblue" d="M976.25,-246.38C962.21,-247.76 947.91,-249.16 934.02,-250.53"/>
<polygon fill="midnightblue" stroke="midnightblue" points="976.8,-249.84 986.41,-245.38 976.12,-242.88 976.8,-249.84"/>
</g>
<!-- Node5 -->
<g id="node5" class="node">
<title>Node5</title>
<g id="a_node5"><a xlink:href="classQuantConnect_1_1Algorithm_1_1QCAlgorithm.html#aed520bc1af3bc057b69377969069d14a" target="_top" xlink:title="Will submit an order request to the algorithm">
<polygon fill="white" stroke="black" points="729,-196.5 729,-226.5 934,-226.5 934,-196.5 729,-196.5"/>
<text text-anchor="start" x="737" y="-214.5" font-family="Helvetica,sans-Serif" font-size="10.00">QuantConnect.Algorithm.QCAlgorithm.</text>
<text text-anchor="middle" x="831.5" y="-203.5" font-family="Helvetica,sans-Serif" font-size="10.00">SubmitOrderRequest</text>
</a>
</g>
</g>
<!-- Node2&#45;&gt;Node5 -->
<g id="edge4" class="edge">
<title>Node2&#45;&gt;Node5</title>
<path fill="none" stroke="midnightblue" d="M976.25,-225.06C962.21,-223.73 947.91,-222.38 934.02,-221.07"/>
<polygon fill="midnightblue" stroke="midnightblue" points="976.13,-228.56 986.41,-226.01 976.79,-221.59 976.13,-228.56"/>
</g>
<!-- Node6 -->
<g id="node6" class="node">
<title>Node6</title>
<g id="a_node6"><a xlink:href="classQuantConnect_1_1Algorithm_1_1QCAlgorithm.html#ad9a268098626dd7a455072aa7e78663b" target="_top" xlink:title="Send a limit if touched order to the transaction handler:">
<polygon fill="white" stroke="black" points="482,-392.5 482,-422.5 687,-422.5 687,-392.5 482,-392.5"/>
<text text-anchor="start" x="490" y="-410.5" font-family="Helvetica,sans-Serif" font-size="10.00">QuantConnect.Algorithm.QCAlgorithm.</text>
<text text-anchor="middle" x="584.5" y="-399.5" font-family="Helvetica,sans-Serif" font-size="10.00">LimitIfTouchedOrder</text>
</a>
</g>
</g>
<!-- Node5&#45;&gt;Node6 -->
<g id="edge5" class="edge">
<title>Node5&#45;&gt;Node6</title>
<path fill="none" stroke="midnightblue" d="M727.48,-232.48C725.93,-233.75 724.43,-235.09 723,-236.5 675.16,-283.78 734.75,-336.13 687,-383.5 683.66,-386.82 679.95,-389.71 675.98,-392.22"/>
<polygon fill="midnightblue" stroke="midnightblue" points="729.51,-235.32 735.66,-226.69 725.47,-229.61 729.51,-235.32"/>
</g>
<!-- Node7 -->
<g id="node7" class="node">
<title>Node7</title>
<g id="a_node7"><a xlink:href="classQuantConnect_1_1Algorithm_1_1QCAlgorithm.html#a5e12bb6fbf89897332248876072a32ad" target="_top" xlink:title="Send a limit order to the transaction handler:">
<polygon fill="white" stroke="black" points="482,-343.5 482,-373.5 687,-373.5 687,-343.5 482,-343.5"/>
<text text-anchor="start" x="490" y="-361.5" font-family="Helvetica,sans-Serif" font-size="10.00">QuantConnect.Algorithm.QCAlgorithm.</text>
<text text-anchor="middle" x="584.5" y="-350.5" font-family="Helvetica,sans-Serif" font-size="10.00">LimitOrder</text>
</a>
</g>
</g>
<!-- Node5&#45;&gt;Node7 -->
<g id="edge6" class="edge">
<title>Node5&#45;&gt;Node7</title>
<path fill="none" stroke="midnightblue" d="M728.56,-232.06C726.64,-233.45 724.78,-234.93 723,-236.5 688.23,-267.22 721.72,-303.71 687,-334.5 683.21,-337.86 679.03,-340.78 674.6,-343.3"/>
<polygon fill="midnightblue" stroke="midnightblue" points="730.8,-234.79 737.41,-226.51 727.08,-228.86 730.8,-234.79"/>
</g>
<!-- Node8 -->
<g id="node8" class="node">
<title>Node8</title>
<g id="a_node8"><a xlink:href="classQuantConnect_1_1Algorithm_1_1QCAlgorithm.html#aec7219e6a4c77563371aba6b39407d9a" target="_top" xlink:title="Market on close order implementation: Send a market order when the exchange closes">
<polygon fill="white" stroke="black" points="482,-294.5 482,-324.5 687,-324.5 687,-294.5 482,-294.5"/>
<text text-anchor="start" x="490" y="-312.5" font-family="Helvetica,sans-Serif" font-size="10.00">QuantConnect.Algorithm.QCAlgorithm.</text>
<text text-anchor="middle" x="584.5" y="-301.5" font-family="Helvetica,sans-Serif" font-size="10.00">MarketOnCloseOrder</text>
</a>
</g>
</g>
<!-- Node5&#45;&gt;Node8 -->
<g id="edge7" class="edge">
<title>Node5&#45;&gt;Node8</title>
<path fill="none" stroke="midnightblue" d="M732.84,-230.78C729.44,-232.52 726.14,-234.43 723,-236.5 700.44,-251.37 709.53,-270.58 687,-285.5 681.79,-288.95 676.14,-291.9 670.27,-294.43"/>
<polygon fill="midnightblue" stroke="midnightblue" points="734.47,-233.88 742.08,-226.52 731.54,-227.53 734.47,-233.88"/>
</g>
<!-- Node9 -->
<g id="node9" class="node">
<title>Node9</title>
<g id="a_node9"><a xlink:href="classQuantConnect_1_1Algorithm_1_1QCAlgorithm.html#a9db2f04661a682232fcaff5cfdb6470e" target="_top" xlink:title="Market on open order implementation: Send a market order when the exchange opens">
<polygon fill="white" stroke="black" points="482,-245.5 482,-275.5 687,-275.5 687,-245.5 482,-245.5"/>
<text text-anchor="start" x="490" y="-263.5" font-family="Helvetica,sans-Serif" font-size="10.00">QuantConnect.Algorithm.QCAlgorithm.</text>
<text text-anchor="middle" x="584.5" y="-252.5" font-family="Helvetica,sans-Serif" font-size="10.00">MarketOnOpenOrder</text>
</a>
</g>
</g>
<!-- Node5&#45;&gt;Node9 -->
<g id="edge8" class="edge">
<title>Node5&#45;&gt;Node9</title>
<path fill="none" stroke="midnightblue" d="M745.3,-228.54C717.71,-234.06 687.33,-240.13 660.53,-245.49"/>
<polygon fill="midnightblue" stroke="midnightblue" points="746.21,-231.93 755.33,-226.53 744.83,-225.06 746.21,-231.93"/>
</g>
<!-- Node10 -->
<g id="node10" class="node">
<title>Node10</title>
<g id="a_node10"><a xlink:href="classQuantConnect_1_1Algorithm_1_1QCAlgorithm.html#a741fed77f0c320fdec734f00457634f4" target="_top" xlink:title="Market order implementation: Send a market order and wait for it to be filled.">
<polygon fill="white" stroke="black" points="482,-196.5 482,-226.5 687,-226.5 687,-196.5 482,-196.5"/>
<text text-anchor="start" x="490" y="-214.5" font-family="Helvetica,sans-Serif" font-size="10.00">QuantConnect.Algorithm.QCAlgorithm.</text>
<text text-anchor="middle" x="584.5" y="-203.5" font-family="Helvetica,sans-Serif" font-size="10.00">MarketOrder</text>
</a>
</g>
</g>
<!-- Node5&#45;&gt;Node10 -->
<g id="edge9" class="edge">
<title>Node5&#45;&gt;Node10</title>
<path fill="none" stroke="midnightblue" d="M718.42,-211.5C708.06,-211.5 697.61,-211.5 687.35,-211.5"/>
<polygon fill="midnightblue" stroke="midnightblue" points="718.73,-215 728.73,-211.5 718.73,-208 718.73,-215"/>
</g>
<!-- Node11 -->
<g id="node11" class="node">
<title>Node11</title>
<g id="a_node11"><a xlink:href="classQuantConnect_1_1Algorithm_1_1QCAlgorithm.html#a4bcd1aed562ce3d533646b4c8c1b29c7" target="_top" xlink:title="Send a stop limit order to the transaction handler:">
<polygon fill="white" stroke="black" points="482,-147.5 482,-177.5 687,-177.5 687,-147.5 482,-147.5"/>
<text text-anchor="start" x="490" y="-165.5" font-family="Helvetica,sans-Serif" font-size="10.00">QuantConnect.Algorithm.QCAlgorithm.</text>
<text text-anchor="middle" x="584.5" y="-154.5" font-family="Helvetica,sans-Serif" font-size="10.00">StopLimitOrder</text>
</a>
</g>
</g>
<!-- Node5&#45;&gt;Node11 -->
<g id="edge10" class="edge">
<title>Node5&#45;&gt;Node11</title>
<path fill="none" stroke="midnightblue" d="M745.3,-194.46C717.71,-188.94 687.33,-182.87 660.53,-177.51"/>
<polygon fill="midnightblue" stroke="midnightblue" points="744.83,-197.94 755.33,-196.47 746.21,-191.07 744.83,-197.94"/>
</g>
<!-- Node12 -->
<g id="node12" class="node">
<title>Node12</title>
<g id="a_node12"><a xlink:href="classQuantConnect_1_1Algorithm_1_1QCAlgorithm.html#a73c0b5f7aeb41f314ab8cc674c75beff" target="_top" xlink:title="Create a stop market order and return the newly created order id; or negative if the order is invalid">
<polygon fill="white" stroke="black" points="482,-98.5 482,-128.5 687,-128.5 687,-98.5 482,-98.5"/>
<text text-anchor="start" x="490" y="-116.5" font-family="Helvetica,sans-Serif" font-size="10.00">QuantConnect.Algorithm.QCAlgorithm.</text>
<text text-anchor="middle" x="584.5" y="-105.5" font-family="Helvetica,sans-Serif" font-size="10.00">StopMarketOrder</text>
</a>
</g>
</g>
<!-- Node5&#45;&gt;Node12 -->
<g id="edge11" class="edge">
<title>Node5&#45;&gt;Node12</title>
<path fill="none" stroke="midnightblue" d="M796.64,-191.47C768.18,-175.33 726.01,-153.01 687,-138.5 677.05,-134.8 666.35,-131.48 655.75,-128.57"/>
<polygon fill="midnightblue" stroke="midnightblue" points="794.96,-194.55 805.38,-196.48 798.44,-188.47 794.96,-194.55"/>
</g>
<!-- Node13 -->
<g id="node13" class="node">
<title>Node13</title>
<g id="a_node13"><a xlink:href="classQuantConnect_1_1Algorithm_1_1QCAlgorithm.html#ac8fd3037ca1ce8011ca4daf849e9dab6" target="_top" xlink:title="Create a trailing stop order and return the newly created order id; or negative if the order is inval...">
<polygon fill="white" stroke="black" points="482,-49.5 482,-79.5 687,-79.5 687,-49.5 482,-49.5"/>
<text text-anchor="start" x="490" y="-67.5" font-family="Helvetica,sans-Serif" font-size="10.00">QuantConnect.Algorithm.QCAlgorithm.</text>
<text text-anchor="middle" x="584.5" y="-56.5" font-family="Helvetica,sans-Serif" font-size="10.00">TrailingStopOrder</text>
</a>
</g>
</g>
<!-- Node5&#45;&gt;Node13 -->
<g id="edge12" class="edge">
<title>Node5&#45;&gt;Node13</title>
<path fill="none" stroke="midnightblue" d="M807.29,-189.45C773.85,-158.1 713.27,-102.95 687,-89.5 679.41,-85.61 671.18,-82.31 662.81,-79.51"/>
<polygon fill="midnightblue" stroke="midnightblue" points="805.09,-192.19 814.77,-196.49 809.89,-187.09 805.09,-192.19"/>
</g>
<!-- Node15 -->
<g id="node15" class="node">
<title>Node15</title>
<g id="a_node15"><a xlink:href="classQuantConnect_1_1Securities_1_1SecurityTransactionManager.html#a55a9fd6793fffa2a3b897bb3e72d6674" target="_top" xlink:title="Added alias for RemoveOrder &#45;">
<polygon fill="white" stroke="black" points="723,-74.5 723,-104.5 940,-104.5 940,-74.5 723,-74.5"/>
<text text-anchor="start" x="731" y="-92.5" font-family="Helvetica,sans-Serif" font-size="10.00">QuantConnect.Securities.</text>
<text text-anchor="middle" x="831.5" y="-81.5" font-family="Helvetica,sans-Serif" font-size="10.00">SecurityTransactionManager.CancelOrder</text>
</a>
</g>
</g>
<!-- Node14&#45;&gt;Node15 -->
<g id="edge14" class="edge">
<title>Node14&#45;&gt;Node15</title>
<path fill="none" stroke="midnightblue" d="M997.08,-120.54C969.35,-115.31 939.03,-109.59 912.04,-104.5"/>
<polygon fill="midnightblue" stroke="midnightblue" points="996.7,-124.03 1007.17,-122.44 997.99,-117.15 996.7,-124.03"/>
</g>
<!-- Node16 -->
<g id="node16" class="node">
<title>Node16</title>
<g id="a_node16"><a xlink:href="classQuantConnect_1_1Algorithm_1_1QCAlgorithm.html#a508fd4e5eb28d4280af51f647994d6ee" target="_top" xlink:title="Liquidate all holdings and cancel open orders. Called at the end of day for tick&#45;strategies.">
<polygon fill="white" stroke="black" points="482,-0.5 482,-30.5 687,-30.5 687,-0.5 482,-0.5"/>
<text text-anchor="start" x="490" y="-18.5" font-family="Helvetica,sans-Serif" font-size="10.00">QuantConnect.Algorithm.QCAlgorithm.</text>
<text text-anchor="middle" x="584.5" y="-7.5" font-family="Helvetica,sans-Serif" font-size="10.00">Liquidate</text>
</a>
</g>
</g>
<!-- Node15&#45;&gt;Node16 -->
<g id="edge15" class="edge">
<title>Node15&#45;&gt;Node16</title>
<path fill="none" stroke="midnightblue" d="M781.55,-71.04C754,-61 718.83,-48.78 687,-39.5 676.22,-36.36 664.71,-33.33 653.46,-30.54"/>
<polygon fill="midnightblue" stroke="midnightblue" points="780.36,-74.33 790.96,-74.49 782.77,-67.76 780.36,-74.33"/>
</g>
<!-- Node17 -->
<g id="node17" class="node">
<title>Node17</title>
<g id="a_node17"><a xlink:href="classQuantConnect_1_1Algorithm_1_1QCAlgorithm.html#a6ece1896dff33aafccfb1707a83a77c3" target="_top" xlink:title="Removes the security with the specified symbol. This will cancel all open orders and then liquidate a...">
<polygon fill="white" stroke="black" points="241,-0.5 241,-30.5 446,-30.5 446,-0.5 241,-0.5"/>
<text text-anchor="start" x="249" y="-18.5" font-family="Helvetica,sans-Serif" font-size="10.00">QuantConnect.Algorithm.QCAlgorithm.</text>
<text text-anchor="middle" x="343.5" y="-7.5" font-family="Helvetica,sans-Serif" font-size="10.00">RemoveSecurity</text>
</a>
</g>
</g>
<!-- Node16&#45;&gt;Node17 -->
<g id="edge16" class="edge">
<title>Node16&#45;&gt;Node17</title>
<path fill="none" stroke="midnightblue" d="M471.78,-15.5C463.22,-15.5 454.6,-15.5 446.11,-15.5"/>
<polygon fill="midnightblue" stroke="midnightblue" points="471.8,-19 481.8,-15.5 471.8,-12 471.8,-19"/>
</g>
<!-- Node18 -->
<g id="node18" class="node">
<title>Node18</title>
<g id="a_node18"><a xlink:href="classQuantConnect_1_1Algorithm_1_1QCAlgorithm.html#aaa03fad6a4f4df5db3a0273d94df6436" target="_top" xlink:title="Removes the security with the specified symbol. This will cancel all open orders and then liquidate a...">
<polygon fill="white" stroke="black" points="0,-0.5 0,-30.5 205,-30.5 205,-0.5 0,-0.5"/>
<text text-anchor="start" x="8" y="-18.5" font-family="Helvetica,sans-Serif" font-size="10.00">QuantConnect.Algorithm.QCAlgorithm.</text>
<text text-anchor="middle" x="102.5" y="-7.5" font-family="Helvetica,sans-Serif" font-size="10.00">RemoveOptionContract</text>
</a>
</g>
</g>
<!-- Node17&#45;&gt;Node18 -->
<g id="edge17" class="edge">
<title>Node17&#45;&gt;Node18</title>
<path fill="none" stroke="midnightblue" d="M230.78,-15.5C222.22,-15.5 213.6,-15.5 205.11,-15.5"/>
<polygon fill="midnightblue" stroke="midnightblue" points="230.8,-19 240.8,-15.5 230.8,-12 230.8,-19"/>
</g>
</g>
</svg>
