<?xml version="1.0" encoding="UTF-8" standalone="no"?>
<!DOCTYPE svg PUBLIC "-//W3C//DTD SVG 1.1//EN"
 "http://www.w3.org/Graphics/SVG/1.1/DTD/svg11.dtd">
<!-- Generated by graphviz version 2.43.0 (0)
 -->
<!-- Title: QuantConnect.Securities.FutureOption.FutureOption Pages: 1 -->
<svg width="326pt" height="207pt"
 viewBox="0.00 0.00 326.00 207.00" xmlns="http://www.w3.org/2000/svg" xmlns:xlink="http://www.w3.org/1999/xlink">
<g id="graph0" class="graph" transform="scale(1 1) rotate(0) translate(4 203)">
<title>QuantConnect.Securities.FutureOption.FutureOption</title>
<polygon fill="white" stroke="transparent" points="-4,4 -4,-203 322,-203 322,4 -4,4"/>
<!-- Node1 -->
<g id="node1" class="node">
<title>Node1</title>
<g id="a_node1"><a xlink:title="Futures Options security">
<polygon fill="#bfbfbf" stroke="black" points="79,-0.5 79,-30.5 225,-30.5 225,-0.5 79,-0.5"/>
<text text-anchor="start" x="87" y="-18.5" font-family="Helvetica,sans-Serif" font-size="10.00">QuantConnect.Securities.</text>
<text text-anchor="middle" x="152" y="-7.5" font-family="Helvetica,sans-Serif" font-size="10.00">FutureOption.FutureOption</text>
</a>
</g>
</g>
<!-- Node2 -->
<g id="node2" class="node">
<title>Node2</title>
<g id="a_node2"><a xlink:href="classQuantConnect_1_1Securities_1_1Option_1_1Option.html" target="_top" xlink:title="Option Security Object Implementation for Option Assets">
<polygon fill="white" stroke="black" points="108.5,-67.5 108.5,-86.5 195.5,-86.5 195.5,-67.5 108.5,-67.5"/>
<text text-anchor="middle" x="152" y="-74.5" font-family="Helvetica,sans-Serif" font-size="10.00">Option::Option</text>
</a>
</g>
</g>
<!-- Node2&#45;&gt;Node1 -->
<g id="edge1" class="edge">
<title>Node2&#45;&gt;Node1</title>
<path fill="none" stroke="midnightblue" d="M152,-57.23C152,-48.59 152,-38.5 152,-30.52"/>
<polygon fill="midnightblue" stroke="midnightblue" points="148.5,-57.48 152,-67.48 155.5,-57.48 148.5,-57.48"/>
</g>
<!-- Node3 -->
<g id="node3" class="node">
<title>Node3</title>
<g id="a_node3"><a xlink:href="classQuantConnect_1_1Securities_1_1Security.html" target="_top" xlink:title="A base vehicle properties class for providing a common interface to all assets in QuantConnect.">
<polygon fill="white" stroke="black" points="40,-123.5 40,-142.5 96,-142.5 96,-123.5 40,-123.5"/>
<text text-anchor="middle" x="68" y="-130.5" font-family="Helvetica,sans-Serif" font-size="10.00">Security</text>
</a>
</g>
</g>
<!-- Node3&#45;&gt;Node2 -->
<g id="edge2" class="edge">
<title>Node3&#45;&gt;Node2</title>
<path fill="none" stroke="midnightblue" d="M89.93,-117.9C105.34,-108 125.45,-95.07 138.54,-86.65"/>
<polygon fill="midnightblue" stroke="midnightblue" points="88.02,-114.97 81.5,-123.32 91.8,-120.86 88.02,-114.97"/>
</g>
<!-- Node4 -->
<g id="node4" class="node">
<title>Node4</title>
<g id="a_node4"><a xlink:title=" ">
<polygon fill="white" stroke="#bfbfbf" points="0,-179.5 0,-198.5 92,-198.5 92,-179.5 0,-179.5"/>
<text text-anchor="middle" x="46" y="-186.5" font-family="Helvetica,sans-Serif" font-size="10.00">DynamicObject</text>
</a>
</g>
</g>
<!-- Node4&#45;&gt;Node3 -->
<g id="edge3" class="edge">
<title>Node4&#45;&gt;Node3</title>
<path fill="none" stroke="midnightblue" d="M53.46,-169.69C57.17,-160.59 61.48,-150.01 64.43,-142.75"/>
<polygon fill="midnightblue" stroke="midnightblue" points="50.16,-168.5 49.63,-179.08 56.65,-171.14 50.16,-168.5"/>
</g>
<!-- Node5 -->
<g id="node5" class="node">
<title>Node5</title>
<g id="a_node5"><a xlink:href="interfaceQuantConnect_1_1Interfaces_1_1ISecurityPrice.html" target="_top" xlink:title="Reduced interface which allows setting and accessing price properties for a Security">
<polygon fill="white" stroke="black" points="110.5,-179.5 110.5,-198.5 193.5,-198.5 193.5,-179.5 110.5,-179.5"/>
<text text-anchor="middle" x="152" y="-186.5" font-family="Helvetica,sans-Serif" font-size="10.00">ISecurityPrice</text>
</a>
</g>
</g>
<!-- Node5&#45;&gt;Node3 -->
<g id="edge4" class="edge">
<title>Node5&#45;&gt;Node3</title>
<path fill="none" stroke="midnightblue" d="M130.07,-173.9C114.66,-164 94.55,-151.07 81.46,-142.65"/>
<polygon fill="midnightblue" stroke="midnightblue" points="128.2,-176.86 138.5,-179.32 131.98,-170.97 128.2,-176.86"/>
</g>
<!-- Node7 -->
<g id="node7" class="node">
<title>Node7</title>
<g id="a_node7"><a xlink:href="interfaceQuantConnect_1_1Interfaces_1_1IOptionPrice.html" target="_top" xlink:title="Reduced interface for accessing Option specific price properties and methods">
<polygon fill="white" stroke="black" points="114,-123.5 114,-142.5 190,-142.5 190,-123.5 114,-123.5"/>
<text text-anchor="middle" x="152" y="-130.5" font-family="Helvetica,sans-Serif" font-size="10.00">IOptionPrice</text>
</a>
</g>
</g>
<!-- Node5&#45;&gt;Node7 -->
<g id="edge7" class="edge">
<title>Node5&#45;&gt;Node7</title>
<path fill="none" stroke="midnightblue" d="M152,-168.8C152,-159.91 152,-149.78 152,-142.75"/>
<polygon fill="midnightblue" stroke="midnightblue" points="148.5,-169.08 152,-179.08 155.5,-169.08 148.5,-169.08"/>
</g>
<!-- Node6 -->
<g id="node6" class="node">
<title>Node6</title>
<g id="a_node6"><a xlink:href="interfaceQuantConnect_1_1Securities_1_1IDerivativeSecurity.html" target="_top" xlink:title="Defines a security as a derivative of another security">
<polygon fill="white" stroke="black" points="208,-123.5 208,-142.5 318,-142.5 318,-123.5 208,-123.5"/>
<text text-anchor="middle" x="263" y="-130.5" font-family="Helvetica,sans-Serif" font-size="10.00">IDerivativeSecurity</text>
</a>
</g>
</g>
<!-- Node6&#45;&gt;Node2 -->
<g id="edge5" class="edge">
<title>Node6&#45;&gt;Node2</title>
<path fill="none" stroke="midnightblue" d="M235.99,-118.86C215.41,-108.85 187.66,-95.35 169.79,-86.65"/>
<polygon fill="midnightblue" stroke="midnightblue" points="234.64,-122.1 245.17,-123.32 237.7,-115.8 234.64,-122.1"/>
</g>
<!-- Node7&#45;&gt;Node2 -->
<g id="edge6" class="edge">
<title>Node7&#45;&gt;Node2</title>
<path fill="none" stroke="midnightblue" d="M152,-112.8C152,-103.91 152,-93.78 152,-86.75"/>
<polygon fill="midnightblue" stroke="midnightblue" points="148.5,-113.08 152,-123.08 155.5,-113.08 148.5,-113.08"/>
</g>
</g>
</svg>
