<?xml version="1.0" encoding="UTF-8" standalone="no"?>
<!DOCTYPE svg PUBLIC "-//W3C//DTD SVG 1.1//EN"
 "http://www.w3.org/Graphics/SVG/1.1/DTD/svg11.dtd">
<!-- Generated by graphviz version 2.43.0 (0)
 -->
<!-- Title: QuantConnect.ToolBox.Polygon.WebSocket.CryptoTradeMessage Pages: 1 -->
<svg width="183pt" height="151pt"
 viewBox="0.00 0.00 183.00 151.00" xmlns="http://www.w3.org/2000/svg" xmlns:xlink="http://www.w3.org/1999/xlink">
<g id="graph0" class="graph" transform="scale(1 1) rotate(0) translate(4 147)">
<title>QuantConnect.ToolBox.Polygon.WebSocket.CryptoTradeMessage</title>
<polygon fill="white" stroke="transparent" points="-4,4 -4,-147 179,-147 179,4 -4,4"/>
<!-- Node1 -->
<g id="node1" class="node">
<title>Node1</title>
<g id="a_node1"><a xlink:title=" ">
<polygon fill="#bfbfbf" stroke="black" points="0,-0.5 0,-30.5 175,-30.5 175,-0.5 0,-0.5"/>
<text text-anchor="start" x="8" y="-18.5" font-family="Helvetica,sans-Serif" font-size="10.00">QuantConnect.ToolBox.Polygon.</text>
<text text-anchor="middle" x="87.5" y="-7.5" font-family="Helvetica,sans-Serif" font-size="10.00">WebSocket.CryptoTradeMessage</text>
</a>
</g>
</g>
<!-- Node2 -->
<g id="node2" class="node">
<title>Node2</title>
<g id="a_node2"><a xlink:href="classQuantConnect_1_1ToolBox_1_1Polygon_1_1WebSocket_1_1BaseTradeMessage.html" target="_top" xlink:title=" ">
<polygon fill="white" stroke="black" points="32.5,-67.5 32.5,-86.5 142.5,-86.5 142.5,-67.5 32.5,-67.5"/>
<text text-anchor="middle" x="87.5" y="-74.5" font-family="Helvetica,sans-Serif" font-size="10.00">BaseTradeMessage</text>
</a>
</g>
</g>
<!-- Node2&#45;&gt;Node1 -->
<g id="edge1" class="edge">
<title>Node2&#45;&gt;Node1</title>
<path fill="none" stroke="midnightblue" d="M87.5,-57.23C87.5,-48.59 87.5,-38.5 87.5,-30.52"/>
<polygon fill="midnightblue" stroke="midnightblue" points="84,-57.48 87.5,-67.48 91,-57.48 84,-57.48"/>
</g>
<!-- Node3 -->
<g id="node3" class="node">
<title>Node3</title>
<g id="a_node3"><a xlink:href="classQuantConnect_1_1ToolBox_1_1Polygon_1_1WebSocket_1_1BaseMessage.html" target="_top" xlink:title=" ">
<polygon fill="white" stroke="black" points="45.5,-123.5 45.5,-142.5 129.5,-142.5 129.5,-123.5 45.5,-123.5"/>
<text text-anchor="middle" x="87.5" y="-130.5" font-family="Helvetica,sans-Serif" font-size="10.00">BaseMessage</text>
</a>
</g>
</g>
<!-- Node3&#45;&gt;Node2 -->
<g id="edge2" class="edge">
<title>Node3&#45;&gt;Node2</title>
<path fill="none" stroke="midnightblue" d="M87.5,-112.8C87.5,-103.91 87.5,-93.78 87.5,-86.75"/>
<polygon fill="midnightblue" stroke="midnightblue" points="84,-113.08 87.5,-123.08 91,-113.08 84,-113.08"/>
</g>
</g>
</svg>
