<?xml version="1.0" encoding="UTF-8" standalone="no"?>
<!DOCTYPE svg PUBLIC "-//W3C//DTD SVG 1.1//EN"
 "http://www.w3.org/Graphics/SVG/1.1/DTD/svg11.dtd">
<!-- Generated by graphviz version 2.43.0 (0)
 -->
<!-- Title: QuantConnect.Securities.SecurityExchange Pages: 1 -->
<svg width="377pt" height="382pt"
 viewBox="0.00 0.00 377.00 382.00" xmlns="http://www.w3.org/2000/svg" xmlns:xlink="http://www.w3.org/1999/xlink">
<g id="graph0" class="graph" transform="scale(1 1) rotate(0) translate(4 378)">
<title>QuantConnect.Securities.SecurityExchange</title>
<polygon fill="white" stroke="transparent" points="-4,4 -4,-378 373,-378 373,4 -4,4"/>
<!-- Node1 -->
<g id="node1" class="node">
<title>Node1</title>
<g id="a_node1"><a xlink:title="Base exchange class providing information and helper tools for reading the current exchange situation">
<polygon fill="#bfbfbf" stroke="black" points="0,-171.5 0,-201.5 140,-201.5 140,-171.5 0,-171.5"/>
<text text-anchor="start" x="8" y="-189.5" font-family="Helvetica,sans-Serif" font-size="10.00">QuantConnect.Securities.</text>
<text text-anchor="middle" x="70" y="-178.5" font-family="Helvetica,sans-Serif" font-size="10.00">SecurityExchange</text>
</a>
</g>
</g>
<!-- Node2 -->
<g id="node2" class="node">
<title>Node2</title>
<g id="a_node2"><a xlink:href="classQuantConnect_1_1Securities_1_1Cfd_1_1CfdExchange.html" target="_top" xlink:title="CFD exchange class &#45; information and helper tools for CFD exchange properties">
<polygon fill="white" stroke="black" points="202.5,-343.5 202.5,-373.5 342.5,-373.5 342.5,-343.5 202.5,-343.5"/>
<text text-anchor="start" x="210.5" y="-361.5" font-family="Helvetica,sans-Serif" font-size="10.00">QuantConnect.Securities.</text>
<text text-anchor="middle" x="272.5" y="-350.5" font-family="Helvetica,sans-Serif" font-size="10.00">Cfd.CfdExchange</text>
</a>
</g>
</g>
<!-- Node1&#45;&gt;Node2 -->
<g id="edge1" class="edge">
<title>Node1&#45;&gt;Node2</title>
<path fill="none" stroke="midnightblue" d="M81.75,-211.25C97.5,-244.5 130.05,-303.07 176,-334.5 183.9,-339.91 192.92,-344.09 202.18,-347.34"/>
<polygon fill="midnightblue" stroke="midnightblue" points="84.76,-209.42 77.41,-201.8 78.41,-212.34 84.76,-209.42"/>
</g>
<!-- Node3 -->
<g id="node3" class="node">
<title>Node3</title>
<g id="a_node3"><a xlink:href="classQuantConnect_1_1Securities_1_1Crypto_1_1CryptoExchange.html" target="_top" xlink:title="Crypto exchange class &#45; information and helper tools for Crypto exchange properties">
<polygon fill="white" stroke="black" points="202.5,-294.5 202.5,-324.5 342.5,-324.5 342.5,-294.5 202.5,-294.5"/>
<text text-anchor="start" x="210.5" y="-312.5" font-family="Helvetica,sans-Serif" font-size="10.00">QuantConnect.Securities.</text>
<text text-anchor="middle" x="272.5" y="-301.5" font-family="Helvetica,sans-Serif" font-size="10.00">Crypto.CryptoExchange</text>
</a>
</g>
</g>
<!-- Node1&#45;&gt;Node3 -->
<g id="edge2" class="edge">
<title>Node1&#45;&gt;Node3</title>
<path fill="none" stroke="midnightblue" d="M89.28,-209.57C108.49,-232.25 140.77,-266.21 176,-285.5 184.17,-289.98 193.19,-293.63 202.33,-296.62"/>
<polygon fill="midnightblue" stroke="midnightblue" points="91.89,-207.23 82.81,-201.77 86.5,-211.7 91.89,-207.23"/>
</g>
<!-- Node4 -->
<g id="node4" class="node">
<title>Node4</title>
<g id="a_node4"><a xlink:href="classQuantConnect_1_1Securities_1_1CryptoFuture_1_1CryptoFutureExchange.html" target="_top" xlink:title="Crypto future exchange class &#45; information and helper tools for Crypto future exchange properties">
<polygon fill="white" stroke="black" points="176,-245.5 176,-275.5 369,-275.5 369,-245.5 176,-245.5"/>
<text text-anchor="start" x="184" y="-263.5" font-family="Helvetica,sans-Serif" font-size="10.00">QuantConnect.Securities.</text>
<text text-anchor="middle" x="272.5" y="-252.5" font-family="Helvetica,sans-Serif" font-size="10.00">CryptoFuture.CryptoFutureExchange</text>
</a>
</g>
</g>
<!-- Node1&#45;&gt;Node4 -->
<g id="edge3" class="edge">
<title>Node1&#45;&gt;Node4</title>
<path fill="none" stroke="midnightblue" d="M107.85,-206.26C127.65,-216.3 152.71,-228.12 176,-236.5 185.09,-239.77 194.82,-242.76 204.46,-245.45"/>
<polygon fill="midnightblue" stroke="midnightblue" points="109.37,-203.1 98.87,-201.64 106.16,-209.33 109.37,-203.1"/>
</g>
<!-- Node5 -->
<g id="node5" class="node">
<title>Node5</title>
<g id="a_node5"><a xlink:href="classQuantConnect_1_1Securities_1_1Equity_1_1EquityExchange.html" target="_top" xlink:title="Equity exchange information">
<polygon fill="white" stroke="black" points="202.5,-196.5 202.5,-226.5 342.5,-226.5 342.5,-196.5 202.5,-196.5"/>
<text text-anchor="start" x="210.5" y="-214.5" font-family="Helvetica,sans-Serif" font-size="10.00">QuantConnect.Securities.</text>
<text text-anchor="middle" x="272.5" y="-203.5" font-family="Helvetica,sans-Serif" font-size="10.00">Equity.EquityExchange</text>
</a>
</g>
</g>
<!-- Node1&#45;&gt;Node5 -->
<g id="edge4" class="edge">
<title>Node1&#45;&gt;Node5</title>
<path fill="none" stroke="midnightblue" d="M150.06,-196.36C167.34,-198.51 185.51,-200.78 202.37,-202.88"/>
<polygon fill="midnightblue" stroke="midnightblue" points="150.36,-192.87 140,-195.1 149.49,-199.81 150.36,-192.87"/>
</g>
<!-- Node6 -->
<g id="node6" class="node">
<title>Node6</title>
<g id="a_node6"><a xlink:href="classQuantConnect_1_1Securities_1_1Forex_1_1ForexExchange.html" target="_top" xlink:title="Forex exchange class &#45; information and helper tools for forex exchange properties">
<polygon fill="white" stroke="black" points="202.5,-147.5 202.5,-177.5 342.5,-177.5 342.5,-147.5 202.5,-147.5"/>
<text text-anchor="start" x="210.5" y="-165.5" font-family="Helvetica,sans-Serif" font-size="10.00">QuantConnect.Securities.</text>
<text text-anchor="middle" x="272.5" y="-154.5" font-family="Helvetica,sans-Serif" font-size="10.00">Forex.ForexExchange</text>
</a>
</g>
</g>
<!-- Node1&#45;&gt;Node6 -->
<g id="edge5" class="edge">
<title>Node1&#45;&gt;Node6</title>
<path fill="none" stroke="midnightblue" d="M150.06,-177.04C167.34,-174.97 185.51,-172.79 202.37,-170.77"/>
<polygon fill="midnightblue" stroke="midnightblue" points="149.51,-173.58 140,-178.24 150.35,-180.53 149.51,-173.58"/>
</g>
<!-- Node7 -->
<g id="node7" class="node">
<title>Node7</title>
<g id="a_node7"><a xlink:href="classQuantConnect_1_1Securities_1_1Future_1_1FutureExchange.html" target="_top" xlink:title="Future exchange class &#45; information and helper tools for future exchange properties">
<polygon fill="white" stroke="black" points="202.5,-98.5 202.5,-128.5 342.5,-128.5 342.5,-98.5 202.5,-98.5"/>
<text text-anchor="start" x="210.5" y="-116.5" font-family="Helvetica,sans-Serif" font-size="10.00">QuantConnect.Securities.</text>
<text text-anchor="middle" x="272.5" y="-105.5" font-family="Helvetica,sans-Serif" font-size="10.00">Future.FutureExchange</text>
</a>
</g>
</g>
<!-- Node1&#45;&gt;Node7 -->
<g id="edge6" class="edge">
<title>Node1&#45;&gt;Node7</title>
<path fill="none" stroke="midnightblue" d="M109.5,-166.96C129.08,-157.53 153.45,-146.54 176,-138.5 186.17,-134.87 197.12,-131.52 207.85,-128.52"/>
<polygon fill="midnightblue" stroke="midnightblue" points="107.76,-163.92 100.3,-171.45 110.83,-170.21 107.76,-163.92"/>
</g>
<!-- Node8 -->
<g id="node8" class="node">
<title>Node8</title>
<g id="a_node8"><a xlink:href="classQuantConnect_1_1Securities_1_1Index_1_1IndexExchange.html" target="_top" xlink:title="INDEX exchange class &#45; information and helper tools for Index exchange properties">
<polygon fill="white" stroke="black" points="202.5,-49.5 202.5,-79.5 342.5,-79.5 342.5,-49.5 202.5,-49.5"/>
<text text-anchor="start" x="210.5" y="-67.5" font-family="Helvetica,sans-Serif" font-size="10.00">QuantConnect.Securities.</text>
<text text-anchor="middle" x="272.5" y="-56.5" font-family="Helvetica,sans-Serif" font-size="10.00">Index.IndexExchange</text>
</a>
</g>
</g>
<!-- Node1&#45;&gt;Node8 -->
<g id="edge7" class="edge">
<title>Node1&#45;&gt;Node8</title>
<path fill="none" stroke="midnightblue" d="M89.74,-163.61C109.1,-141.45 141.3,-108.5 176,-89.5 184.19,-85.01 193.23,-81.31 202.37,-78.25"/>
<polygon fill="midnightblue" stroke="midnightblue" points="87.05,-161.37 83.21,-171.24 92.37,-165.92 87.05,-161.37"/>
</g>
<!-- Node9 -->
<g id="node9" class="node">
<title>Node9</title>
<g id="a_node9"><a xlink:href="classQuantConnect_1_1Securities_1_1Option_1_1OptionExchange.html" target="_top" xlink:title="Option exchange class &#45; information and helper tools for option exchange properties">
<polygon fill="white" stroke="black" points="202.5,-0.5 202.5,-30.5 342.5,-30.5 342.5,-0.5 202.5,-0.5"/>
<text text-anchor="start" x="210.5" y="-18.5" font-family="Helvetica,sans-Serif" font-size="10.00">QuantConnect.Securities.</text>
<text text-anchor="middle" x="272.5" y="-7.5" font-family="Helvetica,sans-Serif" font-size="10.00">Option.OptionExchange</text>
</a>
</g>
</g>
<!-- Node1&#45;&gt;Node9 -->
<g id="edge8" class="edge">
<title>Node1&#45;&gt;Node9</title>
<path fill="none" stroke="midnightblue" d="M81.89,-162.15C97.79,-129.42 130.51,-71.73 176,-40.5 183.91,-35.07 192.93,-30.82 202.2,-27.49"/>
<polygon fill="midnightblue" stroke="midnightblue" points="78.6,-160.91 77.49,-171.45 84.93,-163.9 78.6,-160.91"/>
</g>
</g>
</svg>
