<?xml version="1.0" encoding="UTF-8" standalone="no"?>
<!DOCTYPE svg PUBLIC "-//W3C//DTD SVG 1.1//EN"
 "http://www.w3.org/Graphics/SVG/1.1/DTD/svg11.dtd">
<!-- Generated by graphviz version 2.43.0 (0)
 -->
<!-- Title: QuantConnect.Lean.Engine.DataFeeds.Enumerators.AuxiliaryDataEnumerator.NewTradableDate Pages: 1 -->
<svg width="452pt" height="110pt"
 viewBox="0.00 0.00 452.00 110.00" xmlns="http://www.w3.org/2000/svg" xmlns:xlink="http://www.w3.org/1999/xlink">
<g id="graph0" class="graph" transform="scale(1 1) rotate(0) translate(4 106)">
<title>QuantConnect.Lean.Engine.DataFeeds.Enumerators.AuxiliaryDataEnumerator.NewTradableDate</title>
<polygon fill="white" stroke="transparent" points="-4,4 -4,-106 448,-106 448,4 -4,4"/>
<!-- Node1 -->
<g id="node1" class="node">
<title>Node1</title>
<g id="a_node1"><a xlink:title="Handle a new tradable date, drives the ITradableDateEventProvider instances">
<polygon fill="#bfbfbf" stroke="black" points="259,-30.5 259,-71.5 444,-71.5 444,-30.5 259,-30.5"/>
<text text-anchor="start" x="267" y="-59.5" font-family="Helvetica,sans-Serif" font-size="10.00">QuantConnect.Lean.Engine.</text>
<text text-anchor="start" x="267" y="-48.5" font-family="Helvetica,sans-Serif" font-size="10.00">DataFeeds.Enumerators.Auxiliary</text>
<text text-anchor="middle" x="351.5" y="-37.5" font-family="Helvetica,sans-Serif" font-size="10.00">DataEnumerator.NewTradableDate</text>
</a>
</g>
</g>
<!-- Node2 -->
<g id="node2" class="node">
<title>Node2</title>
<g id="a_node2"><a xlink:href="classQuantConnect_1_1Lean_1_1Engine_1_1DataFeeds_1_1Enumerators_1_1AuxiliaryDataEnumerator.html#a9188bd506f7f85b8b9abcec8f6eacb78" target="_top" xlink:title="Creates a new instance">
<polygon fill="white" stroke="black" points="0,-60.5 0,-101.5 223,-101.5 223,-60.5 0,-60.5"/>
<text text-anchor="start" x="8" y="-89.5" font-family="Helvetica,sans-Serif" font-size="10.00">QuantConnect.Lean.Engine.</text>
<text text-anchor="start" x="8" y="-78.5" font-family="Helvetica,sans-Serif" font-size="10.00">DataFeeds.Enumerators.Auxiliary</text>
<text text-anchor="middle" x="111.5" y="-67.5" font-family="Helvetica,sans-Serif" font-size="10.00">DataEnumerator.AuxiliaryDataEnumerator</text>
</a>
</g>
</g>
<!-- Node1&#45;&gt;Node2 -->
<g id="edge1" class="edge">
<title>Node1&#45;&gt;Node2</title>
<path fill="none" stroke="midnightblue" d="M248.64,-63.84C240.23,-64.9 231.7,-65.97 223.23,-67.04"/>
<polygon fill="midnightblue" stroke="midnightblue" points="249.34,-67.28 258.82,-62.56 248.46,-60.33 249.34,-67.28"/>
</g>
<!-- Node3 -->
<g id="node3" class="node">
<title>Node3</title>
<g id="a_node3"><a xlink:href="classQuantConnect_1_1Lean_1_1Engine_1_1DataFeeds_1_1Enumerators_1_1LiveAuxiliaryDataEnumerator.html#a488096b6275be02126bd2d4ba7555dc5" target="_top" xlink:title="Advances the enumerator to the next element.">
<polygon fill="white" stroke="black" points="11.5,-0.5 11.5,-41.5 211.5,-41.5 211.5,-0.5 11.5,-0.5"/>
<text text-anchor="start" x="19.5" y="-29.5" font-family="Helvetica,sans-Serif" font-size="10.00">QuantConnect.Lean.Engine.</text>
<text text-anchor="start" x="19.5" y="-18.5" font-family="Helvetica,sans-Serif" font-size="10.00">DataFeeds.Enumerators.LiveAuxiliary</text>
<text text-anchor="middle" x="111.5" y="-7.5" font-family="Helvetica,sans-Serif" font-size="10.00">DataEnumerator.MoveNext</text>
</a>
</g>
</g>
<!-- Node1&#45;&gt;Node3 -->
<g id="edge2" class="edge">
<title>Node1&#45;&gt;Node3</title>
<path fill="none" stroke="midnightblue" d="M248.6,-38.16C236.35,-36.61 223.85,-35.04 211.64,-33.5"/>
<polygon fill="midnightblue" stroke="midnightblue" points="248.46,-41.67 258.82,-39.44 249.34,-34.72 248.46,-41.67"/>
</g>
</g>
</svg>
