<?xml version="1.0" encoding="UTF-8" standalone="no"?>
<!DOCTYPE svg PUBLIC "-//W3C//DTD SVG 1.1//EN"
 "http://www.w3.org/Graphics/SVG/1.1/DTD/svg11.dtd">
<!-- Generated by graphviz version 2.43.0 (0)
 -->
<!-- Title: QuantConnect.Securities.Future.FutureSymbol.IsWeekly Pages: 1 -->
<svg width="870pt" height="160pt"
 viewBox="0.00 0.00 870.00 159.50" xmlns="http://www.w3.org/2000/svg" xmlns:xlink="http://www.w3.org/1999/xlink">
<g id="graph0" class="graph" transform="scale(1 1) rotate(0) translate(4 155.5)">
<title>QuantConnect.Securities.Future.FutureSymbol.IsWeekly</title>
<polygon fill="white" stroke="transparent" points="-4,4 -4,-155.5 866,-155.5 866,4 -4,4"/>
<!-- Node1 -->
<g id="node1" class="node">
<title>Node1</title>
<g id="a_node1"><a xlink:title="Returns true if the future contract is a weekly contract">
<polygon fill="#bfbfbf" stroke="black" points="0,-66 0,-96 165,-96 165,-66 0,-66"/>
<text text-anchor="start" x="8" y="-84" font-family="Helvetica,sans-Serif" font-size="10.00">QuantConnect.Securities.</text>
<text text-anchor="middle" x="82.5" y="-73" font-family="Helvetica,sans-Serif" font-size="10.00">Future.FutureSymbol.IsWeekly</text>
</a>
</g>
</g>
<!-- Node2 -->
<g id="node2" class="node">
<title>Node2</title>
<g id="a_node2"><a xlink:href="classQuantConnect_1_1Securities_1_1Future_1_1FutureSymbol.html#aae88cfa674343504cde26b8a3a031beb" target="_top" xlink:title="Determine if a given Futures contract is a standard contract.">
<polygon fill="white" stroke="black" points="201,-66 201,-96 374,-96 374,-66 201,-66"/>
<text text-anchor="start" x="209" y="-84" font-family="Helvetica,sans-Serif" font-size="10.00">QuantConnect.Securities.</text>
<text text-anchor="middle" x="287.5" y="-73" font-family="Helvetica,sans-Serif" font-size="10.00">Future.FutureSymbol.IsStandard</text>
</a>
</g>
</g>
<!-- Node1&#45;&gt;Node2 -->
<g id="edge1" class="edge">
<title>Node1&#45;&gt;Node2</title>
<path fill="none" stroke="midnightblue" d="M165.19,-81C173.66,-81 182.33,-81 190.94,-81"/>
<polygon fill="midnightblue" stroke="midnightblue" points="191,-84.5 201,-81 191,-77.5 191,-84.5"/>
</g>
<!-- Node3 -->
<g id="node3" class="node">
<title>Node3</title>
<g id="a_node3"><a xlink:href="classQuantConnect_1_1Logging_1_1Log.html#af0e7955911bc7664b37661b2a303a9e3" target="_top" xlink:title="Log error">
<polygon fill="white" stroke="black" points="468,-121 468,-151 618,-151 618,-121 468,-121"/>
<text text-anchor="start" x="476" y="-139" font-family="Helvetica,sans-Serif" font-size="10.00">QuantConnect.Logging.Log.</text>
<text text-anchor="middle" x="543" y="-128" font-family="Helvetica,sans-Serif" font-size="10.00">Error</text>
</a>
</g>
</g>
<!-- Node2&#45;&gt;Node3 -->
<g id="edge2" class="edge">
<title>Node2&#45;&gt;Node3</title>
<path fill="none" stroke="midnightblue" d="M346.75,-96.07C366.75,-101.06 389.3,-106.49 410,-111 425.48,-114.37 442.03,-117.72 458,-120.81"/>
<polygon fill="midnightblue" stroke="midnightblue" points="457.37,-124.25 467.85,-122.7 458.69,-117.38 457.37,-124.25"/>
</g>
<!-- Node5 -->
<g id="node5" class="node">
<title>Node5</title>
<g id="a_node5"><a xlink:href="classQuantConnect_1_1Securities_1_1Future_1_1FuturesExpiryFunctions.html#a0d6bb7f1fd71689f70b115ccb0f470e0" target="_top" xlink:title="Method to retrieve the Function for a specific future symbol">
<polygon fill="white" stroke="black" points="459.5,-60.5 459.5,-101.5 626.5,-101.5 626.5,-60.5 459.5,-60.5"/>
<text text-anchor="start" x="467.5" y="-89.5" font-family="Helvetica,sans-Serif" font-size="10.00">QuantConnect.Securities.</text>
<text text-anchor="start" x="467.5" y="-78.5" font-family="Helvetica,sans-Serif" font-size="10.00">Future.FuturesExpiryFunctions.</text>
<text text-anchor="middle" x="543" y="-67.5" font-family="Helvetica,sans-Serif" font-size="10.00">FuturesExpiryFunction</text>
</a>
</g>
</g>
<!-- Node2&#45;&gt;Node5 -->
<g id="edge4" class="edge">
<title>Node2&#45;&gt;Node5</title>
<path fill="none" stroke="midnightblue" d="M374.32,-81C398.44,-81 424.76,-81 449.26,-81"/>
<polygon fill="midnightblue" stroke="midnightblue" points="449.27,-84.5 459.27,-81 449.27,-77.5 449.27,-84.5"/>
</g>
<!-- Node6 -->
<g id="node6" class="node">
<title>Node6</title>
<g id="a_node6"><a xlink:href="classQuantConnect_1_1Securities_1_1Future_1_1FuturesExpiryUtilityFunctions.html#a4ccb1e2f2fe40ff09785a74a02f26df1" target="_top" xlink:title="Gets the number of months between the contract month and the expiry date.">
<polygon fill="white" stroke="black" points="410,-0.5 410,-41.5 676,-41.5 676,-0.5 410,-0.5"/>
<text text-anchor="start" x="418" y="-29.5" font-family="Helvetica,sans-Serif" font-size="10.00">QuantConnect.Securities.</text>
<text text-anchor="start" x="418" y="-18.5" font-family="Helvetica,sans-Serif" font-size="10.00">Future.FuturesExpiryUtilityFunctions.</text>
<text text-anchor="middle" x="543" y="-7.5" font-family="Helvetica,sans-Serif" font-size="10.00">GetDeltaBetweenContractMonthAndContractExpiry</text>
</a>
</g>
</g>
<!-- Node2&#45;&gt;Node6 -->
<g id="edge5" class="edge">
<title>Node2&#45;&gt;Node6</title>
<path fill="none" stroke="midnightblue" d="M348.39,-65.98C368.01,-61.12 389.92,-55.76 410,-51 419.96,-48.64 430.36,-46.21 440.75,-43.81"/>
<polygon fill="midnightblue" stroke="midnightblue" points="441.74,-47.17 450.7,-41.52 440.17,-40.35 441.74,-47.17"/>
</g>
<!-- Node4 -->
<g id="node4" class="node">
<title>Node4</title>
<g id="a_node4"><a xlink:href="interfaceQuantConnect_1_1Logging_1_1ILogHandler.html#a35373a0c5d76031fa5ccf5dc39e5c25d" target="_top" xlink:title="Write error message to log">
<polygon fill="white" stroke="black" points="712,-121 712,-151 862,-151 862,-121 712,-121"/>
<text text-anchor="start" x="720" y="-139" font-family="Helvetica,sans-Serif" font-size="10.00">QuantConnect.Logging.ILog</text>
<text text-anchor="middle" x="787" y="-128" font-family="Helvetica,sans-Serif" font-size="10.00">Handler.Error</text>
</a>
</g>
</g>
<!-- Node3&#45;&gt;Node4 -->
<g id="edge3" class="edge">
<title>Node3&#45;&gt;Node4</title>
<path fill="none" stroke="midnightblue" d="M618.25,-136C644.62,-136 674.48,-136 701.63,-136"/>
<polygon fill="midnightblue" stroke="midnightblue" points="701.89,-139.5 711.89,-136 701.89,-132.5 701.89,-139.5"/>
</g>
</g>
</svg>
