<?xml version="1.0" encoding="UTF-8" standalone="no"?>
<!DOCTYPE svg PUBLIC "-//W3C//DTD SVG 1.1//EN"
 "http://www.w3.org/Graphics/SVG/1.1/DTD/svg11.dtd">
<!-- Generated by graphviz version 2.43.0 (0)
 -->
<!-- Title: QuantConnect.Lean.Engine.DataFeeds.UniverseSelection.ApplyUniverseSelection Pages: 1 -->
<svg width="649pt" height="100pt"
 viewBox="0.00 0.00 649.00 99.50" xmlns="http://www.w3.org/2000/svg" xmlns:xlink="http://www.w3.org/1999/xlink">
<g id="graph0" class="graph" transform="scale(1 1) rotate(0) translate(4 95.5)">
<title>QuantConnect.Lean.Engine.DataFeeds.UniverseSelection.ApplyUniverseSelection</title>
<polygon fill="white" stroke="transparent" points="-4,4 -4,-95.5 645,-95.5 645,4 -4,4"/>
<!-- Node1 -->
<g id="node1" class="node">
<title>Node1</title>
<g id="a_node1"><a xlink:title="Applies universe selection the the data feed and algorithm">
<polygon fill="#bfbfbf" stroke="black" points="0,-17 0,-58 191,-58 191,-17 0,-17"/>
<text text-anchor="start" x="8" y="-46" font-family="Helvetica,sans-Serif" font-size="10.00">QuantConnect.Lean.Engine.</text>
<text text-anchor="start" x="8" y="-35" font-family="Helvetica,sans-Serif" font-size="10.00">DataFeeds.UniverseSelection.Apply</text>
<text text-anchor="middle" x="95.5" y="-24" font-family="Helvetica,sans-Serif" font-size="10.00">UniverseSelection</text>
</a>
</g>
</g>
<!-- Node2 -->
<g id="node2" class="node">
<title>Node2</title>
<g id="a_node2"><a xlink:href="classQuantConnect_1_1Data_1_1UniverseSelection_1_1Universe.html#a34a60454813c0283f0ba287dd09fe018" target="_top" xlink:title="Performs universe selection using the data specified">
<polygon fill="white" stroke="black" points="227,-44.5 227,-74.5 422,-74.5 422,-44.5 227,-44.5"/>
<text text-anchor="start" x="235" y="-62.5" font-family="Helvetica,sans-Serif" font-size="10.00">QuantConnect.Data.Universe</text>
<text text-anchor="middle" x="324.5" y="-51.5" font-family="Helvetica,sans-Serif" font-size="10.00">Selection.Universe.PerformSelection</text>
</a>
</g>
</g>
<!-- Node1&#45;&gt;Node2 -->
<g id="edge1" class="edge">
<title>Node1&#45;&gt;Node2</title>
<path fill="none" stroke="midnightblue" d="M191.12,-46.67C199.61,-47.49 208.23,-48.33 216.81,-49.16"/>
<polygon fill="midnightblue" stroke="midnightblue" points="216.55,-52.65 226.84,-50.13 217.22,-45.68 216.55,-52.65"/>
</g>
<!-- Node4 -->
<g id="node4" class="node">
<title>Node4</title>
<g id="a_node4"><a xlink:href="classQuantConnect_1_1Data_1_1UniverseSelection_1_1Universe.html#abe22506a629447a0182d69dbc98c8644" target="_top" xlink:title="Performs universe selection using the data specified">
<polygon fill="white" stroke="black" points="458,-0.5 458,-30.5 641,-30.5 641,-0.5 458,-0.5"/>
<text text-anchor="start" x="466" y="-18.5" font-family="Helvetica,sans-Serif" font-size="10.00">QuantConnect.Data.Universe</text>
<text text-anchor="middle" x="549.5" y="-7.5" font-family="Helvetica,sans-Serif" font-size="10.00">Selection.Universe.SelectSymbols</text>
</a>
</g>
</g>
<!-- Node1&#45;&gt;Node4 -->
<g id="edge4" class="edge">
<title>Node1&#45;&gt;Node4</title>
<path fill="none" stroke="midnightblue" d="M191.25,-32.89C266.32,-29.23 370.95,-24.14 447.58,-20.41"/>
<polygon fill="midnightblue" stroke="midnightblue" points="447.91,-23.9 457.73,-19.92 447.57,-16.91 447.91,-23.9"/>
</g>
<!-- Node3 -->
<g id="node3" class="node">
<title>Node3</title>
<g id="a_node3"><a xlink:href="classQuantConnect_1_1Data_1_1UniverseSelection_1_1Universe.html#a567d9f5a05e310cbd91e68299ef7f1d6" target="_top" xlink:title="Event invocator for the SelectionChanged event">
<polygon fill="white" stroke="black" points="464.5,-50 464.5,-91 634.5,-91 634.5,-50 464.5,-50"/>
<text text-anchor="start" x="472.5" y="-79" font-family="Helvetica,sans-Serif" font-size="10.00">QuantConnect.Data.Universe</text>
<text text-anchor="start" x="472.5" y="-68" font-family="Helvetica,sans-Serif" font-size="10.00">Selection.Universe.OnSelection</text>
<text text-anchor="middle" x="549.5" y="-57" font-family="Helvetica,sans-Serif" font-size="10.00">Changed</text>
</a>
</g>
</g>
<!-- Node2&#45;&gt;Node3 -->
<g id="edge2" class="edge">
<title>Node2&#45;&gt;Node3</title>
<path fill="none" stroke="midnightblue" d="M422.01,-64.26C432.72,-64.79 443.61,-65.33 454.29,-65.85"/>
<polygon fill="midnightblue" stroke="midnightblue" points="454.28,-69.36 464.44,-66.35 454.63,-62.37 454.28,-69.36"/>
</g>
<!-- Node2&#45;&gt;Node4 -->
<g id="edge3" class="edge">
<title>Node2&#45;&gt;Node4</title>
<path fill="none" stroke="midnightblue" d="M401.62,-44.48C421.16,-40.63 442.31,-36.45 462.32,-32.5"/>
<polygon fill="midnightblue" stroke="midnightblue" points="463.21,-35.9 472.34,-30.53 461.86,-29.03 463.21,-35.9"/>
</g>
</g>
</svg>
