<?xml version="1.0" encoding="UTF-8" standalone="no"?>
<!DOCTYPE svg PUBLIC "-//W3C//DTD SVG 1.1//EN"
 "http://www.w3.org/Graphics/SVG/1.1/DTD/svg11.dtd">
<!-- Generated by graphviz version 2.43.0 (0)
 -->
<!-- Title: QuantConnect.Securities.LocalMarketHours.IsContinuousMarketOpen Pages: 1 -->
<svg width="799pt" height="88pt"
 viewBox="0.00 0.00 799.00 88.00" xmlns="http://www.w3.org/2000/svg" xmlns:xlink="http://www.w3.org/1999/xlink">
<g id="graph0" class="graph" transform="scale(1 1) rotate(0) translate(4 84)">
<title>QuantConnect.Securities.LocalMarketHours.IsContinuousMarketOpen</title>
<polygon fill="white" stroke="transparent" points="-4,4 -4,-84 795,-84 795,4 -4,4"/>
<!-- Node1 -->
<g id="node1" class="node">
<title>Node1</title>
<g id="a_node1"><a xlink:title="Check the given segment is not part of the current previous segment">
<polygon fill="#bfbfbf" stroke="black" points="621,-19 621,-60 791,-60 791,-19 621,-19"/>
<text text-anchor="start" x="629" y="-48" font-family="Helvetica,sans-Serif" font-size="10.00">QuantConnect.Securities.</text>
<text text-anchor="start" x="629" y="-37" font-family="Helvetica,sans-Serif" font-size="10.00">LocalMarketHours.IsContinuous</text>
<text text-anchor="middle" x="706" y="-26" font-family="Helvetica,sans-Serif" font-size="10.00">MarketOpen</text>
</a>
</g>
</g>
<!-- Node2 -->
<g id="node2" class="node">
<title>Node2</title>
<g id="a_node2"><a xlink:href="classQuantConnect_1_1Securities_1_1LocalMarketHours.html#a951abf808a4d35d723a5ad816d4a0f91" target="_top" xlink:title="Gets the market closing time of day">
<polygon fill="white" stroke="black" points="400,-49.5 400,-79.5 585,-79.5 585,-49.5 400,-49.5"/>
<text text-anchor="start" x="408" y="-67.5" font-family="Helvetica,sans-Serif" font-size="10.00">QuantConnect.Securities.</text>
<text text-anchor="middle" x="492.5" y="-56.5" font-family="Helvetica,sans-Serif" font-size="10.00">LocalMarketHours.GetMarketClose</text>
</a>
</g>
</g>
<!-- Node1&#45;&gt;Node2 -->
<g id="edge1" class="edge">
<title>Node1&#45;&gt;Node2</title>
<path fill="none" stroke="midnightblue" d="M610.81,-50.63C602.25,-51.65 593.59,-52.67 585.05,-53.68"/>
<polygon fill="midnightblue" stroke="midnightblue" points="611.28,-54.1 620.8,-49.45 610.46,-47.15 611.28,-54.1"/>
</g>
<!-- Node3 -->
<g id="node3" class="node">
<title>Node3</title>
<g id="a_node3"><a xlink:href="classQuantConnect_1_1Securities_1_1LocalMarketHours.html#a5832a8c096b109d0d83ecd6b7c6c8a06" target="_top" xlink:title="Gets the market opening time of day">
<polygon fill="white" stroke="black" points="400.5,-0.5 400.5,-30.5 584.5,-30.5 584.5,-0.5 400.5,-0.5"/>
<text text-anchor="start" x="408.5" y="-18.5" font-family="Helvetica,sans-Serif" font-size="10.00">QuantConnect.Securities.</text>
<text text-anchor="middle" x="492.5" y="-7.5" font-family="Helvetica,sans-Serif" font-size="10.00">LocalMarketHours.GetMarketOpen</text>
</a>
</g>
</g>
<!-- Node1&#45;&gt;Node3 -->
<g id="edge2" class="edge">
<title>Node1&#45;&gt;Node3</title>
<path fill="none" stroke="midnightblue" d="M610.71,-28.8C602.07,-27.82 593.32,-26.83 584.7,-25.85"/>
<polygon fill="midnightblue" stroke="midnightblue" points="610.47,-32.3 620.8,-29.95 611.26,-25.34 610.47,-32.3"/>
</g>
<!-- Node4 -->
<g id="node4" class="node">
<title>Node4</title>
<g id="a_node4"><a xlink:href="classQuantConnect_1_1Orders_1_1Fills_1_1EquityFillModel.html#a8a8e143f24a53d63d165cad1de30c677" target="_top" xlink:title="Market on Open Fill Model. Return an order event with the fill details">
<polygon fill="white" stroke="black" points="182,-0.5 182,-30.5 364,-30.5 364,-0.5 182,-0.5"/>
<text text-anchor="start" x="190" y="-18.5" font-family="Helvetica,sans-Serif" font-size="10.00">QuantConnect.Orders.Fills.</text>
<text text-anchor="middle" x="273" y="-7.5" font-family="Helvetica,sans-Serif" font-size="10.00">EquityFillModel.MarketOnOpenFill</text>
</a>
</g>
</g>
<!-- Node3&#45;&gt;Node4 -->
<g id="edge3" class="edge">
<title>Node3&#45;&gt;Node4</title>
<path fill="none" stroke="midnightblue" d="M390.05,-15.5C381.36,-15.5 372.61,-15.5 364.02,-15.5"/>
<polygon fill="midnightblue" stroke="midnightblue" points="390.21,-19 400.21,-15.5 390.21,-12 390.21,-19"/>
</g>
<!-- Node5 -->
<g id="node5" class="node">
<title>Node5</title>
<g id="a_node5"><a xlink:href="classQuantConnect_1_1Orders_1_1Fills_1_1EquityFillModel.html#ab823627c1fff8cca155ab45b414d21f9" target="_top" xlink:title="Return an order event with the fill details">
<polygon fill="white" stroke="black" points="0,-0.5 0,-30.5 146,-30.5 146,-0.5 0,-0.5"/>
<text text-anchor="start" x="8" y="-18.5" font-family="Helvetica,sans-Serif" font-size="10.00">QuantConnect.Orders.Fills.</text>
<text text-anchor="middle" x="73" y="-7.5" font-family="Helvetica,sans-Serif" font-size="10.00">EquityFillModel.Fill</text>
</a>
</g>
</g>
<!-- Node4&#45;&gt;Node5 -->
<g id="edge4" class="edge">
<title>Node4&#45;&gt;Node5</title>
<path fill="none" stroke="midnightblue" d="M171.78,-15.5C163.09,-15.5 154.4,-15.5 146,-15.5"/>
<polygon fill="midnightblue" stroke="midnightblue" points="171.98,-19 181.98,-15.5 171.98,-12 171.98,-19"/>
</g>
</g>
</svg>
