<?xml version="1.0" encoding="UTF-8" standalone="no"?>
<!DOCTYPE svg PUBLIC "-//W3C//DTD SVG 1.1//EN"
 "http://www.w3.org/Graphics/SVG/1.1/DTD/svg11.dtd">
<!-- Generated by graphviz version 2.43.0 (0)
 -->
<!-- Title: QuantConnect.Symbol.operator Symbol Pages: 1 -->
<svg width="1135pt" height="163pt"
 viewBox="0.00 0.00 1135.00 162.50" xmlns="http://www.w3.org/2000/svg" xmlns:xlink="http://www.w3.org/1999/xlink">
<g id="graph0" class="graph" transform="scale(1 1) rotate(0) translate(4 158.5)">
<title>QuantConnect.Symbol.operator Symbol</title>
<polygon fill="white" stroke="transparent" points="-4,4 -4,-158.5 1131,-158.5 1131,4 -4,4"/>
<!-- Node1 -->
<g id="node1" class="node">
<title>Node1</title>
<g id="a_node1"><a xlink:title="Creates symbol using string as sid">
<polygon fill="#bfbfbf" stroke="black" points="0,-49.5 0,-79.5 170,-79.5 170,-49.5 0,-49.5"/>
<text text-anchor="start" x="8" y="-67.5" font-family="Helvetica,sans-Serif" font-size="10.00">QuantConnect.Symbol.operator</text>
<text text-anchor="middle" x="85" y="-56.5" font-family="Helvetica,sans-Serif" font-size="10.00"> Symbol</text>
</a>
</g>
</g>
<!-- Node2 -->
<g id="node2" class="node">
<title>Node2</title>
<g id="a_node2"><a xlink:href="classQuantConnect_1_1Symbol.html#a59158f74116be3dad0ea0f3f3f134416" target="_top" xlink:title="Initializes a new instance of the Symbol class">
<polygon fill="white" stroke="black" points="210.5,-99 210.5,-118 375.5,-118 375.5,-99 210.5,-99"/>
<text text-anchor="middle" x="293" y="-106" font-family="Helvetica,sans-Serif" font-size="10.00">QuantConnect.Symbol.Symbol</text>
</a>
</g>
</g>
<!-- Node1&#45;&gt;Node2 -->
<g id="edge1" class="edge">
<title>Node1&#45;&gt;Node2</title>
<path fill="none" stroke="midnightblue" d="M156.32,-79.52C182.85,-85.19 212.61,-91.54 237.48,-96.86"/>
<polygon fill="midnightblue" stroke="midnightblue" points="236.95,-100.32 247.46,-98.99 238.42,-93.48 236.95,-100.32"/>
</g>
<!-- Node7 -->
<g id="node7" class="node">
<title>Node7</title>
<g id="a_node7"><a xlink:href="classQuantConnect_1_1SymbolCache.html#a131a5bb015b9a603328d0eddfe90c610" target="_top" xlink:title="Gets the Symbol object that is mapped to the specified string ticker symbol">
<polygon fill="white" stroke="black" points="214,-49.5 214,-79.5 372,-79.5 372,-49.5 214,-49.5"/>
<text text-anchor="start" x="222" y="-67.5" font-family="Helvetica,sans-Serif" font-size="10.00">QuantConnect.SymbolCache.</text>
<text text-anchor="middle" x="293" y="-56.5" font-family="Helvetica,sans-Serif" font-size="10.00">TryGetSymbol</text>
</a>
</g>
</g>
<!-- Node1&#45;&gt;Node7 -->
<g id="edge6" class="edge">
<title>Node1&#45;&gt;Node7</title>
<path fill="none" stroke="midnightblue" d="M170.09,-64.5C181.16,-64.5 192.53,-64.5 203.67,-64.5"/>
<polygon fill="midnightblue" stroke="midnightblue" points="203.83,-68 213.83,-64.5 203.83,-61 203.83,-68"/>
</g>
<!-- Node8 -->
<g id="node8" class="node">
<title>Node8</title>
<g id="a_node8"><a xlink:href="classQuantConnect_1_1SecurityIdentifier.html#a59bd74be4ec55a0e4631af9e10f65d7c" target="_top" xlink:title="Attempts to parse the specified &#160;as a SecurityIdentifier.">
<polygon fill="white" stroke="black" points="206,-0.5 206,-30.5 380,-30.5 380,-0.5 206,-0.5"/>
<text text-anchor="start" x="214" y="-18.5" font-family="Helvetica,sans-Serif" font-size="10.00">QuantConnect.SecurityIdentifier.</text>
<text text-anchor="middle" x="293" y="-7.5" font-family="Helvetica,sans-Serif" font-size="10.00">TryParse</text>
</a>
</g>
</g>
<!-- Node1&#45;&gt;Node8 -->
<g id="edge7" class="edge">
<title>Node1&#45;&gt;Node8</title>
<path fill="none" stroke="midnightblue" d="M149.21,-49.47C171.25,-44.22 196.18,-38.29 218.96,-32.87"/>
<polygon fill="midnightblue" stroke="midnightblue" points="219.99,-36.23 228.91,-30.51 218.37,-29.42 219.99,-36.23"/>
</g>
<!-- Node3 -->
<g id="node3" class="node">
<title>Node3</title>
<g id="a_node3"><a xlink:href="classQuantConnect_1_1Symbol.html#a59b0795fa21f46c306deb5576fa03bb9" target="_top" xlink:title="Centralized helper method to resolve alias for a symbol">
<polygon fill="white" stroke="black" points="416,-99 416,-118 586,-118 586,-99 416,-99"/>
<text text-anchor="middle" x="501" y="-106" font-family="Helvetica,sans-Serif" font-size="10.00">QuantConnect.Symbol.GetAlias</text>
</a>
</g>
</g>
<!-- Node2&#45;&gt;Node3 -->
<g id="edge2" class="edge">
<title>Node2&#45;&gt;Node3</title>
<path fill="none" stroke="midnightblue" d="M375.71,-108.5C385.47,-108.5 395.49,-108.5 405.4,-108.5"/>
<polygon fill="midnightblue" stroke="midnightblue" points="405.68,-112 415.68,-108.5 405.68,-105 405.68,-112"/>
</g>
<!-- Node4 -->
<g id="node4" class="node">
<title>Node4</title>
<g id="a_node4"><a xlink:href="classQuantConnect_1_1SymbolRepresentation.html#ad43ac907f6c19083821f58f21c6de017" target="_top" xlink:title="Returns future symbol ticker from underlying and expiration date. Function can generate tickers of tw...">
<polygon fill="white" stroke="black" points="622,-118.5 622,-148.5 825,-148.5 825,-118.5 622,-118.5"/>
<text text-anchor="start" x="630" y="-136.5" font-family="Helvetica,sans-Serif" font-size="10.00">QuantConnect.SymbolRepresentation.</text>
<text text-anchor="middle" x="723.5" y="-125.5" font-family="Helvetica,sans-Serif" font-size="10.00">GenerateFutureTicker</text>
</a>
</g>
</g>
<!-- Node3&#45;&gt;Node4 -->
<g id="edge3" class="edge">
<title>Node3&#45;&gt;Node4</title>
<path fill="none" stroke="midnightblue" d="M585.99,-118.02C594.39,-118.97 603,-119.95 611.62,-120.93"/>
<polygon fill="midnightblue" stroke="midnightblue" points="611.4,-124.43 621.73,-122.07 612.19,-117.47 611.4,-124.43"/>
</g>
<!-- Node6 -->
<g id="node6" class="node">
<title>Node6</title>
<g id="a_node6"><a xlink:href="classQuantConnect_1_1SymbolRepresentation.html#ab133044f5cf8c16e700190a2202b215e" target="_top" xlink:title="Returns option symbol ticker in accordance with OSI symbology More information can be found at http:/...">
<polygon fill="white" stroke="black" points="622,-69.5 622,-99.5 825,-99.5 825,-69.5 622,-69.5"/>
<text text-anchor="start" x="630" y="-87.5" font-family="Helvetica,sans-Serif" font-size="10.00">QuantConnect.SymbolRepresentation.</text>
<text text-anchor="middle" x="723.5" y="-76.5" font-family="Helvetica,sans-Serif" font-size="10.00">GenerateOptionTickerOSI</text>
</a>
</g>
</g>
<!-- Node3&#45;&gt;Node6 -->
<g id="edge5" class="edge">
<title>Node3&#45;&gt;Node6</title>
<path fill="none" stroke="midnightblue" d="M586.31,-99.32C594.69,-98.41 603.3,-97.47 611.9,-96.54"/>
<polygon fill="midnightblue" stroke="midnightblue" points="612.43,-100 621.99,-95.44 611.67,-93.04 612.43,-100"/>
</g>
<!-- Node5 -->
<g id="node5" class="node">
<title>Node5</title>
<g id="a_node5"><a xlink:href="classQuantConnect_1_1Securities_1_1Future_1_1FuturesExpiryUtilityFunctions.html#a4ccb1e2f2fe40ff09785a74a02f26df1" target="_top" xlink:title="Gets the number of months between the contract month and the expiry date.">
<polygon fill="white" stroke="black" points="861,-113 861,-154 1127,-154 1127,-113 861,-113"/>
<text text-anchor="start" x="869" y="-142" font-family="Helvetica,sans-Serif" font-size="10.00">QuantConnect.Securities.</text>
<text text-anchor="start" x="869" y="-131" font-family="Helvetica,sans-Serif" font-size="10.00">Future.FuturesExpiryUtilityFunctions.</text>
<text text-anchor="middle" x="994" y="-120" font-family="Helvetica,sans-Serif" font-size="10.00">GetDeltaBetweenContractMonthAndContractExpiry</text>
</a>
</g>
</g>
<!-- Node4&#45;&gt;Node5 -->
<g id="edge4" class="edge">
<title>Node4&#45;&gt;Node5</title>
<path fill="none" stroke="midnightblue" d="M825.24,-133.5C833.59,-133.5 842.11,-133.5 850.68,-133.5"/>
<polygon fill="midnightblue" stroke="midnightblue" points="850.76,-137 860.76,-133.5 850.76,-130 850.76,-137"/>
</g>
</g>
</svg>
