<?xml version="1.0" encoding="UTF-8" standalone="no"?>
<!DOCTYPE svg PUBLIC "-//W3C//DTD SVG 1.1//EN"
 "http://www.w3.org/Graphics/SVG/1.1/DTD/svg11.dtd">
<!-- Generated by graphviz version 2.43.0 (0)
 -->
<!-- Title: QuantConnect.Securities.DefaultMarginCallModel.ExecuteMarginCall Pages: 1 -->
<svg width="1050pt" height="304pt"
 viewBox="0.00 0.00 1050.00 304.00" xmlns="http://www.w3.org/2000/svg" xmlns:xlink="http://www.w3.org/1999/xlink">
<g id="graph0" class="graph" transform="scale(1 1) rotate(0) translate(4 300)">
<title>QuantConnect.Securities.DefaultMarginCallModel.ExecuteMarginCall</title>
<polygon fill="white" stroke="transparent" points="-4,4 -4,-300 1046,-300 1046,4 -4,4"/>
<!-- Node1 -->
<g id="node1" class="node">
<title>Node1</title>
<g id="a_node1"><a xlink:title="Executes synchronous orders to bring the account within margin requirements.">
<polygon fill="#bfbfbf" stroke="black" points="0,-82.5 0,-123.5 176,-123.5 176,-82.5 0,-82.5"/>
<text text-anchor="start" x="8" y="-111.5" font-family="Helvetica,sans-Serif" font-size="10.00">QuantConnect.Securities.</text>
<text text-anchor="start" x="8" y="-100.5" font-family="Helvetica,sans-Serif" font-size="10.00">DefaultMarginCallModel.Execute</text>
<text text-anchor="middle" x="88" y="-89.5" font-family="Helvetica,sans-Serif" font-size="10.00">MarginCall</text>
</a>
</g>
</g>
<!-- Node2 -->
<g id="node2" class="node">
<title>Node2</title>
<g id="a_node2"><a xlink:href="classQuantConnect_1_1Securities_1_1SecurityTransactionManager.html#a1be0501e49d4cce848dcc123183fed8f" target="_top" xlink:title="Add an order to collection and return the unique order id or negative if an error.">
<polygon fill="white" stroke="black" points="212,-134 212,-164 415,-164 415,-134 212,-134"/>
<text text-anchor="start" x="220" y="-152" font-family="Helvetica,sans-Serif" font-size="10.00">QuantConnect.Securities.</text>
<text text-anchor="middle" x="313.5" y="-141" font-family="Helvetica,sans-Serif" font-size="10.00">SecurityTransactionManager.AddOrder</text>
</a>
</g>
</g>
<!-- Node1&#45;&gt;Node2 -->
<g id="edge1" class="edge">
<title>Node1&#45;&gt;Node2</title>
<path fill="none" stroke="midnightblue" d="M176.05,-120.92C193.57,-124.52 211.94,-128.3 229.33,-131.88"/>
<polygon fill="midnightblue" stroke="midnightblue" points="228.94,-135.37 239.44,-133.96 230.35,-128.52 228.94,-135.37"/>
</g>
<!-- Node9 -->
<g id="node9" class="node">
<title>Node9</title>
<g id="a_node9"><a xlink:href="classQuantConnect_1_1Securities_1_1SecurityTransactionManager.html#a40e8a75a6dcac71544bc9a88037cca5d" target="_top" xlink:title="Wait for a specific order to be either Filled, Invalid or Canceled">
<polygon fill="white" stroke="black" points="224,-55.5 224,-96.5 403,-96.5 403,-55.5 224,-55.5"/>
<text text-anchor="start" x="232" y="-84.5" font-family="Helvetica,sans-Serif" font-size="10.00">QuantConnect.Securities.</text>
<text text-anchor="start" x="232" y="-73.5" font-family="Helvetica,sans-Serif" font-size="10.00">SecurityTransactionManager.Wait</text>
<text text-anchor="middle" x="313.5" y="-62.5" font-family="Helvetica,sans-Serif" font-size="10.00">ForOrder</text>
</a>
</g>
</g>
<!-- Node1&#45;&gt;Node9 -->
<g id="edge8" class="edge">
<title>Node1&#45;&gt;Node9</title>
<path fill="none" stroke="midnightblue" d="M176.05,-92.48C188.43,-90.99 201.24,-89.44 213.82,-87.92"/>
<polygon fill="midnightblue" stroke="midnightblue" points="214.34,-91.38 223.85,-86.71 213.5,-84.43 214.34,-91.38"/>
</g>
<!-- Node3 -->
<g id="node3" class="node">
<title>Node3</title>
<g id="a_node3"><a xlink:href="classQuantConnect_1_1Securities_1_1SecurityTransactionManager.html#a136cdc31b644e087e48f4f986e8c064b" target="_top" xlink:title="Processes the order request">
<polygon fill="white" stroke="black" points="451,-150.5 451,-191.5 645,-191.5 645,-150.5 451,-150.5"/>
<text text-anchor="start" x="459" y="-179.5" font-family="Helvetica,sans-Serif" font-size="10.00">QuantConnect.Securities.</text>
<text text-anchor="start" x="459" y="-168.5" font-family="Helvetica,sans-Serif" font-size="10.00">SecurityTransactionManager.Process</text>
<text text-anchor="middle" x="548" y="-157.5" font-family="Helvetica,sans-Serif" font-size="10.00">Request</text>
</a>
</g>
</g>
<!-- Node2&#45;&gt;Node3 -->
<g id="edge2" class="edge">
<title>Node2&#45;&gt;Node3</title>
<path fill="none" stroke="midnightblue" d="M415.13,-158.52C423.68,-159.33 432.35,-160.15 440.95,-160.97"/>
<polygon fill="midnightblue" stroke="midnightblue" points="440.71,-164.46 451,-161.92 441.37,-157.49 440.71,-164.46"/>
</g>
<!-- Node4 -->
<g id="node4" class="node">
<title>Node4</title>
<g id="a_node4"><a xlink:href="classQuantConnect_1_1Securities_1_1SecurityTransactionManager.html#a470623a731aa5e8e241518af157c9ffe" target="_top" xlink:title="Get a new order id, and increment the internal counter.">
<polygon fill="white" stroke="black" points="681,-254.5 681,-295.5 855,-295.5 855,-254.5 681,-254.5"/>
<text text-anchor="start" x="689" y="-283.5" font-family="Helvetica,sans-Serif" font-size="10.00">QuantConnect.Securities.</text>
<text text-anchor="start" x="689" y="-272.5" font-family="Helvetica,sans-Serif" font-size="10.00">SecurityTransactionManager.Get</text>
<text text-anchor="middle" x="768" y="-261.5" font-family="Helvetica,sans-Serif" font-size="10.00">IncrementOrderId</text>
</a>
</g>
</g>
<!-- Node3&#45;&gt;Node4 -->
<g id="edge3" class="edge">
<title>Node3&#45;&gt;Node4</title>
<path fill="none" stroke="midnightblue" d="M581.8,-191.52C608.01,-207.39 646.03,-229.24 681,-245 685.37,-246.97 689.9,-248.89 694.51,-250.75"/>
<polygon fill="midnightblue" stroke="midnightblue" points="693.44,-254.09 704.02,-254.47 695.99,-247.57 693.44,-254.09"/>
</g>
<!-- Node5 -->
<g id="node5" class="node">
<title>Node5</title>
<g id="a_node5"><a xlink:href="interfaceQuantConnect_1_1Securities_1_1IOrderProcessor.html#a153e85c4defb70ea096de8e35c340f4e" target="_top" xlink:title="Adds the specified order to be processed">
<polygon fill="white" stroke="black" points="698,-205 698,-235 838,-235 838,-205 698,-205"/>
<text text-anchor="start" x="706" y="-223" font-family="Helvetica,sans-Serif" font-size="10.00">QuantConnect.Securities.</text>
<text text-anchor="middle" x="768" y="-212" font-family="Helvetica,sans-Serif" font-size="10.00">IOrderProcessor.Process</text>
</a>
</g>
</g>
<!-- Node3&#45;&gt;Node5 -->
<g id="edge4" class="edge">
<title>Node3&#45;&gt;Node5</title>
<path fill="none" stroke="midnightblue" d="M640.5,-191.57C657.1,-195.3 674.25,-199.15 690.37,-202.78"/>
<polygon fill="midnightblue" stroke="midnightblue" points="689.73,-206.22 700.25,-205 691.26,-199.39 689.73,-206.22"/>
</g>
<!-- Node6 -->
<g id="node6" class="node">
<title>Node6</title>
<g id="a_node6"><a xlink:href="classQuantConnect_1_1Orders_1_1OrderResponse.html#aee85b2e31d5c1887ec0cfa15568777c9" target="_top" xlink:title="Returns a string that represents the current object.">
<polygon fill="white" stroke="black" points="692.5,-156 692.5,-186 843.5,-186 843.5,-156 692.5,-156"/>
<text text-anchor="start" x="700.5" y="-174" font-family="Helvetica,sans-Serif" font-size="10.00">QuantConnect.Orders.Order</text>
<text text-anchor="middle" x="768" y="-163" font-family="Helvetica,sans-Serif" font-size="10.00">Response.ToString</text>
</a>
</g>
</g>
<!-- Node3&#45;&gt;Node6 -->
<g id="edge5" class="edge">
<title>Node3&#45;&gt;Node6</title>
<path fill="none" stroke="midnightblue" d="M645.25,-171C657.55,-171 670.07,-171 682.16,-171"/>
<polygon fill="midnightblue" stroke="midnightblue" points="682.22,-174.5 692.22,-171 682.22,-167.5 682.22,-174.5"/>
</g>
<!-- Node7 -->
<g id="node7" class="node">
<title>Node7</title>
<g id="a_node7"><a xlink:href="classQuantConnect_1_1Orders_1_1OrderResponse.html#af8bdc5b0fd7d8e5929a659099d1d939f" target="_top" xlink:title="Helper method to create an error response due to algorithm still in warmup mode">
<polygon fill="white" stroke="black" points="692.5,-107 692.5,-137 843.5,-137 843.5,-107 692.5,-107"/>
<text text-anchor="start" x="700.5" y="-125" font-family="Helvetica,sans-Serif" font-size="10.00">QuantConnect.Orders.Order</text>
<text text-anchor="middle" x="768" y="-114" font-family="Helvetica,sans-Serif" font-size="10.00">Response.WarmingUp</text>
</a>
</g>
</g>
<!-- Node3&#45;&gt;Node7 -->
<g id="edge6" class="edge">
<title>Node3&#45;&gt;Node7</title>
<path fill="none" stroke="midnightblue" d="M640.5,-150.43C657.1,-146.7 674.25,-142.85 690.37,-139.22"/>
<polygon fill="midnightblue" stroke="midnightblue" points="691.26,-142.61 700.25,-137 689.73,-135.78 691.26,-142.61"/>
</g>
<!-- Node8 -->
<g id="node8" class="node">
<title>Node8</title>
<g id="a_node8"><a xlink:href="classQuantConnect_1_1Orders_1_1OrderResponse.html#a14ded2753785926becc5e7f8e5a02a09" target="_top" xlink:title="Helper method to create an error response from a request">
<polygon fill="white" stroke="black" points="891,-107 891,-137 1042,-137 1042,-107 891,-107"/>
<text text-anchor="start" x="899" y="-125" font-family="Helvetica,sans-Serif" font-size="10.00">QuantConnect.Orders.Order</text>
<text text-anchor="middle" x="966.5" y="-114" font-family="Helvetica,sans-Serif" font-size="10.00">Response.Error</text>
</a>
</g>
</g>
<!-- Node7&#45;&gt;Node8 -->
<g id="edge7" class="edge">
<title>Node7&#45;&gt;Node8</title>
<path fill="none" stroke="midnightblue" d="M843.57,-122C855.7,-122 868.34,-122 880.69,-122"/>
<polygon fill="midnightblue" stroke="midnightblue" points="880.98,-125.5 890.98,-122 880.98,-118.5 880.98,-125.5"/>
</g>
<!-- Node10 -->
<g id="node10" class="node">
<title>Node10</title>
<g id="a_node10"><a xlink:href="classQuantConnect_1_1Logging_1_1Log.html#af0e7955911bc7664b37661b2a303a9e3" target="_top" xlink:title="Log error">
<polygon fill="white" stroke="black" points="473,-61 473,-91 623,-91 623,-61 473,-61"/>
<text text-anchor="start" x="481" y="-79" font-family="Helvetica,sans-Serif" font-size="10.00">QuantConnect.Logging.Log.</text>
<text text-anchor="middle" x="548" y="-68" font-family="Helvetica,sans-Serif" font-size="10.00">Error</text>
</a>
</g>
</g>
<!-- Node9&#45;&gt;Node10 -->
<g id="edge9" class="edge">
<title>Node9&#45;&gt;Node10</title>
<path fill="none" stroke="midnightblue" d="M403.06,-76C422.62,-76 443.29,-76 462.68,-76"/>
<polygon fill="midnightblue" stroke="midnightblue" points="462.69,-79.5 472.69,-76 462.69,-72.5 462.69,-79.5"/>
</g>
<!-- Node12 -->
<g id="node12" class="node">
<title>Node12</title>
<g id="a_node12"><a xlink:href="classQuantConnect_1_1Securities_1_1SecurityTransactionManager.html#ab2d222cc403ed3c9445f691c851dd232" target="_top" xlink:title="Gets the order ticket for the specified order id. Returns null if not found">
<polygon fill="white" stroke="black" points="461,-0.5 461,-41.5 635,-41.5 635,-0.5 461,-0.5"/>
<text text-anchor="start" x="469" y="-29.5" font-family="Helvetica,sans-Serif" font-size="10.00">QuantConnect.Securities.</text>
<text text-anchor="start" x="469" y="-18.5" font-family="Helvetica,sans-Serif" font-size="10.00">SecurityTransactionManager.Get</text>
<text text-anchor="middle" x="548" y="-7.5" font-family="Helvetica,sans-Serif" font-size="10.00">OrderTicket</text>
</a>
</g>
</g>
<!-- Node9&#45;&gt;Node12 -->
<g id="edge11" class="edge">
<title>Node9&#45;&gt;Node12</title>
<path fill="none" stroke="midnightblue" d="M401.41,-55.44C417.53,-51.63 434.47,-47.62 450.85,-43.74"/>
<polygon fill="midnightblue" stroke="midnightblue" points="452.05,-47.06 460.97,-41.35 450.44,-40.25 452.05,-47.06"/>
</g>
<!-- Node11 -->
<g id="node11" class="node">
<title>Node11</title>
<g id="a_node11"><a xlink:href="interfaceQuantConnect_1_1Logging_1_1ILogHandler.html#a35373a0c5d76031fa5ccf5dc39e5c25d" target="_top" xlink:title="Write error message to log">
<polygon fill="white" stroke="black" points="693,-58 693,-88 843,-88 843,-58 693,-58"/>
<text text-anchor="start" x="701" y="-76" font-family="Helvetica,sans-Serif" font-size="10.00">QuantConnect.Logging.ILog</text>
<text text-anchor="middle" x="768" y="-65" font-family="Helvetica,sans-Serif" font-size="10.00">Handler.Error</text>
</a>
</g>
</g>
<!-- Node10&#45;&gt;Node11 -->
<g id="edge10" class="edge">
<title>Node10&#45;&gt;Node11</title>
<path fill="none" stroke="midnightblue" d="M623.11,-74.98C642.24,-74.72 662.97,-74.43 682.59,-74.16"/>
<polygon fill="midnightblue" stroke="midnightblue" points="682.77,-77.66 692.73,-74.02 682.68,-70.66 682.77,-77.66"/>
</g>
<!-- Node13 -->
<g id="node13" class="node">
<title>Node13</title>
<g id="a_node13"><a xlink:href="interfaceQuantConnect_1_1Securities_1_1IOrderProvider.html#a299559676284f079d519275b43523a5e" target="_top" xlink:title="Gets the order ticket for the specified order id. Returns null if not found">
<polygon fill="white" stroke="black" points="686.5,-6 686.5,-36 849.5,-36 849.5,-6 686.5,-6"/>
<text text-anchor="start" x="694.5" y="-24" font-family="Helvetica,sans-Serif" font-size="10.00">QuantConnect.Securities.</text>
<text text-anchor="middle" x="768" y="-13" font-family="Helvetica,sans-Serif" font-size="10.00">IOrderProvider.GetOrderTicket</text>
</a>
</g>
</g>
<!-- Node12&#45;&gt;Node13 -->
<g id="edge12" class="edge">
<title>Node12&#45;&gt;Node13</title>
<path fill="none" stroke="midnightblue" d="M635.16,-21C648.63,-21 662.58,-21 676.15,-21"/>
<polygon fill="midnightblue" stroke="midnightblue" points="676.43,-24.5 686.43,-21 676.43,-17.5 676.43,-24.5"/>
</g>
</g>
</svg>
