<?xml version="1.0" encoding="UTF-8" standalone="no"?>
<!DOCTYPE svg PUBLIC "-//W3C//DTD SVG 1.1//EN"
 "http://www.w3.org/Graphics/SVG/1.1/DTD/svg11.dtd">
<!-- Generated by graphviz version 2.43.0 (0)
 -->
<!-- Title: QuantConnect.Lean.Engine.DataFeeds.Enumerators.SplitEventProvider.InitializeFactorFile Pages: 1 -->
<svg width="416pt" height="110pt"
 viewBox="0.00 0.00 416.00 110.00" xmlns="http://www.w3.org/2000/svg" xmlns:xlink="http://www.w3.org/1999/xlink">
<g id="graph0" class="graph" transform="scale(1 1) rotate(0) translate(4 106)">
<title>QuantConnect.Lean.Engine.DataFeeds.Enumerators.SplitEventProvider.InitializeFactorFile</title>
<polygon fill="white" stroke="transparent" points="-4,4 -4,-106 412,-106 412,4 -4,4"/>
<!-- Node1 -->
<g id="node1" class="node">
<title>Node1</title>
<g id="a_node1"><a xlink:title="Initializes the factor file to use">
<polygon fill="#bfbfbf" stroke="black" points="222,-30.5 222,-71.5 408,-71.5 408,-30.5 222,-30.5"/>
<text text-anchor="start" x="230" y="-59.5" font-family="Helvetica,sans-Serif" font-size="10.00">QuantConnect.Lean.Engine.</text>
<text text-anchor="start" x="230" y="-48.5" font-family="Helvetica,sans-Serif" font-size="10.00">DataFeeds.Enumerators.SplitEvent</text>
<text text-anchor="middle" x="315" y="-37.5" font-family="Helvetica,sans-Serif" font-size="10.00">Provider.InitializeFactorFile</text>
</a>
</g>
</g>
<!-- Node2 -->
<g id="node2" class="node">
<title>Node2</title>
<g id="a_node2"><a xlink:href="classQuantConnect_1_1Lean_1_1Engine_1_1DataFeeds_1_1Enumerators_1_1LiveSplitEventProvider.html#a4fea8416ece3268b8e5a991e66ae47bf" target="_top" xlink:title="Check for dividends and returns them">
<polygon fill="white" stroke="black" points="3.5,-60.5 3.5,-101.5 182.5,-101.5 182.5,-60.5 3.5,-60.5"/>
<text text-anchor="start" x="11.5" y="-89.5" font-family="Helvetica,sans-Serif" font-size="10.00">QuantConnect.Lean.Engine.</text>
<text text-anchor="start" x="11.5" y="-78.5" font-family="Helvetica,sans-Serif" font-size="10.00">DataFeeds.Enumerators.LiveSplit</text>
<text text-anchor="middle" x="93" y="-67.5" font-family="Helvetica,sans-Serif" font-size="10.00">EventProvider.GetEvents</text>
</a>
</g>
</g>
<!-- Node1&#45;&gt;Node2 -->
<g id="edge1" class="edge">
<title>Node1&#45;&gt;Node2</title>
<path fill="none" stroke="midnightblue" d="M211.9,-64.92C202.2,-66.25 192.41,-67.58 182.84,-68.89"/>
<polygon fill="midnightblue" stroke="midnightblue" points="212.54,-68.37 221.97,-63.55 211.59,-61.43 212.54,-68.37"/>
</g>
<!-- Node3 -->
<g id="node3" class="node">
<title>Node3</title>
<g id="a_node3"><a xlink:href="classQuantConnect_1_1Lean_1_1Engine_1_1DataFeeds_1_1Enumerators_1_1SplitEventProvider.html#abc76f36c6b39e05c7adef77b6432fa59" target="_top" xlink:title="Initializes this instance">
<polygon fill="white" stroke="black" points="0,-0.5 0,-41.5 186,-41.5 186,-0.5 0,-0.5"/>
<text text-anchor="start" x="8" y="-29.5" font-family="Helvetica,sans-Serif" font-size="10.00">QuantConnect.Lean.Engine.</text>
<text text-anchor="start" x="8" y="-18.5" font-family="Helvetica,sans-Serif" font-size="10.00">DataFeeds.Enumerators.SplitEvent</text>
<text text-anchor="middle" x="93" y="-7.5" font-family="Helvetica,sans-Serif" font-size="10.00">Provider.Initialize</text>
</a>
</g>
</g>
<!-- Node1&#45;&gt;Node3 -->
<g id="edge2" class="edge">
<title>Node1&#45;&gt;Node3</title>
<path fill="none" stroke="midnightblue" d="M211.89,-37.08C203.25,-35.9 194.56,-34.71 186.01,-33.55"/>
<polygon fill="midnightblue" stroke="midnightblue" points="211.59,-40.57 221.97,-38.45 212.54,-33.63 211.59,-40.57"/>
</g>
</g>
</svg>
