<?xml version="1.0" encoding="UTF-8" standalone="no"?>
<!DOCTYPE svg PUBLIC "-//W3C//DTD SVG 1.1//EN"
 "http://www.w3.org/Graphics/SVG/1.1/DTD/svg11.dtd">
<!-- Generated by graphviz version 2.43.0 (0)
 -->
<!-- Title: QuantConnect.Algorithm.Framework.Alphas.Insight.ComputeCloseTime Pages: 1 -->
<svg width="1105pt" height="88pt"
 viewBox="0.00 0.00 1105.00 88.00" xmlns="http://www.w3.org/2000/svg" xmlns:xlink="http://www.w3.org/1999/xlink">
<g id="graph0" class="graph" transform="scale(1 1) rotate(0) translate(4 84)">
<title>QuantConnect.Algorithm.Framework.Alphas.Insight.ComputeCloseTime</title>
<polygon fill="white" stroke="transparent" points="-4,4 -4,-84 1101,-84 1101,4 -4,4"/>
<!-- Node1 -->
<g id="node1" class="node">
<title>Node1</title>
<g id="a_node1"><a xlink:title="computs the insight closing time from the given generated time and period">
<polygon fill="#bfbfbf" stroke="black" points="0,-24.5 0,-54.5 197,-54.5 197,-24.5 0,-24.5"/>
<text text-anchor="start" x="8" y="-42.5" font-family="Helvetica,sans-Serif" font-size="10.00">QuantConnect.Algorithm.Framework.</text>
<text text-anchor="middle" x="98.5" y="-31.5" font-family="Helvetica,sans-Serif" font-size="10.00">Alphas.Insight.ComputeCloseTime</text>
</a>
</g>
</g>
<!-- Node2 -->
<g id="node2" class="node">
<title>Node2</title>
<g id="a_node2"><a xlink:href="classQuantConnect_1_1Algorithm_1_1Framework_1_1Alphas_1_1Insight.html#a9b0d98e6ada41f28b42e52f36b7f9f44" target="_top" xlink:title="Computes the insight closing time from the given generated time, resolution and bar count....">
<polygon fill="white" stroke="black" points="233,-24.5 233,-54.5 430,-54.5 430,-24.5 233,-24.5"/>
<text text-anchor="start" x="241" y="-42.5" font-family="Helvetica,sans-Serif" font-size="10.00">QuantConnect.Algorithm.Framework.</text>
<text text-anchor="middle" x="331.5" y="-31.5" font-family="Helvetica,sans-Serif" font-size="10.00">Alphas.Insight.ComputeCloseTime</text>
</a>
</g>
</g>
<!-- Node1&#45;&gt;Node2 -->
<g id="edge1" class="edge">
<title>Node1&#45;&gt;Node2</title>
<path fill="none" stroke="midnightblue" d="M197.13,-39.5C205.63,-39.5 214.25,-39.5 222.83,-39.5"/>
<polygon fill="midnightblue" stroke="midnightblue" points="222.85,-43 232.85,-39.5 222.85,-36 222.85,-43"/>
</g>
<!-- Node3 -->
<g id="node3" class="node">
<title>Node3</title>
<g id="a_node3"><a xlink:href="classQuantConnect_1_1Time.html#a18b31437302a5918b76a15ecb0bd56d1" target="_top" xlink:title="Determines the end time at which the requested number of bars of the given will have elapsed....">
<polygon fill="white" stroke="black" points="466,-24.5 466,-54.5 618,-54.5 618,-24.5 466,-24.5"/>
<text text-anchor="start" x="474" y="-42.5" font-family="Helvetica,sans-Serif" font-size="10.00">QuantConnect.Time.GetEnd</text>
<text text-anchor="middle" x="542" y="-31.5" font-family="Helvetica,sans-Serif" font-size="10.00">TimeForTradeBars</text>
</a>
</g>
</g>
<!-- Node2&#45;&gt;Node3 -->
<g id="edge2" class="edge">
<title>Node2&#45;&gt;Node3</title>
<path fill="none" stroke="midnightblue" d="M430.03,-39.5C438.62,-39.5 447.28,-39.5 455.75,-39.5"/>
<polygon fill="midnightblue" stroke="midnightblue" points="455.99,-43 465.99,-39.5 455.99,-36 455.99,-43"/>
</g>
<!-- Node4 -->
<g id="node4" class="node">
<title>Node4</title>
<g id="a_node4"><a xlink:href="classQuantConnect_1_1Securities_1_1SecurityExchangeHours.html#aeea5ca309a445fa3a7cb85bd995af45a" target="_top" xlink:title="Determines if the exchange will be open on the date specified by the local date time">
<polygon fill="white" stroke="black" points="654,-49.5 654,-79.5 846,-79.5 846,-49.5 654,-49.5"/>
<text text-anchor="start" x="662" y="-67.5" font-family="Helvetica,sans-Serif" font-size="10.00">QuantConnect.Securities.</text>
<text text-anchor="middle" x="750" y="-56.5" font-family="Helvetica,sans-Serif" font-size="10.00">SecurityExchangeHours.IsDateOpen</text>
</a>
</g>
</g>
<!-- Node3&#45;&gt;Node4 -->
<g id="edge3" class="edge">
<title>Node3&#45;&gt;Node4</title>
<path fill="none" stroke="midnightblue" d="M618.25,-48.63C626.59,-49.64 635.19,-50.69 643.82,-51.74"/>
<polygon fill="midnightblue" stroke="midnightblue" points="643.59,-55.23 653.94,-52.96 644.44,-48.28 643.59,-55.23"/>
</g>
<!-- Node6 -->
<g id="node6" class="node">
<title>Node6</title>
<g id="a_node6"><a xlink:href="classQuantConnect_1_1Securities_1_1SecurityExchangeHours.html#af2deedeacdcb6bbe40f4874002cdbac3" target="_top" xlink:title="Determines if the exchange is open at the specified local date time.">
<polygon fill="white" stroke="black" points="665.5,-0.5 665.5,-30.5 834.5,-30.5 834.5,-0.5 665.5,-0.5"/>
<text text-anchor="start" x="673.5" y="-18.5" font-family="Helvetica,sans-Serif" font-size="10.00">QuantConnect.Securities.</text>
<text text-anchor="middle" x="750" y="-7.5" font-family="Helvetica,sans-Serif" font-size="10.00">SecurityExchangeHours.IsOpen</text>
</a>
</g>
</g>
<!-- Node3&#45;&gt;Node6 -->
<g id="edge5" class="edge">
<title>Node3&#45;&gt;Node6</title>
<path fill="none" stroke="midnightblue" d="M618.25,-30.73C630.19,-29.34 642.67,-27.89 654.98,-26.45"/>
<polygon fill="midnightblue" stroke="midnightblue" points="655.73,-29.89 665.26,-25.26 654.92,-22.94 655.73,-29.89"/>
</g>
<!-- Node5 -->
<g id="node5" class="node">
<title>Node5</title>
<g id="a_node5"><a xlink:href="classQuantConnect_1_1Securities_1_1SecurityExchangeHours.html#a106e2dd187ab76452e14ac6a28f929aa" target="_top" xlink:title="Helper to access the market hours field based on the day of week">
<polygon fill="white" stroke="black" points="882,-49.5 882,-79.5 1097,-79.5 1097,-49.5 882,-49.5"/>
<text text-anchor="start" x="890" y="-67.5" font-family="Helvetica,sans-Serif" font-size="10.00">QuantConnect.Securities.</text>
<text text-anchor="middle" x="989.5" y="-56.5" font-family="Helvetica,sans-Serif" font-size="10.00">SecurityExchangeHours.GetMarketHours</text>
</a>
</g>
</g>
<!-- Node4&#45;&gt;Node5 -->
<g id="edge4" class="edge">
<title>Node4&#45;&gt;Node5</title>
<path fill="none" stroke="midnightblue" d="M846.23,-64.5C854.67,-64.5 863.28,-64.5 871.87,-64.5"/>
<polygon fill="midnightblue" stroke="midnightblue" points="871.94,-68 881.94,-64.5 871.94,-61 871.94,-68"/>
</g>
<!-- Node6&#45;&gt;Node5 -->
<g id="edge6" class="edge">
<title>Node6&#45;&gt;Node5</title>
<path fill="none" stroke="midnightblue" d="M823.87,-30.53C849.75,-35.87 879.05,-41.92 905.7,-47.42"/>
<polygon fill="midnightblue" stroke="midnightblue" points="905.26,-50.9 915.77,-49.49 906.68,-44.05 905.26,-50.9"/>
</g>
<!-- Node7 -->
<g id="node7" class="node">
<title>Node7</title>
<g id="a_node7"><a xlink:href="classQuantConnect_1_1Securities_1_1LocalMarketHours.html#a97e5d374a28d55f3ebee72c328a0810f" target="_top" xlink:title="Determines if the exchange is open at the specified time">
<polygon fill="white" stroke="black" points="919,-0.5 919,-30.5 1060,-30.5 1060,-0.5 919,-0.5"/>
<text text-anchor="start" x="927" y="-18.5" font-family="Helvetica,sans-Serif" font-size="10.00">QuantConnect.Securities.</text>
<text text-anchor="middle" x="989.5" y="-7.5" font-family="Helvetica,sans-Serif" font-size="10.00">LocalMarketHours.IsOpen</text>
</a>
</g>
</g>
<!-- Node6&#45;&gt;Node7 -->
<g id="edge7" class="edge">
<title>Node6&#45;&gt;Node7</title>
<path fill="none" stroke="midnightblue" d="M834.73,-15.5C858.81,-15.5 884.99,-15.5 908.81,-15.5"/>
<polygon fill="midnightblue" stroke="midnightblue" points="908.86,-19 918.86,-15.5 908.86,-12 908.86,-19"/>
</g>
</g>
</svg>
