<?xml version="1.0" encoding="UTF-8" standalone="no"?>
<!DOCTYPE svg PUBLIC "-//W3C//DTD SVG 1.1//EN"
 "http://www.w3.org/Graphics/SVG/1.1/DTD/svg11.dtd">
<!-- Generated by graphviz version 2.43.0 (0)
 -->
<!-- Title: QuantConnect.Time.GetStartTimeForTradeBars Pages: 1 -->
<!--zoomable 412 -->
<svg id="main" version="1.1" xmlns="http://www.w3.org/2000/svg" xmlns:xlink="http://www.w3.org/1999/xlink" xml:space="preserve" onload="init(evt)">
<style type="text/css"><![CDATA[
.edge:hover path { stroke: red; }
.edge:hover polygon { stroke: red; fill: red; }
]]></style>
<script type="text/javascript"><![CDATA[
var edges = document.getElementsByTagName('g');
if (edges && edges.length) {
  for (var i=0;i<edges.length;i++) {
    if (edges[i].id.substr(0,4)=='edge') {
      edges[i].setAttribute('class','edge');
    }
  }
}
]]></script>
        <defs>
                <circle id="rim" cx="0" cy="0" r="7"/>
                <circle id="rim2" cx="0" cy="0" r="3.5"/>
                <g id="zoomPlus">
                        <use xlink:href="#rim" fill="#404040">
                                <set attributeName="fill" to="#808080" begin="zoomplus.mouseover" end="zoomplus.mouseout"/>
                        </use>
                        <path d="M-4,0h8M0,-4v8" fill="none" stroke="white" stroke-width="1.5" pointer-events="none"/>
                </g>
                <g id="zoomMin">
                        <use xlink:href="#rim" fill="#404040">
                                <set attributeName="fill" to="#808080" begin="zoomminus.mouseover" end="zoomminus.mouseout"/>
                        </use>
                        <path d="M-4,0h8" fill="none" stroke="white" stroke-width="1.5" pointer-events="none"/>
                </g>
                <g id="dirArrow">
                        <path fill="none" stroke="white" stroke-width="1.5" d="M0,-3.0v7 M-2.5,-0.5L0,-3.0L2.5,-0.5"/>
                </g>
               <g id="resetDef">
                       <use xlink:href="#rim2" fill="#404040">
                               <set attributeName="fill" to="#808080" begin="reset.mouseover" end="reset.mouseout"/>
                       </use>
               </g>
        </defs>

<script type="text/javascript">
var viewWidth = 672;
var viewHeight = 412;
var sectionId = 'dynsection-28';
</script>
<script xlink:href="svgpan.js"/>
<svg id="graph" class="graph">
<g id="viewport">
<title>QuantConnect.Time.GetStartTimeForTradeBars</title>
<polygon fill="white" stroke="transparent" points="-4,4 -4,-408 668,-408 668,4 -4,4"/>
<!-- Node1 -->
<g id="node1" class="node">
<title>Node1</title>
<g id="a_node1"><a xlink:title="Determines the start time required to produce the requested number of bars and the given size">
<polygon fill="#bfbfbf" stroke="black" points="507,-206 507,-236 664,-236 664,-206 507,-206"/>
<text text-anchor="start" x="515" y="-224" font-family="Helvetica,sans-Serif" font-size="10.00">QuantConnect.Time.GetStart</text>
<text text-anchor="middle" x="585.5" y="-213" font-family="Helvetica,sans-Serif" font-size="10.00">TimeForTradeBars</text>
</a>
</g>
</g>
<!-- Node2 -->
<g id="node2" class="node">
<title>Node2</title>
<g id="a_node2"><a xlink:href="classQuantConnect_1_1Lean_1_1Engine_1_1DataFeeds_1_1UniverseSelection.html#aa1f5bba72357a2a66d98099a3d20a0e5" target="_top" xlink:title="Will add any pending internal currency subscriptions">
<polygon fill="white" stroke="black" points="265,-362.5 265,-403.5 447,-403.5 447,-362.5 265,-362.5"/>
<text text-anchor="start" x="273" y="-391.5" font-family="Helvetica,sans-Serif" font-size="10.00">QuantConnect.Lean.Engine.</text>
<text text-anchor="start" x="273" y="-380.5" font-family="Helvetica,sans-Serif" font-size="10.00">DataFeeds.UniverseSelection.Add</text>
<text text-anchor="middle" x="356" y="-369.5" font-family="Helvetica,sans-Serif" font-size="10.00">PendingInternalDataFeeds</text>
</a>
</g>
</g>
<!-- Node1&#45;&gt;Node2 -->
<g id="edge1" class="edge">
<title>Node1&#45;&gt;Node2</title>
<path fill="none" stroke="midnightblue" d="M570.45,-244.84C551.62,-274.68 515.35,-325.26 471,-353 463.63,-357.61 455.56,-361.52 447.23,-364.83"/>
<polygon fill="midnightblue" stroke="midnightblue" points="573.46,-246.64 575.73,-236.29 567.5,-242.96 573.46,-246.64"/>
</g>
<!-- Node3 -->
<g id="node3" class="node">
<title>Node3</title>
<g id="a_node3"><a xlink:href="classQuantConnect_1_1Lean_1_1Engine_1_1DataFeeds_1_1Enumerators_1_1Factories_1_1BaseDataCollectionSubscriptionEnumeratorFactory.html#aea4833b465fe3e59cfe765cb62c62317" target="_top" xlink:title="Creates an enumerator to read the specified request">
<polygon fill="white" stroke="black" points="241,-291 241,-343 471,-343 471,-291 241,-291"/>
<text text-anchor="start" x="249" y="-331" font-family="Helvetica,sans-Serif" font-size="10.00">QuantConnect.Lean.Engine.</text>
<text text-anchor="start" x="249" y="-320" font-family="Helvetica,sans-Serif" font-size="10.00">DataFeeds.Enumerators.Factories.</text>
<text text-anchor="start" x="249" y="-309" font-family="Helvetica,sans-Serif" font-size="10.00">BaseDataCollectionSubscriptionEnumerator</text>
<text text-anchor="middle" x="356" y="-298" font-family="Helvetica,sans-Serif" font-size="10.00">Factory.CreateEnumerator</text>
</a>
</g>
</g>
<!-- Node1&#45;&gt;Node3 -->
<g id="edge2" class="edge">
<title>Node1&#45;&gt;Node3</title>
<path fill="none" stroke="midnightblue" d="M550.31,-241.16C528.18,-253.67 498.47,-269.51 471,-281 462.67,-284.48 453.88,-287.82 445.03,-290.97"/>
<polygon fill="midnightblue" stroke="midnightblue" points="552.05,-244.19 559,-236.19 548.58,-238.11 552.05,-244.19"/>
</g>
<!-- Node4 -->
<g id="node4" class="node">
<title>Node4</title>
<g id="a_node4"><a xlink:href="classQuantConnect_1_1Lean_1_1Engine_1_1DataFeeds_1_1FileSystemDataFeed.html#ac148e78fc814fca88c70a1835be51a25" target="_top" xlink:title="Creates a new subscription to provide data for the specified security.">
<polygon fill="white" stroke="black" points="252.5,-230.5 252.5,-271.5 459.5,-271.5 459.5,-230.5 252.5,-230.5"/>
<text text-anchor="start" x="260.5" y="-259.5" font-family="Helvetica,sans-Serif" font-size="10.00">QuantConnect.Lean.Engine.</text>
<text text-anchor="start" x="260.5" y="-248.5" font-family="Helvetica,sans-Serif" font-size="10.00">DataFeeds.FileSystemDataFeed.Create</text>
<text text-anchor="middle" x="356" y="-237.5" font-family="Helvetica,sans-Serif" font-size="10.00">Subscription</text>
</a>
</g>
</g>
<!-- Node1&#45;&gt;Node4 -->
<g id="edge3" class="edge">
<title>Node1&#45;&gt;Node4</title>
<path fill="none" stroke="midnightblue" d="M496.75,-232.57C484.6,-234.17 472.04,-235.83 459.65,-237.46"/>
<polygon fill="midnightblue" stroke="midnightblue" points="497.39,-236.02 506.84,-231.24 496.47,-229.08 497.39,-236.02"/>
</g>
<!-- Node5 -->
<g id="node5" class="node">
<title>Node5</title>
<g id="a_node5"><a xlink:href="classQuantConnect_1_1Securities_1_1Volatility_1_1BaseVolatilityModel.html#a1447baed13180db4f86dc485496400b8" target="_top" xlink:title="Gets history requests required for warming up the greeks with the provided resolution">
<polygon fill="white" stroke="black" points="275,-170.5 275,-211.5 437,-211.5 437,-170.5 275,-170.5"/>
<text text-anchor="start" x="283" y="-199.5" font-family="Helvetica,sans-Serif" font-size="10.00">QuantConnect.Securities.</text>
<text text-anchor="start" x="283" y="-188.5" font-family="Helvetica,sans-Serif" font-size="10.00">Volatility.BaseVolatilityModel.</text>
<text text-anchor="middle" x="356" y="-177.5" font-family="Helvetica,sans-Serif" font-size="10.00">GetHistoryRequirements</text>
</a>
</g>
</g>
<!-- Node1&#45;&gt;Node5 -->
<g id="edge4" class="edge">
<title>Node1&#45;&gt;Node5</title>
<path fill="none" stroke="midnightblue" d="M496.69,-209.42C477.05,-206.83 456.32,-204.1 437.02,-201.55"/>
<polygon fill="midnightblue" stroke="midnightblue" points="496.47,-212.92 506.84,-210.76 497.39,-205.98 496.47,-212.92"/>
</g>
<!-- Node6 -->
<g id="node6" class="node">
<title>Node6</title>
<g id="a_node6"><a xlink:href="classQuantConnect_1_1Data_1_1HistoryRequestFactory.html#a61b57900ee8f3ddceb8b6a07702a621a" target="_top" xlink:title="Gets the start time required for the specified bar count in terms of the algorithm&#39;s time zone">
<polygon fill="white" stroke="black" points="260.5,-121 260.5,-151 451.5,-151 451.5,-121 260.5,-121"/>
<text text-anchor="start" x="268.5" y="-139" font-family="Helvetica,sans-Serif" font-size="10.00">QuantConnect.Data.History</text>
<text text-anchor="middle" x="356" y="-128" font-family="Helvetica,sans-Serif" font-size="10.00">RequestFactory.GetStartTimeAlgoTz</text>
</a>
</g>
</g>
<!-- Node1&#45;&gt;Node6 -->
<g id="edge5" class="edge">
<title>Node1&#45;&gt;Node6</title>
<path fill="none" stroke="midnightblue" d="M551.94,-200.75C529.82,-187.76 499.51,-171.44 471,-161 460.63,-157.2 449.51,-153.89 438.43,-151.02"/>
<polygon fill="midnightblue" stroke="midnightblue" points="550.21,-203.79 560.59,-205.9 553.79,-197.77 550.21,-203.79"/>
</g>
<!-- Node9 -->
<g id="node9" class="node">
<title>Node9</title>
<g id="a_node9"><a xlink:href="classQuantConnect_1_1Lean_1_1Engine_1_1DataFeeds_1_1BacktestingChainProvider.html#a903ec0b9ee074f1a7ee6d1eccc5f712b" target="_top" xlink:title="Get the contract symbols associated with the given canonical symbol and date">
<polygon fill="white" stroke="black" points="256,-60.5 256,-101.5 456,-101.5 456,-60.5 256,-60.5"/>
<text text-anchor="start" x="264" y="-89.5" font-family="Helvetica,sans-Serif" font-size="10.00">QuantConnect.Lean.Engine.</text>
<text text-anchor="start" x="264" y="-78.5" font-family="Helvetica,sans-Serif" font-size="10.00">DataFeeds.BacktestingChainProvider.</text>
<text text-anchor="middle" x="356" y="-67.5" font-family="Helvetica,sans-Serif" font-size="10.00">GetSymbols</text>
</a>
</g>
</g>
<!-- Node1&#45;&gt;Node9 -->
<g id="edge8" class="edge">
<title>Node1&#45;&gt;Node9</title>
<path fill="none" stroke="midnightblue" d="M566.66,-198.04C546.17,-173.22 510.3,-134.26 471,-112 464.04,-108.06 456.55,-104.6 448.87,-101.56"/>
<polygon fill="midnightblue" stroke="midnightblue" points="563.98,-200.29 573,-205.86 569.42,-195.89 563.98,-200.29"/>
</g>
<!-- Node7 -->
<g id="node7" class="node">
<title>Node7</title>
<g id="a_node7"><a xlink:href="classQuantConnect_1_1Algorithm_1_1QCAlgorithm.html#ad399b4f00d9c9d49d5f423616db06c3b" target="_top" xlink:title="Gets the historical data for the specified symbol. The exact number of bars will be returned....">
<polygon fill="white" stroke="black" points="0,-170 0,-200 205,-200 205,-170 0,-170"/>
<text text-anchor="start" x="8" y="-188" font-family="Helvetica,sans-Serif" font-size="10.00">QuantConnect.Algorithm.QCAlgorithm.</text>
<text text-anchor="middle" x="102.5" y="-177" font-family="Helvetica,sans-Serif" font-size="10.00">History</text>
</a>
</g>
</g>
<!-- Node6&#45;&gt;Node7 -->
<g id="edge6" class="edge">
<title>Node6&#45;&gt;Node7</title>
<path fill="none" stroke="midnightblue" d="M267.91,-152.97C239.49,-158.5 208.15,-164.61 180.52,-169.99"/>
<polygon fill="midnightblue" stroke="midnightblue" points="268.69,-156.38 277.83,-151.03 267.35,-149.51 268.69,-156.38"/>
</g>
<!-- Node8 -->
<g id="node8" class="node">
<title>Node8</title>
<g id="a_node8"><a xlink:href="classQuantConnect_1_1Algorithm_1_1QCAlgorithm.html#a4cb52293763a21a3638d93d26e307bae" target="_top" xlink:title="Gets the historical data for the specified symbols. The exact number of bars will be returned for eac...">
<polygon fill="white" stroke="black" points="0,-121 0,-151 205,-151 205,-121 0,-121"/>
<text text-anchor="start" x="8" y="-139" font-family="Helvetica,sans-Serif" font-size="10.00">QuantConnect.Algorithm.QCAlgorithm.</text>
<text text-anchor="middle" x="102.5" y="-128" font-family="Helvetica,sans-Serif" font-size="10.00">History&lt; T &gt;</text>
</a>
</g>
</g>
<!-- Node6&#45;&gt;Node8 -->
<g id="edge7" class="edge">
<title>Node6&#45;&gt;Node8</title>
<path fill="none" stroke="midnightblue" d="M250.09,-136C235.27,-136 220.04,-136 205.28,-136"/>
<polygon fill="midnightblue" stroke="midnightblue" points="250.28,-139.5 260.28,-136 250.28,-132.5 250.28,-139.5"/>
</g>
<!-- Node10 -->
<g id="node10" class="node">
<title>Node10</title>
<g id="a_node10"><a xlink:href="classQuantConnect_1_1Lean_1_1Engine_1_1DataFeeds_1_1BacktestingFutureChainProvider.html#ad95ac9ea6895b03fa51209aa7e9c2fb4" target="_top" xlink:title="Gets the list of future contracts for a given underlying symbol">
<polygon fill="white" stroke="black" points="8.5,-60.5 8.5,-101.5 196.5,-101.5 196.5,-60.5 8.5,-60.5"/>
<text text-anchor="start" x="16.5" y="-89.5" font-family="Helvetica,sans-Serif" font-size="10.00">QuantConnect.Lean.Engine.</text>
<text text-anchor="start" x="16.5" y="-78.5" font-family="Helvetica,sans-Serif" font-size="10.00">DataFeeds.BacktestingFutureChain</text>
<text text-anchor="middle" x="102.5" y="-67.5" font-family="Helvetica,sans-Serif" font-size="10.00">Provider.GetFutureContractList</text>
</a>
</g>
</g>
<!-- Node9&#45;&gt;Node10 -->
<g id="edge9" class="edge">
<title>Node9&#45;&gt;Node10</title>
<path fill="none" stroke="midnightblue" d="M245.83,-81C229.46,-81 212.7,-81 196.7,-81"/>
<polygon fill="midnightblue" stroke="midnightblue" points="245.96,-84.5 255.96,-81 245.96,-77.5 245.96,-84.5"/>
</g>
<!-- Node11 -->
<g id="node11" class="node">
<title>Node11</title>
<g id="a_node11"><a xlink:href="classQuantConnect_1_1Lean_1_1Engine_1_1DataFeeds_1_1BacktestingOptionChainProvider.html#a5b140615fad8e3c0f8d08597a7ca1509" target="_top" xlink:title="Gets the list of option contracts for a given underlying symbol">
<polygon fill="white" stroke="black" points="8,-0.5 8,-41.5 197,-41.5 197,-0.5 8,-0.5"/>
<text text-anchor="start" x="16" y="-29.5" font-family="Helvetica,sans-Serif" font-size="10.00">QuantConnect.Lean.Engine.</text>
<text text-anchor="start" x="16" y="-18.5" font-family="Helvetica,sans-Serif" font-size="10.00">DataFeeds.BacktestingOptionChain</text>
<text text-anchor="middle" x="102.5" y="-7.5" font-family="Helvetica,sans-Serif" font-size="10.00">Provider.GetOptionContractList</text>
</a>
</g>
</g>
<!-- Node9&#45;&gt;Node11 -->
<g id="edge10" class="edge">
<title>Node9&#45;&gt;Node11</title>
<path fill="none" stroke="midnightblue" d="M258.79,-58.05C236.02,-52.61 211.88,-46.86 189.59,-41.54"/>
<polygon fill="midnightblue" stroke="midnightblue" points="258.26,-61.52 268.8,-60.44 259.89,-54.71 258.26,-61.52"/>
</g>
</g>
</svg>
        <g id="navigator" transform="translate(0 0)" fill="#404254">
                <rect fill="#f2f5e9" fill-opacity="0.5" stroke="#606060" stroke-width=".5" x="0" y="0" width="60" height="60"/>
                <use id="zoomplus" xlink:href="#zoomPlus" x="17" y="9" onmousedown="handleZoom(evt,'in')"/>
                <use id="zoomminus" xlink:href="#zoomMin" x="42" y="9" onmousedown="handleZoom(evt,'out')"/>
                <use id="reset" xlink:href="#resetDef" x="30" y="36" onmousedown="handleReset()"/>
                <g id="arrowUp" xlink:href="#dirArrow" transform="translate(30 24)" onmousedown="handlePan(0,-1)">
                  <use xlink:href="#rim" fill="#404040">
                        <set attributeName="fill" to="#808080" begin="arrowUp.mouseover" end="arrowUp.mouseout"/>
                  </use>
                  <path fill="none" stroke="white" stroke-width="1.5" d="M0,-3.0v7 M-2.5,-0.5L0,-3.0L2.5,-0.5"/>
                </g>
                <g id="arrowRight" xlink:href="#dirArrow" transform="rotate(90) translate(36 -43)" onmousedown="handlePan(1,0)">
                  <use xlink:href="#rim" fill="#404040">
                        <set attributeName="fill" to="#808080" begin="arrowRight.mouseover" end="arrowRight.mouseout"/>
                  </use>
                  <path fill="none" stroke="white" stroke-width="1.5" d="M0,-3.0v7 M-2.5,-0.5L0,-3.0L2.5,-0.5"/>
                </g>
                <g id="arrowDown" xlink:href="#dirArrow" transform="rotate(180) translate(-30 -48)" onmousedown="handlePan(0,1)">
                  <use xlink:href="#rim" fill="#404040">
                        <set attributeName="fill" to="#808080" begin="arrowDown.mouseover" end="arrowDown.mouseout"/>
                  </use>
                  <path fill="none" stroke="white" stroke-width="1.5" d="M0,-3.0v7 M-2.5,-0.5L0,-3.0L2.5,-0.5"/>
                </g>
                <g id="arrowLeft" xlink:href="#dirArrow" transform="rotate(270) translate(-36 17)" onmousedown="handlePan(-1,0)">
                  <use xlink:href="#rim" fill="#404040">
                        <set attributeName="fill" to="#808080" begin="arrowLeft.mouseover" end="arrowLeft.mouseout"/>
                  </use>
                  <path fill="none" stroke="white" stroke-width="1.5" d="M0,-3.0v7 M-2.5,-0.5L0,-3.0L2.5,-0.5"/>
                </g>
        </g>
        <svg viewBox="0 0 15 15" width="100%" height="30px" preserveAspectRatio="xMaxYMin meet">
         <g id="arrow_out" transform="scale(0.3 0.3)">
          <a xlink:href="classQuantConnect_1_1Time_a4ddb0f529e1af3d182ea19aaf12a4ae7_icgraph_org.svg" target="_base">
           <rect id="button" ry="5" rx="5" y="6" x="6" height="38" width="38"
                fill="#f2f5e9" fill-opacity="0.5" stroke="#606060" stroke-width="1.0"/>
           <path id="arrow"
             d="M 11.500037,31.436501 C 11.940474,20.09759 22.043105,11.32322 32.158766,21.979434 L 37.068811,17.246167 C 37.068811,17.246167 37.088388,32 37.088388,32 L 22.160133,31.978069 C 22.160133,31.978069 26.997745,27.140456 26.997745,27.140456 C 18.528582,18.264221 13.291696,25.230495 11.500037,31.436501 z"
             style="fill:#404040;"/>
          </a>
         </g>
        </svg>
</svg>
