<?xml version="1.0" encoding="UTF-8" standalone="no"?>
<!DOCTYPE svg PUBLIC "-//W3C//DTD SVG 1.1//EN"
 "http://www.w3.org/Graphics/SVG/1.1/DTD/svg11.dtd">
<!-- Generated by graphviz version 2.43.0 (0)
 -->
<!-- Title: QuantConnect.Securities.Positions.PositionGroupBuyingPowerModel.GetPositionGroupBuyingPower Pages: 1 -->
<svg width="724pt" height="122pt"
 viewBox="0.00 0.00 724.00 121.50" xmlns="http://www.w3.org/2000/svg" xmlns:xlink="http://www.w3.org/1999/xlink">
<g id="graph0" class="graph" transform="scale(1 1) rotate(0) translate(4 117.5)">
<title>QuantConnect.Securities.Positions.PositionGroupBuyingPowerModel.GetPositionGroupBuyingPower</title>
<polygon fill="white" stroke="transparent" points="-4,4 -4,-117.5 720,-117.5 720,4 -4,4"/>
<!-- Node1 -->
<g id="node1" class="node">
<title>Node1</title>
<g id="a_node1"><a xlink:title="Gets the buying power available for a position group trade">
<polygon fill="#bfbfbf" stroke="black" points="0,-39 0,-80 229,-80 229,-39 0,-39"/>
<text text-anchor="start" x="8" y="-68" font-family="Helvetica,sans-Serif" font-size="10.00">QuantConnect.Securities.</text>
<text text-anchor="start" x="8" y="-57" font-family="Helvetica,sans-Serif" font-size="10.00">Positions.PositionGroupBuying</text>
<text text-anchor="middle" x="114.5" y="-46" font-family="Helvetica,sans-Serif" font-size="10.00">PowerModel.GetPositionGroupBuyingPower</text>
</a>
</g>
</g>
<!-- Node2 -->
<g id="node2" class="node">
<title>Node2</title>
<g id="a_node2"><a xlink:href="classQuantConnect_1_1Securities_1_1Positions_1_1PositionGroupBuyingPowerModel.html#a45d8931cc09f19c0450c6862339a2320" target="_top" xlink:title="The margin that must be held in order to increase the position by the provided quantity">
<polygon fill="white" stroke="black" points="265,-72 265,-113 486,-113 486,-72 265,-72"/>
<text text-anchor="start" x="273" y="-101" font-family="Helvetica,sans-Serif" font-size="10.00">QuantConnect.Securities.</text>
<text text-anchor="start" x="273" y="-90" font-family="Helvetica,sans-Serif" font-size="10.00">Positions.PositionGroupBuying</text>
<text text-anchor="middle" x="375.5" y="-79" font-family="Helvetica,sans-Serif" font-size="10.00">PowerModel.GetInitialMarginRequirement</text>
</a>
</g>
</g>
<!-- Node1&#45;&gt;Node2 -->
<g id="edge1" class="edge">
<title>Node1&#45;&gt;Node2</title>
<path fill="none" stroke="midnightblue" d="M229.1,-73.97C237.6,-75.06 246.19,-76.15 254.73,-77.24"/>
<polygon fill="midnightblue" stroke="midnightblue" points="254.35,-80.72 264.71,-78.51 255.23,-73.78 254.35,-80.72"/>
</g>
<!-- Node3 -->
<g id="node3" class="node">
<title>Node3</title>
<g id="a_node3"><a xlink:href="classQuantConnect_1_1Securities_1_1Positions_1_1PositionGroupBuyingPowerModel.html#a9306785e8b001829233b64cd9a6d3d1e" target="_top" xlink:title="Computes the amount of buying power reserved by the provided position group">
<polygon fill="white" stroke="black" points="265,-0.5 265,-52.5 486,-52.5 486,-0.5 265,-0.5"/>
<text text-anchor="start" x="273" y="-40.5" font-family="Helvetica,sans-Serif" font-size="10.00">QuantConnect.Securities.</text>
<text text-anchor="start" x="273" y="-29.5" font-family="Helvetica,sans-Serif" font-size="10.00">Positions.PositionGroupBuying</text>
<text text-anchor="start" x="273" y="-18.5" font-family="Helvetica,sans-Serif" font-size="10.00">PowerModel.GetReservedBuyingPowerFor</text>
<text text-anchor="middle" x="375.5" y="-7.5" font-family="Helvetica,sans-Serif" font-size="10.00">PositionGroup</text>
</a>
</g>
</g>
<!-- Node1&#45;&gt;Node3 -->
<g id="edge2" class="edge">
<title>Node1&#45;&gt;Node3</title>
<path fill="none" stroke="midnightblue" d="M229.1,-45.03C237.6,-43.94 246.19,-42.85 254.73,-41.76"/>
<polygon fill="midnightblue" stroke="midnightblue" points="255.23,-45.22 264.71,-40.49 254.35,-38.28 255.23,-45.22"/>
</g>
<!-- Node4 -->
<g id="node4" class="node">
<title>Node4</title>
<g id="a_node4"><a xlink:href="classQuantConnect_1_1Securities_1_1Positions_1_1PositionGroupBuyingPowerModel.html#aa57ef304761075bc00ed73b068d9e131" target="_top" xlink:title="Gets the margin currently allocated to the specified holding">
<polygon fill="white" stroke="black" points="522,-6 522,-47 716,-47 716,-6 522,-6"/>
<text text-anchor="start" x="530" y="-35" font-family="Helvetica,sans-Serif" font-size="10.00">QuantConnect.Securities.</text>
<text text-anchor="start" x="530" y="-24" font-family="Helvetica,sans-Serif" font-size="10.00">Positions.PositionGroupBuying</text>
<text text-anchor="middle" x="619" y="-13" font-family="Helvetica,sans-Serif" font-size="10.00">PowerModel.GetMaintenanceMargin</text>
</a>
</g>
</g>
<!-- Node3&#45;&gt;Node4 -->
<g id="edge3" class="edge">
<title>Node3&#45;&gt;Node4</title>
<path fill="none" stroke="midnightblue" d="M486.3,-26.5C494.71,-26.5 503.2,-26.5 511.59,-26.5"/>
<polygon fill="midnightblue" stroke="midnightblue" points="511.77,-30 521.77,-26.5 511.77,-23 511.77,-30"/>
</g>
</g>
</svg>
