<?xml version="1.0" encoding="UTF-8" standalone="no"?>
<!DOCTYPE svg PUBLIC "-//W3C//DTD SVG 1.1//EN"
 "http://www.w3.org/Graphics/SVG/1.1/DTD/svg11.dtd">
<!-- Generated by graphviz version 2.43.0 (0)
 -->
<!-- Title: QuantConnect.ToolBox.IQFeed.SocketClient Pages: 1 -->
<svg width="605pt" height="232pt"
 viewBox="0.00 0.00 605.00 232.00" xmlns="http://www.w3.org/2000/svg" xmlns:xlink="http://www.w3.org/1999/xlink">
<g id="graph0" class="graph" transform="scale(1 1) rotate(0) translate(4 228)">
<title>QuantConnect.ToolBox.IQFeed.SocketClient</title>
<polygon fill="white" stroke="transparent" points="-4,4 -4,-228 601,-228 601,4 -4,4"/>
<!-- Node1 -->
<g id="node1" class="node">
<title>Node1</title>
<g id="a_node1"><a xlink:title=" ">
<polygon fill="#bfbfbf" stroke="black" points="0,-73.5 0,-103.5 167,-103.5 167,-73.5 0,-73.5"/>
<text text-anchor="start" x="8" y="-91.5" font-family="Helvetica,sans-Serif" font-size="10.00">QuantConnect.ToolBox.IQFeed.</text>
<text text-anchor="middle" x="83.5" y="-80.5" font-family="Helvetica,sans-Serif" font-size="10.00">SocketClient</text>
</a>
</g>
</g>
<!-- Node2 -->
<g id="node2" class="node">
<title>Node2</title>
<g id="a_node2"><a xlink:href="classQuantConnect_1_1ToolBox_1_1IQFeed_1_1IQAdminSocketClient.html" target="_top" xlink:title=" ">
<polygon fill="white" stroke="black" points="203,-177.5 203,-207.5 370,-207.5 370,-177.5 203,-177.5"/>
<text text-anchor="start" x="211" y="-195.5" font-family="Helvetica,sans-Serif" font-size="10.00">QuantConnect.ToolBox.IQFeed.</text>
<text text-anchor="middle" x="286.5" y="-184.5" font-family="Helvetica,sans-Serif" font-size="10.00">IQAdminSocketClient</text>
</a>
</g>
</g>
<!-- Node1&#45;&gt;Node2 -->
<g id="edge1" class="edge">
<title>Node1&#45;&gt;Node2</title>
<path fill="none" stroke="midnightblue" d="M122.65,-108.24C161.52,-128.35 220.94,-159.1 256.24,-177.36"/>
<polygon fill="midnightblue" stroke="midnightblue" points="124.22,-105.11 113.73,-103.62 121,-111.33 124.22,-105.11"/>
</g>
<!-- Node4 -->
<g id="node4" class="node">
<title>Node4</title>
<g id="a_node4"><a xlink:href="classQuantConnect_1_1ToolBox_1_1IQFeed_1_1IQLevel1Client.html" target="_top" xlink:title=" ">
<polygon fill="white" stroke="black" points="203,-98.5 203,-128.5 370,-128.5 370,-98.5 203,-98.5"/>
<text text-anchor="start" x="211" y="-116.5" font-family="Helvetica,sans-Serif" font-size="10.00">QuantConnect.ToolBox.IQFeed.</text>
<text text-anchor="middle" x="286.5" y="-105.5" font-family="Helvetica,sans-Serif" font-size="10.00">IQLevel1Client</text>
</a>
</g>
</g>
<!-- Node1&#45;&gt;Node4 -->
<g id="edge3" class="edge">
<title>Node1&#45;&gt;Node4</title>
<path fill="none" stroke="midnightblue" d="M177.15,-100.02C185.73,-101.09 194.39,-102.17 202.87,-103.22"/>
<polygon fill="midnightblue" stroke="midnightblue" points="177.48,-96.54 167.12,-98.78 176.62,-103.48 177.48,-96.54"/>
</g>
<!-- Node7 -->
<g id="node7" class="node">
<title>Node7</title>
<g id="a_node7"><a xlink:href="classQuantConnect_1_1ToolBox_1_1IQFeed_1_1IQLookupHistorySymbolClient.html" target="_top" xlink:title=" ">
<polygon fill="white" stroke="black" points="203,-49.5 203,-79.5 370,-79.5 370,-49.5 203,-49.5"/>
<text text-anchor="start" x="211" y="-67.5" font-family="Helvetica,sans-Serif" font-size="10.00">QuantConnect.ToolBox.IQFeed.</text>
<text text-anchor="middle" x="286.5" y="-56.5" font-family="Helvetica,sans-Serif" font-size="10.00">IQLookupHistorySymbolClient</text>
</a>
</g>
</g>
<!-- Node1&#45;&gt;Node7 -->
<g id="edge6" class="edge">
<title>Node1&#45;&gt;Node7</title>
<path fill="none" stroke="midnightblue" d="M177.15,-77.44C185.73,-76.41 194.39,-75.38 202.87,-74.37"/>
<polygon fill="midnightblue" stroke="midnightblue" points="176.64,-73.97 167.12,-78.63 177.47,-80.92 176.64,-73.97"/>
</g>
<!-- Node9 -->
<g id="node9" class="node">
<title>Node9</title>
<g id="a_node9"><a xlink:href="classQuantConnect_1_1ToolBox_1_1IQFeed_1_1IQLookupTableClient.html" target="_top" xlink:title=" ">
<polygon fill="white" stroke="black" points="203,-0.5 203,-30.5 370,-30.5 370,-0.5 203,-0.5"/>
<text text-anchor="start" x="211" y="-18.5" font-family="Helvetica,sans-Serif" font-size="10.00">QuantConnect.ToolBox.IQFeed.</text>
<text text-anchor="middle" x="286.5" y="-7.5" font-family="Helvetica,sans-Serif" font-size="10.00">IQLookupTableClient</text>
</a>
</g>
</g>
<!-- Node1&#45;&gt;Node9 -->
<g id="edge8" class="edge">
<title>Node1&#45;&gt;Node9</title>
<path fill="none" stroke="midnightblue" d="M127.3,-69.48C149.63,-59.89 177.54,-48.44 203,-39.5 211.87,-36.39 221.37,-33.35 230.65,-30.55"/>
<polygon fill="midnightblue" stroke="midnightblue" points="125.88,-66.28 118.09,-73.46 128.66,-72.71 125.88,-66.28"/>
</g>
<!-- Node3 -->
<g id="node3" class="node">
<title>Node3</title>
<g id="a_node3"><a xlink:href="classQuantConnect_1_1ToolBox_1_1IQFeed_1_1AdminPort.html" target="_top" xlink:title="Admin class type">
<polygon fill="white" stroke="black" points="418,-193.5 418,-223.5 585,-223.5 585,-193.5 418,-193.5"/>
<text text-anchor="start" x="426" y="-211.5" font-family="Helvetica,sans-Serif" font-size="10.00">QuantConnect.ToolBox.IQFeed.</text>
<text text-anchor="middle" x="501.5" y="-200.5" font-family="Helvetica,sans-Serif" font-size="10.00">AdminPort</text>
</a>
</g>
</g>
<!-- Node2&#45;&gt;Node3 -->
<g id="edge2" class="edge">
<title>Node2&#45;&gt;Node3</title>
<path fill="none" stroke="midnightblue" d="M380.16,-199.46C392.71,-200.4 405.53,-201.37 417.89,-202.29"/>
<polygon fill="midnightblue" stroke="midnightblue" points="380.39,-195.97 370.16,-198.71 379.87,-202.95 380.39,-195.97"/>
</g>
<!-- Node5 -->
<g id="node5" class="node">
<title>Node5</title>
<g id="a_node5"><a xlink:href="classQuantConnect_1_1ToolBox_1_1IQFeed_1_1IQFeedDataQueueUniverseProvider_1_1SymbolFundamentalData.html" target="_top" xlink:title="Private class that helps requesting IQFeed fundamental data">
<polygon fill="white" stroke="black" points="406,-133 406,-174 597,-174 597,-133 406,-133"/>
<text text-anchor="start" x="414" y="-162" font-family="Helvetica,sans-Serif" font-size="10.00">QuantConnect.ToolBox.IQFeed.</text>
<text text-anchor="start" x="414" y="-151" font-family="Helvetica,sans-Serif" font-size="10.00">IQFeedDataQueueUniverseProvider.</text>
<text text-anchor="middle" x="501.5" y="-140" font-family="Helvetica,sans-Serif" font-size="10.00">SymbolFundamentalData</text>
</a>
</g>
</g>
<!-- Node4&#45;&gt;Node5 -->
<g id="edge4" class="edge">
<title>Node4&#45;&gt;Node5</title>
<path fill="none" stroke="midnightblue" d="M377.49,-130.4C386.84,-132.16 396.37,-133.95 405.77,-135.71"/>
<polygon fill="midnightblue" stroke="midnightblue" points="377.89,-126.91 367.42,-128.51 376.6,-133.79 377.89,-126.91"/>
</g>
<!-- Node6 -->
<g id="node6" class="node">
<title>Node6</title>
<g id="a_node6"><a xlink:href="classQuantConnect_1_1ToolBox_1_1IQFeed_1_1Level1Port.html" target="_top" xlink:title="Level 1 Data Request:">
<polygon fill="white" stroke="black" points="418,-83.5 418,-113.5 585,-113.5 585,-83.5 418,-83.5"/>
<text text-anchor="start" x="426" y="-101.5" font-family="Helvetica,sans-Serif" font-size="10.00">QuantConnect.ToolBox.IQFeed.</text>
<text text-anchor="middle" x="501.5" y="-90.5" font-family="Helvetica,sans-Serif" font-size="10.00">Level1Port</text>
</a>
</g>
</g>
<!-- Node4&#45;&gt;Node6 -->
<g id="edge5" class="edge">
<title>Node4&#45;&gt;Node6</title>
<path fill="none" stroke="midnightblue" d="M380.16,-106.97C392.71,-106.09 405.53,-105.19 417.89,-104.32"/>
<polygon fill="midnightblue" stroke="midnightblue" points="379.89,-103.49 370.16,-107.68 380.38,-110.47 379.89,-103.49"/>
</g>
<!-- Node8 -->
<g id="node8" class="node">
<title>Node8</title>
<g id="a_node8"><a xlink:href="classQuantConnect_1_1ToolBox_1_1IQFeed_1_1HistoryPort.html" target="_top" xlink:title=" ">
<polygon fill="white" stroke="black" points="418,-34.5 418,-64.5 585,-64.5 585,-34.5 418,-34.5"/>
<text text-anchor="start" x="426" y="-52.5" font-family="Helvetica,sans-Serif" font-size="10.00">QuantConnect.ToolBox.IQFeed.</text>
<text text-anchor="middle" x="501.5" y="-41.5" font-family="Helvetica,sans-Serif" font-size="10.00">HistoryPort</text>
</a>
</g>
</g>
<!-- Node7&#45;&gt;Node8 -->
<g id="edge7" class="edge">
<title>Node7&#45;&gt;Node8</title>
<path fill="none" stroke="midnightblue" d="M380.16,-57.97C392.71,-57.09 405.53,-56.19 417.89,-55.32"/>
<polygon fill="midnightblue" stroke="midnightblue" points="379.89,-54.49 370.16,-58.68 380.38,-61.47 379.89,-54.49"/>
</g>
</g>
</svg>
