<?xml version="1.0" encoding="UTF-8" standalone="no"?>
<!DOCTYPE svg PUBLIC "-//W3C//DTD SVG 1.1//EN"
 "http://www.w3.org/Graphics/SVG/1.1/DTD/svg11.dtd">
<!-- Generated by graphviz version 2.43.0 (0)
 -->
<!-- Title: QuantConnect.Lean.Engine.Results.BaseResultsHandler.SampleSalesVolume Pages: 1 -->
<!--zoomable 230 -->
<svg id="main" version="1.1" xmlns="http://www.w3.org/2000/svg" xmlns:xlink="http://www.w3.org/1999/xlink" xml:space="preserve" onload="init(evt)">
<style type="text/css"><![CDATA[
.edge:hover path { stroke: red; }
.edge:hover polygon { stroke: red; fill: red; }
]]></style>
<script type="text/javascript"><![CDATA[
var edges = document.getElementsByTagName('g');
if (edges && edges.length) {
  for (var i=0;i<edges.length;i++) {
    if (edges[i].id.substr(0,4)=='edge') {
      edges[i].setAttribute('class','edge');
    }
  }
}
]]></script>
        <defs>
                <circle id="rim" cx="0" cy="0" r="7"/>
                <circle id="rim2" cx="0" cy="0" r="3.5"/>
                <g id="zoomPlus">
                        <use xlink:href="#rim" fill="#404040">
                                <set attributeName="fill" to="#808080" begin="zoomplus.mouseover" end="zoomplus.mouseout"/>
                        </use>
                        <path d="M-4,0h8M0,-4v8" fill="none" stroke="white" stroke-width="1.5" pointer-events="none"/>
                </g>
                <g id="zoomMin">
                        <use xlink:href="#rim" fill="#404040">
                                <set attributeName="fill" to="#808080" begin="zoomminus.mouseover" end="zoomminus.mouseout"/>
                        </use>
                        <path d="M-4,0h8" fill="none" stroke="white" stroke-width="1.5" pointer-events="none"/>
                </g>
                <g id="dirArrow">
                        <path fill="none" stroke="white" stroke-width="1.5" d="M0,-3.0v7 M-2.5,-0.5L0,-3.0L2.5,-0.5"/>
                </g>
               <g id="resetDef">
                       <use xlink:href="#rim2" fill="#404040">
                               <set attributeName="fill" to="#808080" begin="reset.mouseover" end="reset.mouseout"/>
                       </use>
               </g>
        </defs>

<script type="text/javascript">
var viewWidth = 1119;
var viewHeight = 230;
var sectionId = 'dynsection-29';
</script>
<script xlink:href="svgpan.js"/>
<svg id="graph" class="graph">
<g id="viewport">
<title>QuantConnect.Lean.Engine.Results.BaseResultsHandler.SampleSalesVolume</title>
<polygon fill="white" stroke="transparent" points="-4,4 -4,-226 1115,-226 1115,4 -4,4"/>
<!-- Node1 -->
<g id="node1" class="node">
<title>Node1</title>
<g id="a_node1"><a xlink:title="Sample assets sales volume">
<polygon fill="#bfbfbf" stroke="black" points="918,-90.5 918,-131.5 1111,-131.5 1111,-90.5 918,-90.5"/>
<text text-anchor="start" x="926" y="-119.5" font-family="Helvetica,sans-Serif" font-size="10.00">QuantConnect.Lean.Engine.</text>
<text text-anchor="start" x="926" y="-108.5" font-family="Helvetica,sans-Serif" font-size="10.00">Results.BaseResultsHandler.Sample</text>
<text text-anchor="middle" x="1014.5" y="-97.5" font-family="Helvetica,sans-Serif" font-size="10.00">SalesVolume</text>
</a>
</g>
</g>
<!-- Node2 -->
<g id="node2" class="node">
<title>Node2</title>
<g id="a_node2"><a xlink:href="classQuantConnect_1_1Lean_1_1Engine_1_1Results_1_1BaseResultsHandler.html#aa2e1ad39cc891714b6d3bb5da14b7afa" target="_top" xlink:title="Samples portfolio equity, benchmark, and daily performance Called by scheduled event every night at m...">
<polygon fill="white" stroke="black" points="689,-96 689,-126 882,-126 882,-96 689,-96"/>
<text text-anchor="start" x="697" y="-114" font-family="Helvetica,sans-Serif" font-size="10.00">QuantConnect.Lean.Engine.</text>
<text text-anchor="middle" x="785.5" y="-103" font-family="Helvetica,sans-Serif" font-size="10.00">Results.BaseResultsHandler.Sample</text>
</a>
</g>
</g>
<!-- Node1&#45;&gt;Node2 -->
<g id="edge1" class="edge">
<title>Node1&#45;&gt;Node2</title>
<path fill="none" stroke="midnightblue" d="M907.82,-104.26C899.21,-104.23 890.53,-104.25 882,-104.33"/>
<polygon fill="midnightblue" stroke="midnightblue" points="907.87,-107.76 917.89,-104.33 907.91,-100.76 907.87,-107.76"/>
</g>
<!-- Node2&#45;&gt;Node1 -->
<g id="edge12" class="edge">
<title>Node2&#45;&gt;Node1</title>
<path fill="none" stroke="midnightblue" d="M892.07,-117.74C900.68,-117.77 909.35,-117.75 917.89,-117.67"/>
<polygon fill="midnightblue" stroke="midnightblue" points="892.02,-114.24 882,-117.67 891.98,-121.23 892.02,-114.24"/>
</g>
<!-- Node3 -->
<g id="node3" class="node">
<title>Node3</title>
<g id="a_node3"><a xlink:href="classQuantConnect_1_1Lean_1_1Engine_1_1Results_1_1BaseResultsHandler.html#a765a5931719ed6121e36b8bed38945cd" target="_top" xlink:title="Sample the current benchmark performance directly with a time&#45;value pair.">
<polygon fill="white" stroke="black" points="460,-180.5 460,-221.5 653,-221.5 653,-180.5 460,-180.5"/>
<text text-anchor="start" x="468" y="-209.5" font-family="Helvetica,sans-Serif" font-size="10.00">QuantConnect.Lean.Engine.</text>
<text text-anchor="start" x="468" y="-198.5" font-family="Helvetica,sans-Serif" font-size="10.00">Results.BaseResultsHandler.Sample</text>
<text text-anchor="middle" x="556.5" y="-187.5" font-family="Helvetica,sans-Serif" font-size="10.00">Benchmark</text>
</a>
</g>
</g>
<!-- Node2&#45;&gt;Node3 -->
<g id="edge2" class="edge">
<title>Node2&#45;&gt;Node3</title>
<path fill="none" stroke="midnightblue" d="M728.34,-130.14C705.27,-140.27 678.12,-152.36 653,-162 635.96,-168.53 616.84,-174.76 600.2,-180.44"/>
<polygon fill="midnightblue" stroke="midnightblue" points="729.87,-133.29 737.63,-126.07 727.06,-126.88 729.87,-133.29"/>
</g>
<!-- Node4 -->
<g id="node4" class="node">
<title>Node4</title>
<g id="a_node4"><a xlink:href="classQuantConnect_1_1Lean_1_1Engine_1_1Results_1_1BaseResultsHandler.html#ad4341aadd09144100f5b12cd22359740" target="_top" xlink:title="Sample drawdown of equity of the strategy">
<polygon fill="white" stroke="black" points="460,-120.5 460,-161.5 653,-161.5 653,-120.5 460,-120.5"/>
<text text-anchor="start" x="468" y="-149.5" font-family="Helvetica,sans-Serif" font-size="10.00">QuantConnect.Lean.Engine.</text>
<text text-anchor="start" x="468" y="-138.5" font-family="Helvetica,sans-Serif" font-size="10.00">Results.BaseResultsHandler.Sample</text>
<text text-anchor="middle" x="556.5" y="-127.5" font-family="Helvetica,sans-Serif" font-size="10.00">Drawdown</text>
</a>
</g>
</g>
<!-- Node2&#45;&gt;Node4 -->
<g id="edge4" class="edge">
<title>Node2&#45;&gt;Node4</title>
<path fill="none" stroke="midnightblue" d="M678.82,-118.23C670.21,-119.34 661.53,-120.5 653,-121.7"/>
<polygon fill="midnightblue" stroke="midnightblue" points="679.41,-121.68 688.89,-116.96 678.53,-114.74 679.41,-121.68"/>
</g>
<!-- Node5 -->
<g id="node5" class="node">
<title>Node5</title>
<g id="a_node5"><a xlink:href="classQuantConnect_1_1Lean_1_1Engine_1_1Results_1_1BaseResultsHandler.html#a843aa182034944db5b5bd347f830c9bd" target="_top" xlink:title="Sample the current equity of the strategy directly with time&#45;value pair.">
<polygon fill="white" stroke="black" points="460,-60.5 460,-101.5 653,-101.5 653,-60.5 460,-60.5"/>
<text text-anchor="start" x="468" y="-89.5" font-family="Helvetica,sans-Serif" font-size="10.00">QuantConnect.Lean.Engine.</text>
<text text-anchor="start" x="468" y="-78.5" font-family="Helvetica,sans-Serif" font-size="10.00">Results.BaseResultsHandler.Sample</text>
<text text-anchor="middle" x="556.5" y="-67.5" font-family="Helvetica,sans-Serif" font-size="10.00">Equity</text>
</a>
</g>
</g>
<!-- Node2&#45;&gt;Node5 -->
<g id="edge6" class="edge">
<title>Node2&#45;&gt;Node5</title>
<path fill="none" stroke="midnightblue" d="M707.76,-94.43C690.22,-91.79 671.37,-89.22 653.14,-86.97"/>
<polygon fill="midnightblue" stroke="midnightblue" points="707.51,-97.94 717.93,-95.99 708.57,-91.02 707.51,-97.94"/>
</g>
<!-- Node8 -->
<g id="node8" class="node">
<title>Node8</title>
<g id="a_node8"><a xlink:href="classQuantConnect_1_1Lean_1_1Engine_1_1Results_1_1BaseResultsHandler.html#a467c5ebe0c2b5d4de0741dd6c69c5103" target="_top" xlink:title="Sample the current daily performance directly with a time&#45;value pair.">
<polygon fill="white" stroke="black" points="460,-0.5 460,-41.5 653,-41.5 653,-0.5 460,-0.5"/>
<text text-anchor="start" x="468" y="-29.5" font-family="Helvetica,sans-Serif" font-size="10.00">QuantConnect.Lean.Engine.</text>
<text text-anchor="start" x="468" y="-18.5" font-family="Helvetica,sans-Serif" font-size="10.00">Results.BaseResultsHandler.Sample</text>
<text text-anchor="middle" x="556.5" y="-7.5" font-family="Helvetica,sans-Serif" font-size="10.00">Performance</text>
</a>
</g>
</g>
<!-- Node2&#45;&gt;Node8 -->
<g id="edge10" class="edge">
<title>Node2&#45;&gt;Node8</title>
<path fill="none" stroke="midnightblue" d="M757.88,-90.81C731.61,-75.81 690.1,-56.23 653,-42 652.68,-41.88 652.35,-41.75 652.02,-41.63"/>
<polygon fill="midnightblue" stroke="midnightblue" points="756.12,-93.83 766.51,-95.9 759.68,-87.8 756.12,-93.83"/>
</g>
<!-- Node3&#45;&gt;Node2 -->
<g id="edge3" class="edge">
<title>Node3&#45;&gt;Node2</title>
<path fill="none" stroke="midnightblue" d="M661.54,-176.65C701.32,-160.78 743.32,-140.36 766.51,-126.1"/>
<polygon fill="midnightblue" stroke="midnightblue" points="660.06,-173.47 652.02,-180.37 662.61,-179.99 660.06,-173.47"/>
</g>
<!-- Node4&#45;&gt;Node2 -->
<g id="edge5" class="edge">
<title>Node4&#45;&gt;Node2</title>
<path fill="none" stroke="midnightblue" d="M663.16,-133.77C681.81,-131.38 700.74,-128.7 717.93,-126.01"/>
<polygon fill="midnightblue" stroke="midnightblue" points="662.63,-130.31 653.14,-135.03 663.5,-137.26 662.63,-130.31"/>
</g>
<!-- Node5&#45;&gt;Node2 -->
<g id="edge9" class="edge">
<title>Node5&#45;&gt;Node2</title>
<path fill="none" stroke="midnightblue" d="M663.07,-101.69C671.68,-102.86 680.35,-103.98 688.89,-105.04"/>
<polygon fill="midnightblue" stroke="midnightblue" points="663.39,-98.2 653,-100.3 662.43,-105.13 663.39,-98.2"/>
</g>
<!-- Node6 -->
<g id="node6" class="node">
<title>Node6</title>
<g id="a_node6"><a xlink:href="classQuantConnect_1_1Lean_1_1Engine_1_1Results_1_1BacktestingResultHandler.html#af77b814abc9475ada2dca3277aef278e" target="_top" xlink:title="Process the synchronous result events, sampling and message reading. This method is triggered from th...">
<polygon fill="white" stroke="black" points="239,-60.5 239,-101.5 424,-101.5 424,-60.5 239,-60.5"/>
<text text-anchor="start" x="247" y="-89.5" font-family="Helvetica,sans-Serif" font-size="10.00">QuantConnect.Lean.Engine.</text>
<text text-anchor="start" x="247" y="-78.5" font-family="Helvetica,sans-Serif" font-size="10.00">Results.BacktestingResultHandler.</text>
<text text-anchor="middle" x="331.5" y="-67.5" font-family="Helvetica,sans-Serif" font-size="10.00">ProcessSynchronousEvents</text>
</a>
</g>
</g>
<!-- Node5&#45;&gt;Node6 -->
<g id="edge7" class="edge">
<title>Node5&#45;&gt;Node6</title>
<path fill="none" stroke="midnightblue" d="M449.94,-81C441.37,-81 432.76,-81 424.31,-81"/>
<polygon fill="midnightblue" stroke="midnightblue" points="449.96,-84.5 459.96,-81 449.96,-77.5 449.96,-84.5"/>
</g>
<!-- Node7 -->
<g id="node7" class="node">
<title>Node7</title>
<g id="a_node7"><a xlink:href="classQuantConnect_1_1Lean_1_1Engine_1_1Results_1_1BacktestingResultHandler.html#a9e84a017be2f946f4c63bfab39c3a4a1" target="_top" xlink:title="Terminate the result thread and apply any required exit procedures like sending final results.">
<polygon fill="white" stroke="black" points="0,-66 0,-96 203,-96 203,-66 0,-66"/>
<text text-anchor="start" x="8" y="-84" font-family="Helvetica,sans-Serif" font-size="10.00">QuantConnect.Lean.Engine.</text>
<text text-anchor="middle" x="101.5" y="-73" font-family="Helvetica,sans-Serif" font-size="10.00">Results.BacktestingResultHandler.Exit</text>
</a>
</g>
</g>
<!-- Node6&#45;&gt;Node7 -->
<g id="edge8" class="edge">
<title>Node6&#45;&gt;Node7</title>
<path fill="none" stroke="midnightblue" d="M228.49,-81C220.02,-81 211.47,-81 203.02,-81"/>
<polygon fill="midnightblue" stroke="midnightblue" points="228.75,-84.5 238.75,-81 228.75,-77.5 228.75,-84.5"/>
</g>
<!-- Node8&#45;&gt;Node2 -->
<g id="edge11" class="edge">
<title>Node8&#45;&gt;Node2</title>
<path fill="none" stroke="midnightblue" d="M609.79,-44.81C623.93,-49.59 639.16,-54.69 653,-60 681.58,-70.96 712.79,-85.1 737.63,-95.93"/>
<polygon fill="midnightblue" stroke="midnightblue" points="610.79,-41.46 600.2,-41.56 608.54,-48.09 610.79,-41.46"/>
</g>
</g>
</svg>
        <g id="navigator" transform="translate(0 0)" fill="#404254">
                <rect fill="#f2f5e9" fill-opacity="0.5" stroke="#606060" stroke-width=".5" x="0" y="0" width="60" height="60"/>
                <use id="zoomplus" xlink:href="#zoomPlus" x="17" y="9" onmousedown="handleZoom(evt,'in')"/>
                <use id="zoomminus" xlink:href="#zoomMin" x="42" y="9" onmousedown="handleZoom(evt,'out')"/>
                <use id="reset" xlink:href="#resetDef" x="30" y="36" onmousedown="handleReset()"/>
                <g id="arrowUp" xlink:href="#dirArrow" transform="translate(30 24)" onmousedown="handlePan(0,-1)">
                  <use xlink:href="#rim" fill="#404040">
                        <set attributeName="fill" to="#808080" begin="arrowUp.mouseover" end="arrowUp.mouseout"/>
                  </use>
                  <path fill="none" stroke="white" stroke-width="1.5" d="M0,-3.0v7 M-2.5,-0.5L0,-3.0L2.5,-0.5"/>
                </g>
                <g id="arrowRight" xlink:href="#dirArrow" transform="rotate(90) translate(36 -43)" onmousedown="handlePan(1,0)">
                  <use xlink:href="#rim" fill="#404040">
                        <set attributeName="fill" to="#808080" begin="arrowRight.mouseover" end="arrowRight.mouseout"/>
                  </use>
                  <path fill="none" stroke="white" stroke-width="1.5" d="M0,-3.0v7 M-2.5,-0.5L0,-3.0L2.5,-0.5"/>
                </g>
                <g id="arrowDown" xlink:href="#dirArrow" transform="rotate(180) translate(-30 -48)" onmousedown="handlePan(0,1)">
                  <use xlink:href="#rim" fill="#404040">
                        <set attributeName="fill" to="#808080" begin="arrowDown.mouseover" end="arrowDown.mouseout"/>
                  </use>
                  <path fill="none" stroke="white" stroke-width="1.5" d="M0,-3.0v7 M-2.5,-0.5L0,-3.0L2.5,-0.5"/>
                </g>
                <g id="arrowLeft" xlink:href="#dirArrow" transform="rotate(270) translate(-36 17)" onmousedown="handlePan(-1,0)">
                  <use xlink:href="#rim" fill="#404040">
                        <set attributeName="fill" to="#808080" begin="arrowLeft.mouseover" end="arrowLeft.mouseout"/>
                  </use>
                  <path fill="none" stroke="white" stroke-width="1.5" d="M0,-3.0v7 M-2.5,-0.5L0,-3.0L2.5,-0.5"/>
                </g>
        </g>
        <svg viewBox="0 0 15 15" width="100%" height="30px" preserveAspectRatio="xMaxYMin meet">
         <g id="arrow_out" transform="scale(0.3 0.3)">
          <a xlink:href="classQuantConnect_1_1Lean_1_1Engine_1_1Results_1_1BaseResultsHandler_a1f0c128ff05275d192e04c8941e2b8c2_icgraph_org.svg" target="_base">
           <rect id="button" ry="5" rx="5" y="6" x="6" height="38" width="38"
                fill="#f2f5e9" fill-opacity="0.5" stroke="#606060" stroke-width="1.0"/>
           <path id="arrow"
             d="M 11.500037,31.436501 C 11.940474,20.09759 22.043105,11.32322 32.158766,21.979434 L 37.068811,17.246167 C 37.068811,17.246167 37.088388,32 37.088388,32 L 22.160133,31.978069 C 22.160133,31.978069 26.997745,27.140456 26.997745,27.140456 C 18.528582,18.264221 13.291696,25.230495 11.500037,31.436501 z"
             style="fill:#404040;"/>
          </a>
         </g>
        </svg>
</svg>
