<?xml version="1.0" encoding="UTF-8" standalone="no"?>
<!DOCTYPE svg PUBLIC "-//W3C//DTD SVG 1.1//EN"
 "http://www.w3.org/Graphics/SVG/1.1/DTD/svg11.dtd">
<!-- Generated by graphviz version 2.43.0 (0)
 -->
<!-- Title: QuantConnect.Time.GetNumberOfTradeBarsInInterval Pages: 1 -->
<svg width="414pt" height="39pt"
 viewBox="0.00 0.00 414.00 39.00" xmlns="http://www.w3.org/2000/svg" xmlns:xlink="http://www.w3.org/1999/xlink">
<g id="graph0" class="graph" transform="scale(1 1) rotate(0) translate(4 35)">
<title>QuantConnect.Time.GetNumberOfTradeBarsInInterval</title>
<polygon fill="white" stroke="transparent" points="-4,4 -4,-35 410,-35 410,4 -4,4"/>
<!-- Node1 -->
<g id="node1" class="node">
<title>Node1</title>
<g id="a_node1"><a xlink:title="Gets the number of trade bars of the specified barSize &#160;that fit between the start &#160;and end">
<polygon fill="#bfbfbf" stroke="black" points="233,-0.5 233,-30.5 406,-30.5 406,-0.5 233,-0.5"/>
<text text-anchor="start" x="241" y="-18.5" font-family="Helvetica,sans-Serif" font-size="10.00">QuantConnect.Time.GetNumber</text>
<text text-anchor="middle" x="319.5" y="-7.5" font-family="Helvetica,sans-Serif" font-size="10.00">OfTradeBarsInInterval</text>
</a>
</g>
</g>
<!-- Node2 -->
<g id="node2" class="node">
<title>Node2</title>
<g id="a_node2"><a xlink:href="classQuantConnect_1_1Algorithm_1_1Framework_1_1Alphas_1_1Insight.html#a5e139a3ea6818855684c98ab54eaa1e4" target="_top" xlink:title="Computes the insight period from the given generated and close times">
<polygon fill="white" stroke="black" points="0,-0.5 0,-30.5 197,-30.5 197,-0.5 0,-0.5"/>
<text text-anchor="start" x="8" y="-18.5" font-family="Helvetica,sans-Serif" font-size="10.00">QuantConnect.Algorithm.Framework.</text>
<text text-anchor="middle" x="98.5" y="-7.5" font-family="Helvetica,sans-Serif" font-size="10.00">Alphas.Insight.ComputePeriod</text>
</a>
</g>
</g>
<!-- Node1&#45;&gt;Node2 -->
<g id="edge1" class="edge">
<title>Node1&#45;&gt;Node2</title>
<path fill="none" stroke="midnightblue" d="M222.61,-15.5C214.13,-15.5 205.53,-15.5 197.04,-15.5"/>
<polygon fill="midnightblue" stroke="midnightblue" points="222.89,-19 232.89,-15.5 222.89,-12 222.89,-19"/>
</g>
</g>
</svg>
