<?xml version="1.0" encoding="UTF-8" standalone="no"?>
<!DOCTYPE svg PUBLIC "-//W3C//DTD SVG 1.1//EN"
 "http://www.w3.org/Graphics/SVG/1.1/DTD/svg11.dtd">
<!-- Generated by graphviz version 2.43.0 (0)
 -->
<!-- Title: QuantConnect.Lean.Engine.Initializer.GetAlgorithmHandlers Pages: 1 -->
<svg width="1036pt" height="198pt"
 viewBox="0.00 0.00 1036.00 197.50" xmlns="http://www.w3.org/2000/svg" xmlns:xlink="http://www.w3.org/1999/xlink">
<g id="graph0" class="graph" transform="scale(1 1) rotate(0) translate(4 193.5)">
<title>QuantConnect.Lean.Engine.Initializer.GetAlgorithmHandlers</title>
<polygon fill="white" stroke="transparent" points="-4,4 -4,-193.5 1032,-193.5 1032,4 -4,4"/>
<!-- Node1 -->
<g id="node1" class="node">
<title>Node1</title>
<g id="a_node1"><a xlink:title="Get and initializes Algorithm Handler">
<polygon fill="#bfbfbf" stroke="black" points="0,-61 0,-91 173,-91 173,-61 0,-61"/>
<text text-anchor="start" x="8" y="-79" font-family="Helvetica,sans-Serif" font-size="10.00">QuantConnect.Lean.Engine.</text>
<text text-anchor="middle" x="86.5" y="-68" font-family="Helvetica,sans-Serif" font-size="10.00">Initializer.GetAlgorithmHandlers</text>
</a>
</g>
</g>
<!-- Node2 -->
<g id="node2" class="node">
<title>Node2</title>
<g id="a_node2"><a xlink:href="classQuantConnect_1_1Lean_1_1Engine_1_1LeanEngineAlgorithmHandlers.html#a9737f33c09743080ebc70bcd06241110" target="_top" xlink:title="Creates a new instance of the LeanEngineAlgorithmHandlers class from the specified composer using typ...">
<polygon fill="white" stroke="black" points="209,-55.5 209,-96.5 401,-96.5 401,-55.5 209,-55.5"/>
<text text-anchor="start" x="217" y="-84.5" font-family="Helvetica,sans-Serif" font-size="10.00">QuantConnect.Lean.Engine.</text>
<text text-anchor="start" x="217" y="-73.5" font-family="Helvetica,sans-Serif" font-size="10.00">LeanEngineAlgorithmHandlers.From</text>
<text text-anchor="middle" x="305" y="-62.5" font-family="Helvetica,sans-Serif" font-size="10.00">Configuration</text>
</a>
</g>
</g>
<!-- Node1&#45;&gt;Node2 -->
<g id="edge1" class="edge">
<title>Node1&#45;&gt;Node2</title>
<path fill="none" stroke="midnightblue" d="M173.07,-76C181.48,-76 190.08,-76 198.66,-76"/>
<polygon fill="midnightblue" stroke="midnightblue" points="198.7,-79.5 208.7,-76 198.7,-72.5 198.7,-79.5"/>
</g>
<!-- Node3 -->
<g id="node3" class="node">
<title>Node3</title>
<g id="a_node3"><a xlink:href="classQuantConnect_1_1Configuration_1_1Config.html#aaabf1286e33a675b2e116f3289981839" target="_top" xlink:title="Get the matching config setting from the file searching for this key.">
<polygon fill="white" stroke="black" points="454,-110 454,-140 611,-140 611,-110 454,-110"/>
<text text-anchor="start" x="462" y="-128" font-family="Helvetica,sans-Serif" font-size="10.00">QuantConnect.Configuration.</text>
<text text-anchor="middle" x="532.5" y="-117" font-family="Helvetica,sans-Serif" font-size="10.00">Config.Get</text>
</a>
</g>
</g>
<!-- Node2&#45;&gt;Node3 -->
<g id="edge2" class="edge">
<title>Node2&#45;&gt;Node3</title>
<path fill="none" stroke="midnightblue" d="M400.65,-96.57C417.82,-100.3 435.56,-104.15 452.23,-107.78"/>
<polygon fill="midnightblue" stroke="midnightblue" points="451.94,-111.29 462.46,-110 453.43,-104.45 451.94,-111.29"/>
</g>
<!-- Node8 -->
<g id="node8" class="node">
<title>Node8</title>
<g id="a_node8"><a xlink:href="classQuantConnect_1_1Configuration_1_1Config.html#a1b3f6bb930cb6c34d2ce7dffcdd2605c" target="_top" xlink:title="Get a boolean value configuration setting by a configuration key.">
<polygon fill="white" stroke="black" points="454,-61 454,-91 611,-91 611,-61 454,-61"/>
<text text-anchor="start" x="462" y="-79" font-family="Helvetica,sans-Serif" font-size="10.00">QuantConnect.Configuration.</text>
<text text-anchor="middle" x="532.5" y="-68" font-family="Helvetica,sans-Serif" font-size="10.00">Config.GetBool</text>
</a>
</g>
</g>
<!-- Node2&#45;&gt;Node8 -->
<g id="edge7" class="edge">
<title>Node2&#45;&gt;Node8</title>
<path fill="none" stroke="midnightblue" d="M401.31,-76C415.43,-76 429.92,-76 443.88,-76"/>
<polygon fill="midnightblue" stroke="midnightblue" points="443.93,-79.5 453.93,-76 443.93,-72.5 443.93,-79.5"/>
</g>
<!-- Node9 -->
<g id="node9" class="node">
<title>Node9</title>
<g id="a_node9"><a xlink:href="classQuantConnect_1_1Lean_1_1Engine_1_1LeanEngineAlgorithmHandlers.html#a801bf25656db04bb546039a17c44c778" target="_top" xlink:title="Initializes a new instance of the LeanEngineAlgorithmHandlers class from the specified handlers">
<polygon fill="white" stroke="black" points="437,-0.5 437,-41.5 628,-41.5 628,-0.5 437,-0.5"/>
<text text-anchor="start" x="445" y="-29.5" font-family="Helvetica,sans-Serif" font-size="10.00">QuantConnect.Lean.Engine.</text>
<text text-anchor="start" x="445" y="-18.5" font-family="Helvetica,sans-Serif" font-size="10.00">LeanEngineAlgorithmHandlers.Lean</text>
<text text-anchor="middle" x="532.5" y="-7.5" font-family="Helvetica,sans-Serif" font-size="10.00">EngineAlgorithmHandlers</text>
</a>
</g>
</g>
<!-- Node2&#45;&gt;Node9 -->
<g id="edge8" class="edge">
<title>Node2&#45;&gt;Node9</title>
<path fill="none" stroke="midnightblue" d="M390.29,-55.44C405.58,-51.71 421.62,-47.8 437.17,-44.01"/>
<polygon fill="midnightblue" stroke="midnightblue" points="438.43,-47.3 447.31,-41.53 436.77,-40.5 438.43,-47.3"/>
</g>
<!-- Node4 -->
<g id="node4" class="node">
<title>Node4</title>
<g id="a_node4"><a xlink:href="classQuantConnect_1_1Configuration_1_1Config.html#a1504ca19b3759d008b090375ddf4ad10" target="_top" xlink:title="Gets the currently selected environment. If sub&#45;environments are defined, they&#39;ll be returned as {env...">
<polygon fill="white" stroke="black" points="674.5,-159 674.5,-189 831.5,-189 831.5,-159 674.5,-159"/>
<text text-anchor="start" x="682.5" y="-177" font-family="Helvetica,sans-Serif" font-size="10.00">QuantConnect.Configuration.</text>
<text text-anchor="middle" x="753" y="-166" font-family="Helvetica,sans-Serif" font-size="10.00">Config.GetEnvironment</text>
</a>
</g>
</g>
<!-- Node3&#45;&gt;Node4 -->
<g id="edge3" class="edge">
<title>Node3&#45;&gt;Node4</title>
<path fill="none" stroke="midnightblue" d="M600.54,-140.03C624.14,-145.33 650.84,-151.31 675.17,-156.77"/>
<polygon fill="midnightblue" stroke="midnightblue" points="674.56,-160.22 685.08,-158.99 676.09,-153.39 674.56,-160.22"/>
</g>
<!-- Node5 -->
<g id="node5" class="node">
<title>Node5</title>
<g id="a_node5"><a xlink:href="classQuantConnect_1_1Configuration_1_1Config.html#a9ed01bc116e8181a7557f3e668f34691" target="_top" xlink:title="Gets the underlying JToken for the specified key">
<polygon fill="white" stroke="black" points="674.5,-110 674.5,-140 831.5,-140 831.5,-110 674.5,-110"/>
<text text-anchor="start" x="682.5" y="-128" font-family="Helvetica,sans-Serif" font-size="10.00">QuantConnect.Configuration.</text>
<text text-anchor="middle" x="753" y="-117" font-family="Helvetica,sans-Serif" font-size="10.00">Config.GetToken</text>
</a>
</g>
</g>
<!-- Node3&#45;&gt;Node5 -->
<g id="edge4" class="edge">
<title>Node3&#45;&gt;Node5</title>
<path fill="none" stroke="midnightblue" d="M611.15,-125C628.27,-125 646.53,-125 664.03,-125"/>
<polygon fill="midnightblue" stroke="midnightblue" points="664.23,-128.5 674.23,-125 664.23,-121.5 664.23,-128.5"/>
</g>
<!-- Node6 -->
<g id="node6" class="node">
<title>Node6</title>
<g id="a_node6"><a xlink:href="classQuantConnect_1_1Logging_1_1Log.html#a4e55477fbc790846b74550a57198cea9" target="_top" xlink:title="Log trace">
<polygon fill="white" stroke="black" points="678,-61 678,-91 828,-91 828,-61 678,-61"/>
<text text-anchor="start" x="686" y="-79" font-family="Helvetica,sans-Serif" font-size="10.00">QuantConnect.Logging.Log.</text>
<text text-anchor="middle" x="753" y="-68" font-family="Helvetica,sans-Serif" font-size="10.00">Trace</text>
</a>
</g>
</g>
<!-- Node3&#45;&gt;Node6 -->
<g id="edge5" class="edge">
<title>Node3&#45;&gt;Node6</title>
<path fill="none" stroke="midnightblue" d="M600.54,-109.97C624.14,-104.67 650.84,-98.69 675.17,-93.23"/>
<polygon fill="midnightblue" stroke="midnightblue" points="676.09,-96.61 685.08,-91.01 674.56,-89.78 676.09,-96.61"/>
</g>
<!-- Node7 -->
<g id="node7" class="node">
<title>Node7</title>
<g id="a_node7"><a xlink:href="interfaceQuantConnect_1_1Logging_1_1ILogHandler.html#a3fb71a33ac66129240b63f12b6fcda3b" target="_top" xlink:title="Write debug message to log">
<polygon fill="white" stroke="black" points="878,-61 878,-91 1028,-91 1028,-61 878,-61"/>
<text text-anchor="start" x="886" y="-79" font-family="Helvetica,sans-Serif" font-size="10.00">QuantConnect.Logging.ILog</text>
<text text-anchor="middle" x="953" y="-68" font-family="Helvetica,sans-Serif" font-size="10.00">Handler.Trace</text>
</a>
</g>
</g>
<!-- Node6&#45;&gt;Node7 -->
<g id="edge6" class="edge">
<title>Node6&#45;&gt;Node7</title>
<path fill="none" stroke="midnightblue" d="M828.01,-76C840.96,-76 854.53,-76 867.74,-76"/>
<polygon fill="midnightblue" stroke="midnightblue" points="867.75,-79.5 877.75,-76 867.75,-72.5 867.75,-79.5"/>
</g>
<!-- Node10 -->
<g id="node10" class="node">
<title>Node10</title>
<g id="a_node10"><a xlink:href="classQuantConnect_1_1Data_1_1DataMonitor.html#a2b093a9e2f75233489a1a2a842683340" target="_top" xlink:title="Event handler for the IDataProvider.NewDataRequest event">
<polygon fill="white" stroke="black" points="664,-6 664,-36 842,-36 842,-6 664,-6"/>
<text text-anchor="start" x="672" y="-24" font-family="Helvetica,sans-Serif" font-size="10.00">QuantConnect.Data.DataMonitor.</text>
<text text-anchor="middle" x="753" y="-13" font-family="Helvetica,sans-Serif" font-size="10.00">OnNewDataRequest</text>
</a>
</g>
</g>
<!-- Node9&#45;&gt;Node10 -->
<g id="edge9" class="edge">
<title>Node9&#45;&gt;Node10</title>
<path fill="none" stroke="midnightblue" d="M628.07,-21C636.6,-21 645.27,-21 653.83,-21"/>
<polygon fill="midnightblue" stroke="midnightblue" points="653.84,-24.5 663.84,-21 653.84,-17.5 653.84,-24.5"/>
</g>
</g>
</svg>
