<?xml version="1.0" encoding="UTF-8" standalone="no"?>
<!DOCTYPE svg PUBLIC "-//W3C//DTD SVG 1.1//EN"
 "http://www.w3.org/Graphics/SVG/1.1/DTD/svg11.dtd">
<!-- Generated by graphviz version 2.43.0 (0)
 -->
<!-- Title: QuantConnect.Algorithm.QCAlgorithm.ExerciseOption Pages: 1 -->
<!--zoomable 337 -->
<svg id="main" version="1.1" xmlns="http://www.w3.org/2000/svg" xmlns:xlink="http://www.w3.org/1999/xlink" xml:space="preserve" onload="init(evt)">
<style type="text/css"><![CDATA[
.edge:hover path { stroke: red; }
.edge:hover polygon { stroke: red; fill: red; }
]]></style>
<script type="text/javascript"><![CDATA[
var edges = document.getElementsByTagName('g');
if (edges && edges.length) {
  for (var i=0;i<edges.length;i++) {
    if (edges[i].id.substr(0,4)=='edge') {
      edges[i].setAttribute('class','edge');
    }
  }
}
]]></script>
        <defs>
                <circle id="rim" cx="0" cy="0" r="7"/>
                <circle id="rim2" cx="0" cy="0" r="3.5"/>
                <g id="zoomPlus">
                        <use xlink:href="#rim" fill="#404040">
                                <set attributeName="fill" to="#808080" begin="zoomplus.mouseover" end="zoomplus.mouseout"/>
                        </use>
                        <path d="M-4,0h8M0,-4v8" fill="none" stroke="white" stroke-width="1.5" pointer-events="none"/>
                </g>
                <g id="zoomMin">
                        <use xlink:href="#rim" fill="#404040">
                                <set attributeName="fill" to="#808080" begin="zoomminus.mouseover" end="zoomminus.mouseout"/>
                        </use>
                        <path d="M-4,0h8" fill="none" stroke="white" stroke-width="1.5" pointer-events="none"/>
                </g>
                <g id="dirArrow">
                        <path fill="none" stroke="white" stroke-width="1.5" d="M0,-3.0v7 M-2.5,-0.5L0,-3.0L2.5,-0.5"/>
                </g>
               <g id="resetDef">
                       <use xlink:href="#rim2" fill="#404040">
                               <set attributeName="fill" to="#808080" begin="reset.mouseover" end="reset.mouseout"/>
                       </use>
               </g>
        </defs>

<script type="text/javascript">
var viewWidth = 1079;
var viewHeight = 337;
var sectionId = 'dynsection-380';
</script>
<script xlink:href="svgpan.js"/>
<svg id="graph" class="graph">
<g id="viewport">
<title>QuantConnect.Algorithm.QCAlgorithm.ExerciseOption</title>
<polygon fill="white" stroke="transparent" points="-4,4 -4,-333 1075,-333 1075,4 -4,4"/>
<!-- Node1 -->
<g id="node1" class="node">
<title>Node1</title>
<g id="a_node1"><a xlink:title="Send an exercise order to the transaction handler">
<polygon fill="#bfbfbf" stroke="black" points="0,-140 0,-170 205,-170 205,-140 0,-140"/>
<text text-anchor="start" x="8" y="-158" font-family="Helvetica,sans-Serif" font-size="10.00">QuantConnect.Algorithm.QCAlgorithm.</text>
<text text-anchor="middle" x="102.5" y="-147" font-family="Helvetica,sans-Serif" font-size="10.00">ExerciseOption</text>
</a>
</g>
</g>
<!-- Node2 -->
<g id="node2" class="node">
<title>Node2</title>
<g id="a_node2"><a xlink:href="classQuantConnect_1_1Securities_1_1SecurityTransactionManager.html#a1be0501e49d4cce848dcc123183fed8f" target="_top" xlink:title="Add an order to collection and return the unique order id or negative if an error.">
<polygon fill="white" stroke="black" points="241,-214 241,-244 444,-244 444,-214 241,-214"/>
<text text-anchor="start" x="249" y="-232" font-family="Helvetica,sans-Serif" font-size="10.00">QuantConnect.Securities.</text>
<text text-anchor="middle" x="342.5" y="-221" font-family="Helvetica,sans-Serif" font-size="10.00">SecurityTransactionManager.AddOrder</text>
</a>
</g>
</g>
<!-- Node1&#45;&gt;Node2 -->
<g id="edge1" class="edge">
<title>Node1&#45;&gt;Node2</title>
<path fill="none" stroke="midnightblue" d="M141.34,-170.08C168.74,-180.68 206.82,-194.74 241,-205 248.43,-207.23 256.22,-209.39 264.03,-211.44"/>
<polygon fill="midnightblue" stroke="midnightblue" points="263.36,-214.88 273.91,-213.98 265.1,-208.1 263.36,-214.88"/>
</g>
<!-- Node9 -->
<g id="node9" class="node">
<title>Node9</title>
<g id="a_node9"><a xlink:href="interfaceQuantConnect_1_1Interfaces_1_1IOrderProperties.html#a683b82212fc9f952e098f8eb4e634643" target="_top" xlink:title="Returns a new instance clone of this object">
<polygon fill="white" stroke="black" points="272.5,-165 272.5,-195 412.5,-195 412.5,-165 272.5,-165"/>
<text text-anchor="start" x="280.5" y="-183" font-family="Helvetica,sans-Serif" font-size="10.00">QuantConnect.Interfaces.</text>
<text text-anchor="middle" x="342.5" y="-172" font-family="Helvetica,sans-Serif" font-size="10.00">IOrderProperties.Clone</text>
</a>
</g>
</g>
<!-- Node1&#45;&gt;Node9 -->
<g id="edge8" class="edge">
<title>Node1&#45;&gt;Node9</title>
<path fill="none" stroke="midnightblue" d="M205.12,-165.67C224.21,-167.68 243.9,-169.75 262.18,-171.67"/>
<polygon fill="midnightblue" stroke="midnightblue" points="261.86,-175.15 272.17,-172.72 262.59,-168.19 261.86,-175.15"/>
</g>
<!-- Node10 -->
<g id="node10" class="node">
<title>Node10</title>
<g id="a_node10"><a xlink:href="classQuantConnect_1_1Orders_1_1OrderTicket.html#a055eae7f324cb8a9a1589b36511d8d8b" target="_top" xlink:title="Creates a new OrderTicket that represents trying to submit a new order that had errors embodied in th...">
<polygon fill="white" stroke="black" points="264.5,-116 264.5,-146 420.5,-146 420.5,-116 264.5,-116"/>
<text text-anchor="start" x="272.5" y="-134" font-family="Helvetica,sans-Serif" font-size="10.00">QuantConnect.Orders.Order</text>
<text text-anchor="middle" x="342.5" y="-123" font-family="Helvetica,sans-Serif" font-size="10.00">Ticket.InvalidSubmitRequest</text>
</a>
</g>
</g>
<!-- Node1&#45;&gt;Node10 -->
<g id="edge9" class="edge">
<title>Node1&#45;&gt;Node10</title>
<path fill="none" stroke="midnightblue" d="M205.12,-144.75C221.4,-143.11 238.11,-141.43 254.02,-139.82"/>
<polygon fill="midnightblue" stroke="midnightblue" points="254.74,-143.27 264.34,-138.78 254.04,-136.3 254.74,-143.27"/>
</g>
<!-- Node13 -->
<g id="node13" class="node">
<title>Node13</title>
<g id="a_node13"><a xlink:href="classQuantConnect_1_1Securities_1_1SecurityTransactionManager.html#a40e8a75a6dcac71544bc9a88037cca5d" target="_top" xlink:title="Wait for a specific order to be either Filled, Invalid or Canceled">
<polygon fill="white" stroke="black" points="253,-55.5 253,-96.5 432,-96.5 432,-55.5 253,-55.5"/>
<text text-anchor="start" x="261" y="-84.5" font-family="Helvetica,sans-Serif" font-size="10.00">QuantConnect.Securities.</text>
<text text-anchor="start" x="261" y="-73.5" font-family="Helvetica,sans-Serif" font-size="10.00">SecurityTransactionManager.Wait</text>
<text text-anchor="middle" x="342.5" y="-62.5" font-family="Helvetica,sans-Serif" font-size="10.00">ForOrder</text>
</a>
</g>
</g>
<!-- Node1&#45;&gt;Node13 -->
<g id="edge12" class="edge">
<title>Node1&#45;&gt;Node13</title>
<path fill="none" stroke="midnightblue" d="M145.49,-139.89C172.65,-130.23 208.81,-117.58 241,-107 248.52,-104.53 256.38,-102 264.24,-99.52"/>
<polygon fill="midnightblue" stroke="midnightblue" points="265.33,-102.84 273.82,-96.51 263.23,-96.17 265.33,-102.84"/>
</g>
<!-- Node3 -->
<g id="node3" class="node">
<title>Node3</title>
<g id="a_node3"><a xlink:href="classQuantConnect_1_1Securities_1_1SecurityTransactionManager.html#a136cdc31b644e087e48f4f986e8c064b" target="_top" xlink:title="Processes the order request">
<polygon fill="white" stroke="black" points="480,-208.5 480,-249.5 674,-249.5 674,-208.5 480,-208.5"/>
<text text-anchor="start" x="488" y="-237.5" font-family="Helvetica,sans-Serif" font-size="10.00">QuantConnect.Securities.</text>
<text text-anchor="start" x="488" y="-226.5" font-family="Helvetica,sans-Serif" font-size="10.00">SecurityTransactionManager.Process</text>
<text text-anchor="middle" x="577" y="-215.5" font-family="Helvetica,sans-Serif" font-size="10.00">Request</text>
</a>
</g>
</g>
<!-- Node2&#45;&gt;Node3 -->
<g id="edge2" class="edge">
<title>Node2&#45;&gt;Node3</title>
<path fill="none" stroke="midnightblue" d="M444.13,-229C452.68,-229 461.35,-229 469.95,-229"/>
<polygon fill="midnightblue" stroke="midnightblue" points="470,-232.5 480,-229 470,-225.5 470,-232.5"/>
</g>
<!-- Node4 -->
<g id="node4" class="node">
<title>Node4</title>
<g id="a_node4"><a xlink:href="classQuantConnect_1_1Securities_1_1SecurityTransactionManager.html#a470623a731aa5e8e241518af157c9ffe" target="_top" xlink:title="Get a new order id, and increment the internal counter.">
<polygon fill="white" stroke="black" points="710,-287.5 710,-328.5 884,-328.5 884,-287.5 710,-287.5"/>
<text text-anchor="start" x="718" y="-316.5" font-family="Helvetica,sans-Serif" font-size="10.00">QuantConnect.Securities.</text>
<text text-anchor="start" x="718" y="-305.5" font-family="Helvetica,sans-Serif" font-size="10.00">SecurityTransactionManager.Get</text>
<text text-anchor="middle" x="797" y="-294.5" font-family="Helvetica,sans-Serif" font-size="10.00">IncrementOrderId</text>
</a>
</g>
</g>
<!-- Node3&#45;&gt;Node4 -->
<g id="edge3" class="edge">
<title>Node3&#45;&gt;Node4</title>
<path fill="none" stroke="midnightblue" d="M632.5,-249.51C656.26,-258.38 684.47,-268.81 710,-278 715.53,-279.99 721.26,-282.03 727.03,-284.08"/>
<polygon fill="midnightblue" stroke="midnightblue" points="726.13,-287.47 736.73,-287.5 728.46,-280.87 726.13,-287.47"/>
</g>
<!-- Node5 -->
<g id="node5" class="node">
<title>Node5</title>
<g id="a_node5"><a xlink:href="interfaceQuantConnect_1_1Securities_1_1IOrderProcessor.html#a153e85c4defb70ea096de8e35c340f4e" target="_top" xlink:title="Adds the specified order to be processed">
<polygon fill="white" stroke="black" points="727,-238 727,-268 867,-268 867,-238 727,-238"/>
<text text-anchor="start" x="735" y="-256" font-family="Helvetica,sans-Serif" font-size="10.00">QuantConnect.Securities.</text>
<text text-anchor="middle" x="797" y="-245" font-family="Helvetica,sans-Serif" font-size="10.00">IOrderProcessor.Process</text>
</a>
</g>
</g>
<!-- Node3&#45;&gt;Node5 -->
<g id="edge4" class="edge">
<title>Node3&#45;&gt;Node5</title>
<path fill="none" stroke="midnightblue" d="M674.25,-239.6C688.34,-241.15 702.72,-242.73 716.42,-244.24"/>
<polygon fill="midnightblue" stroke="midnightblue" points="716.43,-247.76 726.76,-245.38 717.2,-240.8 716.43,-247.76"/>
</g>
<!-- Node6 -->
<g id="node6" class="node">
<title>Node6</title>
<g id="a_node6"><a xlink:href="classQuantConnect_1_1Orders_1_1OrderResponse.html#aee85b2e31d5c1887ec0cfa15568777c9" target="_top" xlink:title="Returns a string that represents the current object.">
<polygon fill="white" stroke="black" points="721.5,-189 721.5,-219 872.5,-219 872.5,-189 721.5,-189"/>
<text text-anchor="start" x="729.5" y="-207" font-family="Helvetica,sans-Serif" font-size="10.00">QuantConnect.Orders.Order</text>
<text text-anchor="middle" x="797" y="-196" font-family="Helvetica,sans-Serif" font-size="10.00">Response.ToString</text>
</a>
</g>
</g>
<!-- Node3&#45;&gt;Node6 -->
<g id="edge5" class="edge">
<title>Node3&#45;&gt;Node6</title>
<path fill="none" stroke="midnightblue" d="M674.25,-217.96C686.55,-216.55 699.07,-215.12 711.16,-213.73"/>
<polygon fill="midnightblue" stroke="midnightblue" points="711.68,-217.19 721.22,-212.58 710.88,-210.24 711.68,-217.19"/>
</g>
<!-- Node7 -->
<g id="node7" class="node">
<title>Node7</title>
<g id="a_node7"><a xlink:href="classQuantConnect_1_1Orders_1_1OrderResponse.html#af8bdc5b0fd7d8e5929a659099d1d939f" target="_top" xlink:title="Helper method to create an error response due to algorithm still in warmup mode">
<polygon fill="white" stroke="black" points="721.5,-140 721.5,-170 872.5,-170 872.5,-140 721.5,-140"/>
<text text-anchor="start" x="729.5" y="-158" font-family="Helvetica,sans-Serif" font-size="10.00">QuantConnect.Orders.Order</text>
<text text-anchor="middle" x="797" y="-147" font-family="Helvetica,sans-Serif" font-size="10.00">Response.WarmingUp</text>
</a>
</g>
</g>
<!-- Node3&#45;&gt;Node7 -->
<g id="edge6" class="edge">
<title>Node3&#45;&gt;Node7</title>
<path fill="none" stroke="midnightblue" d="M649.04,-208.41C657.54,-205.48 666.02,-202.32 674,-199 690.7,-192.05 693.23,-186.78 710,-180 715.86,-177.63 722.04,-175.38 728.27,-173.27"/>
<polygon fill="midnightblue" stroke="midnightblue" points="729.66,-176.5 738.09,-170.09 727.49,-169.85 729.66,-176.5"/>
</g>
<!-- Node8 -->
<g id="node8" class="node">
<title>Node8</title>
<g id="a_node8"><a xlink:href="classQuantConnect_1_1Orders_1_1OrderResponse.html#a14ded2753785926becc5e7f8e5a02a09" target="_top" xlink:title="Helper method to create an error response from a request">
<polygon fill="white" stroke="black" points="920,-140 920,-170 1071,-170 1071,-140 920,-140"/>
<text text-anchor="start" x="928" y="-158" font-family="Helvetica,sans-Serif" font-size="10.00">QuantConnect.Orders.Order</text>
<text text-anchor="middle" x="995.5" y="-147" font-family="Helvetica,sans-Serif" font-size="10.00">Response.Error</text>
</a>
</g>
</g>
<!-- Node7&#45;&gt;Node8 -->
<g id="edge7" class="edge">
<title>Node7&#45;&gt;Node8</title>
<path fill="none" stroke="midnightblue" d="M872.57,-155C884.7,-155 897.34,-155 909.69,-155"/>
<polygon fill="midnightblue" stroke="midnightblue" points="909.98,-158.5 919.98,-155 909.98,-151.5 909.98,-158.5"/>
</g>
<!-- Node11 -->
<g id="node11" class="node">
<title>Node11</title>
<g id="a_node11"><a xlink:href="classQuantConnect_1_1Orders_1_1OrderTicket.html#a98ce7c56ada5180837251daf129901be" target="_top" xlink:title="Initializes a new instance of the OrderTicket class">
<polygon fill="white" stroke="black" points="501.5,-159 501.5,-189 652.5,-189 652.5,-159 501.5,-159"/>
<text text-anchor="start" x="509.5" y="-177" font-family="Helvetica,sans-Serif" font-size="10.00">QuantConnect.Orders.Order</text>
<text text-anchor="middle" x="577" y="-166" font-family="Helvetica,sans-Serif" font-size="10.00">Ticket.OrderTicket</text>
</a>
</g>
</g>
<!-- Node10&#45;&gt;Node11 -->
<g id="edge10" class="edge">
<title>Node10&#45;&gt;Node11</title>
<path fill="none" stroke="midnightblue" d="M420.6,-145.26C443.28,-149.45 468.22,-154.07 491.35,-158.34"/>
<polygon fill="midnightblue" stroke="midnightblue" points="491.01,-161.84 501.48,-160.22 492.29,-154.96 491.01,-161.84"/>
</g>
<!-- Node12 -->
<g id="node12" class="node">
<title>Node12</title>
<g id="a_node12"><a xlink:href="classQuantConnect_1_1Orders_1_1OrderRequest.html#aed73f8f311c9224866211078cd6caef1" target="_top" xlink:title="Sets the Response for this request">
<polygon fill="white" stroke="black" points="501.5,-110 501.5,-140 652.5,-140 652.5,-110 501.5,-110"/>
<text text-anchor="start" x="509.5" y="-128" font-family="Helvetica,sans-Serif" font-size="10.00">QuantConnect.Orders.Order</text>
<text text-anchor="middle" x="577" y="-117" font-family="Helvetica,sans-Serif" font-size="10.00">Request.SetResponse</text>
</a>
</g>
</g>
<!-- Node10&#45;&gt;Node12 -->
<g id="edge11" class="edge">
<title>Node10&#45;&gt;Node12</title>
<path fill="none" stroke="midnightblue" d="M420.6,-129.01C443.28,-128.43 468.22,-127.78 491.35,-127.18"/>
<polygon fill="midnightblue" stroke="midnightblue" points="491.58,-130.68 501.48,-126.92 491.39,-123.68 491.58,-130.68"/>
</g>
<!-- Node14 -->
<g id="node14" class="node">
<title>Node14</title>
<g id="a_node14"><a xlink:href="classQuantConnect_1_1Logging_1_1Log.html#af0e7955911bc7664b37661b2a303a9e3" target="_top" xlink:title="Log error">
<polygon fill="white" stroke="black" points="502,-61 502,-91 652,-91 652,-61 502,-61"/>
<text text-anchor="start" x="510" y="-79" font-family="Helvetica,sans-Serif" font-size="10.00">QuantConnect.Logging.Log.</text>
<text text-anchor="middle" x="577" y="-68" font-family="Helvetica,sans-Serif" font-size="10.00">Error</text>
</a>
</g>
</g>
<!-- Node13&#45;&gt;Node14 -->
<g id="edge13" class="edge">
<title>Node13&#45;&gt;Node14</title>
<path fill="none" stroke="midnightblue" d="M432.06,-76C451.62,-76 472.29,-76 491.68,-76"/>
<polygon fill="midnightblue" stroke="midnightblue" points="491.69,-79.5 501.69,-76 491.69,-72.5 491.69,-79.5"/>
</g>
<!-- Node16 -->
<g id="node16" class="node">
<title>Node16</title>
<g id="a_node16"><a xlink:href="classQuantConnect_1_1Securities_1_1SecurityTransactionManager.html#ab2d222cc403ed3c9445f691c851dd232" target="_top" xlink:title="Gets the order ticket for the specified order id. Returns null if not found">
<polygon fill="white" stroke="black" points="490,-0.5 490,-41.5 664,-41.5 664,-0.5 490,-0.5"/>
<text text-anchor="start" x="498" y="-29.5" font-family="Helvetica,sans-Serif" font-size="10.00">QuantConnect.Securities.</text>
<text text-anchor="start" x="498" y="-18.5" font-family="Helvetica,sans-Serif" font-size="10.00">SecurityTransactionManager.Get</text>
<text text-anchor="middle" x="577" y="-7.5" font-family="Helvetica,sans-Serif" font-size="10.00">OrderTicket</text>
</a>
</g>
</g>
<!-- Node13&#45;&gt;Node16 -->
<g id="edge15" class="edge">
<title>Node13&#45;&gt;Node16</title>
<path fill="none" stroke="midnightblue" d="M430.41,-55.44C446.53,-51.63 463.47,-47.62 479.85,-43.74"/>
<polygon fill="midnightblue" stroke="midnightblue" points="481.05,-47.06 489.97,-41.35 479.44,-40.25 481.05,-47.06"/>
</g>
<!-- Node15 -->
<g id="node15" class="node">
<title>Node15</title>
<g id="a_node15"><a xlink:href="interfaceQuantConnect_1_1Logging_1_1ILogHandler.html#a35373a0c5d76031fa5ccf5dc39e5c25d" target="_top" xlink:title="Write error message to log">
<polygon fill="white" stroke="black" points="722,-61 722,-91 872,-91 872,-61 722,-61"/>
<text text-anchor="start" x="730" y="-79" font-family="Helvetica,sans-Serif" font-size="10.00">QuantConnect.Logging.ILog</text>
<text text-anchor="middle" x="797" y="-68" font-family="Helvetica,sans-Serif" font-size="10.00">Handler.Error</text>
</a>
</g>
</g>
<!-- Node14&#45;&gt;Node15 -->
<g id="edge14" class="edge">
<title>Node14&#45;&gt;Node15</title>
<path fill="none" stroke="midnightblue" d="M652.11,-76C671.24,-76 691.97,-76 711.59,-76"/>
<polygon fill="midnightblue" stroke="midnightblue" points="711.73,-79.5 721.73,-76 711.73,-72.5 711.73,-79.5"/>
</g>
<!-- Node17 -->
<g id="node17" class="node">
<title>Node17</title>
<g id="a_node17"><a xlink:href="interfaceQuantConnect_1_1Securities_1_1IOrderProvider.html#a299559676284f079d519275b43523a5e" target="_top" xlink:title="Gets the order ticket for the specified order id. Returns null if not found">
<polygon fill="white" stroke="black" points="715.5,-6 715.5,-36 878.5,-36 878.5,-6 715.5,-6"/>
<text text-anchor="start" x="723.5" y="-24" font-family="Helvetica,sans-Serif" font-size="10.00">QuantConnect.Securities.</text>
<text text-anchor="middle" x="797" y="-13" font-family="Helvetica,sans-Serif" font-size="10.00">IOrderProvider.GetOrderTicket</text>
</a>
</g>
</g>
<!-- Node16&#45;&gt;Node17 -->
<g id="edge16" class="edge">
<title>Node16&#45;&gt;Node17</title>
<path fill="none" stroke="midnightblue" d="M664.16,-21C677.63,-21 691.58,-21 705.15,-21"/>
<polygon fill="midnightblue" stroke="midnightblue" points="705.43,-24.5 715.43,-21 705.43,-17.5 705.43,-24.5"/>
</g>
</g>
</svg>
        <g id="navigator" transform="translate(0 0)" fill="#404254">
                <rect fill="#f2f5e9" fill-opacity="0.5" stroke="#606060" stroke-width=".5" x="0" y="0" width="60" height="60"/>
                <use id="zoomplus" xlink:href="#zoomPlus" x="17" y="9" onmousedown="handleZoom(evt,'in')"/>
                <use id="zoomminus" xlink:href="#zoomMin" x="42" y="9" onmousedown="handleZoom(evt,'out')"/>
                <use id="reset" xlink:href="#resetDef" x="30" y="36" onmousedown="handleReset()"/>
                <g id="arrowUp" xlink:href="#dirArrow" transform="translate(30 24)" onmousedown="handlePan(0,-1)">
                  <use xlink:href="#rim" fill="#404040">
                        <set attributeName="fill" to="#808080" begin="arrowUp.mouseover" end="arrowUp.mouseout"/>
                  </use>
                  <path fill="none" stroke="white" stroke-width="1.5" d="M0,-3.0v7 M-2.5,-0.5L0,-3.0L2.5,-0.5"/>
                </g>
                <g id="arrowRight" xlink:href="#dirArrow" transform="rotate(90) translate(36 -43)" onmousedown="handlePan(1,0)">
                  <use xlink:href="#rim" fill="#404040">
                        <set attributeName="fill" to="#808080" begin="arrowRight.mouseover" end="arrowRight.mouseout"/>
                  </use>
                  <path fill="none" stroke="white" stroke-width="1.5" d="M0,-3.0v7 M-2.5,-0.5L0,-3.0L2.5,-0.5"/>
                </g>
                <g id="arrowDown" xlink:href="#dirArrow" transform="rotate(180) translate(-30 -48)" onmousedown="handlePan(0,1)">
                  <use xlink:href="#rim" fill="#404040">
                        <set attributeName="fill" to="#808080" begin="arrowDown.mouseover" end="arrowDown.mouseout"/>
                  </use>
                  <path fill="none" stroke="white" stroke-width="1.5" d="M0,-3.0v7 M-2.5,-0.5L0,-3.0L2.5,-0.5"/>
                </g>
                <g id="arrowLeft" xlink:href="#dirArrow" transform="rotate(270) translate(-36 17)" onmousedown="handlePan(-1,0)">
                  <use xlink:href="#rim" fill="#404040">
                        <set attributeName="fill" to="#808080" begin="arrowLeft.mouseover" end="arrowLeft.mouseout"/>
                  </use>
                  <path fill="none" stroke="white" stroke-width="1.5" d="M0,-3.0v7 M-2.5,-0.5L0,-3.0L2.5,-0.5"/>
                </g>
        </g>
        <svg viewBox="0 0 15 15" width="100%" height="30px" preserveAspectRatio="xMaxYMin meet">
         <g id="arrow_out" transform="scale(0.3 0.3)">
          <a xlink:href="classQuantConnect_1_1Algorithm_1_1QCAlgorithm_a11352466438b0832f09b224722815e72_cgraph_org.svg" target="_base">
           <rect id="button" ry="5" rx="5" y="6" x="6" height="38" width="38"
                fill="#f2f5e9" fill-opacity="0.5" stroke="#606060" stroke-width="1.0"/>
           <path id="arrow"
             d="M 11.500037,31.436501 C 11.940474,20.09759 22.043105,11.32322 32.158766,21.979434 L 37.068811,17.246167 C 37.068811,17.246167 37.088388,32 37.088388,32 L 22.160133,31.978069 C 22.160133,31.978069 26.997745,27.140456 26.997745,27.140456 C 18.528582,18.264221 13.291696,25.230495 11.500037,31.436501 z"
             style="fill:#404040;"/>
          </a>
         </g>
        </svg>
</svg>
