<?xml version="1.0" encoding="UTF-8" standalone="no"?>
<!DOCTYPE svg PUBLIC "-//W3C//DTD SVG 1.1//EN"
 "http://www.w3.org/Graphics/SVG/1.1/DTD/svg11.dtd">
<!-- Generated by graphviz version 2.43.0 (0)
 -->
<!-- Title: QuantConnect.ToolBox.IQFeed.IQLevel1Client.Contains Pages: 1 -->
<svg width="417pt" height="39pt"
 viewBox="0.00 0.00 417.00 39.00" xmlns="http://www.w3.org/2000/svg" xmlns:xlink="http://www.w3.org/1999/xlink">
<g id="graph0" class="graph" transform="scale(1 1) rotate(0) translate(4 35)">
<title>QuantConnect.ToolBox.IQFeed.IQLevel1Client.Contains</title>
<polygon fill="white" stroke="transparent" points="-4,4 -4,-35 413,-35 413,4 -4,4"/>
<!-- Node1 -->
<g id="node1" class="node">
<title>Node1</title>
<g id="a_node1"><a xlink:title="Check if the storage contains this symbol">
<polygon fill="#bfbfbf" stroke="black" points="242,-0.5 242,-30.5 409,-30.5 409,-0.5 242,-0.5"/>
<text text-anchor="start" x="250" y="-18.5" font-family="Helvetica,sans-Serif" font-size="10.00">QuantConnect.ToolBox.IQFeed.</text>
<text text-anchor="middle" x="325.5" y="-7.5" font-family="Helvetica,sans-Serif" font-size="10.00">IQLevel1Client.Contains</text>
</a>
</g>
</g>
<!-- Node2 -->
<g id="node2" class="node">
<title>Node2</title>
<g id="a_node2"><a xlink:href="classQuantConnect_1_1ToolBox_1_1IQFeed_1_1IQFeedDataQueueHandler.html#aa937cf9529e0444fe1511201814c102e" target="_top" xlink:title="Removes the specified symbols to the subscription">
<polygon fill="white" stroke="black" points="0,-0.5 0,-30.5 206,-30.5 206,-0.5 0,-0.5"/>
<text text-anchor="start" x="8" y="-18.5" font-family="Helvetica,sans-Serif" font-size="10.00">QuantConnect.ToolBox.IQFeed.</text>
<text text-anchor="middle" x="103" y="-7.5" font-family="Helvetica,sans-Serif" font-size="10.00">IQFeedDataQueueHandler.Unsubscribe</text>
</a>
</g>
</g>
<!-- Node1&#45;&gt;Node2 -->
<g id="edge1" class="edge">
<title>Node1&#45;&gt;Node2</title>
<path fill="none" stroke="midnightblue" d="M231.6,-15.5C223.2,-15.5 214.67,-15.5 206.2,-15.5"/>
<polygon fill="midnightblue" stroke="midnightblue" points="231.77,-19 241.77,-15.5 231.77,-12 231.77,-19"/>
</g>
</g>
</svg>
