<?xml version="1.0" encoding="UTF-8" standalone="no"?>
<!DOCTYPE svg PUBLIC "-//W3C//DTD SVG 1.1//EN"
 "http://www.w3.org/Graphics/SVG/1.1/DTD/svg11.dtd">
<!-- Generated by graphviz version 2.43.0 (0)
 -->
<!-- Title: QuantConnect.Util.LeanData.TryParseSecurityType Pages: 1 -->
<svg width="563pt" height="137pt"
 viewBox="0.00 0.00 563.00 137.00" xmlns="http://www.w3.org/2000/svg" xmlns:xlink="http://www.w3.org/1999/xlink">
<g id="graph0" class="graph" transform="scale(1 1) rotate(0) translate(4 133)">
<title>QuantConnect.Util.LeanData.TryParseSecurityType</title>
<polygon fill="white" stroke="transparent" points="-4,4 -4,-133 559,-133 559,4 -4,4"/>
<!-- Node1 -->
<g id="node1" class="node">
<title>Node1</title>
<g id="a_node1"><a xlink:title="Parses file name into a Security and DateTime">
<polygon fill="#bfbfbf" stroke="black" points="0,-49.5 0,-79.5 158,-79.5 158,-49.5 0,-49.5"/>
<text text-anchor="start" x="8" y="-67.5" font-family="Helvetica,sans-Serif" font-size="10.00">QuantConnect.Util.LeanData.</text>
<text text-anchor="middle" x="79" y="-56.5" font-family="Helvetica,sans-Serif" font-size="10.00">TryParseSecurityType</text>
</a>
</g>
</g>
<!-- Node2 -->
<g id="node2" class="node">
<title>Node2</title>
<g id="a_node2"><a xlink:href="classQuantConnect_1_1Logging_1_1Log.html#af0e7955911bc7664b37661b2a303a9e3" target="_top" xlink:title="Log error">
<polygon fill="white" stroke="black" points="206.5,-98.5 206.5,-128.5 356.5,-128.5 356.5,-98.5 206.5,-98.5"/>
<text text-anchor="start" x="214.5" y="-116.5" font-family="Helvetica,sans-Serif" font-size="10.00">QuantConnect.Logging.Log.</text>
<text text-anchor="middle" x="281.5" y="-105.5" font-family="Helvetica,sans-Serif" font-size="10.00">Error</text>
</a>
</g>
</g>
<!-- Node1&#45;&gt;Node2 -->
<g id="edge1" class="edge">
<title>Node1&#45;&gt;Node2</title>
<path fill="none" stroke="midnightblue" d="M141.52,-79.53C162.88,-84.76 187.02,-90.65 209.11,-96.05"/>
<polygon fill="midnightblue" stroke="midnightblue" points="208.55,-99.52 219.1,-98.49 210.21,-92.72 208.55,-99.52"/>
</g>
<!-- Node4 -->
<g id="node4" class="node">
<title>Node4</title>
<g id="a_node4"><a xlink:href="classQuantConnect_1_1Util_1_1LeanData.html#a2fa1266f0243ee3d323c572c78291184" target="_top" xlink:title="Matches a data path security type with the SecurityType">
<polygon fill="white" stroke="black" points="202.5,-49.5 202.5,-79.5 360.5,-79.5 360.5,-49.5 202.5,-49.5"/>
<text text-anchor="start" x="210.5" y="-67.5" font-family="Helvetica,sans-Serif" font-size="10.00">QuantConnect.Util.LeanData.</text>
<text text-anchor="middle" x="281.5" y="-56.5" font-family="Helvetica,sans-Serif" font-size="10.00">ParseDataSecurityType</text>
</a>
</g>
</g>
<!-- Node1&#45;&gt;Node4 -->
<g id="edge3" class="edge">
<title>Node1&#45;&gt;Node4</title>
<path fill="none" stroke="midnightblue" d="M158.09,-64.5C169.2,-64.5 180.7,-64.5 191.99,-64.5"/>
<polygon fill="midnightblue" stroke="midnightblue" points="192.29,-68 202.29,-64.5 192.29,-61 192.29,-68"/>
</g>
<!-- Node5 -->
<g id="node5" class="node">
<title>Node5</title>
<g id="a_node5"><a xlink:href="classQuantConnect_1_1Market.html#a68544ce4a0cb84a13a0517eeeee94b02" target="_top" xlink:title="Returns a list of the supported markets">
<polygon fill="white" stroke="black" points="194,-0.5 194,-30.5 369,-30.5 369,-0.5 194,-0.5"/>
<text text-anchor="start" x="202" y="-18.5" font-family="Helvetica,sans-Serif" font-size="10.00">QuantConnect.Market.Supported</text>
<text text-anchor="middle" x="281.5" y="-7.5" font-family="Helvetica,sans-Serif" font-size="10.00">Markets</text>
</a>
</g>
</g>
<!-- Node1&#45;&gt;Node5 -->
<g id="edge4" class="edge">
<title>Node1&#45;&gt;Node5</title>
<path fill="none" stroke="midnightblue" d="M141.52,-49.47C162.88,-44.24 187.02,-38.35 209.11,-32.95"/>
<polygon fill="midnightblue" stroke="midnightblue" points="210.21,-36.28 219.1,-30.51 208.55,-29.48 210.21,-36.28"/>
</g>
<!-- Node3 -->
<g id="node3" class="node">
<title>Node3</title>
<g id="a_node3"><a xlink:href="interfaceQuantConnect_1_1Logging_1_1ILogHandler.html#a35373a0c5d76031fa5ccf5dc39e5c25d" target="_top" xlink:title="Write error message to log">
<polygon fill="white" stroke="black" points="405,-98.5 405,-128.5 555,-128.5 555,-98.5 405,-98.5"/>
<text text-anchor="start" x="413" y="-116.5" font-family="Helvetica,sans-Serif" font-size="10.00">QuantConnect.Logging.ILog</text>
<text text-anchor="middle" x="480" y="-105.5" font-family="Helvetica,sans-Serif" font-size="10.00">Handler.Error</text>
</a>
</g>
</g>
<!-- Node2&#45;&gt;Node3 -->
<g id="edge2" class="edge">
<title>Node2&#45;&gt;Node3</title>
<path fill="none" stroke="midnightblue" d="M356.51,-113.5C368.96,-113.5 381.96,-113.5 394.64,-113.5"/>
<polygon fill="midnightblue" stroke="midnightblue" points="394.73,-117 404.73,-113.5 394.73,-110 394.73,-117"/>
</g>
</g>
</svg>
