<?xml version="1.0" encoding="UTF-8" standalone="no"?>
<!DOCTYPE svg PUBLIC "-//W3C//DTD SVG 1.1//EN"
 "http://www.w3.org/Graphics/SVG/1.1/DTD/svg11.dtd">
<!-- Generated by graphviz version 2.43.0 (0)
 -->
<!-- Title: QuantConnect.SymbolRepresentation.ParseOptionTickerOSI Pages: 1 -->
<svg width="635pt" height="176pt"
 viewBox="0.00 0.00 635.00 175.50" xmlns="http://www.w3.org/2000/svg" xmlns:xlink="http://www.w3.org/1999/xlink">
<g id="graph0" class="graph" transform="scale(1 1) rotate(0) translate(4 171.5)">
<title>QuantConnect.SymbolRepresentation.ParseOptionTickerOSI</title>
<polygon fill="white" stroke="transparent" points="-4,4 -4,-171.5 631,-171.5 631,4 -4,4"/>
<!-- Node1 -->
<g id="node1" class="node">
<title>Node1</title>
<g id="a_node1"><a xlink:title="Parses the specified OSI options ticker into a Symbol object">
<polygon fill="#bfbfbf" stroke="black" points="0,-73.5 0,-103.5 203,-103.5 203,-73.5 0,-73.5"/>
<text text-anchor="start" x="8" y="-91.5" font-family="Helvetica,sans-Serif" font-size="10.00">QuantConnect.SymbolRepresentation.</text>
<text text-anchor="middle" x="101.5" y="-80.5" font-family="Helvetica,sans-Serif" font-size="10.00">ParseOptionTickerOSI</text>
</a>
</g>
</g>
<!-- Node2 -->
<g id="node2" class="node">
<title>Node2</title>
<g id="a_node2"><a xlink:href="classQuantConnect_1_1Parse.html#aac0a89458d90280d2b3b04afa9e197a2" target="_top" xlink:title="Parses the provided value as a decimal using CultureInfo.InvariantCulture">
<polygon fill="white" stroke="black" points="247,-148 247,-167 405,-167 405,-148 247,-148"/>
<text text-anchor="middle" x="326" y="-155" font-family="Helvetica,sans-Serif" font-size="10.00">QuantConnect.Parse.Decimal</text>
</a>
</g>
</g>
<!-- Node1&#45;&gt;Node2 -->
<g id="edge1" class="edge">
<title>Node1&#45;&gt;Node2</title>
<path fill="none" stroke="midnightblue" d="M139.42,-103.55C166.63,-114.26 204.72,-128.48 239,-138.5 247.84,-141.08 257.28,-143.5 266.54,-145.69"/>
<polygon fill="midnightblue" stroke="midnightblue" points="265.97,-149.15 276.5,-147.97 267.53,-142.33 265.97,-149.15"/>
</g>
<!-- Node3 -->
<g id="node3" class="node">
<title>Node3</title>
<g id="a_node3"><a xlink:href="classQuantConnect_1_1SecurityIdentifier.html#a0c21d7880c9fdd260883d11ea0c99a00" target="_top" xlink:title="Helper overload that will search the mapfiles to resolve the first date. This implementation uses the...">
<polygon fill="white" stroke="black" points="239,-98.5 239,-128.5 413,-128.5 413,-98.5 239,-98.5"/>
<text text-anchor="start" x="247" y="-116.5" font-family="Helvetica,sans-Serif" font-size="10.00">QuantConnect.SecurityIdentifier.</text>
<text text-anchor="middle" x="326" y="-105.5" font-family="Helvetica,sans-Serif" font-size="10.00">GenerateEquity</text>
</a>
</g>
</g>
<!-- Node1&#45;&gt;Node3 -->
<g id="edge2" class="edge">
<title>Node1&#45;&gt;Node3</title>
<path fill="none" stroke="midnightblue" d="M203.01,-99.79C211.62,-100.76 220.31,-101.74 228.89,-102.7"/>
<polygon fill="midnightblue" stroke="midnightblue" points="228.55,-106.19 238.88,-103.82 229.33,-99.23 228.55,-106.19"/>
</g>
<!-- Node4 -->
<g id="node4" class="node">
<title>Node4</title>
<g id="a_node4"><a xlink:href="classQuantConnect_1_1SecurityIdentifier.html#ade05a8e57b041ab484cf585be8d05699" target="_top" xlink:title="Generates a new SecurityIdentifier for a INDEX security">
<polygon fill="white" stroke="black" points="239,-49.5 239,-79.5 413,-79.5 413,-49.5 239,-49.5"/>
<text text-anchor="start" x="247" y="-67.5" font-family="Helvetica,sans-Serif" font-size="10.00">QuantConnect.SecurityIdentifier.</text>
<text text-anchor="middle" x="326" y="-56.5" font-family="Helvetica,sans-Serif" font-size="10.00">GenerateIndex</text>
</a>
</g>
</g>
<!-- Node1&#45;&gt;Node4 -->
<g id="edge3" class="edge">
<title>Node1&#45;&gt;Node4</title>
<path fill="none" stroke="midnightblue" d="M203.01,-77.66C211.62,-76.73 220.31,-75.79 228.89,-74.87"/>
<polygon fill="midnightblue" stroke="midnightblue" points="229.31,-78.34 238.88,-73.79 228.56,-71.38 229.31,-78.34"/>
</g>
<!-- Node5 -->
<g id="node5" class="node">
<title>Node5</title>
<g id="a_node5"><a xlink:href="classQuantConnect_1_1SecurityIdentifier.html#a58becf4433a3155807bc4959679ccca7" target="_top" xlink:title="Generates a new SecurityIdentifier for an option">
<polygon fill="white" stroke="black" points="239,-0.5 239,-30.5 413,-30.5 413,-0.5 239,-0.5"/>
<text text-anchor="start" x="247" y="-18.5" font-family="Helvetica,sans-Serif" font-size="10.00">QuantConnect.SecurityIdentifier.</text>
<text text-anchor="middle" x="326" y="-7.5" font-family="Helvetica,sans-Serif" font-size="10.00">GenerateOption</text>
</a>
</g>
</g>
<!-- Node1&#45;&gt;Node5 -->
<g id="edge4" class="edge">
<title>Node1&#45;&gt;Node5</title>
<path fill="none" stroke="midnightblue" d="M143.52,-73.41C170.52,-63.64 206.71,-50.86 239,-40.5 246.39,-38.13 254.17,-35.73 261.9,-33.41"/>
<polygon fill="midnightblue" stroke="midnightblue" points="263.06,-36.72 271.64,-30.51 261.06,-30.01 263.06,-36.72"/>
</g>
<!-- Node6 -->
<g id="node6" class="node">
<title>Node6</title>
<g id="a_node6"><a xlink:href="classQuantConnect_1_1Symbol.html#ae4c4c626fa68f4bc1e67e5ee8d9870fc" target="_top" xlink:title="Determines the SecurityType based on the underlying Symbol&#39;s SecurityType">
<polygon fill="white" stroke="black" points="449,-0.5 449,-30.5 627,-30.5 627,-0.5 449,-0.5"/>
<text text-anchor="start" x="457" y="-18.5" font-family="Helvetica,sans-Serif" font-size="10.00">QuantConnect.Symbol.GetOption</text>
<text text-anchor="middle" x="538" y="-7.5" font-family="Helvetica,sans-Serif" font-size="10.00">TypeFromUnderlying</text>
</a>
</g>
</g>
<!-- Node5&#45;&gt;Node6 -->
<g id="edge5" class="edge">
<title>Node5&#45;&gt;Node6</title>
<path fill="none" stroke="midnightblue" d="M413.02,-15.5C421.49,-15.5 430.13,-15.5 438.7,-15.5"/>
<polygon fill="midnightblue" stroke="midnightblue" points="438.73,-19 448.73,-15.5 438.73,-12 438.73,-19"/>
</g>
</g>
</svg>
