<?xml version="1.0" encoding="UTF-8" standalone="no"?>
<!DOCTYPE svg PUBLIC "-//W3C//DTD SVG 1.1//EN"
 "http://www.w3.org/Graphics/SVG/1.1/DTD/svg11.dtd">
<!-- Generated by graphviz version 2.43.0 (0)
 -->
<!-- Title: QuantConnect.Algorithm.Framework.Alphas.InsightCollection.GetActiveInsights Pages: 1 -->
<svg width="739pt" height="170pt"
 viewBox="0.00 0.00 739.00 170.00" xmlns="http://www.w3.org/2000/svg" xmlns:xlink="http://www.w3.org/1999/xlink">
<g id="graph0" class="graph" transform="scale(1 1) rotate(0) translate(4 166)">
<title>QuantConnect.Algorithm.Framework.Alphas.InsightCollection.GetActiveInsights</title>
<polygon fill="white" stroke="transparent" points="-4,4 -4,-166 735,-166 735,4 -4,4"/>
<!-- Node1 -->
<g id="node1" class="node">
<title>Node1</title>
<g id="a_node1"><a xlink:title="Gets the last generated active insight">
<polygon fill="#bfbfbf" stroke="black" points="507,-66 507,-96 731,-96 731,-66 507,-66"/>
<text text-anchor="start" x="515" y="-84" font-family="Helvetica,sans-Serif" font-size="10.00">QuantConnect.Algorithm.Framework.</text>
<text text-anchor="middle" x="619" y="-73" font-family="Helvetica,sans-Serif" font-size="10.00">Alphas.InsightCollection.GetActiveInsights</text>
</a>
</g>
</g>
<!-- Node2 -->
<g id="node2" class="node">
<title>Node2</title>
<g id="a_node2"><a xlink:href="classQuantConnect_1_1Algorithm_1_1Framework_1_1Portfolio_1_1AccumulativeInsightPortfolioConstructionModel.html#add6a6270b91319ead31f7bf27cc5b123" target="_top" xlink:title="Gets the target insights to calculate a portfolio target percent for">
<polygon fill="white" stroke="black" points="251,-120.5 251,-161.5 453,-161.5 453,-120.5 251,-120.5"/>
<text text-anchor="start" x="259" y="-149.5" font-family="Helvetica,sans-Serif" font-size="10.00">QuantConnect.Algorithm.Framework.</text>
<text text-anchor="start" x="259" y="-138.5" font-family="Helvetica,sans-Serif" font-size="10.00">Portfolio.AccumulativeInsightPortfolio</text>
<text text-anchor="middle" x="352" y="-127.5" font-family="Helvetica,sans-Serif" font-size="10.00">ConstructionModel.GetTargetInsights</text>
</a>
</g>
</g>
<!-- Node1&#45;&gt;Node2 -->
<g id="edge1" class="edge">
<title>Node1&#45;&gt;Node2</title>
<path fill="none" stroke="midnightblue" d="M541.71,-98.27C511.08,-105.21 475.52,-113.26 443.59,-120.49"/>
<polygon fill="midnightblue" stroke="midnightblue" points="542.49,-101.69 551.47,-96.06 540.95,-94.86 542.49,-101.69"/>
</g>
<!-- Node3 -->
<g id="node3" class="node">
<title>Node3</title>
<g id="a_node3"><a xlink:href="classQuantConnect_1_1Algorithm_1_1Framework_1_1Portfolio_1_1PortfolioConstructionModel.html#a31dd8e94b6712caa957268183dbe9969" target="_top" xlink:title="Gets the target insights to calculate a portfolio target percent for">
<polygon fill="white" stroke="black" points="253.5,-60.5 253.5,-101.5 450.5,-101.5 450.5,-60.5 253.5,-60.5"/>
<text text-anchor="start" x="261.5" y="-89.5" font-family="Helvetica,sans-Serif" font-size="10.00">QuantConnect.Algorithm.Framework.</text>
<text text-anchor="start" x="261.5" y="-78.5" font-family="Helvetica,sans-Serif" font-size="10.00">Portfolio.PortfolioConstructionModel.</text>
<text text-anchor="middle" x="352" y="-67.5" font-family="Helvetica,sans-Serif" font-size="10.00">GetTargetInsights</text>
</a>
</g>
</g>
<!-- Node1&#45;&gt;Node3 -->
<g id="edge2" class="edge">
<title>Node1&#45;&gt;Node3</title>
<path fill="none" stroke="midnightblue" d="M496.72,-81C481.37,-81 465.82,-81 450.9,-81"/>
<polygon fill="midnightblue" stroke="midnightblue" points="496.77,-84.5 506.77,-81 496.77,-77.5 496.77,-84.5"/>
</g>
<!-- Node5 -->
<g id="node5" class="node">
<title>Node5</title>
<g id="a_node5"><a xlink:href="classQuantConnect_1_1Algorithm_1_1Framework_1_1Portfolio_1_1BlackLittermanOptimizationPortfolioConstructionModel.html#a3ccbbdc9c49bab59873310db659eaf0a" target="_top" xlink:title="Gets the target insights to calculate a portfolio target percent for">
<polygon fill="white" stroke="black" points="233,-0.5 233,-41.5 471,-41.5 471,-0.5 233,-0.5"/>
<text text-anchor="start" x="241" y="-29.5" font-family="Helvetica,sans-Serif" font-size="10.00">QuantConnect.Algorithm.Framework.</text>
<text text-anchor="start" x="241" y="-18.5" font-family="Helvetica,sans-Serif" font-size="10.00">Portfolio.BlackLittermanOptimization</text>
<text text-anchor="middle" x="352" y="-7.5" font-family="Helvetica,sans-Serif" font-size="10.00">PortfolioConstructionModel.GetTargetInsights</text>
</a>
</g>
</g>
<!-- Node1&#45;&gt;Node5 -->
<g id="edge4" class="edge">
<title>Node1&#45;&gt;Node5</title>
<path fill="none" stroke="midnightblue" d="M541.71,-63.73C511.08,-56.79 475.52,-48.74 443.59,-41.51"/>
<polygon fill="midnightblue" stroke="midnightblue" points="540.95,-67.14 551.47,-65.94 542.49,-60.31 540.95,-67.14"/>
</g>
<!-- Node4 -->
<g id="node4" class="node">
<title>Node4</title>
<g id="a_node4"><a xlink:href="classQuantConnect_1_1Algorithm_1_1Framework_1_1Portfolio_1_1PortfolioConstructionModel.html#aa8b9e58e326811434356b8b918a38d89" target="_top" xlink:title="Create portfolio targets from the specified insights">
<polygon fill="white" stroke="black" points="0,-60.5 0,-101.5 197,-101.5 197,-60.5 0,-60.5"/>
<text text-anchor="start" x="8" y="-89.5" font-family="Helvetica,sans-Serif" font-size="10.00">QuantConnect.Algorithm.Framework.</text>
<text text-anchor="start" x="8" y="-78.5" font-family="Helvetica,sans-Serif" font-size="10.00">Portfolio.PortfolioConstructionModel.</text>
<text text-anchor="middle" x="98.5" y="-67.5" font-family="Helvetica,sans-Serif" font-size="10.00">CreateTargets</text>
</a>
</g>
</g>
<!-- Node3&#45;&gt;Node4 -->
<g id="edge3" class="edge">
<title>Node3&#45;&gt;Node4</title>
<path fill="none" stroke="midnightblue" d="M243.36,-81C227.97,-81 212.22,-81 197.04,-81"/>
<polygon fill="midnightblue" stroke="midnightblue" points="243.4,-84.5 253.4,-81 243.4,-77.5 243.4,-84.5"/>
</g>
</g>
</svg>
