<?xml version="1.0" encoding="UTF-8" standalone="no"?>
<!DOCTYPE svg PUBLIC "-//W3C//DTD SVG 1.1//EN"
 "http://www.w3.org/Graphics/SVG/1.1/DTD/svg11.dtd">
<!-- Generated by graphviz version 2.43.0 (0)
 -->
<!-- Title: QuantConnect.Lean.Engine.Results.BacktestingResultHandler.SetAlgorithm Pages: 1 -->
<svg width="793pt" height="368pt"
 viewBox="0.00 0.00 793.00 367.50" xmlns="http://www.w3.org/2000/svg" xmlns:xlink="http://www.w3.org/1999/xlink">
<g id="graph0" class="graph" transform="scale(1 1) rotate(0) translate(4 363.5)">
<title>QuantConnect.Lean.Engine.Results.BacktestingResultHandler.SetAlgorithm</title>
<polygon fill="white" stroke="transparent" points="-4,4 -4,-363.5 789,-363.5 789,4 -4,4"/>
<!-- Node1 -->
<g id="node1" class="node">
<title>Node1</title>
<g id="a_node1"><a xlink:title="Set the Algorithm instance for ths result.">
<polygon fill="#bfbfbf" stroke="black" points="0,-149 0,-190 185,-190 185,-149 0,-149"/>
<text text-anchor="start" x="8" y="-178" font-family="Helvetica,sans-Serif" font-size="10.00">QuantConnect.Lean.Engine.</text>
<text text-anchor="start" x="8" y="-167" font-family="Helvetica,sans-Serif" font-size="10.00">Results.BacktestingResultHandler.</text>
<text text-anchor="middle" x="92.5" y="-156" font-family="Helvetica,sans-Serif" font-size="10.00">SetAlgorithm</text>
</a>
</g>
</g>
<!-- Node2 -->
<g id="node2" class="node">
<title>Node2</title>
<g id="a_node2"><a xlink:href="classQuantConnect_1_1Lean_1_1Engine_1_1Results_1_1BacktestingResultHandler.html#abc04243d0b122aa3a53d28727e524531" target="_top" xlink:title="Handles updates to the algorithm&#39;s name">
<polygon fill="white" stroke="black" points="221,-318 221,-359 406,-359 406,-318 221,-318"/>
<text text-anchor="start" x="229" y="-347" font-family="Helvetica,sans-Serif" font-size="10.00">QuantConnect.Lean.Engine.</text>
<text text-anchor="start" x="229" y="-336" font-family="Helvetica,sans-Serif" font-size="10.00">Results.BacktestingResultHandler.</text>
<text text-anchor="middle" x="313.5" y="-325" font-family="Helvetica,sans-Serif" font-size="10.00">AlgorithmNameUpdated</text>
</a>
</g>
</g>
<!-- Node1&#45;&gt;Node2 -->
<g id="edge1" class="edge">
<title>Node1&#45;&gt;Node2</title>
<path fill="none" stroke="midnightblue" d="M107.09,-190.03C128.08,-220.2 171.19,-276.38 221,-308.5 223.74,-310.27 226.59,-311.94 229.53,-313.52"/>
<polygon fill="midnightblue" stroke="midnightblue" points="228.02,-316.68 238.54,-317.99 231.14,-310.41 228.02,-316.68"/>
</g>
<!-- Node3 -->
<g id="node3" class="node">
<title>Node3</title>
<g id="a_node3"><a xlink:href="classQuantConnect_1_1Lean_1_1Engine_1_1Results_1_1BacktestingResultHandler.html#aff094e550fb59272051ec4b733e1905c" target="_top" xlink:title="Sends a packet communicating an update to the algorithm&#39;s tags">
<polygon fill="white" stroke="black" points="221,-258 221,-299 406,-299 406,-258 221,-258"/>
<text text-anchor="start" x="229" y="-287" font-family="Helvetica,sans-Serif" font-size="10.00">QuantConnect.Lean.Engine.</text>
<text text-anchor="start" x="229" y="-276" font-family="Helvetica,sans-Serif" font-size="10.00">Results.BacktestingResultHandler.</text>
<text text-anchor="middle" x="313.5" y="-265" font-family="Helvetica,sans-Serif" font-size="10.00">AlgorithmTagsUpdated</text>
</a>
</g>
</g>
<!-- Node1&#45;&gt;Node3 -->
<g id="edge2" class="edge">
<title>Node1&#45;&gt;Node3</title>
<path fill="none" stroke="midnightblue" d="M122.26,-190.09C147.4,-207.4 185.35,-231.9 221,-248.5 225.32,-250.51 229.81,-252.45 234.38,-254.3"/>
<polygon fill="midnightblue" stroke="midnightblue" points="233.26,-257.62 243.85,-257.98 235.8,-251.09 233.26,-257.62"/>
</g>
<!-- Node4 -->
<g id="node4" class="node">
<title>Node4</title>
<g id="a_node4"><a xlink:href="classQuantConnect_1_1Lean_1_1Engine_1_1Results_1_1BacktestingResultHandler.html#a3d67960a346455c56df5a6bc8aca0d9d" target="_top" xlink:title="Configures the Console.Out and Console.Error TextWriter instances. By default, we forward Console....">
<polygon fill="white" stroke="black" points="221,-198 221,-239 406,-239 406,-198 221,-198"/>
<text text-anchor="start" x="229" y="-227" font-family="Helvetica,sans-Serif" font-size="10.00">QuantConnect.Lean.Engine.</text>
<text text-anchor="start" x="229" y="-216" font-family="Helvetica,sans-Serif" font-size="10.00">Results.BacktestingResultHandler.</text>
<text text-anchor="middle" x="313.5" y="-205" font-family="Helvetica,sans-Serif" font-size="10.00">ConfigureConsoleTextWriter</text>
</a>
</g>
</g>
<!-- Node1&#45;&gt;Node4 -->
<g id="edge3" class="edge">
<title>Node1&#45;&gt;Node4</title>
<path fill="none" stroke="midnightblue" d="M185.11,-190C193.71,-191.92 202.46,-193.88 211.14,-195.82"/>
<polygon fill="midnightblue" stroke="midnightblue" points="210.39,-199.24 220.91,-198.01 211.91,-192.41 210.39,-199.24"/>
</g>
<!-- Node10 -->
<g id="node10" class="node">
<title>Node10</title>
<g id="a_node10"><a xlink:href="classQuantConnect_1_1Logging_1_1Log.html#a4e55477fbc790846b74550a57198cea9" target="_top" xlink:title="Log trace">
<polygon fill="white" stroke="black" points="445.5,-130.5 445.5,-160.5 595.5,-160.5 595.5,-130.5 445.5,-130.5"/>
<text text-anchor="start" x="453.5" y="-148.5" font-family="Helvetica,sans-Serif" font-size="10.00">QuantConnect.Logging.Log.</text>
<text text-anchor="middle" x="520.5" y="-137.5" font-family="Helvetica,sans-Serif" font-size="10.00">Trace</text>
</a>
</g>
</g>
<!-- Node1&#45;&gt;Node10 -->
<g id="edge14" class="edge">
<title>Node1&#45;&gt;Node10</title>
<path fill="none" stroke="midnightblue" d="M185.15,-164.34C259.27,-160.16 362.8,-154.33 434.95,-150.26"/>
<polygon fill="midnightblue" stroke="midnightblue" points="435.57,-153.73 445.36,-149.68 435.18,-146.74 435.57,-153.73"/>
</g>
<!-- Node12 -->
<g id="node12" class="node">
<title>Node12</title>
<g id="a_node12"><a xlink:href="classQuantConnect_1_1Currencies.html#a2a7c85f9abe93db2a30c36612098e30e" target="_top" xlink:title="Gets the currency symbol for the specified currency code">
<polygon fill="white" stroke="black" points="242,-110.5 242,-140.5 385,-140.5 385,-110.5 242,-110.5"/>
<text text-anchor="start" x="250" y="-128.5" font-family="Helvetica,sans-Serif" font-size="10.00">QuantConnect.Currencies.</text>
<text text-anchor="middle" x="313.5" y="-117.5" font-family="Helvetica,sans-Serif" font-size="10.00">GetCurrencySymbol</text>
</a>
</g>
</g>
<!-- Node1&#45;&gt;Node12 -->
<g id="edge11" class="edge">
<title>Node1&#45;&gt;Node12</title>
<path fill="none" stroke="midnightblue" d="M185.11,-151.09C200.68,-147.97 216.76,-144.74 232.02,-141.67"/>
<polygon fill="midnightblue" stroke="midnightblue" points="232.8,-145.08 241.92,-139.68 231.42,-138.22 232.8,-145.08"/>
</g>
<!-- Node13 -->
<g id="node13" class="node">
<title>Node13</title>
<g id="a_node13"><a xlink:href="classQuantConnect_1_1Lean_1_1Engine_1_1Results_1_1BacktestingResultHandler.html#accf0e8113c179a68626295dffb5fb3bd" target="_top" xlink:title="Send list of security asset types the algorithm uses to browser.">
<polygon fill="white" stroke="black" points="221,-50 221,-91 406,-91 406,-50 221,-50"/>
<text text-anchor="start" x="229" y="-79" font-family="Helvetica,sans-Serif" font-size="10.00">QuantConnect.Lean.Engine.</text>
<text text-anchor="start" x="229" y="-68" font-family="Helvetica,sans-Serif" font-size="10.00">Results.BacktestingResultHandler.</text>
<text text-anchor="middle" x="313.5" y="-57" font-family="Helvetica,sans-Serif" font-size="10.00">SecurityType</text>
</a>
</g>
</g>
<!-- Node1&#45;&gt;Node13 -->
<g id="edge12" class="edge">
<title>Node1&#45;&gt;Node13</title>
<path fill="none" stroke="midnightblue" d="M127.57,-148.89C152.78,-134.18 188.29,-114.58 221,-100.5 225.68,-98.49 230.54,-96.53 235.47,-94.64"/>
<polygon fill="midnightblue" stroke="midnightblue" points="236.86,-97.85 245.02,-91.09 234.43,-91.29 236.86,-97.85"/>
</g>
<!-- Node14 -->
<g id="node14" class="node">
<title>Node14</title>
<g id="a_node14"><a xlink:href="interfaceQuantConnect_1_1Interfaces_1_1IAlgorithm.html#a62e53d043b4301648e7c61be45b1b33f" target="_top" xlink:title="Sets the statistics service instance to be used by the algorithm">
<polygon fill="white" stroke="black" points="230,-0.5 230,-30.5 397,-30.5 397,-0.5 230,-0.5"/>
<text text-anchor="start" x="238" y="-18.5" font-family="Helvetica,sans-Serif" font-size="10.00">QuantConnect.Interfaces.</text>
<text text-anchor="middle" x="313.5" y="-7.5" font-family="Helvetica,sans-Serif" font-size="10.00">IAlgorithm.SetStatisticsService</text>
</a>
</g>
</g>
<!-- Node1&#45;&gt;Node14 -->
<g id="edge13" class="edge">
<title>Node1&#45;&gt;Node14</title>
<path fill="none" stroke="midnightblue" d="M108.32,-148.75C129.87,-120.1 172.61,-68.79 221,-40.5 224.68,-38.35 228.55,-36.38 232.53,-34.57"/>
<polygon fill="midnightblue" stroke="midnightblue" points="234.1,-37.71 242,-30.65 231.43,-31.24 234.1,-37.71"/>
</g>
<!-- Node5 -->
<g id="node5" class="node">
<title>Node5</title>
<g id="a_node5"><a xlink:href="interfaceQuantConnect_1_1Interfaces_1_1IAlgorithm.html#a63cc959667fa0f4dfd13048a9b7dac94" target="_top" xlink:title="Send debug message">
<polygon fill="white" stroke="black" points="450.5,-326.5 450.5,-356.5 590.5,-356.5 590.5,-326.5 450.5,-326.5"/>
<text text-anchor="start" x="458.5" y="-344.5" font-family="Helvetica,sans-Serif" font-size="10.00">QuantConnect.Interfaces.</text>
<text text-anchor="middle" x="520.5" y="-333.5" font-family="Helvetica,sans-Serif" font-size="10.00">IAlgorithm.Debug</text>
</a>
</g>
</g>
<!-- Node4&#45;&gt;Node5 -->
<g id="edge4" class="edge">
<title>Node4&#45;&gt;Node5</title>
<path fill="none" stroke="midnightblue" d="M392.25,-239.01C397.15,-241.79 401.79,-244.93 406,-248.5 432.38,-270.87 415.44,-295.35 442,-317.5 443.54,-318.79 445.15,-320 446.82,-321.15"/>
<polygon fill="midnightblue" stroke="midnightblue" points="445.18,-324.25 455.56,-326.39 448.78,-318.25 445.18,-324.25"/>
</g>
<!-- Node6 -->
<g id="node6" class="node">
<title>Node6</title>
<g id="a_node6"><a xlink:href="classQuantConnect_1_1Logging_1_1Log.html#af0e7955911bc7664b37661b2a303a9e3" target="_top" xlink:title="Log error">
<polygon fill="white" stroke="black" points="445.5,-277.5 445.5,-307.5 595.5,-307.5 595.5,-277.5 445.5,-277.5"/>
<text text-anchor="start" x="453.5" y="-295.5" font-family="Helvetica,sans-Serif" font-size="10.00">QuantConnect.Logging.Log.</text>
<text text-anchor="middle" x="520.5" y="-284.5" font-family="Helvetica,sans-Serif" font-size="10.00">Error</text>
</a>
</g>
</g>
<!-- Node4&#45;&gt;Node6 -->
<g id="edge5" class="edge">
<title>Node4&#45;&gt;Node6</title>
<path fill="none" stroke="midnightblue" d="M382.01,-239.01C390.18,-241.97 398.34,-245.15 406,-248.5 422.77,-255.83 425.17,-261.31 442,-268.5 446.46,-270.41 451.12,-272.23 455.85,-273.97"/>
<polygon fill="midnightblue" stroke="midnightblue" points="455.02,-277.38 465.61,-277.4 457.34,-270.78 455.02,-277.38"/>
</g>
<!-- Node8 -->
<g id="node8" class="node">
<title>Node8</title>
<g id="a_node8"><a xlink:href="interfaceQuantConnect_1_1Interfaces_1_1IAlgorithm.html#a7b8af1af90d91f0702ae39686c073dce" target="_top" xlink:title="Send an error message for the algorithm">
<polygon fill="white" stroke="black" points="450.5,-228.5 450.5,-258.5 590.5,-258.5 590.5,-228.5 450.5,-228.5"/>
<text text-anchor="start" x="458.5" y="-246.5" font-family="Helvetica,sans-Serif" font-size="10.00">QuantConnect.Interfaces.</text>
<text text-anchor="middle" x="520.5" y="-235.5" font-family="Helvetica,sans-Serif" font-size="10.00">IAlgorithm.Error</text>
</a>
</g>
</g>
<!-- Node4&#45;&gt;Node8 -->
<g id="edge7" class="edge">
<title>Node4&#45;&gt;Node8</title>
<path fill="none" stroke="midnightblue" d="M406.21,-229.68C417.55,-231.07 429.08,-232.47 440.21,-233.83"/>
<polygon fill="midnightblue" stroke="midnightblue" points="439.97,-237.33 450.32,-235.06 440.81,-230.38 439.97,-237.33"/>
</g>
<!-- Node9 -->
<g id="node9" class="node">
<title>Node9</title>
<g id="a_node9"><a xlink:href="classQuantConnect_1_1Configuration_1_1Config.html#a1b3f6bb930cb6c34d2ce7dffcdd2605c" target="_top" xlink:title="Get a boolean value configuration setting by a configuration key.">
<polygon fill="white" stroke="black" points="442,-179.5 442,-209.5 599,-209.5 599,-179.5 442,-179.5"/>
<text text-anchor="start" x="450" y="-197.5" font-family="Helvetica,sans-Serif" font-size="10.00">QuantConnect.Configuration.</text>
<text text-anchor="middle" x="520.5" y="-186.5" font-family="Helvetica,sans-Serif" font-size="10.00">Config.GetBool</text>
</a>
</g>
</g>
<!-- Node4&#45;&gt;Node9 -->
<g id="edge8" class="edge">
<title>Node4&#45;&gt;Node9</title>
<path fill="none" stroke="midnightblue" d="M406.21,-207.76C414.79,-206.76 423.47,-205.74 432.01,-204.74"/>
<polygon fill="midnightblue" stroke="midnightblue" points="432.44,-208.22 441.96,-203.58 431.62,-201.26 432.44,-208.22"/>
</g>
<!-- Node4&#45;&gt;Node10 -->
<g id="edge9" class="edge">
<title>Node4&#45;&gt;Node10</title>
<path fill="none" stroke="midnightblue" d="M368.71,-197.82C380.98,-193.13 393.94,-188.15 406,-183.5 422.02,-177.32 425.79,-175.15 442,-169.5 447.54,-167.57 453.32,-165.63 459.13,-163.74"/>
<polygon fill="midnightblue" stroke="midnightblue" points="460.44,-167 468.89,-160.61 458.3,-160.33 460.44,-167"/>
</g>
<!-- Node7 -->
<g id="node7" class="node">
<title>Node7</title>
<g id="a_node7"><a xlink:href="interfaceQuantConnect_1_1Logging_1_1ILogHandler.html#a35373a0c5d76031fa5ccf5dc39e5c25d" target="_top" xlink:title="Write error message to log">
<polygon fill="white" stroke="black" points="635,-277.5 635,-307.5 785,-307.5 785,-277.5 635,-277.5"/>
<text text-anchor="start" x="643" y="-295.5" font-family="Helvetica,sans-Serif" font-size="10.00">QuantConnect.Logging.ILog</text>
<text text-anchor="middle" x="710" y="-284.5" font-family="Helvetica,sans-Serif" font-size="10.00">Handler.Error</text>
</a>
</g>
</g>
<!-- Node6&#45;&gt;Node7 -->
<g id="edge6" class="edge">
<title>Node6&#45;&gt;Node7</title>
<path fill="none" stroke="midnightblue" d="M595.6,-292.5C605.18,-292.5 615.04,-292.5 624.76,-292.5"/>
<polygon fill="midnightblue" stroke="midnightblue" points="624.82,-296 634.82,-292.5 624.82,-289 624.82,-296"/>
</g>
<!-- Node11 -->
<g id="node11" class="node">
<title>Node11</title>
<g id="a_node11"><a xlink:href="interfaceQuantConnect_1_1Logging_1_1ILogHandler.html#a3fb71a33ac66129240b63f12b6fcda3b" target="_top" xlink:title="Write debug message to log">
<polygon fill="white" stroke="black" points="635,-130.5 635,-160.5 785,-160.5 785,-130.5 635,-130.5"/>
<text text-anchor="start" x="643" y="-148.5" font-family="Helvetica,sans-Serif" font-size="10.00">QuantConnect.Logging.ILog</text>
<text text-anchor="middle" x="710" y="-137.5" font-family="Helvetica,sans-Serif" font-size="10.00">Handler.Trace</text>
</a>
</g>
</g>
<!-- Node10&#45;&gt;Node11 -->
<g id="edge10" class="edge">
<title>Node10&#45;&gt;Node11</title>
<path fill="none" stroke="midnightblue" d="M595.6,-145.5C605.18,-145.5 615.04,-145.5 624.76,-145.5"/>
<polygon fill="midnightblue" stroke="midnightblue" points="624.82,-149 634.82,-145.5 624.82,-142 624.82,-149"/>
</g>
</g>
</svg>
