<?xml version="1.0" encoding="UTF-8" standalone="no"?>
<!DOCTYPE svg PUBLIC "-//W3C//DTD SVG 1.1//EN"
 "http://www.w3.org/Graphics/SVG/1.1/DTD/svg11.dtd">
<!-- Generated by graphviz version 2.43.0 (0)
 -->
<!-- Title: QuantConnect.Orders.OrderSizing.GetOrderSizeForPercentVolume Pages: 1 -->
<svg width="397pt" height="39pt"
 viewBox="0.00 0.00 397.00 39.00" xmlns="http://www.w3.org/2000/svg" xmlns:xlink="http://www.w3.org/1999/xlink">
<g id="graph0" class="graph" transform="scale(1 1) rotate(0) translate(4 35)">
<title>QuantConnect.Orders.OrderSizing.GetOrderSizeForPercentVolume</title>
<polygon fill="white" stroke="transparent" points="-4,4 -4,-35 393,-35 393,4 -4,4"/>
<!-- Node1 -->
<g id="node1" class="node">
<title>Node1</title>
<g id="a_node1"><a xlink:title="Adjust the provided order size to respect maximum order size based on a percentage of current volume.">
<polygon fill="#bfbfbf" stroke="black" points="0,-0.5 0,-30.5 202,-30.5 202,-0.5 0,-0.5"/>
<text text-anchor="start" x="8" y="-18.5" font-family="Helvetica,sans-Serif" font-size="10.00">QuantConnect.Orders.Order</text>
<text text-anchor="middle" x="101" y="-7.5" font-family="Helvetica,sans-Serif" font-size="10.00">Sizing.GetOrderSizeForPercentVolume</text>
</a>
</g>
</g>
<!-- Node2 -->
<g id="node2" class="node">
<title>Node2</title>
<g id="a_node2"><a xlink:href="classQuantConnect_1_1Orders_1_1OrderSizing.html#aef2d6370075548b8f4d8a8dcb15062b7" target="_top" xlink:title="Adjusts the provided order quantity to respect the securities lot size. If the quantity is missing 1M...">
<polygon fill="white" stroke="black" points="238,-0.5 238,-30.5 389,-30.5 389,-0.5 238,-0.5"/>
<text text-anchor="start" x="246" y="-18.5" font-family="Helvetica,sans-Serif" font-size="10.00">QuantConnect.Orders.Order</text>
<text text-anchor="middle" x="313.5" y="-7.5" font-family="Helvetica,sans-Serif" font-size="10.00">Sizing.AdjustByLotSize</text>
</a>
</g>
</g>
<!-- Node1&#45;&gt;Node2 -->
<g id="edge1" class="edge">
<title>Node1&#45;&gt;Node2</title>
<path fill="none" stroke="midnightblue" d="M202.01,-15.5C210.61,-15.5 219.25,-15.5 227.71,-15.5"/>
<polygon fill="midnightblue" stroke="midnightblue" points="227.93,-19 237.93,-15.5 227.93,-12 227.93,-19"/>
</g>
</g>
</svg>
