<?xml version="1.0" encoding="UTF-8" standalone="no"?>
<!DOCTYPE svg PUBLIC "-//W3C//DTD SVG 1.1//EN"
 "http://www.w3.org/Graphics/SVG/1.1/DTD/svg11.dtd">
<!-- Generated by graphviz version 2.43.0 (0)
 -->
<!-- Title: QuantConnect.ToolBox.RandomDataGenerator.TickGenerator.NextOpenInterest Pages: 1 -->
<svg width="704pt" height="50pt"
 viewBox="0.00 0.00 704.00 50.00" xmlns="http://www.w3.org/2000/svg" xmlns:xlink="http://www.w3.org/1999/xlink">
<g id="graph0" class="graph" transform="scale(1 1) rotate(0) translate(4 46)">
<title>QuantConnect.ToolBox.RandomDataGenerator.TickGenerator.NextOpenInterest</title>
<polygon fill="white" stroke="transparent" points="-4,4 -4,-46 700,-46 700,4 -4,4"/>
<!-- Node1 -->
<g id="node1" class="node">
<title>Node1</title>
<g id="a_node1"><a xlink:title="Generates a random Tick that is at most the specified maximumPercentDeviation &#160;away from the previous...">
<polygon fill="#bfbfbf" stroke="black" points="511,-0.5 511,-41.5 696,-41.5 696,-0.5 511,-0.5"/>
<text text-anchor="start" x="519" y="-29.5" font-family="Helvetica,sans-Serif" font-size="10.00">QuantConnect.ToolBox.Random</text>
<text text-anchor="start" x="519" y="-18.5" font-family="Helvetica,sans-Serif" font-size="10.00">DataGenerator.TickGenerator.Next</text>
<text text-anchor="middle" x="603.5" y="-7.5" font-family="Helvetica,sans-Serif" font-size="10.00">OpenInterest</text>
</a>
</g>
</g>
<!-- Node2 -->
<g id="node2" class="node">
<title>Node2</title>
<g id="a_node2"><a xlink:href="classQuantConnect_1_1ToolBox_1_1RandomDataGenerator_1_1TickGenerator.html#add49bca2ace14885762625ceabb135ad" target="_top" xlink:title="Generates a random Tick that is at most the specified maximumPercentDeviation &#160;away from the previous...">
<polygon fill="white" stroke="black" points="269,-6 269,-36 475,-36 475,-6 269,-6"/>
<text text-anchor="start" x="277" y="-24" font-family="Helvetica,sans-Serif" font-size="10.00">QuantConnect.ToolBox.Random</text>
<text text-anchor="middle" x="372" y="-13" font-family="Helvetica,sans-Serif" font-size="10.00">DataGenerator.TickGenerator.NextTick</text>
</a>
</g>
</g>
<!-- Node1&#45;&gt;Node2 -->
<g id="edge1" class="edge">
<title>Node1&#45;&gt;Node2</title>
<path fill="none" stroke="midnightblue" d="M500.56,-21C492.11,-21 483.56,-21 475.11,-21"/>
<polygon fill="midnightblue" stroke="midnightblue" points="500.81,-24.5 510.81,-21 500.81,-17.5 500.81,-24.5"/>
</g>
<!-- Node3 -->
<g id="node3" class="node">
<title>Node3</title>
<g id="a_node3"><a xlink:href="classQuantConnect_1_1ToolBox_1_1RandomDataGenerator_1_1TickGenerator.html#a0b9b8cf4ffe26b9bfd7976671b9e3ddb" target="_top" xlink:title="Generates and enumerates data points for current symbol">
<polygon fill="white" stroke="black" points="0,-6 0,-36 233,-36 233,-6 0,-6"/>
<text text-anchor="start" x="8" y="-24" font-family="Helvetica,sans-Serif" font-size="10.00">QuantConnect.ToolBox.Random</text>
<text text-anchor="middle" x="116.5" y="-13" font-family="Helvetica,sans-Serif" font-size="10.00">DataGenerator.TickGenerator.GenerateTicks</text>
</a>
</g>
</g>
<!-- Node2&#45;&gt;Node3 -->
<g id="edge2" class="edge">
<title>Node2&#45;&gt;Node3</title>
<path fill="none" stroke="midnightblue" d="M258.94,-21C250.34,-21 241.65,-21 233.03,-21"/>
<polygon fill="midnightblue" stroke="midnightblue" points="258.99,-24.5 268.99,-21 258.99,-17.5 258.99,-24.5"/>
</g>
</g>
</svg>
