<?xml version="1.0" encoding="UTF-8" standalone="no"?>
<!DOCTYPE svg PUBLIC "-//W3C//DTD SVG 1.1//EN"
 "http://www.w3.org/Graphics/SVG/1.1/DTD/svg11.dtd">
<!-- Generated by graphviz version 2.43.0 (0)
 -->
<!-- Title: QuantConnect.Securities.UniverseManager.ProcessChanges Pages: 1 -->
<svg width="675pt" height="39pt"
 viewBox="0.00 0.00 675.00 39.00" xmlns="http://www.w3.org/2000/svg" xmlns:xlink="http://www.w3.org/1999/xlink">
<g id="graph0" class="graph" transform="scale(1 1) rotate(0) translate(4 35)">
<title>QuantConnect.Securities.UniverseManager.ProcessChanges</title>
<polygon fill="white" stroke="transparent" points="-4,4 -4,-35 671,-35 671,4 -4,4"/>
<!-- Node1 -->
<g id="node1" class="node">
<title>Node1</title>
<g id="a_node1"><a xlink:title="Will trigger collection changed event if required">
<polygon fill="#bfbfbf" stroke="black" points="482,-0.5 482,-30.5 667,-30.5 667,-0.5 482,-0.5"/>
<text text-anchor="start" x="490" y="-18.5" font-family="Helvetica,sans-Serif" font-size="10.00">QuantConnect.Securities.</text>
<text text-anchor="middle" x="574.5" y="-7.5" font-family="Helvetica,sans-Serif" font-size="10.00">UniverseManager.ProcessChanges</text>
</a>
</g>
</g>
<!-- Node2 -->
<g id="node2" class="node">
<title>Node2</title>
<g id="a_node2"><a xlink:href="classQuantConnect_1_1Algorithm_1_1QCAlgorithm.html#a726d08cd0cd7a6f1b7ce9a912d7d89b1" target="_top" xlink:title="Invoked at the end of every time step. This allows the algorithm to process events before advancing t...">
<polygon fill="white" stroke="black" points="241,-0.5 241,-30.5 446,-30.5 446,-0.5 241,-0.5"/>
<text text-anchor="start" x="249" y="-18.5" font-family="Helvetica,sans-Serif" font-size="10.00">QuantConnect.Algorithm.QCAlgorithm.</text>
<text text-anchor="middle" x="343.5" y="-7.5" font-family="Helvetica,sans-Serif" font-size="10.00">OnEndOfTimeStep</text>
</a>
</g>
</g>
<!-- Node1&#45;&gt;Node2 -->
<g id="edge1" class="edge">
<title>Node1&#45;&gt;Node2</title>
<path fill="none" stroke="midnightblue" d="M471.46,-15.5C463.04,-15.5 454.53,-15.5 446.11,-15.5"/>
<polygon fill="midnightblue" stroke="midnightblue" points="471.68,-19 481.68,-15.5 471.68,-12 471.68,-19"/>
</g>
<!-- Node3 -->
<g id="node3" class="node">
<title>Node3</title>
<g id="a_node3"><a xlink:href="classQuantConnect_1_1Algorithm_1_1QCAlgorithm.html#ad8a5d8d6d6fd62a8a3962f0649567804" target="_top" xlink:title="Called by setup handlers after Initialize and allows the algorithm a chance to organize the data gath...">
<polygon fill="white" stroke="black" points="0,-0.5 0,-30.5 205,-30.5 205,-0.5 0,-0.5"/>
<text text-anchor="start" x="8" y="-18.5" font-family="Helvetica,sans-Serif" font-size="10.00">QuantConnect.Algorithm.QCAlgorithm.</text>
<text text-anchor="middle" x="102.5" y="-7.5" font-family="Helvetica,sans-Serif" font-size="10.00">PostInitialize</text>
</a>
</g>
</g>
<!-- Node2&#45;&gt;Node3 -->
<g id="edge2" class="edge">
<title>Node2&#45;&gt;Node3</title>
<path fill="none" stroke="midnightblue" d="M230.78,-15.5C222.22,-15.5 213.6,-15.5 205.11,-15.5"/>
<polygon fill="midnightblue" stroke="midnightblue" points="230.8,-19 240.8,-15.5 230.8,-12 230.8,-19"/>
</g>
</g>
</svg>
