<?xml version="1.0" encoding="UTF-8" standalone="no"?>
<!DOCTYPE svg PUBLIC "-//W3C//DTD SVG 1.1//EN"
 "http://www.w3.org/Graphics/SVG/1.1/DTD/svg11.dtd">
<!-- Generated by graphviz version 2.43.0 (0)
 -->
<!-- Title: QuantConnect.Data.DataQueueHandlerSubscriptionManager Pages: 1 -->
<svg width="220pt" height="240pt"
 viewBox="0.00 0.00 220.00 240.00" xmlns="http://www.w3.org/2000/svg" xmlns:xlink="http://www.w3.org/1999/xlink">
<g id="graph0" class="graph" transform="scale(1 1) rotate(0) translate(4 236)">
<title>QuantConnect.Data.DataQueueHandlerSubscriptionManager</title>
<polygon fill="white" stroke="transparent" points="-4,4 -4,-236 216,-236 216,4 -4,4"/>
<!-- Node1 -->
<g id="node1" class="node">
<title>Node1</title>
<g id="a_node1"><a xlink:title="Count number of subscribers for each channel (Symbol, Socket) pair">
<polygon fill="#bfbfbf" stroke="black" points="21,-145.5 21,-175.5 191,-175.5 191,-145.5 21,-145.5"/>
<text text-anchor="start" x="29" y="-163.5" font-family="Helvetica,sans-Serif" font-size="10.00">QuantConnect.Data.DataQueue</text>
<text text-anchor="middle" x="106" y="-152.5" font-family="Helvetica,sans-Serif" font-size="10.00">HandlerSubscriptionManager</text>
</a>
</g>
</g>
<!-- Node3 -->
<g id="node3" class="node">
<title>Node3</title>
<g id="a_node3"><a xlink:href="classQuantConnect_1_1Data_1_1EventBasedDataQueueHandlerSubscriptionManager.html" target="_top" xlink:title="Overrides DataQueueHandlerSubscriptionManager methods using events">
<polygon fill="white" stroke="black" points="0,-78.5 0,-108.5 212,-108.5 212,-78.5 0,-78.5"/>
<text text-anchor="start" x="8" y="-96.5" font-family="Helvetica,sans-Serif" font-size="10.00">QuantConnect.Data.EventBased</text>
<text text-anchor="middle" x="106" y="-85.5" font-family="Helvetica,sans-Serif" font-size="10.00">DataQueueHandlerSubscriptionManager</text>
</a>
</g>
</g>
<!-- Node1&#45;&gt;Node3 -->
<g id="edge2" class="edge">
<title>Node1&#45;&gt;Node3</title>
<path fill="none" stroke="midnightblue" d="M106,-135.11C106,-126.15 106,-116.32 106,-108.58"/>
<polygon fill="midnightblue" stroke="midnightblue" points="102.5,-135.4 106,-145.4 109.5,-135.4 102.5,-135.4"/>
</g>
<!-- Node2 -->
<g id="node2" class="node">
<title>Node2</title>
<g id="a_node2"><a xlink:title=" ">
<polygon fill="white" stroke="#bfbfbf" points="69,-212.5 69,-231.5 143,-231.5 143,-212.5 69,-212.5"/>
<text text-anchor="middle" x="106" y="-219.5" font-family="Helvetica,sans-Serif" font-size="10.00">IDisposable</text>
</a>
</g>
</g>
<!-- Node2&#45;&gt;Node1 -->
<g id="edge1" class="edge">
<title>Node2&#45;&gt;Node1</title>
<path fill="none" stroke="midnightblue" d="M106,-202.23C106,-193.59 106,-183.5 106,-175.52"/>
<polygon fill="midnightblue" stroke="midnightblue" points="102.5,-202.48 106,-212.48 109.5,-202.48 102.5,-202.48"/>
</g>
<!-- Node4 -->
<g id="node4" class="node">
<title>Node4</title>
<g id="a_node4"><a xlink:href="classQuantConnect_1_1Brokerages_1_1BrokerageMultiWebSocketSubscriptionManager.html" target="_top" xlink:title="Handles brokerage data subscriptions with multiple websocket connections, with optional symbol weight...">
<polygon fill="white" stroke="black" points="4,-0.5 4,-41.5 208,-41.5 208,-0.5 4,-0.5"/>
<text text-anchor="start" x="12" y="-29.5" font-family="Helvetica,sans-Serif" font-size="10.00">QuantConnect.Brokerages.</text>
<text text-anchor="start" x="12" y="-18.5" font-family="Helvetica,sans-Serif" font-size="10.00">BrokerageMultiWebSocketSubscription</text>
<text text-anchor="middle" x="106" y="-7.5" font-family="Helvetica,sans-Serif" font-size="10.00">Manager</text>
</a>
</g>
</g>
<!-- Node3&#45;&gt;Node4 -->
<g id="edge3" class="edge">
<title>Node3&#45;&gt;Node4</title>
<path fill="none" stroke="midnightblue" d="M106,-67.98C106,-59.35 106,-49.76 106,-41.59"/>
<polygon fill="midnightblue" stroke="midnightblue" points="102.5,-68.23 106,-78.23 109.5,-68.23 102.5,-68.23"/>
</g>
</g>
</svg>
