<?xml version="1.0" encoding="UTF-8" standalone="no"?>
<!DOCTYPE svg PUBLIC "-//W3C//DTD SVG 1.1//EN"
 "http://www.w3.org/Graphics/SVG/1.1/DTD/svg11.dtd">
<!-- Generated by graphviz version 2.43.0 (0)
 -->
<!-- Title: QuantConnect.Securities.Crypto.Crypto.DecomposeCurrencyPair Pages: 1 -->
<!--zoomable 345 -->
<svg id="main" version="1.1" xmlns="http://www.w3.org/2000/svg" xmlns:xlink="http://www.w3.org/1999/xlink" xml:space="preserve" onload="init(evt)">
<style type="text/css"><![CDATA[
.edge:hover path { stroke: red; }
.edge:hover polygon { stroke: red; fill: red; }
]]></style>
<script type="text/javascript"><![CDATA[
var edges = document.getElementsByTagName('g');
if (edges && edges.length) {
  for (var i=0;i<edges.length;i++) {
    if (edges[i].id.substr(0,4)=='edge') {
      edges[i].setAttribute('class','edge');
    }
  }
}
]]></script>
        <defs>
                <circle id="rim" cx="0" cy="0" r="7"/>
                <circle id="rim2" cx="0" cy="0" r="3.5"/>
                <g id="zoomPlus">
                        <use xlink:href="#rim" fill="#404040">
                                <set attributeName="fill" to="#808080" begin="zoomplus.mouseover" end="zoomplus.mouseout"/>
                        </use>
                        <path d="M-4,0h8M0,-4v8" fill="none" stroke="white" stroke-width="1.5" pointer-events="none"/>
                </g>
                <g id="zoomMin">
                        <use xlink:href="#rim" fill="#404040">
                                <set attributeName="fill" to="#808080" begin="zoomminus.mouseover" end="zoomminus.mouseout"/>
                        </use>
                        <path d="M-4,0h8" fill="none" stroke="white" stroke-width="1.5" pointer-events="none"/>
                </g>
                <g id="dirArrow">
                        <path fill="none" stroke="white" stroke-width="1.5" d="M0,-3.0v7 M-2.5,-0.5L0,-3.0L2.5,-0.5"/>
                </g>
               <g id="resetDef">
                       <use xlink:href="#rim2" fill="#404040">
                               <set attributeName="fill" to="#808080" begin="reset.mouseover" end="reset.mouseout"/>
                       </use>
               </g>
        </defs>

<script type="text/javascript">
var viewWidth = 899;
var viewHeight = 345;
var sectionId = 'dynsection-3';
</script>
<script xlink:href="svgpan.js"/>
<svg id="graph" class="graph">
<g id="viewport">
<title>QuantConnect.Securities.Crypto.Crypto.DecomposeCurrencyPair</title>
<polygon fill="white" stroke="transparent" points="-4,4 -4,-341 895,-341 895,4 -4,4"/>
<!-- Node1 -->
<g id="node1" class="node">
<title>Node1</title>
<g id="a_node1"><a xlink:title="Decomposes the specified currency pair into a base and quote currency provided as out parameters">
<polygon fill="#bfbfbf" stroke="black" points="685,-183.5 685,-213.5 891,-213.5 891,-183.5 685,-183.5"/>
<text text-anchor="start" x="693" y="-201.5" font-family="Helvetica,sans-Serif" font-size="10.00">QuantConnect.Securities.</text>
<text text-anchor="middle" x="788" y="-190.5" font-family="Helvetica,sans-Serif" font-size="10.00">Crypto.Crypto.DecomposeCurrencyPair</text>
</a>
</g>
</g>
<!-- Node2 -->
<g id="node2" class="node">
<title>Node2</title>
<g id="a_node2"><a xlink:href="classQuantConnect_1_1Securities_1_1Crypto_1_1Crypto.html#a31e1b0d48440a7fd15d6b1e97743af76" target="_top" xlink:title="Constructor for the Crypto security">
<polygon fill="white" stroke="black" points="492,-208.5 492,-238.5 632,-238.5 632,-208.5 492,-208.5"/>
<text text-anchor="start" x="500" y="-226.5" font-family="Helvetica,sans-Serif" font-size="10.00">QuantConnect.Securities.</text>
<text text-anchor="middle" x="562" y="-215.5" font-family="Helvetica,sans-Serif" font-size="10.00">Crypto.Crypto.Crypto</text>
</a>
</g>
</g>
<!-- Node1&#45;&gt;Node2 -->
<g id="edge1" class="edge">
<title>Node1&#45;&gt;Node2</title>
<path fill="none" stroke="midnightblue" d="M674.75,-211.03C660.17,-212.66 645.59,-214.28 632.01,-215.8"/>
<polygon fill="midnightblue" stroke="midnightblue" points="675.28,-214.49 684.83,-209.9 674.51,-207.53 675.28,-214.49"/>
</g>
<!-- Node3 -->
<g id="node3" class="node">
<title>Node3</title>
<g id="a_node3"><a xlink:href="classQuantConnect_1_1Util_1_1CurrencyPairUtil.html#af097148889729df56066a7f324c558a0" target="_top" xlink:title="Decomposes the specified currency pair into a base and quote currency provided as out parameters">
<polygon fill="white" stroke="black" points="475,-159.5 475,-189.5 649,-189.5 649,-159.5 475,-159.5"/>
<text text-anchor="start" x="483" y="-177.5" font-family="Helvetica,sans-Serif" font-size="10.00">QuantConnect.Util.Currency</text>
<text text-anchor="middle" x="562" y="-166.5" font-family="Helvetica,sans-Serif" font-size="10.00">PairUtil.DecomposeCurrencyPair</text>
</a>
</g>
</g>
<!-- Node1&#45;&gt;Node3 -->
<g id="edge2" class="edge">
<title>Node1&#45;&gt;Node3</title>
<path fill="none" stroke="midnightblue" d="M674.78,-186.48C666.21,-185.56 657.64,-184.64 649.27,-183.74"/>
<polygon fill="midnightblue" stroke="midnightblue" points="674.52,-189.97 684.83,-187.55 675.26,-183.01 674.52,-189.97"/>
</g>
<!-- Node4 -->
<g id="node4" class="node">
<title>Node4</title>
<g id="a_node4"><a xlink:href="classQuantConnect_1_1Util_1_1CurrencyPairUtil.html#a898498a69625bd70a7d3336e0b3a493b" target="_top" xlink:title="You have currencyPair AB and one known symbol (A or B). This function returns the other symbol (B or ...">
<polygon fill="white" stroke="black" points="245,-306.5 245,-336.5 397,-336.5 397,-306.5 245,-306.5"/>
<text text-anchor="start" x="253" y="-324.5" font-family="Helvetica,sans-Serif" font-size="10.00">QuantConnect.Util.Currency</text>
<text text-anchor="middle" x="321" y="-313.5" font-family="Helvetica,sans-Serif" font-size="10.00">PairUtil.CurrencyPairDual</text>
</a>
</g>
</g>
<!-- Node3&#45;&gt;Node4 -->
<g id="edge3" class="edge">
<title>Node3&#45;&gt;Node4</title>
<path fill="none" stroke="midnightblue" d="M480.24,-195.13C478.42,-196.49 476.66,-197.95 475,-199.5 441.07,-231.16 474.17,-267.24 439,-297.5 427.21,-307.64 412.29,-313.9 397.08,-317.68"/>
<polygon fill="midnightblue" stroke="midnightblue" points="482.17,-198.05 488.69,-189.69 478.39,-192.16 482.17,-198.05"/>
</g>
<!-- Node5 -->
<g id="node5" class="node">
<title>Node5</title>
<g id="a_node5"><a xlink:href="classQuantConnect_1_1Orders_1_1Fees_1_1BitfinexFeeModel.html#a145416529e820570cb938963f7f55a70" target="_top" xlink:title="Get the fee for this order in quote currency">
<polygon fill="white" stroke="black" points="238,-257.5 238,-287.5 404,-287.5 404,-257.5 238,-257.5"/>
<text text-anchor="start" x="246" y="-275.5" font-family="Helvetica,sans-Serif" font-size="10.00">QuantConnect.Orders.Fees.</text>
<text text-anchor="middle" x="321" y="-264.5" font-family="Helvetica,sans-Serif" font-size="10.00">BitfinexFeeModel.GetOrderFee</text>
</a>
</g>
</g>
<!-- Node3&#45;&gt;Node5 -->
<g id="edge4" class="edge">
<title>Node3&#45;&gt;Node5</title>
<path fill="none" stroke="midnightblue" d="M483.62,-194.18C480.63,-195.82 477.74,-197.58 475,-199.5 452.85,-214.98 461.75,-233.92 439,-248.5 428.44,-255.27 416.33,-260.18 404,-263.73"/>
<polygon fill="midnightblue" stroke="midnightblue" points="485.4,-197.2 492.84,-189.67 482.32,-190.92 485.4,-197.2"/>
</g>
<!-- Node6 -->
<g id="node6" class="node">
<title>Node6</title>
<g id="a_node6"><a xlink:href="classQuantConnect_1_1Orders_1_1Fees_1_1BinanceFeeModel.html#ad714b6eeb176040fc0edff0742bd68a1" target="_top" xlink:title="Get the fee for this order in quote currency">
<polygon fill="white" stroke="black" points="237.5,-208.5 237.5,-238.5 404.5,-238.5 404.5,-208.5 237.5,-208.5"/>
<text text-anchor="start" x="245.5" y="-226.5" font-family="Helvetica,sans-Serif" font-size="10.00">QuantConnect.Orders.Fees.</text>
<text text-anchor="middle" x="321" y="-215.5" font-family="Helvetica,sans-Serif" font-size="10.00">BinanceFeeModel.GetOrderFee</text>
</a>
</g>
</g>
<!-- Node3&#45;&gt;Node6 -->
<g id="edge5" class="edge">
<title>Node3&#45;&gt;Node6</title>
<path fill="none" stroke="midnightblue" d="M477.53,-191.61C450.71,-197.11 421.22,-203.16 395.19,-208.49"/>
<polygon fill="midnightblue" stroke="midnightblue" points="478.57,-194.97 487.67,-189.53 477.17,-188.11 478.57,-194.97"/>
</g>
<!-- Node7 -->
<g id="node7" class="node">
<title>Node7</title>
<g id="a_node7"><a xlink:href="classQuantConnect_1_1Orders_1_1Fees_1_1KrakenFeeModel.html#adc7a457b7f5b6dba2858c63a618536bb" target="_top" xlink:title="Get the fee for this order. If sell &#45; fees in base currency If buy &#45; fees in quote currency It can be...">
<polygon fill="white" stroke="black" points="240,-159.5 240,-189.5 402,-189.5 402,-159.5 240,-159.5"/>
<text text-anchor="start" x="248" y="-177.5" font-family="Helvetica,sans-Serif" font-size="10.00">QuantConnect.Orders.Fees.</text>
<text text-anchor="middle" x="321" y="-166.5" font-family="Helvetica,sans-Serif" font-size="10.00">KrakenFeeModel.GetOrderFee</text>
</a>
</g>
</g>
<!-- Node3&#45;&gt;Node7 -->
<g id="edge6" class="edge">
<title>Node3&#45;&gt;Node7</title>
<path fill="none" stroke="midnightblue" d="M464.63,-174.5C443.91,-174.5 422.22,-174.5 402.19,-174.5"/>
<polygon fill="midnightblue" stroke="midnightblue" points="464.72,-178 474.72,-174.5 464.72,-171 464.72,-178"/>
</g>
<!-- Node8 -->
<g id="node8" class="node">
<title>Node8</title>
<g id="a_node8"><a xlink:href="classQuantConnect_1_1Securities_1_1CurrencyConversion_1_1SecurityCurrencyConversion.html#a4906f295b9c94951f7aed815cfb254cf" target="_top" xlink:title="Finds a conversion between two currencies by looking through all available 1 and 2&#45;leg options">
<polygon fill="white" stroke="black" points="220.5,-99 220.5,-140 421.5,-140 421.5,-99 220.5,-99"/>
<text text-anchor="start" x="228.5" y="-128" font-family="Helvetica,sans-Serif" font-size="10.00">QuantConnect.Securities.</text>
<text text-anchor="start" x="228.5" y="-117" font-family="Helvetica,sans-Serif" font-size="10.00">CurrencyConversion.SecurityCurrency</text>
<text text-anchor="middle" x="321" y="-106" font-family="Helvetica,sans-Serif" font-size="10.00">Conversion.LinearSearch</text>
</a>
</g>
</g>
<!-- Node3&#45;&gt;Node8 -->
<g id="edge7" class="edge">
<title>Node3&#45;&gt;Node8</title>
<path fill="none" stroke="midnightblue" d="M485.76,-157.18C462.17,-151.76 435.89,-145.71 411.42,-140.08"/>
<polygon fill="midnightblue" stroke="midnightblue" points="485.16,-160.64 495.69,-159.47 486.73,-153.82 485.16,-160.64"/>
</g>
<!-- Node10 -->
<g id="node10" class="node">
<title>Node10</title>
<g id="a_node10"><a xlink:href="classQuantConnect_1_1ToolBox_1_1CoinApiDataConverter_1_1CoinApiDataConverter.html#a2d1e20166a9d24cedace8a1781c95160" target="_top" xlink:title="Runs this instance.">
<polygon fill="white" stroke="black" points="203,-49.5 203,-79.5 439,-79.5 439,-49.5 203,-49.5"/>
<text text-anchor="start" x="211" y="-67.5" font-family="Helvetica,sans-Serif" font-size="10.00">QuantConnect.ToolBox.Coin</text>
<text text-anchor="middle" x="321" y="-56.5" font-family="Helvetica,sans-Serif" font-size="10.00">ApiDataConverter.CoinApiDataConverter.Run</text>
</a>
</g>
</g>
<!-- Node3&#45;&gt;Node10 -->
<g id="edge9" class="edge">
<title>Node3&#45;&gt;Node10</title>
<path fill="none" stroke="midnightblue" d="M536.45,-152.93C513,-133.46 475.86,-105.5 439,-89.5 430.04,-85.61 420.43,-82.31 410.71,-79.51"/>
<polygon fill="midnightblue" stroke="midnightblue" points="534.25,-155.66 544.15,-159.43 538.76,-150.31 534.25,-155.66"/>
</g>
<!-- Node11 -->
<g id="node11" class="node">
<title>Node11</title>
<g id="a_node11"><a xlink:href="classQuantConnect_1_1Util_1_1CurrencyPairUtil.html#a751a86e6291116461dac1b937af5b7a6" target="_top" xlink:title="Tries to decomposes the specified currency pair into a base and quote currency provided as out parame...">
<polygon fill="white" stroke="black" points="227,-0.5 227,-30.5 415,-30.5 415,-0.5 227,-0.5"/>
<text text-anchor="start" x="235" y="-18.5" font-family="Helvetica,sans-Serif" font-size="10.00">QuantConnect.Util.Currency</text>
<text text-anchor="middle" x="321" y="-7.5" font-family="Helvetica,sans-Serif" font-size="10.00">PairUtil.TryDecomposeCurrencyPair</text>
</a>
</g>
</g>
<!-- Node3&#45;&gt;Node11 -->
<g id="edge10" class="edge">
<title>Node3&#45;&gt;Node11</title>
<path fill="none" stroke="midnightblue" d="M546.47,-150.69C526.34,-119.88 486.97,-66.91 439,-39.5 431.53,-35.23 423.4,-31.71 415.04,-28.82"/>
<polygon fill="midnightblue" stroke="midnightblue" points="543.76,-152.95 552.09,-159.49 549.66,-149.18 543.76,-152.95"/>
</g>
<!-- Node9 -->
<g id="node9" class="node">
<title>Node9</title>
<g id="a_node9"><a xlink:href="classQuantConnect_1_1Securities_1_1Cash.html#a8af2f228ffa12236fec72d5458a031fc" target="_top" xlink:title="Ensures that we have a data feed to convert this currency into the base currency. This will add a Sub...">
<polygon fill="white" stroke="black" points="0,-104.5 0,-134.5 167,-134.5 167,-104.5 0,-104.5"/>
<text text-anchor="start" x="8" y="-122.5" font-family="Helvetica,sans-Serif" font-size="10.00">QuantConnect.Securities.</text>
<text text-anchor="middle" x="83.5" y="-111.5" font-family="Helvetica,sans-Serif" font-size="10.00">Cash.EnsureCurrencyDataFeed</text>
</a>
</g>
</g>
<!-- Node8&#45;&gt;Node9 -->
<g id="edge8" class="edge">
<title>Node8&#45;&gt;Node9</title>
<path fill="none" stroke="midnightblue" d="M210.46,-119.5C195.96,-119.5 181.28,-119.5 167.33,-119.5"/>
<polygon fill="midnightblue" stroke="midnightblue" points="210.47,-123 220.47,-119.5 210.47,-116 210.47,-123"/>
</g>
<!-- Node12 -->
<g id="node12" class="node">
<title>Node12</title>
<g id="a_node12"><a xlink:href="classQuantConnect_1_1Util_1_1CurrencyPairUtil.html#a945ca4091d51a13c43e584d3af4eff21" target="_top" xlink:title="Returns how two currency pairs are related to each other">
<polygon fill="white" stroke="black" points="7.5,-0.5 7.5,-30.5 159.5,-30.5 159.5,-0.5 7.5,-0.5"/>
<text text-anchor="start" x="15.5" y="-18.5" font-family="Helvetica,sans-Serif" font-size="10.00">QuantConnect.Util.Currency</text>
<text text-anchor="middle" x="83.5" y="-7.5" font-family="Helvetica,sans-Serif" font-size="10.00">PairUtil.ComparePair</text>
</a>
</g>
</g>
<!-- Node11&#45;&gt;Node12 -->
<g id="edge11" class="edge">
<title>Node11&#45;&gt;Node12</title>
<path fill="none" stroke="midnightblue" d="M216.89,-15.5C197.59,-15.5 177.76,-15.5 159.51,-15.5"/>
<polygon fill="midnightblue" stroke="midnightblue" points="216.92,-19 226.92,-15.5 216.92,-12 216.92,-19"/>
</g>
</g>
</svg>
        <g id="navigator" transform="translate(0 0)" fill="#404254">
                <rect fill="#f2f5e9" fill-opacity="0.5" stroke="#606060" stroke-width=".5" x="0" y="0" width="60" height="60"/>
                <use id="zoomplus" xlink:href="#zoomPlus" x="17" y="9" onmousedown="handleZoom(evt,'in')"/>
                <use id="zoomminus" xlink:href="#zoomMin" x="42" y="9" onmousedown="handleZoom(evt,'out')"/>
                <use id="reset" xlink:href="#resetDef" x="30" y="36" onmousedown="handleReset()"/>
                <g id="arrowUp" xlink:href="#dirArrow" transform="translate(30 24)" onmousedown="handlePan(0,-1)">
                  <use xlink:href="#rim" fill="#404040">
                        <set attributeName="fill" to="#808080" begin="arrowUp.mouseover" end="arrowUp.mouseout"/>
                  </use>
                  <path fill="none" stroke="white" stroke-width="1.5" d="M0,-3.0v7 M-2.5,-0.5L0,-3.0L2.5,-0.5"/>
                </g>
                <g id="arrowRight" xlink:href="#dirArrow" transform="rotate(90) translate(36 -43)" onmousedown="handlePan(1,0)">
                  <use xlink:href="#rim" fill="#404040">
                        <set attributeName="fill" to="#808080" begin="arrowRight.mouseover" end="arrowRight.mouseout"/>
                  </use>
                  <path fill="none" stroke="white" stroke-width="1.5" d="M0,-3.0v7 M-2.5,-0.5L0,-3.0L2.5,-0.5"/>
                </g>
                <g id="arrowDown" xlink:href="#dirArrow" transform="rotate(180) translate(-30 -48)" onmousedown="handlePan(0,1)">
                  <use xlink:href="#rim" fill="#404040">
                        <set attributeName="fill" to="#808080" begin="arrowDown.mouseover" end="arrowDown.mouseout"/>
                  </use>
                  <path fill="none" stroke="white" stroke-width="1.5" d="M0,-3.0v7 M-2.5,-0.5L0,-3.0L2.5,-0.5"/>
                </g>
                <g id="arrowLeft" xlink:href="#dirArrow" transform="rotate(270) translate(-36 17)" onmousedown="handlePan(-1,0)">
                  <use xlink:href="#rim" fill="#404040">
                        <set attributeName="fill" to="#808080" begin="arrowLeft.mouseover" end="arrowLeft.mouseout"/>
                  </use>
                  <path fill="none" stroke="white" stroke-width="1.5" d="M0,-3.0v7 M-2.5,-0.5L0,-3.0L2.5,-0.5"/>
                </g>
        </g>
        <svg viewBox="0 0 15 15" width="100%" height="30px" preserveAspectRatio="xMaxYMin meet">
         <g id="arrow_out" transform="scale(0.3 0.3)">
          <a xlink:href="classQuantConnect_1_1Securities_1_1Crypto_1_1Crypto_a34f3ec6157d9575e34127b5172706403_icgraph_org.svg" target="_base">
           <rect id="button" ry="5" rx="5" y="6" x="6" height="38" width="38"
                fill="#f2f5e9" fill-opacity="0.5" stroke="#606060" stroke-width="1.0"/>
           <path id="arrow"
             d="M 11.500037,31.436501 C 11.940474,20.09759 22.043105,11.32322 32.158766,21.979434 L 37.068811,17.246167 C 37.068811,17.246167 37.088388,32 37.088388,32 L 22.160133,31.978069 C 22.160133,31.978069 26.997745,27.140456 26.997745,27.140456 C 18.528582,18.264221 13.291696,25.230495 11.500037,31.436501 z"
             style="fill:#404040;"/>
          </a>
         </g>
        </svg>
</svg>
