<?xml version="1.0" encoding="UTF-8" standalone="no"?>
<!DOCTYPE svg PUBLIC "-//W3C//DTD SVG 1.1//EN"
 "http://www.w3.org/Graphics/SVG/1.1/DTD/svg11.dtd">
<!-- Generated by graphviz version 2.43.0 (0)
 -->
<!-- Title: QuantConnect.Queues.JobQueue.NextJob Pages: 1 -->
<!--zoomable 274 -->
<svg id="main" version="1.1" xmlns="http://www.w3.org/2000/svg" xmlns:xlink="http://www.w3.org/1999/xlink" xml:space="preserve" onload="init(evt)">
<style type="text/css"><![CDATA[
.edge:hover path { stroke: red; }
.edge:hover polygon { stroke: red; fill: red; }
]]></style>
<script type="text/javascript"><![CDATA[
var edges = document.getElementsByTagName('g');
if (edges && edges.length) {
  for (var i=0;i<edges.length;i++) {
    if (edges[i].id.substr(0,4)=='edge') {
      edges[i].setAttribute('class','edge');
    }
  }
}
]]></script>
        <defs>
                <circle id="rim" cx="0" cy="0" r="7"/>
                <circle id="rim2" cx="0" cy="0" r="3.5"/>
                <g id="zoomPlus">
                        <use xlink:href="#rim" fill="#404040">
                                <set attributeName="fill" to="#808080" begin="zoomplus.mouseover" end="zoomplus.mouseout"/>
                        </use>
                        <path d="M-4,0h8M0,-4v8" fill="none" stroke="white" stroke-width="1.5" pointer-events="none"/>
                </g>
                <g id="zoomMin">
                        <use xlink:href="#rim" fill="#404040">
                                <set attributeName="fill" to="#808080" begin="zoomminus.mouseover" end="zoomminus.mouseout"/>
                        </use>
                        <path d="M-4,0h8" fill="none" stroke="white" stroke-width="1.5" pointer-events="none"/>
                </g>
                <g id="dirArrow">
                        <path fill="none" stroke="white" stroke-width="1.5" d="M0,-3.0v7 M-2.5,-0.5L0,-3.0L2.5,-0.5"/>
                </g>
               <g id="resetDef">
                       <use xlink:href="#rim2" fill="#404040">
                               <set attributeName="fill" to="#808080" begin="reset.mouseover" end="reset.mouseout"/>
                       </use>
               </g>
        </defs>

<script type="text/javascript">
var viewWidth = 788;
var viewHeight = 274;
var sectionId = 'dynsection-2';
</script>
<script xlink:href="svgpan.js"/>
<svg id="graph" class="graph">
<g id="viewport">
<title>QuantConnect.Queues.JobQueue.NextJob</title>
<polygon fill="white" stroke="transparent" points="-4,4 -4,-270 784,-270 784,4 -4,4"/>
<!-- Node1 -->
<g id="node1" class="node">
<title>Node1</title>
<g id="a_node1"><a xlink:title="Desktop/Local Get Next Task &#45; Get task from the Algorithm folder of VS Solution.">
<polygon fill="#bfbfbf" stroke="black" points="0,-93.5 0,-123.5 178,-123.5 178,-93.5 0,-93.5"/>
<text text-anchor="start" x="8" y="-111.5" font-family="Helvetica,sans-Serif" font-size="10.00">QuantConnect.Queues.JobQueue.</text>
<text text-anchor="middle" x="89" y="-100.5" font-family="Helvetica,sans-Serif" font-size="10.00">NextJob</text>
</a>
</g>
</g>
<!-- Node2 -->
<g id="node2" class="node">
<title>Node2</title>
<g id="a_node2"><a xlink:href="classQuantConnect_1_1Logging_1_1Log.html#af0e7955911bc7664b37661b2a303a9e3" target="_top" xlink:title="Log error">
<polygon fill="white" stroke="black" points="232.5,-210.5 232.5,-240.5 382.5,-240.5 382.5,-210.5 232.5,-210.5"/>
<text text-anchor="start" x="240.5" y="-228.5" font-family="Helvetica,sans-Serif" font-size="10.00">QuantConnect.Logging.Log.</text>
<text text-anchor="middle" x="307.5" y="-217.5" font-family="Helvetica,sans-Serif" font-size="10.00">Error</text>
</a>
</g>
</g>
<!-- Node1&#45;&gt;Node2 -->
<g id="edge1" class="edge">
<title>Node1&#45;&gt;Node2</title>
<path fill="none" stroke="midnightblue" d="M116.48,-123.53C141.51,-137.66 180.15,-159.3 214,-177.5 231.61,-186.97 251.26,-197.21 267.9,-205.79"/>
<polygon fill="midnightblue" stroke="midnightblue" points="266.31,-208.91 276.81,-210.37 269.52,-202.68 266.31,-208.91"/>
</g>
<!-- Node4 -->
<g id="node4" class="node">
<title>Node4</title>
<g id="a_node4"><a xlink:href="classQuantConnect_1_1Configuration_1_1Config.html#aaabf1286e33a675b2e116f3289981839" target="_top" xlink:title="Get the matching config setting from the file searching for this key.">
<polygon fill="white" stroke="black" points="229,-137.5 229,-167.5 386,-167.5 386,-137.5 229,-137.5"/>
<text text-anchor="start" x="237" y="-155.5" font-family="Helvetica,sans-Serif" font-size="10.00">QuantConnect.Configuration.</text>
<text text-anchor="middle" x="307.5" y="-144.5" font-family="Helvetica,sans-Serif" font-size="10.00">Config.Get</text>
</a>
</g>
</g>
<!-- Node1&#45;&gt;Node4 -->
<g id="edge3" class="edge">
<title>Node1&#45;&gt;Node4</title>
<path fill="none" stroke="midnightblue" d="M163.9,-123.52C182.78,-127.36 203.22,-131.51 222.56,-135.44"/>
<polygon fill="midnightblue" stroke="midnightblue" points="222.07,-138.91 232.56,-137.47 223.46,-132.05 222.07,-138.91"/>
</g>
<!-- Node7 -->
<g id="node7" class="node">
<title>Node7</title>
<g id="a_node7"><a xlink:href="classQuantConnect_1_1Logging_1_1Log.html#a4e55477fbc790846b74550a57198cea9" target="_top" xlink:title="Log trace">
<polygon fill="white" stroke="black" points="440.5,-88.5 440.5,-118.5 590.5,-118.5 590.5,-88.5 440.5,-88.5"/>
<text text-anchor="start" x="448.5" y="-106.5" font-family="Helvetica,sans-Serif" font-size="10.00">QuantConnect.Logging.Log.</text>
<text text-anchor="middle" x="515.5" y="-95.5" font-family="Helvetica,sans-Serif" font-size="10.00">Trace</text>
</a>
</g>
</g>
<!-- Node1&#45;&gt;Node7 -->
<g id="edge10" class="edge">
<title>Node1&#45;&gt;Node7</title>
<path fill="none" stroke="midnightblue" d="M178.21,-107.46C252.22,-106.59 357.23,-105.35 430.14,-104.49"/>
<polygon fill="midnightblue" stroke="midnightblue" points="430.25,-107.99 440.21,-104.38 430.16,-100.99 430.25,-107.99"/>
</g>
<!-- Node9 -->
<g id="node9" class="node">
<title>Node9</title>
<g id="a_node9"><a xlink:href="classQuantConnect_1_1Queues_1_1JobQueue.html#a34fa284e0662720930a3cb01ba704945" target="_top" xlink:title="Gets Brokerage Factory for provided IDQH">
<polygon fill="white" stroke="black" points="214,-49.5 214,-79.5 401,-79.5 401,-49.5 214,-49.5"/>
<text text-anchor="start" x="222" y="-67.5" font-family="Helvetica,sans-Serif" font-size="10.00">QuantConnect.Queues.JobQueue.</text>
<text text-anchor="middle" x="307.5" y="-56.5" font-family="Helvetica,sans-Serif" font-size="10.00">GetFactoryFromDataQueueHandler</text>
</a>
</g>
</g>
<!-- Node1&#45;&gt;Node9 -->
<g id="edge8" class="edge">
<title>Node1&#45;&gt;Node9</title>
<path fill="none" stroke="midnightblue" d="M163.9,-93.48C182.78,-89.64 203.22,-85.49 222.56,-81.56"/>
<polygon fill="midnightblue" stroke="midnightblue" points="223.46,-84.95 232.56,-79.53 222.07,-78.09 223.46,-84.95"/>
</g>
<!-- Node10 -->
<g id="node10" class="node">
<title>Node10</title>
<g id="a_node10"><a xlink:href="classQuantConnect_1_1Configuration_1_1Config.html#a7e8e4f537e349a84b9a2b0f7d3153a0b" target="_top" xlink:title="Get the int value of a config string.">
<polygon fill="white" stroke="black" points="229,-0.5 229,-30.5 386,-30.5 386,-0.5 229,-0.5"/>
<text text-anchor="start" x="237" y="-18.5" font-family="Helvetica,sans-Serif" font-size="10.00">QuantConnect.Configuration.</text>
<text text-anchor="middle" x="307.5" y="-7.5" font-family="Helvetica,sans-Serif" font-size="10.00">Config.GetInt</text>
</a>
</g>
</g>
<!-- Node1&#45;&gt;Node10 -->
<g id="edge9" class="edge">
<title>Node1&#45;&gt;Node10</title>
<path fill="none" stroke="midnightblue" d="M112.89,-93.42C137.13,-78.03 176.95,-54.33 214,-39.5 219.33,-37.37 224.91,-35.37 230.57,-33.52"/>
<polygon fill="midnightblue" stroke="midnightblue" points="231.64,-36.85 240.15,-30.53 229.56,-30.17 231.64,-36.85"/>
</g>
<!-- Node3 -->
<g id="node3" class="node">
<title>Node3</title>
<g id="a_node3"><a xlink:href="interfaceQuantConnect_1_1Logging_1_1ILogHandler.html#a35373a0c5d76031fa5ccf5dc39e5c25d" target="_top" xlink:title="Write error message to log">
<polygon fill="white" stroke="black" points="440.5,-235.5 440.5,-265.5 590.5,-265.5 590.5,-235.5 440.5,-235.5"/>
<text text-anchor="start" x="448.5" y="-253.5" font-family="Helvetica,sans-Serif" font-size="10.00">QuantConnect.Logging.ILog</text>
<text text-anchor="middle" x="515.5" y="-242.5" font-family="Helvetica,sans-Serif" font-size="10.00">Handler.Error</text>
</a>
</g>
</g>
<!-- Node2&#45;&gt;Node3 -->
<g id="edge2" class="edge">
<title>Node2&#45;&gt;Node3</title>
<path fill="none" stroke="midnightblue" d="M382.58,-234.49C398,-236.36 414.37,-238.35 430.13,-240.26"/>
<polygon fill="midnightblue" stroke="midnightblue" points="430.04,-243.78 440.39,-241.51 430.88,-236.83 430.04,-243.78"/>
</g>
<!-- Node5 -->
<g id="node5" class="node">
<title>Node5</title>
<g id="a_node5"><a xlink:href="classQuantConnect_1_1Configuration_1_1Config.html#a1504ca19b3759d008b090375ddf4ad10" target="_top" xlink:title="Gets the currently selected environment. If sub&#45;environments are defined, they&#39;ll be returned as {env...">
<polygon fill="white" stroke="black" points="437,-186.5 437,-216.5 594,-216.5 594,-186.5 437,-186.5"/>
<text text-anchor="start" x="445" y="-204.5" font-family="Helvetica,sans-Serif" font-size="10.00">QuantConnect.Configuration.</text>
<text text-anchor="middle" x="515.5" y="-193.5" font-family="Helvetica,sans-Serif" font-size="10.00">Config.GetEnvironment</text>
</a>
</g>
</g>
<!-- Node4&#45;&gt;Node5 -->
<g id="edge4" class="edge">
<title>Node4&#45;&gt;Node5</title>
<path fill="none" stroke="midnightblue" d="M371.71,-167.53C393.75,-172.78 418.68,-178.71 441.46,-184.13"/>
<polygon fill="midnightblue" stroke="midnightblue" points="440.87,-187.58 451.41,-186.49 442.49,-180.77 440.87,-187.58"/>
</g>
<!-- Node6 -->
<g id="node6" class="node">
<title>Node6</title>
<g id="a_node6"><a xlink:href="classQuantConnect_1_1Configuration_1_1Config.html#a9ed01bc116e8181a7557f3e668f34691" target="_top" xlink:title="Gets the underlying JToken for the specified key">
<polygon fill="white" stroke="black" points="437,-137.5 437,-167.5 594,-167.5 594,-137.5 437,-137.5"/>
<text text-anchor="start" x="445" y="-155.5" font-family="Helvetica,sans-Serif" font-size="10.00">QuantConnect.Configuration.</text>
<text text-anchor="middle" x="515.5" y="-144.5" font-family="Helvetica,sans-Serif" font-size="10.00">Config.GetToken</text>
</a>
</g>
</g>
<!-- Node4&#45;&gt;Node6 -->
<g id="edge5" class="edge">
<title>Node4&#45;&gt;Node6</title>
<path fill="none" stroke="midnightblue" d="M386.09,-152.5C399.36,-152.5 413.22,-152.5 426.74,-152.5"/>
<polygon fill="midnightblue" stroke="midnightblue" points="426.98,-156 436.98,-152.5 426.98,-149 426.98,-156"/>
</g>
<!-- Node4&#45;&gt;Node7 -->
<g id="edge6" class="edge">
<title>Node4&#45;&gt;Node7</title>
<path fill="none" stroke="midnightblue" d="M371.71,-137.47C393.75,-132.22 418.68,-126.29 441.46,-120.87"/>
<polygon fill="midnightblue" stroke="midnightblue" points="442.49,-124.23 451.41,-118.51 440.87,-117.42 442.49,-124.23"/>
</g>
<!-- Node8 -->
<g id="node8" class="node">
<title>Node8</title>
<g id="a_node8"><a xlink:href="interfaceQuantConnect_1_1Logging_1_1ILogHandler.html#a3fb71a33ac66129240b63f12b6fcda3b" target="_top" xlink:title="Write debug message to log">
<polygon fill="white" stroke="black" points="630,-88.5 630,-118.5 780,-118.5 780,-88.5 630,-88.5"/>
<text text-anchor="start" x="638" y="-106.5" font-family="Helvetica,sans-Serif" font-size="10.00">QuantConnect.Logging.ILog</text>
<text text-anchor="middle" x="705" y="-95.5" font-family="Helvetica,sans-Serif" font-size="10.00">Handler.Trace</text>
</a>
</g>
</g>
<!-- Node7&#45;&gt;Node8 -->
<g id="edge7" class="edge">
<title>Node7&#45;&gt;Node8</title>
<path fill="none" stroke="midnightblue" d="M590.6,-103.5C600.18,-103.5 610.04,-103.5 619.76,-103.5"/>
<polygon fill="midnightblue" stroke="midnightblue" points="619.82,-107 629.82,-103.5 619.82,-100 619.82,-107"/>
</g>
</g>
</svg>
        <g id="navigator" transform="translate(0 0)" fill="#404254">
                <rect fill="#f2f5e9" fill-opacity="0.5" stroke="#606060" stroke-width=".5" x="0" y="0" width="60" height="60"/>
                <use id="zoomplus" xlink:href="#zoomPlus" x="17" y="9" onmousedown="handleZoom(evt,'in')"/>
                <use id="zoomminus" xlink:href="#zoomMin" x="42" y="9" onmousedown="handleZoom(evt,'out')"/>
                <use id="reset" xlink:href="#resetDef" x="30" y="36" onmousedown="handleReset()"/>
                <g id="arrowUp" xlink:href="#dirArrow" transform="translate(30 24)" onmousedown="handlePan(0,-1)">
                  <use xlink:href="#rim" fill="#404040">
                        <set attributeName="fill" to="#808080" begin="arrowUp.mouseover" end="arrowUp.mouseout"/>
                  </use>
                  <path fill="none" stroke="white" stroke-width="1.5" d="M0,-3.0v7 M-2.5,-0.5L0,-3.0L2.5,-0.5"/>
                </g>
                <g id="arrowRight" xlink:href="#dirArrow" transform="rotate(90) translate(36 -43)" onmousedown="handlePan(1,0)">
                  <use xlink:href="#rim" fill="#404040">
                        <set attributeName="fill" to="#808080" begin="arrowRight.mouseover" end="arrowRight.mouseout"/>
                  </use>
                  <path fill="none" stroke="white" stroke-width="1.5" d="M0,-3.0v7 M-2.5,-0.5L0,-3.0L2.5,-0.5"/>
                </g>
                <g id="arrowDown" xlink:href="#dirArrow" transform="rotate(180) translate(-30 -48)" onmousedown="handlePan(0,1)">
                  <use xlink:href="#rim" fill="#404040">
                        <set attributeName="fill" to="#808080" begin="arrowDown.mouseover" end="arrowDown.mouseout"/>
                  </use>
                  <path fill="none" stroke="white" stroke-width="1.5" d="M0,-3.0v7 M-2.5,-0.5L0,-3.0L2.5,-0.5"/>
                </g>
                <g id="arrowLeft" xlink:href="#dirArrow" transform="rotate(270) translate(-36 17)" onmousedown="handlePan(-1,0)">
                  <use xlink:href="#rim" fill="#404040">
                        <set attributeName="fill" to="#808080" begin="arrowLeft.mouseover" end="arrowLeft.mouseout"/>
                  </use>
                  <path fill="none" stroke="white" stroke-width="1.5" d="M0,-3.0v7 M-2.5,-0.5L0,-3.0L2.5,-0.5"/>
                </g>
        </g>
        <svg viewBox="0 0 15 15" width="100%" height="30px" preserveAspectRatio="xMaxYMin meet">
         <g id="arrow_out" transform="scale(0.3 0.3)">
          <a xlink:href="classQuantConnect_1_1Queues_1_1JobQueue_a3e74770d498b6609702b5850479002ee_cgraph_org.svg" target="_base">
           <rect id="button" ry="5" rx="5" y="6" x="6" height="38" width="38"
                fill="#f2f5e9" fill-opacity="0.5" stroke="#606060" stroke-width="1.0"/>
           <path id="arrow"
             d="M 11.500037,31.436501 C 11.940474,20.09759 22.043105,11.32322 32.158766,21.979434 L 37.068811,17.246167 C 37.068811,17.246167 37.088388,32 37.088388,32 L 22.160133,31.978069 C 22.160133,31.978069 26.997745,27.140456 26.997745,27.140456 C 18.528582,18.264221 13.291696,25.230495 11.500037,31.436501 z"
             style="fill:#404040;"/>
          </a>
         </g>
        </svg>
</svg>
