<?xml version="1.0" encoding="UTF-8" standalone="no"?>
<!DOCTYPE svg PUBLIC "-//W3C//DTD SVG 1.1//EN"
 "http://www.w3.org/Graphics/SVG/1.1/DTD/svg11.dtd">
<!-- Generated by graphviz version 2.43.0 (0)
 -->
<!-- Title: QuantConnect.Algorithm.Framework.Portfolio.InsightWeightingPortfolioConstructionModel.DetermineTargetPercent Pages: 1 -->
<svg width="513pt" height="110pt"
 viewBox="0.00 0.00 513.00 110.00" xmlns="http://www.w3.org/2000/svg" xmlns:xlink="http://www.w3.org/1999/xlink">
<g id="graph0" class="graph" transform="scale(1 1) rotate(0) translate(4 106)">
<title>QuantConnect.Algorithm.Framework.Portfolio.InsightWeightingPortfolioConstructionModel.DetermineTargetPercent</title>
<polygon fill="white" stroke="transparent" points="-4,4 -4,-106 509,-106 509,4 -4,4"/>
<!-- Node1 -->
<g id="node1" class="node">
<title>Node1</title>
<g id="a_node1"><a xlink:title="Will determine the target percent for each insight">
<polygon fill="#bfbfbf" stroke="black" points="0,-30.5 0,-71.5 230,-71.5 230,-30.5 0,-30.5"/>
<text text-anchor="start" x="8" y="-59.5" font-family="Helvetica,sans-Serif" font-size="10.00">QuantConnect.Algorithm.Framework.</text>
<text text-anchor="start" x="8" y="-48.5" font-family="Helvetica,sans-Serif" font-size="10.00">Portfolio.InsightWeightingPortfolio</text>
<text text-anchor="middle" x="115" y="-37.5" font-family="Helvetica,sans-Serif" font-size="10.00">ConstructionModel.DetermineTargetPercent</text>
</a>
</g>
</g>
<!-- Node2 -->
<g id="node2" class="node">
<title>Node2</title>
<g id="a_node2"><a xlink:href="classQuantConnect_1_1Algorithm_1_1Framework_1_1Portfolio_1_1InsightWeightingPortfolioConstructionModel.html#acc18378a2551afc5717e31a323199c32" target="_top" xlink:title="Method that will determine which member will be used to compute the weights and gets its value">
<polygon fill="white" stroke="black" points="287,-60.5 287,-101.5 484,-101.5 484,-60.5 287,-60.5"/>
<text text-anchor="start" x="295" y="-89.5" font-family="Helvetica,sans-Serif" font-size="10.00">QuantConnect.Algorithm.Framework.</text>
<text text-anchor="start" x="295" y="-78.5" font-family="Helvetica,sans-Serif" font-size="10.00">Portfolio.InsightWeightingPortfolio</text>
<text text-anchor="middle" x="385.5" y="-67.5" font-family="Helvetica,sans-Serif" font-size="10.00">ConstructionModel.GetValue</text>
</a>
</g>
</g>
<!-- Node1&#45;&gt;Node2 -->
<g id="edge1" class="edge">
<title>Node1&#45;&gt;Node2</title>
<path fill="none" stroke="midnightblue" d="M230.26,-63.77C245.71,-65.49 261.53,-67.26 276.86,-68.97"/>
<polygon fill="midnightblue" stroke="midnightblue" points="276.54,-72.46 286.86,-70.09 277.31,-65.5 276.54,-72.46"/>
</g>
<!-- Node3 -->
<g id="node3" class="node">
<title>Node3</title>
<g id="a_node3"><a xlink:href="classQuantConnect_1_1Algorithm_1_1Framework_1_1Portfolio_1_1EqualWeightingPortfolioConstructionModel.html#aa6527bd1e19efe3f0ddbc67334de18e4" target="_top" xlink:title="Method that will determine if a given insight respects the portfolio bias">
<polygon fill="white" stroke="black" points="266,-0.5 266,-41.5 505,-41.5 505,-0.5 266,-0.5"/>
<text text-anchor="start" x="274" y="-29.5" font-family="Helvetica,sans-Serif" font-size="10.00">QuantConnect.Algorithm.Framework.</text>
<text text-anchor="start" x="274" y="-18.5" font-family="Helvetica,sans-Serif" font-size="10.00">Portfolio.EqualWeightingPortfolioConstruction</text>
<text text-anchor="middle" x="385.5" y="-7.5" font-family="Helvetica,sans-Serif" font-size="10.00">Model.RespectPortfolioBias</text>
</a>
</g>
</g>
<!-- Node1&#45;&gt;Node3 -->
<g id="edge2" class="edge">
<title>Node1&#45;&gt;Node3</title>
<path fill="none" stroke="midnightblue" d="M230.26,-38.23C238.67,-37.29 247.19,-36.34 255.68,-35.39"/>
<polygon fill="midnightblue" stroke="midnightblue" points="256.08,-38.87 265.63,-34.28 255.3,-31.91 256.08,-38.87"/>
</g>
</g>
</svg>
