<?xml version="1.0" encoding="UTF-8" standalone="no"?>
<!DOCTYPE svg PUBLIC "-//W3C//DTD SVG 1.1//EN"
 "http://www.w3.org/Graphics/SVG/1.1/DTD/svg11.dtd">
<!-- Generated by graphviz version 2.43.0 (0)
 -->
<!-- Title: QuantConnect.Securities.SecurityTransactionManager.AddOrder Pages: 1 -->
<svg width="693pt" height="333pt"
 viewBox="0.00 0.00 693.00 333.00" xmlns="http://www.w3.org/2000/svg" xmlns:xlink="http://www.w3.org/1999/xlink">
<g id="graph0" class="graph" transform="scale(1 1) rotate(0) translate(4 329)">
<title>QuantConnect.Securities.SecurityTransactionManager.AddOrder</title>
<polygon fill="white" stroke="transparent" points="-4,4 -4,-329 689,-329 689,4 -4,4"/>
<!-- Node1 -->
<g id="node1" class="node">
<title>Node1</title>
<g id="a_node1"><a xlink:title="Add an order to collection and return the unique order id or negative if an error.">
<polygon fill="#bfbfbf" stroke="black" points="482,-196.5 482,-226.5 685,-226.5 685,-196.5 482,-196.5"/>
<text text-anchor="start" x="490" y="-214.5" font-family="Helvetica,sans-Serif" font-size="10.00">QuantConnect.Securities.</text>
<text text-anchor="middle" x="583.5" y="-203.5" font-family="Helvetica,sans-Serif" font-size="10.00">SecurityTransactionManager.AddOrder</text>
</a>
</g>
</g>
<!-- Node2 -->
<g id="node2" class="node">
<title>Node2</title>
<g id="a_node2"><a xlink:href="classQuantConnect_1_1Securities_1_1DefaultMarginCallModel.html#a7c489c9899a3685a318889925b306812" target="_top" xlink:title="Executes synchronous orders to bring the account within margin requirements.">
<polygon fill="white" stroke="black" points="255.5,-246 255.5,-287 431.5,-287 431.5,-246 255.5,-246"/>
<text text-anchor="start" x="263.5" y="-275" font-family="Helvetica,sans-Serif" font-size="10.00">QuantConnect.Securities.</text>
<text text-anchor="start" x="263.5" y="-264" font-family="Helvetica,sans-Serif" font-size="10.00">DefaultMarginCallModel.Execute</text>
<text text-anchor="middle" x="343.5" y="-253" font-family="Helvetica,sans-Serif" font-size="10.00">MarginCall</text>
</a>
</g>
</g>
<!-- Node1&#45;&gt;Node2 -->
<g id="edge1" class="edge">
<title>Node1&#45;&gt;Node2</title>
<path fill="none" stroke="midnightblue" d="M507.68,-228.79C483.59,-234.36 456.68,-240.58 431.77,-246.33"/>
<polygon fill="midnightblue" stroke="midnightblue" points="508.51,-232.19 517.47,-226.53 506.93,-225.37 508.51,-232.19"/>
</g>
<!-- Node3 -->
<g id="node3" class="node">
<title>Node3</title>
<g id="a_node3"><a xlink:href="classQuantConnect_1_1Algorithm_1_1QCAlgorithm.html#a11352466438b0832f09b224722815e72" target="_top" xlink:title="Send an exercise order to the transaction handler">
<polygon fill="white" stroke="black" points="241,-196.5 241,-226.5 446,-226.5 446,-196.5 241,-196.5"/>
<text text-anchor="start" x="249" y="-214.5" font-family="Helvetica,sans-Serif" font-size="10.00">QuantConnect.Algorithm.QCAlgorithm.</text>
<text text-anchor="middle" x="343.5" y="-203.5" font-family="Helvetica,sans-Serif" font-size="10.00">ExerciseOption</text>
</a>
</g>
</g>
<!-- Node1&#45;&gt;Node3 -->
<g id="edge2" class="edge">
<title>Node1&#45;&gt;Node3</title>
<path fill="none" stroke="midnightblue" d="M471.91,-211.5C463.36,-211.5 454.74,-211.5 446.25,-211.5"/>
<polygon fill="midnightblue" stroke="midnightblue" points="471.91,-215 481.91,-211.5 471.91,-208 471.91,-215"/>
</g>
<!-- Node4 -->
<g id="node4" class="node">
<title>Node4</title>
<g id="a_node4"><a xlink:href="classQuantConnect_1_1Algorithm_1_1QCAlgorithm.html#aed520bc1af3bc057b69377969069d14a" target="_top" xlink:title="Will submit an order request to the algorithm">
<polygon fill="white" stroke="black" points="241,-147.5 241,-177.5 446,-177.5 446,-147.5 241,-147.5"/>
<text text-anchor="start" x="249" y="-165.5" font-family="Helvetica,sans-Serif" font-size="10.00">QuantConnect.Algorithm.QCAlgorithm.</text>
<text text-anchor="middle" x="343.5" y="-154.5" font-family="Helvetica,sans-Serif" font-size="10.00">SubmitOrderRequest</text>
</a>
</g>
</g>
<!-- Node1&#45;&gt;Node4 -->
<g id="edge3" class="edge">
<title>Node1&#45;&gt;Node4</title>
<path fill="none" stroke="midnightblue" d="M499.38,-194.39C472.67,-188.89 443.3,-182.84 417.39,-177.51"/>
<polygon fill="midnightblue" stroke="midnightblue" points="498.97,-197.88 509.47,-196.47 500.39,-191.02 498.97,-197.88"/>
</g>
<!-- Node5 -->
<g id="node5" class="node">
<title>Node5</title>
<g id="a_node5"><a xlink:href="classQuantConnect_1_1Algorithm_1_1QCAlgorithm.html#ad9a268098626dd7a455072aa7e78663b" target="_top" xlink:title="Send a limit if touched order to the transaction handler:">
<polygon fill="white" stroke="black" points="0,-294.5 0,-324.5 205,-324.5 205,-294.5 0,-294.5"/>
<text text-anchor="start" x="8" y="-312.5" font-family="Helvetica,sans-Serif" font-size="10.00">QuantConnect.Algorithm.QCAlgorithm.</text>
<text text-anchor="middle" x="102.5" y="-301.5" font-family="Helvetica,sans-Serif" font-size="10.00">LimitIfTouchedOrder</text>
</a>
</g>
</g>
<!-- Node4&#45;&gt;Node5 -->
<g id="edge4" class="edge">
<title>Node4&#45;&gt;Node5</title>
<path fill="none" stroke="midnightblue" d="M246.51,-183.06C244.6,-184.45 242.76,-185.93 241,-187.5 206.43,-218.45 239.72,-254.71 205,-285.5 201.21,-288.86 197.03,-291.78 192.6,-294.3"/>
<polygon fill="midnightblue" stroke="midnightblue" points="248.7,-185.82 255.3,-177.53 244.97,-179.89 248.7,-185.82"/>
</g>
<!-- Node6 -->
<g id="node6" class="node">
<title>Node6</title>
<g id="a_node6"><a xlink:href="classQuantConnect_1_1Algorithm_1_1QCAlgorithm.html#a5e12bb6fbf89897332248876072a32ad" target="_top" xlink:title="Send a limit order to the transaction handler:">
<polygon fill="white" stroke="black" points="0,-245.5 0,-275.5 205,-275.5 205,-245.5 0,-245.5"/>
<text text-anchor="start" x="8" y="-263.5" font-family="Helvetica,sans-Serif" font-size="10.00">QuantConnect.Algorithm.QCAlgorithm.</text>
<text text-anchor="middle" x="102.5" y="-252.5" font-family="Helvetica,sans-Serif" font-size="10.00">LimitOrder</text>
</a>
</g>
</g>
<!-- Node4&#45;&gt;Node6 -->
<g id="edge5" class="edge">
<title>Node4&#45;&gt;Node6</title>
<path fill="none" stroke="midnightblue" d="M250.68,-181.81C247.33,-183.54 244.09,-185.44 241,-187.5 218.53,-202.52 227.53,-221.58 205,-236.5 199.79,-239.95 194.14,-242.9 188.27,-245.43"/>
<polygon fill="midnightblue" stroke="midnightblue" points="252.19,-184.96 259.77,-177.56 249.23,-178.62 252.19,-184.96"/>
</g>
<!-- Node7 -->
<g id="node7" class="node">
<title>Node7</title>
<g id="a_node7"><a xlink:href="classQuantConnect_1_1Algorithm_1_1QCAlgorithm.html#aec7219e6a4c77563371aba6b39407d9a" target="_top" xlink:title="Market on close order implementation: Send a market order when the exchange closes">
<polygon fill="white" stroke="black" points="0,-196.5 0,-226.5 205,-226.5 205,-196.5 0,-196.5"/>
<text text-anchor="start" x="8" y="-214.5" font-family="Helvetica,sans-Serif" font-size="10.00">QuantConnect.Algorithm.QCAlgorithm.</text>
<text text-anchor="middle" x="102.5" y="-203.5" font-family="Helvetica,sans-Serif" font-size="10.00">MarketOnCloseOrder</text>
</a>
</g>
</g>
<!-- Node4&#45;&gt;Node7 -->
<g id="edge6" class="edge">
<title>Node4&#45;&gt;Node7</title>
<path fill="none" stroke="midnightblue" d="M259.03,-179.61C232.21,-185.11 202.72,-191.16 176.69,-196.49"/>
<polygon fill="midnightblue" stroke="midnightblue" points="260.07,-182.97 269.17,-177.53 258.67,-176.11 260.07,-182.97"/>
</g>
<!-- Node8 -->
<g id="node8" class="node">
<title>Node8</title>
<g id="a_node8"><a xlink:href="classQuantConnect_1_1Algorithm_1_1QCAlgorithm.html#a9db2f04661a682232fcaff5cfdb6470e" target="_top" xlink:title="Market on open order implementation: Send a market order when the exchange opens">
<polygon fill="white" stroke="black" points="0,-147.5 0,-177.5 205,-177.5 205,-147.5 0,-147.5"/>
<text text-anchor="start" x="8" y="-165.5" font-family="Helvetica,sans-Serif" font-size="10.00">QuantConnect.Algorithm.QCAlgorithm.</text>
<text text-anchor="middle" x="102.5" y="-154.5" font-family="Helvetica,sans-Serif" font-size="10.00">MarketOnOpenOrder</text>
</a>
</g>
</g>
<!-- Node4&#45;&gt;Node8 -->
<g id="edge7" class="edge">
<title>Node4&#45;&gt;Node8</title>
<path fill="none" stroke="midnightblue" d="M230.78,-162.5C222.22,-162.5 213.6,-162.5 205.11,-162.5"/>
<polygon fill="midnightblue" stroke="midnightblue" points="230.8,-166 240.8,-162.5 230.8,-159 230.8,-166"/>
</g>
<!-- Node9 -->
<g id="node9" class="node">
<title>Node9</title>
<g id="a_node9"><a xlink:href="classQuantConnect_1_1Algorithm_1_1QCAlgorithm.html#a741fed77f0c320fdec734f00457634f4" target="_top" xlink:title="Market order implementation: Send a market order and wait for it to be filled.">
<polygon fill="white" stroke="black" points="0,-98.5 0,-128.5 205,-128.5 205,-98.5 0,-98.5"/>
<text text-anchor="start" x="8" y="-116.5" font-family="Helvetica,sans-Serif" font-size="10.00">QuantConnect.Algorithm.QCAlgorithm.</text>
<text text-anchor="middle" x="102.5" y="-105.5" font-family="Helvetica,sans-Serif" font-size="10.00">MarketOrder</text>
</a>
</g>
</g>
<!-- Node4&#45;&gt;Node9 -->
<g id="edge8" class="edge">
<title>Node4&#45;&gt;Node9</title>
<path fill="none" stroke="midnightblue" d="M259.03,-145.39C232.21,-139.89 202.72,-133.84 176.69,-128.51"/>
<polygon fill="midnightblue" stroke="midnightblue" points="258.67,-148.89 269.17,-147.47 260.07,-142.03 258.67,-148.89"/>
</g>
<!-- Node10 -->
<g id="node10" class="node">
<title>Node10</title>
<g id="a_node10"><a xlink:href="classQuantConnect_1_1Algorithm_1_1QCAlgorithm.html#a4bcd1aed562ce3d533646b4c8c1b29c7" target="_top" xlink:title="Send a stop limit order to the transaction handler:">
<polygon fill="white" stroke="black" points="0,-49.5 0,-79.5 205,-79.5 205,-49.5 0,-49.5"/>
<text text-anchor="start" x="8" y="-67.5" font-family="Helvetica,sans-Serif" font-size="10.00">QuantConnect.Algorithm.QCAlgorithm.</text>
<text text-anchor="middle" x="102.5" y="-56.5" font-family="Helvetica,sans-Serif" font-size="10.00">StopLimitOrder</text>
</a>
</g>
</g>
<!-- Node4&#45;&gt;Node10 -->
<g id="edge9" class="edge">
<title>Node4&#45;&gt;Node10</title>
<path fill="none" stroke="midnightblue" d="M309.82,-142.18C282.62,-126.01 242.43,-103.79 205,-89.5 195.25,-85.78 184.76,-82.47 174.36,-79.57"/>
<polygon fill="midnightblue" stroke="midnightblue" points="308.15,-145.26 318.52,-147.42 311.75,-139.26 308.15,-145.26"/>
</g>
<!-- Node11 -->
<g id="node11" class="node">
<title>Node11</title>
<g id="a_node11"><a xlink:href="classQuantConnect_1_1Algorithm_1_1QCAlgorithm.html#a73c0b5f7aeb41f314ab8cc674c75beff" target="_top" xlink:title="Create a stop market order and return the newly created order id; or negative if the order is invalid">
<polygon fill="white" stroke="black" points="0,-0.5 0,-30.5 205,-30.5 205,-0.5 0,-0.5"/>
<text text-anchor="start" x="8" y="-18.5" font-family="Helvetica,sans-Serif" font-size="10.00">QuantConnect.Algorithm.QCAlgorithm.</text>
<text text-anchor="middle" x="102.5" y="-7.5" font-family="Helvetica,sans-Serif" font-size="10.00">StopMarketOrder</text>
</a>
</g>
</g>
<!-- Node4&#45;&gt;Node11 -->
<g id="edge10" class="edge">
<title>Node4&#45;&gt;Node11</title>
<path fill="none" stroke="midnightblue" d="M323.12,-139.53C298.49,-111.84 253.34,-65.89 205,-40.5 197.61,-36.62 189.6,-33.32 181.43,-30.53"/>
<polygon fill="midnightblue" stroke="midnightblue" points="320.57,-141.94 329.79,-147.15 325.84,-137.32 320.57,-141.94"/>
</g>
</g>
</svg>
