<?xml version="1.0" encoding="UTF-8" standalone="no"?>
<!DOCTYPE svg PUBLIC "-//W3C//DTD SVG 1.1//EN"
 "http://www.w3.org/Graphics/SVG/1.1/DTD/svg11.dtd">
<!-- Generated by graphviz version 2.43.0 (0)
 -->
<!-- Title: QuantConnect.Algorithm.Framework.Alphas.HistoricalReturnsAlphaModel.Update Pages: 1 -->
<svg width="707pt" height="39pt"
 viewBox="0.00 0.00 707.00 39.00" xmlns="http://www.w3.org/2000/svg" xmlns:xlink="http://www.w3.org/1999/xlink">
<g id="graph0" class="graph" transform="scale(1 1) rotate(0) translate(4 35)">
<title>QuantConnect.Algorithm.Framework.Alphas.HistoricalReturnsAlphaModel.Update</title>
<polygon fill="white" stroke="transparent" points="-4,4 -4,-35 703,-35 703,4 -4,4"/>
<!-- Node1 -->
<g id="node1" class="node">
<title>Node1</title>
<g id="a_node1"><a xlink:title="Updates this alpha model with the latest data from the algorithm. This is called each time the algori...">
<polygon fill="#bfbfbf" stroke="black" points="0,-0.5 0,-30.5 233,-30.5 233,-0.5 0,-0.5"/>
<text text-anchor="start" x="8" y="-18.5" font-family="Helvetica,sans-Serif" font-size="10.00">QuantConnect.Algorithm.Framework.</text>
<text text-anchor="middle" x="116.5" y="-7.5" font-family="Helvetica,sans-Serif" font-size="10.00">Alphas.HistoricalReturnsAlphaModel.Update</text>
</a>
</g>
</g>
<!-- Node2 -->
<g id="node2" class="node">
<title>Node2</title>
<g id="a_node2"><a xlink:href="classQuantConnect_1_1Algorithm_1_1Framework_1_1Alphas_1_1Insight.html#a7aabd7204fb675c3e47188a65d110716" target="_top" xlink:title="Creates a new insight for predicting the percent change in price over the specified period">
<polygon fill="white" stroke="black" points="269,-0.5 269,-30.5 466,-30.5 466,-0.5 269,-0.5"/>
<text text-anchor="start" x="277" y="-18.5" font-family="Helvetica,sans-Serif" font-size="10.00">QuantConnect.Algorithm.Framework.</text>
<text text-anchor="middle" x="367.5" y="-7.5" font-family="Helvetica,sans-Serif" font-size="10.00">Alphas.Insight.Price</text>
</a>
</g>
</g>
<!-- Node1&#45;&gt;Node2 -->
<g id="edge1" class="edge">
<title>Node1&#45;&gt;Node2</title>
<path fill="none" stroke="midnightblue" d="M233.25,-15.5C241.74,-15.5 250.28,-15.5 258.72,-15.5"/>
<polygon fill="midnightblue" stroke="midnightblue" points="258.95,-19 268.95,-15.5 258.95,-12 258.95,-19"/>
</g>
<!-- Node3 -->
<g id="node3" class="node">
<title>Node3</title>
<g id="a_node3"><a xlink:href="classQuantConnect_1_1Algorithm_1_1Framework_1_1Alphas_1_1Insight.html#af5a32362538f22f9f8708bd5e778cfc7" target="_top" xlink:title="Initializes a new instance of the Insight class">
<polygon fill="white" stroke="black" points="502,-0.5 502,-30.5 699,-30.5 699,-0.5 502,-0.5"/>
<text text-anchor="start" x="510" y="-18.5" font-family="Helvetica,sans-Serif" font-size="10.00">QuantConnect.Algorithm.Framework.</text>
<text text-anchor="middle" x="600.5" y="-7.5" font-family="Helvetica,sans-Serif" font-size="10.00">Alphas.Insight.Insight</text>
</a>
</g>
</g>
<!-- Node2&#45;&gt;Node3 -->
<g id="edge2" class="edge">
<title>Node2&#45;&gt;Node3</title>
<path fill="none" stroke="midnightblue" d="M466.13,-15.5C474.63,-15.5 483.25,-15.5 491.83,-15.5"/>
<polygon fill="midnightblue" stroke="midnightblue" points="491.85,-19 501.85,-15.5 491.85,-12 491.85,-19"/>
</g>
</g>
</svg>
