<?xml version="1.0" encoding="UTF-8" standalone="no"?>
<!DOCTYPE svg PUBLIC "-//W3C//DTD SVG 1.1//EN"
 "http://www.w3.org/Graphics/SVG/1.1/DTD/svg11.dtd">
<!-- Generated by graphviz version 2.43.0 (0)
 -->
<!-- Title: QuantConnect.Extensions.OrderTargetsByMarginImpact Pages: 1 -->
<svg width="377pt" height="100pt"
 viewBox="0.00 0.00 377.00 99.50" xmlns="http://www.w3.org/2000/svg" xmlns:xlink="http://www.w3.org/1999/xlink">
<g id="graph0" class="graph" transform="scale(1 1) rotate(0) translate(4 95.5)">
<title>QuantConnect.Extensions.OrderTargetsByMarginImpact</title>
<polygon fill="white" stroke="transparent" points="-4,4 -4,-95.5 373,-95.5 373,4 -4,4"/>
<!-- Node1 -->
<g id="node1" class="node">
<title>Node1</title>
<g id="a_node1"><a xlink:title="Returns an ordered enumerable where position reducing orders are executed first and the remaining ord...">
<polygon fill="#bfbfbf" stroke="black" points="0,-33 0,-63 159,-63 159,-33 0,-33"/>
<text text-anchor="start" x="8" y="-51" font-family="Helvetica,sans-Serif" font-size="10.00">QuantConnect.Extensions.</text>
<text text-anchor="middle" x="79.5" y="-40" font-family="Helvetica,sans-Serif" font-size="10.00">OrderTargetsByMarginImpact</text>
</a>
</g>
</g>
<!-- Node2 -->
<g id="node2" class="node">
<title>Node2</title>
<g id="a_node2"><a xlink:href="classQuantConnect_1_1Orders_1_1OrderSizing.html#aef2d6370075548b8f4d8a8dcb15062b7" target="_top" xlink:title="Adjusts the provided order quantity to respect the securities lot size. If the quantity is missing 1M...">
<polygon fill="white" stroke="black" points="206.5,-61 206.5,-91 357.5,-91 357.5,-61 206.5,-61"/>
<text text-anchor="start" x="214.5" y="-79" font-family="Helvetica,sans-Serif" font-size="10.00">QuantConnect.Orders.Order</text>
<text text-anchor="middle" x="282" y="-68" font-family="Helvetica,sans-Serif" font-size="10.00">Sizing.AdjustByLotSize</text>
</a>
</g>
</g>
<!-- Node1&#45;&gt;Node2 -->
<g id="edge1" class="edge">
<title>Node1&#45;&gt;Node2</title>
<path fill="none" stroke="midnightblue" d="M159.17,-58.99C171.34,-60.69 183.95,-62.45 196.25,-64.16"/>
<polygon fill="midnightblue" stroke="midnightblue" points="196.1,-67.68 206.49,-65.59 197.07,-60.75 196.1,-67.68"/>
</g>
<!-- Node3 -->
<g id="node3" class="node">
<title>Node3</title>
<g id="a_node3"><a xlink:href="classQuantConnect_1_1Securities_1_1SecurityTransactionManager.html#a40a5adc0c964d6f0f472f93fc56d4d53" target="_top" xlink:title="Get an enumerable of open OrderTicket for the specified symbol">
<polygon fill="white" stroke="black" points="195,-0.5 195,-41.5 369,-41.5 369,-0.5 195,-0.5"/>
<text text-anchor="start" x="203" y="-29.5" font-family="Helvetica,sans-Serif" font-size="10.00">QuantConnect.Securities.</text>
<text text-anchor="start" x="203" y="-18.5" font-family="Helvetica,sans-Serif" font-size="10.00">SecurityTransactionManager.Get</text>
<text text-anchor="middle" x="282" y="-7.5" font-family="Helvetica,sans-Serif" font-size="10.00">OpenOrderTickets</text>
</a>
</g>
</g>
<!-- Node1&#45;&gt;Node3 -->
<g id="edge2" class="edge">
<title>Node1&#45;&gt;Node3</title>
<path fill="none" stroke="midnightblue" d="M159.17,-37.41C167.6,-36.27 176.26,-35.11 184.87,-33.95"/>
<polygon fill="midnightblue" stroke="midnightblue" points="185.5,-37.39 194.94,-32.59 184.56,-30.45 185.5,-37.39"/>
</g>
</g>
</svg>
