<?xml version="1.0" encoding="UTF-8" standalone="no"?>
<!DOCTYPE svg PUBLIC "-//W3C//DTD SVG 1.1//EN"
 "http://www.w3.org/Graphics/SVG/1.1/DTD/svg11.dtd">
<!-- Generated by graphviz version 2.43.0 (0)
 -->
<!-- Title: QuantConnect.Securities.Positions.PositionGroupBuyingPowerModel Pages: 1 -->
<svg width="757pt" height="110pt"
 viewBox="0.00 0.00 757.00 110.00" xmlns="http://www.w3.org/2000/svg" xmlns:xlink="http://www.w3.org/1999/xlink">
<g id="graph0" class="graph" transform="scale(1 1) rotate(0) translate(4 106)">
<title>QuantConnect.Securities.Positions.PositionGroupBuyingPowerModel</title>
<polygon fill="white" stroke="transparent" points="-4,4 -4,-106 753,-106 753,4 -4,4"/>
<!-- Node1 -->
<g id="node1" class="node">
<title>Node1</title>
<g id="a_node1"><a xlink:title="Provides a base class for implementations of IPositionGroupBuyingPowerModel">
<polygon fill="#bfbfbf" stroke="black" points="375,-30.5 375,-71.5 541,-71.5 541,-30.5 375,-30.5"/>
<text text-anchor="start" x="383" y="-59.5" font-family="Helvetica,sans-Serif" font-size="10.00">QuantConnect.Securities.</text>
<text text-anchor="start" x="383" y="-48.5" font-family="Helvetica,sans-Serif" font-size="10.00">Positions.PositionGroupBuying</text>
<text text-anchor="middle" x="458" y="-37.5" font-family="Helvetica,sans-Serif" font-size="10.00">PowerModel</text>
</a>
</g>
</g>
<!-- Node4 -->
<g id="node4" class="node">
<title>Node4</title>
<g id="a_node4"><a xlink:href="classQuantConnect_1_1Securities_1_1Option_1_1OptionStrategyPositionGroupBuyingPowerModel.html" target="_top" xlink:title="Option strategy buying power model">
<polygon fill="white" stroke="black" points="581,-60.5 581,-101.5 745,-101.5 745,-60.5 581,-60.5"/>
<text text-anchor="start" x="589" y="-89.5" font-family="Helvetica,sans-Serif" font-size="10.00">QuantConnect.Securities.</text>
<text text-anchor="start" x="589" y="-78.5" font-family="Helvetica,sans-Serif" font-size="10.00">Option.OptionStrategyPosition</text>
<text text-anchor="middle" x="663" y="-67.5" font-family="Helvetica,sans-Serif" font-size="10.00">GroupBuyingPowerModel</text>
</a>
</g>
</g>
<!-- Node1&#45;&gt;Node4 -->
<g id="edge3" class="edge">
<title>Node1&#45;&gt;Node4</title>
<path fill="none" stroke="midnightblue" d="M551.46,-64.66C561.29,-66.12 571.24,-67.59 580.93,-69.02"/>
<polygon fill="midnightblue" stroke="midnightblue" points="551.68,-61.16 541.28,-63.16 550.66,-68.08 551.68,-61.16"/>
</g>
<!-- Node5 -->
<g id="node5" class="node">
<title>Node5</title>
<g id="a_node5"><a xlink:href="classQuantConnect_1_1Securities_1_1Positions_1_1SecurityPositionGroupBuyingPowerModel.html" target="_top" xlink:title="Provides an implementation of IPositionGroupBuyingPowerModel for groups containing exactly one securi...">
<polygon fill="white" stroke="black" points="577,-0.5 577,-41.5 749,-41.5 749,-0.5 577,-0.5"/>
<text text-anchor="start" x="585" y="-29.5" font-family="Helvetica,sans-Serif" font-size="10.00">QuantConnect.Securities.</text>
<text text-anchor="start" x="585" y="-18.5" font-family="Helvetica,sans-Serif" font-size="10.00">Positions.SecurityPositionGroup</text>
<text text-anchor="middle" x="663" y="-7.5" font-family="Helvetica,sans-Serif" font-size="10.00">BuyingPowerModel</text>
</a>
</g>
</g>
<!-- Node1&#45;&gt;Node5 -->
<g id="edge4" class="edge">
<title>Node1&#45;&gt;Node5</title>
<path fill="none" stroke="midnightblue" d="M551.27,-37.36C559.83,-36.1 568.47,-34.82 576.96,-33.57"/>
<polygon fill="midnightblue" stroke="midnightblue" points="550.66,-33.92 541.28,-38.84 551.68,-40.84 550.66,-33.92"/>
</g>
<!-- Node2 -->
<g id="node2" class="node">
<title>Node2</title>
<g id="a_node2"><a xlink:href="interfaceQuantConnect_1_1Securities_1_1Positions_1_1IPositionGroupBuyingPowerModel.html" target="_top" xlink:title="Represents a position group&#39;s model of buying power">
<polygon fill="white" stroke="black" points="187,-36 187,-66 339,-66 339,-36 187,-36"/>
<text text-anchor="start" x="195" y="-54" font-family="Helvetica,sans-Serif" font-size="10.00">IPositionGroupBuyingPower</text>
<text text-anchor="middle" x="263" y="-43" font-family="Helvetica,sans-Serif" font-size="10.00">Model</text>
</a>
</g>
</g>
<!-- Node2&#45;&gt;Node1 -->
<g id="edge1" class="edge">
<title>Node2&#45;&gt;Node1</title>
<path fill="none" stroke="midnightblue" d="M349.36,-51C357.77,-51 366.3,-51 374.68,-51"/>
<polygon fill="midnightblue" stroke="midnightblue" points="349.17,-47.5 339.17,-51 349.17,-54.5 349.17,-47.5"/>
</g>
<!-- Node3 -->
<g id="node3" class="node">
<title>Node3</title>
<g id="a_node3"><a xlink:title=" ">
<polygon fill="white" stroke="#bfbfbf" points="0,-36 0,-66 151,-66 151,-36 0,-36"/>
<text text-anchor="start" x="8" y="-54" font-family="Helvetica,sans-Serif" font-size="10.00">IEquatable&lt; IPositionGroup</text>
<text text-anchor="middle" x="75.5" y="-43" font-family="Helvetica,sans-Serif" font-size="10.00">BuyingPowerModel &gt;</text>
</a>
</g>
</g>
<!-- Node3&#45;&gt;Node2 -->
<g id="edge2" class="edge">
<title>Node3&#45;&gt;Node2</title>
<path fill="none" stroke="midnightblue" d="M161.16,-51C169.75,-51 178.43,-51 186.9,-51"/>
<polygon fill="midnightblue" stroke="midnightblue" points="161.15,-47.5 151.15,-51 161.15,-54.5 161.15,-47.5"/>
</g>
</g>
</svg>
