<?xml version="1.0" encoding="UTF-8" standalone="no"?>
<!DOCTYPE svg PUBLIC "-//W3C//DTD SVG 1.1//EN"
 "http://www.w3.org/Graphics/SVG/1.1/DTD/svg11.dtd">
<!-- Generated by graphviz version 2.43.0 (0)
 -->
<!-- Title: QuantConnect.Securities.BuyingPowerModel.GetMaximumOrderQuantityForTargetBuyingPower Pages: 1 -->
<!--zoomable 237 -->
<svg id="main" version="1.1" xmlns="http://www.w3.org/2000/svg" xmlns:xlink="http://www.w3.org/1999/xlink" xml:space="preserve" onload="init(evt)">
<style type="text/css"><![CDATA[
.edge:hover path { stroke: red; }
.edge:hover polygon { stroke: red; fill: red; }
]]></style>
<script type="text/javascript"><![CDATA[
var edges = document.getElementsByTagName('g');
if (edges && edges.length) {
  for (var i=0;i<edges.length;i++) {
    if (edges[i].id.substr(0,4)=='edge') {
      edges[i].setAttribute('class','edge');
    }
  }
}
]]></script>
        <defs>
                <circle id="rim" cx="0" cy="0" r="7"/>
                <circle id="rim2" cx="0" cy="0" r="3.5"/>
                <g id="zoomPlus">
                        <use xlink:href="#rim" fill="#404040">
                                <set attributeName="fill" to="#808080" begin="zoomplus.mouseover" end="zoomplus.mouseout"/>
                        </use>
                        <path d="M-4,0h8M0,-4v8" fill="none" stroke="white" stroke-width="1.5" pointer-events="none"/>
                </g>
                <g id="zoomMin">
                        <use xlink:href="#rim" fill="#404040">
                                <set attributeName="fill" to="#808080" begin="zoomminus.mouseover" end="zoomminus.mouseout"/>
                        </use>
                        <path d="M-4,0h8" fill="none" stroke="white" stroke-width="1.5" pointer-events="none"/>
                </g>
                <g id="dirArrow">
                        <path fill="none" stroke="white" stroke-width="1.5" d="M0,-3.0v7 M-2.5,-0.5L0,-3.0L2.5,-0.5"/>
                </g>
               <g id="resetDef">
                       <use xlink:href="#rim2" fill="#404040">
                               <set attributeName="fill" to="#808080" begin="reset.mouseover" end="reset.mouseout"/>
                       </use>
               </g>
        </defs>

<script type="text/javascript">
var viewWidth = 699;
var viewHeight = 237;
var sectionId = 'dynsection-10';
</script>
<script xlink:href="svgpan.js"/>
<svg id="graph" class="graph">
<g id="viewport">
<title>QuantConnect.Securities.BuyingPowerModel.GetMaximumOrderQuantityForTargetBuyingPower</title>
<polygon fill="white" stroke="transparent" points="-4,4 -4,-232.5 695,-232.5 695,4 -4,4"/>
<!-- Node1 -->
<g id="node1" class="node">
<title>Node1</title>
<g id="a_node1"><a xlink:title="Get the maximum market order quantity to obtain a position with a given buying power percentage....">
<polygon fill="#bfbfbf" stroke="black" points="0,-83 0,-124 207,-124 207,-83 0,-83"/>
<text text-anchor="start" x="8" y="-112" font-family="Helvetica,sans-Serif" font-size="10.00">QuantConnect.Securities.</text>
<text text-anchor="start" x="8" y="-101" font-family="Helvetica,sans-Serif" font-size="10.00">BuyingPowerModel.GetMaximumOrder</text>
<text text-anchor="middle" x="103.5" y="-90" font-family="Helvetica,sans-Serif" font-size="10.00">QuantityForTargetBuyingPower</text>
</a>
</g>
</g>
<!-- Node2 -->
<g id="node2" class="node">
<title>Node2</title>
<g id="a_node2"><a xlink:href="classQuantConnect_1_1Securities_1_1BuyingPowerModelExtensions.html#adecc3ccbaa197cbacbfb4c6e9cba9b0d" target="_top" xlink:title="Helper method to determine if the requested quantity is above the algorithm minimum order margin port...">
<polygon fill="white" stroke="black" points="243,-187 243,-228 463,-228 463,-187 243,-187"/>
<text text-anchor="start" x="251" y="-216" font-family="Helvetica,sans-Serif" font-size="10.00">QuantConnect.Securities.</text>
<text text-anchor="start" x="251" y="-205" font-family="Helvetica,sans-Serif" font-size="10.00">BuyingPowerModelExtensions.Above</text>
<text text-anchor="middle" x="353" y="-194" font-family="Helvetica,sans-Serif" font-size="10.00">MinimumOrderMarginPortfolioPercentage</text>
</a>
</g>
</g>
<!-- Node1&#45;&gt;Node2 -->
<g id="edge1" class="edge">
<title>Node1&#45;&gt;Node2</title>
<path fill="none" stroke="midnightblue" d="M137.92,-124.08C165.36,-140.3 205.65,-162.6 243,-177.5 248.49,-179.69 254.19,-181.78 259.99,-183.76"/>
<polygon fill="midnightblue" stroke="midnightblue" points="259.21,-187.19 269.81,-187 261.4,-180.54 259.21,-187.19"/>
</g>
<!-- Node4 -->
<g id="node4" class="node">
<title>Node4</title>
<g id="a_node4"><a xlink:href="classQuantConnect_1_1Securities_1_1CashBook.html#a439b770734d62b9b60bd06a56fbdbb1c" target="_top" xlink:title="Converts a quantity of source currency units into the account currency">
<polygon fill="white" stroke="black" points="253,-137.5 253,-167.5 453,-167.5 453,-137.5 253,-137.5"/>
<text text-anchor="start" x="261" y="-155.5" font-family="Helvetica,sans-Serif" font-size="10.00">QuantConnect.Securities.</text>
<text text-anchor="middle" x="353" y="-144.5" font-family="Helvetica,sans-Serif" font-size="10.00">CashBook.ConvertToAccountCurrency</text>
</a>
</g>
</g>
<!-- Node1&#45;&gt;Node4 -->
<g id="edge3" class="edge">
<title>Node1&#45;&gt;Node4</title>
<path fill="none" stroke="midnightblue" d="M207.31,-123.85C226.79,-127.71 246.98,-131.71 265.87,-135.45"/>
<polygon fill="midnightblue" stroke="midnightblue" points="265.43,-138.93 275.92,-137.44 266.79,-132.06 265.43,-138.93"/>
</g>
<!-- Node6 -->
<g id="node6" class="node">
<title>Node6</title>
<g id="a_node6"><a xlink:href="classQuantConnect_1_1Securities_1_1BuyingPowerModel.html#a6fb319ab1565fa5c2a40fef7ea694dff" target="_top" xlink:title="Helper function that determines the amount to order to get to a given target safely....">
<polygon fill="white" stroke="black" points="250,-88.5 250,-118.5 456,-118.5 456,-88.5 250,-88.5"/>
<text text-anchor="start" x="258" y="-106.5" font-family="Helvetica,sans-Serif" font-size="10.00">QuantConnect.Securities.</text>
<text text-anchor="middle" x="353" y="-95.5" font-family="Helvetica,sans-Serif" font-size="10.00">BuyingPowerModel.GetAmountToOrder</text>
</a>
</g>
</g>
<!-- Node1&#45;&gt;Node6 -->
<g id="edge5" class="edge">
<title>Node1&#45;&gt;Node6</title>
<path fill="none" stroke="midnightblue" d="M207.31,-103.5C217.98,-103.5 228.86,-103.5 239.63,-103.5"/>
<polygon fill="midnightblue" stroke="midnightblue" points="239.91,-107 249.91,-103.5 239.91,-100 239.91,-107"/>
</g>
<!-- Node7 -->
<g id="node7" class="node">
<title>Node7</title>
<g id="a_node7"><a xlink:href="classQuantConnect_1_1Securities_1_1BuyingPowerModel.html#a662d7e6905d1818ee738b142a05399af" target="_top" xlink:title="The margin that must be held in order to increase the position by the provided quantity">
<polygon fill="white" stroke="black" points="499,-58 499,-99 691,-99 691,-58 499,-58"/>
<text text-anchor="start" x="507" y="-87" font-family="Helvetica,sans-Serif" font-size="10.00">QuantConnect.Securities.</text>
<text text-anchor="start" x="507" y="-76" font-family="Helvetica,sans-Serif" font-size="10.00">BuyingPowerModel.GetInitialMargin</text>
<text text-anchor="middle" x="595" y="-65" font-family="Helvetica,sans-Serif" font-size="10.00">Requirement</text>
</a>
</g>
</g>
<!-- Node1&#45;&gt;Node7 -->
<g id="edge7" class="edge">
<title>Node1&#45;&gt;Node7</title>
<path fill="none" stroke="midnightblue" d="M206.33,-82.99C218.64,-81.14 231.08,-79.57 243,-78.5 325.29,-71.13 418.87,-71.57 488.7,-73.61"/>
<polygon fill="midnightblue" stroke="midnightblue" points="488.72,-77.11 498.82,-73.92 488.94,-70.12 488.72,-77.11"/>
</g>
<!-- Node8 -->
<g id="node8" class="node">
<title>Node8</title>
<g id="a_node8"><a xlink:href="interfaceQuantConnect_1_1Orders_1_1Fees_1_1IFeeModel.html#ab0bf50e204c8c07f1d37fd7680f23e59" target="_top" xlink:title="Gets the order fee associated with the specified order.">
<polygon fill="white" stroke="black" points="278.5,-0.5 278.5,-30.5 427.5,-30.5 427.5,-0.5 278.5,-0.5"/>
<text text-anchor="start" x="286.5" y="-18.5" font-family="Helvetica,sans-Serif" font-size="10.00">QuantConnect.Orders.Fees.</text>
<text text-anchor="middle" x="353" y="-7.5" font-family="Helvetica,sans-Serif" font-size="10.00">IFeeModel.GetOrderFee</text>
</a>
</g>
</g>
<!-- Node1&#45;&gt;Node8 -->
<g id="edge8" class="edge">
<title>Node1&#45;&gt;Node8</title>
<path fill="none" stroke="midnightblue" d="M149.47,-82.95C176.29,-71.12 211.21,-56.48 243,-45.5 255.49,-41.19 268.95,-37.06 282.01,-33.33"/>
<polygon fill="midnightblue" stroke="midnightblue" points="283.21,-36.63 291.89,-30.56 281.32,-29.89 283.21,-36.63"/>
</g>
<!-- Node3 -->
<g id="node3" class="node">
<title>Node3</title>
<g id="a_node3"><a xlink:href="interfaceQuantConnect_1_1Securities_1_1IBuyingPowerModel.html#ae4a939584ffb7a7d468023f57dba17be" target="_top" xlink:title="The margin that must be held in order to increase the position by the provided quantity">
<polygon fill="white" stroke="black" points="514.5,-187 514.5,-228 675.5,-228 675.5,-187 514.5,-187"/>
<text text-anchor="start" x="522.5" y="-216" font-family="Helvetica,sans-Serif" font-size="10.00">QuantConnect.Securities.</text>
<text text-anchor="start" x="522.5" y="-205" font-family="Helvetica,sans-Serif" font-size="10.00">IBuyingPowerModel.GetInitial</text>
<text text-anchor="middle" x="595" y="-194" font-family="Helvetica,sans-Serif" font-size="10.00">MarginRequirement</text>
</a>
</g>
</g>
<!-- Node2&#45;&gt;Node3 -->
<g id="edge2" class="edge">
<title>Node2&#45;&gt;Node3</title>
<path fill="none" stroke="midnightblue" d="M463.11,-207.5C476.83,-207.5 490.74,-207.5 504.11,-207.5"/>
<polygon fill="midnightblue" stroke="midnightblue" points="504.22,-211 514.22,-207.5 504.22,-204 504.22,-211"/>
</g>
<!-- Node5 -->
<g id="node5" class="node">
<title>Node5</title>
<g id="a_node5"><a xlink:href="classQuantConnect_1_1Securities_1_1CashBook.html#a3a2cfc4aac92b0740a9bad6c94b42d3b" target="_top" xlink:title="Converts a quantity of source currency units into the specified destination currency">
<polygon fill="white" stroke="black" points="525,-137.5 525,-167.5 665,-167.5 665,-137.5 525,-137.5"/>
<text text-anchor="start" x="533" y="-155.5" font-family="Helvetica,sans-Serif" font-size="10.00">QuantConnect.Securities.</text>
<text text-anchor="middle" x="595" y="-144.5" font-family="Helvetica,sans-Serif" font-size="10.00">CashBook.Convert</text>
</a>
</g>
</g>
<!-- Node4&#45;&gt;Node5 -->
<g id="edge4" class="edge">
<title>Node4&#45;&gt;Node5</title>
<path fill="none" stroke="midnightblue" d="M453,-152.5C473.56,-152.5 494.98,-152.5 514.72,-152.5"/>
<polygon fill="midnightblue" stroke="midnightblue" points="514.88,-156 524.88,-152.5 514.88,-149 514.88,-156"/>
</g>
<!-- Node6&#45;&gt;Node7 -->
<g id="edge6" class="edge">
<title>Node6&#45;&gt;Node7</title>
<path fill="none" stroke="midnightblue" d="M456.13,-92.86C466.86,-91.74 477.79,-90.61 488.56,-89.48"/>
<polygon fill="midnightblue" stroke="midnightblue" points="489.24,-92.93 498.82,-88.41 488.51,-85.97 489.24,-92.93"/>
</g>
</g>
</svg>
        <g id="navigator" transform="translate(0 0)" fill="#404254">
                <rect fill="#f2f5e9" fill-opacity="0.5" stroke="#606060" stroke-width=".5" x="0" y="0" width="60" height="60"/>
                <use id="zoomplus" xlink:href="#zoomPlus" x="17" y="9" onmousedown="handleZoom(evt,'in')"/>
                <use id="zoomminus" xlink:href="#zoomMin" x="42" y="9" onmousedown="handleZoom(evt,'out')"/>
                <use id="reset" xlink:href="#resetDef" x="30" y="36" onmousedown="handleReset()"/>
                <g id="arrowUp" xlink:href="#dirArrow" transform="translate(30 24)" onmousedown="handlePan(0,-1)">
                  <use xlink:href="#rim" fill="#404040">
                        <set attributeName="fill" to="#808080" begin="arrowUp.mouseover" end="arrowUp.mouseout"/>
                  </use>
                  <path fill="none" stroke="white" stroke-width="1.5" d="M0,-3.0v7 M-2.5,-0.5L0,-3.0L2.5,-0.5"/>
                </g>
                <g id="arrowRight" xlink:href="#dirArrow" transform="rotate(90) translate(36 -43)" onmousedown="handlePan(1,0)">
                  <use xlink:href="#rim" fill="#404040">
                        <set attributeName="fill" to="#808080" begin="arrowRight.mouseover" end="arrowRight.mouseout"/>
                  </use>
                  <path fill="none" stroke="white" stroke-width="1.5" d="M0,-3.0v7 M-2.5,-0.5L0,-3.0L2.5,-0.5"/>
                </g>
                <g id="arrowDown" xlink:href="#dirArrow" transform="rotate(180) translate(-30 -48)" onmousedown="handlePan(0,1)">
                  <use xlink:href="#rim" fill="#404040">
                        <set attributeName="fill" to="#808080" begin="arrowDown.mouseover" end="arrowDown.mouseout"/>
                  </use>
                  <path fill="none" stroke="white" stroke-width="1.5" d="M0,-3.0v7 M-2.5,-0.5L0,-3.0L2.5,-0.5"/>
                </g>
                <g id="arrowLeft" xlink:href="#dirArrow" transform="rotate(270) translate(-36 17)" onmousedown="handlePan(-1,0)">
                  <use xlink:href="#rim" fill="#404040">
                        <set attributeName="fill" to="#808080" begin="arrowLeft.mouseover" end="arrowLeft.mouseout"/>
                  </use>
                  <path fill="none" stroke="white" stroke-width="1.5" d="M0,-3.0v7 M-2.5,-0.5L0,-3.0L2.5,-0.5"/>
                </g>
        </g>
        <svg viewBox="0 0 15 15" width="100%" height="30px" preserveAspectRatio="xMaxYMin meet">
         <g id="arrow_out" transform="scale(0.3 0.3)">
          <a xlink:href="classQuantConnect_1_1Securities_1_1BuyingPowerModel_ac77dd32649e7d51e54d52b2d3b695afc_cgraph_org.svg" target="_base">
           <rect id="button" ry="5" rx="5" y="6" x="6" height="38" width="38"
                fill="#f2f5e9" fill-opacity="0.5" stroke="#606060" stroke-width="1.0"/>
           <path id="arrow"
             d="M 11.500037,31.436501 C 11.940474,20.09759 22.043105,11.32322 32.158766,21.979434 L 37.068811,17.246167 C 37.068811,17.246167 37.088388,32 37.088388,32 L 22.160133,31.978069 C 22.160133,31.978069 26.997745,27.140456 26.997745,27.140456 C 18.528582,18.264221 13.291696,25.230495 11.500037,31.436501 z"
             style="fill:#404040;"/>
          </a>
         </g>
        </svg>
</svg>
