<?xml version="1.0" encoding="UTF-8" standalone="no"?>
<!DOCTYPE svg PUBLIC "-//W3C//DTD SVG 1.1//EN"
 "http://www.w3.org/Graphics/SVG/1.1/DTD/svg11.dtd">
<!-- Generated by graphviz version 2.43.0 (0)
 -->
<!-- Title: QuantConnect.Lean.Engine.DataFeeds.SubscriptionUtils.CreateAndScheduleWorker Pages: 1 -->
<svg width="1087pt" height="296pt"
 viewBox="0.00 0.00 1087.00 295.50" xmlns="http://www.w3.org/2000/svg" xmlns:xlink="http://www.w3.org/1999/xlink">
<g id="graph0" class="graph" transform="scale(1 1) rotate(0) translate(4 291.5)">
<title>QuantConnect.Lean.Engine.DataFeeds.SubscriptionUtils.CreateAndScheduleWorker</title>
<polygon fill="white" stroke="transparent" points="-4,4 -4,-291.5 1083,-291.5 1083,4 -4,4"/>
<!-- Node1 -->
<g id="node1" class="node">
<title>Node1</title>
<g id="a_node1"><a xlink:title="Setups a new Subscription which will consume a blocking EnqueueableEnumerator&lt;T&gt; that will be feed by...">
<polygon fill="#bfbfbf" stroke="black" points="0,-79.5 0,-120.5 189,-120.5 189,-79.5 0,-79.5"/>
<text text-anchor="start" x="8" y="-108.5" font-family="Helvetica,sans-Serif" font-size="10.00">QuantConnect.Lean.Engine.</text>
<text text-anchor="start" x="8" y="-97.5" font-family="Helvetica,sans-Serif" font-size="10.00">DataFeeds.SubscriptionUtils.Create</text>
<text text-anchor="middle" x="94.5" y="-86.5" font-family="Helvetica,sans-Serif" font-size="10.00">AndScheduleWorker</text>
</a>
</g>
</g>
<!-- Node2 -->
<g id="node2" class="node">
<title>Node2</title>
<g id="a_node2"><a xlink:href="classQuantConnect_1_1Lean_1_1Engine_1_1DataFeeds_1_1SubscriptionData.html#af428c63e5ddb26c657ae99caf153db59" target="_top" xlink:title="Clones the data, computes the utc emit time and performs exchange round down behavior,...">
<polygon fill="white" stroke="black" points="229,-183 229,-213 419,-213 419,-183 229,-183"/>
<text text-anchor="start" x="237" y="-201" font-family="Helvetica,sans-Serif" font-size="10.00">QuantConnect.Lean.Engine.</text>
<text text-anchor="middle" x="324" y="-190" font-family="Helvetica,sans-Serif" font-size="10.00">DataFeeds.SubscriptionData.Create</text>
</a>
</g>
</g>
<!-- Node1&#45;&gt;Node2 -->
<g id="edge1" class="edge">
<title>Node1&#45;&gt;Node2</title>
<path fill="none" stroke="midnightblue" d="M143.19,-120.54C183.07,-137.72 239.52,-162.04 278.49,-178.82"/>
<polygon fill="midnightblue" stroke="midnightblue" points="277.43,-182.18 287.99,-182.92 280.19,-175.75 277.43,-182.18"/>
</g>
<!-- Node9 -->
<g id="node9" class="node">
<title>Node9</title>
<g id="a_node9"><a xlink:href="classQuantConnect_1_1Logging_1_1Log.html#af0e7955911bc7664b37661b2a303a9e3" target="_top" xlink:title="Log error">
<polygon fill="white" stroke="black" points="249,-110 249,-140 399,-140 399,-110 249,-110"/>
<text text-anchor="start" x="257" y="-128" font-family="Helvetica,sans-Serif" font-size="10.00">QuantConnect.Logging.Log.</text>
<text text-anchor="middle" x="324" y="-117" font-family="Helvetica,sans-Serif" font-size="10.00">Error</text>
</a>
</g>
</g>
<!-- Node1&#45;&gt;Node9 -->
<g id="edge8" class="edge">
<title>Node1&#45;&gt;Node9</title>
<path fill="none" stroke="midnightblue" d="M189.02,-110.28C205.56,-112.09 222.69,-113.98 238.96,-115.76"/>
<polygon fill="midnightblue" stroke="midnightblue" points="238.63,-119.25 248.95,-116.86 239.4,-112.29 238.63,-119.25"/>
</g>
<!-- Node11 -->
<g id="node11" class="node">
<title>Node11</title>
<g id="a_node11"><a xlink:href="interfaceQuantConnect_1_1Interfaces_1_1IFactorFileProvider.html#abb71d95ca43dceef129a4c55e255fff7" target="_top" xlink:title="Gets a FactorFile instance for the specified symbol, or null if not found">
<polygon fill="white" stroke="black" points="254,-61 254,-91 394,-91 394,-61 254,-61"/>
<text text-anchor="start" x="262" y="-79" font-family="Helvetica,sans-Serif" font-size="10.00">QuantConnect.Interfaces.</text>
<text text-anchor="middle" x="324" y="-68" font-family="Helvetica,sans-Serif" font-size="10.00">IFactorFileProvider.Get</text>
</a>
</g>
</g>
<!-- Node1&#45;&gt;Node11 -->
<g id="edge10" class="edge">
<title>Node1&#45;&gt;Node11</title>
<path fill="none" stroke="midnightblue" d="M189.02,-90.13C207.15,-88.22 225.99,-86.23 243.62,-84.37"/>
<polygon fill="midnightblue" stroke="midnightblue" points="244.27,-87.83 253.84,-83.3 243.53,-80.86 244.27,-87.83"/>
</g>
<!-- Node12 -->
<g id="node12" class="node">
<title>Node12</title>
<g id="a_node12"><a xlink:href="classQuantConnect_1_1Lean_1_1Engine_1_1DataFeeds_1_1WorkScheduling_1_1WeightedWorkScheduler.html#a774828e91208c56770b999f6c20f3654" target="_top" xlink:title="Add a new work item to the queue">
<polygon fill="white" stroke="black" points="225,-0.5 225,-41.5 423,-41.5 423,-0.5 225,-0.5"/>
<text text-anchor="start" x="233" y="-29.5" font-family="Helvetica,sans-Serif" font-size="10.00">QuantConnect.Lean.Engine.</text>
<text text-anchor="start" x="233" y="-18.5" font-family="Helvetica,sans-Serif" font-size="10.00">DataFeeds.WorkScheduling.Weighted</text>
<text text-anchor="middle" x="324" y="-7.5" font-family="Helvetica,sans-Serif" font-size="10.00">WorkScheduler.QueueWork</text>
</a>
</g>
</g>
<!-- Node1&#45;&gt;Node12 -->
<g id="edge11" class="edge">
<title>Node1&#45;&gt;Node12</title>
<path fill="none" stroke="midnightblue" d="M147.52,-79.44C171.05,-70.36 199.3,-59.79 225,-51 231.28,-48.85 237.81,-46.7 244.38,-44.58"/>
<polygon fill="midnightblue" stroke="midnightblue" points="245.55,-47.88 254.02,-41.5 243.43,-41.21 245.55,-47.88"/>
</g>
<!-- Node3 -->
<g id="node3" class="node">
<title>Node3</title>
<g id="a_node3"><a xlink:href="classQuantConnect_1_1Data_1_1BaseData.html#af8622cdfef34470fda9fd08d2f4c02b7" target="_top" xlink:title="Return a new instance clone of this object, used in fill forward">
<polygon fill="white" stroke="black" points="497,-257 497,-287 662,-287 662,-257 497,-257"/>
<text text-anchor="start" x="505" y="-275" font-family="Helvetica,sans-Serif" font-size="10.00">QuantConnect.Data.BaseData.</text>
<text text-anchor="middle" x="579.5" y="-264" font-family="Helvetica,sans-Serif" font-size="10.00">Clone</text>
</a>
</g>
</g>
<!-- Node2&#45;&gt;Node3 -->
<g id="edge2" class="edge">
<title>Node2&#45;&gt;Node3</title>
<path fill="none" stroke="midnightblue" d="M360.6,-213.05C387.31,-223.91 424.97,-238.3 459,-248 467.99,-250.56 477.43,-252.95 486.9,-255.16"/>
<polygon fill="midnightblue" stroke="midnightblue" points="486.24,-258.6 496.77,-257.39 487.78,-251.77 486.24,-258.6"/>
</g>
<!-- Node6 -->
<g id="node6" class="node">
<title>Node6</title>
<g id="a_node6"><a xlink:href="classQuantConnect_1_1TimeZoneOffsetProvider.html#a9d630077c5043b0ed30219686cf60338" target="_top" xlink:title="Converts the specified local time to UTC. This function will advance this offset provider">
<polygon fill="white" stroke="black" points="496,-208 496,-238 663,-238 663,-208 496,-208"/>
<text text-anchor="start" x="504" y="-226" font-family="Helvetica,sans-Serif" font-size="10.00">QuantConnect.TimeZoneOffset</text>
<text text-anchor="middle" x="579.5" y="-215" font-family="Helvetica,sans-Serif" font-size="10.00">Provider.ConvertToUtc</text>
</a>
</g>
</g>
<!-- Node2&#45;&gt;Node6 -->
<g id="edge5" class="edge">
<title>Node2&#45;&gt;Node6</title>
<path fill="none" stroke="midnightblue" d="M419.03,-207.27C440.81,-209.42 463.96,-211.7 485.69,-213.85"/>
<polygon fill="midnightblue" stroke="midnightblue" points="485.59,-217.35 495.89,-214.85 486.28,-210.39 485.59,-217.35"/>
</g>
<!-- Node8 -->
<g id="node8" class="node">
<title>Node8</title>
<g id="a_node8"><a xlink:href="classQuantConnect_1_1Lean_1_1Engine_1_1DataFeeds_1_1SubscriptionData.html#a37b6b43caa475f27a3775a3b3241a8de" target="_top" xlink:title="Initializes a new instance of the SubscriptionData class">
<polygon fill="white" stroke="black" points="459,-159 459,-189 700,-189 700,-159 459,-159"/>
<text text-anchor="start" x="467" y="-177" font-family="Helvetica,sans-Serif" font-size="10.00">QuantConnect.Lean.Engine.</text>
<text text-anchor="middle" x="579.5" y="-166" font-family="Helvetica,sans-Serif" font-size="10.00">DataFeeds.SubscriptionData.SubscriptionData</text>
</a>
</g>
</g>
<!-- Node2&#45;&gt;Node8 -->
<g id="edge7" class="edge">
<title>Node2&#45;&gt;Node8</title>
<path fill="none" stroke="midnightblue" d="M419.03,-189.1C428.76,-188.18 438.75,-187.23 448.78,-186.28"/>
<polygon fill="midnightblue" stroke="midnightblue" points="449.17,-189.76 458.8,-185.33 448.51,-182.79 449.17,-189.76"/>
</g>
<!-- Node4 -->
<g id="node4" class="node">
<title>Node4</title>
<g id="a_node4"><a xlink:href="classQuantConnect_1_1Data_1_1BaseData.html#af973f9d8b7c0726fed42fa03ccd5f963" target="_top" xlink:title="Return a new instance clone of this object, used in fill forward">
<polygon fill="white" stroke="black" points="737,-257 737,-287 902,-287 902,-257 737,-257"/>
<text text-anchor="start" x="745" y="-275" font-family="Helvetica,sans-Serif" font-size="10.00">QuantConnect.Data.BaseData.</text>
<text text-anchor="middle" x="819.5" y="-264" font-family="Helvetica,sans-Serif" font-size="10.00">Clone</text>
</a>
</g>
</g>
<!-- Node3&#45;&gt;Node4 -->
<g id="edge3" class="edge">
<title>Node3&#45;&gt;Node4</title>
<path fill="none" stroke="midnightblue" d="M662.07,-272C682.87,-272 705.36,-272 726.63,-272"/>
<polygon fill="midnightblue" stroke="midnightblue" points="726.63,-275.5 736.63,-272 726.63,-268.5 726.63,-275.5"/>
</g>
<!-- Node5 -->
<g id="node5" class="node">
<title>Node5</title>
<g id="a_node5"><a xlink:href="classQuantConnect_1_1Util_1_1ObjectActivator.html#abcd1c91f67b9d78743601743d663cd10" target="_top" xlink:title="Clones the specified instance using reflection">
<polygon fill="white" stroke="black" points="939,-257 939,-287 1079,-287 1079,-257 939,-257"/>
<text text-anchor="start" x="947" y="-275" font-family="Helvetica,sans-Serif" font-size="10.00">QuantConnect.Util.Object</text>
<text text-anchor="middle" x="1009" y="-264" font-family="Helvetica,sans-Serif" font-size="10.00">Activator.Clone</text>
</a>
</g>
</g>
<!-- Node4&#45;&gt;Node5 -->
<g id="edge4" class="edge">
<title>Node4&#45;&gt;Node5</title>
<path fill="none" stroke="midnightblue" d="M902.19,-272C910.99,-272 919.93,-272 928.7,-272"/>
<polygon fill="midnightblue" stroke="midnightblue" points="928.89,-275.5 938.89,-272 928.89,-268.5 928.89,-275.5"/>
</g>
<!-- Node7 -->
<g id="node7" class="node">
<title>Node7</title>
<g id="a_node7"><a xlink:href="classQuantConnect_1_1TimeZoneOffsetProvider.html#a0fa8c04313b1edd87eb5908e7cca1b5a" target="_top" xlink:title="Gets the offset in ticks from this time zone to UTC, such that UTC time + offset = local time">
<polygon fill="white" stroke="black" points="736,-208 736,-238 903,-238 903,-208 736,-208"/>
<text text-anchor="start" x="744" y="-226" font-family="Helvetica,sans-Serif" font-size="10.00">QuantConnect.TimeZoneOffset</text>
<text text-anchor="middle" x="819.5" y="-215" font-family="Helvetica,sans-Serif" font-size="10.00">Provider.GetOffsetTicks</text>
</a>
</g>
</g>
<!-- Node6&#45;&gt;Node7 -->
<g id="edge6" class="edge">
<title>Node6&#45;&gt;Node7</title>
<path fill="none" stroke="midnightblue" d="M663.07,-223C683.26,-223 705,-223 725.64,-223"/>
<polygon fill="midnightblue" stroke="midnightblue" points="725.67,-226.5 735.67,-223 725.67,-219.5 725.67,-226.5"/>
</g>
<!-- Node10 -->
<g id="node10" class="node">
<title>Node10</title>
<g id="a_node10"><a xlink:href="interfaceQuantConnect_1_1Logging_1_1ILogHandler.html#a35373a0c5d76031fa5ccf5dc39e5c25d" target="_top" xlink:title="Write error message to log">
<polygon fill="white" stroke="black" points="504.5,-110 504.5,-140 654.5,-140 654.5,-110 504.5,-110"/>
<text text-anchor="start" x="512.5" y="-128" font-family="Helvetica,sans-Serif" font-size="10.00">QuantConnect.Logging.ILog</text>
<text text-anchor="middle" x="579.5" y="-117" font-family="Helvetica,sans-Serif" font-size="10.00">Handler.Error</text>
</a>
</g>
</g>
<!-- Node9&#45;&gt;Node10 -->
<g id="edge9" class="edge">
<title>Node9&#45;&gt;Node10</title>
<path fill="none" stroke="midnightblue" d="M399,-125C428.81,-125 463.35,-125 494.12,-125"/>
<polygon fill="midnightblue" stroke="midnightblue" points="494.4,-128.5 504.4,-125 494.4,-121.5 494.4,-128.5"/>
</g>
</g>
</svg>
