<?xml version="1.0" encoding="UTF-8" standalone="no"?>
<!DOCTYPE svg PUBLIC "-//W3C//DTD SVG 1.1//EN"
 "http://www.w3.org/Graphics/SVG/1.1/DTD/svg11.dtd">
<!-- Generated by graphviz version 2.43.0 (0)
 -->
<!-- Title: QuantConnect.Algorithm.Framework.Portfolio.RiskParityPortfolioOptimizer.Optimize Pages: 1 -->
<svg width="448pt" height="50pt"
 viewBox="0.00 0.00 448.00 50.00" xmlns="http://www.w3.org/2000/svg" xmlns:xlink="http://www.w3.org/1999/xlink">
<g id="graph0" class="graph" transform="scale(1 1) rotate(0) translate(4 46)">
<title>QuantConnect.Algorithm.Framework.Portfolio.RiskParityPortfolioOptimizer.Optimize</title>
<polygon fill="white" stroke="transparent" points="-4,4 -4,-46 444,-46 444,4 -4,4"/>
<!-- Node1 -->
<g id="node1" class="node">
<title>Node1</title>
<g id="a_node1"><a xlink:title="Perform portfolio optimization for a provided matrix of historical returns and an array of expected r...">
<polygon fill="#bfbfbf" stroke="black" points="0,-0.5 0,-41.5 201,-41.5 201,-0.5 0,-0.5"/>
<text text-anchor="start" x="8" y="-29.5" font-family="Helvetica,sans-Serif" font-size="10.00">QuantConnect.Algorithm.Framework.</text>
<text text-anchor="start" x="8" y="-18.5" font-family="Helvetica,sans-Serif" font-size="10.00">Portfolio.RiskParityPortfolioOptimizer.</text>
<text text-anchor="middle" x="100.5" y="-7.5" font-family="Helvetica,sans-Serif" font-size="10.00">Optimize</text>
</a>
</g>
</g>
<!-- Node2 -->
<g id="node2" class="node">
<title>Node2</title>
<g id="a_node2"><a xlink:href="classQuantConnect_1_1Algorithm_1_1Framework_1_1Portfolio_1_1RiskParityPortfolioOptimizer.html#a2b0778bc9434e2288d0d8ffd2a5b66c1" target="_top" xlink:title="Newton method of minimization">
<polygon fill="white" stroke="black" points="237,-0.5 237,-41.5 440,-41.5 440,-0.5 237,-0.5"/>
<text text-anchor="start" x="245" y="-29.5" font-family="Helvetica,sans-Serif" font-size="10.00">QuantConnect.Algorithm.Framework.</text>
<text text-anchor="start" x="245" y="-18.5" font-family="Helvetica,sans-Serif" font-size="10.00">Portfolio.RiskParityPortfolioOptimizer.</text>
<text text-anchor="middle" x="338.5" y="-7.5" font-family="Helvetica,sans-Serif" font-size="10.00">RiskParityNewtonMethodOptimization</text>
</a>
</g>
</g>
<!-- Node1&#45;&gt;Node2 -->
<g id="edge1" class="edge">
<title>Node1&#45;&gt;Node2</title>
<path fill="none" stroke="midnightblue" d="M201.24,-21C209.74,-21 218.37,-21 226.95,-21"/>
<polygon fill="midnightblue" stroke="midnightblue" points="226.98,-24.5 236.98,-21 226.98,-17.5 226.98,-24.5"/>
</g>
</g>
</svg>
