<?xml version="1.0" encoding="UTF-8" standalone="no"?>
<!DOCTYPE svg PUBLIC "-//W3C//DTD SVG 1.1//EN"
 "http://www.w3.org/Graphics/SVG/1.1/DTD/svg11.dtd">
<!-- Generated by graphviz version 2.43.0 (0)
 -->
<!-- Title: QuantConnect.ToolBox.IEX.IEXDataDownloader.Get Pages: 1 -->
<svg width="831pt" height="100pt"
 viewBox="0.00 0.00 831.00 99.50" xmlns="http://www.w3.org/2000/svg" xmlns:xlink="http://www.w3.org/1999/xlink">
<g id="graph0" class="graph" transform="scale(1 1) rotate(0) translate(4 95.5)">
<title>QuantConnect.ToolBox.IEX.IEXDataDownloader.Get</title>
<polygon fill="white" stroke="transparent" points="-4,4 -4,-95.5 827,-95.5 827,4 -4,4"/>
<!-- Node1 -->
<g id="node1" class="node">
<title>Node1</title>
<g id="a_node1"><a xlink:title="Get historical data enumerable for a single symbol, type and resolution given this start and end time...">
<polygon fill="#bfbfbf" stroke="black" points="0,-33 0,-63 149,-63 149,-33 0,-33"/>
<text text-anchor="start" x="8" y="-51" font-family="Helvetica,sans-Serif" font-size="10.00">QuantConnect.ToolBox.IEX.</text>
<text text-anchor="middle" x="74.5" y="-40" font-family="Helvetica,sans-Serif" font-size="10.00">IEXDataDownloader.Get</text>
</a>
</g>
</g>
<!-- Node2 -->
<g id="node2" class="node">
<title>Node2</title>
<g id="a_node2"><a xlink:href="classQuantConnect_1_1Securities_1_1SecurityExchangeHours.html#af6f527fdfc92b5801026340fd4114a4a" target="_top" xlink:title="Gets a SecurityExchangeHours instance that is always open">
<polygon fill="white" stroke="black" points="185,-33 185,-63 381,-63 381,-33 185,-33"/>
<text text-anchor="start" x="193" y="-51" font-family="Helvetica,sans-Serif" font-size="10.00">QuantConnect.Securities.</text>
<text text-anchor="middle" x="283" y="-40" font-family="Helvetica,sans-Serif" font-size="10.00">SecurityExchangeHours.AlwaysOpen</text>
</a>
</g>
</g>
<!-- Node1&#45;&gt;Node2 -->
<g id="edge1" class="edge">
<title>Node1&#45;&gt;Node2</title>
<path fill="none" stroke="midnightblue" d="M149.18,-48C157.5,-48 166.11,-48 174.75,-48"/>
<polygon fill="midnightblue" stroke="midnightblue" points="174.9,-51.5 184.9,-48 174.9,-44.5 174.9,-51.5"/>
</g>
<!-- Node3 -->
<g id="node3" class="node">
<title>Node3</title>
<g id="a_node3"><a xlink:href="classQuantConnect_1_1Securities_1_1LocalMarketHours.html#a7b62571672b229cdd9f8a676984cab84" target="_top" xlink:title="Gets a LocalMarketHours instance that is always open">
<polygon fill="white" stroke="black" points="422,-61 422,-91 587,-91 587,-61 422,-61"/>
<text text-anchor="start" x="430" y="-79" font-family="Helvetica,sans-Serif" font-size="10.00">QuantConnect.Securities.</text>
<text text-anchor="middle" x="504.5" y="-68" font-family="Helvetica,sans-Serif" font-size="10.00">LocalMarketHours.OpenAllDay</text>
</a>
</g>
</g>
<!-- Node2&#45;&gt;Node3 -->
<g id="edge2" class="edge">
<title>Node2&#45;&gt;Node3</title>
<path fill="none" stroke="midnightblue" d="M381.23,-60.4C391.38,-61.7 401.68,-63.01 411.76,-64.3"/>
<polygon fill="midnightblue" stroke="midnightblue" points="411.4,-67.78 421.76,-65.57 412.29,-60.84 411.4,-67.78"/>
</g>
<!-- Node5 -->
<g id="node5" class="node">
<title>Node5</title>
<g id="a_node5"><a xlink:href="classQuantConnect_1_1Securities_1_1SecurityExchangeHours.html#aed92048099642bb11d8962cb7cdaf752" target="_top" xlink:title="Initializes a new instance of the SecurityExchangeHours class">
<polygon fill="white" stroke="black" points="417,-0.5 417,-41.5 592,-41.5 592,-0.5 417,-0.5"/>
<text text-anchor="start" x="425" y="-29.5" font-family="Helvetica,sans-Serif" font-size="10.00">QuantConnect.Securities.</text>
<text text-anchor="start" x="425" y="-18.5" font-family="Helvetica,sans-Serif" font-size="10.00">SecurityExchangeHours.Security</text>
<text text-anchor="middle" x="504.5" y="-7.5" font-family="Helvetica,sans-Serif" font-size="10.00">ExchangeHours</text>
</a>
</g>
</g>
<!-- Node2&#45;&gt;Node5 -->
<g id="edge4" class="edge">
<title>Node2&#45;&gt;Node5</title>
<path fill="none" stroke="midnightblue" d="M381.23,-36.04C389.63,-35.01 398.13,-33.96 406.52,-32.93"/>
<polygon fill="midnightblue" stroke="midnightblue" points="407.2,-36.37 416.7,-31.68 406.35,-29.42 407.2,-36.37"/>
</g>
<!-- Node4 -->
<g id="node4" class="node">
<title>Node4</title>
<g id="a_node4"><a xlink:href="classQuantConnect_1_1Securities_1_1LocalMarketHours.html#af735a7f5215c72259ab040336e2220b9" target="_top" xlink:title="Initializes a new instance of the LocalMarketHours class">
<polygon fill="white" stroke="black" points="628,-61 628,-91 823,-91 823,-61 628,-61"/>
<text text-anchor="start" x="636" y="-79" font-family="Helvetica,sans-Serif" font-size="10.00">QuantConnect.Securities.</text>
<text text-anchor="middle" x="725.5" y="-68" font-family="Helvetica,sans-Serif" font-size="10.00">LocalMarketHours.LocalMarketHours</text>
</a>
</g>
</g>
<!-- Node3&#45;&gt;Node4 -->
<g id="edge3" class="edge">
<title>Node3&#45;&gt;Node4</title>
<path fill="none" stroke="midnightblue" d="M587.05,-76C596.99,-76 607.26,-76 617.5,-76"/>
<polygon fill="midnightblue" stroke="midnightblue" points="617.72,-79.5 627.72,-76 617.72,-72.5 617.72,-79.5"/>
</g>
</g>
</svg>
