<?xml version="1.0" encoding="UTF-8" standalone="no"?>
<!DOCTYPE svg PUBLIC "-//W3C//DTD SVG 1.1//EN"
 "http://www.w3.org/Graphics/SVG/1.1/DTD/svg11.dtd">
<!-- Generated by graphviz version 2.43.0 (0)
 -->
<!-- Title: QuantConnect.Securities.Option.OptionSymbol.MapToUnderlying Pages: 1 -->
<svg width="464pt" height="110pt"
 viewBox="0.00 0.00 464.00 110.00" xmlns="http://www.w3.org/2000/svg" xmlns:xlink="http://www.w3.org/1999/xlink">
<g id="graph0" class="graph" transform="scale(1 1) rotate(0) translate(4 106)">
<title>QuantConnect.Securities.Option.OptionSymbol.MapToUnderlying</title>
<polygon fill="white" stroke="transparent" points="-4,4 -4,-106 460,-106 460,4 -4,4"/>
<!-- Node1 -->
<g id="node1" class="node">
<title>Node1</title>
<g id="a_node1"><a xlink:title="Maps the option ticker to it&#39;s underlying">
<polygon fill="#bfbfbf" stroke="black" points="0,-36 0,-66 209,-66 209,-36 0,-36"/>
<text text-anchor="start" x="8" y="-54" font-family="Helvetica,sans-Serif" font-size="10.00">QuantConnect.Securities.</text>
<text text-anchor="middle" x="104.5" y="-43" font-family="Helvetica,sans-Serif" font-size="10.00">Option.OptionSymbol.MapToUnderlying</text>
</a>
</g>
</g>
<!-- Node2 -->
<g id="node2" class="node">
<title>Node2</title>
<g id="a_node2"><a xlink:href="classQuantConnect_1_1Securities_1_1Future_1_1FuturesOptionsSymbolMappings.html#a739feea1e5e726c78e75fd6c58fa2d5e" target="_top" xlink:title="Maps a futures options ticker to its underlying future&#39;s ticker">
<polygon fill="white" stroke="black" points="245,-60.5 245,-101.5 456,-101.5 456,-60.5 245,-60.5"/>
<text text-anchor="start" x="253" y="-89.5" font-family="Helvetica,sans-Serif" font-size="10.00">QuantConnect.Securities.</text>
<text text-anchor="start" x="253" y="-78.5" font-family="Helvetica,sans-Serif" font-size="10.00">Future.FuturesOptionsSymbolMappings.</text>
<text text-anchor="middle" x="350.5" y="-67.5" font-family="Helvetica,sans-Serif" font-size="10.00">MapFromOption</text>
</a>
</g>
</g>
<!-- Node1&#45;&gt;Node2 -->
<g id="edge1" class="edge">
<title>Node1&#45;&gt;Node2</title>
<path fill="none" stroke="midnightblue" d="M209.33,-63.77C217.82,-64.81 226.42,-65.87 234.97,-66.92"/>
<polygon fill="midnightblue" stroke="midnightblue" points="234.63,-70.4 244.98,-68.15 235.48,-63.46 234.63,-70.4"/>
</g>
<!-- Node3 -->
<g id="node3" class="node">
<title>Node3</title>
<g id="a_node3"><a xlink:href="classQuantConnect_1_1Securities_1_1IndexOption_1_1IndexOptionSymbol.html#ac516ce6e5976b125793890b240532f0a" target="_top" xlink:title="Maps an index option ticker to its underlying index ticker">
<polygon fill="white" stroke="black" points="261.5,-0.5 261.5,-41.5 439.5,-41.5 439.5,-0.5 261.5,-0.5"/>
<text text-anchor="start" x="269.5" y="-29.5" font-family="Helvetica,sans-Serif" font-size="10.00">QuantConnect.Securities.</text>
<text text-anchor="start" x="269.5" y="-18.5" font-family="Helvetica,sans-Serif" font-size="10.00">IndexOption.IndexOptionSymbol.</text>
<text text-anchor="middle" x="350.5" y="-7.5" font-family="Helvetica,sans-Serif" font-size="10.00">MapToUnderlying</text>
</a>
</g>
</g>
<!-- Node1&#45;&gt;Node3 -->
<g id="edge2" class="edge">
<title>Node1&#45;&gt;Node3</title>
<path fill="none" stroke="midnightblue" d="M209.33,-38.23C223.21,-36.53 237.42,-34.78 251.2,-33.09"/>
<polygon fill="midnightblue" stroke="midnightblue" points="251.65,-36.56 261.15,-31.86 250.8,-29.61 251.65,-36.56"/>
</g>
</g>
</svg>
