<?xml version="1.0" encoding="UTF-8" standalone="no"?>
<!DOCTYPE svg PUBLIC "-//W3C//DTD SVG 1.1//EN"
 "http://www.w3.org/Graphics/SVG/1.1/DTD/svg11.dtd">
<!-- Generated by graphviz version 2.43.0 (0)
 -->
<!-- Title: QuantConnect.Securities.SecurityPortfolioManager.ApplyDividend Pages: 1 -->
<svg width="594pt" height="50pt"
 viewBox="0.00 0.00 594.00 50.00" xmlns="http://www.w3.org/2000/svg" xmlns:xlink="http://www.w3.org/1999/xlink">
<g id="graph0" class="graph" transform="scale(1 1) rotate(0) translate(4 46)">
<title>QuantConnect.Securities.SecurityPortfolioManager.ApplyDividend</title>
<polygon fill="white" stroke="transparent" points="-4,4 -4,-46 590,-46 590,4 -4,4"/>
<!-- Node1 -->
<g id="node1" class="node">
<title>Node1</title>
<g id="a_node1"><a xlink:title="Applies a dividend to the portfolio">
<polygon fill="#bfbfbf" stroke="black" points="416,-0.5 416,-41.5 586,-41.5 586,-0.5 416,-0.5"/>
<text text-anchor="start" x="424" y="-29.5" font-family="Helvetica,sans-Serif" font-size="10.00">QuantConnect.Securities.</text>
<text text-anchor="start" x="424" y="-18.5" font-family="Helvetica,sans-Serif" font-size="10.00">SecurityPortfolioManager.Apply</text>
<text text-anchor="middle" x="501" y="-7.5" font-family="Helvetica,sans-Serif" font-size="10.00">Dividend</text>
</a>
</g>
</g>
<!-- Node2 -->
<g id="node2" class="node">
<title>Node2</title>
<g id="a_node2"><a xlink:href="classQuantConnect_1_1Lean_1_1Engine_1_1AlgorithmManager.html#a02a0ac8ada5d5bae842b39947cad34e6" target="_top" xlink:title="Helper method to apply a dividend to an algorithm instance">
<polygon fill="white" stroke="black" points="187,-6 187,-36 380,-36 380,-6 187,-6"/>
<text text-anchor="start" x="195" y="-24" font-family="Helvetica,sans-Serif" font-size="10.00">QuantConnect.Lean.Engine.</text>
<text text-anchor="middle" x="283.5" y="-13" font-family="Helvetica,sans-Serif" font-size="10.00">AlgorithmManager.HandleDividends</text>
</a>
</g>
</g>
<!-- Node1&#45;&gt;Node2 -->
<g id="edge1" class="edge">
<title>Node1&#45;&gt;Node2</title>
<path fill="none" stroke="midnightblue" d="M405.54,-21C397.11,-21 388.56,-21 380.12,-21"/>
<polygon fill="midnightblue" stroke="midnightblue" points="405.76,-24.5 415.76,-21 405.76,-17.5 405.76,-24.5"/>
</g>
<!-- Node3 -->
<g id="node3" class="node">
<title>Node3</title>
<g id="a_node3"><a xlink:href="classQuantConnect_1_1Lean_1_1Engine_1_1AlgorithmManager.html#a5ba2600e7fa0469346ee8841fa0e32f8" target="_top" xlink:title="Launch the algorithm manager to run this strategy">
<polygon fill="white" stroke="black" points="0,-6 0,-36 151,-36 151,-6 0,-6"/>
<text text-anchor="start" x="8" y="-24" font-family="Helvetica,sans-Serif" font-size="10.00">QuantConnect.Lean.Engine.</text>
<text text-anchor="middle" x="75.5" y="-13" font-family="Helvetica,sans-Serif" font-size="10.00">AlgorithmManager.Run</text>
</a>
</g>
</g>
<!-- Node2&#45;&gt;Node3 -->
<g id="edge2" class="edge">
<title>Node2&#45;&gt;Node3</title>
<path fill="none" stroke="midnightblue" d="M176.61,-21C167.99,-21 159.39,-21 151.06,-21"/>
<polygon fill="midnightblue" stroke="midnightblue" points="176.74,-24.5 186.74,-21 176.74,-17.5 176.74,-24.5"/>
</g>
</g>
</svg>
