<?xml version="1.0" encoding="UTF-8" standalone="no"?>
<!DOCTYPE svg PUBLIC "-//W3C//DTD SVG 1.1//EN"
 "http://www.w3.org/Graphics/SVG/1.1/DTD/svg11.dtd">
<!-- Generated by graphviz version 2.43.0 (0)
 -->
<!-- Title: QuantConnect.Util.SecurityIdentifierJsonConverter.Convert Pages: 1 -->
<svg width="597pt" height="39pt"
 viewBox="0.00 0.00 597.00 39.00" xmlns="http://www.w3.org/2000/svg" xmlns:xlink="http://www.w3.org/1999/xlink">
<g id="graph0" class="graph" transform="scale(1 1) rotate(0) translate(4 35)">
<title>QuantConnect.Util.SecurityIdentifierJsonConverter.Convert</title>
<polygon fill="white" stroke="transparent" points="-4,4 -4,-35 593,-35 593,4 -4,4"/>
<!-- Node1 -->
<g id="node1" class="node">
<title>Node1</title>
<g id="a_node1"><a xlink:title="Converts the input string to a security identifier">
<polygon fill="#bfbfbf" stroke="black" points="0,-0.5 0,-30.5 169,-30.5 169,-0.5 0,-0.5"/>
<text text-anchor="start" x="8" y="-18.5" font-family="Helvetica,sans-Serif" font-size="10.00">QuantConnect.Util.Security</text>
<text text-anchor="middle" x="84.5" y="-7.5" font-family="Helvetica,sans-Serif" font-size="10.00">IdentifierJsonConverter.Convert</text>
</a>
</g>
</g>
<!-- Node2 -->
<g id="node2" class="node">
<title>Node2</title>
<g id="a_node2"><a xlink:href="classQuantConnect_1_1SecurityIdentifier.html#a89ccb2161613f17d18ca3dc1e9eb3872" target="_top" xlink:title="Parses the specified string into a SecurityIdentifier The string must be a 40 digit number....">
<polygon fill="white" stroke="black" points="205,-0.5 205,-30.5 379,-30.5 379,-0.5 205,-0.5"/>
<text text-anchor="start" x="213" y="-18.5" font-family="Helvetica,sans-Serif" font-size="10.00">QuantConnect.SecurityIdentifier.</text>
<text text-anchor="middle" x="292" y="-7.5" font-family="Helvetica,sans-Serif" font-size="10.00">Parse</text>
</a>
</g>
</g>
<!-- Node1&#45;&gt;Node2 -->
<g id="edge1" class="edge">
<title>Node1&#45;&gt;Node2</title>
<path fill="none" stroke="midnightblue" d="M169.08,-15.5C177.55,-15.5 186.2,-15.5 194.78,-15.5"/>
<polygon fill="midnightblue" stroke="midnightblue" points="194.82,-19 204.82,-15.5 194.82,-12 194.82,-19"/>
</g>
<!-- Node3 -->
<g id="node3" class="node">
<title>Node3</title>
<g id="a_node3"><a xlink:href="classQuantConnect_1_1SecurityIdentifier.html#a59bd74be4ec55a0e4631af9e10f65d7c" target="_top" xlink:title="Attempts to parse the specified &#160;as a SecurityIdentifier.">
<polygon fill="white" stroke="black" points="415,-0.5 415,-30.5 589,-30.5 589,-0.5 415,-0.5"/>
<text text-anchor="start" x="423" y="-18.5" font-family="Helvetica,sans-Serif" font-size="10.00">QuantConnect.SecurityIdentifier.</text>
<text text-anchor="middle" x="502" y="-7.5" font-family="Helvetica,sans-Serif" font-size="10.00">TryParse</text>
</a>
</g>
</g>
<!-- Node2&#45;&gt;Node3 -->
<g id="edge2" class="edge">
<title>Node2&#45;&gt;Node3</title>
<path fill="none" stroke="midnightblue" d="M379.1,-15.5C387.62,-15.5 396.3,-15.5 404.91,-15.5"/>
<polygon fill="midnightblue" stroke="midnightblue" points="404.96,-19 414.96,-15.5 404.96,-12 404.96,-19"/>
</g>
</g>
</svg>
