<?xml version="1.0" encoding="UTF-8" standalone="no"?>
<!DOCTYPE svg PUBLIC "-//W3C//DTD SVG 1.1//EN"
 "http://www.w3.org/Graphics/SVG/1.1/DTD/svg11.dtd">
<!-- Generated by graphviz version 2.43.0 (0)
 -->
<!-- Title: QuantConnect.Algorithm.Framework.Selection.OpenInterestFutureUniverseSelectionModel.Filter Pages: 1 -->
<svg width="448pt" height="110pt"
 viewBox="0.00 0.00 448.00 110.00" xmlns="http://www.w3.org/2000/svg" xmlns:xlink="http://www.w3.org/1999/xlink">
<g id="graph0" class="graph" transform="scale(1 1) rotate(0) translate(4 106)">
<title>QuantConnect.Algorithm.Framework.Selection.OpenInterestFutureUniverseSelectionModel.Filter</title>
<polygon fill="white" stroke="transparent" points="-4,4 -4,-106 444,-106 444,4 -4,4"/>
<!-- Node1 -->
<g id="node1" class="node">
<title>Node1</title>
<g id="a_node1"><a xlink:title="Defines the future chain universe filter">
<polygon fill="#bfbfbf" stroke="black" points="0,-30.5 0,-71.5 202,-71.5 202,-30.5 0,-30.5"/>
<text text-anchor="start" x="8" y="-59.5" font-family="Helvetica,sans-Serif" font-size="10.00">QuantConnect.Algorithm.Framework.</text>
<text text-anchor="start" x="8" y="-48.5" font-family="Helvetica,sans-Serif" font-size="10.00">Selection.OpenInterestFutureUniverse</text>
<text text-anchor="middle" x="101" y="-37.5" font-family="Helvetica,sans-Serif" font-size="10.00">SelectionModel.Filter</text>
</a>
</g>
</g>
<!-- Node2 -->
<g id="node2" class="node">
<title>Node2</title>
<g id="a_node2"><a xlink:href="classQuantConnect_1_1Securities_1_1ContractSecurityFilterUniverse.html#a08598528a2658620d46a3c31194f552f" target="_top" xlink:title="Explicitly sets the selected contract symbols for this universe. This overrides and and all other met...">
<polygon fill="white" stroke="black" points="254.5,-60.5 254.5,-101.5 423.5,-101.5 423.5,-60.5 254.5,-60.5"/>
<text text-anchor="start" x="262.5" y="-89.5" font-family="Helvetica,sans-Serif" font-size="10.00">QuantConnect.Securities.</text>
<text text-anchor="start" x="262.5" y="-78.5" font-family="Helvetica,sans-Serif" font-size="10.00">ContractSecurityFilterUniverse.</text>
<text text-anchor="middle" x="339" y="-67.5" font-family="Helvetica,sans-Serif" font-size="10.00">Contracts</text>
</a>
</g>
</g>
<!-- Node1&#45;&gt;Node2 -->
<g id="edge1" class="edge">
<title>Node1&#45;&gt;Node2</title>
<path fill="none" stroke="midnightblue" d="M202.09,-63.72C216.04,-65.5 230.33,-67.31 244.16,-69.07"/>
<polygon fill="midnightblue" stroke="midnightblue" points="243.77,-72.55 254.14,-70.34 244.66,-65.61 243.77,-72.55"/>
</g>
<!-- Node3 -->
<g id="node3" class="node">
<title>Node3</title>
<g id="a_node3"><a xlink:href="classQuantConnect_1_1Algorithm_1_1Framework_1_1Selection_1_1OpenInterestFutureUniverseSelectionModel.html#ae9418efd87ce6f9862d30f4513fe9a56" target="_top" xlink:title="Filters a set of contracts based on open interest.">
<polygon fill="white" stroke="black" points="238,-0.5 238,-41.5 440,-41.5 440,-0.5 238,-0.5"/>
<text text-anchor="start" x="246" y="-29.5" font-family="Helvetica,sans-Serif" font-size="10.00">QuantConnect.Algorithm.Framework.</text>
<text text-anchor="start" x="246" y="-18.5" font-family="Helvetica,sans-Serif" font-size="10.00">Selection.OpenInterestFutureUniverse</text>
<text text-anchor="middle" x="339" y="-7.5" font-family="Helvetica,sans-Serif" font-size="10.00">SelectionModel.FilterByOpenInterest</text>
</a>
</g>
</g>
<!-- Node1&#45;&gt;Node3 -->
<g id="edge2" class="edge">
<title>Node1&#45;&gt;Node3</title>
<path fill="none" stroke="midnightblue" d="M202.09,-38.28C210.57,-37.2 219.19,-36.1 227.75,-35.02"/>
<polygon fill="midnightblue" stroke="midnightblue" points="228.28,-38.48 237.76,-33.74 227.4,-31.53 228.28,-38.48"/>
</g>
</g>
</svg>
