<?xml version="1.0" encoding="UTF-8" standalone="no"?>
<!DOCTYPE svg PUBLIC "-//W3C//DTD SVG 1.1//EN"
 "http://www.w3.org/Graphics/SVG/1.1/DTD/svg11.dtd">
<!-- Generated by graphviz version 2.43.0 (0)
 -->
<!-- Title: QuantConnect.Securities.Positions.PositionGroupCollection.CombineWith Pages: 1 -->
<svg width="651pt" height="50pt"
 viewBox="0.00 0.00 651.00 50.00" xmlns="http://www.w3.org/2000/svg" xmlns:xlink="http://www.w3.org/1999/xlink">
<g id="graph0" class="graph" transform="scale(1 1) rotate(0) translate(4 46)">
<title>QuantConnect.Securities.Positions.PositionGroupCollection.CombineWith</title>
<polygon fill="white" stroke="transparent" points="-4,4 -4,-46 647,-46 647,4 -4,4"/>
<!-- Node1 -->
<g id="node1" class="node">
<title>Node1</title>
<g id="a_node1"><a xlink:title="Merges this position group collection with the provided other &#160;collection.">
<polygon fill="#bfbfbf" stroke="black" points="0,-0.5 0,-41.5 184,-41.5 184,-0.5 0,-0.5"/>
<text text-anchor="start" x="8" y="-29.5" font-family="Helvetica,sans-Serif" font-size="10.00">QuantConnect.Securities.</text>
<text text-anchor="start" x="8" y="-18.5" font-family="Helvetica,sans-Serif" font-size="10.00">Positions.PositionGroupCollection.</text>
<text text-anchor="middle" x="92" y="-7.5" font-family="Helvetica,sans-Serif" font-size="10.00">CombineWith</text>
</a>
</g>
</g>
<!-- Node2 -->
<g id="node2" class="node">
<title>Node2</title>
<g id="a_node2"><a xlink:href="classQuantConnect_1_1Securities_1_1Positions_1_1PositionGroupCollection.html#a85bf71862d62d4d786ab88b3d75c0a2c" target="_top" xlink:title="Creates a new PositionGroupCollection that contains all of the position groups in this collection in ...">
<polygon fill="white" stroke="black" points="220,-6 220,-36 423,-36 423,-6 220,-6"/>
<text text-anchor="start" x="228" y="-24" font-family="Helvetica,sans-Serif" font-size="10.00">QuantConnect.Securities.</text>
<text text-anchor="middle" x="321.5" y="-13" font-family="Helvetica,sans-Serif" font-size="10.00">Positions.PositionGroupCollection.Add</text>
</a>
</g>
</g>
<!-- Node1&#45;&gt;Node2 -->
<g id="edge1" class="edge">
<title>Node1&#45;&gt;Node2</title>
<path fill="none" stroke="midnightblue" d="M184.22,-21C192.66,-21 201.28,-21 209.87,-21"/>
<polygon fill="midnightblue" stroke="midnightblue" points="209.93,-24.5 219.93,-21 209.93,-17.5 209.93,-24.5"/>
</g>
<!-- Node3 -->
<g id="node3" class="node">
<title>Node3</title>
<g id="a_node3"><a xlink:href="classQuantConnect_1_1Securities_1_1Positions_1_1PositionGroupCollection.html#a0475d91f76d554e7323d2fcb10ffdfb1" target="_top" xlink:title="Initializes a new instance of the PositionGroupCollection class">
<polygon fill="white" stroke="black" points="459,-0.5 459,-41.5 643,-41.5 643,-0.5 459,-0.5"/>
<text text-anchor="start" x="467" y="-29.5" font-family="Helvetica,sans-Serif" font-size="10.00">QuantConnect.Securities.</text>
<text text-anchor="start" x="467" y="-18.5" font-family="Helvetica,sans-Serif" font-size="10.00">Positions.PositionGroupCollection.</text>
<text text-anchor="middle" x="551" y="-7.5" font-family="Helvetica,sans-Serif" font-size="10.00">PositionGroupCollection</text>
</a>
</g>
</g>
<!-- Node2&#45;&gt;Node3 -->
<g id="edge2" class="edge">
<title>Node2&#45;&gt;Node3</title>
<path fill="none" stroke="midnightblue" d="M423.28,-21C431.73,-21 440.27,-21 448.73,-21"/>
<polygon fill="midnightblue" stroke="midnightblue" points="448.98,-24.5 458.98,-21 448.98,-17.5 448.98,-24.5"/>
</g>
</g>
</svg>
