<?xml version="1.0" encoding="UTF-8" standalone="no"?>
<!DOCTYPE svg PUBLIC "-//W3C//DTD SVG 1.1//EN"
 "http://www.w3.org/Graphics/SVG/1.1/DTD/svg11.dtd">
<!-- Generated by graphviz version 2.43.0 (0)
 -->
<!-- Title: QuantConnect.Data.Consolidators.IdentityDataConsolidator&lt; T &gt; Pages: 1 -->
<svg width="193pt" height="173pt"
 viewBox="0.00 0.00 193.00 173.00" xmlns="http://www.w3.org/2000/svg" xmlns:xlink="http://www.w3.org/1999/xlink">
<g id="graph0" class="graph" transform="scale(1 1) rotate(0) translate(4 169)">
<title>QuantConnect.Data.Consolidators.IdentityDataConsolidator&lt; T &gt;</title>
<polygon fill="white" stroke="transparent" points="-4,4 -4,-169 189,-169 189,4 -4,4"/>
<!-- Node1 -->
<g id="node1" class="node">
<title>Node1</title>
<g id="a_node1"><a xlink:title="Represents the simplest DataConsolidator implementation, one that is defined by a straight pass throu...">
<polygon fill="#bfbfbf" stroke="black" points="0,-78.5 0,-108.5 185,-108.5 185,-78.5 0,-78.5"/>
<text text-anchor="start" x="8" y="-96.5" font-family="Helvetica,sans-Serif" font-size="10.00">QuantConnect.Data.Consolidators.</text>
<text text-anchor="middle" x="92.5" y="-85.5" font-family="Helvetica,sans-Serif" font-size="10.00">IdentityDataConsolidator&lt; T &gt;</text>
</a>
</g>
</g>
<!-- Node3 -->
<g id="node3" class="node">
<title>Node3</title>
<g id="a_node3"><a xlink:href="classQuantConnect_1_1Data_1_1Consolidators_1_1FilteredIdentityDataConsolidator.html" target="_top" xlink:title="Provides an implementation of IDataConsolidator that preserve the input data unmodified....">
<polygon fill="white" stroke="black" points="7.5,-0.5 7.5,-41.5 177.5,-41.5 177.5,-0.5 7.5,-0.5"/>
<text text-anchor="start" x="15.5" y="-29.5" font-family="Helvetica,sans-Serif" font-size="10.00">QuantConnect::Data</text>
<text text-anchor="start" x="15.5" y="-18.5" font-family="Helvetica,sans-Serif" font-size="10.00">::Consolidators::FilteredIdentity</text>
<text text-anchor="middle" x="92.5" y="-7.5" font-family="Helvetica,sans-Serif" font-size="10.00">DataConsolidator&lt; T &gt;</text>
</a>
</g>
</g>
<!-- Node1&#45;&gt;Node3 -->
<g id="edge2" class="edge">
<title>Node1&#45;&gt;Node3</title>
<path fill="none" stroke="midnightblue" d="M92.5,-67.98C92.5,-59.35 92.5,-49.76 92.5,-41.59"/>
<polygon fill="midnightblue" stroke="midnightblue" points="89,-68.23 92.5,-78.23 96,-68.23 89,-68.23"/>
</g>
<!-- Node2 -->
<g id="node2" class="node">
<title>Node2</title>
<g id="a_node2"><a xlink:href="classQuantConnect_1_1Data_1_1Consolidators_1_1DataConsolidator.html" target="_top" xlink:title=" ">
<polygon fill="white" stroke="black" points="27.5,-145.5 27.5,-164.5 157.5,-164.5 157.5,-145.5 27.5,-145.5"/>
<text text-anchor="middle" x="92.5" y="-152.5" font-family="Helvetica,sans-Serif" font-size="10.00">DataConsolidator&lt; T &gt;</text>
</a>
</g>
</g>
<!-- Node2&#45;&gt;Node1 -->
<g id="edge1" class="edge">
<title>Node2&#45;&gt;Node1</title>
<path fill="none" stroke="midnightblue" d="M92.5,-135.23C92.5,-126.59 92.5,-116.5 92.5,-108.52"/>
<polygon fill="midnightblue" stroke="midnightblue" points="89,-135.48 92.5,-145.48 96,-135.48 89,-135.48"/>
</g>
</g>
</svg>
