<?xml version="1.0" encoding="UTF-8" standalone="no"?>
<!DOCTYPE svg PUBLIC "-//W3C//DTD SVG 1.1//EN"
 "http://www.w3.org/Graphics/SVG/1.1/DTD/svg11.dtd">
<!-- Generated by graphviz version 2.43.0 (0)
 -->
<!-- Title: QuantConnect.Api.Api.FormatPathForDataRequest Pages: 1 -->
<svg width="1066pt" height="111pt"
 viewBox="0.00 0.00 1066.00 111.13" xmlns="http://www.w3.org/2000/svg" xmlns:xlink="http://www.w3.org/1999/xlink">
<g id="graph0" class="graph" transform="scale(1 1) rotate(0) translate(4 107.13)">
<title>QuantConnect.Api.Api.FormatPathForDataRequest</title>
<polygon fill="white" stroke="transparent" points="-4,4 -4,-107.13 1062,-107.13 1062,4 -4,4"/>
<!-- Node1 -->
<g id="node1" class="node">
<title>Node1</title>
<g id="a_node1"><a xlink:title="Helper method to normalize path for api data requests">
<polygon fill="#bfbfbf" stroke="black" points="897,-49.5 897,-79.5 1058,-79.5 1058,-49.5 897,-49.5"/>
<text text-anchor="start" x="905" y="-67.5" font-family="Helvetica,sans-Serif" font-size="10.00">QuantConnect.Api.Api.Format</text>
<text text-anchor="middle" x="977.5" y="-56.5" font-family="Helvetica,sans-Serif" font-size="10.00">PathForDataRequest</text>
</a>
</g>
</g>
<!-- Node2 -->
<g id="node2" class="node">
<title>Node2</title>
<g id="a_node2"><a xlink:href="classQuantConnect_1_1Lean_1_1Engine_1_1DataFeeds_1_1ApiDataProvider.html#a4a3b792abb8244bb0fa3a6be2f9d1fd9" target="_top" xlink:title="Retrieves data to be used in an algorithm. If file does not exist, an attempt is made to download the...">
<polygon fill="white" stroke="black" points="0,-59.5 0,-89.5 179,-89.5 179,-59.5 0,-59.5"/>
<text text-anchor="start" x="8" y="-77.5" font-family="Helvetica,sans-Serif" font-size="10.00">QuantConnect.Lean.Engine.</text>
<text text-anchor="middle" x="89.5" y="-66.5" font-family="Helvetica,sans-Serif" font-size="10.00">DataFeeds.ApiDataProvider.Fetch</text>
</a>
</g>
</g>
<!-- Node1&#45;&gt;Node2 -->
<g id="edge1" class="edge">
<title>Node1&#45;&gt;Node2</title>
<path fill="none" stroke="midnightblue" d="M908.67,-81.7C893.11,-84.94 876.56,-87.83 861,-89.5 615.22,-115.8 322.9,-96.32 179.22,-83.45"/>
<polygon fill="midnightblue" stroke="midnightblue" points="909.69,-85.06 918.73,-79.53 908.21,-78.22 909.69,-85.06"/>
</g>
<!-- Node3 -->
<g id="node3" class="node">
<title>Node3</title>
<g id="a_node3"><a xlink:href="classQuantConnect_1_1Api_1_1Api.html#a32bc619b1c67b6395b5c935346dbeddd" target="_top" xlink:title="Get valid data entries for a given filepath from data/list">
<polygon fill="white" stroke="black" points="710,-49.5 710,-79.5 861,-79.5 861,-49.5 710,-49.5"/>
<text text-anchor="start" x="718" y="-67.5" font-family="Helvetica,sans-Serif" font-size="10.00">QuantConnect.Api.Api.Read</text>
<text text-anchor="middle" x="785.5" y="-56.5" font-family="Helvetica,sans-Serif" font-size="10.00">DataDirectory</text>
</a>
</g>
</g>
<!-- Node1&#45;&gt;Node3 -->
<g id="edge2" class="edge">
<title>Node1&#45;&gt;Node3</title>
<path fill="none" stroke="midnightblue" d="M886.47,-64.5C878.01,-64.5 869.49,-64.5 861.19,-64.5"/>
<polygon fill="midnightblue" stroke="midnightblue" points="886.75,-68 896.75,-64.5 886.75,-61 886.75,-68"/>
</g>
<!-- Node4 -->
<g id="node4" class="node">
<title>Node4</title>
<g id="a_node4"><a xlink:href="classQuantConnect_1_1Api_1_1Api.html#a6081f6ee84c152dd58c28f2f37c1e572" target="_top" xlink:title="Gets the link to the downloadable data.">
<polygon fill="white" stroke="black" points="710,-0.5 710,-30.5 861,-30.5 861,-0.5 710,-0.5"/>
<text text-anchor="start" x="718" y="-18.5" font-family="Helvetica,sans-Serif" font-size="10.00">QuantConnect.Api.Api.Read</text>
<text text-anchor="middle" x="785.5" y="-7.5" font-family="Helvetica,sans-Serif" font-size="10.00">DataLink</text>
</a>
</g>
</g>
<!-- Node1&#45;&gt;Node4 -->
<g id="edge3" class="edge">
<title>Node1&#45;&gt;Node4</title>
<path fill="none" stroke="midnightblue" d="M908.45,-46.95C887.59,-41.57 864.83,-35.7 844.69,-30.51"/>
<polygon fill="midnightblue" stroke="midnightblue" points="907.65,-50.36 918.2,-49.47 909.39,-43.58 907.65,-50.36"/>
</g>
<!-- Node5 -->
<g id="node5" class="node">
<title>Node5</title>
<g id="a_node5"><a xlink:href="classQuantConnect_1_1Api_1_1Api.html#a60628e17674db6908c75bbef8b6a362b" target="_top" xlink:title="Method to purchase and download data from QuantConnect">
<polygon fill="white" stroke="black" points="476,-19 476,-38 674,-38 674,-19 476,-19"/>
<text text-anchor="middle" x="575" y="-26" font-family="Helvetica,sans-Serif" font-size="10.00">QuantConnect.Api.Api.DownloadData</text>
</a>
</g>
</g>
<!-- Node4&#45;&gt;Node5 -->
<g id="edge4" class="edge">
<title>Node4&#45;&gt;Node5</title>
<path fill="none" stroke="midnightblue" d="M699.67,-20.79C691.26,-21.31 682.68,-21.85 674.16,-22.38"/>
<polygon fill="midnightblue" stroke="midnightblue" points="700.05,-24.27 709.82,-20.16 699.62,-17.29 700.05,-24.27"/>
</g>
<!-- Node6 -->
<g id="node6" class="node">
<title>Node6</title>
<g id="a_node6"><a xlink:href="classQuantConnect_1_1Lean_1_1Engine_1_1DataFeeds_1_1ApiDataProvider.html#a64ac6ab055506a450fcfba7d9a4242d3" target="_top" xlink:title="Attempt to download data using the Api for and return a FileStream of that data.">
<polygon fill="white" stroke="black" points="215,-37.5 215,-67.5 440,-67.5 440,-37.5 215,-37.5"/>
<text text-anchor="start" x="223" y="-55.5" font-family="Helvetica,sans-Serif" font-size="10.00">QuantConnect.Lean.Engine.</text>
<text text-anchor="middle" x="327.5" y="-44.5" font-family="Helvetica,sans-Serif" font-size="10.00">DataFeeds.ApiDataProvider.DownloadData</text>
</a>
</g>
</g>
<!-- Node5&#45;&gt;Node6 -->
<g id="edge5" class="edge">
<title>Node5&#45;&gt;Node6</title>
<path fill="none" stroke="midnightblue" d="M466.5,-39.01C457.83,-39.86 449.05,-40.71 440.35,-41.57"/>
<polygon fill="midnightblue" stroke="midnightblue" points="467.01,-42.48 476.62,-38.02 466.33,-35.51 467.01,-42.48"/>
</g>
<!-- Node6&#45;&gt;Node2 -->
<g id="edge6" class="edge">
<title>Node6&#45;&gt;Node2</title>
<path fill="none" stroke="midnightblue" d="M204.66,-63.86C196.09,-64.66 187.55,-65.45 179.21,-66.23"/>
<polygon fill="midnightblue" stroke="midnightblue" points="205.09,-67.33 214.72,-62.92 204.44,-60.36 205.09,-67.33"/>
</g>
</g>
</svg>
