<?xml version="1.0" encoding="UTF-8" standalone="no"?>
<!DOCTYPE svg PUBLIC "-//W3C//DTD SVG 1.1//EN"
 "http://www.w3.org/Graphics/SVG/1.1/DTD/svg11.dtd">
<!-- Generated by graphviz version 2.43.0 (0)
 -->
<!-- Title: QuantConnect.Lean.Engine.Results.BacktestingResultHandler.RuntimeError Pages: 1 -->
<svg width="444pt" height="100pt"
 viewBox="0.00 0.00 444.00 99.50" xmlns="http://www.w3.org/2000/svg" xmlns:xlink="http://www.w3.org/1999/xlink">
<g id="graph0" class="graph" transform="scale(1 1) rotate(0) translate(4 95.5)">
<title>QuantConnect.Lean.Engine.Results.BacktestingResultHandler.RuntimeError</title>
<polygon fill="white" stroke="transparent" points="-4,4 -4,-95.5 440,-95.5 440,4 -4,4"/>
<!-- Node1 -->
<g id="node1" class="node">
<title>Node1</title>
<g id="a_node1"><a xlink:title="Send a runtime error message back to the browser highlighted with in red">
<polygon fill="#bfbfbf" stroke="black" points="0,-27.5 0,-68.5 185,-68.5 185,-27.5 0,-27.5"/>
<text text-anchor="start" x="8" y="-56.5" font-family="Helvetica,sans-Serif" font-size="10.00">QuantConnect.Lean.Engine.</text>
<text text-anchor="start" x="8" y="-45.5" font-family="Helvetica,sans-Serif" font-size="10.00">Results.BacktestingResultHandler.</text>
<text text-anchor="middle" x="92.5" y="-34.5" font-family="Helvetica,sans-Serif" font-size="10.00">RuntimeError</text>
</a>
</g>
</g>
<!-- Node2 -->
<g id="node2" class="node">
<title>Node2</title>
<g id="a_node2"><a xlink:href="classQuantConnect_1_1Lean_1_1Engine_1_1Results_1_1BaseResultsHandler.html#a780512313b3f4907dae0d7ece190d949" target="_top" xlink:title="Purge/clear any outstanding messages in message queue.">
<polygon fill="white" stroke="black" points="221,-61 221,-91 436,-91 436,-61 221,-61"/>
<text text-anchor="start" x="229" y="-79" font-family="Helvetica,sans-Serif" font-size="10.00">QuantConnect.Lean.Engine.</text>
<text text-anchor="middle" x="328.5" y="-68" font-family="Helvetica,sans-Serif" font-size="10.00">Results.BaseResultsHandler.PurgeQueue</text>
</a>
</g>
</g>
<!-- Node1&#45;&gt;Node2 -->
<g id="edge1" class="edge">
<title>Node1&#45;&gt;Node2</title>
<path fill="none" stroke="midnightblue" d="M185.31,-58.99C193.69,-59.99 202.24,-61.01 210.79,-62.04"/>
<polygon fill="midnightblue" stroke="midnightblue" points="210.48,-65.52 220.82,-63.24 211.31,-58.57 210.48,-65.52"/>
</g>
<!-- Node3 -->
<g id="node3" class="node">
<title>Node3</title>
<g id="a_node3"><a xlink:href="classQuantConnect_1_1Lean_1_1Engine_1_1Results_1_1BaseResultsHandler.html#a4820dd4d9928b45f83f686ee1bb8fbbf" target="_top" xlink:title="Sets the algorithm state data">
<polygon fill="white" stroke="black" points="242.5,-0.5 242.5,-41.5 414.5,-41.5 414.5,-0.5 242.5,-0.5"/>
<text text-anchor="start" x="250.5" y="-29.5" font-family="Helvetica,sans-Serif" font-size="10.00">QuantConnect.Lean.Engine.</text>
<text text-anchor="start" x="250.5" y="-18.5" font-family="Helvetica,sans-Serif" font-size="10.00">Results.BaseResultsHandler.Set</text>
<text text-anchor="middle" x="328.5" y="-7.5" font-family="Helvetica,sans-Serif" font-size="10.00">AlgorithmState</text>
</a>
</g>
</g>
<!-- Node1&#45;&gt;Node3 -->
<g id="edge2" class="edge">
<title>Node1&#45;&gt;Node3</title>
<path fill="none" stroke="midnightblue" d="M185.31,-37.41C200.75,-35.62 216.81,-33.77 232.33,-31.98"/>
<polygon fill="midnightblue" stroke="midnightblue" points="232.91,-35.44 242.44,-30.81 232.1,-28.48 232.91,-35.44"/>
</g>
</g>
</svg>
