<?xml version="1.0" encoding="UTF-8" standalone="no"?>
<!DOCTYPE svg PUBLIC "-//W3C//DTD SVG 1.1//EN"
 "http://www.w3.org/Graphics/SVG/1.1/DTD/svg11.dtd">
<!-- Generated by graphviz version 2.43.0 (0)
 -->
<!-- Title: QuantConnect.Data.Auxiliary.FactorFileZipHelper.ReadFactorFileZip Pages: 1 -->
<svg width="824pt" height="137pt"
 viewBox="0.00 0.00 824.00 137.00" xmlns="http://www.w3.org/2000/svg" xmlns:xlink="http://www.w3.org/1999/xlink">
<g id="graph0" class="graph" transform="scale(1 1) rotate(0) translate(4 133)">
<title>QuantConnect.Data.Auxiliary.FactorFileZipHelper.ReadFactorFileZip</title>
<polygon fill="white" stroke="transparent" points="-4,4 -4,-133 820,-133 820,4 -4,4"/>
<!-- Node1 -->
<g id="node1" class="node">
<title>Node1</title>
<g id="a_node1"><a xlink:title="Reads the zip bytes as text and parses as FactorFileRows to create FactorFiles">
<polygon fill="#bfbfbf" stroke="black" points="0,-49.5 0,-79.5 200,-79.5 200,-49.5 0,-49.5"/>
<text text-anchor="start" x="8" y="-67.5" font-family="Helvetica,sans-Serif" font-size="10.00">QuantConnect.Data.Auxiliary.</text>
<text text-anchor="middle" x="100" y="-56.5" font-family="Helvetica,sans-Serif" font-size="10.00">FactorFileZipHelper.ReadFactorFileZip</text>
</a>
</g>
</g>
<!-- Node2 -->
<g id="node2" class="node">
<title>Node2</title>
<g id="a_node2"><a xlink:href="classQuantConnect_1_1Data_1_1Auxiliary_1_1MapFileResolver.html#a3146768e75d405bab37fb76cf4e1b379" target="_top" xlink:title="Gets the map file matching the specified permtick">
<polygon fill="white" stroke="black" points="239,-98.5 239,-128.5 412,-128.5 412,-98.5 239,-98.5"/>
<text text-anchor="start" x="247" y="-116.5" font-family="Helvetica,sans-Serif" font-size="10.00">QuantConnect.Data.Auxiliary.</text>
<text text-anchor="middle" x="325.5" y="-105.5" font-family="Helvetica,sans-Serif" font-size="10.00">MapFileResolver.GetByPermtick</text>
</a>
</g>
</g>
<!-- Node1&#45;&gt;Node2 -->
<g id="edge1" class="edge">
<title>Node1&#45;&gt;Node2</title>
<path fill="none" stroke="midnightblue" d="M169.58,-79.53C193.82,-84.85 221.26,-90.87 246.25,-96.34"/>
<polygon fill="midnightblue" stroke="midnightblue" points="245.54,-99.77 256.05,-98.49 247.03,-92.93 245.54,-99.77"/>
</g>
<!-- Node3 -->
<g id="node3" class="node">
<title>Node3</title>
<g id="a_node3"><a xlink:href="classQuantConnect_1_1Data_1_1Auxiliary_1_1PriceScalingExtensions.html#a240991703a0e981444c9947f3330d66b" target="_top" xlink:title="Parses the contents as a FactorFile, if error returns a new empty factor file">
<polygon fill="white" stroke="black" points="236,-49.5 236,-79.5 415,-79.5 415,-49.5 236,-49.5"/>
<text text-anchor="start" x="244" y="-67.5" font-family="Helvetica,sans-Serif" font-size="10.00">QuantConnect.Data.Auxiliary.</text>
<text text-anchor="middle" x="325.5" y="-56.5" font-family="Helvetica,sans-Serif" font-size="10.00">PriceScalingExtensions.SafeRead</text>
</a>
</g>
</g>
<!-- Node1&#45;&gt;Node3 -->
<g id="edge2" class="edge">
<title>Node1&#45;&gt;Node3</title>
<path fill="none" stroke="midnightblue" d="M200.01,-64.5C208.47,-64.5 217.04,-64.5 225.51,-64.5"/>
<polygon fill="midnightblue" stroke="midnightblue" points="225.77,-68 235.77,-64.5 225.77,-61 225.77,-68"/>
</g>
<!-- Node6 -->
<g id="node6" class="node">
<title>Node6</title>
<g id="a_node6"><a xlink:href="classQuantConnect_1_1Compression.html#a9ba5e60f53d457cf2ae33ec2dca2ffa6" target="_top" xlink:title="Unzips the specified zip file to the specified directory">
<polygon fill="white" stroke="black" points="248,-0.5 248,-30.5 403,-30.5 403,-0.5 248,-0.5"/>
<text text-anchor="start" x="256" y="-18.5" font-family="Helvetica,sans-Serif" font-size="10.00">QuantConnect.Compression.</text>
<text text-anchor="middle" x="325.5" y="-7.5" font-family="Helvetica,sans-Serif" font-size="10.00">Unzip</text>
</a>
</g>
</g>
<!-- Node1&#45;&gt;Node6 -->
<g id="edge5" class="edge">
<title>Node1&#45;&gt;Node6</title>
<path fill="none" stroke="midnightblue" d="M169.58,-49.47C193.82,-44.15 221.26,-38.13 246.25,-32.66"/>
<polygon fill="midnightblue" stroke="midnightblue" points="247.03,-36.07 256.05,-30.51 245.54,-29.23 247.03,-36.07"/>
</g>
<!-- Node4 -->
<g id="node4" class="node">
<title>Node4</title>
<g id="a_node4"><a xlink:href="classQuantConnect_1_1Data_1_1Auxiliary_1_1MappingContractFactorRow.html#aaa11ebfd83f13f4971a6c74bc3167cb4" target="_top" xlink:title="Parses the lines as factor files rows while properly handling inf entries">
<polygon fill="white" stroke="black" points="451,-98.5 451,-128.5 630,-128.5 630,-98.5 451,-98.5"/>
<text text-anchor="start" x="459" y="-116.5" font-family="Helvetica,sans-Serif" font-size="10.00">QuantConnect.Data.Auxiliary.</text>
<text text-anchor="middle" x="540.5" y="-105.5" font-family="Helvetica,sans-Serif" font-size="10.00">MappingContractFactorRow.Parse</text>
</a>
</g>
</g>
<!-- Node3&#45;&gt;Node4 -->
<g id="edge3" class="edge">
<title>Node3&#45;&gt;Node4</title>
<path fill="none" stroke="midnightblue" d="M391.85,-79.53C414.75,-84.8 440.65,-90.76 464.29,-96.2"/>
<polygon fill="midnightblue" stroke="midnightblue" points="463.74,-99.66 474.27,-98.49 465.31,-92.84 463.74,-99.66"/>
</g>
<!-- Node5 -->
<g id="node5" class="node">
<title>Node5</title>
<g id="a_node5"><a xlink:href="classQuantConnect_1_1Data_1_1Auxiliary_1_1CorporateFactorRow.html#aad9d16f1e16cc507748743660d1e84b8" target="_top" xlink:title="Parses the lines as factor files rows while properly handling inf entries">
<polygon fill="white" stroke="black" points="460.5,-49.5 460.5,-79.5 620.5,-79.5 620.5,-49.5 460.5,-49.5"/>
<text text-anchor="start" x="468.5" y="-67.5" font-family="Helvetica,sans-Serif" font-size="10.00">QuantConnect.Data.Auxiliary.</text>
<text text-anchor="middle" x="540.5" y="-56.5" font-family="Helvetica,sans-Serif" font-size="10.00">CorporateFactorRow.Parse</text>
</a>
</g>
</g>
<!-- Node3&#45;&gt;Node5 -->
<g id="edge4" class="edge">
<title>Node3&#45;&gt;Node5</title>
<path fill="none" stroke="midnightblue" d="M415.29,-64.5C426.85,-64.5 438.71,-64.5 450.28,-64.5"/>
<polygon fill="midnightblue" stroke="midnightblue" points="450.36,-68 460.36,-64.5 450.36,-61 450.36,-68"/>
</g>
<!-- Node7 -->
<g id="node7" class="node">
<title>Node7</title>
<g id="a_node7"><a xlink:href="classQuantConnect_1_1Logging_1_1Log.html#af0e7955911bc7664b37661b2a303a9e3" target="_top" xlink:title="Log error">
<polygon fill="white" stroke="black" points="465.5,-0.5 465.5,-30.5 615.5,-30.5 615.5,-0.5 465.5,-0.5"/>
<text text-anchor="start" x="473.5" y="-18.5" font-family="Helvetica,sans-Serif" font-size="10.00">QuantConnect.Logging.Log.</text>
<text text-anchor="middle" x="540.5" y="-7.5" font-family="Helvetica,sans-Serif" font-size="10.00">Error</text>
</a>
</g>
</g>
<!-- Node6&#45;&gt;Node7 -->
<g id="edge6" class="edge">
<title>Node6&#45;&gt;Node7</title>
<path fill="none" stroke="midnightblue" d="M403.1,-15.5C420.05,-15.5 438.09,-15.5 455.33,-15.5"/>
<polygon fill="midnightblue" stroke="midnightblue" points="455.36,-19 465.36,-15.5 455.36,-12 455.36,-19"/>
</g>
<!-- Node8 -->
<g id="node8" class="node">
<title>Node8</title>
<g id="a_node8"><a xlink:href="interfaceQuantConnect_1_1Logging_1_1ILogHandler.html#a35373a0c5d76031fa5ccf5dc39e5c25d" target="_top" xlink:title="Write error message to log">
<polygon fill="white" stroke="black" points="666,-0.5 666,-30.5 816,-30.5 816,-0.5 666,-0.5"/>
<text text-anchor="start" x="674" y="-18.5" font-family="Helvetica,sans-Serif" font-size="10.00">QuantConnect.Logging.ILog</text>
<text text-anchor="middle" x="741" y="-7.5" font-family="Helvetica,sans-Serif" font-size="10.00">Handler.Error</text>
</a>
</g>
</g>
<!-- Node7&#45;&gt;Node8 -->
<g id="edge7" class="edge">
<title>Node7&#45;&gt;Node8</title>
<path fill="none" stroke="midnightblue" d="M615.7,-15.5C628.77,-15.5 642.47,-15.5 655.79,-15.5"/>
<polygon fill="midnightblue" stroke="midnightblue" points="655.89,-19 665.89,-15.5 655.89,-12 655.89,-19"/>
</g>
</g>
</svg>
