<?xml version="1.0" encoding="UTF-8" standalone="no"?>
<!DOCTYPE svg PUBLIC "-//W3C//DTD SVG 1.1//EN"
 "http://www.w3.org/Graphics/SVG/1.1/DTD/svg11.dtd">
<!-- Generated by graphviz version 2.43.0 (0)
 -->
<!-- Title: QuantConnect.Securities.FutureOption.FuturesOptionsExpiryFunctions.FuturesOptionExpiry Pages: 1 -->
<!--zoomable 411 -->
<svg id="main" version="1.1" xmlns="http://www.w3.org/2000/svg" xmlns:xlink="http://www.w3.org/1999/xlink" xml:space="preserve" onload="init(evt)">
<style type="text/css"><![CDATA[
.edge:hover path { stroke: red; }
.edge:hover polygon { stroke: red; fill: red; }
]]></style>
<script type="text/javascript"><![CDATA[
var edges = document.getElementsByTagName('g');
if (edges && edges.length) {
  for (var i=0;i<edges.length;i++) {
    if (edges[i].id.substr(0,4)=='edge') {
      edges[i].setAttribute('class','edge');
    }
  }
}
]]></script>
        <defs>
                <circle id="rim" cx="0" cy="0" r="7"/>
                <circle id="rim2" cx="0" cy="0" r="3.5"/>
                <g id="zoomPlus">
                        <use xlink:href="#rim" fill="#404040">
                                <set attributeName="fill" to="#808080" begin="zoomplus.mouseover" end="zoomplus.mouseout"/>
                        </use>
                        <path d="M-4,0h8M0,-4v8" fill="none" stroke="white" stroke-width="1.5" pointer-events="none"/>
                </g>
                <g id="zoomMin">
                        <use xlink:href="#rim" fill="#404040">
                                <set attributeName="fill" to="#808080" begin="zoomminus.mouseover" end="zoomminus.mouseout"/>
                        </use>
                        <path d="M-4,0h8" fill="none" stroke="white" stroke-width="1.5" pointer-events="none"/>
                </g>
                <g id="dirArrow">
                        <path fill="none" stroke="white" stroke-width="1.5" d="M0,-3.0v7 M-2.5,-0.5L0,-3.0L2.5,-0.5"/>
                </g>
               <g id="resetDef">
                       <use xlink:href="#rim2" fill="#404040">
                               <set attributeName="fill" to="#808080" begin="reset.mouseover" end="reset.mouseout"/>
                       </use>
               </g>
        </defs>

<script type="text/javascript">
var viewWidth = 1583;
var viewHeight = 411;
var sectionId = 'dynsection-0';
</script>
<script xlink:href="svgpan.js"/>
<svg id="graph" class="graph">
<g id="viewport">
<title>QuantConnect.Securities.FutureOption.FuturesOptionsExpiryFunctions.FuturesOptionExpiry</title>
<polygon fill="white" stroke="transparent" points="-4,4 -4,-407 1579,-407 1579,4 -4,4"/>
<!-- Node1 -->
<g id="node1" class="node">
<title>Node1</title>
<g id="a_node1"><a xlink:title="Gets the Futures Options&#39; expiry for the given contract month.">
<polygon fill="#bfbfbf" stroke="black" points="0,-180 0,-221 187,-221 187,-180 0,-180"/>
<text text-anchor="start" x="8" y="-209" font-family="Helvetica,sans-Serif" font-size="10.00">QuantConnect.Securities.</text>
<text text-anchor="start" x="8" y="-198" font-family="Helvetica,sans-Serif" font-size="10.00">FutureOption.FuturesOptionsExpiry</text>
<text text-anchor="middle" x="93.5" y="-187" font-family="Helvetica,sans-Serif" font-size="10.00">Functions.FuturesOptionExpiry</text>
</a>
</g>
</g>
<!-- Node2 -->
<g id="node2" class="node">
<title>Node2</title>
<g id="a_node2"><a xlink:href="classQuantConnect_1_1Symbol.html#a350b9a625cf7bad95da82894be3cd0a8" target="_top" xlink:title="Provides a convenience method for creating a Symbol for most security types. This method currently do...">
<polygon fill="white" stroke="black" points="235,-216 235,-235 396,-235 396,-216 235,-216"/>
<text text-anchor="middle" x="315.5" y="-223" font-family="Helvetica,sans-Serif" font-size="10.00">QuantConnect.Symbol.Create</text>
</a>
</g>
</g>
<!-- Node1&#45;&gt;Node2 -->
<g id="edge1" class="edge">
<title>Node1&#45;&gt;Node2</title>
<path fill="none" stroke="midnightblue" d="M187.16,-211.03C199.55,-212.44 212.23,-213.88 224.57,-215.28"/>
<polygon fill="midnightblue" stroke="midnightblue" points="224.51,-218.8 234.84,-216.45 225.3,-211.84 224.51,-218.8"/>
</g>
<!-- Node3 -->
<g id="node3" class="node">
<title>Node3</title>
<g id="a_node3"><a xlink:href="classQuantConnect_1_1Symbol.html#a7518a1932d1babbff128f2ba9666a78b" target="_top" xlink:title="Provides a convenience method for creating an option Symbol.">
<polygon fill="white" stroke="black" points="450.5,-372.5 450.5,-402.5 611.5,-402.5 611.5,-372.5 450.5,-372.5"/>
<text text-anchor="start" x="458.5" y="-390.5" font-family="Helvetica,sans-Serif" font-size="10.00">QuantConnect.Symbol.Create</text>
<text text-anchor="middle" x="531" y="-379.5" font-family="Helvetica,sans-Serif" font-size="10.00">Option</text>
</a>
</g>
</g>
<!-- Node1&#45;&gt;Node3 -->
<g id="edge18" class="edge">
<title>Node1&#45;&gt;Node3</title>
<path fill="none" stroke="midnightblue" d="M137.03,-221.05C202.33,-252.26 331.52,-312.72 444,-357.5 453.8,-361.4 464.33,-365.31 474.54,-368.95"/>
<polygon fill="midnightblue" stroke="midnightblue" points="473.61,-372.33 484.2,-372.35 475.93,-365.73 473.61,-372.33"/>
</g>
<!-- Node17 -->
<g id="node17" class="node">
<title>Node17</title>
<g id="a_node17"><a xlink:href="classQuantConnect_1_1Securities_1_1Future_1_1FuturesExpiryFunctions.html#a0d6bb7f1fd71689f70b115ccb0f470e0" target="_top" xlink:title="Method to retrieve the Function for a specific future symbol">
<polygon fill="white" stroke="black" points="232,-156 232,-197 399,-197 399,-156 232,-156"/>
<text text-anchor="start" x="240" y="-185" font-family="Helvetica,sans-Serif" font-size="10.00">QuantConnect.Securities.</text>
<text text-anchor="start" x="240" y="-174" font-family="Helvetica,sans-Serif" font-size="10.00">Future.FuturesExpiryFunctions.</text>
<text text-anchor="middle" x="315.5" y="-163" font-family="Helvetica,sans-Serif" font-size="10.00">FuturesExpiryFunction</text>
</a>
</g>
</g>
<!-- Node1&#45;&gt;Node17 -->
<g id="edge19" class="edge">
<title>Node1&#45;&gt;Node17</title>
<path fill="none" stroke="midnightblue" d="M187.16,-190.39C198.61,-189.14 210.31,-187.87 221.75,-186.62"/>
<polygon fill="midnightblue" stroke="midnightblue" points="222.17,-190.09 231.73,-185.53 221.41,-183.13 222.17,-190.09"/>
</g>
<!-- Node18 -->
<g id="node18" class="node">
<title>Node18</title>
<g id="a_node18"><a xlink:href="classQuantConnect_1_1Symbol.html#a1f3c25223fd9a7b753a4f84ece6469ab" target="_top" xlink:title="Method returns true, if symbol is a derivative canonical symbol">
<polygon fill="white" stroke="black" points="223,-118 223,-137 408,-137 408,-118 223,-118"/>
<text text-anchor="middle" x="315.5" y="-125" font-family="Helvetica,sans-Serif" font-size="10.00">QuantConnect.Symbol.IsCanonical</text>
</a>
</g>
</g>
<!-- Node1&#45;&gt;Node18 -->
<g id="edge20" class="edge">
<title>Node1&#45;&gt;Node18</title>
<path fill="none" stroke="midnightblue" d="M137.44,-180C162.05,-168.88 193.77,-155.58 223,-146.5 231.65,-143.81 240.87,-141.39 250.01,-139.26"/>
<polygon fill="midnightblue" stroke="midnightblue" points="250.88,-142.65 259.87,-137.04 249.35,-135.82 250.88,-142.65"/>
</g>
<!-- Node2&#45;&gt;Node3 -->
<g id="edge2" class="edge">
<title>Node2&#45;&gt;Node3</title>
<path fill="none" stroke="midnightblue" d="M325.24,-235.05C351.67,-263.85 429.78,-348.4 444,-357.5 450.56,-361.69 457.77,-365.39 465.15,-368.61"/>
<polygon fill="midnightblue" stroke="midnightblue" points="463.96,-371.91 474.54,-372.45 466.61,-365.43 463.96,-371.91"/>
</g>
<!-- Node4 -->
<g id="node4" class="node">
<title>Node4</title>
<g id="a_node4"><a xlink:href="classQuantConnect_1_1SecurityIdentifier.html#a0c21d7880c9fdd260883d11ea0c99a00" target="_top" xlink:title="Helper overload that will search the mapfiles to resolve the first date. This implementation uses the...">
<polygon fill="white" stroke="black" points="654,-350.5 654,-380.5 828,-380.5 828,-350.5 654,-350.5"/>
<text text-anchor="start" x="662" y="-368.5" font-family="Helvetica,sans-Serif" font-size="10.00">QuantConnect.SecurityIdentifier.</text>
<text text-anchor="middle" x="741" y="-357.5" font-family="Helvetica,sans-Serif" font-size="10.00">GenerateEquity</text>
</a>
</g>
</g>
<!-- Node2&#45;&gt;Node4 -->
<g id="edge13" class="edge">
<title>Node2&#45;&gt;Node4</title>
<path fill="none" stroke="midnightblue" d="M325.29,-235.12C344.56,-255.51 392.87,-302.95 444,-324.5 507.27,-351.17 584.23,-361.22 643.82,-364.71"/>
<polygon fill="midnightblue" stroke="midnightblue" points="643.8,-368.22 653.98,-365.25 644.18,-361.23 643.8,-368.22"/>
</g>
<!-- Node5 -->
<g id="node5" class="node">
<title>Node5</title>
<g id="a_node5"><a xlink:href="classQuantConnect_1_1Symbol.html#a59158f74116be3dad0ea0f3f3f134416" target="_top" xlink:title="Initializes a new instance of the Symbol class">
<polygon fill="white" stroke="black" points="658.5,-219 658.5,-238 823.5,-238 823.5,-219 658.5,-219"/>
<text text-anchor="middle" x="741" y="-226" font-family="Helvetica,sans-Serif" font-size="10.00">QuantConnect.Symbol.Symbol</text>
</a>
</g>
</g>
<!-- Node2&#45;&gt;Node5 -->
<g id="edge17" class="edge">
<title>Node2&#45;&gt;Node5</title>
<path fill="none" stroke="midnightblue" d="M381.74,-215.94C390.79,-213.47 399.79,-210.38 408,-206.5 426.58,-197.72 424.62,-184.33 444,-177.5 516.93,-151.78 542.18,-162.29 618,-177.5 652.82,-184.48 690.1,-201.65 714.16,-214.14"/>
<polygon fill="midnightblue" stroke="midnightblue" points="712.84,-217.4 723.31,-219 716.12,-211.22 712.84,-217.4"/>
</g>
<!-- Node10 -->
<g id="node10" class="node">
<title>Node10</title>
<g id="a_node10"><a xlink:href="classQuantConnect_1_1SecurityIdentifier.html#a02ca750115844561c001c2346fbafc00" target="_top" xlink:title="Generates a new SecurityIdentifier for a custom security with the option of providing the first date">
<polygon fill="white" stroke="black" points="444,-98.5 444,-128.5 618,-128.5 618,-98.5 444,-98.5"/>
<text text-anchor="start" x="452" y="-116.5" font-family="Helvetica,sans-Serif" font-size="10.00">QuantConnect.SecurityIdentifier.</text>
<text text-anchor="middle" x="531" y="-105.5" font-family="Helvetica,sans-Serif" font-size="10.00">GenerateBase</text>
</a>
</g>
</g>
<!-- Node2&#45;&gt;Node10 -->
<g id="edge9" class="edge">
<title>Node2&#45;&gt;Node10</title>
<path fill="none" stroke="midnightblue" d="M390.78,-215.89C396.91,-213.4 402.75,-210.31 408,-206.5 434.09,-187.55 419.2,-164.12 444,-143.5 448.79,-139.52 454.14,-136.05 459.76,-133.04"/>
<polygon fill="midnightblue" stroke="midnightblue" points="461.32,-136.17 468.79,-128.66 458.26,-129.88 461.32,-136.17"/>
</g>
<!-- Node12 -->
<g id="node12" class="node">
<title>Node12</title>
<g id="a_node12"><a xlink:href="classQuantConnect_1_1SecurityIdentifier.html#a53953b18d814c5445e4ecdcb3b555080" target="_top" xlink:title="Generates a new SecurityIdentifier for a CFD security">
<polygon fill="white" stroke="black" points="444,-49.5 444,-79.5 618,-79.5 618,-49.5 444,-49.5"/>
<text text-anchor="start" x="452" y="-67.5" font-family="Helvetica,sans-Serif" font-size="10.00">QuantConnect.SecurityIdentifier.</text>
<text text-anchor="middle" x="531" y="-56.5" font-family="Helvetica,sans-Serif" font-size="10.00">GenerateCfd</text>
</a>
</g>
</g>
<!-- Node2&#45;&gt;Node12 -->
<g id="edge11" class="edge">
<title>Node2&#45;&gt;Node12</title>
<path fill="none" stroke="midnightblue" d="M394.38,-215.79C399.31,-213.28 403.92,-210.21 408,-206.5 448.23,-169.87 405.23,-127.67 444,-89.5 445.45,-88.07 446.99,-86.72 448.58,-85.44"/>
<polygon fill="midnightblue" stroke="midnightblue" points="450.75,-88.2 457.05,-79.69 446.81,-82.41 450.75,-88.2"/>
</g>
<!-- Node13 -->
<g id="node13" class="node">
<title>Node13</title>
<g id="a_node13"><a xlink:href="classQuantConnect_1_1SecurityIdentifier.html#a5889a95a36ce927dd0a109cbfbcbe663" target="_top" xlink:title="Generates a new SecurityIdentifier for a Crypto pair">
<polygon fill="white" stroke="black" points="444,-0.5 444,-30.5 618,-30.5 618,-0.5 444,-0.5"/>
<text text-anchor="start" x="452" y="-18.5" font-family="Helvetica,sans-Serif" font-size="10.00">QuantConnect.SecurityIdentifier.</text>
<text text-anchor="middle" x="531" y="-7.5" font-family="Helvetica,sans-Serif" font-size="10.00">GenerateCrypto</text>
</a>
</g>
</g>
<!-- Node2&#45;&gt;Node13 -->
<g id="edge12" class="edge">
<title>Node2&#45;&gt;Node13</title>
<path fill="none" stroke="midnightblue" d="M395.17,-215.95C399.85,-213.38 404.2,-210.27 408,-206.5 461.62,-153.35 392.5,-95.7 444,-40.5 445.24,-39.17 446.55,-37.91 447.91,-36.72"/>
<polygon fill="midnightblue" stroke="midnightblue" points="450.29,-39.31 456.28,-30.57 446.15,-33.67 450.29,-39.31"/>
</g>
<!-- Node14 -->
<g id="node14" class="node">
<title>Node14</title>
<g id="a_node14"><a xlink:href="classQuantConnect_1_1SecurityIdentifier.html#a9cf0d3b208a5171e6112516ce441f18d" target="_top" xlink:title="Generates a new SecurityIdentifier for a forex pair">
<polygon fill="white" stroke="black" points="444,-284.5 444,-314.5 618,-314.5 618,-284.5 444,-284.5"/>
<text text-anchor="start" x="452" y="-302.5" font-family="Helvetica,sans-Serif" font-size="10.00">QuantConnect.SecurityIdentifier.</text>
<text text-anchor="middle" x="531" y="-291.5" font-family="Helvetica,sans-Serif" font-size="10.00">GenerateForex</text>
</a>
</g>
</g>
<!-- Node2&#45;&gt;Node14 -->
<g id="edge14" class="edge">
<title>Node2&#45;&gt;Node14</title>
<path fill="none" stroke="midnightblue" d="M338.82,-235.05C364.07,-245.67 406.57,-262.97 444,-275.5 450.08,-277.53 456.43,-279.54 462.82,-281.47"/>
<polygon fill="midnightblue" stroke="midnightblue" points="462.27,-284.95 472.85,-284.43 464.25,-278.24 462.27,-284.95"/>
</g>
<!-- Node15 -->
<g id="node15" class="node">
<title>Node15</title>
<g id="a_node15"><a xlink:href="classQuantConnect_1_1SecurityIdentifier.html#ad50a891c97cb0c084a9e2aa43607ed66" target="_top" xlink:title="Generates a new SecurityIdentifier for a future">
<polygon fill="white" stroke="black" points="444,-235.5 444,-265.5 618,-265.5 618,-235.5 444,-235.5"/>
<text text-anchor="start" x="452" y="-253.5" font-family="Helvetica,sans-Serif" font-size="10.00">QuantConnect.SecurityIdentifier.</text>
<text text-anchor="middle" x="531" y="-242.5" font-family="Helvetica,sans-Serif" font-size="10.00">GenerateFuture</text>
</a>
</g>
</g>
<!-- Node2&#45;&gt;Node15 -->
<g id="edge15" class="edge">
<title>Node2&#45;&gt;Node15</title>
<path fill="none" stroke="midnightblue" d="M396.3,-234.84C408.55,-236.28 421.29,-237.77 433.85,-239.24"/>
<polygon fill="midnightblue" stroke="midnightblue" points="433.52,-242.73 443.86,-240.41 434.33,-235.77 433.52,-242.73"/>
</g>
<!-- Node16 -->
<g id="node16" class="node">
<title>Node16</title>
<g id="a_node16"><a xlink:href="classQuantConnect_1_1SecurityIdentifier.html#ade05a8e57b041ab484cf585be8d05699" target="_top" xlink:title="Generates a new SecurityIdentifier for a INDEX security">
<polygon fill="white" stroke="black" points="444,-186.5 444,-216.5 618,-216.5 618,-186.5 444,-186.5"/>
<text text-anchor="start" x="452" y="-204.5" font-family="Helvetica,sans-Serif" font-size="10.00">QuantConnect.SecurityIdentifier.</text>
<text text-anchor="middle" x="531" y="-193.5" font-family="Helvetica,sans-Serif" font-size="10.00">GenerateIndex</text>
</a>
</g>
</g>
<!-- Node2&#45;&gt;Node16 -->
<g id="edge16" class="edge">
<title>Node2&#45;&gt;Node16</title>
<path fill="none" stroke="midnightblue" d="M396.3,-216.53C408.55,-215.15 421.29,-213.72 433.85,-212.31"/>
<polygon fill="midnightblue" stroke="midnightblue" points="434.31,-215.78 443.86,-211.18 433.53,-208.82 434.31,-215.78"/>
</g>
<!-- Node3&#45;&gt;Node4 -->
<g id="edge3" class="edge">
<title>Node3&#45;&gt;Node4</title>
<path fill="none" stroke="midnightblue" d="M611.53,-379.09C622.04,-377.98 632.91,-376.83 643.67,-375.69"/>
<polygon fill="midnightblue" stroke="midnightblue" points="644.36,-379.14 653.94,-374.6 643.63,-372.17 644.36,-379.14"/>
</g>
<!-- Node3&#45;&gt;Node5 -->
<g id="edge4" class="edge">
<title>Node3&#45;&gt;Node5</title>
<path fill="none" stroke="midnightblue" d="M553,-372.42C570.51,-359.78 596.04,-341.18 618,-324.5 654.32,-296.92 695.93,-263.85 719.97,-244.61"/>
<polygon fill="midnightblue" stroke="midnightblue" points="722.37,-247.16 727.99,-238.18 718,-241.7 722.37,-247.16"/>
</g>
<!-- Node6 -->
<g id="node6" class="node">
<title>Node6</title>
<g id="a_node6"><a xlink:href="classQuantConnect_1_1Symbol.html#a59b0795fa21f46c306deb5576fa03bb9" target="_top" xlink:title="Centralized helper method to resolve alias for a symbol">
<polygon fill="white" stroke="black" points="864,-219 864,-238 1034,-238 1034,-219 864,-219"/>
<text text-anchor="middle" x="949" y="-226" font-family="Helvetica,sans-Serif" font-size="10.00">QuantConnect.Symbol.GetAlias</text>
</a>
</g>
</g>
<!-- Node5&#45;&gt;Node6 -->
<g id="edge5" class="edge">
<title>Node5&#45;&gt;Node6</title>
<path fill="none" stroke="midnightblue" d="M823.71,-228.5C833.47,-228.5 843.49,-228.5 853.4,-228.5"/>
<polygon fill="midnightblue" stroke="midnightblue" points="853.68,-232 863.68,-228.5 853.68,-225 853.68,-232"/>
</g>
<!-- Node7 -->
<g id="node7" class="node">
<title>Node7</title>
<g id="a_node7"><a xlink:href="classQuantConnect_1_1SymbolRepresentation.html#abe54ff47eb211a2a99fb47b72683e3b9" target="_top" xlink:title="Returns future symbol ticker from underlying and expiration date. Function can generate tickers of tw...">
<polygon fill="white" stroke="black" points="1070,-238.5 1070,-268.5 1273,-268.5 1273,-238.5 1070,-238.5"/>
<text text-anchor="start" x="1078" y="-256.5" font-family="Helvetica,sans-Serif" font-size="10.00">QuantConnect.SymbolRepresentation.</text>
<text text-anchor="middle" x="1171.5" y="-245.5" font-family="Helvetica,sans-Serif" font-size="10.00">GenerateFutureTicker</text>
</a>
</g>
</g>
<!-- Node6&#45;&gt;Node7 -->
<g id="edge6" class="edge">
<title>Node6&#45;&gt;Node7</title>
<path fill="none" stroke="midnightblue" d="M1033.99,-238.02C1042.39,-238.97 1051,-239.95 1059.62,-240.93"/>
<polygon fill="midnightblue" stroke="midnightblue" points="1059.4,-244.43 1069.73,-242.07 1060.19,-237.47 1059.4,-244.43"/>
</g>
<!-- Node9 -->
<g id="node9" class="node">
<title>Node9</title>
<g id="a_node9"><a xlink:href="classQuantConnect_1_1SymbolRepresentation.html#ab133044f5cf8c16e700190a2202b215e" target="_top" xlink:title="Returns option symbol ticker in accordance with OSI symbology More information can be found at http:/...">
<polygon fill="white" stroke="black" points="1070,-189.5 1070,-219.5 1273,-219.5 1273,-189.5 1070,-189.5"/>
<text text-anchor="start" x="1078" y="-207.5" font-family="Helvetica,sans-Serif" font-size="10.00">QuantConnect.SymbolRepresentation.</text>
<text text-anchor="middle" x="1171.5" y="-196.5" font-family="Helvetica,sans-Serif" font-size="10.00">GenerateOptionTickerOSI</text>
</a>
</g>
</g>
<!-- Node6&#45;&gt;Node9 -->
<g id="edge8" class="edge">
<title>Node6&#45;&gt;Node9</title>
<path fill="none" stroke="midnightblue" d="M1034.31,-219.32C1042.69,-218.41 1051.3,-217.47 1059.9,-216.54"/>
<polygon fill="midnightblue" stroke="midnightblue" points="1060.43,-220 1069.99,-215.44 1059.67,-213.04 1060.43,-220"/>
</g>
<!-- Node8 -->
<g id="node8" class="node">
<title>Node8</title>
<g id="a_node8"><a xlink:href="classQuantConnect_1_1Securities_1_1Future_1_1FuturesExpiryUtilityFunctions.html#a4ccb1e2f2fe40ff09785a74a02f26df1" target="_top" xlink:title="Gets the number of months between the contract month and the expiry date.">
<polygon fill="white" stroke="black" points="1309,-233 1309,-274 1575,-274 1575,-233 1309,-233"/>
<text text-anchor="start" x="1317" y="-262" font-family="Helvetica,sans-Serif" font-size="10.00">QuantConnect.Securities.</text>
<text text-anchor="start" x="1317" y="-251" font-family="Helvetica,sans-Serif" font-size="10.00">Future.FuturesExpiryUtilityFunctions.</text>
<text text-anchor="middle" x="1442" y="-240" font-family="Helvetica,sans-Serif" font-size="10.00">GetDeltaBetweenContractMonthAndContractExpiry</text>
</a>
</g>
</g>
<!-- Node7&#45;&gt;Node8 -->
<g id="edge7" class="edge">
<title>Node7&#45;&gt;Node8</title>
<path fill="none" stroke="midnightblue" d="M1273.24,-253.5C1281.59,-253.5 1290.11,-253.5 1298.68,-253.5"/>
<polygon fill="midnightblue" stroke="midnightblue" points="1298.76,-257 1308.76,-253.5 1298.76,-250 1298.76,-257"/>
</g>
<!-- Node11 -->
<g id="node11" class="node">
<title>Node11</title>
<g id="a_node11"><a xlink:href="classQuantConnect_1_1SecurityIdentifier.html#a19e1f9da410608020d74ed9e7d283575" target="_top" xlink:title="Generates the Symbol property for QuantConnect.SecurityType.Base security identifiers">
<polygon fill="white" stroke="black" points="654,-98.5 654,-128.5 828,-128.5 828,-98.5 654,-98.5"/>
<text text-anchor="start" x="662" y="-116.5" font-family="Helvetica,sans-Serif" font-size="10.00">QuantConnect.SecurityIdentifier.</text>
<text text-anchor="middle" x="741" y="-105.5" font-family="Helvetica,sans-Serif" font-size="10.00">GenerateBaseSymbol</text>
</a>
</g>
</g>
<!-- Node10&#45;&gt;Node11 -->
<g id="edge10" class="edge">
<title>Node10&#45;&gt;Node11</title>
<path fill="none" stroke="midnightblue" d="M618.1,-113.5C626.62,-113.5 635.3,-113.5 643.91,-113.5"/>
<polygon fill="midnightblue" stroke="midnightblue" points="643.96,-117 653.96,-113.5 643.96,-110 643.96,-117"/>
</g>
</g>
</svg>
        <g id="navigator" transform="translate(0 0)" fill="#404254">
                <rect fill="#f2f5e9" fill-opacity="0.5" stroke="#606060" stroke-width=".5" x="0" y="0" width="60" height="60"/>
                <use id="zoomplus" xlink:href="#zoomPlus" x="17" y="9" onmousedown="handleZoom(evt,'in')"/>
                <use id="zoomminus" xlink:href="#zoomMin" x="42" y="9" onmousedown="handleZoom(evt,'out')"/>
                <use id="reset" xlink:href="#resetDef" x="30" y="36" onmousedown="handleReset()"/>
                <g id="arrowUp" xlink:href="#dirArrow" transform="translate(30 24)" onmousedown="handlePan(0,-1)">
                  <use xlink:href="#rim" fill="#404040">
                        <set attributeName="fill" to="#808080" begin="arrowUp.mouseover" end="arrowUp.mouseout"/>
                  </use>
                  <path fill="none" stroke="white" stroke-width="1.5" d="M0,-3.0v7 M-2.5,-0.5L0,-3.0L2.5,-0.5"/>
                </g>
                <g id="arrowRight" xlink:href="#dirArrow" transform="rotate(90) translate(36 -43)" onmousedown="handlePan(1,0)">
                  <use xlink:href="#rim" fill="#404040">
                        <set attributeName="fill" to="#808080" begin="arrowRight.mouseover" end="arrowRight.mouseout"/>
                  </use>
                  <path fill="none" stroke="white" stroke-width="1.5" d="M0,-3.0v7 M-2.5,-0.5L0,-3.0L2.5,-0.5"/>
                </g>
                <g id="arrowDown" xlink:href="#dirArrow" transform="rotate(180) translate(-30 -48)" onmousedown="handlePan(0,1)">
                  <use xlink:href="#rim" fill="#404040">
                        <set attributeName="fill" to="#808080" begin="arrowDown.mouseover" end="arrowDown.mouseout"/>
                  </use>
                  <path fill="none" stroke="white" stroke-width="1.5" d="M0,-3.0v7 M-2.5,-0.5L0,-3.0L2.5,-0.5"/>
                </g>
                <g id="arrowLeft" xlink:href="#dirArrow" transform="rotate(270) translate(-36 17)" onmousedown="handlePan(-1,0)">
                  <use xlink:href="#rim" fill="#404040">
                        <set attributeName="fill" to="#808080" begin="arrowLeft.mouseover" end="arrowLeft.mouseout"/>
                  </use>
                  <path fill="none" stroke="white" stroke-width="1.5" d="M0,-3.0v7 M-2.5,-0.5L0,-3.0L2.5,-0.5"/>
                </g>
        </g>
        <svg viewBox="0 0 15 15" width="100%" height="30px" preserveAspectRatio="xMaxYMin meet">
         <g id="arrow_out" transform="scale(0.3 0.3)">
          <a xlink:href="classQuantConnect_1_1Securities_1_1FutureOption_1_1FuturesOptionsExpiryFunctions_af3cfd4b1910ae9ed1d89c96316ff341a_cgraph_org.svg" target="_base">
           <rect id="button" ry="5" rx="5" y="6" x="6" height="38" width="38"
                fill="#f2f5e9" fill-opacity="0.5" stroke="#606060" stroke-width="1.0"/>
           <path id="arrow"
             d="M 11.500037,31.436501 C 11.940474,20.09759 22.043105,11.32322 32.158766,21.979434 L 37.068811,17.246167 C 37.068811,17.246167 37.088388,32 37.088388,32 L 22.160133,31.978069 C 22.160133,31.978069 26.997745,27.140456 26.997745,27.140456 C 18.528582,18.264221 13.291696,25.230495 11.500037,31.436501 z"
             style="fill:#404040;"/>
          </a>
         </g>
        </svg>
</svg>
