<?xml version="1.0" encoding="UTF-8" standalone="no"?>
<!DOCTYPE svg PUBLIC "-//W3C//DTD SVG 1.1//EN"
 "http://www.w3.org/Graphics/SVG/1.1/DTD/svg11.dtd">
<!-- Generated by graphviz version 2.43.0 (0)
 -->
<!-- Title: QuantConnect.Lean.Engine.DataFeeds.LiveFutureChainProvider Pages: 1 -->
<svg width="288pt" height="151pt"
 viewBox="0.00 0.00 288.00 151.00" xmlns="http://www.w3.org/2000/svg" xmlns:xlink="http://www.w3.org/1999/xlink">
<g id="graph0" class="graph" transform="scale(1 1) rotate(0) translate(4 147)">
<title>QuantConnect.Lean.Engine.DataFeeds.LiveFutureChainProvider</title>
<polygon fill="white" stroke="transparent" points="-4,4 -4,-147 284,-147 284,4 -4,4"/>
<!-- Node1 -->
<g id="node1" class="node">
<title>Node1</title>
<g id="a_node1"><a xlink:title="An implementation of IFutureChainProvider that fetches the list of contracts from an external source">
<polygon fill="#bfbfbf" stroke="black" points="50,-0.5 50,-30.5 241,-30.5 241,-0.5 50,-0.5"/>
<text text-anchor="start" x="58" y="-18.5" font-family="Helvetica,sans-Serif" font-size="10.00">QuantConnect.Lean.Engine.</text>
<text text-anchor="middle" x="145.5" y="-7.5" font-family="Helvetica,sans-Serif" font-size="10.00">DataFeeds.LiveFutureChainProvider</text>
</a>
</g>
</g>
<!-- Node2 -->
<g id="node2" class="node">
<title>Node2</title>
<g id="a_node2"><a xlink:href="classQuantConnect_1_1Lean_1_1Engine_1_1DataFeeds_1_1BacktestingFutureChainProvider.html" target="_top" xlink:title="An implementation of IFutureChainProvider that reads the list of contracts from open interest zip dat...">
<polygon fill="white" stroke="black" points="59,-67.5 59,-86.5 232,-86.5 232,-67.5 59,-67.5"/>
<text text-anchor="middle" x="145.5" y="-74.5" font-family="Helvetica,sans-Serif" font-size="10.00">BacktestingFutureChainProvider</text>
</a>
</g>
</g>
<!-- Node2&#45;&gt;Node1 -->
<g id="edge1" class="edge">
<title>Node2&#45;&gt;Node1</title>
<path fill="none" stroke="midnightblue" d="M145.5,-57.23C145.5,-48.59 145.5,-38.5 145.5,-30.52"/>
<polygon fill="midnightblue" stroke="midnightblue" points="142,-57.48 145.5,-67.48 149,-57.48 142,-57.48"/>
</g>
<!-- Node3 -->
<g id="node3" class="node">
<title>Node3</title>
<g id="a_node3"><a xlink:href="classQuantConnect_1_1Lean_1_1Engine_1_1DataFeeds_1_1BacktestingChainProvider.html" target="_top" xlink:title="Base backtesting cache provider which will source symbols from local zip files">
<polygon fill="white" stroke="black" points="0,-123.5 0,-142.5 143,-142.5 143,-123.5 0,-123.5"/>
<text text-anchor="middle" x="71.5" y="-130.5" font-family="Helvetica,sans-Serif" font-size="10.00">BacktestingChainProvider</text>
</a>
</g>
</g>
<!-- Node3&#45;&gt;Node2 -->
<g id="edge2" class="edge">
<title>Node3&#45;&gt;Node2</title>
<path fill="none" stroke="midnightblue" d="M91.53,-117.38C104.91,-107.62 122.06,-95.11 133.39,-86.83"/>
<polygon fill="midnightblue" stroke="midnightblue" points="89.4,-114.6 83.39,-123.32 93.53,-120.26 89.4,-114.6"/>
</g>
<!-- Node4 -->
<g id="node4" class="node">
<title>Node4</title>
<g id="a_node4"><a xlink:href="interfaceQuantConnect_1_1Interfaces_1_1IFutureChainProvider.html" target="_top" xlink:title="Provides the full future chain for a given underlying.">
<polygon fill="white" stroke="black" points="161,-123.5 161,-142.5 280,-142.5 280,-123.5 161,-123.5"/>
<text text-anchor="middle" x="220.5" y="-130.5" font-family="Helvetica,sans-Serif" font-size="10.00">IFutureChainProvider</text>
</a>
</g>
</g>
<!-- Node4&#45;&gt;Node2 -->
<g id="edge3" class="edge">
<title>Node4&#45;&gt;Node2</title>
<path fill="none" stroke="midnightblue" d="M200.19,-117.38C186.64,-107.62 169.26,-95.11 157.77,-86.83"/>
<polygon fill="midnightblue" stroke="midnightblue" points="198.29,-120.32 208.45,-123.32 202.38,-114.64 198.29,-120.32"/>
</g>
</g>
</svg>
