<?xml version="1.0" encoding="UTF-8" standalone="no"?>
<!DOCTYPE svg PUBLIC "-//W3C//DTD SVG 1.1//EN"
 "http://www.w3.org/Graphics/SVG/1.1/DTD/svg11.dtd">
<!-- Generated by graphviz version 2.43.0 (0)
 -->
<!-- Title: QuantConnect.Securities.Security.SetMarketPrice Pages: 1 -->
<svg width="770pt" height="88pt"
 viewBox="0.00 0.00 770.00 88.00" xmlns="http://www.w3.org/2000/svg" xmlns:xlink="http://www.w3.org/1999/xlink">
<g id="graph0" class="graph" transform="scale(1 1) rotate(0) translate(4 84)">
<title>QuantConnect.Securities.Security.SetMarketPrice</title>
<polygon fill="white" stroke="transparent" points="-4,4 -4,-84 766,-84 766,4 -4,4"/>
<!-- Node1 -->
<g id="node1" class="node">
<title>Node1</title>
<g id="a_node1"><a xlink:title="Update any security properties based on the latest market data and time">
<polygon fill="#bfbfbf" stroke="black" points="622,-24.5 622,-54.5 762,-54.5 762,-24.5 622,-24.5"/>
<text text-anchor="start" x="630" y="-42.5" font-family="Helvetica,sans-Serif" font-size="10.00">QuantConnect.Securities.</text>
<text text-anchor="middle" x="692" y="-31.5" font-family="Helvetica,sans-Serif" font-size="10.00">Security.SetMarketPrice</text>
</a>
</g>
</g>
<!-- Node2 -->
<g id="node2" class="node">
<title>Node2</title>
<g id="a_node2"><a xlink:href="classQuantConnect_1_1Securities_1_1SecurityPortfolioManager.html#a808f4e2619ea3f081dbe17e44c6015d7" target="_top" xlink:title="Applies a split to the portfolio">
<polygon fill="white" stroke="black" points="394,-49.5 394,-79.5 586,-79.5 586,-49.5 394,-49.5"/>
<text text-anchor="start" x="402" y="-67.5" font-family="Helvetica,sans-Serif" font-size="10.00">QuantConnect.Securities.</text>
<text text-anchor="middle" x="490" y="-56.5" font-family="Helvetica,sans-Serif" font-size="10.00">SecurityPortfolioManager.ApplySplit</text>
</a>
</g>
</g>
<!-- Node1&#45;&gt;Node2 -->
<g id="edge1" class="edge">
<title>Node1&#45;&gt;Node2</title>
<path fill="none" stroke="midnightblue" d="M611.77,-49.4C603.37,-50.45 594.77,-51.53 586.22,-52.6"/>
<polygon fill="midnightblue" stroke="midnightblue" points="612.4,-52.85 621.89,-48.14 611.53,-45.91 612.4,-52.85"/>
</g>
<!-- Node5 -->
<g id="node5" class="node">
<title>Node5</title>
<g id="a_node5"><a xlink:href="classQuantConnect_1_1Securities_1_1FuncSecuritySeeder.html#afca3381afc2708e86842ccb94918046d" target="_top" xlink:title="Seed the security">
<polygon fill="white" stroke="black" points="400.5,-0.5 400.5,-30.5 579.5,-30.5 579.5,-0.5 400.5,-0.5"/>
<text text-anchor="start" x="408.5" y="-18.5" font-family="Helvetica,sans-Serif" font-size="10.00">QuantConnect.Securities.</text>
<text text-anchor="middle" x="490" y="-7.5" font-family="Helvetica,sans-Serif" font-size="10.00">FuncSecuritySeeder.SeedSecurity</text>
</a>
</g>
</g>
<!-- Node1&#45;&gt;Node5 -->
<g id="edge4" class="edge">
<title>Node1&#45;&gt;Node5</title>
<path fill="none" stroke="midnightblue" d="M611.83,-30C601.22,-28.73 590.27,-27.41 579.51,-26.12"/>
<polygon fill="midnightblue" stroke="midnightblue" points="611.55,-33.49 621.89,-31.21 612.38,-26.54 611.55,-33.49"/>
</g>
<!-- Node3 -->
<g id="node3" class="node">
<title>Node3</title>
<g id="a_node3"><a xlink:href="classQuantConnect_1_1Lean_1_1Engine_1_1AlgorithmManager.html#ab1723b951a86a876c7ae3cc7281365f3" target="_top" xlink:title="Helper method to apply a split to an algorithm instance">
<polygon fill="white" stroke="black" points="187,-49.5 187,-79.5 358,-79.5 358,-49.5 187,-49.5"/>
<text text-anchor="start" x="195" y="-67.5" font-family="Helvetica,sans-Serif" font-size="10.00">QuantConnect.Lean.Engine.</text>
<text text-anchor="middle" x="272.5" y="-56.5" font-family="Helvetica,sans-Serif" font-size="10.00">AlgorithmManager.HandleSplits</text>
</a>
</g>
</g>
<!-- Node2&#45;&gt;Node3 -->
<g id="edge2" class="edge">
<title>Node2&#45;&gt;Node3</title>
<path fill="none" stroke="midnightblue" d="M383.83,-64.5C375.27,-64.5 366.69,-64.5 358.3,-64.5"/>
<polygon fill="midnightblue" stroke="midnightblue" points="383.85,-68 393.85,-64.5 383.85,-61 383.85,-68"/>
</g>
<!-- Node4 -->
<g id="node4" class="node">
<title>Node4</title>
<g id="a_node4"><a xlink:href="classQuantConnect_1_1Lean_1_1Engine_1_1AlgorithmManager.html#a5ba2600e7fa0469346ee8841fa0e32f8" target="_top" xlink:title="Launch the algorithm manager to run this strategy">
<polygon fill="white" stroke="black" points="0,-49.5 0,-79.5 151,-79.5 151,-49.5 0,-49.5"/>
<text text-anchor="start" x="8" y="-67.5" font-family="Helvetica,sans-Serif" font-size="10.00">QuantConnect.Lean.Engine.</text>
<text text-anchor="middle" x="75.5" y="-56.5" font-family="Helvetica,sans-Serif" font-size="10.00">AlgorithmManager.Run</text>
</a>
</g>
</g>
<!-- Node3&#45;&gt;Node4 -->
<g id="edge3" class="edge">
<title>Node3&#45;&gt;Node4</title>
<path fill="none" stroke="midnightblue" d="M176.72,-64.5C168.08,-64.5 159.42,-64.5 151,-64.5"/>
<polygon fill="midnightblue" stroke="midnightblue" points="176.82,-68 186.82,-64.5 176.82,-61 176.82,-68"/>
</g>
</g>
</svg>
