<?xml version="1.0" encoding="UTF-8" standalone="no"?>
<!DOCTYPE svg PUBLIC "-//W3C//DTD SVG 1.1//EN"
 "http://www.w3.org/Graphics/SVG/1.1/DTD/svg11.dtd">
<!-- Generated by graphviz version 2.43.0 (0)
 -->
<!-- Title: QuantConnect.Indicators.BarIndicator Pages: 1 -->
<svg width="554pt" height="1266pt"
 viewBox="0.00 0.00 554.00 1266.00" xmlns="http://www.w3.org/2000/svg" xmlns:xlink="http://www.w3.org/1999/xlink">
<g id="graph0" class="graph" transform="scale(1 1) rotate(0) translate(4 1262)">
<title>QuantConnect.Indicators.BarIndicator</title>
<polygon fill="white" stroke="transparent" points="-4,4 -4,-1262 550,-1262 550,4 -4,4"/>
<!-- Node1 -->
<g id="node1" class="node">
<title>Node1</title>
<g id="a_node1"><a xlink:title="The BarIndicator is an indicator that accepts IBaseDataBar data as its input.">
<polygon fill="#bfbfbf" stroke="black" points="181,-612.5 181,-642.5 321,-642.5 321,-612.5 181,-612.5"/>
<text text-anchor="start" x="189" y="-630.5" font-family="Helvetica,sans-Serif" font-size="10.00">QuantConnect.Indicators.</text>
<text text-anchor="middle" x="251" y="-619.5" font-family="Helvetica,sans-Serif" font-size="10.00">BarIndicator</text>
</a>
</g>
</g>
<!-- Node3 -->
<g id="node3" class="node">
<title>Node3</title>
<g id="a_node3"><a xlink:href="classQuantConnect_1_1Indicators_1_1Alpha.html" target="_top" xlink:title="In financial analysis, the Alpha indicator is used to measure the performance of an investment (such ...">
<polygon fill="white" stroke="black" points="381.5,-1227.5 381.5,-1257.5 521.5,-1257.5 521.5,-1227.5 381.5,-1227.5"/>
<text text-anchor="start" x="389.5" y="-1245.5" font-family="Helvetica,sans-Serif" font-size="10.00">QuantConnect.Indicators.</text>
<text text-anchor="middle" x="451.5" y="-1234.5" font-family="Helvetica,sans-Serif" font-size="10.00">Alpha</text>
</a>
</g>
</g>
<!-- Node1&#45;&gt;Node3 -->
<g id="edge2" class="edge">
<title>Node1&#45;&gt;Node3</title>
<path fill="none" stroke="midnightblue" d="M252.96,-652.93C257.35,-755.08 278.71,-1134.07 357,-1218.5 363.61,-1225.63 372.02,-1230.76 381.08,-1234.43"/>
<polygon fill="midnightblue" stroke="midnightblue" points="256.45,-652.49 252.54,-642.64 249.45,-652.78 256.45,-652.49"/>
</g>
<!-- Node4 -->
<g id="node4" class="node">
<title>Node4</title>
<g id="a_node4"><a xlink:href="classQuantConnect_1_1Indicators_1_1AroonOscillator.html" target="_top" xlink:title="The Aroon Oscillator is the difference between AroonUp and AroonDown. The value of this indicator flu...">
<polygon fill="white" stroke="black" points="381.5,-1178.5 381.5,-1208.5 521.5,-1208.5 521.5,-1178.5 381.5,-1178.5"/>
<text text-anchor="start" x="389.5" y="-1196.5" font-family="Helvetica,sans-Serif" font-size="10.00">QuantConnect.Indicators.</text>
<text text-anchor="middle" x="451.5" y="-1185.5" font-family="Helvetica,sans-Serif" font-size="10.00">AroonOscillator</text>
</a>
</g>
</g>
<!-- Node1&#45;&gt;Node4 -->
<g id="edge3" class="edge">
<title>Node1&#45;&gt;Node4</title>
<path fill="none" stroke="midnightblue" d="M253.39,-652.69C259.23,-749.08 284.87,-1092.91 357,-1169.5 363.66,-1176.58 372.11,-1181.68 381.18,-1185.34"/>
<polygon fill="midnightblue" stroke="midnightblue" points="256.89,-652.46 252.8,-642.68 249.9,-652.87 256.89,-652.46"/>
</g>
<!-- Node5 -->
<g id="node5" class="node">
<title>Node5</title>
<g id="a_node5"><a xlink:href="classQuantConnect_1_1Indicators_1_1AverageDirectionalIndex.html" target="_top" xlink:title="This indicator computes Average Directional Index which measures trend strength without regard to tre...">
<polygon fill="white" stroke="black" points="381.5,-1129.5 381.5,-1159.5 521.5,-1159.5 521.5,-1129.5 381.5,-1129.5"/>
<text text-anchor="start" x="389.5" y="-1147.5" font-family="Helvetica,sans-Serif" font-size="10.00">QuantConnect.Indicators.</text>
<text text-anchor="middle" x="451.5" y="-1136.5" font-family="Helvetica,sans-Serif" font-size="10.00">AverageDirectionalIndex</text>
</a>
</g>
</g>
<!-- Node1&#45;&gt;Node5 -->
<g id="edge4" class="edge">
<title>Node1&#45;&gt;Node5</title>
<path fill="none" stroke="midnightblue" d="M253.98,-652.95C261.55,-743.84 291.59,-1050.67 357,-1119.5 363.71,-1126.56 372.18,-1131.71 381.27,-1135.45"/>
<polygon fill="midnightblue" stroke="midnightblue" points="257.45,-652.42 253.15,-642.74 250.47,-652.99 257.45,-652.42"/>
</g>
<!-- Node6 -->
<g id="node6" class="node">
<title>Node6</title>
<g id="a_node6"><a xlink:href="classQuantConnect_1_1Indicators_1_1AverageDirectionalMovementIndexRating.html" target="_top" xlink:title="This indicator computes the Average Directional Movement Index Rating (ADXR). The Average Directional...">
<polygon fill="white" stroke="black" points="357,-1069 357,-1110 546,-1110 546,-1069 357,-1069"/>
<text text-anchor="start" x="365" y="-1098" font-family="Helvetica,sans-Serif" font-size="10.00">QuantConnect.Indicators.</text>
<text text-anchor="start" x="365" y="-1087" font-family="Helvetica,sans-Serif" font-size="10.00">AverageDirectionalMovementIndex</text>
<text text-anchor="middle" x="451.5" y="-1076" font-family="Helvetica,sans-Serif" font-size="10.00">Rating</text>
</a>
</g>
</g>
<!-- Node1&#45;&gt;Node6 -->
<g id="edge5" class="edge">
<title>Node1&#45;&gt;Node6</title>
<path fill="none" stroke="midnightblue" d="M254.89,-652.69C264.88,-735.7 300.52,-998.8 357,-1059.5 360.25,-1062.99 363.91,-1066.08 367.85,-1068.81"/>
<polygon fill="midnightblue" stroke="midnightblue" points="258.35,-652.15 253.7,-642.63 251.4,-652.97 258.35,-652.15"/>
</g>
<!-- Node7 -->
<g id="node7" class="node">
<title>Node7</title>
<g id="a_node7"><a xlink:href="classQuantConnect_1_1Indicators_1_1AverageTrueRange.html" target="_top" xlink:title="The AverageTrueRange indicator is a measure of volatility introduced by Welles Wilder in his book: Ne...">
<polygon fill="white" stroke="black" points="381.5,-1019.5 381.5,-1049.5 521.5,-1049.5 521.5,-1019.5 381.5,-1019.5"/>
<text text-anchor="start" x="389.5" y="-1037.5" font-family="Helvetica,sans-Serif" font-size="10.00">QuantConnect.Indicators.</text>
<text text-anchor="middle" x="451.5" y="-1026.5" font-family="Helvetica,sans-Serif" font-size="10.00">AverageTrueRange</text>
</a>
</g>
</g>
<!-- Node1&#45;&gt;Node7 -->
<g id="edge6" class="edge">
<title>Node1&#45;&gt;Node7</title>
<path fill="none" stroke="midnightblue" d="M255.61,-652.93C267.06,-730.07 304.89,-959.23 357,-1010.5 363.81,-1017.2 372.22,-1022.11 381.19,-1025.68"/>
<polygon fill="midnightblue" stroke="midnightblue" points="259.02,-652.08 254.11,-642.7 252.1,-653.1 259.02,-652.08"/>
</g>
<!-- Node8 -->
<g id="node8" class="node">
<title>Node8</title>
<g id="a_node8"><a xlink:href="classQuantConnect_1_1Indicators_1_1AwesomeOscillator.html" target="_top" xlink:title="The Awesome Oscillator Indicator tracks the price midpoint&#45;movement of a security....">
<polygon fill="white" stroke="black" points="381.5,-970.5 381.5,-1000.5 521.5,-1000.5 521.5,-970.5 381.5,-970.5"/>
<text text-anchor="start" x="389.5" y="-988.5" font-family="Helvetica,sans-Serif" font-size="10.00">QuantConnect.Indicators.</text>
<text text-anchor="middle" x="451.5" y="-977.5" font-family="Helvetica,sans-Serif" font-size="10.00">AwesomeOscillator</text>
</a>
</g>
</g>
<!-- Node1&#45;&gt;Node8 -->
<g id="edge7" class="edge">
<title>Node1&#45;&gt;Node8</title>
<path fill="none" stroke="midnightblue" d="M252.1,-652.9C253.8,-715.12 267.12,-876.29 357,-961.5 363.93,-968.07 372.41,-972.91 381.41,-976.45"/>
<polygon fill="midnightblue" stroke="midnightblue" points="255.6,-652.73 251.91,-642.8 248.6,-652.86 255.6,-652.73"/>
</g>
<!-- Node9 -->
<g id="node9" class="node">
<title>Node9</title>
<g id="a_node9"><a xlink:href="classQuantConnect_1_1Indicators_1_1BalanceOfPower.html" target="_top" xlink:title="This indicator computes the Balance Of Power (BOP). The Balance Of Power is calculated with the follo...">
<polygon fill="white" stroke="black" points="381.5,-921.5 381.5,-951.5 521.5,-951.5 521.5,-921.5 381.5,-921.5"/>
<text text-anchor="start" x="389.5" y="-939.5" font-family="Helvetica,sans-Serif" font-size="10.00">QuantConnect.Indicators.</text>
<text text-anchor="middle" x="451.5" y="-928.5" font-family="Helvetica,sans-Serif" font-size="10.00">BalanceOfPower</text>
</a>
</g>
</g>
<!-- Node1&#45;&gt;Node9 -->
<g id="edge8" class="edge">
<title>Node1&#45;&gt;Node9</title>
<path fill="none" stroke="midnightblue" d="M253.78,-652.81C259.07,-708.22 279.59,-840.97 357,-911.5 363.96,-917.84 372.34,-922.6 381.2,-926.17"/>
<polygon fill="midnightblue" stroke="midnightblue" points="257.26,-652.46 252.91,-642.8 250.29,-653.06 257.26,-652.46"/>
</g>
<!-- Node10 -->
<g id="node10" class="node">
<title>Node10</title>
<g id="a_node10"><a xlink:href="classQuantConnect_1_1Indicators_1_1Beta.html" target="_top" xlink:title="In technical analysis Beta indicator is used to measure volatility or risk of a target (ETF) relative...">
<polygon fill="white" stroke="black" points="370.5,-883 370.5,-902 532.5,-902 532.5,-883 370.5,-883"/>
<text text-anchor="middle" x="451.5" y="-890" font-family="Helvetica,sans-Serif" font-size="10.00">QuantConnect.Indicators.Beta</text>
</a>
</g>
</g>
<!-- Node1&#45;&gt;Node10 -->
<g id="edge9" class="edge">
<title>Node1&#45;&gt;Node10</title>
<path fill="none" stroke="midnightblue" d="M255.01,-652.5C262.47,-702.76 286.58,-816.1 357,-873.5 361.62,-877.27 366.79,-880.35 372.27,-882.87"/>
<polygon fill="midnightblue" stroke="midnightblue" points="258.47,-651.93 253.63,-642.51 251.54,-652.89 258.47,-651.93"/>
</g>
<!-- Node11 -->
<g id="node11" class="node">
<title>Node11</title>
<g id="a_node11"><a xlink:href="classQuantConnect_1_1Indicators_1_1CommodityChannelIndex.html" target="_top" xlink:title="Represents the traditional commodity channel index (CCI)">
<polygon fill="white" stroke="black" points="381.5,-833.5 381.5,-863.5 521.5,-863.5 521.5,-833.5 381.5,-833.5"/>
<text text-anchor="start" x="389.5" y="-851.5" font-family="Helvetica,sans-Serif" font-size="10.00">QuantConnect.Indicators.</text>
<text text-anchor="middle" x="451.5" y="-840.5" font-family="Helvetica,sans-Serif" font-size="10.00">CommodityChannelIndex</text>
</a>
</g>
</g>
<!-- Node1&#45;&gt;Node11 -->
<g id="edge10" class="edge">
<title>Node1&#45;&gt;Node11</title>
<path fill="none" stroke="midnightblue" d="M258.15,-652.24C269.92,-694.28 299.7,-779.46 357,-824.5 364.25,-830.2 372.7,-834.55 381.49,-837.88"/>
<polygon fill="midnightblue" stroke="midnightblue" points="261.52,-651.28 255.54,-642.53 254.76,-653.1 261.52,-651.28"/>
</g>
<!-- Node12 -->
<g id="node12" class="node">
<title>Node12</title>
<g id="a_node12"><a xlink:href="classQuantConnect_1_1Indicators_1_1Correlation.html" target="_top" xlink:title="The Correlation Indicator is a valuable tool in technical analysis, designed to quantify the degree o...">
<polygon fill="white" stroke="black" points="381.5,-784.5 381.5,-814.5 521.5,-814.5 521.5,-784.5 381.5,-784.5"/>
<text text-anchor="start" x="389.5" y="-802.5" font-family="Helvetica,sans-Serif" font-size="10.00">QuantConnect.Indicators.</text>
<text text-anchor="middle" x="451.5" y="-791.5" font-family="Helvetica,sans-Serif" font-size="10.00">Correlation</text>
</a>
</g>
</g>
<!-- Node1&#45;&gt;Node12 -->
<g id="edge11" class="edge">
<title>Node1&#45;&gt;Node12</title>
<path fill="none" stroke="midnightblue" d="M262.78,-652.21C278.55,-685.43 311.13,-743.95 357,-775.5 364.32,-780.53 372.61,-784.51 381.17,-787.66"/>
<polygon fill="midnightblue" stroke="midnightblue" points="265.79,-650.39 258.42,-642.77 259.43,-653.32 265.79,-650.39"/>
</g>
<!-- Node13 -->
<g id="node13" class="node">
<title>Node13</title>
<g id="a_node13"><a xlink:href="classQuantConnect_1_1Indicators_1_1DeMarkerIndicator.html" target="_top" xlink:title="In the DeMarker strategy, for some period of size N, set:">
<polygon fill="white" stroke="black" points="381.5,-735.5 381.5,-765.5 521.5,-765.5 521.5,-735.5 381.5,-735.5"/>
<text text-anchor="start" x="389.5" y="-753.5" font-family="Helvetica,sans-Serif" font-size="10.00">QuantConnect.Indicators.</text>
<text text-anchor="middle" x="451.5" y="-742.5" font-family="Helvetica,sans-Serif" font-size="10.00">DeMarkerIndicator</text>
</a>
</g>
</g>
<!-- Node1&#45;&gt;Node13 -->
<g id="edge12" class="edge">
<title>Node1&#45;&gt;Node13</title>
<path fill="none" stroke="midnightblue" d="M270.3,-650.53C289.53,-673.19 321.82,-707.12 357,-726.5 364.49,-730.62 372.7,-734.06 381.05,-736.91"/>
<polygon fill="midnightblue" stroke="midnightblue" points="272.91,-648.19 263.82,-642.74 267.52,-652.67 272.91,-648.19"/>
</g>
<!-- Node14 -->
<g id="node14" class="node">
<title>Node14</title>
<g id="a_node14"><a xlink:href="classQuantConnect_1_1Indicators_1_1DonchianChannel.html" target="_top" xlink:title="This indicator computes the upper and lower band of the Donchian Channel. The upper band is computed ...">
<polygon fill="white" stroke="black" points="381.5,-686.5 381.5,-716.5 521.5,-716.5 521.5,-686.5 381.5,-686.5"/>
<text text-anchor="start" x="389.5" y="-704.5" font-family="Helvetica,sans-Serif" font-size="10.00">QuantConnect.Indicators.</text>
<text text-anchor="middle" x="451.5" y="-693.5" font-family="Helvetica,sans-Serif" font-size="10.00">DonchianChannel</text>
</a>
</g>
</g>
<!-- Node1&#45;&gt;Node14 -->
<g id="edge13" class="edge">
<title>Node1&#45;&gt;Node14</title>
<path fill="none" stroke="midnightblue" d="M288.87,-647.21C308.67,-657.24 333.73,-669.06 357,-677.5 365.98,-680.76 375.6,-683.75 385.12,-686.44"/>
<polygon fill="midnightblue" stroke="midnightblue" points="290.38,-644.05 279.89,-642.6 287.19,-650.28 290.38,-644.05"/>
</g>
<!-- Node15 -->
<g id="node15" class="node">
<title>Node15</title>
<g id="a_node15"><a xlink:href="classQuantConnect_1_1Indicators_1_1FisherTransform.html" target="_top" xlink:title="The Fisher transform is a mathematical process which is used to convert any data set to a modified da...">
<polygon fill="white" stroke="black" points="381.5,-637.5 381.5,-667.5 521.5,-667.5 521.5,-637.5 381.5,-637.5"/>
<text text-anchor="start" x="389.5" y="-655.5" font-family="Helvetica,sans-Serif" font-size="10.00">QuantConnect.Indicators.</text>
<text text-anchor="middle" x="451.5" y="-644.5" font-family="Helvetica,sans-Serif" font-size="10.00">FisherTransform</text>
</a>
</g>
</g>
<!-- Node1&#45;&gt;Node15 -->
<g id="edge14" class="edge">
<title>Node1&#45;&gt;Node15</title>
<path fill="none" stroke="midnightblue" d="M331.32,-637.49C347.84,-639.57 365.14,-641.75 381.26,-643.78"/>
<polygon fill="midnightblue" stroke="midnightblue" points="331.51,-633.99 321.15,-636.21 330.63,-640.93 331.51,-633.99"/>
</g>
<!-- Node16 -->
<g id="node16" class="node">
<title>Node16</title>
<g id="a_node16"><a xlink:href="classQuantConnect_1_1Indicators_1_1FractalAdaptiveMovingAverage.html" target="_top" xlink:title="The Fractal Adaptive Moving Average (FRAMA) by John Ehlers">
<polygon fill="white" stroke="black" points="367,-588.5 367,-618.5 536,-618.5 536,-588.5 367,-588.5"/>
<text text-anchor="start" x="375" y="-606.5" font-family="Helvetica,sans-Serif" font-size="10.00">QuantConnect.Indicators.</text>
<text text-anchor="middle" x="451.5" y="-595.5" font-family="Helvetica,sans-Serif" font-size="10.00">FractalAdaptiveMovingAverage</text>
</a>
</g>
</g>
<!-- Node1&#45;&gt;Node16 -->
<g id="edge15" class="edge">
<title>Node1&#45;&gt;Node16</title>
<path fill="none" stroke="midnightblue" d="M331.32,-617.91C343.03,-616.49 355.12,-615.03 366.91,-613.61"/>
<polygon fill="midnightblue" stroke="midnightblue" points="330.65,-614.46 321.15,-619.14 331.49,-621.41 330.65,-614.46"/>
</g>
<!-- Node17 -->
<g id="node17" class="node">
<title>Node17</title>
<g id="a_node17"><a xlink:href="classQuantConnect_1_1Indicators_1_1HeikinAshi.html" target="_top" xlink:title="This indicator computes the Heikin&#45;Ashi bar (HA) The Heikin&#45;Ashi bar is calculated using the followin...">
<polygon fill="white" stroke="black" points="381.5,-539.5 381.5,-569.5 521.5,-569.5 521.5,-539.5 381.5,-539.5"/>
<text text-anchor="start" x="389.5" y="-557.5" font-family="Helvetica,sans-Serif" font-size="10.00">QuantConnect.Indicators.</text>
<text text-anchor="middle" x="451.5" y="-546.5" font-family="Helvetica,sans-Serif" font-size="10.00">HeikinAshi</text>
</a>
</g>
</g>
<!-- Node1&#45;&gt;Node17 -->
<g id="edge16" class="edge">
<title>Node1&#45;&gt;Node17</title>
<path fill="none" stroke="midnightblue" d="M289.75,-607.81C309.43,-598.08 334.11,-586.7 357,-578.5 366.07,-575.25 375.79,-572.25 385.4,-569.55"/>
<polygon fill="midnightblue" stroke="midnightblue" points="288.18,-604.68 280.81,-612.28 291.32,-610.94 288.18,-604.68"/>
</g>
<!-- Node18 -->
<g id="node18" class="node">
<title>Node18</title>
<g id="a_node18"><a xlink:href="classQuantConnect_1_1Indicators_1_1IchimokuKinkoHyo.html" target="_top" xlink:title="This indicator computes the Ichimoku Kinko Hyo indicator. It consists of the following main indicator...">
<polygon fill="white" stroke="black" points="381.5,-490.5 381.5,-520.5 521.5,-520.5 521.5,-490.5 381.5,-490.5"/>
<text text-anchor="start" x="389.5" y="-508.5" font-family="Helvetica,sans-Serif" font-size="10.00">QuantConnect.Indicators.</text>
<text text-anchor="middle" x="451.5" y="-497.5" font-family="Helvetica,sans-Serif" font-size="10.00">IchimokuKinkoHyo</text>
</a>
</g>
</g>
<!-- Node1&#45;&gt;Node18 -->
<g id="edge17" class="edge">
<title>Node1&#45;&gt;Node18</title>
<path fill="none" stroke="midnightblue" d="M270.35,-604.71C289.61,-582.29 321.94,-548.7 357,-529.5 364.5,-525.39 372.72,-521.97 381.07,-519.12"/>
<polygon fill="midnightblue" stroke="midnightblue" points="267.62,-602.51 263.86,-612.42 272.98,-607.02 267.62,-602.51"/>
</g>
<!-- Node19 -->
<g id="node19" class="node">
<title>Node19</title>
<g id="a_node19"><a xlink:href="classQuantConnect_1_1Indicators_1_1KeltnerChannels.html" target="_top" xlink:title="This indicator creates a moving average (middle band) with an upper band and lower band fixed at k av...">
<polygon fill="white" stroke="black" points="381.5,-441.5 381.5,-471.5 521.5,-471.5 521.5,-441.5 381.5,-441.5"/>
<text text-anchor="start" x="389.5" y="-459.5" font-family="Helvetica,sans-Serif" font-size="10.00">QuantConnect.Indicators.</text>
<text text-anchor="middle" x="451.5" y="-448.5" font-family="Helvetica,sans-Serif" font-size="10.00">KeltnerChannels</text>
</a>
</g>
</g>
<!-- Node1&#45;&gt;Node19 -->
<g id="edge18" class="edge">
<title>Node1&#45;&gt;Node19</title>
<path fill="none" stroke="midnightblue" d="M262.82,-602.95C278.65,-569.96 311.29,-511.84 357,-480.5 364.33,-475.48 372.63,-471.51 381.18,-468.37"/>
<polygon fill="midnightblue" stroke="midnightblue" points="259.5,-601.79 258.45,-612.33 265.85,-604.74 259.5,-601.79"/>
</g>
<!-- Node20 -->
<g id="node20" class="node">
<title>Node20</title>
<g id="a_node20"><a xlink:href="classQuantConnect_1_1Indicators_1_1MidPrice.html" target="_top" xlink:title="This indicator computes the MidPrice (MIDPRICE). The MidPrice is calculated using the following formu...">
<polygon fill="white" stroke="black" points="381.5,-392.5 381.5,-422.5 521.5,-422.5 521.5,-392.5 381.5,-392.5"/>
<text text-anchor="start" x="389.5" y="-410.5" font-family="Helvetica,sans-Serif" font-size="10.00">QuantConnect.Indicators.</text>
<text text-anchor="middle" x="451.5" y="-399.5" font-family="Helvetica,sans-Serif" font-size="10.00">MidPrice</text>
</a>
</g>
</g>
<!-- Node1&#45;&gt;Node20 -->
<g id="edge19" class="edge">
<title>Node1&#45;&gt;Node20</title>
<path fill="none" stroke="midnightblue" d="M258.28,-602.57C270.16,-560.64 300.02,-476.19 357,-431.5 364.12,-425.91 372.4,-421.62 381.03,-418.31"/>
<polygon fill="midnightblue" stroke="midnightblue" points="254.89,-601.7 255.64,-612.27 261.64,-603.54 254.89,-601.7"/>
</g>
<!-- Node21 -->
<g id="node21" class="node">
<title>Node21</title>
<g id="a_node21"><a xlink:href="classQuantConnect_1_1Indicators_1_1NormalizedAverageTrueRange.html" target="_top" xlink:title="This indicator computes the Normalized Average True Range (NATR). The Normalized Average True Range i...">
<polygon fill="white" stroke="black" points="369.5,-343.5 369.5,-373.5 533.5,-373.5 533.5,-343.5 369.5,-343.5"/>
<text text-anchor="start" x="377.5" y="-361.5" font-family="Helvetica,sans-Serif" font-size="10.00">QuantConnect.Indicators.</text>
<text text-anchor="middle" x="451.5" y="-350.5" font-family="Helvetica,sans-Serif" font-size="10.00">NormalizedAverageTrueRange</text>
</a>
</g>
</g>
<!-- Node1&#45;&gt;Node21 -->
<g id="edge20" class="edge">
<title>Node1&#45;&gt;Node21</title>
<path fill="none" stroke="midnightblue" d="M255.35,-602.54C263.38,-552.84 288.42,-441.28 357,-382.5 360.94,-379.12 365.31,-376.21 369.92,-373.69"/>
<polygon fill="midnightblue" stroke="midnightblue" points="251.89,-602.02 253.85,-612.43 258.81,-603.07 251.89,-602.02"/>
</g>
<!-- Node22 -->
<g id="node22" class="node">
<title>Node22</title>
<g id="a_node22"><a xlink:href="classQuantConnect_1_1Indicators_1_1ParabolicStopAndReverse.html" target="_top" xlink:title="Parabolic SAR Indicator Based on TA&#45;Lib implementation">
<polygon fill="white" stroke="black" points="381,-294.5 381,-324.5 522,-324.5 522,-294.5 381,-294.5"/>
<text text-anchor="start" x="389" y="-312.5" font-family="Helvetica,sans-Serif" font-size="10.00">QuantConnect.Indicators.</text>
<text text-anchor="middle" x="451.5" y="-301.5" font-family="Helvetica,sans-Serif" font-size="10.00">ParabolicStopAndReverse</text>
</a>
</g>
</g>
<!-- Node1&#45;&gt;Node22 -->
<g id="edge21" class="edge">
<title>Node1&#45;&gt;Node22</title>
<path fill="none" stroke="midnightblue" d="M253.37,-602.07C257.85,-545.12 276.85,-406.61 357,-333.5 363.81,-327.29 372.01,-322.64 380.69,-319.16"/>
<polygon fill="midnightblue" stroke="midnightblue" points="249.86,-602.11 252.65,-612.33 256.84,-602.6 249.86,-602.11"/>
</g>
<!-- Node23 -->
<g id="node23" class="node">
<title>Node23</title>
<g id="a_node23"><a xlink:href="classQuantConnect_1_1Indicators_1_1RelativeVigorIndex.html" target="_top" xlink:title="The Relative Vigor Index (RVI) compares the ratio of the closing price of a security to its trading r...">
<polygon fill="white" stroke="black" points="381.5,-245.5 381.5,-275.5 521.5,-275.5 521.5,-245.5 381.5,-245.5"/>
<text text-anchor="start" x="389.5" y="-263.5" font-family="Helvetica,sans-Serif" font-size="10.00">QuantConnect.Indicators.</text>
<text text-anchor="middle" x="451.5" y="-252.5" font-family="Helvetica,sans-Serif" font-size="10.00">RelativeVigorIndex</text>
</a>
</g>
</g>
<!-- Node1&#45;&gt;Node23 -->
<g id="edge22" class="edge">
<title>Node1&#45;&gt;Node23</title>
<path fill="none" stroke="midnightblue" d="M251.86,-601.88C252.97,-538.34 265.03,-372.35 357,-284.5 363.91,-277.9 372.37,-273.05 381.36,-269.5"/>
<polygon fill="midnightblue" stroke="midnightblue" points="248.36,-602.14 251.76,-612.17 255.36,-602.21 248.36,-602.14"/>
</g>
<!-- Node24 -->
<g id="node24" class="node">
<title>Node24</title>
<g id="a_node24"><a xlink:href="classQuantConnect_1_1Indicators_1_1Stochastic.html" target="_top" xlink:title="This indicator computes the Slow Stochastics K and D. The Fast Stochastics K is is computed by (Curre...">
<polygon fill="white" stroke="black" points="381.5,-196.5 381.5,-226.5 521.5,-226.5 521.5,-196.5 381.5,-196.5"/>
<text text-anchor="start" x="389.5" y="-214.5" font-family="Helvetica,sans-Serif" font-size="10.00">QuantConnect.Indicators.</text>
<text text-anchor="middle" x="451.5" y="-203.5" font-family="Helvetica,sans-Serif" font-size="10.00">Stochastic</text>
</a>
</g>
</g>
<!-- Node1&#45;&gt;Node24 -->
<g id="edge23" class="edge">
<title>Node1&#45;&gt;Node24</title>
<path fill="none" stroke="midnightblue" d="M255.38,-602.48C266.4,-524.56 303.67,-288.27 357,-235.5 363.79,-228.78 372.19,-223.86 381.15,-220.28"/>
<polygon fill="midnightblue" stroke="midnightblue" points="251.91,-602.01 254,-612.39 258.85,-602.97 251.91,-602.01"/>
</g>
<!-- Node25 -->
<g id="node25" class="node">
<title>Node25</title>
<g id="a_node25"><a xlink:href="classQuantConnect_1_1Indicators_1_1SuperTrend.html" target="_top" xlink:title="Super trend indicator. Formula can be found here via the excel file: https://tradingtuitions....">
<polygon fill="white" stroke="black" points="381.5,-147.5 381.5,-177.5 521.5,-177.5 521.5,-147.5 381.5,-147.5"/>
<text text-anchor="start" x="389.5" y="-165.5" font-family="Helvetica,sans-Serif" font-size="10.00">QuantConnect.Indicators.</text>
<text text-anchor="middle" x="451.5" y="-154.5" font-family="Helvetica,sans-Serif" font-size="10.00">SuperTrend</text>
</a>
</g>
</g>
<!-- Node1&#45;&gt;Node25 -->
<g id="edge24" class="edge">
<title>Node1&#45;&gt;Node25</title>
<path fill="none" stroke="midnightblue" d="M254.58,-602.48C263.77,-518.27 297.55,-247 357,-186.5 363.81,-179.57 372.34,-174.54 381.45,-170.92"/>
<polygon fill="midnightblue" stroke="midnightblue" points="251.1,-602.13 253.52,-612.44 258.06,-602.87 251.1,-602.13"/>
</g>
<!-- Node26 -->
<g id="node26" class="node">
<title>Node26</title>
<g id="a_node26"><a xlink:href="classQuantConnect_1_1Indicators_1_1TrueRange.html" target="_top" xlink:title="This indicator computes the True Range (TR). The True Range is the greatest of the following values: ...">
<polygon fill="white" stroke="black" points="381.5,-98.5 381.5,-128.5 521.5,-128.5 521.5,-98.5 381.5,-98.5"/>
<text text-anchor="start" x="389.5" y="-116.5" font-family="Helvetica,sans-Serif" font-size="10.00">QuantConnect.Indicators.</text>
<text text-anchor="middle" x="451.5" y="-105.5" font-family="Helvetica,sans-Serif" font-size="10.00">TrueRange</text>
</a>
</g>
</g>
<!-- Node1&#45;&gt;Node26 -->
<g id="edge25" class="edge">
<title>Node1&#45;&gt;Node26</title>
<path fill="none" stroke="midnightblue" d="M253.97,-602.13C261.51,-511.53 291.48,-205.71 357,-137.5 363.73,-130.49 372.22,-125.42 381.31,-121.78"/>
<polygon fill="midnightblue" stroke="midnightblue" points="250.46,-602.06 253.14,-612.31 257.44,-602.63 250.46,-602.06"/>
</g>
<!-- Node27 -->
<g id="node27" class="node">
<title>Node27</title>
<g id="a_node27"><a xlink:href="classQuantConnect_1_1Indicators_1_1UltimateOscillator.html" target="_top" xlink:title="This indicator computes the Ultimate Oscillator (ULTOSC) The Ultimate Oscillator is calculated as exp...">
<polygon fill="white" stroke="black" points="381.5,-49.5 381.5,-79.5 521.5,-79.5 521.5,-49.5 381.5,-49.5"/>
<text text-anchor="start" x="389.5" y="-67.5" font-family="Helvetica,sans-Serif" font-size="10.00">QuantConnect.Indicators.</text>
<text text-anchor="middle" x="451.5" y="-56.5" font-family="Helvetica,sans-Serif" font-size="10.00">UltimateOscillator</text>
</a>
</g>
</g>
<!-- Node1&#45;&gt;Node27 -->
<g id="edge26" class="edge">
<title>Node1&#45;&gt;Node27</title>
<path fill="none" stroke="midnightblue" d="M253.43,-602.15C259.38,-505.9 285.28,-164.57 357,-88.5 363.67,-81.43 372.11,-76.33 381.19,-72.67"/>
<polygon fill="midnightblue" stroke="midnightblue" points="249.92,-602.21 252.82,-612.4 256.91,-602.63 249.92,-602.21"/>
</g>
<!-- Node28 -->
<g id="node28" class="node">
<title>Node28</title>
<g id="a_node28"><a xlink:href="classQuantConnect_1_1Indicators_1_1WilliamsPercentR.html" target="_top" xlink:title="Williams R, or just R, is the current closing price in relation to the high and low of the past N day...">
<polygon fill="white" stroke="black" points="381.5,-0.5 381.5,-30.5 521.5,-30.5 521.5,-0.5 381.5,-0.5"/>
<text text-anchor="start" x="389.5" y="-18.5" font-family="Helvetica,sans-Serif" font-size="10.00">QuantConnect.Indicators.</text>
<text text-anchor="middle" x="451.5" y="-7.5" font-family="Helvetica,sans-Serif" font-size="10.00">WilliamsPercentR</text>
</a>
</g>
</g>
<!-- Node1&#45;&gt;Node28 -->
<g id="edge27" class="edge">
<title>Node1&#45;&gt;Node28</title>
<path fill="none" stroke="midnightblue" d="M252.98,-602.2C257.44,-500.56 279.06,-123.48 357,-39.5 363.61,-32.38 372.03,-27.25 381.09,-23.58"/>
<polygon fill="midnightblue" stroke="midnightblue" points="249.48,-602.3 252.55,-612.44 256.47,-602.59 249.48,-602.3"/>
</g>
<!-- Node2 -->
<g id="node2" class="node">
<title>Node2</title>
<g id="a_node2"><a xlink:href="classQuantConnect_1_1Indicators_1_1IndicatorBase.html" target="_top" xlink:title=" ">
<polygon fill="white" stroke="black" points="0,-612.5 0,-642.5 145,-642.5 145,-612.5 0,-612.5"/>
<text text-anchor="start" x="8" y="-630.5" font-family="Helvetica,sans-Serif" font-size="10.00">IndicatorBase&lt; IBaseData</text>
<text text-anchor="middle" x="72.5" y="-619.5" font-family="Helvetica,sans-Serif" font-size="10.00">Bar &gt;</text>
</a>
</g>
</g>
<!-- Node2&#45;&gt;Node1 -->
<g id="edge1" class="edge">
<title>Node2&#45;&gt;Node1</title>
<path fill="none" stroke="midnightblue" d="M155.11,-627.5C163.75,-627.5 172.47,-627.5 180.94,-627.5"/>
<polygon fill="midnightblue" stroke="midnightblue" points="155.03,-624 145.03,-627.5 155.03,-631 155.03,-624"/>
</g>
</g>
</svg>
