<?xml version="1.0" encoding="UTF-8" standalone="no"?>
<!DOCTYPE svg PUBLIC "-//W3C//DTD SVG 1.1//EN"
 "http://www.w3.org/Graphics/SVG/1.1/DTD/svg11.dtd">
<!-- Generated by graphviz version 2.43.0 (0)
 -->
<!-- Title: QuantConnect.Securities.Option.Option.GetIntrinsicValue Pages: 1 -->
<svg width="532pt" height="39pt"
 viewBox="0.00 0.00 532.00 39.00" xmlns="http://www.w3.org/2000/svg" xmlns:xlink="http://www.w3.org/1999/xlink">
<g id="graph0" class="graph" transform="scale(1 1) rotate(0) translate(4 35)">
<title>QuantConnect.Securities.Option.Option.GetIntrinsicValue</title>
<polygon fill="white" stroke="transparent" points="-4,4 -4,-35 528,-35 528,4 -4,4"/>
<!-- Node1 -->
<g id="node1" class="node">
<title>Node1</title>
<g id="a_node1"><a xlink:title="Intrinsic value function of the option">
<polygon fill="#bfbfbf" stroke="black" points="0,-0.5 0,-30.5 170,-30.5 170,-0.5 0,-0.5"/>
<text text-anchor="start" x="8" y="-18.5" font-family="Helvetica,sans-Serif" font-size="10.00">QuantConnect.Securities.</text>
<text text-anchor="middle" x="85" y="-7.5" font-family="Helvetica,sans-Serif" font-size="10.00">Option.Option.GetIntrinsicValue</text>
</a>
</g>
</g>
<!-- Node2 -->
<g id="node2" class="node">
<title>Node2</title>
<g id="a_node2"><a xlink:href="classQuantConnect_1_1Util_1_1OptionPayoff.html#a0366ba69bfc3bcf1dfba8816cdb1db42" target="_top" xlink:title="Intrinsic value function of the option">
<polygon fill="white" stroke="black" points="206,-0.5 206,-30.5 347,-30.5 347,-0.5 206,-0.5"/>
<text text-anchor="start" x="214" y="-18.5" font-family="Helvetica,sans-Serif" font-size="10.00">QuantConnect.Util.Option</text>
<text text-anchor="middle" x="276.5" y="-7.5" font-family="Helvetica,sans-Serif" font-size="10.00">Payoff.GetIntrinsicValue</text>
</a>
</g>
</g>
<!-- Node1&#45;&gt;Node2 -->
<g id="edge1" class="edge">
<title>Node1&#45;&gt;Node2</title>
<path fill="none" stroke="midnightblue" d="M170.22,-15.5C178.65,-15.5 187.2,-15.5 195.59,-15.5"/>
<polygon fill="midnightblue" stroke="midnightblue" points="195.72,-19 205.72,-15.5 195.72,-12 195.72,-19"/>
</g>
<!-- Node3 -->
<g id="node3" class="node">
<title>Node3</title>
<g id="a_node3"><a xlink:href="classQuantConnect_1_1Util_1_1OptionPayoff.html#a04bbbe3975d01c29101b7581d2564844" target="_top" xlink:title="Option payoff function at expiration time">
<polygon fill="white" stroke="black" points="383,-0.5 383,-30.5 524,-30.5 524,-0.5 383,-0.5"/>
<text text-anchor="start" x="391" y="-18.5" font-family="Helvetica,sans-Serif" font-size="10.00">QuantConnect.Util.Option</text>
<text text-anchor="middle" x="453.5" y="-7.5" font-family="Helvetica,sans-Serif" font-size="10.00">Payoff.GetPayOff</text>
</a>
</g>
</g>
<!-- Node2&#45;&gt;Node3 -->
<g id="edge2" class="edge">
<title>Node2&#45;&gt;Node3</title>
<path fill="none" stroke="midnightblue" d="M347.17,-15.5C355.5,-15.5 364.06,-15.5 372.53,-15.5"/>
<polygon fill="midnightblue" stroke="midnightblue" points="372.79,-19 382.79,-15.5 372.79,-12 372.79,-19"/>
</g>
</g>
</svg>
