<?xml version="1.0" encoding="UTF-8" standalone="no"?>
<!DOCTYPE svg PUBLIC "-//W3C//DTD SVG 1.1//EN"
 "http://www.w3.org/Graphics/SVG/1.1/DTD/svg11.dtd">
<!-- Generated by graphviz version 2.43.0 (0)
 -->
<!-- Title: QuantConnect.Securities.MarketHoursDatabase.GetExchangeHours Pages: 1 -->
<!--zoomable 220 -->
<svg id="main" version="1.1" xmlns="http://www.w3.org/2000/svg" xmlns:xlink="http://www.w3.org/1999/xlink" xml:space="preserve" onload="init(evt)">
<style type="text/css"><![CDATA[
.edge:hover path { stroke: red; }
.edge:hover polygon { stroke: red; fill: red; }
]]></style>
<script type="text/javascript"><![CDATA[
var edges = document.getElementsByTagName('g');
if (edges && edges.length) {
  for (var i=0;i<edges.length;i++) {
    if (edges[i].id.substr(0,4)=='edge') {
      edges[i].setAttribute('class','edge');
    }
  }
}
]]></script>
        <defs>
                <circle id="rim" cx="0" cy="0" r="7"/>
                <circle id="rim2" cx="0" cy="0" r="3.5"/>
                <g id="zoomPlus">
                        <use xlink:href="#rim" fill="#404040">
                                <set attributeName="fill" to="#808080" begin="zoomplus.mouseover" end="zoomplus.mouseout"/>
                        </use>
                        <path d="M-4,0h8M0,-4v8" fill="none" stroke="white" stroke-width="1.5" pointer-events="none"/>
                </g>
                <g id="zoomMin">
                        <use xlink:href="#rim" fill="#404040">
                                <set attributeName="fill" to="#808080" begin="zoomminus.mouseover" end="zoomminus.mouseout"/>
                        </use>
                        <path d="M-4,0h8" fill="none" stroke="white" stroke-width="1.5" pointer-events="none"/>
                </g>
                <g id="dirArrow">
                        <path fill="none" stroke="white" stroke-width="1.5" d="M0,-3.0v7 M-2.5,-0.5L0,-3.0L2.5,-0.5"/>
                </g>
               <g id="resetDef">
                       <use xlink:href="#rim2" fill="#404040">
                               <set attributeName="fill" to="#808080" begin="reset.mouseover" end="reset.mouseout"/>
                       </use>
               </g>
        </defs>

<script type="text/javascript">
var viewWidth = 719;
var viewHeight = 220;
var sectionId = 'dynsection-0';
</script>
<script xlink:href="svgpan.js"/>
<svg id="graph" class="graph">
<g id="viewport">
<title>QuantConnect.Securities.MarketHoursDatabase.GetExchangeHours</title>
<polygon fill="white" stroke="transparent" points="-4,4 -4,-216 715,-216 715,4 -4,4"/>
<!-- Node1 -->
<g id="node1" class="node">
<title>Node1</title>
<g id="a_node1"><a xlink:title="Convenience method for retrieving exchange hours from market hours database using a subscription conf...">
<polygon fill="#bfbfbf" stroke="black" points="490,-93 490,-123 711,-123 711,-93 490,-93"/>
<text text-anchor="start" x="498" y="-111" font-family="Helvetica,sans-Serif" font-size="10.00">QuantConnect.Securities.</text>
<text text-anchor="middle" x="600.5" y="-100" font-family="Helvetica,sans-Serif" font-size="10.00">MarketHoursDatabase.GetExchangeHours</text>
</a>
</g>
</g>
<!-- Node2 -->
<g id="node2" class="node">
<title>Node2</title>
<g id="a_node2"><a xlink:href="classQuantConnect_1_1Data_1_1UniverseSelection_1_1UserDefinedUniverse.html#a6193d37dd943825ea559d77840a10178" target="_top" xlink:title="Returns an enumerator that defines when this user defined universe will be invoked">
<polygon fill="white" stroke="black" points="276,-170.5 276,-211.5 447,-211.5 447,-170.5 276,-170.5"/>
<text text-anchor="start" x="284" y="-199.5" font-family="Helvetica,sans-Serif" font-size="10.00">QuantConnect.Data.Universe</text>
<text text-anchor="start" x="284" y="-188.5" font-family="Helvetica,sans-Serif" font-size="10.00">Selection.UserDefinedUniverse.</text>
<text text-anchor="middle" x="361.5" y="-177.5" font-family="Helvetica,sans-Serif" font-size="10.00">GetTriggerTimes</text>
</a>
</g>
</g>
<!-- Node1&#45;&gt;Node2 -->
<g id="edge1" class="edge">
<title>Node1&#45;&gt;Node2</title>
<path fill="none" stroke="midnightblue" d="M549.6,-126.63C521.58,-136.98 485.93,-149.95 454,-161 444.99,-164.12 435.46,-167.33 426.09,-170.45"/>
<polygon fill="midnightblue" stroke="midnightblue" points="551.01,-129.84 559.17,-123.09 548.58,-123.28 551.01,-129.84"/>
</g>
<!-- Node3 -->
<g id="node3" class="node">
<title>Node3</title>
<g id="a_node3"><a xlink:href="classQuantConnect_1_1Extensions.html#afb55d4519a8fd894c121e9b27b8473f1" target="_top" xlink:title="Helper method to determine if a specific market is open">
<polygon fill="white" stroke="black" points="289,-121 289,-151 434,-151 434,-121 289,-121"/>
<text text-anchor="start" x="297" y="-139" font-family="Helvetica,sans-Serif" font-size="10.00">QuantConnect.Extensions.</text>
<text text-anchor="middle" x="361.5" y="-128" font-family="Helvetica,sans-Serif" font-size="10.00">IsMarketOpen</text>
</a>
</g>
</g>
<!-- Node1&#45;&gt;Node3 -->
<g id="edge2" class="edge">
<title>Node1&#45;&gt;Node3</title>
<path fill="none" stroke="midnightblue" d="M479.47,-122.18C463.94,-124.02 448.45,-125.85 434.05,-127.55"/>
<polygon fill="midnightblue" stroke="midnightblue" points="480.15,-125.62 489.67,-120.98 479.33,-118.67 480.15,-125.62"/>
</g>
<!-- Node4 -->
<g id="node4" class="node">
<title>Node4</title>
<g id="a_node4"><a xlink:href="classQuantConnect_1_1Securities_1_1Option_1_1OptionSymbol.html#a6ef1782fdc060c6057dab1304d6507b0" target="_top" xlink:title="Returns true if the option contract is expired at the specified time">
<polygon fill="white" stroke="black" points="279.5,-60.5 279.5,-101.5 443.5,-101.5 443.5,-60.5 279.5,-60.5"/>
<text text-anchor="start" x="287.5" y="-89.5" font-family="Helvetica,sans-Serif" font-size="10.00">QuantConnect.Securities.</text>
<text text-anchor="start" x="287.5" y="-78.5" font-family="Helvetica,sans-Serif" font-size="10.00">Option.OptionSymbol.IsOption</text>
<text text-anchor="middle" x="361.5" y="-67.5" font-family="Helvetica,sans-Serif" font-size="10.00">ContractExpired</text>
</a>
</g>
</g>
<!-- Node1&#45;&gt;Node4 -->
<g id="edge3" class="edge">
<title>Node1&#45;&gt;Node4</title>
<path fill="none" stroke="midnightblue" d="M479.48,-94.33C467.35,-92.94 455.23,-91.56 443.65,-90.24"/>
<polygon fill="midnightblue" stroke="midnightblue" points="479.34,-97.83 489.67,-95.49 480.13,-90.88 479.34,-97.83"/>
</g>
<!-- Node5 -->
<g id="node5" class="node">
<title>Node5</title>
<g id="a_node5"><a xlink:href="classQuantConnect_1_1ToolBox_1_1RandomDataGenerator_1_1TickGenerator.html#a2eb293d4c6e4819a58f571c0880e3b43" target="_top" xlink:title="Generates a random DateTime suitable for use as a tick&#39;s emit time. If the density provided is DataDe...">
<polygon fill="white" stroke="black" points="269,-0.5 269,-41.5 454,-41.5 454,-0.5 269,-0.5"/>
<text text-anchor="start" x="277" y="-29.5" font-family="Helvetica,sans-Serif" font-size="10.00">QuantConnect.ToolBox.Random</text>
<text text-anchor="start" x="277" y="-18.5" font-family="Helvetica,sans-Serif" font-size="10.00">DataGenerator.TickGenerator.Next</text>
<text text-anchor="middle" x="361.5" y="-7.5" font-family="Helvetica,sans-Serif" font-size="10.00">TickTime</text>
</a>
</g>
</g>
<!-- Node1&#45;&gt;Node5 -->
<g id="edge4" class="edge">
<title>Node1&#45;&gt;Node5</title>
<path fill="none" stroke="midnightblue" d="M553.34,-89.15C524.86,-77.71 487.49,-63.04 454,-51 445.19,-47.83 435.86,-44.62 426.65,-41.52"/>
<polygon fill="midnightblue" stroke="midnightblue" points="552.06,-92.4 562.64,-92.89 554.67,-85.91 552.06,-92.4"/>
</g>
<!-- Node6 -->
<g id="node6" class="node">
<title>Node6</title>
<g id="a_node6"><a xlink:href="classQuantConnect_1_1ToolBox_1_1RandomDataGenerator_1_1TickGenerator.html#a0b9b8cf4ffe26b9bfd7976671b9e3ddb" target="_top" xlink:title="Generates and enumerates data points for current symbol">
<polygon fill="white" stroke="black" points="0,-6 0,-36 233,-36 233,-6 0,-6"/>
<text text-anchor="start" x="8" y="-24" font-family="Helvetica,sans-Serif" font-size="10.00">QuantConnect.ToolBox.Random</text>
<text text-anchor="middle" x="116.5" y="-13" font-family="Helvetica,sans-Serif" font-size="10.00">DataGenerator.TickGenerator.GenerateTicks</text>
</a>
</g>
</g>
<!-- Node5&#45;&gt;Node6 -->
<g id="edge5" class="edge">
<title>Node5&#45;&gt;Node6</title>
<path fill="none" stroke="midnightblue" d="M258.74,-21C250.28,-21 241.7,-21 233.15,-21"/>
<polygon fill="midnightblue" stroke="midnightblue" points="258.98,-24.5 268.98,-21 258.98,-17.5 258.98,-24.5"/>
</g>
</g>
</svg>
        <g id="navigator" transform="translate(0 0)" fill="#404254">
                <rect fill="#f2f5e9" fill-opacity="0.5" stroke="#606060" stroke-width=".5" x="0" y="0" width="60" height="60"/>
                <use id="zoomplus" xlink:href="#zoomPlus" x="17" y="9" onmousedown="handleZoom(evt,'in')"/>
                <use id="zoomminus" xlink:href="#zoomMin" x="42" y="9" onmousedown="handleZoom(evt,'out')"/>
                <use id="reset" xlink:href="#resetDef" x="30" y="36" onmousedown="handleReset()"/>
                <g id="arrowUp" xlink:href="#dirArrow" transform="translate(30 24)" onmousedown="handlePan(0,-1)">
                  <use xlink:href="#rim" fill="#404040">
                        <set attributeName="fill" to="#808080" begin="arrowUp.mouseover" end="arrowUp.mouseout"/>
                  </use>
                  <path fill="none" stroke="white" stroke-width="1.5" d="M0,-3.0v7 M-2.5,-0.5L0,-3.0L2.5,-0.5"/>
                </g>
                <g id="arrowRight" xlink:href="#dirArrow" transform="rotate(90) translate(36 -43)" onmousedown="handlePan(1,0)">
                  <use xlink:href="#rim" fill="#404040">
                        <set attributeName="fill" to="#808080" begin="arrowRight.mouseover" end="arrowRight.mouseout"/>
                  </use>
                  <path fill="none" stroke="white" stroke-width="1.5" d="M0,-3.0v7 M-2.5,-0.5L0,-3.0L2.5,-0.5"/>
                </g>
                <g id="arrowDown" xlink:href="#dirArrow" transform="rotate(180) translate(-30 -48)" onmousedown="handlePan(0,1)">
                  <use xlink:href="#rim" fill="#404040">
                        <set attributeName="fill" to="#808080" begin="arrowDown.mouseover" end="arrowDown.mouseout"/>
                  </use>
                  <path fill="none" stroke="white" stroke-width="1.5" d="M0,-3.0v7 M-2.5,-0.5L0,-3.0L2.5,-0.5"/>
                </g>
                <g id="arrowLeft" xlink:href="#dirArrow" transform="rotate(270) translate(-36 17)" onmousedown="handlePan(-1,0)">
                  <use xlink:href="#rim" fill="#404040">
                        <set attributeName="fill" to="#808080" begin="arrowLeft.mouseover" end="arrowLeft.mouseout"/>
                  </use>
                  <path fill="none" stroke="white" stroke-width="1.5" d="M0,-3.0v7 M-2.5,-0.5L0,-3.0L2.5,-0.5"/>
                </g>
        </g>
        <svg viewBox="0 0 15 15" width="100%" height="30px" preserveAspectRatio="xMaxYMin meet">
         <g id="arrow_out" transform="scale(0.3 0.3)">
          <a xlink:href="classQuantConnect_1_1Securities_1_1MarketHoursDatabase_ab10d5242b6fcbe4d9f7aacd800e0efea_icgraph_org.svg" target="_base">
           <rect id="button" ry="5" rx="5" y="6" x="6" height="38" width="38"
                fill="#f2f5e9" fill-opacity="0.5" stroke="#606060" stroke-width="1.0"/>
           <path id="arrow"
             d="M 11.500037,31.436501 C 11.940474,20.09759 22.043105,11.32322 32.158766,21.979434 L 37.068811,17.246167 C 37.068811,17.246167 37.088388,32 37.088388,32 L 22.160133,31.978069 C 22.160133,31.978069 26.997745,27.140456 26.997745,27.140456 C 18.528582,18.264221 13.291696,25.230495 11.500037,31.436501 z"
             style="fill:#404040;"/>
          </a>
         </g>
        </svg>
</svg>
