<?xml version="1.0" encoding="UTF-8" standalone="no"?>
<!DOCTYPE svg PUBLIC "-//W3C//DTD SVG 1.1//EN"
 "http://www.w3.org/Graphics/SVG/1.1/DTD/svg11.dtd">
<!-- Generated by graphviz version 2.43.0 (0)
 -->
<!-- Title: QuantConnect.ToolBox.Polygon.PolygonWebSocketClientWrapper.PolygonWebSocketClientWrapper Pages: 1 -->
<svg width="820pt" height="137pt"
 viewBox="0.00 0.00 820.00 137.00" xmlns="http://www.w3.org/2000/svg" xmlns:xlink="http://www.w3.org/1999/xlink">
<g id="graph0" class="graph" transform="scale(1 1) rotate(0) translate(4 133)">
<title>QuantConnect.ToolBox.Polygon.PolygonWebSocketClientWrapper.PolygonWebSocketClientWrapper</title>
<polygon fill="white" stroke="transparent" points="-4,4 -4,-133 816,-133 816,4 -4,4"/>
<!-- Node1 -->
<g id="node1" class="node">
<title>Node1</title>
<g id="a_node1"><a xlink:title="Creates a new instance of the PolygonWebSocketClientWrapper class">
<polygon fill="#bfbfbf" stroke="black" points="0,-44 0,-85 220,-85 220,-44 0,-44"/>
<text text-anchor="start" x="8" y="-73" font-family="Helvetica,sans-Serif" font-size="10.00">QuantConnect.ToolBox.Polygon.</text>
<text text-anchor="start" x="8" y="-62" font-family="Helvetica,sans-Serif" font-size="10.00">PolygonWebSocketClientWrapper.Polygon</text>
<text text-anchor="middle" x="110" y="-51" font-family="Helvetica,sans-Serif" font-size="10.00">WebSocketClientWrapper</text>
</a>
</g>
</g>
<!-- Node2 -->
<g id="node2" class="node">
<title>Node2</title>
<g id="a_node2"><a xlink:href="classQuantConnect_1_1Brokerages_1_1WebSocketClientWrapper.html#a9d49012fe716f87d01a2b40055341599" target="_top" xlink:title="Wraps Connect method">
<polygon fill="white" stroke="black" points="257,-98.5 257,-128.5 439,-128.5 439,-98.5 257,-98.5"/>
<text text-anchor="start" x="265" y="-116.5" font-family="Helvetica,sans-Serif" font-size="10.00">QuantConnect.Brokerages.</text>
<text text-anchor="middle" x="348" y="-105.5" font-family="Helvetica,sans-Serif" font-size="10.00">WebSocketClientWrapper.Connect</text>
</a>
</g>
</g>
<!-- Node1&#45;&gt;Node2 -->
<g id="edge1" class="edge">
<title>Node1&#45;&gt;Node2</title>
<path fill="none" stroke="midnightblue" d="M210.06,-85.07C228.2,-88.83 246.95,-92.73 264.53,-96.38"/>
<polygon fill="midnightblue" stroke="midnightblue" points="264.24,-99.89 274.74,-98.5 265.66,-93.04 264.24,-99.89"/>
</g>
<!-- Node7 -->
<g id="node7" class="node">
<title>Node7</title>
<g id="a_node7"><a xlink:href="classQuantConnect_1_1Brokerages_1_1WebSocketClientWrapper.html#a05476f15ca3aa4a854cd7d43d367ad7a" target="_top" xlink:title="Wraps constructor">
<polygon fill="white" stroke="black" points="256,-49.5 256,-79.5 440,-79.5 440,-49.5 256,-49.5"/>
<text text-anchor="start" x="264" y="-67.5" font-family="Helvetica,sans-Serif" font-size="10.00">QuantConnect.Brokerages.</text>
<text text-anchor="middle" x="348" y="-56.5" font-family="Helvetica,sans-Serif" font-size="10.00">WebSocketClientWrapper.Initialize</text>
</a>
</g>
</g>
<!-- Node1&#45;&gt;Node7 -->
<g id="edge6" class="edge">
<title>Node1&#45;&gt;Node7</title>
<path fill="none" stroke="midnightblue" d="M220.02,-64.5C228.52,-64.5 237.08,-64.5 245.53,-64.5"/>
<polygon fill="midnightblue" stroke="midnightblue" points="245.77,-68 255.77,-64.5 245.77,-61 245.77,-68"/>
</g>
<!-- Node8 -->
<g id="node8" class="node">
<title>Node8</title>
<g id="a_node8"><a xlink:href="classQuantConnect_1_1Brokerages_1_1WebSocketClientWrapper.html#a6a1c625f4fca8c373f196961fc6cce88" target="_top" xlink:title="Event invocator for the Open event">
<polygon fill="white" stroke="black" points="257.5,-0.5 257.5,-30.5 438.5,-30.5 438.5,-0.5 257.5,-0.5"/>
<text text-anchor="start" x="265.5" y="-18.5" font-family="Helvetica,sans-Serif" font-size="10.00">QuantConnect.Brokerages.</text>
<text text-anchor="middle" x="348" y="-7.5" font-family="Helvetica,sans-Serif" font-size="10.00">WebSocketClientWrapper.OnOpen</text>
</a>
</g>
</g>
<!-- Node1&#45;&gt;Node8 -->
<g id="edge7" class="edge">
<title>Node1&#45;&gt;Node8</title>
<path fill="none" stroke="midnightblue" d="M210.06,-43.93C228.2,-40.17 246.95,-36.27 264.53,-32.62"/>
<polygon fill="midnightblue" stroke="midnightblue" points="265.66,-35.96 274.74,-30.5 264.24,-29.11 265.66,-35.96"/>
</g>
<!-- Node3 -->
<g id="node3" class="node">
<title>Node3</title>
<g id="a_node3"><a xlink:href="classQuantConnect_1_1Logging_1_1Log.html#af0e7955911bc7664b37661b2a303a9e3" target="_top" xlink:title="Log error">
<polygon fill="white" stroke="black" points="476,-98.5 476,-128.5 626,-128.5 626,-98.5 476,-98.5"/>
<text text-anchor="start" x="484" y="-116.5" font-family="Helvetica,sans-Serif" font-size="10.00">QuantConnect.Logging.Log.</text>
<text text-anchor="middle" x="551" y="-105.5" font-family="Helvetica,sans-Serif" font-size="10.00">Error</text>
</a>
</g>
</g>
<!-- Node2&#45;&gt;Node3 -->
<g id="edge2" class="edge">
<title>Node2&#45;&gt;Node3</title>
<path fill="none" stroke="midnightblue" d="M439.21,-113.5C447.99,-113.5 456.87,-113.5 465.59,-113.5"/>
<polygon fill="midnightblue" stroke="midnightblue" points="465.73,-117 475.73,-113.5 465.73,-110 465.73,-117"/>
</g>
<!-- Node5 -->
<g id="node5" class="node">
<title>Node5</title>
<g id="a_node5"><a xlink:href="classQuantConnect_1_1Logging_1_1Log.html#a4e55477fbc790846b74550a57198cea9" target="_top" xlink:title="Log trace">
<polygon fill="white" stroke="black" points="476,-25.5 476,-55.5 626,-55.5 626,-25.5 476,-25.5"/>
<text text-anchor="start" x="484" y="-43.5" font-family="Helvetica,sans-Serif" font-size="10.00">QuantConnect.Logging.Log.</text>
<text text-anchor="middle" x="551" y="-32.5" font-family="Helvetica,sans-Serif" font-size="10.00">Trace</text>
</a>
</g>
</g>
<!-- Node2&#45;&gt;Node5 -->
<g id="edge4" class="edge">
<title>Node2&#45;&gt;Node5</title>
<path fill="none" stroke="midnightblue" d="M411.57,-98.42C421.17,-95.7 430.91,-92.7 440,-89.5 463.94,-81.07 489.91,-69.62 510.61,-59.9"/>
<polygon fill="midnightblue" stroke="midnightblue" points="512.18,-63.03 519.72,-55.58 509.18,-56.7 512.18,-63.03"/>
</g>
<!-- Node4 -->
<g id="node4" class="node">
<title>Node4</title>
<g id="a_node4"><a xlink:href="interfaceQuantConnect_1_1Logging_1_1ILogHandler.html#a35373a0c5d76031fa5ccf5dc39e5c25d" target="_top" xlink:title="Write error message to log">
<polygon fill="white" stroke="black" points="662,-98.5 662,-128.5 812,-128.5 812,-98.5 662,-98.5"/>
<text text-anchor="start" x="670" y="-116.5" font-family="Helvetica,sans-Serif" font-size="10.00">QuantConnect.Logging.ILog</text>
<text text-anchor="middle" x="737" y="-105.5" font-family="Helvetica,sans-Serif" font-size="10.00">Handler.Error</text>
</a>
</g>
</g>
<!-- Node3&#45;&gt;Node4 -->
<g id="edge3" class="edge">
<title>Node3&#45;&gt;Node4</title>
<path fill="none" stroke="midnightblue" d="M626.04,-113.5C634.51,-113.5 643.19,-113.5 651.78,-113.5"/>
<polygon fill="midnightblue" stroke="midnightblue" points="651.81,-117 661.81,-113.5 651.81,-110 651.81,-117"/>
</g>
<!-- Node6 -->
<g id="node6" class="node">
<title>Node6</title>
<g id="a_node6"><a xlink:href="interfaceQuantConnect_1_1Logging_1_1ILogHandler.html#a3fb71a33ac66129240b63f12b6fcda3b" target="_top" xlink:title="Write debug message to log">
<polygon fill="white" stroke="black" points="662,-25.5 662,-55.5 812,-55.5 812,-25.5 662,-25.5"/>
<text text-anchor="start" x="670" y="-43.5" font-family="Helvetica,sans-Serif" font-size="10.00">QuantConnect.Logging.ILog</text>
<text text-anchor="middle" x="737" y="-32.5" font-family="Helvetica,sans-Serif" font-size="10.00">Handler.Trace</text>
</a>
</g>
</g>
<!-- Node5&#45;&gt;Node6 -->
<g id="edge5" class="edge">
<title>Node5&#45;&gt;Node6</title>
<path fill="none" stroke="midnightblue" d="M626.04,-40.5C634.51,-40.5 643.19,-40.5 651.78,-40.5"/>
<polygon fill="midnightblue" stroke="midnightblue" points="651.81,-44 661.81,-40.5 651.81,-37 651.81,-44"/>
</g>
<!-- Node8&#45;&gt;Node5 -->
<g id="edge8" class="edge">
<title>Node8&#45;&gt;Node5</title>
<path fill="none" stroke="midnightblue" d="M438.62,-26.65C447.68,-27.77 456.85,-28.91 465.84,-30.03"/>
<polygon fill="midnightblue" stroke="midnightblue" points="465.54,-33.52 475.9,-31.28 466.41,-26.58 465.54,-33.52"/>
</g>
</g>
</svg>
