<?xml version="1.0" encoding="UTF-8" standalone="no"?>
<!DOCTYPE svg PUBLIC "-//W3C//DTD SVG 1.1//EN"
 "http://www.w3.org/Graphics/SVG/1.1/DTD/svg11.dtd">
<!-- Generated by graphviz version 2.43.0 (0)
 -->
<!-- Title: QuantConnect.Indicators.ValueAtRisk Pages: 1 -->
<svg width="354pt" height="106pt"
 viewBox="0.00 0.00 354.00 106.00" xmlns="http://www.w3.org/2000/svg" xmlns:xlink="http://www.w3.org/1999/xlink">
<g id="graph0" class="graph" transform="scale(1 1) rotate(0) translate(4 102)">
<title>QuantConnect.Indicators.ValueAtRisk</title>
<polygon fill="white" stroke="transparent" points="-4,4 -4,-102 350,-102 350,4 -4,4"/>
<!-- Node1 -->
<g id="node1" class="node">
<title>Node1</title>
<g id="a_node1"><a xlink:title="This indicator computes 1&#45;day VaR for a specified confidence level and lookback period">
<polygon fill="#bfbfbf" stroke="black" points="97,-0.5 97,-30.5 237,-30.5 237,-0.5 97,-0.5"/>
<text text-anchor="start" x="105" y="-18.5" font-family="Helvetica,sans-Serif" font-size="10.00">QuantConnect.Indicators.</text>
<text text-anchor="middle" x="167" y="-7.5" font-family="Helvetica,sans-Serif" font-size="10.00">ValueAtRisk</text>
</a>
</g>
</g>
<!-- Node2 -->
<g id="node2" class="node">
<title>Node2</title>
<g id="a_node2"><a xlink:href="classQuantConnect_1_1Indicators_1_1WindowIndicator.html" target="_top" xlink:title=" ">
<polygon fill="white" stroke="black" points="0,-67.5 0,-97.5 152,-97.5 152,-67.5 0,-67.5"/>
<text text-anchor="start" x="8" y="-85.5" font-family="Helvetica,sans-Serif" font-size="10.00">WindowIndicator&lt; Indicator</text>
<text text-anchor="middle" x="76" y="-74.5" font-family="Helvetica,sans-Serif" font-size="10.00">DataPoint &gt;</text>
</a>
</g>
</g>
<!-- Node2&#45;&gt;Node1 -->
<g id="edge1" class="edge">
<title>Node2&#45;&gt;Node1</title>
<path fill="none" stroke="midnightblue" d="M104.07,-61.45C118.07,-51.45 134.66,-39.6 147.29,-30.58"/>
<polygon fill="midnightblue" stroke="midnightblue" points="101.85,-58.74 95.75,-67.4 105.92,-64.43 101.85,-58.74"/>
</g>
<!-- Node3 -->
<g id="node3" class="node">
<title>Node3</title>
<g id="a_node3"><a xlink:href="interfaceQuantConnect_1_1Indicators_1_1IIndicatorWarmUpPeriodProvider.html" target="_top" xlink:title="Represents an indicator with a warm up period provider.">
<polygon fill="white" stroke="black" points="170,-73 170,-92 346,-92 346,-73 170,-73"/>
<text text-anchor="middle" x="258" y="-80" font-family="Helvetica,sans-Serif" font-size="10.00">IIndicatorWarmUpPeriodProvider</text>
</a>
</g>
</g>
<!-- Node3&#45;&gt;Node1 -->
<g id="edge2" class="edge">
<title>Node3&#45;&gt;Node1</title>
<path fill="none" stroke="midnightblue" d="M237.49,-66.85C222.3,-56 201.72,-41.3 186.72,-30.59"/>
<polygon fill="midnightblue" stroke="midnightblue" points="235.56,-69.77 245.73,-72.73 239.62,-64.07 235.56,-69.77"/>
</g>
</g>
</svg>
