<?xml version="1.0" encoding="UTF-8" standalone="no"?>
<!DOCTYPE svg PUBLIC "-//W3C//DTD SVG 1.1//EN"
 "http://www.w3.org/Graphics/SVG/1.1/DTD/svg11.dtd">
<!-- Generated by graphviz version 2.43.0 (0)
 -->
<!-- Title: QuantConnect.Securities.SecurityManager.CreateSecurity Pages: 1 -->
<svg width="694pt" height="836pt"
 viewBox="0.00 0.00 694.00 836.00" xmlns="http://www.w3.org/2000/svg" xmlns:xlink="http://www.w3.org/1999/xlink">
<g id="graph0" class="graph" transform="scale(1 1) rotate(0) translate(4 832)">
<title>QuantConnect.Securities.SecurityManager.CreateSecurity</title>
<polygon fill="white" stroke="transparent" points="-4,4 -4,-832 690,-832 690,4 -4,4"/>
<!-- Node1 -->
<g id="node1" class="node">
<title>Node1</title>
<g id="a_node1"><a xlink:title="Creates a new security">
<polygon fill="#bfbfbf" stroke="black" points="513,-357.5 513,-387.5 686,-387.5 686,-357.5 513,-357.5"/>
<text text-anchor="start" x="521" y="-375.5" font-family="Helvetica,sans-Serif" font-size="10.00">QuantConnect.Securities.</text>
<text text-anchor="middle" x="599.5" y="-364.5" font-family="Helvetica,sans-Serif" font-size="10.00">SecurityManager.CreateSecurity</text>
</a>
</g>
</g>
<!-- Node2 -->
<g id="node2" class="node">
<title>Node2</title>
<g id="a_node2"><a xlink:href="classQuantConnect_1_1Algorithm_1_1QCAlgorithm.html#a0f7ec3a574e47b4ac26448590c4ef685" target="_top" xlink:title="Creates and adds a new single Option contract to the algorithm">
<polygon fill="white" stroke="black" points="262.5,-723.5 262.5,-753.5 467.5,-753.5 467.5,-723.5 262.5,-723.5"/>
<text text-anchor="start" x="270.5" y="-741.5" font-family="Helvetica,sans-Serif" font-size="10.00">QuantConnect.Algorithm.QCAlgorithm.</text>
<text text-anchor="middle" x="365" y="-730.5" font-family="Helvetica,sans-Serif" font-size="10.00">AddOptionContract</text>
</a>
</g>
</g>
<!-- Node1&#45;&gt;Node2 -->
<g id="edge1" class="edge">
<title>Node1&#45;&gt;Node2</title>
<path fill="none" stroke="midnightblue" d="M584.13,-396.29C561.6,-433.46 516.49,-507.47 477,-569.5 440.62,-626.65 396,-693.68 376.25,-723.22"/>
<polygon fill="midnightblue" stroke="midnightblue" points="587.16,-398.03 589.35,-387.67 581.17,-394.41 587.16,-398.03"/>
</g>
<!-- Node5 -->
<g id="node5" class="node">
<title>Node5</title>
<g id="a_node5"><a xlink:href="classQuantConnect_1_1Algorithm_1_1QCAlgorithm.html#afcdaf47586751fe6105f43d044b7cf70" target="_top" xlink:title="Set a required SecurityType&#45;symbol and resolution for algorithm">
<polygon fill="white" stroke="black" points="6,-699.5 6,-729.5 211,-729.5 211,-699.5 6,-699.5"/>
<text text-anchor="start" x="14" y="-717.5" font-family="Helvetica,sans-Serif" font-size="10.00">QuantConnect.Algorithm.QCAlgorithm.</text>
<text text-anchor="middle" x="108.5" y="-706.5" font-family="Helvetica,sans-Serif" font-size="10.00">AddSecurity</text>
</a>
</g>
</g>
<!-- Node1&#45;&gt;Node5 -->
<g id="edge5" class="edge">
<title>Node1&#45;&gt;Node5</title>
<path fill="none" stroke="midnightblue" d="M578.57,-395.18C525.83,-453.69 375.74,-610.67 217,-689.5 209.19,-693.38 200.76,-696.67 192.18,-699.45"/>
<polygon fill="midnightblue" stroke="midnightblue" points="581.3,-397.38 585.36,-387.59 576.08,-392.71 581.3,-397.38"/>
</g>
<!-- Node6 -->
<g id="node6" class="node">
<title>Node6</title>
<g id="a_node6"><a xlink:href="classQuantConnect_1_1Benchmarks_1_1SecurityBenchmark.html#a40c97e12584a0fc70ffb48f9aead3287" target="_top" xlink:title="Helper function that will create a security with the given SecurityManager for a specific symbol and ...">
<polygon fill="white" stroke="black" points="271,-357.5 271,-387.5 459,-387.5 459,-357.5 271,-357.5"/>
<text text-anchor="start" x="279" y="-375.5" font-family="Helvetica,sans-Serif" font-size="10.00">QuantConnect.Benchmarks.</text>
<text text-anchor="middle" x="365" y="-364.5" font-family="Helvetica,sans-Serif" font-size="10.00">SecurityBenchmark.CreateInstance</text>
</a>
</g>
</g>
<!-- Node1&#45;&gt;Node6 -->
<g id="edge6" class="edge">
<title>Node1&#45;&gt;Node6</title>
<path fill="none" stroke="midnightblue" d="M502.57,-372.5C488.25,-372.5 473.5,-372.5 459.23,-372.5"/>
<polygon fill="midnightblue" stroke="midnightblue" points="502.92,-376 512.92,-372.5 502.92,-369 502.92,-376"/>
</g>
<!-- Node21 -->
<g id="node21" class="node">
<title>Node21</title>
<g id="a_node21"><a xlink:href="classQuantConnect_1_1Report_1_1PortfolioLooperAlgorithm.html#a88248cf95bee5a163b9581961df1409d" target="_top" xlink:title="Initializes all the proper Securities from the orders provided by the user">
<polygon fill="white" stroke="black" points="282.5,-308.5 282.5,-338.5 447.5,-338.5 447.5,-308.5 282.5,-308.5"/>
<text text-anchor="start" x="290.5" y="-326.5" font-family="Helvetica,sans-Serif" font-size="10.00">QuantConnect.Report.Portfolio</text>
<text text-anchor="middle" x="365" y="-315.5" font-family="Helvetica,sans-Serif" font-size="10.00">LooperAlgorithm.FromOrders</text>
</a>
</g>
</g>
<!-- Node1&#45;&gt;Node21 -->
<g id="edge21" class="edge">
<title>Node1&#45;&gt;Node21</title>
<path fill="none" stroke="midnightblue" d="M517.3,-355.39C491.21,-349.89 462.52,-343.84 437.2,-338.51"/>
<polygon fill="midnightblue" stroke="midnightblue" points="516.66,-358.83 527.16,-357.47 518.1,-351.98 516.66,-358.83"/>
</g>
<!-- Node22 -->
<g id="node22" class="node">
<title>Node22</title>
<g id="a_node22"><a xlink:href="classQuantConnect_1_1ToolBox_1_1RandomDataGenerator_1_1RandomDataGenerator.html#ada63eccf46a461c8a094c51c75eb0a28" target="_top" xlink:title="Starts data generation">
<polygon fill="white" stroke="black" points="253,-259.5 253,-289.5 477,-289.5 477,-259.5 253,-259.5"/>
<text text-anchor="start" x="261" y="-277.5" font-family="Helvetica,sans-Serif" font-size="10.00">QuantConnect.ToolBox.Random</text>
<text text-anchor="middle" x="365" y="-266.5" font-family="Helvetica,sans-Serif" font-size="10.00">DataGenerator.RandomDataGenerator.Run</text>
</a>
</g>
</g>
<!-- Node1&#45;&gt;Node22 -->
<g id="edge22" class="edge">
<title>Node1&#45;&gt;Node22</title>
<path fill="none" stroke="midnightblue" d="M569.85,-351.67C546.06,-335.29 510.77,-313.04 477,-299.5 467.47,-295.68 457.22,-292.38 446.96,-289.54"/>
<polygon fill="midnightblue" stroke="midnightblue" points="567.86,-354.55 578.07,-357.41 571.87,-348.82 567.86,-354.55"/>
</g>
<!-- Node3 -->
<g id="node3" class="node">
<title>Node3</title>
<g id="a_node3"><a xlink:href="classQuantConnect_1_1Algorithm_1_1QCAlgorithm.html#ada6451c3b45f03209b586c6bc661ccb0" target="_top" xlink:title="Adds a future option contract to the algorithm.">
<polygon fill="white" stroke="black" points="6,-797.5 6,-827.5 211,-827.5 211,-797.5 6,-797.5"/>
<text text-anchor="start" x="14" y="-815.5" font-family="Helvetica,sans-Serif" font-size="10.00">QuantConnect.Algorithm.QCAlgorithm.</text>
<text text-anchor="middle" x="108.5" y="-804.5" font-family="Helvetica,sans-Serif" font-size="10.00">AddFutureOptionContract</text>
</a>
</g>
</g>
<!-- Node2&#45;&gt;Node3 -->
<g id="edge2" class="edge">
<title>Node2&#45;&gt;Node3</title>
<path fill="none" stroke="midnightblue" d="M313.86,-757.06C285.64,-767.12 249.62,-779.34 217,-788.5 205.68,-791.68 193.59,-794.72 181.76,-797.5"/>
<polygon fill="midnightblue" stroke="midnightblue" points="315.27,-760.27 323.5,-753.6 312.91,-753.68 315.27,-760.27"/>
</g>
<!-- Node4 -->
<g id="node4" class="node">
<title>Node4</title>
<g id="a_node4"><a xlink:href="classQuantConnect_1_1Algorithm_1_1QCAlgorithm.html#adf45c7f21fae0d09e37a423c2e6e3cce" target="_top" xlink:title="Adds an index option contract to the algorithm.">
<polygon fill="white" stroke="black" points="6,-748.5 6,-778.5 211,-778.5 211,-748.5 6,-748.5"/>
<text text-anchor="start" x="14" y="-766.5" font-family="Helvetica,sans-Serif" font-size="10.00">QuantConnect.Algorithm.QCAlgorithm.</text>
<text text-anchor="middle" x="108.5" y="-755.5" font-family="Helvetica,sans-Serif" font-size="10.00">AddIndexOptionContract</text>
</a>
</g>
</g>
<!-- Node2&#45;&gt;Node4 -->
<g id="edge3" class="edge">
<title>Node2&#45;&gt;Node4</title>
<path fill="none" stroke="midnightblue" d="M252.36,-749.47C238.61,-750.82 224.61,-752.19 211.02,-753.53"/>
<polygon fill="midnightblue" stroke="midnightblue" points="252.71,-752.95 262.32,-748.49 252.02,-745.98 252.71,-752.95"/>
</g>
<!-- Node2&#45;&gt;Node5 -->
<g id="edge4" class="edge">
<title>Node2&#45;&gt;Node5</title>
<path fill="none" stroke="midnightblue" d="M252.36,-727.97C238.61,-726.68 224.61,-725.36 211.02,-724.07"/>
<polygon fill="midnightblue" stroke="midnightblue" points="252.03,-731.46 262.32,-728.91 252.69,-724.49 252.03,-731.46"/>
</g>
<!-- Node7 -->
<g id="node7" class="node">
<title>Node7</title>
<g id="a_node7"><a xlink:href="classQuantConnect_1_1Brokerages_1_1BinanceCoinFuturesBrokerageModel.html#addeb13fd25cf94c48a7a11d82bf0ca29" target="_top" xlink:title="Get the benchmark for this model">
<polygon fill="white" stroke="black" points="10.5,-639 10.5,-680 206.5,-680 206.5,-639 10.5,-639"/>
<text text-anchor="start" x="18.5" y="-668" font-family="Helvetica,sans-Serif" font-size="10.00">QuantConnect.Brokerages.</text>
<text text-anchor="start" x="18.5" y="-657" font-family="Helvetica,sans-Serif" font-size="10.00">BinanceCoinFuturesBrokerageModel.</text>
<text text-anchor="middle" x="108.5" y="-646" font-family="Helvetica,sans-Serif" font-size="10.00">GetBenchmark</text>
</a>
</g>
</g>
<!-- Node6&#45;&gt;Node7 -->
<g id="edge7" class="edge">
<title>Node6&#45;&gt;Node7</title>
<path fill="none" stroke="midnightblue" d="M346.49,-395.95C323.22,-427.79 281.71,-486.99 253,-541.5 233.31,-578.89 248.56,-601.4 217,-629.5 213.02,-633.04 208.65,-636.17 204.03,-638.93"/>
<polygon fill="midnightblue" stroke="midnightblue" points="349.44,-397.85 352.54,-387.72 343.8,-393.71 349.44,-397.85"/>
</g>
<!-- Node8 -->
<g id="node8" class="node">
<title>Node8</title>
<g id="a_node8"><a xlink:href="classQuantConnect_1_1Brokerages_1_1BinanceFuturesBrokerageModel.html#a85ddb3370bb87da9d57f80e78835736c" target="_top" xlink:title="Get the benchmark for this model">
<polygon fill="white" stroke="black" points="21.5,-579 21.5,-620 195.5,-620 195.5,-579 21.5,-579"/>
<text text-anchor="start" x="29.5" y="-608" font-family="Helvetica,sans-Serif" font-size="10.00">QuantConnect.Brokerages.</text>
<text text-anchor="start" x="29.5" y="-597" font-family="Helvetica,sans-Serif" font-size="10.00">BinanceFuturesBrokerageModel.</text>
<text text-anchor="middle" x="108.5" y="-586" font-family="Helvetica,sans-Serif" font-size="10.00">GetBenchmark</text>
</a>
</g>
</g>
<!-- Node6&#45;&gt;Node8 -->
<g id="edge8" class="edge">
<title>Node6&#45;&gt;Node8</title>
<path fill="none" stroke="midnightblue" d="M352.53,-396.95C331.64,-438.8 283.31,-524.04 217,-569.5 210.45,-573.99 203.24,-577.81 195.75,-581.07"/>
<polygon fill="midnightblue" stroke="midnightblue" points="355.78,-398.28 357.03,-387.76 349.49,-395.21 355.78,-398.28"/>
</g>
<!-- Node9 -->
<g id="node9" class="node">
<title>Node9</title>
<g id="a_node9"><a xlink:href="classQuantConnect_1_1Brokerages_1_1ExanteBrokerageModel.html#ae5cd590d0fdd7dfc5ef760fa6c7bc6dd" target="_top" xlink:title="Get the benchmark for this model">
<polygon fill="white" stroke="black" points="5.5,-529.5 5.5,-559.5 211.5,-559.5 211.5,-529.5 5.5,-529.5"/>
<text text-anchor="start" x="13.5" y="-547.5" font-family="Helvetica,sans-Serif" font-size="10.00">QuantConnect.Brokerages.</text>
<text text-anchor="middle" x="108.5" y="-536.5" font-family="Helvetica,sans-Serif" font-size="10.00">ExanteBrokerageModel.GetBenchmark</text>
</a>
</g>
</g>
<!-- Node6&#45;&gt;Node9 -->
<g id="edge9" class="edge">
<title>Node6&#45;&gt;Node9</title>
<path fill="none" stroke="midnightblue" d="M347.51,-396.11C323.01,-429.3 273.76,-489.18 217,-520.5 210.72,-523.96 203.98,-526.93 197.03,-529.47"/>
<polygon fill="midnightblue" stroke="midnightblue" points="350.43,-398.04 353.47,-387.89 344.77,-393.93 350.43,-398.04"/>
</g>
<!-- Node10 -->
<g id="node10" class="node">
<title>Node10</title>
<g id="a_node10"><a xlink:href="classQuantConnect_1_1Brokerages_1_1BinanceBrokerageModel.html#a89a19635165af08e3a577176abcdea1b" target="_top" xlink:title="Get the benchmark for this model">
<polygon fill="white" stroke="black" points="3,-480.5 3,-510.5 214,-510.5 214,-480.5 3,-480.5"/>
<text text-anchor="start" x="11" y="-498.5" font-family="Helvetica,sans-Serif" font-size="10.00">QuantConnect.Brokerages.</text>
<text text-anchor="middle" x="108.5" y="-487.5" font-family="Helvetica,sans-Serif" font-size="10.00">BinanceBrokerageModel.GetBenchmark</text>
</a>
</g>
</g>
<!-- Node6&#45;&gt;Node10 -->
<g id="edge10" class="edge">
<title>Node6&#45;&gt;Node10</title>
<path fill="none" stroke="midnightblue" d="M338.2,-394.31C310.14,-416.91 263.11,-451.67 217,-471.5 209.01,-474.94 200.46,-477.91 191.81,-480.48"/>
<polygon fill="midnightblue" stroke="midnightblue" points="340.75,-396.75 346.28,-387.71 336.32,-391.32 340.75,-396.75"/>
</g>
<!-- Node11 -->
<g id="node11" class="node">
<title>Node11</title>
<g id="a_node11"><a xlink:href="classQuantConnect_1_1Brokerages_1_1BitfinexBrokerageModel.html#ada402f643eed2b416ef4dcb44ec4e590" target="_top" xlink:title="Get the benchmark for this model">
<polygon fill="white" stroke="black" points="4,-431.5 4,-461.5 213,-461.5 213,-431.5 4,-431.5"/>
<text text-anchor="start" x="12" y="-449.5" font-family="Helvetica,sans-Serif" font-size="10.00">QuantConnect.Brokerages.</text>
<text text-anchor="middle" x="108.5" y="-438.5" font-family="Helvetica,sans-Serif" font-size="10.00">BitfinexBrokerageModel.GetBenchmark</text>
</a>
</g>
</g>
<!-- Node6&#45;&gt;Node11 -->
<g id="edge11" class="edge">
<title>Node6&#45;&gt;Node11</title>
<path fill="none" stroke="midnightblue" d="M313.86,-391.06C285.64,-401.12 249.62,-413.34 217,-422.5 205.68,-425.68 193.59,-428.72 181.76,-431.5"/>
<polygon fill="midnightblue" stroke="midnightblue" points="315.27,-394.27 323.5,-387.6 312.91,-387.68 315.27,-394.27"/>
</g>
<!-- Node12 -->
<g id="node12" class="node">
<title>Node12</title>
<g id="a_node12"><a xlink:href="classQuantConnect_1_1Brokerages_1_1FTXBrokerageModel.html#a7200682c4a7f306776d64d2d54d08a8a" target="_top" xlink:title="Get the benchmark for this model">
<polygon fill="white" stroke="black" points="13.5,-382.5 13.5,-412.5 203.5,-412.5 203.5,-382.5 13.5,-382.5"/>
<text text-anchor="start" x="21.5" y="-400.5" font-family="Helvetica,sans-Serif" font-size="10.00">QuantConnect.Brokerages.</text>
<text text-anchor="middle" x="108.5" y="-389.5" font-family="Helvetica,sans-Serif" font-size="10.00">FTXBrokerageModel.GetBenchmark</text>
</a>
</g>
</g>
<!-- Node6&#45;&gt;Node12 -->
<g id="edge12" class="edge">
<title>Node6&#45;&gt;Node12</title>
<path fill="none" stroke="midnightblue" d="M260.6,-382.66C241.77,-384.51 222.21,-386.43 203.66,-388.25"/>
<polygon fill="midnightblue" stroke="midnightblue" points="261.07,-386.13 270.68,-381.67 260.38,-379.16 261.07,-386.13"/>
</g>
<!-- Node13 -->
<g id="node13" class="node">
<title>Node13</title>
<g id="a_node13"><a xlink:href="classQuantConnect_1_1Brokerages_1_1CoinbaseBrokerageModel.html#a00c8c3442d08d5b67a28b74fa69e844c" target="_top" xlink:title="Get the benchmark for this model">
<polygon fill="white" stroke="black" points="0,-333.5 0,-363.5 217,-363.5 217,-333.5 0,-333.5"/>
<text text-anchor="start" x="8" y="-351.5" font-family="Helvetica,sans-Serif" font-size="10.00">QuantConnect.Brokerages.</text>
<text text-anchor="middle" x="108.5" y="-340.5" font-family="Helvetica,sans-Serif" font-size="10.00">CoinbaseBrokerageModel.GetBenchmark</text>
</a>
</g>
</g>
<!-- Node6&#45;&gt;Node13 -->
<g id="edge13" class="edge">
<title>Node6&#45;&gt;Node13</title>
<path fill="none" stroke="midnightblue" d="M260.36,-362.73C246.07,-361.38 231.38,-359.99 217.02,-358.64"/>
<polygon fill="midnightblue" stroke="midnightblue" points="260.39,-366.25 270.68,-363.7 261.05,-359.28 260.39,-366.25"/>
</g>
<!-- Node14 -->
<g id="node14" class="node">
<title>Node14</title>
<g id="a_node14"><a xlink:href="classBybitBrokerageModel.html#a55fbedf16cdfaf9c1ea460b8a1efc7e7" target="_top" xlink:title="Get the benchmark for this model">
<polygon fill="white" stroke="black" points="10,-295 10,-314 207,-314 207,-295 10,-295"/>
<text text-anchor="middle" x="108.5" y="-302" font-family="Helvetica,sans-Serif" font-size="10.00">BybitBrokerageModel.GetBenchmark</text>
</a>
</g>
</g>
<!-- Node6&#45;&gt;Node14 -->
<g id="edge14" class="edge">
<title>Node6&#45;&gt;Node14</title>
<path fill="none" stroke="midnightblue" d="M268.68,-354.38C263.31,-352.59 258.05,-350.64 253,-348.5 235.29,-341 234.81,-331.74 217,-324.5 206.27,-320.14 194.55,-316.72 182.92,-314.05"/>
<polygon fill="midnightblue" stroke="midnightblue" points="267.85,-357.79 278.44,-357.43 269.94,-351.11 267.85,-357.79"/>
</g>
<!-- Node15 -->
<g id="node15" class="node">
<title>Node15</title>
<g id="a_node15"><a xlink:href="classQuantConnect_1_1Brokerages_1_1OandaBrokerageModel.html#a41cbe04ef0c5a37e82d1c9b3fd974722" target="_top" xlink:title="Get the benchmark for this model">
<polygon fill="white" stroke="black" points="7,-245.5 7,-275.5 210,-275.5 210,-245.5 7,-245.5"/>
<text text-anchor="start" x="15" y="-263.5" font-family="Helvetica,sans-Serif" font-size="10.00">QuantConnect.Brokerages.</text>
<text text-anchor="middle" x="108.5" y="-252.5" font-family="Helvetica,sans-Serif" font-size="10.00">OandaBrokerageModel.GetBenchmark</text>
</a>
</g>
</g>
<!-- Node6&#45;&gt;Node15 -->
<g id="edge15" class="edge">
<title>Node6&#45;&gt;Node15</title>
<path fill="none" stroke="midnightblue" d="M261.88,-354.22C258.8,-352.47 255.83,-350.57 253,-348.5 226.99,-329.44 242.87,-304.76 217,-285.5 211.77,-281.61 206.04,-278.31 200.03,-275.52"/>
<polygon fill="midnightblue" stroke="midnightblue" points="260.32,-357.35 270.83,-358.72 263.47,-351.1 260.32,-357.35"/>
</g>
<!-- Node16 -->
<g id="node16" class="node">
<title>Node16</title>
<g id="a_node16"><a xlink:href="classQuantConnect_1_1Brokerages_1_1FxcmBrokerageModel.html#a5db2ee76363919bea66190ace81d018c" target="_top" xlink:title="Get the benchmark for this model">
<polygon fill="white" stroke="black" points="9,-196.5 9,-226.5 208,-226.5 208,-196.5 9,-196.5"/>
<text text-anchor="start" x="17" y="-214.5" font-family="Helvetica,sans-Serif" font-size="10.00">QuantConnect.Brokerages.</text>
<text text-anchor="middle" x="108.5" y="-203.5" font-family="Helvetica,sans-Serif" font-size="10.00">FxcmBrokerageModel.GetBenchmark</text>
</a>
</g>
</g>
<!-- Node6&#45;&gt;Node16 -->
<g id="edge16" class="edge">
<title>Node6&#45;&gt;Node16</title>
<path fill="none" stroke="midnightblue" d="M262.07,-355.47C258.87,-353.38 255.83,-351.07 253,-348.5 214.26,-313.38 255.47,-271.92 217,-236.5 212.84,-232.67 208.21,-229.39 203.28,-226.59"/>
<polygon fill="midnightblue" stroke="midnightblue" points="260.46,-358.58 270.89,-360.48 263.92,-352.5 260.46,-358.58"/>
</g>
<!-- Node17 -->
<g id="node17" class="node">
<title>Node17</title>
<g id="a_node17"><a xlink:href="classQuantConnect_1_1Brokerages_1_1SamcoBrokerageModel.html#a40db495005f47223a19c9d3e5d398f86" target="_top" xlink:title="Get the benchmark for this model">
<polygon fill="white" stroke="black" points="6,-147.5 6,-177.5 211,-177.5 211,-147.5 6,-147.5"/>
<text text-anchor="start" x="14" y="-165.5" font-family="Helvetica,sans-Serif" font-size="10.00">QuantConnect.Brokerages.</text>
<text text-anchor="middle" x="108.5" y="-154.5" font-family="Helvetica,sans-Serif" font-size="10.00">SamcoBrokerageModel.GetBenchmark</text>
</a>
</g>
</g>
<!-- Node6&#45;&gt;Node17 -->
<g id="edge17" class="edge">
<title>Node6&#45;&gt;Node17</title>
<path fill="none" stroke="midnightblue" d="M262.31,-356.17C258.99,-353.9 255.87,-351.35 253,-348.5 200.97,-296.84 268.63,-239.57 217,-187.5 213.22,-183.69 208.99,-180.41 204.43,-177.6"/>
<polygon fill="midnightblue" stroke="midnightblue" points="260.53,-359.18 270.91,-361.28 264.1,-353.16 260.53,-359.18"/>
</g>
<!-- Node18 -->
<g id="node18" class="node">
<title>Node18</title>
<g id="a_node18"><a xlink:href="classQuantConnect_1_1Brokerages_1_1KrakenBrokerageModel.html#a4b93fc0168cb99b913882fdbbe161697" target="_top" xlink:title="Get the benchmark for this model">
<polygon fill="white" stroke="black" points="5.5,-98.5 5.5,-128.5 211.5,-128.5 211.5,-98.5 5.5,-98.5"/>
<text text-anchor="start" x="13.5" y="-116.5" font-family="Helvetica,sans-Serif" font-size="10.00">QuantConnect.Brokerages.</text>
<text text-anchor="middle" x="108.5" y="-105.5" font-family="Helvetica,sans-Serif" font-size="10.00">KrakenBrokerageModel.GetBenchmark</text>
</a>
</g>
</g>
<!-- Node6&#45;&gt;Node18 -->
<g id="edge18" class="edge">
<title>Node6&#45;&gt;Node18</title>
<path fill="none" stroke="midnightblue" d="M262.25,-356.44C258.94,-354.1 255.83,-351.46 253,-348.5 187.5,-280.11 281.96,-207.4 217,-138.5 213.45,-134.74 209.45,-131.49 205.14,-128.69"/>
<polygon fill="midnightblue" stroke="midnightblue" points="260.52,-359.49 270.88,-361.7 264.17,-353.51 260.52,-359.49"/>
</g>
<!-- Node19 -->
<g id="node19" class="node">
<title>Node19</title>
<g id="a_node19"><a xlink:href="classQuantConnect_1_1Brokerages_1_1DefaultBrokerageModel.html#a03eb687e29db2af6b437286581e5584e" target="_top" xlink:title="Get the benchmark for this model">
<polygon fill="white" stroke="black" points="4.5,-49.5 4.5,-79.5 212.5,-79.5 212.5,-49.5 4.5,-49.5"/>
<text text-anchor="start" x="12.5" y="-67.5" font-family="Helvetica,sans-Serif" font-size="10.00">QuantConnect.Brokerages.</text>
<text text-anchor="middle" x="108.5" y="-56.5" font-family="Helvetica,sans-Serif" font-size="10.00">DefaultBrokerageModel.GetBenchmark</text>
</a>
</g>
</g>
<!-- Node6&#45;&gt;Node19 -->
<g id="edge19" class="edge">
<title>Node6&#45;&gt;Node19</title>
<path fill="none" stroke="midnightblue" d="M262.26,-356.65C258.93,-354.25 255.82,-351.54 253,-348.5 173.95,-263.31 295.38,-175.31 217,-89.5 213.51,-85.68 209.56,-82.39 205.29,-79.55"/>
<polygon fill="midnightblue" stroke="midnightblue" points="260.61,-359.74 270.96,-362.02 264.29,-353.78 260.61,-359.74"/>
</g>
<!-- Node20 -->
<g id="node20" class="node">
<title>Node20</title>
<g id="a_node20"><a xlink:href="classQuantConnect_1_1Algorithm_1_1QCAlgorithm.html#ab6ee2c4e0a8649563da1bb28d3f65736" target="_top" xlink:title="Sets the benchmark used for computing statistics of the algorithm to the specified symbol">
<polygon fill="white" stroke="black" points="6,-0.5 6,-30.5 211,-30.5 211,-0.5 6,-0.5"/>
<text text-anchor="start" x="14" y="-18.5" font-family="Helvetica,sans-Serif" font-size="10.00">QuantConnect.Algorithm.QCAlgorithm.</text>
<text text-anchor="middle" x="108.5" y="-7.5" font-family="Helvetica,sans-Serif" font-size="10.00">SetBenchmark</text>
</a>
</g>
</g>
<!-- Node6&#45;&gt;Node20 -->
<g id="edge20" class="edge">
<title>Node6&#45;&gt;Node20</title>
<path fill="none" stroke="midnightblue" d="M262.18,-356.73C258.87,-354.3 255.79,-351.57 253,-348.5 160.09,-246.11 309.57,-142.2 217,-39.5 213.93,-36.09 210.49,-33.11 206.77,-30.51"/>
<polygon fill="midnightblue" stroke="midnightblue" points="260.49,-359.8 270.82,-362.14 264.2,-353.87 260.49,-359.8"/>
</g>
</g>
</svg>
