<?xml version="1.0" encoding="UTF-8" standalone="no"?>
<!DOCTYPE svg PUBLIC "-//W3C//DTD SVG 1.1//EN"
 "http://www.w3.org/Graphics/SVG/1.1/DTD/svg11.dtd">
<!-- Generated by graphviz version 2.43.0 (0)
 -->
<!-- Title: QuantConnect.Lean.Engine.RealTime.BacktestingRealTimeHandler.ScanPastEvents Pages: 1 -->
<svg width="466pt" height="100pt"
 viewBox="0.00 0.00 466.00 99.50" xmlns="http://www.w3.org/2000/svg" xmlns:xlink="http://www.w3.org/1999/xlink">
<g id="graph0" class="graph" transform="scale(1 1) rotate(0) translate(4 95.5)">
<title>QuantConnect.Lean.Engine.RealTime.BacktestingRealTimeHandler.ScanPastEvents</title>
<polygon fill="white" stroke="transparent" points="-4,4 -4,-95.5 462,-95.5 462,4 -4,4"/>
<!-- Node1 -->
<g id="node1" class="node">
<title>Node1</title>
<g id="a_node1"><a xlink:title="Scan for past events that didn&#39;t fire because there was no data at the scheduled time.">
<polygon fill="#bfbfbf" stroke="black" points="0,-27.5 0,-68.5 211,-68.5 211,-27.5 0,-27.5"/>
<text text-anchor="start" x="8" y="-56.5" font-family="Helvetica,sans-Serif" font-size="10.00">QuantConnect.Lean.Engine.</text>
<text text-anchor="start" x="8" y="-45.5" font-family="Helvetica,sans-Serif" font-size="10.00">RealTime.BacktestingRealTimeHandler.</text>
<text text-anchor="middle" x="105.5" y="-34.5" font-family="Helvetica,sans-Serif" font-size="10.00">ScanPastEvents</text>
</a>
</g>
</g>
<!-- Node2 -->
<g id="node2" class="node">
<title>Node2</title>
<g id="a_node2"><a xlink:href="interfaceQuantConnect_1_1Interfaces_1_1IAlgorithm.html#a8dc9d2dd57f952d4c9728ec78f391363" target="_top" xlink:title="Set the DateTime Frontier: This is the master time and is">
<polygon fill="white" stroke="black" points="282.5,-61 282.5,-91 422.5,-91 422.5,-61 282.5,-61"/>
<text text-anchor="start" x="290.5" y="-79" font-family="Helvetica,sans-Serif" font-size="10.00">QuantConnect.Interfaces.</text>
<text text-anchor="middle" x="352.5" y="-68" font-family="Helvetica,sans-Serif" font-size="10.00">IAlgorithm.SetDateTime</text>
</a>
</g>
</g>
<!-- Node1&#45;&gt;Node2 -->
<g id="edge1" class="edge">
<title>Node1&#45;&gt;Node2</title>
<path fill="none" stroke="midnightblue" d="M211.11,-59.96C231.6,-62.3 252.77,-64.72 272.27,-66.94"/>
<polygon fill="midnightblue" stroke="midnightblue" points="271.96,-70.43 282.3,-68.09 272.76,-63.48 271.96,-70.43"/>
</g>
<!-- Node3 -->
<g id="node3" class="node">
<title>Node3</title>
<g id="a_node3"><a xlink:href="classQuantConnect_1_1Lean_1_1Engine_1_1RealTime_1_1BacktestingRealTimeHandler.html#a77236800ce1e0bbe276e32fc212be441" target="_top" xlink:title="Sorts the first element of the provided list and supposes the rest of the collection is sorted....">
<polygon fill="white" stroke="black" points="247,-0.5 247,-41.5 458,-41.5 458,-0.5 247,-0.5"/>
<text text-anchor="start" x="255" y="-29.5" font-family="Helvetica,sans-Serif" font-size="10.00">QuantConnect.Lean.Engine.</text>
<text text-anchor="start" x="255" y="-18.5" font-family="Helvetica,sans-Serif" font-size="10.00">RealTime.BacktestingRealTimeHandler.</text>
<text text-anchor="middle" x="352.5" y="-7.5" font-family="Helvetica,sans-Serif" font-size="10.00">SortFirstElement</text>
</a>
</g>
</g>
<!-- Node1&#45;&gt;Node3 -->
<g id="edge2" class="edge">
<title>Node1&#45;&gt;Node3</title>
<path fill="none" stroke="midnightblue" d="M211.11,-36.47C219.62,-35.53 228.24,-34.58 236.82,-33.64"/>
<polygon fill="midnightblue" stroke="midnightblue" points="237.29,-37.11 246.85,-32.53 236.52,-30.15 237.29,-37.11"/>
</g>
</g>
</svg>
