<?xml version="1.0" encoding="UTF-8" standalone="no"?>
<!DOCTYPE svg PUBLIC "-//W3C//DTD SVG 1.1//EN"
 "http://www.w3.org/Graphics/SVG/1.1/DTD/svg11.dtd">
<!-- Generated by graphviz version 2.43.0 (0)
 -->
<!-- Title: QuantConnect.Indicators.ExponentialMovingAverage.SmoothingFactorDefault Pages: 1 -->
<svg width="477pt" height="78pt"
 viewBox="0.00 0.00 477.00 77.50" xmlns="http://www.w3.org/2000/svg" xmlns:xlink="http://www.w3.org/1999/xlink">
<g id="graph0" class="graph" transform="scale(1 1) rotate(0) translate(4 73.5)">
<title>QuantConnect.Indicators.ExponentialMovingAverage.SmoothingFactorDefault</title>
<polygon fill="white" stroke="transparent" points="-4,4 -4,-73.5 473,-73.5 473,4 -4,4"/>
<!-- Node1 -->
<g id="node1" class="node">
<title>Node1</title>
<g id="a_node1"><a xlink:title="Calculates the default smoothing factor for an ExponentialMovingAverage indicator">
<polygon fill="#bfbfbf" stroke="black" points="263,-17 263,-58 469,-58 469,-17 263,-17"/>
<text text-anchor="start" x="271" y="-46" font-family="Helvetica,sans-Serif" font-size="10.00">QuantConnect.Indicators.</text>
<text text-anchor="start" x="271" y="-35" font-family="Helvetica,sans-Serif" font-size="10.00">ExponentialMovingAverage.Smoothing</text>
<text text-anchor="middle" x="366" y="-24" font-family="Helvetica,sans-Serif" font-size="10.00">FactorDefault</text>
</a>
</g>
</g>
<!-- Node2 -->
<g id="node2" class="node">
<title>Node2</title>
<g id="a_node2"><a xlink:href="classQuantConnect_1_1Algorithm_1_1QCAlgorithm.html#aa0c468a8b6dfaa2c4f40f39c7c4103b1" target="_top" xlink:title="Creates an ExponentialMovingAverage indicator for the symbol. The indicator will be automatically upd...">
<polygon fill="white" stroke="black" points="0,-50 0,-69 227,-69 227,-50 0,-50"/>
<text text-anchor="middle" x="113.5" y="-57" font-family="Helvetica,sans-Serif" font-size="10.00">QuantConnect.Algorithm.QCAlgorithm.EMA</text>
</a>
</g>
</g>
<!-- Node1&#45;&gt;Node2 -->
<g id="edge1" class="edge">
<title>Node1&#45;&gt;Node2</title>
<path fill="none" stroke="midnightblue" d="M252.54,-47.38C242.7,-48.24 232.75,-49.11 222.94,-49.98"/>
<polygon fill="midnightblue" stroke="midnightblue" points="253.1,-50.84 262.75,-46.48 252.48,-43.87 253.1,-50.84"/>
</g>
<!-- Node3 -->
<g id="node3" class="node">
<title>Node3</title>
<g id="a_node3"><a xlink:href="classQuantConnect_1_1Indicators_1_1IndicatorExtensions.html#a4e4886d66e950744658d12ff0cc041fc" target="_top" xlink:title="Creates a new ExponentialMovingAverage indicator with the specified period and smoothingFactor from t...">
<polygon fill="white" stroke="black" points="30.5,-0.5 30.5,-30.5 196.5,-30.5 196.5,-0.5 30.5,-0.5"/>
<text text-anchor="start" x="38.5" y="-18.5" font-family="Helvetica,sans-Serif" font-size="10.00">QuantConnect.Indicators.</text>
<text text-anchor="middle" x="113.5" y="-7.5" font-family="Helvetica,sans-Serif" font-size="10.00">IndicatorExtensions.EMA&lt; T &gt;</text>
</a>
</g>
</g>
<!-- Node1&#45;&gt;Node3 -->
<g id="edge2" class="edge">
<title>Node1&#45;&gt;Node3</title>
<path fill="none" stroke="midnightblue" d="M252.61,-27.63C233.72,-25.97 214.44,-24.28 196.5,-22.7"/>
<polygon fill="midnightblue" stroke="midnightblue" points="252.48,-31.13 262.75,-28.52 253.1,-24.16 252.48,-31.13"/>
</g>
</g>
</svg>
