<?xml version="1.0" encoding="UTF-8" standalone="no"?>
<!DOCTYPE svg PUBLIC "-//W3C//DTD SVG 1.1//EN"
 "http://www.w3.org/Graphics/SVG/1.1/DTD/svg11.dtd">
<!-- Generated by graphviz version 2.43.0 (0)
 -->
<!-- Title: QuantConnect.Securities.Future.FutureMarginModel.GetInitialMarginRequirement Pages: 1 -->
<svg width="374pt" height="50pt"
 viewBox="0.00 0.00 374.00 50.00" xmlns="http://www.w3.org/2000/svg" xmlns:xlink="http://www.w3.org/1999/xlink">
<g id="graph0" class="graph" transform="scale(1 1) rotate(0) translate(4 46)">
<title>QuantConnect.Securities.Future.FutureMarginModel.GetInitialMarginRequirement</title>
<polygon fill="white" stroke="transparent" points="-4,4 -4,-46 370,-46 370,4 -4,4"/>
<!-- Node1 -->
<g id="node1" class="node">
<title>Node1</title>
<g id="a_node1"><a xlink:title="The margin that must be held in order to increase the position by the provided quantity">
<polygon fill="#bfbfbf" stroke="black" points="201,-0.5 201,-41.5 366,-41.5 366,-0.5 201,-0.5"/>
<text text-anchor="start" x="209" y="-29.5" font-family="Helvetica,sans-Serif" font-size="10.00">QuantConnect.Securities.</text>
<text text-anchor="start" x="209" y="-18.5" font-family="Helvetica,sans-Serif" font-size="10.00">Future.FutureMarginModel.Get</text>
<text text-anchor="middle" x="283.5" y="-7.5" font-family="Helvetica,sans-Serif" font-size="10.00">InitialMarginRequirement</text>
</a>
</g>
</g>
<!-- Node2 -->
<g id="node2" class="node">
<title>Node2</title>
<g id="a_node2"><a xlink:href="classQuantConnect_1_1Securities_1_1Future_1_1FutureMarginModel.html#a0cf1fe49d455ede4000c6919e1232405" target="_top" xlink:title="Gets the total margin required to execute the specified order in units of the account currency includ...">
<polygon fill="white" stroke="black" points="0,-0.5 0,-41.5 165,-41.5 165,-0.5 0,-0.5"/>
<text text-anchor="start" x="8" y="-29.5" font-family="Helvetica,sans-Serif" font-size="10.00">QuantConnect.Securities.</text>
<text text-anchor="start" x="8" y="-18.5" font-family="Helvetica,sans-Serif" font-size="10.00">Future.FutureMarginModel.Get</text>
<text text-anchor="middle" x="82.5" y="-7.5" font-family="Helvetica,sans-Serif" font-size="10.00">InitialMarginRequiredForOrder</text>
</a>
</g>
</g>
<!-- Node1&#45;&gt;Node2 -->
<g id="edge1" class="edge">
<title>Node1&#45;&gt;Node2</title>
<path fill="none" stroke="midnightblue" d="M190.96,-21C182.37,-21 173.7,-21 165.21,-21"/>
<polygon fill="midnightblue" stroke="midnightblue" points="190.98,-24.5 200.98,-21 190.98,-17.5 190.98,-24.5"/>
</g>
</g>
</svg>
