<?xml version="1.0" encoding="UTF-8" standalone="no"?>
<!DOCTYPE svg PUBLIC "-//W3C//DTD SVG 1.1//EN"
 "http://www.w3.org/Graphics/SVG/1.1/DTD/svg11.dtd">
<!-- Generated by graphviz version 2.43.0 (0)
 -->
<!-- Title: QuantConnect.Lean.Engine.DataFeeds.SubscriptionData.Create Pages: 1 -->
<!--zoomable 137 -->
<svg id="main" version="1.1" xmlns="http://www.w3.org/2000/svg" xmlns:xlink="http://www.w3.org/1999/xlink" xml:space="preserve" onload="init(evt)">
<style type="text/css"><![CDATA[
.edge:hover path { stroke: red; }
.edge:hover polygon { stroke: red; fill: red; }
]]></style>
<script type="text/javascript"><![CDATA[
var edges = document.getElementsByTagName('g');
if (edges && edges.length) {
  for (var i=0;i<edges.length;i++) {
    if (edges[i].id.substr(0,4)=='edge') {
      edges[i].setAttribute('class','edge');
    }
  }
}
]]></script>
        <defs>
                <circle id="rim" cx="0" cy="0" r="7"/>
                <circle id="rim2" cx="0" cy="0" r="3.5"/>
                <g id="zoomPlus">
                        <use xlink:href="#rim" fill="#404040">
                                <set attributeName="fill" to="#808080" begin="zoomplus.mouseover" end="zoomplus.mouseout"/>
                        </use>
                        <path d="M-4,0h8M0,-4v8" fill="none" stroke="white" stroke-width="1.5" pointer-events="none"/>
                </g>
                <g id="zoomMin">
                        <use xlink:href="#rim" fill="#404040">
                                <set attributeName="fill" to="#808080" begin="zoomminus.mouseover" end="zoomminus.mouseout"/>
                        </use>
                        <path d="M-4,0h8" fill="none" stroke="white" stroke-width="1.5" pointer-events="none"/>
                </g>
                <g id="dirArrow">
                        <path fill="none" stroke="white" stroke-width="1.5" d="M0,-3.0v7 M-2.5,-0.5L0,-3.0L2.5,-0.5"/>
                </g>
               <g id="resetDef">
                       <use xlink:href="#rim2" fill="#404040">
                               <set attributeName="fill" to="#808080" begin="reset.mouseover" end="reset.mouseout"/>
                       </use>
               </g>
        </defs>

<script type="text/javascript">
var viewWidth = 854;
var viewHeight = 137;
var sectionId = 'dynsection-2';
</script>
<script xlink:href="svgpan.js"/>
<svg id="graph" class="graph">
<g id="viewport">
<title>QuantConnect.Lean.Engine.DataFeeds.SubscriptionData.Create</title>
<polygon fill="white" stroke="transparent" points="-4,4 -4,-133 850,-133 850,4 -4,4"/>
<!-- Node1 -->
<g id="node1" class="node">
<title>Node1</title>
<g id="a_node1"><a xlink:title="Clones the data, computes the utc emit time and performs exchange round down behavior,...">
<polygon fill="#bfbfbf" stroke="black" points="0,-49.5 0,-79.5 190,-79.5 190,-49.5 0,-49.5"/>
<text text-anchor="start" x="8" y="-67.5" font-family="Helvetica,sans-Serif" font-size="10.00">QuantConnect.Lean.Engine.</text>
<text text-anchor="middle" x="95" y="-56.5" font-family="Helvetica,sans-Serif" font-size="10.00">DataFeeds.SubscriptionData.Create</text>
</a>
</g>
</g>
<!-- Node2 -->
<g id="node2" class="node">
<title>Node2</title>
<g id="a_node2"><a xlink:href="classQuantConnect_1_1Data_1_1BaseData.html#af8622cdfef34470fda9fd08d2f4c02b7" target="_top" xlink:title="Return a new instance clone of this object, used in fill forward">
<polygon fill="white" stroke="black" points="264,-98.5 264,-128.5 429,-128.5 429,-98.5 264,-98.5"/>
<text text-anchor="start" x="272" y="-116.5" font-family="Helvetica,sans-Serif" font-size="10.00">QuantConnect.Data.BaseData.</text>
<text text-anchor="middle" x="346.5" y="-105.5" font-family="Helvetica,sans-Serif" font-size="10.00">Clone</text>
</a>
</g>
</g>
<!-- Node1&#45;&gt;Node2 -->
<g id="edge1" class="edge">
<title>Node1&#45;&gt;Node2</title>
<path fill="none" stroke="midnightblue" d="M172.55,-79.53C199.98,-84.92 231.07,-91.03 259.25,-96.56"/>
<polygon fill="midnightblue" stroke="midnightblue" points="258.6,-100 269.09,-98.49 259.95,-93.13 258.6,-100"/>
</g>
<!-- Node5 -->
<g id="node5" class="node">
<title>Node5</title>
<g id="a_node5"><a xlink:href="classQuantConnect_1_1TimeZoneOffsetProvider.html#a9d630077c5043b0ed30219686cf60338" target="_top" xlink:title="Converts the specified local time to UTC. This function will advance this offset provider">
<polygon fill="white" stroke="black" points="263,-49.5 263,-79.5 430,-79.5 430,-49.5 263,-49.5"/>
<text text-anchor="start" x="271" y="-67.5" font-family="Helvetica,sans-Serif" font-size="10.00">QuantConnect.TimeZoneOffset</text>
<text text-anchor="middle" x="346.5" y="-56.5" font-family="Helvetica,sans-Serif" font-size="10.00">Provider.ConvertToUtc</text>
</a>
</g>
</g>
<!-- Node1&#45;&gt;Node5 -->
<g id="edge4" class="edge">
<title>Node1&#45;&gt;Node5</title>
<path fill="none" stroke="midnightblue" d="M190.33,-64.5C210.75,-64.5 232.33,-64.5 252.69,-64.5"/>
<polygon fill="midnightblue" stroke="midnightblue" points="252.9,-68 262.9,-64.5 252.9,-61 252.9,-68"/>
</g>
<!-- Node7 -->
<g id="node7" class="node">
<title>Node7</title>
<g id="a_node7"><a xlink:href="classQuantConnect_1_1Lean_1_1Engine_1_1DataFeeds_1_1SubscriptionData.html#a37b6b43caa475f27a3775a3b3241a8de" target="_top" xlink:title="Initializes a new instance of the SubscriptionData class">
<polygon fill="white" stroke="black" points="226,-0.5 226,-30.5 467,-30.5 467,-0.5 226,-0.5"/>
<text text-anchor="start" x="234" y="-18.5" font-family="Helvetica,sans-Serif" font-size="10.00">QuantConnect.Lean.Engine.</text>
<text text-anchor="middle" x="346.5" y="-7.5" font-family="Helvetica,sans-Serif" font-size="10.00">DataFeeds.SubscriptionData.SubscriptionData</text>
</a>
</g>
</g>
<!-- Node1&#45;&gt;Node7 -->
<g id="edge6" class="edge">
<title>Node1&#45;&gt;Node7</title>
<path fill="none" stroke="midnightblue" d="M172.55,-49.47C199.98,-44.08 231.07,-37.97 259.25,-32.44"/>
<polygon fill="midnightblue" stroke="midnightblue" points="259.95,-35.87 269.09,-30.51 258.6,-29 259.95,-35.87"/>
</g>
<!-- Node3 -->
<g id="node3" class="node">
<title>Node3</title>
<g id="a_node3"><a xlink:href="classQuantConnect_1_1Data_1_1BaseData.html#af973f9d8b7c0726fed42fa03ccd5f963" target="_top" xlink:title="Return a new instance clone of this object, used in fill forward">
<polygon fill="white" stroke="black" points="504,-98.5 504,-128.5 669,-128.5 669,-98.5 504,-98.5"/>
<text text-anchor="start" x="512" y="-116.5" font-family="Helvetica,sans-Serif" font-size="10.00">QuantConnect.Data.BaseData.</text>
<text text-anchor="middle" x="586.5" y="-105.5" font-family="Helvetica,sans-Serif" font-size="10.00">Clone</text>
</a>
</g>
</g>
<!-- Node2&#45;&gt;Node3 -->
<g id="edge2" class="edge">
<title>Node2&#45;&gt;Node3</title>
<path fill="none" stroke="midnightblue" d="M429.07,-113.5C449.87,-113.5 472.36,-113.5 493.63,-113.5"/>
<polygon fill="midnightblue" stroke="midnightblue" points="493.63,-117 503.63,-113.5 493.63,-110 493.63,-117"/>
</g>
<!-- Node4 -->
<g id="node4" class="node">
<title>Node4</title>
<g id="a_node4"><a xlink:href="classQuantConnect_1_1Util_1_1ObjectActivator.html#abcd1c91f67b9d78743601743d663cd10" target="_top" xlink:title="Clones the specified instance using reflection">
<polygon fill="white" stroke="black" points="706,-98.5 706,-128.5 846,-128.5 846,-98.5 706,-98.5"/>
<text text-anchor="start" x="714" y="-116.5" font-family="Helvetica,sans-Serif" font-size="10.00">QuantConnect.Util.Object</text>
<text text-anchor="middle" x="776" y="-105.5" font-family="Helvetica,sans-Serif" font-size="10.00">Activator.Clone</text>
</a>
</g>
</g>
<!-- Node3&#45;&gt;Node4 -->
<g id="edge3" class="edge">
<title>Node3&#45;&gt;Node4</title>
<path fill="none" stroke="midnightblue" d="M669.19,-113.5C677.99,-113.5 686.93,-113.5 695.7,-113.5"/>
<polygon fill="midnightblue" stroke="midnightblue" points="695.89,-117 705.89,-113.5 695.89,-110 695.89,-117"/>
</g>
<!-- Node6 -->
<g id="node6" class="node">
<title>Node6</title>
<g id="a_node6"><a xlink:href="classQuantConnect_1_1TimeZoneOffsetProvider.html#a0fa8c04313b1edd87eb5908e7cca1b5a" target="_top" xlink:title="Gets the offset in ticks from this time zone to UTC, such that UTC time + offset = local time">
<polygon fill="white" stroke="black" points="503,-49.5 503,-79.5 670,-79.5 670,-49.5 503,-49.5"/>
<text text-anchor="start" x="511" y="-67.5" font-family="Helvetica,sans-Serif" font-size="10.00">QuantConnect.TimeZoneOffset</text>
<text text-anchor="middle" x="586.5" y="-56.5" font-family="Helvetica,sans-Serif" font-size="10.00">Provider.GetOffsetTicks</text>
</a>
</g>
</g>
<!-- Node5&#45;&gt;Node6 -->
<g id="edge5" class="edge">
<title>Node5&#45;&gt;Node6</title>
<path fill="none" stroke="midnightblue" d="M430.07,-64.5C450.26,-64.5 472,-64.5 492.64,-64.5"/>
<polygon fill="midnightblue" stroke="midnightblue" points="492.67,-68 502.67,-64.5 492.67,-61 492.67,-68"/>
</g>
</g>
</svg>
        <g id="navigator" transform="translate(0 0)" fill="#404254">
                <rect fill="#f2f5e9" fill-opacity="0.5" stroke="#606060" stroke-width=".5" x="0" y="0" width="60" height="60"/>
                <use id="zoomplus" xlink:href="#zoomPlus" x="17" y="9" onmousedown="handleZoom(evt,'in')"/>
                <use id="zoomminus" xlink:href="#zoomMin" x="42" y="9" onmousedown="handleZoom(evt,'out')"/>
                <use id="reset" xlink:href="#resetDef" x="30" y="36" onmousedown="handleReset()"/>
                <g id="arrowUp" xlink:href="#dirArrow" transform="translate(30 24)" onmousedown="handlePan(0,-1)">
                  <use xlink:href="#rim" fill="#404040">
                        <set attributeName="fill" to="#808080" begin="arrowUp.mouseover" end="arrowUp.mouseout"/>
                  </use>
                  <path fill="none" stroke="white" stroke-width="1.5" d="M0,-3.0v7 M-2.5,-0.5L0,-3.0L2.5,-0.5"/>
                </g>
                <g id="arrowRight" xlink:href="#dirArrow" transform="rotate(90) translate(36 -43)" onmousedown="handlePan(1,0)">
                  <use xlink:href="#rim" fill="#404040">
                        <set attributeName="fill" to="#808080" begin="arrowRight.mouseover" end="arrowRight.mouseout"/>
                  </use>
                  <path fill="none" stroke="white" stroke-width="1.5" d="M0,-3.0v7 M-2.5,-0.5L0,-3.0L2.5,-0.5"/>
                </g>
                <g id="arrowDown" xlink:href="#dirArrow" transform="rotate(180) translate(-30 -48)" onmousedown="handlePan(0,1)">
                  <use xlink:href="#rim" fill="#404040">
                        <set attributeName="fill" to="#808080" begin="arrowDown.mouseover" end="arrowDown.mouseout"/>
                  </use>
                  <path fill="none" stroke="white" stroke-width="1.5" d="M0,-3.0v7 M-2.5,-0.5L0,-3.0L2.5,-0.5"/>
                </g>
                <g id="arrowLeft" xlink:href="#dirArrow" transform="rotate(270) translate(-36 17)" onmousedown="handlePan(-1,0)">
                  <use xlink:href="#rim" fill="#404040">
                        <set attributeName="fill" to="#808080" begin="arrowLeft.mouseover" end="arrowLeft.mouseout"/>
                  </use>
                  <path fill="none" stroke="white" stroke-width="1.5" d="M0,-3.0v7 M-2.5,-0.5L0,-3.0L2.5,-0.5"/>
                </g>
        </g>
        <svg viewBox="0 0 15 15" width="100%" height="30px" preserveAspectRatio="xMaxYMin meet">
         <g id="arrow_out" transform="scale(0.3 0.3)">
          <a xlink:href="classQuantConnect_1_1Lean_1_1Engine_1_1DataFeeds_1_1SubscriptionData_af428c63e5ddb26c657ae99caf153db59_cgraph_org.svg" target="_base">
           <rect id="button" ry="5" rx="5" y="6" x="6" height="38" width="38"
                fill="#f2f5e9" fill-opacity="0.5" stroke="#606060" stroke-width="1.0"/>
           <path id="arrow"
             d="M 11.500037,31.436501 C 11.940474,20.09759 22.043105,11.32322 32.158766,21.979434 L 37.068811,17.246167 C 37.068811,17.246167 37.088388,32 37.088388,32 L 22.160133,31.978069 C 22.160133,31.978069 26.997745,27.140456 26.997745,27.140456 C 18.528582,18.264221 13.291696,25.230495 11.500037,31.436501 z"
             style="fill:#404040;"/>
          </a>
         </g>
        </svg>
</svg>
