<?xml version="1.0" encoding="UTF-8" standalone="no"?>
<!DOCTYPE svg PUBLIC "-//W3C//DTD SVG 1.1//EN"
 "http://www.w3.org/Graphics/SVG/1.1/DTD/svg11.dtd">
<!-- Generated by graphviz version 2.43.0 (0)
 -->
<!-- Title: QuantConnect.Orders.Order.FromSerialized Pages: 1 -->
<svg width="397pt" height="39pt"
 viewBox="0.00 0.00 397.00 39.00" xmlns="http://www.w3.org/2000/svg" xmlns:xlink="http://www.w3.org/1999/xlink">
<g id="graph0" class="graph" transform="scale(1 1) rotate(0) translate(4 35)">
<title>QuantConnect.Orders.Order.FromSerialized</title>
<polygon fill="white" stroke="transparent" points="-4,4 -4,-35 393,-35 393,4 -4,4"/>
<!-- Node1 -->
<g id="node1" class="node">
<title>Node1</title>
<g id="a_node1"><a xlink:title="Creates a new Order instance from a SerializedOrder instance">
<polygon fill="#bfbfbf" stroke="black" points="236,-0.5 236,-30.5 389,-30.5 389,-0.5 236,-0.5"/>
<text text-anchor="start" x="244" y="-18.5" font-family="Helvetica,sans-Serif" font-size="10.00">QuantConnect.Orders.Order.</text>
<text text-anchor="middle" x="312.5" y="-7.5" font-family="Helvetica,sans-Serif" font-size="10.00">FromSerialized</text>
</a>
</g>
</g>
<!-- Node2 -->
<g id="node2" class="node">
<title>Node2</title>
<g id="a_node2"><a xlink:href="classQuantConnect_1_1Orders_1_1Serialization_1_1SerializedOrderJsonConverter.html#a6cfaeafcc6f3697d680ed0cf2dfa6a47" target="_top" xlink:title="Converts the input value to be deserialized">
<polygon fill="white" stroke="black" points="0,-0.5 0,-30.5 200,-30.5 200,-0.5 0,-0.5"/>
<text text-anchor="start" x="8" y="-18.5" font-family="Helvetica,sans-Serif" font-size="10.00">QuantConnect.Orders.Serialization.</text>
<text text-anchor="middle" x="100" y="-7.5" font-family="Helvetica,sans-Serif" font-size="10.00">SerializedOrderJsonConverter.Convert</text>
</a>
</g>
</g>
<!-- Node1&#45;&gt;Node2 -->
<g id="edge1" class="edge">
<title>Node1&#45;&gt;Node2</title>
<path fill="none" stroke="midnightblue" d="M225.67,-15.5C217.28,-15.5 208.72,-15.5 200.22,-15.5"/>
<polygon fill="midnightblue" stroke="midnightblue" points="225.8,-19 235.8,-15.5 225.8,-12 225.8,-19"/>
</g>
</g>
</svg>
