<?xml version="1.0" encoding="UTF-8" standalone="no"?>
<!DOCTYPE svg PUBLIC "-//W3C//DTD SVG 1.1//EN"
 "http://www.w3.org/Graphics/SVG/1.1/DTD/svg11.dtd">
<!-- Generated by graphviz version 2.43.0 (0)
 -->
<!-- Title: QuantConnect.Securities.SecurityTransactionManager.SetLiveMode Pages: 1 -->
<svg width="865pt" height="50pt"
 viewBox="0.00 0.00 865.00 50.00" xmlns="http://www.w3.org/2000/svg" xmlns:xlink="http://www.w3.org/1999/xlink">
<g id="graph0" class="graph" transform="scale(1 1) rotate(0) translate(4 46)">
<title>QuantConnect.Securities.SecurityTransactionManager.SetLiveMode</title>
<polygon fill="white" stroke="transparent" points="-4,4 -4,-46 861,-46 861,4 -4,4"/>
<!-- Node1 -->
<g id="node1" class="node">
<title>Node1</title>
<g id="a_node1"><a xlink:title="Set live mode state of the algorithm">
<polygon fill="#bfbfbf" stroke="black" points="684,-0.5 684,-41.5 857,-41.5 857,-0.5 684,-0.5"/>
<text text-anchor="start" x="692" y="-29.5" font-family="Helvetica,sans-Serif" font-size="10.00">QuantConnect.Securities.</text>
<text text-anchor="start" x="692" y="-18.5" font-family="Helvetica,sans-Serif" font-size="10.00">SecurityTransactionManager.Set</text>
<text text-anchor="middle" x="770.5" y="-7.5" font-family="Helvetica,sans-Serif" font-size="10.00">LiveMode</text>
</a>
</g>
</g>
<!-- Node2 -->
<g id="node2" class="node">
<title>Node2</title>
<g id="a_node2"><a xlink:href="classQuantConnect_1_1Algorithm_1_1QCAlgorithm.html#a9901b7d411298d0b1b7ccc480477d99c" target="_top" xlink:title="Set live mode state of the algorithm run: Public setter for the algorithm property LiveMode.">
<polygon fill="white" stroke="black" points="443,-6 443,-36 648,-36 648,-6 443,-6"/>
<text text-anchor="start" x="451" y="-24" font-family="Helvetica,sans-Serif" font-size="10.00">QuantConnect.Algorithm.QCAlgorithm.</text>
<text text-anchor="middle" x="545.5" y="-13" font-family="Helvetica,sans-Serif" font-size="10.00">SetLiveMode</text>
</a>
</g>
</g>
<!-- Node1&#45;&gt;Node2 -->
<g id="edge1" class="edge">
<title>Node1&#45;&gt;Node2</title>
<path fill="none" stroke="midnightblue" d="M673.71,-21C665.29,-21 656.74,-21 648.26,-21"/>
<polygon fill="midnightblue" stroke="midnightblue" points="673.92,-24.5 683.92,-21 673.92,-17.5 673.92,-24.5"/>
</g>
<!-- Node3 -->
<g id="node3" class="node">
<title>Node3</title>
<g id="a_node3"><a xlink:href="classQuantConnect_1_1Algorithm_1_1QCAlgorithm.html#ae26809cf17dd004b076d8cc563862770" target="_top" xlink:title="Sets the algorithm running mode">
<polygon fill="white" stroke="black" points="202,-6 202,-36 407,-36 407,-6 202,-6"/>
<text text-anchor="start" x="210" y="-24" font-family="Helvetica,sans-Serif" font-size="10.00">QuantConnect.Algorithm.QCAlgorithm.</text>
<text text-anchor="middle" x="304.5" y="-13" font-family="Helvetica,sans-Serif" font-size="10.00">SetAlgorithmMode</text>
</a>
</g>
</g>
<!-- Node2&#45;&gt;Node3 -->
<g id="edge2" class="edge">
<title>Node2&#45;&gt;Node3</title>
<path fill="none" stroke="midnightblue" d="M432.78,-21C424.22,-21 415.6,-21 407.11,-21"/>
<polygon fill="midnightblue" stroke="midnightblue" points="432.8,-24.5 442.8,-21 432.8,-17.5 432.8,-24.5"/>
</g>
<!-- Node4 -->
<g id="node4" class="node">
<title>Node4</title>
<g id="a_node4"><a xlink:href="classQuantConnect_1_1Research_1_1QuantBook.html#a239bcca3c726a8cc25b9a6a3cd0c244f" target="_top" xlink:title="QuantBook constructor. Provides access to data for quantitative analysis">
<polygon fill="white" stroke="black" points="0,-6 0,-36 166,-36 166,-6 0,-6"/>
<text text-anchor="start" x="8" y="-24" font-family="Helvetica,sans-Serif" font-size="10.00">QuantConnect.Research.Quant</text>
<text text-anchor="middle" x="83" y="-13" font-family="Helvetica,sans-Serif" font-size="10.00">Book.QuantBook</text>
</a>
</g>
</g>
<!-- Node3&#45;&gt;Node4 -->
<g id="edge3" class="edge">
<title>Node3&#45;&gt;Node4</title>
<path fill="none" stroke="midnightblue" d="M191.73,-21C183.17,-21 174.62,-21 166.3,-21"/>
<polygon fill="midnightblue" stroke="midnightblue" points="191.78,-24.5 201.78,-21 191.78,-17.5 191.78,-24.5"/>
</g>
</g>
</svg>
