<?xml version="1.0" encoding="UTF-8" standalone="no"?>
<!DOCTYPE svg PUBLIC "-//W3C//DTD SVG 1.1//EN"
 "http://www.w3.org/Graphics/SVG/1.1/DTD/svg11.dtd">
<!-- Generated by graphviz version 2.43.0 (0)
 -->
<!-- Title: QuantConnect.Data.UniverseSelection.UniverseDecorator.SelectSymbols Pages: 1 -->
<svg width="415pt" height="50pt"
 viewBox="0.00 0.00 415.00 50.00" xmlns="http://www.w3.org/2000/svg" xmlns:xlink="http://www.w3.org/1999/xlink">
<g id="graph0" class="graph" transform="scale(1 1) rotate(0) translate(4 46)">
<title>QuantConnect.Data.UniverseSelection.UniverseDecorator.SelectSymbols</title>
<polygon fill="white" stroke="transparent" points="-4,4 -4,-46 411,-46 411,4 -4,4"/>
<!-- Node1 -->
<g id="node1" class="node">
<title>Node1</title>
<g id="a_node1"><a xlink:title="Performs universe selection using the data specified">
<polygon fill="#bfbfbf" stroke="black" points="0,-0.5 0,-41.5 188,-41.5 188,-0.5 0,-0.5"/>
<text text-anchor="start" x="8" y="-29.5" font-family="Helvetica,sans-Serif" font-size="10.00">QuantConnect.Data.Universe</text>
<text text-anchor="start" x="8" y="-18.5" font-family="Helvetica,sans-Serif" font-size="10.00">Selection.UniverseDecorator.Select</text>
<text text-anchor="middle" x="94" y="-7.5" font-family="Helvetica,sans-Serif" font-size="10.00">Symbols</text>
</a>
</g>
</g>
<!-- Node2 -->
<g id="node2" class="node">
<title>Node2</title>
<g id="a_node2"><a xlink:href="classQuantConnect_1_1Data_1_1UniverseSelection_1_1Universe.html#abe22506a629447a0182d69dbc98c8644" target="_top" xlink:title="Performs universe selection using the data specified">
<polygon fill="white" stroke="black" points="224,-6 224,-36 407,-36 407,-6 224,-6"/>
<text text-anchor="start" x="232" y="-24" font-family="Helvetica,sans-Serif" font-size="10.00">QuantConnect.Data.Universe</text>
<text text-anchor="middle" x="315.5" y="-13" font-family="Helvetica,sans-Serif" font-size="10.00">Selection.Universe.SelectSymbols</text>
</a>
</g>
</g>
<!-- Node1&#45;&gt;Node2 -->
<g id="edge1" class="edge">
<title>Node1&#45;&gt;Node2</title>
<path fill="none" stroke="midnightblue" d="M188.09,-21C196.48,-21 205,-21 213.45,-21"/>
<polygon fill="midnightblue" stroke="midnightblue" points="213.72,-24.5 223.72,-21 213.72,-17.5 213.72,-24.5"/>
</g>
</g>
</svg>
