<?xml version="1.0" encoding="UTF-8" standalone="no"?>
<!DOCTYPE svg PUBLIC "-//W3C//DTD SVG 1.1//EN"
 "http://www.w3.org/Graphics/SVG/1.1/DTD/svg11.dtd">
<!-- Generated by graphviz version 2.43.0 (0)
 -->
<!-- Title: QuantConnect.Messaging.StreamingMessageHandler.Transmit Pages: 1 -->
<svg width="432pt" height="88pt"
 viewBox="0.00 0.00 432.00 88.00" xmlns="http://www.w3.org/2000/svg" xmlns:xlink="http://www.w3.org/1999/xlink">
<g id="graph0" class="graph" transform="scale(1 1) rotate(0) translate(4 84)">
<title>QuantConnect.Messaging.StreamingMessageHandler.Transmit</title>
<polygon fill="white" stroke="transparent" points="-4,4 -4,-84 428,-84 428,4 -4,4"/>
<!-- Node1 -->
<g id="node1" class="node">
<title>Node1</title>
<g id="a_node1"><a xlink:title="Send a message to the _server using ZeroMQ">
<polygon fill="#bfbfbf" stroke="black" points="230,-24.5 230,-54.5 424,-54.5 424,-24.5 230,-24.5"/>
<text text-anchor="start" x="238" y="-42.5" font-family="Helvetica,sans-Serif" font-size="10.00">QuantConnect.Messaging.Streaming</text>
<text text-anchor="middle" x="327" y="-31.5" font-family="Helvetica,sans-Serif" font-size="10.00">MessageHandler.Transmit</text>
</a>
</g>
</g>
<!-- Node2 -->
<g id="node2" class="node">
<title>Node2</title>
<g id="a_node2"><a xlink:href="classQuantConnect_1_1Messaging_1_1StreamingMessageHandler.html#a6cf527335b8bd4cbfc6c16ecb5b3d966" target="_top" xlink:title="Send all types of packets">
<polygon fill="white" stroke="black" points="0,-49.5 0,-79.5 194,-79.5 194,-49.5 0,-49.5"/>
<text text-anchor="start" x="8" y="-67.5" font-family="Helvetica,sans-Serif" font-size="10.00">QuantConnect.Messaging.Streaming</text>
<text text-anchor="middle" x="97" y="-56.5" font-family="Helvetica,sans-Serif" font-size="10.00">MessageHandler.Send</text>
</a>
</g>
</g>
<!-- Node1&#45;&gt;Node2 -->
<g id="edge1" class="edge">
<title>Node1&#45;&gt;Node2</title>
<path fill="none" stroke="midnightblue" d="M219.96,-51.13C211.4,-52.07 202.77,-53.01 194.29,-53.94"/>
<polygon fill="midnightblue" stroke="midnightblue" points="220.41,-54.6 229.97,-50.03 219.65,-47.64 220.41,-54.6"/>
</g>
<!-- Node3 -->
<g id="node3" class="node">
<title>Node3</title>
<g id="a_node3"><a xlink:href="classQuantConnect_1_1Messaging_1_1StreamingMessageHandler.html#ab33f6b053b73b2124e95a387ce667bd3" target="_top" xlink:title="Set the user communication channel">
<polygon fill="white" stroke="black" points="0,-0.5 0,-30.5 194,-30.5 194,-0.5 0,-0.5"/>
<text text-anchor="start" x="8" y="-18.5" font-family="Helvetica,sans-Serif" font-size="10.00">QuantConnect.Messaging.Streaming</text>
<text text-anchor="middle" x="97" y="-7.5" font-family="Helvetica,sans-Serif" font-size="10.00">MessageHandler.SetAuthentication</text>
</a>
</g>
</g>
<!-- Node1&#45;&gt;Node3 -->
<g id="edge2" class="edge">
<title>Node1&#45;&gt;Node3</title>
<path fill="none" stroke="midnightblue" d="M219.96,-28.34C211.4,-27.44 202.77,-26.53 194.29,-25.64"/>
<polygon fill="midnightblue" stroke="midnightblue" points="219.66,-31.83 229.97,-29.39 220.39,-24.86 219.66,-31.83"/>
</g>
</g>
</svg>
