<?xml version="1.0" encoding="UTF-8" standalone="no"?>
<!DOCTYPE svg PUBLIC "-//W3C//DTD SVG 1.1//EN"
 "http://www.w3.org/Graphics/SVG/1.1/DTD/svg11.dtd">
<!-- Generated by graphviz version 2.43.0 (0)
 -->
<!-- Title: QuantConnect.Algorithm.QCAlgorithm.A Pages: 1 -->
<svg width="461pt" height="88pt"
 viewBox="0.00 0.00 461.00 88.00" xmlns="http://www.w3.org/2000/svg" xmlns:xlink="http://www.w3.org/1999/xlink">
<g id="graph0" class="graph" transform="scale(1 1) rotate(0) translate(4 84)">
<title>QuantConnect.Algorithm.QCAlgorithm.A</title>
<polygon fill="white" stroke="transparent" points="-4,4 -4,-84 457,-84 457,4 -4,4"/>
<!-- Node1 -->
<g id="node1" class="node">
<title>Node1</title>
<g id="a_node1"><a xlink:title="Creates a Alpha indicator for the given target symbol in relation with the reference used....">
<polygon fill="#bfbfbf" stroke="black" points="0,-30 0,-49 212,-49 212,-30 0,-30"/>
<text text-anchor="middle" x="106" y="-37" font-family="Helvetica,sans-Serif" font-size="10.00">QuantConnect.Algorithm.QCAlgorithm.A</text>
</a>
</g>
</g>
<!-- Node2 -->
<g id="node2" class="node">
<title>Node2</title>
<g id="a_node2"><a xlink:href="classQuantConnect_1_1Algorithm_1_1QCAlgorithm.html#a46d89a30b7e0513cf7a4ac77f3ca3fe5" target="_top" xlink:title="Creates a new name for an indicator created with the convenience functions (SMA, EMA,...">
<polygon fill="white" stroke="black" points="248,-49.5 248,-79.5 453,-79.5 453,-49.5 248,-49.5"/>
<text text-anchor="start" x="256" y="-67.5" font-family="Helvetica,sans-Serif" font-size="10.00">QuantConnect.Algorithm.QCAlgorithm.</text>
<text text-anchor="middle" x="350.5" y="-56.5" font-family="Helvetica,sans-Serif" font-size="10.00">CreateIndicatorName</text>
</a>
</g>
</g>
<!-- Node1&#45;&gt;Node2 -->
<g id="edge1" class="edge">
<title>Node1&#45;&gt;Node2</title>
<path fill="none" stroke="midnightblue" d="M199.37,-49.02C211.83,-50.31 224.73,-51.64 237.49,-52.95"/>
<polygon fill="midnightblue" stroke="midnightblue" points="237.37,-56.46 247.68,-54 238.09,-49.5 237.37,-56.46"/>
</g>
<!-- Node3 -->
<g id="node3" class="node">
<title>Node3</title>
<g id="a_node3"><a xlink:href="interfaceQuantConnect_1_1Data_1_1IRiskFreeInterestRateModel.html#aa7dfabf2595f0e70086b46c699983232" target="_top" xlink:title="Get interest rate by a given date">
<polygon fill="white" stroke="black" points="257,-0.5 257,-30.5 444,-30.5 444,-0.5 257,-0.5"/>
<text text-anchor="start" x="265" y="-18.5" font-family="Helvetica,sans-Serif" font-size="10.00">QuantConnect.Data.IRiskFree</text>
<text text-anchor="middle" x="350.5" y="-7.5" font-family="Helvetica,sans-Serif" font-size="10.00">InterestRateModel.GetInterestRate</text>
</a>
</g>
</g>
<!-- Node1&#45;&gt;Node3 -->
<g id="edge2" class="edge">
<title>Node1&#45;&gt;Node3</title>
<path fill="none" stroke="midnightblue" d="M203.19,-29.98C217.59,-28.56 232.48,-27.08 247,-25.64"/>
<polygon fill="midnightblue" stroke="midnightblue" points="247.38,-29.12 256.98,-24.66 246.69,-22.16 247.38,-29.12"/>
</g>
</g>
</svg>
