<?xml version="1.0" encoding="UTF-8" standalone="no"?>
<!DOCTYPE svg PUBLIC "-//W3C//DTD SVG 1.1//EN"
 "http://www.w3.org/Graphics/SVG/1.1/DTD/svg11.dtd">
<!-- Generated by graphviz version 2.43.0 (0)
 -->
<!-- Title: QuantConnect.Securities.MarketHoursDatabase.GetExchangeHours Pages: 1 -->
<!--zoomable 280 -->
<svg id="main" version="1.1" xmlns="http://www.w3.org/2000/svg" xmlns:xlink="http://www.w3.org/1999/xlink" xml:space="preserve" onload="init(evt)">
<style type="text/css"><![CDATA[
.edge:hover path { stroke: red; }
.edge:hover polygon { stroke: red; fill: red; }
]]></style>
<script type="text/javascript"><![CDATA[
var edges = document.getElementsByTagName('g');
if (edges && edges.length) {
  for (var i=0;i<edges.length;i++) {
    if (edges[i].id.substr(0,4)=='edge') {
      edges[i].setAttribute('class','edge');
    }
  }
}
]]></script>
        <defs>
                <circle id="rim" cx="0" cy="0" r="7"/>
                <circle id="rim2" cx="0" cy="0" r="3.5"/>
                <g id="zoomPlus">
                        <use xlink:href="#rim" fill="#404040">
                                <set attributeName="fill" to="#808080" begin="zoomplus.mouseover" end="zoomplus.mouseout"/>
                        </use>
                        <path d="M-4,0h8M0,-4v8" fill="none" stroke="white" stroke-width="1.5" pointer-events="none"/>
                </g>
                <g id="zoomMin">
                        <use xlink:href="#rim" fill="#404040">
                                <set attributeName="fill" to="#808080" begin="zoomminus.mouseover" end="zoomminus.mouseout"/>
                        </use>
                        <path d="M-4,0h8" fill="none" stroke="white" stroke-width="1.5" pointer-events="none"/>
                </g>
                <g id="dirArrow">
                        <path fill="none" stroke="white" stroke-width="1.5" d="M0,-3.0v7 M-2.5,-0.5L0,-3.0L2.5,-0.5"/>
                </g>
               <g id="resetDef">
                       <use xlink:href="#rim2" fill="#404040">
                               <set attributeName="fill" to="#808080" begin="reset.mouseover" end="reset.mouseout"/>
                       </use>
               </g>
        </defs>

<script type="text/javascript">
var viewWidth = 1015;
var viewHeight = 280;
var sectionId = 'dynsection-0';
</script>
<script xlink:href="svgpan.js"/>
<svg id="graph" class="graph">
<g id="viewport">
<title>QuantConnect.Securities.MarketHoursDatabase.GetExchangeHours</title>
<polygon fill="white" stroke="transparent" points="-4,4 -4,-276 1011,-276 1011,4 -4,4"/>
<!-- Node1 -->
<g id="node1" class="node">
<title>Node1</title>
<g id="a_node1"><a xlink:title="Convenience method for retrieving exchange hours from market hours database using a subscription conf...">
<polygon fill="#bfbfbf" stroke="black" points="786,-126 786,-156 1007,-156 1007,-126 786,-126"/>
<text text-anchor="start" x="794" y="-144" font-family="Helvetica,sans-Serif" font-size="10.00">QuantConnect.Securities.</text>
<text text-anchor="middle" x="896.5" y="-133" font-family="Helvetica,sans-Serif" font-size="10.00">MarketHoursDatabase.GetExchangeHours</text>
</a>
</g>
</g>
<!-- Node2 -->
<g id="node2" class="node">
<title>Node2</title>
<g id="a_node2"><a xlink:href="classQuantConnect_1_1Data_1_1UniverseSelection_1_1UserDefinedUniverse.html#a6193d37dd943825ea559d77840a10178" target="_top" xlink:title="Returns an enumerator that defines when this user defined universe will be invoked">
<polygon fill="white" stroke="black" points="560,-230.5 560,-271.5 731,-271.5 731,-230.5 560,-230.5"/>
<text text-anchor="start" x="568" y="-259.5" font-family="Helvetica,sans-Serif" font-size="10.00">QuantConnect.Data.Universe</text>
<text text-anchor="start" x="568" y="-248.5" font-family="Helvetica,sans-Serif" font-size="10.00">Selection.UserDefinedUniverse.</text>
<text text-anchor="middle" x="645.5" y="-237.5" font-family="Helvetica,sans-Serif" font-size="10.00">GetTriggerTimes</text>
</a>
</g>
</g>
<!-- Node1&#45;&gt;Node2 -->
<g id="edge1" class="edge">
<title>Node1&#45;&gt;Node2</title>
<path fill="none" stroke="midnightblue" d="M862.79,-161.73C833.96,-179.32 790.38,-204.29 750,-221 741.79,-224.4 733.06,-227.57 724.29,-230.48"/>
<polygon fill="midnightblue" stroke="midnightblue" points="864.93,-164.52 871.6,-156.29 861.25,-158.56 864.93,-164.52"/>
</g>
<!-- Node3 -->
<g id="node3" class="node">
<title>Node3</title>
<g id="a_node3"><a xlink:href="classQuantConnect_1_1Extensions.html#afb55d4519a8fd894c121e9b27b8473f1" target="_top" xlink:title="Helper method to determine if a specific market is open">
<polygon fill="white" stroke="black" points="573,-181 573,-211 718,-211 718,-181 573,-181"/>
<text text-anchor="start" x="581" y="-199" font-family="Helvetica,sans-Serif" font-size="10.00">QuantConnect.Extensions.</text>
<text text-anchor="middle" x="645.5" y="-188" font-family="Helvetica,sans-Serif" font-size="10.00">IsMarketOpen</text>
</a>
</g>
</g>
<!-- Node1&#45;&gt;Node3 -->
<g id="edge2" class="edge">
<title>Node1&#45;&gt;Node3</title>
<path fill="none" stroke="midnightblue" d="M817.39,-158.25C784.38,-165.55 746.29,-173.96 714.46,-180.99"/>
<polygon fill="midnightblue" stroke="midnightblue" points="818.45,-161.6 827.46,-156.03 816.94,-154.77 818.45,-161.6"/>
</g>
<!-- Node4 -->
<g id="node4" class="node">
<title>Node4</title>
<g id="a_node4"><a xlink:href="classQuantConnect_1_1Securities_1_1Option_1_1OptionSymbol.html#a6ef1782fdc060c6057dab1304d6507b0" target="_top" xlink:title="Returns true if the option contract is expired at the specified time">
<polygon fill="white" stroke="black" points="563.5,-120.5 563.5,-161.5 727.5,-161.5 727.5,-120.5 563.5,-120.5"/>
<text text-anchor="start" x="571.5" y="-149.5" font-family="Helvetica,sans-Serif" font-size="10.00">QuantConnect.Securities.</text>
<text text-anchor="start" x="571.5" y="-138.5" font-family="Helvetica,sans-Serif" font-size="10.00">Option.OptionSymbol.IsOption</text>
<text text-anchor="middle" x="645.5" y="-127.5" font-family="Helvetica,sans-Serif" font-size="10.00">ContractExpired</text>
</a>
</g>
</g>
<!-- Node1&#45;&gt;Node4 -->
<g id="edge3" class="edge">
<title>Node1&#45;&gt;Node4</title>
<path fill="none" stroke="midnightblue" d="M775.8,-141C759.5,-141 743.08,-141 727.68,-141"/>
<polygon fill="midnightblue" stroke="midnightblue" points="775.92,-144.5 785.92,-141 775.92,-137.5 775.92,-144.5"/>
</g>
<!-- Node5 -->
<g id="node5" class="node">
<title>Node5</title>
<g id="a_node5"><a xlink:href="classQuantConnect_1_1ToolBox_1_1RandomDataGenerator_1_1TickGenerator.html#a2eb293d4c6e4819a58f571c0880e3b43" target="_top" xlink:title="Generates a random DateTime suitable for use as a tick&#39;s emit time. If the density provided is DataDe...">
<polygon fill="white" stroke="black" points="553,-60.5 553,-101.5 738,-101.5 738,-60.5 553,-60.5"/>
<text text-anchor="start" x="561" y="-89.5" font-family="Helvetica,sans-Serif" font-size="10.00">QuantConnect.ToolBox.Random</text>
<text text-anchor="start" x="561" y="-78.5" font-family="Helvetica,sans-Serif" font-size="10.00">DataGenerator.TickGenerator.Next</text>
<text text-anchor="middle" x="645.5" y="-67.5" font-family="Helvetica,sans-Serif" font-size="10.00">TickTime</text>
</a>
</g>
</g>
<!-- Node1&#45;&gt;Node5 -->
<g id="edge4" class="edge">
<title>Node1&#45;&gt;Node5</title>
<path fill="none" stroke="midnightblue" d="M823.07,-123.55C794.45,-116.65 761.37,-108.68 731.62,-101.51"/>
<polygon fill="midnightblue" stroke="midnightblue" points="822.45,-127 832.99,-125.94 824.09,-120.19 822.45,-127"/>
</g>
<!-- Node7 -->
<g id="node7" class="node">
<title>Node7</title>
<g id="a_node7"><a xlink:href="classQuantConnect_1_1Lean_1_1Engine_1_1RealTime_1_1LiveTradingRealTimeHandler.html#ab9e18aae7146f61b52dc8fb136414915" target="_top" xlink:title="Updates the market hours for the specified security.">
<polygon fill="white" stroke="black" points="541,-0.5 541,-41.5 750,-41.5 750,-0.5 541,-0.5"/>
<text text-anchor="start" x="549" y="-29.5" font-family="Helvetica,sans-Serif" font-size="10.00">QuantConnect.Lean.Engine.</text>
<text text-anchor="start" x="549" y="-18.5" font-family="Helvetica,sans-Serif" font-size="10.00">RealTime.LiveTradingRealTimeHandler.</text>
<text text-anchor="middle" x="645.5" y="-7.5" font-family="Helvetica,sans-Serif" font-size="10.00">UpdateMarketHours</text>
</a>
</g>
</g>
<!-- Node1&#45;&gt;Node7 -->
<g id="edge6" class="edge">
<title>Node1&#45;&gt;Node7</title>
<path fill="none" stroke="midnightblue" d="M866.54,-119.79C838.08,-99.75 792.8,-70.01 750,-51 742.31,-47.58 734.12,-44.44 725.85,-41.58"/>
<polygon fill="midnightblue" stroke="midnightblue" points="864.64,-122.73 874.82,-125.67 868.7,-117.02 864.64,-122.73"/>
</g>
<!-- Node6 -->
<g id="node6" class="node">
<title>Node6</title>
<g id="a_node6"><a xlink:href="classQuantConnect_1_1ToolBox_1_1RandomDataGenerator_1_1TickGenerator.html#a0b9b8cf4ffe26b9bfd7976671b9e3ddb" target="_top" xlink:title="Generates and enumerates data points for current symbol">
<polygon fill="white" stroke="black" points="272,-66 272,-96 505,-96 505,-66 272,-66"/>
<text text-anchor="start" x="280" y="-84" font-family="Helvetica,sans-Serif" font-size="10.00">QuantConnect.ToolBox.Random</text>
<text text-anchor="middle" x="388.5" y="-73" font-family="Helvetica,sans-Serif" font-size="10.00">DataGenerator.TickGenerator.GenerateTicks</text>
</a>
</g>
</g>
<!-- Node5&#45;&gt;Node6 -->
<g id="edge5" class="edge">
<title>Node5&#45;&gt;Node6</title>
<path fill="none" stroke="midnightblue" d="M542.58,-81C530.31,-81 517.71,-81 505.26,-81"/>
<polygon fill="midnightblue" stroke="midnightblue" points="542.8,-84.5 552.8,-81 542.8,-77.5 542.8,-84.5"/>
</g>
<!-- Node8 -->
<g id="node8" class="node">
<title>Node8</title>
<g id="a_node8"><a xlink:href="classQuantConnect_1_1Lean_1_1Engine_1_1RealTime_1_1LiveTradingRealTimeHandler.html#a51442cfa23877834a03e10bb21a7a5a9" target="_top" xlink:title="Refresh the market hours for each security in the given date">
<polygon fill="white" stroke="black" points="284,-0.5 284,-41.5 493,-41.5 493,-0.5 284,-0.5"/>
<text text-anchor="start" x="292" y="-29.5" font-family="Helvetica,sans-Serif" font-size="10.00">QuantConnect.Lean.Engine.</text>
<text text-anchor="start" x="292" y="-18.5" font-family="Helvetica,sans-Serif" font-size="10.00">RealTime.LiveTradingRealTimeHandler.</text>
<text text-anchor="middle" x="388.5" y="-7.5" font-family="Helvetica,sans-Serif" font-size="10.00">RefreshMarketHoursToday</text>
</a>
</g>
</g>
<!-- Node7&#45;&gt;Node8 -->
<g id="edge7" class="edge">
<title>Node7&#45;&gt;Node8</title>
<path fill="none" stroke="midnightblue" d="M530.78,-21C518.24,-21 505.53,-21 493.13,-21"/>
<polygon fill="midnightblue" stroke="midnightblue" points="530.78,-24.5 540.78,-21 530.78,-17.5 530.78,-24.5"/>
</g>
<!-- Node9 -->
<g id="node9" class="node">
<title>Node9</title>
<g id="a_node9"><a xlink:href="classQuantConnect_1_1Lean_1_1Engine_1_1RealTime_1_1LiveTradingRealTimeHandler.html#a1b3eae56614996b86125cbd7c28cbe42" target="_top" xlink:title="Initializes the real time handler for the specified algorithm and job">
<polygon fill="white" stroke="black" points="0,-6 0,-36 236,-36 236,-6 0,-6"/>
<text text-anchor="start" x="8" y="-24" font-family="Helvetica,sans-Serif" font-size="10.00">QuantConnect.Lean.Engine.</text>
<text text-anchor="middle" x="118" y="-13" font-family="Helvetica,sans-Serif" font-size="10.00">RealTime.LiveTradingRealTimeHandler.Setup</text>
</a>
</g>
</g>
<!-- Node8&#45;&gt;Node9 -->
<g id="edge8" class="edge">
<title>Node8&#45;&gt;Node9</title>
<path fill="none" stroke="midnightblue" d="M273.45,-21C261.18,-21 248.68,-21 236.38,-21"/>
<polygon fill="midnightblue" stroke="midnightblue" points="273.69,-24.5 283.69,-21 273.69,-17.5 273.69,-24.5"/>
</g>
</g>
</svg>
        <g id="navigator" transform="translate(0 0)" fill="#404254">
                <rect fill="#f2f5e9" fill-opacity="0.5" stroke="#606060" stroke-width=".5" x="0" y="0" width="60" height="60"/>
                <use id="zoomplus" xlink:href="#zoomPlus" x="17" y="9" onmousedown="handleZoom(evt,'in')"/>
                <use id="zoomminus" xlink:href="#zoomMin" x="42" y="9" onmousedown="handleZoom(evt,'out')"/>
                <use id="reset" xlink:href="#resetDef" x="30" y="36" onmousedown="handleReset()"/>
                <g id="arrowUp" xlink:href="#dirArrow" transform="translate(30 24)" onmousedown="handlePan(0,-1)">
                  <use xlink:href="#rim" fill="#404040">
                        <set attributeName="fill" to="#808080" begin="arrowUp.mouseover" end="arrowUp.mouseout"/>
                  </use>
                  <path fill="none" stroke="white" stroke-width="1.5" d="M0,-3.0v7 M-2.5,-0.5L0,-3.0L2.5,-0.5"/>
                </g>
                <g id="arrowRight" xlink:href="#dirArrow" transform="rotate(90) translate(36 -43)" onmousedown="handlePan(1,0)">
                  <use xlink:href="#rim" fill="#404040">
                        <set attributeName="fill" to="#808080" begin="arrowRight.mouseover" end="arrowRight.mouseout"/>
                  </use>
                  <path fill="none" stroke="white" stroke-width="1.5" d="M0,-3.0v7 M-2.5,-0.5L0,-3.0L2.5,-0.5"/>
                </g>
                <g id="arrowDown" xlink:href="#dirArrow" transform="rotate(180) translate(-30 -48)" onmousedown="handlePan(0,1)">
                  <use xlink:href="#rim" fill="#404040">
                        <set attributeName="fill" to="#808080" begin="arrowDown.mouseover" end="arrowDown.mouseout"/>
                  </use>
                  <path fill="none" stroke="white" stroke-width="1.5" d="M0,-3.0v7 M-2.5,-0.5L0,-3.0L2.5,-0.5"/>
                </g>
                <g id="arrowLeft" xlink:href="#dirArrow" transform="rotate(270) translate(-36 17)" onmousedown="handlePan(-1,0)">
                  <use xlink:href="#rim" fill="#404040">
                        <set attributeName="fill" to="#808080" begin="arrowLeft.mouseover" end="arrowLeft.mouseout"/>
                  </use>
                  <path fill="none" stroke="white" stroke-width="1.5" d="M0,-3.0v7 M-2.5,-0.5L0,-3.0L2.5,-0.5"/>
                </g>
        </g>
        <svg viewBox="0 0 15 15" width="100%" height="30px" preserveAspectRatio="xMaxYMin meet">
         <g id="arrow_out" transform="scale(0.3 0.3)">
          <a xlink:href="classQuantConnect_1_1Securities_1_1MarketHoursDatabase_ab10d5242b6fcbe4d9f7aacd800e0efea_icgraph_org.svg" target="_base">
           <rect id="button" ry="5" rx="5" y="6" x="6" height="38" width="38"
                fill="#f2f5e9" fill-opacity="0.5" stroke="#606060" stroke-width="1.0"/>
           <path id="arrow"
             d="M 11.500037,31.436501 C 11.940474,20.09759 22.043105,11.32322 32.158766,21.979434 L 37.068811,17.246167 C 37.068811,17.246167 37.088388,32 37.088388,32 L 22.160133,31.978069 C 22.160133,31.978069 26.997745,27.140456 26.997745,27.140456 C 18.528582,18.264221 13.291696,25.230495 11.500037,31.436501 z"
             style="fill:#404040;"/>
          </a>
         </g>
        </svg>
</svg>
