<?xml version="1.0" encoding="UTF-8" standalone="no"?>
<!DOCTYPE svg PUBLIC "-//W3C//DTD SVG 1.1//EN"
 "http://www.w3.org/Graphics/SVG/1.1/DTD/svg11.dtd">
<!-- Generated by graphviz version 2.43.0 (0)
 -->
<!-- Title: QuantConnect.Securities.SecurityTransactionManager.AddOrder Pages: 1 -->
<svg width="838pt" height="198pt"
 viewBox="0.00 0.00 838.00 197.50" xmlns="http://www.w3.org/2000/svg" xmlns:xlink="http://www.w3.org/1999/xlink">
<g id="graph0" class="graph" transform="scale(1 1) rotate(0) translate(4 193.5)">
<title>QuantConnect.Securities.SecurityTransactionManager.AddOrder</title>
<polygon fill="white" stroke="transparent" points="-4,4 -4,-193.5 834,-193.5 834,4 -4,4"/>
<!-- Node1 -->
<g id="node1" class="node">
<title>Node1</title>
<g id="a_node1"><a xlink:title="Add an order to collection and return the unique order id or negative if an error.">
<polygon fill="#bfbfbf" stroke="black" points="0,-73.5 0,-103.5 203,-103.5 203,-73.5 0,-73.5"/>
<text text-anchor="start" x="8" y="-91.5" font-family="Helvetica,sans-Serif" font-size="10.00">QuantConnect.Securities.</text>
<text text-anchor="middle" x="101.5" y="-80.5" font-family="Helvetica,sans-Serif" font-size="10.00">SecurityTransactionManager.AddOrder</text>
</a>
</g>
</g>
<!-- Node2 -->
<g id="node2" class="node">
<title>Node2</title>
<g id="a_node2"><a xlink:href="classQuantConnect_1_1Securities_1_1SecurityTransactionManager.html#a136cdc31b644e087e48f4f986e8c064b" target="_top" xlink:title="Processes the order request">
<polygon fill="white" stroke="black" points="239,-68 239,-109 433,-109 433,-68 239,-68"/>
<text text-anchor="start" x="247" y="-97" font-family="Helvetica,sans-Serif" font-size="10.00">QuantConnect.Securities.</text>
<text text-anchor="start" x="247" y="-86" font-family="Helvetica,sans-Serif" font-size="10.00">SecurityTransactionManager.Process</text>
<text text-anchor="middle" x="336" y="-75" font-family="Helvetica,sans-Serif" font-size="10.00">Request</text>
</a>
</g>
</g>
<!-- Node1&#45;&gt;Node2 -->
<g id="edge1" class="edge">
<title>Node1&#45;&gt;Node2</title>
<path fill="none" stroke="midnightblue" d="M203.13,-88.5C211.68,-88.5 220.35,-88.5 228.95,-88.5"/>
<polygon fill="midnightblue" stroke="midnightblue" points="229,-92 239,-88.5 229,-85 229,-92"/>
</g>
<!-- Node3 -->
<g id="node3" class="node">
<title>Node3</title>
<g id="a_node3"><a xlink:href="classQuantConnect_1_1Securities_1_1SecurityTransactionManager.html#a470623a731aa5e8e241518af157c9ffe" target="_top" xlink:title="Get a new order id, and increment the internal counter.">
<polygon fill="white" stroke="black" points="469,-148 469,-189 643,-189 643,-148 469,-148"/>
<text text-anchor="start" x="477" y="-177" font-family="Helvetica,sans-Serif" font-size="10.00">QuantConnect.Securities.</text>
<text text-anchor="start" x="477" y="-166" font-family="Helvetica,sans-Serif" font-size="10.00">SecurityTransactionManager.Get</text>
<text text-anchor="middle" x="556" y="-155" font-family="Helvetica,sans-Serif" font-size="10.00">IncrementOrderId</text>
</a>
</g>
</g>
<!-- Node2&#45;&gt;Node3 -->
<g id="edge2" class="edge">
<title>Node2&#45;&gt;Node3</title>
<path fill="none" stroke="midnightblue" d="M390.19,-109.01C414.21,-118.18 442.98,-129.03 469,-138.5 474.43,-140.47 480.05,-142.49 485.72,-144.51"/>
<polygon fill="midnightblue" stroke="midnightblue" points="484.65,-147.85 495.25,-147.88 486.99,-141.25 484.65,-147.85"/>
</g>
<!-- Node4 -->
<g id="node4" class="node">
<title>Node4</title>
<g id="a_node4"><a xlink:href="interfaceQuantConnect_1_1Securities_1_1IOrderProcessor.html#a153e85c4defb70ea096de8e35c340f4e" target="_top" xlink:title="Adds the specified order to be processed">
<polygon fill="white" stroke="black" points="486,-98.5 486,-128.5 626,-128.5 626,-98.5 486,-98.5"/>
<text text-anchor="start" x="494" y="-116.5" font-family="Helvetica,sans-Serif" font-size="10.00">QuantConnect.Securities.</text>
<text text-anchor="middle" x="556" y="-105.5" font-family="Helvetica,sans-Serif" font-size="10.00">IOrderProcessor.Process</text>
</a>
</g>
</g>
<!-- Node2&#45;&gt;Node4 -->
<g id="edge3" class="edge">
<title>Node2&#45;&gt;Node4</title>
<path fill="none" stroke="midnightblue" d="M433.25,-99.54C447.34,-101.15 461.72,-102.8 475.42,-104.37"/>
<polygon fill="midnightblue" stroke="midnightblue" points="475.42,-107.9 485.76,-105.56 476.22,-100.94 475.42,-107.9"/>
</g>
<!-- Node5 -->
<g id="node5" class="node">
<title>Node5</title>
<g id="a_node5"><a xlink:href="classQuantConnect_1_1Orders_1_1OrderResponse.html#aee85b2e31d5c1887ec0cfa15568777c9" target="_top" xlink:title="Returns a string that represents the current object.">
<polygon fill="white" stroke="black" points="480.5,-49.5 480.5,-79.5 631.5,-79.5 631.5,-49.5 480.5,-49.5"/>
<text text-anchor="start" x="488.5" y="-67.5" font-family="Helvetica,sans-Serif" font-size="10.00">QuantConnect.Orders.Order</text>
<text text-anchor="middle" x="556" y="-56.5" font-family="Helvetica,sans-Serif" font-size="10.00">Response.ToString</text>
</a>
</g>
</g>
<!-- Node2&#45;&gt;Node5 -->
<g id="edge4" class="edge">
<title>Node2&#45;&gt;Node5</title>
<path fill="none" stroke="midnightblue" d="M433.25,-77.9C445.55,-76.55 458.07,-75.17 470.16,-73.84"/>
<polygon fill="midnightblue" stroke="midnightblue" points="470.66,-77.31 480.22,-72.73 469.89,-70.35 470.66,-77.31"/>
</g>
<!-- Node6 -->
<g id="node6" class="node">
<title>Node6</title>
<g id="a_node6"><a xlink:href="classQuantConnect_1_1Orders_1_1OrderResponse.html#af8bdc5b0fd7d8e5929a659099d1d939f" target="_top" xlink:title="Helper method to create an error response due to algorithm still in warmup mode">
<polygon fill="white" stroke="black" points="480.5,-0.5 480.5,-30.5 631.5,-30.5 631.5,-0.5 480.5,-0.5"/>
<text text-anchor="start" x="488.5" y="-18.5" font-family="Helvetica,sans-Serif" font-size="10.00">QuantConnect.Orders.Order</text>
<text text-anchor="middle" x="556" y="-7.5" font-family="Helvetica,sans-Serif" font-size="10.00">Response.WarmingUp</text>
</a>
</g>
</g>
<!-- Node2&#45;&gt;Node6 -->
<g id="edge5" class="edge">
<title>Node2&#45;&gt;Node6</title>
<path fill="none" stroke="midnightblue" d="M390.99,-67.96C414.78,-59.14 443.16,-48.95 469,-40.5 476.27,-38.12 483.93,-35.74 491.55,-33.43"/>
<polygon fill="midnightblue" stroke="midnightblue" points="492.58,-36.78 501.16,-30.56 490.57,-30.07 492.58,-36.78"/>
</g>
<!-- Node7 -->
<g id="node7" class="node">
<title>Node7</title>
<g id="a_node7"><a xlink:href="classQuantConnect_1_1Orders_1_1OrderResponse.html#a14ded2753785926becc5e7f8e5a02a09" target="_top" xlink:title="Helper method to create an error response from a request">
<polygon fill="white" stroke="black" points="679,-0.5 679,-30.5 830,-30.5 830,-0.5 679,-0.5"/>
<text text-anchor="start" x="687" y="-18.5" font-family="Helvetica,sans-Serif" font-size="10.00">QuantConnect.Orders.Order</text>
<text text-anchor="middle" x="754.5" y="-7.5" font-family="Helvetica,sans-Serif" font-size="10.00">Response.Error</text>
</a>
</g>
</g>
<!-- Node6&#45;&gt;Node7 -->
<g id="edge6" class="edge">
<title>Node6&#45;&gt;Node7</title>
<path fill="none" stroke="midnightblue" d="M631.57,-15.5C643.7,-15.5 656.34,-15.5 668.69,-15.5"/>
<polygon fill="midnightblue" stroke="midnightblue" points="668.98,-19 678.98,-15.5 668.98,-12 668.98,-19"/>
</g>
</g>
</svg>
