<?xml version="1.0" encoding="UTF-8" standalone="no"?>
<!DOCTYPE svg PUBLIC "-//W3C//DTD SVG 1.1//EN"
 "http://www.w3.org/Graphics/SVG/1.1/DTD/svg11.dtd">
<!-- Generated by graphviz version 2.43.0 (0)
 -->
<!-- Title: QuantConnect.Algorithm.Framework.Alphas.Insight.Insight Pages: 1 -->
<!--zoomable 262 -->
<svg id="main" version="1.1" xmlns="http://www.w3.org/2000/svg" xmlns:xlink="http://www.w3.org/1999/xlink" xml:space="preserve" onload="init(evt)">
<style type="text/css"><![CDATA[
.edge:hover path { stroke: red; }
.edge:hover polygon { stroke: red; fill: red; }
]]></style>
<script type="text/javascript"><![CDATA[
var edges = document.getElementsByTagName('g');
if (edges && edges.length) {
  for (var i=0;i<edges.length;i++) {
    if (edges[i].id.substr(0,4)=='edge') {
      edges[i].setAttribute('class','edge');
    }
  }
}
]]></script>
        <defs>
                <circle id="rim" cx="0" cy="0" r="7"/>
                <circle id="rim2" cx="0" cy="0" r="3.5"/>
                <g id="zoomPlus">
                        <use xlink:href="#rim" fill="#404040">
                                <set attributeName="fill" to="#808080" begin="zoomplus.mouseover" end="zoomplus.mouseout"/>
                        </use>
                        <path d="M-4,0h8M0,-4v8" fill="none" stroke="white" stroke-width="1.5" pointer-events="none"/>
                </g>
                <g id="zoomMin">
                        <use xlink:href="#rim" fill="#404040">
                                <set attributeName="fill" to="#808080" begin="zoomminus.mouseover" end="zoomminus.mouseout"/>
                        </use>
                        <path d="M-4,0h8" fill="none" stroke="white" stroke-width="1.5" pointer-events="none"/>
                </g>
                <g id="dirArrow">
                        <path fill="none" stroke="white" stroke-width="1.5" d="M0,-3.0v7 M-2.5,-0.5L0,-3.0L2.5,-0.5"/>
                </g>
               <g id="resetDef">
                       <use xlink:href="#rim2" fill="#404040">
                               <set attributeName="fill" to="#808080" begin="reset.mouseover" end="reset.mouseout"/>
                       </use>
               </g>
        </defs>

<script type="text/javascript">
var viewWidth = 707;
var viewHeight = 262;
var sectionId = 'dynsection-0';
</script>
<script xlink:href="svgpan.js"/>
<svg id="graph" class="graph">
<g id="viewport">
<title>QuantConnect.Algorithm.Framework.Alphas.Insight.Insight</title>
<polygon fill="white" stroke="transparent" points="-4,4 -4,-258 703,-258 703,4 -4,4"/>
<!-- Node1 -->
<g id="node1" class="node">
<title>Node1</title>
<g id="a_node1"><a xlink:title="Initializes a new instance of the Insight class">
<polygon fill="#bfbfbf" stroke="black" points="502,-174.5 502,-204.5 699,-204.5 699,-174.5 502,-174.5"/>
<text text-anchor="start" x="510" y="-192.5" font-family="Helvetica,sans-Serif" font-size="10.00">QuantConnect.Algorithm.Framework.</text>
<text text-anchor="middle" x="600.5" y="-181.5" font-family="Helvetica,sans-Serif" font-size="10.00">Alphas.Insight.Insight</text>
</a>
</g>
</g>
<!-- Node2 -->
<g id="node2" class="node">
<title>Node2</title>
<g id="a_node2"><a xlink:href="classQuantConnect_1_1Algorithm_1_1Framework_1_1Alphas_1_1Insight.html#a3be468a59f3dffae6eddde43bf81bcdb" target="_top" xlink:title="Creates a deep clone of this insight instance">
<polygon fill="white" stroke="black" points="269,-223.5 269,-253.5 466,-253.5 466,-223.5 269,-223.5"/>
<text text-anchor="start" x="277" y="-241.5" font-family="Helvetica,sans-Serif" font-size="10.00">QuantConnect.Algorithm.Framework.</text>
<text text-anchor="middle" x="367.5" y="-230.5" font-family="Helvetica,sans-Serif" font-size="10.00">Alphas.Insight.Clone</text>
</a>
</g>
</g>
<!-- Node1&#45;&gt;Node2 -->
<g id="edge1" class="edge">
<title>Node1&#45;&gt;Node2</title>
<path fill="none" stroke="midnightblue" d="M518.83,-206.61C492.9,-212.11 464.4,-218.16 439.24,-223.49"/>
<polygon fill="midnightblue" stroke="midnightblue" points="519.57,-210.03 528.62,-204.53 518.11,-203.19 519.57,-210.03"/>
</g>
<!-- Node3 -->
<g id="node3" class="node">
<title>Node3</title>
<g id="a_node3"><a xlink:href="classQuantConnect_1_1Algorithm_1_1Framework_1_1Alphas_1_1Insight.html#a45c92b494352cbd2da4db9890911200f" target="_top" xlink:title="Creates a new Insight object from the specified serialized form">
<polygon fill="white" stroke="black" points="269,-174.5 269,-204.5 466,-204.5 466,-174.5 269,-174.5"/>
<text text-anchor="start" x="277" y="-192.5" font-family="Helvetica,sans-Serif" font-size="10.00">QuantConnect.Algorithm.Framework.</text>
<text text-anchor="middle" x="367.5" y="-181.5" font-family="Helvetica,sans-Serif" font-size="10.00">Alphas.Insight.FromSerializedInsight</text>
</a>
</g>
</g>
<!-- Node1&#45;&gt;Node3 -->
<g id="edge2" class="edge">
<title>Node1&#45;&gt;Node3</title>
<path fill="none" stroke="midnightblue" d="M491.85,-189.5C483.28,-189.5 474.65,-189.5 466.15,-189.5"/>
<polygon fill="midnightblue" stroke="midnightblue" points="491.87,-193 501.87,-189.5 491.87,-186 491.87,-193"/>
</g>
<!-- Node5 -->
<g id="node5" class="node">
<title>Node5</title>
<g id="a_node5"><a xlink:href="classQuantConnect_1_1Algorithm_1_1Framework_1_1Alphas_1_1Insight.html#a7aabd7204fb675c3e47188a65d110716" target="_top" xlink:title="Creates a new insight for predicting the percent change in price over the specified period">
<polygon fill="white" stroke="black" points="269,-98.5 269,-128.5 466,-128.5 466,-98.5 269,-98.5"/>
<text text-anchor="start" x="277" y="-116.5" font-family="Helvetica,sans-Serif" font-size="10.00">QuantConnect.Algorithm.Framework.</text>
<text text-anchor="middle" x="367.5" y="-105.5" font-family="Helvetica,sans-Serif" font-size="10.00">Alphas.Insight.Price</text>
</a>
</g>
</g>
<!-- Node1&#45;&gt;Node5 -->
<g id="edge4" class="edge">
<title>Node1&#45;&gt;Node5</title>
<path fill="none" stroke="midnightblue" d="M544.34,-171.35C504.67,-158.3 451.81,-140.91 414.44,-128.61"/>
<polygon fill="midnightblue" stroke="midnightblue" points="543.27,-174.68 553.86,-174.48 545.46,-168.03 543.27,-174.68"/>
</g>
<!-- Node4 -->
<g id="node4" class="node">
<title>Node4</title>
<g id="a_node4"><a xlink:href="classQuantConnect_1_1Algorithm_1_1Framework_1_1Alphas_1_1Serialization_1_1InsightJsonConverter.html#af2dd7ec283dc30929df11534ca3cc274" target="_top" xlink:title="Converts the input value to be deserialized">
<polygon fill="white" stroke="black" points="6.5,-197 6.5,-238 226.5,-238 226.5,-197 6.5,-197"/>
<text text-anchor="start" x="14.5" y="-226" font-family="Helvetica,sans-Serif" font-size="10.00">QuantConnect.Algorithm.Framework.</text>
<text text-anchor="start" x="14.5" y="-215" font-family="Helvetica,sans-Serif" font-size="10.00">Alphas.Serialization.InsightJsonConverter.</text>
<text text-anchor="middle" x="116.5" y="-204" font-family="Helvetica,sans-Serif" font-size="10.00">Convert</text>
</a>
</g>
</g>
<!-- Node3&#45;&gt;Node4 -->
<g id="edge3" class="edge">
<title>Node3&#45;&gt;Node4</title>
<path fill="none" stroke="midnightblue" d="M258.73,-201.62C248.17,-202.81 237.44,-204.01 226.86,-205.2"/>
<polygon fill="midnightblue" stroke="midnightblue" points="259.26,-205.08 268.8,-200.49 258.47,-198.13 259.26,-205.08"/>
</g>
<!-- Node6 -->
<g id="node6" class="node">
<title>Node6</title>
<g id="a_node6"><a xlink:href="classQuantConnect_1_1Algorithm_1_1Framework_1_1Alphas_1_1RsiAlphaModel.html#ab09a91ae0a0c83ee9b45718243238aaa" target="_top" xlink:title="Updates this alpha model with the latest data from the algorithm. This is called each time the algori...">
<polygon fill="white" stroke="black" points="18,-147.5 18,-177.5 215,-177.5 215,-147.5 18,-147.5"/>
<text text-anchor="start" x="26" y="-165.5" font-family="Helvetica,sans-Serif" font-size="10.00">QuantConnect.Algorithm.Framework.</text>
<text text-anchor="middle" x="116.5" y="-154.5" font-family="Helvetica,sans-Serif" font-size="10.00">Alphas.RsiAlphaModel.Update</text>
</a>
</g>
</g>
<!-- Node5&#45;&gt;Node6 -->
<g id="edge5" class="edge">
<title>Node5&#45;&gt;Node6</title>
<path fill="none" stroke="midnightblue" d="M280.28,-130.47C252.14,-136 221.11,-142.11 193.76,-147.49"/>
<polygon fill="midnightblue" stroke="midnightblue" points="280.96,-133.9 290.1,-128.53 279.61,-127.03 280.96,-133.9"/>
</g>
<!-- Node7 -->
<g id="node7" class="node">
<title>Node7</title>
<g id="a_node7"><a xlink:href="classQuantConnect_1_1Algorithm_1_1Framework_1_1Alphas_1_1HistoricalReturnsAlphaModel.html#a28edb1bbc4907b9edca492e5f8eebf19" target="_top" xlink:title="Updates this alpha model with the latest data from the algorithm. This is called each time the algori...">
<polygon fill="white" stroke="black" points="0,-98.5 0,-128.5 233,-128.5 233,-98.5 0,-98.5"/>
<text text-anchor="start" x="8" y="-116.5" font-family="Helvetica,sans-Serif" font-size="10.00">QuantConnect.Algorithm.Framework.</text>
<text text-anchor="middle" x="116.5" y="-105.5" font-family="Helvetica,sans-Serif" font-size="10.00">Alphas.HistoricalReturnsAlphaModel.Update</text>
</a>
</g>
</g>
<!-- Node5&#45;&gt;Node7 -->
<g id="edge6" class="edge">
<title>Node5&#45;&gt;Node7</title>
<path fill="none" stroke="midnightblue" d="M258.57,-113.5C250.13,-113.5 241.58,-113.5 233.1,-113.5"/>
<polygon fill="midnightblue" stroke="midnightblue" points="258.8,-117 268.8,-113.5 258.8,-110 258.8,-117"/>
</g>
<!-- Node8 -->
<g id="node8" class="node">
<title>Node8</title>
<g id="a_node8"><a xlink:href="classQuantConnect_1_1Algorithm_1_1Framework_1_1Alphas_1_1EmaCrossAlphaModel.html#a39bda28ad2dc41150baff361f86f9ad3" target="_top" xlink:title="Updates this alpha model with the latest data from the algorithm. This is called each time the algori...">
<polygon fill="white" stroke="black" points="18,-49.5 18,-79.5 215,-79.5 215,-49.5 18,-49.5"/>
<text text-anchor="start" x="26" y="-67.5" font-family="Helvetica,sans-Serif" font-size="10.00">QuantConnect.Algorithm.Framework.</text>
<text text-anchor="middle" x="116.5" y="-56.5" font-family="Helvetica,sans-Serif" font-size="10.00">Alphas.EmaCrossAlphaModel.Update</text>
</a>
</g>
</g>
<!-- Node5&#45;&gt;Node8 -->
<g id="edge7" class="edge">
<title>Node5&#45;&gt;Node8</title>
<path fill="none" stroke="midnightblue" d="M280.28,-96.53C252.14,-91 221.11,-84.89 193.76,-79.51"/>
<polygon fill="midnightblue" stroke="midnightblue" points="279.61,-99.97 290.1,-98.47 280.96,-93.1 279.61,-99.97"/>
</g>
<!-- Node9 -->
<g id="node9" class="node">
<title>Node9</title>
<g id="a_node9"><a xlink:href="classQuantConnect_1_1Algorithm_1_1Framework_1_1Alphas_1_1MacdAlphaModel.html#a41ce570e226cee6826b0cd15a840c3a6" target="_top" xlink:title="Determines an insight for each security based on it&#39;s current MACD signal">
<polygon fill="white" stroke="black" points="18,-0.5 18,-30.5 215,-30.5 215,-0.5 18,-0.5"/>
<text text-anchor="start" x="26" y="-18.5" font-family="Helvetica,sans-Serif" font-size="10.00">QuantConnect.Algorithm.Framework.</text>
<text text-anchor="middle" x="116.5" y="-7.5" font-family="Helvetica,sans-Serif" font-size="10.00">Alphas.MacdAlphaModel.Update</text>
</a>
</g>
</g>
<!-- Node5&#45;&gt;Node9 -->
<g id="edge8" class="edge">
<title>Node5&#45;&gt;Node9</title>
<path fill="none" stroke="midnightblue" d="M335.63,-92.86C309.37,-76.18 270.11,-53.28 233,-39.5 223.78,-36.08 213.96,-33.1 204.09,-30.51"/>
<polygon fill="midnightblue" stroke="midnightblue" points="334.05,-96 344.36,-98.47 337.84,-90.12 334.05,-96"/>
</g>
</g>
</svg>
        <g id="navigator" transform="translate(0 0)" fill="#404254">
                <rect fill="#f2f5e9" fill-opacity="0.5" stroke="#606060" stroke-width=".5" x="0" y="0" width="60" height="60"/>
                <use id="zoomplus" xlink:href="#zoomPlus" x="17" y="9" onmousedown="handleZoom(evt,'in')"/>
                <use id="zoomminus" xlink:href="#zoomMin" x="42" y="9" onmousedown="handleZoom(evt,'out')"/>
                <use id="reset" xlink:href="#resetDef" x="30" y="36" onmousedown="handleReset()"/>
                <g id="arrowUp" xlink:href="#dirArrow" transform="translate(30 24)" onmousedown="handlePan(0,-1)">
                  <use xlink:href="#rim" fill="#404040">
                        <set attributeName="fill" to="#808080" begin="arrowUp.mouseover" end="arrowUp.mouseout"/>
                  </use>
                  <path fill="none" stroke="white" stroke-width="1.5" d="M0,-3.0v7 M-2.5,-0.5L0,-3.0L2.5,-0.5"/>
                </g>
                <g id="arrowRight" xlink:href="#dirArrow" transform="rotate(90) translate(36 -43)" onmousedown="handlePan(1,0)">
                  <use xlink:href="#rim" fill="#404040">
                        <set attributeName="fill" to="#808080" begin="arrowRight.mouseover" end="arrowRight.mouseout"/>
                  </use>
                  <path fill="none" stroke="white" stroke-width="1.5" d="M0,-3.0v7 M-2.5,-0.5L0,-3.0L2.5,-0.5"/>
                </g>
                <g id="arrowDown" xlink:href="#dirArrow" transform="rotate(180) translate(-30 -48)" onmousedown="handlePan(0,1)">
                  <use xlink:href="#rim" fill="#404040">
                        <set attributeName="fill" to="#808080" begin="arrowDown.mouseover" end="arrowDown.mouseout"/>
                  </use>
                  <path fill="none" stroke="white" stroke-width="1.5" d="M0,-3.0v7 M-2.5,-0.5L0,-3.0L2.5,-0.5"/>
                </g>
                <g id="arrowLeft" xlink:href="#dirArrow" transform="rotate(270) translate(-36 17)" onmousedown="handlePan(-1,0)">
                  <use xlink:href="#rim" fill="#404040">
                        <set attributeName="fill" to="#808080" begin="arrowLeft.mouseover" end="arrowLeft.mouseout"/>
                  </use>
                  <path fill="none" stroke="white" stroke-width="1.5" d="M0,-3.0v7 M-2.5,-0.5L0,-3.0L2.5,-0.5"/>
                </g>
        </g>
        <svg viewBox="0 0 15 15" width="100%" height="30px" preserveAspectRatio="xMaxYMin meet">
         <g id="arrow_out" transform="scale(0.3 0.3)">
          <a xlink:href="classQuantConnect_1_1Algorithm_1_1Framework_1_1Alphas_1_1Insight_af5a32362538f22f9f8708bd5e778cfc7_icgraph_org.svg" target="_base">
           <rect id="button" ry="5" rx="5" y="6" x="6" height="38" width="38"
                fill="#f2f5e9" fill-opacity="0.5" stroke="#606060" stroke-width="1.0"/>
           <path id="arrow"
             d="M 11.500037,31.436501 C 11.940474,20.09759 22.043105,11.32322 32.158766,21.979434 L 37.068811,17.246167 C 37.068811,17.246167 37.088388,32 37.088388,32 L 22.160133,31.978069 C 22.160133,31.978069 26.997745,27.140456 26.997745,27.140456 C 18.528582,18.264221 13.291696,25.230495 11.500037,31.436501 z"
             style="fill:#404040;"/>
          </a>
         </g>
        </svg>
</svg>
