<?xml version="1.0" encoding="UTF-8" standalone="no"?>
<!DOCTYPE svg PUBLIC "-//W3C//DTD SVG 1.1//EN"
 "http://www.w3.org/Graphics/SVG/1.1/DTD/svg11.dtd">
<!-- Generated by graphviz version 2.43.0 (0)
 -->
<!-- Title: QuantConnect.Lean.Engine.Results.BaseResultsHandler.SamplePerformance Pages: 1 -->
<svg width="1220pt" height="640pt"
 viewBox="0.00 0.00 1220.00 639.50" xmlns="http://www.w3.org/2000/svg" xmlns:xlink="http://www.w3.org/1999/xlink">
<g id="graph0" class="graph" transform="scale(1 1) rotate(0) translate(4 635.5)">
<title>QuantConnect.Lean.Engine.Results.BaseResultsHandler.SamplePerformance</title>
<polygon fill="white" stroke="transparent" points="-4,4 -4,-635.5 1216,-635.5 1216,4 -4,4"/>
<!-- Node1 -->
<g id="node1" class="node">
<title>Node1</title>
<g id="a_node1"><a xlink:title="Sample the current daily performance directly with a time&#45;value pair.">
<polygon fill="#bfbfbf" stroke="black" points="0,-270.5 0,-311.5 193,-311.5 193,-270.5 0,-270.5"/>
<text text-anchor="start" x="8" y="-299.5" font-family="Helvetica,sans-Serif" font-size="10.00">QuantConnect.Lean.Engine.</text>
<text text-anchor="start" x="8" y="-288.5" font-family="Helvetica,sans-Serif" font-size="10.00">Results.BaseResultsHandler.Sample</text>
<text text-anchor="middle" x="96.5" y="-277.5" font-family="Helvetica,sans-Serif" font-size="10.00">Performance</text>
</a>
</g>
</g>
<!-- Node2 -->
<g id="node2" class="node">
<title>Node2</title>
<g id="a_node2"><a xlink:href="classQuantConnect_1_1Logging_1_1Log.html#ad908daef9d61532d7d60c9dcfb9a3e0c" target="_top" xlink:title="Output to the console">
<polygon fill="white" stroke="black" points="250.5,-463 250.5,-493 400.5,-493 400.5,-463 250.5,-463"/>
<text text-anchor="start" x="258.5" y="-481" font-family="Helvetica,sans-Serif" font-size="10.00">QuantConnect.Logging.Log.</text>
<text text-anchor="middle" x="325.5" y="-470" font-family="Helvetica,sans-Serif" font-size="10.00">Debug</text>
</a>
</g>
</g>
<!-- Node1&#45;&gt;Node2 -->
<g id="edge1" class="edge">
<title>Node1&#45;&gt;Node2</title>
<path fill="none" stroke="midnightblue" d="M122.66,-311.73C165.93,-347.37 254.03,-419.95 298.12,-456.27"/>
<polygon fill="midnightblue" stroke="midnightblue" points="296.13,-459.17 306.08,-462.82 300.58,-453.76 296.13,-459.17"/>
</g>
<!-- Node4 -->
<g id="node4" class="node">
<title>Node4</title>
<g id="a_node4"><a xlink:href="classQuantConnect_1_1Lean_1_1Engine_1_1Results_1_1BaseResultsHandler.html#aa2e1ad39cc891714b6d3bb5da14b7afa" target="_top" xlink:title="Samples portfolio equity, benchmark, and daily performance Called by scheduled event every night at m...">
<polygon fill="white" stroke="black" points="229,-276 229,-306 422,-306 422,-276 229,-276"/>
<text text-anchor="start" x="237" y="-294" font-family="Helvetica,sans-Serif" font-size="10.00">QuantConnect.Lean.Engine.</text>
<text text-anchor="middle" x="325.5" y="-283" font-family="Helvetica,sans-Serif" font-size="10.00">Results.BaseResultsHandler.Sample</text>
</a>
</g>
</g>
<!-- Node1&#45;&gt;Node4 -->
<g id="edge3" class="edge">
<title>Node1&#45;&gt;Node4</title>
<path fill="none" stroke="midnightblue" d="M193.11,-284.33C201.65,-284.25 210.32,-284.23 218.93,-284.26"/>
<polygon fill="midnightblue" stroke="midnightblue" points="218.98,-287.76 229,-284.33 219.02,-280.77 218.98,-287.76"/>
</g>
<!-- Node3 -->
<g id="node3" class="node">
<title>Node3</title>
<g id="a_node3"><a xlink:href="interfaceQuantConnect_1_1Logging_1_1ILogHandler.html#a2c738b8e78dd5b54244bc68b969ba91d" target="_top" xlink:title="Write debug message to log">
<polygon fill="white" stroke="black" points="479.5,-601 479.5,-631 629.5,-631 629.5,-601 479.5,-601"/>
<text text-anchor="start" x="487.5" y="-619" font-family="Helvetica,sans-Serif" font-size="10.00">QuantConnect.Logging.ILog</text>
<text text-anchor="middle" x="554.5" y="-608" font-family="Helvetica,sans-Serif" font-size="10.00">Handler.Debug</text>
</a>
</g>
</g>
<!-- Node2&#45;&gt;Node3 -->
<g id="edge2" class="edge">
<title>Node2&#45;&gt;Node3</title>
<path fill="none" stroke="midnightblue" d="M339.85,-493.29C361.97,-517.64 408.68,-565.14 458,-591 462.49,-593.35 467.21,-595.49 472.05,-597.44"/>
<polygon fill="midnightblue" stroke="midnightblue" points="470.9,-600.75 481.49,-600.96 473.34,-594.19 470.9,-600.75"/>
</g>
<!-- Node4&#45;&gt;Node1 -->
<g id="edge17" class="edge">
<title>Node4&#45;&gt;Node1</title>
<path fill="none" stroke="midnightblue" d="M229,-297.67C220.47,-297.75 211.79,-297.77 203.18,-297.74"/>
<polygon fill="midnightblue" stroke="midnightblue" points="203.13,-294.24 193.11,-297.67 203.09,-301.24 203.13,-294.24"/>
</g>
<!-- Node5 -->
<g id="node5" class="node">
<title>Node5</title>
<g id="a_node5"><a xlink:href="classQuantConnect_1_1Lean_1_1Engine_1_1Results_1_1BaseResultsHandler.html#ab2d5d2dbe6abd63cb480c45e6e046f98" target="_top" xlink:title="Gets the current benchmark value">
<polygon fill="white" stroke="black" points="468,-540.5 468,-581.5 641,-581.5 641,-540.5 468,-540.5"/>
<text text-anchor="start" x="476" y="-569.5" font-family="Helvetica,sans-Serif" font-size="10.00">QuantConnect.Lean.Engine.</text>
<text text-anchor="start" x="476" y="-558.5" font-family="Helvetica,sans-Serif" font-size="10.00">Results.BaseResultsHandler.Get</text>
<text text-anchor="middle" x="554.5" y="-547.5" font-family="Helvetica,sans-Serif" font-size="10.00">BenchmarkValue</text>
</a>
</g>
</g>
<!-- Node4&#45;&gt;Node5 -->
<g id="edge4" class="edge">
<title>Node4&#45;&gt;Node5</title>
<path fill="none" stroke="midnightblue" d="M335.93,-306.02C353.64,-334.44 392.72,-398.25 422,-454 439.57,-487.44 429.57,-506.12 458,-531 459.52,-532.33 461.1,-533.6 462.73,-534.82"/>
<polygon fill="midnightblue" stroke="midnightblue" points="460.98,-537.86 471.26,-540.44 464.83,-532.01 460.98,-537.86"/>
</g>
<!-- Node6 -->
<g id="node6" class="node">
<title>Node6</title>
<g id="a_node6"><a xlink:href="classQuantConnect_1_1Lean_1_1Engine_1_1Results_1_1BaseResultsHandler.html#ad29219c5dbb0e37b63b329de77e5a912" target="_top" xlink:title="Gets the current portfolio value">
<polygon fill="white" stroke="black" points="468,-480.5 468,-521.5 641,-521.5 641,-480.5 468,-480.5"/>
<text text-anchor="start" x="476" y="-509.5" font-family="Helvetica,sans-Serif" font-size="10.00">QuantConnect.Lean.Engine.</text>
<text text-anchor="start" x="476" y="-498.5" font-family="Helvetica,sans-Serif" font-size="10.00">Results.BaseResultsHandler.Get</text>
<text text-anchor="middle" x="554.5" y="-487.5" font-family="Helvetica,sans-Serif" font-size="10.00">PortfolioValue</text>
</a>
</g>
</g>
<!-- Node4&#45;&gt;Node6 -->
<g id="edge5" class="edge">
<title>Node4&#45;&gt;Node6</title>
<path fill="none" stroke="midnightblue" d="M333.35,-306.08C349.77,-340.56 394.79,-425.67 458,-471 460.16,-472.55 462.41,-474.02 464.72,-475.42"/>
<polygon fill="midnightblue" stroke="midnightblue" points="463.47,-478.73 473.92,-480.45 466.82,-472.58 463.47,-478.73"/>
</g>
<!-- Node7 -->
<g id="node7" class="node">
<title>Node7</title>
<g id="a_node7"><a xlink:href="classQuantConnect_1_1Lean_1_1Engine_1_1Results_1_1BaseResultsHandler.html#a765a5931719ed6121e36b8bed38945cd" target="_top" xlink:title="Sample the current benchmark performance directly with a time&#45;value pair.">
<polygon fill="white" stroke="black" points="458,-420.5 458,-461.5 651,-461.5 651,-420.5 458,-420.5"/>
<text text-anchor="start" x="466" y="-449.5" font-family="Helvetica,sans-Serif" font-size="10.00">QuantConnect.Lean.Engine.</text>
<text text-anchor="start" x="466" y="-438.5" font-family="Helvetica,sans-Serif" font-size="10.00">Results.BaseResultsHandler.Sample</text>
<text text-anchor="middle" x="554.5" y="-427.5" font-family="Helvetica,sans-Serif" font-size="10.00">Benchmark</text>
</a>
</g>
</g>
<!-- Node4&#45;&gt;Node7 -->
<g id="edge6" class="edge">
<title>Node4&#45;&gt;Node7</title>
<path fill="none" stroke="midnightblue" d="M344.39,-306.03C367.89,-329.91 411.65,-375.34 458,-402 468.36,-407.96 480.04,-412.88 491.59,-417.07"/>
<polygon fill="midnightblue" stroke="midnightblue" points="490.63,-420.44 501.22,-420.42 492.93,-413.83 490.63,-420.44"/>
</g>
<!-- Node8 -->
<g id="node8" class="node">
<title>Node8</title>
<g id="a_node8"><a xlink:href="classQuantConnect_1_1Lean_1_1Engine_1_1Results_1_1BaseResultsHandler.html#a59b399ab38b4989196e0e41b001bbf0e" target="_top" xlink:title="Sample estimated strategy capacity">
<polygon fill="white" stroke="black" points="458,-360.5 458,-401.5 651,-401.5 651,-360.5 458,-360.5"/>
<text text-anchor="start" x="466" y="-389.5" font-family="Helvetica,sans-Serif" font-size="10.00">QuantConnect.Lean.Engine.</text>
<text text-anchor="start" x="466" y="-378.5" font-family="Helvetica,sans-Serif" font-size="10.00">Results.BaseResultsHandler.Sample</text>
<text text-anchor="middle" x="554.5" y="-367.5" font-family="Helvetica,sans-Serif" font-size="10.00">Capacity</text>
</a>
</g>
</g>
<!-- Node4&#45;&gt;Node8 -->
<g id="edge8" class="edge">
<title>Node4&#45;&gt;Node8</title>
<path fill="none" stroke="midnightblue" d="M356.6,-306.03C382.97,-318.87 422.5,-337.39 458,-351 463.46,-353.09 469.13,-355.15 474.86,-357.15"/>
<polygon fill="midnightblue" stroke="midnightblue" points="473.96,-360.54 484.55,-360.46 476.22,-353.92 473.96,-360.54"/>
</g>
<!-- Node9 -->
<g id="node9" class="node">
<title>Node9</title>
<g id="a_node9"><a xlink:href="classQuantConnect_1_1Lean_1_1Engine_1_1Results_1_1BaseResultsHandler.html#ad4341aadd09144100f5b12cd22359740" target="_top" xlink:title="Sample drawdown of equity of the strategy">
<polygon fill="white" stroke="black" points="458,-300.5 458,-341.5 651,-341.5 651,-300.5 458,-300.5"/>
<text text-anchor="start" x="466" y="-329.5" font-family="Helvetica,sans-Serif" font-size="10.00">QuantConnect.Lean.Engine.</text>
<text text-anchor="start" x="466" y="-318.5" font-family="Helvetica,sans-Serif" font-size="10.00">Results.BaseResultsHandler.Sample</text>
<text text-anchor="middle" x="554.5" y="-307.5" font-family="Helvetica,sans-Serif" font-size="10.00">Drawdown</text>
</a>
</g>
</g>
<!-- Node4&#45;&gt;Node9 -->
<g id="edge9" class="edge">
<title>Node4&#45;&gt;Node9</title>
<path fill="none" stroke="midnightblue" d="M422.11,-296.96C430.65,-298.02 439.32,-299.14 447.93,-300.31"/>
<polygon fill="midnightblue" stroke="midnightblue" points="447.61,-303.8 458,-301.7 448.57,-296.87 447.61,-303.8"/>
</g>
<!-- Node13 -->
<g id="node13" class="node">
<title>Node13</title>
<g id="a_node13"><a xlink:href="classQuantConnect_1_1Lean_1_1Engine_1_1Results_1_1BaseResultsHandler.html#ab78c5551037c1960edcff390a59e62ea" target="_top" xlink:title="Sample the current equity of the strategy directly with time and using the current algorithm equity v...">
<polygon fill="white" stroke="black" points="458,-240.5 458,-281.5 651,-281.5 651,-240.5 458,-240.5"/>
<text text-anchor="start" x="466" y="-269.5" font-family="Helvetica,sans-Serif" font-size="10.00">QuantConnect.Lean.Engine.</text>
<text text-anchor="start" x="466" y="-258.5" font-family="Helvetica,sans-Serif" font-size="10.00">Results.BaseResultsHandler.Sample</text>
<text text-anchor="middle" x="554.5" y="-247.5" font-family="Helvetica,sans-Serif" font-size="10.00">Equity</text>
</a>
</g>
</g>
<!-- Node4&#45;&gt;Node13 -->
<g id="edge14" class="edge">
<title>Node4&#45;&gt;Node13</title>
<path fill="none" stroke="midnightblue" d="M393.07,-275.99C410.26,-273.3 429.19,-270.62 447.84,-268.23"/>
<polygon fill="midnightblue" stroke="midnightblue" points="448.37,-271.69 457.86,-266.97 447.5,-264.74 448.37,-271.69"/>
</g>
<!-- Node14 -->
<g id="node14" class="node">
<title>Node14</title>
<g id="a_node14"><a xlink:href="classQuantConnect_1_1Lean_1_1Engine_1_1Results_1_1BaseResultsHandler.html#a8b37f89b0f4b07e96d11ecf140ef71b3" target="_top" xlink:title="Sample portfolio exposure long/short ratios by security type">
<polygon fill="white" stroke="black" points="458,-180.5 458,-221.5 651,-221.5 651,-180.5 458,-180.5"/>
<text text-anchor="start" x="466" y="-209.5" font-family="Helvetica,sans-Serif" font-size="10.00">QuantConnect.Lean.Engine.</text>
<text text-anchor="start" x="466" y="-198.5" font-family="Helvetica,sans-Serif" font-size="10.00">Results.BaseResultsHandler.Sample</text>
<text text-anchor="middle" x="554.5" y="-187.5" font-family="Helvetica,sans-Serif" font-size="10.00">Exposure</text>
</a>
</g>
</g>
<!-- Node4&#45;&gt;Node14 -->
<g id="edge16" class="edge">
<title>Node4&#45;&gt;Node14</title>
<path fill="none" stroke="midnightblue" d="M356.6,-275.97C382.97,-263.13 422.5,-244.61 458,-231 463.46,-228.91 469.13,-226.85 474.86,-224.85"/>
<polygon fill="midnightblue" stroke="midnightblue" points="476.22,-228.08 484.55,-221.54 473.96,-221.46 476.22,-228.08"/>
</g>
<!-- Node15 -->
<g id="node15" class="node">
<title>Node15</title>
<g id="a_node15"><a xlink:href="classQuantConnect_1_1Lean_1_1Engine_1_1Results_1_1BaseResultsHandler.html#a873939086dd92a0f526d55b3c4781765" target="_top" xlink:title="Sample portfolio turn over of the strategy">
<polygon fill="white" stroke="black" points="458,-120.5 458,-161.5 651,-161.5 651,-120.5 458,-120.5"/>
<text text-anchor="start" x="466" y="-149.5" font-family="Helvetica,sans-Serif" font-size="10.00">QuantConnect.Lean.Engine.</text>
<text text-anchor="start" x="466" y="-138.5" font-family="Helvetica,sans-Serif" font-size="10.00">Results.BaseResultsHandler.Sample</text>
<text text-anchor="middle" x="554.5" y="-127.5" font-family="Helvetica,sans-Serif" font-size="10.00">PortfolioTurnover</text>
</a>
</g>
</g>
<!-- Node4&#45;&gt;Node15 -->
<g id="edge18" class="edge">
<title>Node4&#45;&gt;Node15</title>
<path fill="none" stroke="midnightblue" d="M335.23,-275.59C353.73,-249.67 399.32,-198.66 449.67,-167.03"/>
<polygon fill="midnightblue" stroke="midnightblue" points="451.69,-169.9 458.45,-161.74 448.08,-163.9 451.69,-169.9"/>
</g>
<!-- Node17 -->
<g id="node17" class="node">
<title>Node17</title>
<g id="a_node17"><a xlink:href="classQuantConnect_1_1Lean_1_1Engine_1_1Results_1_1BaseResultsHandler.html#a1f0c128ff05275d192e04c8941e2b8c2" target="_top" xlink:title="Sample assets sales volume">
<polygon fill="white" stroke="black" points="458,-60.5 458,-101.5 651,-101.5 651,-60.5 458,-60.5"/>
<text text-anchor="start" x="466" y="-89.5" font-family="Helvetica,sans-Serif" font-size="10.00">QuantConnect.Lean.Engine.</text>
<text text-anchor="start" x="466" y="-78.5" font-family="Helvetica,sans-Serif" font-size="10.00">Results.BaseResultsHandler.Sample</text>
<text text-anchor="middle" x="554.5" y="-67.5" font-family="Helvetica,sans-Serif" font-size="10.00">SalesVolume</text>
</a>
</g>
</g>
<!-- Node4&#45;&gt;Node17 -->
<g id="edge21" class="edge">
<title>Node4&#45;&gt;Node17</title>
<path fill="none" stroke="midnightblue" d="M331.42,-275.95C345.4,-241.2 388.38,-156.58 450.37,-107.76"/>
<polygon fill="midnightblue" stroke="midnightblue" points="452.54,-110.51 458.42,-101.7 448.33,-104.91 452.54,-110.51"/>
</g>
<!-- Node18 -->
<g id="node18" class="node">
<title>Node18</title>
<g id="a_node18"><a xlink:href="classQuantConnect_1_1Lean_1_1Engine_1_1Results_1_1BaseResultsHandler.html#a35f8b15d21ab96b77f56996cbbfc95b5" target="_top" xlink:title="Updates the current equity bar with the current equity value from GetPortfolioValue">
<polygon fill="white" stroke="black" points="459,-0.5 459,-41.5 650,-41.5 650,-0.5 459,-0.5"/>
<text text-anchor="start" x="467" y="-29.5" font-family="Helvetica,sans-Serif" font-size="10.00">QuantConnect.Lean.Engine.</text>
<text text-anchor="start" x="467" y="-18.5" font-family="Helvetica,sans-Serif" font-size="10.00">Results.BaseResultsHandler.Update</text>
<text text-anchor="middle" x="554.5" y="-7.5" font-family="Helvetica,sans-Serif" font-size="10.00">AlgorithmEquity</text>
</a>
</g>
</g>
<!-- Node4&#45;&gt;Node18 -->
<g id="edge23" class="edge">
<title>Node4&#45;&gt;Node18</title>
<path fill="none" stroke="midnightblue" d="M330.49,-275.77C342.35,-233.51 381.41,-113.82 458,-51 459.75,-49.57 461.56,-48.2 463.44,-46.9"/>
<polygon fill="midnightblue" stroke="midnightblue" points="465.32,-49.85 471.98,-41.61 461.64,-43.9 465.32,-49.85"/>
</g>
<!-- Node7&#45;&gt;Node4 -->
<g id="edge7" class="edge">
<title>Node7&#45;&gt;Node4</title>
<path fill="none" stroke="midnightblue" d="M458.45,-420.26C458.3,-420.17 458.15,-420.09 458,-420 409.48,-392.09 363.79,-343.6 341.22,-314.44"/>
<polygon fill="midnightblue" stroke="midnightblue" points="344.01,-312.33 335.23,-306.41 338.4,-316.52 344.01,-312.33"/>
</g>
<!-- Node9&#45;&gt;Node4 -->
<g id="edge13" class="edge">
<title>Node9&#45;&gt;Node4</title>
<path fill="none" stroke="midnightblue" d="M457.86,-315.03C439.63,-312.78 420.78,-310.21 403.24,-307.57"/>
<polygon fill="midnightblue" stroke="midnightblue" points="403.49,-304.06 393.07,-306.01 402.43,-310.98 403.49,-304.06"/>
</g>
<!-- Node10 -->
<g id="node10" class="node">
<title>Node10</title>
<g id="a_node10"><a xlink:href="classQuantConnect_1_1Statistics_1_1Statistics.html#a40ec6432be1b7d5db21e2dfbeff52e7a" target="_top" xlink:title="Drawdown maximum percentage.">
<polygon fill="white" stroke="black" points="687,-306 687,-336 840,-336 840,-306 687,-306"/>
<text text-anchor="start" x="695" y="-324" font-family="Helvetica,sans-Serif" font-size="10.00">QuantConnect.Statistics.</text>
<text text-anchor="middle" x="763.5" y="-313" font-family="Helvetica,sans-Serif" font-size="10.00">Statistics.DrawdownPercent</text>
</a>
</g>
</g>
<!-- Node9&#45;&gt;Node10 -->
<g id="edge10" class="edge">
<title>Node9&#45;&gt;Node10</title>
<path fill="none" stroke="midnightblue" d="M651.12,-321C659.63,-321 668.21,-321 676.64,-321"/>
<polygon fill="midnightblue" stroke="midnightblue" points="676.81,-324.5 686.81,-321 676.81,-317.5 676.81,-324.5"/>
</g>
<!-- Node11 -->
<g id="node11" class="node">
<title>Node11</title>
<g id="a_node11"><a xlink:href="classQuantConnect_1_1Logging_1_1Log.html#af0e7955911bc7664b37661b2a303a9e3" target="_top" xlink:title="Log error">
<polygon fill="white" stroke="black" points="876,-306 876,-336 1026,-336 1026,-306 876,-306"/>
<text text-anchor="start" x="884" y="-324" font-family="Helvetica,sans-Serif" font-size="10.00">QuantConnect.Logging.Log.</text>
<text text-anchor="middle" x="951" y="-313" font-family="Helvetica,sans-Serif" font-size="10.00">Error</text>
</a>
</g>
</g>
<!-- Node10&#45;&gt;Node11 -->
<g id="edge11" class="edge">
<title>Node10&#45;&gt;Node11</title>
<path fill="none" stroke="midnightblue" d="M840.22,-321C848.55,-321 857.07,-321 865.5,-321"/>
<polygon fill="midnightblue" stroke="midnightblue" points="865.72,-324.5 875.72,-321 865.72,-317.5 865.72,-324.5"/>
</g>
<!-- Node12 -->
<g id="node12" class="node">
<title>Node12</title>
<g id="a_node12"><a xlink:href="interfaceQuantConnect_1_1Logging_1_1ILogHandler.html#a35373a0c5d76031fa5ccf5dc39e5c25d" target="_top" xlink:title="Write error message to log">
<polygon fill="white" stroke="black" points="1062,-306 1062,-336 1212,-336 1212,-306 1062,-306"/>
<text text-anchor="start" x="1070" y="-324" font-family="Helvetica,sans-Serif" font-size="10.00">QuantConnect.Logging.ILog</text>
<text text-anchor="middle" x="1137" y="-313" font-family="Helvetica,sans-Serif" font-size="10.00">Handler.Error</text>
</a>
</g>
</g>
<!-- Node11&#45;&gt;Node12 -->
<g id="edge12" class="edge">
<title>Node11&#45;&gt;Node12</title>
<path fill="none" stroke="midnightblue" d="M1026.04,-321C1034.51,-321 1043.19,-321 1051.78,-321"/>
<polygon fill="midnightblue" stroke="midnightblue" points="1051.81,-324.5 1061.81,-321 1051.81,-317.5 1051.81,-324.5"/>
</g>
<!-- Node13&#45;&gt;Node4 -->
<g id="edge15" class="edge">
<title>Node13&#45;&gt;Node4</title>
<path fill="none" stroke="midnightblue" d="M458,-280.3C449.47,-281.5 440.79,-282.66 432.18,-283.77"/>
<polygon fill="midnightblue" stroke="midnightblue" points="431.59,-280.32 422.11,-285.04 432.47,-287.26 431.59,-280.32"/>
</g>
<!-- Node15&#45;&gt;Node4 -->
<g id="edge20" class="edge">
<title>Node15&#45;&gt;Node4</title>
<path fill="none" stroke="midnightblue" d="M501.22,-161.58C486.68,-166.45 471.26,-172.37 458,-180 416,-204.16 376.12,-243.74 351.52,-268.72"/>
<polygon fill="midnightblue" stroke="midnightblue" points="348.91,-266.38 344.39,-275.97 353.9,-271.29 348.91,-266.38"/>
</g>
<!-- Node16 -->
<g id="node16" class="node">
<title>Node16</title>
<g id="a_node16"><a xlink:href="classQuantConnect_1_1Indicators_1_1RollingWindow.html#aeda810a70ae103ede4f753b6704cd1e9" target="_top" xlink:title="Adds an item to this window and shifts all other elements">
<polygon fill="white" stroke="black" points="693.5,-126 693.5,-156 833.5,-156 833.5,-126 693.5,-126"/>
<text text-anchor="start" x="701.5" y="-144" font-family="Helvetica,sans-Serif" font-size="10.00">QuantConnect.Indicators.</text>
<text text-anchor="middle" x="763.5" y="-133" font-family="Helvetica,sans-Serif" font-size="10.00">RollingWindow.Add</text>
</a>
</g>
</g>
<!-- Node15&#45;&gt;Node16 -->
<g id="edge19" class="edge">
<title>Node15&#45;&gt;Node16</title>
<path fill="none" stroke="midnightblue" d="M651.12,-141C661.77,-141 672.53,-141 682.94,-141"/>
<polygon fill="midnightblue" stroke="midnightblue" points="683.23,-144.5 693.23,-141 683.23,-137.5 683.23,-144.5"/>
</g>
<!-- Node17&#45;&gt;Node4 -->
<g id="edge22" class="edge">
<title>Node17&#45;&gt;Node4</title>
<path fill="none" stroke="midnightblue" d="M495.17,-101.63C482.18,-106.23 469.02,-112.1 458,-120 402.71,-159.65 361.35,-229.72 340.86,-266.82"/>
<polygon fill="midnightblue" stroke="midnightblue" points="337.6,-265.48 335.87,-275.94 343.74,-268.85 337.6,-265.48"/>
</g>
</g>
</svg>
