<?xml version="1.0" encoding="UTF-8" standalone="no"?>
<!DOCTYPE svg PUBLIC "-//W3C//DTD SVG 1.1//EN"
 "http://www.w3.org/Graphics/SVG/1.1/DTD/svg11.dtd">
<!-- Generated by graphviz version 2.43.0 (0)
 -->
<!-- Title: QuantConnect.Data.Consolidators.QuoteBarConsolidator.AggregateBar Pages: 1 -->
<svg width="669pt" height="100pt"
 viewBox="0.00 0.00 669.00 99.50" xmlns="http://www.w3.org/2000/svg" xmlns:xlink="http://www.w3.org/1999/xlink">
<g id="graph0" class="graph" transform="scale(1 1) rotate(0) translate(4 95.5)">
<title>QuantConnect.Data.Consolidators.QuoteBarConsolidator.AggregateBar</title>
<polygon fill="white" stroke="transparent" points="-4,4 -4,-95.5 665,-95.5 665,4 -4,4"/>
<!-- Node1 -->
<g id="node1" class="node">
<title>Node1</title>
<g id="a_node1"><a xlink:title="Aggregates the new &#39;data&#39; into the &#39;workingBar&#39;. The &#39;workingBar&#39; will be null following the event fi...">
<polygon fill="#bfbfbf" stroke="black" points="0,-27.5 0,-57.5 193,-57.5 193,-27.5 0,-27.5"/>
<text text-anchor="start" x="8" y="-45.5" font-family="Helvetica,sans-Serif" font-size="10.00">QuantConnect.Data.Consolidators.</text>
<text text-anchor="middle" x="96.5" y="-34.5" font-family="Helvetica,sans-Serif" font-size="10.00">QuoteBarConsolidator.AggregateBar</text>
</a>
</g>
</g>
<!-- Node2 -->
<g id="node2" class="node">
<title>Node2</title>
<g id="a_node2"><a xlink:href="classQuantConnect_1_1Data_1_1Consolidators_1_1PeriodCountConsolidatorBase.html#af5dd63d0b6c5bc0f227ef6d7ab80fee4" target="_top" xlink:title="Gets a rounded&#45;down bar time. Called by AggregateBar in derived classes.">
<polygon fill="white" stroke="black" points="229,-50 229,-91 473,-91 473,-50 229,-50"/>
<text text-anchor="start" x="237" y="-79" font-family="Helvetica,sans-Serif" font-size="10.00">QuantConnect.Data.Consolidators.</text>
<text text-anchor="start" x="237" y="-68" font-family="Helvetica,sans-Serif" font-size="10.00">PeriodCountConsolidatorBase</text>
<text text-anchor="middle" x="351" y="-57" font-family="Helvetica,sans-Serif" font-size="10.00">&lt; QuoteBar, QuoteBar &gt;::GetRoundedBarTime</text>
</a>
</g>
</g>
<!-- Node1&#45;&gt;Node2 -->
<g id="edge1" class="edge">
<title>Node1&#45;&gt;Node2</title>
<path fill="none" stroke="midnightblue" d="M193.32,-53.13C201.64,-54.05 210.15,-54.99 218.69,-55.94"/>
<polygon fill="midnightblue" stroke="midnightblue" points="218.4,-59.43 228.73,-57.05 219.17,-52.47 218.4,-59.43"/>
</g>
<!-- Node3 -->
<g id="node3" class="node">
<title>Node3</title>
<g id="a_node3"><a xlink:href="classQuantConnect_1_1Data_1_1Market_1_1QuoteBar.html#a4b48e2fea3891f9b11724bb3deda2bc0" target="_top" xlink:title="Update the quotebar &#45; build the bar from this pricing information:">
<polygon fill="white" stroke="black" points="275,-0.5 275,-30.5 427,-30.5 427,-0.5 275,-0.5"/>
<text text-anchor="start" x="283" y="-18.5" font-family="Helvetica,sans-Serif" font-size="10.00">QuantConnect.Data.Market.</text>
<text text-anchor="middle" x="351" y="-7.5" font-family="Helvetica,sans-Serif" font-size="10.00">QuoteBar.Update</text>
</a>
</g>
</g>
<!-- Node1&#45;&gt;Node3 -->
<g id="edge2" class="edge">
<title>Node1&#45;&gt;Node3</title>
<path fill="none" stroke="midnightblue" d="M193.32,-32.25C216.77,-29.75 241.72,-27.08 264.65,-24.63"/>
<polygon fill="midnightblue" stroke="midnightblue" points="265.11,-28.1 274.68,-23.55 264.37,-21.14 265.11,-28.1"/>
</g>
<!-- Node4 -->
<g id="node4" class="node">
<title>Node4</title>
<g id="a_node4"><a xlink:href="classQuantConnect_1_1Data_1_1Market_1_1Bar.html#ab3f5d262e9e5ce71c7d539e8c1439166" target="_top" xlink:title="Updates the bar with a new value. This will aggregate the OHLC bar">
<polygon fill="white" stroke="black" points="509,-0.5 509,-30.5 661,-30.5 661,-0.5 509,-0.5"/>
<text text-anchor="start" x="517" y="-18.5" font-family="Helvetica,sans-Serif" font-size="10.00">QuantConnect.Data.Market.</text>
<text text-anchor="middle" x="585" y="-7.5" font-family="Helvetica,sans-Serif" font-size="10.00">Bar.Update</text>
</a>
</g>
</g>
<!-- Node3&#45;&gt;Node4 -->
<g id="edge3" class="edge">
<title>Node3&#45;&gt;Node4</title>
<path fill="none" stroke="midnightblue" d="M427,-15.5C449.84,-15.5 475.1,-15.5 498.57,-15.5"/>
<polygon fill="midnightblue" stroke="midnightblue" points="498.86,-19 508.86,-15.5 498.86,-12 498.86,-19"/>
</g>
</g>
</svg>
