<?xml version="1.0" encoding="UTF-8" standalone="no"?>
<!DOCTYPE svg PUBLIC "-//W3C//DTD SVG 1.1//EN"
 "http://www.w3.org/Graphics/SVG/1.1/DTD/svg11.dtd">
<!-- Generated by graphviz version 2.43.0 (0)
 -->
<!-- Title: QuantConnect.Indicators.CandlestickPatterns.InvertedHammer.ComputeNextValue Pages: 1 -->
<svg width="829pt" height="302pt"
 viewBox="0.00 0.00 829.00 302.00" xmlns="http://www.w3.org/2000/svg" xmlns:xlink="http://www.w3.org/1999/xlink">
<g id="graph0" class="graph" transform="scale(1 1) rotate(0) translate(4 298)">
<title>QuantConnect.Indicators.CandlestickPatterns.InvertedHammer.ComputeNextValue</title>
<polygon fill="white" stroke="transparent" points="-4,4 -4,-298 825,-298 825,4 -4,4"/>
<!-- Node1 -->
<g id="node1" class="node">
<title>Node1</title>
<g id="a_node1"><a xlink:title="Computes the next value of this indicator from the given state">
<polygon fill="#bfbfbf" stroke="black" points="0,-106.5 0,-147.5 157,-147.5 157,-106.5 0,-106.5"/>
<text text-anchor="start" x="8" y="-135.5" font-family="Helvetica,sans-Serif" font-size="10.00">QuantConnect.Indicators.</text>
<text text-anchor="start" x="8" y="-124.5" font-family="Helvetica,sans-Serif" font-size="10.00">CandlestickPatterns.Inverted</text>
<text text-anchor="middle" x="78.5" y="-113.5" font-family="Helvetica,sans-Serif" font-size="10.00">Hammer.ComputeNextValue</text>
</a>
</g>
</g>
<!-- Node2 -->
<g id="node2" class="node">
<title>Node2</title>
<g id="a_node2"><a xlink:href="classQuantConnect_1_1Indicators_1_1CandlestickPatterns_1_1CandlestickPattern.html#abfef9cee8cff1859d77bb2c54ded7322" target="_top" xlink:title="Returns the average range of the previous candles">
<polygon fill="white" stroke="black" points="193,-174.5 193,-215.5 366,-215.5 366,-174.5 193,-174.5"/>
<text text-anchor="start" x="201" y="-203.5" font-family="Helvetica,sans-Serif" font-size="10.00">QuantConnect.Indicators.</text>
<text text-anchor="start" x="201" y="-192.5" font-family="Helvetica,sans-Serif" font-size="10.00">CandlestickPatterns.Candlestick</text>
<text text-anchor="middle" x="279.5" y="-181.5" font-family="Helvetica,sans-Serif" font-size="10.00">Pattern.GetCandleAverage</text>
</a>
</g>
</g>
<!-- Node1&#45;&gt;Node2 -->
<g id="edge1" class="edge">
<title>Node1&#45;&gt;Node2</title>
<path fill="none" stroke="midnightblue" d="M139.75,-147.59C161.57,-155.04 186.39,-163.52 208.95,-171.23"/>
<polygon fill="midnightblue" stroke="midnightblue" points="207.86,-174.56 218.46,-174.48 210.13,-167.94 207.86,-174.56"/>
</g>
<!-- Node4 -->
<g id="node4" class="node">
<title>Node4</title>
<g id="a_node4"><a xlink:href="classQuantConnect_1_1Indicators_1_1CandlestickPatterns_1_1CandlestickPattern.html#a05b2e39af6efdc4ef734663b1c31d61e" target="_top" xlink:title="Returns the range of a candle">
<polygon fill="white" stroke="black" points="402,-142.5 402,-183.5 575,-183.5 575,-142.5 402,-142.5"/>
<text text-anchor="start" x="410" y="-171.5" font-family="Helvetica,sans-Serif" font-size="10.00">QuantConnect.Indicators.</text>
<text text-anchor="start" x="410" y="-160.5" font-family="Helvetica,sans-Serif" font-size="10.00">CandlestickPatterns.Candlestick</text>
<text text-anchor="middle" x="488.5" y="-149.5" font-family="Helvetica,sans-Serif" font-size="10.00">Pattern.GetCandleRange</text>
</a>
</g>
</g>
<!-- Node1&#45;&gt;Node4 -->
<g id="edge9" class="edge">
<title>Node1&#45;&gt;Node4</title>
<path fill="none" stroke="midnightblue" d="M157.2,-133.86C223.86,-139.74 320.19,-148.24 391.63,-154.54"/>
<polygon fill="midnightblue" stroke="midnightblue" points="391.71,-158.06 401.98,-155.45 392.33,-151.09 391.71,-158.06"/>
</g>
<!-- Node6 -->
<g id="node6" class="node">
<title>Node6</title>
<g id="a_node6"><a xlink:href="classQuantConnect_1_1Indicators_1_1CandlestickPatterns_1_1CandlestickPattern.html#ae57bf84c9247ead2c32aab56c2e4ecac" target="_top" xlink:title="Returns the range of the candle&#39;s lower shadow">
<polygon fill="white" stroke="black" points="629.5,-252.5 629.5,-293.5 802.5,-293.5 802.5,-252.5 629.5,-252.5"/>
<text text-anchor="start" x="637.5" y="-281.5" font-family="Helvetica,sans-Serif" font-size="10.00">QuantConnect.Indicators.</text>
<text text-anchor="start" x="637.5" y="-270.5" font-family="Helvetica,sans-Serif" font-size="10.00">CandlestickPatterns.Candlestick</text>
<text text-anchor="middle" x="716" y="-259.5" font-family="Helvetica,sans-Serif" font-size="10.00">Pattern.GetLowerShadow</text>
</a>
</g>
</g>
<!-- Node1&#45;&gt;Node6 -->
<g id="edge10" class="edge">
<title>Node1&#45;&gt;Node6</title>
<path fill="none" stroke="midnightblue" d="M96.25,-147.71C116.45,-171.03 152.75,-207.89 193,-225 332.35,-284.24 511.06,-286.75 619.11,-281.25"/>
<polygon fill="midnightblue" stroke="midnightblue" points="619.55,-284.73 629.34,-280.7 619.17,-277.74 619.55,-284.73"/>
</g>
<!-- Node7 -->
<g id="node7" class="node">
<title>Node7</title>
<g id="a_node7"><a xlink:href="classQuantConnect_1_1Indicators_1_1CandlestickPatterns_1_1CandlestickPattern.html#a47cb6b45c58d94689f6233487e981d10" target="_top" xlink:title="Returns the distance between the close and the open of a candle">
<polygon fill="white" stroke="black" points="629.5,-82.5 629.5,-123.5 802.5,-123.5 802.5,-82.5 629.5,-82.5"/>
<text text-anchor="start" x="637.5" y="-111.5" font-family="Helvetica,sans-Serif" font-size="10.00">QuantConnect.Indicators.</text>
<text text-anchor="start" x="637.5" y="-100.5" font-family="Helvetica,sans-Serif" font-size="10.00">CandlestickPatterns.Candlestick</text>
<text text-anchor="middle" x="716" y="-89.5" font-family="Helvetica,sans-Serif" font-size="10.00">Pattern.GetRealBody</text>
</a>
</g>
</g>
<!-- Node1&#45;&gt;Node7 -->
<g id="edge11" class="edge">
<title>Node1&#45;&gt;Node7</title>
<path fill="none" stroke="midnightblue" d="M157.11,-124.07C273.57,-119.67 493.3,-111.37 619.46,-106.61"/>
<polygon fill="midnightblue" stroke="midnightblue" points="619.63,-110.1 629.5,-106.23 619.37,-103.11 619.63,-110.1"/>
</g>
<!-- Node8 -->
<g id="node8" class="node">
<title>Node8</title>
<g id="a_node8"><a xlink:href="classQuantConnect_1_1Indicators_1_1CandlestickPatterns_1_1CandlestickPattern.html#ab499aa69437c2a6e83b2f1c05421c203" target="_top" xlink:title="Returns the range of the candle&#39;s upper shadow">
<polygon fill="white" stroke="black" points="629.5,-22.5 629.5,-63.5 802.5,-63.5 802.5,-22.5 629.5,-22.5"/>
<text text-anchor="start" x="637.5" y="-51.5" font-family="Helvetica,sans-Serif" font-size="10.00">QuantConnect.Indicators.</text>
<text text-anchor="start" x="637.5" y="-40.5" font-family="Helvetica,sans-Serif" font-size="10.00">CandlestickPatterns.Candlestick</text>
<text text-anchor="middle" x="716" y="-29.5" font-family="Helvetica,sans-Serif" font-size="10.00">Pattern.GetUpperShadow</text>
</a>
</g>
</g>
<!-- Node1&#45;&gt;Node8 -->
<g id="edge13" class="edge">
<title>Node1&#45;&gt;Node8</title>
<path fill="none" stroke="midnightblue" d="M157.11,-116.74C273.57,-101.35 493.3,-72.3 619.46,-55.63"/>
<polygon fill="midnightblue" stroke="midnightblue" points="620.04,-59.08 629.5,-54.3 619.12,-52.14 620.04,-59.08"/>
</g>
<!-- Node9 -->
<g id="node9" class="node">
<title>Node9</title>
<g id="a_node9"><a xlink:href="classQuantConnect_1_1Indicators_1_1CandlestickPatterns_1_1CandlestickPattern.html#ae5f87afc788810cd080db8c80da8d503" target="_top" xlink:title="Returns true if the candle is lower than the previous one (with no body overlap)">
<polygon fill="white" stroke="black" points="193,-0.5 193,-41.5 366,-41.5 366,-0.5 193,-0.5"/>
<text text-anchor="start" x="201" y="-29.5" font-family="Helvetica,sans-Serif" font-size="10.00">QuantConnect.Indicators.</text>
<text text-anchor="start" x="201" y="-18.5" font-family="Helvetica,sans-Serif" font-size="10.00">CandlestickPatterns.Candlestick</text>
<text text-anchor="middle" x="279.5" y="-7.5" font-family="Helvetica,sans-Serif" font-size="10.00">Pattern.GetRealBodyGapDown</text>
</a>
</g>
</g>
<!-- Node1&#45;&gt;Node9 -->
<g id="edge12" class="edge">
<title>Node1&#45;&gt;Node9</title>
<path fill="none" stroke="midnightblue" d="M109.5,-106.26C131.92,-91.26 163.63,-71.06 193,-56 199.92,-52.45 207.3,-48.99 214.69,-45.71"/>
<polygon fill="midnightblue" stroke="midnightblue" points="216.26,-48.84 224.05,-41.66 213.48,-42.42 216.26,-48.84"/>
</g>
<!-- Node3 -->
<g id="node3" class="node">
<title>Node3</title>
<g id="a_node3"><a xlink:href="classQuantConnect_1_1Indicators_1_1CandlestickPatterns_1_1CandleSettings.html#a1e65d2caf61e018e94574519fee75620" target="_top" xlink:title="Returns the candle setting for the requested type">
<polygon fill="white" stroke="black" points="611,-203 611,-233 821,-233 821,-203 611,-203"/>
<text text-anchor="start" x="619" y="-221" font-family="Helvetica,sans-Serif" font-size="10.00">QuantConnect.Indicators.</text>
<text text-anchor="middle" x="716" y="-210" font-family="Helvetica,sans-Serif" font-size="10.00">CandlestickPatterns.CandleSettings.Get</text>
</a>
</g>
</g>
<!-- Node2&#45;&gt;Node3 -->
<g id="edge2" class="edge">
<title>Node2&#45;&gt;Node3</title>
<path fill="none" stroke="midnightblue" d="M366.08,-199.53C433.14,-203.08 527.08,-208.05 600.59,-211.94"/>
<polygon fill="midnightblue" stroke="midnightblue" points="600.65,-215.45 610.82,-212.49 601.02,-208.46 600.65,-215.45"/>
</g>
<!-- Node2&#45;&gt;Node4 -->
<g id="edge3" class="edge">
<title>Node2&#45;&gt;Node4</title>
<path fill="none" stroke="midnightblue" d="M366.19,-181.75C374.66,-180.44 383.3,-179.11 391.87,-177.78"/>
<polygon fill="midnightblue" stroke="midnightblue" points="392.53,-181.22 401.88,-176.24 391.46,-174.31 392.53,-181.22"/>
</g>
<!-- Node4&#45;&gt;Node3 -->
<g id="edge4" class="edge">
<title>Node4&#45;&gt;Node3</title>
<path fill="none" stroke="midnightblue" d="M572.49,-183.56C585.38,-186.74 598.55,-189.97 611,-193 621.12,-195.47 631.79,-198.05 642.3,-200.58"/>
<polygon fill="midnightblue" stroke="midnightblue" points="641.75,-204.05 652.29,-202.99 643.39,-197.25 641.75,-204.05"/>
</g>
<!-- Node5 -->
<g id="node5" class="node">
<title>Node5</title>
<g id="a_node5"><a xlink:href="classQuantConnect_1_1Indicators_1_1CandlestickPatterns_1_1CandlestickPattern.html#ae61e2032511d5338a48f8d5b8be906b7" target="_top" xlink:title="Returns the full range of the candle">
<polygon fill="white" stroke="black" points="629.5,-142.5 629.5,-183.5 802.5,-183.5 802.5,-142.5 629.5,-142.5"/>
<text text-anchor="start" x="637.5" y="-171.5" font-family="Helvetica,sans-Serif" font-size="10.00">QuantConnect.Indicators.</text>
<text text-anchor="start" x="637.5" y="-160.5" font-family="Helvetica,sans-Serif" font-size="10.00">CandlestickPatterns.Candlestick</text>
<text text-anchor="middle" x="716" y="-149.5" font-family="Helvetica,sans-Serif" font-size="10.00">Pattern.GetHighLowRange</text>
</a>
</g>
</g>
<!-- Node4&#45;&gt;Node5 -->
<g id="edge5" class="edge">
<title>Node4&#45;&gt;Node5</title>
<path fill="none" stroke="midnightblue" d="M575.07,-163C589.55,-163 604.66,-163 619.38,-163"/>
<polygon fill="midnightblue" stroke="midnightblue" points="619.49,-166.5 629.49,-163 619.48,-159.5 619.49,-166.5"/>
</g>
<!-- Node4&#45;&gt;Node6 -->
<g id="edge6" class="edge">
<title>Node4&#45;&gt;Node6</title>
<path fill="none" stroke="midnightblue" d="M515.63,-183.58C539.36,-201.42 575.9,-226.84 611,-243 615.58,-245.11 620.34,-247.1 625.19,-248.99"/>
<polygon fill="midnightblue" stroke="midnightblue" points="624.02,-252.29 634.61,-252.47 626.45,-245.72 624.02,-252.29"/>
</g>
<!-- Node4&#45;&gt;Node7 -->
<g id="edge7" class="edge">
<title>Node4&#45;&gt;Node7</title>
<path fill="none" stroke="midnightblue" d="M566.79,-142.44C586.51,-137.19 607.84,-131.51 628.02,-126.14"/>
<polygon fill="midnightblue" stroke="midnightblue" points="629.05,-129.49 637.81,-123.54 627.25,-122.73 629.05,-129.49"/>
</g>
<!-- Node4&#45;&gt;Node8 -->
<g id="edge8" class="edge">
<title>Node4&#45;&gt;Node8</title>
<path fill="none" stroke="midnightblue" d="M512.06,-142.38C535.3,-122.12 573.35,-91.62 611,-73 615.09,-70.98 619.34,-69.07 623.68,-67.27"/>
<polygon fill="midnightblue" stroke="midnightblue" points="625.27,-70.41 633.31,-63.51 622.72,-63.89 625.27,-70.41"/>
</g>
</g>
</svg>
