<?xml version="1.0" encoding="UTF-8" standalone="no"?>
<!DOCTYPE svg PUBLIC "-//W3C//DTD SVG 1.1//EN"
 "http://www.w3.org/Graphics/SVG/1.1/DTD/svg11.dtd">
<!-- Generated by graphviz version 2.43.0 (0)
 -->
<!-- Title: QuantConnect.Globals.GetDataFolderPath Pages: 1 -->
<svg width="1484pt" height="1200pt"
 viewBox="0.00 0.00 1484.00 1199.50" xmlns="http://www.w3.org/2000/svg" xmlns:xlink="http://www.w3.org/1999/xlink">
<g id="graph0" class="graph" transform="scale(1 1) rotate(0) translate(4 1195.5)">
<title>QuantConnect.Globals.GetDataFolderPath</title>
<polygon fill="white" stroke="transparent" points="-4,4 -4,-1195.5 1480,-1195.5 1480,4 -4,4"/>
<!-- Node1 -->
<g id="node1" class="node">
<title>Node1</title>
<g id="a_node1"><a xlink:title="Helper method that will build a data folder path checking if it exists on the cache folder else will ...">
<polygon fill="#bfbfbf" stroke="black" points="1330,-561 1330,-591 1476,-591 1476,-561 1330,-561"/>
<text text-anchor="start" x="1338" y="-579" font-family="Helvetica,sans-Serif" font-size="10.00">QuantConnect.Globals.Get</text>
<text text-anchor="middle" x="1403" y="-568" font-family="Helvetica,sans-Serif" font-size="10.00">DataFolderPath</text>
</a>
</g>
</g>
<!-- Node2 -->
<g id="node2" class="node">
<title>Node2</title>
<g id="a_node2"><a xlink:href="classQuantConnect_1_1Securities_1_1MarketHoursDatabase.html#aa01232d91c17c556b18ea8f1f7fabcd0" target="_top" xlink:title="Gets the instance of the MarketHoursDatabase class produced by reading in the market hours data found...">
<polygon fill="white" stroke="black" points="1117.5,-344.5 1117.5,-385.5 1293.5,-385.5 1293.5,-344.5 1117.5,-344.5"/>
<text text-anchor="start" x="1125.5" y="-373.5" font-family="Helvetica,sans-Serif" font-size="10.00">QuantConnect.Securities.</text>
<text text-anchor="start" x="1125.5" y="-362.5" font-family="Helvetica,sans-Serif" font-size="10.00">MarketHoursDatabase.FromData</text>
<text text-anchor="middle" x="1205.5" y="-351.5" font-family="Helvetica,sans-Serif" font-size="10.00">Folder</text>
</a>
</g>
</g>
<!-- Node1&#45;&gt;Node2 -->
<g id="edge1" class="edge">
<title>Node1&#45;&gt;Node2</title>
<path fill="none" stroke="midnightblue" d="M1381.12,-553.46C1343,-512.32 1262.67,-425.62 1225.77,-385.8"/>
<polygon fill="midnightblue" stroke="midnightblue" points="1378.58,-555.87 1387.94,-560.83 1383.71,-551.11 1378.58,-555.87"/>
</g>
<!-- Node22 -->
<g id="node22" class="node">
<title>Node22</title>
<g id="a_node22"><a xlink:href="classQuantConnect_1_1Securities_1_1SymbolPropertiesDatabase.html#aee26fb588793fd311c44eb8b2909cc33" target="_top" xlink:title="Gets the instance of the SymbolPropertiesDatabase class produced by reading in the symbol properties ...">
<polygon fill="white" stroke="black" points="1117,-788.5 1117,-829.5 1294,-829.5 1294,-788.5 1117,-788.5"/>
<text text-anchor="start" x="1125" y="-817.5" font-family="Helvetica,sans-Serif" font-size="10.00">QuantConnect.Securities.</text>
<text text-anchor="start" x="1125" y="-806.5" font-family="Helvetica,sans-Serif" font-size="10.00">SymbolPropertiesDatabase.From</text>
<text text-anchor="middle" x="1205.5" y="-795.5" font-family="Helvetica,sans-Serif" font-size="10.00">DataFolder</text>
</a>
</g>
</g>
<!-- Node1&#45;&gt;Node22 -->
<g id="edge21" class="edge">
<title>Node1&#45;&gt;Node22</title>
<path fill="none" stroke="midnightblue" d="M1382.6,-599.12C1344.42,-644.62 1260.09,-745.13 1223.73,-788.46"/>
<polygon fill="midnightblue" stroke="midnightblue" points="1385.43,-601.2 1389.17,-591.29 1380.06,-596.7 1385.43,-601.2"/>
</g>
<!-- Node3 -->
<g id="node3" class="node">
<title>Node3</title>
<g id="a_node3"><a xlink:href="classQuantConnect_1_1ToolBox_1_1RandomDataGenerator_1_1BaseSymbolGenerator.html#a7842abbbc95ddc5b061edf119fc3c7b8" target="_top" xlink:title="Base constructor implementation for Symbol generator">
<polygon fill="white" stroke="black" points="826,-563.5 826,-604.5 1029,-604.5 1029,-563.5 826,-563.5"/>
<text text-anchor="start" x="834" y="-592.5" font-family="Helvetica,sans-Serif" font-size="10.00">QuantConnect.ToolBox.Random</text>
<text text-anchor="start" x="834" y="-581.5" font-family="Helvetica,sans-Serif" font-size="10.00">DataGenerator.BaseSymbolGenerator.</text>
<text text-anchor="middle" x="927.5" y="-570.5" font-family="Helvetica,sans-Serif" font-size="10.00">BaseSymbolGenerator</text>
</a>
</g>
</g>
<!-- Node2&#45;&gt;Node3 -->
<g id="edge2" class="edge">
<title>Node2&#45;&gt;Node3</title>
<path fill="none" stroke="midnightblue" d="M1193.53,-395.27C1176.44,-437.89 1139.22,-514.75 1081,-554 1065.56,-564.41 1047.37,-571.38 1029.02,-576.02"/>
<polygon fill="midnightblue" stroke="midnightblue" points="1196.88,-396.3 1197.26,-385.71 1190.36,-393.76 1196.88,-396.3"/>
</g>
<!-- Node4 -->
<g id="node4" class="node">
<title>Node4</title>
<g id="a_node4"><a xlink:href="classQuantConnect_1_1Data_1_1LeanDataWriter.html#a84b23a2db3f964f4b90cdca539996aa1" target="_top" xlink:title="Downloads historical data from the brokerage and saves it in LEAN format.">
<polygon fill="white" stroke="black" points="847,-514 847,-544 1008,-544 1008,-514 847,-514"/>
<text text-anchor="start" x="855" y="-532" font-family="Helvetica,sans-Serif" font-size="10.00">QuantConnect.Data.LeanData</text>
<text text-anchor="middle" x="927.5" y="-521" font-family="Helvetica,sans-Serif" font-size="10.00">Writer.DownloadAndSave</text>
</a>
</g>
</g>
<!-- Node2&#45;&gt;Node4 -->
<g id="edge3" class="edge">
<title>Node2&#45;&gt;Node4</title>
<path fill="none" stroke="midnightblue" d="M1187.32,-394.13C1166.51,-426.6 1128.3,-477.95 1081,-504 1059.03,-516.1 1032.76,-522.7 1008.27,-526.2"/>
<polygon fill="midnightblue" stroke="midnightblue" points="1190.38,-395.84 1192.72,-385.51 1184.45,-392.13 1190.38,-395.84"/>
</g>
<!-- Node5 -->
<g id="node5" class="node">
<title>Node5</title>
<g id="a_node5"><a xlink:href="classQuantConnect_1_1Lean_1_1Engine_1_1DataFeeds_1_1Queues_1_1FakeDataQueue.html#a29c30561d41e3965d325bf9d94a22409" target="_top" xlink:title="Initializes a new instance of the FakeDataQueue class to randomly emit data for each symbol">
<polygon fill="white" stroke="black" points="832,-453.5 832,-494.5 1023,-494.5 1023,-453.5 832,-453.5"/>
<text text-anchor="start" x="840" y="-482.5" font-family="Helvetica,sans-Serif" font-size="10.00">QuantConnect.Lean.Engine.</text>
<text text-anchor="start" x="840" y="-471.5" font-family="Helvetica,sans-Serif" font-size="10.00">DataFeeds.Queues.FakeDataQueue.</text>
<text text-anchor="middle" x="927.5" y="-460.5" font-family="Helvetica,sans-Serif" font-size="10.00">FakeDataQueue</text>
</a>
</g>
</g>
<!-- Node2&#45;&gt;Node5 -->
<g id="edge4" class="edge">
<title>Node2&#45;&gt;Node5</title>
<path fill="none" stroke="midnightblue" d="M1167.56,-391.34C1143.82,-407.18 1111.77,-426.61 1081,-439 1062.73,-446.35 1042.58,-452.35 1023.07,-457.17"/>
<polygon fill="midnightblue" stroke="midnightblue" points="1169.6,-394.19 1175.92,-385.69 1165.67,-388.4 1169.6,-394.19"/>
</g>
<!-- Node6 -->
<g id="node6" class="node">
<title>Node6</title>
<g id="a_node6"><a xlink:href="classQuantConnect_1_1Securities_1_1Future_1_1FuturesExpiryUtilityFunctions.html#a9aa543735102b14ff694b42d1ee142d4" target="_top" xlink:title="Get holiday list from the MHDB given the market and the symbol of the security">
<polygon fill="white" stroke="black" points="529,-593.5 529,-634.5 726,-634.5 726,-593.5 529,-593.5"/>
<text text-anchor="start" x="537" y="-622.5" font-family="Helvetica,sans-Serif" font-size="10.00">QuantConnect.Securities.</text>
<text text-anchor="start" x="537" y="-611.5" font-family="Helvetica,sans-Serif" font-size="10.00">Future.FuturesExpiryUtilityFunctions.</text>
<text text-anchor="middle" x="627.5" y="-600.5" font-family="Helvetica,sans-Serif" font-size="10.00">GetHolidays</text>
</a>
</g>
</g>
<!-- Node2&#45;&gt;Node6 -->
<g id="edge5" class="edge">
<title>Node2&#45;&gt;Node6</title>
<path fill="none" stroke="midnightblue" d="M1130.57,-388.43C1114.35,-393.05 1097.18,-397.53 1081,-401 946.29,-429.91 894.84,-377.82 774,-444 709.09,-479.55 660.21,-556.33 639.45,-593.29"/>
<polygon fill="midnightblue" stroke="midnightblue" points="1131.9,-391.69 1140.53,-385.55 1129.95,-384.97 1131.9,-391.69"/>
</g>
<!-- Node7 -->
<g id="node7" class="node">
<title>Node7</title>
<g id="a_node7"><a xlink:href="classQuantConnect_1_1Securities_1_1Option_1_1OptionSymbol.html#a75217e30f16bc69188675c474bb703b0" target="_top" xlink:title="Returns the last trading date for the option contract">
<polygon fill="white" stroke="black" points="537,-283.5 537,-324.5 718,-324.5 718,-283.5 537,-283.5"/>
<text text-anchor="start" x="545" y="-312.5" font-family="Helvetica,sans-Serif" font-size="10.00">QuantConnect.Securities.</text>
<text text-anchor="start" x="545" y="-301.5" font-family="Helvetica,sans-Serif" font-size="10.00">Option.OptionSymbol.GetLastDay</text>
<text text-anchor="middle" x="627.5" y="-290.5" font-family="Helvetica,sans-Serif" font-size="10.00">OfTrading</text>
</a>
</g>
</g>
<!-- Node2&#45;&gt;Node7 -->
<g id="edge6" class="edge">
<title>Node2&#45;&gt;Node7</title>
<path fill="none" stroke="midnightblue" d="M1197.49,-334.63C1184.29,-285.33 1150.59,-189.37 1081,-149 1021.99,-114.76 836.61,-121.9 774,-149 741.23,-163.18 674.87,-244.48 644.42,-283.33"/>
<polygon fill="midnightblue" stroke="midnightblue" points="1194.12,-335.58 1200,-344.4 1200.9,-333.84 1194.12,-335.58"/>
</g>
<!-- Node9 -->
<g id="node9" class="node">
<title>Node9</title>
<g id="a_node9"><a xlink:href="classQuantConnect_1_1Lean_1_1Engine_1_1DataFeeds_1_1BacktestingChainProvider.html#a903ec0b9ee074f1a7ee6d1eccc5f712b" target="_top" xlink:title="Get the contract symbols associated with the given canonical symbol and date">
<polygon fill="white" stroke="black" points="827.5,-60.5 827.5,-101.5 1027.5,-101.5 1027.5,-60.5 827.5,-60.5"/>
<text text-anchor="start" x="835.5" y="-89.5" font-family="Helvetica,sans-Serif" font-size="10.00">QuantConnect.Lean.Engine.</text>
<text text-anchor="start" x="835.5" y="-78.5" font-family="Helvetica,sans-Serif" font-size="10.00">DataFeeds.BacktestingChainProvider.</text>
<text text-anchor="middle" x="927.5" y="-67.5" font-family="Helvetica,sans-Serif" font-size="10.00">GetSymbols</text>
</a>
</g>
</g>
<!-- Node2&#45;&gt;Node9 -->
<g id="edge8" class="edge">
<title>Node2&#45;&gt;Node9</title>
<path fill="none" stroke="midnightblue" d="M1198.34,-334.68C1185.92,-281.72 1152.74,-172.6 1081,-116 1065.65,-103.89 1046.86,-95.82 1027.8,-90.48"/>
<polygon fill="midnightblue" stroke="midnightblue" points="1194.94,-335.51 1200.55,-344.5 1201.76,-333.97 1194.94,-335.51"/>
</g>
<!-- Node12 -->
<g id="node12" class="node">
<title>Node12</title>
<g id="a_node12"><a xlink:href="classQuantConnect_1_1Lean_1_1Engine_1_1DataFeeds_1_1FileSystemDataFeed.html#a1ef65936a48995f63e09468a310e57b1" target="_top" xlink:title="Initializes the data feed for the specified job and algorithm">
<polygon fill="white" stroke="black" points="819,-328 819,-358 1036,-358 1036,-328 819,-328"/>
<text text-anchor="start" x="827" y="-346" font-family="Helvetica,sans-Serif" font-size="10.00">QuantConnect.Lean.Engine.</text>
<text text-anchor="middle" x="927.5" y="-335" font-family="Helvetica,sans-Serif" font-size="10.00">DataFeeds.FileSystemDataFeed.Initialize</text>
</a>
</g>
</g>
<!-- Node2&#45;&gt;Node12 -->
<g id="edge11" class="edge">
<title>Node2&#45;&gt;Node12</title>
<path fill="none" stroke="midnightblue" d="M1107.09,-357.24C1084.12,-355.4 1059.49,-353.44 1036.1,-351.58"/>
<polygon fill="midnightblue" stroke="midnightblue" points="1106.93,-360.73 1117.17,-358.04 1107.48,-353.76 1106.93,-360.73"/>
</g>
<!-- Node13 -->
<g id="node13" class="node">
<title>Node13</title>
<g id="a_node13"><a xlink:href="classQuantConnect_1_1Extensions.html#afb55d4519a8fd894c121e9b27b8473f1" target="_top" xlink:title="Helper method to determine if a specific market is open">
<polygon fill="white" stroke="black" points="855,-279 855,-309 1000,-309 1000,-279 855,-279"/>
<text text-anchor="start" x="863" y="-297" font-family="Helvetica,sans-Serif" font-size="10.00">QuantConnect.Extensions.</text>
<text text-anchor="middle" x="927.5" y="-286" font-family="Helvetica,sans-Serif" font-size="10.00">IsMarketOpen</text>
</a>
</g>
</g>
<!-- Node2&#45;&gt;Node13 -->
<g id="edge12" class="edge">
<title>Node2&#45;&gt;Node13</title>
<path fill="none" stroke="midnightblue" d="M1146.46,-340.74C1126.05,-332.91 1102.76,-324.78 1081,-319 1054.94,-312.08 1025.84,-306.74 1000.1,-302.81"/>
<polygon fill="midnightblue" stroke="midnightblue" points="1145.34,-344.06 1155.93,-344.42 1147.88,-337.53 1145.34,-344.06"/>
</g>
<!-- Node14 -->
<g id="node14" class="node">
<title>Node14</title>
<g id="a_node14"><a xlink:href="classQuantConnect_1_1Securities_1_1Option_1_1OptionSymbol.html#a6ef1782fdc060c6057dab1304d6507b0" target="_top" xlink:title="Returns true if the option contract is expired at the specified time">
<polygon fill="white" stroke="black" points="845.5,-218.5 845.5,-259.5 1009.5,-259.5 1009.5,-218.5 845.5,-218.5"/>
<text text-anchor="start" x="853.5" y="-247.5" font-family="Helvetica,sans-Serif" font-size="10.00">QuantConnect.Securities.</text>
<text text-anchor="start" x="853.5" y="-236.5" font-family="Helvetica,sans-Serif" font-size="10.00">Option.OptionSymbol.IsOption</text>
<text text-anchor="middle" x="927.5" y="-225.5" font-family="Helvetica,sans-Serif" font-size="10.00">ContractExpired</text>
</a>
</g>
</g>
<!-- Node2&#45;&gt;Node14 -->
<g id="edge13" class="edge">
<title>Node2&#45;&gt;Node14</title>
<path fill="none" stroke="midnightblue" d="M1176.24,-337.13C1152.69,-315.52 1117.26,-286.55 1081,-270 1058.88,-259.91 1033.46,-253.08 1009.8,-248.47"/>
<polygon fill="midnightblue" stroke="midnightblue" points="1174.05,-339.88 1183.75,-344.15 1178.83,-334.76 1174.05,-339.88"/>
</g>
<!-- Node15 -->
<g id="node15" class="node">
<title>Node15</title>
<g id="a_node15"><a xlink:href="classQuantConnect_1_1ToolBox_1_1LeanDataReader.html#ac23439fd286135eaf5c3047bf52eb517" target="_top" xlink:title="Initialize a instance of LeanDataReader from a path to a zipped data file. It also supports declaring...">
<polygon fill="white" stroke="black" points="297.5,-406 297.5,-436 455.5,-436 455.5,-406 297.5,-406"/>
<text text-anchor="start" x="305.5" y="-424" font-family="Helvetica,sans-Serif" font-size="10.00">QuantConnect.ToolBox.Lean</text>
<text text-anchor="middle" x="376.5" y="-413" font-family="Helvetica,sans-Serif" font-size="10.00">DataReader.LeanDataReader</text>
</a>
</g>
</g>
<!-- Node2&#45;&gt;Node15 -->
<g id="edge14" class="edge">
<title>Node2&#45;&gt;Node15</title>
<path fill="none" stroke="midnightblue" d="M1106.97,-371.6C941.08,-382.84 607.22,-405.44 455.6,-415.71"/>
<polygon fill="midnightblue" stroke="midnightblue" points="1107.43,-375.08 1117.17,-370.91 1106.96,-368.1 1107.43,-375.08"/>
</g>
<!-- Node16 -->
<g id="node16" class="node">
<title>Node16</title>
<g id="a_node16"><a xlink:href="classQuantConnect_1_1Algorithm_1_1Framework_1_1Selection_1_1OpenInterestFutureUniverseSelectionModel.html#a98413916c89c855b08201ea211442885" target="_top" xlink:title="Creates a new instance of OpenInterestFutureUniverseSelectionModel">
<polygon fill="white" stroke="black" points="774,-158.5 774,-199.5 1081,-199.5 1081,-158.5 774,-158.5"/>
<text text-anchor="start" x="782" y="-187.5" font-family="Helvetica,sans-Serif" font-size="10.00">QuantConnect.Algorithm.Framework.</text>
<text text-anchor="start" x="782" y="-176.5" font-family="Helvetica,sans-Serif" font-size="10.00">Selection.OpenInterestFutureUniverse</text>
<text text-anchor="middle" x="927.5" y="-165.5" font-family="Helvetica,sans-Serif" font-size="10.00">SelectionModel.OpenInterestFutureUniverseSelectionModel</text>
</a>
</g>
</g>
<!-- Node2&#45;&gt;Node16 -->
<g id="edge15" class="edge">
<title>Node2&#45;&gt;Node16</title>
<path fill="none" stroke="midnightblue" d="M1189.6,-335.41C1169.89,-299.49 1131.62,-239.88 1081,-209 1075.24,-205.49 1069.15,-202.37 1062.85,-199.62"/>
<polygon fill="midnightblue" stroke="midnightblue" points="1186.63,-337.28 1194.44,-344.44 1192.8,-333.97 1186.63,-337.28"/>
</g>
<!-- Node17 -->
<g id="node17" class="node">
<title>Node17</title>
<g id="a_node17"><a xlink:href="classQuantConnect_1_1Algorithm_1_1QCAlgorithm.html#a373d444cdc75004141f693cca0b10b1e" target="_top" xlink:title="QCAlgorithm Base Class Constructor &#45; Initialize the underlying QCAlgorithm components....">
<polygon fill="white" stroke="black" points="825,-624 825,-654 1030,-654 1030,-624 825,-624"/>
<text text-anchor="start" x="833" y="-642" font-family="Helvetica,sans-Serif" font-size="10.00">QuantConnect.Algorithm.QCAlgorithm.</text>
<text text-anchor="middle" x="927.5" y="-631" font-family="Helvetica,sans-Serif" font-size="10.00">QCAlgorithm</text>
</a>
</g>
</g>
<!-- Node2&#45;&gt;Node17 -->
<g id="edge16" class="edge">
<title>Node2&#45;&gt;Node17</title>
<path fill="none" stroke="midnightblue" d="M1198.69,-395.78C1186.83,-449.47 1154.49,-559.69 1081,-614 1066.22,-624.92 1048.43,-631.79 1030.3,-635.99"/>
<polygon fill="midnightblue" stroke="midnightblue" points="1202.15,-396.34 1200.8,-385.83 1195.3,-394.89 1202.15,-396.34"/>
</g>
<!-- Node18 -->
<g id="node18" class="node">
<title>Node18</title>
<g id="a_node18"><a xlink:href="classQuantConnect_1_1Securities_1_1MarketHoursDatabase.html#adc61fecd8e1a8aa311cc60bc159220d1" target="_top" xlink:title="Reload entries dictionary from MHDB file and merge them with previous custom ones">
<polygon fill="white" stroke="black" points="829.5,-9 829.5,-39 1025.5,-39 1025.5,-9 829.5,-9"/>
<text text-anchor="start" x="837.5" y="-27" font-family="Helvetica,sans-Serif" font-size="10.00">QuantConnect.Securities.</text>
<text text-anchor="middle" x="927.5" y="-16" font-family="Helvetica,sans-Serif" font-size="10.00">MarketHoursDatabase.ReloadEntries</text>
</a>
</g>
</g>
<!-- Node2&#45;&gt;Node18 -->
<g id="edge17" class="edge">
<title>Node2&#45;&gt;Node18</title>
<path fill="none" stroke="midnightblue" d="M1202.04,-333.93C1195.21,-270.07 1170.15,-123.93 1081,-51 1065.29,-38.15 1045.58,-30.53 1025.6,-26.17"/>
<polygon fill="midnightblue" stroke="midnightblue" points="1198.58,-334.55 1203.05,-344.16 1205.55,-333.86 1198.58,-334.55"/>
</g>
<!-- Node8 -->
<g id="node8" class="node">
<title>Node8</title>
<g id="a_node8"><a xlink:href="classQuantConnect_1_1Extensions.html#a0ffdbe5701923c4217f90dd5fbe87641" target="_top" xlink:title="Gets the delisting date for the provided Symbol">
<polygon fill="white" stroke="black" points="304,-289 304,-319 449,-319 449,-289 304,-289"/>
<text text-anchor="start" x="312" y="-307" font-family="Helvetica,sans-Serif" font-size="10.00">QuantConnect.Extensions.</text>
<text text-anchor="middle" x="376.5" y="-296" font-family="Helvetica,sans-Serif" font-size="10.00">GetDelistingDate</text>
</a>
</g>
</g>
<!-- Node7&#45;&gt;Node8 -->
<g id="edge7" class="edge">
<title>Node7&#45;&gt;Node8</title>
<path fill="none" stroke="midnightblue" d="M526.71,-304C500.75,-304 473.3,-304 449.11,-304"/>
<polygon fill="midnightblue" stroke="midnightblue" points="526.96,-307.5 536.96,-304 526.96,-300.5 526.96,-307.5"/>
</g>
<!-- Node10 -->
<g id="node10" class="node">
<title>Node10</title>
<g id="a_node10"><a xlink:href="classQuantConnect_1_1Lean_1_1Engine_1_1DataFeeds_1_1BacktestingFutureChainProvider.html#ad95ac9ea6895b03fa51209aa7e9c2fb4" target="_top" xlink:title="Gets the list of future contracts for a given underlying symbol">
<polygon fill="white" stroke="black" points="533.5,-120.5 533.5,-161.5 721.5,-161.5 721.5,-120.5 533.5,-120.5"/>
<text text-anchor="start" x="541.5" y="-149.5" font-family="Helvetica,sans-Serif" font-size="10.00">QuantConnect.Lean.Engine.</text>
<text text-anchor="start" x="541.5" y="-138.5" font-family="Helvetica,sans-Serif" font-size="10.00">DataFeeds.BacktestingFutureChain</text>
<text text-anchor="middle" x="627.5" y="-127.5" font-family="Helvetica,sans-Serif" font-size="10.00">Provider.GetFutureContractList</text>
</a>
</g>
</g>
<!-- Node9&#45;&gt;Node10 -->
<g id="edge9" class="edge">
<title>Node9&#45;&gt;Node10</title>
<path fill="none" stroke="midnightblue" d="M817.17,-103.01C785.76,-109.34 751.82,-116.17 721.5,-122.27"/>
<polygon fill="midnightblue" stroke="midnightblue" points="818.16,-106.38 827.27,-100.98 816.78,-99.52 818.16,-106.38"/>
</g>
<!-- Node11 -->
<g id="node11" class="node">
<title>Node11</title>
<g id="a_node11"><a xlink:href="classQuantConnect_1_1Lean_1_1Engine_1_1DataFeeds_1_1BacktestingOptionChainProvider.html#a5b140615fad8e3c0f8d08597a7ca1509" target="_top" xlink:title="Gets the list of option contracts for a given underlying symbol">
<polygon fill="white" stroke="black" points="533,-60.5 533,-101.5 722,-101.5 722,-60.5 533,-60.5"/>
<text text-anchor="start" x="541" y="-89.5" font-family="Helvetica,sans-Serif" font-size="10.00">QuantConnect.Lean.Engine.</text>
<text text-anchor="start" x="541" y="-78.5" font-family="Helvetica,sans-Serif" font-size="10.00">DataFeeds.BacktestingOptionChain</text>
<text text-anchor="middle" x="627.5" y="-67.5" font-family="Helvetica,sans-Serif" font-size="10.00">Provider.GetOptionContractList</text>
</a>
</g>
</g>
<!-- Node9&#45;&gt;Node11 -->
<g id="edge10" class="edge">
<title>Node9&#45;&gt;Node11</title>
<path fill="none" stroke="midnightblue" d="M817.22,-81C785.97,-81 752.21,-81 722,-81"/>
<polygon fill="midnightblue" stroke="midnightblue" points="817.27,-84.5 827.27,-81 817.27,-77.5 817.27,-84.5"/>
</g>
<!-- Node19 -->
<g id="node19" class="node">
<title>Node19</title>
<g id="a_node19"><a xlink:href="classQuantConnect_1_1Lean_1_1Engine_1_1RealTime_1_1LiveTradingRealTimeHandler.html#ae4db5652de58d7c7a5f6e182cba561d7" target="_top" xlink:title="Resets the market hours database, forcing a reload when reused. Called in tests where multiple algori...">
<polygon fill="white" stroke="black" points="523,-0.5 523,-41.5 732,-41.5 732,-0.5 523,-0.5"/>
<text text-anchor="start" x="531" y="-29.5" font-family="Helvetica,sans-Serif" font-size="10.00">QuantConnect.Lean.Engine.</text>
<text text-anchor="start" x="531" y="-18.5" font-family="Helvetica,sans-Serif" font-size="10.00">RealTime.LiveTradingRealTimeHandler.</text>
<text text-anchor="middle" x="627.5" y="-7.5" font-family="Helvetica,sans-Serif" font-size="10.00">ResetMarketHoursDatabase</text>
</a>
</g>
</g>
<!-- Node18&#45;&gt;Node19 -->
<g id="edge18" class="edge">
<title>Node18&#45;&gt;Node19</title>
<path fill="none" stroke="midnightblue" d="M819.02,-22.92C790.74,-22.63 760.29,-22.33 732.2,-22.04"/>
<polygon fill="midnightblue" stroke="midnightblue" points="819.3,-26.42 829.34,-23.02 819.37,-19.42 819.3,-26.42"/>
</g>
<!-- Node20 -->
<g id="node20" class="node">
<title>Node20</title>
<g id="a_node20"><a xlink:href="classQuantConnect_1_1Lean_1_1Engine_1_1RealTime_1_1LiveTradingRealTimeHandler.html#a51442cfa23877834a03e10bb21a7a5a9" target="_top" xlink:title="Refresh the market hours for each security in the given date">
<polygon fill="white" stroke="black" points="272,-0.5 272,-41.5 481,-41.5 481,-0.5 272,-0.5"/>
<text text-anchor="start" x="280" y="-29.5" font-family="Helvetica,sans-Serif" font-size="10.00">QuantConnect.Lean.Engine.</text>
<text text-anchor="start" x="280" y="-18.5" font-family="Helvetica,sans-Serif" font-size="10.00">RealTime.LiveTradingRealTimeHandler.</text>
<text text-anchor="middle" x="376.5" y="-7.5" font-family="Helvetica,sans-Serif" font-size="10.00">RefreshMarketHoursToday</text>
</a>
</g>
</g>
<!-- Node19&#45;&gt;Node20 -->
<g id="edge19" class="edge">
<title>Node19&#45;&gt;Node20</title>
<path fill="none" stroke="midnightblue" d="M512.67,-21C502.16,-21 491.54,-21 481.13,-21"/>
<polygon fill="midnightblue" stroke="midnightblue" points="512.7,-24.5 522.7,-21 512.7,-17.5 512.7,-24.5"/>
</g>
<!-- Node21 -->
<g id="node21" class="node">
<title>Node21</title>
<g id="a_node21"><a xlink:href="classQuantConnect_1_1Lean_1_1Engine_1_1RealTime_1_1LiveTradingRealTimeHandler.html#a1b3eae56614996b86125cbd7c28cbe42" target="_top" xlink:title="Initializes the real time handler for the specified algorithm and job">
<polygon fill="white" stroke="black" points="0,-6 0,-36 236,-36 236,-6 0,-6"/>
<text text-anchor="start" x="8" y="-24" font-family="Helvetica,sans-Serif" font-size="10.00">QuantConnect.Lean.Engine.</text>
<text text-anchor="middle" x="118" y="-13" font-family="Helvetica,sans-Serif" font-size="10.00">RealTime.LiveTradingRealTimeHandler.Setup</text>
</a>
</g>
</g>
<!-- Node20&#45;&gt;Node21 -->
<g id="edge20" class="edge">
<title>Node20&#45;&gt;Node21</title>
<path fill="none" stroke="midnightblue" d="M261.88,-21C253.29,-21 244.62,-21 236.01,-21"/>
<polygon fill="midnightblue" stroke="midnightblue" points="261.91,-24.5 271.91,-21 261.91,-17.5 261.91,-24.5"/>
</g>
<!-- Node22&#45;&gt;Node3 -->
<g id="edge23" class="edge">
<title>Node22&#45;&gt;Node3</title>
<path fill="none" stroke="midnightblue" d="M1194.09,-778.94C1177.4,-735.47 1140.37,-655.81 1081,-615 1065.64,-604.44 1047.48,-597.32 1029.14,-592.55"/>
<polygon fill="midnightblue" stroke="midnightblue" points="1190.85,-780.26 1197.62,-788.41 1197.41,-777.81 1190.85,-780.26"/>
</g>
<!-- Node22&#45;&gt;Node17 -->
<g id="edge40" class="edge">
<title>Node22&#45;&gt;Node17</title>
<path fill="none" stroke="midnightblue" d="M1188.14,-779.45C1167.74,-745.63 1129.56,-691.41 1081,-664 1065.58,-655.3 1047.97,-649.42 1030.34,-645.49"/>
<polygon fill="midnightblue" stroke="midnightblue" points="1185.32,-781.56 1193.41,-788.4 1191.35,-778.01 1185.32,-781.56"/>
</g>
<!-- Node23 -->
<g id="node23" class="node">
<title>Node23</title>
<g id="a_node23"><a xlink:href="classQuantConnect_1_1ToolBox_1_1AlgoSeekFuturesConverter_1_1AlgoSeekFuturesReader.html#aeb99989977e00531fb51168b2621f9d0" target="_top" xlink:title="Enumerate through the lines of the algoseek files.">
<polygon fill="white" stroke="black" points="823,-673.5 823,-714.5 1032,-714.5 1032,-673.5 823,-673.5"/>
<text text-anchor="start" x="831" y="-702.5" font-family="Helvetica,sans-Serif" font-size="10.00">QuantConnect.ToolBox.Algo</text>
<text text-anchor="start" x="831" y="-691.5" font-family="Helvetica,sans-Serif" font-size="10.00">SeekFuturesConverter.AlgoSeekFutures</text>
<text text-anchor="middle" x="927.5" y="-680.5" font-family="Helvetica,sans-Serif" font-size="10.00">Reader.AlgoSeekFuturesReader</text>
</a>
</g>
</g>
<!-- Node22&#45;&gt;Node23 -->
<g id="edge22" class="edge">
<title>Node22&#45;&gt;Node23</title>
<path fill="none" stroke="midnightblue" d="M1172.77,-781.71C1149.02,-762.7 1114.9,-738.28 1081,-724 1065.71,-717.56 1048.96,-712.48 1032.34,-708.49"/>
<polygon fill="midnightblue" stroke="midnightblue" points="1170.76,-784.59 1180.72,-788.18 1175.18,-779.16 1170.76,-784.59"/>
</g>
<!-- Node24 -->
<g id="node24" class="node">
<title>Node24</title>
<g id="a_node24"><a xlink:href="classQuantConnect_1_1Orders_1_1OrderJsonConverter.html#ae7718abf2cec0c8473eee7cdec4b4b15" target="_top" xlink:title="Create an order from a simple JObject">
<polygon fill="white" stroke="black" points="824.5,-1112 824.5,-1142 1030.5,-1142 1030.5,-1112 824.5,-1112"/>
<text text-anchor="start" x="832.5" y="-1130" font-family="Helvetica,sans-Serif" font-size="10.00">QuantConnect.Orders.Order</text>
<text text-anchor="middle" x="927.5" y="-1119" font-family="Helvetica,sans-Serif" font-size="10.00">JsonConverter.CreateOrderFromJObject</text>
</a>
</g>
</g>
<!-- Node22&#45;&gt;Node24 -->
<g id="edge24" class="edge">
<title>Node22&#45;&gt;Node24</title>
<path fill="none" stroke="midnightblue" d="M1193.2,-839.33C1175.07,-884.92 1135.86,-971.93 1081,-1030 1046.42,-1066.61 995.25,-1095.44 961.9,-1111.86"/>
<polygon fill="midnightblue" stroke="midnightblue" points="1196.58,-840.32 1196.95,-829.73 1190.06,-837.77 1196.58,-840.32"/>
</g>
<!-- Node27 -->
<g id="node27" class="node">
<title>Node27</title>
<g id="a_node27"><a xlink:href="classQuantConnect_1_1Securities_1_1MarketHoursDatabase.html#aeac6cf20dbffdbafd258f0d5f4473713" target="_top" xlink:title="Gets the entry for the specified market/symbol/security&#45;type">
<polygon fill="white" stroke="black" points="842,-990 842,-1020 1013,-1020 1013,-990 842,-990"/>
<text text-anchor="start" x="850" y="-1008" font-family="Helvetica,sans-Serif" font-size="10.00">QuantConnect.Securities.</text>
<text text-anchor="middle" x="927.5" y="-997" font-family="Helvetica,sans-Serif" font-size="10.00">MarketHoursDatabase.GetEntry</text>
</a>
</g>
</g>
<!-- Node22&#45;&gt;Node27 -->
<g id="edge27" class="edge">
<title>Node22&#45;&gt;Node27</title>
<path fill="none" stroke="midnightblue" d="M1192.02,-838.9C1173.84,-878.43 1136.11,-947.05 1081,-981 1060.92,-993.37 1036.62,-1000.07 1013.38,-1003.54"/>
<polygon fill="midnightblue" stroke="midnightblue" points="1195.33,-840.07 1196.22,-829.51 1188.94,-837.21 1195.33,-840.07"/>
</g>
<!-- Node35 -->
<g id="node35" class="node">
<title>Node35</title>
<g id="a_node35"><a xlink:href="classQuantConnect_1_1SymbolRepresentation.html#adae87b321b11822d3fa9b641c0b2c2ab" target="_top" xlink:title="Creates a future option Symbol from the provided ticker">
<polygon fill="white" stroke="black" points="826,-941 826,-971 1029,-971 1029,-941 826,-941"/>
<text text-anchor="start" x="834" y="-959" font-family="Helvetica,sans-Serif" font-size="10.00">QuantConnect.SymbolRepresentation.</text>
<text text-anchor="middle" x="927.5" y="-948" font-family="Helvetica,sans-Serif" font-size="10.00">ParseFutureOptionSymbol</text>
</a>
</g>
</g>
<!-- Node22&#45;&gt;Node35 -->
<g id="edge38" class="edge">
<title>Node22&#45;&gt;Node35</title>
<path fill="none" stroke="midnightblue" d="M1184.46,-837.59C1162.56,-866.44 1124.71,-909.81 1081,-932 1065.11,-940.07 1047.18,-945.56 1029.35,-949.28"/>
<polygon fill="midnightblue" stroke="midnightblue" points="1187.31,-839.62 1190.47,-829.51 1181.69,-835.45 1187.31,-839.62"/>
</g>
<!-- Node36 -->
<g id="node36" class="node">
<title>Node36</title>
<g id="a_node36"><a xlink:href="classQuantConnect_1_1SymbolRepresentation.html#a66267400b44af2828d3622f28000eba5" target="_top" xlink:title="Helper method to parse and generate a future symbol from a given user friendly representation">
<polygon fill="white" stroke="black" points="826,-892 826,-922 1029,-922 1029,-892 826,-892"/>
<text text-anchor="start" x="834" y="-910" font-family="Helvetica,sans-Serif" font-size="10.00">QuantConnect.SymbolRepresentation.</text>
<text text-anchor="middle" x="927.5" y="-899" font-family="Helvetica,sans-Serif" font-size="10.00">ParseFutureSymbol</text>
</a>
</g>
</g>
<!-- Node22&#45;&gt;Node36 -->
<g id="edge39" class="edge">
<title>Node22&#45;&gt;Node36</title>
<path fill="none" stroke="midnightblue" d="M1168.8,-835.44C1145.08,-851.7 1112.6,-871.54 1081,-883 1064.62,-888.94 1046.73,-893.41 1029.15,-896.78"/>
<polygon fill="midnightblue" stroke="midnightblue" points="1170.92,-838.23 1177.12,-829.64 1166.92,-832.49 1170.92,-838.23"/>
</g>
<!-- Node37 -->
<g id="node37" class="node">
<title>Node37</title>
<g id="a_node37"><a xlink:href="classQuantConnect_1_1Research_1_1QuantBook.html#a239bcca3c726a8cc25b9a6a3cd0c244f" target="_top" xlink:title="QuantBook constructor. Provides access to data for quantitative analysis">
<polygon fill="white" stroke="black" points="844.5,-843 844.5,-873 1010.5,-873 1010.5,-843 844.5,-843"/>
<text text-anchor="start" x="852.5" y="-861" font-family="Helvetica,sans-Serif" font-size="10.00">QuantConnect.Research.Quant</text>
<text text-anchor="middle" x="927.5" y="-850" font-family="Helvetica,sans-Serif" font-size="10.00">Book.QuantBook</text>
</a>
</g>
</g>
<!-- Node22&#45;&gt;Node37 -->
<g id="edge41" class="edge">
<title>Node22&#45;&gt;Node37</title>
<path fill="none" stroke="midnightblue" d="M1106.98,-829.15C1098.21,-830.84 1089.45,-832.48 1081,-834 1058.18,-838.1 1033.37,-842.17 1010.52,-845.76"/>
<polygon fill="midnightblue" stroke="midnightblue" points="1107.73,-832.57 1116.88,-827.23 1106.4,-825.7 1107.73,-832.57"/>
</g>
<!-- Node38 -->
<g id="node38" class="node">
<title>Node38</title>
<g id="a_node38"><a xlink:href="classQuantConnect_1_1Lean_1_1Engine_1_1Engine.html#aa3a92ff5912aadc8d174bac4ab768b55" target="_top" xlink:title="Runs a single backtest/live job from the job queue">
<polygon fill="white" stroke="black" points="852,-794 852,-824 1003,-824 1003,-794 852,-794"/>
<text text-anchor="start" x="860" y="-812" font-family="Helvetica,sans-Serif" font-size="10.00">QuantConnect.Lean.Engine.</text>
<text text-anchor="middle" x="927.5" y="-801" font-family="Helvetica,sans-Serif" font-size="10.00">Engine.Run</text>
</a>
</g>
</g>
<!-- Node22&#45;&gt;Node38 -->
<g id="edge42" class="edge">
<title>Node22&#45;&gt;Node38</title>
<path fill="none" stroke="midnightblue" d="M1106.4,-809C1072.54,-809 1035.16,-809 1003.44,-809"/>
<polygon fill="midnightblue" stroke="midnightblue" points="1106.79,-812.5 1116.79,-809 1106.79,-805.5 1106.79,-812.5"/>
</g>
<!-- Node39 -->
<g id="node39" class="node">
<title>Node39</title>
<g id="a_node39"><a xlink:href="classQuantConnect_1_1Brokerages_1_1SymbolPropertiesDatabaseSymbolMapper.html#a57ec804eb0c28da243852b00fde3c2ac" target="_top" xlink:title="Creates a new instance of the SymbolPropertiesDatabaseSymbolMapper class.">
<polygon fill="white" stroke="black" points="796.5,-733.5 796.5,-774.5 1058.5,-774.5 1058.5,-733.5 796.5,-733.5"/>
<text text-anchor="start" x="804.5" y="-762.5" font-family="Helvetica,sans-Serif" font-size="10.00">QuantConnect.Brokerages.</text>
<text text-anchor="start" x="804.5" y="-751.5" font-family="Helvetica,sans-Serif" font-size="10.00">SymbolPropertiesDatabaseSymbol</text>
<text text-anchor="middle" x="927.5" y="-740.5" font-family="Helvetica,sans-Serif" font-size="10.00">Mapper.SymbolPropertiesDatabaseSymbolMapper</text>
</a>
</g>
</g>
<!-- Node22&#45;&gt;Node39 -->
<g id="edge43" class="edge">
<title>Node22&#45;&gt;Node39</title>
<path fill="none" stroke="midnightblue" d="M1106.81,-789.53C1082.37,-784.66 1056.08,-779.42 1031.4,-774.51"/>
<polygon fill="midnightblue" stroke="midnightblue" points="1106.3,-793 1116.79,-791.52 1107.67,-786.14 1106.3,-793"/>
</g>
<!-- Node25 -->
<g id="node25" class="node">
<title>Node25</title>
<g id="a_node25"><a xlink:href="classQuantConnect_1_1Report_1_1OrderTypeNormalizingJsonConverter.html#a095a046916eb5872ed67ebc83a46d7a5" target="_top" xlink:title="Read Json and convert">
<polygon fill="white" stroke="black" points="520.5,-1161 520.5,-1191 734.5,-1191 734.5,-1161 520.5,-1161"/>
<text text-anchor="start" x="528.5" y="-1179" font-family="Helvetica,sans-Serif" font-size="10.00">QuantConnect.Report.Order</text>
<text text-anchor="middle" x="627.5" y="-1168" font-family="Helvetica,sans-Serif" font-size="10.00">TypeNormalizingJsonConverter.ReadJson</text>
</a>
</g>
</g>
<!-- Node24&#45;&gt;Node25 -->
<g id="edge25" class="edge">
<title>Node24&#45;&gt;Node25</title>
<path fill="none" stroke="midnightblue" d="M825.07,-1143.68C790.93,-1149.29 753.07,-1155.52 719.76,-1160.99"/>
<polygon fill="midnightblue" stroke="midnightblue" points="825.77,-1147.11 835.06,-1142.03 824.63,-1140.2 825.77,-1147.11"/>
</g>
<!-- Node26 -->
<g id="node26" class="node">
<title>Node26</title>
<g id="a_node26"><a xlink:href="classQuantConnect_1_1Orders_1_1OrderJsonConverter.html#abed44f89edc8905ac0d4b8af39a47802" target="_top" xlink:title="Reads the JSON representation of the object.">
<polygon fill="white" stroke="black" points="552,-1112 552,-1142 703,-1142 703,-1112 552,-1112"/>
<text text-anchor="start" x="560" y="-1130" font-family="Helvetica,sans-Serif" font-size="10.00">QuantConnect.Orders.Order</text>
<text text-anchor="middle" x="627.5" y="-1119" font-family="Helvetica,sans-Serif" font-size="10.00">JsonConverter.ReadJson</text>
</a>
</g>
</g>
<!-- Node24&#45;&gt;Node26 -->
<g id="edge26" class="edge">
<title>Node24&#45;&gt;Node26</title>
<path fill="none" stroke="midnightblue" d="M814.01,-1127C776.97,-1127 736.73,-1127 703.22,-1127"/>
<polygon fill="midnightblue" stroke="midnightblue" points="814.36,-1130.5 824.36,-1127 814.36,-1123.5 814.36,-1130.5"/>
</g>
<!-- Node27&#45;&gt;Node6 -->
<g id="edge35" class="edge">
<title>Node27&#45;&gt;Node6</title>
<path fill="none" stroke="midnightblue" d="M831.83,-1007.76C810.49,-1003.94 789.58,-996.01 774,-981 713.99,-923.18 767.84,-874.8 738,-797 713.74,-733.74 668.21,-667.41 644.22,-634.72"/>
<polygon fill="midnightblue" stroke="midnightblue" points="831.57,-1011.27 841.98,-1009.28 832.61,-1004.34 831.57,-1011.27"/>
</g>
<!-- Node27&#45;&gt;Node7 -->
<g id="edge36" class="edge">
<title>Node27&#45;&gt;Node7</title>
<path fill="none" stroke="midnightblue" d="M831.69,-1009.04C810.04,-1005.26 789.01,-997.03 774,-981 713.45,-916.34 758.33,-670.22 738,-584 714.22,-483.16 661.48,-370.35 638.99,-324.77"/>
<polygon fill="midnightblue" stroke="midnightblue" points="831.27,-1012.51 841.67,-1010.47 832.27,-1005.58 831.27,-1012.51"/>
</g>
<!-- Node28 -->
<g id="node28" class="node">
<title>Node28</title>
<g id="a_node28"><a xlink:href="classQuantConnect_1_1Algorithm_1_1QCAlgorithm.html#a20fac1dead0a364d844f5f3179808706" target="_top" xlink:title="Creates a new user defined universe that will fire on the requested resolution during market hours.">
<polygon fill="white" stroke="black" points="525,-1063 525,-1093 730,-1093 730,-1063 525,-1063"/>
<text text-anchor="start" x="533" y="-1081" font-family="Helvetica,sans-Serif" font-size="10.00">QuantConnect.Algorithm.QCAlgorithm.</text>
<text text-anchor="middle" x="627.5" y="-1070" font-family="Helvetica,sans-Serif" font-size="10.00">AddUniverse</text>
</a>
</g>
</g>
<!-- Node27&#45;&gt;Node28 -->
<g id="edge28" class="edge">
<title>Node27&#45;&gt;Node28</title>
<path fill="none" stroke="midnightblue" d="M861.03,-1022.68C824.84,-1032.29 779.03,-1044.17 738,-1054 725.41,-1057.01 711.98,-1060.08 698.98,-1062.97"/>
<polygon fill="midnightblue" stroke="midnightblue" points="862.2,-1025.99 870.97,-1020.04 860.4,-1019.23 862.2,-1025.99"/>
</g>
<!-- Node29 -->
<g id="node29" class="node">
<title>Node29</title>
<g id="a_node29"><a xlink:href="classQuantConnect_1_1Securities_1_1MarketHoursDatabase.html#a92534128098fef25ab73e8d2faf58793" target="_top" xlink:title="Performs a lookup using the specified information and returns the data&#39;s time zone if found,...">
<polygon fill="white" stroke="black" points="518.5,-1014 518.5,-1044 736.5,-1044 736.5,-1014 518.5,-1014"/>
<text text-anchor="start" x="526.5" y="-1032" font-family="Helvetica,sans-Serif" font-size="10.00">QuantConnect.Securities.</text>
<text text-anchor="middle" x="627.5" y="-1021" font-family="Helvetica,sans-Serif" font-size="10.00">MarketHoursDatabase.GetDataTimeZone</text>
</a>
</g>
</g>
<!-- Node27&#45;&gt;Node29 -->
<g id="edge29" class="edge">
<title>Node27&#45;&gt;Node29</title>
<path fill="none" stroke="midnightblue" d="M831.79,-1012.63C801.56,-1015.06 767.87,-1017.78 736.76,-1020.28"/>
<polygon fill="midnightblue" stroke="midnightblue" points="832.22,-1016.1 841.9,-1011.81 831.65,-1009.13 832.22,-1016.1"/>
</g>
<!-- Node31 -->
<g id="node31" class="node">
<title>Node31</title>
<g id="a_node31"><a xlink:href="classQuantConnect_1_1Extensions.html#a6e7b57a65d282b02a39d8232be71f4e0" target="_top" xlink:title="Helper method to get a market hours entry">
<polygon fill="white" stroke="black" points="555,-965 555,-995 700,-995 700,-965 555,-965"/>
<text text-anchor="start" x="563" y="-983" font-family="Helvetica,sans-Serif" font-size="10.00">QuantConnect.Extensions.</text>
<text text-anchor="middle" x="627.5" y="-972" font-family="Helvetica,sans-Serif" font-size="10.00">GetEntry</text>
</a>
</g>
</g>
<!-- Node27&#45;&gt;Node31 -->
<g id="edge32" class="edge">
<title>Node27&#45;&gt;Node31</title>
<path fill="none" stroke="midnightblue" d="M831.79,-997.05C789.16,-993.48 739.67,-989.33 700.19,-986.01"/>
<polygon fill="midnightblue" stroke="midnightblue" points="831.64,-1000.55 841.9,-997.9 832.23,-993.58 831.64,-1000.55"/>
</g>
<!-- Node32 -->
<g id="node32" class="node">
<title>Node32</title>
<g id="a_node32"><a xlink:href="classQuantConnect_1_1Securities_1_1MarketHoursDatabase.html#a7ff5c3f3b78dc47dcfc2156a06882bbd" target="_top" xlink:title="Gets the entry for the specified market/symbol/security&#45;type">
<polygon fill="white" stroke="black" points="542,-916 542,-946 713,-946 713,-916 542,-916"/>
<text text-anchor="start" x="550" y="-934" font-family="Helvetica,sans-Serif" font-size="10.00">QuantConnect.Securities.</text>
<text text-anchor="middle" x="627.5" y="-923" font-family="Helvetica,sans-Serif" font-size="10.00">MarketHoursDatabase.GetEntry</text>
</a>
</g>
</g>
<!-- Node27&#45;&gt;Node32 -->
<g id="edge33" class="edge">
<title>Node27&#45;&gt;Node32</title>
<path fill="none" stroke="midnightblue" d="M832.08,-996.93C812.44,-993.39 792.19,-988.3 774,-981 755.92,-973.75 755.82,-963.87 738,-956 729.26,-952.14 719.85,-948.84 710.36,-946.03"/>
<polygon fill="midnightblue" stroke="midnightblue" points="831.53,-1000.39 841.97,-998.6 832.69,-993.48 831.53,-1000.39"/>
</g>
<!-- Node33 -->
<g id="node33" class="node">
<title>Node33</title>
<g id="a_node33"><a xlink:href="classQuantConnect_1_1Securities_1_1MarketHoursDatabase.html#a5c7591a1165130392c4606037f2b916b" target="_top" xlink:title="Convenience method for retrieving exchange hours from market hours database using a subscription conf...">
<polygon fill="white" stroke="black" points="517,-867 517,-897 738,-897 738,-867 517,-867"/>
<text text-anchor="start" x="525" y="-885" font-family="Helvetica,sans-Serif" font-size="10.00">QuantConnect.Securities.</text>
<text text-anchor="middle" x="627.5" y="-874" font-family="Helvetica,sans-Serif" font-size="10.00">MarketHoursDatabase.GetExchangeHours</text>
</a>
</g>
</g>
<!-- Node27&#45;&gt;Node33 -->
<g id="edge34" class="edge">
<title>Node27&#45;&gt;Node33</title>
<path fill="none" stroke="midnightblue" d="M831.7,-1004.26C811.18,-1000.4 790.66,-993.33 774,-981 744.6,-959.24 766.64,-929.75 738,-907 733.11,-903.12 727.74,-899.82 722.07,-897.01"/>
<polygon fill="midnightblue" stroke="midnightblue" points="831.32,-1007.75 841.75,-1005.91 832.45,-1000.84 831.32,-1007.75"/>
</g>
<!-- Node34 -->
<g id="node34" class="node">
<title>Node34</title>
<g id="a_node34"><a xlink:href="classQuantConnect_1_1Lean_1_1Engine_1_1DataFeeds_1_1FileSystemDataFeed.html#a8b10a0ccb5a8884f80c527cf25c992f5" target="_top" xlink:title="If required will add a new enumerator for the underlying symbol">
<polygon fill="white" stroke="black" points="533,-806.5 533,-847.5 722,-847.5 722,-806.5 533,-806.5"/>
<text text-anchor="start" x="541" y="-835.5" font-family="Helvetica,sans-Serif" font-size="10.00">QuantConnect.Lean.Engine.</text>
<text text-anchor="start" x="541" y="-824.5" font-family="Helvetica,sans-Serif" font-size="10.00">DataFeeds.FileSystemDataFeed.Try</text>
<text text-anchor="middle" x="627.5" y="-813.5" font-family="Helvetica,sans-Serif" font-size="10.00">AppendUnderlyingEnumerator</text>
</a>
</g>
</g>
<!-- Node27&#45;&gt;Node34 -->
<g id="edge37" class="edge">
<title>Node27&#45;&gt;Node34</title>
<path fill="none" stroke="midnightblue" d="M831.75,-1006.55C810.73,-1002.7 789.99,-995.05 774,-981 731.22,-943.4 778.45,-898.1 738,-858 733.3,-853.34 727.95,-849.37 722.21,-845.99"/>
<polygon fill="midnightblue" stroke="midnightblue" points="831.31,-1010.03 841.73,-1008.11 832.39,-1003.11 831.31,-1010.03"/>
</g>
<!-- Node29&#45;&gt;Node15 -->
<g id="edge30" class="edge">
<title>Node29&#45;&gt;Node15</title>
<path fill="none" stroke="midnightblue" d="M520.01,-1007.77C518.98,-1006.88 517.98,-1005.96 517,-1005 431.72,-921.3 387.31,-519.18 378.96,-436.06"/>
<polygon fill="midnightblue" stroke="midnightblue" points="518.29,-1010.85 528.41,-1013.97 522.44,-1005.21 518.29,-1010.85"/>
</g>
<!-- Node30 -->
<g id="node30" class="node">
<title>Node30</title>
<g id="a_node30"><a xlink:href="classQuantConnect_1_1Algorithm_1_1QCAlgorithm.html#ad8a5d8d6d6fd62a8a3962f0649567804" target="_top" xlink:title="Called by setup handlers after Initialize and allows the algorithm a chance to organize the data gath...">
<polygon fill="white" stroke="black" points="274,-1014 274,-1044 479,-1044 479,-1014 274,-1014"/>
<text text-anchor="start" x="282" y="-1032" font-family="Helvetica,sans-Serif" font-size="10.00">QuantConnect.Algorithm.QCAlgorithm.</text>
<text text-anchor="middle" x="376.5" y="-1021" font-family="Helvetica,sans-Serif" font-size="10.00">PostInitialize</text>
</a>
</g>
</g>
<!-- Node29&#45;&gt;Node30 -->
<g id="edge31" class="edge">
<title>Node29&#45;&gt;Node30</title>
<path fill="none" stroke="midnightblue" d="M508.28,-1029C498.58,-1029 488.82,-1029 479.24,-1029"/>
<polygon fill="midnightblue" stroke="midnightblue" points="508.37,-1032.5 518.37,-1029 508.37,-1025.5 508.37,-1032.5"/>
</g>
</g>
</svg>
