<?xml version="1.0" encoding="UTF-8" standalone="no"?>
<!DOCTYPE svg PUBLIC "-//W3C//DTD SVG 1.1//EN"
 "http://www.w3.org/Graphics/SVG/1.1/DTD/svg11.dtd">
<!-- Generated by graphviz version 2.43.0 (0)
 -->
<!-- Title: QuantConnect.Indicators.TimeSeriesIndicator Pages: 1 -->
<svg width="340pt" height="184pt"
 viewBox="0.00 0.00 339.50 184.00" xmlns="http://www.w3.org/2000/svg" xmlns:xlink="http://www.w3.org/1999/xlink">
<g id="graph0" class="graph" transform="scale(1 1) rotate(0) translate(4 180)">
<title>QuantConnect.Indicators.TimeSeriesIndicator</title>
<polygon fill="white" stroke="transparent" points="-4,4 -4,-180 335.5,-180 335.5,4 -4,4"/>
<!-- Node1 -->
<g id="node1" class="node">
<title>Node1</title>
<g id="a_node1"><a xlink:title="The base class for any Time Series&#45;type indicator, containing methods common to most of such models.">
<polygon fill="#bfbfbf" stroke="black" points="85.5,-78.5 85.5,-108.5 225.5,-108.5 225.5,-78.5 85.5,-78.5"/>
<text text-anchor="start" x="93.5" y="-96.5" font-family="Helvetica,sans-Serif" font-size="10.00">QuantConnect.Indicators.</text>
<text text-anchor="middle" x="155.5" y="-85.5" font-family="Helvetica,sans-Serif" font-size="10.00">TimeSeriesIndicator</text>
</a>
</g>
</g>
<!-- Node4 -->
<g id="node4" class="node">
<title>Node4</title>
<g id="a_node4"><a xlink:href="classQuantConnect_1_1Indicators_1_1AutoRegressiveIntegratedMovingAverage.html" target="_top" xlink:title="An Autoregressive Intergrated Moving Average (ARIMA) is a time series model which can be used to desc...">
<polygon fill="white" stroke="black" points="66,-0.5 66,-41.5 245,-41.5 245,-0.5 66,-0.5"/>
<text text-anchor="start" x="74" y="-29.5" font-family="Helvetica,sans-Serif" font-size="10.00">QuantConnect.Indicators.</text>
<text text-anchor="start" x="74" y="-18.5" font-family="Helvetica,sans-Serif" font-size="10.00">AutoRegressiveIntegratedMoving</text>
<text text-anchor="middle" x="155.5" y="-7.5" font-family="Helvetica,sans-Serif" font-size="10.00">Average</text>
</a>
</g>
</g>
<!-- Node1&#45;&gt;Node4 -->
<g id="edge3" class="edge">
<title>Node1&#45;&gt;Node4</title>
<path fill="none" stroke="midnightblue" d="M155.5,-67.98C155.5,-59.35 155.5,-49.76 155.5,-41.59"/>
<polygon fill="midnightblue" stroke="midnightblue" points="152,-68.23 155.5,-78.23 159,-68.23 152,-68.23"/>
</g>
<!-- Node2 -->
<g id="node2" class="node">
<title>Node2</title>
<g id="a_node2"><a xlink:href="classQuantConnect_1_1Indicators_1_1IndicatorBase.html" target="_top" xlink:title=" ">
<polygon fill="white" stroke="black" points="0,-145.5 0,-175.5 137,-175.5 137,-145.5 0,-145.5"/>
<text text-anchor="start" x="8" y="-163.5" font-family="Helvetica,sans-Serif" font-size="10.00">IndicatorBase&lt; Indicator</text>
<text text-anchor="middle" x="68.5" y="-152.5" font-family="Helvetica,sans-Serif" font-size="10.00">DataPoint &gt;</text>
</a>
</g>
</g>
<!-- Node2&#45;&gt;Node1 -->
<g id="edge1" class="edge">
<title>Node2&#45;&gt;Node1</title>
<path fill="none" stroke="midnightblue" d="M95.71,-139.17C109.02,-129.23 124.7,-117.51 136.66,-108.58"/>
<polygon fill="midnightblue" stroke="midnightblue" points="93.29,-136.61 87.38,-145.4 97.48,-142.21 93.29,-136.61"/>
</g>
<!-- Node3 -->
<g id="node3" class="node">
<title>Node3</title>
<g id="a_node3"><a xlink:href="interfaceQuantConnect_1_1Indicators_1_1IIndicatorWarmUpPeriodProvider.html" target="_top" xlink:title="Represents an indicator with a warm up period provider.">
<polygon fill="white" stroke="black" points="155.5,-151 155.5,-170 331.5,-170 331.5,-151 155.5,-151"/>
<text text-anchor="middle" x="243.5" y="-158" font-family="Helvetica,sans-Serif" font-size="10.00">IIndicatorWarmUpPeriodProvider</text>
</a>
</g>
</g>
<!-- Node3&#45;&gt;Node1 -->
<g id="edge2" class="edge">
<title>Node3&#45;&gt;Node1</title>
<path fill="none" stroke="midnightblue" d="M223.25,-144.54C208.61,-133.73 188.94,-119.2 174.57,-108.59"/>
<polygon fill="midnightblue" stroke="midnightblue" points="221.51,-147.61 231.63,-150.73 225.67,-141.98 221.51,-147.61"/>
</g>
</g>
</svg>
