<?xml version="1.0" encoding="UTF-8" standalone="no"?>
<!DOCTYPE svg PUBLIC "-//W3C//DTD SVG 1.1//EN"
 "http://www.w3.org/Graphics/SVG/1.1/DTD/svg11.dtd">
<!-- Generated by graphviz version 2.43.0 (0)
 -->
<!-- Title: QuantConnect.Orders.Order.CreateOrder Pages: 1 -->
<!--zoomable 149 -->
<svg id="main" version="1.1" xmlns="http://www.w3.org/2000/svg" xmlns:xlink="http://www.w3.org/1999/xlink" xml:space="preserve" onload="init(evt)">
<style type="text/css"><![CDATA[
.edge:hover path { stroke: red; }
.edge:hover polygon { stroke: red; fill: red; }
]]></style>
<script type="text/javascript"><![CDATA[
var edges = document.getElementsByTagName('g');
if (edges && edges.length) {
  for (var i=0;i<edges.length;i++) {
    if (edges[i].id.substr(0,4)=='edge') {
      edges[i].setAttribute('class','edge');
    }
  }
}
]]></script>
        <defs>
                <circle id="rim" cx="0" cy="0" r="7"/>
                <circle id="rim2" cx="0" cy="0" r="3.5"/>
                <g id="zoomPlus">
                        <use xlink:href="#rim" fill="#404040">
                                <set attributeName="fill" to="#808080" begin="zoomplus.mouseover" end="zoomplus.mouseout"/>
                        </use>
                        <path d="M-4,0h8M0,-4v8" fill="none" stroke="white" stroke-width="1.5" pointer-events="none"/>
                </g>
                <g id="zoomMin">
                        <use xlink:href="#rim" fill="#404040">
                                <set attributeName="fill" to="#808080" begin="zoomminus.mouseover" end="zoomminus.mouseout"/>
                        </use>
                        <path d="M-4,0h8" fill="none" stroke="white" stroke-width="1.5" pointer-events="none"/>
                </g>
                <g id="dirArrow">
                        <path fill="none" stroke="white" stroke-width="1.5" d="M0,-3.0v7 M-2.5,-0.5L0,-3.0L2.5,-0.5"/>
                </g>
               <g id="resetDef">
                       <use xlink:href="#rim2" fill="#404040">
                               <set attributeName="fill" to="#808080" begin="reset.mouseover" end="reset.mouseout"/>
                       </use>
               </g>
        </defs>

<script type="text/javascript">
var viewWidth = 681;
var viewHeight = 149;
var sectionId = 'dynsection-10';
</script>
<script xlink:href="svgpan.js"/>
<svg id="graph" class="graph">
<g id="viewport">
<title>QuantConnect.Orders.Order.CreateOrder</title>
<polygon fill="white" stroke="transparent" points="-4,4 -4,-144.5 677,-144.5 677,4 -4,4"/>
<!-- Node1 -->
<g id="node1" class="node">
<title>Node1</title>
<g id="a_node1"><a xlink:title="Creates an Order to match the specified request">
<polygon fill="#bfbfbf" stroke="black" points="520,-49.5 520,-79.5 673,-79.5 673,-49.5 520,-49.5"/>
<text text-anchor="start" x="528" y="-67.5" font-family="Helvetica,sans-Serif" font-size="10.00">QuantConnect.Orders.Order.</text>
<text text-anchor="middle" x="596.5" y="-56.5" font-family="Helvetica,sans-Serif" font-size="10.00">CreateOrder</text>
</a>
</g>
</g>
<!-- Node2 -->
<g id="node2" class="node">
<title>Node2</title>
<g id="a_node2"><a xlink:href="classQuantConnect_1_1Lean_1_1Engine_1_1TransactionHandlers_1_1BrokerageTransactionHandler.html#a68f215fe79ea4c800a036e7169b8b0a4" target="_top" xlink:title="Add an order to collection and return the unique order id or negative if an error.">
<polygon fill="white" stroke="black" points="260,-99 260,-140 484,-140 484,-99 260,-99"/>
<text text-anchor="start" x="268" y="-128" font-family="Helvetica,sans-Serif" font-size="10.00">QuantConnect.Lean.Engine.</text>
<text text-anchor="start" x="268" y="-117" font-family="Helvetica,sans-Serif" font-size="10.00">TransactionHandlers.BrokerageTransaction</text>
<text text-anchor="middle" x="372" y="-106" font-family="Helvetica,sans-Serif" font-size="10.00">Handler.AddOrder</text>
</a>
</g>
</g>
<!-- Node1&#45;&gt;Node2 -->
<g id="edge1" class="edge">
<title>Node1&#45;&gt;Node2</title>
<path fill="none" stroke="midnightblue" d="M524.86,-81.96C503.05,-87.35 478.83,-93.34 456.25,-98.92"/>
<polygon fill="midnightblue" stroke="midnightblue" points="525.83,-85.33 534.7,-79.53 524.15,-78.53 525.83,-85.33"/>
</g>
<!-- Node4 -->
<g id="node4" class="node">
<title>Node4</title>
<g id="a_node4"><a xlink:href="classQuantConnect_1_1Orders_1_1Order.html#a78fe84a79fafe9377035e67e22d71de8" target="_top" xlink:title="Creates a new Order instance from a SerializedOrder instance">
<polygon fill="white" stroke="black" points="295.5,-49.5 295.5,-79.5 448.5,-79.5 448.5,-49.5 295.5,-49.5"/>
<text text-anchor="start" x="303.5" y="-67.5" font-family="Helvetica,sans-Serif" font-size="10.00">QuantConnect.Orders.Order.</text>
<text text-anchor="middle" x="372" y="-56.5" font-family="Helvetica,sans-Serif" font-size="10.00">FromSerialized</text>
</a>
</g>
</g>
<!-- Node1&#45;&gt;Node4 -->
<g id="edge3" class="edge">
<title>Node1&#45;&gt;Node4</title>
<path fill="none" stroke="midnightblue" d="M509.79,-64.5C489.7,-64.5 468.43,-64.5 448.81,-64.5"/>
<polygon fill="midnightblue" stroke="midnightblue" points="509.86,-68 519.86,-64.5 509.86,-61 509.86,-68"/>
</g>
<!-- Node6 -->
<g id="node6" class="node">
<title>Node6</title>
<g id="a_node6"><a xlink:href="classQuantConnect_1_1Orders_1_1SubmitOrderRequest.html#a1abfd008d3da93a8d7b92d3c490e3769" target="_top" xlink:title="Returns a string that represents the current object.">
<polygon fill="white" stroke="black" points="293,-0.5 293,-30.5 451,-30.5 451,-0.5 293,-0.5"/>
<text text-anchor="start" x="301" y="-18.5" font-family="Helvetica,sans-Serif" font-size="10.00">QuantConnect.Orders.Submit</text>
<text text-anchor="middle" x="372" y="-7.5" font-family="Helvetica,sans-Serif" font-size="10.00">OrderRequest.ToString</text>
</a>
</g>
</g>
<!-- Node1&#45;&gt;Node6 -->
<g id="edge5" class="edge">
<title>Node1&#45;&gt;Node6</title>
<path fill="none" stroke="midnightblue" d="M519.1,-47.29C507.35,-44.67 495.35,-42 484,-39.5 470.71,-36.57 456.53,-33.48 442.89,-30.53"/>
<polygon fill="midnightblue" stroke="midnightblue" points="518.37,-50.71 528.89,-49.48 519.9,-43.88 518.37,-50.71"/>
</g>
<!-- Node3 -->
<g id="node3" class="node">
<title>Node3</title>
<g id="a_node3"><a xlink:href="classQuantConnect_1_1Lean_1_1Engine_1_1TransactionHandlers_1_1BrokerageTransactionHandler.html#ad7914edfb9b6e24fcbcd637e2c468cd5" target="_top" xlink:title="Adds the specified order to be processed">
<polygon fill="white" stroke="black" points="0,-99 0,-140 224,-140 224,-99 0,-99"/>
<text text-anchor="start" x="8" y="-128" font-family="Helvetica,sans-Serif" font-size="10.00">QuantConnect.Lean.Engine.</text>
<text text-anchor="start" x="8" y="-117" font-family="Helvetica,sans-Serif" font-size="10.00">TransactionHandlers.BrokerageTransaction</text>
<text text-anchor="middle" x="112" y="-106" font-family="Helvetica,sans-Serif" font-size="10.00">Handler.Process</text>
</a>
</g>
</g>
<!-- Node2&#45;&gt;Node3 -->
<g id="edge2" class="edge">
<title>Node2&#45;&gt;Node3</title>
<path fill="none" stroke="midnightblue" d="M249.5,-119.5C241.1,-119.5 232.67,-119.5 224.33,-119.5"/>
<polygon fill="midnightblue" stroke="midnightblue" points="249.71,-123 259.71,-119.5 249.71,-116 249.71,-123"/>
</g>
<!-- Node5 -->
<g id="node5" class="node">
<title>Node5</title>
<g id="a_node5"><a xlink:href="classQuantConnect_1_1Orders_1_1Serialization_1_1SerializedOrderJsonConverter.html#a6cfaeafcc6f3697d680ed0cf2dfa6a47" target="_top" xlink:title="Converts the input value to be deserialized">
<polygon fill="white" stroke="black" points="12,-49.5 12,-79.5 212,-79.5 212,-49.5 12,-49.5"/>
<text text-anchor="start" x="20" y="-67.5" font-family="Helvetica,sans-Serif" font-size="10.00">QuantConnect.Orders.Serialization.</text>
<text text-anchor="middle" x="112" y="-56.5" font-family="Helvetica,sans-Serif" font-size="10.00">SerializedOrderJsonConverter.Convert</text>
</a>
</g>
</g>
<!-- Node4&#45;&gt;Node5 -->
<g id="edge4" class="edge">
<title>Node4&#45;&gt;Node5</title>
<path fill="none" stroke="midnightblue" d="M285.11,-64.5C261.73,-64.5 236.22,-64.5 212.17,-64.5"/>
<polygon fill="midnightblue" stroke="midnightblue" points="285.33,-68 295.33,-64.5 285.33,-61 285.33,-68"/>
</g>
<!-- Node7 -->
<g id="node7" class="node">
<title>Node7</title>
<g id="a_node7"><a xlink:href="classQuantConnect_1_1Commands_1_1OrderCommand.html#a6f56bbd37fa44bc343c153f5c108d5b5" target="_top" xlink:title="Returns a string that represents the current object.">
<polygon fill="white" stroke="black" points="25,-0.5 25,-30.5 199,-30.5 199,-0.5 25,-0.5"/>
<text text-anchor="start" x="33" y="-18.5" font-family="Helvetica,sans-Serif" font-size="10.00">QuantConnect.Commands.Order</text>
<text text-anchor="middle" x="112" y="-7.5" font-family="Helvetica,sans-Serif" font-size="10.00">Command.ToString</text>
</a>
</g>
</g>
<!-- Node6&#45;&gt;Node7 -->
<g id="edge6" class="edge">
<title>Node6&#45;&gt;Node7</title>
<path fill="none" stroke="midnightblue" d="M282.71,-15.5C255.78,-15.5 226.21,-15.5 199.4,-15.5"/>
<polygon fill="midnightblue" stroke="midnightblue" points="282.89,-19 292.89,-15.5 282.89,-12 282.89,-19"/>
</g>
</g>
</svg>
        <g id="navigator" transform="translate(0 0)" fill="#404254">
                <rect fill="#f2f5e9" fill-opacity="0.5" stroke="#606060" stroke-width=".5" x="0" y="0" width="60" height="60"/>
                <use id="zoomplus" xlink:href="#zoomPlus" x="17" y="9" onmousedown="handleZoom(evt,'in')"/>
                <use id="zoomminus" xlink:href="#zoomMin" x="42" y="9" onmousedown="handleZoom(evt,'out')"/>
                <use id="reset" xlink:href="#resetDef" x="30" y="36" onmousedown="handleReset()"/>
                <g id="arrowUp" xlink:href="#dirArrow" transform="translate(30 24)" onmousedown="handlePan(0,-1)">
                  <use xlink:href="#rim" fill="#404040">
                        <set attributeName="fill" to="#808080" begin="arrowUp.mouseover" end="arrowUp.mouseout"/>
                  </use>
                  <path fill="none" stroke="white" stroke-width="1.5" d="M0,-3.0v7 M-2.5,-0.5L0,-3.0L2.5,-0.5"/>
                </g>
                <g id="arrowRight" xlink:href="#dirArrow" transform="rotate(90) translate(36 -43)" onmousedown="handlePan(1,0)">
                  <use xlink:href="#rim" fill="#404040">
                        <set attributeName="fill" to="#808080" begin="arrowRight.mouseover" end="arrowRight.mouseout"/>
                  </use>
                  <path fill="none" stroke="white" stroke-width="1.5" d="M0,-3.0v7 M-2.5,-0.5L0,-3.0L2.5,-0.5"/>
                </g>
                <g id="arrowDown" xlink:href="#dirArrow" transform="rotate(180) translate(-30 -48)" onmousedown="handlePan(0,1)">
                  <use xlink:href="#rim" fill="#404040">
                        <set attributeName="fill" to="#808080" begin="arrowDown.mouseover" end="arrowDown.mouseout"/>
                  </use>
                  <path fill="none" stroke="white" stroke-width="1.5" d="M0,-3.0v7 M-2.5,-0.5L0,-3.0L2.5,-0.5"/>
                </g>
                <g id="arrowLeft" xlink:href="#dirArrow" transform="rotate(270) translate(-36 17)" onmousedown="handlePan(-1,0)">
                  <use xlink:href="#rim" fill="#404040">
                        <set attributeName="fill" to="#808080" begin="arrowLeft.mouseover" end="arrowLeft.mouseout"/>
                  </use>
                  <path fill="none" stroke="white" stroke-width="1.5" d="M0,-3.0v7 M-2.5,-0.5L0,-3.0L2.5,-0.5"/>
                </g>
        </g>
        <svg viewBox="0 0 15 15" width="100%" height="30px" preserveAspectRatio="xMaxYMin meet">
         <g id="arrow_out" transform="scale(0.3 0.3)">
          <a xlink:href="classQuantConnect_1_1Orders_1_1Order_afbc537575c31e60fcda07aba2e1368e9_icgraph_org.svg" target="_base">
           <rect id="button" ry="5" rx="5" y="6" x="6" height="38" width="38"
                fill="#f2f5e9" fill-opacity="0.5" stroke="#606060" stroke-width="1.0"/>
           <path id="arrow"
             d="M 11.500037,31.436501 C 11.940474,20.09759 22.043105,11.32322 32.158766,21.979434 L 37.068811,17.246167 C 37.068811,17.246167 37.088388,32 37.088388,32 L 22.160133,31.978069 C 22.160133,31.978069 26.997745,27.140456 26.997745,27.140456 C 18.528582,18.264221 13.291696,25.230495 11.500037,31.436501 z"
             style="fill:#404040;"/>
          </a>
         </g>
        </svg>
</svg>
