<?xml version="1.0" encoding="UTF-8" standalone="no"?>
<!DOCTYPE svg PUBLIC "-//W3C//DTD SVG 1.1//EN"
 "http://www.w3.org/Graphics/SVG/1.1/DTD/svg11.dtd">
<!-- Generated by graphviz version 2.43.0 (0)
 -->
<!-- Title: QuantConnect.Indicators.OptionIndicatorBase Pages: 1 -->
<svg width="746pt" height="215pt"
 viewBox="0.00 0.00 746.00 214.50" xmlns="http://www.w3.org/2000/svg" xmlns:xlink="http://www.w3.org/1999/xlink">
<g id="graph0" class="graph" transform="scale(1 1) rotate(0) translate(4 210.5)">
<title>QuantConnect.Indicators.OptionIndicatorBase</title>
<polygon fill="white" stroke="transparent" points="-4,4 -4,-210.5 742,-210.5 742,4 -4,4"/>
<!-- Node1 -->
<g id="node1" class="node">
<title>Node1</title>
<g id="a_node1"><a xlink:title="To provide a base class for option indicator">
<polygon fill="#bfbfbf" stroke="black" points="212,-107 212,-137 352,-137 352,-107 212,-107"/>
<text text-anchor="start" x="220" y="-125" font-family="Helvetica,sans-Serif" font-size="10.00">QuantConnect.Indicators.</text>
<text text-anchor="middle" x="282" y="-114" font-family="Helvetica,sans-Serif" font-size="10.00">OptionIndicatorBase</text>
</a>
</g>
</g>
<!-- Node4 -->
<g id="node4" class="node">
<title>Node4</title>
<g id="a_node4"><a xlink:href="classQuantConnect_1_1Indicators_1_1ImpliedVolatility.html" target="_top" xlink:title="Implied Volatility indicator that calculate the IV of an option using Black&#45;Scholes Model">
<polygon fill="white" stroke="black" points="393,-132 393,-162 533,-162 533,-132 393,-132"/>
<text text-anchor="start" x="401" y="-150" font-family="Helvetica,sans-Serif" font-size="10.00">QuantConnect.Indicators.</text>
<text text-anchor="middle" x="463" y="-139" font-family="Helvetica,sans-Serif" font-size="10.00">ImpliedVolatility</text>
</a>
</g>
</g>
<!-- Node1&#45;&gt;Node4 -->
<g id="edge3" class="edge">
<title>Node1&#45;&gt;Node4</title>
<path fill="none" stroke="midnightblue" d="M362.34,-133.08C372.55,-134.51 382.95,-135.96 392.98,-137.36"/>
<polygon fill="midnightblue" stroke="midnightblue" points="362.59,-129.58 352.21,-131.67 361.63,-136.52 362.59,-129.58"/>
</g>
<!-- Node5 -->
<g id="node5" class="node">
<title>Node5</title>
<g id="a_node5"><a xlink:href="classQuantConnect_1_1Indicators_1_1OptionGreeksIndicatorBase.html" target="_top" xlink:title="To provide a base class for option greeks indicator">
<polygon fill="white" stroke="black" points="388,-83 388,-113 538,-113 538,-83 388,-83"/>
<text text-anchor="start" x="396" y="-101" font-family="Helvetica,sans-Serif" font-size="10.00">QuantConnect.Indicators.</text>
<text text-anchor="middle" x="463" y="-90" font-family="Helvetica,sans-Serif" font-size="10.00">OptionGreeksIndicatorBase</text>
</a>
</g>
</g>
<!-- Node1&#45;&gt;Node5 -->
<g id="edge4" class="edge">
<title>Node1&#45;&gt;Node5</title>
<path fill="none" stroke="midnightblue" d="M362.18,-111.38C370.74,-110.24 379.44,-109.07 387.94,-107.93"/>
<polygon fill="midnightblue" stroke="midnightblue" points="361.65,-107.92 352.21,-112.72 362.58,-114.86 361.65,-107.92"/>
</g>
<!-- Node2 -->
<g id="node2" class="node">
<title>Node2</title>
<g id="a_node2"><a xlink:href="classQuantConnect_1_1Indicators_1_1IndicatorBase.html" target="_top" xlink:title=" ">
<polygon fill="white" stroke="black" points="19.5,-129 19.5,-159 156.5,-159 156.5,-129 19.5,-129"/>
<text text-anchor="start" x="27.5" y="-147" font-family="Helvetica,sans-Serif" font-size="10.00">IndicatorBase&lt; Indicator</text>
<text text-anchor="middle" x="88" y="-136" font-family="Helvetica,sans-Serif" font-size="10.00">DataPoint &gt;</text>
</a>
</g>
</g>
<!-- Node2&#45;&gt;Node1 -->
<g id="edge1" class="edge">
<title>Node2&#45;&gt;Node1</title>
<path fill="none" stroke="midnightblue" d="M166.91,-135.07C181.83,-133.36 197.36,-131.58 211.97,-129.91"/>
<polygon fill="midnightblue" stroke="midnightblue" points="166.23,-131.63 156.69,-136.24 167.03,-138.58 166.23,-131.63"/>
</g>
<!-- Node3 -->
<g id="node3" class="node">
<title>Node3</title>
<g id="a_node3"><a xlink:href="interfaceQuantConnect_1_1Indicators_1_1IIndicatorWarmUpPeriodProvider.html" target="_top" xlink:title="Represents an indicator with a warm up period provider.">
<polygon fill="white" stroke="black" points="0,-90.5 0,-109.5 176,-109.5 176,-90.5 0,-90.5"/>
<text text-anchor="middle" x="88" y="-97.5" font-family="Helvetica,sans-Serif" font-size="10.00">IIndicatorWarmUpPeriodProvider</text>
</a>
</g>
</g>
<!-- Node3&#45;&gt;Node1 -->
<g id="edge2" class="edge">
<title>Node3&#45;&gt;Node1</title>
<path fill="none" stroke="midnightblue" d="M182.1,-110.67C192.14,-111.82 202.21,-112.97 211.89,-114.08"/>
<polygon fill="midnightblue" stroke="midnightblue" points="182.43,-107.18 172.1,-109.52 181.63,-114.14 182.43,-107.18"/>
</g>
<!-- Node6 -->
<g id="node6" class="node">
<title>Node6</title>
<g id="a_node6"><a xlink:href="classQuantConnect_1_1Indicators_1_1Delta.html" target="_top" xlink:title="Option Delta indicator that calculate the delta of an option">
<polygon fill="white" stroke="black" points="586,-176 586,-206 726,-206 726,-176 586,-176"/>
<text text-anchor="start" x="594" y="-194" font-family="Helvetica,sans-Serif" font-size="10.00">QuantConnect.Indicators.</text>
<text text-anchor="middle" x="656" y="-183" font-family="Helvetica,sans-Serif" font-size="10.00">Delta</text>
</a>
</g>
</g>
<!-- Node5&#45;&gt;Node6 -->
<g id="edge5" class="edge">
<title>Node5&#45;&gt;Node6</title>
<path fill="none" stroke="midnightblue" d="M528.93,-117.46C532.08,-119.17 535.13,-121.01 538,-123 558.78,-137.38 552.96,-153.01 574,-167 579.13,-170.41 584.76,-173.35 590.58,-175.87"/>
<polygon fill="midnightblue" stroke="midnightblue" points="530.33,-114.25 519.8,-113.02 527.26,-120.54 530.33,-114.25"/>
</g>
<!-- Node7 -->
<g id="node7" class="node">
<title>Node7</title>
<g id="a_node7"><a xlink:href="classQuantConnect_1_1Indicators_1_1Gamma.html" target="_top" xlink:title="Option Gamma indicator that calculate the gamma of an option">
<polygon fill="white" stroke="black" points="586,-127 586,-157 726,-157 726,-127 586,-127"/>
<text text-anchor="start" x="594" y="-145" font-family="Helvetica,sans-Serif" font-size="10.00">QuantConnect.Indicators.</text>
<text text-anchor="middle" x="656" y="-134" font-family="Helvetica,sans-Serif" font-size="10.00">Gamma</text>
</a>
</g>
</g>
<!-- Node5&#45;&gt;Node7 -->
<g id="edge6" class="edge">
<title>Node5&#45;&gt;Node7</title>
<path fill="none" stroke="midnightblue" d="M538.96,-115.27C555.75,-119.14 573.42,-123.21 589.77,-126.97"/>
<polygon fill="midnightblue" stroke="midnightblue" points="539.73,-111.85 529.2,-113.02 538.16,-118.67 539.73,-111.85"/>
</g>
<!-- Node8 -->
<g id="node8" class="node">
<title>Node8</title>
<g id="a_node8"><a xlink:href="classQuantConnect_1_1Indicators_1_1Rho.html" target="_top" xlink:title="Option Rho indicator that calculate the rho of an option">
<polygon fill="white" stroke="black" points="577,-88.5 577,-107.5 735,-107.5 735,-88.5 577,-88.5"/>
<text text-anchor="middle" x="656" y="-95.5" font-family="Helvetica,sans-Serif" font-size="10.00">QuantConnect.Indicators.Rho</text>
</a>
</g>
</g>
<!-- Node5&#45;&gt;Node8 -->
<g id="edge7" class="edge">
<title>Node5&#45;&gt;Node8</title>
<path fill="none" stroke="midnightblue" d="M548.32,-98C557.8,-98 567.42,-98 576.82,-98"/>
<polygon fill="midnightblue" stroke="midnightblue" points="548.12,-94.5 538.12,-98 548.12,-101.5 548.12,-94.5"/>
</g>
<!-- Node9 -->
<g id="node9" class="node">
<title>Node9</title>
<g id="a_node9"><a xlink:href="classQuantConnect_1_1Indicators_1_1Theta.html" target="_top" xlink:title="Option Theta indicator that calculate the theta of an option">
<polygon fill="white" stroke="black" points="586,-39 586,-69 726,-69 726,-39 586,-39"/>
<text text-anchor="start" x="594" y="-57" font-family="Helvetica,sans-Serif" font-size="10.00">QuantConnect.Indicators.</text>
<text text-anchor="middle" x="656" y="-46" font-family="Helvetica,sans-Serif" font-size="10.00">Theta</text>
</a>
</g>
</g>
<!-- Node5&#45;&gt;Node9 -->
<g id="edge8" class="edge">
<title>Node5&#45;&gt;Node9</title>
<path fill="none" stroke="midnightblue" d="M538.96,-80.73C555.75,-76.86 573.42,-72.79 589.77,-69.03"/>
<polygon fill="midnightblue" stroke="midnightblue" points="538.16,-77.33 529.2,-82.98 539.73,-84.15 538.16,-77.33"/>
</g>
<!-- Node10 -->
<g id="node10" class="node">
<title>Node10</title>
<g id="a_node10"><a xlink:href="classQuantConnect_1_1Indicators_1_1Vega.html" target="_top" xlink:title="Option Vega indicator that calculate the Vega of an option">
<polygon fill="white" stroke="black" points="574,-0.5 574,-19.5 738,-19.5 738,-0.5 574,-0.5"/>
<text text-anchor="middle" x="656" y="-7.5" font-family="Helvetica,sans-Serif" font-size="10.00">QuantConnect.Indicators.Vega</text>
</a>
</g>
</g>
<!-- Node5&#45;&gt;Node10 -->
<g id="edge9" class="edge">
<title>Node5&#45;&gt;Node10</title>
<path fill="none" stroke="midnightblue" d="M491.87,-76.88C513.3,-61.56 544.19,-41.44 574,-29 583.06,-25.22 593.03,-22.1 602.77,-19.57"/>
<polygon fill="midnightblue" stroke="midnightblue" points="489.61,-74.19 483.58,-82.9 493.73,-79.85 489.61,-74.19"/>
</g>
</g>
</svg>
