<?xml version="1.0" encoding="UTF-8" standalone="no"?>
<!DOCTYPE svg PUBLIC "-//W3C//DTD SVG 1.1//EN"
 "http://www.w3.org/Graphics/SVG/1.1/DTD/svg11.dtd">
<!-- Generated by graphviz version 2.43.0 (0)
 -->
<!-- Title: QuantConnect.Data.UniverseSelection.UniverseDecorator.CanRemoveMember Pages: 1 -->
<svg width="608pt" height="50pt"
 viewBox="0.00 0.00 608.00 50.00" xmlns="http://www.w3.org/2000/svg" xmlns:xlink="http://www.w3.org/1999/xlink">
<g id="graph0" class="graph" transform="scale(1 1) rotate(0) translate(4 46)">
<title>QuantConnect.Data.UniverseSelection.UniverseDecorator.CanRemoveMember</title>
<polygon fill="white" stroke="transparent" points="-4,4 -4,-46 604,-46 604,4 -4,4"/>
<!-- Node1 -->
<g id="node1" class="node">
<title>Node1</title>
<g id="a_node1"><a xlink:title="Determines whether or not the specified security can be removed from this universe....">
<polygon fill="#bfbfbf" stroke="black" points="0,-0.5 0,-41.5 177,-41.5 177,-0.5 0,-0.5"/>
<text text-anchor="start" x="8" y="-29.5" font-family="Helvetica,sans-Serif" font-size="10.00">QuantConnect.Data.Universe</text>
<text text-anchor="start" x="8" y="-18.5" font-family="Helvetica,sans-Serif" font-size="10.00">Selection.UniverseDecorator.Can</text>
<text text-anchor="middle" x="88.5" y="-7.5" font-family="Helvetica,sans-Serif" font-size="10.00">RemoveMember</text>
</a>
</g>
</g>
<!-- Node2 -->
<g id="node2" class="node">
<title>Node2</title>
<g id="a_node2"><a xlink:href="classQuantConnect_1_1Data_1_1UniverseSelection_1_1Universe.html#ad79aa4f11371d4ec65a35a187d6eb331" target="_top" xlink:title="Determines whether or not the specified security can be removed from this universe....">
<polygon fill="white" stroke="black" points="213,-6 213,-36 424,-36 424,-6 213,-6"/>
<text text-anchor="start" x="221" y="-24" font-family="Helvetica,sans-Serif" font-size="10.00">QuantConnect.Data.Universe</text>
<text text-anchor="middle" x="318.5" y="-13" font-family="Helvetica,sans-Serif" font-size="10.00">Selection.Universe.CanRemoveMember</text>
</a>
</g>
</g>
<!-- Node1&#45;&gt;Node2 -->
<g id="edge1" class="edge">
<title>Node1&#45;&gt;Node2</title>
<path fill="none" stroke="midnightblue" d="M177.32,-21C185.71,-21 194.29,-21 202.88,-21"/>
<polygon fill="midnightblue" stroke="midnightblue" points="202.96,-24.5 212.96,-21 202.96,-17.5 202.96,-24.5"/>
</g>
<!-- Node3 -->
<g id="node3" class="node">
<title>Node3</title>
<g id="a_node3"><a xlink:href="classQuantConnect_1_1Securities_1_1SecurityCache.html#a2e22a721cbad979accb38e91dd640b8e" target="_top" xlink:title="Get last data packet received for this security if any else null">
<polygon fill="white" stroke="black" points="460,-6 460,-36 600,-36 600,-6 460,-6"/>
<text text-anchor="start" x="468" y="-24" font-family="Helvetica,sans-Serif" font-size="10.00">QuantConnect.Securities.</text>
<text text-anchor="middle" x="530" y="-13" font-family="Helvetica,sans-Serif" font-size="10.00">SecurityCache.GetData</text>
</a>
</g>
</g>
<!-- Node2&#45;&gt;Node3 -->
<g id="edge2" class="edge">
<title>Node2&#45;&gt;Node3</title>
<path fill="none" stroke="midnightblue" d="M424.25,-21C432.83,-21 441.41,-21 449.76,-21"/>
<polygon fill="midnightblue" stroke="midnightblue" points="449.82,-24.5 459.82,-21 449.82,-17.5 449.82,-24.5"/>
</g>
</g>
</svg>
