<?xml version="1.0" encoding="UTF-8" standalone="no"?>
<!DOCTYPE svg PUBLIC "-//W3C//DTD SVG 1.1//EN"
 "http://www.w3.org/Graphics/SVG/1.1/DTD/svg11.dtd">
<!-- Generated by graphviz version 2.43.0 (0)
 -->
<!-- Title: QuantConnect.Lean.Engine.DataFeeds.SubscriptionDataSourceReader.ForSource Pages: 1 -->
<svg width="583pt" height="88pt"
 viewBox="0.00 0.00 583.00 88.00" xmlns="http://www.w3.org/2000/svg" xmlns:xlink="http://www.w3.org/1999/xlink">
<g id="graph0" class="graph" transform="scale(1 1) rotate(0) translate(4 84)">
<title>QuantConnect.Lean.Engine.DataFeeds.SubscriptionDataSourceReader.ForSource</title>
<polygon fill="white" stroke="transparent" points="-4,4 -4,-84 579,-84 579,4 -4,4"/>
<!-- Node1 -->
<g id="node1" class="node">
<title>Node1</title>
<g id="a_node1"><a xlink:title="Creates a new ISubscriptionDataSourceReader capable of handling the specified source">
<polygon fill="#bfbfbf" stroke="black" points="0,-19 0,-60 188,-60 188,-19 0,-19"/>
<text text-anchor="start" x="8" y="-48" font-family="Helvetica,sans-Serif" font-size="10.00">QuantConnect.Lean.Engine.</text>
<text text-anchor="start" x="8" y="-37" font-family="Helvetica,sans-Serif" font-size="10.00">DataFeeds.SubscriptionDataSource</text>
<text text-anchor="middle" x="94" y="-26" font-family="Helvetica,sans-Serif" font-size="10.00">Reader.ForSource</text>
</a>
</g>
</g>
<!-- Node2 -->
<g id="node2" class="node">
<title>Node2</title>
<g id="a_node2"><a xlink:href="classQuantConnect_1_1Logging_1_1Log.html#af0e7955911bc7664b37661b2a303a9e3" target="_top" xlink:title="Log error">
<polygon fill="white" stroke="black" points="231.5,-49.5 231.5,-79.5 381.5,-79.5 381.5,-49.5 231.5,-49.5"/>
<text text-anchor="start" x="239.5" y="-67.5" font-family="Helvetica,sans-Serif" font-size="10.00">QuantConnect.Logging.Log.</text>
<text text-anchor="middle" x="306.5" y="-56.5" font-family="Helvetica,sans-Serif" font-size="10.00">Error</text>
</a>
</g>
</g>
<!-- Node1&#45;&gt;Node2 -->
<g id="edge1" class="edge">
<title>Node1&#45;&gt;Node2</title>
<path fill="none" stroke="midnightblue" d="M188.25,-50.57C199.16,-51.87 210.26,-53.19 221.04,-54.47"/>
<polygon fill="midnightblue" stroke="midnightblue" points="220.94,-57.98 231.28,-55.69 221.76,-51.03 220.94,-57.98"/>
</g>
<!-- Node4 -->
<g id="node4" class="node">
<title>Node4</title>
<g id="a_node4"><a xlink:href="classQuantConnect_1_1Data_1_1BaseData.html#acae87f280cdb0e488c01a0a7fcce912e" target="_top" xlink:title="Indicates that the data set is expected to be sparse">
<polygon fill="white" stroke="black" points="224,-0.5 224,-30.5 389,-30.5 389,-0.5 224,-0.5"/>
<text text-anchor="start" x="232" y="-18.5" font-family="Helvetica,sans-Serif" font-size="10.00">QuantConnect.Data.BaseData.</text>
<text text-anchor="middle" x="306.5" y="-7.5" font-family="Helvetica,sans-Serif" font-size="10.00">IsSparseData</text>
</a>
</g>
</g>
<!-- Node1&#45;&gt;Node4 -->
<g id="edge3" class="edge">
<title>Node1&#45;&gt;Node4</title>
<path fill="none" stroke="midnightblue" d="M188.25,-28.87C196.69,-27.91 205.24,-26.93 213.67,-25.97"/>
<polygon fill="midnightblue" stroke="midnightblue" points="214.34,-29.42 223.88,-24.81 213.55,-22.46 214.34,-29.42"/>
</g>
<!-- Node3 -->
<g id="node3" class="node">
<title>Node3</title>
<g id="a_node3"><a xlink:href="interfaceQuantConnect_1_1Logging_1_1ILogHandler.html#a35373a0c5d76031fa5ccf5dc39e5c25d" target="_top" xlink:title="Write error message to log">
<polygon fill="white" stroke="black" points="425,-49.5 425,-79.5 575,-79.5 575,-49.5 425,-49.5"/>
<text text-anchor="start" x="433" y="-67.5" font-family="Helvetica,sans-Serif" font-size="10.00">QuantConnect.Logging.ILog</text>
<text text-anchor="middle" x="500" y="-56.5" font-family="Helvetica,sans-Serif" font-size="10.00">Handler.Error</text>
</a>
</g>
</g>
<!-- Node2&#45;&gt;Node3 -->
<g id="edge2" class="edge">
<title>Node2&#45;&gt;Node3</title>
<path fill="none" stroke="midnightblue" d="M381.54,-64.5C392.42,-64.5 403.69,-64.5 414.76,-64.5"/>
<polygon fill="midnightblue" stroke="midnightblue" points="414.84,-68 424.84,-64.5 414.84,-61 414.84,-68"/>
</g>
</g>
</svg>
