<?xml version="1.0" encoding="UTF-8" standalone="no"?>
<!DOCTYPE svg PUBLIC "-//W3C//DTD SVG 1.1//EN"
 "http://www.w3.org/Graphics/SVG/1.1/DTD/svg11.dtd">
<!-- Generated by graphviz version 2.43.0 (0)
 -->
<!-- Title: QuantConnect.Lean.Engine.DataFeeds.Queues.FakeDataQueue.FakeDataQueue Pages: 1 -->
<svg width="790pt" height="147pt"
 viewBox="0.00 0.00 790.00 146.50" xmlns="http://www.w3.org/2000/svg" xmlns:xlink="http://www.w3.org/1999/xlink">
<g id="graph0" class="graph" transform="scale(1 1) rotate(0) translate(4 142.5)">
<title>QuantConnect.Lean.Engine.DataFeeds.Queues.FakeDataQueue.FakeDataQueue</title>
<polygon fill="white" stroke="transparent" points="-4,4 -4,-142.5 786,-142.5 786,4 -4,4"/>
<!-- Node1 -->
<g id="node1" class="node">
<title>Node1</title>
<g id="a_node1"><a xlink:title="Initializes a new instance of the FakeDataQueue class to randomly emit data for each symbol">
<polygon fill="#bfbfbf" stroke="black" points="0,-42 0,-83 191,-83 191,-42 0,-42"/>
<text text-anchor="start" x="8" y="-71" font-family="Helvetica,sans-Serif" font-size="10.00">QuantConnect.Lean.Engine.</text>
<text text-anchor="start" x="8" y="-60" font-family="Helvetica,sans-Serif" font-size="10.00">DataFeeds.Queues.FakeDataQueue.</text>
<text text-anchor="middle" x="95.5" y="-49" font-family="Helvetica,sans-Serif" font-size="10.00">FakeDataQueue</text>
</a>
</g>
</g>
<!-- Node2 -->
<g id="node2" class="node">
<title>Node2</title>
<g id="a_node2"><a xlink:href="classQuantConnect_1_1Securities_1_1MarketHoursDatabase.html#aa01232d91c17c556b18ea8f1f7fabcd0" target="_top" xlink:title="Gets the instance of the MarketHoursDatabase class produced by reading in the market hours data found...">
<polygon fill="white" stroke="black" points="227,-97 227,-138 403,-138 403,-97 227,-97"/>
<text text-anchor="start" x="235" y="-126" font-family="Helvetica,sans-Serif" font-size="10.00">QuantConnect.Securities.</text>
<text text-anchor="start" x="235" y="-115" font-family="Helvetica,sans-Serif" font-size="10.00">MarketHoursDatabase.FromData</text>
<text text-anchor="middle" x="315" y="-104" font-family="Helvetica,sans-Serif" font-size="10.00">Folder</text>
</a>
</g>
</g>
<!-- Node1&#45;&gt;Node2 -->
<g id="edge1" class="edge">
<title>Node1&#45;&gt;Node2</title>
<path fill="none" stroke="midnightblue" d="M177.8,-83.06C192.55,-86.79 208.01,-90.7 223.02,-94.49"/>
<polygon fill="midnightblue" stroke="midnightblue" points="222.25,-97.91 232.8,-96.97 223.96,-91.12 222.25,-97.91"/>
</g>
<!-- Node3 -->
<g id="node3" class="node">
<title>Node3</title>
<g id="a_node3"><a xlink:href="classQuantConnect_1_1Configuration_1_1Config.html#aaabf1286e33a675b2e116f3289981839" target="_top" xlink:title="Get the matching config setting from the file searching for this key.">
<polygon fill="white" stroke="black" points="236.5,-47.5 236.5,-77.5 393.5,-77.5 393.5,-47.5 236.5,-47.5"/>
<text text-anchor="start" x="244.5" y="-65.5" font-family="Helvetica,sans-Serif" font-size="10.00">QuantConnect.Configuration.</text>
<text text-anchor="middle" x="315" y="-54.5" font-family="Helvetica,sans-Serif" font-size="10.00">Config.Get</text>
</a>
</g>
</g>
<!-- Node1&#45;&gt;Node3 -->
<g id="edge2" class="edge">
<title>Node1&#45;&gt;Node3</title>
<path fill="none" stroke="midnightblue" d="M191.27,-62.5C202.86,-62.5 214.68,-62.5 226.17,-62.5"/>
<polygon fill="midnightblue" stroke="midnightblue" points="226.17,-66 236.17,-62.5 226.17,-59 226.17,-66"/>
</g>
<!-- Node6 -->
<g id="node6" class="node">
<title>Node6</title>
<g id="a_node6"><a xlink:href="classQuantConnect_1_1Logging_1_1Log.html#a4e55477fbc790846b74550a57198cea9" target="_top" xlink:title="Log trace">
<polygon fill="white" stroke="black" points="442.5,-0.5 442.5,-30.5 592.5,-30.5 592.5,-0.5 442.5,-0.5"/>
<text text-anchor="start" x="450.5" y="-18.5" font-family="Helvetica,sans-Serif" font-size="10.00">QuantConnect.Logging.Log.</text>
<text text-anchor="middle" x="517.5" y="-7.5" font-family="Helvetica,sans-Serif" font-size="10.00">Trace</text>
</a>
</g>
</g>
<!-- Node1&#45;&gt;Node6 -->
<g id="edge7" class="edge">
<title>Node1&#45;&gt;Node6</title>
<path fill="none" stroke="midnightblue" d="M191.09,-43.07C203.14,-40.98 215.34,-39.06 227,-37.5 295.81,-28.32 374.38,-22.65 432.29,-19.37"/>
<polygon fill="midnightblue" stroke="midnightblue" points="432.7,-22.86 442.49,-18.81 432.31,-15.87 432.7,-22.86"/>
</g>
<!-- Node4 -->
<g id="node4" class="node">
<title>Node4</title>
<g id="a_node4"><a xlink:href="classQuantConnect_1_1Configuration_1_1Config.html#a1504ca19b3759d008b090375ddf4ad10" target="_top" xlink:title="Gets the currently selected environment. If sub&#45;environments are defined, they&#39;ll be returned as {env...">
<polygon fill="white" stroke="black" points="439,-98.5 439,-128.5 596,-128.5 596,-98.5 439,-98.5"/>
<text text-anchor="start" x="447" y="-116.5" font-family="Helvetica,sans-Serif" font-size="10.00">QuantConnect.Configuration.</text>
<text text-anchor="middle" x="517.5" y="-105.5" font-family="Helvetica,sans-Serif" font-size="10.00">Config.GetEnvironment</text>
</a>
</g>
</g>
<!-- Node3&#45;&gt;Node4 -->
<g id="edge3" class="edge">
<title>Node3&#45;&gt;Node4</title>
<path fill="none" stroke="midnightblue" d="M375.07,-77.53C397.81,-83.31 423.98,-89.97 447.57,-95.97"/>
<polygon fill="midnightblue" stroke="midnightblue" points="446.95,-99.42 457.5,-98.49 448.68,-92.64 446.95,-99.42"/>
</g>
<!-- Node5 -->
<g id="node5" class="node">
<title>Node5</title>
<g id="a_node5"><a xlink:href="classQuantConnect_1_1Configuration_1_1Config.html#a9ed01bc116e8181a7557f3e668f34691" target="_top" xlink:title="Gets the underlying JToken for the specified key">
<polygon fill="white" stroke="black" points="439,-49.5 439,-79.5 596,-79.5 596,-49.5 439,-49.5"/>
<text text-anchor="start" x="447" y="-67.5" font-family="Helvetica,sans-Serif" font-size="10.00">QuantConnect.Configuration.</text>
<text text-anchor="middle" x="517.5" y="-56.5" font-family="Helvetica,sans-Serif" font-size="10.00">Config.GetToken</text>
</a>
</g>
</g>
<!-- Node3&#45;&gt;Node5 -->
<g id="edge4" class="edge">
<title>Node3&#45;&gt;Node5</title>
<path fill="none" stroke="midnightblue" d="M393.52,-63.27C405.02,-63.39 416.95,-63.51 428.65,-63.62"/>
<polygon fill="midnightblue" stroke="midnightblue" points="428.82,-67.13 438.86,-63.73 428.89,-60.13 428.82,-67.13"/>
</g>
<!-- Node3&#45;&gt;Node6 -->
<g id="edge5" class="edge">
<title>Node3&#45;&gt;Node6</title>
<path fill="none" stroke="midnightblue" d="M379.99,-47.5C399.89,-42.84 421.98,-37.66 442.5,-32.85"/>
<polygon fill="midnightblue" stroke="midnightblue" points="443.49,-36.21 452.43,-30.52 441.89,-29.39 443.49,-36.21"/>
</g>
<!-- Node7 -->
<g id="node7" class="node">
<title>Node7</title>
<g id="a_node7"><a xlink:href="interfaceQuantConnect_1_1Logging_1_1ILogHandler.html#a3fb71a33ac66129240b63f12b6fcda3b" target="_top" xlink:title="Write debug message to log">
<polygon fill="white" stroke="black" points="632,-0.5 632,-30.5 782,-30.5 782,-0.5 632,-0.5"/>
<text text-anchor="start" x="640" y="-18.5" font-family="Helvetica,sans-Serif" font-size="10.00">QuantConnect.Logging.ILog</text>
<text text-anchor="middle" x="707" y="-7.5" font-family="Helvetica,sans-Serif" font-size="10.00">Handler.Trace</text>
</a>
</g>
</g>
<!-- Node6&#45;&gt;Node7 -->
<g id="edge6" class="edge">
<title>Node6&#45;&gt;Node7</title>
<path fill="none" stroke="midnightblue" d="M592.6,-15.5C602.18,-15.5 612.04,-15.5 621.76,-15.5"/>
<polygon fill="midnightblue" stroke="midnightblue" points="621.82,-19 631.82,-15.5 621.82,-12 621.82,-19"/>
</g>
</g>
</svg>
