<?xml version="1.0" encoding="UTF-8" standalone="no"?>
<!DOCTYPE svg PUBLIC "-//W3C//DTD SVG 1.1//EN"
 "http://www.w3.org/Graphics/SVG/1.1/DTD/svg11.dtd">
<!-- Generated by graphviz version 2.43.0 (0)
 -->
<!-- Title: QuantConnect.Securities.Positions.PositionGroupBuyingPowerModel.GetMaintenanceMargin Pages: 1 -->
<svg width="968pt" height="61pt"
 viewBox="0.00 0.00 968.00 61.00" xmlns="http://www.w3.org/2000/svg" xmlns:xlink="http://www.w3.org/1999/xlink">
<g id="graph0" class="graph" transform="scale(1 1) rotate(0) translate(4 57)">
<title>QuantConnect.Securities.Positions.PositionGroupBuyingPowerModel.GetMaintenanceMargin</title>
<polygon fill="white" stroke="transparent" points="-4,4 -4,-57 964,-57 964,4 -4,4"/>
<!-- Node1 -->
<g id="node1" class="node">
<title>Node1</title>
<g id="a_node1"><a xlink:title="Gets the margin currently allocated to the specified holding">
<polygon fill="#bfbfbf" stroke="black" points="766,-6 766,-47 960,-47 960,-6 766,-6"/>
<text text-anchor="start" x="774" y="-35" font-family="Helvetica,sans-Serif" font-size="10.00">QuantConnect.Securities.</text>
<text text-anchor="start" x="774" y="-24" font-family="Helvetica,sans-Serif" font-size="10.00">Positions.PositionGroupBuying</text>
<text text-anchor="middle" x="863" y="-13" font-family="Helvetica,sans-Serif" font-size="10.00">PowerModel.GetMaintenanceMargin</text>
</a>
</g>
</g>
<!-- Node2 -->
<g id="node2" class="node">
<title>Node2</title>
<g id="a_node2"><a xlink:href="classQuantConnect_1_1Securities_1_1Positions_1_1PositionGroupBuyingPowerModel.html#a9306785e8b001829233b64cd9a6d3d1e" target="_top" xlink:title="Computes the amount of buying power reserved by the provided position group">
<polygon fill="white" stroke="black" points="509,-0.5 509,-52.5 730,-52.5 730,-0.5 509,-0.5"/>
<text text-anchor="start" x="517" y="-40.5" font-family="Helvetica,sans-Serif" font-size="10.00">QuantConnect.Securities.</text>
<text text-anchor="start" x="517" y="-29.5" font-family="Helvetica,sans-Serif" font-size="10.00">Positions.PositionGroupBuying</text>
<text text-anchor="start" x="517" y="-18.5" font-family="Helvetica,sans-Serif" font-size="10.00">PowerModel.GetReservedBuyingPowerFor</text>
<text text-anchor="middle" x="619.5" y="-7.5" font-family="Helvetica,sans-Serif" font-size="10.00">PositionGroup</text>
</a>
</g>
</g>
<!-- Node1&#45;&gt;Node2 -->
<g id="edge1" class="edge">
<title>Node1&#45;&gt;Node2</title>
<path fill="none" stroke="midnightblue" d="M755.64,-26.5C747.21,-26.5 738.69,-26.5 730.24,-26.5"/>
<polygon fill="midnightblue" stroke="midnightblue" points="755.86,-30 765.86,-26.5 755.86,-23 755.86,-30"/>
</g>
<!-- Node3 -->
<g id="node3" class="node">
<title>Node3</title>
<g id="a_node3"><a xlink:href="classQuantConnect_1_1Securities_1_1Positions_1_1PositionGroupBuyingPowerModel.html#a53f72f99e03b8f529f64d92566a2e265" target="_top" xlink:title="Gets the buying power available for a position group trade">
<polygon fill="white" stroke="black" points="244,-6 244,-47 473,-47 473,-6 244,-6"/>
<text text-anchor="start" x="252" y="-35" font-family="Helvetica,sans-Serif" font-size="10.00">QuantConnect.Securities.</text>
<text text-anchor="start" x="252" y="-24" font-family="Helvetica,sans-Serif" font-size="10.00">Positions.PositionGroupBuying</text>
<text text-anchor="middle" x="358.5" y="-13" font-family="Helvetica,sans-Serif" font-size="10.00">PowerModel.GetPositionGroupBuyingPower</text>
</a>
</g>
</g>
<!-- Node2&#45;&gt;Node3 -->
<g id="edge2" class="edge">
<title>Node2&#45;&gt;Node3</title>
<path fill="none" stroke="midnightblue" d="M498.45,-26.5C490.05,-26.5 481.6,-26.5 473.24,-26.5"/>
<polygon fill="midnightblue" stroke="midnightblue" points="498.66,-30 508.66,-26.5 498.66,-23 498.66,-30"/>
</g>
<!-- Node4 -->
<g id="node4" class="node">
<title>Node4</title>
<g id="a_node4"><a xlink:href="classQuantConnect_1_1Securities_1_1Positions_1_1PositionGroupBuyingPowerModel.html#a9443d3b032f7520dfe544b1542b005e8" target="_top" xlink:title="Check if there is sufficient buying power for the position group to execute this order.">
<polygon fill="white" stroke="black" points="0,-0.5 0,-52.5 208,-52.5 208,-0.5 0,-0.5"/>
<text text-anchor="start" x="8" y="-40.5" font-family="Helvetica,sans-Serif" font-size="10.00">QuantConnect.Securities.</text>
<text text-anchor="start" x="8" y="-29.5" font-family="Helvetica,sans-Serif" font-size="10.00">Positions.PositionGroupBuying</text>
<text text-anchor="start" x="8" y="-18.5" font-family="Helvetica,sans-Serif" font-size="10.00">PowerModel.HasSufficientBuyingPower</text>
<text text-anchor="middle" x="104" y="-7.5" font-family="Helvetica,sans-Serif" font-size="10.00">ForOrder</text>
</a>
</g>
</g>
<!-- Node3&#45;&gt;Node4 -->
<g id="edge3" class="edge">
<title>Node3&#45;&gt;Node4</title>
<path fill="none" stroke="midnightblue" d="M233.73,-26.5C225.13,-26.5 216.52,-26.5 208.05,-26.5"/>
<polygon fill="midnightblue" stroke="midnightblue" points="233.81,-30 243.81,-26.5 233.81,-23 233.81,-30"/>
</g>
</g>
</svg>
