<?xml version="1.0" encoding="UTF-8" standalone="no"?>
<!DOCTYPE svg PUBLIC "-//W3C//DTD SVG 1.1//EN"
 "http://www.w3.org/Graphics/SVG/1.1/DTD/svg11.dtd">
<!-- Generated by graphviz version 2.43.0 (0)
 -->
<!-- Title: QuantConnect.Indicators.CandlestickPatterns.UpDownGapThreeMethods.ComputeNextValue Pages: 1 -->
<svg width="401pt" height="170pt"
 viewBox="0.00 0.00 401.00 170.00" xmlns="http://www.w3.org/2000/svg" xmlns:xlink="http://www.w3.org/1999/xlink">
<g id="graph0" class="graph" transform="scale(1 1) rotate(0) translate(4 166)">
<title>QuantConnect.Indicators.CandlestickPatterns.UpDownGapThreeMethods.ComputeNextValue</title>
<polygon fill="white" stroke="transparent" points="-4,4 -4,-166 397,-166 397,4 -4,4"/>
<!-- Node1 -->
<g id="node1" class="node">
<title>Node1</title>
<g id="a_node1"><a xlink:title="Computes the next value of this indicator from the given state">
<polygon fill="#bfbfbf" stroke="black" points="0,-60.5 0,-101.5 184,-101.5 184,-60.5 0,-60.5"/>
<text text-anchor="start" x="8" y="-89.5" font-family="Helvetica,sans-Serif" font-size="10.00">QuantConnect.Indicators.</text>
<text text-anchor="start" x="8" y="-78.5" font-family="Helvetica,sans-Serif" font-size="10.00">CandlestickPatterns.UpDownGap</text>
<text text-anchor="middle" x="92" y="-67.5" font-family="Helvetica,sans-Serif" font-size="10.00">ThreeMethods.ComputeNextValue</text>
</a>
</g>
</g>
<!-- Node2 -->
<g id="node2" class="node">
<title>Node2</title>
<g id="a_node2"><a xlink:href="classQuantConnect_1_1Indicators_1_1CandlestickPatterns_1_1CandlestickPattern.html#a4ffcf1c3b910415989e6d399b917f499" target="_top" xlink:title="Returns the candle color of a candle">
<polygon fill="white" stroke="black" points="220,-120.5 220,-161.5 393,-161.5 393,-120.5 220,-120.5"/>
<text text-anchor="start" x="228" y="-149.5" font-family="Helvetica,sans-Serif" font-size="10.00">QuantConnect.Indicators.</text>
<text text-anchor="start" x="228" y="-138.5" font-family="Helvetica,sans-Serif" font-size="10.00">CandlestickPatterns.Candlestick</text>
<text text-anchor="middle" x="306.5" y="-127.5" font-family="Helvetica,sans-Serif" font-size="10.00">Pattern.GetCandleColor</text>
</a>
</g>
</g>
<!-- Node1&#45;&gt;Node2 -->
<g id="edge1" class="edge">
<title>Node1&#45;&gt;Node2</title>
<path fill="none" stroke="midnightblue" d="M165.83,-101.56C184.25,-106.76 204.16,-112.39 223.01,-117.71"/>
<polygon fill="midnightblue" stroke="midnightblue" points="222.19,-121.11 232.76,-120.46 224.09,-114.38 222.19,-121.11"/>
</g>
<!-- Node3 -->
<g id="node3" class="node">
<title>Node3</title>
<g id="a_node3"><a xlink:href="classQuantConnect_1_1Indicators_1_1CandlestickPatterns_1_1CandlestickPattern.html#ae5f87afc788810cd080db8c80da8d503" target="_top" xlink:title="Returns true if the candle is lower than the previous one (with no body overlap)">
<polygon fill="white" stroke="black" points="220,-60.5 220,-101.5 393,-101.5 393,-60.5 220,-60.5"/>
<text text-anchor="start" x="228" y="-89.5" font-family="Helvetica,sans-Serif" font-size="10.00">QuantConnect.Indicators.</text>
<text text-anchor="start" x="228" y="-78.5" font-family="Helvetica,sans-Serif" font-size="10.00">CandlestickPatterns.Candlestick</text>
<text text-anchor="middle" x="306.5" y="-67.5" font-family="Helvetica,sans-Serif" font-size="10.00">Pattern.GetRealBodyGapDown</text>
</a>
</g>
</g>
<!-- Node1&#45;&gt;Node3 -->
<g id="edge2" class="edge">
<title>Node1&#45;&gt;Node3</title>
<path fill="none" stroke="midnightblue" d="M184.04,-81C192.45,-81 200.99,-81 209.44,-81"/>
<polygon fill="midnightblue" stroke="midnightblue" points="209.7,-84.5 219.7,-81 209.7,-77.5 209.7,-84.5"/>
</g>
<!-- Node4 -->
<g id="node4" class="node">
<title>Node4</title>
<g id="a_node4"><a xlink:href="classQuantConnect_1_1Indicators_1_1CandlestickPatterns_1_1CandlestickPattern.html#ab847cbc489177a641b6039eab2ff21b3" target="_top" xlink:title="Returns true if the candle is higher than the previous one (with no body overlap)">
<polygon fill="white" stroke="black" points="220,-0.5 220,-41.5 393,-41.5 393,-0.5 220,-0.5"/>
<text text-anchor="start" x="228" y="-29.5" font-family="Helvetica,sans-Serif" font-size="10.00">QuantConnect.Indicators.</text>
<text text-anchor="start" x="228" y="-18.5" font-family="Helvetica,sans-Serif" font-size="10.00">CandlestickPatterns.Candlestick</text>
<text text-anchor="middle" x="306.5" y="-7.5" font-family="Helvetica,sans-Serif" font-size="10.00">Pattern.GetRealBodyGapUp</text>
</a>
</g>
</g>
<!-- Node1&#45;&gt;Node4 -->
<g id="edge3" class="edge">
<title>Node1&#45;&gt;Node4</title>
<path fill="none" stroke="midnightblue" d="M165.83,-60.44C184.25,-55.24 204.16,-49.61 223.01,-44.29"/>
<polygon fill="midnightblue" stroke="midnightblue" points="224.09,-47.62 232.76,-41.54 222.19,-40.89 224.09,-47.62"/>
</g>
</g>
</svg>
