<?xml version="1.0" encoding="UTF-8" standalone="no"?>
<!DOCTYPE svg PUBLIC "-//W3C//DTD SVG 1.1//EN"
 "http://www.w3.org/Graphics/SVG/1.1/DTD/svg11.dtd">
<!-- Generated by graphviz version 2.43.0 (0)
 -->
<!-- Title: QuantConnect.Time.UnixTimeStampToDateTime Pages: 1 -->
<svg width="888pt" height="394pt"
 viewBox="0.00 0.00 888.00 394.00" xmlns="http://www.w3.org/2000/svg" xmlns:xlink="http://www.w3.org/1999/xlink">
<g id="graph0" class="graph" transform="scale(1 1) rotate(0) translate(4 390)">
<title>QuantConnect.Time.UnixTimeStampToDateTime</title>
<polygon fill="white" stroke="transparent" points="-4,4 -4,-390 884,-390 884,4 -4,4"/>
<!-- Node1 -->
<g id="node1" class="node">
<title>Node1</title>
<g id="a_node1"><a xlink:title="Create a C# DateTime from a UnixTimestamp">
<polygon fill="#bfbfbf" stroke="black" points="716,-183.5 716,-213.5 880,-213.5 880,-183.5 716,-183.5"/>
<text text-anchor="start" x="724" y="-201.5" font-family="Helvetica,sans-Serif" font-size="10.00">QuantConnect.Time.UnixTime</text>
<text text-anchor="middle" x="798" y="-190.5" font-family="Helvetica,sans-Serif" font-size="10.00">StampToDateTime</text>
</a>
</g>
</g>
<!-- Node2 -->
<g id="node2" class="node">
<title>Node2</title>
<g id="a_node2"><a xlink:href="classQuantConnect_1_1Report_1_1ResultsUtil.html#a1283b789256e20c34dc2e56a3ec4ace3" target="_top" xlink:title="Gets the points of the benchmark">
<polygon fill="white" stroke="black" points="494,-355.5 494,-385.5 654,-385.5 654,-355.5 494,-355.5"/>
<text text-anchor="start" x="502" y="-373.5" font-family="Helvetica,sans-Serif" font-size="10.00">QuantConnect.Report.Results</text>
<text text-anchor="middle" x="574" y="-362.5" font-family="Helvetica,sans-Serif" font-size="10.00">Util.BenchmarkPoints</text>
</a>
</g>
</g>
<!-- Node1&#45;&gt;Node2 -->
<g id="edge1" class="edge">
<title>Node1&#45;&gt;Node2</title>
<path fill="none" stroke="midnightblue" d="M784.6,-222.97C766.39,-256.32 729.15,-315.46 680,-346.5 672.09,-351.49 663.27,-355.45 654.19,-358.59"/>
<polygon fill="midnightblue" stroke="midnightblue" points="787.82,-224.37 789.44,-213.9 781.65,-221.08 787.82,-224.37"/>
</g>
<!-- Node3 -->
<g id="node3" class="node">
<title>Node3</title>
<g id="a_node3"><a xlink:href="classQuantConnect_1_1Report_1_1ResultsUtil.html#afb63ac3428ae3c571cd401844eba9bc7" target="_top" xlink:title="Get the equity chart points">
<polygon fill="white" stroke="black" points="494,-306.5 494,-336.5 654,-336.5 654,-306.5 494,-306.5"/>
<text text-anchor="start" x="502" y="-324.5" font-family="Helvetica,sans-Serif" font-size="10.00">QuantConnect.Report.Results</text>
<text text-anchor="middle" x="574" y="-313.5" font-family="Helvetica,sans-Serif" font-size="10.00">Util.EquityPoints</text>
</a>
</g>
</g>
<!-- Node1&#45;&gt;Node3 -->
<g id="edge2" class="edge">
<title>Node1&#45;&gt;Node3</title>
<path fill="none" stroke="midnightblue" d="M776.46,-221.36C754.72,-244.12 718.32,-278.35 680,-297.5 671.89,-301.55 663.08,-304.93 654.13,-307.75"/>
<polygon fill="midnightblue" stroke="midnightblue" points="779.23,-223.52 783.51,-213.83 774.12,-218.74 779.23,-223.52"/>
</g>
<!-- Node7 -->
<g id="node7" class="node">
<title>Node7</title>
<g id="a_node7"><a xlink:href="classQuantConnect_1_1Orders_1_1Order.html#a78fe84a79fafe9377035e67e22d71de8" target="_top" xlink:title="Creates a new Order instance from a SerializedOrder instance">
<polygon fill="white" stroke="black" points="497.5,-257.5 497.5,-287.5 650.5,-287.5 650.5,-257.5 497.5,-257.5"/>
<text text-anchor="start" x="505.5" y="-275.5" font-family="Helvetica,sans-Serif" font-size="10.00">QuantConnect.Orders.Order.</text>
<text text-anchor="middle" x="574" y="-264.5" font-family="Helvetica,sans-Serif" font-size="10.00">FromSerialized</text>
</a>
</g>
</g>
<!-- Node1&#45;&gt;Node7 -->
<g id="edge6" class="edge">
<title>Node1&#45;&gt;Node7</title>
<path fill="none" stroke="midnightblue" d="M756.67,-217.86C734.43,-227.99 706.1,-240.02 680,-248.5 669.95,-251.77 659.23,-254.76 648.61,-257.44"/>
<polygon fill="midnightblue" stroke="midnightblue" points="758.19,-221.01 765.81,-213.65 755.26,-214.65 758.19,-221.01"/>
</g>
<!-- Node9 -->
<g id="node9" class="node">
<title>Node9</title>
<g id="a_node9"><a xlink:href="classQuantConnect_1_1Orders_1_1OrderEvent.html#ab5201a3c4066f451616e2602bdb36a7d" target="_top" xlink:title="Creates a new instance based on the provided serialized order event">
<polygon fill="white" stroke="black" points="498.5,-208.5 498.5,-238.5 649.5,-238.5 649.5,-208.5 498.5,-208.5"/>
<text text-anchor="start" x="506.5" y="-226.5" font-family="Helvetica,sans-Serif" font-size="10.00">QuantConnect.Orders.Order</text>
<text text-anchor="middle" x="574" y="-215.5" font-family="Helvetica,sans-Serif" font-size="10.00">Event.FromSerialized</text>
</a>
</g>
</g>
<!-- Node1&#45;&gt;Node9 -->
<g id="edge8" class="edge">
<title>Node1&#45;&gt;Node9</title>
<path fill="none" stroke="midnightblue" d="M705.9,-208.76C687.18,-210.87 667.67,-213.06 649.61,-215.1"/>
<polygon fill="midnightblue" stroke="midnightblue" points="706.37,-212.23 715.91,-207.63 705.58,-205.27 706.37,-212.23"/>
</g>
<!-- Node11 -->
<g id="node11" class="node">
<title>Node11</title>
<g id="a_node11"><a xlink:href="classQuantConnect_1_1Algorithm_1_1Framework_1_1Alphas_1_1Insight.html#a45c92b494352cbd2da4db9890911200f" target="_top" xlink:title="Creates a new Insight object from the specified serialized form">
<polygon fill="white" stroke="black" points="475.5,-159.5 475.5,-189.5 672.5,-189.5 672.5,-159.5 475.5,-159.5"/>
<text text-anchor="start" x="483.5" y="-177.5" font-family="Helvetica,sans-Serif" font-size="10.00">QuantConnect.Algorithm.Framework.</text>
<text text-anchor="middle" x="574" y="-166.5" font-family="Helvetica,sans-Serif" font-size="10.00">Alphas.Insight.FromSerializedInsight</text>
</a>
</g>
</g>
<!-- Node1&#45;&gt;Node11 -->
<g id="edge10" class="edge">
<title>Node1&#45;&gt;Node11</title>
<path fill="none" stroke="midnightblue" d="M705.63,-188.62C694.82,-187.45 683.75,-186.26 672.85,-185.08"/>
<polygon fill="midnightblue" stroke="midnightblue" points="705.59,-192.14 715.91,-189.73 706.34,-185.18 705.59,-192.14"/>
</g>
<!-- Node13 -->
<g id="node13" class="node">
<title>Node13</title>
<g id="a_node13"><a xlink:href="classQuantConnect_1_1ToolBox_1_1KrakenDownloader_1_1KrakenDataDownloader.html#acce7cae682f1c726942574f7dd1f5da5" target="_top" xlink:title="Get historical data enumerable for a single symbol, type and resolution given this start and end time...">
<polygon fill="white" stroke="black" points="468,-110.5 468,-140.5 680,-140.5 680,-110.5 468,-110.5"/>
<text text-anchor="start" x="476" y="-128.5" font-family="Helvetica,sans-Serif" font-size="10.00">QuantConnect.ToolBox.Kraken</text>
<text text-anchor="middle" x="574" y="-117.5" font-family="Helvetica,sans-Serif" font-size="10.00">Downloader.KrakenDataDownloader.Get</text>
</a>
</g>
</g>
<!-- Node1&#45;&gt;Node13 -->
<g id="edge12" class="edge">
<title>Node1&#45;&gt;Node13</title>
<path fill="none" stroke="midnightblue" d="M754.85,-179.35C732.85,-169.83 705.3,-158.65 680,-150.5 668.76,-146.88 656.7,-143.53 644.89,-140.53"/>
<polygon fill="midnightblue" stroke="midnightblue" points="753.66,-182.65 764.23,-183.45 756.47,-176.23 753.66,-182.65"/>
</g>
<!-- Node14 -->
<g id="node14" class="node">
<title>Node14</title>
<g id="a_node14"><a xlink:href="classQuantConnect_1_1Lean_1_1Engine_1_1Results_1_1BacktestingResultHandler.html#a6e43b1510458ae46989bb7c4debec217" target="_top" xlink:title="Add a sample to the chart specified by the chartName, and seriesName.">
<polygon fill="white" stroke="black" points="481.5,-50 481.5,-91 666.5,-91 666.5,-50 481.5,-50"/>
<text text-anchor="start" x="489.5" y="-79" font-family="Helvetica,sans-Serif" font-size="10.00">QuantConnect.Lean.Engine.</text>
<text text-anchor="start" x="489.5" y="-68" font-family="Helvetica,sans-Serif" font-size="10.00">Results.BacktestingResultHandler.</text>
<text text-anchor="middle" x="574" y="-57" font-family="Helvetica,sans-Serif" font-size="10.00">Sample</text>
</a>
</g>
</g>
<!-- Node1&#45;&gt;Node14 -->
<g id="edge13" class="edge">
<title>Node1&#45;&gt;Node14</title>
<path fill="none" stroke="midnightblue" d="M775.83,-175.92C753.85,-153.73 717.48,-120.38 680,-100.5 673.38,-96.99 666.31,-93.85 659.08,-91.05"/>
<polygon fill="midnightblue" stroke="midnightblue" points="773.5,-178.55 782.98,-183.27 778.51,-173.66 773.5,-178.55"/>
</g>
<!-- Node16 -->
<g id="node16" class="node">
<title>Node16</title>
<g id="a_node16"><a xlink:href="classQuantConnect_1_1Time.html#ac8cbc28869423f26766cb5970ae957f2" target="_top" xlink:title="Create a C# DateTime from a UnixTimestamp">
<polygon fill="white" stroke="black" points="492,-0.5 492,-30.5 656,-30.5 656,-0.5 492,-0.5"/>
<text text-anchor="start" x="500" y="-18.5" font-family="Helvetica,sans-Serif" font-size="10.00">QuantConnect.Time.UnixTime</text>
<text text-anchor="middle" x="574" y="-7.5" font-family="Helvetica,sans-Serif" font-size="10.00">StampToDateTime</text>
</a>
</g>
</g>
<!-- Node1&#45;&gt;Node16 -->
<g id="edge15" class="edge">
<title>Node1&#45;&gt;Node16</title>
<path fill="none" stroke="midnightblue" d="M785.76,-173.98C768.31,-138.76 731.29,-74.37 680,-40.5 672.73,-35.7 664.63,-31.82 656.26,-28.68"/>
<polygon fill="midnightblue" stroke="midnightblue" points="782.66,-175.61 790.16,-183.1 788.97,-172.57 782.66,-175.61"/>
</g>
<!-- Node4 -->
<g id="node4" class="node">
<title>Node4</title>
<g id="a_node4"><a xlink:href="classQuantConnect_1_1Report_1_1DrawdownCollection.html#ab526a6f08494f46c1abe1c4e57fef25c" target="_top" xlink:title="Normalizes the Series used to calculate the drawdown plots and charts">
<polygon fill="white" stroke="black" points="234,-355.5 234,-385.5 410,-385.5 410,-355.5 234,-355.5"/>
<text text-anchor="start" x="242" y="-373.5" font-family="Helvetica,sans-Serif" font-size="10.00">QuantConnect.Report.Drawdown</text>
<text text-anchor="middle" x="322" y="-362.5" font-family="Helvetica,sans-Serif" font-size="10.00">Collection.NormalizeResults</text>
</a>
</g>
</g>
<!-- Node3&#45;&gt;Node4 -->
<g id="edge3" class="edge">
<title>Node3&#45;&gt;Node4</title>
<path fill="none" stroke="midnightblue" d="M486.43,-338.47C458.18,-344 427.03,-350.11 399.56,-355.49"/>
<polygon fill="midnightblue" stroke="midnightblue" points="487.15,-341.89 496.29,-336.53 485.81,-335.02 487.15,-341.89"/>
</g>
<!-- Node6 -->
<g id="node6" class="node">
<title>Node6</title>
<g id="a_node6"><a xlink:href="classQuantConnect_1_1Report_1_1Report.html#a55bfb8f6c42061a887d4b2a3369f20ac" target="_top" xlink:title="Create beautiful HTML and PDF Reports based on backtest and live data.">
<polygon fill="white" stroke="black" points="242.5,-306.5 242.5,-336.5 401.5,-336.5 401.5,-306.5 242.5,-306.5"/>
<text text-anchor="start" x="250.5" y="-324.5" font-family="Helvetica,sans-Serif" font-size="10.00">QuantConnect.Report.Report.</text>
<text text-anchor="middle" x="322" y="-313.5" font-family="Helvetica,sans-Serif" font-size="10.00">Report</text>
</a>
</g>
</g>
<!-- Node3&#45;&gt;Node6 -->
<g id="edge5" class="edge">
<title>Node3&#45;&gt;Node6</title>
<path fill="none" stroke="midnightblue" d="M483.74,-321.5C456.91,-321.5 427.68,-321.5 401.59,-321.5"/>
<polygon fill="midnightblue" stroke="midnightblue" points="483.9,-325 493.9,-321.5 483.9,-318 483.9,-325"/>
</g>
<!-- Node5 -->
<g id="node5" class="node">
<title>Node5</title>
<g id="a_node5"><a xlink:href="classQuantConnect_1_1Report_1_1DrawdownCollection.html#a94d44ac8b94a7ddc4c9ad2f772f55827" target="_top" xlink:title="Generate a new instance of DrawdownCollection from backtest and live Result derived instances">
<polygon fill="white" stroke="black" points="0,-355.5 0,-385.5 176,-385.5 176,-355.5 0,-355.5"/>
<text text-anchor="start" x="8" y="-373.5" font-family="Helvetica,sans-Serif" font-size="10.00">QuantConnect.Report.Drawdown</text>
<text text-anchor="middle" x="88" y="-362.5" font-family="Helvetica,sans-Serif" font-size="10.00">Collection.FromResult</text>
</a>
</g>
</g>
<!-- Node4&#45;&gt;Node5 -->
<g id="edge4" class="edge">
<title>Node4&#45;&gt;Node5</title>
<path fill="none" stroke="midnightblue" d="M223.67,-370.5C207.9,-370.5 191.66,-370.5 176.15,-370.5"/>
<polygon fill="midnightblue" stroke="midnightblue" points="223.95,-374 233.95,-370.5 223.95,-367 223.95,-374"/>
</g>
<!-- Node8 -->
<g id="node8" class="node">
<title>Node8</title>
<g id="a_node8"><a xlink:href="classQuantConnect_1_1Orders_1_1Serialization_1_1SerializedOrderJsonConverter.html#a6cfaeafcc6f3697d680ed0cf2dfa6a47" target="_top" xlink:title="Converts the input value to be deserialized">
<polygon fill="white" stroke="black" points="222,-257.5 222,-287.5 422,-287.5 422,-257.5 222,-257.5"/>
<text text-anchor="start" x="230" y="-275.5" font-family="Helvetica,sans-Serif" font-size="10.00">QuantConnect.Orders.Serialization.</text>
<text text-anchor="middle" x="322" y="-264.5" font-family="Helvetica,sans-Serif" font-size="10.00">SerializedOrderJsonConverter.Convert</text>
</a>
</g>
</g>
<!-- Node7&#45;&gt;Node8 -->
<g id="edge7" class="edge">
<title>Node7&#45;&gt;Node8</title>
<path fill="none" stroke="midnightblue" d="M487.22,-272.5C466.36,-272.5 443.88,-272.5 422.45,-272.5"/>
<polygon fill="midnightblue" stroke="midnightblue" points="487.31,-276 497.31,-272.5 487.31,-269 487.31,-276"/>
</g>
<!-- Node10 -->
<g id="node10" class="node">
<title>Node10</title>
<g id="a_node10"><a xlink:href="classQuantConnect_1_1Orders_1_1Serialization_1_1OrderEventJsonConverter.html#ae6c48e8ac3a202ba0187ea307c82b22d" target="_top" xlink:title="Converts the input value to be deserialized">
<polygon fill="white" stroke="black" points="228,-208.5 228,-238.5 416,-238.5 416,-208.5 228,-208.5"/>
<text text-anchor="start" x="236" y="-226.5" font-family="Helvetica,sans-Serif" font-size="10.00">QuantConnect.Orders.Serialization.</text>
<text text-anchor="middle" x="322" y="-215.5" font-family="Helvetica,sans-Serif" font-size="10.00">OrderEventJsonConverter.Convert</text>
</a>
</g>
</g>
<!-- Node9&#45;&gt;Node10 -->
<g id="edge9" class="edge">
<title>Node9&#45;&gt;Node10</title>
<path fill="none" stroke="midnightblue" d="M488.21,-223.5C465.09,-223.5 439.91,-223.5 416.34,-223.5"/>
<polygon fill="midnightblue" stroke="midnightblue" points="488.33,-227 498.33,-223.5 488.33,-220 488.33,-227"/>
</g>
<!-- Node12 -->
<g id="node12" class="node">
<title>Node12</title>
<g id="a_node12"><a xlink:href="classQuantConnect_1_1Algorithm_1_1Framework_1_1Alphas_1_1Serialization_1_1InsightJsonConverter.html#af2dd7ec283dc30929df11534ca3cc274" target="_top" xlink:title="Converts the input value to be deserialized">
<polygon fill="white" stroke="black" points="212,-148 212,-189 432,-189 432,-148 212,-148"/>
<text text-anchor="start" x="220" y="-177" font-family="Helvetica,sans-Serif" font-size="10.00">QuantConnect.Algorithm.Framework.</text>
<text text-anchor="start" x="220" y="-166" font-family="Helvetica,sans-Serif" font-size="10.00">Alphas.Serialization.InsightJsonConverter.</text>
<text text-anchor="middle" x="322" y="-155" font-family="Helvetica,sans-Serif" font-size="10.00">Convert</text>
</a>
</g>
</g>
<!-- Node11&#45;&gt;Node12 -->
<g id="edge11" class="edge">
<title>Node11&#45;&gt;Node12</title>
<path fill="none" stroke="midnightblue" d="M464.95,-171.91C454.11,-171.65 443.1,-171.38 432.26,-171.12"/>
<polygon fill="midnightblue" stroke="midnightblue" points="465.19,-175.41 475.27,-172.15 465.36,-168.42 465.19,-175.41"/>
</g>
<!-- Node15 -->
<g id="node15" class="node">
<title>Node15</title>
<g id="a_node15"><a xlink:href="classQuantConnect_1_1Lean_1_1Engine_1_1Results_1_1BacktestingResultHandler.html#a4218f35cbac91b93fa5cc2b341f7e64a" target="_top" xlink:title="Sample estimated strategy capacity">
<polygon fill="white" stroke="black" points="229.5,-50 229.5,-91 414.5,-91 414.5,-50 229.5,-50"/>
<text text-anchor="start" x="237.5" y="-79" font-family="Helvetica,sans-Serif" font-size="10.00">QuantConnect.Lean.Engine.</text>
<text text-anchor="start" x="237.5" y="-68" font-family="Helvetica,sans-Serif" font-size="10.00">Results.BacktestingResultHandler.</text>
<text text-anchor="middle" x="322" y="-57" font-family="Helvetica,sans-Serif" font-size="10.00">SampleCapacity</text>
</a>
</g>
</g>
<!-- Node14&#45;&gt;Node15 -->
<g id="edge14" class="edge">
<title>Node14&#45;&gt;Node15</title>
<path fill="none" stroke="midnightblue" d="M471.3,-70.5C452.56,-70.5 433.09,-70.5 414.66,-70.5"/>
<polygon fill="midnightblue" stroke="midnightblue" points="471.33,-74 481.33,-70.5 471.33,-67 471.33,-74"/>
</g>
</g>
</svg>
