<?xml version="1.0" encoding="UTF-8" standalone="no"?>
<!DOCTYPE svg PUBLIC "-//W3C//DTD SVG 1.1//EN"
 "http://www.w3.org/Graphics/SVG/1.1/DTD/svg11.dtd">
<!-- Generated by graphviz version 2.43.0 (0)
 -->
<!-- Title: QuantConnect.Indicators.OptionGreeksIndicatorBase.ComputeNextValue Pages: 1 -->
<svg width="428pt" height="88pt"
 viewBox="0.00 0.00 428.00 88.00" xmlns="http://www.w3.org/2000/svg" xmlns:xlink="http://www.w3.org/1999/xlink">
<g id="graph0" class="graph" transform="scale(1 1) rotate(0) translate(4 84)">
<title>QuantConnect.Indicators.OptionGreeksIndicatorBase.ComputeNextValue</title>
<polygon fill="white" stroke="transparent" points="-4,4 -4,-84 424,-84 424,4 -4,4"/>
<!-- Node1 -->
<g id="node1" class="node">
<title>Node1</title>
<g id="a_node1"><a xlink:title="Computes the next value of the option greek indicator">
<polygon fill="#bfbfbf" stroke="black" points="0,-19 0,-60 197,-60 197,-19 0,-19"/>
<text text-anchor="start" x="8" y="-48" font-family="Helvetica,sans-Serif" font-size="10.00">QuantConnect.Indicators.</text>
<text text-anchor="start" x="8" y="-37" font-family="Helvetica,sans-Serif" font-size="10.00">OptionGreeksIndicatorBase.Compute</text>
<text text-anchor="middle" x="98.5" y="-26" font-family="Helvetica,sans-Serif" font-size="10.00">NextValue</text>
</a>
</g>
</g>
<!-- Node2 -->
<g id="node2" class="node">
<title>Node2</title>
<g id="a_node2"><a xlink:href="interfaceQuantConnect_1_1Data_1_1IDividendYieldModel.html#acd84f1438fd20ae6501928f357adb725" target="_top" xlink:title="Get dividend yield by a given date of a given symbol">
<polygon fill="white" stroke="black" points="246,-49.5 246,-79.5 407,-79.5 407,-49.5 246,-49.5"/>
<text text-anchor="start" x="254" y="-67.5" font-family="Helvetica,sans-Serif" font-size="10.00">QuantConnect.Data.IDividend</text>
<text text-anchor="middle" x="326.5" y="-56.5" font-family="Helvetica,sans-Serif" font-size="10.00">YieldModel.GetDividendYield</text>
</a>
</g>
</g>
<!-- Node1&#45;&gt;Node2 -->
<g id="edge1" class="edge">
<title>Node1&#45;&gt;Node2</title>
<path fill="none" stroke="midnightblue" d="M197.31,-50.32C210.11,-51.74 223.18,-53.18 235.84,-54.58"/>
<polygon fill="midnightblue" stroke="midnightblue" points="235.57,-58.07 245.89,-55.69 236.34,-51.12 235.57,-58.07"/>
</g>
<!-- Node3 -->
<g id="node3" class="node">
<title>Node3</title>
<g id="a_node3"><a xlink:href="interfaceQuantConnect_1_1Data_1_1IRiskFreeInterestRateModel.html#aa7dfabf2595f0e70086b46c699983232" target="_top" xlink:title="Get interest rate by a given date">
<polygon fill="white" stroke="black" points="233,-0.5 233,-30.5 420,-30.5 420,-0.5 233,-0.5"/>
<text text-anchor="start" x="241" y="-18.5" font-family="Helvetica,sans-Serif" font-size="10.00">QuantConnect.Data.IRiskFree</text>
<text text-anchor="middle" x="326.5" y="-7.5" font-family="Helvetica,sans-Serif" font-size="10.00">InterestRateModel.GetInterestRate</text>
</a>
</g>
</g>
<!-- Node1&#45;&gt;Node3 -->
<g id="edge2" class="edge">
<title>Node1&#45;&gt;Node3</title>
<path fill="none" stroke="midnightblue" d="M197.31,-29.11C205.8,-28.21 214.41,-27.3 222.93,-26.39"/>
<polygon fill="midnightblue" stroke="midnightblue" points="223.32,-29.87 232.89,-25.33 222.58,-22.91 223.32,-29.87"/>
</g>
</g>
</svg>
