<?xml version="1.0" encoding="UTF-8" standalone="no"?>
<!DOCTYPE svg PUBLIC "-//W3C//DTD SVG 1.1//EN"
 "http://www.w3.org/Graphics/SVG/1.1/DTD/svg11.dtd">
<!-- Generated by graphviz version 2.43.0 (0)
 -->
<!-- Title: QuantConnect.Lean.Engine.Results.LiveTradingResultHandler Pages: 1 -->
<svg width="236pt" height="151pt"
 viewBox="0.00 0.00 236.00 151.00" xmlns="http://www.w3.org/2000/svg" xmlns:xlink="http://www.w3.org/1999/xlink">
<g id="graph0" class="graph" transform="scale(1 1) rotate(0) translate(4 147)">
<title>QuantConnect.Lean.Engine.Results.LiveTradingResultHandler</title>
<polygon fill="white" stroke="transparent" points="-4,4 -4,-147 232,-147 232,4 -4,4"/>
<!-- Node1 -->
<g id="node1" class="node">
<title>Node1</title>
<g id="a_node1"><a xlink:title="Live trading result handler implementation passes the messages to the QC live trading interface.">
<polygon fill="#bfbfbf" stroke="black" points="27.5,-0.5 27.5,-30.5 207.5,-30.5 207.5,-0.5 27.5,-0.5"/>
<text text-anchor="start" x="35.5" y="-18.5" font-family="Helvetica,sans-Serif" font-size="10.00">QuantConnect.Lean.Engine.</text>
<text text-anchor="middle" x="117.5" y="-7.5" font-family="Helvetica,sans-Serif" font-size="10.00">Results.LiveTradingResultHandler</text>
</a>
</g>
</g>
<!-- Node2 -->
<g id="node2" class="node">
<title>Node2</title>
<g id="a_node2"><a xlink:href="classQuantConnect_1_1Lean_1_1Engine_1_1Results_1_1BaseResultsHandler.html" target="_top" xlink:title="Provides base functionality to the implementations of IResultHandler">
<polygon fill="white" stroke="black" points="0,-67.5 0,-86.5 115,-86.5 115,-67.5 0,-67.5"/>
<text text-anchor="middle" x="57.5" y="-74.5" font-family="Helvetica,sans-Serif" font-size="10.00">BaseResultsHandler</text>
</a>
</g>
</g>
<!-- Node2&#45;&gt;Node1 -->
<g id="edge1" class="edge">
<title>Node2&#45;&gt;Node1</title>
<path fill="none" stroke="midnightblue" d="M73.26,-60.37C82.6,-51.11 94.32,-39.48 103.36,-30.52"/>
<polygon fill="midnightblue" stroke="midnightblue" points="70.73,-57.95 66.1,-67.48 75.66,-62.92 70.73,-57.95"/>
</g>
<!-- Node3 -->
<g id="node3" class="node">
<title>Node3</title>
<g id="a_node3"><a xlink:href="interfaceQuantConnect_1_1Lean_1_1Engine_1_1Results_1_1IResultHandler.html" target="_top" xlink:title="Handle the results of the backtest: where should we send the profit, portfolio updates: Backtester or...">
<polygon fill="white" stroke="black" points="133,-67.5 133,-86.5 222,-86.5 222,-67.5 133,-67.5"/>
<text text-anchor="middle" x="177.5" y="-74.5" font-family="Helvetica,sans-Serif" font-size="10.00">IResultHandler</text>
</a>
</g>
</g>
<!-- Node3&#45;&gt;Node1 -->
<g id="edge2" class="edge">
<title>Node3&#45;&gt;Node1</title>
<path fill="none" stroke="midnightblue" d="M161.74,-60.37C152.4,-51.11 140.68,-39.48 131.64,-30.52"/>
<polygon fill="midnightblue" stroke="midnightblue" points="159.34,-62.92 168.9,-67.48 164.27,-57.95 159.34,-62.92"/>
</g>
<!-- Node4 -->
<g id="node4" class="node">
<title>Node4</title>
<g id="a_node4"><a xlink:href="interfaceQuantConnect_1_1Statistics_1_1IStatisticsService.html" target="_top" xlink:title="This interface exposes methods for accessing algorithm statistics results at runtime.">
<polygon fill="white" stroke="black" points="127,-123.5 127,-142.5 228,-142.5 228,-123.5 127,-123.5"/>
<text text-anchor="middle" x="177.5" y="-130.5" font-family="Helvetica,sans-Serif" font-size="10.00">IStatisticsService</text>
</a>
</g>
</g>
<!-- Node4&#45;&gt;Node3 -->
<g id="edge3" class="edge">
<title>Node4&#45;&gt;Node3</title>
<path fill="none" stroke="midnightblue" d="M177.5,-112.8C177.5,-103.91 177.5,-93.78 177.5,-86.75"/>
<polygon fill="midnightblue" stroke="midnightblue" points="174,-113.08 177.5,-123.08 181,-113.08 174,-113.08"/>
</g>
</g>
</svg>
