<?xml version="1.0" encoding="UTF-8" standalone="no"?>
<!DOCTYPE svg PUBLIC "-//W3C//DTD SVG 1.1//EN"
 "http://www.w3.org/Graphics/SVG/1.1/DTD/svg11.dtd">
<!-- Generated by graphviz version 2.43.0 (0)
 -->
<!-- Title: QuantConnect.ToolBox.Polygon.WebSocket.CryptoQuoteMessage Pages: 1 -->
<svg width="186pt" height="151pt"
 viewBox="0.00 0.00 186.00 151.00" xmlns="http://www.w3.org/2000/svg" xmlns:xlink="http://www.w3.org/1999/xlink">
<g id="graph0" class="graph" transform="scale(1 1) rotate(0) translate(4 147)">
<title>QuantConnect.ToolBox.Polygon.WebSocket.CryptoQuoteMessage</title>
<polygon fill="white" stroke="transparent" points="-4,4 -4,-147 182,-147 182,4 -4,4"/>
<!-- Node1 -->
<g id="node1" class="node">
<title>Node1</title>
<g id="a_node1"><a xlink:title=" ">
<polygon fill="#bfbfbf" stroke="black" points="0,-0.5 0,-30.5 178,-30.5 178,-0.5 0,-0.5"/>
<text text-anchor="start" x="8" y="-18.5" font-family="Helvetica,sans-Serif" font-size="10.00">QuantConnect.ToolBox.Polygon.</text>
<text text-anchor="middle" x="89" y="-7.5" font-family="Helvetica,sans-Serif" font-size="10.00">WebSocket.CryptoQuoteMessage</text>
</a>
</g>
</g>
<!-- Node2 -->
<g id="node2" class="node">
<title>Node2</title>
<g id="a_node2"><a xlink:href="classQuantConnect_1_1ToolBox_1_1Polygon_1_1WebSocket_1_1BaseQuoteMessage.html" target="_top" xlink:title=" ">
<polygon fill="white" stroke="black" points="32.5,-67.5 32.5,-86.5 145.5,-86.5 145.5,-67.5 32.5,-67.5"/>
<text text-anchor="middle" x="89" y="-74.5" font-family="Helvetica,sans-Serif" font-size="10.00">BaseQuoteMessage</text>
</a>
</g>
</g>
<!-- Node2&#45;&gt;Node1 -->
<g id="edge1" class="edge">
<title>Node2&#45;&gt;Node1</title>
<path fill="none" stroke="midnightblue" d="M89,-57.23C89,-48.59 89,-38.5 89,-30.52"/>
<polygon fill="midnightblue" stroke="midnightblue" points="85.5,-57.48 89,-67.48 92.5,-57.48 85.5,-57.48"/>
</g>
<!-- Node3 -->
<g id="node3" class="node">
<title>Node3</title>
<g id="a_node3"><a xlink:href="classQuantConnect_1_1ToolBox_1_1Polygon_1_1WebSocket_1_1BaseMessage.html" target="_top" xlink:title=" ">
<polygon fill="white" stroke="black" points="47,-123.5 47,-142.5 131,-142.5 131,-123.5 47,-123.5"/>
<text text-anchor="middle" x="89" y="-130.5" font-family="Helvetica,sans-Serif" font-size="10.00">BaseMessage</text>
</a>
</g>
</g>
<!-- Node3&#45;&gt;Node2 -->
<g id="edge2" class="edge">
<title>Node3&#45;&gt;Node2</title>
<path fill="none" stroke="midnightblue" d="M89,-112.8C89,-103.91 89,-93.78 89,-86.75"/>
<polygon fill="midnightblue" stroke="midnightblue" points="85.5,-113.08 89,-123.08 92.5,-113.08 85.5,-113.08"/>
</g>
</g>
</svg>
