<?xml version="1.0" encoding="UTF-8" standalone="no"?>
<!DOCTYPE svg PUBLIC "-//W3C//DTD SVG 1.1//EN"
 "http://www.w3.org/Graphics/SVG/1.1/DTD/svg11.dtd">
<!-- Generated by graphviz version 2.43.0 (0)
 -->
<!-- Title: QuantConnect.Algorithm.QCAlgorithm.Error Pages: 1 -->
<svg width="695pt" height="235pt"
 viewBox="0.00 0.00 695.00 235.00" xmlns="http://www.w3.org/2000/svg" xmlns:xlink="http://www.w3.org/1999/xlink">
<g id="graph0" class="graph" transform="scale(1 1) rotate(0) translate(4 231)">
<title>QuantConnect.Algorithm.QCAlgorithm.Error</title>
<polygon fill="white" stroke="transparent" points="-4,4 -4,-231 691,-231 691,4 -4,4"/>
<!-- Node1 -->
<g id="node1" class="node">
<title>Node1</title>
<g id="a_node1"><a xlink:title="Send a string error message to the Console.">
<polygon fill="#bfbfbf" stroke="black" points="482,-98.5 482,-128.5 687,-128.5 687,-98.5 482,-98.5"/>
<text text-anchor="start" x="490" y="-116.5" font-family="Helvetica,sans-Serif" font-size="10.00">QuantConnect.Algorithm.QCAlgorithm.</text>
<text text-anchor="middle" x="584.5" y="-105.5" font-family="Helvetica,sans-Serif" font-size="10.00">Error</text>
</a>
</g>
</g>
<!-- Node2 -->
<g id="node2" class="node">
<title>Node2</title>
<g id="a_node2"><a xlink:href="classQuantConnect_1_1Algorithm_1_1QCAlgorithm.html#af1f764316cffc3d289d335df1edef76e" target="_top" xlink:title="Set a required SecurityType&#45;symbol and resolution for algorithm">
<polygon fill="white" stroke="black" points="241,-196.5 241,-226.5 446,-226.5 446,-196.5 241,-196.5"/>
<text text-anchor="start" x="249" y="-214.5" font-family="Helvetica,sans-Serif" font-size="10.00">QuantConnect.Algorithm.QCAlgorithm.</text>
<text text-anchor="middle" x="343.5" y="-203.5" font-family="Helvetica,sans-Serif" font-size="10.00">AddSecurity</text>
</a>
</g>
</g>
<!-- Node1&#45;&gt;Node2 -->
<g id="edge1" class="edge">
<title>Node1&#45;&gt;Node2</title>
<path fill="none" stroke="midnightblue" d="M551.38,-133.91C524.22,-150.4 483.8,-173.15 446,-187.5 437.2,-190.84 427.78,-193.82 418.37,-196.44"/>
<polygon fill="midnightblue" stroke="midnightblue" points="553.37,-136.8 560.06,-128.58 549.71,-130.83 553.37,-136.8"/>
</g>
<!-- Node3 -->
<g id="node3" class="node">
<title>Node3</title>
<g id="a_node3"><a xlink:href="classQuantConnect_1_1Algorithm_1_1QCAlgorithm.html#a2d69c5164756bba9e78a867be595872b" target="_top" xlink:title="Manually emit insights from an algorithm. This is typically invoked before calls to submit orders in ...">
<polygon fill="white" stroke="black" points="241,-147.5 241,-177.5 446,-177.5 446,-147.5 241,-147.5"/>
<text text-anchor="start" x="249" y="-165.5" font-family="Helvetica,sans-Serif" font-size="10.00">QuantConnect.Algorithm.QCAlgorithm.</text>
<text text-anchor="middle" x="343.5" y="-154.5" font-family="Helvetica,sans-Serif" font-size="10.00">EmitInsights</text>
</a>
</g>
</g>
<!-- Node1&#45;&gt;Node3 -->
<g id="edge2" class="edge">
<title>Node1&#45;&gt;Node3</title>
<path fill="none" stroke="midnightblue" d="M500.03,-130.61C473.21,-136.11 443.72,-142.16 417.69,-147.49"/>
<polygon fill="midnightblue" stroke="midnightblue" points="501.07,-133.97 510.17,-128.53 499.67,-127.11 501.07,-133.97"/>
</g>
<!-- Node5 -->
<g id="node5" class="node">
<title>Node5</title>
<g id="a_node5"><a xlink:href="classQuantConnect_1_1Algorithm_1_1QCAlgorithm.html#a41037a3b1f52a374cb94b51bc8f4dac0" target="_top" xlink:title="Send a int error message to the Console.">
<polygon fill="white" stroke="black" points="241,-98.5 241,-128.5 446,-128.5 446,-98.5 241,-98.5"/>
<text text-anchor="start" x="249" y="-116.5" font-family="Helvetica,sans-Serif" font-size="10.00">QuantConnect.Algorithm.QCAlgorithm.</text>
<text text-anchor="middle" x="343.5" y="-105.5" font-family="Helvetica,sans-Serif" font-size="10.00">Error</text>
</a>
</g>
</g>
<!-- Node1&#45;&gt;Node5 -->
<g id="edge4" class="edge">
<title>Node1&#45;&gt;Node5</title>
<path fill="none" stroke="midnightblue" d="M471.78,-113.5C463.22,-113.5 454.6,-113.5 446.11,-113.5"/>
<polygon fill="midnightblue" stroke="midnightblue" points="471.8,-117 481.8,-113.5 471.8,-110 471.8,-117"/>
</g>
<!-- Node6 -->
<g id="node6" class="node">
<title>Node6</title>
<g id="a_node6"><a xlink:href="classQuantConnect_1_1Algorithm_1_1QCAlgorithm.html#a8c5270ded0884d7f965fc4326cb2859a" target="_top" xlink:title="Gets the historical data for the specified symbol over the request span. The symbol must exist in the...">
<polygon fill="white" stroke="black" points="241,-49.5 241,-79.5 446,-79.5 446,-49.5 241,-49.5"/>
<text text-anchor="start" x="249" y="-67.5" font-family="Helvetica,sans-Serif" font-size="10.00">QuantConnect.Algorithm.QCAlgorithm.</text>
<text text-anchor="middle" x="343.5" y="-56.5" font-family="Helvetica,sans-Serif" font-size="10.00">History</text>
</a>
</g>
</g>
<!-- Node1&#45;&gt;Node6 -->
<g id="edge5" class="edge">
<title>Node1&#45;&gt;Node6</title>
<path fill="none" stroke="midnightblue" d="M500.03,-96.39C473.21,-90.89 443.72,-84.84 417.69,-79.51"/>
<polygon fill="midnightblue" stroke="midnightblue" points="499.67,-99.89 510.17,-98.47 501.07,-93.03 499.67,-99.89"/>
</g>
<!-- Node7 -->
<g id="node7" class="node">
<title>Node7</title>
<g id="a_node7"><a xlink:href="classQuantConnect_1_1Algorithm_1_1QCAlgorithm.html#a362b787753575a04c394fbfcb88b0a0f" target="_top" xlink:title="Sets the parameters from the dictionary">
<polygon fill="white" stroke="black" points="241,-0.5 241,-30.5 446,-30.5 446,-0.5 241,-0.5"/>
<text text-anchor="start" x="249" y="-18.5" font-family="Helvetica,sans-Serif" font-size="10.00">QuantConnect.Algorithm.QCAlgorithm.</text>
<text text-anchor="middle" x="343.5" y="-7.5" font-family="Helvetica,sans-Serif" font-size="10.00">SetParameters</text>
</a>
</g>
</g>
<!-- Node1&#45;&gt;Node7 -->
<g id="edge6" class="edge">
<title>Node1&#45;&gt;Node7</title>
<path fill="none" stroke="midnightblue" d="M550.82,-93.18C523.62,-77.01 483.43,-54.79 446,-40.5 436.25,-36.78 425.76,-33.47 415.36,-30.57"/>
<polygon fill="midnightblue" stroke="midnightblue" points="549.15,-96.26 559.52,-98.42 552.75,-90.26 549.15,-96.26"/>
</g>
<!-- Node4 -->
<g id="node4" class="node">
<title>Node4</title>
<g id="a_node4"><a xlink:href="classQuantConnect_1_1Algorithm_1_1QCAlgorithm.html#aec226f01015652addaf8aab1d0c64741" target="_top" xlink:title="Manually emit insights from an algorithm. This is typically invoked before calls to submit orders in ...">
<polygon fill="white" stroke="black" points="0,-147.5 0,-177.5 205,-177.5 205,-147.5 0,-147.5"/>
<text text-anchor="start" x="8" y="-165.5" font-family="Helvetica,sans-Serif" font-size="10.00">QuantConnect.Algorithm.QCAlgorithm.</text>
<text text-anchor="middle" x="102.5" y="-154.5" font-family="Helvetica,sans-Serif" font-size="10.00">EmitInsights</text>
</a>
</g>
</g>
<!-- Node3&#45;&gt;Node4 -->
<g id="edge3" class="edge">
<title>Node3&#45;&gt;Node4</title>
<path fill="none" stroke="midnightblue" d="M230.78,-162.5C222.22,-162.5 213.6,-162.5 205.11,-162.5"/>
<polygon fill="midnightblue" stroke="midnightblue" points="230.8,-166 240.8,-162.5 230.8,-159 230.8,-166"/>
</g>
</g>
</svg>
