<?xml version="1.0" encoding="UTF-8" standalone="no"?>
<!DOCTYPE svg PUBLIC "-//W3C//DTD SVG 1.1//EN"
 "http://www.w3.org/Graphics/SVG/1.1/DTD/svg11.dtd">
<!-- Generated by graphviz version 2.43.0 (0)
 -->
<!-- Title: QuantConnect.CapacityEstimate.UpdateMarketCapacity Pages: 1 -->
<svg width="1134pt" height="94pt"
 viewBox="0.00 0.00 1134.00 93.50" xmlns="http://www.w3.org/2000/svg" xmlns:xlink="http://www.w3.org/1999/xlink">
<g id="graph0" class="graph" transform="scale(1 1) rotate(0) translate(4 89.5)">
<title>QuantConnect.CapacityEstimate.UpdateMarketCapacity</title>
<polygon fill="white" stroke="transparent" points="-4,4 -4,-89.5 1130,-89.5 1130,4 -4,4"/>
<!-- Node1 -->
<g id="node1" class="node">
<title>Node1</title>
<g id="a_node1"><a xlink:title="Updates the market capacity for any Symbols that require a market update. Sometimes,...">
<polygon fill="#bfbfbf" stroke="black" points="0,-24.5 0,-54.5 178,-54.5 178,-24.5 0,-24.5"/>
<text text-anchor="start" x="8" y="-42.5" font-family="Helvetica,sans-Serif" font-size="10.00">QuantConnect.CapacityEstimate.</text>
<text text-anchor="middle" x="89" y="-31.5" font-family="Helvetica,sans-Serif" font-size="10.00">UpdateMarketCapacity</text>
</a>
</g>
</g>
<!-- Node2 -->
<g id="node2" class="node">
<title>Node2</title>
<g id="a_node2"><a xlink:href="classQuantConnect_1_1Symbol.html#a59158f74116be3dad0ea0f3f3f134416" target="_top" xlink:title="Initializes a new instance of the Symbol class">
<polygon fill="white" stroke="black" points="214,-30 214,-49 379,-49 379,-30 214,-30"/>
<text text-anchor="middle" x="296.5" y="-37" font-family="Helvetica,sans-Serif" font-size="10.00">QuantConnect.Symbol.Symbol</text>
</a>
</g>
</g>
<!-- Node1&#45;&gt;Node2 -->
<g id="edge1" class="edge">
<title>Node1&#45;&gt;Node2</title>
<path fill="none" stroke="midnightblue" d="M178.04,-39.5C186.49,-39.5 195.06,-39.5 203.54,-39.5"/>
<polygon fill="midnightblue" stroke="midnightblue" points="203.82,-43 213.82,-39.5 203.82,-36 203.82,-43"/>
</g>
<!-- Node3 -->
<g id="node3" class="node">
<title>Node3</title>
<g id="a_node3"><a xlink:href="classQuantConnect_1_1Symbol.html#a59b0795fa21f46c306deb5576fa03bb9" target="_top" xlink:title="Centralized helper method to resolve alias for a symbol">
<polygon fill="white" stroke="black" points="415,-30 415,-49 585,-49 585,-30 415,-30"/>
<text text-anchor="middle" x="500" y="-37" font-family="Helvetica,sans-Serif" font-size="10.00">QuantConnect.Symbol.GetAlias</text>
</a>
</g>
</g>
<!-- Node2&#45;&gt;Node3 -->
<g id="edge2" class="edge">
<title>Node2&#45;&gt;Node3</title>
<path fill="none" stroke="midnightblue" d="M379.17,-39.5C387.64,-39.5 396.29,-39.5 404.88,-39.5"/>
<polygon fill="midnightblue" stroke="midnightblue" points="404.92,-43 414.92,-39.5 404.92,-36 404.92,-43"/>
</g>
<!-- Node4 -->
<g id="node4" class="node">
<title>Node4</title>
<g id="a_node4"><a xlink:href="classQuantConnect_1_1SymbolRepresentation.html#ad43ac907f6c19083821f58f21c6de017" target="_top" xlink:title="Returns future symbol ticker from underlying and expiration date. Function can generate tickers of tw...">
<polygon fill="white" stroke="black" points="621,-49.5 621,-79.5 824,-79.5 824,-49.5 621,-49.5"/>
<text text-anchor="start" x="629" y="-67.5" font-family="Helvetica,sans-Serif" font-size="10.00">QuantConnect.SymbolRepresentation.</text>
<text text-anchor="middle" x="722.5" y="-56.5" font-family="Helvetica,sans-Serif" font-size="10.00">GenerateFutureTicker</text>
</a>
</g>
</g>
<!-- Node3&#45;&gt;Node4 -->
<g id="edge3" class="edge">
<title>Node3&#45;&gt;Node4</title>
<path fill="none" stroke="midnightblue" d="M584.99,-49.02C593.39,-49.97 602,-50.95 610.62,-51.93"/>
<polygon fill="midnightblue" stroke="midnightblue" points="610.4,-55.43 620.73,-53.07 611.19,-48.47 610.4,-55.43"/>
</g>
<!-- Node6 -->
<g id="node6" class="node">
<title>Node6</title>
<g id="a_node6"><a xlink:href="classQuantConnect_1_1SymbolRepresentation.html#ab133044f5cf8c16e700190a2202b215e" target="_top" xlink:title="Returns option symbol ticker in accordance with OSI symbology More information can be found at http:/...">
<polygon fill="white" stroke="black" points="621,-0.5 621,-30.5 824,-30.5 824,-0.5 621,-0.5"/>
<text text-anchor="start" x="629" y="-18.5" font-family="Helvetica,sans-Serif" font-size="10.00">QuantConnect.SymbolRepresentation.</text>
<text text-anchor="middle" x="722.5" y="-7.5" font-family="Helvetica,sans-Serif" font-size="10.00">GenerateOptionTickerOSI</text>
</a>
</g>
</g>
<!-- Node3&#45;&gt;Node6 -->
<g id="edge5" class="edge">
<title>Node3&#45;&gt;Node6</title>
<path fill="none" stroke="midnightblue" d="M585.31,-30.32C593.69,-29.41 602.3,-28.47 610.9,-27.54"/>
<polygon fill="midnightblue" stroke="midnightblue" points="611.43,-31 620.99,-26.44 610.67,-24.04 611.43,-31"/>
</g>
<!-- Node5 -->
<g id="node5" class="node">
<title>Node5</title>
<g id="a_node5"><a xlink:href="classQuantConnect_1_1Securities_1_1Future_1_1FuturesExpiryUtilityFunctions.html#a4ccb1e2f2fe40ff09785a74a02f26df1" target="_top" xlink:title="Gets the number of months between the contract month and the expiry date.">
<polygon fill="white" stroke="black" points="860,-44 860,-85 1126,-85 1126,-44 860,-44"/>
<text text-anchor="start" x="868" y="-73" font-family="Helvetica,sans-Serif" font-size="10.00">QuantConnect.Securities.</text>
<text text-anchor="start" x="868" y="-62" font-family="Helvetica,sans-Serif" font-size="10.00">Future.FuturesExpiryUtilityFunctions.</text>
<text text-anchor="middle" x="993" y="-51" font-family="Helvetica,sans-Serif" font-size="10.00">GetDeltaBetweenContractMonthAndContractExpiry</text>
</a>
</g>
</g>
<!-- Node4&#45;&gt;Node5 -->
<g id="edge4" class="edge">
<title>Node4&#45;&gt;Node5</title>
<path fill="none" stroke="midnightblue" d="M824.24,-64.5C832.59,-64.5 841.11,-64.5 849.68,-64.5"/>
<polygon fill="midnightblue" stroke="midnightblue" points="849.76,-68 859.76,-64.5 849.76,-61 849.76,-68"/>
</g>
</g>
</svg>
