<?xml version="1.0" encoding="UTF-8" standalone="no"?>
<!DOCTYPE svg PUBLIC "-//W3C//DTD SVG 1.1//EN"
 "http://www.w3.org/Graphics/SVG/1.1/DTD/svg11.dtd">
<!-- Generated by graphviz version 2.43.0 (0)
 -->
<!-- Title: QuantConnect.Securities.Option.StrategyMatcher.UnmatchedPositionCountOptionStrategyMatchObjectiveFunction Pages: 1 -->
<svg width="242pt" height="128pt"
 viewBox="0.00 0.00 242.00 128.00" xmlns="http://www.w3.org/2000/svg" xmlns:xlink="http://www.w3.org/1999/xlink">
<g id="graph0" class="graph" transform="scale(1 1) rotate(0) translate(4 124)">
<title>QuantConnect.Securities.Option.StrategyMatcher.UnmatchedPositionCountOptionStrategyMatchObjectiveFunction</title>
<polygon fill="white" stroke="transparent" points="-4,4 -4,-124 238,-124 238,4 -4,4"/>
<!-- Node1 -->
<g id="node1" class="node">
<title>Node1</title>
<g id="a_node1"><a xlink:title="Provides an implementation of IOptionStrategyMatchObjectiveFunction that evaluates the number of unma...">
<polygon fill="#bfbfbf" stroke="black" points="0,-0.5 0,-52.5 234,-52.5 234,-0.5 0,-0.5"/>
<text text-anchor="start" x="8" y="-40.5" font-family="Helvetica,sans-Serif" font-size="10.00">QuantConnect.Securities.</text>
<text text-anchor="start" x="8" y="-29.5" font-family="Helvetica,sans-Serif" font-size="10.00">Option.StrategyMatcher.Unmatched</text>
<text text-anchor="start" x="8" y="-18.5" font-family="Helvetica,sans-Serif" font-size="10.00">PositionCountOptionStrategyMatchObjective</text>
<text text-anchor="middle" x="117" y="-7.5" font-family="Helvetica,sans-Serif" font-size="10.00">Function</text>
</a>
</g>
</g>
<!-- Node2 -->
<g id="node2" class="node">
<title>Node2</title>
<g id="a_node2"><a xlink:href="interfaceQuantConnect_1_1Securities_1_1Option_1_1StrategyMatcher_1_1IOptionStrategyMatchObjectiveFunction.html" target="_top" xlink:title="Evaluates the provided match to assign an objective score. Higher scores are better.">
<polygon fill="white" stroke="black" points="32,-89.5 32,-119.5 202,-119.5 202,-89.5 32,-89.5"/>
<text text-anchor="start" x="40" y="-107.5" font-family="Helvetica,sans-Serif" font-size="10.00">IOptionStrategyMatchObjective</text>
<text text-anchor="middle" x="117" y="-96.5" font-family="Helvetica,sans-Serif" font-size="10.00">Function</text>
</a>
</g>
</g>
<!-- Node2&#45;&gt;Node1 -->
<g id="edge1" class="edge">
<title>Node2&#45;&gt;Node1</title>
<path fill="none" stroke="midnightblue" d="M117,-79.14C117,-70.63 117,-61.07 117,-52.5"/>
<polygon fill="midnightblue" stroke="midnightblue" points="113.5,-79.2 117,-89.2 120.5,-79.21 113.5,-79.2"/>
</g>
</g>
</svg>
