<?xml version="1.0" encoding="UTF-8" standalone="no"?>
<!DOCTYPE svg PUBLIC "-//W3C//DTD SVG 1.1//EN"
 "http://www.w3.org/Graphics/SVG/1.1/DTD/svg11.dtd">
<!-- Generated by graphviz version 2.43.0 (0)
 -->
<!-- Title: QuantConnect.Lean.Engine.AlgorithmTimeLimitManager.TryRequestAdditionalTime Pages: 1 -->
<svg width="602pt" height="88pt"
 viewBox="0.00 0.00 602.00 88.00" xmlns="http://www.w3.org/2000/svg" xmlns:xlink="http://www.w3.org/1999/xlink">
<g id="graph0" class="graph" transform="scale(1 1) rotate(0) translate(4 84)">
<title>QuantConnect.Lean.Engine.AlgorithmTimeLimitManager.TryRequestAdditionalTime</title>
<polygon fill="white" stroke="transparent" points="-4,4 -4,-84 598,-84 598,4 -4,4"/>
<!-- Node1 -->
<g id="node1" class="node">
<title>Node1</title>
<g id="a_node1"><a xlink:title="Attempts to requests additional time to continue executing the current time step. At time of writing,...">
<polygon fill="#bfbfbf" stroke="black" points="0,-19 0,-60 213,-60 213,-19 0,-19"/>
<text text-anchor="start" x="8" y="-48" font-family="Helvetica,sans-Serif" font-size="10.00">QuantConnect.Lean.Engine.</text>
<text text-anchor="start" x="8" y="-37" font-family="Helvetica,sans-Serif" font-size="10.00">AlgorithmTimeLimitManager.TryRequest</text>
<text text-anchor="middle" x="106.5" y="-26" font-family="Helvetica,sans-Serif" font-size="10.00">AdditionalTime</text>
</a>
</g>
</g>
<!-- Node2 -->
<g id="node2" class="node">
<title>Node2</title>
<g id="a_node2"><a xlink:href="classQuantConnect_1_1Logging_1_1Log.html#ad908daef9d61532d7d60c9dcfb9a3e0c" target="_top" xlink:title="Output to the console">
<polygon fill="white" stroke="black" points="253.5,-49.5 253.5,-79.5 403.5,-79.5 403.5,-49.5 253.5,-49.5"/>
<text text-anchor="start" x="261.5" y="-67.5" font-family="Helvetica,sans-Serif" font-size="10.00">QuantConnect.Logging.Log.</text>
<text text-anchor="middle" x="328.5" y="-56.5" font-family="Helvetica,sans-Serif" font-size="10.00">Debug</text>
</a>
</g>
</g>
<!-- Node1&#45;&gt;Node2 -->
<g id="edge1" class="edge">
<title>Node1&#45;&gt;Node2</title>
<path fill="none" stroke="midnightblue" d="M213.31,-51.52C223.36,-52.67 233.46,-53.81 243.26,-54.93"/>
<polygon fill="midnightblue" stroke="midnightblue" points="243.03,-58.42 253.36,-56.08 243.82,-51.47 243.03,-58.42"/>
</g>
<!-- Node4 -->
<g id="node4" class="node">
<title>Node4</title>
<g id="a_node4"><a xlink:href="interfaceQuantConnect_1_1Util_1_1RateLimit_1_1ITokenBucket.html#a74f90dbaad804df8917b4b0db2d5508f" target="_top" xlink:title="Attempts to consume the specified number of tokens from the bucket. If the requested number of tokens...">
<polygon fill="white" stroke="black" points="249,-0.5 249,-30.5 408,-30.5 408,-0.5 249,-0.5"/>
<text text-anchor="start" x="257" y="-18.5" font-family="Helvetica,sans-Serif" font-size="10.00">QuantConnect.Util.RateLimit.</text>
<text text-anchor="middle" x="328.5" y="-7.5" font-family="Helvetica,sans-Serif" font-size="10.00">ITokenBucket.TryConsume</text>
</a>
</g>
</g>
<!-- Node1&#45;&gt;Node4 -->
<g id="edge3" class="edge">
<title>Node1&#45;&gt;Node4</title>
<path fill="none" stroke="midnightblue" d="M213.31,-27.96C221.84,-27.03 230.41,-26.09 238.8,-25.18"/>
<polygon fill="midnightblue" stroke="midnightblue" points="239.37,-28.63 248.93,-24.07 238.61,-21.68 239.37,-28.63"/>
</g>
<!-- Node3 -->
<g id="node3" class="node">
<title>Node3</title>
<g id="a_node3"><a xlink:href="interfaceQuantConnect_1_1Logging_1_1ILogHandler.html#a2c738b8e78dd5b54244bc68b969ba91d" target="_top" xlink:title="Write debug message to log">
<polygon fill="white" stroke="black" points="444,-49.5 444,-79.5 594,-79.5 594,-49.5 444,-49.5"/>
<text text-anchor="start" x="452" y="-67.5" font-family="Helvetica,sans-Serif" font-size="10.00">QuantConnect.Logging.ILog</text>
<text text-anchor="middle" x="519" y="-56.5" font-family="Helvetica,sans-Serif" font-size="10.00">Handler.Debug</text>
</a>
</g>
</g>
<!-- Node2&#45;&gt;Node3 -->
<g id="edge2" class="edge">
<title>Node2&#45;&gt;Node3</title>
<path fill="none" stroke="midnightblue" d="M403.73,-64.5C413.52,-64.5 423.61,-64.5 433.55,-64.5"/>
<polygon fill="midnightblue" stroke="midnightblue" points="433.84,-68 443.84,-64.5 433.84,-61 433.84,-68"/>
</g>
</g>
</svg>
