<?xml version="1.0" encoding="UTF-8" standalone="no"?>
<!DOCTYPE svg PUBLIC "-//W3C//DTD SVG 1.1//EN"
 "http://www.w3.org/Graphics/SVG/1.1/DTD/svg11.dtd">
<!-- Generated by graphviz version 2.43.0 (0)
 -->
<!-- Title: QuantConnect.Data.Custom.Tiingo.TiingoPrice Pages: 1 -->
<svg width="174pt" height="274pt"
 viewBox="0.00 0.00 173.50 274.00" xmlns="http://www.w3.org/2000/svg" xmlns:xlink="http://www.w3.org/1999/xlink">
<g id="graph0" class="graph" transform="scale(1 1) rotate(0) translate(4 270)">
<title>QuantConnect.Data.Custom.Tiingo.TiingoPrice</title>
<polygon fill="white" stroke="transparent" points="-4,4 -4,-270 169.5,-270 169.5,4 -4,4"/>
<!-- Node1 -->
<g id="node1" class="node">
<title>Node1</title>
<g id="a_node1"><a xlink:title="Tiingo daily price data https://api.tiingo.com/docs/tiingo/daily">
<polygon fill="#bfbfbf" stroke="black" points="0.5,-67.5 0.5,-97.5 155.5,-97.5 155.5,-67.5 0.5,-67.5"/>
<text text-anchor="start" x="8.5" y="-85.5" font-family="Helvetica,sans-Serif" font-size="10.00">QuantConnect.Data.Custom.</text>
<text text-anchor="middle" x="78" y="-74.5" font-family="Helvetica,sans-Serif" font-size="10.00">Tiingo.TiingoPrice</text>
</a>
</g>
</g>
<!-- Node7 -->
<g id="node7" class="node">
<title>Node7</title>
<g id="a_node7"><a xlink:href="classQuantConnect_1_1Data_1_1Custom_1_1Tiingo_1_1TiingoDailyData.html" target="_top" xlink:title="Tiingo daily price data https://api.tiingo.com/docs/tiingo/daily">
<polygon fill="white" stroke="black" points="0.5,-0.5 0.5,-30.5 155.5,-30.5 155.5,-0.5 0.5,-0.5"/>
<text text-anchor="start" x="8.5" y="-18.5" font-family="Helvetica,sans-Serif" font-size="10.00">QuantConnect.Data.Custom.</text>
<text text-anchor="middle" x="78" y="-7.5" font-family="Helvetica,sans-Serif" font-size="10.00">Tiingo.TiingoDailyData</text>
</a>
</g>
</g>
<!-- Node1&#45;&gt;Node7 -->
<g id="edge7" class="edge">
<title>Node1&#45;&gt;Node7</title>
<path fill="none" stroke="midnightblue" d="M78,-57.11C78,-48.15 78,-38.32 78,-30.58"/>
<polygon fill="midnightblue" stroke="midnightblue" points="74.5,-57.4 78,-67.4 81.5,-57.4 74.5,-57.4"/>
</g>
<!-- Node2 -->
<g id="node2" class="node">
<title>Node2</title>
<g id="a_node2"><a xlink:href="classQuantConnect_1_1Data_1_1Market_1_1TradeBar.html" target="_top" xlink:title="TradeBar class for second and minute resolution data: An OHLC implementation of the QuantConnect Base...">
<polygon fill="white" stroke="black" points="48.5,-134.5 48.5,-153.5 107.5,-153.5 107.5,-134.5 48.5,-134.5"/>
<text text-anchor="middle" x="78" y="-141.5" font-family="Helvetica,sans-Serif" font-size="10.00">TradeBar</text>
</a>
</g>
</g>
<!-- Node2&#45;&gt;Node1 -->
<g id="edge1" class="edge">
<title>Node2&#45;&gt;Node1</title>
<path fill="none" stroke="midnightblue" d="M78,-124.23C78,-115.59 78,-105.5 78,-97.52"/>
<polygon fill="midnightblue" stroke="midnightblue" points="74.5,-124.48 78,-134.48 81.5,-124.48 74.5,-124.48"/>
</g>
<!-- Node3 -->
<g id="node3" class="node">
<title>Node3</title>
<g id="a_node3"><a xlink:href="classQuantConnect_1_1Data_1_1BaseData.html" target="_top" xlink:title="Abstract base data class of QuantConnect. It is intended to be extended to define generic user custom...">
<polygon fill="white" stroke="black" points="0,-190.5 0,-209.5 64,-209.5 64,-190.5 0,-190.5"/>
<text text-anchor="middle" x="32" y="-197.5" font-family="Helvetica,sans-Serif" font-size="10.00">BaseData</text>
</a>
</g>
</g>
<!-- Node3&#45;&gt;Node2 -->
<g id="edge2" class="edge">
<title>Node3&#45;&gt;Node2</title>
<path fill="none" stroke="midnightblue" d="M46.11,-182.43C54.18,-172.97 63.96,-161.48 70.55,-153.75"/>
<polygon fill="midnightblue" stroke="midnightblue" points="43.42,-180.2 39.6,-190.08 48.75,-184.74 43.42,-180.2"/>
</g>
<!-- Node4 -->
<g id="node4" class="node">
<title>Node4</title>
<g id="a_node4"><a xlink:href="interfaceQuantConnect_1_1Data_1_1IBaseData.html" target="_top" xlink:title="Base Data Class: Type, Timestamp, Key – Base Features.">
<polygon fill="white" stroke="black" points="9.5,-246.5 9.5,-265.5 76.5,-265.5 76.5,-246.5 9.5,-246.5"/>
<text text-anchor="middle" x="43" y="-253.5" font-family="Helvetica,sans-Serif" font-size="10.00">IBaseData</text>
</a>
</g>
</g>
<!-- Node4&#45;&gt;Node3 -->
<g id="edge3" class="edge">
<title>Node4&#45;&gt;Node3</title>
<path fill="none" stroke="midnightblue" d="M39.15,-236.1C37.32,-227.14 35.23,-216.86 33.78,-209.75"/>
<polygon fill="midnightblue" stroke="midnightblue" points="35.76,-236.98 41.18,-246.08 42.62,-235.59 35.76,-236.98"/>
</g>
<!-- Node5 -->
<g id="node5" class="node">
<title>Node5</title>
<g id="a_node5"><a xlink:href="interfaceQuantConnect_1_1Data_1_1Market_1_1IBaseDataBar.html" target="_top" xlink:title="Represents a type that is both a bar and base data">
<polygon fill="white" stroke="black" points="82.5,-190.5 82.5,-209.5 165.5,-209.5 165.5,-190.5 82.5,-190.5"/>
<text text-anchor="middle" x="124" y="-197.5" font-family="Helvetica,sans-Serif" font-size="10.00">IBaseDataBar</text>
</a>
</g>
</g>
<!-- Node4&#45;&gt;Node5 -->
<g id="edge5" class="edge">
<title>Node4&#45;&gt;Node5</title>
<path fill="none" stroke="midnightblue" d="M64.57,-240.62C79.36,-230.76 98.51,-217.99 111.02,-209.65"/>
<polygon fill="midnightblue" stroke="midnightblue" points="62.39,-237.86 56.01,-246.32 66.28,-243.69 62.39,-237.86"/>
</g>
<!-- Node5&#45;&gt;Node2 -->
<g id="edge4" class="edge">
<title>Node5&#45;&gt;Node2</title>
<path fill="none" stroke="midnightblue" d="M109.89,-182.43C101.82,-172.97 92.04,-161.48 85.45,-153.75"/>
<polygon fill="midnightblue" stroke="midnightblue" points="107.25,-184.74 116.4,-190.08 112.58,-180.2 107.25,-184.74"/>
</g>
<!-- Node6 -->
<g id="node6" class="node">
<title>Node6</title>
<g id="a_node6"><a xlink:href="interfaceQuantConnect_1_1Data_1_1Market_1_1IBar.html" target="_top" xlink:title="Generic bar interface with Open, High, Low and Close.">
<polygon fill="white" stroke="black" points="106,-246.5 106,-265.5 142,-265.5 142,-246.5 106,-246.5"/>
<text text-anchor="middle" x="124" y="-253.5" font-family="Helvetica,sans-Serif" font-size="10.00">IBar</text>
</a>
</g>
</g>
<!-- Node6&#45;&gt;Node5 -->
<g id="edge6" class="edge">
<title>Node6&#45;&gt;Node5</title>
<path fill="none" stroke="midnightblue" d="M124,-235.8C124,-226.91 124,-216.78 124,-209.75"/>
<polygon fill="midnightblue" stroke="midnightblue" points="120.5,-236.08 124,-246.08 127.5,-236.08 120.5,-236.08"/>
</g>
</g>
</svg>
