<?xml version="1.0" encoding="UTF-8" standalone="no"?>
<!DOCTYPE svg PUBLIC "-//W3C//DTD SVG 1.1//EN"
 "http://www.w3.org/Graphics/SVG/1.1/DTD/svg11.dtd">
<!-- Generated by graphviz version 2.43.0 (0)
 -->
<!-- Title: QuantConnect.Algorithm.Framework.Alphas.Insight.ComputePeriod Pages: 1 -->
<!--zoomable 88 -->
<svg id="main" version="1.1" xmlns="http://www.w3.org/2000/svg" xmlns:xlink="http://www.w3.org/1999/xlink" xml:space="preserve" onload="init(evt)">
<style type="text/css"><![CDATA[
.edge:hover path { stroke: red; }
.edge:hover polygon { stroke: red; fill: red; }
]]></style>
<script type="text/javascript"><![CDATA[
var edges = document.getElementsByTagName('g');
if (edges && edges.length) {
  for (var i=0;i<edges.length;i++) {
    if (edges[i].id.substr(0,4)=='edge') {
      edges[i].setAttribute('class','edge');
    }
  }
}
]]></script>
        <defs>
                <circle id="rim" cx="0" cy="0" r="7"/>
                <circle id="rim2" cx="0" cy="0" r="3.5"/>
                <g id="zoomPlus">
                        <use xlink:href="#rim" fill="#404040">
                                <set attributeName="fill" to="#808080" begin="zoomplus.mouseover" end="zoomplus.mouseout"/>
                        </use>
                        <path d="M-4,0h8M0,-4v8" fill="none" stroke="white" stroke-width="1.5" pointer-events="none"/>
                </g>
                <g id="zoomMin">
                        <use xlink:href="#rim" fill="#404040">
                                <set attributeName="fill" to="#808080" begin="zoomminus.mouseover" end="zoomminus.mouseout"/>
                        </use>
                        <path d="M-4,0h8" fill="none" stroke="white" stroke-width="1.5" pointer-events="none"/>
                </g>
                <g id="dirArrow">
                        <path fill="none" stroke="white" stroke-width="1.5" d="M0,-3.0v7 M-2.5,-0.5L0,-3.0L2.5,-0.5"/>
                </g>
               <g id="resetDef">
                       <use xlink:href="#rim2" fill="#404040">
                               <set attributeName="fill" to="#808080" begin="reset.mouseover" end="reset.mouseout"/>
                       </use>
               </g>
        </defs>

<script type="text/javascript">
var viewWidth = 893;
var viewHeight = 88;
var sectionId = 'dynsection-14';
</script>
<script xlink:href="svgpan.js"/>
<svg id="graph" class="graph">
<g id="viewport">
<title>QuantConnect.Algorithm.Framework.Alphas.Insight.ComputePeriod</title>
<polygon fill="white" stroke="transparent" points="-4,4 -4,-84 889,-84 889,4 -4,4"/>
<!-- Node1 -->
<g id="node1" class="node">
<title>Node1</title>
<g id="a_node1"><a xlink:title="Computes the insight period from the given generated and close times">
<polygon fill="#bfbfbf" stroke="black" points="0,-24.5 0,-54.5 197,-54.5 197,-24.5 0,-24.5"/>
<text text-anchor="start" x="8" y="-42.5" font-family="Helvetica,sans-Serif" font-size="10.00">QuantConnect.Algorithm.Framework.</text>
<text text-anchor="middle" x="98.5" y="-31.5" font-family="Helvetica,sans-Serif" font-size="10.00">Alphas.Insight.ComputePeriod</text>
</a>
</g>
</g>
<!-- Node2 -->
<g id="node2" class="node">
<title>Node2</title>
<g id="a_node2"><a xlink:href="classQuantConnect_1_1Time.html#a18b31437302a5918b76a15ecb0bd56d1" target="_top" xlink:title="Determines the end time at which the requested number of bars of the given will have elapsed....">
<polygon fill="white" stroke="black" points="243.5,-49.5 243.5,-79.5 395.5,-79.5 395.5,-49.5 243.5,-49.5"/>
<text text-anchor="start" x="251.5" y="-67.5" font-family="Helvetica,sans-Serif" font-size="10.00">QuantConnect.Time.GetEnd</text>
<text text-anchor="middle" x="319.5" y="-56.5" font-family="Helvetica,sans-Serif" font-size="10.00">TimeForTradeBars</text>
</a>
</g>
</g>
<!-- Node1&#45;&gt;Node2 -->
<g id="edge1" class="edge">
<title>Node1&#45;&gt;Node2</title>
<path fill="none" stroke="midnightblue" d="M197.15,-50.65C209.15,-52.02 221.34,-53.41 233.14,-54.76"/>
<polygon fill="midnightblue" stroke="midnightblue" points="233.05,-58.27 243.39,-55.93 233.85,-51.31 233.05,-58.27"/>
</g>
<!-- Node7 -->
<g id="node7" class="node">
<title>Node7</title>
<g id="a_node7"><a xlink:href="classQuantConnect_1_1Time.html#a049782d5c99a307e1ea12810fa79cdff" target="_top" xlink:title="Gets the number of trade bars of the specified barSize &#160;that fit between the start &#160;and end">
<polygon fill="white" stroke="black" points="233,-0.5 233,-30.5 406,-30.5 406,-0.5 233,-0.5"/>
<text text-anchor="start" x="241" y="-18.5" font-family="Helvetica,sans-Serif" font-size="10.00">QuantConnect.Time.GetNumber</text>
<text text-anchor="middle" x="319.5" y="-7.5" font-family="Helvetica,sans-Serif" font-size="10.00">OfTradeBarsInInterval</text>
</a>
</g>
</g>
<!-- Node1&#45;&gt;Node7 -->
<g id="edge7" class="edge">
<title>Node1&#45;&gt;Node7</title>
<path fill="none" stroke="midnightblue" d="M197.15,-28.8C205.58,-27.87 214.11,-26.94 222.53,-26.02"/>
<polygon fill="midnightblue" stroke="midnightblue" points="223.18,-29.47 232.74,-24.9 222.41,-22.51 223.18,-29.47"/>
</g>
<!-- Node3 -->
<g id="node3" class="node">
<title>Node3</title>
<g id="a_node3"><a xlink:href="classQuantConnect_1_1Securities_1_1SecurityExchangeHours.html#aeea5ca309a445fa3a7cb85bd995af45a" target="_top" xlink:title="Determines if the exchange will be open on the date specified by the local date time">
<polygon fill="white" stroke="black" points="442,-49.5 442,-79.5 634,-79.5 634,-49.5 442,-49.5"/>
<text text-anchor="start" x="450" y="-67.5" font-family="Helvetica,sans-Serif" font-size="10.00">QuantConnect.Securities.</text>
<text text-anchor="middle" x="538" y="-56.5" font-family="Helvetica,sans-Serif" font-size="10.00">SecurityExchangeHours.IsDateOpen</text>
</a>
</g>
</g>
<!-- Node2&#45;&gt;Node3 -->
<g id="edge2" class="edge">
<title>Node2&#45;&gt;Node3</title>
<path fill="none" stroke="midnightblue" d="M395.61,-64.5C407.25,-64.5 419.46,-64.5 431.62,-64.5"/>
<polygon fill="midnightblue" stroke="midnightblue" points="431.81,-68 441.81,-64.5 431.81,-61 431.81,-68"/>
</g>
<!-- Node5 -->
<g id="node5" class="node">
<title>Node5</title>
<g id="a_node5"><a xlink:href="classQuantConnect_1_1Securities_1_1SecurityExchangeHours.html#ad680493077edb2267e639615b3c672a7" target="_top" xlink:title="Determines if the exchange is open at the specified local date time.">
<polygon fill="white" stroke="black" points="453.5,-0.5 453.5,-30.5 622.5,-30.5 622.5,-0.5 453.5,-0.5"/>
<text text-anchor="start" x="461.5" y="-18.5" font-family="Helvetica,sans-Serif" font-size="10.00">QuantConnect.Securities.</text>
<text text-anchor="middle" x="538" y="-7.5" font-family="Helvetica,sans-Serif" font-size="10.00">SecurityExchangeHours.IsOpen</text>
</a>
</g>
</g>
<!-- Node2&#45;&gt;Node5 -->
<g id="edge4" class="edge">
<title>Node2&#45;&gt;Node5</title>
<path fill="none" stroke="midnightblue" d="M386.93,-49.47C410.31,-44.17 436.76,-38.19 460.88,-32.73"/>
<polygon fill="midnightblue" stroke="midnightblue" points="461.72,-36.13 470.7,-30.51 460.17,-29.3 461.72,-36.13"/>
</g>
<!-- Node4 -->
<g id="node4" class="node">
<title>Node4</title>
<g id="a_node4"><a xlink:href="classQuantConnect_1_1Securities_1_1SecurityExchangeHours.html#a106e2dd187ab76452e14ac6a28f929aa" target="_top" xlink:title="Helper to access the market hours field based on the day of week">
<polygon fill="white" stroke="black" points="670,-49.5 670,-79.5 885,-79.5 885,-49.5 670,-49.5"/>
<text text-anchor="start" x="678" y="-67.5" font-family="Helvetica,sans-Serif" font-size="10.00">QuantConnect.Securities.</text>
<text text-anchor="middle" x="777.5" y="-56.5" font-family="Helvetica,sans-Serif" font-size="10.00">SecurityExchangeHours.GetMarketHours</text>
</a>
</g>
</g>
<!-- Node3&#45;&gt;Node4 -->
<g id="edge3" class="edge">
<title>Node3&#45;&gt;Node4</title>
<path fill="none" stroke="midnightblue" d="M634.23,-64.5C642.67,-64.5 651.28,-64.5 659.87,-64.5"/>
<polygon fill="midnightblue" stroke="midnightblue" points="659.94,-68 669.94,-64.5 659.94,-61 659.94,-68"/>
</g>
<!-- Node5&#45;&gt;Node4 -->
<g id="edge5" class="edge">
<title>Node5&#45;&gt;Node4</title>
<path fill="none" stroke="midnightblue" d="M611.87,-30.53C637.75,-35.87 667.05,-41.92 693.7,-47.42"/>
<polygon fill="midnightblue" stroke="midnightblue" points="693.26,-50.9 703.77,-49.49 694.68,-44.05 693.26,-50.9"/>
</g>
<!-- Node6 -->
<g id="node6" class="node">
<title>Node6</title>
<g id="a_node6"><a xlink:href="classQuantConnect_1_1Securities_1_1LocalMarketHours.html#a8a898ad9f8fa0c41f4a04b8dfc513777" target="_top" xlink:title="Determines if the exchange is open at the specified time">
<polygon fill="white" stroke="black" points="707,-0.5 707,-30.5 848,-30.5 848,-0.5 707,-0.5"/>
<text text-anchor="start" x="715" y="-18.5" font-family="Helvetica,sans-Serif" font-size="10.00">QuantConnect.Securities.</text>
<text text-anchor="middle" x="777.5" y="-7.5" font-family="Helvetica,sans-Serif" font-size="10.00">LocalMarketHours.IsOpen</text>
</a>
</g>
</g>
<!-- Node5&#45;&gt;Node6 -->
<g id="edge6" class="edge">
<title>Node5&#45;&gt;Node6</title>
<path fill="none" stroke="midnightblue" d="M622.73,-15.5C646.81,-15.5 672.99,-15.5 696.81,-15.5"/>
<polygon fill="midnightblue" stroke="midnightblue" points="696.86,-19 706.86,-15.5 696.86,-12 696.86,-19"/>
</g>
<!-- Node7&#45;&gt;Node3 -->
<g id="edge8" class="edge">
<title>Node7&#45;&gt;Node3</title>
<path fill="none" stroke="midnightblue" d="M386.93,-30.53C410.31,-35.83 436.76,-41.81 460.88,-47.27"/>
<polygon fill="midnightblue" stroke="midnightblue" points="460.17,-50.7 470.7,-49.49 461.72,-43.87 460.17,-50.7"/>
</g>
<!-- Node7&#45;&gt;Node5 -->
<g id="edge9" class="edge">
<title>Node7&#45;&gt;Node5</title>
<path fill="none" stroke="midnightblue" d="M406.07,-15.5C418.26,-15.5 430.85,-15.5 443.18,-15.5"/>
<polygon fill="midnightblue" stroke="midnightblue" points="443.47,-19 453.47,-15.5 443.47,-12 443.47,-19"/>
</g>
</g>
</svg>
        <g id="navigator" transform="translate(0 0)" fill="#404254">
                <rect fill="#f2f5e9" fill-opacity="0.5" stroke="#606060" stroke-width=".5" x="0" y="0" width="60" height="60"/>
                <use id="zoomplus" xlink:href="#zoomPlus" x="17" y="9" onmousedown="handleZoom(evt,'in')"/>
                <use id="zoomminus" xlink:href="#zoomMin" x="42" y="9" onmousedown="handleZoom(evt,'out')"/>
                <use id="reset" xlink:href="#resetDef" x="30" y="36" onmousedown="handleReset()"/>
                <g id="arrowUp" xlink:href="#dirArrow" transform="translate(30 24)" onmousedown="handlePan(0,-1)">
                  <use xlink:href="#rim" fill="#404040">
                        <set attributeName="fill" to="#808080" begin="arrowUp.mouseover" end="arrowUp.mouseout"/>
                  </use>
                  <path fill="none" stroke="white" stroke-width="1.5" d="M0,-3.0v7 M-2.5,-0.5L0,-3.0L2.5,-0.5"/>
                </g>
                <g id="arrowRight" xlink:href="#dirArrow" transform="rotate(90) translate(36 -43)" onmousedown="handlePan(1,0)">
                  <use xlink:href="#rim" fill="#404040">
                        <set attributeName="fill" to="#808080" begin="arrowRight.mouseover" end="arrowRight.mouseout"/>
                  </use>
                  <path fill="none" stroke="white" stroke-width="1.5" d="M0,-3.0v7 M-2.5,-0.5L0,-3.0L2.5,-0.5"/>
                </g>
                <g id="arrowDown" xlink:href="#dirArrow" transform="rotate(180) translate(-30 -48)" onmousedown="handlePan(0,1)">
                  <use xlink:href="#rim" fill="#404040">
                        <set attributeName="fill" to="#808080" begin="arrowDown.mouseover" end="arrowDown.mouseout"/>
                  </use>
                  <path fill="none" stroke="white" stroke-width="1.5" d="M0,-3.0v7 M-2.5,-0.5L0,-3.0L2.5,-0.5"/>
                </g>
                <g id="arrowLeft" xlink:href="#dirArrow" transform="rotate(270) translate(-36 17)" onmousedown="handlePan(-1,0)">
                  <use xlink:href="#rim" fill="#404040">
                        <set attributeName="fill" to="#808080" begin="arrowLeft.mouseover" end="arrowLeft.mouseout"/>
                  </use>
                  <path fill="none" stroke="white" stroke-width="1.5" d="M0,-3.0v7 M-2.5,-0.5L0,-3.0L2.5,-0.5"/>
                </g>
        </g>
        <svg viewBox="0 0 15 15" width="100%" height="30px" preserveAspectRatio="xMaxYMin meet">
         <g id="arrow_out" transform="scale(0.3 0.3)">
          <a xlink:href="classQuantConnect_1_1Algorithm_1_1Framework_1_1Alphas_1_1Insight_a5e139a3ea6818855684c98ab54eaa1e4_cgraph_org.svg" target="_base">
           <rect id="button" ry="5" rx="5" y="6" x="6" height="38" width="38"
                fill="#f2f5e9" fill-opacity="0.5" stroke="#606060" stroke-width="1.0"/>
           <path id="arrow"
             d="M 11.500037,31.436501 C 11.940474,20.09759 22.043105,11.32322 32.158766,21.979434 L 37.068811,17.246167 C 37.068811,17.246167 37.088388,32 37.088388,32 L 22.160133,31.978069 C 22.160133,31.978069 26.997745,27.140456 26.997745,27.140456 C 18.528582,18.264221 13.291696,25.230495 11.500037,31.436501 z"
             style="fill:#404040;"/>
          </a>
         </g>
        </svg>
</svg>
