<?xml version="1.0" encoding="UTF-8" standalone="no"?>
<!DOCTYPE svg PUBLIC "-//W3C//DTD SVG 1.1//EN"
 "http://www.w3.org/Graphics/SVG/1.1/DTD/svg11.dtd">
<!-- Generated by graphviz version 2.43.0 (0)
 -->
<!-- Title: QuantConnect.Data.Fundamental.GoodwillBalanceSheet.GetPeriodValues Pages: 1 -->
<svg width="471pt" height="50pt"
 viewBox="0.00 0.00 471.00 50.00" xmlns="http://www.w3.org/2000/svg" xmlns:xlink="http://www.w3.org/1999/xlink">
<g id="graph0" class="graph" transform="scale(1 1) rotate(0) translate(4 46)">
<title>QuantConnect.Data.Fundamental.GoodwillBalanceSheet.GetPeriodValues</title>
<polygon fill="white" stroke="transparent" points="-4,4 -4,-46 467,-46 467,4 -4,4"/>
<!-- Node1 -->
<g id="node1" class="node">
<title>Node1</title>
<g id="a_node1"><a xlink:title="Gets a dictionary of period names and values for the field">
<polygon fill="#bfbfbf" stroke="black" points="0,-6 0,-36 209,-36 209,-6 0,-6"/>
<text text-anchor="start" x="8" y="-24" font-family="Helvetica,sans-Serif" font-size="10.00">QuantConnect.Data.Fundamental.</text>
<text text-anchor="middle" x="104.5" y="-13" font-family="Helvetica,sans-Serif" font-size="10.00">GoodwillBalanceSheet.GetPeriodValues</text>
</a>
</g>
</g>
<!-- Node2 -->
<g id="node2" class="node">
<title>Node2</title>
<g id="a_node2"><a xlink:href="classQuantConnect_1_1Data_1_1UniverseSelection_1_1BaseFundamentalDataProvider.html#a034fa190537c61e409d68b8cc081b8f4" target="_top" xlink:title="True if the given value is none">
<polygon fill="white" stroke="black" points="245,-0.5 245,-41.5 463,-41.5 463,-0.5 245,-0.5"/>
<text text-anchor="start" x="253" y="-29.5" font-family="Helvetica,sans-Serif" font-size="10.00">QuantConnect.Data.Universe</text>
<text text-anchor="start" x="253" y="-18.5" font-family="Helvetica,sans-Serif" font-size="10.00">Selection.BaseFundamentalDataProvider.</text>
<text text-anchor="middle" x="354" y="-7.5" font-family="Helvetica,sans-Serif" font-size="10.00">IsNone</text>
</a>
</g>
</g>
<!-- Node1&#45;&gt;Node2 -->
<g id="edge1" class="edge">
<title>Node1&#45;&gt;Node2</title>
<path fill="none" stroke="midnightblue" d="M209.03,-21C217.5,-21 226.11,-21 234.67,-21"/>
<polygon fill="midnightblue" stroke="midnightblue" points="234.71,-24.5 244.71,-21 234.71,-17.5 234.71,-24.5"/>
</g>
</g>
</svg>
