<?xml version="1.0" encoding="UTF-8" standalone="no"?>
<!DOCTYPE svg PUBLIC "-//W3C//DTD SVG 1.1//EN"
 "http://www.w3.org/Graphics/SVG/1.1/DTD/svg11.dtd">
<!-- Generated by graphviz version 2.43.0 (0)
 -->
<!-- Title: QuantConnect.Api.Api.Initialize Pages: 1 -->
<svg width="404pt" height="50pt"
 viewBox="0.00 0.00 404.00 50.00" xmlns="http://www.w3.org/2000/svg" xmlns:xlink="http://www.w3.org/1999/xlink">
<g id="graph0" class="graph" transform="scale(1 1) rotate(0) translate(4 46)">
<title>QuantConnect.Api.Api.Initialize</title>
<polygon fill="white" stroke="transparent" points="-4,4 -4,-46 400,-46 400,4 -4,4"/>
<!-- Node1 -->
<g id="node1" class="node">
<title>Node1</title>
<g id="a_node1"><a xlink:title="Initialize the API with the given variables">
<polygon fill="#bfbfbf" stroke="black" points="228,-11.5 228,-30.5 396,-30.5 396,-11.5 228,-11.5"/>
<text text-anchor="middle" x="312" y="-18.5" font-family="Helvetica,sans-Serif" font-size="10.00">QuantConnect.Api.Api.Initialize</text>
</a>
</g>
</g>
<!-- Node2 -->
<g id="node2" class="node">
<title>Node2</title>
<g id="a_node2"><a xlink:href="classQuantConnect_1_1Lean_1_1Engine_1_1DataFeeds_1_1ApiDataProvider.html#a73a95b82e9f8e0b67e2333bc325e5890" target="_top" xlink:title="Initialize a new instance of the ApiDataProvider">
<polygon fill="white" stroke="black" points="0,-0.5 0,-41.5 192,-41.5 192,-0.5 0,-0.5"/>
<text text-anchor="start" x="8" y="-29.5" font-family="Helvetica,sans-Serif" font-size="10.00">QuantConnect.Lean.Engine.</text>
<text text-anchor="start" x="8" y="-18.5" font-family="Helvetica,sans-Serif" font-size="10.00">DataFeeds.ApiDataProvider.ApiData</text>
<text text-anchor="middle" x="96" y="-7.5" font-family="Helvetica,sans-Serif" font-size="10.00">Provider</text>
</a>
</g>
</g>
<!-- Node1&#45;&gt;Node2 -->
<g id="edge1" class="edge">
<title>Node1&#45;&gt;Node2</title>
<path fill="none" stroke="midnightblue" d="M217.68,-21C209.2,-21 200.6,-21 192.1,-21"/>
<polygon fill="midnightblue" stroke="midnightblue" points="217.96,-24.5 227.96,-21 217.96,-17.5 217.96,-24.5"/>
</g>
</g>
</svg>
