<?xml version="1.0" encoding="UTF-8" standalone="no"?>
<!DOCTYPE svg PUBLIC "-//W3C//DTD SVG 1.1//EN"
 "http://www.w3.org/Graphics/SVG/1.1/DTD/svg11.dtd">
<!-- Generated by graphviz version 2.43.0 (0)
 -->
<!-- Title: QuantConnect.Symbol.operator== Pages: 1 -->
<svg width="601pt" height="88pt"
 viewBox="0.00 0.00 601.00 88.00" xmlns="http://www.w3.org/2000/svg" xmlns:xlink="http://www.w3.org/1999/xlink">
<g id="graph0" class="graph" transform="scale(1 1) rotate(0) translate(4 84)">
<title>QuantConnect.Symbol.operator==</title>
<polygon fill="white" stroke="transparent" points="-4,4 -4,-84 597,-84 597,4 -4,4"/>
<!-- Node1 -->
<g id="node1" class="node">
<title>Node1</title>
<g id="a_node1"><a xlink:title="Equals operator">
<polygon fill="#bfbfbf" stroke="black" points="0,-30 0,-49 186,-49 186,-30 0,-30"/>
<text text-anchor="middle" x="93" y="-37" font-family="Helvetica,sans-Serif" font-size="10.00">QuantConnect.Symbol.operator==</text>
</a>
</g>
</g>
<!-- Node2 -->
<g id="node2" class="node">
<title>Node2</title>
<g id="a_node2"><a xlink:href="classQuantConnect_1_1Symbol.html#a7e35e01237b07491f85af730a04d7a16" target="_top" xlink:title="Determines whether the specified T:System.Object is equal to the current T:System....">
<polygon fill="white" stroke="black" points="222,-30 222,-49 383,-49 383,-30 222,-30"/>
<text text-anchor="middle" x="302.5" y="-37" font-family="Helvetica,sans-Serif" font-size="10.00">QuantConnect.Symbol.Equals</text>
</a>
</g>
</g>
<!-- Node1&#45;&gt;Node2 -->
<g id="edge1" class="edge">
<title>Node1&#45;&gt;Node2</title>
<path fill="none" stroke="midnightblue" d="M186.22,-39.5C194.69,-39.5 203.25,-39.5 211.7,-39.5"/>
<polygon fill="midnightblue" stroke="midnightblue" points="211.92,-43 221.92,-39.5 211.92,-36 211.92,-43"/>
</g>
<!-- Node3 -->
<g id="node3" class="node">
<title>Node3</title>
<g id="a_node3"><a xlink:href="classQuantConnect_1_1SecurityIdentifier.html#ab488583adab72515b2242de5bb81cddf" target="_top" xlink:title="Indicates whether the current object is equal to another object of the same type.">
<polygon fill="white" stroke="black" points="419,-49.5 419,-79.5 593,-79.5 593,-49.5 419,-49.5"/>
<text text-anchor="start" x="427" y="-67.5" font-family="Helvetica,sans-Serif" font-size="10.00">QuantConnect.SecurityIdentifier.</text>
<text text-anchor="middle" x="506" y="-56.5" font-family="Helvetica,sans-Serif" font-size="10.00">Equals</text>
</a>
</g>
</g>
<!-- Node2&#45;&gt;Node3 -->
<g id="edge2" class="edge">
<title>Node2&#45;&gt;Node3</title>
<path fill="none" stroke="midnightblue" d="M380.25,-49.02C389.58,-50.18 399.2,-51.37 408.76,-52.56"/>
<polygon fill="midnightblue" stroke="midnightblue" points="408.34,-56.03 418.7,-53.79 409.2,-49.09 408.34,-56.03"/>
</g>
<!-- Node4 -->
<g id="node4" class="node">
<title>Node4</title>
<g id="a_node4"><a xlink:href="classQuantConnect_1_1SecurityIdentifier.html#a59bd74be4ec55a0e4631af9e10f65d7c" target="_top" xlink:title="Attempts to parse the specified &#160;as a SecurityIdentifier.">
<polygon fill="white" stroke="black" points="419,-0.5 419,-30.5 593,-30.5 593,-0.5 419,-0.5"/>
<text text-anchor="start" x="427" y="-18.5" font-family="Helvetica,sans-Serif" font-size="10.00">QuantConnect.SecurityIdentifier.</text>
<text text-anchor="middle" x="506" y="-7.5" font-family="Helvetica,sans-Serif" font-size="10.00">TryParse</text>
</a>
</g>
</g>
<!-- Node2&#45;&gt;Node4 -->
<g id="edge3" class="edge">
<title>Node2&#45;&gt;Node4</title>
<path fill="none" stroke="midnightblue" d="M383.14,-30.01C391.6,-29.01 400.27,-27.97 408.89,-26.95"/>
<polygon fill="midnightblue" stroke="midnightblue" points="409.46,-30.4 418.98,-25.75 408.63,-23.45 409.46,-30.4"/>
</g>
</g>
</svg>
