<?xml version="1.0" encoding="UTF-8" standalone="no"?>
<!DOCTYPE svg PUBLIC "-//W3C//DTD SVG 1.1//EN"
 "http://www.w3.org/Graphics/SVG/1.1/DTD/svg11.dtd">
<!-- Generated by graphviz version 2.43.0 (0)
 -->
<!-- Title: QuantConnect.ToolBox.IQFeed.LookupEventArgs Pages: 1 -->
<!--zoomable 529 -->
<svg id="main" version="1.1" xmlns="http://www.w3.org/2000/svg" xmlns:xlink="http://www.w3.org/1999/xlink" xml:space="preserve" onload="init(evt)">
<style type="text/css"><![CDATA[
.edge:hover path { stroke: red; }
.edge:hover polygon { stroke: red; fill: red; }
]]></style>
<script type="text/javascript"><![CDATA[
var edges = document.getElementsByTagName('g');
if (edges && edges.length) {
  for (var i=0;i<edges.length;i++) {
    if (edges[i].id.substr(0,4)=='edge') {
      edges[i].setAttribute('class','edge');
    }
  }
}
]]></script>
        <defs>
                <circle id="rim" cx="0" cy="0" r="7"/>
                <circle id="rim2" cx="0" cy="0" r="3.5"/>
                <g id="zoomPlus">
                        <use xlink:href="#rim" fill="#404040">
                                <set attributeName="fill" to="#808080" begin="zoomplus.mouseover" end="zoomplus.mouseout"/>
                        </use>
                        <path d="M-4,0h8M0,-4v8" fill="none" stroke="white" stroke-width="1.5" pointer-events="none"/>
                </g>
                <g id="zoomMin">
                        <use xlink:href="#rim" fill="#404040">
                                <set attributeName="fill" to="#808080" begin="zoomminus.mouseover" end="zoomminus.mouseout"/>
                        </use>
                        <path d="M-4,0h8" fill="none" stroke="white" stroke-width="1.5" pointer-events="none"/>
                </g>
                <g id="dirArrow">
                        <path fill="none" stroke="white" stroke-width="1.5" d="M0,-3.0v7 M-2.5,-0.5L0,-3.0L2.5,-0.5"/>
                </g>
               <g id="resetDef">
                       <use xlink:href="#rim2" fill="#404040">
                               <set attributeName="fill" to="#808080" begin="reset.mouseover" end="reset.mouseout"/>
                       </use>
               </g>
        </defs>

<script type="text/javascript">
var viewWidth = 548;
var viewHeight = 529;
var sectionId = 'dynsection-0';
</script>
<script xlink:href="svgpan.js"/>
<svg id="graph" class="graph">
<g id="viewport">
<title>QuantConnect.ToolBox.IQFeed.LookupEventArgs</title>
<polygon fill="white" stroke="transparent" points="-4,4 -4,-525 544,-525 544,4 -4,4"/>
<!-- Node1 -->
<g id="node1" class="node">
<title>Node1</title>
<g id="a_node1"><a xlink:title=" ">
<polygon fill="#bfbfbf" stroke="black" points="145,-245.5 145,-275.5 312,-275.5 312,-245.5 145,-245.5"/>
<text text-anchor="start" x="153" y="-263.5" font-family="Helvetica,sans-Serif" font-size="10.00">QuantConnect.ToolBox.IQFeed.</text>
<text text-anchor="middle" x="228.5" y="-252.5" font-family="Helvetica,sans-Serif" font-size="10.00">LookupEventArgs</text>
</a>
</g>
</g>
<!-- Node3 -->
<g id="node3" class="node">
<title>Node3</title>
<g id="a_node3"><a xlink:href="classQuantConnect_1_1ToolBox_1_1IQFeed_1_1LookupDayWeekMonthEventArgs.html" target="_top" xlink:title=" ">
<polygon fill="white" stroke="black" points="355,-490.5 355,-520.5 533,-520.5 533,-490.5 355,-490.5"/>
<text text-anchor="start" x="363" y="-508.5" font-family="Helvetica,sans-Serif" font-size="10.00">QuantConnect.ToolBox.IQFeed.</text>
<text text-anchor="middle" x="444" y="-497.5" font-family="Helvetica,sans-Serif" font-size="10.00">LookupDayWeekMonthEventArgs</text>
</a>
</g>
</g>
<!-- Node1&#45;&gt;Node3 -->
<g id="edge2" class="edge">
<title>Node1&#45;&gt;Node3</title>
<path fill="none" stroke="midnightblue" d="M235.66,-285.35C248.39,-331.42 282.11,-430.04 348,-481.5 352.42,-484.96 357.29,-487.92 362.4,-490.46"/>
<polygon fill="midnightblue" stroke="midnightblue" points="239.01,-284.36 233.06,-275.59 232.25,-286.16 239.01,-284.36"/>
</g>
<!-- Node4 -->
<g id="node4" class="node">
<title>Node4</title>
<g id="a_node4"><a xlink:href="classQuantConnect_1_1ToolBox_1_1IQFeed_1_1LookupIntervalEventArgs.html" target="_top" xlink:title=" ">
<polygon fill="white" stroke="black" points="360.5,-441.5 360.5,-471.5 527.5,-471.5 527.5,-441.5 360.5,-441.5"/>
<text text-anchor="start" x="368.5" y="-459.5" font-family="Helvetica,sans-Serif" font-size="10.00">QuantConnect.ToolBox.IQFeed.</text>
<text text-anchor="middle" x="444" y="-448.5" font-family="Helvetica,sans-Serif" font-size="10.00">LookupIntervalEventArgs</text>
</a>
</g>
</g>
<!-- Node1&#45;&gt;Node4 -->
<g id="edge3" class="edge">
<title>Node1&#45;&gt;Node4</title>
<path fill="none" stroke="midnightblue" d="M239.46,-284.88C256.13,-322.54 293.34,-394.5 348,-432.5 352.89,-435.9 358.22,-438.82 363.77,-441.32"/>
<polygon fill="midnightblue" stroke="midnightblue" points="242.65,-283.45 235.48,-275.65 236.22,-286.22 242.65,-283.45"/>
</g>
<!-- Node5 -->
<g id="node5" class="node">
<title>Node5</title>
<g id="a_node5"><a xlink:href="classQuantConnect_1_1ToolBox_1_1IQFeed_1_1LookupNaicSymbolEventArgs.html" target="_top" xlink:title=" ">
<polygon fill="white" stroke="black" points="360.5,-392.5 360.5,-422.5 527.5,-422.5 527.5,-392.5 360.5,-392.5"/>
<text text-anchor="start" x="368.5" y="-410.5" font-family="Helvetica,sans-Serif" font-size="10.00">QuantConnect.ToolBox.IQFeed.</text>
<text text-anchor="middle" x="444" y="-399.5" font-family="Helvetica,sans-Serif" font-size="10.00">LookupNaicSymbolEventArgs</text>
</a>
</g>
</g>
<!-- Node1&#45;&gt;Node5 -->
<g id="edge4" class="edge">
<title>Node1&#45;&gt;Node5</title>
<path fill="none" stroke="midnightblue" d="M245.68,-283.98C266.21,-311.97 304.26,-358.12 348,-383.5 353.89,-386.91 360.25,-389.85 366.8,-392.37"/>
<polygon fill="midnightblue" stroke="midnightblue" points="248.32,-281.66 239.64,-275.59 242.63,-285.75 248.32,-281.66"/>
</g>
<!-- Node6 -->
<g id="node6" class="node">
<title>Node6</title>
<g id="a_node6"><a xlink:href="classQuantConnect_1_1ToolBox_1_1IQFeed_1_1LookupSicSymbolEventArgs.html" target="_top" xlink:title=" ">
<polygon fill="white" stroke="black" points="360.5,-343.5 360.5,-373.5 527.5,-373.5 527.5,-343.5 360.5,-343.5"/>
<text text-anchor="start" x="368.5" y="-361.5" font-family="Helvetica,sans-Serif" font-size="10.00">QuantConnect.ToolBox.IQFeed.</text>
<text text-anchor="middle" x="444" y="-350.5" font-family="Helvetica,sans-Serif" font-size="10.00">LookupSicSymbolEventArgs</text>
</a>
</g>
</g>
<!-- Node1&#45;&gt;Node6 -->
<g id="edge5" class="edge">
<title>Node1&#45;&gt;Node6</title>
<path fill="none" stroke="midnightblue" d="M257.72,-281.65C280.9,-298.14 315.16,-320.5 348,-334.5 355.9,-337.87 364.38,-340.84 372.91,-343.44"/>
<polygon fill="midnightblue" stroke="midnightblue" points="259.56,-278.67 249.41,-275.65 255.47,-284.34 259.56,-278.67"/>
</g>
<!-- Node7 -->
<g id="node7" class="node">
<title>Node7</title>
<g id="a_node7"><a xlink:href="classQuantConnect_1_1ToolBox_1_1IQFeed_1_1LookupSymbolEventArgs.html" target="_top" xlink:title=" ">
<polygon fill="white" stroke="black" points="360.5,-294.5 360.5,-324.5 527.5,-324.5 527.5,-294.5 360.5,-294.5"/>
<text text-anchor="start" x="368.5" y="-312.5" font-family="Helvetica,sans-Serif" font-size="10.00">QuantConnect.ToolBox.IQFeed.</text>
<text text-anchor="middle" x="444" y="-301.5" font-family="Helvetica,sans-Serif" font-size="10.00">LookupSymbolEventArgs</text>
</a>
</g>
</g>
<!-- Node1&#45;&gt;Node7 -->
<g id="edge6" class="edge">
<title>Node1&#45;&gt;Node7</title>
<path fill="none" stroke="midnightblue" d="M305.01,-277.83C328.72,-283.27 354.67,-289.23 377.62,-294.49"/>
<polygon fill="midnightblue" stroke="midnightblue" points="305.54,-274.36 295.01,-275.53 303.97,-281.18 305.54,-274.36"/>
</g>
<!-- Node8 -->
<g id="node8" class="node">
<title>Node8</title>
<g id="a_node8"><a xlink:href="classQuantConnect_1_1ToolBox_1_1IQFeed_1_1LookupTableMarketCenterEventArgs.html" target="_top" xlink:title=" ">
<polygon fill="white" stroke="black" points="348,-245.5 348,-275.5 540,-275.5 540,-245.5 348,-245.5"/>
<text text-anchor="start" x="356" y="-263.5" font-family="Helvetica,sans-Serif" font-size="10.00">QuantConnect.ToolBox.IQFeed.</text>
<text text-anchor="middle" x="444" y="-252.5" font-family="Helvetica,sans-Serif" font-size="10.00">LookupTableMarketCenterEventArgs</text>
</a>
</g>
</g>
<!-- Node1&#45;&gt;Node8 -->
<g id="edge7" class="edge">
<title>Node1&#45;&gt;Node8</title>
<path fill="none" stroke="midnightblue" d="M322.31,-260.5C330.78,-260.5 339.38,-260.5 347.87,-260.5"/>
<polygon fill="midnightblue" stroke="midnightblue" points="322.04,-257 312.04,-260.5 322.04,-264 322.04,-257"/>
</g>
<!-- Node9 -->
<g id="node9" class="node">
<title>Node9</title>
<g id="a_node9"><a xlink:href="classQuantConnect_1_1ToolBox_1_1IQFeed_1_1LookupTableMarketEventArgs.html" target="_top" xlink:title=" ">
<polygon fill="white" stroke="black" points="360.5,-196.5 360.5,-226.5 527.5,-226.5 527.5,-196.5 360.5,-196.5"/>
<text text-anchor="start" x="368.5" y="-214.5" font-family="Helvetica,sans-Serif" font-size="10.00">QuantConnect.ToolBox.IQFeed.</text>
<text text-anchor="middle" x="444" y="-203.5" font-family="Helvetica,sans-Serif" font-size="10.00">LookupTableMarketEventArgs</text>
</a>
</g>
</g>
<!-- Node1&#45;&gt;Node9 -->
<g id="edge8" class="edge">
<title>Node1&#45;&gt;Node9</title>
<path fill="none" stroke="midnightblue" d="M305.01,-243.17C328.72,-237.73 354.67,-231.77 377.62,-226.51"/>
<polygon fill="midnightblue" stroke="midnightblue" points="303.97,-239.82 295.01,-245.47 305.54,-246.64 303.97,-239.82"/>
</g>
<!-- Node10 -->
<g id="node10" class="node">
<title>Node10</title>
<g id="a_node10"><a xlink:href="classQuantConnect_1_1ToolBox_1_1IQFeed_1_1LookupTableNaicEventArgs.html" target="_top" xlink:title=" ">
<polygon fill="white" stroke="black" points="360.5,-147.5 360.5,-177.5 527.5,-177.5 527.5,-147.5 360.5,-147.5"/>
<text text-anchor="start" x="368.5" y="-165.5" font-family="Helvetica,sans-Serif" font-size="10.00">QuantConnect.ToolBox.IQFeed.</text>
<text text-anchor="middle" x="444" y="-154.5" font-family="Helvetica,sans-Serif" font-size="10.00">LookupTableNaicEventArgs</text>
</a>
</g>
</g>
<!-- Node1&#45;&gt;Node10 -->
<g id="edge9" class="edge">
<title>Node1&#45;&gt;Node10</title>
<path fill="none" stroke="midnightblue" d="M257.72,-239.35C280.9,-222.86 315.16,-200.5 348,-186.5 355.9,-183.13 364.38,-180.16 372.91,-177.56"/>
<polygon fill="midnightblue" stroke="midnightblue" points="255.47,-236.66 249.41,-245.35 259.56,-242.33 255.47,-236.66"/>
</g>
<!-- Node11 -->
<g id="node11" class="node">
<title>Node11</title>
<g id="a_node11"><a xlink:href="classQuantConnect_1_1ToolBox_1_1IQFeed_1_1LookupTableSecurityTypeEventArgs.html" target="_top" xlink:title=" ">
<polygon fill="white" stroke="black" points="350,-98.5 350,-128.5 538,-128.5 538,-98.5 350,-98.5"/>
<text text-anchor="start" x="358" y="-116.5" font-family="Helvetica,sans-Serif" font-size="10.00">QuantConnect.ToolBox.IQFeed.</text>
<text text-anchor="middle" x="444" y="-105.5" font-family="Helvetica,sans-Serif" font-size="10.00">LookupTableSecurityTypeEventArgs</text>
</a>
</g>
</g>
<!-- Node1&#45;&gt;Node11 -->
<g id="edge10" class="edge">
<title>Node1&#45;&gt;Node11</title>
<path fill="none" stroke="midnightblue" d="M245.68,-237.02C266.21,-209.03 304.26,-162.88 348,-137.5 353.89,-134.09 360.25,-131.15 366.8,-128.63"/>
<polygon fill="midnightblue" stroke="midnightblue" points="242.63,-235.25 239.64,-245.41 248.32,-239.34 242.63,-235.25"/>
</g>
<!-- Node12 -->
<g id="node12" class="node">
<title>Node12</title>
<g id="a_node12"><a xlink:href="classQuantConnect_1_1ToolBox_1_1IQFeed_1_1LookupTableSicEventArgs.html" target="_top" xlink:title=" ">
<polygon fill="white" stroke="black" points="360.5,-49.5 360.5,-79.5 527.5,-79.5 527.5,-49.5 360.5,-49.5"/>
<text text-anchor="start" x="368.5" y="-67.5" font-family="Helvetica,sans-Serif" font-size="10.00">QuantConnect.ToolBox.IQFeed.</text>
<text text-anchor="middle" x="444" y="-56.5" font-family="Helvetica,sans-Serif" font-size="10.00">LookupTableSicEventArgs</text>
</a>
</g>
</g>
<!-- Node1&#45;&gt;Node12 -->
<g id="edge11" class="edge">
<title>Node1&#45;&gt;Node12</title>
<path fill="none" stroke="midnightblue" d="M239.46,-236.12C256.13,-198.46 293.34,-126.5 348,-88.5 352.89,-85.1 358.22,-82.18 363.77,-79.68"/>
<polygon fill="midnightblue" stroke="midnightblue" points="236.22,-234.78 235.48,-245.35 242.65,-237.55 236.22,-234.78"/>
</g>
<!-- Node13 -->
<g id="node13" class="node">
<title>Node13</title>
<g id="a_node13"><a xlink:href="classQuantConnect_1_1ToolBox_1_1IQFeed_1_1LookupTickEventArgs.html" target="_top" xlink:title=" ">
<polygon fill="white" stroke="black" points="360.5,-0.5 360.5,-30.5 527.5,-30.5 527.5,-0.5 360.5,-0.5"/>
<text text-anchor="start" x="368.5" y="-18.5" font-family="Helvetica,sans-Serif" font-size="10.00">QuantConnect.ToolBox.IQFeed.</text>
<text text-anchor="middle" x="444" y="-7.5" font-family="Helvetica,sans-Serif" font-size="10.00">LookupTickEventArgs</text>
</a>
</g>
</g>
<!-- Node1&#45;&gt;Node13 -->
<g id="edge12" class="edge">
<title>Node1&#45;&gt;Node13</title>
<path fill="none" stroke="midnightblue" d="M235.66,-235.65C248.39,-189.58 282.11,-90.96 348,-39.5 352.42,-36.04 357.29,-33.08 362.4,-30.54"/>
<polygon fill="midnightblue" stroke="midnightblue" points="232.25,-234.84 233.06,-245.41 239.01,-236.64 232.25,-234.84"/>
</g>
<!-- Node2 -->
<g id="node2" class="node">
<title>Node2</title>
<g id="a_node2"><a xlink:title=" ">
<polygon fill="white" stroke="#bfbfbf" points="0,-251 0,-270 109,-270 109,-251 0,-251"/>
<text text-anchor="middle" x="54.5" y="-258" font-family="Helvetica,sans-Serif" font-size="10.00">System::EventArgs</text>
</a>
</g>
</g>
<!-- Node2&#45;&gt;Node1 -->
<g id="edge1" class="edge">
<title>Node2&#45;&gt;Node1</title>
<path fill="none" stroke="midnightblue" d="M119.65,-260.5C127.85,-260.5 136.33,-260.5 144.76,-260.5"/>
<polygon fill="midnightblue" stroke="midnightblue" points="119.45,-257 109.45,-260.5 119.45,-264 119.45,-257"/>
</g>
</g>
</svg>
        <g id="navigator" transform="translate(0 0)" fill="#404254">
                <rect fill="#f2f5e9" fill-opacity="0.5" stroke="#606060" stroke-width=".5" x="0" y="0" width="60" height="60"/>
                <use id="zoomplus" xlink:href="#zoomPlus" x="17" y="9" onmousedown="handleZoom(evt,'in')"/>
                <use id="zoomminus" xlink:href="#zoomMin" x="42" y="9" onmousedown="handleZoom(evt,'out')"/>
                <use id="reset" xlink:href="#resetDef" x="30" y="36" onmousedown="handleReset()"/>
                <g id="arrowUp" xlink:href="#dirArrow" transform="translate(30 24)" onmousedown="handlePan(0,-1)">
                  <use xlink:href="#rim" fill="#404040">
                        <set attributeName="fill" to="#808080" begin="arrowUp.mouseover" end="arrowUp.mouseout"/>
                  </use>
                  <path fill="none" stroke="white" stroke-width="1.5" d="M0,-3.0v7 M-2.5,-0.5L0,-3.0L2.5,-0.5"/>
                </g>
                <g id="arrowRight" xlink:href="#dirArrow" transform="rotate(90) translate(36 -43)" onmousedown="handlePan(1,0)">
                  <use xlink:href="#rim" fill="#404040">
                        <set attributeName="fill" to="#808080" begin="arrowRight.mouseover" end="arrowRight.mouseout"/>
                  </use>
                  <path fill="none" stroke="white" stroke-width="1.5" d="M0,-3.0v7 M-2.5,-0.5L0,-3.0L2.5,-0.5"/>
                </g>
                <g id="arrowDown" xlink:href="#dirArrow" transform="rotate(180) translate(-30 -48)" onmousedown="handlePan(0,1)">
                  <use xlink:href="#rim" fill="#404040">
                        <set attributeName="fill" to="#808080" begin="arrowDown.mouseover" end="arrowDown.mouseout"/>
                  </use>
                  <path fill="none" stroke="white" stroke-width="1.5" d="M0,-3.0v7 M-2.5,-0.5L0,-3.0L2.5,-0.5"/>
                </g>
                <g id="arrowLeft" xlink:href="#dirArrow" transform="rotate(270) translate(-36 17)" onmousedown="handlePan(-1,0)">
                  <use xlink:href="#rim" fill="#404040">
                        <set attributeName="fill" to="#808080" begin="arrowLeft.mouseover" end="arrowLeft.mouseout"/>
                  </use>
                  <path fill="none" stroke="white" stroke-width="1.5" d="M0,-3.0v7 M-2.5,-0.5L0,-3.0L2.5,-0.5"/>
                </g>
        </g>
        <svg viewBox="0 0 15 15" width="100%" height="30px" preserveAspectRatio="xMaxYMin meet">
         <g id="arrow_out" transform="scale(0.3 0.3)">
          <a xlink:href="classQuantConnect_1_1ToolBox_1_1IQFeed_1_1LookupEventArgs__inherit__graph_org.svg" target="_base">
           <rect id="button" ry="5" rx="5" y="6" x="6" height="38" width="38"
                fill="#f2f5e9" fill-opacity="0.5" stroke="#606060" stroke-width="1.0"/>
           <path id="arrow"
             d="M 11.500037,31.436501 C 11.940474,20.09759 22.043105,11.32322 32.158766,21.979434 L 37.068811,17.246167 C 37.068811,17.246167 37.088388,32 37.088388,32 L 22.160133,31.978069 C 22.160133,31.978069 26.997745,27.140456 26.997745,27.140456 C 18.528582,18.264221 13.291696,25.230495 11.500037,31.436501 z"
             style="fill:#404040;"/>
          </a>
         </g>
        </svg>
</svg>
