<?xml version="1.0" encoding="UTF-8" standalone="no"?>
<!DOCTYPE svg PUBLIC "-//W3C//DTD SVG 1.1//EN"
 "http://www.w3.org/Graphics/SVG/1.1/DTD/svg11.dtd">
<!-- Generated by graphviz version 2.43.0 (0)
 -->
<!-- Title: QuantConnect.Algorithm.Framework.Portfolio.SignalExports.SignalExportManager.SetTargetPortfolioFromPortfolio Pages: 1 -->
<svg width="883pt" height="133pt"
 viewBox="0.00 0.00 883.00 132.50" xmlns="http://www.w3.org/2000/svg" xmlns:xlink="http://www.w3.org/1999/xlink">
<g id="graph0" class="graph" transform="scale(1 1) rotate(0) translate(4 128.5)">
<title>QuantConnect.Algorithm.Framework.Portfolio.SignalExports.SignalExportManager.SetTargetPortfolioFromPortfolio</title>
<polygon fill="white" stroke="transparent" points="-4,4 -4,-128.5 879,-128.5 879,4 -4,4"/>
<!-- Node1 -->
<g id="node1" class="node">
<title>Node1</title>
<g id="a_node1"><a xlink:title="Sets the portfolio targets from the algorihtm&#39;s Portfolio and sends them with the algorithm being ran...">
<polygon fill="#bfbfbf" stroke="black" points="0,-30.5 0,-71.5 215,-71.5 215,-30.5 0,-30.5"/>
<text text-anchor="start" x="8" y="-59.5" font-family="Helvetica,sans-Serif" font-size="10.00">QuantConnect.Algorithm.Framework.</text>
<text text-anchor="start" x="8" y="-48.5" font-family="Helvetica,sans-Serif" font-size="10.00">Portfolio.SignalExports.SignalExport</text>
<text text-anchor="middle" x="107.5" y="-37.5" font-family="Helvetica,sans-Serif" font-size="10.00">Manager.SetTargetPortfolioFromPortfolio</text>
</a>
</g>
</g>
<!-- Node2 -->
<g id="node2" class="node">
<title>Node2</title>
<g id="a_node2"><a xlink:href="classQuantConnect_1_1Algorithm_1_1Framework_1_1Portfolio_1_1SignalExports_1_1SignalExportManager.html#a20c21ff33837ce151cb8cb8634616b11" target="_top" xlink:title="Obtains an array of portfolio targets from algorithm&#39;s Portfolio and returns them....">
<polygon fill="white" stroke="black" points="251,-60.5 251,-101.5 448,-101.5 448,-60.5 251,-60.5"/>
<text text-anchor="start" x="259" y="-89.5" font-family="Helvetica,sans-Serif" font-size="10.00">QuantConnect.Algorithm.Framework.</text>
<text text-anchor="start" x="259" y="-78.5" font-family="Helvetica,sans-Serif" font-size="10.00">Portfolio.SignalExports.SignalExport</text>
<text text-anchor="middle" x="349.5" y="-67.5" font-family="Helvetica,sans-Serif" font-size="10.00">Manager.GetPortfolioTargets</text>
</a>
</g>
</g>
<!-- Node1&#45;&gt;Node2 -->
<g id="edge1" class="edge">
<title>Node1&#45;&gt;Node2</title>
<path fill="none" stroke="midnightblue" d="M215.17,-64.33C223.71,-65.4 232.35,-66.48 240.91,-67.55"/>
<polygon fill="midnightblue" stroke="midnightblue" points="240.54,-71.03 250.9,-68.8 241.41,-64.09 240.54,-71.03"/>
</g>
<!-- Node6 -->
<g id="node6" class="node">
<title>Node6</title>
<g id="a_node6"><a xlink:href="classQuantConnect_1_1Algorithm_1_1Framework_1_1Portfolio_1_1SignalExports_1_1SignalExportManager.html#a1dac6122132390e39aa8f6d5bcc41dcc" target="_top" xlink:title="Sets the portfolio targets with the given entries and sends them with the algorithm being ran to the ...">
<polygon fill="white" stroke="black" points="251,-0.5 251,-41.5 448,-41.5 448,-0.5 251,-0.5"/>
<text text-anchor="start" x="259" y="-29.5" font-family="Helvetica,sans-Serif" font-size="10.00">QuantConnect.Algorithm.Framework.</text>
<text text-anchor="start" x="259" y="-18.5" font-family="Helvetica,sans-Serif" font-size="10.00">Portfolio.SignalExports.SignalExport</text>
<text text-anchor="middle" x="349.5" y="-7.5" font-family="Helvetica,sans-Serif" font-size="10.00">Manager.SetTargetPortfolio</text>
</a>
</g>
</g>
<!-- Node1&#45;&gt;Node6 -->
<g id="edge5" class="edge">
<title>Node1&#45;&gt;Node6</title>
<path fill="none" stroke="midnightblue" d="M215.17,-37.67C223.71,-36.6 232.35,-35.52 240.91,-34.45"/>
<polygon fill="midnightblue" stroke="midnightblue" points="241.41,-37.91 250.9,-33.2 240.54,-30.97 241.41,-37.91"/>
</g>
<!-- Node3 -->
<g id="node3" class="node">
<title>Node3</title>
<g id="a_node3"><a xlink:href="classQuantConnect_1_1Securities_1_1MaintenanceMarginParameters.html#ab4a4ed6148ee189e658151115d23f885" target="_top" xlink:title="Creates a new instance of the MaintenanceMarginParameters class to compute the maintenance margin req...">
<polygon fill="white" stroke="black" points="484,-60.5 484,-101.5 656,-101.5 656,-60.5 484,-60.5"/>
<text text-anchor="start" x="492" y="-89.5" font-family="Helvetica,sans-Serif" font-size="10.00">QuantConnect.Securities.</text>
<text text-anchor="start" x="492" y="-78.5" font-family="Helvetica,sans-Serif" font-size="10.00">MaintenanceMarginParameters.</text>
<text text-anchor="middle" x="570" y="-67.5" font-family="Helvetica,sans-Serif" font-size="10.00">ForQuantityAtCurrentPrice</text>
</a>
</g>
</g>
<!-- Node2&#45;&gt;Node3 -->
<g id="edge2" class="edge">
<title>Node2&#45;&gt;Node3</title>
<path fill="none" stroke="midnightblue" d="M448.25,-81C456.65,-81 465.14,-81 473.52,-81"/>
<polygon fill="midnightblue" stroke="midnightblue" points="473.68,-84.5 483.68,-81 473.68,-77.5 473.68,-84.5"/>
</g>
<!-- Node4 -->
<g id="node4" class="node">
<title>Node4</title>
<g id="a_node4"><a xlink:href="classQuantConnect_1_1Securities_1_1SecurityHolding.html#a88902e4d2b5e59fd73934daa215efb0e" target="_top" xlink:title="Gets the total value of the specified quantity &#160;of shares of this security in the account currency">
<polygon fill="white" stroke="black" points="692,-94 692,-124 875,-124 875,-94 692,-94"/>
<text text-anchor="start" x="700" y="-112" font-family="Helvetica,sans-Serif" font-size="10.00">QuantConnect.Securities.</text>
<text text-anchor="middle" x="783.5" y="-101" font-family="Helvetica,sans-Serif" font-size="10.00">SecurityHolding.GetQuantityValue</text>
</a>
</g>
</g>
<!-- Node3&#45;&gt;Node4 -->
<g id="edge3" class="edge">
<title>Node3&#45;&gt;Node4</title>
<path fill="none" stroke="midnightblue" d="M656.11,-92.27C664.53,-93.38 673.12,-94.52 681.68,-95.65"/>
<polygon fill="midnightblue" stroke="midnightblue" points="681.31,-99.13 691.68,-96.98 682.23,-92.19 681.31,-99.13"/>
</g>
<!-- Node5 -->
<g id="node5" class="node">
<title>Node5</title>
<g id="a_node5"><a xlink:href="classQuantConnect_1_1Securities_1_1MaintenanceMarginParameters.html#a3b521ab6c4d52957d2f35b31be47ee5c" target="_top" xlink:title="Initializes a new instance of the MaintenanceMarginParameters class">
<polygon fill="white" stroke="black" points="697.5,-33.5 697.5,-74.5 869.5,-74.5 869.5,-33.5 697.5,-33.5"/>
<text text-anchor="start" x="705.5" y="-62.5" font-family="Helvetica,sans-Serif" font-size="10.00">QuantConnect.Securities.</text>
<text text-anchor="start" x="705.5" y="-51.5" font-family="Helvetica,sans-Serif" font-size="10.00">MaintenanceMarginParameters.</text>
<text text-anchor="middle" x="783.5" y="-40.5" font-family="Helvetica,sans-Serif" font-size="10.00">MaintenanceMarginParameters</text>
</a>
</g>
</g>
<!-- Node3&#45;&gt;Node5 -->
<g id="edge4" class="edge">
<title>Node3&#45;&gt;Node5</title>
<path fill="none" stroke="midnightblue" d="M656.11,-70.13C666.27,-68.84 676.69,-67.51 686.98,-66.19"/>
<polygon fill="midnightblue" stroke="midnightblue" points="687.74,-69.63 697.22,-64.89 686.86,-62.68 687.74,-69.63"/>
</g>
</g>
</svg>
