<?xml version="1.0" encoding="UTF-8" standalone="no"?>
<!DOCTYPE svg PUBLIC "-//W3C//DTD SVG 1.1//EN"
 "http://www.w3.org/Graphics/SVG/1.1/DTD/svg11.dtd">
<!-- Generated by graphviz version 2.43.0 (0)
 -->
<!-- Title: QuantConnect.Securities.Option.OptionPriceModels.BjerksundStensland Pages: 1 -->
<svg width="379pt" height="50pt"
 viewBox="0.00 0.00 379.00 50.00" xmlns="http://www.w3.org/2000/svg" xmlns:xlink="http://www.w3.org/1999/xlink">
<g id="graph0" class="graph" transform="scale(1 1) rotate(0) translate(4 46)">
<title>QuantConnect.Securities.Option.OptionPriceModels.BjerksundStensland</title>
<polygon fill="white" stroke="transparent" points="-4,4 -4,-46 375,-46 375,4 -4,4"/>
<!-- Node1 -->
<g id="node1" class="node">
<title>Node1</title>
<g id="a_node1"><a xlink:title="Bjerksund and Stensland pricing engine for American options (1993) QuantLib reference: http://quantli...">
<polygon fill="#bfbfbf" stroke="black" points="176,-0.5 176,-41.5 371,-41.5 371,-0.5 176,-0.5"/>
<text text-anchor="start" x="184" y="-29.5" font-family="Helvetica,sans-Serif" font-size="10.00">QuantConnect.Securities.</text>
<text text-anchor="start" x="184" y="-18.5" font-family="Helvetica,sans-Serif" font-size="10.00">Option.OptionPriceModels.Bjerksund</text>
<text text-anchor="middle" x="273.5" y="-7.5" font-family="Helvetica,sans-Serif" font-size="10.00">Stensland</text>
</a>
</g>
</g>
<!-- Node2 -->
<g id="node2" class="node">
<title>Node2</title>
<g id="a_node2"><a xlink:href="classQuantConnect_1_1Securities_1_1Option_1_1Option.html#ae39ce21662f04ff4ba26c754e0b33c23" target="_top" xlink:title="Constructor for the option security">
<polygon fill="white" stroke="black" points="0,-6 0,-36 140,-36 140,-6 0,-6"/>
<text text-anchor="start" x="8" y="-24" font-family="Helvetica,sans-Serif" font-size="10.00">QuantConnect.Securities.</text>
<text text-anchor="middle" x="70" y="-13" font-family="Helvetica,sans-Serif" font-size="10.00">Option.Option.Option</text>
</a>
</g>
</g>
<!-- Node1&#45;&gt;Node2 -->
<g id="edge1" class="edge">
<title>Node1&#45;&gt;Node2</title>
<path fill="none" stroke="midnightblue" d="M165.74,-21C157.1,-21 148.53,-21 140.27,-21"/>
<polygon fill="midnightblue" stroke="midnightblue" points="165.88,-24.5 175.88,-21 165.88,-17.5 165.88,-24.5"/>
</g>
</g>
</svg>
