<?xml version="1.0" encoding="UTF-8" standalone="no"?>
<!DOCTYPE svg PUBLIC "-//W3C//DTD SVG 1.1//EN"
 "http://www.w3.org/Graphics/SVG/1.1/DTD/svg11.dtd">
<!-- Generated by graphviz version 2.43.0 (0)
 -->
<!-- Title: QuantConnect.Securities.Cash.EnsureCurrencyDataFeed Pages: 1 -->
<!--zoomable 815 -->
<svg id="main" version="1.1" xmlns="http://www.w3.org/2000/svg" xmlns:xlink="http://www.w3.org/1999/xlink" xml:space="preserve" onload="init(evt)">
<style type="text/css"><![CDATA[
.edge:hover path { stroke: red; }
.edge:hover polygon { stroke: red; fill: red; }
]]></style>
<script type="text/javascript"><![CDATA[
var edges = document.getElementsByTagName('g');
if (edges && edges.length) {
  for (var i=0;i<edges.length;i++) {
    if (edges[i].id.substr(0,4)=='edge') {
      edges[i].setAttribute('class','edge');
    }
  }
}
]]></script>
        <defs>
                <circle id="rim" cx="0" cy="0" r="7"/>
                <circle id="rim2" cx="0" cy="0" r="3.5"/>
                <g id="zoomPlus">
                        <use xlink:href="#rim" fill="#404040">
                                <set attributeName="fill" to="#808080" begin="zoomplus.mouseover" end="zoomplus.mouseout"/>
                        </use>
                        <path d="M-4,0h8M0,-4v8" fill="none" stroke="white" stroke-width="1.5" pointer-events="none"/>
                </g>
                <g id="zoomMin">
                        <use xlink:href="#rim" fill="#404040">
                                <set attributeName="fill" to="#808080" begin="zoomminus.mouseover" end="zoomminus.mouseout"/>
                        </use>
                        <path d="M-4,0h8" fill="none" stroke="white" stroke-width="1.5" pointer-events="none"/>
                </g>
                <g id="dirArrow">
                        <path fill="none" stroke="white" stroke-width="1.5" d="M0,-3.0v7 M-2.5,-0.5L0,-3.0L2.5,-0.5"/>
                </g>
               <g id="resetDef">
                       <use xlink:href="#rim2" fill="#404040">
                               <set attributeName="fill" to="#808080" begin="reset.mouseover" end="reset.mouseout"/>
                       </use>
               </g>
        </defs>

<script type="text/javascript">
var viewWidth = 1652;
var viewHeight = 815;
var sectionId = 'dynsection-3';
</script>
<script xlink:href="svgpan.js"/>
<svg id="graph" class="graph">
<g id="viewport">
<title>QuantConnect.Securities.Cash.EnsureCurrencyDataFeed</title>
<polygon fill="white" stroke="transparent" points="-4,4 -4,-811 1648,-811 1648,4 -4,4"/>
<!-- Node1 -->
<g id="node1" class="node">
<title>Node1</title>
<g id="a_node1"><a xlink:title="Ensures that we have a data feed to convert this currency into the base currency. This will add a Sub...">
<polygon fill="#bfbfbf" stroke="black" points="0,-306.5 0,-336.5 167,-336.5 167,-306.5 0,-306.5"/>
<text text-anchor="start" x="8" y="-324.5" font-family="Helvetica,sans-Serif" font-size="10.00">QuantConnect.Securities.</text>
<text text-anchor="middle" x="83.5" y="-313.5" font-family="Helvetica,sans-Serif" font-size="10.00">Cash.EnsureCurrencyDataFeed</text>
</a>
</g>
</g>
<!-- Node2 -->
<g id="node2" class="node">
<title>Node2</title>
<g id="a_node2"><a xlink:href="interfaceQuantConnect_1_1Interfaces_1_1ISubscriptionDataConfigService.html#a37d844a8ee78541da26b4732ed6a0a14" target="_top" xlink:title="Creates and adds a list of SubscriptionDataConfig for a given symbol and configuration....">
<polygon fill="white" stroke="black" points="208,-767.5 208,-797.5 399,-797.5 399,-767.5 208,-767.5"/>
<text text-anchor="start" x="216" y="-785.5" font-family="Helvetica,sans-Serif" font-size="10.00">QuantConnect.Interfaces.</text>
<text text-anchor="middle" x="303.5" y="-774.5" font-family="Helvetica,sans-Serif" font-size="10.00">ISubscriptionDataConfigService.Add</text>
</a>
</g>
</g>
<!-- Node1&#45;&gt;Node2 -->
<g id="edge1" class="edge">
<title>Node1&#45;&gt;Node2</title>
<path fill="none" stroke="midnightblue" d="M86.57,-336.93C96.3,-407.29 139.74,-696.99 203,-758.5 203.97,-759.44 204.97,-760.35 205.99,-761.22"/>
<polygon fill="midnightblue" stroke="midnightblue" points="204.19,-764.24 214.34,-767.27 208.3,-758.57 204.19,-764.24"/>
</g>
<!-- Node3 -->
<g id="node3" class="node">
<title>Node3</title>
<g id="a_node3"><a xlink:href="classQuantConnect_1_1Securities_1_1SecurityManager.html#a5511dc98ccb9ce95207c5173f8afe1be" target="_top" xlink:title="Add a new security with this symbol to the collection.">
<polygon fill="white" stroke="black" points="233.5,-718.5 233.5,-748.5 373.5,-748.5 373.5,-718.5 233.5,-718.5"/>
<text text-anchor="start" x="241.5" y="-736.5" font-family="Helvetica,sans-Serif" font-size="10.00">QuantConnect.Securities.</text>
<text text-anchor="middle" x="303.5" y="-725.5" font-family="Helvetica,sans-Serif" font-size="10.00">SecurityManager.Add</text>
</a>
</g>
</g>
<!-- Node1&#45;&gt;Node3 -->
<g id="edge2" class="edge">
<title>Node1&#45;&gt;Node3</title>
<path fill="none" stroke="midnightblue" d="M84.54,-336.67C85.53,-393.26 96.7,-594.26 203,-701.5 209.06,-707.61 216.29,-712.56 224.05,-716.56"/>
<polygon fill="midnightblue" stroke="midnightblue" points="222.81,-719.85 233.36,-720.84 225.74,-713.49 222.81,-719.85"/>
</g>
<!-- Node6 -->
<g id="node6" class="node">
<title>Node6</title>
<g id="a_node6"><a xlink:href="classQuantConnect_1_1Symbol.html#a350b9a625cf7bad95da82894be3cd0a8" target="_top" xlink:title="Provides a convenience method for creating a Symbol for most security types. This method currently do...">
<polygon fill="white" stroke="black" points="223,-424 223,-443 384,-443 384,-424 223,-424"/>
<text text-anchor="middle" x="303.5" y="-431" font-family="Helvetica,sans-Serif" font-size="10.00">QuantConnect.Symbol.Create</text>
</a>
</g>
</g>
<!-- Node1&#45;&gt;Node6 -->
<g id="edge5" class="edge">
<title>Node1&#45;&gt;Node6</title>
<path fill="none" stroke="midnightblue" d="M113.9,-336.6C156.17,-358.32 233.54,-398.07 274.83,-419.28"/>
<polygon fill="midnightblue" stroke="midnightblue" points="273.29,-422.43 283.78,-423.88 276.49,-416.2 273.29,-422.43"/>
</g>
<!-- Node9 -->
<g id="node9" class="node">
<title>Node9</title>
<g id="a_node9"><a xlink:href="classQuantConnect_1_1Symbol.html#a59158f74116be3dad0ea0f3f3f134416" target="_top" xlink:title="Initializes a new instance of the Symbol class">
<polygon fill="white" stroke="black" points="689.5,-640 689.5,-659 854.5,-659 854.5,-640 689.5,-640"/>
<text text-anchor="middle" x="772" y="-647" font-family="Helvetica,sans-Serif" font-size="10.00">QuantConnect.Symbol.Symbol</text>
</a>
</g>
</g>
<!-- Node1&#45;&gt;Node9 -->
<g id="edge39" class="edge">
<title>Node1&#45;&gt;Node9</title>
<path fill="none" stroke="midnightblue" d="M93.66,-336.65C129.22,-393.75 264.88,-596.08 440,-662.5 537.49,-699.48 662.91,-677.56 727.8,-661.62"/>
<polygon fill="midnightblue" stroke="midnightblue" points="728.84,-664.97 737.68,-659.12 727.13,-658.18 728.84,-664.97"/>
</g>
<!-- Node21 -->
<g id="node21" class="node">
<title>Node21</title>
<g id="a_node21"><a xlink:href="interfaceQuantConnect_1_1Interfaces_1_1ISecurityService.html#aff18dc3172200c553ef1cb806e9a2cef" target="_top" xlink:title="Creates a new security">
<polygon fill="white" stroke="black" points="218.5,-331.5 218.5,-361.5 388.5,-361.5 388.5,-331.5 218.5,-331.5"/>
<text text-anchor="start" x="226.5" y="-349.5" font-family="Helvetica,sans-Serif" font-size="10.00">QuantConnect.Interfaces.</text>
<text text-anchor="middle" x="303.5" y="-338.5" font-family="Helvetica,sans-Serif" font-size="10.00">ISecurityService.CreateSecurity</text>
</a>
</g>
</g>
<!-- Node1&#45;&gt;Node21 -->
<g id="edge22" class="edge">
<title>Node1&#45;&gt;Node21</title>
<path fill="none" stroke="midnightblue" d="M167.23,-330.99C180.57,-332.52 194.47,-334.11 208.06,-335.67"/>
<polygon fill="midnightblue" stroke="midnightblue" points="208.05,-339.19 218.38,-336.85 208.85,-332.24 208.05,-339.19"/>
</g>
<!-- Node22 -->
<g id="node22" class="node">
<title>Node22</title>
<g id="a_node22"><a xlink:href="classQuantConnect_1_1Logging_1_1Log.html#af0e7955911bc7664b37661b2a303a9e3" target="_top" xlink:title="Log error">
<polygon fill="white" stroke="black" points="228.5,-282.5 228.5,-312.5 378.5,-312.5 378.5,-282.5 228.5,-282.5"/>
<text text-anchor="start" x="236.5" y="-300.5" font-family="Helvetica,sans-Serif" font-size="10.00">QuantConnect.Logging.Log.</text>
<text text-anchor="middle" x="303.5" y="-289.5" font-family="Helvetica,sans-Serif" font-size="10.00">Error</text>
</a>
</g>
</g>
<!-- Node1&#45;&gt;Node22 -->
<g id="edge23" class="edge">
<title>Node1&#45;&gt;Node22</title>
<path fill="none" stroke="midnightblue" d="M167.23,-312.39C183.89,-310.56 201.41,-308.63 218.13,-306.79"/>
<polygon fill="midnightblue" stroke="midnightblue" points="218.86,-310.23 228.41,-305.66 218.09,-303.27 218.86,-310.23"/>
</g>
<!-- Node24 -->
<g id="node24" class="node">
<title>Node24</title>
<g id="a_node24"><a xlink:href="classQuantConnect_1_1Currencies.html#aca7fd967c799817a5db4e56d2acca7c7" target="_top" xlink:title="Checks whether or not certain symbol is a StableCoin without pair in a given market">
<polygon fill="white" stroke="black" points="232,-233.5 232,-263.5 375,-263.5 375,-233.5 232,-233.5"/>
<text text-anchor="start" x="240" y="-251.5" font-family="Helvetica,sans-Serif" font-size="10.00">QuantConnect.Currencies.</text>
<text text-anchor="middle" x="303.5" y="-240.5" font-family="Helvetica,sans-Serif" font-size="10.00">IsStableCoinWithoutPair</text>
</a>
</g>
</g>
<!-- Node1&#45;&gt;Node24 -->
<g id="edge25" class="edge">
<title>Node1&#45;&gt;Node24</title>
<path fill="none" stroke="midnightblue" d="M118.01,-306.48C141.49,-296.31 173.78,-283.04 203,-273.5 210.85,-270.94 219.12,-268.48 227.4,-266.18"/>
<polygon fill="midnightblue" stroke="midnightblue" points="228.36,-269.55 237.1,-263.55 226.53,-262.79 228.36,-269.55"/>
</g>
<!-- Node25 -->
<g id="node25" class="node">
<title>Node25</title>
<g id="a_node25"><a xlink:href="classQuantConnect_1_1Securities_1_1CurrencyConversion_1_1SecurityCurrencyConversion.html#a4906f295b9c94951f7aed815cfb254cf" target="_top" xlink:title="Finds a conversion between two currencies by looking through all available 1 and 2&#45;leg options">
<polygon fill="white" stroke="black" points="203,-154 203,-195 404,-195 404,-154 203,-154"/>
<text text-anchor="start" x="211" y="-183" font-family="Helvetica,sans-Serif" font-size="10.00">QuantConnect.Securities.</text>
<text text-anchor="start" x="211" y="-172" font-family="Helvetica,sans-Serif" font-size="10.00">CurrencyConversion.SecurityCurrency</text>
<text text-anchor="middle" x="303.5" y="-161" font-family="Helvetica,sans-Serif" font-size="10.00">Conversion.LinearSearch</text>
</a>
</g>
</g>
<!-- Node1&#45;&gt;Node25 -->
<g id="edge26" class="edge">
<title>Node1&#45;&gt;Node25</title>
<path fill="none" stroke="midnightblue" d="M100.49,-306.47C122.46,-286.27 163.75,-249.98 203,-224.5 216.83,-215.52 232.49,-206.97 247.23,-199.57"/>
<polygon fill="midnightblue" stroke="midnightblue" points="248.84,-202.68 256.26,-195.11 245.74,-196.4 248.84,-202.68"/>
</g>
<!-- Node35 -->
<g id="node35" class="node">
<title>Node35</title>
<g id="a_node35"><a xlink:href="classQuantConnect_1_1Data_1_1SubscriptionManager.html#a4191b1d6d6180db40dd51e5b78981d15" target="_top" xlink:title="Get the data feed types for a given SecurityType Resolution">
<polygon fill="white" stroke="black" points="210,-83 210,-124 397,-124 397,-83 210,-83"/>
<text text-anchor="start" x="218" y="-112" font-family="Helvetica,sans-Serif" font-size="10.00">QuantConnect.Data.Subscription</text>
<text text-anchor="start" x="218" y="-101" font-family="Helvetica,sans-Serif" font-size="10.00">Manager.LookupSubscriptionConfig</text>
<text text-anchor="middle" x="303.5" y="-90" font-family="Helvetica,sans-Serif" font-size="10.00">DataTypes</text>
</a>
</g>
</g>
<!-- Node1&#45;&gt;Node35 -->
<g id="edge37" class="edge">
<title>Node1&#45;&gt;Node35</title>
<path fill="none" stroke="midnightblue" d="M90.93,-306.27C105.83,-272.62 145.91,-191.22 203,-144.5 210.4,-138.44 218.83,-133.16 227.57,-128.6"/>
<polygon fill="midnightblue" stroke="midnightblue" points="229.32,-131.64 236.76,-124.1 226.24,-125.35 229.32,-131.64"/>
</g>
<!-- Node37 -->
<g id="node37" class="node">
<title>Node37</title>
<g id="a_node37"><a xlink:href="classQuantConnect_1_1Logging_1_1Log.html#a4e55477fbc790846b74550a57198cea9" target="_top" xlink:title="Log trace">
<polygon fill="white" stroke="black" points="228.5,-11.5 228.5,-41.5 378.5,-41.5 378.5,-11.5 228.5,-11.5"/>
<text text-anchor="start" x="236.5" y="-29.5" font-family="Helvetica,sans-Serif" font-size="10.00">QuantConnect.Logging.Log.</text>
<text text-anchor="middle" x="303.5" y="-18.5" font-family="Helvetica,sans-Serif" font-size="10.00">Trace</text>
</a>
</g>
</g>
<!-- Node1&#45;&gt;Node37 -->
<g id="edge40" class="edge">
<title>Node1&#45;&gt;Node37</title>
<path fill="none" stroke="midnightblue" d="M87.94,-306.3C98.23,-264.06 132.49,-143.69 203,-73.5 214.72,-61.84 229.88,-52.69 244.83,-45.69"/>
<polygon fill="midnightblue" stroke="midnightblue" points="246.34,-48.84 254.07,-41.6 243.51,-42.44 246.34,-48.84"/>
</g>
<!-- Node4 -->
<g id="node4" class="node">
<title>Node4</title>
<g id="a_node4"><a xlink:href="classQuantConnect_1_1Securities_1_1SecurityManager.html#a0e4af6deb8b954b63bde12056f77e126" target="_top" xlink:title="Event invocator for the CollectionChanged event">
<polygon fill="white" stroke="black" points="454.5,-716 454.5,-757 618.5,-757 618.5,-716 454.5,-716"/>
<text text-anchor="start" x="462.5" y="-745" font-family="Helvetica,sans-Serif" font-size="10.00">QuantConnect.Securities.</text>
<text text-anchor="start" x="462.5" y="-734" font-family="Helvetica,sans-Serif" font-size="10.00">SecurityManager.OnCollection</text>
<text text-anchor="middle" x="536.5" y="-723" font-family="Helvetica,sans-Serif" font-size="10.00">Changed</text>
</a>
</g>
</g>
<!-- Node3&#45;&gt;Node4 -->
<g id="edge3" class="edge">
<title>Node3&#45;&gt;Node4</title>
<path fill="none" stroke="midnightblue" d="M373.81,-734.4C395.92,-734.69 420.73,-735.01 444.16,-735.31"/>
<polygon fill="midnightblue" stroke="midnightblue" points="444.41,-738.82 454.46,-735.45 444.5,-731.82 444.41,-738.82"/>
</g>
<!-- Node5 -->
<g id="node5" class="node">
<title>Node5</title>
<g id="a_node5"><a xlink:href="classQuantConnect_1_1Securities_1_1Security.html#affde19cbca6b7b8a83d80ebf6e6b8f84" target="_top" xlink:title="Sets the LocalTimeKeeper to be used for this Security. This is the source of this instance&#39;s time.">
<polygon fill="white" stroke="black" points="457.5,-776.5 457.5,-806.5 615.5,-806.5 615.5,-776.5 457.5,-776.5"/>
<text text-anchor="start" x="465.5" y="-794.5" font-family="Helvetica,sans-Serif" font-size="10.00">QuantConnect.Securities.</text>
<text text-anchor="middle" x="536.5" y="-783.5" font-family="Helvetica,sans-Serif" font-size="10.00">Security.SetLocalTimeKeeper</text>
</a>
</g>
</g>
<!-- Node3&#45;&gt;Node5 -->
<g id="edge4" class="edge">
<title>Node3&#45;&gt;Node5</title>
<path fill="none" stroke="midnightblue" d="M364.29,-748.51C395.3,-756.3 433.36,-765.86 465.72,-773.98"/>
<polygon fill="midnightblue" stroke="midnightblue" points="465.01,-777.41 475.56,-776.45 466.71,-770.62 465.01,-777.41"/>
</g>
<!-- Node7 -->
<g id="node7" class="node">
<title>Node7</title>
<g id="a_node7"><a xlink:href="classQuantConnect_1_1Symbol.html#a7518a1932d1babbff128f2ba9666a78b" target="_top" xlink:title="Provides a convenience method for creating an option Symbol.">
<polygon fill="white" stroke="black" points="456,-590.5 456,-620.5 617,-620.5 617,-590.5 456,-590.5"/>
<text text-anchor="start" x="464" y="-608.5" font-family="Helvetica,sans-Serif" font-size="10.00">QuantConnect.Symbol.Create</text>
<text text-anchor="middle" x="536.5" y="-597.5" font-family="Helvetica,sans-Serif" font-size="10.00">Option</text>
</a>
</g>
</g>
<!-- Node6&#45;&gt;Node7 -->
<g id="edge6" class="edge">
<title>Node6&#45;&gt;Node7</title>
<path fill="none" stroke="midnightblue" d="M310.44,-443.24C327.21,-469.88 377.77,-544.38 440,-581.5 442.86,-583.21 445.84,-584.79 448.91,-586.27"/>
<polygon fill="midnightblue" stroke="midnightblue" points="447.75,-589.58 458.32,-590.36 450.54,-583.16 447.75,-589.58"/>
</g>
<!-- Node8 -->
<g id="node8" class="node">
<title>Node8</title>
<g id="a_node8"><a xlink:href="classQuantConnect_1_1SecurityIdentifier.html#a0c21d7880c9fdd260883d11ea0c99a00" target="_top" xlink:title="Helper overload that will search the mapfiles to resolve the first date. This implementation uses the...">
<polygon fill="white" stroke="black" points="685,-448.5 685,-478.5 859,-478.5 859,-448.5 685,-448.5"/>
<text text-anchor="start" x="693" y="-466.5" font-family="Helvetica,sans-Serif" font-size="10.00">QuantConnect.SecurityIdentifier.</text>
<text text-anchor="middle" x="772" y="-455.5" font-family="Helvetica,sans-Serif" font-size="10.00">GenerateEquity</text>
</a>
</g>
</g>
<!-- Node6&#45;&gt;Node8 -->
<g id="edge17" class="edge">
<title>Node6&#45;&gt;Node8</title>
<path fill="none" stroke="midnightblue" d="M322.51,-423.83C343.05,-412.45 377.24,-392.45 404,-371.5 421.57,-357.74 419.32,-344.89 440,-336.5 519.48,-304.23 553.09,-305.33 633,-336.5 686.28,-357.29 731.42,-409.34 754.5,-439.97"/>
<polygon fill="midnightblue" stroke="midnightblue" points="751.93,-442.38 760.68,-448.36 757.57,-438.23 751.93,-442.38"/>
</g>
<!-- Node6&#45;&gt;Node9 -->
<g id="edge21" class="edge">
<title>Node6&#45;&gt;Node9</title>
<path fill="none" stroke="midnightblue" d="M307.67,-443.2C319.12,-476.51 361.87,-586.51 440,-630.5 525.81,-678.82 644.76,-671.04 714.23,-660.56"/>
<polygon fill="midnightblue" stroke="midnightblue" points="714.78,-664.02 724.11,-659 713.69,-657.11 714.78,-664.02"/>
</g>
<!-- Node14 -->
<g id="node14" class="node">
<title>Node14</title>
<g id="a_node14"><a xlink:href="classQuantConnect_1_1SecurityIdentifier.html#a02ca750115844561c001c2346fbafc00" target="_top" xlink:title="Generates a new SecurityIdentifier for a custom security with the option of providing the first date">
<polygon fill="white" stroke="black" points="449.5,-257.5 449.5,-287.5 623.5,-287.5 623.5,-257.5 449.5,-257.5"/>
<text text-anchor="start" x="457.5" y="-275.5" font-family="Helvetica,sans-Serif" font-size="10.00">QuantConnect.SecurityIdentifier.</text>
<text text-anchor="middle" x="536.5" y="-264.5" font-family="Helvetica,sans-Serif" font-size="10.00">GenerateBase</text>
</a>
</g>
</g>
<!-- Node6&#45;&gt;Node14 -->
<g id="edge13" class="edge">
<title>Node6&#45;&gt;Node14</title>
<path fill="none" stroke="midnightblue" d="M326.65,-423.96C348.53,-413.64 381.87,-395.39 404,-371.5 427.51,-346.13 413.48,-324.71 440,-302.5 444.81,-298.47 450.16,-294.98 455.81,-291.96"/>
<polygon fill="midnightblue" stroke="midnightblue" points="457.39,-295.08 464.88,-287.59 454.35,-288.78 457.39,-295.08"/>
</g>
<!-- Node16 -->
<g id="node16" class="node">
<title>Node16</title>
<g id="a_node16"><a xlink:href="classQuantConnect_1_1SecurityIdentifier.html#a53953b18d814c5445e4ecdcb3b555080" target="_top" xlink:title="Generates a new SecurityIdentifier for a CFD security">
<polygon fill="white" stroke="black" points="449.5,-541.5 449.5,-571.5 623.5,-571.5 623.5,-541.5 449.5,-541.5"/>
<text text-anchor="start" x="457.5" y="-559.5" font-family="Helvetica,sans-Serif" font-size="10.00">QuantConnect.SecurityIdentifier.</text>
<text text-anchor="middle" x="536.5" y="-548.5" font-family="Helvetica,sans-Serif" font-size="10.00">GenerateCfd</text>
</a>
</g>
</g>
<!-- Node6&#45;&gt;Node16 -->
<g id="edge15" class="edge">
<title>Node6&#45;&gt;Node16</title>
<path fill="none" stroke="midnightblue" d="M314.82,-443.27C336.34,-463.1 388.3,-508.25 440,-532.5 444.32,-534.53 448.83,-536.4 453.44,-538.12"/>
<polygon fill="midnightblue" stroke="midnightblue" points="452.43,-541.47 463.02,-541.45 454.73,-534.86 452.43,-541.47"/>
</g>
<!-- Node17 -->
<g id="node17" class="node">
<title>Node17</title>
<g id="a_node17"><a xlink:href="classQuantConnect_1_1SecurityIdentifier.html#a5889a95a36ce927dd0a109cbfbcbe663" target="_top" xlink:title="Generates a new SecurityIdentifier for a Crypto pair">
<polygon fill="white" stroke="black" points="449.5,-492.5 449.5,-522.5 623.5,-522.5 623.5,-492.5 449.5,-492.5"/>
<text text-anchor="start" x="457.5" y="-510.5" font-family="Helvetica,sans-Serif" font-size="10.00">QuantConnect.SecurityIdentifier.</text>
<text text-anchor="middle" x="536.5" y="-499.5" font-family="Helvetica,sans-Serif" font-size="10.00">GenerateCrypto</text>
</a>
</g>
</g>
<!-- Node6&#45;&gt;Node17 -->
<g id="edge16" class="edge">
<title>Node6&#45;&gt;Node17</title>
<path fill="none" stroke="midnightblue" d="M328.22,-443.14C355.07,-453.83 400.23,-471.2 440,-483.5 446.96,-485.65 454.25,-487.75 461.57,-489.76"/>
<polygon fill="midnightblue" stroke="midnightblue" points="460.97,-493.22 471.54,-492.44 462.79,-486.46 460.97,-493.22"/>
</g>
<!-- Node18 -->
<g id="node18" class="node">
<title>Node18</title>
<g id="a_node18"><a xlink:href="classQuantConnect_1_1SecurityIdentifier.html#a9cf0d3b208a5171e6112516ce441f18d" target="_top" xlink:title="Generates a new SecurityIdentifier for a forex pair">
<polygon fill="white" stroke="black" points="449.5,-443.5 449.5,-473.5 623.5,-473.5 623.5,-443.5 449.5,-443.5"/>
<text text-anchor="start" x="457.5" y="-461.5" font-family="Helvetica,sans-Serif" font-size="10.00">QuantConnect.SecurityIdentifier.</text>
<text text-anchor="middle" x="536.5" y="-450.5" font-family="Helvetica,sans-Serif" font-size="10.00">GenerateForex</text>
</a>
</g>
</g>
<!-- Node6&#45;&gt;Node18 -->
<g id="edge18" class="edge">
<title>Node6&#45;&gt;Node18</title>
<path fill="none" stroke="midnightblue" d="M384.32,-442.14C402.04,-444.06 420.99,-446.11 439.29,-448.09"/>
<polygon fill="midnightblue" stroke="midnightblue" points="439.05,-451.58 449.37,-449.18 439.8,-444.62 439.05,-451.58"/>
</g>
<!-- Node19 -->
<g id="node19" class="node">
<title>Node19</title>
<g id="a_node19"><a xlink:href="classQuantConnect_1_1SecurityIdentifier.html#ad50a891c97cb0c084a9e2aa43607ed66" target="_top" xlink:title="Generates a new SecurityIdentifier for a future">
<polygon fill="white" stroke="black" points="449.5,-394.5 449.5,-424.5 623.5,-424.5 623.5,-394.5 449.5,-394.5"/>
<text text-anchor="start" x="457.5" y="-412.5" font-family="Helvetica,sans-Serif" font-size="10.00">QuantConnect.SecurityIdentifier.</text>
<text text-anchor="middle" x="536.5" y="-401.5" font-family="Helvetica,sans-Serif" font-size="10.00">GenerateFuture</text>
</a>
</g>
</g>
<!-- Node6&#45;&gt;Node19 -->
<g id="edge19" class="edge">
<title>Node6&#45;&gt;Node19</title>
<path fill="none" stroke="midnightblue" d="M384.32,-425.21C402.04,-423.37 420.99,-421.4 439.29,-419.5"/>
<polygon fill="midnightblue" stroke="midnightblue" points="439.78,-422.96 449.37,-418.45 439.06,-416 439.78,-422.96"/>
</g>
<!-- Node20 -->
<g id="node20" class="node">
<title>Node20</title>
<g id="a_node20"><a xlink:href="classQuantConnect_1_1SecurityIdentifier.html#ade05a8e57b041ab484cf585be8d05699" target="_top" xlink:title="Generates a new SecurityIdentifier for a INDEX security">
<polygon fill="white" stroke="black" points="449.5,-345.5 449.5,-375.5 623.5,-375.5 623.5,-345.5 449.5,-345.5"/>
<text text-anchor="start" x="457.5" y="-363.5" font-family="Helvetica,sans-Serif" font-size="10.00">QuantConnect.SecurityIdentifier.</text>
<text text-anchor="middle" x="536.5" y="-352.5" font-family="Helvetica,sans-Serif" font-size="10.00">GenerateIndex</text>
</a>
</g>
</g>
<!-- Node6&#45;&gt;Node20 -->
<g id="edge20" class="edge">
<title>Node6&#45;&gt;Node20</title>
<path fill="none" stroke="midnightblue" d="M329.76,-423.83C356.82,-413.64 401.12,-397.45 440,-385.5 448.07,-383.02 456.56,-380.57 465.02,-378.23"/>
<polygon fill="midnightblue" stroke="midnightblue" points="466.18,-381.54 474.91,-375.54 464.34,-374.79 466.18,-381.54"/>
</g>
<!-- Node7&#45;&gt;Node8 -->
<g id="edge7" class="edge">
<title>Node7&#45;&gt;Node8</title>
<path fill="none" stroke="midnightblue" d="M611.76,-590.49C619.11,-587.93 626.32,-584.95 633,-581.5 680.67,-556.88 725.95,-512.84 750.95,-486.08"/>
<polygon fill="midnightblue" stroke="midnightblue" points="753.55,-488.43 757.74,-478.7 748.4,-483.69 753.55,-488.43"/>
</g>
<!-- Node7&#45;&gt;Node9 -->
<g id="edge8" class="edge">
<title>Node7&#45;&gt;Node9</title>
<path fill="none" stroke="midnightblue" d="M617.2,-620.52C647.68,-626.26 681.91,-632.71 710.33,-638.07"/>
<polygon fill="midnightblue" stroke="midnightblue" points="710.04,-641.58 720.52,-639.99 711.34,-634.7 710.04,-641.58"/>
</g>
<!-- Node10 -->
<g id="node10" class="node">
<title>Node10</title>
<g id="a_node10"><a xlink:href="classQuantConnect_1_1Symbol.html#a59b0795fa21f46c306deb5576fa03bb9" target="_top" xlink:title="Centralized helper method to resolve alias for a symbol">
<polygon fill="white" stroke="black" points="922,-640 922,-659 1092,-659 1092,-640 922,-640"/>
<text text-anchor="middle" x="1007" y="-647" font-family="Helvetica,sans-Serif" font-size="10.00">QuantConnect.Symbol.GetAlias</text>
</a>
</g>
</g>
<!-- Node9&#45;&gt;Node10 -->
<g id="edge9" class="edge">
<title>Node9&#45;&gt;Node10</title>
<path fill="none" stroke="midnightblue" d="M854.82,-649.5C873.16,-649.5 892.76,-649.5 911.57,-649.5"/>
<polygon fill="midnightblue" stroke="midnightblue" points="911.62,-653 921.62,-649.5 911.62,-646 911.62,-653"/>
</g>
<!-- Node11 -->
<g id="node11" class="node">
<title>Node11</title>
<g id="a_node11"><a xlink:href="classQuantConnect_1_1SymbolRepresentation.html#abe54ff47eb211a2a99fb47b72683e3b9" target="_top" xlink:title="Returns future symbol ticker from underlying and expiration date. Function can generate tickers of tw...">
<polygon fill="white" stroke="black" points="1139,-609.5 1139,-639.5 1342,-639.5 1342,-609.5 1139,-609.5"/>
<text text-anchor="start" x="1147" y="-627.5" font-family="Helvetica,sans-Serif" font-size="10.00">QuantConnect.SymbolRepresentation.</text>
<text text-anchor="middle" x="1240.5" y="-616.5" font-family="Helvetica,sans-Serif" font-size="10.00">GenerateFutureTicker</text>
</a>
</g>
</g>
<!-- Node10&#45;&gt;Node11 -->
<g id="edge10" class="edge">
<title>Node10&#45;&gt;Node11</title>
<path fill="none" stroke="midnightblue" d="M1092.23,-640.4C1104.05,-639.13 1116.34,-637.8 1128.56,-636.48"/>
<polygon fill="midnightblue" stroke="midnightblue" points="1129.23,-639.93 1138.8,-635.38 1128.48,-632.97 1129.23,-639.93"/>
</g>
<!-- Node13 -->
<g id="node13" class="node">
<title>Node13</title>
<g id="a_node13"><a xlink:href="classQuantConnect_1_1SymbolRepresentation.html#ab133044f5cf8c16e700190a2202b215e" target="_top" xlink:title="Returns option symbol ticker in accordance with OSI symbology More information can be found at http:/...">
<polygon fill="white" stroke="black" points="1139,-658.5 1139,-688.5 1342,-688.5 1342,-658.5 1139,-658.5"/>
<text text-anchor="start" x="1147" y="-676.5" font-family="Helvetica,sans-Serif" font-size="10.00">QuantConnect.SymbolRepresentation.</text>
<text text-anchor="middle" x="1240.5" y="-665.5" font-family="Helvetica,sans-Serif" font-size="10.00">GenerateOptionTickerOSI</text>
</a>
</g>
</g>
<!-- Node10&#45;&gt;Node13 -->
<g id="edge12" class="edge">
<title>Node10&#45;&gt;Node13</title>
<path fill="none" stroke="midnightblue" d="M1092.23,-658.23C1104.05,-659.46 1116.34,-660.73 1128.56,-662"/>
<polygon fill="midnightblue" stroke="midnightblue" points="1128.49,-665.51 1138.8,-663.06 1129.21,-658.55 1128.49,-665.51"/>
</g>
<!-- Node12 -->
<g id="node12" class="node">
<title>Node12</title>
<g id="a_node12"><a xlink:href="classQuantConnect_1_1Securities_1_1Future_1_1FuturesExpiryUtilityFunctions.html#a4ccb1e2f2fe40ff09785a74a02f26df1" target="_top" xlink:title="Gets the number of months between the contract month and the expiry date.">
<polygon fill="white" stroke="black" points="1378,-604 1378,-645 1644,-645 1644,-604 1378,-604"/>
<text text-anchor="start" x="1386" y="-633" font-family="Helvetica,sans-Serif" font-size="10.00">QuantConnect.Securities.</text>
<text text-anchor="start" x="1386" y="-622" font-family="Helvetica,sans-Serif" font-size="10.00">Future.FuturesExpiryUtilityFunctions.</text>
<text text-anchor="middle" x="1511" y="-611" font-family="Helvetica,sans-Serif" font-size="10.00">GetDeltaBetweenContractMonthAndContractExpiry</text>
</a>
</g>
</g>
<!-- Node11&#45;&gt;Node12 -->
<g id="edge11" class="edge">
<title>Node11&#45;&gt;Node12</title>
<path fill="none" stroke="midnightblue" d="M1342.24,-624.5C1350.59,-624.5 1359.11,-624.5 1367.68,-624.5"/>
<polygon fill="midnightblue" stroke="midnightblue" points="1367.76,-628 1377.76,-624.5 1367.76,-621 1367.76,-628"/>
</g>
<!-- Node15 -->
<g id="node15" class="node">
<title>Node15</title>
<g id="a_node15"><a xlink:href="classQuantConnect_1_1SecurityIdentifier.html#a19e1f9da410608020d74ed9e7d283575" target="_top" xlink:title="Generates the Symbol property for QuantConnect.SecurityType.Base security identifiers">
<polygon fill="white" stroke="black" points="685,-257.5 685,-287.5 859,-287.5 859,-257.5 685,-257.5"/>
<text text-anchor="start" x="693" y="-275.5" font-family="Helvetica,sans-Serif" font-size="10.00">QuantConnect.SecurityIdentifier.</text>
<text text-anchor="middle" x="772" y="-264.5" font-family="Helvetica,sans-Serif" font-size="10.00">GenerateBaseSymbol</text>
</a>
</g>
</g>
<!-- Node14&#45;&gt;Node15 -->
<g id="edge14" class="edge">
<title>Node14&#45;&gt;Node15</title>
<path fill="none" stroke="midnightblue" d="M623.78,-272.5C640.24,-272.5 657.57,-272.5 674.33,-272.5"/>
<polygon fill="midnightblue" stroke="midnightblue" points="674.68,-276 684.68,-272.5 674.68,-269 674.68,-276"/>
</g>
<!-- Node23 -->
<g id="node23" class="node">
<title>Node23</title>
<g id="a_node23"><a xlink:href="interfaceQuantConnect_1_1Logging_1_1ILogHandler.html#a35373a0c5d76031fa5ccf5dc39e5c25d" target="_top" xlink:title="Write error message to log">
<polygon fill="white" stroke="black" points="461.5,-208.5 461.5,-238.5 611.5,-238.5 611.5,-208.5 461.5,-208.5"/>
<text text-anchor="start" x="469.5" y="-226.5" font-family="Helvetica,sans-Serif" font-size="10.00">QuantConnect.Logging.ILog</text>
<text text-anchor="middle" x="536.5" y="-215.5" font-family="Helvetica,sans-Serif" font-size="10.00">Handler.Error</text>
</a>
</g>
</g>
<!-- Node22&#45;&gt;Node23 -->
<g id="edge24" class="edge">
<title>Node22&#45;&gt;Node23</title>
<path fill="none" stroke="midnightblue" d="M378.61,-282.87C387.33,-280.21 395.98,-277.1 404,-273.5 421.77,-265.52 422.31,-256.65 440,-248.5 445.29,-246.07 450.85,-243.84 456.52,-241.8"/>
<polygon fill="midnightblue" stroke="midnightblue" points="457.79,-245.07 466.15,-238.56 455.56,-238.44 457.79,-245.07"/>
</g>
<!-- Node26 -->
<g id="node26" class="node">
<title>Node26</title>
<g id="a_node26"><a xlink:href="classQuantConnect_1_1Util_1_1CurrencyPairUtil.html#af097148889729df56066a7f324c558a0" target="_top" xlink:title="Decomposes the specified currency pair into a base and quote currency provided as out parameters">
<polygon fill="white" stroke="black" points="449.5,-110.5 449.5,-140.5 623.5,-140.5 623.5,-110.5 449.5,-110.5"/>
<text text-anchor="start" x="457.5" y="-128.5" font-family="Helvetica,sans-Serif" font-size="10.00">QuantConnect.Util.Currency</text>
<text text-anchor="middle" x="536.5" y="-117.5" font-family="Helvetica,sans-Serif" font-size="10.00">PairUtil.DecomposeCurrencyPair</text>
</a>
</g>
</g>
<!-- Node25&#45;&gt;Node26 -->
<g id="edge27" class="edge">
<title>Node25&#45;&gt;Node26</title>
<path fill="none" stroke="midnightblue" d="M401.46,-153.93C419.21,-150.17 437.57,-146.27 454.78,-142.62"/>
<polygon fill="midnightblue" stroke="midnightblue" points="455.72,-146 464.77,-140.5 454.26,-139.15 455.72,-146"/>
</g>
<!-- Node34 -->
<g id="node34" class="node">
<title>Node34</title>
<g id="a_node34"><a xlink:href="classQuantConnect_1_1Util_1_1CurrencyPairUtil.html#a7e832a5e6f5609a5538b604beab3422a" target="_top" xlink:title="Checks whether a symbol is decomposable into a base and a quote currency">
<polygon fill="white" stroke="black" points="460.5,-159.5 460.5,-189.5 612.5,-189.5 612.5,-159.5 460.5,-159.5"/>
<text text-anchor="start" x="468.5" y="-177.5" font-family="Helvetica,sans-Serif" font-size="10.00">QuantConnect.Util.Currency</text>
<text text-anchor="middle" x="536.5" y="-166.5" font-family="Helvetica,sans-Serif" font-size="10.00">PairUtil.IsDecomposable</text>
</a>
</g>
</g>
<!-- Node25&#45;&gt;Node34 -->
<g id="edge35" class="edge">
<title>Node25&#45;&gt;Node34</title>
<path fill="none" stroke="midnightblue" d="M404.14,-174.5C419.42,-174.5 435.08,-174.5 450.01,-174.5"/>
<polygon fill="midnightblue" stroke="midnightblue" points="450.23,-178 460.23,-174.5 450.23,-171 450.23,-178"/>
</g>
<!-- Node27 -->
<g id="node27" class="node">
<title>Node27</title>
<g id="a_node27"><a xlink:href="classQuantConnect_1_1Securities_1_1Cfd_1_1Cfd.html#a29bdbe6a6d36ed75a1816cad31ee6eaa" target="_top" xlink:title="Decomposes the specified currency pair into a base and quote currency provided as out parameters">
<polygon fill="white" stroke="black" points="684.5,-110.5 684.5,-140.5 859.5,-140.5 859.5,-110.5 684.5,-110.5"/>
<text text-anchor="start" x="692.5" y="-128.5" font-family="Helvetica,sans-Serif" font-size="10.00">QuantConnect.Securities.</text>
<text text-anchor="middle" x="772" y="-117.5" font-family="Helvetica,sans-Serif" font-size="10.00">Cfd.Cfd.DecomposeCurrencyPair</text>
</a>
</g>
</g>
<!-- Node26&#45;&gt;Node27 -->
<g id="edge28" class="edge">
<title>Node26&#45;&gt;Node27</title>
<path fill="none" stroke="midnightblue" d="M623.78,-125.5C640.14,-125.5 657.35,-125.5 674,-125.5"/>
<polygon fill="midnightblue" stroke="midnightblue" points="674.29,-129 684.29,-125.5 674.29,-122 674.29,-129"/>
</g>
<!-- Node28 -->
<g id="node28" class="node">
<title>Node28</title>
<g id="a_node28"><a xlink:href="classQuantConnect_1_1Securities_1_1Forex_1_1Forex.html#af7fbd660dcbbc46527c61baafe2549bb" target="_top" xlink:title="Decomposes the specified currency pair into a base and quote currency provided as out parameters">
<polygon fill="white" stroke="black" points="674,-61.5 674,-91.5 870,-91.5 870,-61.5 674,-61.5"/>
<text text-anchor="start" x="682" y="-79.5" font-family="Helvetica,sans-Serif" font-size="10.00">QuantConnect.Securities.</text>
<text text-anchor="middle" x="772" y="-68.5" font-family="Helvetica,sans-Serif" font-size="10.00">Forex.Forex.DecomposeCurrencyPair</text>
</a>
</g>
</g>
<!-- Node26&#45;&gt;Node28 -->
<g id="edge29" class="edge">
<title>Node26&#45;&gt;Node28</title>
<path fill="none" stroke="midnightblue" d="M609.14,-110.47C634.58,-105.13 663.4,-99.08 689.59,-93.58"/>
<polygon fill="midnightblue" stroke="midnightblue" points="690.42,-96.99 699.49,-91.51 688.99,-90.13 690.42,-96.99"/>
</g>
<!-- Node29 -->
<g id="node29" class="node">
<title>Node29</title>
<g id="a_node29"><a xlink:href="classQuantConnect_1_1Securities_1_1Crypto_1_1Crypto.html#a34f3ec6157d9575e34127b5172706403" target="_top" xlink:title="Decomposes the specified currency pair into a base and quote currency provided as out parameters">
<polygon fill="white" stroke="black" points="669,-12.5 669,-42.5 875,-42.5 875,-12.5 669,-12.5"/>
<text text-anchor="start" x="677" y="-30.5" font-family="Helvetica,sans-Serif" font-size="10.00">QuantConnect.Securities.</text>
<text text-anchor="middle" x="772" y="-19.5" font-family="Helvetica,sans-Serif" font-size="10.00">Crypto.Crypto.DecomposeCurrencyPair</text>
</a>
</g>
</g>
<!-- Node26&#45;&gt;Node29 -->
<g id="edge30" class="edge">
<title>Node26&#45;&gt;Node29</title>
<path fill="none" stroke="midnightblue" d="M614.62,-110.37C621.1,-107.61 627.33,-104.35 633,-100.5 655.36,-85.32 646.46,-66.4 669,-51.5 671.45,-49.88 674.01,-48.36 676.63,-46.95"/>
<polygon fill="midnightblue" stroke="midnightblue" points="678.32,-50.02 685.82,-42.54 675.29,-43.72 678.32,-50.02"/>
</g>
<!-- Node30 -->
<g id="node30" class="node">
<title>Node30</title>
<g id="a_node30"><a xlink:href="classQuantConnect_1_1Securities_1_1SymbolPropertiesDatabase.html#a3ea48557a7a885c2c53529f8c4b75598" target="_top" xlink:title="Gets the symbol properties for the specified market/symbol/security&#45;type">
<polygon fill="white" stroke="black" points="687,-160 687,-201 857,-201 857,-160 687,-160"/>
<text text-anchor="start" x="695" y="-189" font-family="Helvetica,sans-Serif" font-size="10.00">QuantConnect.Securities.</text>
<text text-anchor="start" x="695" y="-178" font-family="Helvetica,sans-Serif" font-size="10.00">SymbolPropertiesDatabase.Get</text>
<text text-anchor="middle" x="772" y="-167" font-family="Helvetica,sans-Serif" font-size="10.00">SymbolProperties</text>
</a>
</g>
</g>
<!-- Node26&#45;&gt;Node30 -->
<g id="edge31" class="edge">
<title>Node26&#45;&gt;Node30</title>
<path fill="none" stroke="midnightblue" d="M601.3,-140.53C624.55,-146 651.35,-152.32 676.68,-158.28"/>
<polygon fill="midnightblue" stroke="midnightblue" points="676.14,-161.75 686.68,-160.64 677.75,-154.94 676.14,-161.75"/>
</g>
<!-- Node31 -->
<g id="node31" class="node">
<title>Node31</title>
<g id="a_node31"><a xlink:href="classQuantConnect_1_1Securities_1_1MarketHoursDatabase.html#aa717adb9bb04be931913608ffd5a2733" target="_top" xlink:title="Gets the correct string symbol to use as a database key">
<polygon fill="white" stroke="black" points="911,-132 911,-173 1103,-173 1103,-132 911,-132"/>
<text text-anchor="start" x="919" y="-161" font-family="Helvetica,sans-Serif" font-size="10.00">QuantConnect.Securities.</text>
<text text-anchor="start" x="919" y="-150" font-family="Helvetica,sans-Serif" font-size="10.00">MarketHoursDatabase.GetDatabase</text>
<text text-anchor="middle" x="1007" y="-139" font-family="Helvetica,sans-Serif" font-size="10.00">SymbolKey</text>
</a>
</g>
</g>
<!-- Node30&#45;&gt;Node31 -->
<g id="edge32" class="edge">
<title>Node30&#45;&gt;Node31</title>
<path fill="none" stroke="midnightblue" d="M857.12,-170.39C871.31,-168.69 886.2,-166.9 900.85,-165.14"/>
<polygon fill="midnightblue" stroke="midnightblue" points="901.42,-168.59 910.94,-163.92 900.59,-161.64 901.42,-168.59"/>
</g>
<!-- Node32 -->
<g id="node32" class="node">
<title>Node32</title>
<g id="a_node32"><a xlink:href="classQuantConnect_1_1Securities_1_1SymbolProperties.html#ad148190d1dfce7109d38d3107b7b8fbf" target="_top" xlink:title="Gets a default instance of the SymbolProperties class for the specified quoteCurrency">
<polygon fill="white" stroke="black" points="927.5,-192.5 927.5,-222.5 1086.5,-222.5 1086.5,-192.5 927.5,-192.5"/>
<text text-anchor="start" x="935.5" y="-210.5" font-family="Helvetica,sans-Serif" font-size="10.00">QuantConnect.Securities.</text>
<text text-anchor="middle" x="1007" y="-199.5" font-family="Helvetica,sans-Serif" font-size="10.00">SymbolProperties.GetDefault</text>
</a>
</g>
</g>
<!-- Node30&#45;&gt;Node32 -->
<g id="edge33" class="edge">
<title>Node30&#45;&gt;Node32</title>
<path fill="none" stroke="midnightblue" d="M857.12,-190.25C876.65,-192.51 897.51,-194.93 917.24,-197.21"/>
<polygon fill="midnightblue" stroke="midnightblue" points="917.11,-200.72 927.44,-198.4 917.91,-193.77 917.11,-200.72"/>
</g>
<!-- Node33 -->
<g id="node33" class="node">
<title>Node33</title>
<g id="a_node33"><a xlink:href="classQuantConnect_1_1Securities_1_1SymbolProperties.html#a484c9f2f6fc4a269beb7b6c88c1907f0" target="_top" xlink:title="Creates an instance of the SymbolProperties class">
<polygon fill="white" stroke="black" points="1144.5,-192.5 1144.5,-222.5 1336.5,-222.5 1336.5,-192.5 1144.5,-192.5"/>
<text text-anchor="start" x="1152.5" y="-210.5" font-family="Helvetica,sans-Serif" font-size="10.00">QuantConnect.Securities.</text>
<text text-anchor="middle" x="1240.5" y="-199.5" font-family="Helvetica,sans-Serif" font-size="10.00">SymbolProperties.SymbolProperties</text>
</a>
</g>
</g>
<!-- Node32&#45;&gt;Node33 -->
<g id="edge34" class="edge">
<title>Node32&#45;&gt;Node33</title>
<path fill="none" stroke="midnightblue" d="M1086.7,-207.5C1101.86,-207.5 1117.97,-207.5 1133.82,-207.5"/>
<polygon fill="midnightblue" stroke="midnightblue" points="1134.19,-211 1144.19,-207.5 1134.19,-204 1134.19,-211"/>
</g>
<!-- Node34&#45;&gt;Node30 -->
<g id="edge36" class="edge">
<title>Node34&#45;&gt;Node30</title>
<path fill="none" stroke="midnightblue" d="M612.67,-176.43C633.04,-176.95 655.35,-177.53 676.63,-178.08"/>
<polygon fill="midnightblue" stroke="midnightblue" points="676.57,-181.57 686.66,-178.33 676.75,-174.58 676.57,-181.57"/>
</g>
<!-- Node36 -->
<g id="node36" class="node">
<title>Node36</title>
<g id="a_node36"><a xlink:href="interfaceQuantConnect_1_1Interfaces_1_1ISubscriptionDataConfigService.html#a5a760f7e05b5ab7ec032d32bb0959dfe" target="_top" xlink:title="Get the data feed types for a given SecurityType Resolution">
<polygon fill="white" stroke="black" points="440,-50 440,-91 633,-91 633,-50 440,-50"/>
<text text-anchor="start" x="448" y="-79" font-family="Helvetica,sans-Serif" font-size="10.00">QuantConnect.Interfaces.</text>
<text text-anchor="start" x="448" y="-68" font-family="Helvetica,sans-Serif" font-size="10.00">ISubscriptionDataConfigService.</text>
<text text-anchor="middle" x="536.5" y="-57" font-family="Helvetica,sans-Serif" font-size="10.00">LookupSubscriptionConfigDataTypes</text>
</a>
</g>
</g>
<!-- Node35&#45;&gt;Node36 -->
<g id="edge38" class="edge">
<title>Node35&#45;&gt;Node36</title>
<path fill="none" stroke="midnightblue" d="M397.13,-90.27C407.89,-88.73 418.93,-87.15 429.85,-85.59"/>
<polygon fill="midnightblue" stroke="midnightblue" points="430.43,-89.05 439.83,-84.17 429.44,-82.12 430.43,-89.05"/>
</g>
<!-- Node38 -->
<g id="node38" class="node">
<title>Node38</title>
<g id="a_node38"><a xlink:href="interfaceQuantConnect_1_1Logging_1_1ILogHandler.html#a3fb71a33ac66129240b63f12b6fcda3b" target="_top" xlink:title="Write debug message to log">
<polygon fill="white" stroke="black" points="461.5,-0.5 461.5,-30.5 611.5,-30.5 611.5,-0.5 461.5,-0.5"/>
<text text-anchor="start" x="469.5" y="-18.5" font-family="Helvetica,sans-Serif" font-size="10.00">QuantConnect.Logging.ILog</text>
<text text-anchor="middle" x="536.5" y="-7.5" font-family="Helvetica,sans-Serif" font-size="10.00">Handler.Trace</text>
</a>
</g>
</g>
<!-- Node37&#45;&gt;Node38 -->
<g id="edge41" class="edge">
<title>Node37&#45;&gt;Node38</title>
<path fill="none" stroke="midnightblue" d="M378.54,-22.97C401.75,-21.87 427.54,-20.64 451.39,-19.51"/>
<polygon fill="midnightblue" stroke="midnightblue" points="451.66,-23 461.48,-19.02 451.32,-16 451.66,-23"/>
</g>
</g>
</svg>
        <g id="navigator" transform="translate(0 0)" fill="#404254">
                <rect fill="#f2f5e9" fill-opacity="0.5" stroke="#606060" stroke-width=".5" x="0" y="0" width="60" height="60"/>
                <use id="zoomplus" xlink:href="#zoomPlus" x="17" y="9" onmousedown="handleZoom(evt,'in')"/>
                <use id="zoomminus" xlink:href="#zoomMin" x="42" y="9" onmousedown="handleZoom(evt,'out')"/>
                <use id="reset" xlink:href="#resetDef" x="30" y="36" onmousedown="handleReset()"/>
                <g id="arrowUp" xlink:href="#dirArrow" transform="translate(30 24)" onmousedown="handlePan(0,-1)">
                  <use xlink:href="#rim" fill="#404040">
                        <set attributeName="fill" to="#808080" begin="arrowUp.mouseover" end="arrowUp.mouseout"/>
                  </use>
                  <path fill="none" stroke="white" stroke-width="1.5" d="M0,-3.0v7 M-2.5,-0.5L0,-3.0L2.5,-0.5"/>
                </g>
                <g id="arrowRight" xlink:href="#dirArrow" transform="rotate(90) translate(36 -43)" onmousedown="handlePan(1,0)">
                  <use xlink:href="#rim" fill="#404040">
                        <set attributeName="fill" to="#808080" begin="arrowRight.mouseover" end="arrowRight.mouseout"/>
                  </use>
                  <path fill="none" stroke="white" stroke-width="1.5" d="M0,-3.0v7 M-2.5,-0.5L0,-3.0L2.5,-0.5"/>
                </g>
                <g id="arrowDown" xlink:href="#dirArrow" transform="rotate(180) translate(-30 -48)" onmousedown="handlePan(0,1)">
                  <use xlink:href="#rim" fill="#404040">
                        <set attributeName="fill" to="#808080" begin="arrowDown.mouseover" end="arrowDown.mouseout"/>
                  </use>
                  <path fill="none" stroke="white" stroke-width="1.5" d="M0,-3.0v7 M-2.5,-0.5L0,-3.0L2.5,-0.5"/>
                </g>
                <g id="arrowLeft" xlink:href="#dirArrow" transform="rotate(270) translate(-36 17)" onmousedown="handlePan(-1,0)">
                  <use xlink:href="#rim" fill="#404040">
                        <set attributeName="fill" to="#808080" begin="arrowLeft.mouseover" end="arrowLeft.mouseout"/>
                  </use>
                  <path fill="none" stroke="white" stroke-width="1.5" d="M0,-3.0v7 M-2.5,-0.5L0,-3.0L2.5,-0.5"/>
                </g>
        </g>
        <svg viewBox="0 0 15 15" width="100%" height="30px" preserveAspectRatio="xMaxYMin meet">
         <g id="arrow_out" transform="scale(0.3 0.3)">
          <a xlink:href="classQuantConnect_1_1Securities_1_1Cash_a8af2f228ffa12236fec72d5458a031fc_cgraph_org.svg" target="_base">
           <rect id="button" ry="5" rx="5" y="6" x="6" height="38" width="38"
                fill="#f2f5e9" fill-opacity="0.5" stroke="#606060" stroke-width="1.0"/>
           <path id="arrow"
             d="M 11.500037,31.436501 C 11.940474,20.09759 22.043105,11.32322 32.158766,21.979434 L 37.068811,17.246167 C 37.068811,17.246167 37.088388,32 37.088388,32 L 22.160133,31.978069 C 22.160133,31.978069 26.997745,27.140456 26.997745,27.140456 C 18.528582,18.264221 13.291696,25.230495 11.500037,31.436501 z"
             style="fill:#404040;"/>
          </a>
         </g>
        </svg>
</svg>
