<?xml version="1.0" encoding="UTF-8" standalone="no"?>
<!DOCTYPE svg PUBLIC "-//W3C//DTD SVG 1.1//EN"
 "http://www.w3.org/Graphics/SVG/1.1/DTD/svg11.dtd">
<!-- Generated by graphviz version 2.43.0 (0)
 -->
<!-- Title: QuantConnect.Util.CurrencyPairUtil.IsDecomposable Pages: 1 -->
<svg width="822pt" height="100pt"
 viewBox="0.00 0.00 822.00 99.50" xmlns="http://www.w3.org/2000/svg" xmlns:xlink="http://www.w3.org/1999/xlink">
<g id="graph0" class="graph" transform="scale(1 1) rotate(0) translate(4 95.5)">
<title>QuantConnect.Util.CurrencyPairUtil.IsDecomposable</title>
<polygon fill="white" stroke="transparent" points="-4,4 -4,-95.5 818,-95.5 818,4 -4,4"/>
<!-- Node1 -->
<g id="node1" class="node">
<title>Node1</title>
<g id="a_node1"><a xlink:title="Checks whether a symbol is decomposable into a base and a quote currency">
<polygon fill="#bfbfbf" stroke="black" points="0,-27.5 0,-57.5 152,-57.5 152,-27.5 0,-27.5"/>
<text text-anchor="start" x="8" y="-45.5" font-family="Helvetica,sans-Serif" font-size="10.00">QuantConnect.Util.Currency</text>
<text text-anchor="middle" x="76" y="-34.5" font-family="Helvetica,sans-Serif" font-size="10.00">PairUtil.IsDecomposable</text>
</a>
</g>
</g>
<!-- Node2 -->
<g id="node2" class="node">
<title>Node2</title>
<g id="a_node2"><a xlink:href="classQuantConnect_1_1Securities_1_1SymbolPropertiesDatabase.html#a3ea48557a7a885c2c53529f8c4b75598" target="_top" xlink:title="Gets the symbol properties for the specified market/symbol/security&#45;type">
<polygon fill="white" stroke="black" points="188,-22 188,-63 358,-63 358,-22 188,-22"/>
<text text-anchor="start" x="196" y="-51" font-family="Helvetica,sans-Serif" font-size="10.00">QuantConnect.Securities.</text>
<text text-anchor="start" x="196" y="-40" font-family="Helvetica,sans-Serif" font-size="10.00">SymbolPropertiesDatabase.Get</text>
<text text-anchor="middle" x="273" y="-29" font-family="Helvetica,sans-Serif" font-size="10.00">SymbolProperties</text>
</a>
</g>
</g>
<!-- Node1&#45;&gt;Node2 -->
<g id="edge1" class="edge">
<title>Node1&#45;&gt;Node2</title>
<path fill="none" stroke="midnightblue" d="M152.11,-42.5C160.52,-42.5 169.16,-42.5 177.76,-42.5"/>
<polygon fill="midnightblue" stroke="midnightblue" points="177.84,-46 187.84,-42.5 177.84,-39 177.84,-46"/>
</g>
<!-- Node3 -->
<g id="node3" class="node">
<title>Node3</title>
<g id="a_node3"><a xlink:href="classQuantConnect_1_1Securities_1_1MarketHoursDatabase.html#aa717adb9bb04be931913608ffd5a2733" target="_top" xlink:title="Gets the correct string symbol to use as a database key">
<polygon fill="white" stroke="black" points="394,-50 394,-91 586,-91 586,-50 394,-50"/>
<text text-anchor="start" x="402" y="-79" font-family="Helvetica,sans-Serif" font-size="10.00">QuantConnect.Securities.</text>
<text text-anchor="start" x="402" y="-68" font-family="Helvetica,sans-Serif" font-size="10.00">MarketHoursDatabase.GetDatabase</text>
<text text-anchor="middle" x="490" y="-57" font-family="Helvetica,sans-Serif" font-size="10.00">SymbolKey</text>
</a>
</g>
</g>
<!-- Node2&#45;&gt;Node3 -->
<g id="edge2" class="edge">
<title>Node2&#45;&gt;Node3</title>
<path fill="none" stroke="midnightblue" d="M358.05,-53.45C366.51,-54.55 375.18,-55.68 383.83,-56.8"/>
<polygon fill="midnightblue" stroke="midnightblue" points="383.59,-60.3 393.96,-58.12 384.5,-53.36 383.59,-60.3"/>
</g>
<!-- Node4 -->
<g id="node4" class="node">
<title>Node4</title>
<g id="a_node4"><a xlink:href="classQuantConnect_1_1Securities_1_1SymbolProperties.html#ad148190d1dfce7109d38d3107b7b8fbf" target="_top" xlink:title="Gets a default instance of the SymbolProperties class for the specified quoteCurrency">
<polygon fill="white" stroke="black" points="410.5,-0.5 410.5,-30.5 569.5,-30.5 569.5,-0.5 410.5,-0.5"/>
<text text-anchor="start" x="418.5" y="-18.5" font-family="Helvetica,sans-Serif" font-size="10.00">QuantConnect.Securities.</text>
<text text-anchor="middle" x="490" y="-7.5" font-family="Helvetica,sans-Serif" font-size="10.00">SymbolProperties.GetDefault</text>
</a>
</g>
</g>
<!-- Node2&#45;&gt;Node4 -->
<g id="edge3" class="edge">
<title>Node2&#45;&gt;Node4</title>
<path fill="none" stroke="midnightblue" d="M358.05,-31.95C371.89,-30.21 386.27,-28.4 400.21,-26.65"/>
<polygon fill="midnightblue" stroke="midnightblue" points="400.79,-30.1 410.28,-25.39 399.92,-23.16 400.79,-30.1"/>
</g>
<!-- Node5 -->
<g id="node5" class="node">
<title>Node5</title>
<g id="a_node5"><a xlink:href="classQuantConnect_1_1Securities_1_1SymbolProperties.html#a0f421617bcddd5b08a830689b1e2dcfa" target="_top" xlink:title="Creates an instance of the SymbolProperties class">
<polygon fill="white" stroke="black" points="622,-0.5 622,-30.5 814,-30.5 814,-0.5 622,-0.5"/>
<text text-anchor="start" x="630" y="-18.5" font-family="Helvetica,sans-Serif" font-size="10.00">QuantConnect.Securities.</text>
<text text-anchor="middle" x="718" y="-7.5" font-family="Helvetica,sans-Serif" font-size="10.00">SymbolProperties.SymbolProperties</text>
</a>
</g>
</g>
<!-- Node4&#45;&gt;Node5 -->
<g id="edge4" class="edge">
<title>Node4&#45;&gt;Node5</title>
<path fill="none" stroke="midnightblue" d="M569.73,-15.5C583.26,-15.5 597.51,-15.5 611.61,-15.5"/>
<polygon fill="midnightblue" stroke="midnightblue" points="611.83,-19 621.83,-15.5 611.83,-12 611.83,-19"/>
</g>
</g>
</svg>
