<?xml version="1.0" encoding="UTF-8" standalone="no"?>
<!DOCTYPE svg PUBLIC "-//W3C//DTD SVG 1.1//EN"
 "http://www.w3.org/Graphics/SVG/1.1/DTD/svg11.dtd">
<!-- Generated by graphviz version 2.43.0 (0)
 -->
<!-- Title: QuantConnect.Indicators.CandlestickPatterns.MorningStar Pages: 1 -->
<svg width="184pt" height="162pt"
 viewBox="0.00 0.00 184.00 162.00" xmlns="http://www.w3.org/2000/svg" xmlns:xlink="http://www.w3.org/1999/xlink">
<g id="graph0" class="graph" transform="scale(1 1) rotate(0) translate(4 158)">
<title>QuantConnect.Indicators.CandlestickPatterns.MorningStar</title>
<polygon fill="white" stroke="transparent" points="-4,4 -4,-158 180,-158 180,4 -4,4"/>
<!-- Node1 -->
<g id="node1" class="node">
<title>Node1</title>
<g id="a_node1"><a xlink:title="Morning Star candlestick pattern">
<polygon fill="#bfbfbf" stroke="black" points="0,-0.5 0,-30.5 176,-30.5 176,-0.5 0,-0.5"/>
<text text-anchor="start" x="8" y="-18.5" font-family="Helvetica,sans-Serif" font-size="10.00">QuantConnect.Indicators.</text>
<text text-anchor="middle" x="88" y="-7.5" font-family="Helvetica,sans-Serif" font-size="10.00">CandlestickPatterns.MorningStar</text>
</a>
</g>
</g>
<!-- Node2 -->
<g id="node2" class="node">
<title>Node2</title>
<g id="a_node2"><a xlink:href="classQuantConnect_1_1Indicators_1_1CandlestickPatterns_1_1CandlestickPattern.html" target="_top" xlink:title="Abstract base class for a candlestick pattern indicator">
<polygon fill="white" stroke="black" points="34,-67.5 34,-86.5 142,-86.5 142,-67.5 34,-67.5"/>
<text text-anchor="middle" x="88" y="-74.5" font-family="Helvetica,sans-Serif" font-size="10.00">CandlestickPattern</text>
</a>
</g>
</g>
<!-- Node2&#45;&gt;Node1 -->
<g id="edge1" class="edge">
<title>Node2&#45;&gt;Node1</title>
<path fill="none" stroke="midnightblue" d="M88,-57.23C88,-48.59 88,-38.5 88,-30.52"/>
<polygon fill="midnightblue" stroke="midnightblue" points="84.5,-57.48 88,-67.48 91.5,-57.48 84.5,-57.48"/>
</g>
<!-- Node3 -->
<g id="node3" class="node">
<title>Node3</title>
<g id="a_node3"><a xlink:href="classQuantConnect_1_1Indicators_1_1WindowIndicator.html" target="_top" xlink:title=" ">
<polygon fill="white" stroke="black" points="8,-123.5 8,-153.5 168,-153.5 168,-123.5 8,-123.5"/>
<text text-anchor="start" x="16" y="-141.5" font-family="Helvetica,sans-Serif" font-size="10.00">WindowIndicator&lt; IBaseData</text>
<text text-anchor="middle" x="88" y="-130.5" font-family="Helvetica,sans-Serif" font-size="10.00">Bar &gt;</text>
</a>
</g>
</g>
<!-- Node3&#45;&gt;Node2 -->
<g id="edge2" class="edge">
<title>Node3&#45;&gt;Node2</title>
<path fill="none" stroke="midnightblue" d="M88,-113.29C88,-103.86 88,-93.65 88,-86.66"/>
<polygon fill="midnightblue" stroke="midnightblue" points="84.5,-113.4 88,-123.4 91.5,-113.4 84.5,-113.4"/>
</g>
</g>
</svg>
