<?xml version="1.0" encoding="UTF-8" standalone="no"?>
<!DOCTYPE svg PUBLIC "-//W3C//DTD SVG 1.1//EN"
 "http://www.w3.org/Graphics/SVG/1.1/DTD/svg11.dtd">
<!-- Generated by graphviz version 2.43.0 (0)
 -->
<!-- Title: QuantConnect.Lean.Engine.DataFeeds.Enumerators.LiveAuxiliaryDataEnumerator.LiveAuxiliaryDataEnumerator Pages: 1 -->
<svg width="487pt" height="50pt"
 viewBox="0.00 0.00 487.00 50.00" xmlns="http://www.w3.org/2000/svg" xmlns:xlink="http://www.w3.org/1999/xlink">
<g id="graph0" class="graph" transform="scale(1 1) rotate(0) translate(4 46)">
<title>QuantConnect.Lean.Engine.DataFeeds.Enumerators.LiveAuxiliaryDataEnumerator.LiveAuxiliaryDataEnumerator</title>
<polygon fill="white" stroke="transparent" points="-4,4 -4,-46 483,-46 483,4 -4,4"/>
<!-- Node1 -->
<g id="node1" class="node">
<title>Node1</title>
<g id="a_node1"><a xlink:title="Creates a new instance">
<polygon fill="#bfbfbf" stroke="black" points="236,-0.5 236,-41.5 479,-41.5 479,-0.5 236,-0.5"/>
<text text-anchor="start" x="244" y="-29.5" font-family="Helvetica,sans-Serif" font-size="10.00">QuantConnect.Lean.Engine.</text>
<text text-anchor="start" x="244" y="-18.5" font-family="Helvetica,sans-Serif" font-size="10.00">DataFeeds.Enumerators.LiveAuxiliary</text>
<text text-anchor="middle" x="357.5" y="-7.5" font-family="Helvetica,sans-Serif" font-size="10.00">DataEnumerator.LiveAuxiliaryDataEnumerator</text>
</a>
</g>
</g>
<!-- Node2 -->
<g id="node2" class="node">
<title>Node2</title>
<g id="a_node2"><a xlink:href="classQuantConnect_1_1Lean_1_1Engine_1_1DataFeeds_1_1Enumerators_1_1LiveAuxiliaryDataEnumerator.html#ac5a9c465a445e77dc2037ae3aca4d2f0" target="_top" xlink:title="Helper method to create a new instance. Knows which security types should create one and determines t...">
<polygon fill="white" stroke="black" points="0,-0.5 0,-41.5 200,-41.5 200,-0.5 0,-0.5"/>
<text text-anchor="start" x="8" y="-29.5" font-family="Helvetica,sans-Serif" font-size="10.00">QuantConnect.Lean.Engine.</text>
<text text-anchor="start" x="8" y="-18.5" font-family="Helvetica,sans-Serif" font-size="10.00">DataFeeds.Enumerators.LiveAuxiliary</text>
<text text-anchor="middle" x="100" y="-7.5" font-family="Helvetica,sans-Serif" font-size="10.00">DataEnumerator.TryCreate</text>
</a>
</g>
</g>
<!-- Node1&#45;&gt;Node2 -->
<g id="edge1" class="edge">
<title>Node1&#45;&gt;Node2</title>
<path fill="none" stroke="midnightblue" d="M225.82,-21C217.26,-21 208.73,-21 200.36,-21"/>
<polygon fill="midnightblue" stroke="midnightblue" points="225.86,-24.5 235.86,-21 225.86,-17.5 225.86,-24.5"/>
</g>
</g>
</svg>
