<?xml version="1.0" encoding="UTF-8" standalone="no"?>
<!DOCTYPE svg PUBLIC "-//W3C//DTD SVG 1.1//EN"
 "http://www.w3.org/Graphics/SVG/1.1/DTD/svg11.dtd">
<!-- Generated by graphviz version 2.43.0 (0)
 -->
<!-- Title: QuantConnect.Brokerages.Backtesting.BacktestingBrokerage.GetOpenOrders Pages: 1 -->
<svg width="406pt" height="50pt"
 viewBox="0.00 0.00 406.00 50.00" xmlns="http://www.w3.org/2000/svg" xmlns:xlink="http://www.w3.org/1999/xlink">
<g id="graph0" class="graph" transform="scale(1 1) rotate(0) translate(4 46)">
<title>QuantConnect.Brokerages.Backtesting.BacktestingBrokerage.GetOpenOrders</title>
<polygon fill="white" stroke="transparent" points="-4,4 -4,-46 402,-46 402,4 -4,4"/>
<!-- Node1 -->
<g id="node1" class="node">
<title>Node1</title>
<g id="a_node1"><a xlink:title="Gets all open orders on the account">
<polygon fill="#bfbfbf" stroke="black" points="0,-0.5 0,-41.5 188,-41.5 188,-0.5 0,-0.5"/>
<text text-anchor="start" x="8" y="-29.5" font-family="Helvetica,sans-Serif" font-size="10.00">QuantConnect.Brokerages.</text>
<text text-anchor="start" x="8" y="-18.5" font-family="Helvetica,sans-Serif" font-size="10.00">Backtesting.BacktestingBrokerage.</text>
<text text-anchor="middle" x="94" y="-7.5" font-family="Helvetica,sans-Serif" font-size="10.00">GetOpenOrders</text>
</a>
</g>
</g>
<!-- Node2 -->
<g id="node2" class="node">
<title>Node2</title>
<g id="a_node2"><a xlink:href="classQuantConnect_1_1Securities_1_1SecurityTransactionManager.html#a09717090ee95e9f5cc1c655e3793c070" target="_top" xlink:title="Get a list of all open orders for a symbol.">
<polygon fill="white" stroke="black" points="224,-0.5 224,-41.5 398,-41.5 398,-0.5 224,-0.5"/>
<text text-anchor="start" x="232" y="-29.5" font-family="Helvetica,sans-Serif" font-size="10.00">QuantConnect.Securities.</text>
<text text-anchor="start" x="232" y="-18.5" font-family="Helvetica,sans-Serif" font-size="10.00">SecurityTransactionManager.Get</text>
<text text-anchor="middle" x="311" y="-7.5" font-family="Helvetica,sans-Serif" font-size="10.00">OpenOrders</text>
</a>
</g>
</g>
<!-- Node1&#45;&gt;Node2 -->
<g id="edge1" class="edge">
<title>Node1&#45;&gt;Node2</title>
<path fill="none" stroke="midnightblue" d="M188.05,-21C196.62,-21 205.31,-21 213.9,-21"/>
<polygon fill="midnightblue" stroke="midnightblue" points="213.92,-24.5 223.92,-21 213.92,-17.5 213.92,-24.5"/>
</g>
</g>
</svg>
