<?xml version="1.0" encoding="UTF-8" standalone="no"?>
<!DOCTYPE svg PUBLIC "-//W3C//DTD SVG 1.1//EN"
 "http://www.w3.org/Graphics/SVG/1.1/DTD/svg11.dtd">
<!-- Generated by graphviz version 2.43.0 (0)
 -->
<!-- Title: QuantConnect.Algorithm.Framework.Selection.FundamentalUniverseSelectionModel Pages: 1 -->
<!--zoomable 198 -->
<svg id="main" version="1.1" xmlns="http://www.w3.org/2000/svg" xmlns:xlink="http://www.w3.org/1999/xlink" xml:space="preserve" onload="init(evt)">
<style type="text/css"><![CDATA[
.edge:hover path { stroke: red; }
.edge:hover polygon { stroke: red; fill: red; }
]]></style>
<script type="text/javascript"><![CDATA[
var edges = document.getElementsByTagName('g');
if (edges && edges.length) {
  for (var i=0;i<edges.length;i++) {
    if (edges[i].id.substr(0,4)=='edge') {
      edges[i].setAttribute('class','edge');
    }
  }
}
]]></script>
        <defs>
                <circle id="rim" cx="0" cy="0" r="7"/>
                <circle id="rim2" cx="0" cy="0" r="3.5"/>
                <g id="zoomPlus">
                        <use xlink:href="#rim" fill="#404040">
                                <set attributeName="fill" to="#808080" begin="zoomplus.mouseover" end="zoomplus.mouseout"/>
                        </use>
                        <path d="M-4,0h8M0,-4v8" fill="none" stroke="white" stroke-width="1.5" pointer-events="none"/>
                </g>
                <g id="zoomMin">
                        <use xlink:href="#rim" fill="#404040">
                                <set attributeName="fill" to="#808080" begin="zoomminus.mouseover" end="zoomminus.mouseout"/>
                        </use>
                        <path d="M-4,0h8" fill="none" stroke="white" stroke-width="1.5" pointer-events="none"/>
                </g>
                <g id="dirArrow">
                        <path fill="none" stroke="white" stroke-width="1.5" d="M0,-3.0v7 M-2.5,-0.5L0,-3.0L2.5,-0.5"/>
                </g>
               <g id="resetDef">
                       <use xlink:href="#rim2" fill="#404040">
                               <set attributeName="fill" to="#808080" begin="reset.mouseover" end="reset.mouseout"/>
                       </use>
               </g>
        </defs>

<script type="text/javascript">
var viewWidth = 903;
var viewHeight = 198;
var sectionId = 'dynsection-0';
</script>
<script xlink:href="svgpan.js"/>
<svg id="graph" class="graph">
<g id="viewport">
<title>QuantConnect.Algorithm.Framework.Selection.FundamentalUniverseSelectionModel</title>
<polygon fill="white" stroke="transparent" points="-4,4 -4,-193.5 899,-193.5 899,4 -4,4"/>
<!-- Node1 -->
<g id="node1" class="node">
<title>Node1</title>
<g id="a_node1"><a xlink:title="Provides a base class for defining equity coarse/fine fundamental selection models">
<polygon fill="#bfbfbf" stroke="black" points="345,-73.5 345,-103.5 592,-103.5 592,-73.5 345,-73.5"/>
<text text-anchor="start" x="353" y="-91.5" font-family="Helvetica,sans-Serif" font-size="10.00">QuantConnect.Algorithm.Framework.</text>
<text text-anchor="middle" x="468.5" y="-80.5" font-family="Helvetica,sans-Serif" font-size="10.00">Selection.FundamentalUniverseSelectionModel</text>
</a>
</g>
</g>
<!-- Node4 -->
<g id="node4" class="node">
<title>Node4</title>
<g id="a_node4"><a xlink:href="classQuantConnect_1_1Algorithm_1_1Framework_1_1Selection_1_1CoarseFundamentalUniverseSelectionModel.html" target="_top" xlink:title="Portfolio selection model that uses coarse selectors. For US equities only.">
<polygon fill="white" stroke="black" points="658.5,-148 658.5,-189 864.5,-189 864.5,-148 658.5,-148"/>
<text text-anchor="start" x="666.5" y="-177" font-family="Helvetica,sans-Serif" font-size="10.00">QuantConnect.Algorithm.Framework.</text>
<text text-anchor="start" x="666.5" y="-166" font-family="Helvetica,sans-Serif" font-size="10.00">Selection.CoarseFundamentalUniverse</text>
<text text-anchor="middle" x="761.5" y="-155" font-family="Helvetica,sans-Serif" font-size="10.00">SelectionModel</text>
</a>
</g>
</g>
<!-- Node1&#45;&gt;Node4 -->
<g id="edge3" class="edge">
<title>Node1&#45;&gt;Node4</title>
<path fill="none" stroke="midnightblue" d="M523.55,-106.77C554.04,-116.77 592.94,-129.02 628,-138.5 640.07,-141.76 652.82,-144.96 665.45,-147.98"/>
<polygon fill="midnightblue" stroke="midnightblue" points="524.55,-103.42 513.96,-103.61 522.36,-110.07 524.55,-103.42"/>
</g>
<!-- Node5 -->
<g id="node5" class="node">
<title>Node5</title>
<g id="a_node5"><a xlink:href="classQuantConnect_1_1Algorithm_1_1Framework_1_1Selection_1_1EmaCrossUniverseSelectionModel.html" target="_top" xlink:title="Provides an implementation of FundamentalUniverseSelectionModel that subscribes to symbols with the l...">
<polygon fill="white" stroke="black" points="645.5,-98.5 645.5,-128.5 877.5,-128.5 877.5,-98.5 645.5,-98.5"/>
<text text-anchor="start" x="653.5" y="-116.5" font-family="Helvetica,sans-Serif" font-size="10.00">QuantConnect.Algorithm.Framework.</text>
<text text-anchor="middle" x="761.5" y="-105.5" font-family="Helvetica,sans-Serif" font-size="10.00">Selection.EmaCrossUniverseSelectionModel</text>
</a>
</g>
</g>
<!-- Node1&#45;&gt;Node5 -->
<g id="edge4" class="edge">
<title>Node1&#45;&gt;Node5</title>
<path fill="none" stroke="midnightblue" d="M602.07,-99.89C616.57,-101.13 631.24,-102.39 645.5,-103.62"/>
<polygon fill="midnightblue" stroke="midnightblue" points="602.33,-96.4 592.07,-99.03 601.73,-103.37 602.33,-96.4"/>
</g>
<!-- Node6 -->
<g id="node6" class="node">
<title>Node6</title>
<g id="a_node6"><a xlink:href="classQuantConnect_1_1Algorithm_1_1Framework_1_1Selection_1_1FineFundamentalUniverseSelectionModel.html" target="_top" xlink:title="Portfolio selection model that uses coarse/fine selectors. For US equities only.">
<polygon fill="white" stroke="black" points="628,-49.5 628,-79.5 895,-79.5 895,-49.5 628,-49.5"/>
<text text-anchor="start" x="636" y="-67.5" font-family="Helvetica,sans-Serif" font-size="10.00">QuantConnect.Algorithm.Framework.</text>
<text text-anchor="middle" x="761.5" y="-56.5" font-family="Helvetica,sans-Serif" font-size="10.00">Selection.FineFundamentalUniverseSelectionModel</text>
</a>
</g>
</g>
<!-- Node1&#45;&gt;Node6 -->
<g id="edge5" class="edge">
<title>Node1&#45;&gt;Node6</title>
<path fill="none" stroke="midnightblue" d="M602.07,-77.57C610.62,-76.86 619.23,-76.15 627.78,-75.45"/>
<polygon fill="midnightblue" stroke="midnightblue" points="601.75,-74.08 592.07,-78.39 602.32,-81.06 601.75,-74.08"/>
</g>
<!-- Node7 -->
<g id="node7" class="node">
<title>Node7</title>
<g id="a_node7"><a xlink:href="classQuantConnect_1_1Algorithm_1_1Framework_1_1Selection_1_1QC500UniverseSelectionModel.html" target="_top" xlink:title="Defines the QC500 universe as a universe selection model for framework algorithm For details: https:/...">
<polygon fill="white" stroke="black" points="654,-0.5 654,-30.5 869,-30.5 869,-0.5 654,-0.5"/>
<text text-anchor="start" x="662" y="-18.5" font-family="Helvetica,sans-Serif" font-size="10.00">QuantConnect.Algorithm.Framework.</text>
<text text-anchor="middle" x="761.5" y="-7.5" font-family="Helvetica,sans-Serif" font-size="10.00">Selection.QC500UniverseSelectionModel</text>
</a>
</g>
</g>
<!-- Node1&#45;&gt;Node7 -->
<g id="edge6" class="edge">
<title>Node1&#45;&gt;Node7</title>
<path fill="none" stroke="midnightblue" d="M522.77,-70.27C553.32,-60.26 592.53,-48.16 628,-39.5 641.29,-36.26 655.42,-33.24 669.32,-30.52"/>
<polygon fill="midnightblue" stroke="midnightblue" points="521.57,-66.98 513.17,-73.44 523.76,-73.63 521.57,-66.98"/>
</g>
<!-- Node2 -->
<g id="node2" class="node">
<title>Node2</title>
<g id="a_node2"><a xlink:href="classQuantConnect_1_1Algorithm_1_1Framework_1_1Selection_1_1UniverseSelectionModel.html" target="_top" xlink:title="Provides a base class for universe selection models.">
<polygon fill="white" stroke="black" points="174,-79 174,-98 309,-98 309,-79 174,-79"/>
<text text-anchor="middle" x="241.5" y="-86" font-family="Helvetica,sans-Serif" font-size="10.00">UniverseSelectionModel</text>
</a>
</g>
</g>
<!-- Node2&#45;&gt;Node1 -->
<g id="edge1" class="edge">
<title>Node2&#45;&gt;Node1</title>
<path fill="none" stroke="midnightblue" d="M319.16,-88.5C327.54,-88.5 336.22,-88.5 344.99,-88.5"/>
<polygon fill="midnightblue" stroke="midnightblue" points="319.09,-85 309.09,-88.5 319.09,-92 319.09,-85"/>
</g>
<!-- Node3 -->
<g id="node3" class="node">
<title>Node3</title>
<g id="a_node3"><a xlink:href="interfaceQuantConnect_1_1Algorithm_1_1Framework_1_1Selection_1_1IUniverseSelectionModel.html" target="_top" xlink:title="Algorithm framework model that defines the universes to be used by an algorithm">
<polygon fill="white" stroke="black" points="0,-79 0,-98 138,-98 138,-79 0,-79"/>
<text text-anchor="middle" x="69" y="-86" font-family="Helvetica,sans-Serif" font-size="10.00">IUniverseSelectionModel</text>
</a>
</g>
</g>
<!-- Node3&#45;&gt;Node2 -->
<g id="edge2" class="edge">
<title>Node3&#45;&gt;Node2</title>
<path fill="none" stroke="midnightblue" d="M148.58,-88.5C157,-88.5 165.51,-88.5 173.78,-88.5"/>
<polygon fill="midnightblue" stroke="midnightblue" points="148.37,-85 138.37,-88.5 148.37,-92 148.37,-85"/>
</g>
</g>
</svg>
        <g id="navigator" transform="translate(0 0)" fill="#404254">
                <rect fill="#f2f5e9" fill-opacity="0.5" stroke="#606060" stroke-width=".5" x="0" y="0" width="60" height="60"/>
                <use id="zoomplus" xlink:href="#zoomPlus" x="17" y="9" onmousedown="handleZoom(evt,'in')"/>
                <use id="zoomminus" xlink:href="#zoomMin" x="42" y="9" onmousedown="handleZoom(evt,'out')"/>
                <use id="reset" xlink:href="#resetDef" x="30" y="36" onmousedown="handleReset()"/>
                <g id="arrowUp" xlink:href="#dirArrow" transform="translate(30 24)" onmousedown="handlePan(0,-1)">
                  <use xlink:href="#rim" fill="#404040">
                        <set attributeName="fill" to="#808080" begin="arrowUp.mouseover" end="arrowUp.mouseout"/>
                  </use>
                  <path fill="none" stroke="white" stroke-width="1.5" d="M0,-3.0v7 M-2.5,-0.5L0,-3.0L2.5,-0.5"/>
                </g>
                <g id="arrowRight" xlink:href="#dirArrow" transform="rotate(90) translate(36 -43)" onmousedown="handlePan(1,0)">
                  <use xlink:href="#rim" fill="#404040">
                        <set attributeName="fill" to="#808080" begin="arrowRight.mouseover" end="arrowRight.mouseout"/>
                  </use>
                  <path fill="none" stroke="white" stroke-width="1.5" d="M0,-3.0v7 M-2.5,-0.5L0,-3.0L2.5,-0.5"/>
                </g>
                <g id="arrowDown" xlink:href="#dirArrow" transform="rotate(180) translate(-30 -48)" onmousedown="handlePan(0,1)">
                  <use xlink:href="#rim" fill="#404040">
                        <set attributeName="fill" to="#808080" begin="arrowDown.mouseover" end="arrowDown.mouseout"/>
                  </use>
                  <path fill="none" stroke="white" stroke-width="1.5" d="M0,-3.0v7 M-2.5,-0.5L0,-3.0L2.5,-0.5"/>
                </g>
                <g id="arrowLeft" xlink:href="#dirArrow" transform="rotate(270) translate(-36 17)" onmousedown="handlePan(-1,0)">
                  <use xlink:href="#rim" fill="#404040">
                        <set attributeName="fill" to="#808080" begin="arrowLeft.mouseover" end="arrowLeft.mouseout"/>
                  </use>
                  <path fill="none" stroke="white" stroke-width="1.5" d="M0,-3.0v7 M-2.5,-0.5L0,-3.0L2.5,-0.5"/>
                </g>
        </g>
        <svg viewBox="0 0 15 15" width="100%" height="30px" preserveAspectRatio="xMaxYMin meet">
         <g id="arrow_out" transform="scale(0.3 0.3)">
          <a xlink:href="classQuantConnect_1_1Algorithm_1_1Framework_1_1Selection_1_1FundamentalUniverseSelectionModel__inherit__graph_org.svg" target="_base">
           <rect id="button" ry="5" rx="5" y="6" x="6" height="38" width="38"
                fill="#f2f5e9" fill-opacity="0.5" stroke="#606060" stroke-width="1.0"/>
           <path id="arrow"
             d="M 11.500037,31.436501 C 11.940474,20.09759 22.043105,11.32322 32.158766,21.979434 L 37.068811,17.246167 C 37.068811,17.246167 37.088388,32 37.088388,32 L 22.160133,31.978069 C 22.160133,31.978069 26.997745,27.140456 26.997745,27.140456 C 18.528582,18.264221 13.291696,25.230495 11.500037,31.436501 z"
             style="fill:#404040;"/>
          </a>
         </g>
        </svg>
</svg>
