<?xml version="1.0" encoding="UTF-8" standalone="no"?>
<!DOCTYPE svg PUBLIC "-//W3C//DTD SVG 1.1//EN"
 "http://www.w3.org/Graphics/SVG/1.1/DTD/svg11.dtd">
<!-- Generated by graphviz version 2.43.0 (0)
 -->
<!-- Title: QuantConnect.Lean.Engine.Results.LiveTradingResultHandler.SendFinalResult Pages: 1 -->
<!--zoomable 574 -->
<svg id="main" version="1.1" xmlns="http://www.w3.org/2000/svg" xmlns:xlink="http://www.w3.org/1999/xlink" xml:space="preserve" onload="init(evt)">
<style type="text/css"><![CDATA[
.edge:hover path { stroke: red; }
.edge:hover polygon { stroke: red; fill: red; }
]]></style>
<script type="text/javascript"><![CDATA[
var edges = document.getElementsByTagName('g');
if (edges && edges.length) {
  for (var i=0;i<edges.length;i++) {
    if (edges[i].id.substr(0,4)=='edge') {
      edges[i].setAttribute('class','edge');
    }
  }
}
]]></script>
        <defs>
                <circle id="rim" cx="0" cy="0" r="7"/>
                <circle id="rim2" cx="0" cy="0" r="3.5"/>
                <g id="zoomPlus">
                        <use xlink:href="#rim" fill="#404040">
                                <set attributeName="fill" to="#808080" begin="zoomplus.mouseover" end="zoomplus.mouseout"/>
                        </use>
                        <path d="M-4,0h8M0,-4v8" fill="none" stroke="white" stroke-width="1.5" pointer-events="none"/>
                </g>
                <g id="zoomMin">
                        <use xlink:href="#rim" fill="#404040">
                                <set attributeName="fill" to="#808080" begin="zoomminus.mouseover" end="zoomminus.mouseout"/>
                        </use>
                        <path d="M-4,0h8" fill="none" stroke="white" stroke-width="1.5" pointer-events="none"/>
                </g>
                <g id="dirArrow">
                        <path fill="none" stroke="white" stroke-width="1.5" d="M0,-3.0v7 M-2.5,-0.5L0,-3.0L2.5,-0.5"/>
                </g>
               <g id="resetDef">
                       <use xlink:href="#rim2" fill="#404040">
                               <set attributeName="fill" to="#808080" begin="reset.mouseover" end="reset.mouseout"/>
                       </use>
               </g>
        </defs>

<script type="text/javascript">
var viewWidth = 881;
var viewHeight = 574;
var sectionId = 'dynsection-24';
</script>
<script xlink:href="svgpan.js"/>
<svg id="graph" class="graph">
<g id="viewport">
<title>QuantConnect.Lean.Engine.Results.LiveTradingResultHandler.SendFinalResult</title>
<polygon fill="white" stroke="transparent" points="-4,4 -4,-570 877,-570 877,4 -4,4"/>
<!-- Node1 -->
<g id="node1" class="node">
<title>Node1</title>
<g id="a_node1"><a xlink:title="Send a final analysis result back to the IDE.">
<polygon fill="#bfbfbf" stroke="black" points="0,-247 0,-288 182,-288 182,-247 0,-247"/>
<text text-anchor="start" x="8" y="-276" font-family="Helvetica,sans-Serif" font-size="10.00">QuantConnect.Lean.Engine.</text>
<text text-anchor="start" x="8" y="-265" font-family="Helvetica,sans-Serif" font-size="10.00">Results.LiveTradingResultHandler.</text>
<text text-anchor="middle" x="91" y="-254" font-family="Helvetica,sans-Serif" font-size="10.00">SendFinalResult</text>
</a>
</g>
</g>
<!-- Node2 -->
<g id="node2" class="node">
<title>Node2</title>
<g id="a_node2"><a xlink:href="classQuantConnect_1_1AlgorithmConfiguration.html#af2133cc54c5c38e1b86164f7d20cee6c" target="_top" xlink:title="Provides a convenience method for creating a AlgorithmConfiguration for a given algorithm.">
<polygon fill="white" stroke="black" points="218,-486.5 218,-516.5 423,-516.5 423,-486.5 218,-486.5"/>
<text text-anchor="start" x="226" y="-504.5" font-family="Helvetica,sans-Serif" font-size="10.00">QuantConnect.AlgorithmConfiguration.</text>
<text text-anchor="middle" x="320.5" y="-493.5" font-family="Helvetica,sans-Serif" font-size="10.00">Create</text>
</a>
</g>
</g>
<!-- Node1&#45;&gt;Node2 -->
<g id="edge1" class="edge">
<title>Node1&#45;&gt;Node2</title>
<path fill="none" stroke="midnightblue" d="M100.97,-288.18C118.39,-326.22 160.24,-407.85 218,-456.5 230.7,-467.2 246.34,-475.79 261.51,-482.48"/>
<polygon fill="midnightblue" stroke="midnightblue" points="260.28,-485.76 270.86,-486.41 262.99,-479.31 260.28,-485.76"/>
</g>
<!-- Node5 -->
<g id="node5" class="node">
<title>Node5</title>
<g id="a_node5"><a xlink:href="classQuantConnect_1_1Packets_1_1LiveResultPacket.html#a2d728ce1d5a90b3d66fe40a1fab71ed7" target="_top" xlink:title="Creates an empty result packet, useful when the algorithm fails to initialize">
<polygon fill="white" stroke="black" points="246,-416.5 246,-446.5 395,-446.5 395,-416.5 246,-416.5"/>
<text text-anchor="start" x="254" y="-434.5" font-family="Helvetica,sans-Serif" font-size="10.00">QuantConnect.Packets.Live</text>
<text text-anchor="middle" x="320.5" y="-423.5" font-family="Helvetica,sans-Serif" font-size="10.00">ResultPacket.CreateEmpty</text>
</a>
</g>
</g>
<!-- Node1&#45;&gt;Node5 -->
<g id="edge4" class="edge">
<title>Node1&#45;&gt;Node5</title>
<path fill="none" stroke="midnightblue" d="M107.29,-288.08C129.03,-316.01 171.45,-365.85 218,-395.5 228.76,-402.35 241,-408.11 253.17,-412.87"/>
<polygon fill="midnightblue" stroke="midnightblue" points="252.28,-416.28 262.87,-416.48 254.72,-409.72 252.28,-416.28"/>
</g>
<!-- Node7 -->
<g id="node7" class="node">
<title>Node7</title>
<g id="a_node7"><a xlink:href="classQuantConnect_1_1Logging_1_1Log.html#af0e7955911bc7664b37661b2a303a9e3" target="_top" xlink:title="Log error">
<polygon fill="white" stroke="black" points="486.5,-339.5 486.5,-369.5 636.5,-369.5 636.5,-339.5 486.5,-339.5"/>
<text text-anchor="start" x="494.5" y="-357.5" font-family="Helvetica,sans-Serif" font-size="10.00">QuantConnect.Logging.Log.</text>
<text text-anchor="middle" x="561.5" y="-346.5" font-family="Helvetica,sans-Serif" font-size="10.00">Error</text>
</a>
</g>
</g>
<!-- Node1&#45;&gt;Node7 -->
<g id="edge6" class="edge">
<title>Node1&#45;&gt;Node7</title>
<path fill="none" stroke="midnightblue" d="M174.51,-288C188.97,-291.35 203.89,-294.65 218,-297.5 305.71,-315.22 406.87,-331.55 476.38,-342.15"/>
<polygon fill="midnightblue" stroke="midnightblue" points="475.99,-345.63 486.4,-343.68 477.04,-338.71 475.99,-345.63"/>
</g>
<!-- Node9 -->
<g id="node9" class="node">
<title>Node9</title>
<g id="a_node9"><a xlink:href="classQuantConnect_1_1Lean_1_1Engine_1_1Results_1_1BaseResultsHandler.html#a4d6674fc8407cff6b39e4dcf3e0456fc" target="_top" xlink:title="Will generate the statistics results and update the provided runtime statistics">
<polygon fill="white" stroke="black" points="220,-345 220,-386 421,-386 421,-345 220,-345"/>
<text text-anchor="start" x="228" y="-374" font-family="Helvetica,sans-Serif" font-size="10.00">QuantConnect.Lean.Engine.</text>
<text text-anchor="start" x="228" y="-363" font-family="Helvetica,sans-Serif" font-size="10.00">Results.BaseResultsHandler.Generate</text>
<text text-anchor="middle" x="320.5" y="-352" font-family="Helvetica,sans-Serif" font-size="10.00">StatisticsResults</text>
</a>
</g>
</g>
<!-- Node1&#45;&gt;Node9 -->
<g id="edge8" class="edge">
<title>Node1&#45;&gt;Node9</title>
<path fill="none" stroke="midnightblue" d="M129.99,-288.14C154.68,-301.14 187.79,-317.8 218,-330.5 227.02,-334.29 236.61,-338 246.16,-341.5"/>
<polygon fill="midnightblue" stroke="midnightblue" points="245.07,-344.83 255.67,-344.93 247.44,-338.24 245.07,-344.83"/>
</g>
<!-- Node11 -->
<g id="node11" class="node">
<title>Node11</title>
<g id="a_node11"><a xlink:href="classQuantConnect_1_1Lean_1_1Engine_1_1Results_1_1BaseResultsHandler.html#accccfdd407149d16f177daae9ee5384d" target="_top" xlink:title="Gets the algorithm runtime statistics">
<polygon fill="white" stroke="black" points="234,-187 234,-228 407,-228 407,-187 234,-187"/>
<text text-anchor="start" x="242" y="-216" font-family="Helvetica,sans-Serif" font-size="10.00">QuantConnect.Lean.Engine.</text>
<text text-anchor="start" x="242" y="-205" font-family="Helvetica,sans-Serif" font-size="10.00">Results.BaseResultsHandler.Get</text>
<text text-anchor="middle" x="320.5" y="-194" font-family="Helvetica,sans-Serif" font-size="10.00">AlgorithmRuntimeStatistics</text>
</a>
</g>
</g>
<!-- Node1&#45;&gt;Node11 -->
<g id="edge11" class="edge">
<title>Node1&#45;&gt;Node11</title>
<path fill="none" stroke="midnightblue" d="M169.97,-246.94C189.87,-241.69 211.39,-236.01 231.74,-230.64"/>
<polygon fill="midnightblue" stroke="midnightblue" points="232.85,-233.97 241.63,-228.04 231.07,-227.2 232.85,-233.97"/>
</g>
<!-- Node13 -->
<g id="node13" class="node">
<title>Node13</title>
<g id="a_node13"><a xlink:href="classQuantConnect_1_1Lean_1_1Engine_1_1Results_1_1LiveTradingResultHandler.html#a313bd8d374aaacbcaff898bdaa745a26" target="_top" xlink:title="Helper method to fetch the algorithm holdings">
<polygon fill="white" stroke="black" points="229.5,-127 229.5,-168 411.5,-168 411.5,-127 229.5,-127"/>
<text text-anchor="start" x="237.5" y="-156" font-family="Helvetica,sans-Serif" font-size="10.00">QuantConnect.Lean.Engine.</text>
<text text-anchor="start" x="237.5" y="-145" font-family="Helvetica,sans-Serif" font-size="10.00">Results.LiveTradingResultHandler.</text>
<text text-anchor="middle" x="320.5" y="-134" font-family="Helvetica,sans-Serif" font-size="10.00">GetHoldings</text>
</a>
</g>
</g>
<!-- Node1&#45;&gt;Node13 -->
<g id="edge13" class="edge">
<title>Node1&#45;&gt;Node13</title>
<path fill="none" stroke="midnightblue" d="M115.56,-246.98C139.79,-226.8 179.34,-196.36 218,-177.5 222.11,-175.5 226.37,-173.6 230.73,-171.81"/>
<polygon fill="midnightblue" stroke="midnightblue" points="232.33,-174.94 240.38,-168.05 229.79,-168.42 232.33,-174.94"/>
</g>
<!-- Node14 -->
<g id="node14" class="node">
<title>Node14</title>
<g id="a_node14"><a xlink:href="interfaceQuantConnect_1_1Interfaces_1_1IMessagingHandler.html#afeff1367be45b60e481440eda06a39bf" target="_top" xlink:title="Send any message with a base type of Packet.">
<polygon fill="white" stroke="black" points="250.5,-77.5 250.5,-107.5 390.5,-107.5 390.5,-77.5 250.5,-77.5"/>
<text text-anchor="start" x="258.5" y="-95.5" font-family="Helvetica,sans-Serif" font-size="10.00">QuantConnect.Interfaces.</text>
<text text-anchor="middle" x="320.5" y="-84.5" font-family="Helvetica,sans-Serif" font-size="10.00">IMessagingHandler.Send</text>
</a>
</g>
</g>
<!-- Node1&#45;&gt;Node14 -->
<g id="edge14" class="edge">
<title>Node1&#45;&gt;Node14</title>
<path fill="none" stroke="midnightblue" d="M103.37,-246.96C122.57,-214.28 164.59,-150.75 218,-117.5 225.09,-113.09 232.9,-109.45 240.96,-106.46"/>
<polygon fill="midnightblue" stroke="midnightblue" points="242.15,-109.76 250.5,-103.24 239.9,-103.12 242.15,-109.76"/>
</g>
<!-- Node15 -->
<g id="node15" class="node">
<title>Node15</title>
<g id="a_node15"><a xlink:href="classQuantConnect_1_1Lean_1_1Engine_1_1Results_1_1LiveTradingResultHandler.html#adbdfcb0342d189e7e076dd94c10913cf" target="_top" xlink:title="Save the snapshot of the total results to storage.">
<polygon fill="white" stroke="black" points="229.5,-247 229.5,-288 411.5,-288 411.5,-247 229.5,-247"/>
<text text-anchor="start" x="237.5" y="-276" font-family="Helvetica,sans-Serif" font-size="10.00">QuantConnect.Lean.Engine.</text>
<text text-anchor="start" x="237.5" y="-265" font-family="Helvetica,sans-Serif" font-size="10.00">Results.LiveTradingResultHandler.</text>
<text text-anchor="middle" x="320.5" y="-254" font-family="Helvetica,sans-Serif" font-size="10.00">StoreResult</text>
</a>
</g>
</g>
<!-- Node1&#45;&gt;Node15 -->
<g id="edge15" class="edge">
<title>Node1&#45;&gt;Node15</title>
<path fill="none" stroke="midnightblue" d="M182.24,-267.5C194.36,-267.5 206.84,-267.5 219.12,-267.5"/>
<polygon fill="midnightblue" stroke="midnightblue" points="219.37,-271 229.37,-267.5 219.37,-264 219.37,-271"/>
</g>
<!-- Node22 -->
<g id="node22" class="node">
<title>Node22</title>
<g id="a_node22"><a xlink:href="classQuantConnect_1_1Logging_1_1Log.html#a4e55477fbc790846b74550a57198cea9" target="_top" xlink:title="Log trace">
<polygon fill="white" stroke="black" points="245.5,-20.5 245.5,-50.5 395.5,-50.5 395.5,-20.5 245.5,-20.5"/>
<text text-anchor="start" x="253.5" y="-38.5" font-family="Helvetica,sans-Serif" font-size="10.00">QuantConnect.Logging.Log.</text>
<text text-anchor="middle" x="320.5" y="-27.5" font-family="Helvetica,sans-Serif" font-size="10.00">Trace</text>
</a>
</g>
</g>
<!-- Node1&#45;&gt;Node22 -->
<g id="edge24" class="edge">
<title>Node1&#45;&gt;Node22</title>
<path fill="none" stroke="midnightblue" d="M99.57,-246.7C115.29,-206.35 155.35,-117.16 218,-68.5 225.15,-62.95 233.26,-58.32 241.71,-54.45"/>
<polygon fill="midnightblue" stroke="midnightblue" points="243.12,-57.65 250.99,-50.55 240.41,-51.2 243.12,-57.65"/>
</g>
<!-- Node3 -->
<g id="node3" class="node">
<title>Node3</title>
<g id="a_node3"><a xlink:href="classQuantConnect_1_1AlgorithmConfiguration.html#acae427443084fddc6c1148d880f8b667" target="_top" xlink:title="Initializes a new empty instance of the AlgorithmConfiguration class">
<polygon fill="white" stroke="black" points="459,-486.5 459,-516.5 664,-516.5 664,-486.5 459,-486.5"/>
<text text-anchor="start" x="467" y="-504.5" font-family="Helvetica,sans-Serif" font-size="10.00">QuantConnect.AlgorithmConfiguration.</text>
<text text-anchor="middle" x="561.5" y="-493.5" font-family="Helvetica,sans-Serif" font-size="10.00">AlgorithmConfiguration</text>
</a>
</g>
</g>
<!-- Node2&#45;&gt;Node3 -->
<g id="edge2" class="edge">
<title>Node2&#45;&gt;Node3</title>
<path fill="none" stroke="midnightblue" d="M423.2,-501.5C431.7,-501.5 440.31,-501.5 448.87,-501.5"/>
<polygon fill="midnightblue" stroke="midnightblue" points="448.89,-505 458.89,-501.5 448.89,-498 448.89,-505"/>
</g>
<!-- Node4 -->
<g id="node4" class="node">
<title>Node4</title>
<g id="a_node4"><a xlink:href="classQuantConnect_1_1Brokerages_1_1BrokerageModel.html#a0763b18b34681f1d464f9912a029b164" target="_top" xlink:title="Gets the corresponding BrokerageName for the specified IBrokerageModel">
<polygon fill="white" stroke="black" points="464,-535.5 464,-565.5 659,-565.5 659,-535.5 464,-535.5"/>
<text text-anchor="start" x="472" y="-553.5" font-family="Helvetica,sans-Serif" font-size="10.00">QuantConnect.Brokerages.</text>
<text text-anchor="middle" x="561.5" y="-542.5" font-family="Helvetica,sans-Serif" font-size="10.00">BrokerageModel.GetBrokerageName</text>
</a>
</g>
</g>
<!-- Node2&#45;&gt;Node4 -->
<g id="edge3" class="edge">
<title>Node2&#45;&gt;Node4</title>
<path fill="none" stroke="midnightblue" d="M394.83,-516.53C420.87,-521.87 450.36,-527.92 477.18,-533.42"/>
<polygon fill="midnightblue" stroke="midnightblue" points="476.81,-536.91 487.31,-535.49 478.21,-530.06 476.81,-536.91"/>
</g>
<!-- Node6 -->
<g id="node6" class="node">
<title>Node6</title>
<g id="a_node6"><a xlink:href="classQuantConnect_1_1Packets_1_1LiveResultPacket.html#a2dbdc62c9e0daeb42dfef8ed28e2efea" target="_top" xlink:title="Default constructor for JSON Serialization">
<polygon fill="white" stroke="black" points="479.5,-437.5 479.5,-467.5 643.5,-467.5 643.5,-437.5 479.5,-437.5"/>
<text text-anchor="start" x="487.5" y="-455.5" font-family="Helvetica,sans-Serif" font-size="10.00">QuantConnect.Packets.Live</text>
<text text-anchor="middle" x="561.5" y="-444.5" font-family="Helvetica,sans-Serif" font-size="10.00">ResultPacket.LiveResultPacket</text>
</a>
</g>
</g>
<!-- Node5&#45;&gt;Node6 -->
<g id="edge5" class="edge">
<title>Node5&#45;&gt;Node6</title>
<path fill="none" stroke="midnightblue" d="M395.16,-437.97C418.54,-440.03 444.69,-442.32 469.17,-444.47"/>
<polygon fill="midnightblue" stroke="midnightblue" points="468.91,-447.97 479.18,-445.35 469.52,-440.99 468.91,-447.97"/>
</g>
<!-- Node8 -->
<g id="node8" class="node">
<title>Node8</title>
<g id="a_node8"><a xlink:href="interfaceQuantConnect_1_1Logging_1_1ILogHandler.html#a35373a0c5d76031fa5ccf5dc39e5c25d" target="_top" xlink:title="Write error message to log">
<polygon fill="white" stroke="black" points="711.5,-339.5 711.5,-369.5 861.5,-369.5 861.5,-339.5 711.5,-339.5"/>
<text text-anchor="start" x="719.5" y="-357.5" font-family="Helvetica,sans-Serif" font-size="10.00">QuantConnect.Logging.ILog</text>
<text text-anchor="middle" x="786.5" y="-346.5" font-family="Helvetica,sans-Serif" font-size="10.00">Handler.Error</text>
</a>
</g>
</g>
<!-- Node7&#45;&gt;Node8 -->
<g id="edge7" class="edge">
<title>Node7&#45;&gt;Node8</title>
<path fill="none" stroke="midnightblue" d="M636.76,-354.5C657.33,-354.5 679.83,-354.5 700.95,-354.5"/>
<polygon fill="midnightblue" stroke="midnightblue" points="701.19,-358 711.19,-354.5 701.19,-351 701.19,-358"/>
</g>
<!-- Node9&#45;&gt;Node7 -->
<g id="edge9" class="edge">
<title>Node9&#45;&gt;Node7</title>
<path fill="none" stroke="midnightblue" d="M421.13,-360.91C439.33,-360.08 458.16,-359.21 475.88,-358.39"/>
<polygon fill="midnightblue" stroke="midnightblue" points="476.34,-361.88 486.16,-357.92 476.01,-354.88 476.34,-361.88"/>
</g>
<!-- Node10 -->
<g id="node10" class="node">
<title>Node10</title>
<g id="a_node10"><a xlink:href="classQuantConnect_1_1Statistics_1_1StatisticsBuilder.html#a011babea50597dd275a0838a47a061f5" target="_top" xlink:title="Generates the statistics and returns the results">
<polygon fill="white" stroke="black" points="490,-388.5 490,-418.5 633,-418.5 633,-388.5 490,-388.5"/>
<text text-anchor="start" x="498" y="-406.5" font-family="Helvetica,sans-Serif" font-size="10.00">QuantConnect.Statistics.</text>
<text text-anchor="middle" x="561.5" y="-395.5" font-family="Helvetica,sans-Serif" font-size="10.00">StatisticsBuilder.Generate</text>
</a>
</g>
</g>
<!-- Node9&#45;&gt;Node10 -->
<g id="edge10" class="edge">
<title>Node9&#45;&gt;Node10</title>
<path fill="none" stroke="midnightblue" d="M421.13,-381.34C440.67,-384.45 460.94,-387.67 479.77,-390.66"/>
<polygon fill="midnightblue" stroke="midnightblue" points="479.35,-394.14 489.77,-392.25 480.45,-387.23 479.35,-394.14"/>
</g>
<!-- Node12 -->
<g id="node12" class="node">
<title>Node12</title>
<g id="a_node12"><a xlink:href="classQuantConnect_1_1Lean_1_1Engine_1_1Results_1_1BaseResultsHandler.html#a74af24129c6c48786a0816cda9e0b1af" target="_top" xlink:title="Gets the algorithm net return">
<polygon fill="white" stroke="black" points="475,-50 475,-91 648,-91 648,-50 475,-50"/>
<text text-anchor="start" x="483" y="-79" font-family="Helvetica,sans-Serif" font-size="10.00">QuantConnect.Lean.Engine.</text>
<text text-anchor="start" x="483" y="-68" font-family="Helvetica,sans-Serif" font-size="10.00">Results.BaseResultsHandler.Get</text>
<text text-anchor="middle" x="561.5" y="-57" font-family="Helvetica,sans-Serif" font-size="10.00">NetReturn</text>
</a>
</g>
</g>
<!-- Node11&#45;&gt;Node12 -->
<g id="edge12" class="edge">
<title>Node11&#45;&gt;Node12</title>
<path fill="none" stroke="midnightblue" d="M407.42,-188.14C413,-185.1 418.26,-181.57 423,-177.5 451.64,-152.86 430.36,-125.14 459,-100.5 461.22,-98.59 463.56,-96.8 465.99,-95.13"/>
<polygon fill="midnightblue" stroke="midnightblue" points="467.88,-98.07 474.58,-89.86 464.23,-92.1 467.88,-98.07"/>
</g>
<!-- Node15&#45;&gt;Node7 -->
<g id="edge19" class="edge">
<title>Node15&#45;&gt;Node7</title>
<path fill="none" stroke="midnightblue" d="M391.06,-288.06C402.01,-292.26 413,-297.08 423,-302.5 440.82,-312.16 440.72,-321.75 459,-330.5 464.63,-333.19 470.58,-335.6 476.66,-337.74"/>
<polygon fill="midnightblue" stroke="midnightblue" points="475.72,-341.11 486.31,-340.9 477.89,-334.46 475.72,-341.11"/>
</g>
<!-- Node16 -->
<g id="node16" class="node">
<title>Node16</title>
<g id="a_node16"><a xlink:href="classQuantConnect_1_1Lean_1_1Engine_1_1Results_1_1LiveTradingResultHandler.html#af7f0adc10127d86aaeb050c48924ca8b" target="_top" xlink:title="Escape the chartname so that it can be saved to a file system">
<polygon fill="white" stroke="black" points="470.5,-110 470.5,-151 652.5,-151 652.5,-110 470.5,-110"/>
<text text-anchor="start" x="478.5" y="-139" font-family="Helvetica,sans-Serif" font-size="10.00">QuantConnect.Lean.Engine.</text>
<text text-anchor="start" x="478.5" y="-128" font-family="Helvetica,sans-Serif" font-size="10.00">Results.LiveTradingResultHandler.</text>
<text text-anchor="middle" x="561.5" y="-117" font-family="Helvetica,sans-Serif" font-size="10.00">CreateSafeChartName</text>
</a>
</g>
</g>
<!-- Node15&#45;&gt;Node16 -->
<g id="edge16" class="edge">
<title>Node15&#45;&gt;Node16</title>
<path fill="none" stroke="midnightblue" d="M409.86,-246.77C414.53,-244.05 418.96,-240.98 423,-237.5 451.64,-212.86 430.36,-185.14 459,-160.5 460.51,-159.2 462.08,-157.95 463.7,-156.76"/>
<polygon fill="midnightblue" stroke="midnightblue" points="465.69,-159.64 472.14,-151.23 461.86,-153.78 465.69,-159.64"/>
</g>
<!-- Node17 -->
<g id="node17" class="node">
<title>Node17</title>
<g id="a_node17"><a xlink:href="classQuantConnect_1_1Logging_1_1Log.html#ad908daef9d61532d7d60c9dcfb9a3e0c" target="_top" xlink:title="Output to the console">
<polygon fill="white" stroke="black" points="486.5,-290.5 486.5,-320.5 636.5,-320.5 636.5,-290.5 486.5,-290.5"/>
<text text-anchor="start" x="494.5" y="-308.5" font-family="Helvetica,sans-Serif" font-size="10.00">QuantConnect.Logging.Log.</text>
<text text-anchor="middle" x="561.5" y="-297.5" font-family="Helvetica,sans-Serif" font-size="10.00">Debug</text>
</a>
</g>
</g>
<!-- Node15&#45;&gt;Node17 -->
<g id="edge17" class="edge">
<title>Node15&#45;&gt;Node17</title>
<path fill="none" stroke="midnightblue" d="M411.52,-281.81C432.67,-285.17 455.13,-288.75 476.03,-292.07"/>
<polygon fill="midnightblue" stroke="midnightblue" points="475.72,-295.56 486.15,-293.68 476.82,-288.65 475.72,-295.56"/>
</g>
<!-- Node19 -->
<g id="node19" class="node">
<title>Node19</title>
<g id="a_node19"><a xlink:href="classQuantConnect_1_1Lean_1_1Engine_1_1Results_1_1BaseResultsHandler.html#ac8ea58245ced1bdfb0f53650805520ea" target="_top" xlink:title="Save the results to disk">
<polygon fill="white" stroke="black" points="471.5,-230 471.5,-271 651.5,-271 651.5,-230 471.5,-230"/>
<text text-anchor="start" x="479.5" y="-259" font-family="Helvetica,sans-Serif" font-size="10.00">QuantConnect.Lean.Engine.</text>
<text text-anchor="start" x="479.5" y="-248" font-family="Helvetica,sans-Serif" font-size="10.00">Results.BaseResultsHandler.Save</text>
<text text-anchor="middle" x="561.5" y="-237" font-family="Helvetica,sans-Serif" font-size="10.00">Results</text>
</a>
</g>
</g>
<!-- Node15&#45;&gt;Node19 -->
<g id="edge20" class="edge">
<title>Node15&#45;&gt;Node19</title>
<path fill="none" stroke="midnightblue" d="M411.52,-261.1C427.73,-259.94 444.72,-258.74 461.19,-257.56"/>
<polygon fill="midnightblue" stroke="midnightblue" points="461.63,-261.04 471.36,-256.84 461.14,-254.06 461.63,-261.04"/>
</g>
<!-- Node21 -->
<g id="node21" class="node">
<title>Node21</title>
<g id="a_node21"><a xlink:href="classQuantConnect_1_1Lean_1_1Engine_1_1Results_1_1LiveTradingResultHandler.html#a029cd5d30080cb14ce5bbd0dfdf72012" target="_top" xlink:title="Stores the order events">
<polygon fill="white" stroke="black" points="470.5,-170 470.5,-211 652.5,-211 652.5,-170 470.5,-170"/>
<text text-anchor="start" x="478.5" y="-199" font-family="Helvetica,sans-Serif" font-size="10.00">QuantConnect.Lean.Engine.</text>
<text text-anchor="start" x="478.5" y="-188" font-family="Helvetica,sans-Serif" font-size="10.00">Results.LiveTradingResultHandler.</text>
<text text-anchor="middle" x="561.5" y="-177" font-family="Helvetica,sans-Serif" font-size="10.00">StoreOrderEvents</text>
</a>
</g>
</g>
<!-- Node15&#45;&gt;Node21 -->
<g id="edge22" class="edge">
<title>Node15&#45;&gt;Node21</title>
<path fill="none" stroke="midnightblue" d="M395.95,-246.93C405.13,-243.98 414.33,-240.81 423,-237.5 439.53,-231.2 442.47,-226.8 459,-220.5 464.55,-218.38 470.33,-216.32 476.17,-214.33"/>
<polygon fill="midnightblue" stroke="midnightblue" points="477.66,-217.53 486.05,-211.07 475.46,-210.88 477.66,-217.53"/>
</g>
<!-- Node18 -->
<g id="node18" class="node">
<title>Node18</title>
<g id="a_node18"><a xlink:href="interfaceQuantConnect_1_1Logging_1_1ILogHandler.html#a2c738b8e78dd5b54244bc68b969ba91d" target="_top" xlink:title="Write debug message to log">
<polygon fill="white" stroke="black" points="711.5,-290.5 711.5,-320.5 861.5,-320.5 861.5,-290.5 711.5,-290.5"/>
<text text-anchor="start" x="719.5" y="-308.5" font-family="Helvetica,sans-Serif" font-size="10.00">QuantConnect.Logging.ILog</text>
<text text-anchor="middle" x="786.5" y="-297.5" font-family="Helvetica,sans-Serif" font-size="10.00">Handler.Debug</text>
</a>
</g>
</g>
<!-- Node17&#45;&gt;Node18 -->
<g id="edge18" class="edge">
<title>Node17&#45;&gt;Node18</title>
<path fill="none" stroke="midnightblue" d="M636.76,-305.5C657.33,-305.5 679.83,-305.5 700.95,-305.5"/>
<polygon fill="midnightblue" stroke="midnightblue" points="701.19,-309 711.19,-305.5 701.19,-302 701.19,-309"/>
</g>
<!-- Node20 -->
<g id="node20" class="node">
<title>Node20</title>
<g id="a_node20"><a xlink:href="classQuantConnect_1_1Lean_1_1Engine_1_1Results_1_1BaseResultsHandler.html#a29c14fd3525bf7327191bcd890304660" target="_top" xlink:title="Gets the full path for a results file">
<polygon fill="white" stroke="black" points="700,-200 700,-241 873,-241 873,-200 700,-200"/>
<text text-anchor="start" x="708" y="-229" font-family="Helvetica,sans-Serif" font-size="10.00">QuantConnect.Lean.Engine.</text>
<text text-anchor="start" x="708" y="-218" font-family="Helvetica,sans-Serif" font-size="10.00">Results.BaseResultsHandler.Get</text>
<text text-anchor="middle" x="786.5" y="-207" font-family="Helvetica,sans-Serif" font-size="10.00">ResultsPath</text>
</a>
</g>
</g>
<!-- Node19&#45;&gt;Node20 -->
<g id="edge21" class="edge">
<title>Node19&#45;&gt;Node20</title>
<path fill="none" stroke="midnightblue" d="M651.6,-238.51C664.14,-236.83 677.07,-235.09 689.73,-233.38"/>
<polygon fill="midnightblue" stroke="midnightblue" points="690.37,-236.83 699.81,-232.03 689.43,-229.89 690.37,-236.83"/>
</g>
<!-- Node21&#45;&gt;Node20 -->
<g id="edge23" class="edge">
<title>Node21&#45;&gt;Node20</title>
<path fill="none" stroke="midnightblue" d="M652.56,-202.62C664.74,-204.25 677.28,-205.94 689.56,-207.59"/>
<polygon fill="midnightblue" stroke="midnightblue" points="689.42,-211.11 699.8,-208.97 690.36,-204.17 689.42,-211.11"/>
</g>
<!-- Node23 -->
<g id="node23" class="node">
<title>Node23</title>
<g id="a_node23"><a xlink:href="interfaceQuantConnect_1_1Logging_1_1ILogHandler.html#a3fb71a33ac66129240b63f12b6fcda3b" target="_top" xlink:title="Write debug message to log">
<polygon fill="white" stroke="black" points="486.5,-0.5 486.5,-30.5 636.5,-30.5 636.5,-0.5 486.5,-0.5"/>
<text text-anchor="start" x="494.5" y="-18.5" font-family="Helvetica,sans-Serif" font-size="10.00">QuantConnect.Logging.ILog</text>
<text text-anchor="middle" x="561.5" y="-7.5" font-family="Helvetica,sans-Serif" font-size="10.00">Handler.Trace</text>
</a>
</g>
</g>
<!-- Node22&#45;&gt;Node23 -->
<g id="edge25" class="edge">
<title>Node22&#45;&gt;Node23</title>
<path fill="none" stroke="midnightblue" d="M395.81,-29.28C421.21,-27.16 449.81,-24.76 475.96,-22.57"/>
<polygon fill="midnightblue" stroke="midnightblue" points="476.56,-26.04 486.23,-21.71 475.98,-19.06 476.56,-26.04"/>
</g>
</g>
</svg>
        <g id="navigator" transform="translate(0 0)" fill="#404254">
                <rect fill="#f2f5e9" fill-opacity="0.5" stroke="#606060" stroke-width=".5" x="0" y="0" width="60" height="60"/>
                <use id="zoomplus" xlink:href="#zoomPlus" x="17" y="9" onmousedown="handleZoom(evt,'in')"/>
                <use id="zoomminus" xlink:href="#zoomMin" x="42" y="9" onmousedown="handleZoom(evt,'out')"/>
                <use id="reset" xlink:href="#resetDef" x="30" y="36" onmousedown="handleReset()"/>
                <g id="arrowUp" xlink:href="#dirArrow" transform="translate(30 24)" onmousedown="handlePan(0,-1)">
                  <use xlink:href="#rim" fill="#404040">
                        <set attributeName="fill" to="#808080" begin="arrowUp.mouseover" end="arrowUp.mouseout"/>
                  </use>
                  <path fill="none" stroke="white" stroke-width="1.5" d="M0,-3.0v7 M-2.5,-0.5L0,-3.0L2.5,-0.5"/>
                </g>
                <g id="arrowRight" xlink:href="#dirArrow" transform="rotate(90) translate(36 -43)" onmousedown="handlePan(1,0)">
                  <use xlink:href="#rim" fill="#404040">
                        <set attributeName="fill" to="#808080" begin="arrowRight.mouseover" end="arrowRight.mouseout"/>
                  </use>
                  <path fill="none" stroke="white" stroke-width="1.5" d="M0,-3.0v7 M-2.5,-0.5L0,-3.0L2.5,-0.5"/>
                </g>
                <g id="arrowDown" xlink:href="#dirArrow" transform="rotate(180) translate(-30 -48)" onmousedown="handlePan(0,1)">
                  <use xlink:href="#rim" fill="#404040">
                        <set attributeName="fill" to="#808080" begin="arrowDown.mouseover" end="arrowDown.mouseout"/>
                  </use>
                  <path fill="none" stroke="white" stroke-width="1.5" d="M0,-3.0v7 M-2.5,-0.5L0,-3.0L2.5,-0.5"/>
                </g>
                <g id="arrowLeft" xlink:href="#dirArrow" transform="rotate(270) translate(-36 17)" onmousedown="handlePan(-1,0)">
                  <use xlink:href="#rim" fill="#404040">
                        <set attributeName="fill" to="#808080" begin="arrowLeft.mouseover" end="arrowLeft.mouseout"/>
                  </use>
                  <path fill="none" stroke="white" stroke-width="1.5" d="M0,-3.0v7 M-2.5,-0.5L0,-3.0L2.5,-0.5"/>
                </g>
        </g>
        <svg viewBox="0 0 15 15" width="100%" height="30px" preserveAspectRatio="xMaxYMin meet">
         <g id="arrow_out" transform="scale(0.3 0.3)">
          <a xlink:href="classQuantConnect_1_1Lean_1_1Engine_1_1Results_1_1LiveTradingResultHandler_a87f1535d14caf7deaad1b36854fcd22a_cgraph_org.svg" target="_base">
           <rect id="button" ry="5" rx="5" y="6" x="6" height="38" width="38"
                fill="#f2f5e9" fill-opacity="0.5" stroke="#606060" stroke-width="1.0"/>
           <path id="arrow"
             d="M 11.500037,31.436501 C 11.940474,20.09759 22.043105,11.32322 32.158766,21.979434 L 37.068811,17.246167 C 37.068811,17.246167 37.088388,32 37.088388,32 L 22.160133,31.978069 C 22.160133,31.978069 26.997745,27.140456 26.997745,27.140456 C 18.528582,18.264221 13.291696,25.230495 11.500037,31.436501 z"
             style="fill:#404040;"/>
          </a>
         </g>
        </svg>
</svg>
