<?xml version="1.0" encoding="UTF-8" standalone="no"?>
<!DOCTYPE svg PUBLIC "-//W3C//DTD SVG 1.1//EN"
 "http://www.w3.org/Graphics/SVG/1.1/DTD/svg11.dtd">
<!-- Generated by graphviz version 2.43.0 (0)
 -->
<!-- Title: QuantConnect.Data.Market.TradeBar Pages: 1 -->
<!--zoomable 186 -->
<svg id="main" version="1.1" xmlns="http://www.w3.org/2000/svg" xmlns:xlink="http://www.w3.org/1999/xlink" xml:space="preserve" onload="init(evt)">
<style type="text/css"><![CDATA[
.edge:hover path { stroke: red; }
.edge:hover polygon { stroke: red; fill: red; }
]]></style>
<script type="text/javascript"><![CDATA[
var edges = document.getElementsByTagName('g');
if (edges && edges.length) {
  for (var i=0;i<edges.length;i++) {
    if (edges[i].id.substr(0,4)=='edge') {
      edges[i].setAttribute('class','edge');
    }
  }
}
]]></script>
        <defs>
                <circle id="rim" cx="0" cy="0" r="7"/>
                <circle id="rim2" cx="0" cy="0" r="3.5"/>
                <g id="zoomPlus">
                        <use xlink:href="#rim" fill="#404040">
                                <set attributeName="fill" to="#808080" begin="zoomplus.mouseover" end="zoomplus.mouseout"/>
                        </use>
                        <path d="M-4,0h8M0,-4v8" fill="none" stroke="white" stroke-width="1.5" pointer-events="none"/>
                </g>
                <g id="zoomMin">
                        <use xlink:href="#rim" fill="#404040">
                                <set attributeName="fill" to="#808080" begin="zoomminus.mouseover" end="zoomminus.mouseout"/>
                        </use>
                        <path d="M-4,0h8" fill="none" stroke="white" stroke-width="1.5" pointer-events="none"/>
                </g>
                <g id="dirArrow">
                        <path fill="none" stroke="white" stroke-width="1.5" d="M0,-3.0v7 M-2.5,-0.5L0,-3.0L2.5,-0.5"/>
                </g>
               <g id="resetDef">
                       <use xlink:href="#rim2" fill="#404040">
                               <set attributeName="fill" to="#808080" begin="reset.mouseover" end="reset.mouseout"/>
                       </use>
               </g>
        </defs>

<script type="text/javascript">
var viewWidth = 794;
var viewHeight = 186;
var sectionId = 'dynsection-0';
</script>
<script xlink:href="svgpan.js"/>
<svg id="graph" class="graph">
<g id="viewport">
<title>QuantConnect.Data.Market.TradeBar</title>
<polygon fill="white" stroke="transparent" points="-4,4 -4,-182 790,-182 790,4 -4,4"/>
<!-- Node1 -->
<g id="node1" class="node">
<title>Node1</title>
<g id="a_node1"><a xlink:title="TradeBar class for second and minute resolution data: An OHLC implementation of the QuantConnect Base...">
<polygon fill="#bfbfbf" stroke="black" points="222,-73.5 222,-103.5 374,-103.5 374,-73.5 222,-73.5"/>
<text text-anchor="start" x="230" y="-91.5" font-family="Helvetica,sans-Serif" font-size="10.00">QuantConnect.Data.Market.</text>
<text text-anchor="middle" x="298" y="-80.5" font-family="Helvetica,sans-Serif" font-size="10.00">TradeBar</text>
</a>
</g>
</g>
<!-- Node6 -->
<g id="node6" class="node">
<title>Node6</title>
<g id="a_node6"><a xlink:href="classQuantConnect_1_1Data_1_1Custom_1_1IconicTypes_1_1UnlinkedDataTradeBar.html" target="_top" xlink:title="Data source that is unlinked (no mapping) and takes any ticker when calling AddData">
<polygon fill="white" stroke="black" points="410,-147.5 410,-177.5 595,-177.5 595,-147.5 410,-147.5"/>
<text text-anchor="start" x="418" y="-165.5" font-family="Helvetica,sans-Serif" font-size="10.00">QuantConnect.Data.Custom.</text>
<text text-anchor="middle" x="502.5" y="-154.5" font-family="Helvetica,sans-Serif" font-size="10.00">IconicTypes.UnlinkedDataTradeBar</text>
</a>
</g>
</g>
<!-- Node1&#45;&gt;Node6 -->
<g id="edge6" class="edge">
<title>Node1&#45;&gt;Node6</title>
<path fill="none" stroke="midnightblue" d="M338.28,-108.12C359.22,-118.09 385.63,-129.88 410,-138.5 419.14,-141.73 428.92,-144.75 438.57,-147.48"/>
<polygon fill="midnightblue" stroke="midnightblue" points="339.59,-104.87 329.06,-103.69 336.56,-111.18 339.59,-104.87"/>
</g>
<!-- Node7 -->
<g id="node7" class="node">
<title>Node7</title>
<g id="a_node7"><a xlink:href="classQuantConnect_1_1Data_1_1Custom_1_1Tiingo_1_1TiingoPrice.html" target="_top" xlink:title="Tiingo daily price data https://api.tiingo.com/docs/tiingo/daily">
<polygon fill="white" stroke="black" points="425,-98.5 425,-128.5 580,-128.5 580,-98.5 425,-98.5"/>
<text text-anchor="start" x="433" y="-116.5" font-family="Helvetica,sans-Serif" font-size="10.00">QuantConnect.Data.Custom.</text>
<text text-anchor="middle" x="502.5" y="-105.5" font-family="Helvetica,sans-Serif" font-size="10.00">Tiingo.TiingoPrice</text>
</a>
</g>
</g>
<!-- Node1&#45;&gt;Node7 -->
<g id="edge7" class="edge">
<title>Node1&#45;&gt;Node7</title>
<path fill="none" stroke="midnightblue" d="M384.31,-99.03C397.75,-100.69 411.58,-102.4 424.81,-104.03"/>
<polygon fill="midnightblue" stroke="midnightblue" points="384.47,-95.53 374.12,-97.77 383.61,-102.47 384.47,-95.53"/>
</g>
<!-- Node9 -->
<g id="node9" class="node">
<title>Node9</title>
<g id="a_node9"><a xlink:href="classQuantConnect_1_1Data_1_1Market_1_1BaseRenkoBar.html" target="_top" xlink:title="Represents a bar sectioned not by time, but by some amount of movement in a set field,...">
<polygon fill="white" stroke="black" points="426.5,-49.5 426.5,-79.5 578.5,-79.5 578.5,-49.5 426.5,-49.5"/>
<text text-anchor="start" x="434.5" y="-67.5" font-family="Helvetica,sans-Serif" font-size="10.00">QuantConnect.Data.Market.</text>
<text text-anchor="middle" x="502.5" y="-56.5" font-family="Helvetica,sans-Serif" font-size="10.00">BaseRenkoBar</text>
</a>
</g>
</g>
<!-- Node1&#45;&gt;Node9 -->
<g id="edge9" class="edge">
<title>Node1&#45;&gt;Node9</title>
<path fill="none" stroke="midnightblue" d="M384.18,-78.4C398.12,-76.75 412.48,-75.05 426.17,-73.43"/>
<polygon fill="midnightblue" stroke="midnightblue" points="383.63,-74.94 374.12,-79.6 384.46,-81.9 383.63,-74.94"/>
</g>
<!-- Node12 -->
<g id="node12" class="node">
<title>Node12</title>
<g id="a_node12"><a xlink:href="classQuantConnect_1_1Data_1_1Market_1_1RangeBar.html" target="_top" xlink:title="Represents a bar sectioned not by time, but by some amount of movement in a value (for example,...">
<polygon fill="white" stroke="black" points="426.5,-0.5 426.5,-30.5 578.5,-30.5 578.5,-0.5 426.5,-0.5"/>
<text text-anchor="start" x="434.5" y="-18.5" font-family="Helvetica,sans-Serif" font-size="10.00">QuantConnect.Data.Market.</text>
<text text-anchor="middle" x="502.5" y="-7.5" font-family="Helvetica,sans-Serif" font-size="10.00">RangeBar</text>
</a>
</g>
</g>
<!-- Node1&#45;&gt;Node12 -->
<g id="edge12" class="edge">
<title>Node1&#45;&gt;Node12</title>
<path fill="none" stroke="midnightblue" d="M338.76,-69.1C359.65,-59.39 385.86,-47.93 410,-39.5 419.15,-36.3 428.94,-33.31 438.59,-30.59"/>
<polygon fill="midnightblue" stroke="midnightblue" points="337.13,-66 329.57,-73.43 340.11,-72.34 337.13,-66"/>
</g>
<!-- Node2 -->
<g id="node2" class="node">
<title>Node2</title>
<g id="a_node2"><a xlink:href="classQuantConnect_1_1Data_1_1BaseData.html" target="_top" xlink:title="Abstract base data class of QuantConnect. It is intended to be extended to define generic user custom...">
<polygon fill="white" stroke="black" points="112.5,-98 112.5,-117 176.5,-117 176.5,-98 112.5,-98"/>
<text text-anchor="middle" x="144.5" y="-105" font-family="Helvetica,sans-Serif" font-size="10.00">BaseData</text>
</a>
</g>
</g>
<!-- Node2&#45;&gt;Node1 -->
<g id="edge1" class="edge">
<title>Node2&#45;&gt;Node1</title>
<path fill="none" stroke="midnightblue" d="M186.61,-102.34C197.56,-100.97 209.74,-99.44 221.9,-97.92"/>
<polygon fill="midnightblue" stroke="midnightblue" points="186.01,-98.89 176.52,-103.61 186.88,-105.84 186.01,-98.89"/>
</g>
<!-- Node3 -->
<g id="node3" class="node">
<title>Node3</title>
<g id="a_node3"><a xlink:href="interfaceQuantConnect_1_1Data_1_1IBaseData.html" target="_top" xlink:title="Base Data Class: Type, Timestamp, Key – Base Features.">
<polygon fill="white" stroke="black" points="0,-98 0,-117 67,-117 67,-98 0,-98"/>
<text text-anchor="middle" x="33.5" y="-105" font-family="Helvetica,sans-Serif" font-size="10.00">IBaseData</text>
</a>
</g>
</g>
<!-- Node3&#45;&gt;Node2 -->
<g id="edge2" class="edge">
<title>Node3&#45;&gt;Node2</title>
<path fill="none" stroke="midnightblue" d="M77.23,-107.5C88.93,-107.5 101.39,-107.5 112.32,-107.5"/>
<polygon fill="midnightblue" stroke="midnightblue" points="77.2,-104 67.2,-107.5 77.2,-111 77.2,-104"/>
</g>
<!-- Node4 -->
<g id="node4" class="node">
<title>Node4</title>
<g id="a_node4"><a xlink:href="interfaceQuantConnect_1_1Data_1_1Market_1_1IBaseDataBar.html" target="_top" xlink:title="Represents a type that is both a bar and base data">
<polygon fill="white" stroke="black" points="103,-60 103,-79 186,-79 186,-60 103,-60"/>
<text text-anchor="middle" x="144.5" y="-67" font-family="Helvetica,sans-Serif" font-size="10.00">IBaseDataBar</text>
</a>
</g>
</g>
<!-- Node3&#45;&gt;Node4 -->
<g id="edge4" class="edge">
<title>Node3&#45;&gt;Node4</title>
<path fill="none" stroke="midnightblue" d="M71.71,-94.53C86.23,-89.47 102.58,-83.77 116,-79.09"/>
<polygon fill="midnightblue" stroke="midnightblue" points="70.3,-91.31 62.01,-97.91 72.6,-97.92 70.3,-91.31"/>
</g>
<!-- Node4&#45;&gt;Node1 -->
<g id="edge3" class="edge">
<title>Node4&#45;&gt;Node1</title>
<path fill="none" stroke="midnightblue" d="M196.24,-75.86C204.46,-76.89 213.12,-77.98 221.77,-79.07"/>
<polygon fill="midnightblue" stroke="midnightblue" points="196.46,-72.36 186.1,-74.59 195.59,-79.31 196.46,-72.36"/>
</g>
<!-- Node5 -->
<g id="node5" class="node">
<title>Node5</title>
<g id="a_node5"><a xlink:href="interfaceQuantConnect_1_1Data_1_1Market_1_1IBar.html" target="_top" xlink:title="Generic bar interface with Open, High, Low and Close.">
<polygon fill="white" stroke="black" points="15.5,-60 15.5,-79 51.5,-79 51.5,-60 15.5,-60"/>
<text text-anchor="middle" x="33.5" y="-67" font-family="Helvetica,sans-Serif" font-size="10.00">IBar</text>
</a>
</g>
</g>
<!-- Node5&#45;&gt;Node4 -->
<g id="edge5" class="edge">
<title>Node5&#45;&gt;Node4</title>
<path fill="none" stroke="midnightblue" d="M61.65,-69.5C74.02,-69.5 88.92,-69.5 102.6,-69.5"/>
<polygon fill="midnightblue" stroke="midnightblue" points="61.53,-66 51.53,-69.5 61.53,-73 61.53,-66"/>
</g>
<!-- Node8 -->
<g id="node8" class="node">
<title>Node8</title>
<g id="a_node8"><a xlink:href="classQuantConnect_1_1Data_1_1Custom_1_1Tiingo_1_1TiingoDailyData.html" target="_top" xlink:title="Tiingo daily price data https://api.tiingo.com/docs/tiingo/daily">
<polygon fill="white" stroke="black" points="631,-98.5 631,-128.5 786,-128.5 786,-98.5 631,-98.5"/>
<text text-anchor="start" x="639" y="-116.5" font-family="Helvetica,sans-Serif" font-size="10.00">QuantConnect.Data.Custom.</text>
<text text-anchor="middle" x="708.5" y="-105.5" font-family="Helvetica,sans-Serif" font-size="10.00">Tiingo.TiingoDailyData</text>
</a>
</g>
</g>
<!-- Node7&#45;&gt;Node8 -->
<g id="edge8" class="edge">
<title>Node7&#45;&gt;Node8</title>
<path fill="none" stroke="midnightblue" d="M590.27,-113.5C603.77,-113.5 617.62,-113.5 630.87,-113.5"/>
<polygon fill="midnightblue" stroke="midnightblue" points="590.04,-110 580.04,-113.5 590.04,-117 590.04,-110"/>
</g>
<!-- Node10 -->
<g id="node10" class="node">
<title>Node10</title>
<g id="a_node10"><a xlink:href="classQuantConnect_1_1Data_1_1Market_1_1RenkoBar.html" target="_top" xlink:title="Represents a bar sectioned not by time, but by some amount of movement in a value (for example,...">
<polygon fill="white" stroke="black" points="632.5,-49.5 632.5,-79.5 784.5,-79.5 784.5,-49.5 632.5,-49.5"/>
<text text-anchor="start" x="640.5" y="-67.5" font-family="Helvetica,sans-Serif" font-size="10.00">QuantConnect.Data.Market.</text>
<text text-anchor="middle" x="708.5" y="-56.5" font-family="Helvetica,sans-Serif" font-size="10.00">RenkoBar</text>
</a>
</g>
</g>
<!-- Node9&#45;&gt;Node10 -->
<g id="edge10" class="edge">
<title>Node9&#45;&gt;Node10</title>
<path fill="none" stroke="midnightblue" d="M588.96,-64.5C603.32,-64.5 618.14,-64.5 632.22,-64.5"/>
<polygon fill="midnightblue" stroke="midnightblue" points="588.59,-61 578.59,-64.5 588.59,-68 588.59,-61"/>
</g>
<!-- Node11 -->
<g id="node11" class="node">
<title>Node11</title>
<g id="a_node11"><a xlink:href="classQuantConnect_1_1Data_1_1Market_1_1VolumeRenkoBar.html" target="_top" xlink:title="Represents a bar sectioned not by time, but by some amount of movement in volume">
<polygon fill="white" stroke="black" points="632.5,-0.5 632.5,-30.5 784.5,-30.5 784.5,-0.5 632.5,-0.5"/>
<text text-anchor="start" x="640.5" y="-18.5" font-family="Helvetica,sans-Serif" font-size="10.00">QuantConnect.Data.Market.</text>
<text text-anchor="middle" x="708.5" y="-7.5" font-family="Helvetica,sans-Serif" font-size="10.00">VolumeRenkoBar</text>
</a>
</g>
</g>
<!-- Node9&#45;&gt;Node11 -->
<g id="edge11" class="edge">
<title>Node9&#45;&gt;Node11</title>
<path fill="none" stroke="midnightblue" d="M575.96,-47.1C598.52,-41.68 623.2,-35.75 645.03,-30.51"/>
<polygon fill="midnightblue" stroke="midnightblue" points="575,-43.73 566.09,-49.47 576.63,-50.53 575,-43.73"/>
</g>
</g>
</svg>
        <g id="navigator" transform="translate(0 0)" fill="#404254">
                <rect fill="#f2f5e9" fill-opacity="0.5" stroke="#606060" stroke-width=".5" x="0" y="0" width="60" height="60"/>
                <use id="zoomplus" xlink:href="#zoomPlus" x="17" y="9" onmousedown="handleZoom(evt,'in')"/>
                <use id="zoomminus" xlink:href="#zoomMin" x="42" y="9" onmousedown="handleZoom(evt,'out')"/>
                <use id="reset" xlink:href="#resetDef" x="30" y="36" onmousedown="handleReset()"/>
                <g id="arrowUp" xlink:href="#dirArrow" transform="translate(30 24)" onmousedown="handlePan(0,-1)">
                  <use xlink:href="#rim" fill="#404040">
                        <set attributeName="fill" to="#808080" begin="arrowUp.mouseover" end="arrowUp.mouseout"/>
                  </use>
                  <path fill="none" stroke="white" stroke-width="1.5" d="M0,-3.0v7 M-2.5,-0.5L0,-3.0L2.5,-0.5"/>
                </g>
                <g id="arrowRight" xlink:href="#dirArrow" transform="rotate(90) translate(36 -43)" onmousedown="handlePan(1,0)">
                  <use xlink:href="#rim" fill="#404040">
                        <set attributeName="fill" to="#808080" begin="arrowRight.mouseover" end="arrowRight.mouseout"/>
                  </use>
                  <path fill="none" stroke="white" stroke-width="1.5" d="M0,-3.0v7 M-2.5,-0.5L0,-3.0L2.5,-0.5"/>
                </g>
                <g id="arrowDown" xlink:href="#dirArrow" transform="rotate(180) translate(-30 -48)" onmousedown="handlePan(0,1)">
                  <use xlink:href="#rim" fill="#404040">
                        <set attributeName="fill" to="#808080" begin="arrowDown.mouseover" end="arrowDown.mouseout"/>
                  </use>
                  <path fill="none" stroke="white" stroke-width="1.5" d="M0,-3.0v7 M-2.5,-0.5L0,-3.0L2.5,-0.5"/>
                </g>
                <g id="arrowLeft" xlink:href="#dirArrow" transform="rotate(270) translate(-36 17)" onmousedown="handlePan(-1,0)">
                  <use xlink:href="#rim" fill="#404040">
                        <set attributeName="fill" to="#808080" begin="arrowLeft.mouseover" end="arrowLeft.mouseout"/>
                  </use>
                  <path fill="none" stroke="white" stroke-width="1.5" d="M0,-3.0v7 M-2.5,-0.5L0,-3.0L2.5,-0.5"/>
                </g>
        </g>
        <svg viewBox="0 0 15 15" width="100%" height="30px" preserveAspectRatio="xMaxYMin meet">
         <g id="arrow_out" transform="scale(0.3 0.3)">
          <a xlink:href="classQuantConnect_1_1Data_1_1Market_1_1TradeBar__inherit__graph_org.svg" target="_base">
           <rect id="button" ry="5" rx="5" y="6" x="6" height="38" width="38"
                fill="#f2f5e9" fill-opacity="0.5" stroke="#606060" stroke-width="1.0"/>
           <path id="arrow"
             d="M 11.500037,31.436501 C 11.940474,20.09759 22.043105,11.32322 32.158766,21.979434 L 37.068811,17.246167 C 37.068811,17.246167 37.088388,32 37.088388,32 L 22.160133,31.978069 C 22.160133,31.978069 26.997745,27.140456 26.997745,27.140456 C 18.528582,18.264221 13.291696,25.230495 11.500037,31.436501 z"
             style="fill:#404040;"/>
          </a>
         </g>
        </svg>
</svg>
