<?xml version="1.0" encoding="UTF-8" standalone="no"?>
<!DOCTYPE svg PUBLIC "-//W3C//DTD SVG 1.1//EN"
 "http://www.w3.org/Graphics/SVG/1.1/DTD/svg11.dtd">
<!-- Generated by graphviz version 2.43.0 (0)
 -->
<!-- Title: QuantConnect.Algorithm.QCAlgorithm.OnFrameworkData Pages: 1 -->
<svg width="470pt" height="210pt"
 viewBox="0.00 0.00 470.00 209.50" xmlns="http://www.w3.org/2000/svg" xmlns:xlink="http://www.w3.org/1999/xlink">
<g id="graph0" class="graph" transform="scale(1 1) rotate(0) translate(4 205.5)">
<title>QuantConnect.Algorithm.QCAlgorithm.OnFrameworkData</title>
<polygon fill="white" stroke="transparent" points="-4,4 -4,-205.5 466,-205.5 466,4 -4,4"/>
<!-- Node1 -->
<g id="node1" class="node">
<title>Node1</title>
<g id="a_node1"><a xlink:title="Used to send data updates to algorithm framework models">
<polygon fill="#bfbfbf" stroke="black" points="0,-82.5 0,-112.5 205,-112.5 205,-82.5 0,-82.5"/>
<text text-anchor="start" x="8" y="-100.5" font-family="Helvetica,sans-Serif" font-size="10.00">QuantConnect.Algorithm.QCAlgorithm.</text>
<text text-anchor="middle" x="102.5" y="-89.5" font-family="Helvetica,sans-Serif" font-size="10.00">OnFrameworkData</text>
</a>
</g>
</g>
<!-- Node2 -->
<g id="node2" class="node">
<title>Node2</title>
<g id="a_node2"><a xlink:href="interfaceQuantConnect_1_1Algorithm_1_1Framework_1_1Selection_1_1IUniverseSelectionModel.html#a06a427bb2e736a7ff364c978f2694246" target="_top" xlink:title="Creates the universes for this algorithm. Called once after IAlgorithm.Initialize">
<polygon fill="white" stroke="black" points="241,-160 241,-201 462,-201 462,-160 241,-160"/>
<text text-anchor="start" x="249" y="-189" font-family="Helvetica,sans-Serif" font-size="10.00">QuantConnect.Algorithm.Framework.</text>
<text text-anchor="start" x="249" y="-178" font-family="Helvetica,sans-Serif" font-size="10.00">Selection.IUniverseSelectionModel.Create</text>
<text text-anchor="middle" x="351.5" y="-167" font-family="Helvetica,sans-Serif" font-size="10.00">Universes</text>
</a>
</g>
</g>
<!-- Node1&#45;&gt;Node2 -->
<g id="edge1" class="edge">
<title>Node1&#45;&gt;Node2</title>
<path fill="none" stroke="midnightblue" d="M139.62,-112.57C167.14,-123.77 206.12,-139.03 241,-150.5 247.82,-152.74 254.92,-154.96 262.08,-157.1"/>
<polygon fill="midnightblue" stroke="midnightblue" points="261.28,-160.51 271.86,-159.98 263.25,-153.8 261.28,-160.51"/>
</g>
<!-- Node3 -->
<g id="node3" class="node">
<title>Node3</title>
<g id="a_node3"><a xlink:href="classQuantConnect_1_1Data_1_1UniverseSelection_1_1Universe.html#a4d532fbecdf9760efaac48f454c14de3" target="_top" xlink:title="Marks this universe as disposed and ready to remove all child subscriptions">
<polygon fill="white" stroke="black" points="272.5,-110.5 272.5,-140.5 430.5,-140.5 430.5,-110.5 272.5,-110.5"/>
<text text-anchor="start" x="280.5" y="-128.5" font-family="Helvetica,sans-Serif" font-size="10.00">QuantConnect.Data.Universe</text>
<text text-anchor="middle" x="351.5" y="-117.5" font-family="Helvetica,sans-Serif" font-size="10.00">Selection.Universe.Dispose</text>
</a>
</g>
</g>
<!-- Node1&#45;&gt;Node3 -->
<g id="edge2" class="edge">
<title>Node1&#45;&gt;Node3</title>
<path fill="none" stroke="midnightblue" d="M205.03,-109.01C224.01,-111.16 243.69,-113.39 262.23,-115.49"/>
<polygon fill="midnightblue" stroke="midnightblue" points="262.06,-119 272.39,-116.65 262.85,-112.04 262.06,-119"/>
</g>
<!-- Node4 -->
<g id="node4" class="node">
<title>Node4</title>
<g id="a_node4"><a xlink:href="interfaceQuantConnect_1_1Algorithm_1_1Framework_1_1Selection_1_1IUniverseSelectionModel.html#a14a96ff5037539e6e1ce7b319959a83a" target="_top" xlink:title="Gets the next time the framework should invoke the CreateUniverses method to refresh the set of unive...">
<polygon fill="white" stroke="black" points="248.5,-50 248.5,-91 454.5,-91 454.5,-50 248.5,-50"/>
<text text-anchor="start" x="256.5" y="-79" font-family="Helvetica,sans-Serif" font-size="10.00">QuantConnect.Algorithm.Framework.</text>
<text text-anchor="start" x="256.5" y="-68" font-family="Helvetica,sans-Serif" font-size="10.00">Selection.IUniverseSelectionModel.Get</text>
<text text-anchor="middle" x="351.5" y="-57" font-family="Helvetica,sans-Serif" font-size="10.00">NextRefreshTimeUtc</text>
</a>
</g>
</g>
<!-- Node1&#45;&gt;Node4 -->
<g id="edge3" class="edge">
<title>Node1&#45;&gt;Node4</title>
<path fill="none" stroke="midnightblue" d="M205.03,-86.4C215.93,-85.21 227.07,-83.99 238.09,-82.79"/>
<polygon fill="midnightblue" stroke="midnightblue" points="238.6,-86.25 248.16,-81.69 237.84,-79.29 238.6,-86.25"/>
</g>
<!-- Node5 -->
<g id="node5" class="node">
<title>Node5</title>
<g id="a_node5"><a xlink:href="interfaceQuantConnect_1_1Algorithm_1_1Framework_1_1Alphas_1_1IAlphaModel.html#a936c3ea84bb786f0b089d8939cf50b9f" target="_top" xlink:title="Updates this alpha model with the latest data from the algorithm. This is called each time the algori...">
<polygon fill="white" stroke="black" points="253,-0.5 253,-30.5 450,-30.5 450,-0.5 253,-0.5"/>
<text text-anchor="start" x="261" y="-18.5" font-family="Helvetica,sans-Serif" font-size="10.00">QuantConnect.Algorithm.Framework.</text>
<text text-anchor="middle" x="351.5" y="-7.5" font-family="Helvetica,sans-Serif" font-size="10.00">Alphas.IAlphaModel.Update</text>
</a>
</g>
</g>
<!-- Node1&#45;&gt;Node5 -->
<g id="edge4" class="edge">
<title>Node1&#45;&gt;Node5</title>
<path fill="none" stroke="midnightblue" d="M135.43,-82.46C162.94,-69.94 203.95,-52.32 241,-40.5 249.3,-37.85 258.04,-35.37 266.81,-33.07"/>
<polygon fill="midnightblue" stroke="midnightblue" points="267.88,-36.41 276.71,-30.55 266.15,-29.63 267.88,-36.41"/>
</g>
</g>
</svg>
