<?xml version="1.0" encoding="UTF-8" standalone="no"?>
<!DOCTYPE svg PUBLIC "-//W3C//DTD SVG 1.1//EN"
 "http://www.w3.org/Graphics/SVG/1.1/DTD/svg11.dtd">
<!-- Generated by graphviz version 2.43.0 (0)
 -->
<!-- Title: QuantConnect.Lean.Engine.DataFeeds.SubscriptionUtils.Create Pages: 1 -->
<svg width="679pt" height="137pt"
 viewBox="0.00 0.00 679.00 137.00" xmlns="http://www.w3.org/2000/svg" xmlns:xlink="http://www.w3.org/1999/xlink">
<g id="graph0" class="graph" transform="scale(1 1) rotate(0) translate(4 133)">
<title>QuantConnect.Lean.Engine.DataFeeds.SubscriptionUtils.Create</title>
<polygon fill="white" stroke="transparent" points="-4,4 -4,-133 675,-133 675,4 -4,4"/>
<!-- Node1 -->
<g id="node1" class="node">
<title>Node1</title>
<g id="a_node1"><a xlink:title="Creates a new Subscription which will directly consume the provided enumerator">
<polygon fill="#bfbfbf" stroke="black" points="482,-36 482,-66 671,-66 671,-36 482,-36"/>
<text text-anchor="start" x="490" y="-54" font-family="Helvetica,sans-Serif" font-size="10.00">QuantConnect.Lean.Engine.</text>
<text text-anchor="middle" x="576.5" y="-43" font-family="Helvetica,sans-Serif" font-size="10.00">DataFeeds.SubscriptionUtils.Create</text>
</a>
</g>
</g>
<!-- Node2 -->
<g id="node2" class="node">
<title>Node2</title>
<g id="a_node2"><a xlink:href="classQuantConnect_1_1Lean_1_1Engine_1_1HistoricalData_1_1SynchronizingHistoryProvider.html#a409b17176bc2f0a6d2209167f54fec7e" target="_top" xlink:title="Creates a subscription to process the history request">
<polygon fill="white" stroke="black" points="246,-60.5 246,-101.5 439,-101.5 439,-60.5 246,-60.5"/>
<text text-anchor="start" x="254" y="-89.5" font-family="Helvetica,sans-Serif" font-size="10.00">QuantConnect.Lean.Engine.</text>
<text text-anchor="start" x="254" y="-78.5" font-family="Helvetica,sans-Serif" font-size="10.00">HistoricalData.SynchronizingHistory</text>
<text text-anchor="middle" x="342.5" y="-67.5" font-family="Helvetica,sans-Serif" font-size="10.00">Provider.CreateSubscription</text>
</a>
</g>
</g>
<!-- Node1&#45;&gt;Node2 -->
<g id="edge1" class="edge">
<title>Node1&#45;&gt;Node2</title>
<path fill="none" stroke="midnightblue" d="M471.84,-64.4C460.93,-65.82 449.87,-67.25 439.06,-68.64"/>
<polygon fill="midnightblue" stroke="midnightblue" points="472.34,-67.87 481.81,-63.12 471.44,-60.93 472.34,-67.87"/>
</g>
<!-- Node5 -->
<g id="node5" class="node">
<title>Node5</title>
<g id="a_node5"><a xlink:href="classQuantConnect_1_1Lean_1_1Engine_1_1DataFeeds_1_1FileSystemDataFeed.html#ac148e78fc814fca88c70a1835be51a25" target="_top" xlink:title="Creates a new subscription to provide data for the specified security.">
<polygon fill="white" stroke="black" points="239,-0.5 239,-41.5 446,-41.5 446,-0.5 239,-0.5"/>
<text text-anchor="start" x="247" y="-29.5" font-family="Helvetica,sans-Serif" font-size="10.00">QuantConnect.Lean.Engine.</text>
<text text-anchor="start" x="247" y="-18.5" font-family="Helvetica,sans-Serif" font-size="10.00">DataFeeds.FileSystemDataFeed.Create</text>
<text text-anchor="middle" x="342.5" y="-7.5" font-family="Helvetica,sans-Serif" font-size="10.00">Subscription</text>
</a>
</g>
</g>
<!-- Node1&#45;&gt;Node5 -->
<g id="edge4" class="edge">
<title>Node1&#45;&gt;Node5</title>
<path fill="none" stroke="midnightblue" d="M471.87,-37.6C463.37,-36.5 454.77,-35.39 446.28,-34.29"/>
<polygon fill="midnightblue" stroke="midnightblue" points="471.44,-41.07 481.81,-38.88 472.34,-34.13 471.44,-41.07"/>
</g>
<!-- Node3 -->
<g id="node3" class="node">
<title>Node3</title>
<g id="a_node3"><a xlink:href="classQuantConnect_1_1Lean_1_1Engine_1_1HistoricalData_1_1BrokerageHistoryProvider.html#a9cf173b48c88a0a8568f1bf9dbdd2573" target="_top" xlink:title="Gets the history for the requested securities">
<polygon fill="white" stroke="black" points="14.5,-87.5 14.5,-128.5 188.5,-128.5 188.5,-87.5 14.5,-87.5"/>
<text text-anchor="start" x="22.5" y="-116.5" font-family="Helvetica,sans-Serif" font-size="10.00">QuantConnect.Lean.Engine.</text>
<text text-anchor="start" x="22.5" y="-105.5" font-family="Helvetica,sans-Serif" font-size="10.00">HistoricalData.BrokerageHistory</text>
<text text-anchor="middle" x="101.5" y="-94.5" font-family="Helvetica,sans-Serif" font-size="10.00">Provider.GetHistory</text>
</a>
</g>
</g>
<!-- Node2&#45;&gt;Node3 -->
<g id="edge2" class="edge">
<title>Node2&#45;&gt;Node3</title>
<path fill="none" stroke="midnightblue" d="M235.45,-92.98C219.81,-94.75 203.87,-96.55 188.7,-98.26"/>
<polygon fill="midnightblue" stroke="midnightblue" points="236.12,-96.43 245.67,-91.83 235.34,-89.47 236.12,-96.43"/>
</g>
<!-- Node4 -->
<g id="node4" class="node">
<title>Node4</title>
<g id="a_node4"><a xlink:href="classQuantConnect_1_1ToolBox_1_1Polygon_1_1PolygonDataQueueHandler.html#a7eebc6d5e6b81722fd34cf869eac34b1" target="_top" xlink:title="Gets the history for the requested securities">
<polygon fill="white" stroke="black" points="0,-38 0,-68 203,-68 203,-38 0,-38"/>
<text text-anchor="start" x="8" y="-56" font-family="Helvetica,sans-Serif" font-size="10.00">QuantConnect.ToolBox.Polygon.</text>
<text text-anchor="middle" x="101.5" y="-45" font-family="Helvetica,sans-Serif" font-size="10.00">PolygonDataQueueHandler.GetHistory</text>
</a>
</g>
</g>
<!-- Node2&#45;&gt;Node4 -->
<g id="edge3" class="edge">
<title>Node2&#45;&gt;Node4</title>
<path fill="none" stroke="midnightblue" d="M235.41,-68.57C224.65,-67.31 213.74,-66.03 203.05,-64.78"/>
<polygon fill="midnightblue" stroke="midnightblue" points="235.33,-72.09 245.67,-69.77 236.14,-65.13 235.33,-72.09"/>
</g>
</g>
</svg>
