<?xml version="1.0" encoding="UTF-8" standalone="no"?>
<!DOCTYPE svg PUBLIC "-//W3C//DTD SVG 1.1//EN"
 "http://www.w3.org/Graphics/SVG/1.1/DTD/svg11.dtd">
<!-- Generated by graphviz version 2.43.0 (0)
 -->
<!-- Title: QuantConnect.Securities.Future.FutureSettlementModel.SetLocalDateTimeFrontier Pages: 1 -->
<svg width="396pt" height="50pt"
 viewBox="0.00 0.00 396.00 50.00" xmlns="http://www.w3.org/2000/svg" xmlns:xlink="http://www.w3.org/1999/xlink">
<g id="graph0" class="graph" transform="scale(1 1) rotate(0) translate(4 46)">
<title>QuantConnect.Securities.Future.FutureSettlementModel.SetLocalDateTimeFrontier</title>
<polygon fill="white" stroke="transparent" points="-4,4 -4,-46 392,-46 392,4 -4,4"/>
<!-- Node1 -->
<g id="node1" class="node">
<title>Node1</title>
<g id="a_node1"><a xlink:title="Set the current datetime in terms of the exchange&#39;s local time zone">
<polygon fill="#bfbfbf" stroke="black" points="220,-0.5 220,-41.5 388,-41.5 388,-0.5 220,-0.5"/>
<text text-anchor="start" x="228" y="-29.5" font-family="Helvetica,sans-Serif" font-size="10.00">QuantConnect.Securities.</text>
<text text-anchor="start" x="228" y="-18.5" font-family="Helvetica,sans-Serif" font-size="10.00">Future.FutureSettlementModel.</text>
<text text-anchor="middle" x="304" y="-7.5" font-family="Helvetica,sans-Serif" font-size="10.00">SetLocalDateTimeFrontier</text>
</a>
</g>
</g>
<!-- Node2 -->
<g id="node2" class="node">
<title>Node2</title>
<g id="a_node2"><a xlink:href="classQuantConnect_1_1Securities_1_1Future_1_1Future.html#a4ea11383ebb0751b2e897c719f73a3c3" target="_top" xlink:title="Sets the LocalTimeKeeper to be used for this Security. This is the source of this instance&#39;s time.">
<polygon fill="white" stroke="black" points="0,-6 0,-36 184,-36 184,-6 0,-6"/>
<text text-anchor="start" x="8" y="-24" font-family="Helvetica,sans-Serif" font-size="10.00">QuantConnect.Securities.</text>
<text text-anchor="middle" x="92" y="-13" font-family="Helvetica,sans-Serif" font-size="10.00">Future.Future.SetLocalTimeKeeper</text>
</a>
</g>
</g>
<!-- Node1&#45;&gt;Node2 -->
<g id="edge1" class="edge">
<title>Node1&#45;&gt;Node2</title>
<path fill="none" stroke="midnightblue" d="M209.49,-21C201.07,-21 192.55,-21 184.15,-21"/>
<polygon fill="midnightblue" stroke="midnightblue" points="209.7,-24.5 219.7,-21 209.7,-17.5 209.7,-24.5"/>
</g>
</g>
</svg>
