<?xml version="1.0" encoding="UTF-8" standalone="no"?>
<!DOCTYPE svg PUBLIC "-//W3C//DTD SVG 1.1//EN"
 "http://www.w3.org/Graphics/SVG/1.1/DTD/svg11.dtd">
<!-- Generated by graphviz version 2.43.0 (0)
 -->
<!-- Title: QuantConnect.Lean.Engine.DataFeeds.Enumerators.SplitEventProvider.GetEvents Pages: 1 -->
<svg width="390pt" height="50pt"
 viewBox="0.00 0.00 390.00 50.00" xmlns="http://www.w3.org/2000/svg" xmlns:xlink="http://www.w3.org/1999/xlink">
<g id="graph0" class="graph" transform="scale(1 1) rotate(0) translate(4 46)">
<title>QuantConnect.Lean.Engine.DataFeeds.Enumerators.SplitEventProvider.GetEvents</title>
<polygon fill="white" stroke="transparent" points="-4,4 -4,-46 386,-46 386,4 -4,4"/>
<!-- Node1 -->
<g id="node1" class="node">
<title>Node1</title>
<g id="a_node1"><a xlink:title="Check for new splits">
<polygon fill="#bfbfbf" stroke="black" points="0,-0.5 0,-41.5 186,-41.5 186,-0.5 0,-0.5"/>
<text text-anchor="start" x="8" y="-29.5" font-family="Helvetica,sans-Serif" font-size="10.00">QuantConnect.Lean.Engine.</text>
<text text-anchor="start" x="8" y="-18.5" font-family="Helvetica,sans-Serif" font-size="10.00">DataFeeds.Enumerators.SplitEvent</text>
<text text-anchor="middle" x="93" y="-7.5" font-family="Helvetica,sans-Serif" font-size="10.00">Provider.GetEvents</text>
</a>
</g>
</g>
<!-- Node2 -->
<g id="node2" class="node">
<title>Node2</title>
<g id="a_node2"><a xlink:href="classQuantConnect_1_1Data_1_1Auxiliary_1_1MapFile.html#a0450eb9556a318d62727d594e8570e25" target="_top" xlink:title="Determines if there&#39;s data for the requested date">
<polygon fill="white" stroke="black" points="222,-6 222,-36 382,-36 382,-6 222,-6"/>
<text text-anchor="start" x="230" y="-24" font-family="Helvetica,sans-Serif" font-size="10.00">QuantConnect.Data.Auxiliary.</text>
<text text-anchor="middle" x="302" y="-13" font-family="Helvetica,sans-Serif" font-size="10.00">MapFile.HasData</text>
</a>
</g>
</g>
<!-- Node1&#45;&gt;Node2 -->
<g id="edge1" class="edge">
<title>Node1&#45;&gt;Node2</title>
<path fill="none" stroke="midnightblue" d="M186.3,-21C194.73,-21 203.26,-21 211.67,-21"/>
<polygon fill="midnightblue" stroke="midnightblue" points="211.84,-24.5 221.84,-21 211.84,-17.5 211.84,-24.5"/>
</g>
</g>
</svg>
