<?xml version="1.0" encoding="UTF-8" standalone="no"?>
<!DOCTYPE svg PUBLIC "-//W3C//DTD SVG 1.1//EN"
 "http://www.w3.org/Graphics/SVG/1.1/DTD/svg11.dtd">
<!-- Generated by graphviz version 2.43.0 (0)
 -->
<!-- Title: QuantConnect.Util.ObjectActivator.AddActivator Pages: 1 -->
<svg width="329pt" height="39pt"
 viewBox="0.00 0.00 329.00 39.00" xmlns="http://www.w3.org/2000/svg" xmlns:xlink="http://www.w3.org/1999/xlink">
<g id="graph0" class="graph" transform="scale(1 1) rotate(0) translate(4 35)">
<title>QuantConnect.Util.ObjectActivator.AddActivator</title>
<polygon fill="white" stroke="transparent" points="-4,4 -4,-35 325,-35 325,4 -4,4"/>
<!-- Node1 -->
<g id="node1" class="node">
<title>Node1</title>
<g id="a_node1"><a xlink:title="Adds method to return an instance of object">
<polygon fill="#bfbfbf" stroke="black" points="181,-0.5 181,-30.5 321,-30.5 321,-0.5 181,-0.5"/>
<text text-anchor="start" x="189" y="-18.5" font-family="Helvetica,sans-Serif" font-size="10.00">QuantConnect.Util.Object</text>
<text text-anchor="middle" x="251" y="-7.5" font-family="Helvetica,sans-Serif" font-size="10.00">Activator.AddActivator</text>
</a>
</g>
</g>
<!-- Node2 -->
<g id="node2" class="node">
<title>Node2</title>
<g id="a_node2"><a xlink:href="classQuantConnect_1_1Extensions.html#addaac2d24d103331d55443b8306cc8ba" target="_top" xlink:title="Creates a type with a given name, if PyObject is not a CLR type. Otherwise, convert it.">
<polygon fill="white" stroke="black" points="0,-0.5 0,-30.5 145,-30.5 145,-0.5 0,-0.5"/>
<text text-anchor="start" x="8" y="-18.5" font-family="Helvetica,sans-Serif" font-size="10.00">QuantConnect.Extensions.</text>
<text text-anchor="middle" x="72.5" y="-7.5" font-family="Helvetica,sans-Serif" font-size="10.00">CreateType</text>
</a>
</g>
</g>
<!-- Node1&#45;&gt;Node2 -->
<g id="edge1" class="edge">
<title>Node1&#45;&gt;Node2</title>
<path fill="none" stroke="midnightblue" d="M170.52,-15.5C162.07,-15.5 153.52,-15.5 145.17,-15.5"/>
<polygon fill="midnightblue" stroke="midnightblue" points="170.75,-19 180.75,-15.5 170.75,-12 170.75,-19"/>
</g>
</g>
</svg>
