<?xml version="1.0" encoding="UTF-8" standalone="no"?>
<!DOCTYPE svg PUBLIC "-//W3C//DTD SVG 1.1//EN"
 "http://www.w3.org/Graphics/SVG/1.1/DTD/svg11.dtd">
<!-- Generated by graphviz version 2.43.0 (0)
 -->
<!-- Title: QuantConnect.Securities.SecurityExchange.SetLocalDateTimeFrontier Pages: 1 -->
<svg width="679pt" height="50pt"
 viewBox="0.00 0.00 679.00 50.00" xmlns="http://www.w3.org/2000/svg" xmlns:xlink="http://www.w3.org/1999/xlink">
<g id="graph0" class="graph" transform="scale(1 1) rotate(0) translate(4 46)">
<title>QuantConnect.Securities.SecurityExchange.SetLocalDateTimeFrontier</title>
<polygon fill="white" stroke="transparent" points="-4,4 -4,-46 675,-46 675,4 -4,4"/>
<!-- Node1 -->
<g id="node1" class="node">
<title>Node1</title>
<g id="a_node1"><a xlink:title="Set the current datetime in terms of the exchange&#39;s local time zone">
<polygon fill="#bfbfbf" stroke="black" points="500,-0.5 500,-41.5 671,-41.5 671,-0.5 500,-0.5"/>
<text text-anchor="start" x="508" y="-29.5" font-family="Helvetica,sans-Serif" font-size="10.00">QuantConnect.Securities.</text>
<text text-anchor="start" x="508" y="-18.5" font-family="Helvetica,sans-Serif" font-size="10.00">SecurityExchange.SetLocalDate</text>
<text text-anchor="middle" x="585.5" y="-7.5" font-family="Helvetica,sans-Serif" font-size="10.00">TimeFrontier</text>
</a>
</g>
</g>
<!-- Node2 -->
<g id="node2" class="node">
<title>Node2</title>
<g id="a_node2"><a xlink:href="classQuantConnect_1_1Brokerages_1_1TradierBrokerageModel.html#a16fcd860e1d830e23658480625c26c2e" target="_top" xlink:title="Returns true if the brokerage would be able to execute this order at this time assuming market prices...">
<polygon fill="white" stroke="black" points="248,-6 248,-36 464,-36 464,-6 248,-6"/>
<text text-anchor="start" x="256" y="-24" font-family="Helvetica,sans-Serif" font-size="10.00">QuantConnect.Brokerages.</text>
<text text-anchor="middle" x="356" y="-13" font-family="Helvetica,sans-Serif" font-size="10.00">TradierBrokerageModel.CanExecuteOrder</text>
</a>
</g>
</g>
<!-- Node1&#45;&gt;Node2 -->
<g id="edge1" class="edge">
<title>Node1&#45;&gt;Node2</title>
<path fill="none" stroke="midnightblue" d="M489.61,-21C481.2,-21 472.65,-21 464.15,-21"/>
<polygon fill="midnightblue" stroke="midnightblue" points="489.79,-24.5 499.79,-21 489.79,-17.5 489.79,-24.5"/>
</g>
<!-- Node3 -->
<g id="node3" class="node">
<title>Node3</title>
<g id="a_node3"><a xlink:href="classQuantConnect_1_1Brokerages_1_1TradierBrokerageModel.html#a5cafb36dfeec2e93a72842cc12ee9ec3" target="_top" xlink:title="Returns true if the brokerage could accept this order. This takes into account order type,...">
<polygon fill="white" stroke="black" points="0,-6 0,-36 212,-36 212,-6 0,-6"/>
<text text-anchor="start" x="8" y="-24" font-family="Helvetica,sans-Serif" font-size="10.00">QuantConnect.Brokerages.</text>
<text text-anchor="middle" x="106" y="-13" font-family="Helvetica,sans-Serif" font-size="10.00">TradierBrokerageModel.CanSubmitOrder</text>
</a>
</g>
</g>
<!-- Node2&#45;&gt;Node3 -->
<g id="edge2" class="edge">
<title>Node2&#45;&gt;Node3</title>
<path fill="none" stroke="midnightblue" d="M237.41,-21C228.97,-21 220.5,-21 212.14,-21"/>
<polygon fill="midnightblue" stroke="midnightblue" points="237.67,-24.5 247.67,-21 237.67,-17.5 237.67,-24.5"/>
</g>
</g>
</svg>
