<?xml version="1.0" encoding="UTF-8" standalone="no"?>
<!DOCTYPE svg PUBLIC "-//W3C//DTD SVG 1.1//EN"
 "http://www.w3.org/Graphics/SVG/1.1/DTD/svg11.dtd">
<!-- Generated by graphviz version 2.43.0 (0)
 -->
<!-- Title: QuantConnect.Data.Fundamental.CashPaidforInsuranceActivitiesCashFlowStatement Pages: 1 -->
<svg width="199pt" height="162pt"
 viewBox="0.00 0.00 199.00 162.00" xmlns="http://www.w3.org/2000/svg" xmlns:xlink="http://www.w3.org/1999/xlink">
<g id="graph0" class="graph" transform="scale(1 1) rotate(0) translate(4 158)">
<title>QuantConnect.Data.Fundamental.CashPaidforInsuranceActivitiesCashFlowStatement</title>
<polygon fill="white" stroke="transparent" points="-4,4 -4,-158 195,-158 195,4 -4,4"/>
<!-- Node1 -->
<g id="node1" class="node">
<title>Node1</title>
<g id="a_node1"><a xlink:title="Cash paid out for insurance activities during the period in operating cash flow, using the direct met...">
<polygon fill="#bfbfbf" stroke="black" points="0,-0.5 0,-41.5 191,-41.5 191,-0.5 0,-0.5"/>
<text text-anchor="start" x="8" y="-29.5" font-family="Helvetica,sans-Serif" font-size="10.00">QuantConnect.Data.Fundamental.</text>
<text text-anchor="start" x="8" y="-18.5" font-family="Helvetica,sans-Serif" font-size="10.00">CashPaidforInsuranceActivitiesCash</text>
<text text-anchor="middle" x="95.5" y="-7.5" font-family="Helvetica,sans-Serif" font-size="10.00">FlowStatement</text>
</a>
</g>
</g>
<!-- Node2 -->
<g id="node2" class="node">
<title>Node2</title>
<g id="a_node2"><a xlink:href="classQuantConnect_1_1Data_1_1Fundamental_1_1MultiPeriodField.html" target="_top" xlink:title="Abstract base class for multi&#45;period fields">
<polygon fill="white" stroke="black" points="48,-78.5 48,-97.5 143,-97.5 143,-78.5 48,-78.5"/>
<text text-anchor="middle" x="95.5" y="-85.5" font-family="Helvetica,sans-Serif" font-size="10.00">MultiPeriodField</text>
</a>
</g>
</g>
<!-- Node2&#45;&gt;Node1 -->
<g id="edge1" class="edge">
<title>Node2&#45;&gt;Node1</title>
<path fill="none" stroke="midnightblue" d="M95.5,-68.04C95.5,-59.71 95.5,-49.94 95.5,-41.54"/>
<polygon fill="midnightblue" stroke="midnightblue" points="92,-68.23 95.5,-78.23 99,-68.23 92,-68.23"/>
</g>
<!-- Node3 -->
<g id="node3" class="node">
<title>Node3</title>
<g id="a_node3"><a xlink:title=" ">
<polygon fill="white" stroke="#bfbfbf" points="36.5,-134.5 36.5,-153.5 154.5,-153.5 154.5,-134.5 36.5,-134.5"/>
<text text-anchor="middle" x="95.5" y="-141.5" font-family="Helvetica,sans-Serif" font-size="10.00">ReusuableCLRObject</text>
</a>
</g>
</g>
<!-- Node3&#45;&gt;Node2 -->
<g id="edge2" class="edge">
<title>Node3&#45;&gt;Node2</title>
<path fill="none" stroke="midnightblue" d="M95.5,-123.8C95.5,-114.91 95.5,-104.78 95.5,-97.75"/>
<polygon fill="midnightblue" stroke="midnightblue" points="92,-124.08 95.5,-134.08 99,-124.08 92,-124.08"/>
</g>
</g>
</svg>
