<?xml version="1.0" encoding="UTF-8" standalone="no"?>
<!DOCTYPE svg PUBLIC "-//W3C//DTD SVG 1.1//EN"
 "http://www.w3.org/Graphics/SVG/1.1/DTD/svg11.dtd">
<!-- Generated by graphviz version 2.43.0 (0)
 -->
<!-- Title: QuantConnect.Securities.FutureOption.FuturesOptionsExpiryFunctions.GetFutureOptionExpiryFromFutureExpiry Pages: 1 -->
<svg width="1882pt" height="489pt"
 viewBox="0.00 0.00 1882.00 488.50" xmlns="http://www.w3.org/2000/svg" xmlns:xlink="http://www.w3.org/1999/xlink">
<g id="graph0" class="graph" transform="scale(1 1) rotate(0) translate(4 484.5)">
<title>QuantConnect.Securities.FutureOption.FuturesOptionsExpiryFunctions.GetFutureOptionExpiryFromFutureExpiry</title>
<polygon fill="white" stroke="transparent" points="-4,4 -4,-484.5 1878,-484.5 1878,4 -4,4"/>
<!-- Node1 -->
<g id="node1" class="node">
<title>Node1</title>
<g id="a_node1"><a xlink:title="Gets the Future Option&#39;s expiry from the Future Symbol provided">
<polygon fill="#bfbfbf" stroke="black" points="0,-282.5 0,-323.5 263,-323.5 263,-282.5 0,-282.5"/>
<text text-anchor="start" x="8" y="-311.5" font-family="Helvetica,sans-Serif" font-size="10.00">QuantConnect.Securities.</text>
<text text-anchor="start" x="8" y="-300.5" font-family="Helvetica,sans-Serif" font-size="10.00">FutureOption.FuturesOptionsExpiry</text>
<text text-anchor="middle" x="131.5" y="-289.5" font-family="Helvetica,sans-Serif" font-size="10.00">Functions.GetFutureOptionExpiryFromFutureExpiry</text>
</a>
</g>
</g>
<!-- Node2 -->
<g id="node2" class="node">
<title>Node2</title>
<g id="a_node2"><a xlink:href="classQuantConnect_1_1Symbol.html#a350b9a625cf7bad95da82894be3cd0a8" target="_top" xlink:title="Provides a convenience method for creating a Symbol for most security types. This method currently do...">
<polygon fill="white" stroke="black" points="534,-269.5 534,-288.5 695,-288.5 695,-269.5 534,-269.5"/>
<text text-anchor="middle" x="614.5" y="-276.5" font-family="Helvetica,sans-Serif" font-size="10.00">QuantConnect.Symbol.Create</text>
</a>
</g>
</g>
<!-- Node1&#45;&gt;Node2 -->
<g id="edge1" class="edge">
<title>Node1&#45;&gt;Node2</title>
<path fill="none" stroke="midnightblue" d="M263.3,-296.47C345.93,-292.35 450.55,-287.13 523.83,-283.47"/>
<polygon fill="midnightblue" stroke="midnightblue" points="524.15,-286.96 533.96,-282.97 523.8,-279.97 524.15,-286.96"/>
</g>
<!-- Node3 -->
<g id="node3" class="node">
<title>Node3</title>
<g id="a_node3"><a xlink:href="classQuantConnect_1_1Symbol.html#a7518a1932d1babbff128f2ba9666a78b" target="_top" xlink:title="Provides a convenience method for creating an option Symbol.">
<polygon fill="white" stroke="black" points="749.5,-450 749.5,-480 910.5,-480 910.5,-450 749.5,-450"/>
<text text-anchor="start" x="757.5" y="-468" font-family="Helvetica,sans-Serif" font-size="10.00">QuantConnect.Symbol.Create</text>
<text text-anchor="middle" x="830" y="-457" font-family="Helvetica,sans-Serif" font-size="10.00">Option</text>
</a>
</g>
</g>
<!-- Node1&#45;&gt;Node3 -->
<g id="edge19" class="edge">
<title>Node1&#45;&gt;Node3</title>
<path fill="none" stroke="midnightblue" d="M181.91,-323.62C254.9,-353.15 396.47,-406.91 522,-434 594.17,-449.57 677.62,-457.36 739.28,-461.24"/>
<polygon fill="midnightblue" stroke="midnightblue" points="739.18,-464.74 749.37,-461.85 739.6,-457.75 739.18,-464.74"/>
</g>
<!-- Node8 -->
<g id="node8" class="node">
<title>Node8</title>
<g id="a_node8"><a xlink:href="classQuantConnect_1_1Securities_1_1Future_1_1FuturesExpiryUtilityFunctions.html#a4ccb1e2f2fe40ff09785a74a02f26df1" target="_top" xlink:title="Gets the number of months between the contract month and the expiry date.">
<polygon fill="white" stroke="black" points="1608,-25.5 1608,-66.5 1874,-66.5 1874,-25.5 1608,-25.5"/>
<text text-anchor="start" x="1616" y="-54.5" font-family="Helvetica,sans-Serif" font-size="10.00">QuantConnect.Securities.</text>
<text text-anchor="start" x="1616" y="-43.5" font-family="Helvetica,sans-Serif" font-size="10.00">Future.FuturesExpiryUtilityFunctions.</text>
<text text-anchor="middle" x="1741" y="-32.5" font-family="Helvetica,sans-Serif" font-size="10.00">GetDeltaBetweenContractMonthAndContractExpiry</text>
</a>
</g>
</g>
<!-- Node1&#45;&gt;Node8 -->
<g id="edge25" class="edge">
<title>Node1&#45;&gt;Node8</title>
<path fill="none" stroke="midnightblue" d="M149.23,-282.17C206.26,-213.72 401.31,0 613.5,0 613.5,0 613.5,0 1249,0 1366.95,0 1500.15,-13.32 1598.03,-25.63"/>
<polygon fill="midnightblue" stroke="midnightblue" points="1597.62,-29.1 1607.98,-26.89 1598.5,-22.16 1597.62,-29.1"/>
</g>
<!-- Node18 -->
<g id="node18" class="node">
<title>Node18</title>
<g id="a_node18"><a xlink:href="classQuantConnect_1_1Securities_1_1FutureOption_1_1FuturesOptionsExpiryFunctions.html#af3cfd4b1910ae9ed1d89c96316ff341a" target="_top" xlink:title="Gets the Futures Options&#39; expiry for the given contract month.">
<polygon fill="white" stroke="black" points="299,-307.5 299,-348.5 486,-348.5 486,-307.5 299,-307.5"/>
<text text-anchor="start" x="307" y="-336.5" font-family="Helvetica,sans-Serif" font-size="10.00">QuantConnect.Securities.</text>
<text text-anchor="start" x="307" y="-325.5" font-family="Helvetica,sans-Serif" font-size="10.00">FutureOption.FuturesOptionsExpiry</text>
<text text-anchor="middle" x="392.5" y="-314.5" font-family="Helvetica,sans-Serif" font-size="10.00">Functions.FuturesOptionExpiry</text>
</a>
</g>
</g>
<!-- Node1&#45;&gt;Node18 -->
<g id="edge20" class="edge">
<title>Node1&#45;&gt;Node18</title>
<path fill="none" stroke="midnightblue" d="M263.14,-315.61C271.72,-316.44 280.29,-317.27 288.71,-318.08"/>
<polygon fill="midnightblue" stroke="midnightblue" points="288.6,-321.58 298.89,-319.06 289.27,-314.62 288.6,-321.58"/>
</g>
<!-- Node2&#45;&gt;Node3 -->
<g id="edge2" class="edge">
<title>Node2&#45;&gt;Node3</title>
<path fill="none" stroke="midnightblue" d="M694.03,-288.7C698.75,-291.23 703.14,-294.29 707,-298 754.3,-343.36 697.25,-394.07 743,-441 743.94,-441.97 744.92,-442.9 745.93,-443.79"/>
<polygon fill="midnightblue" stroke="midnightblue" points="744.13,-446.81 754.25,-449.94 748.29,-441.18 744.13,-446.81"/>
</g>
<!-- Node4 -->
<g id="node4" class="node">
<title>Node4</title>
<g id="a_node4"><a xlink:href="classQuantConnect_1_1SecurityIdentifier.html#a0c21d7880c9fdd260883d11ea0c99a00" target="_top" xlink:title="Helper overload that will search the mapfiles to resolve the first date. This implementation uses the...">
<polygon fill="white" stroke="black" points="953,-379 953,-409 1127,-409 1127,-379 953,-379"/>
<text text-anchor="start" x="961" y="-397" font-family="Helvetica,sans-Serif" font-size="10.00">QuantConnect.SecurityIdentifier.</text>
<text text-anchor="middle" x="1040" y="-386" font-family="Helvetica,sans-Serif" font-size="10.00">GenerateEquity</text>
</a>
</g>
</g>
<!-- Node2&#45;&gt;Node4 -->
<g id="edge14" class="edge">
<title>Node2&#45;&gt;Node4</title>
<path fill="none" stroke="midnightblue" d="M661.59,-288.51C676.12,-291.53 692.24,-294.89 707,-298 800.4,-317.7 825.91,-314.47 917,-343 944.73,-351.68 974.86,-364.25 998.24,-374.73"/>
<polygon fill="midnightblue" stroke="midnightblue" points="996.94,-377.99 1007.49,-378.93 999.83,-371.61 996.94,-377.99"/>
</g>
<!-- Node5 -->
<g id="node5" class="node">
<title>Node5</title>
<g id="a_node5"><a xlink:href="classQuantConnect_1_1Symbol.html#a59158f74116be3dad0ea0f3f3f134416" target="_top" xlink:title="Initializes a new instance of the Symbol class">
<polygon fill="white" stroke="black" points="957.5,-225.5 957.5,-244.5 1122.5,-244.5 1122.5,-225.5 957.5,-225.5"/>
<text text-anchor="middle" x="1040" y="-232.5" font-family="Helvetica,sans-Serif" font-size="10.00">QuantConnect.Symbol.Symbol</text>
</a>
</g>
</g>
<!-- Node2&#45;&gt;Node5 -->
<g id="edge18" class="edge">
<title>Node2&#45;&gt;Node5</title>
<path fill="none" stroke="midnightblue" d="M658.96,-269.49C683.52,-264.46 714.85,-258.59 743,-255 811.08,-246.32 888.48,-241.26 947.06,-238.4"/>
<polygon fill="midnightblue" stroke="midnightblue" points="947.58,-241.88 957.4,-237.91 947.24,-234.89 947.58,-241.88"/>
</g>
<!-- Node10 -->
<g id="node10" class="node">
<title>Node10</title>
<g id="a_node10"><a xlink:href="classQuantConnect_1_1SecurityIdentifier.html#a02ca750115844561c001c2346fbafc00" target="_top" xlink:title="Generates a new SecurityIdentifier for a custom security with the option of providing the first date">
<polygon fill="white" stroke="black" points="743,-176 743,-206 917,-206 917,-176 743,-176"/>
<text text-anchor="start" x="751" y="-194" font-family="Helvetica,sans-Serif" font-size="10.00">QuantConnect.SecurityIdentifier.</text>
<text text-anchor="middle" x="830" y="-183" font-family="Helvetica,sans-Serif" font-size="10.00">GenerateBase</text>
</a>
</g>
</g>
<!-- Node2&#45;&gt;Node10 -->
<g id="edge9" class="edge">
<title>Node2&#45;&gt;Node10</title>
<path fill="none" stroke="midnightblue" d="M635.13,-269.39C659.97,-257.4 704.18,-236.56 743,-221 752.79,-217.08 763.31,-213.16 773.53,-209.52"/>
<polygon fill="midnightblue" stroke="midnightblue" points="774.92,-212.74 783.19,-206.11 772.59,-206.13 774.92,-212.74"/>
</g>
<!-- Node12 -->
<g id="node12" class="node">
<title>Node12</title>
<g id="a_node12"><a xlink:href="classQuantConnect_1_1SecurityIdentifier.html#a53953b18d814c5445e4ecdcb3b555080" target="_top" xlink:title="Generates a new SecurityIdentifier for a CFD security">
<polygon fill="white" stroke="black" points="743,-127 743,-157 917,-157 917,-127 743,-127"/>
<text text-anchor="start" x="751" y="-145" font-family="Helvetica,sans-Serif" font-size="10.00">QuantConnect.SecurityIdentifier.</text>
<text text-anchor="middle" x="830" y="-134" font-family="Helvetica,sans-Serif" font-size="10.00">GenerateCfd</text>
</a>
</g>
</g>
<!-- Node2&#45;&gt;Node12 -->
<g id="edge11" class="edge">
<title>Node2&#45;&gt;Node12</title>
<path fill="none" stroke="midnightblue" d="M623.68,-269.21C642.45,-247.35 691.05,-194.29 743,-166 746.42,-164.14 750.01,-162.4 753.68,-160.8"/>
<polygon fill="midnightblue" stroke="midnightblue" points="755,-164.04 762.97,-157.07 752.39,-157.55 755,-164.04"/>
</g>
<!-- Node13 -->
<g id="node13" class="node">
<title>Node13</title>
<g id="a_node13"><a xlink:href="classQuantConnect_1_1SecurityIdentifier.html#a5889a95a36ce927dd0a109cbfbcbe663" target="_top" xlink:title="Generates a new SecurityIdentifier for a Crypto pair">
<polygon fill="white" stroke="black" points="743,-78 743,-108 917,-108 917,-78 743,-78"/>
<text text-anchor="start" x="751" y="-96" font-family="Helvetica,sans-Serif" font-size="10.00">QuantConnect.SecurityIdentifier.</text>
<text text-anchor="middle" x="830" y="-85" font-family="Helvetica,sans-Serif" font-size="10.00">GenerateCrypto</text>
</a>
</g>
</g>
<!-- Node2&#45;&gt;Node13 -->
<g id="edge12" class="edge">
<title>Node2&#45;&gt;Node13</title>
<path fill="none" stroke="midnightblue" d="M620.31,-269.23C634.73,-241 680.47,-158.7 743,-117 745.42,-115.39 747.94,-113.88 750.55,-112.48"/>
<polygon fill="midnightblue" stroke="midnightblue" points="752.18,-115.58 759.66,-108.08 749.13,-109.27 752.18,-115.58"/>
</g>
<!-- Node14 -->
<g id="node14" class="node">
<title>Node14</title>
<g id="a_node14"><a xlink:href="classQuantConnect_1_1SecurityIdentifier.html#ac665665a16d5449872fed3427b95a260" target="_top" xlink:title="Generates a new SecurityIdentifier for a CryptoFuture pair">
<polygon fill="white" stroke="black" points="743,-29 743,-59 917,-59 917,-29 743,-29"/>
<text text-anchor="start" x="751" y="-47" font-family="Helvetica,sans-Serif" font-size="10.00">QuantConnect.SecurityIdentifier.</text>
<text text-anchor="middle" x="830" y="-36" font-family="Helvetica,sans-Serif" font-size="10.00">GenerateCryptoFuture</text>
</a>
</g>
</g>
<!-- Node2&#45;&gt;Node14 -->
<g id="edge13" class="edge">
<title>Node2&#45;&gt;Node14</title>
<path fill="none" stroke="midnightblue" d="M618.47,-269.25C629.23,-235.69 669.39,-123.93 743,-68 744.86,-66.59 746.79,-65.26 748.79,-64.01"/>
<polygon fill="midnightblue" stroke="midnightblue" points="750.81,-66.9 757.9,-59.02 747.44,-60.76 750.81,-66.9"/>
</g>
<!-- Node15 -->
<g id="node15" class="node">
<title>Node15</title>
<g id="a_node15"><a xlink:href="classQuantConnect_1_1SecurityIdentifier.html#a9cf0d3b208a5171e6112516ce441f18d" target="_top" xlink:title="Generates a new SecurityIdentifier for a forex pair">
<polygon fill="white" stroke="black" points="743,-401 743,-431 917,-431 917,-401 743,-401"/>
<text text-anchor="start" x="751" y="-419" font-family="Helvetica,sans-Serif" font-size="10.00">QuantConnect.SecurityIdentifier.</text>
<text text-anchor="middle" x="830" y="-408" font-family="Helvetica,sans-Serif" font-size="10.00">GenerateForex</text>
</a>
</g>
</g>
<!-- Node2&#45;&gt;Node15 -->
<g id="edge15" class="edge">
<title>Node2&#45;&gt;Node15</title>
<path fill="none" stroke="midnightblue" d="M692.22,-288.59C697.54,-291.12 702.55,-294.22 707,-298 741.08,-326.99 709.92,-361.88 743,-392 744.3,-393.18 745.65,-394.31 747.05,-395.38"/>
<polygon fill="midnightblue" stroke="midnightblue" points="745.25,-398.38 755.53,-400.93 749.08,-392.53 745.25,-398.38"/>
</g>
<!-- Node16 -->
<g id="node16" class="node">
<title>Node16</title>
<g id="a_node16"><a xlink:href="classQuantConnect_1_1SecurityIdentifier.html#ad50a891c97cb0c084a9e2aa43607ed66" target="_top" xlink:title="Generates a new SecurityIdentifier for a future">
<polygon fill="white" stroke="black" points="743,-352 743,-382 917,-382 917,-352 743,-352"/>
<text text-anchor="start" x="751" y="-370" font-family="Helvetica,sans-Serif" font-size="10.00">QuantConnect.SecurityIdentifier.</text>
<text text-anchor="middle" x="830" y="-359" font-family="Helvetica,sans-Serif" font-size="10.00">GenerateFuture</text>
</a>
</g>
</g>
<!-- Node2&#45;&gt;Node16 -->
<g id="edge16" class="edge">
<title>Node2&#45;&gt;Node16</title>
<path fill="none" stroke="midnightblue" d="M685.13,-288.65C692.77,-291.1 700.22,-294.16 707,-298 727.53,-309.62 723.28,-324.06 743,-337 749.41,-341.21 756.49,-344.9 763.74,-348.12"/>
<polygon fill="midnightblue" stroke="midnightblue" points="762.4,-351.35 772.98,-351.94 765.08,-344.88 762.4,-351.35"/>
</g>
<!-- Node17 -->
<g id="node17" class="node">
<title>Node17</title>
<g id="a_node17"><a xlink:href="classQuantConnect_1_1SecurityIdentifier.html#ade05a8e57b041ab484cf585be8d05699" target="_top" xlink:title="Generates a new SecurityIdentifier for a INDEX security">
<polygon fill="white" stroke="black" points="743,-264 743,-294 917,-294 917,-264 743,-264"/>
<text text-anchor="start" x="751" y="-282" font-family="Helvetica,sans-Serif" font-size="10.00">QuantConnect.SecurityIdentifier.</text>
<text text-anchor="middle" x="830" y="-271" font-family="Helvetica,sans-Serif" font-size="10.00">GenerateIndex</text>
</a>
</g>
</g>
<!-- Node2&#45;&gt;Node17 -->
<g id="edge17" class="edge">
<title>Node2&#45;&gt;Node17</title>
<path fill="none" stroke="midnightblue" d="M695.3,-279C707.55,-279 720.29,-279 732.85,-279"/>
<polygon fill="midnightblue" stroke="midnightblue" points="732.86,-282.5 742.86,-279 732.86,-275.5 732.86,-282.5"/>
</g>
<!-- Node3&#45;&gt;Node4 -->
<g id="edge3" class="edge">
<title>Node3&#45;&gt;Node4</title>
<path fill="none" stroke="midnightblue" d="M888.13,-449.88C897.81,-447.08 907.73,-444.07 917,-441 942.55,-432.54 970.6,-421.83 993.35,-412.78"/>
<polygon fill="midnightblue" stroke="midnightblue" points="994.78,-415.98 1002.76,-409.01 992.18,-409.48 994.78,-415.98"/>
</g>
<!-- Node3&#45;&gt;Node5 -->
<g id="edge4" class="edge">
<title>Node3&#45;&gt;Node5</title>
<path fill="none" stroke="midnightblue" d="M903.24,-449.91C908.15,-447.39 912.8,-444.44 917,-441 944.36,-418.57 935.47,-400.73 953,-370 977.52,-327 1009.55,-278.48 1026.77,-252.94"/>
<polygon fill="midnightblue" stroke="midnightblue" points="1029.7,-254.87 1032.41,-244.62 1023.9,-250.94 1029.7,-254.87"/>
</g>
<!-- Node6 -->
<g id="node6" class="node">
<title>Node6</title>
<g id="a_node6"><a xlink:href="classQuantConnect_1_1Symbol.html#a59b0795fa21f46c306deb5576fa03bb9" target="_top" xlink:title="Centralized helper method to resolve alias for a symbol">
<polygon fill="white" stroke="black" points="1163,-154.5 1163,-173.5 1333,-173.5 1333,-154.5 1163,-154.5"/>
<text text-anchor="middle" x="1248" y="-161.5" font-family="Helvetica,sans-Serif" font-size="10.00">QuantConnect.Symbol.GetAlias</text>
</a>
</g>
</g>
<!-- Node5&#45;&gt;Node6 -->
<g id="edge5" class="edge">
<title>Node5&#45;&gt;Node6</title>
<path fill="none" stroke="midnightblue" d="M1088.72,-225.45C1101.29,-222.52 1114.76,-218.99 1127,-215 1158.97,-204.58 1194.24,-189.08 1218.21,-177.91"/>
<polygon fill="midnightblue" stroke="midnightblue" points="1219.89,-180.99 1227.44,-173.56 1216.91,-174.65 1219.89,-180.99"/>
</g>
<!-- Node7 -->
<g id="node7" class="node">
<title>Node7</title>
<g id="a_node7"><a xlink:href="classQuantConnect_1_1SymbolRepresentation.html#ad43ac907f6c19083821f58f21c6de017" target="_top" xlink:title="Returns future symbol ticker from underlying and expiration date. Function can generate tickers of tw...">
<polygon fill="white" stroke="black" points="1369,-149 1369,-179 1572,-179 1572,-149 1369,-149"/>
<text text-anchor="start" x="1377" y="-167" font-family="Helvetica,sans-Serif" font-size="10.00">QuantConnect.SymbolRepresentation.</text>
<text text-anchor="middle" x="1470.5" y="-156" font-family="Helvetica,sans-Serif" font-size="10.00">GenerateFutureTicker</text>
</a>
</g>
</g>
<!-- Node6&#45;&gt;Node7 -->
<g id="edge6" class="edge">
<title>Node6&#45;&gt;Node7</title>
<path fill="none" stroke="midnightblue" d="M1333.31,-164C1341.69,-164 1350.3,-164 1358.9,-164"/>
<polygon fill="midnightblue" stroke="midnightblue" points="1358.99,-167.5 1368.99,-164 1358.99,-160.5 1358.99,-167.5"/>
</g>
<!-- Node9 -->
<g id="node9" class="node">
<title>Node9</title>
<g id="a_node9"><a xlink:href="classQuantConnect_1_1SymbolRepresentation.html#ab133044f5cf8c16e700190a2202b215e" target="_top" xlink:title="Returns option symbol ticker in accordance with OSI symbology More information can be found at http:/...">
<polygon fill="white" stroke="black" points="1369,-100 1369,-130 1572,-130 1572,-100 1369,-100"/>
<text text-anchor="start" x="1377" y="-118" font-family="Helvetica,sans-Serif" font-size="10.00">QuantConnect.SymbolRepresentation.</text>
<text text-anchor="middle" x="1470.5" y="-107" font-family="Helvetica,sans-Serif" font-size="10.00">GenerateOptionTickerOSI</text>
</a>
</g>
</g>
<!-- Node6&#45;&gt;Node9 -->
<g id="edge8" class="edge">
<title>Node6&#45;&gt;Node9</title>
<path fill="none" stroke="midnightblue" d="M1291.78,-154.49C1320.16,-148.19 1358.24,-139.73 1391.86,-132.25"/>
<polygon fill="midnightblue" stroke="midnightblue" points="1392.68,-135.66 1401.68,-130.07 1391.16,-128.82 1392.68,-135.66"/>
</g>
<!-- Node7&#45;&gt;Node8 -->
<g id="edge7" class="edge">
<title>Node7&#45;&gt;Node8</title>
<path fill="none" stroke="midnightblue" d="M1541.98,-148.97C1552.19,-146.07 1562.46,-142.75 1572,-139 1617.99,-120.91 1667.06,-92.58 1700.21,-71.94"/>
<polygon fill="midnightblue" stroke="midnightblue" points="1702.1,-74.89 1708.71,-66.61 1698.38,-68.96 1702.1,-74.89"/>
</g>
<!-- Node11 -->
<g id="node11" class="node">
<title>Node11</title>
<g id="a_node11"><a xlink:href="classQuantConnect_1_1SecurityIdentifier.html#a19e1f9da410608020d74ed9e7d283575" target="_top" xlink:title="Generates the Symbol property for QuantConnect.SecurityType.Base security identifiers">
<polygon fill="white" stroke="black" points="953,-176 953,-206 1127,-206 1127,-176 953,-176"/>
<text text-anchor="start" x="961" y="-194" font-family="Helvetica,sans-Serif" font-size="10.00">QuantConnect.SecurityIdentifier.</text>
<text text-anchor="middle" x="1040" y="-183" font-family="Helvetica,sans-Serif" font-size="10.00">GenerateBaseSymbol</text>
</a>
</g>
</g>
<!-- Node10&#45;&gt;Node11 -->
<g id="edge10" class="edge">
<title>Node10&#45;&gt;Node11</title>
<path fill="none" stroke="midnightblue" d="M917.1,-191C925.62,-191 934.3,-191 942.91,-191"/>
<polygon fill="midnightblue" stroke="midnightblue" points="942.96,-194.5 952.96,-191 942.96,-187.5 942.96,-194.5"/>
</g>
<!-- Node18&#45;&gt;Node2 -->
<g id="edge21" class="edge">
<title>Node18&#45;&gt;Node2</title>
<path fill="none" stroke="midnightblue" d="M480.18,-307.46C494.15,-304.23 508.47,-300.98 522,-298 533.15,-295.54 545.09,-293 556.53,-290.6"/>
<polygon fill="midnightblue" stroke="midnightblue" points="557.36,-294.01 566.43,-288.54 555.93,-287.15 557.36,-294.01"/>
</g>
<!-- Node18&#45;&gt;Node3 -->
<g id="edge22" class="edge">
<title>Node18&#45;&gt;Node3</title>
<path fill="none" stroke="midnightblue" d="M426.45,-348.58C451.76,-363.6 488.03,-383.45 522,-396 592.99,-422.23 677.05,-440.28 739.25,-451.32"/>
<polygon fill="midnightblue" stroke="midnightblue" points="738.97,-454.82 749.43,-453.09 740.18,-447.93 738.97,-454.82"/>
</g>
<!-- Node19 -->
<g id="node19" class="node">
<title>Node19</title>
<g id="a_node19"><a xlink:href="classQuantConnect_1_1Securities_1_1Future_1_1FuturesExpiryFunctions.html#a0d6bb7f1fd71689f70b115ccb0f470e0" target="_top" xlink:title="Method to retrieve the Function for a specific future symbol">
<polygon fill="white" stroke="black" points="531,-307.5 531,-348.5 698,-348.5 698,-307.5 531,-307.5"/>
<text text-anchor="start" x="539" y="-336.5" font-family="Helvetica,sans-Serif" font-size="10.00">QuantConnect.Securities.</text>
<text text-anchor="start" x="539" y="-325.5" font-family="Helvetica,sans-Serif" font-size="10.00">Future.FuturesExpiryFunctions.</text>
<text text-anchor="middle" x="614.5" y="-314.5" font-family="Helvetica,sans-Serif" font-size="10.00">FuturesExpiryFunction</text>
</a>
</g>
</g>
<!-- Node18&#45;&gt;Node19 -->
<g id="edge23" class="edge">
<title>Node18&#45;&gt;Node19</title>
<path fill="none" stroke="midnightblue" d="M486.16,-328C497.49,-328 509.07,-328 520.41,-328"/>
<polygon fill="midnightblue" stroke="midnightblue" points="520.73,-331.5 530.73,-328 520.73,-324.5 520.73,-331.5"/>
</g>
<!-- Node20 -->
<g id="node20" class="node">
<title>Node20</title>
<g id="a_node20"><a xlink:href="classQuantConnect_1_1Symbol.html#a1f3c25223fd9a7b753a4f84ece6469ab" target="_top" xlink:title="Method returns true, if symbol is a derivative canonical symbol">
<polygon fill="white" stroke="black" points="522,-367.5 522,-386.5 707,-386.5 707,-367.5 522,-367.5"/>
<text text-anchor="middle" x="614.5" y="-374.5" font-family="Helvetica,sans-Serif" font-size="10.00">QuantConnect.Symbol.IsCanonical</text>
</a>
</g>
</g>
<!-- Node18&#45;&gt;Node20 -->
<g id="edge24" class="edge">
<title>Node18&#45;&gt;Node20</title>
<path fill="none" stroke="midnightblue" d="M480.18,-348.54C494.15,-351.77 508.47,-355.02 522,-358 533.15,-360.46 545.09,-363 556.53,-365.4"/>
<polygon fill="midnightblue" stroke="midnightblue" points="555.93,-368.85 566.43,-367.46 557.36,-361.99 555.93,-368.85"/>
</g>
</g>
</svg>
