<?xml version="1.0" encoding="UTF-8" standalone="no"?>
<!DOCTYPE svg PUBLIC "-//W3C//DTD SVG 1.1//EN"
 "http://www.w3.org/Graphics/SVG/1.1/DTD/svg11.dtd">
<!-- Generated by graphviz version 2.43.0 (0)
 -->
<!-- Title: QuantConnect.Lean.Engine.DataFeeds.LiveTradingDataFeed.Initialize Pages: 1 -->
<svg width="784pt" height="209pt"
 viewBox="0.00 0.00 784.00 208.50" xmlns="http://www.w3.org/2000/svg" xmlns:xlink="http://www.w3.org/1999/xlink">
<g id="graph0" class="graph" transform="scale(1 1) rotate(0) translate(4 204.5)">
<title>QuantConnect.Lean.Engine.DataFeeds.LiveTradingDataFeed.Initialize</title>
<polygon fill="white" stroke="transparent" points="-4,4 -4,-204.5 780,-204.5 780,4 -4,4"/>
<!-- Node1 -->
<g id="node1" class="node">
<title>Node1</title>
<g id="a_node1"><a xlink:title="Initializes the data feed for the specified job and algorithm">
<polygon fill="#bfbfbf" stroke="black" points="0,-71 0,-112 176,-112 176,-71 0,-71"/>
<text text-anchor="start" x="8" y="-100" font-family="Helvetica,sans-Serif" font-size="10.00">QuantConnect.Lean.Engine.</text>
<text text-anchor="start" x="8" y="-89" font-family="Helvetica,sans-Serif" font-size="10.00">DataFeeds.LiveTradingDataFeed.</text>
<text text-anchor="middle" x="88" y="-78" font-family="Helvetica,sans-Serif" font-size="10.00">Initialize</text>
</a>
</g>
</g>
<!-- Node2 -->
<g id="node2" class="node">
<title>Node2</title>
<g id="a_node2"><a xlink:href="classQuantConnect_1_1Lean_1_1Engine_1_1DataFeeds_1_1LiveTradingDataFeed.html#a63aa35a0ed95f9a87f9ce0fe0eaab896" target="_top" xlink:title="Gets the BaseDataExchange to use">
<polygon fill="white" stroke="black" points="220,-159 220,-200 396,-200 396,-159 220,-159"/>
<text text-anchor="start" x="228" y="-188" font-family="Helvetica,sans-Serif" font-size="10.00">QuantConnect.Lean.Engine.</text>
<text text-anchor="start" x="228" y="-177" font-family="Helvetica,sans-Serif" font-size="10.00">DataFeeds.LiveTradingDataFeed.</text>
<text text-anchor="middle" x="308" y="-166" font-family="Helvetica,sans-Serif" font-size="10.00">GetBaseDataExchange</text>
</a>
</g>
</g>
<!-- Node1&#45;&gt;Node2 -->
<g id="edge1" class="edge">
<title>Node1&#45;&gt;Node2</title>
<path fill="none" stroke="midnightblue" d="M129.12,-112.1C152.87,-123.87 183.75,-138.44 212,-149.5 217.36,-151.6 222.94,-153.66 228.59,-155.66"/>
<polygon fill="midnightblue" stroke="midnightblue" points="227.53,-159 238.12,-158.96 229.81,-152.38 227.53,-159"/>
</g>
<!-- Node3 -->
<g id="node3" class="node">
<title>Node3</title>
<g id="a_node3"><a xlink:href="classQuantConnect_1_1Lean_1_1Engine_1_1DataFeeds_1_1LiveTradingDataFeed.html#a91e3497e9f5c6573677894a0785c0cd6" target="_top" xlink:title="Gets the IDataQueueHandler to use by default DataQueueHandlerManager">
<polygon fill="white" stroke="black" points="220,-99 220,-140 396,-140 396,-99 220,-99"/>
<text text-anchor="start" x="228" y="-128" font-family="Helvetica,sans-Serif" font-size="10.00">QuantConnect.Lean.Engine.</text>
<text text-anchor="start" x="228" y="-117" font-family="Helvetica,sans-Serif" font-size="10.00">DataFeeds.LiveTradingDataFeed.</text>
<text text-anchor="middle" x="308" y="-106" font-family="Helvetica,sans-Serif" font-size="10.00">GetDataQueueHandler</text>
</a>
</g>
</g>
<!-- Node1&#45;&gt;Node3 -->
<g id="edge2" class="edge">
<title>Node1&#45;&gt;Node3</title>
<path fill="none" stroke="midnightblue" d="M176.1,-102.69C187.09,-104.1 198.38,-105.55 209.52,-106.98"/>
<polygon fill="midnightblue" stroke="midnightblue" points="209.32,-110.48 219.68,-108.29 210.21,-103.54 209.32,-110.48"/>
</g>
<!-- Node4 -->
<g id="node4" class="node">
<title>Node4</title>
<g id="a_node4"><a xlink:href="interfaceQuantConnect_1_1Interfaces_1_1IDataQueueHandler.html#a236f0be67ed1e9e5f51c9f0b621c9798" target="_top" xlink:title="Sets the job we&#39;re subscribing for">
<polygon fill="white" stroke="black" points="235,-49.5 235,-79.5 381,-79.5 381,-49.5 235,-49.5"/>
<text text-anchor="start" x="243" y="-67.5" font-family="Helvetica,sans-Serif" font-size="10.00">QuantConnect.Interfaces.</text>
<text text-anchor="middle" x="308" y="-56.5" font-family="Helvetica,sans-Serif" font-size="10.00">IDataQueueHandler.SetJob</text>
</a>
</g>
</g>
<!-- Node1&#45;&gt;Node4 -->
<g id="edge3" class="edge">
<title>Node1&#45;&gt;Node4</title>
<path fill="none" stroke="midnightblue" d="M176.1,-80.71C192.05,-78.74 208.66,-76.68 224.48,-74.72"/>
<polygon fill="midnightblue" stroke="midnightblue" points="225.25,-78.15 234.74,-73.45 224.39,-71.21 225.25,-78.15"/>
</g>
<!-- Node5 -->
<g id="node5" class="node">
<title>Node5</title>
<g id="a_node5"><a xlink:href="classQuantConnect_1_1Lean_1_1Engine_1_1DataFeeds_1_1BaseDataExchange.html#aae9be9f12dc1557bc1ebd5d2658e843a" target="_top" xlink:title="Begins consumption of the wrapped IDataQueueHandler on a separate thread">
<polygon fill="white" stroke="black" points="212,-0.5 212,-30.5 404,-30.5 404,-0.5 212,-0.5"/>
<text text-anchor="start" x="220" y="-18.5" font-family="Helvetica,sans-Serif" font-size="10.00">QuantConnect.Lean.Engine.</text>
<text text-anchor="middle" x="308" y="-7.5" font-family="Helvetica,sans-Serif" font-size="10.00">DataFeeds.BaseDataExchange.Start</text>
</a>
</g>
</g>
<!-- Node1&#45;&gt;Node5 -->
<g id="edge4" class="edge">
<title>Node1&#45;&gt;Node5</title>
<path fill="none" stroke="midnightblue" d="M134.29,-70.99C157.28,-61.02 185.82,-49.33 212,-40.5 219.39,-38.01 227.16,-35.61 234.95,-33.35"/>
<polygon fill="midnightblue" stroke="midnightblue" points="236.13,-36.66 244.81,-30.57 234.23,-29.92 236.13,-36.66"/>
</g>
<!-- Node6 -->
<g id="node6" class="node">
<title>Node6</title>
<g id="a_node6"><a xlink:href="classQuantConnect_1_1Logging_1_1Log.html#a4e55477fbc790846b74550a57198cea9" target="_top" xlink:title="Log trace">
<polygon fill="white" stroke="black" points="440,-0.5 440,-30.5 590,-30.5 590,-0.5 440,-0.5"/>
<text text-anchor="start" x="448" y="-18.5" font-family="Helvetica,sans-Serif" font-size="10.00">QuantConnect.Logging.Log.</text>
<text text-anchor="middle" x="515" y="-7.5" font-family="Helvetica,sans-Serif" font-size="10.00">Trace</text>
</a>
</g>
</g>
<!-- Node5&#45;&gt;Node6 -->
<g id="edge5" class="edge">
<title>Node5&#45;&gt;Node6</title>
<path fill="none" stroke="midnightblue" d="M404.3,-15.5C412.77,-15.5 421.31,-15.5 429.69,-15.5"/>
<polygon fill="midnightblue" stroke="midnightblue" points="429.8,-19 439.8,-15.5 429.8,-12 429.8,-19"/>
</g>
<!-- Node7 -->
<g id="node7" class="node">
<title>Node7</title>
<g id="a_node7"><a xlink:href="interfaceQuantConnect_1_1Logging_1_1ILogHandler.html#a3fb71a33ac66129240b63f12b6fcda3b" target="_top" xlink:title="Write debug message to log">
<polygon fill="white" stroke="black" points="626,-0.5 626,-30.5 776,-30.5 776,-0.5 626,-0.5"/>
<text text-anchor="start" x="634" y="-18.5" font-family="Helvetica,sans-Serif" font-size="10.00">QuantConnect.Logging.ILog</text>
<text text-anchor="middle" x="701" y="-7.5" font-family="Helvetica,sans-Serif" font-size="10.00">Handler.Trace</text>
</a>
</g>
</g>
<!-- Node6&#45;&gt;Node7 -->
<g id="edge6" class="edge">
<title>Node6&#45;&gt;Node7</title>
<path fill="none" stroke="midnightblue" d="M590.04,-15.5C598.51,-15.5 607.19,-15.5 615.78,-15.5"/>
<polygon fill="midnightblue" stroke="midnightblue" points="615.81,-19 625.81,-15.5 615.81,-12 615.81,-19"/>
</g>
</g>
</svg>
