<?xml version="1.0" encoding="UTF-8" standalone="no"?>
<!DOCTYPE svg PUBLIC "-//W3C//DTD SVG 1.1//EN"
 "http://www.w3.org/Graphics/SVG/1.1/DTD/svg11.dtd">
<!-- Generated by graphviz version 2.43.0 (0)
 -->
<!-- Title: QuantConnect.Securities.NullBuyingPowerModel Pages: 1 -->
<svg width="148pt" height="151pt"
 viewBox="0.00 0.00 148.00 151.00" xmlns="http://www.w3.org/2000/svg" xmlns:xlink="http://www.w3.org/1999/xlink">
<g id="graph0" class="graph" transform="scale(1 1) rotate(0) translate(4 147)">
<title>QuantConnect.Securities.NullBuyingPowerModel</title>
<polygon fill="white" stroke="transparent" points="-4,4 -4,-147 144,-147 144,4 -4,4"/>
<!-- Node1 -->
<g id="node1" class="node">
<title>Node1</title>
<g id="a_node1"><a xlink:title="Provides a buying power model considers that there is sufficient buying power for all orders">
<polygon fill="#bfbfbf" stroke="black" points="0,-0.5 0,-30.5 140,-30.5 140,-0.5 0,-0.5"/>
<text text-anchor="start" x="8" y="-18.5" font-family="Helvetica,sans-Serif" font-size="10.00">QuantConnect.Securities.</text>
<text text-anchor="middle" x="70" y="-7.5" font-family="Helvetica,sans-Serif" font-size="10.00">NullBuyingPowerModel</text>
</a>
</g>
</g>
<!-- Node2 -->
<g id="node2" class="node">
<title>Node2</title>
<g id="a_node2"><a xlink:href="classQuantConnect_1_1Securities_1_1BuyingPowerModel.html" target="_top" xlink:title="Provides a base class for all buying power models">
<polygon fill="white" stroke="black" points="15,-67.5 15,-86.5 125,-86.5 125,-67.5 15,-67.5"/>
<text text-anchor="middle" x="70" y="-74.5" font-family="Helvetica,sans-Serif" font-size="10.00">BuyingPowerModel</text>
</a>
</g>
</g>
<!-- Node2&#45;&gt;Node1 -->
<g id="edge1" class="edge">
<title>Node2&#45;&gt;Node1</title>
<path fill="none" stroke="midnightblue" d="M70,-57.23C70,-48.59 70,-38.5 70,-30.52"/>
<polygon fill="midnightblue" stroke="midnightblue" points="66.5,-57.48 70,-67.48 73.5,-57.48 66.5,-57.48"/>
</g>
<!-- Node3 -->
<g id="node3" class="node">
<title>Node3</title>
<g id="a_node3"><a xlink:href="interfaceQuantConnect_1_1Securities_1_1IBuyingPowerModel.html" target="_top" xlink:title="Represents a security&#39;s model of buying power">
<polygon fill="white" stroke="black" points="13.5,-123.5 13.5,-142.5 126.5,-142.5 126.5,-123.5 13.5,-123.5"/>
<text text-anchor="middle" x="70" y="-130.5" font-family="Helvetica,sans-Serif" font-size="10.00">IBuyingPowerModel</text>
</a>
</g>
</g>
<!-- Node3&#45;&gt;Node2 -->
<g id="edge2" class="edge">
<title>Node3&#45;&gt;Node2</title>
<path fill="none" stroke="midnightblue" d="M70,-112.8C70,-103.91 70,-93.78 70,-86.75"/>
<polygon fill="midnightblue" stroke="midnightblue" points="66.5,-113.08 70,-123.08 73.5,-113.08 66.5,-113.08"/>
</g>
</g>
</svg>
