<?xml version="1.0" encoding="UTF-8" standalone="no"?>
<!DOCTYPE svg PUBLIC "-//W3C//DTD SVG 1.1//EN"
 "http://www.w3.org/Graphics/SVG/1.1/DTD/svg11.dtd">
<!-- Generated by graphviz version 2.43.0 (0)
 -->
<!-- Title: QuantConnect.Securities.FutureOption.FuturesOptionsUnderlyingMapper.GetUnderlyingFutureFromFutureOption Pages: 1 -->
<svg width="1667pt" height="603pt"
 viewBox="0.00 0.00 1667.00 602.50" xmlns="http://www.w3.org/2000/svg" xmlns:xlink="http://www.w3.org/1999/xlink">
<g id="graph0" class="graph" transform="scale(1 1) rotate(0) translate(4 598.5)">
<title>QuantConnect.Securities.FutureOption.FuturesOptionsUnderlyingMapper.GetUnderlyingFutureFromFutureOption</title>
<polygon fill="white" stroke="transparent" points="-4,4 -4,-598.5 1663,-598.5 1663,4 -4,4"/>
<!-- Node1 -->
<g id="node1" class="node">
<title>Node1</title>
<g id="a_node1"><a xlink:title="Gets the FOP&#39;s underlying Future. The underlying Future&#39;s contract month might not match the contract...">
<polygon fill="#bfbfbf" stroke="black" points="0,-87.5 0,-128.5 245,-128.5 245,-87.5 0,-87.5"/>
<text text-anchor="start" x="8" y="-116.5" font-family="Helvetica,sans-Serif" font-size="10.00">QuantConnect.Securities.</text>
<text text-anchor="start" x="8" y="-105.5" font-family="Helvetica,sans-Serif" font-size="10.00">FutureOption.FuturesOptionsUnderlying</text>
<text text-anchor="middle" x="122.5" y="-94.5" font-family="Helvetica,sans-Serif" font-size="10.00">Mapper.GetUnderlyingFutureFromFutureOption</text>
</a>
</g>
</g>
<!-- Node2 -->
<g id="node2" class="node">
<title>Node2</title>
<g id="a_node2"><a xlink:href="classQuantConnect_1_1Symbol.html#a350b9a625cf7bad95da82894be3cd0a8" target="_top" xlink:title="Provides a convenience method for creating a Symbol for most security types. This method currently do...">
<polygon fill="white" stroke="black" points="306,-324.5 306,-343.5 467,-343.5 467,-324.5 306,-324.5"/>
<text text-anchor="middle" x="386.5" y="-331.5" font-family="Helvetica,sans-Serif" font-size="10.00">QuantConnect.Symbol.Create</text>
</a>
</g>
</g>
<!-- Node1&#45;&gt;Node2 -->
<g id="edge1" class="edge">
<title>Node1&#45;&gt;Node2</title>
<path fill="none" stroke="midnightblue" d="M147.68,-128.86C199.44,-173.5 320.03,-277.53 366.64,-317.73"/>
<polygon fill="midnightblue" stroke="midnightblue" points="364.59,-320.59 374.45,-324.47 369.17,-315.29 364.59,-320.59"/>
</g>
<!-- Node18 -->
<g id="node18" class="node">
<title>Node18</title>
<g id="a_node18"><a xlink:href="classQuantConnect_1_1Symbol.html#a484f4a4845d55c491201a7998f0d6ec4" target="_top" xlink:title="Provides a convenience method for creating a future Symbol.">
<polygon fill="white" stroke="black" points="306,-121 306,-151 467,-151 467,-121 306,-121"/>
<text text-anchor="start" x="314" y="-139" font-family="Helvetica,sans-Serif" font-size="10.00">QuantConnect.Symbol.Create</text>
<text text-anchor="middle" x="386.5" y="-128" font-family="Helvetica,sans-Serif" font-size="10.00">Future</text>
</a>
</g>
</g>
<!-- Node1&#45;&gt;Node18 -->
<g id="edge19" class="edge">
<title>Node1&#45;&gt;Node18</title>
<path fill="none" stroke="midnightblue" d="M245.3,-121.02C262.34,-122.84 279.59,-124.68 295.89,-126.42"/>
<polygon fill="midnightblue" stroke="midnightblue" points="295.59,-129.91 305.9,-127.49 296.33,-122.95 295.59,-129.91"/>
</g>
<!-- Node19 -->
<g id="node19" class="node">
<title>Node19</title>
<g id="a_node19"><a xlink:href="classQuantConnect_1_1Securities_1_1Future_1_1FuturesExpiryFunctions.html#a0d6bb7f1fd71689f70b115ccb0f470e0" target="_top" xlink:title="Method to retrieve the Function for a specific future symbol">
<polygon fill="white" stroke="black" points="303,-60.5 303,-101.5 470,-101.5 470,-60.5 303,-60.5"/>
<text text-anchor="start" x="311" y="-89.5" font-family="Helvetica,sans-Serif" font-size="10.00">QuantConnect.Securities.</text>
<text text-anchor="start" x="311" y="-78.5" font-family="Helvetica,sans-Serif" font-size="10.00">Future.FuturesExpiryFunctions.</text>
<text text-anchor="middle" x="386.5" y="-67.5" font-family="Helvetica,sans-Serif" font-size="10.00">FuturesExpiryFunction</text>
</a>
</g>
</g>
<!-- Node1&#45;&gt;Node19 -->
<g id="edge23" class="edge">
<title>Node1&#45;&gt;Node19</title>
<path fill="none" stroke="midnightblue" d="M245.3,-95.45C261.3,-93.8 277.49,-92.13 292.9,-90.54"/>
<polygon fill="midnightblue" stroke="midnightblue" points="293.32,-94.02 302.91,-89.51 292.6,-87.06 293.32,-94.02"/>
</g>
<!-- Node20 -->
<g id="node20" class="node">
<title>Node20</title>
<g id="a_node20"><a xlink:href="classQuantConnect_1_1Securities_1_1Future_1_1FuturesOptionsSymbolMappings.html#a739feea1e5e726c78e75fd6c58fa2d5e" target="_top" xlink:title="Maps a futures options ticker to its underlying future&#39;s ticker">
<polygon fill="white" stroke="black" points="281,-0.5 281,-41.5 492,-41.5 492,-0.5 281,-0.5"/>
<text text-anchor="start" x="289" y="-29.5" font-family="Helvetica,sans-Serif" font-size="10.00">QuantConnect.Securities.</text>
<text text-anchor="start" x="289" y="-18.5" font-family="Helvetica,sans-Serif" font-size="10.00">Future.FuturesOptionsSymbolMappings.</text>
<text text-anchor="middle" x="386.5" y="-7.5" font-family="Helvetica,sans-Serif" font-size="10.00">MapFromOption</text>
</a>
</g>
</g>
<!-- Node1&#45;&gt;Node20 -->
<g id="edge24" class="edge">
<title>Node1&#45;&gt;Node20</title>
<path fill="none" stroke="midnightblue" d="M177.49,-87.44C207.75,-76.17 246.28,-62.25 281,-51 287.79,-48.8 294.85,-46.59 301.96,-44.43"/>
<polygon fill="midnightblue" stroke="midnightblue" points="303.09,-47.75 311.66,-41.52 301.08,-41.05 303.09,-47.75"/>
</g>
<!-- Node3 -->
<g id="node3" class="node">
<title>Node3</title>
<g id="a_node3"><a xlink:href="classQuantConnect_1_1Symbol.html#a7518a1932d1babbff128f2ba9666a78b" target="_top" xlink:title="Provides a convenience method for creating an option Symbol.">
<polygon fill="white" stroke="black" points="534.5,-231 534.5,-261 695.5,-261 695.5,-231 534.5,-231"/>
<text text-anchor="start" x="542.5" y="-249" font-family="Helvetica,sans-Serif" font-size="10.00">QuantConnect.Symbol.Create</text>
<text text-anchor="middle" x="615" y="-238" font-family="Helvetica,sans-Serif" font-size="10.00">Option</text>
</a>
</g>
</g>
<!-- Node2&#45;&gt;Node3 -->
<g id="edge2" class="edge">
<title>Node2&#45;&gt;Node3</title>
<path fill="none" stroke="midnightblue" d="M409.73,-324.37C437.3,-312.53 485.82,-292.05 528,-276 538.18,-272.13 549.12,-268.16 559.66,-264.44"/>
<polygon fill="midnightblue" stroke="midnightblue" points="560.91,-267.71 569.19,-261.1 558.6,-261.1 560.91,-267.71"/>
</g>
<!-- Node4 -->
<g id="node4" class="node">
<title>Node4</title>
<g id="a_node4"><a xlink:href="classQuantConnect_1_1SecurityIdentifier.html#a0c21d7880c9fdd260883d11ea0c99a00" target="_top" xlink:title="Helper overload that will search the mapfiles to resolve the first date. This implementation uses the...">
<polygon fill="white" stroke="black" points="738,-253 738,-283 912,-283 912,-253 738,-253"/>
<text text-anchor="start" x="746" y="-271" font-family="Helvetica,sans-Serif" font-size="10.00">QuantConnect.SecurityIdentifier.</text>
<text text-anchor="middle" x="825" y="-260" font-family="Helvetica,sans-Serif" font-size="10.00">GenerateEquity</text>
</a>
</g>
</g>
<!-- Node2&#45;&gt;Node4 -->
<g id="edge14" class="edge">
<title>Node2&#45;&gt;Node4</title>
<path fill="none" stroke="midnightblue" d="M438.47,-324.44C465.11,-319.57 498.27,-313.7 528,-309 594.47,-298.49 669.57,-288.1 727.5,-280.41"/>
<polygon fill="midnightblue" stroke="midnightblue" points="728.28,-283.84 737.74,-279.06 727.36,-276.9 728.28,-283.84"/>
</g>
<!-- Node5 -->
<g id="node5" class="node">
<title>Node5</title>
<g id="a_node5"><a xlink:href="classQuantConnect_1_1Symbol.html#a59158f74116be3dad0ea0f3f3f134416" target="_top" xlink:title="Initializes a new instance of the Symbol class">
<polygon fill="white" stroke="black" points="742.5,-161.5 742.5,-180.5 907.5,-180.5 907.5,-161.5 742.5,-161.5"/>
<text text-anchor="middle" x="825" y="-168.5" font-family="Helvetica,sans-Serif" font-size="10.00">QuantConnect.Symbol.Symbol</text>
</a>
</g>
</g>
<!-- Node2&#45;&gt;Node5 -->
<g id="edge18" class="edge">
<title>Node2&#45;&gt;Node5</title>
<path fill="none" stroke="midnightblue" d="M395.92,-324.5C416.19,-302.29 470.32,-246.92 528,-221 563.64,-204.98 659.08,-190.58 732.04,-181.39"/>
<polygon fill="midnightblue" stroke="midnightblue" points="732.69,-184.83 742.18,-180.13 731.82,-177.89 732.69,-184.83"/>
</g>
<!-- Node10 -->
<g id="node10" class="node">
<title>Node10</title>
<g id="a_node10"><a xlink:href="classQuantConnect_1_1SecurityIdentifier.html#a02ca750115844561c001c2346fbafc00" target="_top" xlink:title="Generates a new SecurityIdentifier for a custom security with the option of providing the first date">
<polygon fill="white" stroke="black" points="528,-466 528,-496 702,-496 702,-466 528,-466"/>
<text text-anchor="start" x="536" y="-484" font-family="Helvetica,sans-Serif" font-size="10.00">QuantConnect.SecurityIdentifier.</text>
<text text-anchor="middle" x="615" y="-473" font-family="Helvetica,sans-Serif" font-size="10.00">GenerateBase</text>
</a>
</g>
</g>
<!-- Node2&#45;&gt;Node10 -->
<g id="edge9" class="edge">
<title>Node2&#45;&gt;Node10</title>
<path fill="none" stroke="midnightblue" d="M395.63,-343.61C415.68,-366.7 470.11,-425.7 528,-457 531.43,-458.85 535.02,-460.58 538.7,-462.17"/>
<polygon fill="midnightblue" stroke="midnightblue" points="537.41,-465.43 547.99,-465.89 540.01,-458.93 537.41,-465.43"/>
</g>
<!-- Node12 -->
<g id="node12" class="node">
<title>Node12</title>
<g id="a_node12"><a xlink:href="classQuantConnect_1_1SecurityIdentifier.html#a53953b18d814c5445e4ecdcb3b555080" target="_top" xlink:title="Generates a new SecurityIdentifier for a CFD security">
<polygon fill="white" stroke="black" points="528,-564 528,-594 702,-594 702,-564 528,-564"/>
<text text-anchor="start" x="536" y="-582" font-family="Helvetica,sans-Serif" font-size="10.00">QuantConnect.SecurityIdentifier.</text>
<text text-anchor="middle" x="615" y="-571" font-family="Helvetica,sans-Serif" font-size="10.00">GenerateCfd</text>
</a>
</g>
</g>
<!-- Node2&#45;&gt;Node12 -->
<g id="edge11" class="edge">
<title>Node2&#45;&gt;Node12</title>
<path fill="none" stroke="midnightblue" d="M390.77,-343.73C402.91,-378.3 448.77,-496.21 528,-555 529.87,-556.39 531.82,-557.7 533.83,-558.93"/>
<polygon fill="midnightblue" stroke="midnightblue" points="532.52,-562.2 542.98,-563.86 535.84,-556.04 532.52,-562.2"/>
</g>
<!-- Node13 -->
<g id="node13" class="node">
<title>Node13</title>
<g id="a_node13"><a xlink:href="classQuantConnect_1_1SecurityIdentifier.html#a5889a95a36ce927dd0a109cbfbcbe663" target="_top" xlink:title="Generates a new SecurityIdentifier for a Crypto pair">
<polygon fill="white" stroke="black" points="528,-515 528,-545 702,-545 702,-515 528,-515"/>
<text text-anchor="start" x="536" y="-533" font-family="Helvetica,sans-Serif" font-size="10.00">QuantConnect.SecurityIdentifier.</text>
<text text-anchor="middle" x="615" y="-522" font-family="Helvetica,sans-Serif" font-size="10.00">GenerateCrypto</text>
</a>
</g>
</g>
<!-- Node2&#45;&gt;Node13 -->
<g id="edge12" class="edge">
<title>Node2&#45;&gt;Node13</title>
<path fill="none" stroke="midnightblue" d="M392.46,-343.53C408.13,-372.67 459.58,-461.27 528,-506 530.43,-507.59 532.97,-509.08 535.58,-510.47"/>
<polygon fill="midnightblue" stroke="midnightblue" points="534.19,-513.68 544.73,-514.82 537.2,-507.36 534.19,-513.68"/>
</g>
<!-- Node14 -->
<g id="node14" class="node">
<title>Node14</title>
<g id="a_node14"><a xlink:href="classQuantConnect_1_1SecurityIdentifier.html#ac665665a16d5449872fed3427b95a260" target="_top" xlink:title="Generates a new SecurityIdentifier for a CryptoFuture pair">
<polygon fill="white" stroke="black" points="528,-417 528,-447 702,-447 702,-417 528,-417"/>
<text text-anchor="start" x="536" y="-435" font-family="Helvetica,sans-Serif" font-size="10.00">QuantConnect.SecurityIdentifier.</text>
<text text-anchor="middle" x="615" y="-424" font-family="Helvetica,sans-Serif" font-size="10.00">GenerateCryptoFuture</text>
</a>
</g>
</g>
<!-- Node2&#45;&gt;Node14 -->
<g id="edge13" class="edge">
<title>Node2&#45;&gt;Node14</title>
<path fill="none" stroke="midnightblue" d="M402.99,-343.57C428.34,-358.9 480.61,-389.16 528,-408 533.13,-410.04 538.5,-411.98 543.94,-413.8"/>
<polygon fill="midnightblue" stroke="midnightblue" points="543.18,-417.23 553.78,-416.96 545.32,-410.57 543.18,-417.23"/>
</g>
<!-- Node15 -->
<g id="node15" class="node">
<title>Node15</title>
<g id="a_node15"><a xlink:href="classQuantConnect_1_1SecurityIdentifier.html#a9cf0d3b208a5171e6112516ce441f18d" target="_top" xlink:title="Generates a new SecurityIdentifier for a forex pair">
<polygon fill="white" stroke="black" points="528,-368 528,-398 702,-398 702,-368 528,-368"/>
<text text-anchor="start" x="536" y="-386" font-family="Helvetica,sans-Serif" font-size="10.00">QuantConnect.SecurityIdentifier.</text>
<text text-anchor="middle" x="615" y="-375" font-family="Helvetica,sans-Serif" font-size="10.00">GenerateForex</text>
</a>
</g>
</g>
<!-- Node2&#45;&gt;Node15 -->
<g id="edge15" class="edge">
<title>Node2&#45;&gt;Node15</title>
<path fill="none" stroke="midnightblue" d="M431.44,-343.51C460.6,-349.81 499.71,-358.27 534.25,-365.75"/>
<polygon fill="midnightblue" stroke="midnightblue" points="533.82,-369.24 544.33,-367.93 535.3,-362.39 533.82,-369.24"/>
</g>
<!-- Node16 -->
<g id="node16" class="node">
<title>Node16</title>
<g id="a_node16"><a xlink:href="classQuantConnect_1_1SecurityIdentifier.html#ad50a891c97cb0c084a9e2aa43607ed66" target="_top" xlink:title="Generates a new SecurityIdentifier for a future">
<polygon fill="white" stroke="black" points="528,-143 528,-173 702,-173 702,-143 528,-143"/>
<text text-anchor="start" x="536" y="-161" font-family="Helvetica,sans-Serif" font-size="10.00">QuantConnect.SecurityIdentifier.</text>
<text text-anchor="middle" x="615" y="-150" font-family="Helvetica,sans-Serif" font-size="10.00">GenerateFuture</text>
</a>
</g>
</g>
<!-- Node2&#45;&gt;Node16 -->
<g id="edge16" class="edge">
<title>Node2&#45;&gt;Node16</title>
<path fill="none" stroke="midnightblue" d="M394.23,-324.32C412.67,-298.5 466.7,-227.3 528,-188 534.55,-183.8 541.76,-180.1 549.14,-176.88"/>
<polygon fill="midnightblue" stroke="midnightblue" points="550.6,-180.06 558.53,-173.04 547.95,-173.58 550.6,-180.06"/>
</g>
<!-- Node17 -->
<g id="node17" class="node">
<title>Node17</title>
<g id="a_node17"><a xlink:href="classQuantConnect_1_1SecurityIdentifier.html#ade05a8e57b041ab484cf585be8d05699" target="_top" xlink:title="Generates a new SecurityIdentifier for a INDEX security">
<polygon fill="white" stroke="black" points="528,-319 528,-349 702,-349 702,-319 528,-319"/>
<text text-anchor="start" x="536" y="-337" font-family="Helvetica,sans-Serif" font-size="10.00">QuantConnect.SecurityIdentifier.</text>
<text text-anchor="middle" x="615" y="-326" font-family="Helvetica,sans-Serif" font-size="10.00">GenerateIndex</text>
</a>
</g>
</g>
<!-- Node2&#45;&gt;Node17 -->
<g id="edge17" class="edge">
<title>Node2&#45;&gt;Node17</title>
<path fill="none" stroke="midnightblue" d="M467.04,-334C483.29,-334 500.57,-334 517.35,-334"/>
<polygon fill="midnightblue" stroke="midnightblue" points="517.72,-337.5 527.72,-334 517.72,-330.5 517.72,-337.5"/>
</g>
<!-- Node3&#45;&gt;Node4 -->
<g id="edge3" class="edge">
<title>Node3&#45;&gt;Node4</title>
<path fill="none" stroke="midnightblue" d="M695.53,-254.41C706.04,-255.52 716.91,-256.67 727.67,-257.81"/>
<polygon fill="midnightblue" stroke="midnightblue" points="727.63,-261.33 737.94,-258.9 728.36,-254.36 727.63,-261.33"/>
</g>
<!-- Node3&#45;&gt;Node5 -->
<g id="edge4" class="edge">
<title>Node3&#45;&gt;Node5</title>
<path fill="none" stroke="midnightblue" d="M659.8,-230.89C673.35,-226.17 688.31,-220.91 702,-216 731.32,-205.48 764.48,-193.23 788.82,-184.16"/>
<polygon fill="midnightblue" stroke="midnightblue" points="790.2,-187.39 798.34,-180.61 787.75,-180.83 790.2,-187.39"/>
</g>
<!-- Node6 -->
<g id="node6" class="node">
<title>Node6</title>
<g id="a_node6"><a xlink:href="classQuantConnect_1_1Symbol.html#a59b0795fa21f46c306deb5576fa03bb9" target="_top" xlink:title="Centralized helper method to resolve alias for a symbol">
<polygon fill="white" stroke="black" points="948,-129.5 948,-148.5 1118,-148.5 1118,-129.5 948,-129.5"/>
<text text-anchor="middle" x="1033" y="-136.5" font-family="Helvetica,sans-Serif" font-size="10.00">QuantConnect.Symbol.GetAlias</text>
</a>
</g>
</g>
<!-- Node5&#45;&gt;Node6 -->
<g id="edge5" class="edge">
<title>Node5&#45;&gt;Node6</title>
<path fill="none" stroke="midnightblue" d="M887.25,-161.49C910.29,-157.91 936.68,-153.81 960.57,-150.1"/>
<polygon fill="midnightblue" stroke="midnightblue" points="961.29,-153.53 970.63,-148.53 960.21,-146.61 961.29,-153.53"/>
</g>
<!-- Node7 -->
<g id="node7" class="node">
<title>Node7</title>
<g id="a_node7"><a xlink:href="classQuantConnect_1_1SymbolRepresentation.html#ad43ac907f6c19083821f58f21c6de017" target="_top" xlink:title="Returns future symbol ticker from underlying and expiration date. Function can generate tickers of tw...">
<polygon fill="white" stroke="black" points="1154,-149 1154,-179 1357,-179 1357,-149 1154,-149"/>
<text text-anchor="start" x="1162" y="-167" font-family="Helvetica,sans-Serif" font-size="10.00">QuantConnect.SymbolRepresentation.</text>
<text text-anchor="middle" x="1255.5" y="-156" font-family="Helvetica,sans-Serif" font-size="10.00">GenerateFutureTicker</text>
</a>
</g>
</g>
<!-- Node6&#45;&gt;Node7 -->
<g id="edge6" class="edge">
<title>Node6&#45;&gt;Node7</title>
<path fill="none" stroke="midnightblue" d="M1117.99,-148.52C1126.39,-149.47 1135,-150.45 1143.62,-151.43"/>
<polygon fill="midnightblue" stroke="midnightblue" points="1143.4,-154.93 1153.73,-152.57 1144.19,-147.97 1143.4,-154.93"/>
</g>
<!-- Node9 -->
<g id="node9" class="node">
<title>Node9</title>
<g id="a_node9"><a xlink:href="classQuantConnect_1_1SymbolRepresentation.html#ab133044f5cf8c16e700190a2202b215e" target="_top" xlink:title="Returns option symbol ticker in accordance with OSI symbology More information can be found at http:/...">
<polygon fill="white" stroke="black" points="1154,-100 1154,-130 1357,-130 1357,-100 1154,-100"/>
<text text-anchor="start" x="1162" y="-118" font-family="Helvetica,sans-Serif" font-size="10.00">QuantConnect.SymbolRepresentation.</text>
<text text-anchor="middle" x="1255.5" y="-107" font-family="Helvetica,sans-Serif" font-size="10.00">GenerateOptionTickerOSI</text>
</a>
</g>
</g>
<!-- Node6&#45;&gt;Node9 -->
<g id="edge8" class="edge">
<title>Node6&#45;&gt;Node9</title>
<path fill="none" stroke="midnightblue" d="M1118.31,-129.82C1126.69,-128.91 1135.3,-127.97 1143.9,-127.04"/>
<polygon fill="midnightblue" stroke="midnightblue" points="1144.43,-130.5 1153.99,-125.94 1143.67,-123.54 1144.43,-130.5"/>
</g>
<!-- Node8 -->
<g id="node8" class="node">
<title>Node8</title>
<g id="a_node8"><a xlink:href="classQuantConnect_1_1Securities_1_1Future_1_1FuturesExpiryUtilityFunctions.html#a4ccb1e2f2fe40ff09785a74a02f26df1" target="_top" xlink:title="Gets the number of months between the contract month and the expiry date.">
<polygon fill="white" stroke="black" points="1393,-143.5 1393,-184.5 1659,-184.5 1659,-143.5 1393,-143.5"/>
<text text-anchor="start" x="1401" y="-172.5" font-family="Helvetica,sans-Serif" font-size="10.00">QuantConnect.Securities.</text>
<text text-anchor="start" x="1401" y="-161.5" font-family="Helvetica,sans-Serif" font-size="10.00">Future.FuturesExpiryUtilityFunctions.</text>
<text text-anchor="middle" x="1526" y="-150.5" font-family="Helvetica,sans-Serif" font-size="10.00">GetDeltaBetweenContractMonthAndContractExpiry</text>
</a>
</g>
</g>
<!-- Node7&#45;&gt;Node8 -->
<g id="edge7" class="edge">
<title>Node7&#45;&gt;Node8</title>
<path fill="none" stroke="midnightblue" d="M1357.24,-164C1365.59,-164 1374.11,-164 1382.68,-164"/>
<polygon fill="midnightblue" stroke="midnightblue" points="1382.76,-167.5 1392.76,-164 1382.76,-160.5 1382.76,-167.5"/>
</g>
<!-- Node11 -->
<g id="node11" class="node">
<title>Node11</title>
<g id="a_node11"><a xlink:href="classQuantConnect_1_1SecurityIdentifier.html#a19e1f9da410608020d74ed9e7d283575" target="_top" xlink:title="Generates the Symbol property for QuantConnect.SecurityType.Base security identifiers">
<polygon fill="white" stroke="black" points="738,-466 738,-496 912,-496 912,-466 738,-466"/>
<text text-anchor="start" x="746" y="-484" font-family="Helvetica,sans-Serif" font-size="10.00">QuantConnect.SecurityIdentifier.</text>
<text text-anchor="middle" x="825" y="-473" font-family="Helvetica,sans-Serif" font-size="10.00">GenerateBaseSymbol</text>
</a>
</g>
</g>
<!-- Node10&#45;&gt;Node11 -->
<g id="edge10" class="edge">
<title>Node10&#45;&gt;Node11</title>
<path fill="none" stroke="midnightblue" d="M702.1,-481C710.62,-481 719.3,-481 727.91,-481"/>
<polygon fill="midnightblue" stroke="midnightblue" points="727.96,-484.5 737.96,-481 727.96,-477.5 727.96,-484.5"/>
</g>
<!-- Node18&#45;&gt;Node5 -->
<g id="edge22" class="edge">
<title>Node18&#45;&gt;Node5</title>
<path fill="none" stroke="midnightblue" d="M467.16,-128.24C531.04,-123.7 622.78,-120.95 702,-133 733.03,-137.72 767.04,-148.83 791.24,-157.83"/>
<polygon fill="midnightblue" stroke="midnightblue" points="790.06,-161.13 800.65,-161.4 792.55,-154.58 790.06,-161.13"/>
</g>
<!-- Node18&#45;&gt;Node6 -->
<g id="edge21" class="edge">
<title>Node18&#45;&gt;Node6</title>
<path fill="none" stroke="midnightblue" d="M467.26,-126C487.07,-123.92 508.28,-122.05 528,-121 670.64,-113.41 836.17,-122.8 937.48,-130.62"/>
<polygon fill="midnightblue" stroke="midnightblue" points="937.45,-134.12 947.69,-131.42 937.99,-127.15 937.45,-134.12"/>
</g>
<!-- Node18&#45;&gt;Node16 -->
<g id="edge20" class="edge">
<title>Node18&#45;&gt;Node16</title>
<path fill="none" stroke="midnightblue" d="M467.04,-143.73C483.29,-145.3 500.57,-146.98 517.35,-148.61"/>
<polygon fill="midnightblue" stroke="midnightblue" points="517.43,-152.14 527.72,-149.62 518.1,-145.17 517.43,-152.14"/>
</g>
</g>
</svg>
