<?xml version="1.0" encoding="UTF-8" standalone="no"?>
<!DOCTYPE svg PUBLIC "-//W3C//DTD SVG 1.1//EN"
 "http://www.w3.org/Graphics/SVG/1.1/DTD/svg11.dtd">
<!-- Generated by graphviz version 2.43.0 (0)
 -->
<!-- Title: QuantConnect.Lean.Engine.DataFeeds.FileSystemDataFeed.TryAppendUnderlyingEnumerator Pages: 1 -->
<svg width="1151pt" height="209pt"
 viewBox="0.00 0.00 1151.00 209.00" xmlns="http://www.w3.org/2000/svg" xmlns:xlink="http://www.w3.org/1999/xlink">
<g id="graph0" class="graph" transform="scale(1 1) rotate(0) translate(4 205)">
<title>QuantConnect.Lean.Engine.DataFeeds.FileSystemDataFeed.TryAppendUnderlyingEnumerator</title>
<polygon fill="white" stroke="transparent" points="-4,4 -4,-205 1147,-205 1147,4 -4,4"/>
<!-- Node1 -->
<g id="node1" class="node">
<title>Node1</title>
<g id="a_node1"><a xlink:title="If required will add a new enumerator for the underlying symbol">
<polygon fill="#bfbfbf" stroke="black" points="0,-107.5 0,-148.5 189,-148.5 189,-107.5 0,-107.5"/>
<text text-anchor="start" x="8" y="-136.5" font-family="Helvetica,sans-Serif" font-size="10.00">QuantConnect.Lean.Engine.</text>
<text text-anchor="start" x="8" y="-125.5" font-family="Helvetica,sans-Serif" font-size="10.00">DataFeeds.FileSystemDataFeed.Try</text>
<text text-anchor="middle" x="94.5" y="-114.5" font-family="Helvetica,sans-Serif" font-size="10.00">AppendUnderlyingEnumerator</text>
</a>
</g>
</g>
<!-- Node2 -->
<g id="node2" class="node">
<title>Node2</title>
<g id="a_node2"><a xlink:href="classQuantConnect_1_1Lean_1_1Engine_1_1DataFeeds_1_1FileSystemDataFeed.html#a20c2620568ee71bc174cf83f0fb45ac1" target="_top" xlink:title="Configure the enumerator with aggregation/fill&#45;forward/filter behaviors. Returns new instance if re&#45;c...">
<polygon fill="white" stroke="black" points="225,-107.5 225,-148.5 446,-148.5 446,-107.5 225,-107.5"/>
<text text-anchor="start" x="233" y="-136.5" font-family="Helvetica,sans-Serif" font-size="10.00">QuantConnect.Lean.Engine.</text>
<text text-anchor="start" x="233" y="-125.5" font-family="Helvetica,sans-Serif" font-size="10.00">DataFeeds.FileSystemDataFeed.Configure</text>
<text text-anchor="middle" x="335.5" y="-114.5" font-family="Helvetica,sans-Serif" font-size="10.00">Enumerator</text>
</a>
</g>
</g>
<!-- Node1&#45;&gt;Node2 -->
<g id="edge1" class="edge">
<title>Node1&#45;&gt;Node2</title>
<path fill="none" stroke="midnightblue" d="M189.27,-128C197.64,-128 206.18,-128 214.72,-128"/>
<polygon fill="midnightblue" stroke="midnightblue" points="214.75,-131.5 224.75,-128 214.75,-124.5 214.75,-131.5"/>
</g>
<!-- Node3 -->
<g id="node3" class="node">
<title>Node3</title>
<g id="a_node3"><a xlink:href="classQuantConnect_1_1Lean_1_1Engine_1_1DataFeeds_1_1FileSystemDataFeed.html#a03afe9ed0b4f26f8e96d890fd0b17d1c" target="_top" xlink:title="Will add a fill forward enumerator if requested">
<polygon fill="white" stroke="black" points="486,-148.5 486,-189.5 675,-189.5 675,-148.5 486,-148.5"/>
<text text-anchor="start" x="494" y="-177.5" font-family="Helvetica,sans-Serif" font-size="10.00">QuantConnect.Lean.Engine.</text>
<text text-anchor="start" x="494" y="-166.5" font-family="Helvetica,sans-Serif" font-size="10.00">DataFeeds.FileSystemDataFeed.Try</text>
<text text-anchor="middle" x="580.5" y="-155.5" font-family="Helvetica,sans-Serif" font-size="10.00">AddFillForwardEnumerator</text>
</a>
</g>
</g>
<!-- Node2&#45;&gt;Node3 -->
<g id="edge2" class="edge">
<title>Node2&#45;&gt;Node3</title>
<path fill="none" stroke="midnightblue" d="M446.27,-146.52C456.07,-148.17 465.98,-149.85 475.72,-151.49"/>
<polygon fill="midnightblue" stroke="midnightblue" points="475.37,-154.98 485.82,-153.19 476.54,-148.08 475.37,-154.98"/>
</g>
<!-- Node5 -->
<g id="node5" class="node">
<title>Node5</title>
<g id="a_node5"><a xlink:href="classQuantConnect_1_1Lean_1_1Engine_1_1DataFeeds_1_1Enumerators_1_1SubscriptionFilterEnumerator.html#a489162658ae5cb3ea3b12e66b104a3f2" target="_top" xlink:title="Convenience method to wrap the enumerator and attach the data filter event to log and alery users of ...">
<polygon fill="white" stroke="black" points="482,-77.5 482,-118.5 679,-118.5 679,-77.5 482,-77.5"/>
<text text-anchor="start" x="490" y="-106.5" font-family="Helvetica,sans-Serif" font-size="10.00">QuantConnect.Lean.Engine.</text>
<text text-anchor="start" x="490" y="-95.5" font-family="Helvetica,sans-Serif" font-size="10.00">DataFeeds.Enumerators.Subscription</text>
<text text-anchor="middle" x="580.5" y="-84.5" font-family="Helvetica,sans-Serif" font-size="10.00">FilterEnumerator.WrapForDataFeed</text>
</a>
</g>
</g>
<!-- Node2&#45;&gt;Node5 -->
<g id="edge4" class="edge">
<title>Node2&#45;&gt;Node5</title>
<path fill="none" stroke="midnightblue" d="M446.27,-114.45C454.68,-113.41 463.16,-112.36 471.55,-111.33"/>
<polygon fill="midnightblue" stroke="midnightblue" points="472.24,-114.77 481.73,-110.07 471.38,-107.82 472.24,-114.77"/>
</g>
<!-- Node4 -->
<g id="node4" class="node">
<title>Node4</title>
<g id="a_node4"><a xlink:href="classQuantConnect_1_1Lean_1_1Engine_1_1DataFeeds_1_1SubscriptionCollection.html#a003d18530854d890b5c0733ff10a6f35" target="_top" xlink:title="Gets and updates the fill forward resolution by checking specified subscription configurations and se...">
<polygon fill="white" stroke="black" points="739.5,-159.5 739.5,-200.5 932.5,-200.5 932.5,-159.5 739.5,-159.5"/>
<text text-anchor="start" x="747.5" y="-188.5" font-family="Helvetica,sans-Serif" font-size="10.00">QuantConnect.Lean.Engine.</text>
<text text-anchor="start" x="747.5" y="-177.5" font-family="Helvetica,sans-Serif" font-size="10.00">DataFeeds.SubscriptionCollection.</text>
<text text-anchor="middle" x="836" y="-166.5" font-family="Helvetica,sans-Serif" font-size="10.00">UpdateAndGetFillForwardResolution</text>
</a>
</g>
</g>
<!-- Node3&#45;&gt;Node4 -->
<g id="edge3" class="edge">
<title>Node3&#45;&gt;Node4</title>
<path fill="none" stroke="midnightblue" d="M675.17,-173.06C692.62,-173.82 710.97,-174.62 728.77,-175.39"/>
<polygon fill="midnightblue" stroke="midnightblue" points="729.03,-178.9 739.17,-175.84 729.33,-171.91 729.03,-178.9"/>
</g>
<!-- Node6 -->
<g id="node6" class="node">
<title>Node6</title>
<g id="a_node6"><a xlink:href="classQuantConnect_1_1Logging_1_1Log.html#af0e7955911bc7664b37661b2a303a9e3" target="_top" xlink:title="Log error">
<polygon fill="white" stroke="black" points="761,-110 761,-140 911,-140 911,-110 761,-110"/>
<text text-anchor="start" x="769" y="-128" font-family="Helvetica,sans-Serif" font-size="10.00">QuantConnect.Logging.Log.</text>
<text text-anchor="middle" x="836" y="-117" font-family="Helvetica,sans-Serif" font-size="10.00">Error</text>
</a>
</g>
</g>
<!-- Node5&#45;&gt;Node6 -->
<g id="edge5" class="edge">
<title>Node5&#45;&gt;Node6</title>
<path fill="none" stroke="midnightblue" d="M679.15,-108.4C702.72,-110.91 727.71,-113.57 750.61,-116.01"/>
<polygon fill="midnightblue" stroke="midnightblue" points="750.32,-119.5 760.63,-117.08 751.06,-112.54 750.32,-119.5"/>
</g>
<!-- Node8 -->
<g id="node8" class="node">
<title>Node8</title>
<g id="a_node8"><a xlink:href="interfaceQuantConnect_1_1Lean_1_1Engine_1_1Results_1_1IResultHandler.html#a39001e16aa61bfdefb3f42503e46cf06" target="_top" xlink:title="Send a runtime error message back to the browser highlighted with in red">
<polygon fill="white" stroke="black" points="739,-61 739,-91 933,-91 933,-61 739,-61"/>
<text text-anchor="start" x="747" y="-79" font-family="Helvetica,sans-Serif" font-size="10.00">QuantConnect.Lean.Engine.</text>
<text text-anchor="middle" x="836" y="-68" font-family="Helvetica,sans-Serif" font-size="10.00">Results.IResultHandler.RuntimeError</text>
</a>
</g>
</g>
<!-- Node5&#45;&gt;Node8 -->
<g id="edge7" class="edge">
<title>Node5&#45;&gt;Node8</title>
<path fill="none" stroke="midnightblue" d="M679.15,-89.53C695.32,-88.12 712.16,-86.66 728.53,-85.24"/>
<polygon fill="midnightblue" stroke="midnightblue" points="729,-88.71 738.66,-84.36 728.39,-81.74 729,-88.71"/>
</g>
<!-- Node9 -->
<g id="node9" class="node">
<title>Node9</title>
<g id="a_node9"><a xlink:href="classQuantConnect_1_1Lean_1_1Engine_1_1DataFeeds_1_1Enumerators_1_1SubscriptionFilterEnumerator.html#ab41f26d23f7f81622f4cb448eb9fdcee" target="_top" xlink:title="Initializes a new instance of the SubscriptionFilterEnumerator class">
<polygon fill="white" stroke="black" points="715,-0.5 715,-41.5 957,-41.5 957,-0.5 715,-0.5"/>
<text text-anchor="start" x="723" y="-29.5" font-family="Helvetica,sans-Serif" font-size="10.00">QuantConnect.Lean.Engine.</text>
<text text-anchor="start" x="723" y="-18.5" font-family="Helvetica,sans-Serif" font-size="10.00">DataFeeds.Enumerators.Subscription</text>
<text text-anchor="middle" x="836" y="-7.5" font-family="Helvetica,sans-Serif" font-size="10.00">FilterEnumerator.SubscriptionFilterEnumerator</text>
</a>
</g>
</g>
<!-- Node5&#45;&gt;Node9 -->
<g id="edge8" class="edge">
<title>Node5&#45;&gt;Node9</title>
<path fill="none" stroke="midnightblue" d="M638.02,-77.42C661.67,-69.1 689.53,-59.66 715,-52 723.7,-49.38 732.8,-46.78 741.92,-44.27"/>
<polygon fill="midnightblue" stroke="midnightblue" points="743.08,-47.58 751.81,-41.58 741.24,-40.83 743.08,-47.58"/>
</g>
<!-- Node7 -->
<g id="node7" class="node">
<title>Node7</title>
<g id="a_node7"><a xlink:href="interfaceQuantConnect_1_1Logging_1_1ILogHandler.html#a35373a0c5d76031fa5ccf5dc39e5c25d" target="_top" xlink:title="Write error message to log">
<polygon fill="white" stroke="black" points="993,-110 993,-140 1143,-140 1143,-110 993,-110"/>
<text text-anchor="start" x="1001" y="-128" font-family="Helvetica,sans-Serif" font-size="10.00">QuantConnect.Logging.ILog</text>
<text text-anchor="middle" x="1068" y="-117" font-family="Helvetica,sans-Serif" font-size="10.00">Handler.Error</text>
</a>
</g>
</g>
<!-- Node6&#45;&gt;Node7 -->
<g id="edge6" class="edge">
<title>Node6&#45;&gt;Node7</title>
<path fill="none" stroke="midnightblue" d="M911.04,-125C933.8,-125 959.03,-125 982.44,-125"/>
<polygon fill="midnightblue" stroke="midnightblue" points="982.71,-128.5 992.71,-125 982.71,-121.5 982.71,-128.5"/>
</g>
</g>
</svg>
