<?xml version="1.0" encoding="UTF-8" standalone="no"?>
<!DOCTYPE svg PUBLIC "-//W3C//DTD SVG 1.1//EN"
 "http://www.w3.org/Graphics/SVG/1.1/DTD/svg11.dtd">
<!-- Generated by graphviz version 2.43.0 (0)
 -->
<!-- Title: QuantConnect.Securities.SecurityPortfolioManager.InvalidateTotalPortfolioValue Pages: 1 -->
<svg width="829pt" height="149pt"
 viewBox="0.00 0.00 829.00 148.50" xmlns="http://www.w3.org/2000/svg" xmlns:xlink="http://www.w3.org/1999/xlink">
<g id="graph0" class="graph" transform="scale(1 1) rotate(0) translate(4 144.5)">
<title>QuantConnect.Securities.SecurityPortfolioManager.InvalidateTotalPortfolioValue</title>
<polygon fill="white" stroke="transparent" points="-4,4 -4,-144.5 825,-144.5 825,4 -4,4"/>
<!-- Node1 -->
<g id="node1" class="node">
<title>Node1</title>
<g id="a_node1"><a xlink:title="Will flag the current TotalPortfolioValue as invalid so it is recalculated when gotten">
<polygon fill="#bfbfbf" stroke="black" points="630,-55.5 630,-96.5 821,-96.5 821,-55.5 630,-55.5"/>
<text text-anchor="start" x="638" y="-84.5" font-family="Helvetica,sans-Serif" font-size="10.00">QuantConnect.Securities.</text>
<text text-anchor="start" x="638" y="-73.5" font-family="Helvetica,sans-Serif" font-size="10.00">SecurityPortfolioManager.Invalidate</text>
<text text-anchor="middle" x="725.5" y="-62.5" font-family="Helvetica,sans-Serif" font-size="10.00">TotalPortfolioValue</text>
</a>
</g>
</g>
<!-- Node2 -->
<g id="node2" class="node">
<title>Node2</title>
<g id="a_node2"><a xlink:href="classQuantConnect_1_1Securities_1_1SecurityPortfolioManager.html#a808f4e2619ea3f081dbe17e44c6015d7" target="_top" xlink:title="Applies a split to the portfolio">
<polygon fill="white" stroke="black" points="398,-110 398,-140 590,-140 590,-110 398,-110"/>
<text text-anchor="start" x="406" y="-128" font-family="Helvetica,sans-Serif" font-size="10.00">QuantConnect.Securities.</text>
<text text-anchor="middle" x="494" y="-117" font-family="Helvetica,sans-Serif" font-size="10.00">SecurityPortfolioManager.ApplySplit</text>
</a>
</g>
</g>
<!-- Node1&#45;&gt;Node2 -->
<g id="edge1" class="edge">
<title>Node1&#45;&gt;Node2</title>
<path fill="none" stroke="midnightblue" d="M619.9,-98.33C601.39,-102.28 582.53,-106.31 565.26,-110"/>
<polygon fill="midnightblue" stroke="midnightblue" points="620.78,-101.72 629.83,-96.21 619.32,-94.88 620.78,-101.72"/>
</g>
<!-- Node5 -->
<g id="node5" class="node">
<title>Node5</title>
<g id="a_node5"><a xlink:href="classQuantConnect_1_1Securities_1_1SecurityPortfolioManager.html#a751323890ce886a53be10317888a10bb" target="_top" xlink:title="Calculate the new average price after processing a list of partial/complete order fill events.">
<polygon fill="white" stroke="black" points="394,-61 394,-91 594,-91 594,-61 394,-61"/>
<text text-anchor="start" x="402" y="-79" font-family="Helvetica,sans-Serif" font-size="10.00">QuantConnect.Securities.</text>
<text text-anchor="middle" x="494" y="-68" font-family="Helvetica,sans-Serif" font-size="10.00">SecurityPortfolioManager.ProcessFills</text>
</a>
</g>
</g>
<!-- Node1&#45;&gt;Node5 -->
<g id="edge4" class="edge">
<title>Node1&#45;&gt;Node5</title>
<path fill="none" stroke="midnightblue" d="M619.6,-76C611.17,-76 602.67,-76 594.28,-76"/>
<polygon fill="midnightblue" stroke="midnightblue" points="619.83,-79.5 629.83,-76 619.83,-72.5 619.83,-79.5"/>
</g>
<!-- Node6 -->
<g id="node6" class="node">
<title>Node6</title>
<g id="a_node6"><a xlink:href="classQuantConnect_1_1Securities_1_1SecurityPortfolioManager.html#a4deedc3eb22eec91dacb5bcd0c35dc79" target="_top" xlink:title="Initialise security portfolio manager.">
<polygon fill="white" stroke="black" points="403,-0.5 403,-41.5 585,-41.5 585,-0.5 403,-0.5"/>
<text text-anchor="start" x="411" y="-29.5" font-family="Helvetica,sans-Serif" font-size="10.00">QuantConnect.Securities.</text>
<text text-anchor="start" x="411" y="-18.5" font-family="Helvetica,sans-Serif" font-size="10.00">SecurityPortfolioManager.Security</text>
<text text-anchor="middle" x="494" y="-7.5" font-family="Helvetica,sans-Serif" font-size="10.00">PortfolioManager</text>
</a>
</g>
</g>
<!-- Node1&#45;&gt;Node6 -->
<g id="edge5" class="edge">
<title>Node1&#45;&gt;Node6</title>
<path fill="none" stroke="midnightblue" d="M628.85,-53.08C612.87,-49.25 596.39,-45.3 580.68,-41.53"/>
<polygon fill="midnightblue" stroke="midnightblue" points="628.18,-56.51 638.72,-55.44 629.81,-49.71 628.18,-56.51"/>
</g>
<!-- Node3 -->
<g id="node3" class="node">
<title>Node3</title>
<g id="a_node3"><a xlink:href="classQuantConnect_1_1Lean_1_1Engine_1_1AlgorithmManager.html#ab1723b951a86a876c7ae3cc7281365f3" target="_top" xlink:title="Helper method to apply a split to an algorithm instance">
<polygon fill="white" stroke="black" points="187,-110 187,-140 358,-140 358,-110 187,-110"/>
<text text-anchor="start" x="195" y="-128" font-family="Helvetica,sans-Serif" font-size="10.00">QuantConnect.Lean.Engine.</text>
<text text-anchor="middle" x="272.5" y="-117" font-family="Helvetica,sans-Serif" font-size="10.00">AlgorithmManager.HandleSplits</text>
</a>
</g>
</g>
<!-- Node2&#45;&gt;Node3 -->
<g id="edge2" class="edge">
<title>Node2&#45;&gt;Node3</title>
<path fill="none" stroke="midnightblue" d="M387.44,-125C377.58,-125 367.67,-125 358.04,-125"/>
<polygon fill="midnightblue" stroke="midnightblue" points="387.68,-128.5 397.68,-125 387.68,-121.5 387.68,-128.5"/>
</g>
<!-- Node4 -->
<g id="node4" class="node">
<title>Node4</title>
<g id="a_node4"><a xlink:href="classQuantConnect_1_1Lean_1_1Engine_1_1AlgorithmManager.html#a5ba2600e7fa0469346ee8841fa0e32f8" target="_top" xlink:title="Launch the algorithm manager to run this strategy">
<polygon fill="white" stroke="black" points="0,-110 0,-140 151,-140 151,-110 0,-110"/>
<text text-anchor="start" x="8" y="-128" font-family="Helvetica,sans-Serif" font-size="10.00">QuantConnect.Lean.Engine.</text>
<text text-anchor="middle" x="75.5" y="-117" font-family="Helvetica,sans-Serif" font-size="10.00">AlgorithmManager.Run</text>
</a>
</g>
</g>
<!-- Node3&#45;&gt;Node4 -->
<g id="edge3" class="edge">
<title>Node3&#45;&gt;Node4</title>
<path fill="none" stroke="midnightblue" d="M176.72,-125C168.08,-125 159.42,-125 151,-125"/>
<polygon fill="midnightblue" stroke="midnightblue" points="176.82,-128.5 186.82,-125 176.82,-121.5 176.82,-128.5"/>
</g>
</g>
</svg>
