<?xml version="1.0" encoding="UTF-8" standalone="no"?>
<!DOCTYPE svg PUBLIC "-//W3C//DTD SVG 1.1//EN"
 "http://www.w3.org/Graphics/SVG/1.1/DTD/svg11.dtd">
<!-- Generated by graphviz version 2.43.0 (0)
 -->
<!-- Title: QuantConnect.Time.GetEndTimeForTradeBars Pages: 1 -->
<svg width="641pt" height="149pt"
 viewBox="0.00 0.00 641.00 148.50" xmlns="http://www.w3.org/2000/svg" xmlns:xlink="http://www.w3.org/1999/xlink">
<g id="graph0" class="graph" transform="scale(1 1) rotate(0) translate(4 144.5)">
<title>QuantConnect.Time.GetEndTimeForTradeBars</title>
<polygon fill="white" stroke="transparent" points="-4,4 -4,-144.5 637,-144.5 637,4 -4,4"/>
<!-- Node1 -->
<g id="node1" class="node">
<title>Node1</title>
<g id="a_node1"><a xlink:title="Determines the end time at which the requested number of bars of the given will have elapsed....">
<polygon fill="#bfbfbf" stroke="black" points="481,-61 481,-91 633,-91 633,-61 481,-61"/>
<text text-anchor="start" x="489" y="-79" font-family="Helvetica,sans-Serif" font-size="10.00">QuantConnect.Time.GetEnd</text>
<text text-anchor="middle" x="557" y="-68" font-family="Helvetica,sans-Serif" font-size="10.00">TimeForTradeBars</text>
</a>
</g>
</g>
<!-- Node2 -->
<g id="node2" class="node">
<title>Node2</title>
<g id="a_node2"><a xlink:href="classQuantConnect_1_1Algorithm_1_1Framework_1_1Alphas_1_1Insight.html#a9b0d98e6ada41f28b42e52f36b7f9f44" target="_top" xlink:title="Computes the insight closing time from the given generated time, resolution and bar count....">
<polygon fill="white" stroke="black" points="240.5,-110 240.5,-140 437.5,-140 437.5,-110 240.5,-110"/>
<text text-anchor="start" x="248.5" y="-128" font-family="Helvetica,sans-Serif" font-size="10.00">QuantConnect.Algorithm.Framework.</text>
<text text-anchor="middle" x="339" y="-117" font-family="Helvetica,sans-Serif" font-size="10.00">Alphas.Insight.ComputeCloseTime</text>
</a>
</g>
</g>
<!-- Node1&#45;&gt;Node2 -->
<g id="edge1" class="edge">
<title>Node1&#45;&gt;Node2</title>
<path fill="none" stroke="midnightblue" d="M479.92,-93.26C455.86,-98.72 429.46,-104.71 406.15,-109.99"/>
<polygon fill="midnightblue" stroke="midnightblue" points="480.75,-96.66 489.72,-91.03 479.2,-89.83 480.75,-96.66"/>
</g>
<!-- Node4 -->
<g id="node4" class="node">
<title>Node4</title>
<g id="a_node4"><a xlink:href="classQuantConnect_1_1Algorithm_1_1Framework_1_1Alphas_1_1Insight.html#a5e139a3ea6818855684c98ab54eaa1e4" target="_top" xlink:title="Computes the insight period from the given generated and close times">
<polygon fill="white" stroke="black" points="240.5,-61 240.5,-91 437.5,-91 437.5,-61 240.5,-61"/>
<text text-anchor="start" x="248.5" y="-79" font-family="Helvetica,sans-Serif" font-size="10.00">QuantConnect.Algorithm.Framework.</text>
<text text-anchor="middle" x="339" y="-68" font-family="Helvetica,sans-Serif" font-size="10.00">Alphas.Insight.ComputePeriod</text>
</a>
</g>
</g>
<!-- Node1&#45;&gt;Node4 -->
<g id="edge3" class="edge">
<title>Node1&#45;&gt;Node4</title>
<path fill="none" stroke="midnightblue" d="M470.55,-76C459.78,-76 448.7,-76 437.77,-76"/>
<polygon fill="midnightblue" stroke="midnightblue" points="470.76,-79.5 480.76,-76 470.76,-72.5 470.76,-79.5"/>
</g>
<!-- Node5 -->
<g id="node5" class="node">
<title>Node5</title>
<g id="a_node5"><a xlink:href="classQuantConnect_1_1Algorithm_1_1Framework_1_1Alphas_1_1Analysis_1_1InsightAnalysisContext.html#a2f28e51cd6848dd76874942ff3928088" target="_top" xlink:title="Initializes a new instance of the InsightAnalysisContext class">
<polygon fill="white" stroke="black" points="233,-0.5 233,-41.5 445,-41.5 445,-0.5 233,-0.5"/>
<text text-anchor="start" x="241" y="-29.5" font-family="Helvetica,sans-Serif" font-size="10.00">QuantConnect.Algorithm.Framework.</text>
<text text-anchor="start" x="241" y="-18.5" font-family="Helvetica,sans-Serif" font-size="10.00">Alphas.Analysis.InsightAnalysisContext.</text>
<text text-anchor="middle" x="339" y="-7.5" font-family="Helvetica,sans-Serif" font-size="10.00">InsightAnalysisContext</text>
</a>
</g>
</g>
<!-- Node1&#45;&gt;Node5 -->
<g id="edge4" class="edge">
<title>Node1&#45;&gt;Node5</title>
<path fill="none" stroke="midnightblue" d="M487.14,-58.47C466.04,-53.09 442.64,-47.13 420.81,-41.58"/>
<polygon fill="midnightblue" stroke="midnightblue" points="486.42,-61.9 496.98,-60.97 488.15,-55.11 486.42,-61.9"/>
</g>
<!-- Node3 -->
<g id="node3" class="node">
<title>Node3</title>
<g id="a_node3"><a xlink:href="classQuantConnect_1_1Algorithm_1_1Framework_1_1Alphas_1_1Insight.html#ac78ab1ab756a3e78a9ee46c5ed1752ff" target="_top" xlink:title="computs the insight closing time from the given generated time and period">
<polygon fill="white" stroke="black" points="0,-110 0,-140 197,-140 197,-110 0,-110"/>
<text text-anchor="start" x="8" y="-128" font-family="Helvetica,sans-Serif" font-size="10.00">QuantConnect.Algorithm.Framework.</text>
<text text-anchor="middle" x="98.5" y="-117" font-family="Helvetica,sans-Serif" font-size="10.00">Alphas.Insight.ComputeCloseTime</text>
</a>
</g>
</g>
<!-- Node2&#45;&gt;Node3 -->
<g id="edge2" class="edge">
<title>Node2&#45;&gt;Node3</title>
<path fill="none" stroke="midnightblue" d="M230.21,-125C219.16,-125 207.97,-125 197.04,-125"/>
<polygon fill="midnightblue" stroke="midnightblue" points="230.3,-128.5 240.3,-125 230.3,-121.5 230.3,-128.5"/>
</g>
</g>
</svg>
