<?xml version="1.0" encoding="UTF-8" standalone="no"?>
<!DOCTYPE svg PUBLIC "-//W3C//DTD SVG 1.1//EN"
 "http://www.w3.org/Graphics/SVG/1.1/DTD/svg11.dtd">
<!-- Generated by graphviz version 2.43.0 (0)
 -->
<!-- Title: QuantConnect.RealTimeSynchronizedTimer.RealTimeSynchronizedTimer Pages: 1 -->
<svg width="444pt" height="39pt"
 viewBox="0.00 0.00 444.00 39.00" xmlns="http://www.w3.org/2000/svg" xmlns:xlink="http://www.w3.org/1999/xlink">
<g id="graph0" class="graph" transform="scale(1 1) rotate(0) translate(4 35)">
<title>QuantConnect.RealTimeSynchronizedTimer.RealTimeSynchronizedTimer</title>
<polygon fill="white" stroke="transparent" points="-4,4 -4,-35 440,-35 440,4 -4,4"/>
<!-- Node1 -->
<g id="node1" class="node">
<title>Node1</title>
<g id="a_node1"><a xlink:title="Trigger an event callback after precisely milliseconds&#45;lapsed. This is expensive, it creates a new th...">
<polygon fill="#bfbfbf" stroke="black" points="0,-0.5 0,-30.5 200,-30.5 200,-0.5 0,-0.5"/>
<text text-anchor="start" x="8" y="-18.5" font-family="Helvetica,sans-Serif" font-size="10.00">QuantConnect.RealTimeSynchronized</text>
<text text-anchor="middle" x="100" y="-7.5" font-family="Helvetica,sans-Serif" font-size="10.00">Timer.RealTimeSynchronizedTimer</text>
</a>
</g>
</g>
<!-- Node2 -->
<g id="node2" class="node">
<title>Node2</title>
<g id="a_node2"><a xlink:href="classQuantConnect_1_1RealTimeSynchronizedTimer.html#acd30dfd6b99616e5ba5a33c22f726f00" target="_top" xlink:title="Scan the stopwatch for the desired millisecond delay:">
<polygon fill="white" stroke="black" points="236,-0.5 236,-30.5 436,-30.5 436,-0.5 236,-0.5"/>
<text text-anchor="start" x="244" y="-18.5" font-family="Helvetica,sans-Serif" font-size="10.00">QuantConnect.RealTimeSynchronized</text>
<text text-anchor="middle" x="336" y="-7.5" font-family="Helvetica,sans-Serif" font-size="10.00">Timer.Scanner</text>
</a>
</g>
</g>
<!-- Node1&#45;&gt;Node2 -->
<g id="edge1" class="edge">
<title>Node1&#45;&gt;Node2</title>
<path fill="none" stroke="midnightblue" d="M200.24,-15.5C208.74,-15.5 217.38,-15.5 225.95,-15.5"/>
<polygon fill="midnightblue" stroke="midnightblue" points="225.98,-19 235.98,-15.5 225.98,-12 225.98,-19"/>
</g>
</g>
</svg>
