<?xml version="1.0" encoding="UTF-8" standalone="no"?>
<!DOCTYPE svg PUBLIC "-//W3C//DTD SVG 1.1//EN"
 "http://www.w3.org/Graphics/SVG/1.1/DTD/svg11.dtd">
<!-- Generated by graphviz version 2.43.0 (0)
 -->
<!-- Title: QuantConnect.Algorithm.Framework.Alphas.InsightCollection.Remove Pages: 1 -->
<svg width="457pt" height="100pt"
 viewBox="0.00 0.00 457.00 99.50" xmlns="http://www.w3.org/2000/svg" xmlns:xlink="http://www.w3.org/1999/xlink">
<g id="graph0" class="graph" transform="scale(1 1) rotate(0) translate(4 95.5)">
<title>QuantConnect.Algorithm.Framework.Alphas.InsightCollection.Remove</title>
<polygon fill="white" stroke="transparent" points="-4,4 -4,-95.5 453,-95.5 453,4 -4,4"/>
<!-- Node1 -->
<g id="node1" class="node">
<title>Node1</title>
<g id="a_node1"><a xlink:title="Removes the first occurrence of a specific object from the T:System.Collections.Generic....">
<polygon fill="#bfbfbf" stroke="black" points="252,-27.5 252,-57.5 449,-57.5 449,-27.5 252,-27.5"/>
<text text-anchor="start" x="260" y="-45.5" font-family="Helvetica,sans-Serif" font-size="10.00">QuantConnect.Algorithm.Framework.</text>
<text text-anchor="middle" x="350.5" y="-34.5" font-family="Helvetica,sans-Serif" font-size="10.00">Alphas.InsightCollection.Remove</text>
</a>
</g>
</g>
<!-- Node2 -->
<g id="node2" class="node">
<title>Node2</title>
<g id="a_node2"><a xlink:href="classQuantConnect_1_1Algorithm_1_1Framework_1_1Alphas_1_1InsightCollection.html#a032b6852139ad13b87be2dd28e3b603f" target="_top" xlink:title="Remove all expired insights from the collection and retuns them">
<polygon fill="white" stroke="black" points="0.5,-50 0.5,-91 215.5,-91 215.5,-50 0.5,-50"/>
<text text-anchor="start" x="8.5" y="-79" font-family="Helvetica,sans-Serif" font-size="10.00">QuantConnect.Algorithm.Framework.</text>
<text text-anchor="start" x="8.5" y="-68" font-family="Helvetica,sans-Serif" font-size="10.00">Alphas.InsightCollection.RemoveExpired</text>
<text text-anchor="middle" x="108" y="-57" font-family="Helvetica,sans-Serif" font-size="10.00">Insights</text>
</a>
</g>
</g>
<!-- Node1&#45;&gt;Node2 -->
<g id="edge1" class="edge">
<title>Node1&#45;&gt;Node2</title>
<path fill="none" stroke="midnightblue" d="M241.63,-55.06C233.03,-56.06 224.35,-57.07 215.76,-58.07"/>
<polygon fill="midnightblue" stroke="midnightblue" points="242.15,-58.52 251.68,-53.89 241.34,-51.57 242.15,-58.52"/>
</g>
<!-- Node3 -->
<g id="node3" class="node">
<title>Node3</title>
<g id="a_node3"><a xlink:href="classQuantConnect_1_1Algorithm_1_1Framework_1_1Alphas_1_1InsightCollection.html#aa7ea83a1b6fbaa706aadedecb63a840a" target="_top" xlink:title="Will remove insights from the complete insight collection">
<polygon fill="white" stroke="black" points="0,-0.5 0,-30.5 216,-30.5 216,-0.5 0,-0.5"/>
<text text-anchor="start" x="8" y="-18.5" font-family="Helvetica,sans-Serif" font-size="10.00">QuantConnect.Algorithm.Framework.</text>
<text text-anchor="middle" x="108" y="-7.5" font-family="Helvetica,sans-Serif" font-size="10.00">Alphas.InsightCollection.RemoveInsights</text>
</a>
</g>
</g>
<!-- Node1&#45;&gt;Node3 -->
<g id="edge2" class="edge">
<title>Node1&#45;&gt;Node3</title>
<path fill="none" stroke="midnightblue" d="M241.47,-30.37C233.05,-29.43 224.56,-28.47 216.15,-27.53"/>
<polygon fill="midnightblue" stroke="midnightblue" points="241.35,-33.88 251.68,-31.52 242.13,-26.92 241.35,-33.88"/>
</g>
</g>
</svg>
