<?xml version="1.0" encoding="UTF-8" standalone="no"?>
<!DOCTYPE svg PUBLIC "-//W3C//DTD SVG 1.1//EN"
 "http://www.w3.org/Graphics/SVG/1.1/DTD/svg11.dtd">
<!-- Generated by graphviz version 2.43.0 (0)
 -->
<!-- Title: QuantConnect.Brokerages.CoinbaseBrokerageModel.GetBenchmark Pages: 1 -->
<!--zoomable 645 -->
<svg id="main" version="1.1" xmlns="http://www.w3.org/2000/svg" xmlns:xlink="http://www.w3.org/1999/xlink" xml:space="preserve" onload="init(evt)">
<style type="text/css"><![CDATA[
.edge:hover path { stroke: red; }
.edge:hover polygon { stroke: red; fill: red; }
]]></style>
<script type="text/javascript"><![CDATA[
var edges = document.getElementsByTagName('g');
if (edges && edges.length) {
  for (var i=0;i<edges.length;i++) {
    if (edges[i].id.substr(0,4)=='edge') {
      edges[i].setAttribute('class','edge');
    }
  }
}
]]></script>
        <defs>
                <circle id="rim" cx="0" cy="0" r="7"/>
                <circle id="rim2" cx="0" cy="0" r="3.5"/>
                <g id="zoomPlus">
                        <use xlink:href="#rim" fill="#404040">
                                <set attributeName="fill" to="#808080" begin="zoomplus.mouseover" end="zoomplus.mouseout"/>
                        </use>
                        <path d="M-4,0h8M0,-4v8" fill="none" stroke="white" stroke-width="1.5" pointer-events="none"/>
                </g>
                <g id="zoomMin">
                        <use xlink:href="#rim" fill="#404040">
                                <set attributeName="fill" to="#808080" begin="zoomminus.mouseover" end="zoomminus.mouseout"/>
                        </use>
                        <path d="M-4,0h8" fill="none" stroke="white" stroke-width="1.5" pointer-events="none"/>
                </g>
                <g id="dirArrow">
                        <path fill="none" stroke="white" stroke-width="1.5" d="M0,-3.0v7 M-2.5,-0.5L0,-3.0L2.5,-0.5"/>
                </g>
               <g id="resetDef">
                       <use xlink:href="#rim2" fill="#404040">
                               <set attributeName="fill" to="#808080" begin="reset.mouseover" end="reset.mouseout"/>
                       </use>
               </g>
        </defs>

<script type="text/javascript">
var viewWidth = 2126;
var viewHeight = 645;
var sectionId = 'dynsection-1';
</script>
<script xlink:href="svgpan.js"/>
<svg id="graph" class="graph">
<g id="viewport">
<title>QuantConnect.Brokerages.CoinbaseBrokerageModel.GetBenchmark</title>
<polygon fill="white" stroke="transparent" points="-4,4 -4,-641.06 2122,-641.06 2122,4 -4,4"/>
<!-- Node1 -->
<g id="node1" class="node">
<title>Node1</title>
<g id="a_node1"><a xlink:title="Get the benchmark for this model">
<polygon fill="#bfbfbf" stroke="black" points="0,-252.5 0,-282.5 217,-282.5 217,-252.5 0,-252.5"/>
<text text-anchor="start" x="8" y="-270.5" font-family="Helvetica,sans-Serif" font-size="10.00">QuantConnect.Brokerages.</text>
<text text-anchor="middle" x="108.5" y="-259.5" font-family="Helvetica,sans-Serif" font-size="10.00">CoinbaseBrokerageModel.GetBenchmark</text>
</a>
</g>
</g>
<!-- Node2 -->
<g id="node2" class="node">
<title>Node2</title>
<g id="a_node2"><a xlink:href="classQuantConnect_1_1Symbol.html#a350b9a625cf7bad95da82894be3cd0a8" target="_top" xlink:title="Provides a convenience method for creating a Symbol for most security types. This method currently do...">
<polygon fill="white" stroke="black" points="266.5,-381 266.5,-400 427.5,-400 427.5,-381 266.5,-381"/>
<text text-anchor="middle" x="347" y="-388" font-family="Helvetica,sans-Serif" font-size="10.00">QuantConnect.Symbol.Create</text>
</a>
</g>
</g>
<!-- Node1&#45;&gt;Node2 -->
<g id="edge1" class="edge">
<title>Node1&#45;&gt;Node2</title>
<path fill="none" stroke="midnightblue" d="M138.5,-282.58C184.56,-306.54 273.82,-352.96 318.75,-376.33"/>
<polygon fill="midnightblue" stroke="midnightblue" points="317.15,-379.44 327.64,-380.95 320.38,-373.23 317.15,-379.44"/>
</g>
<!-- Node18 -->
<g id="node18" class="node">
<title>Node18</title>
<g id="a_node18"><a xlink:href="classQuantConnect_1_1Benchmarks_1_1SecurityBenchmark.html#a40c97e12584a0fc70ffb48f9aead3287" target="_top" xlink:title="Helper function that will create a security with the given SecurityManager for a specific symbol and ...">
<polygon fill="white" stroke="black" points="253,-130.5 253,-160.5 441,-160.5 441,-130.5 253,-130.5"/>
<text text-anchor="start" x="261" y="-148.5" font-family="Helvetica,sans-Serif" font-size="10.00">QuantConnect.Benchmarks.</text>
<text text-anchor="middle" x="347" y="-137.5" font-family="Helvetica,sans-Serif" font-size="10.00">SecurityBenchmark.CreateInstance</text>
</a>
</g>
</g>
<!-- Node1&#45;&gt;Node18 -->
<g id="edge19" class="edge">
<title>Node1&#45;&gt;Node18</title>
<path fill="none" stroke="midnightblue" d="M138.97,-252.3C181.69,-230.26 260.84,-189.43 307.93,-165.14"/>
<polygon fill="midnightblue" stroke="midnightblue" points="309.61,-168.21 316.9,-160.51 306.4,-161.99 309.61,-168.21"/>
</g>
<!-- Node3 -->
<g id="node3" class="node">
<title>Node3</title>
<g id="a_node3"><a xlink:href="classQuantConnect_1_1Symbol.html#a7518a1932d1babbff128f2ba9666a78b" target="_top" xlink:title="Provides a convenience method for creating an option Symbol.">
<polygon fill="white" stroke="black" points="501.5,-561.5 501.5,-591.5 662.5,-591.5 662.5,-561.5 501.5,-561.5"/>
<text text-anchor="start" x="509.5" y="-579.5" font-family="Helvetica,sans-Serif" font-size="10.00">QuantConnect.Symbol.Create</text>
<text text-anchor="middle" x="582" y="-568.5" font-family="Helvetica,sans-Serif" font-size="10.00">Option</text>
</a>
</g>
</g>
<!-- Node2&#45;&gt;Node3 -->
<g id="edge2" class="edge">
<title>Node2&#45;&gt;Node3</title>
<path fill="none" stroke="midnightblue" d="M353.24,-400.27C368.46,-427.73 415.58,-506.23 477,-546.5 483.57,-550.81 490.78,-554.51 498.23,-557.69"/>
<polygon fill="midnightblue" stroke="midnightblue" points="497.18,-561.04 507.77,-561.44 499.74,-554.53 497.18,-561.04"/>
</g>
<!-- Node4 -->
<g id="node4" class="node">
<title>Node4</title>
<g id="a_node4"><a xlink:href="classQuantConnect_1_1SecurityIdentifier.html#a0c21d7880c9fdd260883d11ea0c99a00" target="_top" xlink:title="Helper overload that will search the mapfiles to resolve the first date. This implementation uses the...">
<polygon fill="white" stroke="black" points="723,-594.5 723,-624.5 897,-624.5 897,-594.5 723,-594.5"/>
<text text-anchor="start" x="731" y="-612.5" font-family="Helvetica,sans-Serif" font-size="10.00">QuantConnect.SecurityIdentifier.</text>
<text text-anchor="middle" x="810" y="-601.5" font-family="Helvetica,sans-Serif" font-size="10.00">GenerateEquity</text>
</a>
</g>
</g>
<!-- Node2&#45;&gt;Node4 -->
<g id="edge14" class="edge">
<title>Node2&#45;&gt;Node4</title>
<path fill="none" stroke="midnightblue" d="M350.45,-400.46C359.72,-435.71 396.29,-554.96 477,-601.5 556.86,-647.55 666.47,-639.2 737.52,-626.44"/>
<polygon fill="midnightblue" stroke="midnightblue" points="738.53,-629.81 747.71,-624.53 737.24,-622.93 738.53,-629.81"/>
</g>
<!-- Node5 -->
<g id="node5" class="node">
<title>Node5</title>
<g id="a_node5"><a xlink:href="classQuantConnect_1_1Symbol.html#a59158f74116be3dad0ea0f3f3f134416" target="_top" xlink:title="Initializes a new instance of the Symbol class">
<polygon fill="white" stroke="black" points="727.5,-534 727.5,-553 892.5,-553 892.5,-534 727.5,-534"/>
<text text-anchor="middle" x="810" y="-541" font-family="Helvetica,sans-Serif" font-size="10.00">QuantConnect.Symbol.Symbol</text>
</a>
</g>
</g>
<!-- Node2&#45;&gt;Node5 -->
<g id="edge18" class="edge">
<title>Node2&#45;&gt;Node5</title>
<path fill="none" stroke="midnightblue" d="M354.44,-400.08C371.26,-424.18 419.23,-487.29 477,-513.5 552.85,-547.91 648.35,-553.11 717.43,-551.07"/>
<polygon fill="midnightblue" stroke="midnightblue" points="717.55,-554.57 727.43,-550.72 717.31,-547.57 717.55,-554.57"/>
</g>
<!-- Node10 -->
<g id="node10" class="node">
<title>Node10</title>
<g id="a_node10"><a xlink:href="classQuantConnect_1_1SecurityIdentifier.html#a02ca750115844561c001c2346fbafc00" target="_top" xlink:title="Generates a new SecurityIdentifier for a custom security with the option of providing the first date">
<polygon fill="white" stroke="black" points="495,-473.5 495,-503.5 669,-503.5 669,-473.5 495,-473.5"/>
<text text-anchor="start" x="503" y="-491.5" font-family="Helvetica,sans-Serif" font-size="10.00">QuantConnect.SecurityIdentifier.</text>
<text text-anchor="middle" x="582" y="-480.5" font-family="Helvetica,sans-Serif" font-size="10.00">GenerateBase</text>
</a>
</g>
</g>
<!-- Node2&#45;&gt;Node10 -->
<g id="edge9" class="edge">
<title>Node2&#45;&gt;Node10</title>
<path fill="none" stroke="midnightblue" d="M361.63,-400.14C384.45,-415.85 432.29,-446.96 477,-464.5 482.53,-466.67 488.3,-468.67 494.17,-470.51"/>
<polygon fill="midnightblue" stroke="midnightblue" points="493.52,-473.97 504.11,-473.46 495.52,-467.26 493.52,-473.97"/>
</g>
<!-- Node12 -->
<g id="node12" class="node">
<title>Node12</title>
<g id="a_node12"><a xlink:href="classQuantConnect_1_1SecurityIdentifier.html#a53953b18d814c5445e4ecdcb3b555080" target="_top" xlink:title="Generates a new SecurityIdentifier for a CFD security">
<polygon fill="white" stroke="black" points="495,-424.5 495,-454.5 669,-454.5 669,-424.5 495,-424.5"/>
<text text-anchor="start" x="503" y="-442.5" font-family="Helvetica,sans-Serif" font-size="10.00">QuantConnect.SecurityIdentifier.</text>
<text text-anchor="middle" x="582" y="-431.5" font-family="Helvetica,sans-Serif" font-size="10.00">GenerateCfd</text>
</a>
</g>
</g>
<!-- Node2&#45;&gt;Node12 -->
<g id="edge11" class="edge">
<title>Node2&#45;&gt;Node12</title>
<path fill="none" stroke="midnightblue" d="M393.2,-400.01C423.32,-406.34 463.77,-414.85 499.42,-422.34"/>
<polygon fill="midnightblue" stroke="midnightblue" points="498.83,-425.8 509.33,-424.43 500.27,-418.95 498.83,-425.8"/>
</g>
<!-- Node13 -->
<g id="node13" class="node">
<title>Node13</title>
<g id="a_node13"><a xlink:href="classQuantConnect_1_1SecurityIdentifier.html#a5889a95a36ce927dd0a109cbfbcbe663" target="_top" xlink:title="Generates a new SecurityIdentifier for a Crypto pair">
<polygon fill="white" stroke="black" points="495,-375.5 495,-405.5 669,-405.5 669,-375.5 495,-375.5"/>
<text text-anchor="start" x="503" y="-393.5" font-family="Helvetica,sans-Serif" font-size="10.00">QuantConnect.SecurityIdentifier.</text>
<text text-anchor="middle" x="582" y="-382.5" font-family="Helvetica,sans-Serif" font-size="10.00">GenerateCrypto</text>
</a>
</g>
</g>
<!-- Node2&#45;&gt;Node13 -->
<g id="edge12" class="edge">
<title>Node2&#45;&gt;Node13</title>
<path fill="none" stroke="midnightblue" d="M427.53,-390.5C445.86,-390.5 465.55,-390.5 484.51,-390.5"/>
<polygon fill="midnightblue" stroke="midnightblue" points="484.65,-394 494.65,-390.5 484.65,-387 484.65,-394"/>
</g>
<!-- Node14 -->
<g id="node14" class="node">
<title>Node14</title>
<g id="a_node14"><a xlink:href="classQuantConnect_1_1SecurityIdentifier.html#ac665665a16d5449872fed3427b95a260" target="_top" xlink:title="Generates a new SecurityIdentifier for a CryptoFuture pair">
<polygon fill="white" stroke="black" points="495,-326.5 495,-356.5 669,-356.5 669,-326.5 495,-326.5"/>
<text text-anchor="start" x="503" y="-344.5" font-family="Helvetica,sans-Serif" font-size="10.00">QuantConnect.SecurityIdentifier.</text>
<text text-anchor="middle" x="582" y="-333.5" font-family="Helvetica,sans-Serif" font-size="10.00">GenerateCryptoFuture</text>
</a>
</g>
</g>
<!-- Node2&#45;&gt;Node14 -->
<g id="edge13" class="edge">
<title>Node2&#45;&gt;Node14</title>
<path fill="none" stroke="midnightblue" d="M393.2,-380.99C423.32,-374.66 463.77,-366.15 499.42,-358.66"/>
<polygon fill="midnightblue" stroke="midnightblue" points="500.27,-362.05 509.33,-356.57 498.83,-355.2 500.27,-362.05"/>
</g>
<!-- Node15 -->
<g id="node15" class="node">
<title>Node15</title>
<g id="a_node15"><a xlink:href="classQuantConnect_1_1SecurityIdentifier.html#a9cf0d3b208a5171e6112516ce441f18d" target="_top" xlink:title="Generates a new SecurityIdentifier for a forex pair">
<polygon fill="white" stroke="black" points="495,-277.5 495,-307.5 669,-307.5 669,-277.5 495,-277.5"/>
<text text-anchor="start" x="503" y="-295.5" font-family="Helvetica,sans-Serif" font-size="10.00">QuantConnect.SecurityIdentifier.</text>
<text text-anchor="middle" x="582" y="-284.5" font-family="Helvetica,sans-Serif" font-size="10.00">GenerateForex</text>
</a>
</g>
</g>
<!-- Node2&#45;&gt;Node15 -->
<g id="edge15" class="edge">
<title>Node2&#45;&gt;Node15</title>
<path fill="none" stroke="midnightblue" d="M362.04,-380.8C385.06,-365.31 432.71,-334.96 477,-317.5 483.59,-314.9 490.53,-312.52 497.56,-310.36"/>
<polygon fill="midnightblue" stroke="midnightblue" points="498.58,-313.7 507.19,-307.53 496.61,-306.99 498.58,-313.7"/>
</g>
<!-- Node16 -->
<g id="node16" class="node">
<title>Node16</title>
<g id="a_node16"><a xlink:href="classQuantConnect_1_1SecurityIdentifier.html#ad50a891c97cb0c084a9e2aa43607ed66" target="_top" xlink:title="Generates a new SecurityIdentifier for a future">
<polygon fill="white" stroke="black" points="495,-228.5 495,-258.5 669,-258.5 669,-228.5 495,-228.5"/>
<text text-anchor="start" x="503" y="-246.5" font-family="Helvetica,sans-Serif" font-size="10.00">QuantConnect.SecurityIdentifier.</text>
<text text-anchor="middle" x="582" y="-235.5" font-family="Helvetica,sans-Serif" font-size="10.00">GenerateFuture</text>
</a>
</g>
</g>
<!-- Node2&#45;&gt;Node16 -->
<g id="edge16" class="edge">
<title>Node2&#45;&gt;Node16</title>
<path fill="none" stroke="midnightblue" d="M355.22,-380.81C373.11,-357.56 421.99,-298.32 477,-268.5 481.27,-266.19 485.74,-264.09 490.35,-262.18"/>
<polygon fill="midnightblue" stroke="midnightblue" points="491.84,-265.36 499.94,-258.53 489.35,-258.81 491.84,-265.36"/>
</g>
<!-- Node17 -->
<g id="node17" class="node">
<title>Node17</title>
<g id="a_node17"><a xlink:href="classQuantConnect_1_1SecurityIdentifier.html#ade05a8e57b041ab484cf585be8d05699" target="_top" xlink:title="Generates a new SecurityIdentifier for a INDEX security">
<polygon fill="white" stroke="black" points="495,-179.5 495,-209.5 669,-209.5 669,-179.5 495,-179.5"/>
<text text-anchor="start" x="503" y="-197.5" font-family="Helvetica,sans-Serif" font-size="10.00">QuantConnect.SecurityIdentifier.</text>
<text text-anchor="middle" x="582" y="-186.5" font-family="Helvetica,sans-Serif" font-size="10.00">GenerateIndex</text>
</a>
</g>
</g>
<!-- Node2&#45;&gt;Node17 -->
<g id="edge17" class="edge">
<title>Node2&#45;&gt;Node17</title>
<path fill="none" stroke="midnightblue" d="M352.28,-380.91C365.87,-351.63 411.06,-262.72 477,-219.5 480.14,-217.44 483.42,-215.56 486.82,-213.83"/>
<polygon fill="midnightblue" stroke="midnightblue" points="488.41,-216.95 496.03,-209.6 485.49,-210.59 488.41,-216.95"/>
</g>
<!-- Node3&#45;&gt;Node4 -->
<g id="edge3" class="edge">
<title>Node3&#45;&gt;Node4</title>
<path fill="none" stroke="midnightblue" d="M662.68,-588.13C678.78,-590.49 695.87,-592.98 712.48,-595.41"/>
<polygon fill="midnightblue" stroke="midnightblue" points="712.35,-598.92 722.75,-596.91 713.36,-592 712.35,-598.92"/>
</g>
<!-- Node3&#45;&gt;Node5 -->
<g id="edge4" class="edge">
<title>Node3&#45;&gt;Node5</title>
<path fill="none" stroke="midnightblue" d="M662.68,-564.87C685.82,-561.49 711,-557.81 733.85,-554.47"/>
<polygon fill="midnightblue" stroke="midnightblue" points="734.44,-557.92 743.82,-553.02 733.42,-551 734.44,-557.92"/>
</g>
<!-- Node6 -->
<g id="node6" class="node">
<title>Node6</title>
<g id="a_node6"><a xlink:href="classQuantConnect_1_1Symbol.html#a59b0795fa21f46c306deb5576fa03bb9" target="_top" xlink:title="Centralized helper method to resolve alias for a symbol">
<polygon fill="white" stroke="black" points="942,-534 942,-553 1112,-553 1112,-534 942,-534"/>
<text text-anchor="middle" x="1027" y="-541" font-family="Helvetica,sans-Serif" font-size="10.00">QuantConnect.Symbol.GetAlias</text>
</a>
</g>
</g>
<!-- Node5&#45;&gt;Node6 -->
<g id="edge5" class="edge">
<title>Node5&#45;&gt;Node6</title>
<path fill="none" stroke="midnightblue" d="M892.59,-543.5C905.34,-543.5 918.6,-543.5 931.61,-543.5"/>
<polygon fill="midnightblue" stroke="midnightblue" points="931.97,-547 941.97,-543.5 931.97,-540 931.97,-547"/>
</g>
<!-- Node7 -->
<g id="node7" class="node">
<title>Node7</title>
<g id="a_node7"><a xlink:href="classQuantConnect_1_1SymbolRepresentation.html#ad43ac907f6c19083821f58f21c6de017" target="_top" xlink:title="Returns future symbol ticker from underlying and expiration date. Function can generate tickers of tw...">
<polygon fill="white" stroke="black" points="1157,-552.5 1157,-582.5 1360,-582.5 1360,-552.5 1157,-552.5"/>
<text text-anchor="start" x="1165" y="-570.5" font-family="Helvetica,sans-Serif" font-size="10.00">QuantConnect.SymbolRepresentation.</text>
<text text-anchor="middle" x="1258.5" y="-559.5" font-family="Helvetica,sans-Serif" font-size="10.00">GenerateFutureTicker</text>
</a>
</g>
</g>
<!-- Node6&#45;&gt;Node7 -->
<g id="edge6" class="edge">
<title>Node6&#45;&gt;Node7</title>
<path fill="none" stroke="midnightblue" d="M1112.15,-552.3C1123.43,-553.48 1135.14,-554.7 1146.79,-555.92"/>
<polygon fill="midnightblue" stroke="midnightblue" points="1146.69,-559.43 1157,-556.99 1147.42,-552.47 1146.69,-559.43"/>
</g>
<!-- Node9 -->
<g id="node9" class="node">
<title>Node9</title>
<g id="a_node9"><a xlink:href="classQuantConnect_1_1SymbolRepresentation.html#ab133044f5cf8c16e700190a2202b215e" target="_top" xlink:title="Returns option symbol ticker in accordance with OSI symbology More information can be found at http:/...">
<polygon fill="white" stroke="black" points="1157,-503.5 1157,-533.5 1360,-533.5 1360,-503.5 1157,-503.5"/>
<text text-anchor="start" x="1165" y="-521.5" font-family="Helvetica,sans-Serif" font-size="10.00">QuantConnect.SymbolRepresentation.</text>
<text text-anchor="middle" x="1258.5" y="-510.5" font-family="Helvetica,sans-Serif" font-size="10.00">GenerateOptionTickerOSI</text>
</a>
</g>
</g>
<!-- Node6&#45;&gt;Node9 -->
<g id="edge8" class="edge">
<title>Node6&#45;&gt;Node9</title>
<path fill="none" stroke="midnightblue" d="M1112.15,-534.33C1123.43,-533.1 1135.14,-531.83 1146.79,-530.56"/>
<polygon fill="midnightblue" stroke="midnightblue" points="1147.44,-534.01 1157,-529.45 1146.68,-527.05 1147.44,-534.01"/>
</g>
<!-- Node8 -->
<g id="node8" class="node">
<title>Node8</title>
<g id="a_node8"><a xlink:href="classQuantConnect_1_1Securities_1_1Future_1_1FuturesExpiryUtilityFunctions.html#a4ccb1e2f2fe40ff09785a74a02f26df1" target="_top" xlink:title="Gets the number of months between the contract month and the expiry date.">
<polygon fill="white" stroke="black" points="1396,-547 1396,-588 1662,-588 1662,-547 1396,-547"/>
<text text-anchor="start" x="1404" y="-576" font-family="Helvetica,sans-Serif" font-size="10.00">QuantConnect.Securities.</text>
<text text-anchor="start" x="1404" y="-565" font-family="Helvetica,sans-Serif" font-size="10.00">Future.FuturesExpiryUtilityFunctions.</text>
<text text-anchor="middle" x="1529" y="-554" font-family="Helvetica,sans-Serif" font-size="10.00">GetDeltaBetweenContractMonthAndContractExpiry</text>
</a>
</g>
</g>
<!-- Node7&#45;&gt;Node8 -->
<g id="edge7" class="edge">
<title>Node7&#45;&gt;Node8</title>
<path fill="none" stroke="midnightblue" d="M1360.24,-567.5C1368.59,-567.5 1377.11,-567.5 1385.68,-567.5"/>
<polygon fill="midnightblue" stroke="midnightblue" points="1385.76,-571 1395.76,-567.5 1385.76,-564 1385.76,-571"/>
</g>
<!-- Node11 -->
<g id="node11" class="node">
<title>Node11</title>
<g id="a_node11"><a xlink:href="classQuantConnect_1_1SecurityIdentifier.html#a19e1f9da410608020d74ed9e7d283575" target="_top" xlink:title="Generates the Symbol property for QuantConnect.SecurityType.Base security identifiers">
<polygon fill="white" stroke="black" points="723,-473.5 723,-503.5 897,-503.5 897,-473.5 723,-473.5"/>
<text text-anchor="start" x="731" y="-491.5" font-family="Helvetica,sans-Serif" font-size="10.00">QuantConnect.SecurityIdentifier.</text>
<text text-anchor="middle" x="810" y="-480.5" font-family="Helvetica,sans-Serif" font-size="10.00">GenerateBaseSymbol</text>
</a>
</g>
</g>
<!-- Node10&#45;&gt;Node11 -->
<g id="edge10" class="edge">
<title>Node10&#45;&gt;Node11</title>
<path fill="none" stroke="midnightblue" d="M669.09,-488.5C683.24,-488.5 697.99,-488.5 712.38,-488.5"/>
<polygon fill="midnightblue" stroke="midnightblue" points="712.78,-492 722.78,-488.5 712.78,-485 712.78,-492"/>
</g>
<!-- Node19 -->
<g id="node19" class="node">
<title>Node19</title>
<g id="a_node19"><a xlink:href="classQuantConnect_1_1Securities_1_1SecurityManager.html#a0aa9a5d066fcba5dfcc7ae10ac22b550" target="_top" xlink:title="Creates a new security">
<polygon fill="white" stroke="black" points="495.5,-130.5 495.5,-160.5 668.5,-160.5 668.5,-130.5 495.5,-130.5"/>
<text text-anchor="start" x="503.5" y="-148.5" font-family="Helvetica,sans-Serif" font-size="10.00">QuantConnect.Securities.</text>
<text text-anchor="middle" x="582" y="-137.5" font-family="Helvetica,sans-Serif" font-size="10.00">SecurityManager.CreateSecurity</text>
</a>
</g>
</g>
<!-- Node18&#45;&gt;Node19 -->
<g id="edge20" class="edge">
<title>Node18&#45;&gt;Node19</title>
<path fill="none" stroke="midnightblue" d="M441.09,-145.5C455.61,-145.5 470.64,-145.5 485.22,-145.5"/>
<polygon fill="midnightblue" stroke="midnightblue" points="485.23,-149 495.23,-145.5 485.23,-142 485.23,-149"/>
</g>
<!-- Node36 -->
<g id="node36" class="node">
<title>Node36</title>
<g id="a_node36"><a xlink:href="classQuantConnect_1_1Benchmarks_1_1SecurityBenchmark.html#a45a12b43bac87b210770258630e56622" target="_top" xlink:title="Initializes a new instance of the SecurityBenchmark class">
<polygon fill="white" stroke="black" points="477,-81.5 477,-111.5 687,-111.5 687,-81.5 477,-81.5"/>
<text text-anchor="start" x="485" y="-99.5" font-family="Helvetica,sans-Serif" font-size="10.00">QuantConnect.Benchmarks.</text>
<text text-anchor="middle" x="582" y="-88.5" font-family="Helvetica,sans-Serif" font-size="10.00">SecurityBenchmark.SecurityBenchmark</text>
</a>
</g>
</g>
<!-- Node18&#45;&gt;Node36 -->
<g id="edge37" class="edge">
<title>Node18&#45;&gt;Node36</title>
<path fill="none" stroke="midnightblue" d="M419.49,-130.47C444.88,-125.13 473.63,-119.08 499.77,-113.58"/>
<polygon fill="midnightblue" stroke="midnightblue" points="500.58,-116.99 509.64,-111.51 499.14,-110.14 500.58,-116.99"/>
</g>
<!-- Node20 -->
<g id="node20" class="node">
<title>Node20</title>
<g id="a_node20"><a xlink:href="classQuantConnect_1_1Securities_1_1SecurityService.html#af780bf1407ad8952b51a2db9be9ddb55" target="_top" xlink:title="Creates a new security">
<polygon fill="white" stroke="black" points="726.5,-130.5 726.5,-160.5 893.5,-160.5 893.5,-130.5 726.5,-130.5"/>
<text text-anchor="start" x="734.5" y="-148.5" font-family="Helvetica,sans-Serif" font-size="10.00">QuantConnect.Securities.</text>
<text text-anchor="middle" x="810" y="-137.5" font-family="Helvetica,sans-Serif" font-size="10.00">SecurityService.CreateSecurity</text>
</a>
</g>
</g>
<!-- Node19&#45;&gt;Node20 -->
<g id="edge21" class="edge">
<title>Node19&#45;&gt;Node20</title>
<path fill="none" stroke="midnightblue" d="M668.76,-145.5C684.23,-145.5 700.42,-145.5 716.08,-145.5"/>
<polygon fill="midnightblue" stroke="midnightblue" points="716.28,-149 726.28,-145.5 716.28,-142 716.28,-149"/>
</g>
<!-- Node21 -->
<g id="node21" class="node">
<title>Node21</title>
<g id="a_node21"><a xlink:href="classQuantConnect_1_1SymbolCache.html#a481bb0c8f2b52aa8f19b509aec5bf91f" target="_top" xlink:title="Adds a mapping for the specified ticker">
<polygon fill="white" stroke="black" points="940,-205 940,-224 1114,-224 1114,-205 940,-205"/>
<text text-anchor="middle" x="1027" y="-212" font-family="Helvetica,sans-Serif" font-size="10.00">QuantConnect.SymbolCache.Set</text>
</a>
</g>
</g>
<!-- Node20&#45;&gt;Node21 -->
<g id="edge22" class="edge">
<title>Node20&#45;&gt;Node21</title>
<path fill="none" stroke="midnightblue" d="M843.02,-160.56C867.29,-171.49 901.68,-185.98 933,-195.5 941.8,-198.18 951.18,-200.59 960.48,-202.73"/>
<polygon fill="midnightblue" stroke="midnightblue" points="959.98,-206.2 970.49,-204.93 961.48,-199.36 959.98,-206.2"/>
</g>
<!-- Node22 -->
<g id="node22" class="node">
<title>Node22</title>
<g id="a_node22"><a xlink:href="classQuantConnect_1_1Securities_1_1Security.html#a63075daed818cf10cda2296e8ecc43ac" target="_top" xlink:title="Set the leverage parameter for this security">
<polygon fill="white" stroke="black" points="957,-155.5 957,-185.5 1097,-185.5 1097,-155.5 957,-155.5"/>
<text text-anchor="start" x="965" y="-173.5" font-family="Helvetica,sans-Serif" font-size="10.00">QuantConnect.Securities.</text>
<text text-anchor="middle" x="1027" y="-162.5" font-family="Helvetica,sans-Serif" font-size="10.00">Security.SetLeverage</text>
</a>
</g>
</g>
<!-- Node20&#45;&gt;Node22 -->
<g id="edge23" class="edge">
<title>Node20&#45;&gt;Node22</title>
<path fill="none" stroke="midnightblue" d="M893.51,-155.09C911.03,-157.13 929.49,-159.28 946.88,-161.3"/>
<polygon fill="midnightblue" stroke="midnightblue" points="946.65,-164.8 956.98,-162.47 947.45,-157.84 946.65,-164.8"/>
</g>
<!-- Node24 -->
<g id="node24" class="node">
<title>Node24</title>
<g id="a_node24"><a xlink:href="classQuantConnect_1_1Util_1_1CurrencyPairUtil.html#a751a86e6291116461dac1b937af5b7a6" target="_top" xlink:title="Tries to decomposes the specified currency pair into a base and quote currency provided as out parame...">
<polygon fill="white" stroke="black" points="933,-106.5 933,-136.5 1121,-136.5 1121,-106.5 933,-106.5"/>
<text text-anchor="start" x="941" y="-124.5" font-family="Helvetica,sans-Serif" font-size="10.00">QuantConnect.Util.Currency</text>
<text text-anchor="middle" x="1027" y="-113.5" font-family="Helvetica,sans-Serif" font-size="10.00">PairUtil.TryDecomposeCurrencyPair</text>
</a>
</g>
</g>
<!-- Node20&#45;&gt;Node24 -->
<g id="edge25" class="edge">
<title>Node20&#45;&gt;Node24</title>
<path fill="none" stroke="midnightblue" d="M893.51,-136.29C903.09,-135.22 912.95,-134.12 922.76,-133.02"/>
<polygon fill="midnightblue" stroke="midnightblue" points="923.41,-136.47 932.96,-131.89 922.63,-129.52 923.41,-136.47"/>
</g>
<!-- Node34 -->
<g id="node34" class="node">
<title>Node34</title>
<g id="a_node34"><a xlink:href="classQuantConnect_1_1SecurityIdentifier.html#a2a52cbd8bce9ff527bc8021a3e3a0037" target="_top" xlink:title="Tries to fetch the custom data type associated with a symbol">
<polygon fill="white" stroke="black" points="940,-57.5 940,-87.5 1114,-87.5 1114,-57.5 940,-57.5"/>
<text text-anchor="start" x="948" y="-75.5" font-family="Helvetica,sans-Serif" font-size="10.00">QuantConnect.SecurityIdentifier.</text>
<text text-anchor="middle" x="1027" y="-64.5" font-family="Helvetica,sans-Serif" font-size="10.00">TryGetCustomDataTypeInstance</text>
</a>
</g>
</g>
<!-- Node20&#45;&gt;Node34 -->
<g id="edge35" class="edge">
<title>Node20&#45;&gt;Node34</title>
<path fill="none" stroke="midnightblue" d="M846.12,-130.47C870.29,-120.43 903.28,-107.31 933,-97.5 940.56,-95 948.53,-92.57 956.49,-90.27"/>
<polygon fill="midnightblue" stroke="midnightblue" points="957.51,-93.62 966.17,-87.52 955.59,-86.88 957.51,-93.62"/>
</g>
<!-- Node23 -->
<g id="node23" class="node">
<title>Node23</title>
<g id="a_node23"><a xlink:href="classQuantConnect_1_1Securities_1_1BuyingPowerModel.html#a44ce05fdd67c9c4230e4dfb91cfd5e6b" target="_top" xlink:title="Sets the leverage for the applicable securities, i.e, equities">
<polygon fill="white" stroke="black" points="1171.5,-155.5 1171.5,-185.5 1345.5,-185.5 1345.5,-155.5 1171.5,-155.5"/>
<text text-anchor="start" x="1179.5" y="-173.5" font-family="Helvetica,sans-Serif" font-size="10.00">QuantConnect.Securities.</text>
<text text-anchor="middle" x="1258.5" y="-162.5" font-family="Helvetica,sans-Serif" font-size="10.00">BuyingPowerModel.SetLeverage</text>
</a>
</g>
</g>
<!-- Node22&#45;&gt;Node23 -->
<g id="edge24" class="edge">
<title>Node22&#45;&gt;Node23</title>
<path fill="none" stroke="midnightblue" d="M1097.17,-170.5C1117.34,-170.5 1139.75,-170.5 1161.26,-170.5"/>
<polygon fill="midnightblue" stroke="midnightblue" points="1161.41,-174 1171.41,-170.5 1161.41,-167 1161.41,-174"/>
</g>
<!-- Node25 -->
<g id="node25" class="node">
<title>Node25</title>
<g id="a_node25"><a xlink:href="classQuantConnect_1_1Util_1_1CurrencyPairUtil.html#af097148889729df56066a7f324c558a0" target="_top" xlink:title="Decomposes the specified currency pair into a base and quote currency provided as out parameters">
<polygon fill="white" stroke="black" points="1171.5,-106.5 1171.5,-136.5 1345.5,-136.5 1345.5,-106.5 1171.5,-106.5"/>
<text text-anchor="start" x="1179.5" y="-124.5" font-family="Helvetica,sans-Serif" font-size="10.00">QuantConnect.Util.Currency</text>
<text text-anchor="middle" x="1258.5" y="-113.5" font-family="Helvetica,sans-Serif" font-size="10.00">PairUtil.DecomposeCurrencyPair</text>
</a>
</g>
</g>
<!-- Node24&#45;&gt;Node25 -->
<g id="edge26" class="edge">
<title>Node24&#45;&gt;Node25</title>
<path fill="none" stroke="midnightblue" d="M1121.02,-121.5C1134.28,-121.5 1147.95,-121.5 1161.28,-121.5"/>
<polygon fill="midnightblue" stroke="midnightblue" points="1161.39,-125 1171.39,-121.5 1161.39,-118 1161.39,-125"/>
</g>
<!-- Node26 -->
<g id="node26" class="node">
<title>Node26</title>
<g id="a_node26"><a xlink:href="classQuantConnect_1_1Securities_1_1Forex_1_1Forex.html#af7fbd660dcbbc46527c61baafe2549bb" target="_top" xlink:title="Decomposes the specified currency pair into a base and quote currency provided as out parameters">
<polygon fill="white" stroke="black" points="1431,-180.5 1431,-210.5 1627,-210.5 1627,-180.5 1431,-180.5"/>
<text text-anchor="start" x="1439" y="-198.5" font-family="Helvetica,sans-Serif" font-size="10.00">QuantConnect.Securities.</text>
<text text-anchor="middle" x="1529" y="-187.5" font-family="Helvetica,sans-Serif" font-size="10.00">Forex.Forex.DecomposeCurrencyPair</text>
</a>
</g>
</g>
<!-- Node25&#45;&gt;Node26 -->
<g id="edge27" class="edge">
<title>Node25&#45;&gt;Node26</title>
<path fill="none" stroke="midnightblue" d="M1333.29,-136.56C1342.46,-139.38 1351.57,-142.68 1360,-146.5 1377.74,-154.54 1378.01,-164.03 1396,-171.5 1403.97,-174.81 1412.4,-177.66 1420.99,-180.12"/>
<polygon fill="midnightblue" stroke="midnightblue" points="1420.17,-183.53 1430.74,-182.74 1421.98,-176.77 1420.17,-183.53"/>
</g>
<!-- Node28 -->
<g id="node28" class="node">
<title>Node28</title>
<g id="a_node28"><a xlink:href="classQuantConnect_1_1Securities_1_1Cfd_1_1Cfd.html#a29bdbe6a6d36ed75a1816cad31ee6eaa" target="_top" xlink:title="Decomposes the specified currency pair into a base and quote currency provided as out parameters">
<polygon fill="white" stroke="black" points="1441.5,-131.5 1441.5,-161.5 1616.5,-161.5 1616.5,-131.5 1441.5,-131.5"/>
<text text-anchor="start" x="1449.5" y="-149.5" font-family="Helvetica,sans-Serif" font-size="10.00">QuantConnect.Securities.</text>
<text text-anchor="middle" x="1529" y="-138.5" font-family="Helvetica,sans-Serif" font-size="10.00">Cfd.Cfd.DecomposeCurrencyPair</text>
</a>
</g>
</g>
<!-- Node25&#45;&gt;Node28 -->
<g id="edge29" class="edge">
<title>Node25&#45;&gt;Node28</title>
<path fill="none" stroke="midnightblue" d="M1345.56,-129.51C1372.75,-132.04 1402.97,-134.86 1430.88,-137.46"/>
<polygon fill="midnightblue" stroke="midnightblue" points="1430.76,-140.96 1441.04,-138.4 1431.41,-133.99 1430.76,-140.96"/>
</g>
<!-- Node29 -->
<g id="node29" class="node">
<title>Node29</title>
<g id="a_node29"><a xlink:href="classQuantConnect_1_1Securities_1_1Crypto_1_1Crypto.html#a34f3ec6157d9575e34127b5172706403" target="_top" xlink:title="Decomposes the specified currency pair into a base and quote currency provided as out parameters">
<polygon fill="white" stroke="black" points="1426,-82.5 1426,-112.5 1632,-112.5 1632,-82.5 1426,-82.5"/>
<text text-anchor="start" x="1434" y="-100.5" font-family="Helvetica,sans-Serif" font-size="10.00">QuantConnect.Securities.</text>
<text text-anchor="middle" x="1529" y="-89.5" font-family="Helvetica,sans-Serif" font-size="10.00">Crypto.Crypto.DecomposeCurrencyPair</text>
</a>
</g>
</g>
<!-- Node25&#45;&gt;Node29 -->
<g id="edge30" class="edge">
<title>Node25&#45;&gt;Node29</title>
<path fill="none" stroke="midnightblue" d="M1345.56,-113.81C1367.84,-111.82 1392.16,-109.64 1415.58,-107.55"/>
<polygon fill="midnightblue" stroke="midnightblue" points="1415.9,-111.03 1425.54,-106.66 1415.27,-104.06 1415.9,-111.03"/>
</g>
<!-- Node30 -->
<g id="node30" class="node">
<title>Node30</title>
<g id="a_node30"><a xlink:href="classQuantConnect_1_1Securities_1_1SymbolPropertiesDatabase.html#a3ea48557a7a885c2c53529f8c4b75598" target="_top" xlink:title="Gets the symbol properties for the specified market/symbol/security&#45;type">
<polygon fill="white" stroke="black" points="1444,-22 1444,-63 1614,-63 1614,-22 1444,-22"/>
<text text-anchor="start" x="1452" y="-51" font-family="Helvetica,sans-Serif" font-size="10.00">QuantConnect.Securities.</text>
<text text-anchor="start" x="1452" y="-40" font-family="Helvetica,sans-Serif" font-size="10.00">SymbolPropertiesDatabase.Get</text>
<text text-anchor="middle" x="1529" y="-29" font-family="Helvetica,sans-Serif" font-size="10.00">SymbolProperties</text>
</a>
</g>
</g>
<!-- Node25&#45;&gt;Node30 -->
<g id="edge31" class="edge">
<title>Node25&#45;&gt;Node30</title>
<path fill="none" stroke="midnightblue" d="M1335.36,-106.45C1343.82,-103.87 1352.19,-100.91 1360,-97.5 1377.63,-89.81 1378.36,-81.15 1396,-73.5 1407.96,-68.31 1420.92,-63.92 1433.9,-60.22"/>
<polygon fill="midnightblue" stroke="midnightblue" points="1435.07,-63.52 1443.8,-57.52 1433.23,-56.77 1435.07,-63.52"/>
</g>
<!-- Node27 -->
<g id="node27" class="node">
<title>Node27</title>
<g id="a_node27"><a xlink:href="classQuantConnect_1_1Util_1_1CurrencyPairUtil.html#ab191629e505a3345a1c993773c2cdf2f" target="_top" xlink:title="Checks whether a symbol is decomposable into a base and a quote currency">
<polygon fill="white" stroke="black" points="1712.5,-180.5 1712.5,-210.5 1875.5,-210.5 1875.5,-180.5 1712.5,-180.5"/>
<text text-anchor="start" x="1720.5" y="-198.5" font-family="Helvetica,sans-Serif" font-size="10.00">QuantConnect.Util.Currency</text>
<text text-anchor="middle" x="1794" y="-187.5" font-family="Helvetica,sans-Serif" font-size="10.00">PairUtil.IsForexDecomposable</text>
</a>
</g>
</g>
<!-- Node26&#45;&gt;Node27 -->
<g id="edge28" class="edge">
<title>Node26&#45;&gt;Node27</title>
<path fill="none" stroke="midnightblue" d="M1627.18,-195.5C1651.64,-195.5 1677.8,-195.5 1701.94,-195.5"/>
<polygon fill="midnightblue" stroke="midnightblue" points="1702.15,-199 1712.15,-195.5 1702.15,-192 1702.15,-199"/>
</g>
<!-- Node31 -->
<g id="node31" class="node">
<title>Node31</title>
<g id="a_node31"><a xlink:href="classQuantConnect_1_1Securities_1_1MarketHoursDatabase.html#aa717adb9bb04be931913608ffd5a2733" target="_top" xlink:title="Gets the correct string symbol to use as a database key">
<polygon fill="white" stroke="black" points="1698,-50 1698,-91 1890,-91 1890,-50 1698,-50"/>
<text text-anchor="start" x="1706" y="-79" font-family="Helvetica,sans-Serif" font-size="10.00">QuantConnect.Securities.</text>
<text text-anchor="start" x="1706" y="-68" font-family="Helvetica,sans-Serif" font-size="10.00">MarketHoursDatabase.GetDatabase</text>
<text text-anchor="middle" x="1794" y="-57" font-family="Helvetica,sans-Serif" font-size="10.00">SymbolKey</text>
</a>
</g>
</g>
<!-- Node30&#45;&gt;Node31 -->
<g id="edge32" class="edge">
<title>Node30&#45;&gt;Node31</title>
<path fill="none" stroke="midnightblue" d="M1614.3,-51.47C1637.67,-53.96 1663.34,-56.7 1687.75,-59.29"/>
<polygon fill="midnightblue" stroke="midnightblue" points="1687.44,-62.78 1697.76,-60.36 1688.19,-55.82 1687.44,-62.78"/>
</g>
<!-- Node32 -->
<g id="node32" class="node">
<title>Node32</title>
<g id="a_node32"><a xlink:href="classQuantConnect_1_1Securities_1_1SymbolProperties.html#ad148190d1dfce7109d38d3107b7b8fbf" target="_top" xlink:title="Gets a default instance of the SymbolProperties class for the specified quoteCurrency">
<polygon fill="white" stroke="black" points="1714.5,-0.5 1714.5,-30.5 1873.5,-30.5 1873.5,-0.5 1714.5,-0.5"/>
<text text-anchor="start" x="1722.5" y="-18.5" font-family="Helvetica,sans-Serif" font-size="10.00">QuantConnect.Securities.</text>
<text text-anchor="middle" x="1794" y="-7.5" font-family="Helvetica,sans-Serif" font-size="10.00">SymbolProperties.GetDefault</text>
</a>
</g>
</g>
<!-- Node30&#45;&gt;Node32 -->
<g id="edge33" class="edge">
<title>Node30&#45;&gt;Node32</title>
<path fill="none" stroke="midnightblue" d="M1614.3,-33.85C1642.93,-30.91 1675,-27.61 1703.98,-24.64"/>
<polygon fill="midnightblue" stroke="midnightblue" points="1704.5,-28.1 1714.09,-23.6 1703.79,-21.14 1704.5,-28.1"/>
</g>
<!-- Node33 -->
<g id="node33" class="node">
<title>Node33</title>
<g id="a_node33"><a xlink:href="classQuantConnect_1_1Securities_1_1SymbolProperties.html#a0f421617bcddd5b08a830689b1e2dcfa" target="_top" xlink:title="Creates an instance of the SymbolProperties class">
<polygon fill="white" stroke="black" points="1926,-0.5 1926,-30.5 2118,-30.5 2118,-0.5 1926,-0.5"/>
<text text-anchor="start" x="1934" y="-18.5" font-family="Helvetica,sans-Serif" font-size="10.00">QuantConnect.Securities.</text>
<text text-anchor="middle" x="2022" y="-7.5" font-family="Helvetica,sans-Serif" font-size="10.00">SymbolProperties.SymbolProperties</text>
</a>
</g>
</g>
<!-- Node32&#45;&gt;Node33 -->
<g id="edge34" class="edge">
<title>Node32&#45;&gt;Node33</title>
<path fill="none" stroke="midnightblue" d="M1873.73,-15.5C1887.26,-15.5 1901.51,-15.5 1915.61,-15.5"/>
<polygon fill="midnightblue" stroke="midnightblue" points="1915.83,-19 1925.83,-15.5 1915.83,-12 1915.83,-19"/>
</g>
<!-- Node35 -->
<g id="node35" class="node">
<title>Node35</title>
<g id="a_node35"><a xlink:href="classQuantConnect_1_1SecurityIdentifier.html#a65051a4af9e25cab40451dc9ef12db6a" target="_top" xlink:title="Tries to fetch the custom data type associated with a symbol">
<polygon fill="white" stroke="black" points="1171.5,-57.5 1171.5,-87.5 1345.5,-87.5 1345.5,-57.5 1171.5,-57.5"/>
<text text-anchor="start" x="1179.5" y="-75.5" font-family="Helvetica,sans-Serif" font-size="10.00">QuantConnect.SecurityIdentifier.</text>
<text text-anchor="middle" x="1258.5" y="-64.5" font-family="Helvetica,sans-Serif" font-size="10.00">TryGetCustomDataType</text>
</a>
</g>
</g>
<!-- Node34&#45;&gt;Node35 -->
<g id="edge36" class="edge">
<title>Node34&#45;&gt;Node35</title>
<path fill="none" stroke="midnightblue" d="M1114.11,-72.5C1129.45,-72.5 1145.51,-72.5 1161.12,-72.5"/>
<polygon fill="midnightblue" stroke="midnightblue" points="1161.29,-76 1171.29,-72.5 1161.29,-69 1161.29,-76"/>
</g>
</g>
</svg>
        <g id="navigator" transform="translate(0 0)" fill="#404254">
                <rect fill="#f2f5e9" fill-opacity="0.5" stroke="#606060" stroke-width=".5" x="0" y="0" width="60" height="60"/>
                <use id="zoomplus" xlink:href="#zoomPlus" x="17" y="9" onmousedown="handleZoom(evt,'in')"/>
                <use id="zoomminus" xlink:href="#zoomMin" x="42" y="9" onmousedown="handleZoom(evt,'out')"/>
                <use id="reset" xlink:href="#resetDef" x="30" y="36" onmousedown="handleReset()"/>
                <g id="arrowUp" xlink:href="#dirArrow" transform="translate(30 24)" onmousedown="handlePan(0,-1)">
                  <use xlink:href="#rim" fill="#404040">
                        <set attributeName="fill" to="#808080" begin="arrowUp.mouseover" end="arrowUp.mouseout"/>
                  </use>
                  <path fill="none" stroke="white" stroke-width="1.5" d="M0,-3.0v7 M-2.5,-0.5L0,-3.0L2.5,-0.5"/>
                </g>
                <g id="arrowRight" xlink:href="#dirArrow" transform="rotate(90) translate(36 -43)" onmousedown="handlePan(1,0)">
                  <use xlink:href="#rim" fill="#404040">
                        <set attributeName="fill" to="#808080" begin="arrowRight.mouseover" end="arrowRight.mouseout"/>
                  </use>
                  <path fill="none" stroke="white" stroke-width="1.5" d="M0,-3.0v7 M-2.5,-0.5L0,-3.0L2.5,-0.5"/>
                </g>
                <g id="arrowDown" xlink:href="#dirArrow" transform="rotate(180) translate(-30 -48)" onmousedown="handlePan(0,1)">
                  <use xlink:href="#rim" fill="#404040">
                        <set attributeName="fill" to="#808080" begin="arrowDown.mouseover" end="arrowDown.mouseout"/>
                  </use>
                  <path fill="none" stroke="white" stroke-width="1.5" d="M0,-3.0v7 M-2.5,-0.5L0,-3.0L2.5,-0.5"/>
                </g>
                <g id="arrowLeft" xlink:href="#dirArrow" transform="rotate(270) translate(-36 17)" onmousedown="handlePan(-1,0)">
                  <use xlink:href="#rim" fill="#404040">
                        <set attributeName="fill" to="#808080" begin="arrowLeft.mouseover" end="arrowLeft.mouseout"/>
                  </use>
                  <path fill="none" stroke="white" stroke-width="1.5" d="M0,-3.0v7 M-2.5,-0.5L0,-3.0L2.5,-0.5"/>
                </g>
        </g>
        <svg viewBox="0 0 15 15" width="100%" height="30px" preserveAspectRatio="xMaxYMin meet">
         <g id="arrow_out" transform="scale(0.3 0.3)">
          <a xlink:href="classQuantConnect_1_1Brokerages_1_1CoinbaseBrokerageModel_a00c8c3442d08d5b67a28b74fa69e844c_cgraph_org.svg" target="_base">
           <rect id="button" ry="5" rx="5" y="6" x="6" height="38" width="38"
                fill="#f2f5e9" fill-opacity="0.5" stroke="#606060" stroke-width="1.0"/>
           <path id="arrow"
             d="M 11.500037,31.436501 C 11.940474,20.09759 22.043105,11.32322 32.158766,21.979434 L 37.068811,17.246167 C 37.068811,17.246167 37.088388,32 37.088388,32 L 22.160133,31.978069 C 22.160133,31.978069 26.997745,27.140456 26.997745,27.140456 C 18.528582,18.264221 13.291696,25.230495 11.500037,31.436501 z"
             style="fill:#404040;"/>
          </a>
         </g>
        </svg>
</svg>
