<?xml version="1.0" encoding="UTF-8" standalone="no"?>
<!DOCTYPE svg PUBLIC "-//W3C//DTD SVG 1.1//EN"
 "http://www.w3.org/Graphics/SVG/1.1/DTD/svg11.dtd">
<!-- Generated by graphviz version 2.43.0 (0)
 -->
<!-- Title: QuantConnect.Lean.Engine.DataFeeds.ManualTimeProvider.SetCurrentTime Pages: 1 -->
<svg width="426pt" height="50pt"
 viewBox="0.00 0.00 426.00 50.00" xmlns="http://www.w3.org/2000/svg" xmlns:xlink="http://www.w3.org/1999/xlink">
<g id="graph0" class="graph" transform="scale(1 1) rotate(0) translate(4 46)">
<title>QuantConnect.Lean.Engine.DataFeeds.ManualTimeProvider.SetCurrentTime</title>
<polygon fill="white" stroke="transparent" points="-4,4 -4,-46 422,-46 422,4 -4,4"/>
<!-- Node1 -->
<g id="node1" class="node">
<title>Node1</title>
<g id="a_node1"><a xlink:title="Sets the current time interpeting the specified time as a local time using the time zone used at inst...">
<polygon fill="#bfbfbf" stroke="black" points="0,-0.5 0,-41.5 191,-41.5 191,-0.5 0,-0.5"/>
<text text-anchor="start" x="8" y="-29.5" font-family="Helvetica,sans-Serif" font-size="10.00">QuantConnect.Lean.Engine.</text>
<text text-anchor="start" x="8" y="-18.5" font-family="Helvetica,sans-Serif" font-size="10.00">DataFeeds.ManualTimeProvider.Set</text>
<text text-anchor="middle" x="95.5" y="-7.5" font-family="Helvetica,sans-Serif" font-size="10.00">CurrentTime</text>
</a>
</g>
</g>
<!-- Node2 -->
<g id="node2" class="node">
<title>Node2</title>
<g id="a_node2"><a xlink:href="classQuantConnect_1_1Lean_1_1Engine_1_1DataFeeds_1_1ManualTimeProvider.html#a9ca7e753dda537af1a5b984d7e2ca14c" target="_top" xlink:title="Sets the current time interpreting the specified time as a UTC time">
<polygon fill="white" stroke="black" points="227,-0.5 227,-41.5 418,-41.5 418,-0.5 227,-0.5"/>
<text text-anchor="start" x="235" y="-29.5" font-family="Helvetica,sans-Serif" font-size="10.00">QuantConnect.Lean.Engine.</text>
<text text-anchor="start" x="235" y="-18.5" font-family="Helvetica,sans-Serif" font-size="10.00">DataFeeds.ManualTimeProvider.Set</text>
<text text-anchor="middle" x="322.5" y="-7.5" font-family="Helvetica,sans-Serif" font-size="10.00">CurrentTimeUtc</text>
</a>
</g>
</g>
<!-- Node1&#45;&gt;Node2 -->
<g id="edge1" class="edge">
<title>Node1&#45;&gt;Node2</title>
<path fill="none" stroke="midnightblue" d="M191.27,-21C199.64,-21 208.14,-21 216.58,-21"/>
<polygon fill="midnightblue" stroke="midnightblue" points="216.84,-24.5 226.84,-21 216.84,-17.5 216.84,-24.5"/>
</g>
</g>
</svg>
