<?xml version="1.0" encoding="UTF-8" standalone="no"?>
<!DOCTYPE svg PUBLIC "-//W3C//DTD SVG 1.1//EN"
 "http://www.w3.org/Graphics/SVG/1.1/DTD/svg11.dtd">
<!-- Generated by graphviz version 2.43.0 (0)
 -->
<!-- Title: QuantConnect.Data.SubscriptionManager.AddConsolidator Pages: 1 -->
<svg width="910pt" height="88pt"
 viewBox="0.00 0.00 910.00 88.00" xmlns="http://www.w3.org/2000/svg" xmlns:xlink="http://www.w3.org/1999/xlink">
<g id="graph0" class="graph" transform="scale(1 1) rotate(0) translate(4 84)">
<title>QuantConnect.Data.SubscriptionManager.AddConsolidator</title>
<polygon fill="white" stroke="transparent" points="-4,4 -4,-84 906,-84 906,4 -4,4"/>
<!-- Node1 -->
<g id="node1" class="node">
<title>Node1</title>
<g id="a_node1"><a xlink:title="Add a consolidator for the symbol">
<polygon fill="#bfbfbf" stroke="black" points="0,-24.5 0,-54.5 175,-54.5 175,-24.5 0,-24.5"/>
<text text-anchor="start" x="8" y="-42.5" font-family="Helvetica,sans-Serif" font-size="10.00">QuantConnect.Data.Subscription</text>
<text text-anchor="middle" x="87.5" y="-31.5" font-family="Helvetica,sans-Serif" font-size="10.00">Manager.AddConsolidator</text>
</a>
</g>
</g>
<!-- Node2 -->
<g id="node2" class="node">
<title>Node2</title>
<g id="a_node2"><a xlink:href="classQuantConnect_1_1Data_1_1SubscriptionManager.html#a1916b5d3e1bcbaf683be29d68ead2682" target="_top" xlink:title="Checks if the subscription is valid for the consolidator">
<polygon fill="white" stroke="black" points="211,-24.5 211,-54.5 441,-54.5 441,-24.5 211,-24.5"/>
<text text-anchor="start" x="219" y="-42.5" font-family="Helvetica,sans-Serif" font-size="10.00">QuantConnect.Data.Subscription</text>
<text text-anchor="middle" x="326" y="-31.5" font-family="Helvetica,sans-Serif" font-size="10.00">Manager.IsSubscriptionValidForConsolidator</text>
</a>
</g>
</g>
<!-- Node1&#45;&gt;Node2 -->
<g id="edge1" class="edge">
<title>Node1&#45;&gt;Node2</title>
<path fill="none" stroke="midnightblue" d="M175.22,-39.5C183.56,-39.5 192.12,-39.5 200.73,-39.5"/>
<polygon fill="midnightblue" stroke="midnightblue" points="200.84,-43 210.84,-39.5 200.84,-36 200.84,-43"/>
</g>
<!-- Node3 -->
<g id="node3" class="node">
<title>Node3</title>
<g id="a_node3"><a xlink:href="classQuantConnect_1_1Util_1_1LeanData.html#adf1799b921849e0643385e6794ec2471" target="_top" xlink:title="Get the TickType for common Lean data types. If not a Lean common data type, return a TickType of Tra...">
<polygon fill="white" stroke="black" points="477,-49.5 477,-79.5 708,-79.5 708,-49.5 477,-49.5"/>
<text text-anchor="start" x="485" y="-67.5" font-family="Helvetica,sans-Serif" font-size="10.00">QuantConnect.Util.LeanData.</text>
<text text-anchor="middle" x="592.5" y="-56.5" font-family="Helvetica,sans-Serif" font-size="10.00">GetCommonTickTypeForCommonDataTypes</text>
</a>
</g>
</g>
<!-- Node2&#45;&gt;Node3 -->
<g id="edge2" class="edge">
<title>Node2&#45;&gt;Node3</title>
<path fill="none" stroke="midnightblue" d="M441.09,-50.28C449.63,-51.09 458.28,-51.91 466.88,-52.72"/>
<polygon fill="midnightblue" stroke="midnightblue" points="466.66,-56.22 476.95,-53.67 467.32,-49.25 466.66,-56.22"/>
</g>
<!-- Node5 -->
<g id="node5" class="node">
<title>Node5</title>
<g id="a_node5"><a xlink:href="classQuantConnect_1_1Util_1_1LeanData.html#af07561616d971cbd08adb7847eafb7f6" target="_top" xlink:title="Determines if the Type is a &#39;common&#39; type used throughout lean This method is helpful in creating Sub...">
<polygon fill="white" stroke="black" points="513.5,-0.5 513.5,-30.5 671.5,-30.5 671.5,-0.5 513.5,-0.5"/>
<text text-anchor="start" x="521.5" y="-18.5" font-family="Helvetica,sans-Serif" font-size="10.00">QuantConnect.Util.LeanData.</text>
<text text-anchor="middle" x="592.5" y="-7.5" font-family="Helvetica,sans-Serif" font-size="10.00">IsCommonLeanDataType</text>
</a>
</g>
</g>
<!-- Node2&#45;&gt;Node5 -->
<g id="edge4" class="edge">
<title>Node2&#45;&gt;Node5</title>
<path fill="none" stroke="midnightblue" d="M441.09,-29.15C461.81,-27.27 483.13,-25.33 502.97,-23.53"/>
<polygon fill="midnightblue" stroke="midnightblue" points="503.56,-26.99 513.21,-22.6 502.93,-20.02 503.56,-26.99"/>
</g>
<!-- Node4 -->
<g id="node4" class="node">
<title>Node4</title>
<g id="a_node4"><a xlink:href="classQuantConnect_1_1Util_1_1LeanData.html#a24869ac4b029b3f2d468596baab6d72d" target="_top" xlink:title="Gets the tick type most commonly associated with the specified security type">
<polygon fill="white" stroke="black" points="744,-49.5 744,-79.5 902,-79.5 902,-49.5 744,-49.5"/>
<text text-anchor="start" x="752" y="-67.5" font-family="Helvetica,sans-Serif" font-size="10.00">QuantConnect.Util.LeanData.</text>
<text text-anchor="middle" x="823" y="-56.5" font-family="Helvetica,sans-Serif" font-size="10.00">GetCommonTickType</text>
</a>
</g>
</g>
<!-- Node3&#45;&gt;Node4 -->
<g id="edge3" class="edge">
<title>Node3&#45;&gt;Node4</title>
<path fill="none" stroke="midnightblue" d="M708.08,-64.5C716.71,-64.5 725.34,-64.5 733.77,-64.5"/>
<polygon fill="midnightblue" stroke="midnightblue" points="733.93,-68 743.93,-64.5 733.93,-61 733.93,-68"/>
</g>
</g>
</svg>
