<?xml version="1.0" encoding="UTF-8" standalone="no"?>
<!DOCTYPE svg PUBLIC "-//W3C//DTD SVG 1.1//EN"
 "http://www.w3.org/Graphics/SVG/1.1/DTD/svg11.dtd">
<!-- Generated by graphviz version 2.43.0 (0)
 -->
<!-- Title: QuantConnect.Algorithm.Framework.Alphas.AlphaModel Pages: 1 -->
<!--zoomable 480 -->
<svg id="main" version="1.1" xmlns="http://www.w3.org/2000/svg" xmlns:xlink="http://www.w3.org/1999/xlink" xml:space="preserve" onload="init(evt)">
<style type="text/css"><![CDATA[
.edge:hover path { stroke: red; }
.edge:hover polygon { stroke: red; fill: red; }
]]></style>
<script type="text/javascript"><![CDATA[
var edges = document.getElementsByTagName('g');
if (edges && edges.length) {
  for (var i=0;i<edges.length;i++) {
    if (edges[i].id.substr(0,4)=='edge') {
      edges[i].setAttribute('class','edge');
    }
  }
}
]]></script>
        <defs>
                <circle id="rim" cx="0" cy="0" r="7"/>
                <circle id="rim2" cx="0" cy="0" r="3.5"/>
                <g id="zoomPlus">
                        <use xlink:href="#rim" fill="#404040">
                                <set attributeName="fill" to="#808080" begin="zoomplus.mouseover" end="zoomplus.mouseout"/>
                        </use>
                        <path d="M-4,0h8M0,-4v8" fill="none" stroke="white" stroke-width="1.5" pointer-events="none"/>
                </g>
                <g id="zoomMin">
                        <use xlink:href="#rim" fill="#404040">
                                <set attributeName="fill" to="#808080" begin="zoomminus.mouseover" end="zoomminus.mouseout"/>
                        </use>
                        <path d="M-4,0h8" fill="none" stroke="white" stroke-width="1.5" pointer-events="none"/>
                </g>
                <g id="dirArrow">
                        <path fill="none" stroke="white" stroke-width="1.5" d="M0,-3.0v7 M-2.5,-0.5L0,-3.0L2.5,-0.5"/>
                </g>
               <g id="resetDef">
                       <use xlink:href="#rim2" fill="#404040">
                               <set attributeName="fill" to="#808080" begin="reset.mouseover" end="reset.mouseout"/>
                       </use>
               </g>
        </defs>

<script type="text/javascript">
var viewWidth = 975;
var viewHeight = 480;
var sectionId = 'dynsection-0';
</script>
<script xlink:href="svgpan.js"/>
<svg id="graph" class="graph">
<g id="viewport">
<title>QuantConnect.Algorithm.Framework.Alphas.AlphaModel</title>
<polygon fill="white" stroke="transparent" points="-4,4 -4,-476 971,-476 971,4 -4,4"/>
<!-- Node1 -->
<g id="node1" class="node">
<title>Node1</title>
<g id="a_node1"><a xlink:title="Provides a base class for alpha models.">
<polygon fill="#bfbfbf" stroke="black" points="297,-220.5 297,-250.5 494,-250.5 494,-220.5 297,-220.5"/>
<text text-anchor="start" x="305" y="-238.5" font-family="Helvetica,sans-Serif" font-size="10.00">QuantConnect.Algorithm.Framework.</text>
<text text-anchor="middle" x="395.5" y="-227.5" font-family="Helvetica,sans-Serif" font-size="10.00">Alphas.AlphaModel</text>
</a>
</g>
</g>
<!-- Node5 -->
<g id="node5" class="node">
<title>Node5</title>
<g id="a_node5"><a xlink:href="classQuantConnect_1_1Algorithm_1_1Framework_1_1Alphas_1_1AlphaModelPythonWrapper.html" target="_top" xlink:title="Provides an implementation of IAlphaModel that wraps a PyObject object">
<polygon fill="white" stroke="black" points="530,-441.5 530,-471.5 727,-471.5 727,-441.5 530,-441.5"/>
<text text-anchor="start" x="538" y="-459.5" font-family="Helvetica,sans-Serif" font-size="10.00">QuantConnect.Algorithm.Framework.</text>
<text text-anchor="middle" x="628.5" y="-448.5" font-family="Helvetica,sans-Serif" font-size="10.00">Alphas.AlphaModelPythonWrapper</text>
</a>
</g>
</g>
<!-- Node1&#45;&gt;Node5 -->
<g id="edge4" class="edge">
<title>Node1&#45;&gt;Node5</title>
<path fill="none" stroke="midnightblue" d="M406.13,-260.11C423.93,-302.26 466.1,-388 530,-432.5 534.86,-435.89 540.16,-438.8 545.68,-441.3"/>
<polygon fill="midnightblue" stroke="midnightblue" points="409.27,-258.54 402.23,-250.62 402.8,-261.2 409.27,-258.54"/>
</g>
<!-- Node6 -->
<g id="node6" class="node">
<title>Node6</title>
<g id="a_node6"><a xlink:href="classQuantConnect_1_1Algorithm_1_1Framework_1_1Alphas_1_1AlphaStreamAlphaModule.html" target="_top" xlink:title="Alpha model that will handle adding and removing securities from the algorithm based on the current p...">
<polygon fill="white" stroke="black" points="530,-392.5 530,-422.5 727,-422.5 727,-392.5 530,-392.5"/>
<text text-anchor="start" x="538" y="-410.5" font-family="Helvetica,sans-Serif" font-size="10.00">QuantConnect.Algorithm.Framework.</text>
<text text-anchor="middle" x="628.5" y="-399.5" font-family="Helvetica,sans-Serif" font-size="10.00">Alphas.AlphaStreamAlphaModule</text>
</a>
</g>
</g>
<!-- Node1&#45;&gt;Node6 -->
<g id="edge5" class="edge">
<title>Node1&#45;&gt;Node6</title>
<path fill="none" stroke="midnightblue" d="M411.32,-259.4C433.13,-292.52 477.07,-351.84 530,-383.5 535.76,-386.95 541.99,-389.9 548.42,-392.43"/>
<polygon fill="midnightblue" stroke="midnightblue" points="414.13,-257.31 405.76,-250.8 408.25,-261.1 414.13,-257.31"/>
</g>
<!-- Node7 -->
<g id="node7" class="node">
<title>Node7</title>
<g id="a_node7"><a xlink:href="classQuantConnect_1_1Algorithm_1_1Framework_1_1Alphas_1_1BasePairsTradingAlphaModel.html" target="_top" xlink:title="This alpha model is designed to accept every possible pair combination from securities selected by th...">
<polygon fill="white" stroke="black" points="530,-343.5 530,-373.5 727,-373.5 727,-343.5 530,-343.5"/>
<text text-anchor="start" x="538" y="-361.5" font-family="Helvetica,sans-Serif" font-size="10.00">QuantConnect.Algorithm.Framework.</text>
<text text-anchor="middle" x="628.5" y="-350.5" font-family="Helvetica,sans-Serif" font-size="10.00">Alphas.BasePairsTradingAlphaModel</text>
</a>
</g>
</g>
<!-- Node1&#45;&gt;Node7 -->
<g id="edge6" class="edge">
<title>Node1&#45;&gt;Node7</title>
<path fill="none" stroke="midnightblue" d="M419.97,-257.52C445.26,-280.06 487.59,-314.55 530,-334.5 537.26,-337.91 545.05,-340.88 552.96,-343.44"/>
<polygon fill="midnightblue" stroke="midnightblue" points="422.15,-254.76 412.39,-250.65 417.45,-259.95 422.15,-254.76"/>
</g>
<!-- Node9 -->
<g id="node9" class="node">
<title>Node9</title>
<g id="a_node9"><a xlink:href="classQuantConnect_1_1Algorithm_1_1Framework_1_1Alphas_1_1CompositeAlphaModel.html" target="_top" xlink:title="Provides an implementation of IAlphaModel that combines multiple alpha models into a single alpha mod...">
<polygon fill="white" stroke="black" points="530,-294.5 530,-324.5 727,-324.5 727,-294.5 530,-294.5"/>
<text text-anchor="start" x="538" y="-312.5" font-family="Helvetica,sans-Serif" font-size="10.00">QuantConnect.Algorithm.Framework.</text>
<text text-anchor="middle" x="628.5" y="-301.5" font-family="Helvetica,sans-Serif" font-size="10.00">Alphas.CompositeAlphaModel</text>
</a>
</g>
</g>
<!-- Node1&#45;&gt;Node9 -->
<g id="edge8" class="edge">
<title>Node1&#45;&gt;Node9</title>
<path fill="none" stroke="midnightblue" d="M442.63,-254.3C468.14,-264.31 500.54,-276.39 530,-285.5 540.24,-288.67 551.19,-291.7 561.91,-294.47"/>
<polygon fill="midnightblue" stroke="midnightblue" points="443.8,-251 433.22,-250.58 441.23,-257.51 443.8,-251"/>
</g>
<!-- Node10 -->
<g id="node10" class="node">
<title>Node10</title>
<g id="a_node10"><a xlink:href="classQuantConnect_1_1Algorithm_1_1Framework_1_1Alphas_1_1ConstantAlphaModel.html" target="_top" xlink:title="Provides an implementation of IAlphaModel that always returns the same insight for each security">
<polygon fill="white" stroke="black" points="530,-245.5 530,-275.5 727,-275.5 727,-245.5 530,-245.5"/>
<text text-anchor="start" x="538" y="-263.5" font-family="Helvetica,sans-Serif" font-size="10.00">QuantConnect.Algorithm.Framework.</text>
<text text-anchor="middle" x="628.5" y="-252.5" font-family="Helvetica,sans-Serif" font-size="10.00">Alphas.ConstantAlphaModel</text>
</a>
</g>
</g>
<!-- Node1&#45;&gt;Node10 -->
<g id="edge9" class="edge">
<title>Node1&#45;&gt;Node10</title>
<path fill="none" stroke="midnightblue" d="M504.15,-247.15C512.72,-248.08 521.35,-249.01 529.85,-249.93"/>
<polygon fill="midnightblue" stroke="midnightblue" points="504.45,-243.66 494.13,-246.07 503.7,-250.62 504.45,-243.66"/>
</g>
<!-- Node11 -->
<g id="node11" class="node">
<title>Node11</title>
<g id="a_node11"><a xlink:href="classQuantConnect_1_1Algorithm_1_1Framework_1_1Alphas_1_1EmaCrossAlphaModel.html" target="_top" xlink:title="Alpha model that uses an EMA cross to create insights">
<polygon fill="white" stroke="black" points="530,-196.5 530,-226.5 727,-226.5 727,-196.5 530,-196.5"/>
<text text-anchor="start" x="538" y="-214.5" font-family="Helvetica,sans-Serif" font-size="10.00">QuantConnect.Algorithm.Framework.</text>
<text text-anchor="middle" x="628.5" y="-203.5" font-family="Helvetica,sans-Serif" font-size="10.00">Alphas.EmaCrossAlphaModel</text>
</a>
</g>
</g>
<!-- Node1&#45;&gt;Node11 -->
<g id="edge10" class="edge">
<title>Node1&#45;&gt;Node11</title>
<path fill="none" stroke="midnightblue" d="M504.15,-224.32C512.72,-223.42 521.35,-222.53 529.85,-221.65"/>
<polygon fill="midnightblue" stroke="midnightblue" points="503.71,-220.84 494.13,-225.36 504.44,-227.8 503.71,-220.84"/>
</g>
<!-- Node12 -->
<g id="node12" class="node">
<title>Node12</title>
<g id="a_node12"><a xlink:href="classQuantConnect_1_1Algorithm_1_1Framework_1_1Alphas_1_1HistoricalReturnsAlphaModel.html" target="_top" xlink:title="Alpha model that uses historical returns to create insights">
<polygon fill="white" stroke="black" points="530,-147.5 530,-177.5 727,-177.5 727,-147.5 530,-147.5"/>
<text text-anchor="start" x="538" y="-165.5" font-family="Helvetica,sans-Serif" font-size="10.00">QuantConnect.Algorithm.Framework.</text>
<text text-anchor="middle" x="628.5" y="-154.5" font-family="Helvetica,sans-Serif" font-size="10.00">Alphas.HistoricalReturnsAlphaModel</text>
</a>
</g>
</g>
<!-- Node1&#45;&gt;Node12 -->
<g id="edge11" class="edge">
<title>Node1&#45;&gt;Node12</title>
<path fill="none" stroke="midnightblue" d="M443.49,-216.81C468.87,-207.08 500.9,-195.39 530,-186.5 540.34,-183.34 551.38,-180.31 562.19,-177.52"/>
<polygon fill="midnightblue" stroke="midnightblue" points="442.17,-213.57 434.1,-220.43 444.69,-220.1 442.17,-213.57"/>
</g>
<!-- Node13 -->
<g id="node13" class="node">
<title>Node13</title>
<g id="a_node13"><a xlink:href="classQuantConnect_1_1Algorithm_1_1Framework_1_1Alphas_1_1MacdAlphaModel.html" target="_top" xlink:title="Defines a custom alpha model that uses MACD crossovers. The MACD signal line is used to generate up/d...">
<polygon fill="white" stroke="black" points="530,-98.5 530,-128.5 727,-128.5 727,-98.5 530,-98.5"/>
<text text-anchor="start" x="538" y="-116.5" font-family="Helvetica,sans-Serif" font-size="10.00">QuantConnect.Algorithm.Framework.</text>
<text text-anchor="middle" x="628.5" y="-105.5" font-family="Helvetica,sans-Serif" font-size="10.00">Alphas.MacdAlphaModel</text>
</a>
</g>
</g>
<!-- Node1&#45;&gt;Node13 -->
<g id="edge12" class="edge">
<title>Node1&#45;&gt;Node13</title>
<path fill="none" stroke="midnightblue" d="M420.44,-213.34C445.8,-191.03 487.93,-157.17 530,-137.5 537.34,-134.07 545.24,-131.09 553.24,-128.52"/>
<polygon fill="midnightblue" stroke="midnightblue" points="417.94,-210.88 412.81,-220.15 422.6,-216.1 417.94,-210.88"/>
</g>
<!-- Node14 -->
<g id="node14" class="node">
<title>Node14</title>
<g id="a_node14"><a xlink:href="classQuantConnect_1_1Algorithm_1_1Framework_1_1Alphas_1_1NullAlphaModel.html" target="_top" xlink:title="Provides a null implementation of an alpha model">
<polygon fill="white" stroke="black" points="530,-49.5 530,-79.5 727,-79.5 727,-49.5 530,-49.5"/>
<text text-anchor="start" x="538" y="-67.5" font-family="Helvetica,sans-Serif" font-size="10.00">QuantConnect.Algorithm.Framework.</text>
<text text-anchor="middle" x="628.5" y="-56.5" font-family="Helvetica,sans-Serif" font-size="10.00">Alphas.NullAlphaModel</text>
</a>
</g>
</g>
<!-- Node1&#45;&gt;Node14 -->
<g id="edge13" class="edge">
<title>Node1&#45;&gt;Node14</title>
<path fill="none" stroke="midnightblue" d="M411.36,-211.76C433.22,-178.87 477.21,-119.96 530,-88.5 535.77,-85.06 542,-82.12 548.44,-79.59"/>
<polygon fill="midnightblue" stroke="midnightblue" points="408.32,-210.01 405.79,-220.3 414.18,-213.83 408.32,-210.01"/>
</g>
<!-- Node15 -->
<g id="node15" class="node">
<title>Node15</title>
<g id="a_node15"><a xlink:href="classQuantConnect_1_1Algorithm_1_1Framework_1_1Alphas_1_1RsiAlphaModel.html" target="_top" xlink:title="Uses Wilder&#39;s RSI to create insights. Using default settings, a cross over below 30 or above 70 will ...">
<polygon fill="white" stroke="black" points="530,-0.5 530,-30.5 727,-30.5 727,-0.5 530,-0.5"/>
<text text-anchor="start" x="538" y="-18.5" font-family="Helvetica,sans-Serif" font-size="10.00">QuantConnect.Algorithm.Framework.</text>
<text text-anchor="middle" x="628.5" y="-7.5" font-family="Helvetica,sans-Serif" font-size="10.00">Alphas.RsiAlphaModel</text>
</a>
</g>
</g>
<!-- Node1&#45;&gt;Node15 -->
<g id="edge14" class="edge">
<title>Node1&#45;&gt;Node15</title>
<path fill="none" stroke="midnightblue" d="M406.17,-211.01C424.02,-169.08 466.27,-83.77 530,-39.5 534.87,-36.12 540.16,-33.21 545.68,-30.71"/>
<polygon fill="midnightblue" stroke="midnightblue" points="402.85,-209.88 402.25,-220.46 409.31,-212.56 402.85,-209.88"/>
</g>
<!-- Node2 -->
<g id="node2" class="node">
<title>Node2</title>
<g id="a_node2"><a xlink:href="interfaceQuantConnect_1_1Algorithm_1_1Framework_1_1Alphas_1_1IAlphaModel.html" target="_top" xlink:title="Algorithm framework model that produces insights">
<polygon fill="white" stroke="black" points="180,-245 180,-264 257,-264 257,-245 180,-245"/>
<text text-anchor="middle" x="218.5" y="-252" font-family="Helvetica,sans-Serif" font-size="10.00">IAlphaModel</text>
</a>
</g>
</g>
<!-- Node2&#45;&gt;Node1 -->
<g id="edge1" class="edge">
<title>Node2&#45;&gt;Node1</title>
<path fill="none" stroke="midnightblue" d="M267.23,-249.32C276.58,-248.3 286.69,-247.2 296.99,-246.09"/>
<polygon fill="midnightblue" stroke="midnightblue" points="266.61,-245.87 257.04,-250.42 267.36,-252.82 266.61,-245.87"/>
</g>
<!-- Node3 -->
<g id="node3" class="node">
<title>Node3</title>
<g id="a_node3"><a xlink:href="interfaceQuantConnect_1_1Algorithm_1_1Framework_1_1INotifiedSecurityChanges.html" target="_top" xlink:title="Types implementing this interface will be called when the algorithm&#39;s set of securities changes">
<polygon fill="white" stroke="black" points="0,-245 0,-264 140,-264 140,-245 0,-245"/>
<text text-anchor="middle" x="70" y="-252" font-family="Helvetica,sans-Serif" font-size="10.00">INotifiedSecurityChanges</text>
</a>
</g>
</g>
<!-- Node3&#45;&gt;Node2 -->
<g id="edge2" class="edge">
<title>Node3&#45;&gt;Node2</title>
<path fill="none" stroke="midnightblue" d="M150.6,-254.5C160.78,-254.5 170.8,-254.5 179.86,-254.5"/>
<polygon fill="midnightblue" stroke="midnightblue" points="150.39,-251 140.39,-254.5 150.39,-258 150.39,-251"/>
</g>
<!-- Node4 -->
<g id="node4" class="node">
<title>Node4</title>
<g id="a_node4"><a xlink:href="interfaceQuantConnect_1_1Algorithm_1_1Framework_1_1Alphas_1_1INamedModel.html" target="_top" xlink:title="Provides a marker interface allowing models to define their own names. If not specified,...">
<polygon fill="white" stroke="black" points="176,-207 176,-226 261,-226 261,-207 176,-207"/>
<text text-anchor="middle" x="218.5" y="-214" font-family="Helvetica,sans-Serif" font-size="10.00">INamedModel</text>
</a>
</g>
</g>
<!-- Node4&#45;&gt;Node1 -->
<g id="edge3" class="edge">
<title>Node4&#45;&gt;Node1</title>
<path fill="none" stroke="midnightblue" d="M271.37,-222.13C279.45,-223.01 288.02,-223.94 296.73,-224.89"/>
<polygon fill="midnightblue" stroke="midnightblue" points="271.74,-218.65 261.42,-221.05 270.98,-225.61 271.74,-218.65"/>
</g>
<!-- Node8 -->
<g id="node8" class="node">
<title>Node8</title>
<g id="a_node8"><a xlink:href="classQuantConnect_1_1Algorithm_1_1Framework_1_1Alphas_1_1PearsonCorrelationPairsTradingAlphaModel.html" target="_top" xlink:title="This alpha model is designed to rank every pair combination by its pearson correlation and trade the ...">
<polygon fill="white" stroke="black" points="763,-338 763,-379 967,-379 967,-338 763,-338"/>
<text text-anchor="start" x="771" y="-367" font-family="Helvetica,sans-Serif" font-size="10.00">QuantConnect.Algorithm.Framework.</text>
<text text-anchor="start" x="771" y="-356" font-family="Helvetica,sans-Serif" font-size="10.00">Alphas.PearsonCorrelationPairsTrading</text>
<text text-anchor="middle" x="865" y="-345" font-family="Helvetica,sans-Serif" font-size="10.00">AlphaModel</text>
</a>
</g>
</g>
<!-- Node7&#45;&gt;Node8 -->
<g id="edge7" class="edge">
<title>Node7&#45;&gt;Node8</title>
<path fill="none" stroke="midnightblue" d="M737.44,-358.5C745.83,-358.5 754.28,-358.5 762.63,-358.5"/>
<polygon fill="midnightblue" stroke="midnightblue" points="737.25,-355 727.25,-358.5 737.25,-362 737.25,-355"/>
</g>
</g>
</svg>
        <g id="navigator" transform="translate(0 0)" fill="#404254">
                <rect fill="#f2f5e9" fill-opacity="0.5" stroke="#606060" stroke-width=".5" x="0" y="0" width="60" height="60"/>
                <use id="zoomplus" xlink:href="#zoomPlus" x="17" y="9" onmousedown="handleZoom(evt,'in')"/>
                <use id="zoomminus" xlink:href="#zoomMin" x="42" y="9" onmousedown="handleZoom(evt,'out')"/>
                <use id="reset" xlink:href="#resetDef" x="30" y="36" onmousedown="handleReset()"/>
                <g id="arrowUp" xlink:href="#dirArrow" transform="translate(30 24)" onmousedown="handlePan(0,-1)">
                  <use xlink:href="#rim" fill="#404040">
                        <set attributeName="fill" to="#808080" begin="arrowUp.mouseover" end="arrowUp.mouseout"/>
                  </use>
                  <path fill="none" stroke="white" stroke-width="1.5" d="M0,-3.0v7 M-2.5,-0.5L0,-3.0L2.5,-0.5"/>
                </g>
                <g id="arrowRight" xlink:href="#dirArrow" transform="rotate(90) translate(36 -43)" onmousedown="handlePan(1,0)">
                  <use xlink:href="#rim" fill="#404040">
                        <set attributeName="fill" to="#808080" begin="arrowRight.mouseover" end="arrowRight.mouseout"/>
                  </use>
                  <path fill="none" stroke="white" stroke-width="1.5" d="M0,-3.0v7 M-2.5,-0.5L0,-3.0L2.5,-0.5"/>
                </g>
                <g id="arrowDown" xlink:href="#dirArrow" transform="rotate(180) translate(-30 -48)" onmousedown="handlePan(0,1)">
                  <use xlink:href="#rim" fill="#404040">
                        <set attributeName="fill" to="#808080" begin="arrowDown.mouseover" end="arrowDown.mouseout"/>
                  </use>
                  <path fill="none" stroke="white" stroke-width="1.5" d="M0,-3.0v7 M-2.5,-0.5L0,-3.0L2.5,-0.5"/>
                </g>
                <g id="arrowLeft" xlink:href="#dirArrow" transform="rotate(270) translate(-36 17)" onmousedown="handlePan(-1,0)">
                  <use xlink:href="#rim" fill="#404040">
                        <set attributeName="fill" to="#808080" begin="arrowLeft.mouseover" end="arrowLeft.mouseout"/>
                  </use>
                  <path fill="none" stroke="white" stroke-width="1.5" d="M0,-3.0v7 M-2.5,-0.5L0,-3.0L2.5,-0.5"/>
                </g>
        </g>
        <svg viewBox="0 0 15 15" width="100%" height="30px" preserveAspectRatio="xMaxYMin meet">
         <g id="arrow_out" transform="scale(0.3 0.3)">
          <a xlink:href="classQuantConnect_1_1Algorithm_1_1Framework_1_1Alphas_1_1AlphaModel__inherit__graph_org.svg" target="_base">
           <rect id="button" ry="5" rx="5" y="6" x="6" height="38" width="38"
                fill="#f2f5e9" fill-opacity="0.5" stroke="#606060" stroke-width="1.0"/>
           <path id="arrow"
             d="M 11.500037,31.436501 C 11.940474,20.09759 22.043105,11.32322 32.158766,21.979434 L 37.068811,17.246167 C 37.068811,17.246167 37.088388,32 37.088388,32 L 22.160133,31.978069 C 22.160133,31.978069 26.997745,27.140456 26.997745,27.140456 C 18.528582,18.264221 13.291696,25.230495 11.500037,31.436501 z"
             style="fill:#404040;"/>
          </a>
         </g>
        </svg>
</svg>
