<?xml version="1.0" encoding="UTF-8" standalone="no"?>
<!DOCTYPE svg PUBLIC "-//W3C//DTD SVG 1.1//EN"
 "http://www.w3.org/Graphics/SVG/1.1/DTD/svg11.dtd">
<!-- Generated by graphviz version 2.43.0 (0)
 -->
<!-- Title: QuantConnect.Lean.Engine.DataFeeds.ApiDataProvider.NeedToDownload Pages: 1 -->
<svg width="778pt" height="137pt"
 viewBox="0.00 0.00 778.00 137.00" xmlns="http://www.w3.org/2000/svg" xmlns:xlink="http://www.w3.org/1999/xlink">
<g id="graph0" class="graph" transform="scale(1 1) rotate(0) translate(4 133)">
<title>QuantConnect.Lean.Engine.DataFeeds.ApiDataProvider.NeedToDownload</title>
<polygon fill="white" stroke="transparent" points="-4,4 -4,-133 774,-133 774,4 -4,4"/>
<!-- Node1 -->
<g id="node1" class="node">
<title>Node1</title>
<g id="a_node1"><a xlink:title="Main filter to determine if this file needs to be downloaded">
<polygon fill="#bfbfbf" stroke="black" points="0,-68 0,-109 179,-109 179,-68 0,-68"/>
<text text-anchor="start" x="8" y="-97" font-family="Helvetica,sans-Serif" font-size="10.00">QuantConnect.Lean.Engine.</text>
<text text-anchor="start" x="8" y="-86" font-family="Helvetica,sans-Serif" font-size="10.00">DataFeeds.ApiDataProvider.Need</text>
<text text-anchor="middle" x="89.5" y="-75" font-family="Helvetica,sans-Serif" font-size="10.00">ToDownload</text>
</a>
</g>
</g>
<!-- Node2 -->
<g id="node2" class="node">
<title>Node2</title>
<g id="a_node2"><a xlink:href="classQuantConnect_1_1Logging_1_1Log.html#af0e7955911bc7664b37661b2a303a9e3" target="_top" xlink:title="Log error">
<polygon fill="white" stroke="black" points="421.5,-98.5 421.5,-128.5 571.5,-128.5 571.5,-98.5 421.5,-98.5"/>
<text text-anchor="start" x="429.5" y="-116.5" font-family="Helvetica,sans-Serif" font-size="10.00">QuantConnect.Logging.Log.</text>
<text text-anchor="middle" x="496.5" y="-105.5" font-family="Helvetica,sans-Serif" font-size="10.00">Error</text>
</a>
</g>
</g>
<!-- Node1&#45;&gt;Node2 -->
<g id="edge1" class="edge">
<title>Node1&#45;&gt;Node2</title>
<path fill="none" stroke="midnightblue" d="M179.13,-93.97C248.1,-98.23 343.2,-104.1 411.08,-108.29"/>
<polygon fill="midnightblue" stroke="midnightblue" points="411.11,-111.8 421.31,-108.92 411.55,-104.81 411.11,-111.8"/>
</g>
<!-- Node4 -->
<g id="node4" class="node">
<title>Node4</title>
<g id="a_node4"><a xlink:href="classQuantConnect_1_1Util_1_1LeanData.html#acb196459d817160bd77b78d0409bcf8e" target="_top" xlink:title="Parses file name into a Security and DateTime">
<polygon fill="white" stroke="black" points="215,-51.5 215,-81.5 373,-81.5 373,-51.5 215,-51.5"/>
<text text-anchor="start" x="223" y="-69.5" font-family="Helvetica,sans-Serif" font-size="10.00">QuantConnect.Util.LeanData.</text>
<text text-anchor="middle" x="294" y="-58.5" font-family="Helvetica,sans-Serif" font-size="10.00">TryParseSecurityType</text>
</a>
</g>
</g>
<!-- Node1&#45;&gt;Node4 -->
<g id="edge3" class="edge">
<title>Node1&#45;&gt;Node4</title>
<path fill="none" stroke="midnightblue" d="M179.02,-78.88C187.59,-77.95 196.28,-77.01 204.85,-76.08"/>
<polygon fill="midnightblue" stroke="midnightblue" points="205.26,-79.55 214.83,-74.99 204.51,-72.59 205.26,-79.55"/>
</g>
<!-- Node3 -->
<g id="node3" class="node">
<title>Node3</title>
<g id="a_node3"><a xlink:href="interfaceQuantConnect_1_1Logging_1_1ILogHandler.html#a35373a0c5d76031fa5ccf5dc39e5c25d" target="_top" xlink:title="Write error message to log">
<polygon fill="white" stroke="black" points="620,-98.5 620,-128.5 770,-128.5 770,-98.5 620,-98.5"/>
<text text-anchor="start" x="628" y="-116.5" font-family="Helvetica,sans-Serif" font-size="10.00">QuantConnect.Logging.ILog</text>
<text text-anchor="middle" x="695" y="-105.5" font-family="Helvetica,sans-Serif" font-size="10.00">Handler.Error</text>
</a>
</g>
</g>
<!-- Node2&#45;&gt;Node3 -->
<g id="edge2" class="edge">
<title>Node2&#45;&gt;Node3</title>
<path fill="none" stroke="midnightblue" d="M571.51,-113.5C583.96,-113.5 596.96,-113.5 609.64,-113.5"/>
<polygon fill="midnightblue" stroke="midnightblue" points="609.73,-117 619.73,-113.5 609.73,-110 609.73,-117"/>
</g>
<!-- Node4&#45;&gt;Node2 -->
<g id="edge4" class="edge">
<title>Node4&#45;&gt;Node2</title>
<path fill="none" stroke="midnightblue" d="M358.99,-81.5C378.89,-86.16 400.98,-91.34 421.5,-96.15"/>
<polygon fill="midnightblue" stroke="midnightblue" points="420.89,-99.61 431.43,-98.48 422.49,-92.79 420.89,-99.61"/>
</g>
<!-- Node5 -->
<g id="node5" class="node">
<title>Node5</title>
<g id="a_node5"><a xlink:href="classQuantConnect_1_1Util_1_1LeanData.html#a2fa1266f0243ee3d323c572c78291184" target="_top" xlink:title="Matches a data path security type with the SecurityType">
<polygon fill="white" stroke="black" points="417.5,-49.5 417.5,-79.5 575.5,-79.5 575.5,-49.5 417.5,-49.5"/>
<text text-anchor="start" x="425.5" y="-67.5" font-family="Helvetica,sans-Serif" font-size="10.00">QuantConnect.Util.LeanData.</text>
<text text-anchor="middle" x="496.5" y="-56.5" font-family="Helvetica,sans-Serif" font-size="10.00">ParseDataSecurityType</text>
</a>
</g>
</g>
<!-- Node4&#45;&gt;Node5 -->
<g id="edge5" class="edge">
<title>Node4&#45;&gt;Node5</title>
<path fill="none" stroke="midnightblue" d="M373.09,-65.72C384.2,-65.61 395.7,-65.5 406.99,-65.38"/>
<polygon fill="midnightblue" stroke="midnightblue" points="407.33,-68.88 417.29,-65.28 407.26,-61.88 407.33,-68.88"/>
</g>
<!-- Node6 -->
<g id="node6" class="node">
<title>Node6</title>
<g id="a_node6"><a xlink:href="classQuantConnect_1_1Market.html#a68544ce4a0cb84a13a0517eeeee94b02" target="_top" xlink:title="Returns a list of the supported markets">
<polygon fill="white" stroke="black" points="409,-0.5 409,-30.5 584,-30.5 584,-0.5 409,-0.5"/>
<text text-anchor="start" x="417" y="-18.5" font-family="Helvetica,sans-Serif" font-size="10.00">QuantConnect.Market.Supported</text>
<text text-anchor="middle" x="496.5" y="-7.5" font-family="Helvetica,sans-Serif" font-size="10.00">Markets</text>
</a>
</g>
</g>
<!-- Node4&#45;&gt;Node6 -->
<g id="edge6" class="edge">
<title>Node4&#45;&gt;Node6</title>
<path fill="none" stroke="midnightblue" d="M354.07,-51.47C376.81,-45.69 402.98,-39.03 426.57,-33.03"/>
<polygon fill="midnightblue" stroke="midnightblue" points="427.68,-36.36 436.5,-30.51 425.95,-29.58 427.68,-36.36"/>
</g>
</g>
</svg>
