<?xml version="1.0" encoding="UTF-8" standalone="no"?>
<!DOCTYPE svg PUBLIC "-//W3C//DTD SVG 1.1//EN"
 "http://www.w3.org/Graphics/SVG/1.1/DTD/svg11.dtd">
<!-- Generated by graphviz version 2.43.0 (0)
 -->
<!-- Title: QuantConnect.Algorithm.QCAlgorithm.AddFutureOption Pages: 1 -->
<svg width="695pt" height="78pt"
 viewBox="0.00 0.00 695.00 77.50" xmlns="http://www.w3.org/2000/svg" xmlns:xlink="http://www.w3.org/1999/xlink">
<g id="graph0" class="graph" transform="scale(1 1) rotate(0) translate(4 73.5)">
<title>QuantConnect.Algorithm.QCAlgorithm.AddFutureOption</title>
<polygon fill="white" stroke="transparent" points="-4,4 -4,-73.5 691,-73.5 691,4 -4,4"/>
<!-- Node1 -->
<g id="node1" class="node">
<title>Node1</title>
<g id="a_node1"><a xlink:title="Creates and adds a new Future Option contract to the algorithm.">
<polygon fill="#bfbfbf" stroke="black" points="0,-17 0,-47 205,-47 205,-17 0,-17"/>
<text text-anchor="start" x="8" y="-35" font-family="Helvetica,sans-Serif" font-size="10.00">QuantConnect.Algorithm.QCAlgorithm.</text>
<text text-anchor="middle" x="102.5" y="-24" font-family="Helvetica,sans-Serif" font-size="10.00">AddFutureOption</text>
</a>
</g>
</g>
<!-- Node2 -->
<g id="node2" class="node">
<title>Node2</title>
<g id="a_node2"><a xlink:href="classQuantConnect_1_1Algorithm_1_1QCAlgorithm.html#a3759799dd86beb97cfa337b052d14a08" target="_top" xlink:title="Creates and adds a new Future Option contract to the algorithm.">
<polygon fill="white" stroke="black" points="241,-17 241,-47 446,-47 446,-17 241,-17"/>
<text text-anchor="start" x="249" y="-35" font-family="Helvetica,sans-Serif" font-size="10.00">QuantConnect.Algorithm.QCAlgorithm.</text>
<text text-anchor="middle" x="343.5" y="-24" font-family="Helvetica,sans-Serif" font-size="10.00">AddFutureOption</text>
</a>
</g>
</g>
<!-- Node1&#45;&gt;Node2 -->
<g id="edge1" class="edge">
<title>Node1&#45;&gt;Node2</title>
<path fill="none" stroke="midnightblue" d="M205.2,-32C213.7,-32 222.31,-32 230.87,-32"/>
<polygon fill="midnightblue" stroke="midnightblue" points="230.89,-35.5 240.89,-32 230.89,-28.5 230.89,-35.5"/>
</g>
<!-- Node3 -->
<g id="node3" class="node">
<title>Node3</title>
<g id="a_node3"><a xlink:href="classQuantConnect_1_1Algorithm_1_1QCAlgorithm.html#ac8766651d133584cee7f03ba6d53bb86" target="_top" xlink:title="Creates a new universe selection model and adds it to the algorithm. This universe selection model wi...">
<polygon fill="white" stroke="black" points="482,-39 482,-69 687,-69 687,-39 482,-39"/>
<text text-anchor="start" x="490" y="-57" font-family="Helvetica,sans-Serif" font-size="10.00">QuantConnect.Algorithm.QCAlgorithm.</text>
<text text-anchor="middle" x="584.5" y="-46" font-family="Helvetica,sans-Serif" font-size="10.00">AddUniverseOptions</text>
</a>
</g>
</g>
<!-- Node2&#45;&gt;Node3 -->
<g id="edge2" class="edge">
<title>Node2&#45;&gt;Node3</title>
<path fill="none" stroke="midnightblue" d="M446.2,-41.36C454.7,-42.14 463.31,-42.94 471.87,-43.72"/>
<polygon fill="midnightblue" stroke="midnightblue" points="471.61,-47.22 481.89,-44.65 472.25,-40.24 471.61,-47.22"/>
</g>
<!-- Node4 -->
<g id="node4" class="node">
<title>Node4</title>
<g id="a_node4"><a xlink:href="classQuantConnect_1_1Symbol.html#a1f3c25223fd9a7b753a4f84ece6469ab" target="_top" xlink:title="Method returns true, if symbol is a derivative canonical symbol">
<polygon fill="white" stroke="black" points="492,-0.5 492,-19.5 677,-19.5 677,-0.5 492,-0.5"/>
<text text-anchor="middle" x="584.5" y="-7.5" font-family="Helvetica,sans-Serif" font-size="10.00">QuantConnect.Symbol.IsCanonical</text>
</a>
</g>
</g>
<!-- Node2&#45;&gt;Node4 -->
<g id="edge3" class="edge">
<title>Node2&#45;&gt;Node4</title>
<path fill="none" stroke="midnightblue" d="M446.2,-22.64C457.9,-21.56 469.82,-20.46 481.52,-19.39"/>
<polygon fill="midnightblue" stroke="midnightblue" points="482.09,-22.85 491.73,-18.45 481.45,-15.88 482.09,-22.85"/>
</g>
</g>
</svg>
