<?xml version="1.0" encoding="UTF-8" standalone="no"?>
<!DOCTYPE svg PUBLIC "-//W3C//DTD SVG 1.1//EN"
 "http://www.w3.org/Graphics/SVG/1.1/DTD/svg11.dtd">
<!-- Generated by graphviz version 2.43.0 (0)
 -->
<!-- Title: QuantConnect.Securities.SecurityExchange.IsOpenDuringBar Pages: 1 -->
<!--zoomable 480 -->
<svg id="main" version="1.1" xmlns="http://www.w3.org/2000/svg" xmlns:xlink="http://www.w3.org/1999/xlink" xml:space="preserve" onload="init(evt)">
<style type="text/css"><![CDATA[
.edge:hover path { stroke: red; }
.edge:hover polygon { stroke: red; fill: red; }
]]></style>
<script type="text/javascript"><![CDATA[
var edges = document.getElementsByTagName('g');
if (edges && edges.length) {
  for (var i=0;i<edges.length;i++) {
    if (edges[i].id.substr(0,4)=='edge') {
      edges[i].setAttribute('class','edge');
    }
  }
}
]]></script>
        <defs>
                <circle id="rim" cx="0" cy="0" r="7"/>
                <circle id="rim2" cx="0" cy="0" r="3.5"/>
                <g id="zoomPlus">
                        <use xlink:href="#rim" fill="#404040">
                                <set attributeName="fill" to="#808080" begin="zoomplus.mouseover" end="zoomplus.mouseout"/>
                        </use>
                        <path d="M-4,0h8M0,-4v8" fill="none" stroke="white" stroke-width="1.5" pointer-events="none"/>
                </g>
                <g id="zoomMin">
                        <use xlink:href="#rim" fill="#404040">
                                <set attributeName="fill" to="#808080" begin="zoomminus.mouseover" end="zoomminus.mouseout"/>
                        </use>
                        <path d="M-4,0h8" fill="none" stroke="white" stroke-width="1.5" pointer-events="none"/>
                </g>
                <g id="dirArrow">
                        <path fill="none" stroke="white" stroke-width="1.5" d="M0,-3.0v7 M-2.5,-0.5L0,-3.0L2.5,-0.5"/>
                </g>
               <g id="resetDef">
                       <use xlink:href="#rim2" fill="#404040">
                               <set attributeName="fill" to="#808080" begin="reset.mouseover" end="reset.mouseout"/>
                       </use>
               </g>
        </defs>

<script type="text/javascript">
var viewWidth = 697;
var viewHeight = 480;
var sectionId = 'dynsection-5';
</script>
<script xlink:href="svgpan.js"/>
<svg id="graph" class="graph">
<g id="viewport">
<title>QuantConnect.Securities.SecurityExchange.IsOpenDuringBar</title>
<polygon fill="white" stroke="transparent" points="-4,4 -4,-476 693,-476 693,4 -4,4"/>
<!-- Node1 -->
<g id="node1" class="node">
<title>Node1</title>
<g id="a_node1"><a xlink:title="Determines if the exchange was open at any time between start and stop">
<polygon fill="#bfbfbf" stroke="black" points="500,-244.5 500,-274.5 689,-274.5 689,-244.5 500,-244.5"/>
<text text-anchor="start" x="508" y="-262.5" font-family="Helvetica,sans-Serif" font-size="10.00">QuantConnect.Securities.</text>
<text text-anchor="middle" x="594.5" y="-251.5" font-family="Helvetica,sans-Serif" font-size="10.00">SecurityExchange.IsOpenDuringBar</text>
</a>
</g>
</g>
<!-- Node2 -->
<g id="node2" class="node">
<title>Node2</title>
<g id="a_node2"><a xlink:href="classQuantConnect_1_1Brokerages_1_1TradierBrokerageModel.html#a16fcd860e1d830e23658480625c26c2e" target="_top" xlink:title="Returns true if the brokerage would be able to execute this order at this time assuming market prices...">
<polygon fill="white" stroke="black" points="248,-355.5 248,-385.5 464,-385.5 464,-355.5 248,-355.5"/>
<text text-anchor="start" x="256" y="-373.5" font-family="Helvetica,sans-Serif" font-size="10.00">QuantConnect.Brokerages.</text>
<text text-anchor="middle" x="356" y="-362.5" font-family="Helvetica,sans-Serif" font-size="10.00">TradierBrokerageModel.CanExecuteOrder</text>
</a>
</g>
</g>
<!-- Node1&#45;&gt;Node2 -->
<g id="edge1" class="edge">
<title>Node1&#45;&gt;Node2</title>
<path fill="none" stroke="midnightblue" d="M551.92,-279.02C505.44,-300.83 431.17,-335.69 389,-355.48"/>
<polygon fill="midnightblue" stroke="midnightblue" points="553.55,-282.12 561.11,-274.7 550.57,-275.78 553.55,-282.12"/>
</g>
<!-- Node4 -->
<g id="node4" class="node">
<title>Node4</title>
<g id="a_node4"><a xlink:href="classQuantConnect_1_1Orders_1_1Fills_1_1FillModel.html#acc205b791cf6a99fa989502aff6b53b8" target="_top" xlink:title="Determines if the exchange is open using the current time of the asset">
<polygon fill="white" stroke="black" points="283,-220.5 283,-250.5 429,-250.5 429,-220.5 283,-220.5"/>
<text text-anchor="start" x="291" y="-238.5" font-family="Helvetica,sans-Serif" font-size="10.00">QuantConnect.Orders.Fills.</text>
<text text-anchor="middle" x="356" y="-227.5" font-family="Helvetica,sans-Serif" font-size="10.00">FillModel.IsExchangeOpen</text>
</a>
</g>
</g>
<!-- Node1&#45;&gt;Node4 -->
<g id="edge3" class="edge">
<title>Node1&#45;&gt;Node4</title>
<path fill="none" stroke="midnightblue" d="M489.72,-248.97C469.29,-246.9 448.28,-244.76 429.17,-242.82"/>
<polygon fill="midnightblue" stroke="midnightblue" points="489.39,-252.45 499.69,-249.98 490.09,-245.49 489.39,-252.45"/>
</g>
<!-- Node3 -->
<g id="node3" class="node">
<title>Node3</title>
<g id="a_node3"><a xlink:href="classQuantConnect_1_1Brokerages_1_1TradierBrokerageModel.html#a5cafb36dfeec2e93a72842cc12ee9ec3" target="_top" xlink:title="Returns true if the brokerage could accept this order. This takes into account order type,...">
<polygon fill="white" stroke="black" points="0,-441.5 0,-471.5 212,-471.5 212,-441.5 0,-441.5"/>
<text text-anchor="start" x="8" y="-459.5" font-family="Helvetica,sans-Serif" font-size="10.00">QuantConnect.Brokerages.</text>
<text text-anchor="middle" x="106" y="-448.5" font-family="Helvetica,sans-Serif" font-size="10.00">TradierBrokerageModel.CanSubmitOrder</text>
</a>
</g>
</g>
<!-- Node2&#45;&gt;Node3 -->
<g id="edge2" class="edge">
<title>Node2&#45;&gt;Node3</title>
<path fill="none" stroke="midnightblue" d="M315.52,-389.97C287.22,-403.33 247.92,-420.72 212,-432.5 201.96,-435.79 191.24,-438.8 180.62,-441.49"/>
<polygon fill="midnightblue" stroke="midnightblue" points="317.15,-393.06 324.67,-385.6 314.14,-386.75 317.15,-393.06"/>
</g>
<!-- Node5 -->
<g id="node5" class="node">
<title>Node5</title>
<g id="a_node5"><a xlink:href="classQuantConnect_1_1Orders_1_1Fills_1_1EquityFillModel.html#a26bd9d6ef294e705ff15aea24f41cb75" target="_top" xlink:title="Limit fill model implementation for Equity.">
<polygon fill="white" stroke="black" points="33,-392.5 33,-422.5 179,-422.5 179,-392.5 33,-392.5"/>
<text text-anchor="start" x="41" y="-410.5" font-family="Helvetica,sans-Serif" font-size="10.00">QuantConnect.Orders.Fills.</text>
<text text-anchor="middle" x="106" y="-399.5" font-family="Helvetica,sans-Serif" font-size="10.00">EquityFillModel.LimitFill</text>
</a>
</g>
</g>
<!-- Node4&#45;&gt;Node5 -->
<g id="edge4" class="edge">
<title>Node4&#45;&gt;Node5</title>
<path fill="none" stroke="midnightblue" d="M333.2,-258.15C293.39,-299.48 212.94,-382.97 212,-383.5 201.9,-389.2 190.54,-393.54 179.11,-396.86"/>
<polygon fill="midnightblue" stroke="midnightblue" points="335.94,-260.35 340.35,-250.71 330.9,-255.49 335.94,-260.35"/>
</g>
<!-- Node6 -->
<g id="node6" class="node">
<title>Node6</title>
<g id="a_node6"><a xlink:href="classQuantConnect_1_1Orders_1_1Fills_1_1EquityFillModel.html#a9ece28ffc288b6632dc301189fe60a70" target="_top" xlink:title="Default limit if touched fill model implementation in base class security.">
<polygon fill="white" stroke="black" points="16,-343.5 16,-373.5 196,-373.5 196,-343.5 16,-343.5"/>
<text text-anchor="start" x="24" y="-361.5" font-family="Helvetica,sans-Serif" font-size="10.00">QuantConnect.Orders.Fills.</text>
<text text-anchor="middle" x="106" y="-350.5" font-family="Helvetica,sans-Serif" font-size="10.00">EquityFillModel.LimitIfTouchedFill</text>
</a>
</g>
</g>
<!-- Node4&#45;&gt;Node6 -->
<g id="edge5" class="edge">
<title>Node4&#45;&gt;Node6</title>
<path fill="none" stroke="midnightblue" d="M329.99,-257.29C302.77,-279.89 257.07,-314.63 212,-334.5 204.21,-337.93 195.88,-340.9 187.44,-343.47"/>
<polygon fill="midnightblue" stroke="midnightblue" points="332.43,-259.82 337.82,-250.7 327.92,-254.46 332.43,-259.82"/>
</g>
<!-- Node7 -->
<g id="node7" class="node">
<title>Node7</title>
<g id="a_node7"><a xlink:href="classQuantConnect_1_1Orders_1_1Fills_1_1FutureFillModel.html#a7bc1214a98a1f4ef4920db58e1d3af15" target="_top" xlink:title="Default market fill model for the base security class. Fills at the last traded price.">
<polygon fill="white" stroke="black" points="33,-294.5 33,-324.5 179,-324.5 179,-294.5 33,-294.5"/>
<text text-anchor="start" x="41" y="-312.5" font-family="Helvetica,sans-Serif" font-size="10.00">QuantConnect.Orders.Fills.</text>
<text text-anchor="middle" x="106" y="-301.5" font-family="Helvetica,sans-Serif" font-size="10.00">FutureFillModel.MarketFill</text>
</a>
</g>
</g>
<!-- Node4&#45;&gt;Node7 -->
<g id="edge6" class="edge">
<title>Node4&#45;&gt;Node7</title>
<path fill="none" stroke="midnightblue" d="M305.89,-254.2C278.5,-264.24 243.62,-276.39 212,-285.5 201.04,-288.66 189.34,-291.67 177.88,-294.44"/>
<polygon fill="midnightblue" stroke="midnightblue" points="307.46,-257.35 315.62,-250.6 305.03,-250.78 307.46,-257.35"/>
</g>
<!-- Node8 -->
<g id="node8" class="node">
<title>Node8</title>
<g id="a_node8"><a xlink:href="classQuantConnect_1_1Orders_1_1Fills_1_1EquityFillModel.html#a7f02ae71a851b7be45d65da18127b978" target="_top" xlink:title="Default market fill model for the base security class. Fills at the last traded price.">
<polygon fill="white" stroke="black" points="33,-245.5 33,-275.5 179,-275.5 179,-245.5 33,-245.5"/>
<text text-anchor="start" x="41" y="-263.5" font-family="Helvetica,sans-Serif" font-size="10.00">QuantConnect.Orders.Fills.</text>
<text text-anchor="middle" x="106" y="-252.5" font-family="Helvetica,sans-Serif" font-size="10.00">EquityFillModel.MarketFill</text>
</a>
</g>
</g>
<!-- Node4&#45;&gt;Node8 -->
<g id="edge7" class="edge">
<title>Node4&#45;&gt;Node8</title>
<path fill="none" stroke="midnightblue" d="M272.83,-243.78C242.58,-246.83 208.56,-250.26 179.24,-253.22"/>
<polygon fill="midnightblue" stroke="midnightblue" points="273.34,-247.25 282.93,-242.76 272.63,-240.29 273.34,-247.25"/>
</g>
<!-- Node9 -->
<g id="node9" class="node">
<title>Node9</title>
<g id="a_node9"><a xlink:href="classQuantConnect_1_1Orders_1_1Fills_1_1EquityFillModel.html#aca188cd71e166416b2dc8b39b9c10311" target="_top" xlink:title="Market on Close Fill Model. Return an order event with the fill details">
<polygon fill="white" stroke="black" points="14.5,-196.5 14.5,-226.5 197.5,-226.5 197.5,-196.5 14.5,-196.5"/>
<text text-anchor="start" x="22.5" y="-214.5" font-family="Helvetica,sans-Serif" font-size="10.00">QuantConnect.Orders.Fills.</text>
<text text-anchor="middle" x="106" y="-203.5" font-family="Helvetica,sans-Serif" font-size="10.00">EquityFillModel.MarketOnCloseFill</text>
</a>
</g>
</g>
<!-- Node4&#45;&gt;Node9 -->
<g id="edge8" class="edge">
<title>Node4&#45;&gt;Node9</title>
<path fill="none" stroke="midnightblue" d="M272.79,-227.54C248.75,-225.22 222.34,-222.66 197.8,-220.29"/>
<polygon fill="midnightblue" stroke="midnightblue" points="272.64,-231.05 282.93,-228.53 273.32,-224.08 272.64,-231.05"/>
</g>
<!-- Node10 -->
<g id="node10" class="node">
<title>Node10</title>
<g id="a_node10"><a xlink:href="classQuantConnect_1_1Orders_1_1Fills_1_1EquityFillModel.html#a2cc8fb9eafec5a645f7901a20b6c0594" target="_top" xlink:title="Market on Open Fill Model. Return an order event with the fill details">
<polygon fill="white" stroke="black" points="15,-147.5 15,-177.5 197,-177.5 197,-147.5 15,-147.5"/>
<text text-anchor="start" x="23" y="-165.5" font-family="Helvetica,sans-Serif" font-size="10.00">QuantConnect.Orders.Fills.</text>
<text text-anchor="middle" x="106" y="-154.5" font-family="Helvetica,sans-Serif" font-size="10.00">EquityFillModel.MarketOnOpenFill</text>
</a>
</g>
</g>
<!-- Node4&#45;&gt;Node10 -->
<g id="edge9" class="edge">
<title>Node4&#45;&gt;Node10</title>
<path fill="none" stroke="midnightblue" d="M303.73,-217.04C276.64,-207.61 242.72,-196.29 212,-187.5 199.84,-184.02 186.79,-180.64 174.17,-177.54"/>
<polygon fill="midnightblue" stroke="midnightblue" points="302.79,-220.42 313.39,-220.43 305.11,-213.82 302.79,-220.42"/>
</g>
<!-- Node11 -->
<g id="node11" class="node">
<title>Node11</title>
<g id="a_node11"><a xlink:href="classQuantConnect_1_1Orders_1_1Fills_1_1EquityFillModel.html#a22aa83d2e8118b75f3d5a8416bc4542f" target="_top" xlink:title="Default stop limit fill model implementation in base class security. (Stop Limit Order Type)">
<polygon fill="white" stroke="black" points="28.5,-98.5 28.5,-128.5 183.5,-128.5 183.5,-98.5 28.5,-98.5"/>
<text text-anchor="start" x="36.5" y="-116.5" font-family="Helvetica,sans-Serif" font-size="10.00">QuantConnect.Orders.Fills.</text>
<text text-anchor="middle" x="106" y="-105.5" font-family="Helvetica,sans-Serif" font-size="10.00">EquityFillModel.StopLimitFill</text>
</a>
</g>
</g>
<!-- Node4&#45;&gt;Node11 -->
<g id="edge10" class="edge">
<title>Node4&#45;&gt;Node11</title>
<path fill="none" stroke="midnightblue" d="M329.42,-213.88C302.05,-191.82 256.54,-158.12 212,-138.5 203.08,-134.57 193.46,-131.21 183.78,-128.34"/>
<polygon fill="midnightblue" stroke="midnightblue" points="327.35,-216.71 337.31,-220.33 331.78,-211.29 327.35,-216.71"/>
</g>
<!-- Node12 -->
<g id="node12" class="node">
<title>Node12</title>
<g id="a_node12"><a xlink:href="classQuantConnect_1_1Orders_1_1Fills_1_1FutureFillModel.html#a27d0f1f5940e7e8c6569c2e5a06de387" target="_top" xlink:title="Stop fill model implementation for Future.">
<polygon fill="white" stroke="black" points="24,-49.5 24,-79.5 188,-79.5 188,-49.5 24,-49.5"/>
<text text-anchor="start" x="32" y="-67.5" font-family="Helvetica,sans-Serif" font-size="10.00">QuantConnect.Orders.Fills.</text>
<text text-anchor="middle" x="106" y="-56.5" font-family="Helvetica,sans-Serif" font-size="10.00">FutureFillModel.StopMarketFill</text>
</a>
</g>
</g>
<!-- Node4&#45;&gt;Node12 -->
<g id="edge11" class="edge">
<title>Node4&#45;&gt;Node12</title>
<path fill="none" stroke="midnightblue" d="M338.67,-211.89C314.76,-179.19 267.05,-120.63 212,-89.5 204.58,-85.3 196.48,-81.81 188.18,-78.9"/>
<polygon fill="midnightblue" stroke="midnightblue" points="336.09,-214.3 344.77,-220.38 341.78,-210.22 336.09,-214.3"/>
</g>
<!-- Node13 -->
<g id="node13" class="node">
<title>Node13</title>
<g id="a_node13"><a xlink:href="classQuantConnect_1_1Orders_1_1Fills_1_1EquityFillModel.html#a2b4a2286e47d3b55612f8ebbfe7beae9" target="_top" xlink:title="Stop fill model implementation for Equity.">
<polygon fill="white" stroke="black" points="24,-0.5 24,-30.5 188,-30.5 188,-0.5 24,-0.5"/>
<text text-anchor="start" x="32" y="-18.5" font-family="Helvetica,sans-Serif" font-size="10.00">QuantConnect.Orders.Fills.</text>
<text text-anchor="middle" x="106" y="-7.5" font-family="Helvetica,sans-Serif" font-size="10.00">EquityFillModel.StopMarketFill</text>
</a>
</g>
</g>
<!-- Node4&#45;&gt;Node13 -->
<g id="edge12" class="edge">
<title>Node4&#45;&gt;Node13</title>
<path fill="none" stroke="midnightblue" d="M344.28,-211.34C324.48,-169.62 278.06,-84.34 212,-40.5 204.66,-35.63 196.48,-31.71 188.01,-28.54"/>
<polygon fill="midnightblue" stroke="midnightblue" points="341.14,-212.9 348.53,-220.49 347.49,-209.95 341.14,-212.9"/>
</g>
</g>
</svg>
        <g id="navigator" transform="translate(0 0)" fill="#404254">
                <rect fill="#f2f5e9" fill-opacity="0.5" stroke="#606060" stroke-width=".5" x="0" y="0" width="60" height="60"/>
                <use id="zoomplus" xlink:href="#zoomPlus" x="17" y="9" onmousedown="handleZoom(evt,'in')"/>
                <use id="zoomminus" xlink:href="#zoomMin" x="42" y="9" onmousedown="handleZoom(evt,'out')"/>
                <use id="reset" xlink:href="#resetDef" x="30" y="36" onmousedown="handleReset()"/>
                <g id="arrowUp" xlink:href="#dirArrow" transform="translate(30 24)" onmousedown="handlePan(0,-1)">
                  <use xlink:href="#rim" fill="#404040">
                        <set attributeName="fill" to="#808080" begin="arrowUp.mouseover" end="arrowUp.mouseout"/>
                  </use>
                  <path fill="none" stroke="white" stroke-width="1.5" d="M0,-3.0v7 M-2.5,-0.5L0,-3.0L2.5,-0.5"/>
                </g>
                <g id="arrowRight" xlink:href="#dirArrow" transform="rotate(90) translate(36 -43)" onmousedown="handlePan(1,0)">
                  <use xlink:href="#rim" fill="#404040">
                        <set attributeName="fill" to="#808080" begin="arrowRight.mouseover" end="arrowRight.mouseout"/>
                  </use>
                  <path fill="none" stroke="white" stroke-width="1.5" d="M0,-3.0v7 M-2.5,-0.5L0,-3.0L2.5,-0.5"/>
                </g>
                <g id="arrowDown" xlink:href="#dirArrow" transform="rotate(180) translate(-30 -48)" onmousedown="handlePan(0,1)">
                  <use xlink:href="#rim" fill="#404040">
                        <set attributeName="fill" to="#808080" begin="arrowDown.mouseover" end="arrowDown.mouseout"/>
                  </use>
                  <path fill="none" stroke="white" stroke-width="1.5" d="M0,-3.0v7 M-2.5,-0.5L0,-3.0L2.5,-0.5"/>
                </g>
                <g id="arrowLeft" xlink:href="#dirArrow" transform="rotate(270) translate(-36 17)" onmousedown="handlePan(-1,0)">
                  <use xlink:href="#rim" fill="#404040">
                        <set attributeName="fill" to="#808080" begin="arrowLeft.mouseover" end="arrowLeft.mouseout"/>
                  </use>
                  <path fill="none" stroke="white" stroke-width="1.5" d="M0,-3.0v7 M-2.5,-0.5L0,-3.0L2.5,-0.5"/>
                </g>
        </g>
        <svg viewBox="0 0 15 15" width="100%" height="30px" preserveAspectRatio="xMaxYMin meet">
         <g id="arrow_out" transform="scale(0.3 0.3)">
          <a xlink:href="classQuantConnect_1_1Securities_1_1SecurityExchange_a17daa159794484b17946fc540864800c_icgraph_org.svg" target="_base">
           <rect id="button" ry="5" rx="5" y="6" x="6" height="38" width="38"
                fill="#f2f5e9" fill-opacity="0.5" stroke="#606060" stroke-width="1.0"/>
           <path id="arrow"
             d="M 11.500037,31.436501 C 11.940474,20.09759 22.043105,11.32322 32.158766,21.979434 L 37.068811,17.246167 C 37.068811,17.246167 37.088388,32 37.088388,32 L 22.160133,31.978069 C 22.160133,31.978069 26.997745,27.140456 26.997745,27.140456 C 18.528582,18.264221 13.291696,25.230495 11.500037,31.436501 z"
             style="fill:#404040;"/>
          </a>
         </g>
        </svg>
</svg>
