<?xml version="1.0" encoding="UTF-8" standalone="no"?>
<!DOCTYPE svg PUBLIC "-//W3C//DTD SVG 1.1//EN"
 "http://www.w3.org/Graphics/SVG/1.1/DTD/svg11.dtd">
<!-- Generated by graphviz version 2.43.0 (0)
 -->
<!-- Title: QuantConnect.Data.InterestRateProvider.TryParse Pages: 1 -->
<svg width="808pt" height="39pt"
 viewBox="0.00 0.00 808.00 39.00" xmlns="http://www.w3.org/2000/svg" xmlns:xlink="http://www.w3.org/1999/xlink">
<g id="graph0" class="graph" transform="scale(1 1) rotate(0) translate(4 35)">
<title>QuantConnect.Data.InterestRateProvider.TryParse</title>
<polygon fill="white" stroke="transparent" points="-4,4 -4,-35 804,-35 804,4 -4,4"/>
<!-- Node1 -->
<g id="node1" class="node">
<title>Node1</title>
<g id="a_node1"><a xlink:title="Parse the string into the interest rate date and value">
<polygon fill="#bfbfbf" stroke="black" points="648,-0.5 648,-30.5 800,-30.5 800,-0.5 648,-0.5"/>
<text text-anchor="start" x="656" y="-18.5" font-family="Helvetica,sans-Serif" font-size="10.00">QuantConnect.Data.Interest</text>
<text text-anchor="middle" x="724" y="-7.5" font-family="Helvetica,sans-Serif" font-size="10.00">RateProvider.TryParse</text>
</a>
</g>
</g>
<!-- Node2 -->
<g id="node2" class="node">
<title>Node2</title>
<g id="a_node2"><a xlink:href="classQuantConnect_1_1Data_1_1InterestRateProvider.html#a22c0854558b3e2356e7dc828b9a067ff" target="_top" xlink:title="Reads Fed primary credit rate file and returns a dictionary of historical rate changes">
<polygon fill="white" stroke="black" points="460,-0.5 460,-30.5 612,-30.5 612,-0.5 460,-0.5"/>
<text text-anchor="start" x="468" y="-18.5" font-family="Helvetica,sans-Serif" font-size="10.00">QuantConnect.Data.Interest</text>
<text text-anchor="middle" x="536" y="-7.5" font-family="Helvetica,sans-Serif" font-size="10.00">RateProvider.FromCsvFile</text>
</a>
</g>
</g>
<!-- Node1&#45;&gt;Node2 -->
<g id="edge1" class="edge">
<title>Node1&#45;&gt;Node2</title>
<path fill="none" stroke="midnightblue" d="M637.85,-15.5C629.26,-15.5 620.57,-15.5 612.1,-15.5"/>
<polygon fill="midnightblue" stroke="midnightblue" points="637.88,-19 647.88,-15.5 637.88,-12 637.88,-19"/>
</g>
<!-- Node3 -->
<g id="node3" class="node">
<title>Node3</title>
<g id="a_node3"><a xlink:href="classQuantConnect_1_1Data_1_1InterestRateProvider.html#afe3cfe6453b243dbc48095c78ed2bc7b" target="_top" xlink:title="Generate the daily historical US primary credit rate">
<polygon fill="white" stroke="black" points="218,-0.5 218,-30.5 424,-30.5 424,-0.5 218,-0.5"/>
<text text-anchor="start" x="226" y="-18.5" font-family="Helvetica,sans-Serif" font-size="10.00">QuantConnect.Data.Interest</text>
<text text-anchor="middle" x="321" y="-7.5" font-family="Helvetica,sans-Serif" font-size="10.00">RateProvider.LoadInterestRateProvider</text>
</a>
</g>
</g>
<!-- Node2&#45;&gt;Node3 -->
<g id="edge2" class="edge">
<title>Node2&#45;&gt;Node3</title>
<path fill="none" stroke="midnightblue" d="M449.71,-15.5C441.26,-15.5 432.63,-15.5 424.03,-15.5"/>
<polygon fill="midnightblue" stroke="midnightblue" points="449.9,-19 459.9,-15.5 449.9,-12 449.9,-19"/>
</g>
<!-- Node4 -->
<g id="node4" class="node">
<title>Node4</title>
<g id="a_node4"><a xlink:href="classQuantConnect_1_1Data_1_1InterestRateProvider.html#a9b76b4d85d9796563362c1bf6fca3d39" target="_top" xlink:title="Create class instance of interest rate provider">
<polygon fill="white" stroke="black" points="0,-0.5 0,-30.5 182,-30.5 182,-0.5 0,-0.5"/>
<text text-anchor="start" x="8" y="-18.5" font-family="Helvetica,sans-Serif" font-size="10.00">QuantConnect.Data.Interest</text>
<text text-anchor="middle" x="91" y="-7.5" font-family="Helvetica,sans-Serif" font-size="10.00">RateProvider.InterestRateProvider</text>
</a>
</g>
</g>
<!-- Node3&#45;&gt;Node4 -->
<g id="edge3" class="edge">
<title>Node3&#45;&gt;Node4</title>
<path fill="none" stroke="midnightblue" d="M207.65,-15.5C199.11,-15.5 190.55,-15.5 182.17,-15.5"/>
<polygon fill="midnightblue" stroke="midnightblue" points="207.67,-19 217.67,-15.5 207.67,-12 207.67,-19"/>
</g>
</g>
</svg>
