<?xml version="1.0" encoding="UTF-8" standalone="no"?>
<!DOCTYPE svg PUBLIC "-//W3C//DTD SVG 1.1//EN"
 "http://www.w3.org/Graphics/SVG/1.1/DTD/svg11.dtd">
<!-- Generated by graphviz version 2.43.0 (0)
 -->
<!-- Title: QuantConnect.Data.UniverseSelection.Universe.CanRemoveMember Pages: 1 -->
<svg width="395pt" height="39pt"
 viewBox="0.00 0.00 395.00 39.00" xmlns="http://www.w3.org/2000/svg" xmlns:xlink="http://www.w3.org/1999/xlink">
<g id="graph0" class="graph" transform="scale(1 1) rotate(0) translate(4 35)">
<title>QuantConnect.Data.UniverseSelection.Universe.CanRemoveMember</title>
<polygon fill="white" stroke="transparent" points="-4,4 -4,-35 391,-35 391,4 -4,4"/>
<!-- Node1 -->
<g id="node1" class="node">
<title>Node1</title>
<g id="a_node1"><a xlink:title="Determines whether or not the specified security can be removed from this universe....">
<polygon fill="#bfbfbf" stroke="black" points="0,-0.5 0,-30.5 211,-30.5 211,-0.5 0,-0.5"/>
<text text-anchor="start" x="8" y="-18.5" font-family="Helvetica,sans-Serif" font-size="10.00">QuantConnect.Data.Universe</text>
<text text-anchor="middle" x="105.5" y="-7.5" font-family="Helvetica,sans-Serif" font-size="10.00">Selection.Universe.CanRemoveMember</text>
</a>
</g>
</g>
<!-- Node2 -->
<g id="node2" class="node">
<title>Node2</title>
<g id="a_node2"><a xlink:href="classQuantConnect_1_1Securities_1_1SecurityCache.html#a2e22a721cbad979accb38e91dd640b8e" target="_top" xlink:title="Get last data packet received for this security if any else null">
<polygon fill="white" stroke="black" points="247,-0.5 247,-30.5 387,-30.5 387,-0.5 247,-0.5"/>
<text text-anchor="start" x="255" y="-18.5" font-family="Helvetica,sans-Serif" font-size="10.00">QuantConnect.Securities.</text>
<text text-anchor="middle" x="317" y="-7.5" font-family="Helvetica,sans-Serif" font-size="10.00">SecurityCache.GetData</text>
</a>
</g>
</g>
<!-- Node1&#45;&gt;Node2 -->
<g id="edge1" class="edge">
<title>Node1&#45;&gt;Node2</title>
<path fill="none" stroke="midnightblue" d="M211.25,-15.5C219.83,-15.5 228.41,-15.5 236.76,-15.5"/>
<polygon fill="midnightblue" stroke="midnightblue" points="236.82,-19 246.82,-15.5 236.82,-12 236.82,-19"/>
</g>
</g>
</svg>
