<?xml version="1.0" encoding="UTF-8" standalone="no"?>
<!DOCTYPE svg PUBLIC "-//W3C//DTD SVG 1.1//EN"
 "http://www.w3.org/Graphics/SVG/1.1/DTD/svg11.dtd">
<!-- Generated by graphviz version 2.43.0 (0)
 -->
<!-- Title: QuantConnect.Api.RestResponse Pages: 1 -->
<svg width="620pt" height="1182pt"
 viewBox="0.00 0.00 620.00 1181.50" xmlns="http://www.w3.org/2000/svg" xmlns:xlink="http://www.w3.org/1999/xlink">
<g id="graph0" class="graph" transform="scale(1 1) rotate(0) translate(4 1177.5)">
<title>QuantConnect.Api.RestResponse</title>
<polygon fill="white" stroke="transparent" points="-4,4 -4,-1177.5 616,-1177.5 616,4 -4,4"/>
<!-- Node1 -->
<g id="node1" class="node">
<title>Node1</title>
<g id="a_node1"><a xlink:title="Base API response class for the QuantConnect API.">
<polygon fill="#bfbfbf" stroke="black" points="0,-597 0,-616 176,-616 176,-597 0,-597"/>
<text text-anchor="middle" x="88" y="-604" font-family="Helvetica,sans-Serif" font-size="10.00">QuantConnect.Api.RestResponse</text>
</a>
</g>
</g>
<!-- Node2 -->
<g id="node2" class="node">
<title>Node2</title>
<g id="a_node2"><a xlink:href="classQuantConnect_1_1Api_1_1Account.html" target="_top" xlink:title="Account information for an organization">
<polygon fill="white" stroke="black" points="236,-1154 236,-1173 382,-1173 382,-1154 236,-1154"/>
<text text-anchor="middle" x="309" y="-1161" font-family="Helvetica,sans-Serif" font-size="10.00">QuantConnect.Api.Account</text>
</a>
</g>
</g>
<!-- Node1&#45;&gt;Node2 -->
<g id="edge1" class="edge">
<title>Node1&#45;&gt;Node2</title>
<path fill="none" stroke="midnightblue" d="M90.68,-626.18C98.6,-714.08 135.03,-1069.76 212,-1144.5 218.7,-1151.01 226.96,-1155.6 235.79,-1158.79"/>
<polygon fill="midnightblue" stroke="midnightblue" points="94.15,-625.66 89.79,-616.01 87.18,-626.28 94.15,-625.66"/>
</g>
<!-- Node3 -->
<g id="node3" class="node">
<title>Node3</title>
<g id="a_node3"><a xlink:href="classQuantConnect_1_1Api_1_1AuthenticationResponse.html" target="_top" xlink:title="Verify if the credentials are OK.">
<polygon fill="white" stroke="black" points="219.5,-1104.5 219.5,-1134.5 398.5,-1134.5 398.5,-1104.5 219.5,-1104.5"/>
<text text-anchor="start" x="227.5" y="-1122.5" font-family="Helvetica,sans-Serif" font-size="10.00">QuantConnect.Api.Authentication</text>
<text text-anchor="middle" x="309" y="-1111.5" font-family="Helvetica,sans-Serif" font-size="10.00">Response</text>
</a>
</g>
</g>
<!-- Node1&#45;&gt;Node3 -->
<g id="edge2" class="edge">
<title>Node1&#45;&gt;Node3</title>
<path fill="none" stroke="midnightblue" d="M91.31,-626.33C101.34,-709.07 143.68,-1025.64 212,-1094.5 215.76,-1098.29 220.02,-1101.53 224.6,-1104.29"/>
<polygon fill="midnightblue" stroke="midnightblue" points="94.77,-625.77 90.11,-616.26 87.82,-626.6 94.77,-625.77"/>
</g>
<!-- Node4 -->
<g id="node4" class="node">
<title>Node4</title>
<g id="a_node4"><a xlink:href="classQuantConnect_1_1Api_1_1Backtest.html" target="_top" xlink:title="Backtest response packet from the QuantConnect.com API.">
<polygon fill="white" stroke="black" points="234,-1066 234,-1085 384,-1085 384,-1066 234,-1066"/>
<text text-anchor="middle" x="309" y="-1073" font-family="Helvetica,sans-Serif" font-size="10.00">QuantConnect.Api.Backtest</text>
</a>
</g>
</g>
<!-- Node1&#45;&gt;Node4 -->
<g id="edge3" class="edge">
<title>Node1&#45;&gt;Node4</title>
<path fill="none" stroke="midnightblue" d="M91.65,-626.39C102.56,-705.39 146.6,-995.61 212,-1056.5 218.22,-1062.29 225.67,-1066.54 233.63,-1069.64"/>
<polygon fill="midnightblue" stroke="midnightblue" points="95.09,-625.76 90.28,-616.32 88.16,-626.7 95.09,-625.76"/>
</g>
<!-- Node5 -->
<g id="node5" class="node">
<title>Node5</title>
<g id="a_node5"><a xlink:href="classQuantConnect_1_1Api_1_1BacktestList.html" target="_top" xlink:title="Collection container for a list of backtests for a project">
<polygon fill="white" stroke="black" points="225.5,-1028 225.5,-1047 392.5,-1047 392.5,-1028 225.5,-1028"/>
<text text-anchor="middle" x="309" y="-1035" font-family="Helvetica,sans-Serif" font-size="10.00">QuantConnect.Api.BacktestList</text>
</a>
</g>
</g>
<!-- Node1&#45;&gt;Node5 -->
<g id="edge4" class="edge">
<title>Node1&#45;&gt;Node5</title>
<path fill="none" stroke="midnightblue" d="M88.32,-626.43C87.21,-693.14 93.22,-910.47 212,-1018.5 216.15,-1022.27 220.82,-1025.39 225.82,-1027.95"/>
<polygon fill="midnightblue" stroke="midnightblue" points="91.83,-626.18 88.57,-616.1 84.83,-626.01 91.83,-626.18"/>
</g>
<!-- Node6 -->
<g id="node6" class="node">
<title>Node6</title>
<g id="a_node6"><a xlink:href="classQuantConnect_1_1Api_1_1BacktestReport.html" target="_top" xlink:title="Backtest Report Response wrapper">
<polygon fill="white" stroke="black" points="234,-978.5 234,-1008.5 384,-1008.5 384,-978.5 234,-978.5"/>
<text text-anchor="start" x="242" y="-996.5" font-family="Helvetica,sans-Serif" font-size="10.00">QuantConnect.Api.Backtest</text>
<text text-anchor="middle" x="309" y="-985.5" font-family="Helvetica,sans-Serif" font-size="10.00">Report</text>
</a>
</g>
</g>
<!-- Node1&#45;&gt;Node6 -->
<g id="edge5" class="edge">
<title>Node1&#45;&gt;Node6</title>
<path fill="none" stroke="midnightblue" d="M89.45,-626.24C91.94,-687.14 108.11,-873.77 212,-969.5 218.32,-975.32 225.83,-979.78 233.83,-983.2"/>
<polygon fill="midnightblue" stroke="midnightblue" points="92.94,-625.97 89.12,-616.09 85.94,-626.2 92.94,-625.97"/>
</g>
<!-- Node7 -->
<g id="node7" class="node">
<title>Node7</title>
<g id="a_node7"><a xlink:href="classQuantConnect_1_1Api_1_1BacktestResponseWrapper.html" target="_top" xlink:title="Wrapper class for Backtest/* endpoints JSON response Currently used by Backtest/Read and Backtest/Cre...">
<polygon fill="white" stroke="black" points="234,-929.5 234,-959.5 384,-959.5 384,-929.5 234,-929.5"/>
<text text-anchor="start" x="242" y="-947.5" font-family="Helvetica,sans-Serif" font-size="10.00">QuantConnect.Api.Backtest</text>
<text text-anchor="middle" x="309" y="-936.5" font-family="Helvetica,sans-Serif" font-size="10.00">ResponseWrapper</text>
</a>
</g>
</g>
<!-- Node1&#45;&gt;Node7 -->
<g id="edge6" class="edge">
<title>Node1&#45;&gt;Node7</title>
<path fill="none" stroke="midnightblue" d="M90.71,-626.36C96.58,-681.66 120.86,-838.66 212,-919.5 218.31,-925.1 225.73,-929.47 233.59,-932.88"/>
<polygon fill="midnightblue" stroke="midnightblue" points="94.17,-625.78 89.72,-616.17 87.21,-626.46 94.17,-625.78"/>
</g>
<!-- Node8 -->
<g id="node8" class="node">
<title>Node8</title>
<g id="a_node8"><a xlink:href="classQuantConnect_1_1Api_1_1BaseOptimization.html" target="_top" xlink:title="BaseOptimization item from the QuantConnect.com API.">
<polygon fill="white" stroke="black" points="212,-891 212,-910 406,-910 406,-891 212,-891"/>
<text text-anchor="middle" x="309" y="-898" font-family="Helvetica,sans-Serif" font-size="10.00">QuantConnect.Api.BaseOptimization</text>
</a>
</g>
</g>
<!-- Node1&#45;&gt;Node8 -->
<g id="edge7" class="edge">
<title>Node1&#45;&gt;Node8</title>
<path fill="none" stroke="midnightblue" d="M91.61,-626.24C99.46,-677.3 127.77,-814.38 212,-881.5 216.78,-885.31 222.12,-888.43 227.76,-890.97"/>
<polygon fill="midnightblue" stroke="midnightblue" points="95.05,-625.6 90.16,-616.2 88.12,-626.6 95.05,-625.6"/>
</g>
<!-- Node10 -->
<g id="node10" class="node">
<title>Node10</title>
<g id="a_node10"><a xlink:href="classQuantConnect_1_1Api_1_1Compile.html" target="_top" xlink:title="Response from the compiler on a build event">
<polygon fill="white" stroke="black" points="235,-853 235,-872 383,-872 383,-853 235,-853"/>
<text text-anchor="middle" x="309" y="-860" font-family="Helvetica,sans-Serif" font-size="10.00">QuantConnect.Api.Compile</text>
</a>
</g>
</g>
<!-- Node1&#45;&gt;Node10 -->
<g id="edge9" class="edge">
<title>Node1&#45;&gt;Node10</title>
<path fill="none" stroke="midnightblue" d="M93.06,-625.97C103.71,-671.87 136.98,-787.21 212,-843.5 218.79,-848.6 226.6,-852.43 234.76,-855.3"/>
<polygon fill="midnightblue" stroke="midnightblue" points="96.46,-625.11 90.88,-616.1 89.62,-626.62 96.46,-625.11"/>
</g>
<!-- Node11 -->
<g id="node11" class="node">
<title>Node11</title>
<g id="a_node11"><a xlink:href="classQuantConnect_1_1Api_1_1CreatedNode.html" target="_top" xlink:title="Rest api response wrapper for node/create, reads in the nodes information into a node object">
<polygon fill="white" stroke="black" points="223.5,-815 223.5,-834 394.5,-834 394.5,-815 223.5,-815"/>
<text text-anchor="middle" x="309" y="-822" font-family="Helvetica,sans-Serif" font-size="10.00">QuantConnect.Api.CreatedNode</text>
</a>
</g>
</g>
<!-- Node1&#45;&gt;Node11 -->
<g id="edge10" class="edge">
<title>Node1&#45;&gt;Node11</title>
<path fill="none" stroke="midnightblue" d="M95.12,-626.11C108.88,-666.69 146.27,-759.92 212,-805.5 217.45,-809.28 223.46,-812.34 229.74,-814.83"/>
<polygon fill="midnightblue" stroke="midnightblue" points="98.37,-624.77 91.93,-616.35 91.71,-626.94 98.37,-624.77"/>
</g>
<!-- Node12 -->
<g id="node12" class="node">
<title>Node12</title>
<g id="a_node12"><a xlink:href="classQuantConnect_1_1Api_1_1DataLink.html" target="_top" xlink:title="Data/Read response wrapper, contains link to requested data">
<polygon fill="white" stroke="black" points="233.5,-777 233.5,-796 384.5,-796 384.5,-777 233.5,-777"/>
<text text-anchor="middle" x="309" y="-784" font-family="Helvetica,sans-Serif" font-size="10.00">QuantConnect.Api.DataLink</text>
</a>
</g>
</g>
<!-- Node1&#45;&gt;Node12 -->
<g id="edge11" class="edge">
<title>Node1&#45;&gt;Node12</title>
<path fill="none" stroke="midnightblue" d="M97.67,-625.38C114.48,-659.68 154.9,-731.95 212,-767.5 218.49,-771.54 225.67,-774.75 233.08,-777.29"/>
<polygon fill="midnightblue" stroke="midnightblue" points="100.68,-623.56 93.23,-616.04 94.36,-626.57 100.68,-623.56"/>
</g>
<!-- Node13 -->
<g id="node13" class="node">
<title>Node13</title>
<g id="a_node13"><a xlink:href="classQuantConnect_1_1Api_1_1DataList.html" target="_top" xlink:title="Data/List response wrapper for available data">
<polygon fill="white" stroke="black" points="235,-739 235,-758 383,-758 383,-739 235,-739"/>
<text text-anchor="middle" x="309" y="-746" font-family="Helvetica,sans-Serif" font-size="10.00">QuantConnect.Api.DataList</text>
</a>
</g>
</g>
<!-- Node1&#45;&gt;Node13 -->
<g id="edge12" class="edge">
<title>Node1&#45;&gt;Node13</title>
<path fill="none" stroke="midnightblue" d="M101.32,-624.33C121.21,-651.64 163.17,-703.43 212,-729.5 219.27,-733.38 227.23,-736.47 235.36,-738.94"/>
<polygon fill="midnightblue" stroke="midnightblue" points="104.09,-622.19 95.44,-616.07 98.39,-626.25 104.09,-622.19"/>
</g>
<!-- Node14 -->
<g id="node14" class="node">
<title>Node14</title>
<g id="a_node14"><a xlink:href="classQuantConnect_1_1Api_1_1DataPricesList.html" target="_top" xlink:title="Data/Prices response wrapper for prices by vendor">
<polygon fill="white" stroke="black" points="220.5,-701 220.5,-720 397.5,-720 397.5,-701 220.5,-701"/>
<text text-anchor="middle" x="309" y="-708" font-family="Helvetica,sans-Serif" font-size="10.00">QuantConnect.Api.DataPricesList</text>
</a>
</g>
</g>
<!-- Node1&#45;&gt;Node14 -->
<g id="edge13" class="edge">
<title>Node1&#45;&gt;Node14</title>
<path fill="none" stroke="midnightblue" d="M107.46,-622.93C130.33,-642.38 171.3,-674.29 212,-691.5 221.23,-695.4 231.31,-698.52 241.35,-701"/>
<polygon fill="midnightblue" stroke="midnightblue" points="109.46,-620.04 99.61,-616.14 104.88,-625.33 109.46,-620.04"/>
</g>
<!-- Node15 -->
<g id="node15" class="node">
<title>Node15</title>
<g id="a_node15"><a xlink:href="classQuantConnect_1_1Api_1_1DividendList.html" target="_top" xlink:title="Collection container for a list of dividend objects">
<polygon fill="white" stroke="black" points="225,-663 225,-682 393,-682 393,-663 225,-663"/>
<text text-anchor="middle" x="309" y="-670" font-family="Helvetica,sans-Serif" font-size="10.00">QuantConnect.Api.DividendList</text>
</a>
</g>
</g>
<!-- Node1&#45;&gt;Node15 -->
<g id="edge14" class="edge">
<title>Node1&#45;&gt;Node15</title>
<path fill="none" stroke="midnightblue" d="M120.34,-620.17C144.91,-630.47 180.14,-644.33 212,-653.5 224.65,-657.14 238.44,-660.32 251.52,-662.98"/>
<polygon fill="midnightblue" stroke="midnightblue" points="121.41,-616.82 110.84,-616.14 118.68,-623.27 121.41,-616.82"/>
</g>
<!-- Node16 -->
<g id="node16" class="node">
<title>Node16</title>
<g id="a_node16"><a xlink:href="classQuantConnect_1_1Api_1_1EstimateResponseWrapper.html" target="_top" xlink:title="Wrapper class for Optimizations/* endpoints JSON response Currently used by Optimizations/Estimate">
<polygon fill="white" stroke="black" points="233.5,-613.5 233.5,-643.5 384.5,-643.5 384.5,-613.5 233.5,-613.5"/>
<text text-anchor="start" x="241.5" y="-631.5" font-family="Helvetica,sans-Serif" font-size="10.00">QuantConnect.Api.Estimate</text>
<text text-anchor="middle" x="309" y="-620.5" font-family="Helvetica,sans-Serif" font-size="10.00">ResponseWrapper</text>
</a>
</g>
</g>
<!-- Node1&#45;&gt;Node16 -->
<g id="edge15" class="edge">
<title>Node1&#45;&gt;Node16</title>
<path fill="none" stroke="midnightblue" d="M186.48,-616.29C202.25,-617.88 218.36,-619.49 233.47,-621.01"/>
<polygon fill="midnightblue" stroke="midnightblue" points="186.48,-612.78 176.18,-615.26 185.78,-619.74 186.48,-612.78"/>
</g>
<!-- Node17 -->
<g id="node17" class="node">
<title>Node17</title>
<g id="a_node17"><a xlink:href="classQuantConnect_1_1Api_1_1LiveAlgorithm.html" target="_top" xlink:title="Live algorithm instance result from the QuantConnect Rest API.">
<polygon fill="white" stroke="black" points="221,-575 221,-594 397,-594 397,-575 221,-575"/>
<text text-anchor="middle" x="309" y="-582" font-family="Helvetica,sans-Serif" font-size="10.00">QuantConnect.Api.LiveAlgorithm</text>
</a>
</g>
</g>
<!-- Node1&#45;&gt;Node17 -->
<g id="edge16" class="edge">
<title>Node1&#45;&gt;Node17</title>
<path fill="none" stroke="midnightblue" d="M186.23,-596.73C197.73,-595.58 209.41,-594.4 220.76,-593.26"/>
<polygon fill="midnightblue" stroke="midnightblue" points="185.78,-593.26 176.18,-597.74 186.48,-600.22 185.78,-593.26"/>
</g>
<!-- Node18 -->
<g id="node18" class="node">
<title>Node18</title>
<g id="a_node18"><a xlink:href="classQuantConnect_1_1Api_1_1LiveAlgorithmResults.html" target="_top" xlink:title="Details a live algorithm from the &quot;live/read&quot; Api endpoint">
<polygon fill="white" stroke="black" points="221,-525.5 221,-555.5 397,-555.5 397,-525.5 221,-525.5"/>
<text text-anchor="start" x="229" y="-543.5" font-family="Helvetica,sans-Serif" font-size="10.00">QuantConnect.Api.LiveAlgorithm</text>
<text text-anchor="middle" x="309" y="-532.5" font-family="Helvetica,sans-Serif" font-size="10.00">Results</text>
</a>
</g>
</g>
<!-- Node1&#45;&gt;Node18 -->
<g id="edge17" class="edge">
<title>Node1&#45;&gt;Node18</title>
<path fill="none" stroke="midnightblue" d="M125.74,-593.54C150.08,-585.12 182.79,-574.16 212,-565.5 223.48,-562.1 235.8,-558.7 247.66,-555.55"/>
<polygon fill="midnightblue" stroke="midnightblue" points="124.49,-590.27 116.19,-596.85 126.79,-596.88 124.49,-590.27"/>
</g>
<!-- Node19 -->
<g id="node19" class="node">
<title>Node19</title>
<g id="a_node19"><a xlink:href="classQuantConnect_1_1Api_1_1LiveList.html" target="_top" xlink:title="List of the live algorithms running which match the requested status">
<polygon fill="white" stroke="black" points="236.5,-487 236.5,-506 381.5,-506 381.5,-487 236.5,-487"/>
<text text-anchor="middle" x="309" y="-494" font-family="Helvetica,sans-Serif" font-size="10.00">QuantConnect.Api.LiveList</text>
</a>
</g>
</g>
<!-- Node1&#45;&gt;Node19 -->
<g id="edge18" class="edge">
<title>Node1&#45;&gt;Node19</title>
<path fill="none" stroke="midnightblue" d="M106.3,-590.04C128.81,-569.58 170.23,-535.08 212,-516.5 221.8,-512.14 232.59,-508.72 243.29,-506.03"/>
<polygon fill="midnightblue" stroke="midnightblue" points="103.86,-587.53 98.9,-596.89 108.61,-592.67 103.86,-587.53"/>
</g>
<!-- Node20 -->
<g id="node20" class="node">
<title>Node20</title>
<g id="a_node20"><a xlink:href="classQuantConnect_1_1Api_1_1LiveLog.html" target="_top" xlink:title="Logs from a live algorithm">
<polygon fill="white" stroke="black" points="236.5,-449 236.5,-468 381.5,-468 381.5,-449 236.5,-449"/>
<text text-anchor="middle" x="309" y="-456" font-family="Helvetica,sans-Serif" font-size="10.00">QuantConnect.Api.LiveLog</text>
</a>
</g>
</g>
<!-- Node1&#45;&gt;Node20 -->
<g id="edge19" class="edge">
<title>Node1&#45;&gt;Node20</title>
<path fill="none" stroke="midnightblue" d="M100.82,-588.22C120.3,-559.67 162.05,-504.94 212,-477.5 219.52,-473.37 227.81,-470.13 236.27,-467.59"/>
<polygon fill="midnightblue" stroke="midnightblue" points="97.72,-586.56 95.08,-596.82 103.54,-590.44 97.72,-586.56"/>
</g>
<!-- Node21 -->
<g id="node21" class="node">
<title>Node21</title>
<g id="a_node21"><a xlink:href="classQuantConnect_1_1Api_1_1NodeList.html" target="_top" xlink:title="Rest api response wrapper for node/read, contains sets of node lists for each target environment....">
<polygon fill="white" stroke="black" points="234,-411 234,-430 384,-430 384,-411 234,-411"/>
<text text-anchor="middle" x="309" y="-418" font-family="Helvetica,sans-Serif" font-size="10.00">QuantConnect.Api.NodeList</text>
</a>
</g>
</g>
<!-- Node1&#45;&gt;Node21 -->
<g id="edge20" class="edge">
<title>Node1&#45;&gt;Node21</title>
<path fill="none" stroke="midnightblue" d="M97.26,-587.38C113.61,-552 153.62,-476.56 212,-439.5 218.74,-435.22 226.24,-431.87 234,-429.26"/>
<polygon fill="midnightblue" stroke="midnightblue" points="94.02,-586.05 93.12,-596.61 100.41,-588.92 94.02,-586.05"/>
</g>
<!-- Node22 -->
<g id="node22" class="node">
<title>Node22</title>
<g id="a_node22"><a xlink:href="classQuantConnect_1_1Api_1_1OptimizationList.html" target="_top" xlink:title="Collection container for a list of summarized optimizations for a project">
<polygon fill="white" stroke="black" points="215,-373 215,-392 403,-392 403,-373 215,-373"/>
<text text-anchor="middle" x="309" y="-380" font-family="Helvetica,sans-Serif" font-size="10.00">QuantConnect.Api.OptimizationList</text>
</a>
</g>
</g>
<!-- Node1&#45;&gt;Node22 -->
<g id="edge21" class="edge">
<title>Node1&#45;&gt;Node22</title>
<path fill="none" stroke="midnightblue" d="M94.67,-587.16C107.86,-545.83 144.68,-448.84 212,-401.5 217.42,-397.69 223.42,-394.6 229.69,-392.1"/>
<polygon fill="midnightblue" stroke="midnightblue" points="91.29,-586.24 91.7,-596.83 97.98,-588.3 91.29,-586.24"/>
</g>
<!-- Node23 -->
<g id="node23" class="node">
<title>Node23</title>
<g id="a_node23"><a xlink:href="classQuantConnect_1_1Api_1_1OptimizationResponseWrapper.html" target="_top" xlink:title="Wrapper class for Optimizations/Read endpoint JSON response">
<polygon fill="white" stroke="black" points="224,-323.5 224,-353.5 394,-353.5 394,-323.5 224,-323.5"/>
<text text-anchor="start" x="232" y="-341.5" font-family="Helvetica,sans-Serif" font-size="10.00">QuantConnect.Api.Optimization</text>
<text text-anchor="middle" x="309" y="-330.5" font-family="Helvetica,sans-Serif" font-size="10.00">ResponseWrapper</text>
</a>
</g>
</g>
<!-- Node1&#45;&gt;Node23 -->
<g id="edge22" class="edge">
<title>Node1&#45;&gt;Node23</title>
<path fill="none" stroke="midnightblue" d="M93.13,-586.85C103.94,-540.45 137.52,-423.54 212,-363.5 216.83,-359.61 222.19,-356.32 227.86,-353.53"/>
<polygon fill="midnightblue" stroke="midnightblue" points="89.67,-586.29 90.91,-596.81 96.5,-587.81 89.67,-586.29"/>
</g>
<!-- Node24 -->
<g id="node24" class="node">
<title>Node24</title>
<g id="a_node24"><a xlink:href="classQuantConnect_1_1Api_1_1OrganizationResponse.html" target="_top" xlink:title="Response wrapper for Organizations/Read">
<polygon fill="white" stroke="black" points="224,-274.5 224,-304.5 394,-304.5 394,-274.5 224,-274.5"/>
<text text-anchor="start" x="232" y="-292.5" font-family="Helvetica,sans-Serif" font-size="10.00">QuantConnect.Api.Organization</text>
<text text-anchor="middle" x="309" y="-281.5" font-family="Helvetica,sans-Serif" font-size="10.00">Response</text>
</a>
</g>
</g>
<!-- Node1&#45;&gt;Node24 -->
<g id="edge23" class="edge">
<title>Node1&#45;&gt;Node24</title>
<path fill="none" stroke="midnightblue" d="M91.3,-586.91C98.54,-534.35 125.78,-389.12 212,-314.5 216.43,-310.67 221.37,-307.41 226.62,-304.65"/>
<polygon fill="midnightblue" stroke="midnightblue" points="87.82,-586.56 90.01,-596.92 94.76,-587.45 87.82,-586.56"/>
</g>
<!-- Node25 -->
<g id="node25" class="node">
<title>Node25</title>
<g id="a_node25"><a xlink:href="classQuantConnect_1_1Api_1_1OrganizationResponseList.html" target="_top" xlink:title="Response wrapper for Organizations/List TODO: The response objects in the array do not contain all Or...">
<polygon fill="white" stroke="black" points="224,-225.5 224,-255.5 394,-255.5 394,-225.5 224,-225.5"/>
<text text-anchor="start" x="232" y="-243.5" font-family="Helvetica,sans-Serif" font-size="10.00">QuantConnect.Api.Organization</text>
<text text-anchor="middle" x="309" y="-232.5" font-family="Helvetica,sans-Serif" font-size="10.00">ResponseList</text>
</a>
</g>
</g>
<!-- Node1&#45;&gt;Node25 -->
<g id="edge24" class="edge">
<title>Node1&#45;&gt;Node25</title>
<path fill="none" stroke="midnightblue" d="M89.98,-586.84C93.97,-528.52 113.94,-354.98 212,-265.5 216.2,-261.67 220.91,-258.41 225.93,-255.64"/>
<polygon fill="midnightblue" stroke="midnightblue" points="86.48,-586.72 89.37,-596.91 93.46,-587.14 86.48,-586.72"/>
</g>
<!-- Node26 -->
<g id="node26" class="node">
<title>Node26</title>
<g id="a_node26"><a xlink:href="classQuantConnect_1_1Api_1_1Project.html" target="_top" xlink:title="Response from reading a project by id.">
<polygon fill="white" stroke="black" points="238.5,-187 238.5,-206 379.5,-206 379.5,-187 238.5,-187"/>
<text text-anchor="middle" x="309" y="-194" font-family="Helvetica,sans-Serif" font-size="10.00">QuantConnect.Api.Project</text>
</a>
</g>
</g>
<!-- Node1&#45;&gt;Node26 -->
<g id="edge25" class="edge">
<title>Node1&#45;&gt;Node26</title>
<path fill="none" stroke="midnightblue" d="M88.75,-586.41C89.11,-521.9 99.49,-318.28 212,-216.5 219.45,-209.76 228.56,-205.07 238.18,-201.83"/>
<polygon fill="midnightblue" stroke="midnightblue" points="85.25,-586.79 88.78,-596.78 92.25,-586.77 85.25,-586.79"/>
</g>
<!-- Node27 -->
<g id="node27" class="node">
<title>Node27</title>
<g id="a_node27"><a xlink:href="classQuantConnect_1_1Api_1_1ProjectFilesResponse.html" target="_top" xlink:title="Response received when reading all files of a project">
<polygon fill="white" stroke="black" points="238.5,-137.5 238.5,-167.5 379.5,-167.5 379.5,-137.5 238.5,-137.5"/>
<text text-anchor="start" x="246.5" y="-155.5" font-family="Helvetica,sans-Serif" font-size="10.00">QuantConnect.Api.Project</text>
<text text-anchor="middle" x="309" y="-144.5" font-family="Helvetica,sans-Serif" font-size="10.00">FilesResponse</text>
</a>
</g>
</g>
<!-- Node1&#45;&gt;Node27 -->
<g id="edge26" class="edge">
<title>Node1&#45;&gt;Node27</title>
<path fill="none" stroke="midnightblue" d="M88.3,-586.92C87,-519.45 92.22,-294.38 212,-177.5 219.4,-170.28 228.6,-165.08 238.35,-161.33"/>
<polygon fill="midnightblue" stroke="midnightblue" points="84.8,-587.09 88.57,-596.99 91.8,-586.9 84.8,-587.09"/>
</g>
<!-- Node28 -->
<g id="node28" class="node">
<title>Node28</title>
<g id="a_node28"><a xlink:href="classQuantConnect_1_1Api_1_1ProjectResponse.html" target="_top" xlink:title="Project list response">
<polygon fill="white" stroke="black" points="238.5,-88.5 238.5,-118.5 379.5,-118.5 379.5,-88.5 238.5,-88.5"/>
<text text-anchor="start" x="246.5" y="-106.5" font-family="Helvetica,sans-Serif" font-size="10.00">QuantConnect.Api.Project</text>
<text text-anchor="middle" x="309" y="-95.5" font-family="Helvetica,sans-Serif" font-size="10.00">Response</text>
</a>
</g>
</g>
<!-- Node1&#45;&gt;Node28 -->
<g id="edge27" class="edge">
<title>Node1&#45;&gt;Node28</title>
<path fill="none" stroke="midnightblue" d="M91.43,-586.57C101.82,-504.74 144.96,-195.73 212,-128.5 219.3,-121.18 228.45,-115.92 238.18,-112.16"/>
<polygon fill="midnightblue" stroke="midnightblue" points="87.91,-586.58 90.14,-596.94 94.85,-587.45 87.91,-586.58"/>
</g>
<!-- Node29 -->
<g id="node29" class="node">
<title>Node29</title>
<g id="a_node29"><a xlink:href="classQuantConnect_1_1Api_1_1SplitList.html" target="_top" xlink:title="Collection container for a list of split objects">
<polygon fill="white" stroke="black" points="236,-50 236,-69 382,-69 382,-50 236,-50"/>
<text text-anchor="middle" x="309" y="-57" font-family="Helvetica,sans-Serif" font-size="10.00">QuantConnect.Api.SplitList</text>
</a>
</g>
</g>
<!-- Node1&#45;&gt;Node29 -->
<g id="edge28" class="edge">
<title>Node1&#45;&gt;Node29</title>
<path fill="none" stroke="midnightblue" d="M90.82,-586.68C99.19,-499.71 136.89,-152.84 212,-79.5 218.7,-72.96 226.95,-68.3 235.78,-65.03"/>
<polygon fill="midnightblue" stroke="midnightblue" points="87.32,-586.49 89.86,-596.78 94.29,-587.15 87.32,-586.49"/>
</g>
<!-- Node30 -->
<g id="node30" class="node">
<title>Node30</title>
<g id="a_node30"><a xlink:href="classQuantConnect_1_1Orders_1_1OrdersResponseWrapper.html" target="_top" xlink:title="Collection container for a list of orders for a project">
<polygon fill="white" stroke="black" points="231,-0.5 231,-30.5 387,-30.5 387,-0.5 231,-0.5"/>
<text text-anchor="start" x="239" y="-18.5" font-family="Helvetica,sans-Serif" font-size="10.00">QuantConnect.Orders.Orders</text>
<text text-anchor="middle" x="309" y="-7.5" font-family="Helvetica,sans-Serif" font-size="10.00">ResponseWrapper</text>
</a>
</g>
</g>
<!-- Node1&#45;&gt;Node30 -->
<g id="edge29" class="edge">
<title>Node1&#45;&gt;Node30</title>
<path fill="none" stroke="midnightblue" d="M90.56,-586.78C98.12,-496.33 133.78,-121.98 212,-40.5 217.37,-34.91 223.81,-30.51 230.79,-27.06"/>
<polygon fill="midnightblue" stroke="midnightblue" points="87.05,-586.74 89.73,-596.99 94.03,-587.31 87.05,-586.74"/>
</g>
<!-- Node9 -->
<g id="node9" class="node">
<title>Node9</title>
<g id="a_node9"><a xlink:href="classQuantConnect_1_1Api_1_1Optimization.html" target="_top" xlink:title="Optimization response packet from the QuantConnect.com API.">
<polygon fill="white" stroke="black" points="442,-891 442,-910 612,-910 612,-891 442,-891"/>
<text text-anchor="middle" x="527" y="-898" font-family="Helvetica,sans-Serif" font-size="10.00">QuantConnect.Api.Optimization</text>
</a>
</g>
</g>
<!-- Node8&#45;&gt;Node9 -->
<g id="edge8" class="edge">
<title>Node8&#45;&gt;Node9</title>
<path fill="none" stroke="midnightblue" d="M416.59,-900.5C425.03,-900.5 433.48,-900.5 441.74,-900.5"/>
<polygon fill="midnightblue" stroke="midnightblue" points="416.31,-897 406.31,-900.5 416.31,-904 416.31,-897"/>
</g>
</g>
</svg>
