<?xml version="1.0" encoding="UTF-8" standalone="no"?>
<!DOCTYPE svg PUBLIC "-//W3C//DTD SVG 1.1//EN"
 "http://www.w3.org/Graphics/SVG/1.1/DTD/svg11.dtd">
<!-- Generated by graphviz version 2.43.0 (0)
 -->
<!-- Title: QuantConnect.Data.HistoryRequestFactory.GetStartTimeAlgoTz Pages: 1 -->
<svg width="440pt" height="88pt"
 viewBox="0.00 0.00 440.00 88.00" xmlns="http://www.w3.org/2000/svg" xmlns:xlink="http://www.w3.org/1999/xlink">
<g id="graph0" class="graph" transform="scale(1 1) rotate(0) translate(4 84)">
<title>QuantConnect.Data.HistoryRequestFactory.GetStartTimeAlgoTz</title>
<polygon fill="white" stroke="transparent" points="-4,4 -4,-84 436,-84 436,4 -4,4"/>
<!-- Node1 -->
<g id="node1" class="node">
<title>Node1</title>
<g id="a_node1"><a xlink:title="Gets the start time required for the specified bar count in terms of the algorithm&#39;s time zone">
<polygon fill="#bfbfbf" stroke="black" points="241,-24.5 241,-54.5 432,-54.5 432,-24.5 241,-24.5"/>
<text text-anchor="start" x="249" y="-42.5" font-family="Helvetica,sans-Serif" font-size="10.00">QuantConnect.Data.History</text>
<text text-anchor="middle" x="336.5" y="-31.5" font-family="Helvetica,sans-Serif" font-size="10.00">RequestFactory.GetStartTimeAlgoTz</text>
</a>
</g>
</g>
<!-- Node2 -->
<g id="node2" class="node">
<title>Node2</title>
<g id="a_node2"><a xlink:href="classQuantConnect_1_1Algorithm_1_1QCAlgorithm.html#ad399b4f00d9c9d49d5f423616db06c3b" target="_top" xlink:title="Gets the historical data for the specified symbol. The exact number of bars will be returned....">
<polygon fill="white" stroke="black" points="0,-49.5 0,-79.5 205,-79.5 205,-49.5 0,-49.5"/>
<text text-anchor="start" x="8" y="-67.5" font-family="Helvetica,sans-Serif" font-size="10.00">QuantConnect.Algorithm.QCAlgorithm.</text>
<text text-anchor="middle" x="102.5" y="-56.5" font-family="Helvetica,sans-Serif" font-size="10.00">History</text>
</a>
</g>
</g>
<!-- Node1&#45;&gt;Node2 -->
<g id="edge1" class="edge">
<title>Node1&#45;&gt;Node2</title>
<path fill="none" stroke="midnightblue" d="M230.8,-50.78C222.25,-51.7 213.6,-52.64 205.07,-53.56"/>
<polygon fill="midnightblue" stroke="midnightblue" points="231.23,-54.26 240.8,-49.7 230.48,-47.3 231.23,-54.26"/>
</g>
<!-- Node3 -->
<g id="node3" class="node">
<title>Node3</title>
<g id="a_node3"><a xlink:href="classQuantConnect_1_1Algorithm_1_1QCAlgorithm.html#a4cb52293763a21a3638d93d26e307bae" target="_top" xlink:title="Gets the historical data for the specified symbols. The exact number of bars will be returned for eac...">
<polygon fill="white" stroke="black" points="0,-0.5 0,-30.5 205,-30.5 205,-0.5 0,-0.5"/>
<text text-anchor="start" x="8" y="-18.5" font-family="Helvetica,sans-Serif" font-size="10.00">QuantConnect.Algorithm.QCAlgorithm.</text>
<text text-anchor="middle" x="102.5" y="-7.5" font-family="Helvetica,sans-Serif" font-size="10.00">History&lt; T &gt;</text>
</a>
</g>
</g>
<!-- Node1&#45;&gt;Node3 -->
<g id="edge2" class="edge">
<title>Node1&#45;&gt;Node3</title>
<path fill="none" stroke="midnightblue" d="M230.8,-28.67C222.25,-27.78 213.6,-26.89 205.07,-26.01"/>
<polygon fill="midnightblue" stroke="midnightblue" points="230.5,-32.16 240.8,-29.7 231.22,-25.19 230.5,-32.16"/>
</g>
</g>
</svg>
