<?xml version="1.0" encoding="UTF-8" standalone="no"?>
<!DOCTYPE svg PUBLIC "-//W3C//DTD SVG 1.1//EN"
 "http://www.w3.org/Graphics/SVG/1.1/DTD/svg11.dtd">
<!-- Generated by graphviz version 2.43.0 (0)
 -->
<!-- Title: QuantConnect.Securities.SecurityManager.Add Pages: 1 -->
<svg width="348pt" height="100pt"
 viewBox="0.00 0.00 348.00 99.50" xmlns="http://www.w3.org/2000/svg" xmlns:xlink="http://www.w3.org/1999/xlink">
<g id="graph0" class="graph" transform="scale(1 1) rotate(0) translate(4 95.5)">
<title>QuantConnect.Securities.SecurityManager.Add</title>
<polygon fill="white" stroke="transparent" points="-4,4 -4,-95.5 344,-95.5 344,4 -4,4"/>
<!-- Node1 -->
<g id="node1" class="node">
<title>Node1</title>
<g id="a_node1"><a xlink:title="Add a new security with this symbol to the collection.">
<polygon fill="#bfbfbf" stroke="black" points="0,-27.5 0,-57.5 140,-57.5 140,-27.5 0,-27.5"/>
<text text-anchor="start" x="8" y="-45.5" font-family="Helvetica,sans-Serif" font-size="10.00">QuantConnect.Securities.</text>
<text text-anchor="middle" x="70" y="-34.5" font-family="Helvetica,sans-Serif" font-size="10.00">SecurityManager.Add</text>
</a>
</g>
</g>
<!-- Node2 -->
<g id="node2" class="node">
<title>Node2</title>
<g id="a_node2"><a xlink:href="classQuantConnect_1_1Securities_1_1SecurityManager.html#a0e4af6deb8b954b63bde12056f77e126" target="_top" xlink:title="Event invocator for the CollectionChanged event">
<polygon fill="white" stroke="black" points="176,-50 176,-91 340,-91 340,-50 176,-50"/>
<text text-anchor="start" x="184" y="-79" font-family="Helvetica,sans-Serif" font-size="10.00">QuantConnect.Securities.</text>
<text text-anchor="start" x="184" y="-68" font-family="Helvetica,sans-Serif" font-size="10.00">SecurityManager.OnCollection</text>
<text text-anchor="middle" x="258" y="-57" font-family="Helvetica,sans-Serif" font-size="10.00">Changed</text>
</a>
</g>
</g>
<!-- Node1&#45;&gt;Node2 -->
<g id="edge1" class="edge">
<title>Node1&#45;&gt;Node2</title>
<path fill="none" stroke="midnightblue" d="M140.26,-52.93C148.57,-54.18 157.16,-55.47 165.73,-56.76"/>
<polygon fill="midnightblue" stroke="midnightblue" points="165.35,-60.24 175.76,-58.27 166.39,-53.32 165.35,-60.24"/>
</g>
<!-- Node3 -->
<g id="node3" class="node">
<title>Node3</title>
<g id="a_node3"><a xlink:href="classQuantConnect_1_1Securities_1_1Security.html#a19452e0c096c670c9fecceb71d05f3e5" target="_top" xlink:title="Sets the LocalTimeKeeper to be used for this Security. This is the source of this instance&#39;s time.">
<polygon fill="white" stroke="black" points="179,-0.5 179,-30.5 337,-30.5 337,-0.5 179,-0.5"/>
<text text-anchor="start" x="187" y="-18.5" font-family="Helvetica,sans-Serif" font-size="10.00">QuantConnect.Securities.</text>
<text text-anchor="middle" x="258" y="-7.5" font-family="Helvetica,sans-Serif" font-size="10.00">Security.SetLocalTimeKeeper</text>
</a>
</g>
</g>
<!-- Node1&#45;&gt;Node3 -->
<g id="edge2" class="edge">
<title>Node1&#45;&gt;Node3</title>
<path fill="none" stroke="midnightblue" d="M140.26,-32.45C149.61,-31.09 159.31,-29.68 168.93,-28.28"/>
<polygon fill="midnightblue" stroke="midnightblue" points="169.53,-31.73 178.92,-26.83 168.52,-24.81 169.53,-31.73"/>
</g>
</g>
</svg>
