<?xml version="1.0" encoding="UTF-8" standalone="no"?>
<!DOCTYPE svg PUBLIC "-//W3C//DTD SVG 1.1//EN"
 "http://www.w3.org/Graphics/SVG/1.1/DTD/svg11.dtd">
<!-- Generated by graphviz version 2.43.0 (0)
 -->
<!-- Title: QuantConnect.Algorithm.QCAlgorithm.SetBenchmark Pages: 1 -->
<!--zoomable 462 -->
<svg id="main" version="1.1" xmlns="http://www.w3.org/2000/svg" xmlns:xlink="http://www.w3.org/1999/xlink" xml:space="preserve" onload="init(evt)">
<style type="text/css"><![CDATA[
.edge:hover path { stroke: red; }
.edge:hover polygon { stroke: red; fill: red; }
]]></style>
<script type="text/javascript"><![CDATA[
var edges = document.getElementsByTagName('g');
if (edges && edges.length) {
  for (var i=0;i<edges.length;i++) {
    if (edges[i].id.substr(0,4)=='edge') {
      edges[i].setAttribute('class','edge');
    }
  }
}
]]></script>
        <defs>
                <circle id="rim" cx="0" cy="0" r="7"/>
                <circle id="rim2" cx="0" cy="0" r="3.5"/>
                <g id="zoomPlus">
                        <use xlink:href="#rim" fill="#404040">
                                <set attributeName="fill" to="#808080" begin="zoomplus.mouseover" end="zoomplus.mouseout"/>
                        </use>
                        <path d="M-4,0h8M0,-4v8" fill="none" stroke="white" stroke-width="1.5" pointer-events="none"/>
                </g>
                <g id="zoomMin">
                        <use xlink:href="#rim" fill="#404040">
                                <set attributeName="fill" to="#808080" begin="zoomminus.mouseover" end="zoomminus.mouseout"/>
                        </use>
                        <path d="M-4,0h8" fill="none" stroke="white" stroke-width="1.5" pointer-events="none"/>
                </g>
                <g id="dirArrow">
                        <path fill="none" stroke="white" stroke-width="1.5" d="M0,-3.0v7 M-2.5,-0.5L0,-3.0L2.5,-0.5"/>
                </g>
               <g id="resetDef">
                       <use xlink:href="#rim2" fill="#404040">
                               <set attributeName="fill" to="#808080" begin="reset.mouseover" end="reset.mouseout"/>
                       </use>
               </g>
        </defs>

<script type="text/javascript">
var viewWidth = 1818;
var viewHeight = 462;
var sectionId = 'dynsection-19';
</script>
<script xlink:href="svgpan.js"/>
<svg id="graph" class="graph">
<g id="viewport">
<title>QuantConnect.Algorithm.QCAlgorithm.SetBenchmark</title>
<polygon fill="white" stroke="transparent" points="-4,4 -4,-457.59 1814,-457.59 1814,4 -4,4"/>
<!-- Node1 -->
<g id="node1" class="node">
<title>Node1</title>
<g id="a_node1"><a xlink:title="Sets the benchmark used for computing statistics of the algorithm to the specified ticker,...">
<polygon fill="#bfbfbf" stroke="black" points="0,-198.5 0,-228.5 205,-228.5 205,-198.5 0,-198.5"/>
<text text-anchor="start" x="8" y="-216.5" font-family="Helvetica,sans-Serif" font-size="10.00">QuantConnect.Algorithm.QCAlgorithm.</text>
<text text-anchor="middle" x="102.5" y="-205.5" font-family="Helvetica,sans-Serif" font-size="10.00">SetBenchmark</text>
</a>
</g>
</g>
<!-- Node2 -->
<g id="node2" class="node">
<title>Node2</title>
<g id="a_node2"><a xlink:href="classQuantConnect_1_1Symbol.html#a350b9a625cf7bad95da82894be3cd0a8" target="_top" xlink:title="Provides a convenience method for creating a Symbol for most security types. This method currently do...">
<polygon fill="white" stroke="black" points="482,-226 482,-245 643,-245 643,-226 482,-226"/>
<text text-anchor="middle" x="562.5" y="-233" font-family="Helvetica,sans-Serif" font-size="10.00">QuantConnect.Symbol.Create</text>
</a>
</g>
</g>
<!-- Node1&#45;&gt;Node2 -->
<g id="edge1" class="edge">
<title>Node1&#45;&gt;Node2</title>
<path fill="none" stroke="midnightblue" d="M135.71,-228.53C163.05,-240.42 203.67,-256.05 241,-262.5 330.78,-278.02 355.49,-272.94 446,-262.5 470.72,-259.65 497.85,-253.47 519.59,-247.74"/>
<polygon fill="midnightblue" stroke="midnightblue" points="520.75,-251.06 529.49,-245.07 518.92,-244.3 520.75,-251.06"/>
</g>
<!-- Node18 -->
<g id="node18" class="node">
<title>Node18</title>
<g id="a_node18"><a xlink:href="classQuantConnect_1_1Algorithm_1_1QCAlgorithm.html#a16bd52d937ab647c889e8d5f6577f744" target="_top" xlink:title="Send a debug message to the web console:">
<polygon fill="white" stroke="black" points="241,-223.5 241,-253.5 446,-253.5 446,-223.5 241,-223.5"/>
<text text-anchor="start" x="249" y="-241.5" font-family="Helvetica,sans-Serif" font-size="10.00">QuantConnect.Algorithm.QCAlgorithm.</text>
<text text-anchor="middle" x="343.5" y="-230.5" font-family="Helvetica,sans-Serif" font-size="10.00">Debug</text>
</a>
</g>
</g>
<!-- Node1&#45;&gt;Node18 -->
<g id="edge19" class="edge">
<title>Node1&#45;&gt;Node18</title>
<path fill="none" stroke="midnightblue" d="M205.2,-224.14C213.7,-225.03 222.31,-225.93 230.87,-226.82"/>
<polygon fill="midnightblue" stroke="midnightblue" points="230.58,-230.31 240.89,-227.87 231.31,-223.35 230.58,-230.31"/>
</g>
<!-- Node19 -->
<g id="node19" class="node">
<title>Node19</title>
<g id="a_node19"><a xlink:href="classQuantConnect_1_1Algorithm_1_1QCAlgorithm.html#a25bdfa22d01e042f92b3e421675dba39" target="_top" xlink:title="Sets the benchmark used for computing statistics of the algorithm to the specified symbol">
<polygon fill="white" stroke="black" points="241,-174.5 241,-204.5 446,-204.5 446,-174.5 241,-174.5"/>
<text text-anchor="start" x="249" y="-192.5" font-family="Helvetica,sans-Serif" font-size="10.00">QuantConnect.Algorithm.QCAlgorithm.</text>
<text text-anchor="middle" x="343.5" y="-181.5" font-family="Helvetica,sans-Serif" font-size="10.00">SetBenchmark</text>
</a>
</g>
</g>
<!-- Node1&#45;&gt;Node19 -->
<g id="edge20" class="edge">
<title>Node1&#45;&gt;Node19</title>
<path fill="none" stroke="midnightblue" d="M205.2,-203.29C213.7,-202.43 222.31,-201.57 230.87,-200.71"/>
<polygon fill="midnightblue" stroke="midnightblue" points="231.29,-204.19 240.89,-199.7 230.59,-197.22 231.29,-204.19"/>
</g>
<!-- Node20 -->
<g id="node20" class="node">
<title>Node20</title>
<g id="a_node20"><a xlink:href="classQuantConnect_1_1SymbolCache.html#a131a5bb015b9a603328d0eddfe90c610" target="_top" xlink:title="Gets the Symbol object that is mapped to the specified string ticker symbol">
<polygon fill="white" stroke="black" points="264.5,-125.5 264.5,-155.5 422.5,-155.5 422.5,-125.5 264.5,-125.5"/>
<text text-anchor="start" x="272.5" y="-143.5" font-family="Helvetica,sans-Serif" font-size="10.00">QuantConnect.SymbolCache.</text>
<text text-anchor="middle" x="343.5" y="-132.5" font-family="Helvetica,sans-Serif" font-size="10.00">TryGetSymbol</text>
</a>
</g>
</g>
<!-- Node1&#45;&gt;Node20 -->
<g id="edge22" class="edge">
<title>Node1&#45;&gt;Node20</title>
<path fill="none" stroke="midnightblue" d="M142.24,-198.4C169.58,-188.07 207.22,-174.48 241,-164.5 248.59,-162.26 256.55,-160.08 264.53,-158.01"/>
<polygon fill="midnightblue" stroke="midnightblue" points="265.42,-161.4 274.25,-155.55 263.7,-154.61 265.42,-161.4"/>
</g>
<!-- Node3 -->
<g id="node3" class="node">
<title>Node3</title>
<g id="a_node3"><a xlink:href="classQuantConnect_1_1Symbol.html#a7518a1932d1babbff128f2ba9666a78b" target="_top" xlink:title="Provides a convenience method for creating an option Symbol.">
<polygon fill="white" stroke="black" points="685.5,-382.5 685.5,-412.5 846.5,-412.5 846.5,-382.5 685.5,-382.5"/>
<text text-anchor="start" x="693.5" y="-400.5" font-family="Helvetica,sans-Serif" font-size="10.00">QuantConnect.Symbol.Create</text>
<text text-anchor="middle" x="766" y="-389.5" font-family="Helvetica,sans-Serif" font-size="10.00">Option</text>
</a>
</g>
</g>
<!-- Node2&#45;&gt;Node3 -->
<g id="edge2" class="edge">
<title>Node2&#45;&gt;Node3</title>
<path fill="none" stroke="midnightblue" d="M569.49,-245.32C584.74,-269.56 627.51,-332.74 679,-367.5 685.13,-371.64 691.88,-375.26 698.84,-378.43"/>
<polygon fill="midnightblue" stroke="midnightblue" points="697.82,-381.8 708.4,-382.46 700.55,-375.35 697.82,-381.8"/>
</g>
<!-- Node4 -->
<g id="node4" class="node">
<title>Node4</title>
<g id="a_node4"><a xlink:href="classQuantConnect_1_1SecurityIdentifier.html#a0c21d7880c9fdd260883d11ea0c99a00" target="_top" xlink:title="Helper overload that will search the mapfiles to resolve the first date. This implementation uses the...">
<polygon fill="white" stroke="black" points="889,-415.5 889,-445.5 1063,-445.5 1063,-415.5 889,-415.5"/>
<text text-anchor="start" x="897" y="-433.5" font-family="Helvetica,sans-Serif" font-size="10.00">QuantConnect.SecurityIdentifier.</text>
<text text-anchor="middle" x="976" y="-422.5" font-family="Helvetica,sans-Serif" font-size="10.00">GenerateEquity</text>
</a>
</g>
</g>
<!-- Node2&#45;&gt;Node4 -->
<g id="edge14" class="edge">
<title>Node2&#45;&gt;Node4</title>
<path fill="none" stroke="midnightblue" d="M565.99,-245.14C574.85,-277.24 608.19,-380.7 679,-421.5 745.49,-459.81 835.08,-456.51 898.22,-447.09"/>
<polygon fill="midnightblue" stroke="midnightblue" points="898.78,-450.55 908.12,-445.53 897.69,-443.63 898.78,-450.55"/>
</g>
<!-- Node5 -->
<g id="node5" class="node">
<title>Node5</title>
<g id="a_node5"><a xlink:href="classQuantConnect_1_1Symbol.html#a59158f74116be3dad0ea0f3f3f134416" target="_top" xlink:title="Initializes a new instance of the Symbol class">
<polygon fill="white" stroke="black" points="893.5,-355 893.5,-374 1058.5,-374 1058.5,-355 893.5,-355"/>
<text text-anchor="middle" x="976" y="-362" font-family="Helvetica,sans-Serif" font-size="10.00">QuantConnect.Symbol.Symbol</text>
</a>
</g>
</g>
<!-- Node2&#45;&gt;Node5 -->
<g id="edge18" class="edge">
<title>Node2&#45;&gt;Node5</title>
<path fill="none" stroke="midnightblue" d="M571.23,-245.16C588.21,-265.6 631.12,-313.03 679,-333.5 743.45,-361.05 822.71,-368.11 882.99,-368.66"/>
<polygon fill="midnightblue" stroke="midnightblue" points="883.24,-372.16 893.25,-368.69 883.26,-365.16 883.24,-372.16"/>
</g>
<!-- Node10 -->
<g id="node10" class="node">
<title>Node10</title>
<g id="a_node10"><a xlink:href="classQuantConnect_1_1SecurityIdentifier.html#a02ca750115844561c001c2346fbafc00" target="_top" xlink:title="Generates a new SecurityIdentifier for a custom security with the option of providing the first date">
<polygon fill="white" stroke="black" points="679,-294.5 679,-324.5 853,-324.5 853,-294.5 679,-294.5"/>
<text text-anchor="start" x="687" y="-312.5" font-family="Helvetica,sans-Serif" font-size="10.00">QuantConnect.SecurityIdentifier.</text>
<text text-anchor="middle" x="766" y="-301.5" font-family="Helvetica,sans-Serif" font-size="10.00">GenerateBase</text>
</a>
</g>
</g>
<!-- Node2&#45;&gt;Node10 -->
<g id="edge9" class="edge">
<title>Node2&#45;&gt;Node10</title>
<path fill="none" stroke="midnightblue" d="M584.07,-245.1C606.95,-255.57 645.14,-272.44 679,-284.5 685.75,-286.9 692.85,-289.25 699.96,-291.48"/>
<polygon fill="midnightblue" stroke="midnightblue" points="699.05,-294.86 709.64,-294.45 701.1,-288.17 699.05,-294.86"/>
</g>
<!-- Node12 -->
<g id="node12" class="node">
<title>Node12</title>
<g id="a_node12"><a xlink:href="classQuantConnect_1_1SecurityIdentifier.html#a53953b18d814c5445e4ecdcb3b555080" target="_top" xlink:title="Generates a new SecurityIdentifier for a CFD security">
<polygon fill="white" stroke="black" points="679,-245.5 679,-275.5 853,-275.5 853,-245.5 679,-245.5"/>
<text text-anchor="start" x="687" y="-263.5" font-family="Helvetica,sans-Serif" font-size="10.00">QuantConnect.SecurityIdentifier.</text>
<text text-anchor="middle" x="766" y="-252.5" font-family="Helvetica,sans-Serif" font-size="10.00">GenerateCfd</text>
</a>
</g>
</g>
<!-- Node2&#45;&gt;Node12 -->
<g id="edge11" class="edge">
<title>Node2&#45;&gt;Node12</title>
<path fill="none" stroke="midnightblue" d="M640.25,-245.02C649.58,-246.18 659.2,-247.37 668.76,-248.56"/>
<polygon fill="midnightblue" stroke="midnightblue" points="668.34,-252.03 678.7,-249.79 669.2,-245.09 668.34,-252.03"/>
</g>
<!-- Node13 -->
<g id="node13" class="node">
<title>Node13</title>
<g id="a_node13"><a xlink:href="classQuantConnect_1_1SecurityIdentifier.html#a5889a95a36ce927dd0a109cbfbcbe663" target="_top" xlink:title="Generates a new SecurityIdentifier for a Crypto pair">
<polygon fill="white" stroke="black" points="679,-196.5 679,-226.5 853,-226.5 853,-196.5 679,-196.5"/>
<text text-anchor="start" x="687" y="-214.5" font-family="Helvetica,sans-Serif" font-size="10.00">QuantConnect.SecurityIdentifier.</text>
<text text-anchor="middle" x="766" y="-203.5" font-family="Helvetica,sans-Serif" font-size="10.00">GenerateCrypto</text>
</a>
</g>
</g>
<!-- Node2&#45;&gt;Node13 -->
<g id="edge12" class="edge">
<title>Node2&#45;&gt;Node13</title>
<path fill="none" stroke="midnightblue" d="M643.14,-226.01C651.6,-225.01 660.27,-223.97 668.89,-222.95"/>
<polygon fill="midnightblue" stroke="midnightblue" points="669.46,-226.4 678.98,-221.75 668.63,-219.45 669.46,-226.4"/>
</g>
<!-- Node14 -->
<g id="node14" class="node">
<title>Node14</title>
<g id="a_node14"><a xlink:href="classQuantConnect_1_1SecurityIdentifier.html#ac665665a16d5449872fed3427b95a260" target="_top" xlink:title="Generates a new SecurityIdentifier for a CryptoFuture pair">
<polygon fill="white" stroke="black" points="679,-147.5 679,-177.5 853,-177.5 853,-147.5 679,-147.5"/>
<text text-anchor="start" x="687" y="-165.5" font-family="Helvetica,sans-Serif" font-size="10.00">QuantConnect.SecurityIdentifier.</text>
<text text-anchor="middle" x="766" y="-154.5" font-family="Helvetica,sans-Serif" font-size="10.00">GenerateCryptoFuture</text>
</a>
</g>
</g>
<!-- Node2&#45;&gt;Node14 -->
<g id="edge13" class="edge">
<title>Node2&#45;&gt;Node14</title>
<path fill="none" stroke="midnightblue" d="M584.05,-225.83C606.9,-215.3 645.08,-198.37 679,-186.5 684.86,-184.45 690.98,-182.45 697.16,-180.55"/>
<polygon fill="midnightblue" stroke="midnightblue" points="698.29,-183.86 706.86,-177.62 696.27,-177.16 698.29,-183.86"/>
</g>
<!-- Node15 -->
<g id="node15" class="node">
<title>Node15</title>
<g id="a_node15"><a xlink:href="classQuantConnect_1_1SecurityIdentifier.html#a9cf0d3b208a5171e6112516ce441f18d" target="_top" xlink:title="Generates a new SecurityIdentifier for a forex pair">
<polygon fill="white" stroke="black" points="679,-98.5 679,-128.5 853,-128.5 853,-98.5 679,-98.5"/>
<text text-anchor="start" x="687" y="-116.5" font-family="Helvetica,sans-Serif" font-size="10.00">QuantConnect.SecurityIdentifier.</text>
<text text-anchor="middle" x="766" y="-105.5" font-family="Helvetica,sans-Serif" font-size="10.00">GenerateForex</text>
</a>
</g>
</g>
<!-- Node2&#45;&gt;Node15 -->
<g id="edge15" class="edge">
<title>Node2&#45;&gt;Node15</title>
<path fill="none" stroke="midnightblue" d="M572.06,-225.86C589.95,-206.27 633.47,-161.66 679,-137.5 682.52,-135.63 686.2,-133.9 689.97,-132.29"/>
<polygon fill="midnightblue" stroke="midnightblue" points="691.47,-135.46 699.5,-128.54 688.91,-128.94 691.47,-135.46"/>
</g>
<!-- Node16 -->
<g id="node16" class="node">
<title>Node16</title>
<g id="a_node16"><a xlink:href="classQuantConnect_1_1SecurityIdentifier.html#ad50a891c97cb0c084a9e2aa43607ed66" target="_top" xlink:title="Generates a new SecurityIdentifier for a future">
<polygon fill="white" stroke="black" points="679,-49.5 679,-79.5 853,-79.5 853,-49.5 679,-49.5"/>
<text text-anchor="start" x="687" y="-67.5" font-family="Helvetica,sans-Serif" font-size="10.00">QuantConnect.SecurityIdentifier.</text>
<text text-anchor="middle" x="766" y="-56.5" font-family="Helvetica,sans-Serif" font-size="10.00">GenerateFuture</text>
</a>
</g>
</g>
<!-- Node2&#45;&gt;Node16 -->
<g id="edge16" class="edge">
<title>Node2&#45;&gt;Node16</title>
<path fill="none" stroke="midnightblue" d="M568.24,-225.89C581.69,-199.6 622.85,-125.97 679,-88.5 681.42,-86.89 683.94,-85.38 686.55,-83.98"/>
<polygon fill="midnightblue" stroke="midnightblue" points="688.18,-87.08 695.66,-79.57 685.13,-80.77 688.18,-87.08"/>
</g>
<!-- Node17 -->
<g id="node17" class="node">
<title>Node17</title>
<g id="a_node17"><a xlink:href="classQuantConnect_1_1SecurityIdentifier.html#ade05a8e57b041ab484cf585be8d05699" target="_top" xlink:title="Generates a new SecurityIdentifier for a INDEX security">
<polygon fill="white" stroke="black" points="679,-0.5 679,-30.5 853,-30.5 853,-0.5 679,-0.5"/>
<text text-anchor="start" x="687" y="-18.5" font-family="Helvetica,sans-Serif" font-size="10.00">QuantConnect.SecurityIdentifier.</text>
<text text-anchor="middle" x="766" y="-7.5" font-family="Helvetica,sans-Serif" font-size="10.00">GenerateIndex</text>
</a>
</g>
</g>
<!-- Node2&#45;&gt;Node17 -->
<g id="edge17" class="edge">
<title>Node2&#45;&gt;Node17</title>
<path fill="none" stroke="midnightblue" d="M566.39,-225.56C576.3,-193.36 611.98,-91 679,-39.5 680.8,-38.12 682.67,-36.82 684.6,-35.59"/>
<polygon fill="midnightblue" stroke="midnightblue" points="686.39,-38.6 693.43,-30.68 682.99,-32.48 686.39,-38.6"/>
</g>
<!-- Node3&#45;&gt;Node4 -->
<g id="edge3" class="edge">
<title>Node3&#45;&gt;Node4</title>
<path fill="none" stroke="midnightblue" d="M846.53,-410.12C857.15,-411.8 868.14,-413.55 879.01,-415.27"/>
<polygon fill="midnightblue" stroke="midnightblue" points="878.51,-418.74 888.94,-416.85 879.61,-411.82 878.51,-418.74"/>
</g>
<!-- Node3&#45;&gt;Node5 -->
<g id="edge4" class="edge">
<title>Node3&#45;&gt;Node5</title>
<path fill="none" stroke="midnightblue" d="M846.53,-384.88C865.77,-381.83 886.21,-378.59 904.98,-375.61"/>
<polygon fill="midnightblue" stroke="midnightblue" points="905.6,-379.05 914.93,-374.03 904.5,-372.14 905.6,-379.05"/>
</g>
<!-- Node6 -->
<g id="node6" class="node">
<title>Node6</title>
<g id="a_node6"><a xlink:href="classQuantConnect_1_1Symbol.html#a59b0795fa21f46c306deb5576fa03bb9" target="_top" xlink:title="Centralized helper method to resolve alias for a symbol">
<polygon fill="white" stroke="black" points="1099,-355 1099,-374 1269,-374 1269,-355 1099,-355"/>
<text text-anchor="middle" x="1184" y="-362" font-family="Helvetica,sans-Serif" font-size="10.00">QuantConnect.Symbol.GetAlias</text>
</a>
</g>
</g>
<!-- Node5&#45;&gt;Node6 -->
<g id="edge5" class="edge">
<title>Node5&#45;&gt;Node6</title>
<path fill="none" stroke="midnightblue" d="M1058.71,-364.5C1068.47,-364.5 1078.49,-364.5 1088.4,-364.5"/>
<polygon fill="midnightblue" stroke="midnightblue" points="1088.68,-368 1098.68,-364.5 1088.68,-361 1088.68,-368"/>
</g>
<!-- Node7 -->
<g id="node7" class="node">
<title>Node7</title>
<g id="a_node7"><a xlink:href="classQuantConnect_1_1SymbolRepresentation.html#ad43ac907f6c19083821f58f21c6de017" target="_top" xlink:title="Returns future symbol ticker from underlying and expiration date. Function can generate tickers of tw...">
<polygon fill="white" stroke="black" points="1305,-374.5 1305,-404.5 1508,-404.5 1508,-374.5 1305,-374.5"/>
<text text-anchor="start" x="1313" y="-392.5" font-family="Helvetica,sans-Serif" font-size="10.00">QuantConnect.SymbolRepresentation.</text>
<text text-anchor="middle" x="1406.5" y="-381.5" font-family="Helvetica,sans-Serif" font-size="10.00">GenerateFutureTicker</text>
</a>
</g>
</g>
<!-- Node6&#45;&gt;Node7 -->
<g id="edge6" class="edge">
<title>Node6&#45;&gt;Node7</title>
<path fill="none" stroke="midnightblue" d="M1268.99,-374.02C1277.39,-374.97 1286,-375.95 1294.62,-376.93"/>
<polygon fill="midnightblue" stroke="midnightblue" points="1294.4,-380.43 1304.73,-378.07 1295.19,-373.47 1294.4,-380.43"/>
</g>
<!-- Node9 -->
<g id="node9" class="node">
<title>Node9</title>
<g id="a_node9"><a xlink:href="classQuantConnect_1_1SymbolRepresentation.html#ab133044f5cf8c16e700190a2202b215e" target="_top" xlink:title="Returns option symbol ticker in accordance with OSI symbology More information can be found at http:/...">
<polygon fill="white" stroke="black" points="1305,-325.5 1305,-355.5 1508,-355.5 1508,-325.5 1305,-325.5"/>
<text text-anchor="start" x="1313" y="-343.5" font-family="Helvetica,sans-Serif" font-size="10.00">QuantConnect.SymbolRepresentation.</text>
<text text-anchor="middle" x="1406.5" y="-332.5" font-family="Helvetica,sans-Serif" font-size="10.00">GenerateOptionTickerOSI</text>
</a>
</g>
</g>
<!-- Node6&#45;&gt;Node9 -->
<g id="edge8" class="edge">
<title>Node6&#45;&gt;Node9</title>
<path fill="none" stroke="midnightblue" d="M1269.31,-355.32C1277.69,-354.41 1286.3,-353.47 1294.9,-352.54"/>
<polygon fill="midnightblue" stroke="midnightblue" points="1295.43,-356 1304.99,-351.44 1294.67,-349.04 1295.43,-356"/>
</g>
<!-- Node8 -->
<g id="node8" class="node">
<title>Node8</title>
<g id="a_node8"><a xlink:href="classQuantConnect_1_1Securities_1_1Future_1_1FuturesExpiryUtilityFunctions.html#a4ccb1e2f2fe40ff09785a74a02f26df1" target="_top" xlink:title="Gets the number of months between the contract month and the expiry date.">
<polygon fill="white" stroke="black" points="1544,-369 1544,-410 1810,-410 1810,-369 1544,-369"/>
<text text-anchor="start" x="1552" y="-398" font-family="Helvetica,sans-Serif" font-size="10.00">QuantConnect.Securities.</text>
<text text-anchor="start" x="1552" y="-387" font-family="Helvetica,sans-Serif" font-size="10.00">Future.FuturesExpiryUtilityFunctions.</text>
<text text-anchor="middle" x="1677" y="-376" font-family="Helvetica,sans-Serif" font-size="10.00">GetDeltaBetweenContractMonthAndContractExpiry</text>
</a>
</g>
</g>
<!-- Node7&#45;&gt;Node8 -->
<g id="edge7" class="edge">
<title>Node7&#45;&gt;Node8</title>
<path fill="none" stroke="midnightblue" d="M1508.24,-389.5C1516.59,-389.5 1525.11,-389.5 1533.68,-389.5"/>
<polygon fill="midnightblue" stroke="midnightblue" points="1533.76,-393 1543.76,-389.5 1533.76,-386 1533.76,-393"/>
</g>
<!-- Node11 -->
<g id="node11" class="node">
<title>Node11</title>
<g id="a_node11"><a xlink:href="classQuantConnect_1_1SecurityIdentifier.html#a19e1f9da410608020d74ed9e7d283575" target="_top" xlink:title="Generates the Symbol property for QuantConnect.SecurityType.Base security identifiers">
<polygon fill="white" stroke="black" points="889,-294.5 889,-324.5 1063,-324.5 1063,-294.5 889,-294.5"/>
<text text-anchor="start" x="897" y="-312.5" font-family="Helvetica,sans-Serif" font-size="10.00">QuantConnect.SecurityIdentifier.</text>
<text text-anchor="middle" x="976" y="-301.5" font-family="Helvetica,sans-Serif" font-size="10.00">GenerateBaseSymbol</text>
</a>
</g>
</g>
<!-- Node10&#45;&gt;Node11 -->
<g id="edge10" class="edge">
<title>Node10&#45;&gt;Node11</title>
<path fill="none" stroke="midnightblue" d="M853.1,-309.5C861.62,-309.5 870.3,-309.5 878.91,-309.5"/>
<polygon fill="midnightblue" stroke="midnightblue" points="878.96,-313 888.96,-309.5 878.96,-306 878.96,-313"/>
</g>
<!-- Node19&#45;&gt;Node2 -->
<g id="edge21" class="edge">
<title>Node19&#45;&gt;Node2</title>
<path fill="none" stroke="midnightblue" d="M415.55,-204.56C445.17,-210.84 479.02,-218.02 506.67,-223.88"/>
<polygon fill="midnightblue" stroke="midnightblue" points="506.04,-227.32 516.55,-225.97 507.49,-220.47 506.04,-227.32"/>
</g>
</g>
</svg>
        <g id="navigator" transform="translate(0 0)" fill="#404254">
                <rect fill="#f2f5e9" fill-opacity="0.5" stroke="#606060" stroke-width=".5" x="0" y="0" width="60" height="60"/>
                <use id="zoomplus" xlink:href="#zoomPlus" x="17" y="9" onmousedown="handleZoom(evt,'in')"/>
                <use id="zoomminus" xlink:href="#zoomMin" x="42" y="9" onmousedown="handleZoom(evt,'out')"/>
                <use id="reset" xlink:href="#resetDef" x="30" y="36" onmousedown="handleReset()"/>
                <g id="arrowUp" xlink:href="#dirArrow" transform="translate(30 24)" onmousedown="handlePan(0,-1)">
                  <use xlink:href="#rim" fill="#404040">
                        <set attributeName="fill" to="#808080" begin="arrowUp.mouseover" end="arrowUp.mouseout"/>
                  </use>
                  <path fill="none" stroke="white" stroke-width="1.5" d="M0,-3.0v7 M-2.5,-0.5L0,-3.0L2.5,-0.5"/>
                </g>
                <g id="arrowRight" xlink:href="#dirArrow" transform="rotate(90) translate(36 -43)" onmousedown="handlePan(1,0)">
                  <use xlink:href="#rim" fill="#404040">
                        <set attributeName="fill" to="#808080" begin="arrowRight.mouseover" end="arrowRight.mouseout"/>
                  </use>
                  <path fill="none" stroke="white" stroke-width="1.5" d="M0,-3.0v7 M-2.5,-0.5L0,-3.0L2.5,-0.5"/>
                </g>
                <g id="arrowDown" xlink:href="#dirArrow" transform="rotate(180) translate(-30 -48)" onmousedown="handlePan(0,1)">
                  <use xlink:href="#rim" fill="#404040">
                        <set attributeName="fill" to="#808080" begin="arrowDown.mouseover" end="arrowDown.mouseout"/>
                  </use>
                  <path fill="none" stroke="white" stroke-width="1.5" d="M0,-3.0v7 M-2.5,-0.5L0,-3.0L2.5,-0.5"/>
                </g>
                <g id="arrowLeft" xlink:href="#dirArrow" transform="rotate(270) translate(-36 17)" onmousedown="handlePan(-1,0)">
                  <use xlink:href="#rim" fill="#404040">
                        <set attributeName="fill" to="#808080" begin="arrowLeft.mouseover" end="arrowLeft.mouseout"/>
                  </use>
                  <path fill="none" stroke="white" stroke-width="1.5" d="M0,-3.0v7 M-2.5,-0.5L0,-3.0L2.5,-0.5"/>
                </g>
        </g>
        <svg viewBox="0 0 15 15" width="100%" height="30px" preserveAspectRatio="xMaxYMin meet">
         <g id="arrow_out" transform="scale(0.3 0.3)">
          <a xlink:href="classQuantConnect_1_1Algorithm_1_1QCAlgorithm_a4ca29e2c5ad24fcd326ebbb78b67e7e6_cgraph_org.svg" target="_base">
           <rect id="button" ry="5" rx="5" y="6" x="6" height="38" width="38"
                fill="#f2f5e9" fill-opacity="0.5" stroke="#606060" stroke-width="1.0"/>
           <path id="arrow"
             d="M 11.500037,31.436501 C 11.940474,20.09759 22.043105,11.32322 32.158766,21.979434 L 37.068811,17.246167 C 37.068811,17.246167 37.088388,32 37.088388,32 L 22.160133,31.978069 C 22.160133,31.978069 26.997745,27.140456 26.997745,27.140456 C 18.528582,18.264221 13.291696,25.230495 11.500037,31.436501 z"
             style="fill:#404040;"/>
          </a>
         </g>
        </svg>
</svg>
