<?xml version="1.0" encoding="UTF-8" standalone="no"?>
<!DOCTYPE svg PUBLIC "-//W3C//DTD SVG 1.1//EN"
 "http://www.w3.org/Graphics/SVG/1.1/DTD/svg11.dtd">
<!-- Generated by graphviz version 2.43.0 (0)
 -->
<!-- Title: QuantConnect.Lean.Engine.DataFeeds.BacktestingFutureChainProvider.GetFutureContractList Pages: 1 -->
<svg width="1864pt" height="510pt"
 viewBox="0.00 0.00 1864.00 510.00" xmlns="http://www.w3.org/2000/svg" xmlns:xlink="http://www.w3.org/1999/xlink">
<g id="graph0" class="graph" transform="scale(1 1) rotate(0) translate(4 506)">
<title>QuantConnect.Lean.Engine.DataFeeds.BacktestingFutureChainProvider.GetFutureContractList</title>
<polygon fill="white" stroke="transparent" points="-4,4 -4,-506 1860,-506 1860,4 -4,4"/>
<!-- Node1 -->
<g id="node1" class="node">
<title>Node1</title>
<g id="a_node1"><a xlink:title="Gets the list of future contracts for a given underlying symbol">
<polygon fill="#bfbfbf" stroke="black" points="0,-337 0,-378 188,-378 188,-337 0,-337"/>
<text text-anchor="start" x="8" y="-366" font-family="Helvetica,sans-Serif" font-size="10.00">QuantConnect.Lean.Engine.</text>
<text text-anchor="start" x="8" y="-355" font-family="Helvetica,sans-Serif" font-size="10.00">DataFeeds.BacktestingFutureChain</text>
<text text-anchor="middle" x="94" y="-344" font-family="Helvetica,sans-Serif" font-size="10.00">Provider.GetFutureContractList</text>
</a>
</g>
</g>
<!-- Node2 -->
<g id="node2" class="node">
<title>Node2</title>
<g id="a_node2"><a xlink:href="classQuantConnect_1_1Lean_1_1Engine_1_1DataFeeds_1_1BacktestingFutureChainProvider.html#a2ac2c98d89ae12de01e4542518d5649d" target="_top" xlink:title="Helper method to get the symbol to use">
<polygon fill="white" stroke="black" points="230,-367 230,-408 418,-408 418,-367 230,-367"/>
<text text-anchor="start" x="238" y="-396" font-family="Helvetica,sans-Serif" font-size="10.00">QuantConnect.Lean.Engine.</text>
<text text-anchor="start" x="238" y="-385" font-family="Helvetica,sans-Serif" font-size="10.00">DataFeeds.BacktestingFutureChain</text>
<text text-anchor="middle" x="324" y="-374" font-family="Helvetica,sans-Serif" font-size="10.00">Provider.GetSymbol</text>
</a>
</g>
</g>
<!-- Node1&#45;&gt;Node2 -->
<g id="edge1" class="edge">
<title>Node1&#45;&gt;Node2</title>
<path fill="none" stroke="midnightblue" d="M188.07,-369.75C198.52,-371.12 209.21,-372.53 219.78,-373.92"/>
<polygon fill="midnightblue" stroke="midnightblue" points="219.49,-377.41 229.86,-375.25 220.4,-370.47 219.49,-377.41"/>
</g>
<!-- Node3 -->
<g id="node3" class="node">
<title>Node3</title>
<g id="a_node3"><a xlink:href="classQuantConnect_1_1Lean_1_1Engine_1_1DataFeeds_1_1BacktestingChainProvider.html#a903ec0b9ee074f1a7ee6d1eccc5f712b" target="_top" xlink:title="Get the contract symbols associated with the given canonical symbol and date">
<polygon fill="white" stroke="black" points="224,-307 224,-348 424,-348 424,-307 224,-307"/>
<text text-anchor="start" x="232" y="-336" font-family="Helvetica,sans-Serif" font-size="10.00">QuantConnect.Lean.Engine.</text>
<text text-anchor="start" x="232" y="-325" font-family="Helvetica,sans-Serif" font-size="10.00">DataFeeds.BacktestingChainProvider.</text>
<text text-anchor="middle" x="324" y="-314" font-family="Helvetica,sans-Serif" font-size="10.00">GetSymbols</text>
</a>
</g>
</g>
<!-- Node1&#45;&gt;Node3 -->
<g id="edge2" class="edge">
<title>Node1&#45;&gt;Node3</title>
<path fill="none" stroke="midnightblue" d="M188.07,-345.25C196.56,-344.14 205.22,-343 213.84,-341.86"/>
<polygon fill="midnightblue" stroke="midnightblue" points="214.47,-345.31 223.93,-340.54 213.56,-338.37 214.47,-345.31"/>
</g>
<!-- Node4 -->
<g id="node4" class="node">
<title>Node4</title>
<g id="a_node4"><a xlink:href="classQuantConnect_1_1Logging_1_1Log.html#ad908daef9d61532d7d60c9dcfb9a3e0c" target="_top" xlink:title="Output to the console">
<polygon fill="white" stroke="black" points="476,-471.5 476,-501.5 626,-501.5 626,-471.5 476,-471.5"/>
<text text-anchor="start" x="484" y="-489.5" font-family="Helvetica,sans-Serif" font-size="10.00">QuantConnect.Logging.Log.</text>
<text text-anchor="middle" x="551" y="-478.5" font-family="Helvetica,sans-Serif" font-size="10.00">Debug</text>
</a>
</g>
</g>
<!-- Node3&#45;&gt;Node4 -->
<g id="edge3" class="edge">
<title>Node3&#45;&gt;Node4</title>
<path fill="none" stroke="midnightblue" d="M412.08,-348.21C416.36,-350.93 420.38,-354.01 424,-357.5 459.25,-391.41 424.35,-428.01 460,-461.5 462.16,-463.53 464.47,-465.4 466.9,-467.12"/>
<polygon fill="midnightblue" stroke="midnightblue" points="465.21,-470.18 475.57,-472.4 468.85,-464.2 465.21,-470.18"/>
</g>
<!-- Node6 -->
<g id="node6" class="node">
<title>Node6</title>
<g id="a_node6"><a xlink:href="classQuantConnect_1_1Securities_1_1MarketHoursDatabase.html#aa01232d91c17c556b18ea8f1f7fabcd0" target="_top" xlink:title="Gets the instance of the MarketHoursDatabase class produced by reading in the market hours data found...">
<polygon fill="white" stroke="black" points="463,-411 463,-452 639,-452 639,-411 463,-411"/>
<text text-anchor="start" x="471" y="-440" font-family="Helvetica,sans-Serif" font-size="10.00">QuantConnect.Securities.</text>
<text text-anchor="start" x="471" y="-429" font-family="Helvetica,sans-Serif" font-size="10.00">MarketHoursDatabase.FromData</text>
<text text-anchor="middle" x="551" y="-418" font-family="Helvetica,sans-Serif" font-size="10.00">Folder</text>
</a>
</g>
</g>
<!-- Node3&#45;&gt;Node6 -->
<g id="edge5" class="edge">
<title>Node3&#45;&gt;Node6</title>
<path fill="none" stroke="midnightblue" d="M407.02,-348.04C412.97,-350.82 418.7,-353.95 424,-357.5 445,-371.55 439.2,-387.16 460,-401.5 462.27,-403.07 464.64,-404.56 467.06,-405.97"/>
<polygon fill="midnightblue" stroke="midnightblue" points="465.64,-409.18 476.11,-410.79 468.93,-403 465.64,-409.18"/>
</g>
<!-- Node7 -->
<g id="node7" class="node">
<title>Node7</title>
<g id="a_node7"><a xlink:href="classQuantConnect_1_1Util_1_1LeanData.html#a6c106a884e3c8562732737244a1fc45d" target="_top" xlink:title="Generates the full zip file path rooted in the dataDirectory">
<polygon fill="white" stroke="black" points="472,-361.5 472,-391.5 630,-391.5 630,-361.5 472,-361.5"/>
<text text-anchor="start" x="480" y="-379.5" font-family="Helvetica,sans-Serif" font-size="10.00">QuantConnect.Util.LeanData.</text>
<text text-anchor="middle" x="551" y="-368.5" font-family="Helvetica,sans-Serif" font-size="10.00">GenerateZipFilePath</text>
</a>
</g>
</g>
<!-- Node3&#45;&gt;Node7 -->
<g id="edge6" class="edge">
<title>Node3&#45;&gt;Node7</title>
<path fill="none" stroke="midnightblue" d="M419.44,-348.07C436.57,-351.8 454.28,-355.65 470.91,-359.28"/>
<polygon fill="midnightblue" stroke="midnightblue" points="470.59,-362.79 481.11,-361.5 472.08,-355.95 470.59,-362.79"/>
</g>
<!-- Node10 -->
<g id="node10" class="node">
<title>Node10</title>
<g id="a_node10"><a xlink:href="classQuantConnect_1_1Time.html#a4ddb0f529e1af3d182ea19aaf12a4ae7" target="_top" xlink:title="Determines the start time required to produce the requested number of bars and the given size">
<polygon fill="white" stroke="black" points="472.5,-312.5 472.5,-342.5 629.5,-342.5 629.5,-312.5 472.5,-312.5"/>
<text text-anchor="start" x="480.5" y="-330.5" font-family="Helvetica,sans-Serif" font-size="10.00">QuantConnect.Time.GetStart</text>
<text text-anchor="middle" x="551" y="-319.5" font-family="Helvetica,sans-Serif" font-size="10.00">TimeForTradeBars</text>
</a>
</g>
</g>
<!-- Node3&#45;&gt;Node10 -->
<g id="edge9" class="edge">
<title>Node3&#45;&gt;Node10</title>
<path fill="none" stroke="midnightblue" d="M424.02,-327.5C436.63,-327.5 449.48,-327.5 461.91,-327.5"/>
<polygon fill="midnightblue" stroke="midnightblue" points="462.24,-331 472.24,-327.5 462.24,-324 462.24,-331"/>
</g>
<!-- Node14 -->
<g id="node14" class="node">
<title>Node14</title>
<g id="a_node14"><a xlink:href="interfaceQuantConnect_1_1Interfaces_1_1IDataCacheProvider.html#a3d8d632ecc0f8e317f716853e53da6d9" target="_top" xlink:title="Returns a list of zip entries in a provided zip file">
<polygon fill="white" stroke="black" points="460,-263.5 460,-293.5 642,-293.5 642,-263.5 460,-263.5"/>
<text text-anchor="start" x="468" y="-281.5" font-family="Helvetica,sans-Serif" font-size="10.00">QuantConnect.Interfaces.</text>
<text text-anchor="middle" x="551" y="-270.5" font-family="Helvetica,sans-Serif" font-size="10.00">IDataCacheProvider.GetZipEntries</text>
</a>
</g>
</g>
<!-- Node3&#45;&gt;Node14 -->
<g id="edge13" class="edge">
<title>Node3&#45;&gt;Node14</title>
<path fill="none" stroke="midnightblue" d="M419.44,-306.93C436.57,-303.2 454.28,-299.35 470.91,-295.72"/>
<polygon fill="midnightblue" stroke="midnightblue" points="472.08,-299.05 481.11,-293.5 470.59,-292.21 472.08,-299.05"/>
</g>
<!-- Node15 -->
<g id="node15" class="node">
<title>Node15</title>
<g id="a_node15"><a xlink:href="classQuantConnect_1_1Util_1_1LeanData.html#a4b8de0cf279dc49a62d734fda97ed1ef" target="_top" xlink:title="Creates a symbol from the specified zip entry name">
<polygon fill="white" stroke="black" points="472,-172.5 472,-202.5 630,-202.5 630,-172.5 472,-172.5"/>
<text text-anchor="start" x="480" y="-190.5" font-family="Helvetica,sans-Serif" font-size="10.00">QuantConnect.Util.LeanData.</text>
<text text-anchor="middle" x="551" y="-179.5" font-family="Helvetica,sans-Serif" font-size="10.00">ReadSymbolFromZipEntry</text>
</a>
</g>
</g>
<!-- Node3&#45;&gt;Node15 -->
<g id="edge14" class="edge">
<title>Node3&#45;&gt;Node15</title>
<path fill="none" stroke="midnightblue" d="M358.2,-306.84C400.88,-280.28 474.55,-234.45 517.09,-207.98"/>
<polygon fill="midnightblue" stroke="midnightblue" points="519.03,-210.89 525.67,-202.64 515.33,-204.95 519.03,-210.89"/>
</g>
<!-- Node28 -->
<g id="node28" class="node">
<title>Node28</title>
<g id="a_node28"><a xlink:href="classQuantConnect_1_1Logging_1_1Log.html#a4e55477fbc790846b74550a57198cea9" target="_top" xlink:title="Log trace">
<polygon fill="white" stroke="black" points="476,-74.5 476,-104.5 626,-104.5 626,-74.5 476,-74.5"/>
<text text-anchor="start" x="484" y="-92.5" font-family="Helvetica,sans-Serif" font-size="10.00">QuantConnect.Logging.Log.</text>
<text text-anchor="middle" x="551" y="-81.5" font-family="Helvetica,sans-Serif" font-size="10.00">Trace</text>
</a>
</g>
</g>
<!-- Node3&#45;&gt;Node28 -->
<g id="edge29" class="edge">
<title>Node3&#45;&gt;Node28</title>
<path fill="none" stroke="midnightblue" d="M340.03,-306.74C363.79,-274.51 412.27,-211.21 460,-163.5 479.23,-144.28 503.08,-124.84 521.39,-110.71"/>
<polygon fill="midnightblue" stroke="midnightblue" points="523.56,-113.47 529.38,-104.62 519.31,-107.9 523.56,-113.47"/>
</g>
<!-- Node5 -->
<g id="node5" class="node">
<title>Node5</title>
<g id="a_node5"><a xlink:href="interfaceQuantConnect_1_1Logging_1_1ILogHandler.html#a2c738b8e78dd5b54244bc68b969ba91d" target="_top" xlink:title="Write debug message to log">
<polygon fill="white" stroke="black" points="693,-471.5 693,-501.5 843,-501.5 843,-471.5 693,-471.5"/>
<text text-anchor="start" x="701" y="-489.5" font-family="Helvetica,sans-Serif" font-size="10.00">QuantConnect.Logging.ILog</text>
<text text-anchor="middle" x="768" y="-478.5" font-family="Helvetica,sans-Serif" font-size="10.00">Handler.Debug</text>
</a>
</g>
</g>
<!-- Node4&#45;&gt;Node5 -->
<g id="edge4" class="edge">
<title>Node4&#45;&gt;Node5</title>
<path fill="none" stroke="midnightblue" d="M626.29,-486.5C644.42,-486.5 663.94,-486.5 682.51,-486.5"/>
<polygon fill="midnightblue" stroke="midnightblue" points="682.71,-490 692.71,-486.5 682.71,-483 682.71,-490"/>
</g>
<!-- Node8 -->
<g id="node8" class="node">
<title>Node8</title>
<g id="a_node8"><a xlink:href="classQuantConnect_1_1Util_1_1LeanData.html#a7a375e870b2ab7451dba45e61c7135df" target="_top" xlink:title="Generates the relative zip directory for the specified symbol/resolution">
<polygon fill="white" stroke="black" points="678,-410.5 678,-440.5 858,-440.5 858,-410.5 678,-410.5"/>
<text text-anchor="start" x="686" y="-428.5" font-family="Helvetica,sans-Serif" font-size="10.00">QuantConnect.Util.LeanData.</text>
<text text-anchor="middle" x="768" y="-417.5" font-family="Helvetica,sans-Serif" font-size="10.00">GenerateRelativeZipFileDirectory</text>
</a>
</g>
</g>
<!-- Node7&#45;&gt;Node8 -->
<g id="edge7" class="edge">
<title>Node7&#45;&gt;Node8</title>
<path fill="none" stroke="midnightblue" d="M617.97,-391.53C641.19,-396.83 667.46,-402.81 691.4,-408.27"/>
<polygon fill="midnightblue" stroke="midnightblue" points="690.63,-411.68 701.16,-410.49 692.18,-404.86 690.63,-411.68"/>
</g>
<!-- Node9 -->
<g id="node9" class="node">
<title>Node9</title>
<g id="a_node9"><a xlink:href="classQuantConnect_1_1Util_1_1LeanData.html#ae798d44930bdd36039812c9390e33af9" target="_top" xlink:title="Generates the zip file name for the specified date of data.">
<polygon fill="white" stroke="black" points="689,-361.5 689,-391.5 847,-391.5 847,-361.5 689,-361.5"/>
<text text-anchor="start" x="697" y="-379.5" font-family="Helvetica,sans-Serif" font-size="10.00">QuantConnect.Util.LeanData.</text>
<text text-anchor="middle" x="768" y="-368.5" font-family="Helvetica,sans-Serif" font-size="10.00">GenerateZipFileName</text>
</a>
</g>
</g>
<!-- Node7&#45;&gt;Node9 -->
<g id="edge8" class="edge">
<title>Node7&#45;&gt;Node9</title>
<path fill="none" stroke="midnightblue" d="M630.23,-376.5C645.89,-376.5 662.45,-376.5 678.43,-376.5"/>
<polygon fill="midnightblue" stroke="midnightblue" points="678.83,-380 688.83,-376.5 678.83,-373 678.83,-380"/>
</g>
<!-- Node11 -->
<g id="node11" class="node">
<title>Node11</title>
<g id="a_node11"><a xlink:href="classQuantConnect_1_1Securities_1_1SecurityExchangeHours.html#ad680493077edb2267e639615b3c672a7" target="_top" xlink:title="Determines if the exchange is open at the specified local date time.">
<polygon fill="white" stroke="black" points="683.5,-312.5 683.5,-342.5 852.5,-342.5 852.5,-312.5 683.5,-312.5"/>
<text text-anchor="start" x="691.5" y="-330.5" font-family="Helvetica,sans-Serif" font-size="10.00">QuantConnect.Securities.</text>
<text text-anchor="middle" x="768" y="-319.5" font-family="Helvetica,sans-Serif" font-size="10.00">SecurityExchangeHours.IsOpen</text>
</a>
</g>
</g>
<!-- Node10&#45;&gt;Node11 -->
<g id="edge10" class="edge">
<title>Node10&#45;&gt;Node11</title>
<path fill="none" stroke="midnightblue" d="M629.62,-327.5C643.79,-327.5 658.71,-327.5 673.29,-327.5"/>
<polygon fill="midnightblue" stroke="midnightblue" points="673.32,-331 683.32,-327.5 673.32,-324 673.32,-331"/>
</g>
<!-- Node12 -->
<g id="node12" class="node">
<title>Node12</title>
<g id="a_node12"><a xlink:href="classQuantConnect_1_1Securities_1_1SecurityExchangeHours.html#a106e2dd187ab76452e14ac6a28f929aa" target="_top" xlink:title="Helper to access the market hours field based on the day of week">
<polygon fill="white" stroke="black" points="894,-377.5 894,-407.5 1109,-407.5 1109,-377.5 894,-377.5"/>
<text text-anchor="start" x="902" y="-395.5" font-family="Helvetica,sans-Serif" font-size="10.00">QuantConnect.Securities.</text>
<text text-anchor="middle" x="1001.5" y="-384.5" font-family="Helvetica,sans-Serif" font-size="10.00">SecurityExchangeHours.GetMarketHours</text>
</a>
</g>
</g>
<!-- Node11&#45;&gt;Node12 -->
<g id="edge11" class="edge">
<title>Node11&#45;&gt;Node12</title>
<path fill="none" stroke="midnightblue" d="M827.31,-342.57C837.62,-345.61 848.19,-348.96 858,-352.5 874.47,-358.44 877.38,-362.99 894,-368.5 900.86,-370.77 908.05,-372.9 915.31,-374.88"/>
<polygon fill="midnightblue" stroke="midnightblue" points="914.66,-378.33 925.22,-377.48 916.44,-371.56 914.66,-378.33"/>
</g>
<!-- Node13 -->
<g id="node13" class="node">
<title>Node13</title>
<g id="a_node13"><a xlink:href="classQuantConnect_1_1Securities_1_1LocalMarketHours.html#a8a898ad9f8fa0c41f4a04b8dfc513777" target="_top" xlink:title="Determines if the exchange is open at the specified time">
<polygon fill="white" stroke="black" points="931,-328.5 931,-358.5 1072,-358.5 1072,-328.5 931,-328.5"/>
<text text-anchor="start" x="939" y="-346.5" font-family="Helvetica,sans-Serif" font-size="10.00">QuantConnect.Securities.</text>
<text text-anchor="middle" x="1001.5" y="-335.5" font-family="Helvetica,sans-Serif" font-size="10.00">LocalMarketHours.IsOpen</text>
</a>
</g>
</g>
<!-- Node11&#45;&gt;Node13 -->
<g id="edge12" class="edge">
<title>Node11&#45;&gt;Node13</title>
<path fill="none" stroke="midnightblue" d="M852.58,-333.28C874.71,-334.81 898.56,-336.45 920.5,-337.97"/>
<polygon fill="midnightblue" stroke="midnightblue" points="920.55,-341.48 930.77,-338.68 921.03,-334.5 920.55,-341.48"/>
</g>
<!-- Node16 -->
<g id="node16" class="node">
<title>Node16</title>
<g id="a_node16"><a xlink:href="classQuantConnect_1_1Symbol.html#a484f4a4845d55c491201a7998f0d6ec4" target="_top" xlink:title="Provides a convenience method for creating a future Symbol.">
<polygon fill="white" stroke="black" points="687.5,-246.5 687.5,-276.5 848.5,-276.5 848.5,-246.5 687.5,-246.5"/>
<text text-anchor="start" x="695.5" y="-264.5" font-family="Helvetica,sans-Serif" font-size="10.00">QuantConnect.Symbol.Create</text>
<text text-anchor="middle" x="768" y="-253.5" font-family="Helvetica,sans-Serif" font-size="10.00">Future</text>
</a>
</g>
</g>
<!-- Node15&#45;&gt;Node16 -->
<g id="edge15" class="edge">
<title>Node15&#45;&gt;Node16</title>
<path fill="none" stroke="midnightblue" d="M586.91,-202.6C611.98,-213.14 646.73,-227.12 678,-237.5 684.33,-239.6 690.95,-241.65 697.61,-243.62"/>
<polygon fill="midnightblue" stroke="midnightblue" points="696.78,-247.02 707.36,-246.43 698.72,-240.29 696.78,-247.02"/>
</g>
<!-- Node23 -->
<g id="node23" class="node">
<title>Node23</title>
<g id="a_node23"><a xlink:href="classQuantConnect_1_1Symbol.html#a7518a1932d1babbff128f2ba9666a78b" target="_top" xlink:title="Provides a convenience method for creating an option Symbol.">
<polygon fill="white" stroke="black" points="687.5,-197.5 687.5,-227.5 848.5,-227.5 848.5,-197.5 687.5,-197.5"/>
<text text-anchor="start" x="695.5" y="-215.5" font-family="Helvetica,sans-Serif" font-size="10.00">QuantConnect.Symbol.Create</text>
<text text-anchor="middle" x="768" y="-204.5" font-family="Helvetica,sans-Serif" font-size="10.00">Option</text>
</a>
</g>
</g>
<!-- Node15&#45;&gt;Node23 -->
<g id="edge23" class="edge">
<title>Node15&#45;&gt;Node23</title>
<path fill="none" stroke="midnightblue" d="M630.23,-196.6C645.49,-198.37 661.61,-200.25 677.22,-202.06"/>
<polygon fill="midnightblue" stroke="midnightblue" points="677.05,-205.56 687.39,-203.24 677.86,-198.61 677.05,-205.56"/>
</g>
<!-- Node25 -->
<g id="node25" class="node">
<title>Node25</title>
<g id="a_node25"><a xlink:href="classQuantConnect_1_1Parse.html#a059d312ae5ffeb051e50a1464236116c" target="_top" xlink:title="Parses the provided value as a System.DateTime using System.DateTime.ParseExact(string,...">
<polygon fill="white" stroke="black" points="685,-148.5 685,-178.5 851,-178.5 851,-148.5 685,-148.5"/>
<text text-anchor="start" x="693" y="-166.5" font-family="Helvetica,sans-Serif" font-size="10.00">QuantConnect.Parse.DateTime</text>
<text text-anchor="middle" x="768" y="-155.5" font-family="Helvetica,sans-Serif" font-size="10.00">Exact</text>
</a>
</g>
</g>
<!-- Node15&#45;&gt;Node25 -->
<g id="edge26" class="edge">
<title>Node15&#45;&gt;Node25</title>
<path fill="none" stroke="midnightblue" d="M630.23,-178.77C644.67,-177.16 659.87,-175.46 674.68,-173.81"/>
<polygon fill="midnightblue" stroke="midnightblue" points="675.3,-177.26 684.85,-172.67 674.52,-170.3 675.3,-177.26"/>
</g>
<!-- Node26 -->
<g id="node26" class="node">
<title>Node26</title>
<g id="a_node26"><a xlink:href="classQuantConnect_1_1Parse.html#aac0a89458d90280d2b3b04afa9e197a2" target="_top" xlink:title="Parses the provided value as a decimal using CultureInfo.InvariantCulture">
<polygon fill="white" stroke="black" points="689,-110 689,-129 847,-129 847,-110 689,-110"/>
<text text-anchor="middle" x="768" y="-117" font-family="Helvetica,sans-Serif" font-size="10.00">QuantConnect.Parse.Decimal</text>
</a>
</g>
</g>
<!-- Node15&#45;&gt;Node26 -->
<g id="edge27" class="edge">
<title>Node15&#45;&gt;Node26</title>
<path fill="none" stroke="midnightblue" d="M586.24,-172.46C611.29,-161.88 646.29,-147.98 678,-138.5 686.78,-135.87 696.15,-133.46 705.4,-131.3"/>
<polygon fill="midnightblue" stroke="midnightblue" points="706.36,-134.67 715.35,-129.06 704.82,-127.84 706.36,-134.67"/>
</g>
<!-- Node27 -->
<g id="node27" class="node">
<title>Node27</title>
<g id="a_node27"><a xlink:href="classQuantConnect_1_1Securities_1_1Future_1_1FuturesExpiryFunctions.html#a0d6bb7f1fd71689f70b115ccb0f470e0" target="_top" xlink:title="Method to retrieve the Function for a specific future symbol">
<polygon fill="white" stroke="black" points="684.5,-50 684.5,-91 851.5,-91 851.5,-50 684.5,-50"/>
<text text-anchor="start" x="692.5" y="-79" font-family="Helvetica,sans-Serif" font-size="10.00">QuantConnect.Securities.</text>
<text text-anchor="start" x="692.5" y="-68" font-family="Helvetica,sans-Serif" font-size="10.00">Future.FuturesExpiryFunctions.</text>
<text text-anchor="middle" x="768" y="-57" font-family="Helvetica,sans-Serif" font-size="10.00">FuturesExpiryFunction</text>
</a>
</g>
</g>
<!-- Node15&#45;&gt;Node27 -->
<g id="edge28" class="edge">
<title>Node15&#45;&gt;Node27</title>
<path fill="none" stroke="midnightblue" d="M570.18,-172.49C593.8,-153.6 636.89,-121.11 678,-100.5 681.77,-98.61 685.69,-96.79 689.69,-95.06"/>
<polygon fill="midnightblue" stroke="midnightblue" points="691.22,-98.21 699.12,-91.16 688.55,-91.74 691.22,-98.21"/>
</g>
<!-- Node17 -->
<g id="node17" class="node">
<title>Node17</title>
<g id="a_node17"><a xlink:href="classQuantConnect_1_1SecurityIdentifier.html#ad50a891c97cb0c084a9e2aa43607ed66" target="_top" xlink:title="Generates a new SecurityIdentifier for a future">
<polygon fill="white" stroke="black" points="914.5,-279.5 914.5,-309.5 1088.5,-309.5 1088.5,-279.5 914.5,-279.5"/>
<text text-anchor="start" x="922.5" y="-297.5" font-family="Helvetica,sans-Serif" font-size="10.00">QuantConnect.SecurityIdentifier.</text>
<text text-anchor="middle" x="1001.5" y="-286.5" font-family="Helvetica,sans-Serif" font-size="10.00">GenerateFuture</text>
</a>
</g>
</g>
<!-- Node16&#45;&gt;Node17 -->
<g id="edge16" class="edge">
<title>Node16&#45;&gt;Node17</title>
<path fill="none" stroke="midnightblue" d="M848.67,-272.86C866.63,-275.42 885.88,-278.16 904.43,-280.81"/>
<polygon fill="midnightblue" stroke="midnightblue" points="903.96,-284.27 914.35,-282.22 904.95,-277.34 903.96,-284.27"/>
</g>
<!-- Node18 -->
<g id="node18" class="node">
<title>Node18</title>
<g id="a_node18"><a xlink:href="classQuantConnect_1_1Symbol.html#a59b0795fa21f46c306deb5576fa03bb9" target="_top" xlink:title="Centralized helper method to resolve alias for a symbol">
<polygon fill="white" stroke="black" points="1145,-222 1145,-241 1315,-241 1315,-222 1145,-222"/>
<text text-anchor="middle" x="1230" y="-229" font-family="Helvetica,sans-Serif" font-size="10.00">QuantConnect.Symbol.GetAlias</text>
</a>
</g>
</g>
<!-- Node16&#45;&gt;Node18 -->
<g id="edge17" class="edge">
<title>Node16&#45;&gt;Node18</title>
<path fill="none" stroke="midnightblue" d="M848.6,-256.31C928.17,-251.12 1050.49,-243.14 1134.84,-237.64"/>
<polygon fill="midnightblue" stroke="midnightblue" points="1135.18,-241.13 1144.93,-236.98 1134.73,-234.14 1135.18,-241.13"/>
</g>
<!-- Node22 -->
<g id="node22" class="node">
<title>Node22</title>
<g id="a_node22"><a xlink:href="classQuantConnect_1_1Symbol.html#a59158f74116be3dad0ea0f3f3f134416" target="_top" xlink:title="Initializes a new instance of the Symbol class">
<polygon fill="white" stroke="black" points="919,-203 919,-222 1084,-222 1084,-203 919,-203"/>
<text text-anchor="middle" x="1001.5" y="-210" font-family="Helvetica,sans-Serif" font-size="10.00">QuantConnect.Symbol.Symbol</text>
</a>
</g>
</g>
<!-- Node16&#45;&gt;Node22 -->
<g id="edge21" class="edge">
<title>Node16&#45;&gt;Node22</title>
<path fill="none" stroke="midnightblue" d="M840.03,-246.47C873.97,-239.28 913.97,-230.81 945.55,-224.13"/>
<polygon fill="midnightblue" stroke="midnightblue" points="946.43,-227.52 955.49,-222.03 944.98,-220.67 946.43,-227.52"/>
</g>
<!-- Node19 -->
<g id="node19" class="node">
<title>Node19</title>
<g id="a_node19"><a xlink:href="classQuantConnect_1_1SymbolRepresentation.html#abe54ff47eb211a2a99fb47b72683e3b9" target="_top" xlink:title="Returns future symbol ticker from underlying and expiration date. Function can generate tickers of tw...">
<polygon fill="white" stroke="black" points="1351,-241.5 1351,-271.5 1554,-271.5 1554,-241.5 1351,-241.5"/>
<text text-anchor="start" x="1359" y="-259.5" font-family="Helvetica,sans-Serif" font-size="10.00">QuantConnect.SymbolRepresentation.</text>
<text text-anchor="middle" x="1452.5" y="-248.5" font-family="Helvetica,sans-Serif" font-size="10.00">GenerateFutureTicker</text>
</a>
</g>
</g>
<!-- Node18&#45;&gt;Node19 -->
<g id="edge18" class="edge">
<title>Node18&#45;&gt;Node19</title>
<path fill="none" stroke="midnightblue" d="M1314.99,-241.02C1323.39,-241.97 1332,-242.95 1340.62,-243.93"/>
<polygon fill="midnightblue" stroke="midnightblue" points="1340.4,-247.43 1350.73,-245.07 1341.19,-240.47 1340.4,-247.43"/>
</g>
<!-- Node21 -->
<g id="node21" class="node">
<title>Node21</title>
<g id="a_node21"><a xlink:href="classQuantConnect_1_1SymbolRepresentation.html#ab133044f5cf8c16e700190a2202b215e" target="_top" xlink:title="Returns option symbol ticker in accordance with OSI symbology More information can be found at http:/...">
<polygon fill="white" stroke="black" points="1351,-192.5 1351,-222.5 1554,-222.5 1554,-192.5 1351,-192.5"/>
<text text-anchor="start" x="1359" y="-210.5" font-family="Helvetica,sans-Serif" font-size="10.00">QuantConnect.SymbolRepresentation.</text>
<text text-anchor="middle" x="1452.5" y="-199.5" font-family="Helvetica,sans-Serif" font-size="10.00">GenerateOptionTickerOSI</text>
</a>
</g>
</g>
<!-- Node18&#45;&gt;Node21 -->
<g id="edge20" class="edge">
<title>Node18&#45;&gt;Node21</title>
<path fill="none" stroke="midnightblue" d="M1315.31,-222.32C1323.69,-221.41 1332.3,-220.47 1340.9,-219.54"/>
<polygon fill="midnightblue" stroke="midnightblue" points="1341.43,-223 1350.99,-218.44 1340.67,-216.04 1341.43,-223"/>
</g>
<!-- Node20 -->
<g id="node20" class="node">
<title>Node20</title>
<g id="a_node20"><a xlink:href="classQuantConnect_1_1Securities_1_1Future_1_1FuturesExpiryUtilityFunctions.html#a4ccb1e2f2fe40ff09785a74a02f26df1" target="_top" xlink:title="Gets the number of months between the contract month and the expiry date.">
<polygon fill="white" stroke="black" points="1590,-236 1590,-277 1856,-277 1856,-236 1590,-236"/>
<text text-anchor="start" x="1598" y="-265" font-family="Helvetica,sans-Serif" font-size="10.00">QuantConnect.Securities.</text>
<text text-anchor="start" x="1598" y="-254" font-family="Helvetica,sans-Serif" font-size="10.00">Future.FuturesExpiryUtilityFunctions.</text>
<text text-anchor="middle" x="1723" y="-243" font-family="Helvetica,sans-Serif" font-size="10.00">GetDeltaBetweenContractMonthAndContractExpiry</text>
</a>
</g>
</g>
<!-- Node19&#45;&gt;Node20 -->
<g id="edge19" class="edge">
<title>Node19&#45;&gt;Node20</title>
<path fill="none" stroke="midnightblue" d="M1554.24,-256.5C1562.59,-256.5 1571.11,-256.5 1579.68,-256.5"/>
<polygon fill="midnightblue" stroke="midnightblue" points="1579.76,-260 1589.76,-256.5 1579.76,-253 1579.76,-260"/>
</g>
<!-- Node22&#45;&gt;Node18 -->
<g id="edge22" class="edge">
<title>Node22&#45;&gt;Node18</title>
<path fill="none" stroke="midnightblue" d="M1084.27,-219.36C1100.54,-220.72 1117.74,-222.17 1134.4,-223.56"/>
<polygon fill="midnightblue" stroke="midnightblue" points="1134.42,-227.08 1144.68,-224.43 1135.01,-220.1 1134.42,-227.08"/>
</g>
<!-- Node23&#45;&gt;Node22 -->
<g id="edge25" class="edge">
<title>Node23&#45;&gt;Node22</title>
<path fill="none" stroke="midnightblue" d="M848.67,-212.5C867.94,-212.5 888.69,-212.5 908.47,-212.5"/>
<polygon fill="midnightblue" stroke="midnightblue" points="908.72,-216 918.72,-212.5 908.72,-209 908.72,-216"/>
</g>
<!-- Node24 -->
<g id="node24" class="node">
<title>Node24</title>
<g id="a_node24"><a xlink:href="classQuantConnect_1_1SecurityIdentifier.html#a0c21d7880c9fdd260883d11ea0c99a00" target="_top" xlink:title="Helper overload that will search the mapfiles to resolve the first date. This implementation uses the...">
<polygon fill="white" stroke="black" points="914.5,-153.5 914.5,-183.5 1088.5,-183.5 1088.5,-153.5 914.5,-153.5"/>
<text text-anchor="start" x="922.5" y="-171.5" font-family="Helvetica,sans-Serif" font-size="10.00">QuantConnect.SecurityIdentifier.</text>
<text text-anchor="middle" x="1001.5" y="-160.5" font-family="Helvetica,sans-Serif" font-size="10.00">GenerateEquity</text>
</a>
</g>
</g>
<!-- Node23&#45;&gt;Node24 -->
<g id="edge24" class="edge">
<title>Node23&#45;&gt;Node24</title>
<path fill="none" stroke="midnightblue" d="M848.02,-197.48C868.49,-193.59 890.66,-189.38 911.6,-185.4"/>
<polygon fill="midnightblue" stroke="midnightblue" points="912.27,-188.83 921.44,-183.53 910.96,-181.96 912.27,-188.83"/>
</g>
<!-- Node29 -->
<g id="node29" class="node">
<title>Node29</title>
<g id="a_node29"><a xlink:href="interfaceQuantConnect_1_1Logging_1_1ILogHandler.html#a3fb71a33ac66129240b63f12b6fcda3b" target="_top" xlink:title="Write debug message to log">
<polygon fill="white" stroke="black" points="693,-0.5 693,-30.5 843,-30.5 843,-0.5 693,-0.5"/>
<text text-anchor="start" x="701" y="-18.5" font-family="Helvetica,sans-Serif" font-size="10.00">QuantConnect.Logging.ILog</text>
<text text-anchor="middle" x="768" y="-7.5" font-family="Helvetica,sans-Serif" font-size="10.00">Handler.Trace</text>
</a>
</g>
</g>
<!-- Node28&#45;&gt;Node29 -->
<g id="edge30" class="edge">
<title>Node28&#45;&gt;Node29</title>
<path fill="none" stroke="midnightblue" d="M588.05,-74.41C613.06,-64.2 647.28,-50.76 678,-40.5 685.28,-38.07 692.94,-35.67 700.59,-33.39"/>
<polygon fill="midnightblue" stroke="midnightblue" points="701.64,-36.73 710.25,-30.55 699.67,-30.01 701.64,-36.73"/>
</g>
</g>
</svg>
