<?xml version="1.0" encoding="UTF-8" standalone="no"?>
<!DOCTYPE svg PUBLIC "-//W3C//DTD SVG 1.1//EN"
 "http://www.w3.org/Graphics/SVG/1.1/DTD/svg11.dtd">
<!-- Generated by graphviz version 2.43.0 (0)
 -->
<!-- Title: QuantConnect.Report.Report.Report Pages: 1 -->
<!--zoomable 225 -->
<svg id="main" version="1.1" xmlns="http://www.w3.org/2000/svg" xmlns:xlink="http://www.w3.org/1999/xlink" xml:space="preserve" onload="init(evt)">
<style type="text/css"><![CDATA[
.edge:hover path { stroke: red; }
.edge:hover polygon { stroke: red; fill: red; }
]]></style>
<script type="text/javascript"><![CDATA[
var edges = document.getElementsByTagName('g');
if (edges && edges.length) {
  for (var i=0;i<edges.length;i++) {
    if (edges[i].id.substr(0,4)=='edge') {
      edges[i].setAttribute('class','edge');
    }
  }
}
]]></script>
        <defs>
                <circle id="rim" cx="0" cy="0" r="7"/>
                <circle id="rim2" cx="0" cy="0" r="3.5"/>
                <g id="zoomPlus">
                        <use xlink:href="#rim" fill="#404040">
                                <set attributeName="fill" to="#808080" begin="zoomplus.mouseover" end="zoomplus.mouseout"/>
                        </use>
                        <path d="M-4,0h8M0,-4v8" fill="none" stroke="white" stroke-width="1.5" pointer-events="none"/>
                </g>
                <g id="zoomMin">
                        <use xlink:href="#rim" fill="#404040">
                                <set attributeName="fill" to="#808080" begin="zoomminus.mouseover" end="zoomminus.mouseout"/>
                        </use>
                        <path d="M-4,0h8" fill="none" stroke="white" stroke-width="1.5" pointer-events="none"/>
                </g>
                <g id="dirArrow">
                        <path fill="none" stroke="white" stroke-width="1.5" d="M0,-3.0v7 M-2.5,-0.5L0,-3.0L2.5,-0.5"/>
                </g>
               <g id="resetDef">
                       <use xlink:href="#rim2" fill="#404040">
                               <set attributeName="fill" to="#808080" begin="reset.mouseover" end="reset.mouseout"/>
                       </use>
               </g>
        </defs>

<script type="text/javascript">
var viewWidth = 957;
var viewHeight = 225;
var sectionId = 'dynsection-0';
</script>
<script xlink:href="svgpan.js"/>
<svg id="graph" class="graph">
<g id="viewport">
<title>QuantConnect.Report.Report.Report</title>
<polygon fill="white" stroke="transparent" points="-4,4 -4,-221 953,-221 953,4 -4,4"/>
<!-- Node1 -->
<g id="node1" class="node">
<title>Node1</title>
<g id="a_node1"><a xlink:title="Create beautiful HTML and PDF Reports based on backtest and live data.">
<polygon fill="#bfbfbf" stroke="black" points="0,-93.5 0,-123.5 159,-123.5 159,-93.5 0,-93.5"/>
<text text-anchor="start" x="8" y="-111.5" font-family="Helvetica,sans-Serif" font-size="10.00">QuantConnect.Report.Report.</text>
<text text-anchor="middle" x="79.5" y="-100.5" font-family="Helvetica,sans-Serif" font-size="10.00">Report</text>
</a>
</g>
</g>
<!-- Node2 -->
<g id="node2" class="node">
<title>Node2</title>
<g id="a_node2"><a xlink:href="classQuantConnect_1_1Report_1_1ResultsUtil.html#afb63ac3428ae3c571cd401844eba9bc7" target="_top" xlink:title="Get the equity chart points">
<polygon fill="white" stroke="black" points="206,-186.5 206,-216.5 366,-216.5 366,-186.5 206,-186.5"/>
<text text-anchor="start" x="214" y="-204.5" font-family="Helvetica,sans-Serif" font-size="10.00">QuantConnect.Report.Results</text>
<text text-anchor="middle" x="286" y="-193.5" font-family="Helvetica,sans-Serif" font-size="10.00">Util.EquityPoints</text>
</a>
</g>
</g>
<!-- Node1&#45;&gt;Node2 -->
<g id="edge1" class="edge">
<title>Node1&#45;&gt;Node2</title>
<path fill="none" stroke="midnightblue" d="M101.48,-123.63C123.73,-139.08 160.39,-162.81 195,-177.5 199.93,-179.59 205.09,-181.55 210.34,-183.36"/>
<polygon fill="midnightblue" stroke="midnightblue" points="209.26,-186.69 219.86,-186.48 211.44,-180.04 209.26,-186.69"/>
</g>
<!-- Node6 -->
<g id="node6" class="node">
<title>Node6</title>
<g id="a_node6"><a xlink:href="classQuantConnect_1_1Report_1_1PortfolioLooper.html#a7890d0a50af6d8c64a10865f34206496" target="_top" xlink:title="Gets the point in time portfolio over multiple deployments">
<polygon fill="white" stroke="black" points="203.5,-137.5 203.5,-167.5 368.5,-167.5 368.5,-137.5 203.5,-137.5"/>
<text text-anchor="start" x="211.5" y="-155.5" font-family="Helvetica,sans-Serif" font-size="10.00">QuantConnect.Report.Portfolio</text>
<text text-anchor="middle" x="286" y="-144.5" font-family="Helvetica,sans-Serif" font-size="10.00">Looper.FromOrders</text>
</a>
</g>
</g>
<!-- Node1&#45;&gt;Node6 -->
<g id="edge5" class="edge">
<title>Node1&#45;&gt;Node6</title>
<path fill="none" stroke="midnightblue" d="M150.31,-123.52C167.98,-127.32 187.09,-131.43 205.21,-135.33"/>
<polygon fill="midnightblue" stroke="midnightblue" points="204.65,-138.79 215.16,-137.47 206.12,-131.95 204.65,-138.79"/>
</g>
<!-- Node7 -->
<g id="node7" class="node">
<title>Node7</title>
<g id="a_node7"><a xlink:href="classQuantConnect_1_1Logging_1_1Log.html#a4e55477fbc790846b74550a57198cea9" target="_top" xlink:title="Log trace">
<polygon fill="white" stroke="black" points="420,-98.5 420,-128.5 570,-128.5 570,-98.5 420,-98.5"/>
<text text-anchor="start" x="428" y="-116.5" font-family="Helvetica,sans-Serif" font-size="10.00">QuantConnect.Logging.Log.</text>
<text text-anchor="middle" x="495" y="-105.5" font-family="Helvetica,sans-Serif" font-size="10.00">Trace</text>
</a>
</g>
</g>
<!-- Node1&#45;&gt;Node7 -->
<g id="edge13" class="edge">
<title>Node1&#45;&gt;Node7</title>
<path fill="none" stroke="midnightblue" d="M159.25,-109.45C230.86,-110.32 336.26,-111.59 409.59,-112.48"/>
<polygon fill="midnightblue" stroke="midnightblue" points="409.67,-115.98 419.72,-112.6 409.76,-108.98 409.67,-115.98"/>
</g>
<!-- Node9 -->
<g id="node9" class="node">
<title>Node9</title>
<g id="a_node9"><a xlink:href="classQuantConnect_1_1Configuration_1_1Config.html#aaabf1286e33a675b2e116f3289981839" target="_top" xlink:title="Get the matching config setting from the file searching for this key.">
<polygon fill="white" stroke="black" points="207.5,-49.5 207.5,-79.5 364.5,-79.5 364.5,-49.5 207.5,-49.5"/>
<text text-anchor="start" x="215.5" y="-67.5" font-family="Helvetica,sans-Serif" font-size="10.00">QuantConnect.Configuration.</text>
<text text-anchor="middle" x="286" y="-56.5" font-family="Helvetica,sans-Serif" font-size="10.00">Config.Get</text>
</a>
</g>
</g>
<!-- Node1&#45;&gt;Node9 -->
<g id="edge8" class="edge">
<title>Node1&#45;&gt;Node9</title>
<path fill="none" stroke="midnightblue" d="M150.31,-93.48C167.98,-89.68 187.09,-85.57 205.21,-81.67"/>
<polygon fill="midnightblue" stroke="midnightblue" points="206.12,-85.05 215.16,-79.53 204.65,-78.21 206.12,-85.05"/>
</g>
<!-- Node12 -->
<g id="node12" class="node">
<title>Node12</title>
<g id="a_node12"><a xlink:href="classQuantConnect_1_1Report_1_1PointInTimePortfolio.html#a73f07b83eb8db75f9e451ec2c5a45004" target="_top" xlink:title="Filters out any empty holdings from the current Holdings">
<polygon fill="white" stroke="black" points="195,-0.5 195,-30.5 377,-30.5 377,-0.5 195,-0.5"/>
<text text-anchor="start" x="203" y="-18.5" font-family="Helvetica,sans-Serif" font-size="10.00">QuantConnect.Report.Point</text>
<text text-anchor="middle" x="286" y="-7.5" font-family="Helvetica,sans-Serif" font-size="10.00">InTimePortfolio.NoEmptyHoldings</text>
</a>
</g>
</g>
<!-- Node1&#45;&gt;Node12 -->
<g id="edge12" class="edge">
<title>Node1&#45;&gt;Node12</title>
<path fill="none" stroke="midnightblue" d="M101.96,-93.39C124.3,-78.24 160.77,-55.11 195,-40.5 200.68,-38.08 206.66,-35.82 212.72,-33.74"/>
<polygon fill="midnightblue" stroke="midnightblue" points="213.88,-37.04 222.29,-30.61 211.7,-30.39 213.88,-37.04"/>
</g>
<!-- Node3 -->
<g id="node3" class="node">
<title>Node3</title>
<g id="a_node3"><a xlink:href="classQuantConnect_1_1Time.html#a8cfbdb6709b3fff2bcf96207bbd5a718" target="_top" xlink:title="Create a C# DateTime from a UnixTimestamp">
<polygon fill="white" stroke="black" points="413,-186.5 413,-216.5 577,-216.5 577,-186.5 413,-186.5"/>
<text text-anchor="start" x="421" y="-204.5" font-family="Helvetica,sans-Serif" font-size="10.00">QuantConnect.Time.UnixTime</text>
<text text-anchor="middle" x="495" y="-193.5" font-family="Helvetica,sans-Serif" font-size="10.00">StampToDateTime</text>
</a>
</g>
</g>
<!-- Node2&#45;&gt;Node3 -->
<g id="edge2" class="edge">
<title>Node2&#45;&gt;Node3</title>
<path fill="none" stroke="midnightblue" d="M366.14,-201.5C378.09,-201.5 390.5,-201.5 402.68,-201.5"/>
<polygon fill="midnightblue" stroke="midnightblue" points="402.84,-205 412.84,-201.5 402.84,-198 402.84,-205"/>
</g>
<!-- Node4 -->
<g id="node4" class="node">
<title>Node4</title>
<g id="a_node4"><a xlink:href="classQuantConnect_1_1Logging_1_1Log.html#af0e7955911bc7664b37661b2a303a9e3" target="_top" xlink:title="Log error">
<polygon fill="white" stroke="black" points="613,-186.5 613,-216.5 763,-216.5 763,-186.5 613,-186.5"/>
<text text-anchor="start" x="621" y="-204.5" font-family="Helvetica,sans-Serif" font-size="10.00">QuantConnect.Logging.Log.</text>
<text text-anchor="middle" x="688" y="-193.5" font-family="Helvetica,sans-Serif" font-size="10.00">Error</text>
</a>
</g>
</g>
<!-- Node3&#45;&gt;Node4 -->
<g id="edge3" class="edge">
<title>Node3&#45;&gt;Node4</title>
<path fill="none" stroke="midnightblue" d="M577,-201.5C585.55,-201.5 594.26,-201.5 602.85,-201.5"/>
<polygon fill="midnightblue" stroke="midnightblue" points="602.85,-205 612.85,-201.5 602.85,-198 602.85,-205"/>
</g>
<!-- Node5 -->
<g id="node5" class="node">
<title>Node5</title>
<g id="a_node5"><a xlink:href="interfaceQuantConnect_1_1Logging_1_1ILogHandler.html#a35373a0c5d76031fa5ccf5dc39e5c25d" target="_top" xlink:title="Write error message to log">
<polygon fill="white" stroke="black" points="799,-186.5 799,-216.5 949,-216.5 949,-186.5 799,-186.5"/>
<text text-anchor="start" x="807" y="-204.5" font-family="Helvetica,sans-Serif" font-size="10.00">QuantConnect.Logging.ILog</text>
<text text-anchor="middle" x="874" y="-193.5" font-family="Helvetica,sans-Serif" font-size="10.00">Handler.Error</text>
</a>
</g>
</g>
<!-- Node4&#45;&gt;Node5 -->
<g id="edge4" class="edge">
<title>Node4&#45;&gt;Node5</title>
<path fill="none" stroke="midnightblue" d="M763.04,-201.5C771.51,-201.5 780.19,-201.5 788.78,-201.5"/>
<polygon fill="midnightblue" stroke="midnightblue" points="788.81,-205 798.81,-201.5 788.81,-198 788.81,-205"/>
</g>
<!-- Node6&#45;&gt;Node7 -->
<g id="edge6" class="edge">
<title>Node6&#45;&gt;Node7</title>
<path fill="none" stroke="midnightblue" d="M366.74,-137.48C380.76,-134.84 395.39,-132.08 409.54,-129.41"/>
<polygon fill="midnightblue" stroke="midnightblue" points="410.56,-132.78 419.74,-127.49 409.26,-125.9 410.56,-132.78"/>
</g>
<!-- Node8 -->
<g id="node8" class="node">
<title>Node8</title>
<g id="a_node8"><a xlink:href="interfaceQuantConnect_1_1Logging_1_1ILogHandler.html#a3fb71a33ac66129240b63f12b6fcda3b" target="_top" xlink:title="Write debug message to log">
<polygon fill="white" stroke="black" points="613,-98.5 613,-128.5 763,-128.5 763,-98.5 613,-98.5"/>
<text text-anchor="start" x="621" y="-116.5" font-family="Helvetica,sans-Serif" font-size="10.00">QuantConnect.Logging.ILog</text>
<text text-anchor="middle" x="688" y="-105.5" font-family="Helvetica,sans-Serif" font-size="10.00">Handler.Trace</text>
</a>
</g>
</g>
<!-- Node7&#45;&gt;Node8 -->
<g id="edge7" class="edge">
<title>Node7&#45;&gt;Node8</title>
<path fill="none" stroke="midnightblue" d="M570.12,-113.5C580.77,-113.5 591.79,-113.5 602.62,-113.5"/>
<polygon fill="midnightblue" stroke="midnightblue" points="602.92,-117 612.92,-113.5 602.92,-110 602.92,-117"/>
</g>
<!-- Node9&#45;&gt;Node7 -->
<g id="edge11" class="edge">
<title>Node9&#45;&gt;Node7</title>
<path fill="none" stroke="midnightblue" d="M350.51,-79.53C372.67,-84.78 397.71,-90.71 420.6,-96.13"/>
<polygon fill="midnightblue" stroke="midnightblue" points="420.07,-99.6 430.61,-98.49 421.68,-92.78 420.07,-99.6"/>
</g>
<!-- Node10 -->
<g id="node10" class="node">
<title>Node10</title>
<g id="a_node10"><a xlink:href="classQuantConnect_1_1Configuration_1_1Config.html#a1504ca19b3759d008b090375ddf4ad10" target="_top" xlink:title="Gets the currently selected environment. If sub&#45;environments are defined, they&#39;ll be returned as {env...">
<polygon fill="white" stroke="black" points="416.5,-49.5 416.5,-79.5 573.5,-79.5 573.5,-49.5 416.5,-49.5"/>
<text text-anchor="start" x="424.5" y="-67.5" font-family="Helvetica,sans-Serif" font-size="10.00">QuantConnect.Configuration.</text>
<text text-anchor="middle" x="495" y="-56.5" font-family="Helvetica,sans-Serif" font-size="10.00">Config.GetEnvironment</text>
</a>
</g>
</g>
<!-- Node9&#45;&gt;Node10 -->
<g id="edge9" class="edge">
<title>Node9&#45;&gt;Node10</title>
<path fill="none" stroke="midnightblue" d="M364.67,-64.5C378.11,-64.5 392.17,-64.5 405.86,-64.5"/>
<polygon fill="midnightblue" stroke="midnightblue" points="406.24,-68 416.24,-64.5 406.24,-61 406.24,-68"/>
</g>
<!-- Node11 -->
<g id="node11" class="node">
<title>Node11</title>
<g id="a_node11"><a xlink:href="classQuantConnect_1_1Configuration_1_1Config.html#a9ed01bc116e8181a7557f3e668f34691" target="_top" xlink:title="Gets the underlying JToken for the specified key">
<polygon fill="white" stroke="black" points="416.5,-0.5 416.5,-30.5 573.5,-30.5 573.5,-0.5 416.5,-0.5"/>
<text text-anchor="start" x="424.5" y="-18.5" font-family="Helvetica,sans-Serif" font-size="10.00">QuantConnect.Configuration.</text>
<text text-anchor="middle" x="495" y="-7.5" font-family="Helvetica,sans-Serif" font-size="10.00">Config.GetToken</text>
</a>
</g>
</g>
<!-- Node9&#45;&gt;Node11 -->
<g id="edge10" class="edge">
<title>Node9&#45;&gt;Node11</title>
<path fill="none" stroke="midnightblue" d="M350.51,-49.47C372.67,-44.22 397.71,-38.29 420.6,-32.87"/>
<polygon fill="midnightblue" stroke="midnightblue" points="421.68,-36.22 430.61,-30.51 420.07,-29.4 421.68,-36.22"/>
</g>
</g>
</svg>
        <g id="navigator" transform="translate(0 0)" fill="#404254">
                <rect fill="#f2f5e9" fill-opacity="0.5" stroke="#606060" stroke-width=".5" x="0" y="0" width="60" height="60"/>
                <use id="zoomplus" xlink:href="#zoomPlus" x="17" y="9" onmousedown="handleZoom(evt,'in')"/>
                <use id="zoomminus" xlink:href="#zoomMin" x="42" y="9" onmousedown="handleZoom(evt,'out')"/>
                <use id="reset" xlink:href="#resetDef" x="30" y="36" onmousedown="handleReset()"/>
                <g id="arrowUp" xlink:href="#dirArrow" transform="translate(30 24)" onmousedown="handlePan(0,-1)">
                  <use xlink:href="#rim" fill="#404040">
                        <set attributeName="fill" to="#808080" begin="arrowUp.mouseover" end="arrowUp.mouseout"/>
                  </use>
                  <path fill="none" stroke="white" stroke-width="1.5" d="M0,-3.0v7 M-2.5,-0.5L0,-3.0L2.5,-0.5"/>
                </g>
                <g id="arrowRight" xlink:href="#dirArrow" transform="rotate(90) translate(36 -43)" onmousedown="handlePan(1,0)">
                  <use xlink:href="#rim" fill="#404040">
                        <set attributeName="fill" to="#808080" begin="arrowRight.mouseover" end="arrowRight.mouseout"/>
                  </use>
                  <path fill="none" stroke="white" stroke-width="1.5" d="M0,-3.0v7 M-2.5,-0.5L0,-3.0L2.5,-0.5"/>
                </g>
                <g id="arrowDown" xlink:href="#dirArrow" transform="rotate(180) translate(-30 -48)" onmousedown="handlePan(0,1)">
                  <use xlink:href="#rim" fill="#404040">
                        <set attributeName="fill" to="#808080" begin="arrowDown.mouseover" end="arrowDown.mouseout"/>
                  </use>
                  <path fill="none" stroke="white" stroke-width="1.5" d="M0,-3.0v7 M-2.5,-0.5L0,-3.0L2.5,-0.5"/>
                </g>
                <g id="arrowLeft" xlink:href="#dirArrow" transform="rotate(270) translate(-36 17)" onmousedown="handlePan(-1,0)">
                  <use xlink:href="#rim" fill="#404040">
                        <set attributeName="fill" to="#808080" begin="arrowLeft.mouseover" end="arrowLeft.mouseout"/>
                  </use>
                  <path fill="none" stroke="white" stroke-width="1.5" d="M0,-3.0v7 M-2.5,-0.5L0,-3.0L2.5,-0.5"/>
                </g>
        </g>
        <svg viewBox="0 0 15 15" width="100%" height="30px" preserveAspectRatio="xMaxYMin meet">
         <g id="arrow_out" transform="scale(0.3 0.3)">
          <a xlink:href="classQuantConnect_1_1Report_1_1Report_a55bfb8f6c42061a887d4b2a3369f20ac_cgraph_org.svg" target="_base">
           <rect id="button" ry="5" rx="5" y="6" x="6" height="38" width="38"
                fill="#f2f5e9" fill-opacity="0.5" stroke="#606060" stroke-width="1.0"/>
           <path id="arrow"
             d="M 11.500037,31.436501 C 11.940474,20.09759 22.043105,11.32322 32.158766,21.979434 L 37.068811,17.246167 C 37.068811,17.246167 37.088388,32 37.088388,32 L 22.160133,31.978069 C 22.160133,31.978069 26.997745,27.140456 26.997745,27.140456 C 18.528582,18.264221 13.291696,25.230495 11.500037,31.436501 z"
             style="fill:#404040;"/>
          </a>
         </g>
        </svg>
</svg>
