<?xml version="1.0" encoding="UTF-8" standalone="no"?>
<!DOCTYPE svg PUBLIC "-//W3C//DTD SVG 1.1//EN"
 "http://www.w3.org/Graphics/SVG/1.1/DTD/svg11.dtd">
<!-- Generated by graphviz version 2.43.0 (0)
 -->
<!-- Title: QuantConnect.Brokerages.BitfinexBrokerageModel.CanSubmitOrder Pages: 1 -->
<svg width="434pt" height="100pt"
 viewBox="0.00 0.00 434.00 99.50" xmlns="http://www.w3.org/2000/svg" xmlns:xlink="http://www.w3.org/1999/xlink">
<g id="graph0" class="graph" transform="scale(1 1) rotate(0) translate(4 95.5)">
<title>QuantConnect.Brokerages.BitfinexBrokerageModel.CanSubmitOrder</title>
<polygon fill="white" stroke="transparent" points="-4,4 -4,-95.5 430,-95.5 430,4 -4,4"/>
<!-- Node1 -->
<g id="node1" class="node">
<title>Node1</title>
<g id="a_node1"><a xlink:title="Returns true if the brokerage could accept this order. This takes into account order type,...">
<polygon fill="#bfbfbf" stroke="black" points="0,-33 0,-63 217,-63 217,-33 0,-33"/>
<text text-anchor="start" x="8" y="-51" font-family="Helvetica,sans-Serif" font-size="10.00">QuantConnect.Brokerages.</text>
<text text-anchor="middle" x="108.5" y="-40" font-family="Helvetica,sans-Serif" font-size="10.00">BitfinexBrokerageModel.CanSubmitOrder</text>
</a>
</g>
</g>
<!-- Node2 -->
<g id="node2" class="node">
<title>Node2</title>
<g id="a_node2"><a xlink:href="classQuantConnect_1_1StringExtensions.html#ac811f94d814b299daefecb076e0a0bf0" target="_top" xlink:title="Non&#45;extension method alias for FormattableString.Invariant This supports the">
<polygon fill="white" stroke="black" points="253,-61 253,-91 426,-91 426,-61 253,-61"/>
<text text-anchor="start" x="261" y="-79" font-family="Helvetica,sans-Serif" font-size="10.00">QuantConnect.StringExtensions.</text>
<text text-anchor="middle" x="339.5" y="-68" font-family="Helvetica,sans-Serif" font-size="10.00">Invariant</text>
</a>
</g>
</g>
<!-- Node1&#45;&gt;Node2 -->
<g id="edge1" class="edge">
<title>Node1&#45;&gt;Node2</title>
<path fill="none" stroke="midnightblue" d="M217.29,-61.18C225.79,-62.22 234.33,-63.26 242.74,-64.29"/>
<polygon fill="midnightblue" stroke="midnightblue" points="242.56,-67.8 252.91,-65.53 243.41,-60.85 242.56,-67.8"/>
</g>
<!-- Node3 -->
<g id="node3" class="node">
<title>Node3</title>
<g id="a_node3"><a xlink:href="classQuantConnect_1_1Brokerages_1_1DefaultBrokerageModel.html#aab045cb269fc0ddda72e6c05c280c2d3" target="_top" xlink:title="Checks if the order quantity is valid, it means, the order size is bigger than the minimum size allow...">
<polygon fill="white" stroke="black" points="256,-0.5 256,-41.5 423,-41.5 423,-0.5 256,-0.5"/>
<text text-anchor="start" x="264" y="-29.5" font-family="Helvetica,sans-Serif" font-size="10.00">QuantConnect.Brokerages.</text>
<text text-anchor="start" x="264" y="-18.5" font-family="Helvetica,sans-Serif" font-size="10.00">DefaultBrokerageModel.IsValid</text>
<text text-anchor="middle" x="339.5" y="-7.5" font-family="Helvetica,sans-Serif" font-size="10.00">OrderSize</text>
</a>
</g>
</g>
<!-- Node1&#45;&gt;Node3 -->
<g id="edge2" class="edge">
<title>Node1&#45;&gt;Node3</title>
<path fill="none" stroke="midnightblue" d="M217.29,-35.29C226.84,-34.17 236.44,-33.03 245.84,-31.92"/>
<polygon fill="midnightblue" stroke="midnightblue" points="246.43,-35.38 255.95,-30.73 245.61,-28.43 246.43,-35.38"/>
</g>
</g>
</svg>
