<?xml version="1.0" encoding="UTF-8" standalone="no"?>
<!DOCTYPE svg PUBLIC "-//W3C//DTD SVG 1.1//EN"
 "http://www.w3.org/Graphics/SVG/1.1/DTD/svg11.dtd">
<!-- Generated by graphviz version 2.43.0 (0)
 -->
<!-- Title: QuantConnect.Indicators.ArmsIndex.RemoveStock Pages: 1 -->
<svg width="541pt" height="39pt"
 viewBox="0.00 0.00 541.00 39.00" xmlns="http://www.w3.org/2000/svg" xmlns:xlink="http://www.w3.org/1999/xlink">
<g id="graph0" class="graph" transform="scale(1 1) rotate(0) translate(4 35)">
<title>QuantConnect.Indicators.ArmsIndex.RemoveStock</title>
<polygon fill="white" stroke="transparent" points="-4,4 -4,-35 537,-35 537,4 -4,4"/>
<!-- Node1 -->
<g id="node1" class="node">
<title>Node1</title>
<g id="a_node1"><a xlink:title="Deprecated">
<polygon fill="#bfbfbf" stroke="black" points="0,-0.5 0,-30.5 140,-30.5 140,-0.5 0,-0.5"/>
<text text-anchor="start" x="8" y="-18.5" font-family="Helvetica,sans-Serif" font-size="10.00">QuantConnect.Indicators.</text>
<text text-anchor="middle" x="70" y="-7.5" font-family="Helvetica,sans-Serif" font-size="10.00">ArmsIndex.RemoveStock</text>
</a>
</g>
</g>
<!-- Node2 -->
<g id="node2" class="node">
<title>Node2</title>
<g id="a_node2"><a xlink:href="classQuantConnect_1_1Indicators_1_1ArmsIndex.html#a86b5c38227b518e3b58ba93af8d6dc26" target="_top" xlink:title="Remove Tracking stock issue">
<polygon fill="white" stroke="black" points="176,-0.5 176,-30.5 316,-30.5 316,-0.5 176,-0.5"/>
<text text-anchor="start" x="184" y="-18.5" font-family="Helvetica,sans-Serif" font-size="10.00">QuantConnect.Indicators.</text>
<text text-anchor="middle" x="246" y="-7.5" font-family="Helvetica,sans-Serif" font-size="10.00">ArmsIndex.Remove</text>
</a>
</g>
</g>
<!-- Node1&#45;&gt;Node2 -->
<g id="edge1" class="edge">
<title>Node1&#45;&gt;Node2</title>
<path fill="none" stroke="midnightblue" d="M140.02,-15.5C148.48,-15.5 157.17,-15.5 165.76,-15.5"/>
<polygon fill="midnightblue" stroke="midnightblue" points="165.78,-19 175.78,-15.5 165.78,-12 165.78,-19"/>
</g>
<!-- Node3 -->
<g id="node3" class="node">
<title>Node3</title>
<g id="a_node3"><a xlink:href="classQuantConnect_1_1Indicators_1_1AdvanceDeclineIndicator.html#a654f26c077b750ecbc5463fa861baf8d" target="_top" xlink:title="Remove tracking asset issue">
<polygon fill="white" stroke="black" points="352,-0.5 352,-30.5 533,-30.5 533,-0.5 352,-0.5"/>
<text text-anchor="start" x="360" y="-18.5" font-family="Helvetica,sans-Serif" font-size="10.00">QuantConnect.Indicators.</text>
<text text-anchor="middle" x="442.5" y="-7.5" font-family="Helvetica,sans-Serif" font-size="10.00">AdvanceDeclineIndicator.Remove</text>
</a>
</g>
</g>
<!-- Node2&#45;&gt;Node3 -->
<g id="edge2" class="edge">
<title>Node2&#45;&gt;Node3</title>
<path fill="none" stroke="midnightblue" d="M316.12,-15.5C324.44,-15.5 333.06,-15.5 341.71,-15.5"/>
<polygon fill="midnightblue" stroke="midnightblue" points="341.85,-19 351.85,-15.5 341.85,-12 341.85,-19"/>
</g>
</g>
</svg>
