<?xml version="1.0" encoding="UTF-8" standalone="no"?>
<!DOCTYPE svg PUBLIC "-//W3C//DTD SVG 1.1//EN"
 "http://www.w3.org/Graphics/SVG/1.1/DTD/svg11.dtd">
<!-- Generated by graphviz version 2.43.0 (0)
 -->
<!-- Title: QuantConnect.Util.CurrencyPairUtil.CurrencyPairDual Pages: 1 -->
<svg width="1068pt" height="219pt"
 viewBox="0.00 0.00 1068.00 219.00" xmlns="http://www.w3.org/2000/svg" xmlns:xlink="http://www.w3.org/1999/xlink">
<g id="graph0" class="graph" transform="scale(1 1) rotate(0) translate(4 215)">
<title>QuantConnect.Util.CurrencyPairUtil.CurrencyPairDual</title>
<polygon fill="white" stroke="transparent" points="-4,4 -4,-215 1064,-215 1064,4 -4,4"/>
<!-- Node1 -->
<g id="node1" class="node">
<title>Node1</title>
<g id="a_node1"><a xlink:title="You have currencyPair AB and one known symbol (A or B). This function returns the other symbol (B or ...">
<polygon fill="#bfbfbf" stroke="black" points="0,-106.5 0,-136.5 152,-136.5 152,-106.5 0,-106.5"/>
<text text-anchor="start" x="8" y="-124.5" font-family="Helvetica,sans-Serif" font-size="10.00">QuantConnect.Util.Currency</text>
<text text-anchor="middle" x="76" y="-113.5" font-family="Helvetica,sans-Serif" font-size="10.00">PairUtil.CurrencyPairDual</text>
</a>
</g>
</g>
<!-- Node2 -->
<g id="node2" class="node">
<title>Node2</title>
<g id="a_node2"><a xlink:href="classQuantConnect_1_1Util_1_1CurrencyPairUtil.html#af097148889729df56066a7f324c558a0" target="_top" xlink:title="Decomposes the specified currency pair into a base and quote currency provided as out parameters">
<polygon fill="white" stroke="black" points="188,-106.5 188,-136.5 362,-136.5 362,-106.5 188,-106.5"/>
<text text-anchor="start" x="196" y="-124.5" font-family="Helvetica,sans-Serif" font-size="10.00">QuantConnect.Util.Currency</text>
<text text-anchor="middle" x="275" y="-113.5" font-family="Helvetica,sans-Serif" font-size="10.00">PairUtil.DecomposeCurrencyPair</text>
</a>
</g>
</g>
<!-- Node1&#45;&gt;Node2 -->
<g id="edge1" class="edge">
<title>Node1&#45;&gt;Node2</title>
<path fill="none" stroke="midnightblue" d="M152.04,-121.5C160.48,-121.5 169.16,-121.5 177.82,-121.5"/>
<polygon fill="midnightblue" stroke="midnightblue" points="177.96,-125 187.96,-121.5 177.96,-118 177.96,-125"/>
</g>
<!-- Node3 -->
<g id="node3" class="node">
<title>Node3</title>
<g id="a_node3"><a xlink:href="classQuantConnect_1_1Securities_1_1Forex_1_1Forex.html#af7fbd660dcbbc46527c61baafe2549bb" target="_top" xlink:title="Decomposes the specified currency pair into a base and quote currency provided as out parameters">
<polygon fill="white" stroke="black" points="403,-180.5 403,-210.5 599,-210.5 599,-180.5 403,-180.5"/>
<text text-anchor="start" x="411" y="-198.5" font-family="Helvetica,sans-Serif" font-size="10.00">QuantConnect.Securities.</text>
<text text-anchor="middle" x="501" y="-187.5" font-family="Helvetica,sans-Serif" font-size="10.00">Forex.Forex.DecomposeCurrencyPair</text>
</a>
</g>
</g>
<!-- Node2&#45;&gt;Node3 -->
<g id="edge2" class="edge">
<title>Node2&#45;&gt;Node3</title>
<path fill="none" stroke="midnightblue" d="M308.62,-136.52C332.89,-147.28 367.05,-161.58 398,-171.5 405.05,-173.76 412.43,-175.9 419.86,-177.92"/>
<polygon fill="midnightblue" stroke="midnightblue" points="419.08,-181.33 429.64,-180.48 420.86,-174.56 419.08,-181.33"/>
</g>
<!-- Node5 -->
<g id="node5" class="node">
<title>Node5</title>
<g id="a_node5"><a xlink:href="classQuantConnect_1_1Securities_1_1Cfd_1_1Cfd.html#a29bdbe6a6d36ed75a1816cad31ee6eaa" target="_top" xlink:title="Decomposes the specified currency pair into a base and quote currency provided as out parameters">
<polygon fill="white" stroke="black" points="413.5,-131.5 413.5,-161.5 588.5,-161.5 588.5,-131.5 413.5,-131.5"/>
<text text-anchor="start" x="421.5" y="-149.5" font-family="Helvetica,sans-Serif" font-size="10.00">QuantConnect.Securities.</text>
<text text-anchor="middle" x="501" y="-138.5" font-family="Helvetica,sans-Serif" font-size="10.00">Cfd.Cfd.DecomposeCurrencyPair</text>
</a>
</g>
</g>
<!-- Node2&#45;&gt;Node5 -->
<g id="edge4" class="edge">
<title>Node2&#45;&gt;Node5</title>
<path fill="none" stroke="midnightblue" d="M362.28,-131.13C375.64,-132.62 389.51,-134.17 403.08,-135.68"/>
<polygon fill="midnightblue" stroke="midnightblue" points="403.06,-139.2 413.39,-136.83 403.84,-132.25 403.06,-139.2"/>
</g>
<!-- Node6 -->
<g id="node6" class="node">
<title>Node6</title>
<g id="a_node6"><a xlink:href="classQuantConnect_1_1Securities_1_1Crypto_1_1Crypto.html#a34f3ec6157d9575e34127b5172706403" target="_top" xlink:title="Decomposes the specified currency pair into a base and quote currency provided as out parameters">
<polygon fill="white" stroke="black" points="398,-82.5 398,-112.5 604,-112.5 604,-82.5 398,-82.5"/>
<text text-anchor="start" x="406" y="-100.5" font-family="Helvetica,sans-Serif" font-size="10.00">QuantConnect.Securities.</text>
<text text-anchor="middle" x="501" y="-89.5" font-family="Helvetica,sans-Serif" font-size="10.00">Crypto.Crypto.DecomposeCurrencyPair</text>
</a>
</g>
</g>
<!-- Node2&#45;&gt;Node6 -->
<g id="edge5" class="edge">
<title>Node2&#45;&gt;Node6</title>
<path fill="none" stroke="midnightblue" d="M362.28,-112.26C370.61,-111.36 379.14,-110.45 387.67,-109.54"/>
<polygon fill="midnightblue" stroke="midnightblue" points="388.1,-113.01 397.67,-108.46 387.35,-106.05 388.1,-113.01"/>
</g>
<!-- Node7 -->
<g id="node7" class="node">
<title>Node7</title>
<g id="a_node7"><a xlink:href="classQuantConnect_1_1Securities_1_1SymbolPropertiesDatabase.html#a3ea48557a7a885c2c53529f8c4b75598" target="_top" xlink:title="Gets the symbol properties for the specified market/symbol/security&#45;type">
<polygon fill="white" stroke="black" points="416,-22 416,-63 586,-63 586,-22 416,-22"/>
<text text-anchor="start" x="424" y="-51" font-family="Helvetica,sans-Serif" font-size="10.00">QuantConnect.Securities.</text>
<text text-anchor="start" x="424" y="-40" font-family="Helvetica,sans-Serif" font-size="10.00">SymbolPropertiesDatabase.Get</text>
<text text-anchor="middle" x="501" y="-29" font-family="Helvetica,sans-Serif" font-size="10.00">SymbolProperties</text>
</a>
</g>
</g>
<!-- Node2&#45;&gt;Node7 -->
<g id="edge6" class="edge">
<title>Node2&#45;&gt;Node7</title>
<path fill="none" stroke="midnightblue" d="M310.9,-106.45C335.11,-96.26 368.24,-82.83 398,-72.5 404.27,-70.33 410.79,-68.17 417.36,-66.07"/>
<polygon fill="midnightblue" stroke="midnightblue" points="418.52,-69.37 427.02,-63.04 416.43,-62.7 418.52,-69.37"/>
</g>
<!-- Node4 -->
<g id="node4" class="node">
<title>Node4</title>
<g id="a_node4"><a xlink:href="classQuantConnect_1_1Util_1_1CurrencyPairUtil.html#ab191629e505a3345a1c993773c2cdf2f" target="_top" xlink:title="Checks whether a symbol is decomposable into a base and a quote currency">
<polygon fill="white" stroke="black" points="654.5,-180.5 654.5,-210.5 817.5,-210.5 817.5,-180.5 654.5,-180.5"/>
<text text-anchor="start" x="662.5" y="-198.5" font-family="Helvetica,sans-Serif" font-size="10.00">QuantConnect.Util.Currency</text>
<text text-anchor="middle" x="736" y="-187.5" font-family="Helvetica,sans-Serif" font-size="10.00">PairUtil.IsForexDecomposable</text>
</a>
</g>
</g>
<!-- Node3&#45;&gt;Node4 -->
<g id="edge3" class="edge">
<title>Node3&#45;&gt;Node4</title>
<path fill="none" stroke="midnightblue" d="M599.13,-195.5C614.04,-195.5 629.39,-195.5 644.16,-195.5"/>
<polygon fill="midnightblue" stroke="midnightblue" points="644.28,-199 654.28,-195.5 644.28,-192 644.28,-199"/>
</g>
<!-- Node8 -->
<g id="node8" class="node">
<title>Node8</title>
<g id="a_node8"><a xlink:href="classQuantConnect_1_1Securities_1_1MarketHoursDatabase.html#aa717adb9bb04be931913608ffd5a2733" target="_top" xlink:title="Gets the correct string symbol to use as a database key">
<polygon fill="white" stroke="black" points="640,-50 640,-91 832,-91 832,-50 640,-50"/>
<text text-anchor="start" x="648" y="-79" font-family="Helvetica,sans-Serif" font-size="10.00">QuantConnect.Securities.</text>
<text text-anchor="start" x="648" y="-68" font-family="Helvetica,sans-Serif" font-size="10.00">MarketHoursDatabase.GetDatabase</text>
<text text-anchor="middle" x="736" y="-57" font-family="Helvetica,sans-Serif" font-size="10.00">SymbolKey</text>
</a>
</g>
</g>
<!-- Node7&#45;&gt;Node8 -->
<g id="edge7" class="edge">
<title>Node7&#45;&gt;Node8</title>
<path fill="none" stroke="midnightblue" d="M586.12,-52.61C600.31,-54.31 615.2,-56.1 629.85,-57.86"/>
<polygon fill="midnightblue" stroke="midnightblue" points="629.59,-61.36 639.94,-59.08 630.42,-54.41 629.59,-61.36"/>
</g>
<!-- Node9 -->
<g id="node9" class="node">
<title>Node9</title>
<g id="a_node9"><a xlink:href="classQuantConnect_1_1Securities_1_1SymbolProperties.html#ad148190d1dfce7109d38d3107b7b8fbf" target="_top" xlink:title="Gets a default instance of the SymbolProperties class for the specified quoteCurrency">
<polygon fill="white" stroke="black" points="656.5,-0.5 656.5,-30.5 815.5,-30.5 815.5,-0.5 656.5,-0.5"/>
<text text-anchor="start" x="664.5" y="-18.5" font-family="Helvetica,sans-Serif" font-size="10.00">QuantConnect.Securities.</text>
<text text-anchor="middle" x="736" y="-7.5" font-family="Helvetica,sans-Serif" font-size="10.00">SymbolProperties.GetDefault</text>
</a>
</g>
</g>
<!-- Node7&#45;&gt;Node9 -->
<g id="edge8" class="edge">
<title>Node7&#45;&gt;Node9</title>
<path fill="none" stroke="midnightblue" d="M586.12,-32.75C605.65,-30.49 626.51,-28.07 646.24,-25.79"/>
<polygon fill="midnightblue" stroke="midnightblue" points="646.91,-29.23 656.44,-24.6 646.11,-22.28 646.91,-29.23"/>
</g>
<!-- Node10 -->
<g id="node10" class="node">
<title>Node10</title>
<g id="a_node10"><a xlink:href="classQuantConnect_1_1Securities_1_1SymbolProperties.html#a0f421617bcddd5b08a830689b1e2dcfa" target="_top" xlink:title="Creates an instance of the SymbolProperties class">
<polygon fill="white" stroke="black" points="868,-0.5 868,-30.5 1060,-30.5 1060,-0.5 868,-0.5"/>
<text text-anchor="start" x="876" y="-18.5" font-family="Helvetica,sans-Serif" font-size="10.00">QuantConnect.Securities.</text>
<text text-anchor="middle" x="964" y="-7.5" font-family="Helvetica,sans-Serif" font-size="10.00">SymbolProperties.SymbolProperties</text>
</a>
</g>
</g>
<!-- Node9&#45;&gt;Node10 -->
<g id="edge9" class="edge">
<title>Node9&#45;&gt;Node10</title>
<path fill="none" stroke="midnightblue" d="M815.73,-15.5C829.26,-15.5 843.51,-15.5 857.61,-15.5"/>
<polygon fill="midnightblue" stroke="midnightblue" points="857.83,-19 867.83,-15.5 857.83,-12 857.83,-19"/>
</g>
</g>
</svg>
