<?xml version="1.0" encoding="UTF-8" standalone="no"?>
<!DOCTYPE svg PUBLIC "-//W3C//DTD SVG 1.1//EN"
 "http://www.w3.org/Graphics/SVG/1.1/DTD/svg11.dtd">
<!-- Generated by graphviz version 2.43.0 (0)
 -->
<!-- Title: QuantConnect.Securities.CurrencyConversion.ConstantCurrencyConversion.Identity Pages: 1 -->
<svg width="416pt" height="50pt"
 viewBox="0.00 0.00 416.00 50.00" xmlns="http://www.w3.org/2000/svg" xmlns:xlink="http://www.w3.org/1999/xlink">
<g id="graph0" class="graph" transform="scale(1 1) rotate(0) translate(4 46)">
<title>QuantConnect.Securities.CurrencyConversion.ConstantCurrencyConversion.Identity</title>
<polygon fill="white" stroke="transparent" points="-4,4 -4,-46 412,-46 412,4 -4,4"/>
<!-- Node1 -->
<g id="node1" class="node">
<title>Node1</title>
<g id="a_node1"><a xlink:title="Creates a new identity conversion, where the conversion rate is set to 1 and the source and destinati...">
<polygon fill="#bfbfbf" stroke="black" points="203,-0.5 203,-41.5 408,-41.5 408,-0.5 203,-0.5"/>
<text text-anchor="start" x="211" y="-29.5" font-family="Helvetica,sans-Serif" font-size="10.00">QuantConnect.Securities.</text>
<text text-anchor="start" x="211" y="-18.5" font-family="Helvetica,sans-Serif" font-size="10.00">CurrencyConversion.ConstantCurrency</text>
<text text-anchor="middle" x="305.5" y="-7.5" font-family="Helvetica,sans-Serif" font-size="10.00">Conversion.Identity</text>
</a>
</g>
</g>
<!-- Node2 -->
<g id="node2" class="node">
<title>Node2</title>
<g id="a_node2"><a xlink:href="classQuantConnect_1_1Securities_1_1Cash.html#a8af2f228ffa12236fec72d5458a031fc" target="_top" xlink:title="Ensures that we have a data feed to convert this currency into the base currency. This will add a Sub...">
<polygon fill="white" stroke="black" points="0,-6 0,-36 167,-36 167,-6 0,-6"/>
<text text-anchor="start" x="8" y="-24" font-family="Helvetica,sans-Serif" font-size="10.00">QuantConnect.Securities.</text>
<text text-anchor="middle" x="83.5" y="-13" font-family="Helvetica,sans-Serif" font-size="10.00">Cash.EnsureCurrencyDataFeed</text>
</a>
</g>
</g>
<!-- Node1&#45;&gt;Node2 -->
<g id="edge1" class="edge">
<title>Node1&#45;&gt;Node2</title>
<path fill="none" stroke="midnightblue" d="M192.78,-21C184.18,-21 175.6,-21 167.24,-21"/>
<polygon fill="midnightblue" stroke="midnightblue" points="192.87,-24.5 202.87,-21 192.87,-17.5 192.87,-24.5"/>
</g>
</g>
</svg>
