<?xml version="1.0" encoding="UTF-8" standalone="no"?>
<!DOCTYPE svg PUBLIC "-//W3C//DTD SVG 1.1//EN"
 "http://www.w3.org/Graphics/SVG/1.1/DTD/svg11.dtd">
<!-- Generated by graphviz version 2.43.0 (0)
 -->
<!-- Title: QuantConnect.Lean.Engine.DataFeeds.Enumerators.MappingEventProvider.InitializeMapFile Pages: 1 -->
<svg width="456pt" height="110pt"
 viewBox="0.00 0.00 456.00 110.00" xmlns="http://www.w3.org/2000/svg" xmlns:xlink="http://www.w3.org/1999/xlink">
<g id="graph0" class="graph" transform="scale(1 1) rotate(0) translate(4 106)">
<title>QuantConnect.Lean.Engine.DataFeeds.Enumerators.MappingEventProvider.InitializeMapFile</title>
<polygon fill="white" stroke="transparent" points="-4,4 -4,-106 452,-106 452,4 -4,4"/>
<!-- Node1 -->
<g id="node1" class="node">
<title>Node1</title>
<g id="a_node1"><a xlink:title="Initializes the map file to use">
<polygon fill="#bfbfbf" stroke="black" points="242,-30.5 242,-71.5 448,-71.5 448,-30.5 242,-30.5"/>
<text text-anchor="start" x="250" y="-59.5" font-family="Helvetica,sans-Serif" font-size="10.00">QuantConnect.Lean.Engine.</text>
<text text-anchor="start" x="250" y="-48.5" font-family="Helvetica,sans-Serif" font-size="10.00">DataFeeds.Enumerators.MappingEvent</text>
<text text-anchor="middle" x="345" y="-37.5" font-family="Helvetica,sans-Serif" font-size="10.00">Provider.InitializeMapFile</text>
</a>
</g>
</g>
<!-- Node2 -->
<g id="node2" class="node">
<title>Node2</title>
<g id="a_node2"><a xlink:href="classQuantConnect_1_1Lean_1_1Engine_1_1DataFeeds_1_1Enumerators_1_1LiveMappingEventProvider.html#a474ee205f82641cd2c62b1b40fcac16f" target="_top" xlink:title="Check for new mappings">
<polygon fill="white" stroke="black" points="3.5,-60.5 3.5,-101.5 202.5,-101.5 202.5,-60.5 3.5,-60.5"/>
<text text-anchor="start" x="11.5" y="-89.5" font-family="Helvetica,sans-Serif" font-size="10.00">QuantConnect.Lean.Engine.</text>
<text text-anchor="start" x="11.5" y="-78.5" font-family="Helvetica,sans-Serif" font-size="10.00">DataFeeds.Enumerators.LiveMapping</text>
<text text-anchor="middle" x="103" y="-67.5" font-family="Helvetica,sans-Serif" font-size="10.00">EventProvider.GetEvents</text>
</a>
</g>
</g>
<!-- Node1&#45;&gt;Node2 -->
<g id="edge1" class="edge">
<title>Node1&#45;&gt;Node2</title>
<path fill="none" stroke="midnightblue" d="M231.76,-65.03C222.02,-66.25 212.22,-67.47 202.6,-68.67"/>
<polygon fill="midnightblue" stroke="midnightblue" points="232.38,-68.48 241.87,-63.77 231.51,-61.53 232.38,-68.48"/>
</g>
<!-- Node3 -->
<g id="node3" class="node">
<title>Node3</title>
<g id="a_node3"><a xlink:href="classQuantConnect_1_1Lean_1_1Engine_1_1DataFeeds_1_1Enumerators_1_1MappingEventProvider.html#af71da3b51ab48d4d71081f3467058609" target="_top" xlink:title="Initializes this instance">
<polygon fill="white" stroke="black" points="0,-0.5 0,-41.5 206,-41.5 206,-0.5 0,-0.5"/>
<text text-anchor="start" x="8" y="-29.5" font-family="Helvetica,sans-Serif" font-size="10.00">QuantConnect.Lean.Engine.</text>
<text text-anchor="start" x="8" y="-18.5" font-family="Helvetica,sans-Serif" font-size="10.00">DataFeeds.Enumerators.MappingEvent</text>
<text text-anchor="middle" x="103" y="-7.5" font-family="Helvetica,sans-Serif" font-size="10.00">Provider.Initialize</text>
</a>
</g>
</g>
<!-- Node1&#45;&gt;Node3 -->
<g id="edge2" class="edge">
<title>Node1&#45;&gt;Node3</title>
<path fill="none" stroke="midnightblue" d="M231.81,-36.98C223.22,-35.9 214.57,-34.82 206.04,-33.75"/>
<polygon fill="midnightblue" stroke="midnightblue" points="231.51,-40.47 241.87,-38.23 232.38,-33.52 231.51,-40.47"/>
</g>
</g>
</svg>
