<?xml version="1.0" encoding="UTF-8" standalone="no"?>
<!DOCTYPE svg PUBLIC "-//W3C//DTD SVG 1.1//EN"
 "http://www.w3.org/Graphics/SVG/1.1/DTD/svg11.dtd">
<!-- Generated by graphviz version 2.43.0 (0)
 -->
<!-- Title: QuantConnect.Securities.CashBuyingPowerModel.GetReservedBuyingPowerForPosition Pages: 1 -->
<svg width="441pt" height="50pt"
 viewBox="0.00 0.00 441.00 50.00" xmlns="http://www.w3.org/2000/svg" xmlns:xlink="http://www.w3.org/1999/xlink">
<g id="graph0" class="graph" transform="scale(1 1) rotate(0) translate(4 46)">
<title>QuantConnect.Securities.CashBuyingPowerModel.GetReservedBuyingPowerForPosition</title>
<polygon fill="white" stroke="transparent" points="-4,4 -4,-46 437,-46 437,4 -4,4"/>
<!-- Node1 -->
<g id="node1" class="node">
<title>Node1</title>
<g id="a_node1"><a xlink:title="Gets the amount of buying power reserved to maintain the specified position">
<polygon fill="#bfbfbf" stroke="black" points="0,-0.5 0,-41.5 200,-41.5 200,-0.5 0,-0.5"/>
<text text-anchor="start" x="8" y="-29.5" font-family="Helvetica,sans-Serif" font-size="10.00">QuantConnect.Securities.</text>
<text text-anchor="start" x="8" y="-18.5" font-family="Helvetica,sans-Serif" font-size="10.00">CashBuyingPowerModel.GetReserved</text>
<text text-anchor="middle" x="100" y="-7.5" font-family="Helvetica,sans-Serif" font-size="10.00">BuyingPowerForPosition</text>
</a>
</g>
</g>
<!-- Node2 -->
<g id="node2" class="node">
<title>Node2</title>
<g id="a_node2"><a xlink:href="classQuantConnect_1_1Securities_1_1ReservedBuyingPowerForPositionParameters.html#a24468fe2ffb3bf82dd343f6ff6f49509" target="_top" xlink:title="Creates the result using the specified reserved buying power in units of the account currency">
<polygon fill="white" stroke="black" points="236,-0.5 236,-41.5 433,-41.5 433,-0.5 236,-0.5"/>
<text text-anchor="start" x="244" y="-29.5" font-family="Helvetica,sans-Serif" font-size="10.00">QuantConnect.Securities.</text>
<text text-anchor="start" x="244" y="-18.5" font-family="Helvetica,sans-Serif" font-size="10.00">ReservedBuyingPowerForPosition</text>
<text text-anchor="middle" x="334.5" y="-7.5" font-family="Helvetica,sans-Serif" font-size="10.00">Parameters.ResultInAccountCurrency</text>
</a>
</g>
</g>
<!-- Node1&#45;&gt;Node2 -->
<g id="edge1" class="edge">
<title>Node1&#45;&gt;Node2</title>
<path fill="none" stroke="midnightblue" d="M200.28,-21C208.61,-21 217.07,-21 225.46,-21"/>
<polygon fill="midnightblue" stroke="midnightblue" points="225.67,-24.5 235.67,-21 225.67,-17.5 225.67,-24.5"/>
</g>
</g>
</svg>
