<?xml version="1.0" encoding="UTF-8" standalone="no"?>
<!DOCTYPE svg PUBLIC "-//W3C//DTD SVG 1.1//EN"
 "http://www.w3.org/Graphics/SVG/1.1/DTD/svg11.dtd">
<!-- Generated by graphviz version 2.43.0 (0)
 -->
<!-- Title: QuantConnect.Time.EachTradeableDay Pages: 1 -->
<svg width="693pt" height="39pt"
 viewBox="0.00 0.00 693.00 39.00" xmlns="http://www.w3.org/2000/svg" xmlns:xlink="http://www.w3.org/1999/xlink">
<g id="graph0" class="graph" transform="scale(1 1) rotate(0) translate(4 35)">
<title>QuantConnect.Time.EachTradeableDay</title>
<polygon fill="white" stroke="transparent" points="-4,4 -4,-35 689,-35 689,4 -4,4"/>
<!-- Node1 -->
<g id="node1" class="node">
<title>Node1</title>
<g id="a_node1"><a xlink:title="Define an enumerable date range of tradeable dates &#45; skip the holidays and weekends when securities i...">
<polygon fill="#bfbfbf" stroke="black" points="0,-6 0,-25 206,-25 206,-6 0,-6"/>
<text text-anchor="middle" x="103" y="-13" font-family="Helvetica,sans-Serif" font-size="10.00">QuantConnect.Time.EachTradeableDay</text>
</a>
</g>
</g>
<!-- Node2 -->
<g id="node2" class="node">
<title>Node2</title>
<g id="a_node2"><a xlink:href="classQuantConnect_1_1Securities_1_1SecurityExchangeHours.html#aeea5ca309a445fa3a7cb85bd995af45a" target="_top" xlink:title="Determines if the exchange will be open on the date specified by the local date time">
<polygon fill="white" stroke="black" points="242,-0.5 242,-30.5 434,-30.5 434,-0.5 242,-0.5"/>
<text text-anchor="start" x="250" y="-18.5" font-family="Helvetica,sans-Serif" font-size="10.00">QuantConnect.Securities.</text>
<text text-anchor="middle" x="338" y="-7.5" font-family="Helvetica,sans-Serif" font-size="10.00">SecurityExchangeHours.IsDateOpen</text>
</a>
</g>
</g>
<!-- Node1&#45;&gt;Node2 -->
<g id="edge1" class="edge">
<title>Node1&#45;&gt;Node2</title>
<path fill="none" stroke="midnightblue" d="M206.2,-15.5C214.63,-15.5 223.16,-15.5 231.62,-15.5"/>
<polygon fill="midnightblue" stroke="midnightblue" points="231.88,-19 241.88,-15.5 231.88,-12 231.88,-19"/>
</g>
<!-- Node3 -->
<g id="node3" class="node">
<title>Node3</title>
<g id="a_node3"><a xlink:href="classQuantConnect_1_1Securities_1_1SecurityExchangeHours.html#a106e2dd187ab76452e14ac6a28f929aa" target="_top" xlink:title="Helper to access the market hours field based on the day of week">
<polygon fill="white" stroke="black" points="470,-0.5 470,-30.5 685,-30.5 685,-0.5 470,-0.5"/>
<text text-anchor="start" x="478" y="-18.5" font-family="Helvetica,sans-Serif" font-size="10.00">QuantConnect.Securities.</text>
<text text-anchor="middle" x="577.5" y="-7.5" font-family="Helvetica,sans-Serif" font-size="10.00">SecurityExchangeHours.GetMarketHours</text>
</a>
</g>
</g>
<!-- Node2&#45;&gt;Node3 -->
<g id="edge2" class="edge">
<title>Node2&#45;&gt;Node3</title>
<path fill="none" stroke="midnightblue" d="M434.23,-15.5C442.67,-15.5 451.28,-15.5 459.87,-15.5"/>
<polygon fill="midnightblue" stroke="midnightblue" points="459.94,-19 469.94,-15.5 459.94,-12 459.94,-19"/>
</g>
</g>
</svg>
