<?xml version="1.0" encoding="UTF-8" standalone="no"?>
<!DOCTYPE svg PUBLIC "-//W3C//DTD SVG 1.1//EN"
 "http://www.w3.org/Graphics/SVG/1.1/DTD/svg11.dtd">
<!-- Generated by graphviz version 2.43.0 (0)
 -->
<!-- Title: QuantConnect.ToolBox.RandomDataGenerator.BaseSymbolGenerator Pages: 1 -->
<svg width="456pt" height="137pt"
 viewBox="0.00 0.00 456.00 137.00" xmlns="http://www.w3.org/2000/svg" xmlns:xlink="http://www.w3.org/1999/xlink">
<g id="graph0" class="graph" transform="scale(1 1) rotate(0) translate(4 133)">
<title>QuantConnect.ToolBox.RandomDataGenerator.BaseSymbolGenerator</title>
<polygon fill="white" stroke="transparent" points="-4,4 -4,-133 452,-133 452,4 -4,4"/>
<!-- Node1 -->
<g id="node1" class="node">
<title>Node1</title>
<g id="a_node1"><a xlink:title="Provide the base symbol generator implementation">
<polygon fill="#bfbfbf" stroke="black" points="0,-49.5 0,-79.5 200,-79.5 200,-49.5 0,-49.5"/>
<text text-anchor="start" x="8" y="-67.5" font-family="Helvetica,sans-Serif" font-size="10.00">QuantConnect.ToolBox.Random</text>
<text text-anchor="middle" x="100" y="-56.5" font-family="Helvetica,sans-Serif" font-size="10.00">DataGenerator.BaseSymbolGenerator</text>
</a>
</g>
</g>
<!-- Node2 -->
<g id="node2" class="node">
<title>Node2</title>
<g id="a_node2"><a xlink:href="classQuantConnect_1_1ToolBox_1_1RandomDataGenerator_1_1DefaultSymbolGenerator.html" target="_top" xlink:title="Generates a new random Symbol object of the specified security type. All returned symbols have a matc...">
<polygon fill="white" stroke="black" points="236,-98.5 236,-128.5 448,-128.5 448,-98.5 236,-98.5"/>
<text text-anchor="start" x="244" y="-116.5" font-family="Helvetica,sans-Serif" font-size="10.00">QuantConnect.ToolBox.Random</text>
<text text-anchor="middle" x="342" y="-105.5" font-family="Helvetica,sans-Serif" font-size="10.00">DataGenerator.DefaultSymbolGenerator</text>
</a>
</g>
</g>
<!-- Node1&#45;&gt;Node2 -->
<g id="edge1" class="edge">
<title>Node1&#45;&gt;Node2</title>
<path fill="none" stroke="midnightblue" d="M184.46,-81.54C211.49,-87.06 241.25,-93.13 267.5,-98.49"/>
<polygon fill="midnightblue" stroke="midnightblue" points="185.14,-78.11 174.64,-79.53 183.74,-84.96 185.14,-78.11"/>
</g>
<!-- Node3 -->
<g id="node3" class="node">
<title>Node3</title>
<g id="a_node3"><a xlink:href="classQuantConnect_1_1ToolBox_1_1RandomDataGenerator_1_1FutureSymbolGenerator.html" target="_top" xlink:title="Generates a new random future Symbol. The generates future contract Symbol will have an expiry betwee...">
<polygon fill="white" stroke="black" points="238.5,-49.5 238.5,-79.5 445.5,-79.5 445.5,-49.5 238.5,-49.5"/>
<text text-anchor="start" x="246.5" y="-67.5" font-family="Helvetica,sans-Serif" font-size="10.00">QuantConnect.ToolBox.Random</text>
<text text-anchor="middle" x="342" y="-56.5" font-family="Helvetica,sans-Serif" font-size="10.00">DataGenerator.FutureSymbolGenerator</text>
</a>
</g>
</g>
<!-- Node1&#45;&gt;Node3 -->
<g id="edge2" class="edge">
<title>Node1&#45;&gt;Node3</title>
<path fill="none" stroke="midnightblue" d="M210.14,-64.5C219.53,-64.5 229.01,-64.5 238.34,-64.5"/>
<polygon fill="midnightblue" stroke="midnightblue" points="210,-61 200,-64.5 210,-68 210,-61"/>
</g>
<!-- Node4 -->
<g id="node4" class="node">
<title>Node4</title>
<g id="a_node4"><a xlink:href="classQuantConnect_1_1ToolBox_1_1RandomDataGenerator_1_1OptionSymbolGenerator.html" target="_top" xlink:title="Generates a new random option Symbol.">
<polygon fill="white" stroke="black" points="237.5,-0.5 237.5,-30.5 446.5,-30.5 446.5,-0.5 237.5,-0.5"/>
<text text-anchor="start" x="245.5" y="-18.5" font-family="Helvetica,sans-Serif" font-size="10.00">QuantConnect.ToolBox.Random</text>
<text text-anchor="middle" x="342" y="-7.5" font-family="Helvetica,sans-Serif" font-size="10.00">DataGenerator.OptionSymbolGenerator</text>
</a>
</g>
</g>
<!-- Node1&#45;&gt;Node4 -->
<g id="edge3" class="edge">
<title>Node1&#45;&gt;Node4</title>
<path fill="none" stroke="midnightblue" d="M184.46,-47.46C211.49,-41.94 241.25,-35.87 267.5,-30.51"/>
<polygon fill="midnightblue" stroke="midnightblue" points="183.74,-44.04 174.64,-49.47 185.14,-50.89 183.74,-44.04"/>
</g>
</g>
</svg>
