<?xml version="1.0" encoding="UTF-8" standalone="no"?>
<!DOCTYPE svg PUBLIC "-//W3C//DTD SVG 1.1//EN"
 "http://www.w3.org/Graphics/SVG/1.1/DTD/svg11.dtd">
<!-- Generated by graphviz version 2.43.0 (0)
 -->
<!-- Title: QuantConnect.Data.UniverseSelection.UserDefinedUniverse.Add Pages: 1 -->
<svg width="405pt" height="50pt"
 viewBox="0.00 0.00 405.00 50.00" xmlns="http://www.w3.org/2000/svg" xmlns:xlink="http://www.w3.org/1999/xlink">
<g id="graph0" class="graph" transform="scale(1 1) rotate(0) translate(4 46)">
<title>QuantConnect.Data.UniverseSelection.UserDefinedUniverse.Add</title>
<polygon fill="white" stroke="transparent" points="-4,4 -4,-46 401,-46 401,4 -4,4"/>
<!-- Node1 -->
<g id="node1" class="node">
<title>Node1</title>
<g id="a_node1"><a xlink:title="Adds the specified SubscriptionDataConfig to this universe">
<polygon fill="#bfbfbf" stroke="black" points="0,-6 0,-36 190,-36 190,-6 0,-6"/>
<text text-anchor="start" x="8" y="-24" font-family="Helvetica,sans-Serif" font-size="10.00">QuantConnect.Data.Universe</text>
<text text-anchor="middle" x="95" y="-13" font-family="Helvetica,sans-Serif" font-size="10.00">Selection.UserDefinedUniverse.Add</text>
</a>
</g>
</g>
<!-- Node2 -->
<g id="node2" class="node">
<title>Node2</title>
<g id="a_node2"><a xlink:href="classQuantConnect_1_1Data_1_1UniverseSelection_1_1UserDefinedUniverse.html#a143d427b0db8ba8fec29f3612d72073a" target="_top" xlink:title="Event invocator for the CollectionChanged event">
<polygon fill="white" stroke="black" points="226,-0.5 226,-41.5 397,-41.5 397,-0.5 226,-0.5"/>
<text text-anchor="start" x="234" y="-29.5" font-family="Helvetica,sans-Serif" font-size="10.00">QuantConnect.Data.Universe</text>
<text text-anchor="start" x="234" y="-18.5" font-family="Helvetica,sans-Serif" font-size="10.00">Selection.UserDefinedUniverse.</text>
<text text-anchor="middle" x="311.5" y="-7.5" font-family="Helvetica,sans-Serif" font-size="10.00">OnCollectionChanged</text>
</a>
</g>
</g>
<!-- Node1&#45;&gt;Node2 -->
<g id="edge1" class="edge">
<title>Node1&#45;&gt;Node2</title>
<path fill="none" stroke="midnightblue" d="M190.08,-21C198.66,-21 207.35,-21 215.93,-21"/>
<polygon fill="midnightblue" stroke="midnightblue" points="215.94,-24.5 225.94,-21 215.94,-17.5 215.94,-24.5"/>
</g>
</g>
</svg>
