<?xml version="1.0" encoding="UTF-8" standalone="no"?>
<!DOCTYPE svg PUBLIC "-//W3C//DTD SVG 1.1//EN"
 "http://www.w3.org/Graphics/SVG/1.1/DTD/svg11.dtd">
<!-- Generated by graphviz version 2.43.0 (0)
 -->
<!-- Title: QuantConnect.Data.Consolidators.ClassicRangeConsolidator.UpdateBar Pages: 1 -->
<svg width="426pt" height="100pt"
 viewBox="0.00 0.00 426.00 99.50" xmlns="http://www.w3.org/2000/svg" xmlns:xlink="http://www.w3.org/1999/xlink">
<g id="graph0" class="graph" transform="scale(1 1) rotate(0) translate(4 95.5)">
<title>QuantConnect.Data.Consolidators.ClassicRangeConsolidator.UpdateBar</title>
<polygon fill="white" stroke="transparent" points="-4,4 -4,-95.5 422,-95.5 422,4 -4,4"/>
<!-- Node1 -->
<g id="node1" class="node">
<title>Node1</title>
<g id="a_node1"><a xlink:title="Updates the current RangeBar being created with the given data. Additionally, if it&#39;s the case,...">
<polygon fill="#bfbfbf" stroke="black" points="0,-27.5 0,-57.5 197,-57.5 197,-27.5 0,-27.5"/>
<text text-anchor="start" x="8" y="-45.5" font-family="Helvetica,sans-Serif" font-size="10.00">QuantConnect.Data.Consolidators.</text>
<text text-anchor="middle" x="98.5" y="-34.5" font-family="Helvetica,sans-Serif" font-size="10.00">ClassicRangeConsolidator.UpdateBar</text>
</a>
</g>
</g>
<!-- Node2 -->
<g id="node2" class="node">
<title>Node2</title>
<g id="a_node2"><a xlink:href="classQuantConnect_1_1Data_1_1Consolidators_1_1BaseTimelessConsolidator.html#a2cabd05937b79337e7cff72d6575bbdf" target="_top" xlink:title="Event invocator for the DataConsolidated event. This should be invoked by derived classes when they h...">
<polygon fill="white" stroke="black" points="233,-50 233,-91 418,-91 418,-50 233,-50"/>
<text text-anchor="start" x="241" y="-79" font-family="Helvetica,sans-Serif" font-size="10.00">QuantConnect.Data.Consolidators.</text>
<text text-anchor="start" x="241" y="-68" font-family="Helvetica,sans-Serif" font-size="10.00">BaseTimelessConsolidator&lt;</text>
<text text-anchor="middle" x="325.5" y="-57" font-family="Helvetica,sans-Serif" font-size="10.00"> RangeBar &gt;::OnDataConsolidated</text>
</a>
</g>
</g>
<!-- Node1&#45;&gt;Node2 -->
<g id="edge1" class="edge">
<title>Node1&#45;&gt;Node2</title>
<path fill="none" stroke="midnightblue" d="M197.21,-54.66C205.73,-55.72 214.37,-56.79 222.92,-57.86"/>
<polygon fill="midnightblue" stroke="midnightblue" points="222.56,-61.34 232.92,-59.1 223.42,-54.39 222.56,-61.34"/>
</g>
<!-- Node3 -->
<g id="node3" class="node">
<title>Node3</title>
<g id="a_node3"><a xlink:href="classQuantConnect_1_1Data_1_1Market_1_1RangeBar.html#a29681b24849c52662a4efdb785c58099" target="_top" xlink:title="Updates this RangeBar with the specified values">
<polygon fill="white" stroke="black" points="249.5,-0.5 249.5,-30.5 401.5,-30.5 401.5,-0.5 249.5,-0.5"/>
<text text-anchor="start" x="257.5" y="-18.5" font-family="Helvetica,sans-Serif" font-size="10.00">QuantConnect.Data.Market.</text>
<text text-anchor="middle" x="325.5" y="-7.5" font-family="Helvetica,sans-Serif" font-size="10.00">RangeBar.Update</text>
</a>
</g>
</g>
<!-- Node1&#45;&gt;Node3 -->
<g id="edge2" class="edge">
<title>Node1&#45;&gt;Node3</title>
<path fill="none" stroke="midnightblue" d="M197.21,-30.78C211.1,-29.11 225.3,-27.4 238.94,-25.77"/>
<polygon fill="midnightblue" stroke="midnightblue" points="239.73,-29.2 249.24,-24.53 238.89,-22.25 239.73,-29.2"/>
</g>
</g>
</svg>
