<?xml version="1.0" encoding="UTF-8" standalone="no"?>
<!DOCTYPE svg PUBLIC "-//W3C//DTD SVG 1.1//EN"
 "http://www.w3.org/Graphics/SVG/1.1/DTD/svg11.dtd">
<!-- Generated by graphviz version 2.43.0 (0)
 -->
<!-- Title: QuantConnect.Symbol.UpdateMappedSymbol Pages: 1 -->
<svg width="378pt" height="63pt"
 viewBox="0.00 0.00 378.00 62.50" xmlns="http://www.w3.org/2000/svg" xmlns:xlink="http://www.w3.org/1999/xlink">
<g id="graph0" class="graph" transform="scale(1 1) rotate(0) translate(4 58.5)">
<title>QuantConnect.Symbol.UpdateMappedSymbol</title>
<polygon fill="white" stroke="transparent" points="-4,4 -4,-58.5 374,-58.5 374,4 -4,4"/>
<!-- Node1 -->
<g id="node1" class="node">
<title>Node1</title>
<g id="a_node1"><a xlink:title="Creates new symbol with updated mapped symbol. Symbol Mapping: When symbols change over time (e....">
<polygon fill="#bfbfbf" stroke="black" points="206,-6 206,-36 370,-36 370,-6 206,-6"/>
<text text-anchor="start" x="214" y="-24" font-family="Helvetica,sans-Serif" font-size="10.00">QuantConnect.Symbol.Update</text>
<text text-anchor="middle" x="288" y="-13" font-family="Helvetica,sans-Serif" font-size="10.00">MappedSymbol</text>
</a>
</g>
</g>
<!-- Node1&#45;&gt;Node1 -->
<g id="edge2" class="edge">
<title>Node1&#45;&gt;Node1</title>
<path fill="none" stroke="midnightblue" d="M323.89,-46.46C319.44,-51.18 307.47,-54.5 288,-54.5 256.04,-54.5 244.31,-45.56 252.8,-36.16"/>
<polygon fill="midnightblue" stroke="midnightblue" points="327.36,-45.9 323.2,-36.16 320.38,-46.37 327.36,-45.9"/>
</g>
<!-- Node2 -->
<g id="node2" class="node">
<title>Node2</title>
<g id="a_node2"><a xlink:href="classQuantConnect_1_1Data_1_1HistoryExtensions.html#a3b6a56b1bd013e0178ae4d01775fc68b" target="_top" xlink:title="Split HistoryRequest on several request with update mapped symbol.">
<polygon fill="white" stroke="black" points="0,-0.5 0,-41.5 170,-41.5 170,-0.5 0,-0.5"/>
<text text-anchor="start" x="8" y="-29.5" font-family="Helvetica,sans-Serif" font-size="10.00">QuantConnect.Data.History</text>
<text text-anchor="start" x="8" y="-18.5" font-family="Helvetica,sans-Serif" font-size="10.00">Extensions.SplitHistoryRequest</text>
<text text-anchor="middle" x="85" y="-7.5" font-family="Helvetica,sans-Serif" font-size="10.00">WithUpdatedMappedSymbol</text>
</a>
</g>
</g>
<!-- Node1&#45;&gt;Node2 -->
<g id="edge1" class="edge">
<title>Node1&#45;&gt;Node2</title>
<path fill="none" stroke="midnightblue" d="M195.82,-21C187.26,-21 178.6,-21 170.1,-21"/>
<polygon fill="midnightblue" stroke="midnightblue" points="195.83,-24.5 205.82,-21 195.82,-17.5 195.83,-24.5"/>
</g>
</g>
</svg>
