<?xml version="1.0" encoding="UTF-8" standalone="no"?>
<!DOCTYPE svg PUBLIC "-//W3C//DTD SVG 1.1//EN"
 "http://www.w3.org/Graphics/SVG/1.1/DTD/svg11.dtd">
<!-- Generated by graphviz version 2.43.0 (0)
 -->
<!-- Title: QuantConnect.Algorithm.ConstituentUniverseDefinitions.TobaccoProducts Pages: 1 -->
<svg width="415pt" height="39pt"
 viewBox="0.00 0.00 415.00 39.00" xmlns="http://www.w3.org/2000/svg" xmlns:xlink="http://www.w3.org/1999/xlink">
<g id="graph0" class="graph" transform="scale(1 1) rotate(0) translate(4 35)">
<title>QuantConnect.Algorithm.ConstituentUniverseDefinitions.TobaccoProducts</title>
<polygon fill="white" stroke="transparent" points="-4,4 -4,-35 411,-35 411,4 -4,4"/>
<!-- Node1 -->
<g id="node1" class="node">
<title>Node1</title>
<g id="a_node1"><a xlink:title="Morningstar TobaccoProducts industry group MorningstarIndustryGroupCode">
<polygon fill="#bfbfbf" stroke="black" points="0,-0.5 0,-30.5 197,-30.5 197,-0.5 0,-0.5"/>
<text text-anchor="start" x="8" y="-18.5" font-family="Helvetica,sans-Serif" font-size="10.00">QuantConnect.Algorithm.Constituent</text>
<text text-anchor="middle" x="98.5" y="-7.5" font-family="Helvetica,sans-Serif" font-size="10.00">UniverseDefinitions.TobaccoProducts</text>
</a>
</g>
</g>
<!-- Node2 -->
<g id="node2" class="node">
<title>Node2</title>
<g id="a_node2"><a xlink:href="classQuantConnect_1_1SecurityIdentifier.html#aa2b8c59064a75d90b2e530e829331de1" target="_top" xlink:title="Generates a new SecurityIdentifier for a ConstituentsUniverseData. Note that the symbol ticker is cas...">
<polygon fill="white" stroke="black" points="233,-0.5 233,-30.5 407,-30.5 407,-0.5 233,-0.5"/>
<text text-anchor="start" x="241" y="-18.5" font-family="Helvetica,sans-Serif" font-size="10.00">QuantConnect.SecurityIdentifier.</text>
<text text-anchor="middle" x="320" y="-7.5" font-family="Helvetica,sans-Serif" font-size="10.00">GenerateConstituentIdentifier</text>
</a>
</g>
</g>
<!-- Node1&#45;&gt;Node2 -->
<g id="edge1" class="edge">
<title>Node1&#45;&gt;Node2</title>
<path fill="none" stroke="midnightblue" d="M197.05,-15.5C205.52,-15.5 214.08,-15.5 222.54,-15.5"/>
<polygon fill="midnightblue" stroke="midnightblue" points="222.79,-19 232.79,-15.5 222.79,-12 222.79,-19"/>
</g>
</g>
</svg>
