<?xml version="1.0" encoding="UTF-8" standalone="no"?>
<!DOCTYPE svg PUBLIC "-//W3C//DTD SVG 1.1//EN"
 "http://www.w3.org/Graphics/SVG/1.1/DTD/svg11.dtd">
<!-- Generated by graphviz version 2.43.0 (0)
 -->
<!-- Title: QuantConnect.Algorithm.QCAlgorithm.SetAccountCurrency Pages: 1 -->
<svg width="858pt" height="118pt"
 viewBox="0.00 0.00 858.00 118.00" xmlns="http://www.w3.org/2000/svg" xmlns:xlink="http://www.w3.org/1999/xlink">
<g id="graph0" class="graph" transform="scale(1 1) rotate(0) translate(4 114)">
<title>QuantConnect.Algorithm.QCAlgorithm.SetAccountCurrency</title>
<polygon fill="white" stroke="transparent" points="-4,4 -4,-114 854,-114 854,4 -4,4"/>
<!-- Node1 -->
<g id="node1" class="node">
<title>Node1</title>
<g id="a_node1"><a xlink:title="Sets the account currency cash symbol this algorithm is to manage, as well as the starting cash in th...">
<polygon fill="#bfbfbf" stroke="black" points="0,-51.5 0,-81.5 205,-81.5 205,-51.5 0,-51.5"/>
<text text-anchor="start" x="8" y="-69.5" font-family="Helvetica,sans-Serif" font-size="10.00">QuantConnect.Algorithm.QCAlgorithm.</text>
<text text-anchor="middle" x="102.5" y="-58.5" font-family="Helvetica,sans-Serif" font-size="10.00">SetAccountCurrency</text>
</a>
</g>
</g>
<!-- Node2 -->
<g id="node2" class="node">
<title>Node2</title>
<g id="a_node2"><a xlink:href="classQuantConnect_1_1Algorithm_1_1QCAlgorithm.html#a16bd52d937ab647c889e8d5f6577f744" target="_top" xlink:title="Send a debug message to the web console:">
<polygon fill="white" stroke="black" points="241,-79.5 241,-109.5 446,-109.5 446,-79.5 241,-79.5"/>
<text text-anchor="start" x="249" y="-97.5" font-family="Helvetica,sans-Serif" font-size="10.00">QuantConnect.Algorithm.QCAlgorithm.</text>
<text text-anchor="middle" x="343.5" y="-86.5" font-family="Helvetica,sans-Serif" font-size="10.00">Debug</text>
</a>
</g>
</g>
<!-- Node1&#45;&gt;Node2 -->
<g id="edge1" class="edge">
<title>Node1&#45;&gt;Node2</title>
<path fill="none" stroke="midnightblue" d="M205.2,-78.42C213.7,-79.41 222.31,-80.42 230.87,-81.42"/>
<polygon fill="midnightblue" stroke="midnightblue" points="230.55,-84.91 240.89,-82.6 231.36,-77.96 230.55,-84.91"/>
</g>
<!-- Node3 -->
<g id="node3" class="node">
<title>Node3</title>
<g id="a_node3"><a xlink:href="classQuantConnect_1_1Securities_1_1SecurityPortfolioManager.html#ace04c1c80ebeef4a75f6fc0bdb7aa215" target="_top" xlink:title="Sets the account currency cash symbol this algorithm is to manage, as well as the starting cash in th...">
<polygon fill="white" stroke="black" points="264.5,-19 264.5,-60 422.5,-60 422.5,-19 264.5,-19"/>
<text text-anchor="start" x="272.5" y="-48" font-family="Helvetica,sans-Serif" font-size="10.00">QuantConnect.Securities.</text>
<text text-anchor="start" x="272.5" y="-37" font-family="Helvetica,sans-Serif" font-size="10.00">SecurityPortfolioManager.Set</text>
<text text-anchor="middle" x="343.5" y="-26" font-family="Helvetica,sans-Serif" font-size="10.00">AccountCurrency</text>
</a>
</g>
</g>
<!-- Node1&#45;&gt;Node3 -->
<g id="edge2" class="edge">
<title>Node1&#45;&gt;Node3</title>
<path fill="none" stroke="midnightblue" d="M205.2,-55.01C221.46,-53.17 238.17,-51.29 254.09,-49.49"/>
<polygon fill="midnightblue" stroke="midnightblue" points="254.88,-52.92 264.42,-48.32 254.09,-45.97 254.88,-52.92"/>
</g>
<!-- Node4 -->
<g id="node4" class="node">
<title>Node4</title>
<g id="a_node4"><a xlink:href="classQuantConnect_1_1Securities_1_1SecurityPortfolioManager.html#acac8f78a9d4193124aa4b735832fa1f6" target="_top" xlink:title="Set the account currency cash this algorithm is to manage.">
<polygon fill="white" stroke="black" points="482,-49.5 482,-79.5 664,-79.5 664,-49.5 482,-49.5"/>
<text text-anchor="start" x="490" y="-67.5" font-family="Helvetica,sans-Serif" font-size="10.00">QuantConnect.Securities.</text>
<text text-anchor="middle" x="573" y="-56.5" font-family="Helvetica,sans-Serif" font-size="10.00">SecurityPortfolioManager.SetCash</text>
</a>
</g>
</g>
<!-- Node3&#45;&gt;Node4 -->
<g id="edge3" class="edge">
<title>Node3&#45;&gt;Node4</title>
<path fill="none" stroke="midnightblue" d="M422.79,-48.1C438.55,-49.83 455.31,-51.68 471.69,-53.48"/>
<polygon fill="midnightblue" stroke="midnightblue" points="471.51,-56.98 481.83,-54.59 472.27,-50.02 471.51,-56.98"/>
</g>
<!-- Node6 -->
<g id="node6" class="node">
<title>Node6</title>
<g id="a_node6"><a xlink:href="classQuantConnect_1_1Logging_1_1Log.html#a4e55477fbc790846b74550a57198cea9" target="_top" xlink:title="Log trace">
<polygon fill="white" stroke="black" points="498,-0.5 498,-30.5 648,-30.5 648,-0.5 498,-0.5"/>
<text text-anchor="start" x="506" y="-18.5" font-family="Helvetica,sans-Serif" font-size="10.00">QuantConnect.Logging.Log.</text>
<text text-anchor="middle" x="573" y="-7.5" font-family="Helvetica,sans-Serif" font-size="10.00">Trace</text>
</a>
</g>
</g>
<!-- Node3&#45;&gt;Node6 -->
<g id="edge5" class="edge">
<title>Node3&#45;&gt;Node6</title>
<path fill="none" stroke="midnightblue" d="M422.79,-31.24C443.76,-29.03 466.52,-26.63 487.8,-24.38"/>
<polygon fill="midnightblue" stroke="midnightblue" points="488.2,-27.86 497.78,-23.33 487.47,-20.9 488.2,-27.86"/>
</g>
<!-- Node5 -->
<g id="node5" class="node">
<title>Node5</title>
<g id="a_node5"><a xlink:href="classQuantConnect_1_1Securities_1_1Cash.html#a10f484f2c0fa7902c2c1db937a929978" target="_top" xlink:title="Sets the Quantity to the specified amount">
<polygon fill="white" stroke="black" points="705,-49.5 705,-79.5 845,-79.5 845,-49.5 705,-49.5"/>
<text text-anchor="start" x="713" y="-67.5" font-family="Helvetica,sans-Serif" font-size="10.00">QuantConnect.Securities.</text>
<text text-anchor="middle" x="775" y="-56.5" font-family="Helvetica,sans-Serif" font-size="10.00">Cash.SetAmount</text>
</a>
</g>
</g>
<!-- Node4&#45;&gt;Node5 -->
<g id="edge4" class="edge">
<title>Node4&#45;&gt;Node5</title>
<path fill="none" stroke="midnightblue" d="M664.05,-64.5C674.21,-64.5 684.51,-64.5 694.52,-64.5"/>
<polygon fill="midnightblue" stroke="midnightblue" points="694.83,-68 704.83,-64.5 694.83,-61 694.83,-68"/>
</g>
<!-- Node7 -->
<g id="node7" class="node">
<title>Node7</title>
<g id="a_node7"><a xlink:href="interfaceQuantConnect_1_1Logging_1_1ILogHandler.html#a3fb71a33ac66129240b63f12b6fcda3b" target="_top" xlink:title="Write debug message to log">
<polygon fill="white" stroke="black" points="700,-0.5 700,-30.5 850,-30.5 850,-0.5 700,-0.5"/>
<text text-anchor="start" x="708" y="-18.5" font-family="Helvetica,sans-Serif" font-size="10.00">QuantConnect.Logging.ILog</text>
<text text-anchor="middle" x="775" y="-7.5" font-family="Helvetica,sans-Serif" font-size="10.00">Handler.Trace</text>
</a>
</g>
</g>
<!-- Node6&#45;&gt;Node7 -->
<g id="edge6" class="edge">
<title>Node6&#45;&gt;Node7</title>
<path fill="none" stroke="midnightblue" d="M648.19,-15.5C661.79,-15.5 676.07,-15.5 689.93,-15.5"/>
<polygon fill="midnightblue" stroke="midnightblue" points="689.93,-19 699.93,-15.5 689.93,-12 689.93,-19"/>
</g>
</g>
</svg>
