<?xml version="1.0" encoding="UTF-8" standalone="no"?>
<!DOCTYPE svg PUBLIC "-//W3C//DTD SVG 1.1//EN"
 "http://www.w3.org/Graphics/SVG/1.1/DTD/svg11.dtd">
<!-- Generated by graphviz version 2.43.0 (0)
 -->
<!-- Title: QuantConnect.Securities.Option.QLOptionPriceModel.Evaluate Pages: 1 -->
<svg width="804pt" height="69pt"
 viewBox="0.00 0.00 804.00 68.50" xmlns="http://www.w3.org/2000/svg" xmlns:xlink="http://www.w3.org/1999/xlink">
<g id="graph0" class="graph" transform="scale(1 1) rotate(0) translate(4 64.5)">
<title>QuantConnect.Securities.Option.QLOptionPriceModel.Evaluate</title>
<polygon fill="white" stroke="transparent" points="-4,4 -4,-64.5 800,-64.5 800,4 -4,4"/>
<!-- Node1 -->
<g id="node1" class="node">
<title>Node1</title>
<g id="a_node1"><a xlink:title="Evaluates the specified option contract to compute a theoretical price, IV and greeks">
<polygon fill="#bfbfbf" stroke="black" points="0,-30 0,-60 197,-60 197,-30 0,-30"/>
<text text-anchor="start" x="8" y="-48" font-family="Helvetica,sans-Serif" font-size="10.00">QuantConnect.Securities.</text>
<text text-anchor="middle" x="98.5" y="-37" font-family="Helvetica,sans-Serif" font-size="10.00">Option.QLOptionPriceModel.Evaluate</text>
</a>
</g>
</g>
<!-- Node2 -->
<g id="node2" class="node">
<title>Node2</title>
<g id="a_node2"><a xlink:href="classQuantConnect_1_1Logging_1_1Log.html#ad908daef9d61532d7d60c9dcfb9a3e0c" target="_top" xlink:title="Output to the console">
<polygon fill="white" stroke="black" points="460,-30 460,-60 610,-60 610,-30 460,-30"/>
<text text-anchor="start" x="468" y="-48" font-family="Helvetica,sans-Serif" font-size="10.00">QuantConnect.Logging.Log.</text>
<text text-anchor="middle" x="535" y="-37" font-family="Helvetica,sans-Serif" font-size="10.00">Debug</text>
</a>
</g>
</g>
<!-- Node1&#45;&gt;Node2 -->
<g id="edge1" class="edge">
<title>Node1&#45;&gt;Node2</title>
<path fill="none" stroke="midnightblue" d="M197.18,-49.9C209.24,-50.35 221.4,-50.74 233,-51 317.87,-52.91 339.14,-53.31 424,-51 432.31,-50.77 440.98,-50.45 449.63,-50.07"/>
<polygon fill="midnightblue" stroke="midnightblue" points="449.94,-53.56 459.76,-49.6 449.61,-46.57 449.94,-53.56"/>
</g>
<!-- Node4 -->
<g id="node4" class="node">
<title>Node4</title>
<g id="a_node4"><a xlink:href="classQuantConnect_1_1Securities_1_1Option_1_1QLOptionPriceModel.html#ab669ee6de9162a224f268696376e071d" target="_top" xlink:title="An implied volatility approximation by Newton&#45;Raphson method. Return 0 if result is not converged">
<polygon fill="white" stroke="black" points="233,-0.5 233,-41.5 424,-41.5 424,-0.5 233,-0.5"/>
<text text-anchor="start" x="241" y="-29.5" font-family="Helvetica,sans-Serif" font-size="10.00">QuantConnect.Securities.</text>
<text text-anchor="start" x="241" y="-18.5" font-family="Helvetica,sans-Serif" font-size="10.00">Option.QLOptionPriceModel.Implied</text>
<text text-anchor="middle" x="328.5" y="-7.5" font-family="Helvetica,sans-Serif" font-size="10.00">VolatilityEstimation</text>
</a>
</g>
</g>
<!-- Node1&#45;&gt;Node4 -->
<g id="edge3" class="edge">
<title>Node1&#45;&gt;Node4</title>
<path fill="none" stroke="midnightblue" d="M197.18,-34.72C205.7,-33.82 214.34,-32.91 222.9,-32.01"/>
<polygon fill="midnightblue" stroke="midnightblue" points="223.33,-35.48 232.91,-30.96 222.6,-28.52 223.33,-35.48"/>
</g>
<!-- Node3 -->
<g id="node3" class="node">
<title>Node3</title>
<g id="a_node3"><a xlink:href="interfaceQuantConnect_1_1Logging_1_1ILogHandler.html#a2c738b8e78dd5b54244bc68b969ba91d" target="_top" xlink:title="Write debug message to log">
<polygon fill="white" stroke="black" points="646,-30 646,-60 796,-60 796,-30 646,-30"/>
<text text-anchor="start" x="654" y="-48" font-family="Helvetica,sans-Serif" font-size="10.00">QuantConnect.Logging.ILog</text>
<text text-anchor="middle" x="721" y="-37" font-family="Helvetica,sans-Serif" font-size="10.00">Handler.Debug</text>
</a>
</g>
</g>
<!-- Node2&#45;&gt;Node3 -->
<g id="edge2" class="edge">
<title>Node2&#45;&gt;Node3</title>
<path fill="none" stroke="midnightblue" d="M610.04,-45C618.51,-45 627.19,-45 635.78,-45"/>
<polygon fill="midnightblue" stroke="midnightblue" points="635.81,-48.5 645.81,-45 635.81,-41.5 635.81,-48.5"/>
</g>
<!-- Node4&#45;&gt;Node2 -->
<g id="edge4" class="edge">
<title>Node4&#45;&gt;Node2</title>
<path fill="none" stroke="midnightblue" d="M424.27,-32.12C432.73,-33.12 441.27,-34.12 449.64,-35.1"/>
<polygon fill="midnightblue" stroke="midnightblue" points="449.42,-38.6 459.76,-36.29 450.23,-31.64 449.42,-38.6"/>
</g>
</g>
</svg>
