<?xml version="1.0" encoding="UTF-8" standalone="no"?>
<!DOCTYPE svg PUBLIC "-//W3C//DTD SVG 1.1//EN"
 "http://www.w3.org/Graphics/SVG/1.1/DTD/svg11.dtd">
<!-- Generated by graphviz version 2.43.0 (0)
 -->
<!-- Title: QuantConnect.Lean.Engine.DataFeeds.AggregationManager.Remove Pages: 1 -->
<svg width="596pt" height="39pt"
 viewBox="0.00 0.00 596.00 39.00" xmlns="http://www.w3.org/2000/svg" xmlns:xlink="http://www.w3.org/1999/xlink">
<g id="graph0" class="graph" transform="scale(1 1) rotate(0) translate(4 35)">
<title>QuantConnect.Lean.Engine.DataFeeds.AggregationManager.Remove</title>
<polygon fill="white" stroke="transparent" points="-4,4 -4,-35 592,-35 592,4 -4,4"/>
<!-- Node1 -->
<g id="node1" class="node">
<title>Node1</title>
<g id="a_node1"><a xlink:title="Removes the handler with the specified identifier">
<polygon fill="#bfbfbf" stroke="black" points="0,-0.5 0,-30.5 216,-30.5 216,-0.5 0,-0.5"/>
<text text-anchor="start" x="8" y="-18.5" font-family="Helvetica,sans-Serif" font-size="10.00">QuantConnect.Lean.Engine.</text>
<text text-anchor="middle" x="108" y="-7.5" font-family="Helvetica,sans-Serif" font-size="10.00">DataFeeds.AggregationManager.Remove</text>
</a>
</g>
</g>
<!-- Node2 -->
<g id="node2" class="node">
<title>Node2</title>
<g id="a_node2"><a xlink:href="classQuantConnect_1_1Logging_1_1Log.html#ad908daef9d61532d7d60c9dcfb9a3e0c" target="_top" xlink:title="Output to the console">
<polygon fill="white" stroke="black" points="252,-0.5 252,-30.5 402,-30.5 402,-0.5 252,-0.5"/>
<text text-anchor="start" x="260" y="-18.5" font-family="Helvetica,sans-Serif" font-size="10.00">QuantConnect.Logging.Log.</text>
<text text-anchor="middle" x="327" y="-7.5" font-family="Helvetica,sans-Serif" font-size="10.00">Debug</text>
</a>
</g>
</g>
<!-- Node1&#45;&gt;Node2 -->
<g id="edge1" class="edge">
<title>Node1&#45;&gt;Node2</title>
<path fill="none" stroke="midnightblue" d="M216.23,-15.5C224.81,-15.5 233.4,-15.5 241.78,-15.5"/>
<polygon fill="midnightblue" stroke="midnightblue" points="241.89,-19 251.89,-15.5 241.89,-12 241.89,-19"/>
</g>
<!-- Node3 -->
<g id="node3" class="node">
<title>Node3</title>
<g id="a_node3"><a xlink:href="interfaceQuantConnect_1_1Logging_1_1ILogHandler.html#a2c738b8e78dd5b54244bc68b969ba91d" target="_top" xlink:title="Write debug message to log">
<polygon fill="white" stroke="black" points="438,-0.5 438,-30.5 588,-30.5 588,-0.5 438,-0.5"/>
<text text-anchor="start" x="446" y="-18.5" font-family="Helvetica,sans-Serif" font-size="10.00">QuantConnect.Logging.ILog</text>
<text text-anchor="middle" x="513" y="-7.5" font-family="Helvetica,sans-Serif" font-size="10.00">Handler.Debug</text>
</a>
</g>
</g>
<!-- Node2&#45;&gt;Node3 -->
<g id="edge2" class="edge">
<title>Node2&#45;&gt;Node3</title>
<path fill="none" stroke="midnightblue" d="M402.04,-15.5C410.51,-15.5 419.19,-15.5 427.78,-15.5"/>
<polygon fill="midnightblue" stroke="midnightblue" points="427.81,-19 437.81,-15.5 427.81,-12 427.81,-19"/>
</g>
</g>
</svg>
