<?xml version="1.0" encoding="UTF-8" standalone="no"?>
<!DOCTYPE svg PUBLIC "-//W3C//DTD SVG 1.1//EN"
 "http://www.w3.org/Graphics/SVG/1.1/DTD/svg11.dtd">
<!-- Generated by graphviz version 2.43.0 (0)
 -->
<!-- Title: QuantConnect.Data.Auxiliary.MapFile.WriteToCsv Pages: 1 -->
<svg width="565pt" height="137pt"
 viewBox="0.00 0.00 565.00 137.00" xmlns="http://www.w3.org/2000/svg" xmlns:xlink="http://www.w3.org/1999/xlink">
<g id="graph0" class="graph" transform="scale(1 1) rotate(0) translate(4 133)">
<title>QuantConnect.Data.Auxiliary.MapFile.WriteToCsv</title>
<polygon fill="white" stroke="transparent" points="-4,4 -4,-133 561,-133 561,4 -4,4"/>
<!-- Node1 -->
<g id="node1" class="node">
<title>Node1</title>
<g id="a_node1"><a xlink:title="Writes the map file to a CSV file">
<polygon fill="#bfbfbf" stroke="black" points="0,-49.5 0,-79.5 160,-79.5 160,-49.5 0,-49.5"/>
<text text-anchor="start" x="8" y="-67.5" font-family="Helvetica,sans-Serif" font-size="10.00">QuantConnect.Data.Auxiliary.</text>
<text text-anchor="middle" x="80" y="-56.5" font-family="Helvetica,sans-Serif" font-size="10.00">MapFile.WriteToCsv</text>
</a>
</g>
</g>
<!-- Node2 -->
<g id="node2" class="node">
<title>Node2</title>
<g id="a_node2"><a xlink:href="classQuantConnect_1_1Data_1_1Auxiliary_1_1MapFile.html#aeeaf8823a4b232998622b92569ad425c" target="_top" xlink:title="Constructs the map file path for the specified market and symbol">
<polygon fill="white" stroke="black" points="196,-98.5 196,-128.5 371,-128.5 371,-98.5 196,-98.5"/>
<text text-anchor="start" x="204" y="-116.5" font-family="Helvetica,sans-Serif" font-size="10.00">QuantConnect.Data.Auxiliary.</text>
<text text-anchor="middle" x="283.5" y="-105.5" font-family="Helvetica,sans-Serif" font-size="10.00">MapFile.GetRelativeMapFilePath</text>
</a>
</g>
</g>
<!-- Node1&#45;&gt;Node2 -->
<g id="edge1" class="edge">
<title>Node1&#45;&gt;Node2</title>
<path fill="none" stroke="midnightblue" d="M142.83,-79.53C164.39,-84.78 188.77,-90.71 211.05,-96.13"/>
<polygon fill="midnightblue" stroke="midnightblue" points="210.25,-99.53 220.79,-98.49 211.9,-92.73 210.25,-99.53"/>
</g>
<!-- Node3 -->
<g id="node3" class="node">
<title>Node3</title>
<g id="a_node3"><a xlink:href="classQuantConnect_1_1Data_1_1Auxiliary_1_1MapFile.html#afe0986cb5b9fcda105f900f5fc1290e3" target="_top" xlink:title="Reads and writes each MapFileRow">
<polygon fill="white" stroke="black" points="203.5,-49.5 203.5,-79.5 363.5,-79.5 363.5,-49.5 203.5,-49.5"/>
<text text-anchor="start" x="211.5" y="-67.5" font-family="Helvetica,sans-Serif" font-size="10.00">QuantConnect.Data.Auxiliary.</text>
<text text-anchor="middle" x="283.5" y="-56.5" font-family="Helvetica,sans-Serif" font-size="10.00">MapFile.ToCsvLines</text>
</a>
</g>
</g>
<!-- Node1&#45;&gt;Node3 -->
<g id="edge2" class="edge">
<title>Node1&#45;&gt;Node3</title>
<path fill="none" stroke="midnightblue" d="M160.06,-64.5C170.95,-64.5 182.19,-64.5 193.25,-64.5"/>
<polygon fill="midnightblue" stroke="midnightblue" points="193.34,-68 203.34,-64.5 193.34,-61 193.34,-68"/>
</g>
<!-- Node4 -->
<g id="node4" class="node">
<title>Node4</title>
<g id="a_node4"><a xlink:href="classQuantConnect_1_1Logging_1_1Log.html#a4e55477fbc790846b74550a57198cea9" target="_top" xlink:title="Log trace">
<polygon fill="white" stroke="black" points="208.5,-0.5 208.5,-30.5 358.5,-30.5 358.5,-0.5 208.5,-0.5"/>
<text text-anchor="start" x="216.5" y="-18.5" font-family="Helvetica,sans-Serif" font-size="10.00">QuantConnect.Logging.Log.</text>
<text text-anchor="middle" x="283.5" y="-7.5" font-family="Helvetica,sans-Serif" font-size="10.00">Trace</text>
</a>
</g>
</g>
<!-- Node1&#45;&gt;Node4 -->
<g id="edge3" class="edge">
<title>Node1&#45;&gt;Node4</title>
<path fill="none" stroke="midnightblue" d="M142.83,-49.47C164.39,-44.22 188.77,-38.29 211.05,-32.87"/>
<polygon fill="midnightblue" stroke="midnightblue" points="211.9,-36.27 220.79,-30.51 210.25,-29.47 211.9,-36.27"/>
</g>
<!-- Node5 -->
<g id="node5" class="node">
<title>Node5</title>
<g id="a_node5"><a xlink:href="interfaceQuantConnect_1_1Logging_1_1ILogHandler.html#a3fb71a33ac66129240b63f12b6fcda3b" target="_top" xlink:title="Write debug message to log">
<polygon fill="white" stroke="black" points="407,-0.5 407,-30.5 557,-30.5 557,-0.5 407,-0.5"/>
<text text-anchor="start" x="415" y="-18.5" font-family="Helvetica,sans-Serif" font-size="10.00">QuantConnect.Logging.ILog</text>
<text text-anchor="middle" x="482" y="-7.5" font-family="Helvetica,sans-Serif" font-size="10.00">Handler.Trace</text>
</a>
</g>
</g>
<!-- Node4&#45;&gt;Node5 -->
<g id="edge4" class="edge">
<title>Node4&#45;&gt;Node5</title>
<path fill="none" stroke="midnightblue" d="M358.51,-15.5C370.96,-15.5 383.96,-15.5 396.64,-15.5"/>
<polygon fill="midnightblue" stroke="midnightblue" points="396.73,-19 406.73,-15.5 396.73,-12 396.73,-19"/>
</g>
</g>
</svg>
