<?xml version="1.0" encoding="UTF-8" standalone="no"?>
<!DOCTYPE svg PUBLIC "-//W3C//DTD SVG 1.1//EN"
 "http://www.w3.org/Graphics/SVG/1.1/DTD/svg11.dtd">
<!-- Generated by graphviz version 2.43.0 (0)
 -->
<!-- Title: QuantConnect.Time.DateTimeToUnixTimeStamp Pages: 1 -->
<!--zoomable 438 -->
<svg id="main" version="1.1" xmlns="http://www.w3.org/2000/svg" xmlns:xlink="http://www.w3.org/1999/xlink" xml:space="preserve" onload="init(evt)">
<style type="text/css"><![CDATA[
.edge:hover path { stroke: red; }
.edge:hover polygon { stroke: red; fill: red; }
]]></style>
<script type="text/javascript"><![CDATA[
var edges = document.getElementsByTagName('g');
if (edges && edges.length) {
  for (var i=0;i<edges.length;i++) {
    if (edges[i].id.substr(0,4)=='edge') {
      edges[i].setAttribute('class','edge');
    }
  }
}
]]></script>
        <defs>
                <circle id="rim" cx="0" cy="0" r="7"/>
                <circle id="rim2" cx="0" cy="0" r="3.5"/>
                <g id="zoomPlus">
                        <use xlink:href="#rim" fill="#404040">
                                <set attributeName="fill" to="#808080" begin="zoomplus.mouseover" end="zoomplus.mouseout"/>
                        </use>
                        <path d="M-4,0h8M0,-4v8" fill="none" stroke="white" stroke-width="1.5" pointer-events="none"/>
                </g>
                <g id="zoomMin">
                        <use xlink:href="#rim" fill="#404040">
                                <set attributeName="fill" to="#808080" begin="zoomminus.mouseover" end="zoomminus.mouseout"/>
                        </use>
                        <path d="M-4,0h8" fill="none" stroke="white" stroke-width="1.5" pointer-events="none"/>
                </g>
                <g id="dirArrow">
                        <path fill="none" stroke="white" stroke-width="1.5" d="M0,-3.0v7 M-2.5,-0.5L0,-3.0L2.5,-0.5"/>
                </g>
               <g id="resetDef">
                       <use xlink:href="#rim2" fill="#404040">
                               <set attributeName="fill" to="#808080" begin="reset.mouseover" end="reset.mouseout"/>
                       </use>
               </g>
        </defs>

<script type="text/javascript">
var viewWidth = 650;
var viewHeight = 438;
var sectionId = 'dynsection-9';
</script>
<script xlink:href="svgpan.js"/>
<svg id="graph" class="graph">
<g id="viewport">
<title>QuantConnect.Time.DateTimeToUnixTimeStamp</title>
<polygon fill="white" stroke="transparent" points="-4,4 -4,-434 646,-434 646,4 -4,4"/>
<!-- Node1 -->
<g id="node1" class="node">
<title>Node1</title>
<g id="a_node1"><a xlink:title="Convert a Datetime to Unix Timestamp">
<polygon fill="#bfbfbf" stroke="black" points="478,-203.5 478,-233.5 642,-233.5 642,-203.5 478,-203.5"/>
<text text-anchor="start" x="486" y="-221.5" font-family="Helvetica,sans-Serif" font-size="10.00">QuantConnect.Time.DateTime</text>
<text text-anchor="middle" x="560" y="-210.5" font-family="Helvetica,sans-Serif" font-size="10.00">ToUnixTimeStamp</text>
</a>
</g>
</g>
<!-- Node2 -->
<g id="node2" class="node">
<title>Node2</title>
<g id="a_node2"><a xlink:href="classQuantConnect_1_1ChartPoint.html#ab2ef5f3a9ecd5c205c9aea8d74206e3b" target="_top" xlink:title="Constructor for datetime&#45;value arguements:">
<polygon fill="white" stroke="black" points="258,-399.5 258,-429.5 401,-429.5 401,-399.5 258,-399.5"/>
<text text-anchor="start" x="266" y="-417.5" font-family="Helvetica,sans-Serif" font-size="10.00">QuantConnect.ChartPoint.</text>
<text text-anchor="middle" x="329.5" y="-406.5" font-family="Helvetica,sans-Serif" font-size="10.00">ChartPoint</text>
</a>
</g>
</g>
<!-- Node1&#45;&gt;Node2 -->
<g id="edge1" class="edge">
<title>Node1&#45;&gt;Node2</title>
<path fill="none" stroke="midnightblue" d="M549.53,-242.82C533.47,-280.72 497.13,-353.37 442,-390.5 429.85,-398.69 415.4,-404.14 401.01,-407.77"/>
<polygon fill="midnightblue" stroke="midnightblue" points="552.78,-244.12 553.36,-233.54 546.31,-241.46 552.78,-244.12"/>
</g>
<!-- Node3 -->
<g id="node3" class="node">
<title>Node3</title>
<g id="a_node3"><a xlink:href="classQuantConnect_1_1ToolBox_1_1KrakenDownloader_1_1KrakenDataDownloader.html#acce7cae682f1c726942574f7dd1f5da5" target="_top" xlink:title="Get historical data enumerable for a single symbol, type and resolution given this start and end time...">
<polygon fill="white" stroke="black" points="223.5,-350.5 223.5,-380.5 435.5,-380.5 435.5,-350.5 223.5,-350.5"/>
<text text-anchor="start" x="231.5" y="-368.5" font-family="Helvetica,sans-Serif" font-size="10.00">QuantConnect.ToolBox.Kraken</text>
<text text-anchor="middle" x="329.5" y="-357.5" font-family="Helvetica,sans-Serif" font-size="10.00">Downloader.KrakenDataDownloader.Get</text>
</a>
</g>
</g>
<!-- Node1&#45;&gt;Node3 -->
<g id="edge2" class="edge">
<title>Node1&#45;&gt;Node3</title>
<path fill="none" stroke="midnightblue" d="M543.25,-242.25C523.19,-270.5 485.84,-316.91 442,-341.5 435.87,-344.94 429.29,-347.89 422.52,-350.41"/>
<polygon fill="midnightblue" stroke="midnightblue" points="546.31,-243.98 549.14,-233.77 540.56,-239.98 546.31,-243.98"/>
</g>
<!-- Node4 -->
<g id="node4" class="node">
<title>Node4</title>
<g id="a_node4"><a xlink:href="classQuantConnect_1_1Api_1_1Api.html#a23ad4b44a409932c84e51e7c400c4057" target="_top" xlink:title="Get a list of live running algorithms for user">
<polygon fill="white" stroke="black" points="258,-301.5 258,-331.5 401,-331.5 401,-301.5 258,-301.5"/>
<text text-anchor="start" x="266" y="-319.5" font-family="Helvetica,sans-Serif" font-size="10.00">QuantConnect.Api.Api.List</text>
<text text-anchor="middle" x="329.5" y="-308.5" font-family="Helvetica,sans-Serif" font-size="10.00">LiveAlgorithms</text>
</a>
</g>
</g>
<!-- Node1&#45;&gt;Node4 -->
<g id="edge3" class="edge">
<title>Node1&#45;&gt;Node4</title>
<path fill="none" stroke="midnightblue" d="M531.72,-239.69C508.92,-256.39 474.95,-279.04 442,-292.5 429.17,-297.74 415.02,-301.91 401.23,-305.21"/>
<polygon fill="midnightblue" stroke="midnightblue" points="533.95,-242.39 539.88,-233.61 529.77,-236.77 533.95,-242.39"/>
</g>
<!-- Node5 -->
<g id="node5" class="node">
<title>Node5</title>
<g id="a_node5"><a xlink:href="classQuantConnect_1_1Api_1_1Api.html#ad94ec3083f87a2d45fe969c3ffe04173" target="_top" xlink:title="Gets the logs of a specific live algorithm">
<polygon fill="white" stroke="black" points="254,-252.5 254,-282.5 405,-282.5 405,-252.5 254,-252.5"/>
<text text-anchor="start" x="262" y="-270.5" font-family="Helvetica,sans-Serif" font-size="10.00">QuantConnect.Api.Api.Read</text>
<text text-anchor="middle" x="329.5" y="-259.5" font-family="Helvetica,sans-Serif" font-size="10.00">LiveLogs</text>
</a>
</g>
</g>
<!-- Node1&#45;&gt;Node5 -->
<g id="edge4" class="edge">
<title>Node1&#45;&gt;Node5</title>
<path fill="none" stroke="midnightblue" d="M478.86,-235.69C453.31,-241.16 425.25,-247.18 400.48,-252.49"/>
<polygon fill="midnightblue" stroke="midnightblue" points="479.85,-239.05 488.89,-233.53 478.38,-232.21 479.85,-239.05"/>
</g>
<!-- Node6 -->
<g id="node6" class="node">
<title>Node6</title>
<g id="a_node6"><a xlink:href="classQuantConnect_1_1SeriesSampler.html#a0f2c6bab5e323e903463c534850bbfb0" target="_top" xlink:title="Samples the given series">
<polygon fill="white" stroke="black" points="249,-203.5 249,-233.5 410,-233.5 410,-203.5 249,-203.5"/>
<text text-anchor="start" x="257" y="-221.5" font-family="Helvetica,sans-Serif" font-size="10.00">QuantConnect.SeriesSampler.</text>
<text text-anchor="middle" x="329.5" y="-210.5" font-family="Helvetica,sans-Serif" font-size="10.00">Sample</text>
</a>
</g>
</g>
<!-- Node1&#45;&gt;Node6 -->
<g id="edge5" class="edge">
<title>Node1&#45;&gt;Node6</title>
<path fill="none" stroke="midnightblue" d="M467.66,-218.5C448.68,-218.5 428.82,-218.5 410.29,-218.5"/>
<polygon fill="midnightblue" stroke="midnightblue" points="467.8,-222 477.8,-218.5 467.8,-215 467.8,-222"/>
</g>
<!-- Node8 -->
<g id="node8" class="node">
<title>Node8</title>
<g id="a_node8"><a xlink:href="classQuantConnect_1_1Algorithm_1_1Framework_1_1Alphas_1_1Serialization_1_1SerializedInsight.html#a1351eb402776a7711c31492680ed2c0d" target="_top" xlink:title="Initializes a new instance of the SerializedInsight &#160;class by copying the specified insight">
<polygon fill="white" stroke="black" points="229.5,-143 229.5,-184 429.5,-184 429.5,-143 229.5,-143"/>
<text text-anchor="start" x="237.5" y="-172" font-family="Helvetica,sans-Serif" font-size="10.00">QuantConnect.Algorithm.Framework.</text>
<text text-anchor="start" x="237.5" y="-161" font-family="Helvetica,sans-Serif" font-size="10.00">Alphas.Serialization.SerializedInsight.</text>
<text text-anchor="middle" x="329.5" y="-150" font-family="Helvetica,sans-Serif" font-size="10.00">SerializedInsight</text>
</a>
</g>
</g>
<!-- Node1&#45;&gt;Node8 -->
<g id="edge7" class="edge">
<title>Node1&#45;&gt;Node8</title>
<path fill="none" stroke="midnightblue" d="M486.76,-201.11C464.28,-195.7 439.28,-189.68 415.99,-184.08"/>
<polygon fill="midnightblue" stroke="midnightblue" points="486.02,-204.53 496.56,-203.47 487.66,-197.73 486.02,-204.53"/>
</g>
<!-- Node9 -->
<g id="node9" class="node">
<title>Node9</title>
<g id="a_node9"><a xlink:href="classQuantConnect_1_1Orders_1_1Serialization_1_1SerializedOrder.html#acf0c03c935126176806be09b302dc948" target="_top" xlink:title="Creates a new serialized order instance based on the provided order">
<polygon fill="white" stroke="black" points="235.5,-93.5 235.5,-123.5 423.5,-123.5 423.5,-93.5 235.5,-93.5"/>
<text text-anchor="start" x="243.5" y="-111.5" font-family="Helvetica,sans-Serif" font-size="10.00">QuantConnect.Orders.Serialization.</text>
<text text-anchor="middle" x="329.5" y="-100.5" font-family="Helvetica,sans-Serif" font-size="10.00">SerializedOrder.SerializedOrder</text>
</a>
</g>
</g>
<!-- Node1&#45;&gt;Node9 -->
<g id="edge8" class="edge">
<title>Node1&#45;&gt;Node9</title>
<path fill="none" stroke="midnightblue" d="M535.28,-196.72C512.86,-177.29 477.46,-149.52 442,-133.5 433.41,-129.62 424.17,-126.32 414.82,-123.52"/>
<polygon fill="midnightblue" stroke="midnightblue" points="533.11,-199.47 542.93,-203.46 537.74,-194.22 533.11,-199.47"/>
</g>
<!-- Node10 -->
<g id="node10" class="node">
<title>Node10</title>
<g id="a_node10"><a xlink:href="classQuantConnect_1_1Orders_1_1Serialization_1_1SerializedOrderEvent.html#ab778a830759f40e39bc5035b6aa1c145" target="_top" xlink:title="Creates a new instances based on the provided order event and algorithm Id">
<polygon fill="white" stroke="black" points="217,-44.5 217,-74.5 442,-74.5 442,-44.5 217,-44.5"/>
<text text-anchor="start" x="225" y="-62.5" font-family="Helvetica,sans-Serif" font-size="10.00">QuantConnect.Orders.Serialization.</text>
<text text-anchor="middle" x="329.5" y="-51.5" font-family="Helvetica,sans-Serif" font-size="10.00">SerializedOrderEvent.SerializedOrderEvent</text>
</a>
</g>
</g>
<!-- Node1&#45;&gt;Node10 -->
<g id="edge9" class="edge">
<title>Node1&#45;&gt;Node10</title>
<path fill="none" stroke="midnightblue" d="M544.89,-194.52C525.63,-164.01 488.18,-111.98 442,-84.5 435.44,-80.59 428.33,-77.3 420.98,-74.52"/>
<polygon fill="midnightblue" stroke="midnightblue" points="542.05,-196.57 550.27,-203.25 548,-192.9 542.05,-196.57"/>
</g>
<!-- Node11 -->
<g id="node11" class="node">
<title>Node11</title>
<g id="a_node11"><a xlink:href="classQuantConnect_1_1Time.html#a8f3be0f6448ecbfa8b141ab5138abf3c" target="_top" xlink:title="Get the current time as a unix timestamp">
<polygon fill="white" stroke="black" points="243,-6 243,-25 416,-25 416,-6 243,-6"/>
<text text-anchor="middle" x="329.5" y="-13" font-family="Helvetica,sans-Serif" font-size="10.00">QuantConnect.Time.TimeStamp</text>
</a>
</g>
</g>
<!-- Node1&#45;&gt;Node11 -->
<g id="edge10" class="edge">
<title>Node1&#45;&gt;Node11</title>
<path fill="none" stroke="midnightblue" d="M550.76,-193.68C535.94,-153.19 500.73,-73.53 442,-34.5 434.15,-29.28 425.32,-25.35 416.16,-22.41"/>
<polygon fill="midnightblue" stroke="midnightblue" points="547.53,-195.05 554.17,-203.31 554.13,-192.72 547.53,-195.05"/>
</g>
<!-- Node7 -->
<g id="node7" class="node">
<title>Node7</title>
<g id="a_node7"><a xlink:href="classQuantConnect_1_1SeriesSampler.html#aff66bac198388ae131b4d6ca295fd05f" target="_top" xlink:title="Samples the given charts">
<polygon fill="white" stroke="black" points="10,-203.5 10,-233.5 171,-233.5 171,-203.5 10,-203.5"/>
<text text-anchor="start" x="18" y="-221.5" font-family="Helvetica,sans-Serif" font-size="10.00">QuantConnect.SeriesSampler.</text>
<text text-anchor="middle" x="90.5" y="-210.5" font-family="Helvetica,sans-Serif" font-size="10.00">SampleCharts</text>
</a>
</g>
</g>
<!-- Node6&#45;&gt;Node7 -->
<g id="edge6" class="edge">
<title>Node6&#45;&gt;Node7</title>
<path fill="none" stroke="midnightblue" d="M238.83,-218.5C216.62,-218.5 192.97,-218.5 171.27,-218.5"/>
<polygon fill="midnightblue" stroke="midnightblue" points="238.92,-222 248.92,-218.5 238.92,-215 238.92,-222"/>
</g>
<!-- Node12 -->
<g id="node12" class="node">
<title>Node12</title>
<g id="a_node12"><a xlink:href="classQuantConnect_1_1Api_1_1ApiConnection.html#ad584a71b83ddfe14c7e45849bc6c8ac3" target="_top" xlink:title="Place a secure request and get back an object of type T.">
<polygon fill="white" stroke="black" points="0,-0.5 0,-30.5 181,-30.5 181,-0.5 0,-0.5"/>
<text text-anchor="start" x="8" y="-18.5" font-family="Helvetica,sans-Serif" font-size="10.00">QuantConnect.Api.ApiConnection.</text>
<text text-anchor="middle" x="90.5" y="-7.5" font-family="Helvetica,sans-Serif" font-size="10.00">TryRequest&lt; T &gt;</text>
</a>
</g>
</g>
<!-- Node11&#45;&gt;Node12 -->
<g id="edge11" class="edge">
<title>Node11&#45;&gt;Node12</title>
<path fill="none" stroke="midnightblue" d="M232.51,-15.5C215.6,-15.5 198.06,-15.5 181.33,-15.5"/>
<polygon fill="midnightblue" stroke="midnightblue" points="232.94,-19 242.94,-15.5 232.94,-12 232.94,-19"/>
</g>
</g>
</svg>
        <g id="navigator" transform="translate(0 0)" fill="#404254">
                <rect fill="#f2f5e9" fill-opacity="0.5" stroke="#606060" stroke-width=".5" x="0" y="0" width="60" height="60"/>
                <use id="zoomplus" xlink:href="#zoomPlus" x="17" y="9" onmousedown="handleZoom(evt,'in')"/>
                <use id="zoomminus" xlink:href="#zoomMin" x="42" y="9" onmousedown="handleZoom(evt,'out')"/>
                <use id="reset" xlink:href="#resetDef" x="30" y="36" onmousedown="handleReset()"/>
                <g id="arrowUp" xlink:href="#dirArrow" transform="translate(30 24)" onmousedown="handlePan(0,-1)">
                  <use xlink:href="#rim" fill="#404040">
                        <set attributeName="fill" to="#808080" begin="arrowUp.mouseover" end="arrowUp.mouseout"/>
                  </use>
                  <path fill="none" stroke="white" stroke-width="1.5" d="M0,-3.0v7 M-2.5,-0.5L0,-3.0L2.5,-0.5"/>
                </g>
                <g id="arrowRight" xlink:href="#dirArrow" transform="rotate(90) translate(36 -43)" onmousedown="handlePan(1,0)">
                  <use xlink:href="#rim" fill="#404040">
                        <set attributeName="fill" to="#808080" begin="arrowRight.mouseover" end="arrowRight.mouseout"/>
                  </use>
                  <path fill="none" stroke="white" stroke-width="1.5" d="M0,-3.0v7 M-2.5,-0.5L0,-3.0L2.5,-0.5"/>
                </g>
                <g id="arrowDown" xlink:href="#dirArrow" transform="rotate(180) translate(-30 -48)" onmousedown="handlePan(0,1)">
                  <use xlink:href="#rim" fill="#404040">
                        <set attributeName="fill" to="#808080" begin="arrowDown.mouseover" end="arrowDown.mouseout"/>
                  </use>
                  <path fill="none" stroke="white" stroke-width="1.5" d="M0,-3.0v7 M-2.5,-0.5L0,-3.0L2.5,-0.5"/>
                </g>
                <g id="arrowLeft" xlink:href="#dirArrow" transform="rotate(270) translate(-36 17)" onmousedown="handlePan(-1,0)">
                  <use xlink:href="#rim" fill="#404040">
                        <set attributeName="fill" to="#808080" begin="arrowLeft.mouseover" end="arrowLeft.mouseout"/>
                  </use>
                  <path fill="none" stroke="white" stroke-width="1.5" d="M0,-3.0v7 M-2.5,-0.5L0,-3.0L2.5,-0.5"/>
                </g>
        </g>
        <svg viewBox="0 0 15 15" width="100%" height="30px" preserveAspectRatio="xMaxYMin meet">
         <g id="arrow_out" transform="scale(0.3 0.3)">
          <a xlink:href="classQuantConnect_1_1Time_a0b4fec367fb0ce33080eacb62a83336b_icgraph_org.svg" target="_base">
           <rect id="button" ry="5" rx="5" y="6" x="6" height="38" width="38"
                fill="#f2f5e9" fill-opacity="0.5" stroke="#606060" stroke-width="1.0"/>
           <path id="arrow"
             d="M 11.500037,31.436501 C 11.940474,20.09759 22.043105,11.32322 32.158766,21.979434 L 37.068811,17.246167 C 37.068811,17.246167 37.088388,32 37.088388,32 L 22.160133,31.978069 C 22.160133,31.978069 26.997745,27.140456 26.997745,27.140456 C 18.528582,18.264221 13.291696,25.230495 11.500037,31.436501 z"
             style="fill:#404040;"/>
          </a>
         </g>
        </svg>
</svg>
