<?xml version="1.0" encoding="UTF-8" standalone="no"?>
<!DOCTYPE svg PUBLIC "-//W3C//DTD SVG 1.1//EN"
 "http://www.w3.org/Graphics/SVG/1.1/DTD/svg11.dtd">
<!-- Generated by graphviz version 2.43.0 (0)
 -->
<!-- Title: QuantConnect.Util.OptionPayoff.GetIntrinsicValue Pages: 1 -->
<svg width="761pt" height="50pt"
 viewBox="0.00 0.00 761.00 50.00" xmlns="http://www.w3.org/2000/svg" xmlns:xlink="http://www.w3.org/1999/xlink">
<g id="graph0" class="graph" transform="scale(1 1) rotate(0) translate(4 46)">
<title>QuantConnect.Util.OptionPayoff.GetIntrinsicValue</title>
<polygon fill="white" stroke="transparent" points="-4,4 -4,-46 757,-46 757,4 -4,4"/>
<!-- Node1 -->
<g id="node1" class="node">
<title>Node1</title>
<g id="a_node1"><a xlink:title="Intrinsic value function of the option">
<polygon fill="#bfbfbf" stroke="black" points="612,-6 612,-36 753,-36 753,-6 612,-6"/>
<text text-anchor="start" x="620" y="-24" font-family="Helvetica,sans-Serif" font-size="10.00">QuantConnect.Util.Option</text>
<text text-anchor="middle" x="682.5" y="-13" font-family="Helvetica,sans-Serif" font-size="10.00">Payoff.GetIntrinsicValue</text>
</a>
</g>
</g>
<!-- Node2 -->
<g id="node2" class="node">
<title>Node2</title>
<g id="a_node2"><a xlink:href="classQuantConnect_1_1Securities_1_1Option_1_1Option.html#a6038a942fd8a3b859a771b5269224208" target="_top" xlink:title="Intrinsic value function of the option">
<polygon fill="white" stroke="black" points="406,-6 406,-36 576,-36 576,-6 406,-6"/>
<text text-anchor="start" x="414" y="-24" font-family="Helvetica,sans-Serif" font-size="10.00">QuantConnect.Securities.</text>
<text text-anchor="middle" x="491" y="-13" font-family="Helvetica,sans-Serif" font-size="10.00">Option.Option.GetIntrinsicValue</text>
</a>
</g>
</g>
<!-- Node1&#45;&gt;Node2 -->
<g id="edge1" class="edge">
<title>Node1&#45;&gt;Node2</title>
<path fill="none" stroke="midnightblue" d="M601.56,-21C593.13,-21 584.54,-21 576.07,-21"/>
<polygon fill="midnightblue" stroke="midnightblue" points="601.74,-24.5 611.74,-21 601.74,-17.5 601.74,-24.5"/>
</g>
<!-- Node3 -->
<g id="node3" class="node">
<title>Node3</title>
<g id="a_node3"><a xlink:href="classQuantConnect_1_1Securities_1_1Option_1_1Option.html#a4779561bd70015ffe94be56dac2a1c05" target="_top" xlink:title="Checks if option is eligible for automatic exercise on expiration">
<polygon fill="white" stroke="black" points="206,-6 206,-36 370,-36 370,-6 206,-6"/>
<text text-anchor="start" x="214" y="-24" font-family="Helvetica,sans-Serif" font-size="10.00">QuantConnect.Securities.</text>
<text text-anchor="middle" x="288" y="-13" font-family="Helvetica,sans-Serif" font-size="10.00">Option.Option.IsAutoExercised</text>
</a>
</g>
</g>
<!-- Node2&#45;&gt;Node3 -->
<g id="edge2" class="edge">
<title>Node2&#45;&gt;Node3</title>
<path fill="none" stroke="midnightblue" d="M395.88,-21C387.29,-21 378.63,-21 370.17,-21"/>
<polygon fill="midnightblue" stroke="midnightblue" points="395.92,-24.5 405.92,-21 395.92,-17.5 395.92,-24.5"/>
</g>
<!-- Node4 -->
<g id="node4" class="node">
<title>Node4</title>
<g id="a_node4"><a xlink:href="classQuantConnect_1_1Orders_1_1OptionExercise_1_1DefaultExerciseModel.html#a11a78c1e45dcb0503484d19cd29abaea" target="_top" xlink:title="Default option exercise model for the basic equity/index option security class.">
<polygon fill="white" stroke="black" points="0,-0.5 0,-41.5 170,-41.5 170,-0.5 0,-0.5"/>
<text text-anchor="start" x="8" y="-29.5" font-family="Helvetica,sans-Serif" font-size="10.00">QuantConnect.Orders.Option</text>
<text text-anchor="start" x="8" y="-18.5" font-family="Helvetica,sans-Serif" font-size="10.00">Exercise.DefaultExerciseModel.</text>
<text text-anchor="middle" x="85" y="-7.5" font-family="Helvetica,sans-Serif" font-size="10.00">OptionExercise</text>
</a>
</g>
</g>
<!-- Node3&#45;&gt;Node4 -->
<g id="edge3" class="edge">
<title>Node3&#45;&gt;Node4</title>
<path fill="none" stroke="midnightblue" d="M195.82,-21C187.26,-21 178.6,-21 170.1,-21"/>
<polygon fill="midnightblue" stroke="midnightblue" points="195.83,-24.5 205.82,-21 195.82,-17.5 195.83,-24.5"/>
</g>
</g>
</svg>
