<?xml version="1.0" encoding="UTF-8" standalone="no"?>
<!DOCTYPE svg PUBLIC "-//W3C//DTD SVG 1.1//EN"
 "http://www.w3.org/Graphics/SVG/1.1/DTD/svg11.dtd">
<!-- Generated by graphviz version 2.43.0 (0)
 -->
<!-- Title: QuantConnect.Lean.Engine.AlgorithmTimeLimitManager.RequestAdditionalTime Pages: 1 -->
<svg width="837pt" height="94pt"
 viewBox="0.00 0.00 837.00 93.50" xmlns="http://www.w3.org/2000/svg" xmlns:xlink="http://www.w3.org/1999/xlink">
<g id="graph0" class="graph" transform="scale(1 1) rotate(0) translate(4 89.5)">
<title>QuantConnect.Lean.Engine.AlgorithmTimeLimitManager.RequestAdditionalTime</title>
<polygon fill="white" stroke="transparent" points="-4,4 -4,-89.5 833,-89.5 833,4 -4,4"/>
<!-- Node1 -->
<g id="node1" class="node">
<title>Node1</title>
<g id="a_node1"><a xlink:title="Requests additional time to continue executing the current time step. At time of writing,...">
<polygon fill="#bfbfbf" stroke="black" points="0,-24.5 0,-65.5 199,-65.5 199,-24.5 0,-24.5"/>
<text text-anchor="start" x="8" y="-53.5" font-family="Helvetica,sans-Serif" font-size="10.00">QuantConnect.Lean.Engine.</text>
<text text-anchor="start" x="8" y="-42.5" font-family="Helvetica,sans-Serif" font-size="10.00">AlgorithmTimeLimitManager.Request</text>
<text text-anchor="middle" x="99.5" y="-31.5" font-family="Helvetica,sans-Serif" font-size="10.00">AdditionalTime</text>
</a>
</g>
</g>
<!-- Node2 -->
<g id="node2" class="node">
<title>Node2</title>
<g id="a_node2"><a xlink:href="classQuantConnect_1_1Logging_1_1Log.html#ad908daef9d61532d7d60c9dcfb9a3e0c" target="_top" xlink:title="Output to the console">
<polygon fill="white" stroke="black" points="488.5,-55 488.5,-85 638.5,-85 638.5,-55 488.5,-55"/>
<text text-anchor="start" x="496.5" y="-73" font-family="Helvetica,sans-Serif" font-size="10.00">QuantConnect.Logging.Log.</text>
<text text-anchor="middle" x="563.5" y="-62" font-family="Helvetica,sans-Serif" font-size="10.00">Debug</text>
</a>
</g>
</g>
<!-- Node1&#45;&gt;Node2 -->
<g id="edge1" class="edge">
<title>Node1&#45;&gt;Node2</title>
<path fill="none" stroke="midnightblue" d="M199.04,-50.33C281.98,-54.82 399.32,-61.17 478.02,-65.43"/>
<polygon fill="midnightblue" stroke="midnightblue" points="478.2,-68.94 488.38,-65.99 478.58,-61.95 478.2,-68.94"/>
</g>
<!-- Node4 -->
<g id="node4" class="node">
<title>Node4</title>
<g id="a_node4"><a xlink:href="classQuantConnect_1_1Lean_1_1Engine_1_1AlgorithmTimeLimitManager.html#ae07173d0b524df5a7eba5cdd5a67cc69" target="_top" xlink:title="Attempts to requests additional time to continue executing the current time step. At time of writing,...">
<polygon fill="white" stroke="black" points="235,-0.5 235,-41.5 448,-41.5 448,-0.5 235,-0.5"/>
<text text-anchor="start" x="243" y="-29.5" font-family="Helvetica,sans-Serif" font-size="10.00">QuantConnect.Lean.Engine.</text>
<text text-anchor="start" x="243" y="-18.5" font-family="Helvetica,sans-Serif" font-size="10.00">AlgorithmTimeLimitManager.TryRequest</text>
<text text-anchor="middle" x="341.5" y="-7.5" font-family="Helvetica,sans-Serif" font-size="10.00">AdditionalTime</text>
</a>
</g>
</g>
<!-- Node1&#45;&gt;Node4 -->
<g id="edge3" class="edge">
<title>Node1&#45;&gt;Node4</title>
<path fill="none" stroke="midnightblue" d="M199.16,-35.13C207.61,-34.29 216.21,-33.43 224.79,-32.57"/>
<polygon fill="midnightblue" stroke="midnightblue" points="225.23,-36.04 234.83,-31.57 224.53,-29.08 225.23,-36.04"/>
</g>
<!-- Node3 -->
<g id="node3" class="node">
<title>Node3</title>
<g id="a_node3"><a xlink:href="interfaceQuantConnect_1_1Logging_1_1ILogHandler.html#a2c738b8e78dd5b54244bc68b969ba91d" target="_top" xlink:title="Write debug message to log">
<polygon fill="white" stroke="black" points="679,-55 679,-85 829,-85 829,-55 679,-55"/>
<text text-anchor="start" x="687" y="-73" font-family="Helvetica,sans-Serif" font-size="10.00">QuantConnect.Logging.ILog</text>
<text text-anchor="middle" x="754" y="-62" font-family="Helvetica,sans-Serif" font-size="10.00">Handler.Debug</text>
</a>
</g>
</g>
<!-- Node2&#45;&gt;Node3 -->
<g id="edge2" class="edge">
<title>Node2&#45;&gt;Node3</title>
<path fill="none" stroke="midnightblue" d="M638.73,-70C648.52,-70 658.61,-70 668.55,-70"/>
<polygon fill="midnightblue" stroke="midnightblue" points="668.84,-73.5 678.84,-70 668.84,-66.5 668.84,-73.5"/>
</g>
<!-- Node4&#45;&gt;Node2 -->
<g id="edge4" class="edge">
<title>Node4&#45;&gt;Node2</title>
<path fill="none" stroke="midnightblue" d="M434.84,-41.57C451.59,-45.3 468.9,-49.15 485.16,-52.78"/>
<polygon fill="midnightblue" stroke="midnightblue" points="484.62,-56.24 495.14,-55 486.14,-49.41 484.62,-56.24"/>
</g>
<!-- Node5 -->
<g id="node5" class="node">
<title>Node5</title>
<g id="a_node5"><a xlink:href="interfaceQuantConnect_1_1Util_1_1RateLimit_1_1ITokenBucket.html#a74f90dbaad804df8917b4b0db2d5508f" target="_top" xlink:title="Attempts to consume the specified number of tokens from the bucket. If the requested number of tokens...">
<polygon fill="white" stroke="black" points="484,-6 484,-36 643,-36 643,-6 484,-6"/>
<text text-anchor="start" x="492" y="-24" font-family="Helvetica,sans-Serif" font-size="10.00">QuantConnect.Util.RateLimit.</text>
<text text-anchor="middle" x="563.5" y="-13" font-family="Helvetica,sans-Serif" font-size="10.00">ITokenBucket.TryConsume</text>
</a>
</g>
</g>
<!-- Node4&#45;&gt;Node5 -->
<g id="edge5" class="edge">
<title>Node4&#45;&gt;Node5</title>
<path fill="none" stroke="midnightblue" d="M448.31,-21C456.84,-21 465.41,-21 473.8,-21"/>
<polygon fill="midnightblue" stroke="midnightblue" points="473.93,-24.5 483.93,-21 473.93,-17.5 473.93,-24.5"/>
</g>
</g>
</svg>
