<?xml version="1.0" encoding="UTF-8" standalone="no"?>
<!DOCTYPE svg PUBLIC "-//W3C//DTD SVG 1.1//EN"
 "http://www.w3.org/Graphics/SVG/1.1/DTD/svg11.dtd">
<!-- Generated by graphviz version 2.43.0 (0)
 -->
<!-- Title: QuantConnect.Lean.Engine.DataFeeds.Enumerators.FillForwardEnumerator Pages: 1 -->
<svg width="198pt" height="184pt"
 viewBox="0.00 0.00 198.00 184.00" xmlns="http://www.w3.org/2000/svg" xmlns:xlink="http://www.w3.org/1999/xlink">
<g id="graph0" class="graph" transform="scale(1 1) rotate(0) translate(4 180)">
<title>QuantConnect.Lean.Engine.DataFeeds.Enumerators.FillForwardEnumerator</title>
<polygon fill="white" stroke="transparent" points="-4,4 -4,-180 194,-180 194,4 -4,4"/>
<!-- Node1 -->
<g id="node1" class="node">
<title>Node1</title>
<g id="a_node1"><a xlink:title="The FillForwardEnumerator wraps an existing base data enumerator and inserts extra &#39;base data&#39; instan...">
<polygon fill="#bfbfbf" stroke="black" points="0,-78.5 0,-119.5 190,-119.5 190,-78.5 0,-78.5"/>
<text text-anchor="start" x="8" y="-107.5" font-family="Helvetica,sans-Serif" font-size="10.00">QuantConnect.Lean.Engine.</text>
<text text-anchor="start" x="8" y="-96.5" font-family="Helvetica,sans-Serif" font-size="10.00">DataFeeds.Enumerators.FillForward</text>
<text text-anchor="middle" x="95" y="-85.5" font-family="Helvetica,sans-Serif" font-size="10.00">Enumerator</text>
</a>
</g>
</g>
<!-- Node3 -->
<g id="node3" class="node">
<title>Node3</title>
<g id="a_node3"><a xlink:href="classQuantConnect_1_1Lean_1_1Engine_1_1DataFeeds_1_1Enumerators_1_1LiveFillForwardEnumerator.html" target="_top" xlink:title="An implementation of the FillForwardEnumerator that uses an ITimeProvider to determine if a fill forw...">
<polygon fill="white" stroke="black" points="9.5,-0.5 9.5,-41.5 180.5,-41.5 180.5,-0.5 9.5,-0.5"/>
<text text-anchor="start" x="17.5" y="-29.5" font-family="Helvetica,sans-Serif" font-size="10.00">QuantConnect.Lean.Engine.</text>
<text text-anchor="start" x="17.5" y="-18.5" font-family="Helvetica,sans-Serif" font-size="10.00">DataFeeds.Enumerators.LiveFill</text>
<text text-anchor="middle" x="95" y="-7.5" font-family="Helvetica,sans-Serif" font-size="10.00">ForwardEnumerator</text>
</a>
</g>
</g>
<!-- Node1&#45;&gt;Node3 -->
<g id="edge2" class="edge">
<title>Node1&#45;&gt;Node3</title>
<path fill="none" stroke="midnightblue" d="M95,-68.3C95,-59.3 95,-49.65 95,-41.51"/>
<polygon fill="midnightblue" stroke="midnightblue" points="91.5,-68.43 95,-78.43 98.5,-68.43 91.5,-68.43"/>
</g>
<!-- Node2 -->
<g id="node2" class="node">
<title>Node2</title>
<g id="a_node2"><a xlink:title=" ">
<polygon fill="white" stroke="#bfbfbf" points="22,-156.5 22,-175.5 168,-175.5 168,-156.5 22,-156.5"/>
<text text-anchor="middle" x="95" y="-163.5" font-family="Helvetica,sans-Serif" font-size="10.00">IEnumerator&lt; BaseData &gt;</text>
</a>
</g>
</g>
<!-- Node2&#45;&gt;Node1 -->
<g id="edge1" class="edge">
<title>Node2&#45;&gt;Node1</title>
<path fill="none" stroke="midnightblue" d="M95,-146.04C95,-137.71 95,-127.94 95,-119.54"/>
<polygon fill="midnightblue" stroke="midnightblue" points="91.5,-146.23 95,-156.23 98.5,-146.23 91.5,-146.23"/>
</g>
</g>
</svg>
