<?xml version="1.0" encoding="UTF-8" standalone="no"?>
<!DOCTYPE svg PUBLIC "-//W3C//DTD SVG 1.1//EN"
 "http://www.w3.org/Graphics/SVG/1.1/DTD/svg11.dtd">
<!-- Generated by graphviz version 2.43.0 (0)
 -->
<!-- Title: QuantConnect.BaseSeries.Create Pages: 1 -->
<svg width="616pt" height="160pt"
 viewBox="0.00 0.00 616.00 159.50" xmlns="http://www.w3.org/2000/svg" xmlns:xlink="http://www.w3.org/1999/xlink">
<g id="graph0" class="graph" transform="scale(1 1) rotate(0) translate(4 155.5)">
<title>QuantConnect.BaseSeries.Create</title>
<polygon fill="white" stroke="transparent" points="-4,4 -4,-155.5 612,-155.5 612,4 -4,4"/>
<!-- Node1 -->
<g id="node1" class="node">
<title>Node1</title>
<g id="a_node1"><a xlink:title="Creates a series according to the specified type.">
<polygon fill="#bfbfbf" stroke="black" points="462,-66 462,-96 608,-96 608,-66 462,-66"/>
<text text-anchor="start" x="470" y="-84" font-family="Helvetica,sans-Serif" font-size="10.00">QuantConnect.BaseSeries.</text>
<text text-anchor="middle" x="535" y="-73" font-family="Helvetica,sans-Serif" font-size="10.00">Create</text>
</a>
</g>
</g>
<!-- Node2 -->
<g id="node2" class="node">
<title>Node2</title>
<g id="a_node2"><a xlink:href="classQuantConnect_1_1Algorithm_1_1QCAlgorithm.html#ad7e7c20b2add667a82dcf95ff4c2b404" target="_top" xlink:title="Add a series object for charting. This is useful when initializing charts with series other than type...">
<polygon fill="white" stroke="black" points="221,-121 221,-151 426,-151 426,-121 221,-121"/>
<text text-anchor="start" x="229" y="-139" font-family="Helvetica,sans-Serif" font-size="10.00">QuantConnect.Algorithm.QCAlgorithm.</text>
<text text-anchor="middle" x="323.5" y="-128" font-family="Helvetica,sans-Serif" font-size="10.00">AddSeries</text>
</a>
</g>
</g>
<!-- Node1&#45;&gt;Node2 -->
<g id="edge1" class="edge">
<title>Node1&#45;&gt;Node2</title>
<path fill="none" stroke="midnightblue" d="M471.03,-98.83C456.28,-102.91 440.61,-107.17 426,-111 413.36,-114.31 399.8,-117.74 386.84,-120.95"/>
<polygon fill="midnightblue" stroke="midnightblue" points="472.38,-102.09 481.07,-96.04 470.5,-95.34 472.38,-102.09"/>
</g>
<!-- Node3 -->
<g id="node3" class="node">
<title>Node3</title>
<g id="a_node3"><a xlink:href="classQuantConnect_1_1Lean_1_1Engine_1_1Results_1_1BacktestingResultHandler.html#a133e7b5163c0e43840e6232d125e6941" target="_top" xlink:title="Add a sample to the chart specified by the chartName, and seriesName.">
<polygon fill="white" stroke="black" points="231,-60.5 231,-101.5 416,-101.5 416,-60.5 231,-60.5"/>
<text text-anchor="start" x="239" y="-89.5" font-family="Helvetica,sans-Serif" font-size="10.00">QuantConnect.Lean.Engine.</text>
<text text-anchor="start" x="239" y="-78.5" font-family="Helvetica,sans-Serif" font-size="10.00">Results.BacktestingResultHandler.</text>
<text text-anchor="middle" x="323.5" y="-67.5" font-family="Helvetica,sans-Serif" font-size="10.00">Sample</text>
</a>
</g>
</g>
<!-- Node1&#45;&gt;Node3 -->
<g id="edge2" class="edge">
<title>Node1&#45;&gt;Node3</title>
<path fill="none" stroke="midnightblue" d="M451.8,-81C440.16,-81 428.14,-81 416.34,-81"/>
<polygon fill="midnightblue" stroke="midnightblue" points="451.9,-84.5 461.9,-81 451.9,-77.5 451.9,-84.5"/>
</g>
<!-- Node5 -->
<g id="node5" class="node">
<title>Node5</title>
<g id="a_node5"><a xlink:href="classQuantConnect_1_1Lean_1_1Engine_1_1Results_1_1LiveTradingResultHandler.html#ad8af7d56eacad2f9c4d73de7dce3f604" target="_top" xlink:title="Add a sample to the chart specified by the chartName, and seriesName.">
<polygon fill="white" stroke="black" points="232.5,-0.5 232.5,-41.5 414.5,-41.5 414.5,-0.5 232.5,-0.5"/>
<text text-anchor="start" x="240.5" y="-29.5" font-family="Helvetica,sans-Serif" font-size="10.00">QuantConnect.Lean.Engine.</text>
<text text-anchor="start" x="240.5" y="-18.5" font-family="Helvetica,sans-Serif" font-size="10.00">Results.LiveTradingResultHandler.</text>
<text text-anchor="middle" x="323.5" y="-7.5" font-family="Helvetica,sans-Serif" font-size="10.00">Sample</text>
</a>
</g>
</g>
<!-- Node1&#45;&gt;Node5 -->
<g id="edge4" class="edge">
<title>Node1&#45;&gt;Node5</title>
<path fill="none" stroke="midnightblue" d="M471.48,-63.09C447.77,-56.3 420.6,-48.52 396.12,-41.51"/>
<polygon fill="midnightblue" stroke="midnightblue" points="470.83,-66.55 481.4,-65.94 472.75,-59.82 470.83,-66.55"/>
</g>
<!-- Node4 -->
<g id="node4" class="node">
<title>Node4</title>
<g id="a_node4"><a xlink:href="classQuantConnect_1_1Lean_1_1Engine_1_1Results_1_1BacktestingResultHandler.html#a4218f35cbac91b93fa5cc2b341f7e64a" target="_top" xlink:title="Sample estimated strategy capacity">
<polygon fill="white" stroke="black" points="0,-60.5 0,-101.5 185,-101.5 185,-60.5 0,-60.5"/>
<text text-anchor="start" x="8" y="-89.5" font-family="Helvetica,sans-Serif" font-size="10.00">QuantConnect.Lean.Engine.</text>
<text text-anchor="start" x="8" y="-78.5" font-family="Helvetica,sans-Serif" font-size="10.00">Results.BacktestingResultHandler.</text>
<text text-anchor="middle" x="92.5" y="-67.5" font-family="Helvetica,sans-Serif" font-size="10.00">SampleCapacity</text>
</a>
</g>
</g>
<!-- Node3&#45;&gt;Node4 -->
<g id="edge3" class="edge">
<title>Node3&#45;&gt;Node4</title>
<path fill="none" stroke="midnightblue" d="M220.46,-81C208.76,-81 196.89,-81 185.34,-81"/>
<polygon fill="midnightblue" stroke="midnightblue" points="220.68,-84.5 230.68,-81 220.68,-77.5 220.68,-84.5"/>
</g>
</g>
</svg>
