<?xml version="1.0" encoding="UTF-8" standalone="no"?>
<!DOCTYPE svg PUBLIC "-//W3C//DTD SVG 1.1//EN"
 "http://www.w3.org/Graphics/SVG/1.1/DTD/svg11.dtd">
<!-- Generated by graphviz version 2.43.0 (0)
 -->
<!-- Title: QuantConnect.Securities.Option.OptionMarginModel.GetInitialMarginRequiredForOrder Pages: 1 -->
<svg width="374pt" height="100pt"
 viewBox="0.00 0.00 374.00 99.50" xmlns="http://www.w3.org/2000/svg" xmlns:xlink="http://www.w3.org/1999/xlink">
<g id="graph0" class="graph" transform="scale(1 1) rotate(0) translate(4 95.5)">
<title>QuantConnect.Securities.Option.OptionMarginModel.GetInitialMarginRequiredForOrder</title>
<polygon fill="white" stroke="transparent" points="-4,4 -4,-95.5 370,-95.5 370,4 -4,4"/>
<!-- Node1 -->
<g id="node1" class="node">
<title>Node1</title>
<g id="a_node1"><a xlink:title="Gets the total margin required to execute the specified order in units of the account currency includ...">
<polygon fill="#bfbfbf" stroke="black" points="0,-22 0,-63 168,-63 168,-22 0,-22"/>
<text text-anchor="start" x="8" y="-51" font-family="Helvetica,sans-Serif" font-size="10.00">QuantConnect.Securities.</text>
<text text-anchor="start" x="8" y="-40" font-family="Helvetica,sans-Serif" font-size="10.00">Option.OptionMarginModel.Get</text>
<text text-anchor="middle" x="84" y="-29" font-family="Helvetica,sans-Serif" font-size="10.00">InitialMarginRequiredForOrder</text>
</a>
</g>
</g>
<!-- Node2 -->
<g id="node2" class="node">
<title>Node2</title>
<g id="a_node2"><a xlink:href="interfaceQuantConnect_1_1Securities_1_1ICurrencyConverter.html#a7be7cb7f12fb4bffb92c11d2533387cc" target="_top" xlink:title="Converts a cash amount to the account currency">
<polygon fill="white" stroke="black" points="204,-50 204,-91 366,-91 366,-50 204,-50"/>
<text text-anchor="start" x="212" y="-79" font-family="Helvetica,sans-Serif" font-size="10.00">QuantConnect.Securities.</text>
<text text-anchor="start" x="212" y="-68" font-family="Helvetica,sans-Serif" font-size="10.00">ICurrencyConverter.ConvertTo</text>
<text text-anchor="middle" x="285" y="-57" font-family="Helvetica,sans-Serif" font-size="10.00">AccountCurrency</text>
</a>
</g>
</g>
<!-- Node1&#45;&gt;Node2 -->
<g id="edge1" class="edge">
<title>Node1&#45;&gt;Node2</title>
<path fill="none" stroke="midnightblue" d="M168.24,-54.21C176.74,-55.41 185.4,-56.63 193.96,-57.83"/>
<polygon fill="midnightblue" stroke="midnightblue" points="193.57,-61.31 203.96,-59.24 194.54,-54.38 193.57,-61.31"/>
</g>
<!-- Node3 -->
<g id="node3" class="node">
<title>Node3</title>
<g id="a_node3"><a xlink:href="interfaceQuantConnect_1_1Orders_1_1Fees_1_1IFeeModel.html#ab0bf50e204c8c07f1d37fd7680f23e59" target="_top" xlink:title="Gets the order fee associated with the specified order.">
<polygon fill="white" stroke="black" points="210.5,-0.5 210.5,-30.5 359.5,-30.5 359.5,-0.5 210.5,-0.5"/>
<text text-anchor="start" x="218.5" y="-18.5" font-family="Helvetica,sans-Serif" font-size="10.00">QuantConnect.Orders.Fees.</text>
<text text-anchor="middle" x="285" y="-7.5" font-family="Helvetica,sans-Serif" font-size="10.00">IFeeModel.GetOrderFee</text>
</a>
</g>
</g>
<!-- Node1&#45;&gt;Node3 -->
<g id="edge2" class="edge">
<title>Node1&#45;&gt;Node3</title>
<path fill="none" stroke="midnightblue" d="M168.24,-31.21C178.81,-29.77 189.64,-28.3 200.22,-26.87"/>
<polygon fill="midnightblue" stroke="midnightblue" points="200.84,-30.32 210.28,-25.5 199.9,-23.38 200.84,-30.32"/>
</g>
</g>
</svg>
