<?xml version="1.0" encoding="UTF-8" standalone="no"?>
<!DOCTYPE svg PUBLIC "-//W3C//DTD SVG 1.1//EN"
 "http://www.w3.org/Graphics/SVG/1.1/DTD/svg11.dtd">
<!-- Generated by graphviz version 2.43.0 (0)
 -->
<!-- Title: QuantConnect.Indicators.RateOfChangeRatio Pages: 1 -->
<svg width="354pt" height="162pt"
 viewBox="0.00 0.00 354.00 162.00" xmlns="http://www.w3.org/2000/svg" xmlns:xlink="http://www.w3.org/1999/xlink">
<g id="graph0" class="graph" transform="scale(1 1) rotate(0) translate(4 158)">
<title>QuantConnect.Indicators.RateOfChangeRatio</title>
<polygon fill="white" stroke="transparent" points="-4,4 -4,-158 350,-158 350,4 -4,4"/>
<!-- Node1 -->
<g id="node1" class="node">
<title>Node1</title>
<g id="a_node1"><a xlink:title="This indicator computes the Rate Of Change Ratio (ROCR). The Rate Of Change Ratio is calculated with ...">
<polygon fill="#bfbfbf" stroke="black" points="97,-0.5 97,-30.5 237,-30.5 237,-0.5 97,-0.5"/>
<text text-anchor="start" x="105" y="-18.5" font-family="Helvetica,sans-Serif" font-size="10.00">QuantConnect.Indicators.</text>
<text text-anchor="middle" x="167" y="-7.5" font-family="Helvetica,sans-Serif" font-size="10.00">RateOfChangeRatio</text>
</a>
</g>
</g>
<!-- Node2 -->
<g id="node2" class="node">
<title>Node2</title>
<g id="a_node2"><a xlink:href="classQuantConnect_1_1Indicators_1_1RateOfChange.html" target="_top" xlink:title="This indicator computes the n&#45;period rate of change in a value using the following: (value_0 &#45; value_...">
<polygon fill="white" stroke="black" points="123.5,-67.5 123.5,-86.5 210.5,-86.5 210.5,-67.5 123.5,-67.5"/>
<text text-anchor="middle" x="167" y="-74.5" font-family="Helvetica,sans-Serif" font-size="10.00">RateOfChange</text>
</a>
</g>
</g>
<!-- Node2&#45;&gt;Node1 -->
<g id="edge1" class="edge">
<title>Node2&#45;&gt;Node1</title>
<path fill="none" stroke="midnightblue" d="M167,-57.23C167,-48.59 167,-38.5 167,-30.52"/>
<polygon fill="midnightblue" stroke="midnightblue" points="163.5,-57.48 167,-67.48 170.5,-57.48 163.5,-57.48"/>
</g>
<!-- Node3 -->
<g id="node3" class="node">
<title>Node3</title>
<g id="a_node3"><a xlink:href="classQuantConnect_1_1Indicators_1_1WindowIndicator.html" target="_top" xlink:title=" ">
<polygon fill="white" stroke="black" points="0,-123.5 0,-153.5 152,-153.5 152,-123.5 0,-123.5"/>
<text text-anchor="start" x="8" y="-141.5" font-family="Helvetica,sans-Serif" font-size="10.00">WindowIndicator&lt; Indicator</text>
<text text-anchor="middle" x="76" y="-130.5" font-family="Helvetica,sans-Serif" font-size="10.00">DataPoint &gt;</text>
</a>
</g>
</g>
<!-- Node3&#45;&gt;Node2 -->
<g id="edge2" class="edge">
<title>Node3&#45;&gt;Node2</title>
<path fill="none" stroke="midnightblue" d="M106.17,-117.78C122.29,-107.23 141.33,-94.78 153.76,-86.66"/>
<polygon fill="midnightblue" stroke="midnightblue" points="104.02,-115 97.57,-123.4 107.85,-120.86 104.02,-115"/>
</g>
<!-- Node4 -->
<g id="node4" class="node">
<title>Node4</title>
<g id="a_node4"><a xlink:href="interfaceQuantConnect_1_1Indicators_1_1IIndicatorWarmUpPeriodProvider.html" target="_top" xlink:title="Represents an indicator with a warm up period provider.">
<polygon fill="white" stroke="black" points="170,-129 170,-148 346,-148 346,-129 170,-129"/>
<text text-anchor="middle" x="258" y="-136" font-family="Helvetica,sans-Serif" font-size="10.00">IIndicatorWarmUpPeriodProvider</text>
</a>
</g>
</g>
<!-- Node4&#45;&gt;Node2 -->
<g id="edge3" class="edge">
<title>Node4&#45;&gt;Node2</title>
<path fill="none" stroke="midnightblue" d="M236.48,-123.43C218.94,-111.96 194.73,-96.13 180.01,-86.51"/>
<polygon fill="midnightblue" stroke="midnightblue" points="234.68,-126.43 244.96,-128.98 238.51,-120.57 234.68,-126.43"/>
</g>
</g>
</svg>
