<?xml version="1.0" encoding="UTF-8" standalone="no"?>
<!DOCTYPE svg PUBLIC "-//W3C//DTD SVG 1.1//EN"
 "http://www.w3.org/Graphics/SVG/1.1/DTD/svg11.dtd">
<!-- Generated by graphviz version 2.43.0 (0)
 -->
<!-- Title: QuantConnect.StringExtensions.Invariant Pages: 1 -->
<svg width="445pt" height="296pt"
 viewBox="0.00 0.00 445.00 296.00" xmlns="http://www.w3.org/2000/svg" xmlns:xlink="http://www.w3.org/1999/xlink">
<g id="graph0" class="graph" transform="scale(1 1) rotate(0) translate(4 292)">
<title>QuantConnect.StringExtensions.Invariant</title>
<polygon fill="white" stroke="transparent" points="-4,4 -4,-292 441,-292 441,4 -4,4"/>
<!-- Node1 -->
<g id="node1" class="node">
<title>Node1</title>
<g id="a_node1"><a xlink:title="Non&#45;extension method alias for FormattableString.Invariant This supports the">
<polygon fill="#bfbfbf" stroke="black" points="264,-122.5 264,-152.5 437,-152.5 437,-122.5 264,-122.5"/>
<text text-anchor="start" x="272" y="-140.5" font-family="Helvetica,sans-Serif" font-size="10.00">QuantConnect.StringExtensions.</text>
<text text-anchor="middle" x="350.5" y="-129.5" font-family="Helvetica,sans-Serif" font-size="10.00">Invariant</text>
</a>
</g>
</g>
<!-- Node2 -->
<g id="node2" class="node">
<title>Node2</title>
<g id="a_node2"><a xlink:href="classQuantConnect_1_1Brokerages_1_1WolverineBrokerageModel.html#a9170c2b6bd35d0c825407a68d2ee22cd" target="_top" xlink:title="Returns true if the brokerage could accept this order. This takes into account order type,...">
<polygon fill="white" stroke="black" points="0,-257.5 0,-287.5 228,-287.5 228,-257.5 0,-257.5"/>
<text text-anchor="start" x="8" y="-275.5" font-family="Helvetica,sans-Serif" font-size="10.00">QuantConnect.Brokerages.</text>
<text text-anchor="middle" x="114" y="-264.5" font-family="Helvetica,sans-Serif" font-size="10.00">WolverineBrokerageModel.CanSubmitOrder</text>
</a>
</g>
</g>
<!-- Node1&#45;&gt;Node2 -->
<g id="edge1" class="edge">
<title>Node1&#45;&gt;Node2</title>
<path fill="none" stroke="midnightblue" d="M330.94,-160.26C309.03,-185.56 270.2,-225.7 228,-247.5 220.5,-251.37 212.42,-254.65 204.16,-257.42"/>
<polygon fill="midnightblue" stroke="midnightblue" points="333.63,-162.5 337.44,-152.62 328.3,-157.97 333.63,-162.5"/>
</g>
<!-- Node3 -->
<g id="node3" class="node">
<title>Node3</title>
<g id="a_node3"><a xlink:href="classQuantConnect_1_1Brokerages_1_1TDAmeritradeBrokerageModel.html#ab8d95519106607a7f184cbafeb10e2bd" target="_top" xlink:title="Returns true if the brokerage could accept this order. This takes into account order type,...">
<polygon fill="white" stroke="black" points="21,-197 21,-238 207,-238 207,-197 21,-197"/>
<text text-anchor="start" x="29" y="-226" font-family="Helvetica,sans-Serif" font-size="10.00">QuantConnect.Brokerages.</text>
<text text-anchor="start" x="29" y="-215" font-family="Helvetica,sans-Serif" font-size="10.00">TDAmeritradeBrokerageModel.Can</text>
<text text-anchor="middle" x="114" y="-204" font-family="Helvetica,sans-Serif" font-size="10.00">SubmitOrder</text>
</a>
</g>
</g>
<!-- Node1&#45;&gt;Node3 -->
<g id="edge2" class="edge">
<title>Node1&#45;&gt;Node3</title>
<path fill="none" stroke="midnightblue" d="M306.99,-156.59C283.91,-166.56 254.69,-178.51 228,-187.5 218.19,-190.8 207.8,-193.98 197.46,-196.96"/>
<polygon fill="midnightblue" stroke="midnightblue" points="308.39,-159.8 316.17,-152.6 305.6,-153.38 308.39,-159.8"/>
</g>
<!-- Node4 -->
<g id="node4" class="node">
<title>Node4</title>
<g id="a_node4"><a xlink:href="classQuantConnect_1_1Brokerages_1_1KrakenBrokerageModel.html#a37692d0d24f80c27c244a226333edbc5" target="_top" xlink:title="Returns true if the brokerage could accept this order. This takes into account order type,...">
<polygon fill="white" stroke="black" points="7.5,-147.5 7.5,-177.5 220.5,-177.5 220.5,-147.5 7.5,-147.5"/>
<text text-anchor="start" x="15.5" y="-165.5" font-family="Helvetica,sans-Serif" font-size="10.00">QuantConnect.Brokerages.</text>
<text text-anchor="middle" x="114" y="-154.5" font-family="Helvetica,sans-Serif" font-size="10.00">KrakenBrokerageModel.CanSubmitOrder</text>
</a>
</g>
</g>
<!-- Node1&#45;&gt;Node4 -->
<g id="edge3" class="edge">
<title>Node1&#45;&gt;Node4</title>
<path fill="none" stroke="midnightblue" d="M253.57,-147.73C242.76,-148.88 231.71,-150.06 220.78,-151.22"/>
<polygon fill="midnightblue" stroke="midnightblue" points="254.27,-151.17 263.84,-146.63 253.53,-144.21 254.27,-151.17"/>
</g>
<!-- Node5 -->
<g id="node5" class="node">
<title>Node5</title>
<g id="a_node5"><a xlink:href="classQuantConnect_1_1Brokerages_1_1FTXBrokerageModel.html#a0986a3547ce500de8dd64cfecb1ee51a" target="_top" xlink:title="Returns true if the brokerage could accept this order. This takes into account order type,...">
<polygon fill="white" stroke="black" points="15.5,-98.5 15.5,-128.5 212.5,-128.5 212.5,-98.5 15.5,-98.5"/>
<text text-anchor="start" x="23.5" y="-116.5" font-family="Helvetica,sans-Serif" font-size="10.00">QuantConnect.Brokerages.</text>
<text text-anchor="middle" x="114" y="-105.5" font-family="Helvetica,sans-Serif" font-size="10.00">FTXBrokerageModel.CanSubmitOrder</text>
</a>
</g>
</g>
<!-- Node1&#45;&gt;Node5 -->
<g id="edge4" class="edge">
<title>Node1&#45;&gt;Node5</title>
<path fill="none" stroke="midnightblue" d="M253.62,-127.69C240.13,-126.31 226.25,-124.89 212.73,-123.5"/>
<polygon fill="midnightblue" stroke="midnightblue" points="253.54,-131.2 263.84,-128.73 254.25,-124.23 253.54,-131.2"/>
</g>
<!-- Node6 -->
<g id="node6" class="node">
<title>Node6</title>
<g id="a_node6"><a xlink:href="classQuantConnect_1_1Brokerages_1_1BinanceBrokerageModel.html#af507b6758cdf1e40f10c71a2518d0ad7" target="_top" xlink:title="Returns true if the brokerage could accept this order. This takes into account order type,...">
<polygon fill="white" stroke="black" points="5,-49.5 5,-79.5 223,-79.5 223,-49.5 5,-49.5"/>
<text text-anchor="start" x="13" y="-67.5" font-family="Helvetica,sans-Serif" font-size="10.00">QuantConnect.Brokerages.</text>
<text text-anchor="middle" x="114" y="-56.5" font-family="Helvetica,sans-Serif" font-size="10.00">BinanceBrokerageModel.CanSubmitOrder</text>
</a>
</g>
</g>
<!-- Node1&#45;&gt;Node6 -->
<g id="edge5" class="edge">
<title>Node1&#45;&gt;Node6</title>
<path fill="none" stroke="midnightblue" d="M306.26,-118.48C283.32,-108.89 254.47,-97.6 228,-89.5 216.09,-85.85 203.32,-82.51 190.8,-79.53"/>
<polygon fill="midnightblue" stroke="midnightblue" points="305.14,-121.81 315.71,-122.48 307.86,-115.36 305.14,-121.81"/>
</g>
<!-- Node7 -->
<g id="node7" class="node">
<title>Node7</title>
<g id="a_node7"><a xlink:href="classQuantConnect_1_1Brokerages_1_1BitfinexBrokerageModel.html#ac68c621edc8a0ad68f91131c269d0cef" target="_top" xlink:title="Returns true if the brokerage could accept this order. This takes into account order type,...">
<polygon fill="white" stroke="black" points="5.5,-0.5 5.5,-30.5 222.5,-30.5 222.5,-0.5 5.5,-0.5"/>
<text text-anchor="start" x="13.5" y="-18.5" font-family="Helvetica,sans-Serif" font-size="10.00">QuantConnect.Brokerages.</text>
<text text-anchor="middle" x="114" y="-7.5" font-family="Helvetica,sans-Serif" font-size="10.00">BitfinexBrokerageModel.CanSubmitOrder</text>
</a>
</g>
</g>
<!-- Node1&#45;&gt;Node7 -->
<g id="edge6" class="edge">
<title>Node1&#45;&gt;Node7</title>
<path fill="none" stroke="midnightblue" d="M328.23,-115.38C305.5,-93.07 267.39,-59.32 228,-40.5 219.84,-36.6 211.06,-33.3 202.13,-30.51"/>
<polygon fill="midnightblue" stroke="midnightblue" points="325.77,-117.88 335.32,-122.47 330.72,-112.92 325.77,-117.88"/>
</g>
</g>
</svg>
