<?xml version="1.0" encoding="UTF-8" standalone="no"?>
<!DOCTYPE svg PUBLIC "-//W3C//DTD SVG 1.1//EN"
 "http://www.w3.org/Graphics/SVG/1.1/DTD/svg11.dtd">
<!-- Generated by graphviz version 2.43.0 (0)
 -->
<!-- Title: QuantConnect.Securities.Future.FuturesOptionsSymbolMappings.MapFromOption Pages: 1 -->
<svg width="689pt" height="198pt"
 viewBox="0.00 0.00 689.00 197.50" xmlns="http://www.w3.org/2000/svg" xmlns:xlink="http://www.w3.org/1999/xlink">
<g id="graph0" class="graph" transform="scale(1 1) rotate(0) translate(4 193.5)">
<title>QuantConnect.Securities.Future.FuturesOptionsSymbolMappings.MapFromOption</title>
<polygon fill="white" stroke="transparent" points="-4,4 -4,-193.5 685,-193.5 685,4 -4,4"/>
<!-- Node1 -->
<g id="node1" class="node">
<title>Node1</title>
<g id="a_node1"><a xlink:title="Maps a futures options ticker to its underlying future&#39;s ticker">
<polygon fill="#bfbfbf" stroke="black" points="470,-68 470,-109 681,-109 681,-68 470,-68"/>
<text text-anchor="start" x="478" y="-97" font-family="Helvetica,sans-Serif" font-size="10.00">QuantConnect.Securities.</text>
<text text-anchor="start" x="478" y="-86" font-family="Helvetica,sans-Serif" font-size="10.00">Future.FuturesOptionsSymbolMappings.</text>
<text text-anchor="middle" x="575.5" y="-75" font-family="Helvetica,sans-Serif" font-size="10.00">MapFromOption</text>
</a>
</g>
</g>
<!-- Node2 -->
<g id="node2" class="node">
<title>Node2</title>
<g id="a_node2"><a xlink:href="classQuantConnect_1_1Securities_1_1FutureOption_1_1FuturesOptionsUnderlyingMapper.html#ae2c92cb1e17d9457a9408cf7799964fd" target="_top" xlink:title="Gets the FOP&#39;s underlying Future. The underlying Future&#39;s contract month might not match the contract...">
<polygon fill="white" stroke="black" points="189,-148 189,-189 434,-189 434,-148 189,-148"/>
<text text-anchor="start" x="197" y="-177" font-family="Helvetica,sans-Serif" font-size="10.00">QuantConnect.Securities.</text>
<text text-anchor="start" x="197" y="-166" font-family="Helvetica,sans-Serif" font-size="10.00">FutureOption.FuturesOptionsUnderlying</text>
<text text-anchor="middle" x="311.5" y="-155" font-family="Helvetica,sans-Serif" font-size="10.00">Mapper.GetUnderlyingFutureFromFutureOption</text>
</a>
</g>
</g>
<!-- Node1&#45;&gt;Node2 -->
<g id="edge1" class="edge">
<title>Node1&#45;&gt;Node2</title>
<path fill="none" stroke="midnightblue" d="M511.18,-112.55C487.18,-121.26 459.5,-130.84 434,-138.5 423.08,-141.78 411.52,-144.98 400.06,-147.99"/>
<polygon fill="midnightblue" stroke="midnightblue" points="512.69,-115.72 520.87,-109 510.28,-109.15 512.69,-115.72"/>
</g>
<!-- Node3 -->
<g id="node3" class="node">
<title>Node3</title>
<g id="a_node3"><a xlink:href="classQuantConnect_1_1Util_1_1LeanDataPathComponents.html#a0d24d06405609c2f8b3107c6b41ba57d" target="_top" xlink:title="Parses the specified path into a new instance of the LeanDataPathComponents class">
<polygon fill="white" stroke="black" points="234,-98.5 234,-128.5 389,-128.5 389,-98.5 234,-98.5"/>
<text text-anchor="start" x="242" y="-116.5" font-family="Helvetica,sans-Serif" font-size="10.00">QuantConnect.Util.LeanData</text>
<text text-anchor="middle" x="311.5" y="-105.5" font-family="Helvetica,sans-Serif" font-size="10.00">PathComponents.Parse</text>
</a>
</g>
</g>
<!-- Node1&#45;&gt;Node3 -->
<g id="edge2" class="edge">
<title>Node1&#45;&gt;Node3</title>
<path fill="none" stroke="midnightblue" d="M459.66,-99.46C435.81,-101.73 411.24,-104.08 389.17,-106.18"/>
<polygon fill="midnightblue" stroke="midnightblue" points="460.2,-102.92 469.82,-98.49 459.53,-95.95 460.2,-102.92"/>
</g>
<!-- Node5 -->
<g id="node5" class="node">
<title>Node5</title>
<g id="a_node5"><a xlink:href="classQuantConnect_1_1SymbolRepresentation.html#adae87b321b11822d3fa9b641c0b2c2ab" target="_top" xlink:title="Creates a future option Symbol from the provided ticker">
<polygon fill="white" stroke="black" points="210,-49.5 210,-79.5 413,-79.5 413,-49.5 210,-49.5"/>
<text text-anchor="start" x="218" y="-67.5" font-family="Helvetica,sans-Serif" font-size="10.00">QuantConnect.SymbolRepresentation.</text>
<text text-anchor="middle" x="311.5" y="-56.5" font-family="Helvetica,sans-Serif" font-size="10.00">ParseFutureOptionSymbol</text>
</a>
</g>
</g>
<!-- Node1&#45;&gt;Node5 -->
<g id="edge4" class="edge">
<title>Node1&#45;&gt;Node5</title>
<path fill="none" stroke="midnightblue" d="M459.69,-77.98C444.2,-76.56 428.4,-75.12 413.18,-73.72"/>
<polygon fill="midnightblue" stroke="midnightblue" points="459.54,-81.48 469.82,-78.91 460.18,-74.51 459.54,-81.48"/>
</g>
<!-- Node6 -->
<g id="node6" class="node">
<title>Node6</title>
<g id="a_node6"><a xlink:href="classQuantConnect_1_1Securities_1_1MarketHoursDatabase.html#a67b49ffdf1317fda8cbc895849478203" target="_top" xlink:title="Tries to get the entry for the specified market/symbol/security&#45;type">
<polygon fill="white" stroke="black" points="219,-0.5 219,-30.5 404,-30.5 404,-0.5 219,-0.5"/>
<text text-anchor="start" x="227" y="-18.5" font-family="Helvetica,sans-Serif" font-size="10.00">QuantConnect.Securities.</text>
<text text-anchor="middle" x="311.5" y="-7.5" font-family="Helvetica,sans-Serif" font-size="10.00">MarketHoursDatabase.TryGetEntry</text>
</a>
</g>
</g>
<!-- Node1&#45;&gt;Node6 -->
<g id="edge5" class="edge">
<title>Node1&#45;&gt;Node6</title>
<path fill="none" stroke="midnightblue" d="M510.03,-64.57C486.33,-56.27 459.14,-47.35 434,-40.5 420.81,-36.9 406.68,-33.55 392.9,-30.55"/>
<polygon fill="midnightblue" stroke="midnightblue" points="509.02,-67.92 519.61,-67.95 511.35,-61.32 509.02,-67.92"/>
</g>
<!-- Node4 -->
<g id="node4" class="node">
<title>Node4</title>
<g id="a_node4"><a xlink:href="classQuantConnect_1_1ToolBox_1_1LeanParser.html#abd1bb9fca7f05ea516d50523b8218593" target="_top" xlink:title="Parses the specified input stream into an enumerable of data">
<polygon fill="white" stroke="black" points="0,-98.5 0,-128.5 153,-128.5 153,-98.5 0,-98.5"/>
<text text-anchor="start" x="8" y="-116.5" font-family="Helvetica,sans-Serif" font-size="10.00">QuantConnect.ToolBox.Lean</text>
<text text-anchor="middle" x="76.5" y="-105.5" font-family="Helvetica,sans-Serif" font-size="10.00">Parser.Parse</text>
</a>
</g>
</g>
<!-- Node3&#45;&gt;Node4 -->
<g id="edge3" class="edge">
<title>Node3&#45;&gt;Node4</title>
<path fill="none" stroke="midnightblue" d="M223.75,-113.5C200.63,-113.5 175.85,-113.5 153.37,-113.5"/>
<polygon fill="midnightblue" stroke="midnightblue" points="223.88,-117 233.88,-113.5 223.88,-110 223.88,-117"/>
</g>
</g>
</svg>
