<?xml version="1.0" encoding="UTF-8" standalone="no"?>
<!DOCTYPE svg PUBLIC "-//W3C//DTD SVG 1.1//EN"
 "http://www.w3.org/Graphics/SVG/1.1/DTD/svg11.dtd">
<!-- Generated by graphviz version 2.43.0 (0)
 -->
<!-- Title: QuantConnect.Indicators.CandlestickPatterns.DragonflyDoji Pages: 1 -->
<svg width="191pt" height="162pt"
 viewBox="0.00 0.00 191.00 162.00" xmlns="http://www.w3.org/2000/svg" xmlns:xlink="http://www.w3.org/1999/xlink">
<g id="graph0" class="graph" transform="scale(1 1) rotate(0) translate(4 158)">
<title>QuantConnect.Indicators.CandlestickPatterns.DragonflyDoji</title>
<polygon fill="white" stroke="transparent" points="-4,4 -4,-158 187,-158 187,4 -4,4"/>
<!-- Node1 -->
<g id="node1" class="node">
<title>Node1</title>
<g id="a_node1"><a xlink:title="Dragonfly Doji candlestick pattern indicator">
<polygon fill="#bfbfbf" stroke="black" points="0,-0.5 0,-30.5 183,-30.5 183,-0.5 0,-0.5"/>
<text text-anchor="start" x="8" y="-18.5" font-family="Helvetica,sans-Serif" font-size="10.00">QuantConnect.Indicators.</text>
<text text-anchor="middle" x="91.5" y="-7.5" font-family="Helvetica,sans-Serif" font-size="10.00">CandlestickPatterns.DragonflyDoji</text>
</a>
</g>
</g>
<!-- Node2 -->
<g id="node2" class="node">
<title>Node2</title>
<g id="a_node2"><a xlink:href="classQuantConnect_1_1Indicators_1_1CandlestickPatterns_1_1CandlestickPattern.html" target="_top" xlink:title="Abstract base class for a candlestick pattern indicator">
<polygon fill="white" stroke="black" points="37.5,-67.5 37.5,-86.5 145.5,-86.5 145.5,-67.5 37.5,-67.5"/>
<text text-anchor="middle" x="91.5" y="-74.5" font-family="Helvetica,sans-Serif" font-size="10.00">CandlestickPattern</text>
</a>
</g>
</g>
<!-- Node2&#45;&gt;Node1 -->
<g id="edge1" class="edge">
<title>Node2&#45;&gt;Node1</title>
<path fill="none" stroke="midnightblue" d="M91.5,-57.23C91.5,-48.59 91.5,-38.5 91.5,-30.52"/>
<polygon fill="midnightblue" stroke="midnightblue" points="88,-57.48 91.5,-67.48 95,-57.48 88,-57.48"/>
</g>
<!-- Node3 -->
<g id="node3" class="node">
<title>Node3</title>
<g id="a_node3"><a xlink:href="classQuantConnect_1_1Indicators_1_1WindowIndicator.html" target="_top" xlink:title=" ">
<polygon fill="white" stroke="black" points="11.5,-123.5 11.5,-153.5 171.5,-153.5 171.5,-123.5 11.5,-123.5"/>
<text text-anchor="start" x="19.5" y="-141.5" font-family="Helvetica,sans-Serif" font-size="10.00">WindowIndicator&lt; IBaseData</text>
<text text-anchor="middle" x="91.5" y="-130.5" font-family="Helvetica,sans-Serif" font-size="10.00">Bar &gt;</text>
</a>
</g>
</g>
<!-- Node3&#45;&gt;Node2 -->
<g id="edge2" class="edge">
<title>Node3&#45;&gt;Node2</title>
<path fill="none" stroke="midnightblue" d="M91.5,-113.29C91.5,-103.86 91.5,-93.65 91.5,-86.66"/>
<polygon fill="midnightblue" stroke="midnightblue" points="88,-113.4 91.5,-123.4 95,-113.4 88,-113.4"/>
</g>
</g>
</svg>
