<?xml version="1.0" encoding="UTF-8" standalone="no"?>
<!DOCTYPE svg PUBLIC "-//W3C//DTD SVG 1.1//EN"
 "http://www.w3.org/Graphics/SVG/1.1/DTD/svg11.dtd">
<!-- Generated by graphviz version 2.43.0 (0)
 -->
<!-- Title: QuantConnect.Lean.Engine.DataFeeds.BaseDataCollectionAggregatorReader Pages: 1 -->
<svg width="229pt" height="240pt"
 viewBox="0.00 0.00 229.00 240.00" xmlns="http://www.w3.org/2000/svg" xmlns:xlink="http://www.w3.org/1999/xlink">
<g id="graph0" class="graph" transform="scale(1 1) rotate(0) translate(4 236)">
<title>QuantConnect.Lean.Engine.DataFeeds.BaseDataCollectionAggregatorReader</title>
<polygon fill="white" stroke="transparent" points="-4,4 -4,-236 225,-236 225,4 -4,4"/>
<!-- Node1 -->
<g id="node1" class="node">
<title>Node1</title>
<g id="a_node1"><a xlink:title="Data source reader that will aggregate data points into a base data collection">
<polygon fill="#bfbfbf" stroke="black" points="0,-0.5 0,-41.5 221,-41.5 221,-0.5 0,-0.5"/>
<text text-anchor="start" x="8" y="-29.5" font-family="Helvetica,sans-Serif" font-size="10.00">QuantConnect.Lean.Engine.</text>
<text text-anchor="start" x="8" y="-18.5" font-family="Helvetica,sans-Serif" font-size="10.00">DataFeeds.BaseDataCollectionAggregator</text>
<text text-anchor="middle" x="110.5" y="-7.5" font-family="Helvetica,sans-Serif" font-size="10.00">Reader</text>
</a>
</g>
</g>
<!-- Node2 -->
<g id="node2" class="node">
<title>Node2</title>
<g id="a_node2"><a xlink:href="classQuantConnect_1_1Lean_1_1Engine_1_1DataFeeds_1_1TextSubscriptionDataSourceReader.html" target="_top" xlink:title="Provides an implementations of ISubscriptionDataSourceReader that uses the BaseData....">
<polygon fill="white" stroke="black" points="34,-78.5 34,-108.5 187,-108.5 187,-78.5 34,-78.5"/>
<text text-anchor="start" x="42" y="-96.5" font-family="Helvetica,sans-Serif" font-size="10.00">TextSubscriptionDataSource</text>
<text text-anchor="middle" x="110.5" y="-85.5" font-family="Helvetica,sans-Serif" font-size="10.00">Reader</text>
</a>
</g>
</g>
<!-- Node2&#45;&gt;Node1 -->
<g id="edge1" class="edge">
<title>Node2&#45;&gt;Node1</title>
<path fill="none" stroke="midnightblue" d="M110.5,-67.98C110.5,-59.35 110.5,-49.76 110.5,-41.59"/>
<polygon fill="midnightblue" stroke="midnightblue" points="107,-68.23 110.5,-78.23 114,-68.23 107,-68.23"/>
</g>
<!-- Node3 -->
<g id="node3" class="node">
<title>Node3</title>
<g id="a_node3"><a xlink:href="classQuantConnect_1_1Lean_1_1Engine_1_1DataFeeds_1_1BaseSubscriptionDataSourceReader.html" target="_top" xlink:title="A base class for implementations of the ISubscriptionDataSourceReader">
<polygon fill="white" stroke="black" points="32,-145.5 32,-175.5 189,-175.5 189,-145.5 32,-145.5"/>
<text text-anchor="start" x="40" y="-163.5" font-family="Helvetica,sans-Serif" font-size="10.00">BaseSubscriptionDataSource</text>
<text text-anchor="middle" x="110.5" y="-152.5" font-family="Helvetica,sans-Serif" font-size="10.00">Reader</text>
</a>
</g>
</g>
<!-- Node3&#45;&gt;Node2 -->
<g id="edge2" class="edge">
<title>Node3&#45;&gt;Node2</title>
<path fill="none" stroke="midnightblue" d="M110.5,-135.11C110.5,-126.15 110.5,-116.32 110.5,-108.58"/>
<polygon fill="midnightblue" stroke="midnightblue" points="107,-135.4 110.5,-145.4 114,-135.4 107,-135.4"/>
</g>
<!-- Node4 -->
<g id="node4" class="node">
<title>Node4</title>
<g id="a_node4"><a xlink:href="interfaceQuantConnect_1_1Lean_1_1Engine_1_1DataFeeds_1_1ISubscriptionDataSourceReader.html" target="_top" xlink:title="Represents a type responsible for accepting an input SubscriptionDataSource and returning an enumerab...">
<polygon fill="white" stroke="black" points="25.5,-212.5 25.5,-231.5 195.5,-231.5 195.5,-212.5 25.5,-212.5"/>
<text text-anchor="middle" x="110.5" y="-219.5" font-family="Helvetica,sans-Serif" font-size="10.00">ISubscriptionDataSourceReader</text>
</a>
</g>
</g>
<!-- Node4&#45;&gt;Node3 -->
<g id="edge3" class="edge">
<title>Node4&#45;&gt;Node3</title>
<path fill="none" stroke="midnightblue" d="M110.5,-202.23C110.5,-193.59 110.5,-183.5 110.5,-175.52"/>
<polygon fill="midnightblue" stroke="midnightblue" points="107,-202.48 110.5,-212.48 114,-202.48 107,-202.48"/>
</g>
</g>
</svg>
