<?xml version="1.0" encoding="UTF-8" standalone="no"?>
<!DOCTYPE svg PUBLIC "-//W3C//DTD SVG 1.1//EN"
 "http://www.w3.org/Graphics/SVG/1.1/DTD/svg11.dtd">
<!-- Generated by graphviz version 2.43.0 (0)
 -->
<!-- Title: QuantConnect.Lean.Engine.DataFeeds.Transport.ObjectStoreSubscriptionStreamReader Pages: 1 -->
<svg width="184pt" height="162pt"
 viewBox="0.00 0.00 184.00 162.00" xmlns="http://www.w3.org/2000/svg" xmlns:xlink="http://www.w3.org/1999/xlink">
<g id="graph0" class="graph" transform="scale(1 1) rotate(0) translate(4 158)">
<title>QuantConnect.Lean.Engine.DataFeeds.Transport.ObjectStoreSubscriptionStreamReader</title>
<polygon fill="white" stroke="transparent" points="-4,4 -4,-158 180,-158 180,4 -4,4"/>
<!-- Node1 -->
<g id="node1" class="node">
<title>Node1</title>
<g id="a_node1"><a xlink:title="Represents a stream reader capable of reading lines from the object store">
<polygon fill="#bfbfbf" stroke="black" points="0,-0.5 0,-41.5 176,-41.5 176,-0.5 0,-0.5"/>
<text text-anchor="start" x="8" y="-29.5" font-family="Helvetica,sans-Serif" font-size="10.00">QuantConnect.Lean.Engine.</text>
<text text-anchor="start" x="8" y="-18.5" font-family="Helvetica,sans-Serif" font-size="10.00">DataFeeds.Transport.ObjectStore</text>
<text text-anchor="middle" x="88" y="-7.5" font-family="Helvetica,sans-Serif" font-size="10.00">SubscriptionStreamReader</text>
</a>
</g>
</g>
<!-- Node2 -->
<g id="node2" class="node">
<title>Node2</title>
<g id="a_node2"><a xlink:href="interfaceQuantConnect_1_1Interfaces_1_1IStreamReader.html" target="_top" xlink:title="Defines a transport mechanism for data from its source into various reader methods">
<polygon fill="white" stroke="black" points="43.5,-78.5 43.5,-97.5 132.5,-97.5 132.5,-78.5 43.5,-78.5"/>
<text text-anchor="middle" x="88" y="-85.5" font-family="Helvetica,sans-Serif" font-size="10.00">IStreamReader</text>
</a>
</g>
</g>
<!-- Node2&#45;&gt;Node1 -->
<g id="edge1" class="edge">
<title>Node2&#45;&gt;Node1</title>
<path fill="none" stroke="midnightblue" d="M88,-68.04C88,-59.71 88,-49.94 88,-41.54"/>
<polygon fill="midnightblue" stroke="midnightblue" points="84.5,-68.23 88,-78.23 91.5,-68.23 84.5,-68.23"/>
</g>
<!-- Node3 -->
<g id="node3" class="node">
<title>Node3</title>
<g id="a_node3"><a xlink:title=" ">
<polygon fill="white" stroke="#bfbfbf" points="51,-134.5 51,-153.5 125,-153.5 125,-134.5 51,-134.5"/>
<text text-anchor="middle" x="88" y="-141.5" font-family="Helvetica,sans-Serif" font-size="10.00">IDisposable</text>
</a>
</g>
</g>
<!-- Node3&#45;&gt;Node2 -->
<g id="edge2" class="edge">
<title>Node3&#45;&gt;Node2</title>
<path fill="none" stroke="midnightblue" d="M88,-123.8C88,-114.91 88,-104.78 88,-97.75"/>
<polygon fill="midnightblue" stroke="midnightblue" points="84.5,-124.08 88,-134.08 91.5,-124.08 84.5,-124.08"/>
</g>
</g>
</svg>
