<?xml version="1.0" encoding="UTF-8" standalone="no"?>
<!DOCTYPE svg PUBLIC "-//W3C//DTD SVG 1.1//EN"
 "http://www.w3.org/Graphics/SVG/1.1/DTD/svg11.dtd">
<!-- Generated by graphviz version 2.43.0 (0)
 -->
<!-- Title: QuantConnect.SecurityIdentifier.TryParse Pages: 1 -->
<svg width="1072pt" height="784pt"
 viewBox="0.00 0.00 1072.00 784.00" xmlns="http://www.w3.org/2000/svg" xmlns:xlink="http://www.w3.org/1999/xlink">
<g id="graph0" class="graph" transform="scale(1 1) rotate(0) translate(4 780)">
<title>QuantConnect.SecurityIdentifier.TryParse</title>
<polygon fill="white" stroke="transparent" points="-4,4 -4,-780 1068,-780 1068,4 -4,4"/>
<!-- Node1 -->
<g id="node1" class="node">
<title>Node1</title>
<g id="a_node1"><a xlink:title="Attempts to parse the specified &#160;as a SecurityIdentifier.">
<polygon fill="#bfbfbf" stroke="black" points="890,-479 890,-509 1064,-509 1064,-479 890,-479"/>
<text text-anchor="start" x="898" y="-497" font-family="Helvetica,sans-Serif" font-size="10.00">QuantConnect.SecurityIdentifier.</text>
<text text-anchor="middle" x="977" y="-486" font-family="Helvetica,sans-Serif" font-size="10.00">TryParse</text>
</a>
</g>
</g>
<!-- Node2 -->
<g id="node2" class="node">
<title>Node2</title>
<g id="a_node2"><a xlink:href="classQuantConnect_1_1Symbol.html#a7e35e01237b07491f85af730a04d7a16" target="_top" xlink:title="Determines whether the specified T:System.Object is equal to the current T:System....">
<polygon fill="white" stroke="black" points="686.5,-641.5 686.5,-660.5 847.5,-660.5 847.5,-641.5 686.5,-641.5"/>
<text text-anchor="middle" x="767" y="-648.5" font-family="Helvetica,sans-Serif" font-size="10.00">QuantConnect.Symbol.Equals</text>
</a>
</g>
</g>
<!-- Node1&#45;&gt;Node2 -->
<g id="edge1" class="edge">
<title>Node1&#45;&gt;Node2</title>
<path fill="none" stroke="midnightblue" d="M948.07,-515.08C902.52,-549.46 813.99,-616.29 780.89,-641.27"/>
<polygon fill="midnightblue" stroke="midnightblue" points="950.18,-517.87 956.06,-509.05 945.97,-512.28 950.18,-517.87"/>
</g>
<!-- Node11 -->
<g id="node11" class="node">
<title>Node11</title>
<g id="a_node11"><a xlink:href="classQuantConnect_1_1Symbol.html#aecda88cc7e43c9b510fdb5caa19fb06f" target="_top" xlink:title="Creates symbol using string as sid">
<polygon fill="white" stroke="black" points="682,-479 682,-509 852,-509 852,-479 682,-479"/>
<text text-anchor="start" x="690" y="-497" font-family="Helvetica,sans-Serif" font-size="10.00">QuantConnect.Symbol.operator</text>
<text text-anchor="middle" x="767" y="-486" font-family="Helvetica,sans-Serif" font-size="10.00"> Symbol</text>
</a>
</g>
</g>
<!-- Node1&#45;&gt;Node11 -->
<g id="edge10" class="edge">
<title>Node1&#45;&gt;Node11</title>
<path fill="none" stroke="midnightblue" d="M879.86,-494C870.57,-494 861.19,-494 852.03,-494"/>
<polygon fill="midnightblue" stroke="midnightblue" points="879.9,-497.5 889.9,-494 879.9,-490.5 879.9,-497.5"/>
</g>
<!-- Node12 -->
<g id="node12" class="node">
<title>Node12</title>
<g id="a_node12"><a xlink:href="classQuantConnect_1_1SecurityIdentifier.html#a89ccb2161613f17d18ca3dc1e9eb3872" target="_top" xlink:title="Parses the specified string into a SecurityIdentifier The string must be a 40 digit number....">
<polygon fill="white" stroke="black" points="680,-318 680,-348 854,-348 854,-318 680,-318"/>
<text text-anchor="start" x="688" y="-336" font-family="Helvetica,sans-Serif" font-size="10.00">QuantConnect.SecurityIdentifier.</text>
<text text-anchor="middle" x="767" y="-325" font-family="Helvetica,sans-Serif" font-size="10.00">Parse</text>
</a>
</g>
</g>
<!-- Node1&#45;&gt;Node12 -->
<g id="edge11" class="edge">
<title>Node1&#45;&gt;Node12</title>
<path fill="none" stroke="midnightblue" d="M948.44,-472.67C905.81,-439.67 824.91,-377.05 787.67,-348.22"/>
<polygon fill="midnightblue" stroke="midnightblue" points="946.38,-475.5 956.43,-478.85 950.67,-469.96 946.38,-475.5"/>
</g>
<!-- Node3 -->
<g id="node3" class="node">
<title>Node3</title>
<g id="a_node3"><a xlink:href="classQuantConnect_1_1Securities_1_1Positions_1_1PositionExtensions.html#a6f362dca9a8998e279590c59aa2a66ff" target="_top" xlink:title="Combines the provided positions into a single position with the quantities added and the minimum unit...">
<polygon fill="white" stroke="black" points="461.5,-734.5 461.5,-775.5 620.5,-775.5 620.5,-734.5 461.5,-734.5"/>
<text text-anchor="start" x="469.5" y="-763.5" font-family="Helvetica,sans-Serif" font-size="10.00">QuantConnect.Securities.</text>
<text text-anchor="start" x="469.5" y="-752.5" font-family="Helvetica,sans-Serif" font-size="10.00">Positions.PositionExtensions.</text>
<text text-anchor="middle" x="541" y="-741.5" font-family="Helvetica,sans-Serif" font-size="10.00">Combine</text>
</a>
</g>
</g>
<!-- Node2&#45;&gt;Node3 -->
<g id="edge2" class="edge">
<title>Node2&#45;&gt;Node3</title>
<path fill="none" stroke="midnightblue" d="M744.48,-666.43C720.8,-682.83 681.18,-708.59 644,-725 636.23,-728.43 627.96,-731.59 619.62,-734.48"/>
<polygon fill="midnightblue" stroke="midnightblue" points="746.55,-669.25 752.73,-660.65 742.53,-663.52 746.55,-669.25"/>
</g>
<!-- Node4 -->
<g id="node4" class="node">
<title>Node4</title>
<g id="a_node4"><a xlink:href="classQuantConnect_1_1Data_1_1Channel.html#a052ce192fc715f848271cc24872e8f72" target="_top" xlink:title="Indicates whether the current object is equal to another object of the same type.">
<polygon fill="white" stroke="black" points="462,-685 462,-715 620,-715 620,-685 462,-685"/>
<text text-anchor="start" x="470" y="-703" font-family="Helvetica,sans-Serif" font-size="10.00">QuantConnect.Data.Channel.</text>
<text text-anchor="middle" x="541" y="-692" font-family="Helvetica,sans-Serif" font-size="10.00">Equals</text>
</a>
</g>
</g>
<!-- Node2&#45;&gt;Node4 -->
<g id="edge3" class="edge">
<title>Node2&#45;&gt;Node4</title>
<path fill="none" stroke="midnightblue" d="M712.54,-662.69C682.09,-669.36 643.6,-677.77 610.9,-684.93"/>
<polygon fill="midnightblue" stroke="midnightblue" points="713.52,-666.06 722.54,-660.51 712.03,-659.22 713.52,-666.06"/>
</g>
<!-- Node6 -->
<g id="node6" class="node">
<title>Node6</title>
<g id="a_node6"><a xlink:href="classQuantConnect_1_1Securities_1_1SecurityDatabaseKey.html#acba94104001d825aaf81730b62a2b1f8" target="_top" xlink:title="Indicates whether the current object is equal to another object of the same type.">
<polygon fill="white" stroke="black" points="463.5,-636 463.5,-666 618.5,-666 618.5,-636 463.5,-636"/>
<text text-anchor="start" x="471.5" y="-654" font-family="Helvetica,sans-Serif" font-size="10.00">QuantConnect.Securities.</text>
<text text-anchor="middle" x="541" y="-643" font-family="Helvetica,sans-Serif" font-size="10.00">SecurityDatabaseKey.Equals</text>
</a>
</g>
</g>
<!-- Node2&#45;&gt;Node6 -->
<g id="edge5" class="edge">
<title>Node2&#45;&gt;Node6</title>
<path fill="none" stroke="midnightblue" d="M676.22,-651C657.17,-651 637.23,-651 618.72,-651"/>
<polygon fill="midnightblue" stroke="midnightblue" points="676.4,-654.5 686.4,-651 676.4,-647.5 676.4,-654.5"/>
</g>
<!-- Node10 -->
<g id="node10" class="node">
<title>Node10</title>
<g id="a_node10"><a xlink:href="classQuantConnect_1_1Symbol.html#a6e0361c99c445df507614f25b08b797d" target="_top" xlink:title="Equals operator">
<polygon fill="white" stroke="black" points="448,-597.5 448,-616.5 634,-616.5 634,-597.5 448,-597.5"/>
<text text-anchor="middle" x="541" y="-604.5" font-family="Helvetica,sans-Serif" font-size="10.00">QuantConnect.Symbol.operator==</text>
</a>
</g>
</g>
<!-- Node2&#45;&gt;Node10 -->
<g id="edge9" class="edge">
<title>Node2&#45;&gt;Node10</title>
<path fill="none" stroke="midnightblue" d="M707.64,-639.51C687.48,-635.55 664.75,-631.07 644,-627 626.56,-623.57 607.44,-619.82 590.51,-616.51"/>
<polygon fill="midnightblue" stroke="midnightblue" points="707.13,-642.98 717.61,-641.47 708.48,-636.11 707.13,-642.98"/>
</g>
<!-- Node5 -->
<g id="node5" class="node">
<title>Node5</title>
<g id="a_node5"><a xlink:href="classQuantConnect_1_1Data_1_1Channel.html#aea5a2035b8e3a54f597f2647de9a1c31" target="_top" xlink:title="Determines whether the specified object is equal to the current object.">
<polygon fill="white" stroke="black" points="213,-734 213,-764 371,-764 371,-734 213,-734"/>
<text text-anchor="start" x="221" y="-752" font-family="Helvetica,sans-Serif" font-size="10.00">QuantConnect.Data.Channel.</text>
<text text-anchor="middle" x="292" y="-741" font-family="Helvetica,sans-Serif" font-size="10.00">Equals</text>
</a>
</g>
</g>
<!-- Node4&#45;&gt;Node5 -->
<g id="edge4" class="edge">
<title>Node4&#45;&gt;Node5</title>
<path fill="none" stroke="midnightblue" d="M454.1,-717.04C426.29,-722.56 395.66,-728.63 368.64,-733.99"/>
<polygon fill="midnightblue" stroke="midnightblue" points="455.09,-720.41 464.21,-715.03 453.72,-713.55 455.09,-720.41"/>
</g>
<!-- Node7 -->
<g id="node7" class="node">
<title>Node7</title>
<g id="a_node7"><a xlink:href="classQuantConnect_1_1Securities_1_1SecurityDatabaseKey.html#a25a12cabf88130f88d1ca4541b5ba27b" target="_top" xlink:title="Determines whether the specified object is equal to the current object.">
<polygon fill="white" stroke="black" points="214.5,-685 214.5,-715 369.5,-715 369.5,-685 214.5,-685"/>
<text text-anchor="start" x="222.5" y="-703" font-family="Helvetica,sans-Serif" font-size="10.00">QuantConnect.Securities.</text>
<text text-anchor="middle" x="292" y="-692" font-family="Helvetica,sans-Serif" font-size="10.00">SecurityDatabaseKey.Equals</text>
</a>
</g>
</g>
<!-- Node6&#45;&gt;Node7 -->
<g id="edge6" class="edge">
<title>Node6&#45;&gt;Node7</title>
<path fill="none" stroke="midnightblue" d="M454.1,-668.04C426.29,-673.56 395.66,-679.63 368.64,-684.99"/>
<polygon fill="midnightblue" stroke="midnightblue" points="455.09,-671.41 464.21,-666.03 453.72,-664.55 455.09,-671.41"/>
</g>
<!-- Node8 -->
<g id="node8" class="node">
<title>Node8</title>
<g id="a_node8"><a xlink:href="classQuantConnect_1_1Securities_1_1SecurityDatabaseKey.html#adf525c3cba93aa8b0ade6b229a8d4285" target="_top" xlink:title="Security Database Key != operator">
<polygon fill="white" stroke="black" points="204,-636 204,-666 380,-666 380,-636 204,-636"/>
<text text-anchor="start" x="212" y="-654" font-family="Helvetica,sans-Serif" font-size="10.00">QuantConnect.Securities.</text>
<text text-anchor="middle" x="292" y="-643" font-family="Helvetica,sans-Serif" font-size="10.00">SecurityDatabaseKey.operator!=</text>
</a>
</g>
</g>
<!-- Node6&#45;&gt;Node8 -->
<g id="edge7" class="edge">
<title>Node6&#45;&gt;Node8</title>
<path fill="none" stroke="midnightblue" d="M453.18,-651C429.49,-651 403.81,-651 380.1,-651"/>
<polygon fill="midnightblue" stroke="midnightblue" points="453.2,-654.5 463.2,-651 453.2,-647.5 453.2,-654.5"/>
</g>
<!-- Node9 -->
<g id="node9" class="node">
<title>Node9</title>
<g id="a_node9"><a xlink:href="classQuantConnect_1_1Securities_1_1SecurityDatabaseKey.html#ab28fd42323f512e583088f184b0a1d98" target="_top" xlink:title="Security Database Key == operator">
<polygon fill="white" stroke="black" points="202,-587 202,-617 382,-617 382,-587 202,-587"/>
<text text-anchor="start" x="210" y="-605" font-family="Helvetica,sans-Serif" font-size="10.00">QuantConnect.Securities.</text>
<text text-anchor="middle" x="292" y="-594" font-family="Helvetica,sans-Serif" font-size="10.00">SecurityDatabaseKey.operator==</text>
</a>
</g>
</g>
<!-- Node6&#45;&gt;Node9 -->
<g id="edge8" class="edge">
<title>Node6&#45;&gt;Node9</title>
<path fill="none" stroke="midnightblue" d="M454.1,-633.96C426.29,-628.44 395.66,-622.37 368.64,-617.01"/>
<polygon fill="midnightblue" stroke="midnightblue" points="453.72,-637.45 464.21,-635.97 455.09,-630.59 453.72,-637.45"/>
</g>
<!-- Node13 -->
<g id="node13" class="node">
<title>Node13</title>
<g id="a_node13"><a xlink:href="classQuantConnect_1_1Util_1_1SecurityIdentifierJsonConverter.html#a55029986bfa80668ec83127416bcf354" target="_top" xlink:title="Converts the input string to a security identifier">
<polygon fill="white" stroke="black" points="456.5,-538 456.5,-568 625.5,-568 625.5,-538 456.5,-538"/>
<text text-anchor="start" x="464.5" y="-556" font-family="Helvetica,sans-Serif" font-size="10.00">QuantConnect.Util.Security</text>
<text text-anchor="middle" x="541" y="-545" font-family="Helvetica,sans-Serif" font-size="10.00">IdentifierJsonConverter.Convert</text>
</a>
</g>
</g>
<!-- Node12&#45;&gt;Node13 -->
<g id="edge12" class="edge">
<title>Node12&#45;&gt;Node13</title>
<path fill="none" stroke="midnightblue" d="M751.03,-356.65C733.8,-383.91 704.7,-430.1 680,-470 663.83,-496.12 668.88,-510.98 644,-529 638.4,-533.06 632.22,-536.44 625.75,-539.25"/>
<polygon fill="midnightblue" stroke="midnightblue" points="754.01,-358.49 756.39,-348.17 748.09,-354.75 754.01,-358.49"/>
</g>
<!-- Node14 -->
<g id="node14" class="node">
<title>Node14</title>
<g id="a_node14"><a xlink:href="classQuantConnect_1_1Orders_1_1OrderJsonConverter.html#ae7718abf2cec0c8473eee7cdec4b4b15" target="_top" xlink:title="Create an order from a simple JObject">
<polygon fill="white" stroke="black" points="438,-489 438,-519 644,-519 644,-489 438,-489"/>
<text text-anchor="start" x="446" y="-507" font-family="Helvetica,sans-Serif" font-size="10.00">QuantConnect.Orders.Order</text>
<text text-anchor="middle" x="541" y="-496" font-family="Helvetica,sans-Serif" font-size="10.00">JsonConverter.CreateOrderFromJObject</text>
</a>
</g>
</g>
<!-- Node12&#45;&gt;Node14 -->
<g id="edge13" class="edge">
<title>Node12&#45;&gt;Node14</title>
<path fill="none" stroke="midnightblue" d="M752.73,-357.26C733.33,-390.33 694.04,-449 644,-480 638.43,-483.45 632.41,-486.4 626.18,-488.93"/>
<polygon fill="midnightblue" stroke="midnightblue" points="755.95,-358.68 757.89,-348.26 749.88,-355.2 755.95,-358.68"/>
</g>
<!-- Node17 -->
<g id="node17" class="node">
<title>Node17</title>
<g id="a_node17"><a xlink:href="classQuantConnect_1_1Securities_1_1SecurityDefinition.html#afeaaba888400d043436e7e093306ccac" target="_top" xlink:title="Parses a single line of CSV and converts it into an instance">
<polygon fill="white" stroke="black" points="456,-440 456,-470 626,-470 626,-440 456,-440"/>
<text text-anchor="start" x="464" y="-458" font-family="Helvetica,sans-Serif" font-size="10.00">QuantConnect.Securities.</text>
<text text-anchor="middle" x="541" y="-447" font-family="Helvetica,sans-Serif" font-size="10.00">SecurityDefinition.FromCsvLine</text>
</a>
</g>
</g>
<!-- Node12&#45;&gt;Node17 -->
<g id="edge16" class="edge">
<title>Node12&#45;&gt;Node17</title>
<path fill="none" stroke="midnightblue" d="M744.61,-355.25C721.77,-377.7 683.49,-411.73 644,-431 636.97,-434.43 629.42,-437.38 621.73,-439.93"/>
<polygon fill="midnightblue" stroke="midnightblue" points="747.15,-357.66 751.75,-348.11 742.2,-352.71 747.15,-357.66"/>
</g>
<!-- Node20 -->
<g id="node20" class="node">
<title>Node20</title>
<g id="a_node20"><a xlink:href="classQuantConnect_1_1Orders_1_1OrderEvent.html#ab5201a3c4066f451616e2602bdb36a7d" target="_top" xlink:title="Creates a new instance based on the provided serialized order event">
<polygon fill="white" stroke="black" points="465.5,-391 465.5,-421 616.5,-421 616.5,-391 465.5,-391"/>
<text text-anchor="start" x="473.5" y="-409" font-family="Helvetica,sans-Serif" font-size="10.00">QuantConnect.Orders.Order</text>
<text text-anchor="middle" x="541" y="-398" font-family="Helvetica,sans-Serif" font-size="10.00">Event.FromSerialized</text>
</a>
</g>
</g>
<!-- Node12&#45;&gt;Node20 -->
<g id="edge19" class="edge">
<title>Node12&#45;&gt;Node20</title>
<path fill="none" stroke="midnightblue" d="M723.38,-351.96C700.21,-361.79 670.87,-373.5 644,-382 633.77,-385.24 622.83,-388.26 612.06,-390.99"/>
<polygon fill="midnightblue" stroke="midnightblue" points="724.77,-355.17 732.58,-348.01 722.01,-348.74 724.77,-355.17"/>
</g>
<!-- Node22 -->
<g id="node22" class="node">
<title>Node22</title>
<g id="a_node22"><a xlink:href="classQuantConnect_1_1Orders_1_1Order.html#a78fe84a79fafe9377035e67e22d71de8" target="_top" xlink:title="Creates a new Order instance from a SerializedOrder instance">
<polygon fill="white" stroke="black" points="464.5,-342 464.5,-372 617.5,-372 617.5,-342 464.5,-342"/>
<text text-anchor="start" x="472.5" y="-360" font-family="Helvetica,sans-Serif" font-size="10.00">QuantConnect.Orders.Order.</text>
<text text-anchor="middle" x="541" y="-349" font-family="Helvetica,sans-Serif" font-size="10.00">FromSerialized</text>
</a>
</g>
</g>
<!-- Node12&#45;&gt;Node22 -->
<g id="edge21" class="edge">
<title>Node12&#45;&gt;Node22</title>
<path fill="none" stroke="midnightblue" d="M669.56,-343.33C652.19,-345.19 634.32,-347.11 617.64,-348.9"/>
<polygon fill="midnightblue" stroke="midnightblue" points="670.15,-346.79 679.72,-342.24 669.4,-339.83 670.15,-346.79"/>
</g>
<!-- Node24 -->
<g id="node24" class="node">
<title>Node24</title>
<g id="a_node24"><a xlink:href="classQuantConnect_1_1Algorithm_1_1Framework_1_1Alphas_1_1Insight.html#a45c92b494352cbd2da4db9890911200f" target="_top" xlink:title="Creates a new Insight object from the specified serialized form">
<polygon fill="white" stroke="black" points="442.5,-293 442.5,-323 639.5,-323 639.5,-293 442.5,-293"/>
<text text-anchor="start" x="450.5" y="-311" font-family="Helvetica,sans-Serif" font-size="10.00">QuantConnect.Algorithm.Framework.</text>
<text text-anchor="middle" x="541" y="-300" font-family="Helvetica,sans-Serif" font-size="10.00">Alphas.Insight.FromSerializedInsight</text>
</a>
</g>
</g>
<!-- Node12&#45;&gt;Node24 -->
<g id="edge23" class="edge">
<title>Node12&#45;&gt;Node24</title>
<path fill="none" stroke="midnightblue" d="M669.53,-322.23C659.68,-321.13 649.67,-320.02 639.81,-318.92"/>
<polygon fill="midnightblue" stroke="midnightblue" points="669.39,-325.74 679.72,-323.37 670.17,-318.78 669.39,-325.74"/>
</g>
<!-- Node26 -->
<g id="node26" class="node">
<title>Node26</title>
<g id="a_node26"><a xlink:href="classQuantConnect_1_1Data_1_1Fundamental_1_1FundamentalUniverse.html#ab0cc57b7cf7c3565309f15f7887e3dd7" target="_top" xlink:title="Will read a new instance from the given line">
<polygon fill="white" stroke="black" points="450,-244 450,-274 632,-274 632,-244 450,-244"/>
<text text-anchor="start" x="458" y="-262" font-family="Helvetica,sans-Serif" font-size="10.00">QuantConnect.Data.Fundamental.</text>
<text text-anchor="middle" x="541" y="-251" font-family="Helvetica,sans-Serif" font-size="10.00">FundamentalUniverse.Reader</text>
</a>
</g>
</g>
<!-- Node12&#45;&gt;Node26 -->
<g id="edge25" class="edge">
<title>Node12&#45;&gt;Node26</title>
<path fill="none" stroke="midnightblue" d="M722.79,-313.91C699.7,-304.15 670.62,-292.56 644,-284 632.89,-280.43 620.96,-277.08 609.32,-274.07"/>
<polygon fill="midnightblue" stroke="midnightblue" points="721.72,-317.26 732.29,-317.96 724.47,-310.82 721.72,-317.26"/>
</g>
<!-- Node27 -->
<g id="node27" class="node">
<title>Node27</title>
<g id="a_node27"><a xlink:href="classQuantConnect_1_1Data_1_1UniverseSelection_1_1ConstituentsUniverseData.html#ac6491a989536209afe26c164a7764444" target="_top" xlink:title="Reader converts each line of the data source into BaseData objects. Each data type creates its own fa...">
<polygon fill="white" stroke="black" points="456,-183.5 456,-224.5 626,-224.5 626,-183.5 456,-183.5"/>
<text text-anchor="start" x="464" y="-212.5" font-family="Helvetica,sans-Serif" font-size="10.00">QuantConnect.Data.Universe</text>
<text text-anchor="start" x="464" y="-201.5" font-family="Helvetica,sans-Serif" font-size="10.00">Selection.ConstituentsUniverse</text>
<text text-anchor="middle" x="541" y="-190.5" font-family="Helvetica,sans-Serif" font-size="10.00">Data.Reader</text>
</a>
</g>
</g>
<!-- Node12&#45;&gt;Node27 -->
<g id="edge26" class="edge">
<title>Node12&#45;&gt;Node27</title>
<path fill="none" stroke="midnightblue" d="M743.97,-310.89C720.87,-288.85 682.63,-255.4 644,-235 636.64,-231.11 628.71,-227.63 620.64,-224.54"/>
<polygon fill="midnightblue" stroke="midnightblue" points="741.58,-313.45 751.2,-317.9 746.45,-308.43 741.58,-313.45"/>
</g>
<!-- Node28 -->
<g id="node28" class="node">
<title>Node28</title>
<g id="a_node28"><a xlink:href="classQuantConnect_1_1Data_1_1Fundamental_1_1Fundamental.html#a6ee785f2be07bb11e2aacb6cd7e15eae" target="_top" xlink:title="Will read a new instance from the given line">
<polygon fill="white" stroke="black" points="450,-134 450,-164 632,-164 632,-134 450,-134"/>
<text text-anchor="start" x="458" y="-152" font-family="Helvetica,sans-Serif" font-size="10.00">QuantConnect.Data.Fundamental.</text>
<text text-anchor="middle" x="541" y="-141" font-family="Helvetica,sans-Serif" font-size="10.00">Fundamental.Reader</text>
</a>
</g>
</g>
<!-- Node12&#45;&gt;Node28 -->
<g id="edge27" class="edge">
<title>Node12&#45;&gt;Node28</title>
<path fill="none" stroke="midnightblue" d="M754.01,-308.37C735.48,-272.98 696.46,-208.25 644,-174 638.05,-170.11 631.54,-166.83 624.78,-164.06"/>
<polygon fill="midnightblue" stroke="midnightblue" points="751.03,-310.22 758.69,-317.53 757.26,-307.03 751.03,-310.22"/>
</g>
<!-- Node29 -->
<g id="node29" class="node">
<title>Node29</title>
<g id="a_node29"><a xlink:href="classQuantConnect_1_1Data_1_1UniverseSelection_1_1ETFConstituentUniverse.html#a40b220bec099d556460cebbebbf07e7a" target="_top" xlink:title="Reader converts each line of the data source into BaseData objects. Each data type creates its own fa...">
<polygon fill="white" stroke="black" points="448.5,-73.5 448.5,-114.5 633.5,-114.5 633.5,-73.5 448.5,-73.5"/>
<text text-anchor="start" x="456.5" y="-102.5" font-family="Helvetica,sans-Serif" font-size="10.00">QuantConnect.Data.Universe</text>
<text text-anchor="start" x="456.5" y="-91.5" font-family="Helvetica,sans-Serif" font-size="10.00">Selection.ETFConstituentUniverse.</text>
<text text-anchor="middle" x="541" y="-80.5" font-family="Helvetica,sans-Serif" font-size="10.00">Reader</text>
</a>
</g>
</g>
<!-- Node12&#45;&gt;Node29 -->
<g id="edge28" class="edge">
<title>Node12&#45;&gt;Node29</title>
<path fill="none" stroke="midnightblue" d="M758.26,-308.33C743.33,-264.76 706.39,-174.19 644,-125 638.99,-121.05 633.47,-117.6 627.68,-114.58"/>
<polygon fill="midnightblue" stroke="midnightblue" points="754.95,-309.47 761.43,-317.85 761.59,-307.26 754.95,-309.47"/>
</g>
<!-- Node30 -->
<g id="node30" class="node">
<title>Node30</title>
<g id="a_node30"><a xlink:href="classQuantConnect_1_1Symbol.html#a13e0f04010a2d52bb7fc2000e5929394" target="_top" xlink:title="Creates new symbol with updated mapped symbol. Symbol Mapping: When symbols change over time (e....">
<polygon fill="white" stroke="black" points="459,-6 459,-36 623,-36 623,-6 459,-6"/>
<text text-anchor="start" x="467" y="-24" font-family="Helvetica,sans-Serif" font-size="10.00">QuantConnect.Symbol.Update</text>
<text text-anchor="middle" x="541" y="-13" font-family="Helvetica,sans-Serif" font-size="10.00">MappedSymbol</text>
</a>
</g>
</g>
<!-- Node12&#45;&gt;Node30 -->
<g id="edge29" class="edge">
<title>Node12&#45;&gt;Node30</title>
<path fill="none" stroke="midnightblue" d="M761.08,-307.94C749.61,-255.76 716.38,-134.46 644,-64 631.26,-51.6 614.41,-42.55 598.09,-36.04"/>
<polygon fill="midnightblue" stroke="midnightblue" points="757.71,-308.92 763.2,-317.98 764.56,-307.48 757.71,-308.92"/>
</g>
<!-- Node15 -->
<g id="node15" class="node">
<title>Node15</title>
<g id="a_node15"><a xlink:href="classQuantConnect_1_1Report_1_1OrderTypeNormalizingJsonConverter.html#a095a046916eb5872ed67ebc83a46d7a5" target="_top" xlink:title="Read Json and convert">
<polygon fill="white" stroke="black" points="185,-538 185,-568 399,-568 399,-538 185,-538"/>
<text text-anchor="start" x="193" y="-556" font-family="Helvetica,sans-Serif" font-size="10.00">QuantConnect.Report.Order</text>
<text text-anchor="middle" x="292" y="-545" font-family="Helvetica,sans-Serif" font-size="10.00">TypeNormalizingJsonConverter.ReadJson</text>
</a>
</g>
</g>
<!-- Node14&#45;&gt;Node15 -->
<g id="edge14" class="edge">
<title>Node14&#45;&gt;Node15</title>
<path fill="none" stroke="midnightblue" d="M454.1,-521.04C426.29,-526.56 395.66,-532.63 368.64,-537.99"/>
<polygon fill="midnightblue" stroke="midnightblue" points="455.09,-524.41 464.21,-519.03 453.72,-517.55 455.09,-524.41"/>
</g>
<!-- Node16 -->
<g id="node16" class="node">
<title>Node16</title>
<g id="a_node16"><a xlink:href="classQuantConnect_1_1Orders_1_1OrderJsonConverter.html#abed44f89edc8905ac0d4b8af39a47802" target="_top" xlink:title="Reads the JSON representation of the object.">
<polygon fill="white" stroke="black" points="216.5,-489 216.5,-519 367.5,-519 367.5,-489 216.5,-489"/>
<text text-anchor="start" x="224.5" y="-507" font-family="Helvetica,sans-Serif" font-size="10.00">QuantConnect.Orders.Order</text>
<text text-anchor="middle" x="292" y="-496" font-family="Helvetica,sans-Serif" font-size="10.00">JsonConverter.ReadJson</text>
</a>
</g>
</g>
<!-- Node14&#45;&gt;Node16 -->
<g id="edge15" class="edge">
<title>Node14&#45;&gt;Node16</title>
<path fill="none" stroke="midnightblue" d="M427.51,-504C407.22,-504 386.52,-504 367.65,-504"/>
<polygon fill="midnightblue" stroke="midnightblue" points="427.75,-507.5 437.75,-504 427.75,-500.5 427.75,-507.5"/>
</g>
<!-- Node18 -->
<g id="node18" class="node">
<title>Node18</title>
<g id="a_node18"><a xlink:href="classQuantConnect_1_1Securities_1_1SecurityDefinition.html#a82de6b15f6e510abee79feeeb133a3e1" target="_top" xlink:title="Reads data from the specified file and converts it to a list of SecurityDefinition">
<polygon fill="white" stroke="black" points="222,-440 222,-470 362,-470 362,-440 222,-440"/>
<text text-anchor="start" x="230" y="-458" font-family="Helvetica,sans-Serif" font-size="10.00">QuantConnect.Securities.</text>
<text text-anchor="middle" x="292" y="-447" font-family="Helvetica,sans-Serif" font-size="10.00">SecurityDefinition.Read</text>
</a>
</g>
</g>
<!-- Node17&#45;&gt;Node18 -->
<g id="edge17" class="edge">
<title>Node17&#45;&gt;Node18</title>
<path fill="none" stroke="midnightblue" d="M445.57,-455C417.84,-455 388.03,-455 362.19,-455"/>
<polygon fill="midnightblue" stroke="midnightblue" points="445.69,-458.5 455.69,-455 445.69,-451.5 445.69,-458.5"/>
</g>
<!-- Node19 -->
<g id="node19" class="node">
<title>Node19</title>
<g id="a_node19"><a xlink:href="classQuantConnect_1_1Securities_1_1SecurityDefinition.html#ae557fc970973cc2169c0b244b181de05" target="_top" xlink:title="Attempts to read data from the specified file and convert it into a list of SecurityDefinition">
<polygon fill="white" stroke="black" points="0,-440 0,-470 146,-470 146,-440 0,-440"/>
<text text-anchor="start" x="8" y="-458" font-family="Helvetica,sans-Serif" font-size="10.00">QuantConnect.Securities.</text>
<text text-anchor="middle" x="73" y="-447" font-family="Helvetica,sans-Serif" font-size="10.00">SecurityDefinition.TryRead</text>
</a>
</g>
</g>
<!-- Node18&#45;&gt;Node19 -->
<g id="edge18" class="edge">
<title>Node18&#45;&gt;Node19</title>
<path fill="none" stroke="midnightblue" d="M211.72,-455C190.34,-455 167.32,-455 146.34,-455"/>
<polygon fill="midnightblue" stroke="midnightblue" points="211.74,-458.5 221.74,-455 211.74,-451.5 211.74,-458.5"/>
</g>
<!-- Node21 -->
<g id="node21" class="node">
<title>Node21</title>
<g id="a_node21"><a xlink:href="classQuantConnect_1_1Orders_1_1Serialization_1_1OrderEventJsonConverter.html#ae6c48e8ac3a202ba0187ea307c82b22d" target="_top" xlink:title="Converts the input value to be deserialized">
<polygon fill="white" stroke="black" points="198,-391 198,-421 386,-421 386,-391 198,-391"/>
<text text-anchor="start" x="206" y="-409" font-family="Helvetica,sans-Serif" font-size="10.00">QuantConnect.Orders.Serialization.</text>
<text text-anchor="middle" x="292" y="-398" font-family="Helvetica,sans-Serif" font-size="10.00">OrderEventJsonConverter.Convert</text>
</a>
</g>
</g>
<!-- Node20&#45;&gt;Node21 -->
<g id="edge20" class="edge">
<title>Node20&#45;&gt;Node21</title>
<path fill="none" stroke="midnightblue" d="M455.17,-406C432.97,-406 408.93,-406 386.32,-406"/>
<polygon fill="midnightblue" stroke="midnightblue" points="455.22,-409.5 465.22,-406 455.22,-402.5 455.22,-409.5"/>
</g>
<!-- Node23 -->
<g id="node23" class="node">
<title>Node23</title>
<g id="a_node23"><a xlink:href="classQuantConnect_1_1Orders_1_1Serialization_1_1SerializedOrderJsonConverter.html#a6cfaeafcc6f3697d680ed0cf2dfa6a47" target="_top" xlink:title="Converts the input value to be deserialized">
<polygon fill="white" stroke="black" points="192,-342 192,-372 392,-372 392,-342 192,-342"/>
<text text-anchor="start" x="200" y="-360" font-family="Helvetica,sans-Serif" font-size="10.00">QuantConnect.Orders.Serialization.</text>
<text text-anchor="middle" x="292" y="-349" font-family="Helvetica,sans-Serif" font-size="10.00">SerializedOrderJsonConverter.Convert</text>
</a>
</g>
</g>
<!-- Node22&#45;&gt;Node23 -->
<g id="edge22" class="edge">
<title>Node22&#45;&gt;Node23</title>
<path fill="none" stroke="midnightblue" d="M453.95,-357C434.06,-357 412.74,-357 392.33,-357"/>
<polygon fill="midnightblue" stroke="midnightblue" points="454.21,-360.5 464.21,-357 454.21,-353.5 454.21,-360.5"/>
</g>
<!-- Node25 -->
<g id="node25" class="node">
<title>Node25</title>
<g id="a_node25"><a xlink:href="classQuantConnect_1_1Algorithm_1_1Framework_1_1Alphas_1_1Serialization_1_1InsightJsonConverter.html#af2dd7ec283dc30929df11534ca3cc274" target="_top" xlink:title="Converts the input value to be deserialized">
<polygon fill="white" stroke="black" points="182,-281.5 182,-322.5 402,-322.5 402,-281.5 182,-281.5"/>
<text text-anchor="start" x="190" y="-310.5" font-family="Helvetica,sans-Serif" font-size="10.00">QuantConnect.Algorithm.Framework.</text>
<text text-anchor="start" x="190" y="-299.5" font-family="Helvetica,sans-Serif" font-size="10.00">Alphas.Serialization.InsightJsonConverter.</text>
<text text-anchor="middle" x="292" y="-288.5" font-family="Helvetica,sans-Serif" font-size="10.00">Convert</text>
</a>
</g>
</g>
<!-- Node24&#45;&gt;Node25 -->
<g id="edge24" class="edge">
<title>Node24&#45;&gt;Node25</title>
<path fill="none" stroke="midnightblue" d="M432.09,-305.38C422.15,-305.14 412.08,-304.89 402.14,-304.65"/>
<polygon fill="midnightblue" stroke="midnightblue" points="432.3,-308.88 442.38,-305.63 432.47,-301.89 432.3,-308.88"/>
</g>
<!-- Node30&#45;&gt;Node30 -->
<g id="edge31" class="edge">
<title>Node30&#45;&gt;Node30</title>
<path fill="none" stroke="midnightblue" d="M581.16,-46.46C576.17,-51.18 562.79,-54.5 541,-54.5 505.25,-54.5 492.12,-45.56 501.61,-36.16"/>
<polygon fill="midnightblue" stroke="midnightblue" points="584.62,-45.87 580.39,-36.16 577.64,-46.39 584.62,-45.87"/>
</g>
<!-- Node31 -->
<g id="node31" class="node">
<title>Node31</title>
<g id="a_node31"><a xlink:href="classQuantConnect_1_1Data_1_1HistoryExtensions.html#a3b6a56b1bd013e0178ae4d01775fc68b" target="_top" xlink:title="Split HistoryRequest on several request with update mapped symbol.">
<polygon fill="white" stroke="black" points="207,-0.5 207,-41.5 377,-41.5 377,-0.5 207,-0.5"/>
<text text-anchor="start" x="215" y="-29.5" font-family="Helvetica,sans-Serif" font-size="10.00">QuantConnect.Data.History</text>
<text text-anchor="start" x="215" y="-18.5" font-family="Helvetica,sans-Serif" font-size="10.00">Extensions.SplitHistoryRequest</text>
<text text-anchor="middle" x="292" y="-7.5" font-family="Helvetica,sans-Serif" font-size="10.00">WithUpdatedMappedSymbol</text>
</a>
</g>
</g>
<!-- Node30&#45;&gt;Node31 -->
<g id="edge30" class="edge">
<title>Node30&#45;&gt;Node31</title>
<path fill="none" stroke="midnightblue" d="M448.54,-21C425.19,-21 400.2,-21 377.23,-21"/>
<polygon fill="midnightblue" stroke="midnightblue" points="448.78,-24.5 458.78,-21 448.78,-17.5 448.78,-24.5"/>
</g>
</g>
</svg>
