<?xml version="1.0" encoding="UTF-8" standalone="no"?>
<!DOCTYPE svg PUBLIC "-//W3C//DTD SVG 1.1//EN"
 "http://www.w3.org/Graphics/SVG/1.1/DTD/svg11.dtd">
<!-- Generated by graphviz version 2.43.0 (0)
 -->
<!-- Title: QuantConnect.Packets.SystemDebugPacket Pages: 1 -->
<svg width="173pt" height="151pt"
 viewBox="0.00 0.00 173.00 151.00" xmlns="http://www.w3.org/2000/svg" xmlns:xlink="http://www.w3.org/1999/xlink">
<g id="graph0" class="graph" transform="scale(1 1) rotate(0) translate(4 147)">
<title>QuantConnect.Packets.SystemDebugPacket</title>
<polygon fill="white" stroke="transparent" points="-4,4 -4,-147 169,-147 169,4 -4,4"/>
<!-- Node1 -->
<g id="node1" class="node">
<title>Node1</title>
<g id="a_node1"><a xlink:title="Debug packets generated by Lean">
<polygon fill="#bfbfbf" stroke="black" points="0,-0.5 0,-30.5 165,-30.5 165,-0.5 0,-0.5"/>
<text text-anchor="start" x="8" y="-18.5" font-family="Helvetica,sans-Serif" font-size="10.00">QuantConnect.Packets.System</text>
<text text-anchor="middle" x="82.5" y="-7.5" font-family="Helvetica,sans-Serif" font-size="10.00">DebugPacket</text>
</a>
</g>
</g>
<!-- Node2 -->
<g id="node2" class="node">
<title>Node2</title>
<g id="a_node2"><a xlink:href="classQuantConnect_1_1Packets_1_1DebugPacket.html" target="_top" xlink:title="Send a simple debug message from the users algorithm to the console.">
<polygon fill="white" stroke="black" points="42.5,-67.5 42.5,-86.5 122.5,-86.5 122.5,-67.5 42.5,-67.5"/>
<text text-anchor="middle" x="82.5" y="-74.5" font-family="Helvetica,sans-Serif" font-size="10.00">DebugPacket</text>
</a>
</g>
</g>
<!-- Node2&#45;&gt;Node1 -->
<g id="edge1" class="edge">
<title>Node2&#45;&gt;Node1</title>
<path fill="none" stroke="midnightblue" d="M82.5,-57.23C82.5,-48.59 82.5,-38.5 82.5,-30.52"/>
<polygon fill="midnightblue" stroke="midnightblue" points="79,-57.48 82.5,-67.48 86,-57.48 79,-57.48"/>
</g>
<!-- Node3 -->
<g id="node3" class="node">
<title>Node3</title>
<g id="a_node3"><a xlink:href="classQuantConnect_1_1Packets_1_1Packet.html" target="_top" xlink:title="Base class for packet messaging system">
<polygon fill="white" stroke="black" points="58.5,-123.5 58.5,-142.5 106.5,-142.5 106.5,-123.5 58.5,-123.5"/>
<text text-anchor="middle" x="82.5" y="-130.5" font-family="Helvetica,sans-Serif" font-size="10.00">Packet</text>
</a>
</g>
</g>
<!-- Node3&#45;&gt;Node2 -->
<g id="edge2" class="edge">
<title>Node3&#45;&gt;Node2</title>
<path fill="none" stroke="midnightblue" d="M82.5,-112.8C82.5,-103.91 82.5,-93.78 82.5,-86.75"/>
<polygon fill="midnightblue" stroke="midnightblue" points="79,-113.08 82.5,-123.08 86,-113.08 79,-113.08"/>
</g>
</g>
</svg>
