<?xml version="1.0" encoding="UTF-8" standalone="no"?>
<!DOCTYPE svg PUBLIC "-//W3C//DTD SVG 1.1//EN"
 "http://www.w3.org/Graphics/SVG/1.1/DTD/svg11.dtd">
<!-- Generated by graphviz version 2.43.0 (0)
 -->
<!-- Title: QuantConnect.Lean.Engine.Results.BaseResultsHandler.SampleEquity Pages: 1 -->
<svg width="669pt" height="389pt"
 viewBox="0.00 0.00 669.00 388.50" xmlns="http://www.w3.org/2000/svg" xmlns:xlink="http://www.w3.org/1999/xlink">
<g id="graph0" class="graph" transform="scale(1 1) rotate(0) translate(4 384.5)">
<title>QuantConnect.Lean.Engine.Results.BaseResultsHandler.SampleEquity</title>
<polygon fill="white" stroke="transparent" points="-4,4 -4,-384.5 665,-384.5 665,4 -4,4"/>
<!-- Node1 -->
<g id="node1" class="node">
<title>Node1</title>
<g id="a_node1"><a xlink:title="Sample the current equity of the strategy directly with time and using the current algorithm equity v...">
<polygon fill="#bfbfbf" stroke="black" points="468,-177.5 468,-218.5 661,-218.5 661,-177.5 468,-177.5"/>
<text text-anchor="start" x="476" y="-206.5" font-family="Helvetica,sans-Serif" font-size="10.00">QuantConnect.Lean.Engine.</text>
<text text-anchor="start" x="476" y="-195.5" font-family="Helvetica,sans-Serif" font-size="10.00">Results.BaseResultsHandler.Sample</text>
<text text-anchor="middle" x="564.5" y="-184.5" font-family="Helvetica,sans-Serif" font-size="10.00">Equity</text>
</a>
</g>
</g>
<!-- Node2 -->
<g id="node2" class="node">
<title>Node2</title>
<g id="a_node2"><a xlink:href="classQuantConnect_1_1Lean_1_1Engine_1_1Results_1_1BacktestingResultHandler.html#af77b814abc9475ada2dca3277aef278e" target="_top" xlink:title="Process the synchronous result events, sampling and message reading. This method is triggered from th...">
<polygon fill="white" stroke="black" points="243,-324.5 243,-365.5 428,-365.5 428,-324.5 243,-324.5"/>
<text text-anchor="start" x="251" y="-353.5" font-family="Helvetica,sans-Serif" font-size="10.00">QuantConnect.Lean.Engine.</text>
<text text-anchor="start" x="251" y="-342.5" font-family="Helvetica,sans-Serif" font-size="10.00">Results.BacktestingResultHandler.</text>
<text text-anchor="middle" x="335.5" y="-331.5" font-family="Helvetica,sans-Serif" font-size="10.00">ProcessSynchronousEvents</text>
</a>
</g>
</g>
<!-- Node1&#45;&gt;Node2 -->
<g id="edge1" class="edge">
<title>Node1&#45;&gt;Node2</title>
<path fill="none" stroke="midnightblue" d="M530.1,-224.86C504.11,-245.21 466.72,-273.28 432,-295 415.18,-305.52 395.92,-315.9 379.12,-324.45"/>
<polygon fill="midnightblue" stroke="midnightblue" points="532.44,-227.47 538.13,-218.54 528.11,-221.97 532.44,-227.47"/>
</g>
<!-- Node4 -->
<g id="node4" class="node">
<title>Node4</title>
<g id="a_node4"><a xlink:href="classQuantConnect_1_1Lean_1_1Engine_1_1Results_1_1LiveTradingResultHandler.html#ab93e70238aae83c7d570c57f41afb711" target="_top" xlink:title="Process the synchronous result events, sampling and message reading. This method is triggered from th...">
<polygon fill="white" stroke="black" points="244.5,-244.5 244.5,-285.5 426.5,-285.5 426.5,-244.5 244.5,-244.5"/>
<text text-anchor="start" x="252.5" y="-273.5" font-family="Helvetica,sans-Serif" font-size="10.00">QuantConnect.Lean.Engine.</text>
<text text-anchor="start" x="252.5" y="-262.5" font-family="Helvetica,sans-Serif" font-size="10.00">Results.LiveTradingResultHandler.</text>
<text text-anchor="middle" x="335.5" y="-251.5" font-family="Helvetica,sans-Serif" font-size="10.00">ProcessSynchronousEvents</text>
</a>
</g>
</g>
<!-- Node1&#45;&gt;Node4 -->
<g id="edge3" class="edge">
<title>Node1&#45;&gt;Node4</title>
<path fill="none" stroke="midnightblue" d="M484.22,-221.4C458.75,-228.92 430.74,-237.19 406.02,-244.48"/>
<polygon fill="midnightblue" stroke="midnightblue" points="485.25,-224.75 493.85,-218.56 483.27,-218.03 485.25,-224.75"/>
</g>
<!-- Node6 -->
<g id="node6" class="node">
<title>Node6</title>
<g id="a_node6"><a xlink:href="classQuantConnect_1_1Lean_1_1Engine_1_1Results_1_1BaseResultsHandler.html#aa2e1ad39cc891714b6d3bb5da14b7afa" target="_top" xlink:title="Samples portfolio equity, benchmark, and daily performance Called by scheduled event every night at m...">
<polygon fill="white" stroke="black" points="239,-156 239,-186 432,-186 432,-156 239,-156"/>
<text text-anchor="start" x="247" y="-174" font-family="Helvetica,sans-Serif" font-size="10.00">QuantConnect.Lean.Engine.</text>
<text text-anchor="middle" x="335.5" y="-163" font-family="Helvetica,sans-Serif" font-size="10.00">Results.BaseResultsHandler.Sample</text>
</a>
</g>
</g>
<!-- Node1&#45;&gt;Node6 -->
<g id="edge5" class="edge">
<title>Node1&#45;&gt;Node6</title>
<path fill="none" stroke="midnightblue" d="M457.82,-178.69C449.21,-177.64 440.53,-176.63 432,-175.69"/>
<polygon fill="midnightblue" stroke="midnightblue" points="457.53,-182.19 467.89,-179.95 458.4,-175.24 457.53,-182.19"/>
</g>
<!-- Node3 -->
<g id="node3" class="node">
<title>Node3</title>
<g id="a_node3"><a xlink:href="classQuantConnect_1_1Lean_1_1Engine_1_1Results_1_1BacktestingResultHandler.html#a9e84a017be2f946f4c63bfab39c3a4a1" target="_top" xlink:title="Terminate the result thread and apply any required exit procedures like sending final results.">
<polygon fill="white" stroke="black" points="0,-350 0,-380 203,-380 203,-350 0,-350"/>
<text text-anchor="start" x="8" y="-368" font-family="Helvetica,sans-Serif" font-size="10.00">QuantConnect.Lean.Engine.</text>
<text text-anchor="middle" x="101.5" y="-357" font-family="Helvetica,sans-Serif" font-size="10.00">Results.BacktestingResultHandler.Exit</text>
</a>
</g>
</g>
<!-- Node2&#45;&gt;Node3 -->
<g id="edge2" class="edge">
<title>Node2&#45;&gt;Node3</title>
<path fill="none" stroke="midnightblue" d="M232.64,-353.78C222.83,-354.63 212.88,-355.48 203.08,-356.33"/>
<polygon fill="midnightblue" stroke="midnightblue" points="233.15,-357.25 242.81,-352.9 232.54,-350.28 233.15,-357.25"/>
</g>
<!-- Node5 -->
<g id="node5" class="node">
<title>Node5</title>
<g id="a_node5"><a xlink:href="classQuantConnect_1_1Lean_1_1Engine_1_1Results_1_1LiveTradingResultHandler.html#a1dbddef89eec0b724268ecdaa7c211ff" target="_top" xlink:title="Terminate the result thread and apply any required exit procedures like sending final results">
<polygon fill="white" stroke="black" points="1,-301 1,-331 202,-331 202,-301 1,-301"/>
<text text-anchor="start" x="9" y="-319" font-family="Helvetica,sans-Serif" font-size="10.00">QuantConnect.Lean.Engine.</text>
<text text-anchor="middle" x="101.5" y="-308" font-family="Helvetica,sans-Serif" font-size="10.00">Results.LiveTradingResultHandler.Exit</text>
</a>
</g>
</g>
<!-- Node4&#45;&gt;Node5 -->
<g id="edge4" class="edge">
<title>Node4&#45;&gt;Node5</title>
<path fill="none" stroke="midnightblue" d="M234.65,-286.95C213.14,-291.68 190.88,-296.57 170.89,-300.97"/>
<polygon fill="midnightblue" stroke="midnightblue" points="235.46,-290.36 244.47,-284.79 233.95,-283.52 235.46,-290.36"/>
</g>
<!-- Node6&#45;&gt;Node1 -->
<g id="edge10" class="edge">
<title>Node6&#45;&gt;Node1</title>
<path fill="none" stroke="midnightblue" d="M419.74,-187.43C435.4,-189.53 451.89,-191.53 467.89,-193.3"/>
<polygon fill="midnightblue" stroke="midnightblue" points="419.96,-183.93 409.58,-186.05 419.01,-190.87 419.96,-183.93"/>
</g>
<!-- Node7 -->
<g id="node7" class="node">
<title>Node7</title>
<g id="a_node7"><a xlink:href="classQuantConnect_1_1Lean_1_1Engine_1_1Results_1_1BaseResultsHandler.html#a765a5931719ed6121e36b8bed38945cd" target="_top" xlink:title="Sample the current benchmark performance directly with a time&#45;value pair.">
<polygon fill="white" stroke="black" points="5,-240.5 5,-281.5 198,-281.5 198,-240.5 5,-240.5"/>
<text text-anchor="start" x="13" y="-269.5" font-family="Helvetica,sans-Serif" font-size="10.00">QuantConnect.Lean.Engine.</text>
<text text-anchor="start" x="13" y="-258.5" font-family="Helvetica,sans-Serif" font-size="10.00">Results.BaseResultsHandler.Sample</text>
<text text-anchor="middle" x="101.5" y="-247.5" font-family="Helvetica,sans-Serif" font-size="10.00">Benchmark</text>
</a>
</g>
</g>
<!-- Node6&#45;&gt;Node7 -->
<g id="edge6" class="edge">
<title>Node6&#45;&gt;Node7</title>
<path fill="none" stroke="midnightblue" d="M278.69,-190.2C255.57,-200.38 228.29,-212.51 203,-222 185.27,-228.65 165.36,-234.85 147.97,-240.47"/>
<polygon fill="midnightblue" stroke="midnightblue" points="280.25,-193.33 287.99,-186.11 277.43,-186.93 280.25,-193.33"/>
</g>
<!-- Node8 -->
<g id="node8" class="node">
<title>Node8</title>
<g id="a_node8"><a xlink:href="classQuantConnect_1_1Lean_1_1Engine_1_1Results_1_1BaseResultsHandler.html#ad4341aadd09144100f5b12cd22359740" target="_top" xlink:title="Sample drawdown of equity of the strategy">
<polygon fill="white" stroke="black" points="5,-180.5 5,-221.5 198,-221.5 198,-180.5 5,-180.5"/>
<text text-anchor="start" x="13" y="-209.5" font-family="Helvetica,sans-Serif" font-size="10.00">QuantConnect.Lean.Engine.</text>
<text text-anchor="start" x="13" y="-198.5" font-family="Helvetica,sans-Serif" font-size="10.00">Results.BaseResultsHandler.Sample</text>
<text text-anchor="middle" x="101.5" y="-187.5" font-family="Helvetica,sans-Serif" font-size="10.00">Drawdown</text>
</a>
</g>
</g>
<!-- Node6&#45;&gt;Node8 -->
<g id="edge8" class="edge">
<title>Node6&#45;&gt;Node8</title>
<path fill="none" stroke="midnightblue" d="M228.72,-177.95C218.6,-179.21 208.38,-180.56 198.36,-181.95"/>
<polygon fill="midnightblue" stroke="midnightblue" points="229.3,-181.41 238.8,-176.72 228.45,-174.46 229.3,-181.41"/>
</g>
<!-- Node9 -->
<g id="node9" class="node">
<title>Node9</title>
<g id="a_node9"><a xlink:href="classQuantConnect_1_1Lean_1_1Engine_1_1Results_1_1BaseResultsHandler.html#a467c5ebe0c2b5d4de0741dd6c69c5103" target="_top" xlink:title="Sample the current daily performance directly with a time&#45;value pair.">
<polygon fill="white" stroke="black" points="5,-120.5 5,-161.5 198,-161.5 198,-120.5 5,-120.5"/>
<text text-anchor="start" x="13" y="-149.5" font-family="Helvetica,sans-Serif" font-size="10.00">QuantConnect.Lean.Engine.</text>
<text text-anchor="start" x="13" y="-138.5" font-family="Helvetica,sans-Serif" font-size="10.00">Results.BaseResultsHandler.Sample</text>
<text text-anchor="middle" x="101.5" y="-127.5" font-family="Helvetica,sans-Serif" font-size="10.00">Performance</text>
</a>
</g>
</g>
<!-- Node6&#45;&gt;Node9 -->
<g id="edge11" class="edge">
<title>Node6&#45;&gt;Node9</title>
<path fill="none" stroke="midnightblue" d="M256.51,-154.5C237.77,-151.74 217.54,-149.04 198.1,-146.71"/>
<polygon fill="midnightblue" stroke="midnightblue" points="256.05,-157.97 266.46,-155.99 257.09,-151.05 256.05,-157.97"/>
</g>
<!-- Node10 -->
<g id="node10" class="node">
<title>Node10</title>
<g id="a_node10"><a xlink:href="classQuantConnect_1_1Lean_1_1Engine_1_1Results_1_1BaseResultsHandler.html#a873939086dd92a0f526d55b3c4781765" target="_top" xlink:title="Sample portfolio turn over of the strategy">
<polygon fill="white" stroke="black" points="5,-60.5 5,-101.5 198,-101.5 198,-60.5 5,-60.5"/>
<text text-anchor="start" x="13" y="-89.5" font-family="Helvetica,sans-Serif" font-size="10.00">QuantConnect.Lean.Engine.</text>
<text text-anchor="start" x="13" y="-78.5" font-family="Helvetica,sans-Serif" font-size="10.00">Results.BaseResultsHandler.Sample</text>
<text text-anchor="middle" x="101.5" y="-67.5" font-family="Helvetica,sans-Serif" font-size="10.00">PortfolioTurnover</text>
</a>
</g>
</g>
<!-- Node6&#45;&gt;Node10 -->
<g id="edge13" class="edge">
<title>Node6&#45;&gt;Node10</title>
<path fill="none" stroke="midnightblue" d="M307.93,-150.69C281.68,-135.6 240.2,-115.96 203,-102 201.38,-101.39 199.74,-100.79 198.09,-100.19"/>
<polygon fill="midnightblue" stroke="midnightblue" points="306.16,-153.71 316.54,-155.82 309.74,-147.7 306.16,-153.71"/>
</g>
<!-- Node11 -->
<g id="node11" class="node">
<title>Node11</title>
<g id="a_node11"><a xlink:href="classQuantConnect_1_1Lean_1_1Engine_1_1Results_1_1BaseResultsHandler.html#a1f0c128ff05275d192e04c8941e2b8c2" target="_top" xlink:title="Sample assets sales volume">
<polygon fill="white" stroke="black" points="5,-0.5 5,-41.5 198,-41.5 198,-0.5 5,-0.5"/>
<text text-anchor="start" x="13" y="-29.5" font-family="Helvetica,sans-Serif" font-size="10.00">QuantConnect.Lean.Engine.</text>
<text text-anchor="start" x="13" y="-18.5" font-family="Helvetica,sans-Serif" font-size="10.00">Results.BaseResultsHandler.Sample</text>
<text text-anchor="middle" x="101.5" y="-7.5" font-family="Helvetica,sans-Serif" font-size="10.00">SalesVolume</text>
</a>
</g>
</g>
<!-- Node6&#45;&gt;Node11 -->
<g id="edge15" class="edge">
<title>Node6&#45;&gt;Node11</title>
<path fill="none" stroke="midnightblue" d="M319.88,-147.53C297.39,-118.26 251.76,-69.59 203,-42 201.42,-41.1 199.8,-40.23 198.16,-39.38"/>
<polygon fill="midnightblue" stroke="midnightblue" points="317.34,-149.98 326.1,-155.95 322.97,-145.82 317.34,-149.98"/>
</g>
<!-- Node7&#45;&gt;Node6 -->
<g id="edge7" class="edge">
<title>Node7&#45;&gt;Node6</title>
<path fill="none" stroke="midnightblue" d="M207.62,-238.17C250.9,-221.32 293.24,-200.62 316.54,-186.18"/>
<polygon fill="midnightblue" stroke="midnightblue" points="206.18,-234.97 198.09,-241.81 208.68,-241.51 206.18,-234.97"/>
</g>
<!-- Node8&#45;&gt;Node6 -->
<g id="edge9" class="edge">
<title>Node8&#45;&gt;Node6</title>
<path fill="none" stroke="midnightblue" d="M208.1,-194.07C227.93,-191.6 248.16,-188.81 266.46,-186.01"/>
<polygon fill="midnightblue" stroke="midnightblue" points="207.6,-190.61 198.1,-195.29 208.45,-197.55 207.6,-190.61"/>
</g>
<!-- Node9&#45;&gt;Node6 -->
<g id="edge12" class="edge">
<title>Node9&#45;&gt;Node6</title>
<path fill="none" stroke="midnightblue" d="M208.43,-161.43C218.56,-162.78 228.78,-164.08 238.8,-165.28"/>
<polygon fill="midnightblue" stroke="midnightblue" points="208.74,-157.93 198.36,-160.05 207.79,-164.87 208.74,-157.93"/>
</g>
<!-- Node10&#45;&gt;Node6 -->
<g id="edge14" class="edge">
<title>Node10&#45;&gt;Node6</title>
<path fill="none" stroke="midnightblue" d="M157.56,-104.61C172.45,-109.39 188.46,-114.54 203,-120 231.78,-130.8 263.13,-145.01 287.99,-155.89"/>
<polygon fill="midnightblue" stroke="midnightblue" points="158.56,-101.26 147.97,-101.53 156.42,-107.92 158.56,-101.26"/>
</g>
<!-- Node11&#45;&gt;Node6 -->
<g id="edge16" class="edge">
<title>Node11&#45;&gt;Node6</title>
<path fill="none" stroke="midnightblue" d="M168.13,-44.77C180.13,-48.95 192.25,-53.92 203,-60 249.54,-86.33 293.23,-131.88 316.67,-155.86"/>
<polygon fill="midnightblue" stroke="midnightblue" points="169.16,-41.42 158.56,-41.57 166.94,-48.06 169.16,-41.42"/>
</g>
</g>
</svg>
