<?xml version="1.0" encoding="UTF-8" standalone="no"?>
<!DOCTYPE svg PUBLIC "-//W3C//DTD SVG 1.1//EN"
 "http://www.w3.org/Graphics/SVG/1.1/DTD/svg11.dtd">
<!-- Generated by graphviz version 2.43.0 (0)
 -->
<!-- Title: QuantConnect.Securities.SecurityTransactionManager.ProcessRequest Pages: 1 -->
<svg width="1438pt" height="382pt"
 viewBox="0.00 0.00 1438.00 382.00" xmlns="http://www.w3.org/2000/svg" xmlns:xlink="http://www.w3.org/1999/xlink">
<g id="graph0" class="graph" transform="scale(1 1) rotate(0) translate(4 378)">
<title>QuantConnect.Securities.SecurityTransactionManager.ProcessRequest</title>
<polygon fill="white" stroke="transparent" points="-4,4 -4,-378 1434,-378 1434,4 -4,4"/>
<!-- Node1 -->
<g id="node1" class="node">
<title>Node1</title>
<g id="a_node1"><a xlink:title="Processes the order request">
<polygon fill="#bfbfbf" stroke="black" points="1236,-165 1236,-206 1430,-206 1430,-165 1236,-165"/>
<text text-anchor="start" x="1244" y="-194" font-family="Helvetica,sans-Serif" font-size="10.00">QuantConnect.Securities.</text>
<text text-anchor="start" x="1244" y="-183" font-family="Helvetica,sans-Serif" font-size="10.00">SecurityTransactionManager.Process</text>
<text text-anchor="middle" x="1333" y="-172" font-family="Helvetica,sans-Serif" font-size="10.00">Request</text>
</a>
</g>
</g>
<!-- Node2 -->
<g id="node2" class="node">
<title>Node2</title>
<g id="a_node2"><a xlink:href="classQuantConnect_1_1Brokerages_1_1Backtesting_1_1BacktestingBrokerage.html#af8f801286c06bce474c9ca1aaf7c8141" target="_top" xlink:title="This method is called by market simulator in order to launch an assignment event">
<polygon fill="white" stroke="black" points="994,-245 994,-286 1182,-286 1182,-245 994,-245"/>
<text text-anchor="start" x="1002" y="-274" font-family="Helvetica,sans-Serif" font-size="10.00">QuantConnect.Brokerages.</text>
<text text-anchor="start" x="1002" y="-263" font-family="Helvetica,sans-Serif" font-size="10.00">Backtesting.BacktestingBrokerage.</text>
<text text-anchor="middle" x="1088" y="-252" font-family="Helvetica,sans-Serif" font-size="10.00">ActivateOptionAssignment</text>
</a>
</g>
</g>
<!-- Node1&#45;&gt;Node2 -->
<g id="edge1" class="edge">
<title>Node1&#45;&gt;Node2</title>
<path fill="none" stroke="midnightblue" d="M1271.94,-209.67C1249.54,-218.31 1223.77,-227.81 1200,-235.5 1189.93,-238.76 1179.28,-241.95 1168.71,-244.97"/>
<polygon fill="midnightblue" stroke="midnightblue" points="1273.27,-212.91 1281.33,-206.03 1270.74,-206.39 1273.27,-212.91"/>
</g>
<!-- Node3 -->
<g id="node3" class="node">
<title>Node3</title>
<g id="a_node3"><a xlink:href="classQuantConnect_1_1Securities_1_1SecurityTransactionManager.html#a1be0501e49d4cce848dcc123183fed8f" target="_top" xlink:title="Add an order to collection and return the unique order id or negative if an error.">
<polygon fill="white" stroke="black" points="986.5,-195.5 986.5,-225.5 1189.5,-225.5 1189.5,-195.5 986.5,-195.5"/>
<text text-anchor="start" x="994.5" y="-213.5" font-family="Helvetica,sans-Serif" font-size="10.00">QuantConnect.Securities.</text>
<text text-anchor="middle" x="1088" y="-202.5" font-family="Helvetica,sans-Serif" font-size="10.00">SecurityTransactionManager.AddOrder</text>
</a>
</g>
</g>
<!-- Node1&#45;&gt;Node3 -->
<g id="edge2" class="edge">
<title>Node1&#45;&gt;Node3</title>
<path fill="none" stroke="midnightblue" d="M1225.88,-196.42C1213.81,-197.66 1201.53,-198.92 1189.53,-200.16"/>
<polygon fill="midnightblue" stroke="midnightblue" points="1226.37,-199.89 1235.96,-195.38 1225.65,-192.92 1226.37,-199.89"/>
</g>
<!-- Node14 -->
<g id="node14" class="node">
<title>Node14</title>
<g id="a_node14"><a xlink:href="classQuantConnect_1_1Securities_1_1SecurityTransactionManager.html#a6fe591d16ed8ad4a34c018ddcf8111b1" target="_top" xlink:title="Remove this order from outstanding queue: user is requesting a cancel.">
<polygon fill="white" stroke="black" points="976,-146.5 976,-176.5 1200,-176.5 1200,-146.5 976,-146.5"/>
<text text-anchor="start" x="984" y="-164.5" font-family="Helvetica,sans-Serif" font-size="10.00">QuantConnect.Securities.</text>
<text text-anchor="middle" x="1088" y="-153.5" font-family="Helvetica,sans-Serif" font-size="10.00">SecurityTransactionManager.RemoveOrder</text>
</a>
</g>
</g>
<!-- Node1&#45;&gt;Node14 -->
<g id="edge13" class="edge">
<title>Node1&#45;&gt;Node14</title>
<path fill="none" stroke="midnightblue" d="M1225.93,-175.02C1217.33,-174.17 1208.63,-173.32 1200.01,-172.46"/>
<polygon fill="midnightblue" stroke="midnightblue" points="1225.66,-178.51 1235.96,-176.01 1226.35,-171.55 1225.66,-178.51"/>
</g>
<!-- Node19 -->
<g id="node19" class="node">
<title>Node19</title>
<g id="a_node19"><a xlink:href="classQuantConnect_1_1Securities_1_1SecurityTransactionManager.html#aaa9a95fc5ae2949cedfb01f542264308" target="_top" xlink:title="Update an order yet to be filled such as stop or limit orders.">
<polygon fill="white" stroke="black" points="978.5,-97.5 978.5,-127.5 1197.5,-127.5 1197.5,-97.5 978.5,-97.5"/>
<text text-anchor="start" x="986.5" y="-115.5" font-family="Helvetica,sans-Serif" font-size="10.00">QuantConnect.Securities.</text>
<text text-anchor="middle" x="1088" y="-104.5" font-family="Helvetica,sans-Serif" font-size="10.00">SecurityTransactionManager.UpdateOrder</text>
</a>
</g>
</g>
<!-- Node1&#45;&gt;Node19 -->
<g id="edge18" class="edge">
<title>Node1&#45;&gt;Node19</title>
<path fill="none" stroke="midnightblue" d="M1270.58,-161.33C1248.53,-153.14 1223.34,-144.34 1200,-137.5 1187.77,-133.92 1174.66,-130.55 1161.89,-127.52"/>
<polygon fill="midnightblue" stroke="midnightblue" points="1269.56,-164.68 1280.15,-164.92 1272.02,-158.13 1269.56,-164.68"/>
</g>
<!-- Node4 -->
<g id="node4" class="node">
<title>Node4</title>
<g id="a_node4"><a xlink:href="classQuantConnect_1_1Securities_1_1DefaultMarginCallModel.html#a7c489c9899a3685a318889925b306812" target="_top" xlink:title="Executes synchronous orders to bring the account within margin requirements.">
<polygon fill="white" stroke="black" points="743.5,-270 743.5,-311 919.5,-311 919.5,-270 743.5,-270"/>
<text text-anchor="start" x="751.5" y="-299" font-family="Helvetica,sans-Serif" font-size="10.00">QuantConnect.Securities.</text>
<text text-anchor="start" x="751.5" y="-288" font-family="Helvetica,sans-Serif" font-size="10.00">DefaultMarginCallModel.Execute</text>
<text text-anchor="middle" x="831.5" y="-277" font-family="Helvetica,sans-Serif" font-size="10.00">MarginCall</text>
</a>
</g>
</g>
<!-- Node3&#45;&gt;Node4 -->
<g id="edge3" class="edge">
<title>Node3&#45;&gt;Node4</title>
<path fill="none" stroke="midnightblue" d="M993.96,-228.62C987.8,-230.68 981.76,-232.97 976,-235.5 958.17,-243.34 957.63,-252.21 940,-260.5 932.64,-263.96 924.79,-267.1 916.83,-269.92"/>
<polygon fill="midnightblue" stroke="midnightblue" points="995.24,-231.88 1003.73,-225.55 993.14,-225.2 995.24,-231.88"/>
</g>
<!-- Node5 -->
<g id="node5" class="node">
<title>Node5</title>
<g id="a_node5"><a xlink:href="classQuantConnect_1_1Algorithm_1_1QCAlgorithm.html#a11352466438b0832f09b224722815e72" target="_top" xlink:title="Send an exercise order to the transaction handler">
<polygon fill="white" stroke="black" points="729,-220.5 729,-250.5 934,-250.5 934,-220.5 729,-220.5"/>
<text text-anchor="start" x="737" y="-238.5" font-family="Helvetica,sans-Serif" font-size="10.00">QuantConnect.Algorithm.QCAlgorithm.</text>
<text text-anchor="middle" x="831.5" y="-227.5" font-family="Helvetica,sans-Serif" font-size="10.00">ExerciseOption</text>
</a>
</g>
</g>
<!-- Node3&#45;&gt;Node5 -->
<g id="edge4" class="edge">
<title>Node3&#45;&gt;Node5</title>
<path fill="none" stroke="midnightblue" d="M976.25,-221.38C962.21,-222.76 947.91,-224.16 934.02,-225.53"/>
<polygon fill="midnightblue" stroke="midnightblue" points="976.8,-224.84 986.41,-220.38 976.12,-217.88 976.8,-224.84"/>
</g>
<!-- Node6 -->
<g id="node6" class="node">
<title>Node6</title>
<g id="a_node6"><a xlink:href="classQuantConnect_1_1Algorithm_1_1QCAlgorithm.html#aed520bc1af3bc057b69377969069d14a" target="_top" xlink:title="Will submit an order request to the algorithm">
<polygon fill="white" stroke="black" points="729,-171.5 729,-201.5 934,-201.5 934,-171.5 729,-171.5"/>
<text text-anchor="start" x="737" y="-189.5" font-family="Helvetica,sans-Serif" font-size="10.00">QuantConnect.Algorithm.QCAlgorithm.</text>
<text text-anchor="middle" x="831.5" y="-178.5" font-family="Helvetica,sans-Serif" font-size="10.00">SubmitOrderRequest</text>
</a>
</g>
</g>
<!-- Node3&#45;&gt;Node6 -->
<g id="edge5" class="edge">
<title>Node3&#45;&gt;Node6</title>
<path fill="none" stroke="midnightblue" d="M976.25,-200.06C962.21,-198.73 947.91,-197.38 934.02,-196.07"/>
<polygon fill="midnightblue" stroke="midnightblue" points="976.13,-203.56 986.41,-201.01 976.79,-196.59 976.13,-203.56"/>
</g>
<!-- Node7 -->
<g id="node7" class="node">
<title>Node7</title>
<g id="a_node7"><a xlink:href="classQuantConnect_1_1Algorithm_1_1QCAlgorithm.html#ad9a268098626dd7a455072aa7e78663b" target="_top" xlink:title="Send a limit if touched order to the transaction handler:">
<polygon fill="white" stroke="black" points="482,-343.5 482,-373.5 687,-373.5 687,-343.5 482,-343.5"/>
<text text-anchor="start" x="490" y="-361.5" font-family="Helvetica,sans-Serif" font-size="10.00">QuantConnect.Algorithm.QCAlgorithm.</text>
<text text-anchor="middle" x="584.5" y="-350.5" font-family="Helvetica,sans-Serif" font-size="10.00">LimitIfTouchedOrder</text>
</a>
</g>
</g>
<!-- Node6&#45;&gt;Node7 -->
<g id="edge6" class="edge">
<title>Node6&#45;&gt;Node7</title>
<path fill="none" stroke="midnightblue" d="M727.73,-207.43C726.09,-208.71 724.51,-210.07 723,-211.5 681.61,-250.63 728.32,-295.3 687,-334.5 683.45,-337.87 679.53,-340.79 675.34,-343.32"/>
<polygon fill="midnightblue" stroke="midnightblue" points="730.03,-210.11 736.35,-201.61 726.11,-204.31 730.03,-210.11"/>
</g>
<!-- Node8 -->
<g id="node8" class="node">
<title>Node8</title>
<g id="a_node8"><a xlink:href="classQuantConnect_1_1Algorithm_1_1QCAlgorithm.html#a5e12bb6fbf89897332248876072a32ad" target="_top" xlink:title="Send a limit order to the transaction handler:">
<polygon fill="white" stroke="black" points="482,-294.5 482,-324.5 687,-324.5 687,-294.5 482,-294.5"/>
<text text-anchor="start" x="490" y="-312.5" font-family="Helvetica,sans-Serif" font-size="10.00">QuantConnect.Algorithm.QCAlgorithm.</text>
<text text-anchor="middle" x="584.5" y="-301.5" font-family="Helvetica,sans-Serif" font-size="10.00">LimitOrder</text>
</a>
</g>
</g>
<!-- Node6&#45;&gt;Node8 -->
<g id="edge7" class="edge">
<title>Node6&#45;&gt;Node8</title>
<path fill="none" stroke="midnightblue" d="M730.15,-206.42C727.67,-207.99 725.28,-209.68 723,-211.5 694.41,-234.31 715.55,-262.64 687,-285.5 682.76,-288.9 678.12,-291.82 673.23,-294.35"/>
<polygon fill="midnightblue" stroke="midnightblue" points="731.88,-209.46 738.89,-201.51 728.46,-203.35 731.88,-209.46"/>
</g>
<!-- Node9 -->
<g id="node9" class="node">
<title>Node9</title>
<g id="a_node9"><a xlink:href="classQuantConnect_1_1Algorithm_1_1QCAlgorithm.html#aec7219e6a4c77563371aba6b39407d9a" target="_top" xlink:title="Market on close order implementation: Send a market order when the exchange closes">
<polygon fill="white" stroke="black" points="482,-245.5 482,-275.5 687,-275.5 687,-245.5 482,-245.5"/>
<text text-anchor="start" x="490" y="-263.5" font-family="Helvetica,sans-Serif" font-size="10.00">QuantConnect.Algorithm.QCAlgorithm.</text>
<text text-anchor="middle" x="584.5" y="-252.5" font-family="Helvetica,sans-Serif" font-size="10.00">MarketOnCloseOrder</text>
</a>
</g>
</g>
<!-- Node6&#45;&gt;Node9 -->
<g id="edge8" class="edge">
<title>Node6&#45;&gt;Node9</title>
<path fill="none" stroke="midnightblue" d="M740.76,-204.62C734.67,-206.69 728.69,-208.97 723,-211.5 705.2,-219.4 704.79,-228.56 687,-236.5 679.31,-239.93 671.07,-242.91 662.72,-245.48"/>
<polygon fill="midnightblue" stroke="midnightblue" points="741.96,-207.91 750.43,-201.55 739.84,-201.24 741.96,-207.91"/>
</g>
<!-- Node10 -->
<g id="node10" class="node">
<title>Node10</title>
<g id="a_node10"><a xlink:href="classQuantConnect_1_1Algorithm_1_1QCAlgorithm.html#a9db2f04661a682232fcaff5cfdb6470e" target="_top" xlink:title="Market on open order implementation: Send a market order when the exchange opens">
<polygon fill="white" stroke="black" points="482,-196.5 482,-226.5 687,-226.5 687,-196.5 482,-196.5"/>
<text text-anchor="start" x="490" y="-214.5" font-family="Helvetica,sans-Serif" font-size="10.00">QuantConnect.Algorithm.QCAlgorithm.</text>
<text text-anchor="middle" x="584.5" y="-203.5" font-family="Helvetica,sans-Serif" font-size="10.00">MarketOnOpenOrder</text>
</a>
</g>
</g>
<!-- Node6&#45;&gt;Node10 -->
<g id="edge9" class="edge">
<title>Node6&#45;&gt;Node10</title>
<path fill="none" stroke="midnightblue" d="M718.74,-197.9C708.28,-198.97 697.71,-200.05 687.35,-201.11"/>
<polygon fill="midnightblue" stroke="midnightblue" points="719.13,-201.38 728.73,-196.89 718.42,-194.42 719.13,-201.38"/>
</g>
<!-- Node11 -->
<g id="node11" class="node">
<title>Node11</title>
<g id="a_node11"><a xlink:href="classQuantConnect_1_1Algorithm_1_1QCAlgorithm.html#a741fed77f0c320fdec734f00457634f4" target="_top" xlink:title="Market order implementation: Send a market order and wait for it to be filled.">
<polygon fill="white" stroke="black" points="482,-147.5 482,-177.5 687,-177.5 687,-147.5 482,-147.5"/>
<text text-anchor="start" x="490" y="-165.5" font-family="Helvetica,sans-Serif" font-size="10.00">QuantConnect.Algorithm.QCAlgorithm.</text>
<text text-anchor="middle" x="584.5" y="-154.5" font-family="Helvetica,sans-Serif" font-size="10.00">MarketOrder</text>
</a>
</g>
</g>
<!-- Node6&#45;&gt;Node11 -->
<g id="edge10" class="edge">
<title>Node6&#45;&gt;Node11</title>
<path fill="none" stroke="midnightblue" d="M718.74,-175.55C708.28,-174.53 697.71,-173.49 687.35,-172.48"/>
<polygon fill="midnightblue" stroke="midnightblue" points="718.43,-179.04 728.73,-176.53 719.12,-172.07 718.43,-179.04"/>
</g>
<!-- Node12 -->
<g id="node12" class="node">
<title>Node12</title>
<g id="a_node12"><a xlink:href="classQuantConnect_1_1Algorithm_1_1QCAlgorithm.html#a4bcd1aed562ce3d533646b4c8c1b29c7" target="_top" xlink:title="Send a stop limit order to the transaction handler:">
<polygon fill="white" stroke="black" points="482,-98.5 482,-128.5 687,-128.5 687,-98.5 482,-98.5"/>
<text text-anchor="start" x="490" y="-116.5" font-family="Helvetica,sans-Serif" font-size="10.00">QuantConnect.Algorithm.QCAlgorithm.</text>
<text text-anchor="middle" x="584.5" y="-105.5" font-family="Helvetica,sans-Serif" font-size="10.00">StopLimitOrder</text>
</a>
</g>
</g>
<!-- Node6&#45;&gt;Node12 -->
<g id="edge11" class="edge">
<title>Node6&#45;&gt;Node12</title>
<path fill="none" stroke="midnightblue" d="M778.72,-168.05C751.58,-158.66 717.67,-147.39 687,-138.5 675.06,-135.04 662.24,-131.64 649.87,-128.52"/>
<polygon fill="midnightblue" stroke="midnightblue" points="777.81,-171.44 788.4,-171.41 780.1,-164.82 777.81,-171.44"/>
</g>
<!-- Node13 -->
<g id="node13" class="node">
<title>Node13</title>
<g id="a_node13"><a xlink:href="classQuantConnect_1_1Algorithm_1_1QCAlgorithm.html#a73c0b5f7aeb41f314ab8cc674c75beff" target="_top" xlink:title="Create a stop market order and return the newly created order id; or negative if the order is invalid">
<polygon fill="white" stroke="black" points="482,-49.5 482,-79.5 687,-79.5 687,-49.5 482,-49.5"/>
<text text-anchor="start" x="490" y="-67.5" font-family="Helvetica,sans-Serif" font-size="10.00">QuantConnect.Algorithm.QCAlgorithm.</text>
<text text-anchor="middle" x="584.5" y="-56.5" font-family="Helvetica,sans-Serif" font-size="10.00">StopMarketOrder</text>
</a>
</g>
</g>
<!-- Node6&#45;&gt;Node13 -->
<g id="edge12" class="edge">
<title>Node6&#45;&gt;Node13</title>
<path fill="none" stroke="midnightblue" d="M799.95,-165.76C758.28,-137.47 688.54,-90.18 687,-89.5 678.38,-85.67 669.07,-82.36 659.71,-79.53"/>
<polygon fill="midnightblue" stroke="midnightblue" points="798.15,-168.76 808.39,-171.48 802.08,-162.97 798.15,-168.76"/>
</g>
<!-- Node15 -->
<g id="node15" class="node">
<title>Node15</title>
<g id="a_node15"><a xlink:href="classQuantConnect_1_1Securities_1_1SecurityTransactionManager.html#a55a9fd6793fffa2a3b897bb3e72d6674" target="_top" xlink:title="Added alias for RemoveOrder &#45;">
<polygon fill="white" stroke="black" points="723,-73.5 723,-103.5 940,-103.5 940,-73.5 723,-73.5"/>
<text text-anchor="start" x="731" y="-91.5" font-family="Helvetica,sans-Serif" font-size="10.00">QuantConnect.Securities.</text>
<text text-anchor="middle" x="831.5" y="-80.5" font-family="Helvetica,sans-Serif" font-size="10.00">SecurityTransactionManager.CancelOrder</text>
</a>
</g>
</g>
<!-- Node14&#45;&gt;Node15 -->
<g id="edge14" class="edge">
<title>Node14&#45;&gt;Node15</title>
<path fill="none" stroke="midnightblue" d="M1001.88,-144.15C993.11,-142.05 984.35,-139.82 976,-137.5 940.62,-127.67 901.18,-114 872.62,-103.6"/>
<polygon fill="midnightblue" stroke="midnightblue" points="1001.24,-147.6 1011.78,-146.47 1002.84,-140.78 1001.24,-147.6"/>
</g>
<!-- Node16 -->
<g id="node16" class="node">
<title>Node16</title>
<g id="a_node16"><a xlink:href="classQuantConnect_1_1Algorithm_1_1QCAlgorithm.html#a508fd4e5eb28d4280af51f647994d6ee" target="_top" xlink:title="Liquidate all holdings and cancel open orders. Called at the end of day for tick&#45;strategies.">
<polygon fill="white" stroke="black" points="482,-0.5 482,-30.5 687,-30.5 687,-0.5 482,-0.5"/>
<text text-anchor="start" x="490" y="-18.5" font-family="Helvetica,sans-Serif" font-size="10.00">QuantConnect.Algorithm.QCAlgorithm.</text>
<text text-anchor="middle" x="584.5" y="-7.5" font-family="Helvetica,sans-Serif" font-size="10.00">Liquidate</text>
</a>
</g>
</g>
<!-- Node15&#45;&gt;Node16 -->
<g id="edge15" class="edge">
<title>Node15&#45;&gt;Node16</title>
<path fill="none" stroke="midnightblue" d="M779.98,-69.91C752.65,-60.2 718.2,-48.49 687,-39.5 676.13,-36.37 664.51,-33.33 653.17,-30.53"/>
<polygon fill="midnightblue" stroke="midnightblue" points="779.11,-73.32 789.7,-73.39 781.46,-66.73 779.11,-73.32"/>
</g>
<!-- Node17 -->
<g id="node17" class="node">
<title>Node17</title>
<g id="a_node17"><a xlink:href="classQuantConnect_1_1Algorithm_1_1QCAlgorithm.html#a6ece1896dff33aafccfb1707a83a77c3" target="_top" xlink:title="Removes the security with the specified symbol. This will cancel all open orders and then liquidate a...">
<polygon fill="white" stroke="black" points="241,-0.5 241,-30.5 446,-30.5 446,-0.5 241,-0.5"/>
<text text-anchor="start" x="249" y="-18.5" font-family="Helvetica,sans-Serif" font-size="10.00">QuantConnect.Algorithm.QCAlgorithm.</text>
<text text-anchor="middle" x="343.5" y="-7.5" font-family="Helvetica,sans-Serif" font-size="10.00">RemoveSecurity</text>
</a>
</g>
</g>
<!-- Node16&#45;&gt;Node17 -->
<g id="edge16" class="edge">
<title>Node16&#45;&gt;Node17</title>
<path fill="none" stroke="midnightblue" d="M471.78,-15.5C463.22,-15.5 454.6,-15.5 446.11,-15.5"/>
<polygon fill="midnightblue" stroke="midnightblue" points="471.8,-19 481.8,-15.5 471.8,-12 471.8,-19"/>
</g>
<!-- Node18 -->
<g id="node18" class="node">
<title>Node18</title>
<g id="a_node18"><a xlink:href="classQuantConnect_1_1Algorithm_1_1QCAlgorithm.html#aaa03fad6a4f4df5db3a0273d94df6436" target="_top" xlink:title="Removes the security with the specified symbol. This will cancel all open orders and then liquidate a...">
<polygon fill="white" stroke="black" points="0,-0.5 0,-30.5 205,-30.5 205,-0.5 0,-0.5"/>
<text text-anchor="start" x="8" y="-18.5" font-family="Helvetica,sans-Serif" font-size="10.00">QuantConnect.Algorithm.QCAlgorithm.</text>
<text text-anchor="middle" x="102.5" y="-7.5" font-family="Helvetica,sans-Serif" font-size="10.00">RemoveOptionContract</text>
</a>
</g>
</g>
<!-- Node17&#45;&gt;Node18 -->
<g id="edge17" class="edge">
<title>Node17&#45;&gt;Node18</title>
<path fill="none" stroke="midnightblue" d="M230.78,-15.5C222.22,-15.5 213.6,-15.5 205.11,-15.5"/>
<polygon fill="midnightblue" stroke="midnightblue" points="230.8,-19 240.8,-15.5 230.8,-12 230.8,-19"/>
</g>
</g>
</svg>
