<?xml version="1.0" encoding="UTF-8" standalone="no"?>
<!DOCTYPE svg PUBLIC "-//W3C//DTD SVG 1.1//EN"
 "http://www.w3.org/Graphics/SVG/1.1/DTD/svg11.dtd">
<!-- Generated by graphviz version 2.43.0 (0)
 -->
<!-- Title: QuantConnect.SymbolRepresentation.ParseFutureSymbol Pages: 1 -->
<svg width="1632pt" height="752pt"
 viewBox="0.00 0.00 1632.00 751.50" xmlns="http://www.w3.org/2000/svg" xmlns:xlink="http://www.w3.org/1999/xlink">
<g id="graph0" class="graph" transform="scale(1 1) rotate(0) translate(4 747.5)">
<title>QuantConnect.SymbolRepresentation.ParseFutureSymbol</title>
<polygon fill="white" stroke="transparent" points="-4,4 -4,-747.5 1628,-747.5 1628,4 -4,4"/>
<!-- Node1 -->
<g id="node1" class="node">
<title>Node1</title>
<g id="a_node1"><a xlink:title="Helper method to parse and generate a future symbol from a given user friendly representation">
<polygon fill="#bfbfbf" stroke="black" points="0,-176 0,-206 203,-206 203,-176 0,-176"/>
<text text-anchor="start" x="8" y="-194" font-family="Helvetica,sans-Serif" font-size="10.00">QuantConnect.SymbolRepresentation.</text>
<text text-anchor="middle" x="101.5" y="-183" font-family="Helvetica,sans-Serif" font-size="10.00">ParseFutureSymbol</text>
</a>
</g>
</g>
<!-- Node2 -->
<g id="node2" class="node">
<title>Node2</title>
<g id="a_node2"><a xlink:href="classQuantConnect_1_1Symbol.html#a350b9a625cf7bad95da82894be3cd0a8" target="_top" xlink:title="Provides a convenience method for creating a Symbol for most security types. This method currently do...">
<polygon fill="white" stroke="black" points="260,-500.5 260,-519.5 421,-519.5 421,-500.5 260,-500.5"/>
<text text-anchor="middle" x="340.5" y="-507.5" font-family="Helvetica,sans-Serif" font-size="10.00">QuantConnect.Symbol.Create</text>
</a>
</g>
</g>
<!-- Node1&#45;&gt;Node2 -->
<g id="edge1" class="edge">
<title>Node1&#45;&gt;Node2</title>
<path fill="none" stroke="midnightblue" d="M113.93,-206.39C153.43,-259.56 284.06,-435.38 326.24,-492.16"/>
<polygon fill="midnightblue" stroke="midnightblue" points="323.66,-494.55 332.43,-500.49 329.28,-490.37 323.66,-494.55"/>
</g>
<!-- Node17 -->
<g id="node17" class="node">
<title>Node17</title>
<g id="a_node17"><a xlink:href="classQuantConnect_1_1Symbol.html#a484f4a4845d55c491201a7998f0d6ec4" target="_top" xlink:title="Provides a convenience method for creating a future Symbol.">
<polygon fill="white" stroke="black" points="260,-289 260,-319 421,-319 421,-289 260,-289"/>
<text text-anchor="start" x="268" y="-307" font-family="Helvetica,sans-Serif" font-size="10.00">QuantConnect.Symbol.Create</text>
<text text-anchor="middle" x="340.5" y="-296" font-family="Helvetica,sans-Serif" font-size="10.00">Future</text>
</a>
</g>
</g>
<!-- Node1&#45;&gt;Node17 -->
<g id="edge18" class="edge">
<title>Node1&#45;&gt;Node17</title>
<path fill="none" stroke="midnightblue" d="M124.89,-206.13C151.29,-223.5 196.93,-252.03 239,-271 251.01,-276.41 264.17,-281.39 276.91,-285.74"/>
<polygon fill="midnightblue" stroke="midnightblue" points="275.94,-289.1 286.54,-288.94 278.15,-282.46 275.94,-289.1"/>
</g>
<!-- Node18 -->
<g id="node18" class="node">
<title>Node18</title>
<g id="a_node18"><a xlink:href="classQuantConnect_1_1Logging_1_1Log.html#ad908daef9d61532d7d60c9dcfb9a3e0c" target="_top" xlink:title="Output to the console">
<polygon fill="white" stroke="black" points="265.5,-231 265.5,-261 415.5,-261 415.5,-231 265.5,-231"/>
<text text-anchor="start" x="273.5" y="-249" font-family="Helvetica,sans-Serif" font-size="10.00">QuantConnect.Logging.Log.</text>
<text text-anchor="middle" x="340.5" y="-238" font-family="Helvetica,sans-Serif" font-size="10.00">Debug</text>
</a>
</g>
</g>
<!-- Node1&#45;&gt;Node18 -->
<g id="edge22" class="edge">
<title>Node1&#45;&gt;Node18</title>
<path fill="none" stroke="midnightblue" d="M167.26,-206.03C197.44,-213.03 233.51,-221.4 264.83,-228.67"/>
<polygon fill="midnightblue" stroke="midnightblue" points="264.28,-232.14 274.82,-230.99 265.87,-225.32 264.28,-232.14"/>
</g>
<!-- Node20 -->
<g id="node20" class="node">
<title>Node20</title>
<g id="a_node20"><a xlink:href="classQuantConnect_1_1Securities_1_1SymbolPropertiesDatabase.html#aee26fb588793fd311c44eb8b2909cc33" target="_top" xlink:title="Gets the instance of the SymbolPropertiesDatabase class produced by reading in the symbol properties ...">
<polygon fill="white" stroke="black" points="252,-170.5 252,-211.5 429,-211.5 429,-170.5 252,-170.5"/>
<text text-anchor="start" x="260" y="-199.5" font-family="Helvetica,sans-Serif" font-size="10.00">QuantConnect.Securities.</text>
<text text-anchor="start" x="260" y="-188.5" font-family="Helvetica,sans-Serif" font-size="10.00">SymbolPropertiesDatabase.From</text>
<text text-anchor="middle" x="340.5" y="-177.5" font-family="Helvetica,sans-Serif" font-size="10.00">DataFolder</text>
</a>
</g>
</g>
<!-- Node1&#45;&gt;Node20 -->
<g id="edge24" class="edge">
<title>Node1&#45;&gt;Node20</title>
<path fill="none" stroke="midnightblue" d="M203.01,-191C215.85,-191 228.98,-191 241.78,-191"/>
<polygon fill="midnightblue" stroke="midnightblue" points="241.96,-194.5 251.96,-191 241.96,-187.5 241.96,-194.5"/>
</g>
<!-- Node22 -->
<g id="node22" class="node">
<title>Node22</title>
<g id="a_node22"><a xlink:href="classQuantConnect_1_1Securities_1_1Future_1_1FuturesExpiryFunctions.html#a0d6bb7f1fd71689f70b115ccb0f470e0" target="_top" xlink:title="Method to retrieve the Function for a specific future symbol">
<polygon fill="white" stroke="black" points="257,-110.5 257,-151.5 424,-151.5 424,-110.5 257,-110.5"/>
<text text-anchor="start" x="265" y="-139.5" font-family="Helvetica,sans-Serif" font-size="10.00">QuantConnect.Securities.</text>
<text text-anchor="start" x="265" y="-128.5" font-family="Helvetica,sans-Serif" font-size="10.00">Future.FuturesExpiryFunctions.</text>
<text text-anchor="middle" x="340.5" y="-117.5" font-family="Helvetica,sans-Serif" font-size="10.00">FuturesExpiryFunction</text>
</a>
</g>
</g>
<!-- Node1&#45;&gt;Node22 -->
<g id="edge26" class="edge">
<title>Node1&#45;&gt;Node22</title>
<path fill="none" stroke="midnightblue" d="M162,-175.94C188.24,-169.29 219.66,-161.34 248.72,-153.98"/>
<polygon fill="midnightblue" stroke="midnightblue" points="249.64,-157.36 258.48,-151.51 247.93,-150.57 249.64,-157.36"/>
</g>
<!-- Node23 -->
<g id="node23" class="node">
<title>Node23</title>
<g id="a_node23"><a xlink:href="classQuantConnect_1_1SymbolRepresentation.html#a97704117def1a70989e5de3619c933e2" target="_top" xlink:title="Function returns underlying name, expiration year, expiration month, expiration day for the future co...">
<polygon fill="white" stroke="black" points="239,-61 239,-91 442,-91 442,-61 239,-61"/>
<text text-anchor="start" x="247" y="-79" font-family="Helvetica,sans-Serif" font-size="10.00">QuantConnect.SymbolRepresentation.</text>
<text text-anchor="middle" x="340.5" y="-68" font-family="Helvetica,sans-Serif" font-size="10.00">ParseFutureTicker</text>
</a>
</g>
</g>
<!-- Node1&#45;&gt;Node23 -->
<g id="edge27" class="edge">
<title>Node1&#45;&gt;Node23</title>
<path fill="none" stroke="midnightblue" d="M121.19,-175.66C146.43,-155.68 193.51,-120.95 239,-101 244.73,-98.49 250.75,-96.2 256.89,-94.11"/>
<polygon fill="midnightblue" stroke="midnightblue" points="258.14,-97.39 266.6,-91.01 256.01,-90.72 258.14,-97.39"/>
</g>
<!-- Node24 -->
<g id="node24" class="node">
<title>Node24</title>
<g id="a_node24"><a xlink:href="classQuantConnect_1_1Securities_1_1SymbolPropertiesDatabase.html#a5a7baeddd03bfc7fb60cef8ab2e6834b" target="_top" xlink:title="Tries to get the market for the provided symbol/security type">
<polygon fill="white" stroke="black" points="257,-0.5 257,-41.5 424,-41.5 424,-0.5 257,-0.5"/>
<text text-anchor="start" x="265" y="-29.5" font-family="Helvetica,sans-Serif" font-size="10.00">QuantConnect.Securities.</text>
<text text-anchor="start" x="265" y="-18.5" font-family="Helvetica,sans-Serif" font-size="10.00">SymbolPropertiesDatabase.Try</text>
<text text-anchor="middle" x="340.5" y="-7.5" font-family="Helvetica,sans-Serif" font-size="10.00">GetMarket</text>
</a>
</g>
</g>
<!-- Node1&#45;&gt;Node24 -->
<g id="edge28" class="edge">
<title>Node1&#45;&gt;Node24</title>
<path fill="none" stroke="midnightblue" d="M113.05,-175.9C133.83,-147.26 182.94,-84.91 239,-51 242.01,-49.18 245.14,-47.46 248.36,-45.84"/>
<polygon fill="midnightblue" stroke="midnightblue" points="250.02,-48.93 257.61,-41.53 247.06,-42.58 250.02,-48.93"/>
</g>
<!-- Node3 -->
<g id="node3" class="node">
<title>Node3</title>
<g id="a_node3"><a xlink:href="classQuantConnect_1_1Symbol.html#a7518a1932d1babbff128f2ba9666a78b" target="_top" xlink:title="Provides a convenience method for creating an option Symbol.">
<polygon fill="white" stroke="black" points="492,-429 492,-459 653,-459 653,-429 492,-429"/>
<text text-anchor="start" x="500" y="-447" font-family="Helvetica,sans-Serif" font-size="10.00">QuantConnect.Symbol.Create</text>
<text text-anchor="middle" x="572.5" y="-436" font-family="Helvetica,sans-Serif" font-size="10.00">Option</text>
</a>
</g>
</g>
<!-- Node2&#45;&gt;Node3 -->
<g id="edge2" class="edge">
<title>Node2&#45;&gt;Node3</title>
<path fill="none" stroke="midnightblue" d="M374.94,-500.4C409.97,-490.35 465.78,-474.34 509,-461.93"/>
<polygon fill="midnightblue" stroke="midnightblue" points="510.21,-465.23 518.85,-459.11 508.28,-458.5 510.21,-465.23"/>
</g>
<!-- Node4 -->
<g id="node4" class="node">
<title>Node4</title>
<g id="a_node4"><a xlink:href="classQuantConnect_1_1SecurityIdentifier.html#a0c21d7880c9fdd260883d11ea0c99a00" target="_top" xlink:title="Helper overload that will search the mapfiles to resolve the first date. This implementation uses the...">
<polygon fill="white" stroke="black" points="703,-451 703,-481 877,-481 877,-451 703,-451"/>
<text text-anchor="start" x="711" y="-469" font-family="Helvetica,sans-Serif" font-size="10.00">QuantConnect.SecurityIdentifier.</text>
<text text-anchor="middle" x="790" y="-458" font-family="Helvetica,sans-Serif" font-size="10.00">GenerateEquity</text>
</a>
</g>
</g>
<!-- Node2&#45;&gt;Node4 -->
<g id="edge13" class="edge">
<title>Node2&#45;&gt;Node4</title>
<path fill="none" stroke="midnightblue" d="M421.25,-502.16C497.15,-494.7 611.5,-483.45 692.51,-475.49"/>
<polygon fill="midnightblue" stroke="midnightblue" points="693.11,-478.95 702.72,-474.48 692.42,-471.98 693.11,-478.95"/>
</g>
<!-- Node5 -->
<g id="node5" class="node">
<title>Node5</title>
<g id="a_node5"><a xlink:href="classQuantConnect_1_1Symbol.html#a59158f74116be3dad0ea0f3f3f134416" target="_top" xlink:title="Initializes a new instance of the Symbol class">
<polygon fill="white" stroke="black" points="707.5,-346.5 707.5,-365.5 872.5,-365.5 872.5,-346.5 707.5,-346.5"/>
<text text-anchor="middle" x="790" y="-353.5" font-family="Helvetica,sans-Serif" font-size="10.00">QuantConnect.Symbol.Symbol</text>
</a>
</g>
</g>
<!-- Node2&#45;&gt;Node5 -->
<g id="edge17" class="edge">
<title>Node2&#45;&gt;Node5</title>
<path fill="none" stroke="midnightblue" d="M352.69,-500.43C374.97,-481.9 427.13,-441.09 478,-420 478.74,-419.69 643.14,-385.93 732.58,-367.58"/>
<polygon fill="midnightblue" stroke="midnightblue" points="733.49,-370.96 742.58,-365.52 732.08,-364.11 733.49,-370.96"/>
</g>
<!-- Node10 -->
<g id="node10" class="node">
<title>Node10</title>
<g id="a_node10"><a xlink:href="classQuantConnect_1_1SecurityIdentifier.html#a02ca750115844561c001c2346fbafc00" target="_top" xlink:title="Generates a new SecurityIdentifier for a custom security with the option of providing the first date">
<polygon fill="white" stroke="black" points="485.5,-713 485.5,-743 659.5,-743 659.5,-713 485.5,-713"/>
<text text-anchor="start" x="493.5" y="-731" font-family="Helvetica,sans-Serif" font-size="10.00">QuantConnect.SecurityIdentifier.</text>
<text text-anchor="middle" x="572.5" y="-720" font-family="Helvetica,sans-Serif" font-size="10.00">GenerateBase</text>
</a>
</g>
</g>
<!-- Node2&#45;&gt;Node10 -->
<g id="edge9" class="edge">
<title>Node2&#45;&gt;Node10</title>
<path fill="none" stroke="midnightblue" d="M345.46,-519.91C358.82,-552 405.49,-653.91 478,-704 480.17,-705.5 482.43,-706.91 484.76,-708.22"/>
<polygon fill="midnightblue" stroke="midnightblue" points="483.52,-711.52 494.03,-712.89 486.66,-705.27 483.52,-711.52"/>
</g>
<!-- Node12 -->
<g id="node12" class="node">
<title>Node12</title>
<g id="a_node12"><a xlink:href="classQuantConnect_1_1SecurityIdentifier.html#a53953b18d814c5445e4ecdcb3b555080" target="_top" xlink:title="Generates a new SecurityIdentifier for a CFD security">
<polygon fill="white" stroke="black" points="485.5,-664 485.5,-694 659.5,-694 659.5,-664 485.5,-664"/>
<text text-anchor="start" x="493.5" y="-682" font-family="Helvetica,sans-Serif" font-size="10.00">QuantConnect.SecurityIdentifier.</text>
<text text-anchor="middle" x="572.5" y="-671" font-family="Helvetica,sans-Serif" font-size="10.00">GenerateCfd</text>
</a>
</g>
</g>
<!-- Node2&#45;&gt;Node12 -->
<g id="edge11" class="edge">
<title>Node2&#45;&gt;Node12</title>
<path fill="none" stroke="midnightblue" d="M347.57,-519.52C364.67,-545.57 416.08,-618.43 478,-655 480.98,-656.76 484.08,-658.39 487.27,-659.9"/>
<polygon fill="midnightblue" stroke="midnightblue" points="485.89,-663.12 496.46,-663.85 488.66,-656.69 485.89,-663.12"/>
</g>
<!-- Node13 -->
<g id="node13" class="node">
<title>Node13</title>
<g id="a_node13"><a xlink:href="classQuantConnect_1_1SecurityIdentifier.html#a5889a95a36ce927dd0a109cbfbcbe663" target="_top" xlink:title="Generates a new SecurityIdentifier for a Crypto pair">
<polygon fill="white" stroke="black" points="485.5,-615 485.5,-645 659.5,-645 659.5,-615 485.5,-615"/>
<text text-anchor="start" x="493.5" y="-633" font-family="Helvetica,sans-Serif" font-size="10.00">QuantConnect.SecurityIdentifier.</text>
<text text-anchor="middle" x="572.5" y="-622" font-family="Helvetica,sans-Serif" font-size="10.00">GenerateCrypto</text>
</a>
</g>
</g>
<!-- Node2&#45;&gt;Node13 -->
<g id="edge12" class="edge">
<title>Node2&#45;&gt;Node13</title>
<path fill="none" stroke="midnightblue" d="M352.32,-519.72C374.35,-539.02 426.7,-582.34 478,-606 482.34,-608 486.87,-609.85 491.49,-611.57"/>
<polygon fill="midnightblue" stroke="midnightblue" points="490.5,-614.92 501.1,-614.89 492.79,-608.31 490.5,-614.92"/>
</g>
<!-- Node14 -->
<g id="node14" class="node">
<title>Node14</title>
<g id="a_node14"><a xlink:href="classQuantConnect_1_1SecurityIdentifier.html#a9cf0d3b208a5171e6112516ce441f18d" target="_top" xlink:title="Generates a new SecurityIdentifier for a forex pair">
<polygon fill="white" stroke="black" points="485.5,-566 485.5,-596 659.5,-596 659.5,-566 485.5,-566"/>
<text text-anchor="start" x="493.5" y="-584" font-family="Helvetica,sans-Serif" font-size="10.00">QuantConnect.SecurityIdentifier.</text>
<text text-anchor="middle" x="572.5" y="-573" font-family="Helvetica,sans-Serif" font-size="10.00">GenerateForex</text>
</a>
</g>
</g>
<!-- Node2&#45;&gt;Node14 -->
<g id="edge14" class="edge">
<title>Node2&#45;&gt;Node14</title>
<path fill="none" stroke="midnightblue" d="M367.21,-519.55C394.5,-529.51 438.99,-545.3 478,-557 485.14,-559.14 492.63,-561.27 500.12,-563.31"/>
<polygon fill="midnightblue" stroke="midnightblue" points="499.38,-566.74 509.95,-565.95 501.2,-559.98 499.38,-566.74"/>
</g>
<!-- Node15 -->
<g id="node15" class="node">
<title>Node15</title>
<g id="a_node15"><a xlink:href="classQuantConnect_1_1SecurityIdentifier.html#ad50a891c97cb0c084a9e2aa43607ed66" target="_top" xlink:title="Generates a new SecurityIdentifier for a future">
<polygon fill="white" stroke="black" points="485.5,-341 485.5,-371 659.5,-371 659.5,-341 485.5,-341"/>
<text text-anchor="start" x="493.5" y="-359" font-family="Helvetica,sans-Serif" font-size="10.00">QuantConnect.SecurityIdentifier.</text>
<text text-anchor="middle" x="572.5" y="-348" font-family="Helvetica,sans-Serif" font-size="10.00">GenerateFuture</text>
</a>
</g>
</g>
<!-- Node2&#45;&gt;Node15 -->
<g id="edge15" class="edge">
<title>Node2&#45;&gt;Node15</title>
<path fill="none" stroke="midnightblue" d="M349.39,-500.44C368.87,-477.44 421.73,-418.52 478,-386 485.51,-381.66 493.72,-377.86 502.07,-374.56"/>
<polygon fill="midnightblue" stroke="midnightblue" points="503.36,-377.81 511.51,-371.04 500.92,-371.25 503.36,-377.81"/>
</g>
<!-- Node16 -->
<g id="node16" class="node">
<title>Node16</title>
<g id="a_node16"><a xlink:href="classQuantConnect_1_1SecurityIdentifier.html#ade05a8e57b041ab484cf585be8d05699" target="_top" xlink:title="Generates a new SecurityIdentifier for a INDEX security">
<polygon fill="white" stroke="black" points="485.5,-517 485.5,-547 659.5,-547 659.5,-517 485.5,-517"/>
<text text-anchor="start" x="493.5" y="-535" font-family="Helvetica,sans-Serif" font-size="10.00">QuantConnect.SecurityIdentifier.</text>
<text text-anchor="middle" x="572.5" y="-524" font-family="Helvetica,sans-Serif" font-size="10.00">GenerateIndex</text>
</a>
</g>
</g>
<!-- Node2&#45;&gt;Node16 -->
<g id="edge16" class="edge">
<title>Node2&#45;&gt;Node16</title>
<path fill="none" stroke="midnightblue" d="M421.3,-517.63C438.54,-519.28 456.96,-521.04 474.77,-522.75"/>
<polygon fill="midnightblue" stroke="midnightblue" points="474.89,-526.27 485.18,-523.74 475.55,-519.31 474.89,-526.27"/>
</g>
<!-- Node3&#45;&gt;Node4 -->
<g id="edge3" class="edge">
<title>Node3&#45;&gt;Node4</title>
<path fill="none" stroke="midnightblue" d="M653.13,-452.13C666.03,-453.45 679.51,-454.82 692.75,-456.17"/>
<polygon fill="midnightblue" stroke="midnightblue" points="692.51,-459.67 702.82,-457.2 693.22,-452.7 692.51,-459.67"/>
</g>
<!-- Node3&#45;&gt;Node5 -->
<g id="edge4" class="edge">
<title>Node3&#45;&gt;Node5</title>
<path fill="none" stroke="midnightblue" d="M624.89,-428.87C638.69,-424.44 653.53,-419.34 667,-414 700.3,-400.81 737.29,-382.71 761.71,-370.26"/>
<polygon fill="midnightblue" stroke="midnightblue" points="763.44,-373.31 770.74,-365.63 760.24,-367.08 763.44,-373.31"/>
</g>
<!-- Node6 -->
<g id="node6" class="node">
<title>Node6</title>
<g id="a_node6"><a xlink:href="classQuantConnect_1_1Symbol.html#a59b0795fa21f46c306deb5576fa03bb9" target="_top" xlink:title="Centralized helper method to resolve alias for a symbol">
<polygon fill="white" stroke="black" points="913,-283.5 913,-302.5 1083,-302.5 1083,-283.5 913,-283.5"/>
<text text-anchor="middle" x="998" y="-290.5" font-family="Helvetica,sans-Serif" font-size="10.00">QuantConnect.Symbol.GetAlias</text>
</a>
</g>
</g>
<!-- Node5&#45;&gt;Node6 -->
<g id="edge5" class="edge">
<title>Node5&#45;&gt;Node6</title>
<path fill="none" stroke="midnightblue" d="M822.29,-346.43C858.08,-335.48 916.82,-317.52 956.19,-305.48"/>
<polygon fill="midnightblue" stroke="midnightblue" points="957.22,-308.83 965.76,-302.55 955.17,-302.13 957.22,-308.83"/>
</g>
<!-- Node7 -->
<g id="node7" class="node">
<title>Node7</title>
<g id="a_node7"><a xlink:href="classQuantConnect_1_1SymbolRepresentation.html#abe54ff47eb211a2a99fb47b72683e3b9" target="_top" xlink:title="Returns future symbol ticker from underlying and expiration date. Function can generate tickers of tw...">
<polygon fill="white" stroke="black" points="1119,-303 1119,-333 1322,-333 1322,-303 1119,-303"/>
<text text-anchor="start" x="1127" y="-321" font-family="Helvetica,sans-Serif" font-size="10.00">QuantConnect.SymbolRepresentation.</text>
<text text-anchor="middle" x="1220.5" y="-310" font-family="Helvetica,sans-Serif" font-size="10.00">GenerateFutureTicker</text>
</a>
</g>
</g>
<!-- Node6&#45;&gt;Node7 -->
<g id="edge6" class="edge">
<title>Node6&#45;&gt;Node7</title>
<path fill="none" stroke="midnightblue" d="M1082.99,-302.52C1091.39,-303.47 1100,-304.45 1108.62,-305.43"/>
<polygon fill="midnightblue" stroke="midnightblue" points="1108.4,-308.93 1118.73,-306.57 1109.19,-301.97 1108.4,-308.93"/>
</g>
<!-- Node9 -->
<g id="node9" class="node">
<title>Node9</title>
<g id="a_node9"><a xlink:href="classQuantConnect_1_1SymbolRepresentation.html#ab133044f5cf8c16e700190a2202b215e" target="_top" xlink:title="Returns option symbol ticker in accordance with OSI symbology More information can be found at http:/...">
<polygon fill="white" stroke="black" points="1119,-254 1119,-284 1322,-284 1322,-254 1119,-254"/>
<text text-anchor="start" x="1127" y="-272" font-family="Helvetica,sans-Serif" font-size="10.00">QuantConnect.SymbolRepresentation.</text>
<text text-anchor="middle" x="1220.5" y="-261" font-family="Helvetica,sans-Serif" font-size="10.00">GenerateOptionTickerOSI</text>
</a>
</g>
</g>
<!-- Node6&#45;&gt;Node9 -->
<g id="edge8" class="edge">
<title>Node6&#45;&gt;Node9</title>
<path fill="none" stroke="midnightblue" d="M1083.31,-283.82C1091.69,-282.91 1100.3,-281.97 1108.9,-281.04"/>
<polygon fill="midnightblue" stroke="midnightblue" points="1109.43,-284.5 1118.99,-279.94 1108.67,-277.54 1109.43,-284.5"/>
</g>
<!-- Node8 -->
<g id="node8" class="node">
<title>Node8</title>
<g id="a_node8"><a xlink:href="classQuantConnect_1_1Securities_1_1Future_1_1FuturesExpiryUtilityFunctions.html#a4ccb1e2f2fe40ff09785a74a02f26df1" target="_top" xlink:title="Gets the number of months between the contract month and the expiry date.">
<polygon fill="white" stroke="black" points="1358,-297.5 1358,-338.5 1624,-338.5 1624,-297.5 1358,-297.5"/>
<text text-anchor="start" x="1366" y="-326.5" font-family="Helvetica,sans-Serif" font-size="10.00">QuantConnect.Securities.</text>
<text text-anchor="start" x="1366" y="-315.5" font-family="Helvetica,sans-Serif" font-size="10.00">Future.FuturesExpiryUtilityFunctions.</text>
<text text-anchor="middle" x="1491" y="-304.5" font-family="Helvetica,sans-Serif" font-size="10.00">GetDeltaBetweenContractMonthAndContractExpiry</text>
</a>
</g>
</g>
<!-- Node7&#45;&gt;Node8 -->
<g id="edge7" class="edge">
<title>Node7&#45;&gt;Node8</title>
<path fill="none" stroke="midnightblue" d="M1322.24,-318C1330.59,-318 1339.11,-318 1347.68,-318"/>
<polygon fill="midnightblue" stroke="midnightblue" points="1347.76,-321.5 1357.76,-318 1347.76,-314.5 1347.76,-321.5"/>
</g>
<!-- Node11 -->
<g id="node11" class="node">
<title>Node11</title>
<g id="a_node11"><a xlink:href="classQuantConnect_1_1SecurityIdentifier.html#a19e1f9da410608020d74ed9e7d283575" target="_top" xlink:title="Generates the Symbol property for QuantConnect.SecurityType.Base security identifiers">
<polygon fill="white" stroke="black" points="703,-713 703,-743 877,-743 877,-713 703,-713"/>
<text text-anchor="start" x="711" y="-731" font-family="Helvetica,sans-Serif" font-size="10.00">QuantConnect.SecurityIdentifier.</text>
<text text-anchor="middle" x="790" y="-720" font-family="Helvetica,sans-Serif" font-size="10.00">GenerateBaseSymbol</text>
</a>
</g>
</g>
<!-- Node10&#45;&gt;Node11 -->
<g id="edge10" class="edge">
<title>Node10&#45;&gt;Node11</title>
<path fill="none" stroke="midnightblue" d="M659.6,-728C670.46,-728 681.63,-728 692.63,-728"/>
<polygon fill="midnightblue" stroke="midnightblue" points="692.68,-731.5 702.68,-728 692.68,-724.5 692.68,-731.5"/>
</g>
<!-- Node17&#45;&gt;Node5 -->
<g id="edge21" class="edge">
<title>Node17&#45;&gt;Node5</title>
<path fill="none" stroke="midnightblue" d="M421.03,-308.43C487.1,-312.68 583.46,-320.22 667,-332 689.97,-335.24 715.16,-339.99 736.65,-344.41"/>
<polygon fill="midnightblue" stroke="midnightblue" points="736.06,-347.86 746.56,-346.48 737.49,-341.01 736.06,-347.86"/>
</g>
<!-- Node17&#45;&gt;Node6 -->
<g id="edge20" class="edge">
<title>Node17&#45;&gt;Node6</title>
<path fill="none" stroke="midnightblue" d="M421.22,-302.66C542.56,-300.63 773.11,-296.76 902.63,-294.58"/>
<polygon fill="midnightblue" stroke="midnightblue" points="902.99,-298.08 912.93,-294.41 902.87,-291.08 902.99,-298.08"/>
</g>
<!-- Node17&#45;&gt;Node15 -->
<g id="edge19" class="edge">
<title>Node17&#45;&gt;Node15</title>
<path fill="none" stroke="midnightblue" d="M408.03,-319.04C435.32,-325.21 467.08,-332.39 495.3,-338.77"/>
<polygon fill="midnightblue" stroke="midnightblue" points="494.6,-342.2 505.12,-340.99 496.14,-335.37 494.6,-342.2"/>
</g>
<!-- Node19 -->
<g id="node19" class="node">
<title>Node19</title>
<g id="a_node19"><a xlink:href="interfaceQuantConnect_1_1Logging_1_1ILogHandler.html#a2c738b8e78dd5b54244bc68b969ba91d" target="_top" xlink:title="Write debug message to log">
<polygon fill="white" stroke="black" points="497.5,-215 497.5,-245 647.5,-245 647.5,-215 497.5,-215"/>
<text text-anchor="start" x="505.5" y="-233" font-family="Helvetica,sans-Serif" font-size="10.00">QuantConnect.Logging.ILog</text>
<text text-anchor="middle" x="572.5" y="-222" font-family="Helvetica,sans-Serif" font-size="10.00">Handler.Debug</text>
</a>
</g>
</g>
<!-- Node18&#45;&gt;Node19 -->
<g id="edge23" class="edge">
<title>Node18&#45;&gt;Node19</title>
<path fill="none" stroke="midnightblue" d="M415.54,-240.85C438.3,-239.27 463.53,-237.51 486.94,-235.88"/>
<polygon fill="midnightblue" stroke="midnightblue" points="487.47,-239.35 497.21,-235.17 486.99,-232.37 487.47,-239.35"/>
</g>
<!-- Node21 -->
<g id="node21" class="node">
<title>Node21</title>
<g id="a_node21"><a xlink:href="classQuantConnect_1_1Securities_1_1SymbolPropertiesDatabase.html#a1658f93bf0dce7022bb7584e1a95cc7a" target="_top" xlink:title="Initialize a new instance of SymbolPropertiesDatabase using the given file">
<polygon fill="white" stroke="black" points="478,-154.5 478,-195.5 667,-195.5 667,-154.5 478,-154.5"/>
<text text-anchor="start" x="486" y="-183.5" font-family="Helvetica,sans-Serif" font-size="10.00">QuantConnect.Securities.</text>
<text text-anchor="start" x="486" y="-172.5" font-family="Helvetica,sans-Serif" font-size="10.00">SymbolPropertiesDatabase.Symbol</text>
<text text-anchor="middle" x="572.5" y="-161.5" font-family="Helvetica,sans-Serif" font-size="10.00">PropertiesDatabase</text>
</a>
</g>
</g>
<!-- Node20&#45;&gt;Node21 -->
<g id="edge25" class="edge">
<title>Node20&#45;&gt;Node21</title>
<path fill="none" stroke="midnightblue" d="M429.11,-184.91C441.63,-184.03 454.61,-183.13 467.41,-182.24"/>
<polygon fill="midnightblue" stroke="midnightblue" points="467.89,-185.72 477.62,-181.53 467.41,-178.73 467.89,-185.72"/>
</g>
</g>
</svg>
