<?xml version="1.0" encoding="UTF-8" standalone="no"?>
<!DOCTYPE svg PUBLIC "-//W3C//DTD SVG 1.1//EN"
 "http://www.w3.org/Graphics/SVG/1.1/DTD/svg11.dtd">
<!-- Generated by graphviz version 2.43.0 (0)
 -->
<!-- Title: Graphical Class Hierarchy Pages: 1 -->
<svg width="348pt" height="88pt"
 viewBox="0.00 0.00 348.00 88.00" xmlns="http://www.w3.org/2000/svg" xmlns:xlink="http://www.w3.org/1999/xlink">
<g id="graph0" class="graph" transform="scale(1 1) rotate(0) translate(4 84)">
<title>Graphical Class Hierarchy</title>
<polygon fill="white" stroke="transparent" points="-4,4 -4,-84 344,-84 344,4 -4,4"/>
<!-- Node0 -->
<g id="node1" class="node">
<title>Node0</title>
<g id="a_node1"><a xlink:href="interfaceQuantConnect_1_1Benchmarks_1_1IBenchmark.html" target="_top" xlink:title="Specifies how to compute a benchmark for an algorithm">
<polygon fill="white" stroke="black" points="0,-24.5 0,-54.5 152,-54.5 152,-24.5 0,-24.5"/>
<text text-anchor="start" x="8" y="-42.5" font-family="Helvetica,sans-Serif" font-size="10.00">QuantConnect.Benchmarks.</text>
<text text-anchor="middle" x="76" y="-31.5" font-family="Helvetica,sans-Serif" font-size="10.00">IBenchmark</text>
</a>
</g>
</g>
<!-- Node1 -->
<g id="node2" class="node">
<title>Node1</title>
<g id="a_node2"><a xlink:href="classQuantConnect_1_1Benchmarks_1_1FuncBenchmark.html" target="_top" xlink:title="Creates a benchmark defined by a function">
<polygon fill="white" stroke="black" points="188,-49.5 188,-79.5 340,-79.5 340,-49.5 188,-49.5"/>
<text text-anchor="start" x="196" y="-67.5" font-family="Helvetica,sans-Serif" font-size="10.00">QuantConnect.Benchmarks.</text>
<text text-anchor="middle" x="264" y="-56.5" font-family="Helvetica,sans-Serif" font-size="10.00">FuncBenchmark</text>
</a>
</g>
</g>
<!-- Node0&#45;&gt;Node1 -->
<g id="edge1" class="edge">
<title>Node0&#45;&gt;Node1</title>
<path fill="none" stroke="midnightblue" d="M162.15,-50.94C170.74,-52.1 179.43,-53.27 187.9,-54.41"/>
<polygon fill="midnightblue" stroke="midnightblue" points="162.49,-47.46 152.12,-49.6 161.56,-54.4 162.49,-47.46"/>
</g>
<!-- Node2 -->
<g id="node3" class="node">
<title>Node2</title>
<g id="a_node3"><a xlink:href="classQuantConnect_1_1Benchmarks_1_1SecurityBenchmark.html" target="_top" xlink:title="Creates a benchmark defined by the closing price of a Security instance">
<polygon fill="white" stroke="black" points="188,-0.5 188,-30.5 340,-30.5 340,-0.5 188,-0.5"/>
<text text-anchor="start" x="196" y="-18.5" font-family="Helvetica,sans-Serif" font-size="10.00">QuantConnect.Benchmarks.</text>
<text text-anchor="middle" x="264" y="-7.5" font-family="Helvetica,sans-Serif" font-size="10.00">SecurityBenchmark</text>
</a>
</g>
</g>
<!-- Node0&#45;&gt;Node2 -->
<g id="edge2" class="edge">
<title>Node0&#45;&gt;Node2</title>
<path fill="none" stroke="midnightblue" d="M162.15,-28.51C170.74,-27.4 179.43,-26.28 187.9,-25.19"/>
<polygon fill="midnightblue" stroke="midnightblue" points="161.59,-25.06 152.12,-29.81 162.48,-32 161.59,-25.06"/>
</g>
</g>
</svg>
