<?xml version="1.0" encoding="UTF-8" standalone="no"?>
<!DOCTYPE svg PUBLIC "-//W3C//DTD SVG 1.1//EN"
 "http://www.w3.org/Graphics/SVG/1.1/DTD/svg11.dtd">
<!-- Generated by graphviz version 2.43.0 (0)
 -->
<!-- Title: Graphical Class Hierarchy Pages: 1 -->
<svg width="912pt" height="170pt"
 viewBox="0.00 0.00 912.00 170.00" xmlns="http://www.w3.org/2000/svg" xmlns:xlink="http://www.w3.org/1999/xlink">
<g id="graph0" class="graph" transform="scale(1 1) rotate(0) translate(4 166)">
<title>Graphical Class Hierarchy</title>
<polygon fill="white" stroke="transparent" points="-4,4 -4,-166 908,-166 908,4 -4,4"/>
<!-- Node0 -->
<g id="node1" class="node">
<title>Node0</title>
<g id="a_node1"><a xlink:href="interfaceQuantConnect_1_1Lean_1_1Engine_1_1DataFeeds_1_1ISubscriptionDataSourceReader.html" target="_top" xlink:title="Represents a type responsible for accepting an input SubscriptionDataSource and returning an enumerab...">
<polygon fill="white" stroke="black" points="0,-30.5 0,-71.5 191,-71.5 191,-30.5 0,-30.5"/>
<text text-anchor="start" x="8" y="-59.5" font-family="Helvetica,sans-Serif" font-size="10.00">QuantConnect.Lean.Engine.</text>
<text text-anchor="start" x="8" y="-48.5" font-family="Helvetica,sans-Serif" font-size="10.00">DataFeeds.ISubscriptionDataSource</text>
<text text-anchor="middle" x="95.5" y="-37.5" font-family="Helvetica,sans-Serif" font-size="10.00">Reader</text>
</a>
</g>
</g>
<!-- Node1 -->
<g id="node2" class="node">
<title>Node1</title>
<g id="a_node2"><a xlink:href="classQuantConnect_1_1Lean_1_1Engine_1_1DataFeeds_1_1BaseSubscriptionDataSourceReader.html" target="_top" xlink:title="A base class for implementations of the ISubscriptionDataSourceReader">
<polygon fill="white" stroke="black" points="238.5,-60.5 238.5,-101.5 417.5,-101.5 417.5,-60.5 238.5,-60.5"/>
<text text-anchor="start" x="246.5" y="-89.5" font-family="Helvetica,sans-Serif" font-size="10.00">QuantConnect.Lean.Engine.</text>
<text text-anchor="start" x="246.5" y="-78.5" font-family="Helvetica,sans-Serif" font-size="10.00">DataFeeds.BaseSubscriptionData</text>
<text text-anchor="middle" x="328" y="-67.5" font-family="Helvetica,sans-Serif" font-size="10.00">SourceReader</text>
</a>
</g>
</g>
<!-- Node0&#45;&gt;Node1 -->
<g id="edge1" class="edge">
<title>Node0&#45;&gt;Node1</title>
<path fill="none" stroke="midnightblue" d="M201.5,-64.67C213.76,-66.26 226.17,-67.88 238.18,-69.44"/>
<polygon fill="midnightblue" stroke="midnightblue" points="201.62,-61.15 191.25,-63.33 200.72,-68.09 201.62,-61.15"/>
</g>
<!-- Node6 -->
<g id="node7" class="node">
<title>Node6</title>
<g id="a_node7"><a xlink:href="classQuantConnect_1_1Lean_1_1Engine_1_1DataFeeds_1_1ZipEntryNameSubscriptionDataSourceReader.html" target="_top" xlink:title="Provides an implementation of ISubscriptionDataSourceReader that reads zip entry names">
<polygon fill="white" stroke="black" points="227,-0.5 227,-41.5 429,-41.5 429,-0.5 227,-0.5"/>
<text text-anchor="start" x="235" y="-29.5" font-family="Helvetica,sans-Serif" font-size="10.00">QuantConnect.Lean.Engine.</text>
<text text-anchor="start" x="235" y="-18.5" font-family="Helvetica,sans-Serif" font-size="10.00">DataFeeds.ZipEntryNameSubscription</text>
<text text-anchor="middle" x="328" y="-7.5" font-family="Helvetica,sans-Serif" font-size="10.00">DataSourceReader</text>
</a>
</g>
</g>
<!-- Node0&#45;&gt;Node6 -->
<g id="edge6" class="edge">
<title>Node0&#45;&gt;Node6</title>
<path fill="none" stroke="midnightblue" d="M201.43,-37.34C209.82,-36.25 218.28,-35.15 226.64,-34.06"/>
<polygon fill="midnightblue" stroke="midnightblue" points="200.72,-33.91 191.25,-38.67 201.62,-40.85 200.72,-33.91"/>
</g>
<!-- Node2 -->
<g id="node3" class="node">
<title>Node2</title>
<g id="a_node3"><a xlink:href="classQuantConnect_1_1Lean_1_1Engine_1_1DataFeeds_1_1CollectionSubscriptionDataSourceReader.html" target="_top" xlink:title="Collection Subscription Factory takes a BaseDataCollection from BaseData factories and yields it one ...">
<polygon fill="white" stroke="black" points="466,-120.5 466,-161.5 646,-161.5 646,-120.5 466,-120.5"/>
<text text-anchor="start" x="474" y="-149.5" font-family="Helvetica,sans-Serif" font-size="10.00">QuantConnect.Lean.Engine.</text>
<text text-anchor="start" x="474" y="-138.5" font-family="Helvetica,sans-Serif" font-size="10.00">DataFeeds.CollectionSubscription</text>
<text text-anchor="middle" x="556" y="-127.5" font-family="Helvetica,sans-Serif" font-size="10.00">DataSourceReader</text>
</a>
</g>
</g>
<!-- Node1&#45;&gt;Node2 -->
<g id="edge2" class="edge">
<title>Node1&#45;&gt;Node2</title>
<path fill="none" stroke="midnightblue" d="M416.28,-104.17C436.5,-109.54 457.88,-115.22 477.64,-120.46"/>
<polygon fill="midnightblue" stroke="midnightblue" points="417.02,-100.75 406.46,-101.56 415.23,-107.51 417.02,-100.75"/>
</g>
<!-- Node3 -->
<g id="node4" class="node">
<title>Node3</title>
<g id="a_node4"><a xlink:href="classQuantConnect_1_1Lean_1_1Engine_1_1DataFeeds_1_1IndexSubscriptionDataSourceReader.html" target="_top" xlink:title="This ISubscriptionDataSourceReader implementation supports the FileFormat.Index and IndexedBaseData t...">
<polygon fill="white" stroke="black" points="465,-60.5 465,-101.5 647,-101.5 647,-60.5 465,-60.5"/>
<text text-anchor="start" x="473" y="-89.5" font-family="Helvetica,sans-Serif" font-size="10.00">QuantConnect.Lean.Engine.</text>
<text text-anchor="start" x="473" y="-78.5" font-family="Helvetica,sans-Serif" font-size="10.00">DataFeeds.IndexSubscriptionData</text>
<text text-anchor="middle" x="556" y="-67.5" font-family="Helvetica,sans-Serif" font-size="10.00">SourceReader</text>
</a>
</g>
</g>
<!-- Node1&#45;&gt;Node3 -->
<g id="edge3" class="edge">
<title>Node1&#45;&gt;Node3</title>
<path fill="none" stroke="midnightblue" d="M427.9,-81C440.14,-81 452.62,-81 464.73,-81"/>
<polygon fill="midnightblue" stroke="midnightblue" points="427.67,-77.5 417.67,-81 427.67,-84.5 427.67,-77.5"/>
</g>
<!-- Node4 -->
<g id="node5" class="node">
<title>Node4</title>
<g id="a_node5"><a xlink:href="classQuantConnect_1_1Lean_1_1Engine_1_1DataFeeds_1_1TextSubscriptionDataSourceReader.html" target="_top" xlink:title="Provides an implementations of ISubscriptionDataSourceReader that uses the BaseData....">
<polygon fill="white" stroke="black" points="468.5,-0.5 468.5,-41.5 643.5,-41.5 643.5,-0.5 468.5,-0.5"/>
<text text-anchor="start" x="476.5" y="-29.5" font-family="Helvetica,sans-Serif" font-size="10.00">QuantConnect.Lean.Engine.</text>
<text text-anchor="start" x="476.5" y="-18.5" font-family="Helvetica,sans-Serif" font-size="10.00">DataFeeds.TextSubscriptionData</text>
<text text-anchor="middle" x="556" y="-7.5" font-family="Helvetica,sans-Serif" font-size="10.00">SourceReader</text>
</a>
</g>
</g>
<!-- Node1&#45;&gt;Node4 -->
<g id="edge4" class="edge">
<title>Node1&#45;&gt;Node4</title>
<path fill="none" stroke="midnightblue" d="M416.28,-57.83C436.5,-52.46 457.88,-46.78 477.64,-41.54"/>
<polygon fill="midnightblue" stroke="midnightblue" points="415.23,-54.49 406.46,-60.44 417.02,-61.25 415.23,-54.49"/>
</g>
<!-- Node5 -->
<g id="node6" class="node">
<title>Node5</title>
<g id="a_node6"><a xlink:href="classQuantConnect_1_1Lean_1_1Engine_1_1DataFeeds_1_1BaseDataCollectionAggregatorReader.html" target="_top" xlink:title="Data source reader that will aggregate data points into a base data collection">
<polygon fill="white" stroke="black" points="683,-0.5 683,-41.5 904,-41.5 904,-0.5 683,-0.5"/>
<text text-anchor="start" x="691" y="-29.5" font-family="Helvetica,sans-Serif" font-size="10.00">QuantConnect.Lean.Engine.</text>
<text text-anchor="start" x="691" y="-18.5" font-family="Helvetica,sans-Serif" font-size="10.00">DataFeeds.BaseDataCollectionAggregator</text>
<text text-anchor="middle" x="793.5" y="-7.5" font-family="Helvetica,sans-Serif" font-size="10.00">Reader</text>
</a>
</g>
</g>
<!-- Node4&#45;&gt;Node5 -->
<g id="edge5" class="edge">
<title>Node4&#45;&gt;Node5</title>
<path fill="none" stroke="midnightblue" d="M653.92,-21C663.44,-21 673.13,-21 682.76,-21"/>
<polygon fill="midnightblue" stroke="midnightblue" points="653.69,-17.5 643.69,-21 653.69,-24.5 653.69,-17.5"/>
</g>
</g>
</svg>
