<?xml version="1.0" encoding="UTF-8" standalone="no"?>
<!DOCTYPE svg PUBLIC "-//W3C//DTD SVG 1.1//EN"
 "http://www.w3.org/Graphics/SVG/1.1/DTD/svg11.dtd">
<!-- Generated by graphviz version 2.43.0 (0)
 -->
<!-- Title: Graphical Class Hierarchy Pages: 1 -->
<svg width="682pt" height="333pt"
 viewBox="0.00 0.00 682.00 333.00" xmlns="http://www.w3.org/2000/svg" xmlns:xlink="http://www.w3.org/1999/xlink">
<g id="graph0" class="graph" transform="scale(1 1) rotate(0) translate(4 329)">
<title>Graphical Class Hierarchy</title>
<polygon fill="white" stroke="transparent" points="-4,4 -4,-329 678,-329 678,4 -4,4"/>
<!-- Node2162 -->
<g id="node1" class="node">
<title>Node2162</title>
<g id="a_node1"><a xlink:href="interfaceQuantConnect_1_1Securities_1_1IBaseCurrencySymbol.html" target="_top" xlink:title="Interface for various currency symbols">
<polygon fill="white" stroke="black" points="176,-269.5 176,-299.5 316,-299.5 316,-269.5 176,-269.5"/>
<text text-anchor="start" x="184" y="-287.5" font-family="Helvetica,sans-Serif" font-size="10.00">QuantConnect.Securities.</text>
<text text-anchor="middle" x="246" y="-276.5" font-family="Helvetica,sans-Serif" font-size="10.00">IBaseCurrencySymbol</text>
</a>
</g>
</g>
<!-- Node7 -->
<g id="node2" class="node">
<title>Node7</title>
<g id="a_node2"><a xlink:href="classQuantConnect_1_1Securities_1_1Crypto_1_1Crypto.html" target="_top" xlink:title="Crypto Security Object Implementation for Crypto Assets">
<polygon fill="white" stroke="black" points="352,-245.5 352,-275.5 492,-275.5 492,-245.5 352,-245.5"/>
<text text-anchor="start" x="360" y="-263.5" font-family="Helvetica,sans-Serif" font-size="10.00">QuantConnect.Securities.</text>
<text text-anchor="middle" x="422" y="-252.5" font-family="Helvetica,sans-Serif" font-size="10.00">Crypto.Crypto</text>
</a>
</g>
</g>
<!-- Node2162&#45;&gt;Node7 -->
<g id="edge1" class="edge">
<title>Node2162&#45;&gt;Node7</title>
<path fill="none" stroke="midnightblue" d="M326.03,-273.6C334.62,-272.41 343.32,-271.21 351.78,-270.05"/>
<polygon fill="midnightblue" stroke="midnightblue" points="325.45,-270.15 316.02,-274.98 326.4,-277.08 325.45,-270.15"/>
</g>
<!-- Node9 -->
<g id="node3" class="node">
<title>Node9</title>
<g id="a_node3"><a xlink:href="classQuantConnect_1_1Securities_1_1Forex_1_1Forex.html" target="_top" xlink:title="FOREX Security Object Implementation for FOREX Assets">
<polygon fill="white" stroke="black" points="352,-294.5 352,-324.5 492,-324.5 492,-294.5 352,-294.5"/>
<text text-anchor="start" x="360" y="-312.5" font-family="Helvetica,sans-Serif" font-size="10.00">QuantConnect.Securities.</text>
<text text-anchor="middle" x="422" y="-301.5" font-family="Helvetica,sans-Serif" font-size="10.00">Forex.Forex</text>
</a>
</g>
</g>
<!-- Node2162&#45;&gt;Node9 -->
<g id="edge2" class="edge">
<title>Node2162&#45;&gt;Node9</title>
<path fill="none" stroke="midnightblue" d="M326.03,-295.86C334.62,-297.09 343.32,-298.34 351.78,-299.55"/>
<polygon fill="midnightblue" stroke="midnightblue" points="326.42,-292.37 316.02,-294.42 325.42,-299.3 326.42,-292.37"/>
</g>
<!-- Node2076 -->
<g id="node4" class="node">
<title>Node2076</title>
<g id="a_node4"><a xlink:href="interfaceQuantConnect_1_1Securities_1_1IContinuousSecurity.html" target="_top" xlink:title="A continuous security that get&#39;s mapped during his life">
<polygon fill="white" stroke="black" points="176,-0.5 176,-30.5 316,-30.5 316,-0.5 176,-0.5"/>
<text text-anchor="start" x="184" y="-18.5" font-family="Helvetica,sans-Serif" font-size="10.00">QuantConnect.Securities.</text>
<text text-anchor="middle" x="246" y="-7.5" font-family="Helvetica,sans-Serif" font-size="10.00">IContinuousSecurity</text>
</a>
</g>
</g>
<!-- Node10 -->
<g id="node5" class="node">
<title>Node10</title>
<g id="a_node5"><a xlink:href="classQuantConnect_1_1Securities_1_1Future_1_1Future.html" target="_top" xlink:title="Futures Security Object Implementation for Futures Assets">
<polygon fill="white" stroke="black" points="352,-0.5 352,-30.5 492,-30.5 492,-0.5 352,-0.5"/>
<text text-anchor="start" x="360" y="-18.5" font-family="Helvetica,sans-Serif" font-size="10.00">QuantConnect.Securities.</text>
<text text-anchor="middle" x="422" y="-7.5" font-family="Helvetica,sans-Serif" font-size="10.00">Future.Future</text>
</a>
</g>
</g>
<!-- Node2076&#45;&gt;Node10 -->
<g id="edge3" class="edge">
<title>Node2076&#45;&gt;Node10</title>
<path fill="none" stroke="midnightblue" d="M326.03,-15.5C334.62,-15.5 343.32,-15.5 351.78,-15.5"/>
<polygon fill="midnightblue" stroke="midnightblue" points="326.02,-12 316.02,-15.5 326.02,-19 326.02,-12"/>
</g>
<!-- Node2038 -->
<g id="node6" class="node">
<title>Node2038</title>
<g id="a_node6"><a xlink:href="interfaceQuantConnect_1_1Securities_1_1IDerivativeSecurity.html" target="_top" xlink:title="Defines a security as a derivative of another security">
<polygon fill="white" stroke="black" points="176,-49.5 176,-79.5 316,-79.5 316,-49.5 176,-49.5"/>
<text text-anchor="start" x="184" y="-67.5" font-family="Helvetica,sans-Serif" font-size="10.00">QuantConnect.Securities.</text>
<text text-anchor="middle" x="246" y="-56.5" font-family="Helvetica,sans-Serif" font-size="10.00">IDerivativeSecurity</text>
</a>
</g>
</g>
<!-- Node2038&#45;&gt;Node10 -->
<g id="edge4" class="edge">
<title>Node2038&#45;&gt;Node10</title>
<path fill="none" stroke="midnightblue" d="M310.28,-46.68C329.07,-41.39 349.45,-35.65 367.55,-30.55"/>
<polygon fill="midnightblue" stroke="midnightblue" points="309.3,-43.32 300.63,-49.4 311.2,-50.06 309.3,-43.32"/>
</g>
<!-- Node2 -->
<g id="node7" class="node">
<title>Node2</title>
<g id="a_node7"><a xlink:href="classQuantConnect_1_1Securities_1_1Option_1_1Option.html" target="_top" xlink:title="Option Security Object Implementation for Option Assets">
<polygon fill="white" stroke="black" points="352,-49.5 352,-79.5 492,-79.5 492,-49.5 352,-49.5"/>
<text text-anchor="start" x="360" y="-67.5" font-family="Helvetica,sans-Serif" font-size="10.00">QuantConnect.Securities.</text>
<text text-anchor="middle" x="422" y="-56.5" font-family="Helvetica,sans-Serif" font-size="10.00">Option.Option</text>
</a>
</g>
</g>
<!-- Node2038&#45;&gt;Node2 -->
<g id="edge5" class="edge">
<title>Node2038&#45;&gt;Node2</title>
<path fill="none" stroke="midnightblue" d="M326.03,-64.5C334.62,-64.5 343.32,-64.5 351.78,-64.5"/>
<polygon fill="midnightblue" stroke="midnightblue" points="326.02,-61 316.02,-64.5 326.02,-68 326.02,-61"/>
</g>
<!-- Node3 -->
<g id="node8" class="node">
<title>Node3</title>
<g id="a_node8"><a xlink:href="classQuantConnect_1_1Securities_1_1FutureOption_1_1FutureOption.html" target="_top" xlink:title="Futures Options security">
<polygon fill="white" stroke="black" points="528,-73.5 528,-103.5 674,-103.5 674,-73.5 528,-73.5"/>
<text text-anchor="start" x="536" y="-91.5" font-family="Helvetica,sans-Serif" font-size="10.00">QuantConnect.Securities.</text>
<text text-anchor="middle" x="601" y="-80.5" font-family="Helvetica,sans-Serif" font-size="10.00">FutureOption.FutureOption</text>
</a>
</g>
</g>
<!-- Node2&#45;&gt;Node3 -->
<g id="edge6" class="edge">
<title>Node2&#45;&gt;Node3</title>
<path fill="none" stroke="midnightblue" d="M502.19,-75.24C510.76,-76.4 519.45,-77.58 527.94,-78.73"/>
<polygon fill="midnightblue" stroke="midnightblue" points="502.57,-71.76 492.19,-73.88 501.63,-78.69 502.57,-71.76"/>
</g>
<!-- Node4 -->
<g id="node9" class="node">
<title>Node4</title>
<g id="a_node9"><a xlink:href="classQuantConnect_1_1Securities_1_1IndexOption_1_1IndexOption.html" target="_top" xlink:title="Index Options security">
<polygon fill="white" stroke="black" points="531,-24.5 531,-54.5 671,-54.5 671,-24.5 531,-24.5"/>
<text text-anchor="start" x="539" y="-42.5" font-family="Helvetica,sans-Serif" font-size="10.00">QuantConnect.Securities.</text>
<text text-anchor="middle" x="601" y="-31.5" font-family="Helvetica,sans-Serif" font-size="10.00">IndexOption.IndexOption</text>
</a>
</g>
</g>
<!-- Node2&#45;&gt;Node4 -->
<g id="edge7" class="edge">
<title>Node2&#45;&gt;Node4</title>
<path fill="none" stroke="midnightblue" d="M502.11,-53.33C511.69,-51.97 521.43,-50.6 530.85,-49.27"/>
<polygon fill="midnightblue" stroke="midnightblue" points="501.61,-49.86 492.19,-54.73 502.58,-56.79 501.61,-49.86"/>
</g>
<!-- Node0 -->
<g id="node10" class="node">
<title>Node0</title>
<g id="a_node10"><a xlink:href="interfaceQuantConnect_1_1Interfaces_1_1ISecurityPrice.html" target="_top" xlink:title="Reduced interface which allows setting and accessing price properties for a Security">
<polygon fill="white" stroke="black" points="0,-122.5 0,-152.5 140,-152.5 140,-122.5 0,-122.5"/>
<text text-anchor="start" x="8" y="-140.5" font-family="Helvetica,sans-Serif" font-size="10.00">QuantConnect.Interfaces.</text>
<text text-anchor="middle" x="70" y="-129.5" font-family="Helvetica,sans-Serif" font-size="10.00">ISecurityPrice</text>
</a>
</g>
</g>
<!-- Node1 -->
<g id="node11" class="node">
<title>Node1</title>
<g id="a_node11"><a xlink:href="interfaceQuantConnect_1_1Interfaces_1_1IOptionPrice.html" target="_top" xlink:title="Reduced interface for accessing Option specific price properties and methods">
<polygon fill="white" stroke="black" points="176,-98.5 176,-128.5 316,-128.5 316,-98.5 176,-98.5"/>
<text text-anchor="start" x="184" y="-116.5" font-family="Helvetica,sans-Serif" font-size="10.00">QuantConnect.Interfaces.</text>
<text text-anchor="middle" x="246" y="-105.5" font-family="Helvetica,sans-Serif" font-size="10.00">IOptionPrice</text>
</a>
</g>
</g>
<!-- Node0&#45;&gt;Node1 -->
<g id="edge8" class="edge">
<title>Node0&#45;&gt;Node1</title>
<path fill="none" stroke="midnightblue" d="M150.03,-126.6C158.62,-125.41 167.32,-124.21 175.78,-123.05"/>
<polygon fill="midnightblue" stroke="midnightblue" points="149.45,-123.15 140.02,-127.98 150.4,-130.08 149.45,-123.15"/>
</g>
<!-- Node5 -->
<g id="node12" class="node">
<title>Node5</title>
<g id="a_node12"><a xlink:href="classQuantConnect_1_1Securities_1_1Security.html" target="_top" xlink:title="A base vehicle properties class for providing a common interface to all assets in QuantConnect.">
<polygon fill="white" stroke="black" points="176,-147.5 176,-177.5 316,-177.5 316,-147.5 176,-147.5"/>
<text text-anchor="start" x="184" y="-165.5" font-family="Helvetica,sans-Serif" font-size="10.00">QuantConnect.Securities.</text>
<text text-anchor="middle" x="246" y="-154.5" font-family="Helvetica,sans-Serif" font-size="10.00">Security</text>
</a>
</g>
</g>
<!-- Node0&#45;&gt;Node5 -->
<g id="edge10" class="edge">
<title>Node0&#45;&gt;Node5</title>
<path fill="none" stroke="midnightblue" d="M150.03,-148.86C158.62,-150.09 167.32,-151.34 175.78,-152.55"/>
<polygon fill="midnightblue" stroke="midnightblue" points="150.42,-145.37 140.02,-147.42 149.42,-152.3 150.42,-145.37"/>
</g>
<!-- Node1&#45;&gt;Node2 -->
<g id="edge9" class="edge">
<title>Node1&#45;&gt;Node2</title>
<path fill="none" stroke="midnightblue" d="M310.28,-95.68C329.07,-90.39 349.45,-84.65 367.55,-79.55"/>
<polygon fill="midnightblue" stroke="midnightblue" points="309.3,-92.32 300.63,-98.4 311.2,-99.06 309.3,-92.32"/>
</g>
<!-- Node5&#45;&gt;Node7 -->
<g id="edge12" class="edge">
<title>Node5&#45;&gt;Node7</title>
<path fill="none" stroke="midnightblue" d="M272.87,-183.84C293.36,-199.95 323.23,-221.73 352,-236.5 358.32,-239.74 365.17,-242.72 372.03,-245.38"/>
<polygon fill="midnightblue" stroke="midnightblue" points="274.96,-181.03 264.96,-177.53 270.6,-186.5 274.96,-181.03"/>
</g>
<!-- Node5&#45;&gt;Node9 -->
<g id="edge14" class="edge">
<title>Node5&#45;&gt;Node9</title>
<path fill="none" stroke="midnightblue" d="M261.59,-186.23C279.65,-213.75 312.85,-258.74 352,-285.5 356.92,-288.86 362.36,-291.8 367.96,-294.35"/>
<polygon fill="midnightblue" stroke="midnightblue" points="264.41,-184.14 256.06,-177.62 258.52,-187.93 264.41,-184.14"/>
</g>
<!-- Node5&#45;&gt;Node10 -->
<g id="edge15" class="edge">
<title>Node5&#45;&gt;Node10</title>
<path fill="none" stroke="midnightblue" d="M312.55,-141.61C313.74,-140.62 314.9,-139.58 316,-138.5 349.09,-105.97 319.12,-73.24 352,-40.5 355.88,-36.63 360.41,-33.36 365.25,-30.59"/>
<polygon fill="midnightblue" stroke="midnightblue" points="310.3,-138.9 304.08,-147.48 314.29,-144.65 310.3,-138.9"/>
</g>
<!-- Node5&#45;&gt;Node2 -->
<g id="edge17" class="edge">
<title>Node5&#45;&gt;Node2</title>
<path fill="none" stroke="midnightblue" d="M310.17,-142.41C312.18,-141.18 314.13,-139.88 316,-138.5 337.74,-122.45 330.36,-105.69 352,-89.5 357.1,-85.68 362.84,-82.4 368.78,-79.6"/>
<polygon fill="midnightblue" stroke="midnightblue" points="308.13,-139.54 301,-147.37 311.46,-145.69 308.13,-139.54"/>
</g>
<!-- Node6 -->
<g id="node13" class="node">
<title>Node6</title>
<g id="a_node13"><a xlink:href="classQuantConnect_1_1Securities_1_1Cfd_1_1Cfd.html" target="_top" xlink:title="CFD Security Object Implementation for CFD Assets">
<polygon fill="white" stroke="black" points="352,-196.5 352,-226.5 492,-226.5 492,-196.5 352,-196.5"/>
<text text-anchor="start" x="360" y="-214.5" font-family="Helvetica,sans-Serif" font-size="10.00">QuantConnect.Securities.</text>
<text text-anchor="middle" x="422" y="-203.5" font-family="Helvetica,sans-Serif" font-size="10.00">Cfd.Cfd</text>
</a>
</g>
</g>
<!-- Node5&#45;&gt;Node6 -->
<g id="edge11" class="edge">
<title>Node5&#45;&gt;Node6</title>
<path fill="none" stroke="midnightblue" d="M310.28,-180.32C329.07,-185.61 349.45,-191.35 367.55,-196.45"/>
<polygon fill="midnightblue" stroke="midnightblue" points="311.2,-176.94 300.63,-177.6 309.3,-183.68 311.2,-176.94"/>
</g>
<!-- Node8 -->
<g id="node14" class="node">
<title>Node8</title>
<g id="a_node14"><a xlink:href="classQuantConnect_1_1Securities_1_1Equity_1_1Equity.html" target="_top" xlink:title="Equity Security Type : Extension of the underlying Security class for equity specific behaviours.">
<polygon fill="white" stroke="black" points="352,-147.5 352,-177.5 492,-177.5 492,-147.5 352,-147.5"/>
<text text-anchor="start" x="360" y="-165.5" font-family="Helvetica,sans-Serif" font-size="10.00">QuantConnect.Securities.</text>
<text text-anchor="middle" x="422" y="-154.5" font-family="Helvetica,sans-Serif" font-size="10.00">Equity.Equity</text>
</a>
</g>
</g>
<!-- Node5&#45;&gt;Node8 -->
<g id="edge13" class="edge">
<title>Node5&#45;&gt;Node8</title>
<path fill="none" stroke="midnightblue" d="M326.03,-162.5C334.62,-162.5 343.32,-162.5 351.78,-162.5"/>
<polygon fill="midnightblue" stroke="midnightblue" points="326.02,-159 316.02,-162.5 326.02,-166 326.02,-159"/>
</g>
<!-- Node11 -->
<g id="node15" class="node">
<title>Node11</title>
<g id="a_node15"><a xlink:href="classQuantConnect_1_1Securities_1_1Index_1_1Index.html" target="_top" xlink:title="INDEX Security Object Implementation for INDEX Assets">
<polygon fill="white" stroke="black" points="352,-98.5 352,-128.5 492,-128.5 492,-98.5 352,-98.5"/>
<text text-anchor="start" x="360" y="-116.5" font-family="Helvetica,sans-Serif" font-size="10.00">QuantConnect.Securities.</text>
<text text-anchor="middle" x="422" y="-105.5" font-family="Helvetica,sans-Serif" font-size="10.00">Index.Index</text>
</a>
</g>
</g>
<!-- Node5&#45;&gt;Node11 -->
<g id="edge16" class="edge">
<title>Node5&#45;&gt;Node11</title>
<path fill="none" stroke="midnightblue" d="M310.28,-144.68C329.07,-139.39 349.45,-133.65 367.55,-128.55"/>
<polygon fill="midnightblue" stroke="midnightblue" points="309.3,-141.32 300.63,-147.4 311.2,-148.06 309.3,-141.32"/>
</g>
</g>
</svg>
