<?xml version="1.0" encoding="UTF-8" standalone="no"?>
<!DOCTYPE svg PUBLIC "-//W3C//DTD SVG 1.1//EN"
 "http://www.w3.org/Graphics/SVG/1.1/DTD/svg11.dtd">
<!-- Generated by graphviz version 2.43.0 (0)
 -->
<!-- Title: Graphical Class Hierarchy Pages: 1 -->
<svg width="327pt" height="1048pt"
 viewBox="0.00 0.00 327.00 1048.00" xmlns="http://www.w3.org/2000/svg" xmlns:xlink="http://www.w3.org/1999/xlink">
<g id="graph0" class="graph" transform="scale(1 1) rotate(0) translate(4 1044)">
<title>Graphical Class Hierarchy</title>
<polygon fill="white" stroke="transparent" points="-4,4 -4,-1044 323,-1044 323,4 -4,4"/>
<!-- Node1421 -->
<g id="node1" class="node">
<title>Node1421</title>
<g id="a_node1"><a xlink:title=" ">
<polygon fill="white" stroke="#bfbfbf" points="0,-510 0,-529 85,-529 85,-510 0,-510"/>
<text text-anchor="middle" x="42.5" y="-517" font-family="Helvetica,sans-Serif" font-size="10.00">JsonConverter</text>
</a>
</g>
</g>
<!-- Node0 -->
<g id="node2" class="node">
<title>Node0</title>
<g id="a_node2"><a xlink:href="classQuantConnect_1_1Api_1_1LiveAlgorithmResultsJsonConverter.html" target="_top" xlink:title="Custom JsonConverter for LiveResults data for live algorithms">
<polygon fill="white" stroke="black" points="132,-1009.5 132,-1039.5 308,-1039.5 308,-1009.5 132,-1009.5"/>
<text text-anchor="start" x="140" y="-1027.5" font-family="Helvetica,sans-Serif" font-size="10.00">QuantConnect.Api.LiveAlgorithm</text>
<text text-anchor="middle" x="220" y="-1016.5" font-family="Helvetica,sans-Serif" font-size="10.00">ResultsJsonConverter</text>
</a>
</g>
</g>
<!-- Node1421&#45;&gt;Node0 -->
<g id="edge1" class="edge">
<title>Node1421&#45;&gt;Node0</title>
<path fill="none" stroke="midnightblue" d="M43.88,-539.49C45.85,-621.57 57.45,-931.62 121,-1000.5 124.21,-1003.98 127.83,-1006.99 131.74,-1009.59"/>
<polygon fill="midnightblue" stroke="midnightblue" points="47.37,-539.01 43.65,-529.09 40.37,-539.16 47.37,-539.01"/>
</g>
<!-- Node1423 -->
<g id="node3" class="node">
<title>Node1423</title>
<g id="a_node3"><a xlink:href="classQuantConnect_1_1Api_1_1OptimizationBacktestJsonConverter.html" target="_top" xlink:title="Json converter for OptimizationBacktest which creates a light weight easy to consume serialized versi...">
<polygon fill="white" stroke="black" points="135,-960.5 135,-990.5 305,-990.5 305,-960.5 135,-960.5"/>
<text text-anchor="start" x="143" y="-978.5" font-family="Helvetica,sans-Serif" font-size="10.00">QuantConnect.Api.Optimization</text>
<text text-anchor="middle" x="220" y="-967.5" font-family="Helvetica,sans-Serif" font-size="10.00">BacktestJsonConverter</text>
</a>
</g>
</g>
<!-- Node1421&#45;&gt;Node1423 -->
<g id="edge2" class="edge">
<title>Node1421&#45;&gt;Node1423</title>
<path fill="none" stroke="midnightblue" d="M44.28,-539.39C47.67,-615.97 63.69,-890.48 121,-951.5 125.08,-955.84 129.8,-959.45 134.93,-962.45"/>
<polygon fill="midnightblue" stroke="midnightblue" points="47.76,-539.06 43.85,-529.22 40.77,-539.36 47.76,-539.06"/>
</g>
<!-- Node1424 -->
<g id="node4" class="node">
<title>Node1424</title>
<g id="a_node4"><a xlink:href="classQuantConnect_1_1Api_1_1ParameterSetJsonConverter.html" target="_top" xlink:title="Json converter for ParameterSet which creates a light weight easy to consume serialized version">
<polygon fill="white" stroke="black" points="141,-911.5 141,-941.5 299,-941.5 299,-911.5 141,-911.5"/>
<text text-anchor="start" x="149" y="-929.5" font-family="Helvetica,sans-Serif" font-size="10.00">QuantConnect.Api.Parameter</text>
<text text-anchor="middle" x="220" y="-918.5" font-family="Helvetica,sans-Serif" font-size="10.00">SetJsonConverter</text>
</a>
</g>
</g>
<!-- Node1421&#45;&gt;Node1424 -->
<g id="edge3" class="edge">
<title>Node1421&#45;&gt;Node1424</title>
<path fill="none" stroke="midnightblue" d="M44.77,-539.37C49.71,-610.26 69.92,-849.31 121,-902.5 126.58,-908.31 133.32,-912.81 140.62,-916.28"/>
<polygon fill="midnightblue" stroke="midnightblue" points="48.25,-538.9 44.09,-529.16 41.26,-539.37 48.25,-538.9"/>
</g>
<!-- Node1425 -->
<g id="node5" class="node">
<title>Node1425</title>
<g id="a_node5"><a xlink:href="classQuantConnect_1_1Api_1_1Serialization_1_1ProductJsonConverter.html" target="_top" xlink:title="Provides an implementation of JsonConverter that can deserialize Product">
<polygon fill="white" stroke="black" points="134.5,-862.5 134.5,-892.5 305.5,-892.5 305.5,-862.5 134.5,-862.5"/>
<text text-anchor="start" x="142.5" y="-880.5" font-family="Helvetica,sans-Serif" font-size="10.00">QuantConnect.Api.Serialization.</text>
<text text-anchor="middle" x="220" y="-869.5" font-family="Helvetica,sans-Serif" font-size="10.00">ProductJsonConverter</text>
</a>
</g>
</g>
<!-- Node1421&#45;&gt;Node1425 -->
<g id="edge4" class="edge">
<title>Node1421&#45;&gt;Node1425</title>
<path fill="none" stroke="midnightblue" d="M45.4,-539.3C52.02,-604.07 76.11,-808.06 121,-853.5 124.94,-857.49 129.43,-860.85 134.26,-863.69"/>
<polygon fill="midnightblue" stroke="midnightblue" points="48.87,-538.81 44.4,-529.21 41.9,-539.5 48.87,-538.81"/>
</g>
<!-- Node1426 -->
<g id="node6" class="node">
<title>Node1426</title>
<g id="a_node6"><a xlink:href="classQuantConnect_1_1ChartSeriesJsonConverter.html" target="_top" xlink:title=" ">
<polygon fill="white" stroke="black" points="147.5,-813.5 147.5,-843.5 292.5,-843.5 292.5,-813.5 147.5,-813.5"/>
<text text-anchor="start" x="155.5" y="-831.5" font-family="Helvetica,sans-Serif" font-size="10.00">QuantConnect.ChartSeries</text>
<text text-anchor="middle" x="220" y="-820.5" font-family="Helvetica,sans-Serif" font-size="10.00">JsonConverter</text>
</a>
</g>
</g>
<!-- Node1421&#45;&gt;Node1426 -->
<g id="edge5" class="edge">
<title>Node1421&#45;&gt;Node1426</title>
<path fill="none" stroke="midnightblue" d="M46.29,-539.29C54.85,-597.38 82.57,-765.7 121,-803.5 128.39,-810.76 137.57,-816.01 147.34,-819.78"/>
<polygon fill="midnightblue" stroke="midnightblue" points="49.72,-538.61 44.83,-529.21 42.8,-539.61 49.72,-538.61"/>
</g>
<!-- Node1427 -->
<g id="node7" class="node">
<title>Node1427</title>
<g id="a_node7"><a xlink:href="classQuantConnect_1_1DefaultConverter.html" target="_top" xlink:title="Helper json converter to use the default json converter, breaking inheritance json converter">
<polygon fill="white" stroke="black" points="133.5,-775 133.5,-794 306.5,-794 306.5,-775 133.5,-775"/>
<text text-anchor="middle" x="220" y="-782" font-family="Helvetica,sans-Serif" font-size="10.00">QuantConnect.DefaultConverter</text>
</a>
</g>
</g>
<!-- Node1421&#45;&gt;Node1427 -->
<g id="edge6" class="edge">
<title>Node1421&#45;&gt;Node1427</title>
<path fill="none" stroke="midnightblue" d="M43.37,-539.14C44.2,-586.01 53.25,-705.05 121,-765.5 125.14,-769.19 129.77,-772.26 134.72,-774.8"/>
<polygon fill="midnightblue" stroke="midnightblue" points="46.87,-539.06 43.3,-529.09 39.87,-539.11 46.87,-539.06"/>
</g>
<!-- Node1428 -->
<g id="node8" class="node">
<title>Node1428</title>
<g id="a_node8"><a xlink:href="classQuantConnect_1_1Notifications_1_1NotificationJsonConverter.html" target="_top" xlink:title="Defines a JsonConverter to be used when deserializing to the Notification class.">
<polygon fill="white" stroke="black" points="143.5,-725.5 143.5,-755.5 296.5,-755.5 296.5,-725.5 143.5,-725.5"/>
<text text-anchor="start" x="151.5" y="-743.5" font-family="Helvetica,sans-Serif" font-size="10.00">QuantConnect.Notifications.</text>
<text text-anchor="middle" x="220" y="-732.5" font-family="Helvetica,sans-Serif" font-size="10.00">NotificationJsonConverter</text>
</a>
</g>
</g>
<!-- Node1421&#45;&gt;Node1428 -->
<g id="edge7" class="edge">
<title>Node1421&#45;&gt;Node1428</title>
<path fill="none" stroke="midnightblue" d="M45.33,-539.02C50.12,-578.71 66.72,-669.08 121,-716.5 127.46,-722.15 135.04,-726.51 143.08,-729.88"/>
<polygon fill="midnightblue" stroke="midnightblue" points="48.8,-538.6 44.25,-529.04 41.85,-539.36 48.8,-538.6"/>
</g>
<!-- Node1429 -->
<g id="node9" class="node">
<title>Node1429</title>
<g id="a_node9"><a xlink:href="classQuantConnect_1_1Optimizer_1_1Parameters_1_1OptimizationParameterJsonConverter.html" target="_top" xlink:title="Override OptimizationParameter deserialization method. Can handle OptimizationArrayParameter and Opti...">
<polygon fill="white" stroke="black" points="121,-676.5 121,-706.5 319,-706.5 319,-676.5 121,-676.5"/>
<text text-anchor="start" x="129" y="-694.5" font-family="Helvetica,sans-Serif" font-size="10.00">QuantConnect.Optimizer.Parameters.</text>
<text text-anchor="middle" x="220" y="-683.5" font-family="Helvetica,sans-Serif" font-size="10.00">OptimizationParameterJsonConverter</text>
</a>
</g>
</g>
<!-- Node1421&#45;&gt;Node1429 -->
<g id="edge8" class="edge">
<title>Node1421&#45;&gt;Node1429</title>
<path fill="none" stroke="midnightblue" d="M48.18,-539.15C56.84,-571.14 78.51,-634.23 121,-667.5 125.41,-670.96 130.25,-673.92 135.35,-676.47"/>
<polygon fill="midnightblue" stroke="midnightblue" points="51.51,-538.06 45.64,-529.24 44.73,-539.79 51.51,-538.06"/>
</g>
<!-- Node1430 -->
<g id="node10" class="node">
<title>Node1430</title>
<g id="a_node10"><a xlink:href="classQuantConnect_1_1Orders_1_1OrderJsonConverter.html" target="_top" xlink:title="Provides an implementation of JsonConverter that can deserialize Orders">
<polygon fill="white" stroke="black" points="144.5,-627.5 144.5,-657.5 295.5,-657.5 295.5,-627.5 144.5,-627.5"/>
<text text-anchor="start" x="152.5" y="-645.5" font-family="Helvetica,sans-Serif" font-size="10.00">QuantConnect.Orders.Order</text>
<text text-anchor="middle" x="220" y="-634.5" font-family="Helvetica,sans-Serif" font-size="10.00">JsonConverter</text>
</a>
</g>
</g>
<!-- Node1421&#45;&gt;Node1430 -->
<g id="edge9" class="edge">
<title>Node1421&#45;&gt;Node1430</title>
<path fill="none" stroke="midnightblue" d="M52.96,-538.06C65.43,-560.62 89.53,-598.18 121,-618.5 128.14,-623.11 136.09,-626.83 144.29,-629.84"/>
<polygon fill="midnightblue" stroke="midnightblue" points="55.99,-536.31 48.2,-529.13 49.81,-539.61 55.99,-536.31"/>
</g>
<!-- Node1431 -->
<g id="node11" class="node">
<title>Node1431</title>
<g id="a_node11"><a xlink:href="classQuantConnect_1_1Orders_1_1TimeInForceJsonConverter.html" target="_top" xlink:title="Provides an implementation of JsonConverter that can deserialize TimeInForce objects">
<polygon fill="white" stroke="black" points="145.5,-578.5 145.5,-608.5 294.5,-608.5 294.5,-578.5 145.5,-578.5"/>
<text text-anchor="start" x="153.5" y="-596.5" font-family="Helvetica,sans-Serif" font-size="10.00">QuantConnect.Orders.Time</text>
<text text-anchor="middle" x="220" y="-585.5" font-family="Helvetica,sans-Serif" font-size="10.00">InForceJsonConverter</text>
</a>
</g>
</g>
<!-- Node1421&#45;&gt;Node1431 -->
<g id="edge10" class="edge">
<title>Node1421&#45;&gt;Node1431</title>
<path fill="none" stroke="midnightblue" d="M63.73,-535.24C78.78,-546.26 100.22,-560.55 121,-569.5 128.88,-572.89 137.34,-575.87 145.86,-578.46"/>
<polygon fill="midnightblue" stroke="midnightblue" points="65.76,-532.39 55.66,-529.19 61.56,-537.99 65.76,-532.39"/>
</g>
<!-- Node1432 -->
<g id="node12" class="node">
<title>Node1432</title>
<g id="a_node12"><a xlink:href="classQuantConnect_1_1Report_1_1NullResultValueTypeJsonConverter.html" target="_top" xlink:title="Removes null values in the Result object&#39;s x,y values so that deserialization can occur without excep...">
<polygon fill="white" stroke="black" points="123,-529.5 123,-559.5 317,-559.5 317,-529.5 123,-529.5"/>
<text text-anchor="start" x="131" y="-547.5" font-family="Helvetica,sans-Serif" font-size="10.00">QuantConnect.Report.Null</text>
<text text-anchor="middle" x="220" y="-536.5" font-family="Helvetica,sans-Serif" font-size="10.00">ResultValueTypeJsonConverter&lt; T &gt;</text>
</a>
</g>
</g>
<!-- Node1421&#45;&gt;Node1432 -->
<g id="edge11" class="edge">
<title>Node1421&#45;&gt;Node1432</title>
<path fill="none" stroke="midnightblue" d="M95.17,-526.86C104.01,-528.12 113.44,-529.46 123,-530.82"/>
<polygon fill="midnightblue" stroke="midnightblue" points="95.48,-523.37 85.09,-525.42 94.5,-530.3 95.48,-523.37"/>
</g>
<!-- Node1433 -->
<g id="node13" class="node">
<title>Node1433</title>
<g id="a_node13"><a xlink:href="classQuantConnect_1_1Report_1_1OrderTypeNormalizingJsonConverter.html" target="_top" xlink:title="Normalizes the &quot;Type&quot; field to a value that will allow for successful deserialization in the OrderJso...">
<polygon fill="white" stroke="black" points="136.5,-480.5 136.5,-510.5 303.5,-510.5 303.5,-480.5 136.5,-480.5"/>
<text text-anchor="start" x="144.5" y="-498.5" font-family="Helvetica,sans-Serif" font-size="10.00">QuantConnect.Report.Order</text>
<text text-anchor="middle" x="220" y="-487.5" font-family="Helvetica,sans-Serif" font-size="10.00">TypeNormalizingJsonConverter</text>
</a>
</g>
</g>
<!-- Node1421&#45;&gt;Node1433 -->
<g id="edge12" class="edge">
<title>Node1421&#45;&gt;Node1433</title>
<path fill="none" stroke="midnightblue" d="M95.17,-512.43C108.11,-510.67 122.31,-508.72 136.34,-506.8"/>
<polygon fill="midnightblue" stroke="midnightblue" points="94.52,-508.99 85.09,-513.81 95.47,-515.93 94.52,-508.99"/>
</g>
<!-- Node1434 -->
<g id="node14" class="node">
<title>Node1434</title>
<g id="a_node14"><a xlink:href="classQuantConnect_1_1ScatterChartPointJsonConverter.html" target="_top" xlink:title="ScatterChartPoint json converter">
<polygon fill="white" stroke="black" points="145.5,-431.5 145.5,-461.5 294.5,-461.5 294.5,-431.5 145.5,-431.5"/>
<text text-anchor="start" x="153.5" y="-449.5" font-family="Helvetica,sans-Serif" font-size="10.00">QuantConnect.ScatterChart</text>
<text text-anchor="middle" x="220" y="-438.5" font-family="Helvetica,sans-Serif" font-size="10.00">PointJsonConverter</text>
</a>
</g>
</g>
<!-- Node1421&#45;&gt;Node1434 -->
<g id="edge13" class="edge">
<title>Node1421&#45;&gt;Node1434</title>
<path fill="none" stroke="midnightblue" d="M64.81,-503.82C79.86,-493.39 100.86,-480.07 121,-471.5 129.89,-467.72 139.48,-464.41 149.06,-461.54"/>
<polygon fill="midnightblue" stroke="midnightblue" points="62.4,-501.24 56.27,-509.88 66.45,-506.95 62.4,-501.24"/>
</g>
<!-- Node1435 -->
<g id="node15" class="node">
<title>Node1435</title>
<g id="a_node15"><a xlink:href="classQuantConnect_1_1SymbolJsonConverter.html" target="_top" xlink:title="Defines a JsonConverter to be used when deserializing to the Symbol class.">
<polygon fill="white" stroke="black" points="123,-393 123,-412 317,-412 317,-393 123,-393"/>
<text text-anchor="middle" x="220" y="-400" font-family="Helvetica,sans-Serif" font-size="10.00">QuantConnect.SymbolJsonConverter</text>
</a>
</g>
</g>
<!-- Node1421&#45;&gt;Node1435 -->
<g id="edge14" class="edge">
<title>Node1421&#45;&gt;Node1435</title>
<path fill="none" stroke="midnightblue" d="M52.93,-501.12C65.37,-478.81 89.45,-441.8 121,-422.5 128.11,-418.15 136,-414.73 144.13,-412.04"/>
<polygon fill="midnightblue" stroke="midnightblue" points="49.83,-499.48 48.18,-509.95 56,-502.8 49.83,-499.48"/>
</g>
<!-- Node1436 -->
<g id="node16" class="node">
<title>Node1436</title>
<g id="a_node16"><a xlink:href="classQuantConnect_1_1SymbolValueJsonConverter.html" target="_top" xlink:title="Defines a JsonConverter to be used when you only want to serialize the Symbol.Value property instead ...">
<polygon fill="white" stroke="black" points="144,-343.5 144,-373.5 296,-373.5 296,-343.5 144,-343.5"/>
<text text-anchor="start" x="152" y="-361.5" font-family="Helvetica,sans-Serif" font-size="10.00">QuantConnect.SymbolValue</text>
<text text-anchor="middle" x="220" y="-350.5" font-family="Helvetica,sans-Serif" font-size="10.00">JsonConverter</text>
</a>
</g>
</g>
<!-- Node1421&#45;&gt;Node1436 -->
<g id="edge15" class="edge">
<title>Node1421&#45;&gt;Node1436</title>
<path fill="none" stroke="midnightblue" d="M49.09,-500.21C58.73,-470.48 81.35,-413.73 121,-383.5 127.84,-378.28 135.66,-374.15 143.82,-370.87"/>
<polygon fill="midnightblue" stroke="midnightblue" points="45.72,-499.26 46.12,-509.85 52.41,-501.32 45.72,-499.26"/>
</g>
<!-- Node1437 -->
<g id="node17" class="node">
<title>Node1437</title>
<g id="a_node17"><a xlink:href="classQuantConnect_1_1Util_1_1CandlestickJsonConverter.html" target="_top" xlink:title="Candlestick Json Converter">
<polygon fill="white" stroke="black" points="137,-294.5 137,-324.5 303,-324.5 303,-294.5 137,-294.5"/>
<text text-anchor="start" x="145" y="-312.5" font-family="Helvetica,sans-Serif" font-size="10.00">QuantConnect.Util.Candlestick</text>
<text text-anchor="middle" x="220" y="-301.5" font-family="Helvetica,sans-Serif" font-size="10.00">JsonConverter</text>
</a>
</g>
</g>
<!-- Node1421&#45;&gt;Node1437 -->
<g id="edge16" class="edge">
<title>Node1421&#45;&gt;Node1437</title>
<path fill="none" stroke="midnightblue" d="M46.02,-499.4C51.9,-461.29 70.11,-378.41 121,-334.5 125.79,-330.37 131.16,-326.91 136.87,-324.01"/>
<polygon fill="midnightblue" stroke="midnightblue" points="42.5,-499.31 44.57,-509.7 49.43,-500.28 42.5,-499.31"/>
</g>
<!-- Node1438 -->
<g id="node18" class="node">
<title>Node1438</title>
<g id="a_node18"><a xlink:href="classQuantConnect_1_1Util_1_1ChartPointJsonConverter.html" target="_top" xlink:title="Json Converter for ChartPoint which handles special reading">
<polygon fill="white" stroke="black" points="140,-245.5 140,-275.5 300,-275.5 300,-245.5 140,-245.5"/>
<text text-anchor="start" x="148" y="-263.5" font-family="Helvetica,sans-Serif" font-size="10.00">QuantConnect.Util.ChartPoint</text>
<text text-anchor="middle" x="220" y="-252.5" font-family="Helvetica,sans-Serif" font-size="10.00">JsonConverter</text>
</a>
</g>
</g>
<!-- Node1421&#45;&gt;Node1438 -->
<g id="edge17" class="edge">
<title>Node1421&#45;&gt;Node1438</title>
<path fill="none" stroke="midnightblue" d="M44,-499.55C46.24,-454.45 58.23,-344.02 121,-285.5 126.52,-280.35 132.95,-276.23 139.84,-272.93"/>
<polygon fill="midnightblue" stroke="midnightblue" points="40.49,-499.64 43.61,-509.77 47.49,-499.91 40.49,-499.64"/>
</g>
<!-- Node1439 -->
<g id="node19" class="node">
<title>Node1439</title>
<g id="a_node19"><a xlink:href="classQuantConnect_1_1Util_1_1JsonRoundingConverter.html" target="_top" xlink:title="Helper JsonConverter that will round decimal and double types, to FractionalDigits fractional digits">
<polygon fill="white" stroke="black" points="132.5,-196.5 132.5,-226.5 307.5,-226.5 307.5,-196.5 132.5,-196.5"/>
<text text-anchor="start" x="140.5" y="-214.5" font-family="Helvetica,sans-Serif" font-size="10.00">QuantConnect.Util.JsonRounding</text>
<text text-anchor="middle" x="220" y="-203.5" font-family="Helvetica,sans-Serif" font-size="10.00">Converter</text>
</a>
</g>
</g>
<!-- Node1421&#45;&gt;Node1439 -->
<g id="edge18" class="edge">
<title>Node1421&#45;&gt;Node1439</title>
<path fill="none" stroke="midnightblue" d="M42.65,-499.69C41.58,-448.38 46.18,-310.02 121,-236.5 124.88,-232.68 129.26,-229.43 133.96,-226.65"/>
<polygon fill="midnightblue" stroke="midnightblue" points="39.15,-499.89 42.96,-509.77 46.15,-499.67 39.15,-499.89"/>
</g>
<!-- Node1440 -->
<g id="node20" class="node">
<title>Node1440</title>
<g id="a_node20"><a xlink:href="classQuantConnect_1_1Util_1_1NullStringValueConverter.html" target="_top" xlink:title="Converts the string &quot;null&quot; into a new instance of T. This converter only handles deserialization conc...">
<polygon fill="white" stroke="black" points="141.5,-147.5 141.5,-177.5 298.5,-177.5 298.5,-147.5 141.5,-147.5"/>
<text text-anchor="start" x="149.5" y="-165.5" font-family="Helvetica,sans-Serif" font-size="10.00">QuantConnect.Util.NullString</text>
<text text-anchor="middle" x="220" y="-154.5" font-family="Helvetica,sans-Serif" font-size="10.00">ValueConverter&lt; T &gt;</text>
</a>
</g>
</g>
<!-- Node1421&#45;&gt;Node1440 -->
<g id="edge19" class="edge">
<title>Node1421&#45;&gt;Node1440</title>
<path fill="none" stroke="midnightblue" d="M45.44,-499.83C52.16,-435.5 76.55,-232.87 121,-187.5 126.78,-181.61 133.73,-177.03 141.25,-173.49"/>
<polygon fill="midnightblue" stroke="midnightblue" points="41.95,-499.56 44.42,-509.86 48.91,-500.27 41.95,-499.56"/>
</g>
<!-- Node1441 -->
<g id="node21" class="node">
<title>Node1441</title>
<g id="a_node21"><a xlink:href="classQuantConnect_1_1Util_1_1SeriesJsonConverter.html" target="_top" xlink:title="Json Converter for Series which handles special Pie Series serialization case">
<polygon fill="white" stroke="black" points="150.5,-98.5 150.5,-128.5 289.5,-128.5 289.5,-98.5 150.5,-98.5"/>
<text text-anchor="start" x="158.5" y="-116.5" font-family="Helvetica,sans-Serif" font-size="10.00">QuantConnect.Util.Series</text>
<text text-anchor="middle" x="220" y="-105.5" font-family="Helvetica,sans-Serif" font-size="10.00">JsonConverter</text>
</a>
</g>
</g>
<!-- Node1421&#45;&gt;Node1441 -->
<g id="edge20" class="edge">
<title>Node1421&#45;&gt;Node1441</title>
<path fill="none" stroke="midnightblue" d="M44.8,-499.75C49.85,-429.29 70.41,-191.64 121,-138.5 128.99,-130.11 139.38,-124.38 150.39,-120.5"/>
<polygon fill="midnightblue" stroke="midnightblue" points="41.3,-499.68 44.1,-509.9 48.28,-500.17 41.3,-499.68"/>
</g>
<!-- Node1442 -->
<g id="node22" class="node">
<title>Node1442</title>
<g id="a_node22"><a xlink:href="classQuantConnect_1_1Util_1_1SingleValueListConverter.html" target="_top" xlink:title="Reads json and always produces a List, even if the input has just an object">
<polygon fill="white" stroke="black" points="150.5,-49.5 150.5,-79.5 289.5,-79.5 289.5,-49.5 150.5,-49.5"/>
<text text-anchor="start" x="158.5" y="-67.5" font-family="Helvetica,sans-Serif" font-size="10.00">QuantConnect.Util.Single</text>
<text text-anchor="middle" x="220" y="-56.5" font-family="Helvetica,sans-Serif" font-size="10.00">ValueListConverter&lt; T &gt;</text>
</a>
</g>
</g>
<!-- Node1421&#45;&gt;Node1442 -->
<g id="edge21" class="edge">
<title>Node1421&#45;&gt;Node1442</title>
<path fill="none" stroke="midnightblue" d="M44.31,-499.71C47.82,-423.55 64.22,-150.49 121,-89.5 128.96,-80.95 139.39,-75.16 150.48,-71.27"/>
<polygon fill="midnightblue" stroke="midnightblue" points="40.8,-499.69 43.86,-509.83 47.8,-500 40.8,-499.69"/>
</g>
<!-- Node1443 -->
<g id="node23" class="node">
<title>Node1443</title>
<g id="a_node23"><a xlink:href="classQuantConnect_1_1Util_1_1TypeChangeJsonConverter.html" target="_top" xlink:title="Provides a base class for a JsonConverter that serializes a an input type as some other output type">
<polygon fill="white" stroke="black" points="136,-0.5 136,-30.5 304,-30.5 304,-0.5 136,-0.5"/>
<text text-anchor="start" x="144" y="-18.5" font-family="Helvetica,sans-Serif" font-size="10.00">QuantConnect.Util.TypeChange</text>
<text text-anchor="middle" x="220" y="-7.5" font-family="Helvetica,sans-Serif" font-size="10.00">JsonConverter&lt; T, TResult &gt;</text>
</a>
</g>
</g>
<!-- Node1421&#45;&gt;Node1443 -->
<g id="edge22" class="edge">
<title>Node1421&#45;&gt;Node1443</title>
<path fill="none" stroke="midnightblue" d="M43.91,-499.61C46,-417.93 58.01,-109.38 121,-40.5 125.27,-35.84 130.27,-31.99 135.72,-28.82"/>
<polygon fill="midnightblue" stroke="midnightblue" points="40.4,-499.88 43.67,-509.96 47.4,-500.04 40.4,-499.88"/>
</g>
</g>
</svg>
