<?xml version="1.0" encoding="UTF-8" standalone="no"?>
<!DOCTYPE svg PUBLIC "-//W3C//DTD SVG 1.1//EN"
 "http://www.w3.org/Graphics/SVG/1.1/DTD/svg11.dtd">
<!-- Generated by graphviz version 2.43.0 (0)
 -->
<!-- Title: Graphical Class Hierarchy Pages: 1 -->
<svg width="568pt" height="431pt"
 viewBox="0.00 0.00 568.00 431.00" xmlns="http://www.w3.org/2000/svg" xmlns:xlink="http://www.w3.org/1999/xlink">
<g id="graph0" class="graph" transform="scale(1 1) rotate(0) translate(4 427)">
<title>Graphical Class Hierarchy</title>
<polygon fill="white" stroke="transparent" points="-4,4 -4,-427 564,-427 564,4 -4,4"/>
<!-- Node0 -->
<g id="node1" class="node">
<title>Node0</title>
<g id="a_node1"><a xlink:href="interfaceQuantConnect_1_1Interfaces_1_1IOrderProperties.html" target="_top" xlink:title="Contains additional properties and settings for an order">
<polygon fill="white" stroke="black" points="0,-220.5 0,-250.5 140,-250.5 140,-220.5 0,-220.5"/>
<text text-anchor="start" x="8" y="-238.5" font-family="Helvetica,sans-Serif" font-size="10.00">QuantConnect.Interfaces.</text>
<text text-anchor="middle" x="70" y="-227.5" font-family="Helvetica,sans-Serif" font-size="10.00">IOrderProperties</text>
</a>
</g>
</g>
<!-- Node1 -->
<g id="node2" class="node">
<title>Node1</title>
<g id="a_node2"><a xlink:href="classQuantConnect_1_1Orders_1_1AtreyuOrderProperties.html" target="_top" xlink:title="Contains additional properties and settings for an order submitted to Atreyu brokerage">
<polygon fill="white" stroke="black" points="176,-245.5 176,-275.5 332,-275.5 332,-245.5 176,-245.5"/>
<text text-anchor="start" x="184" y="-263.5" font-family="Helvetica,sans-Serif" font-size="10.00">QuantConnect.Orders.Atreyu</text>
<text text-anchor="middle" x="254" y="-252.5" font-family="Helvetica,sans-Serif" font-size="10.00">OrderProperties</text>
</a>
</g>
</g>
<!-- Node0&#45;&gt;Node1 -->
<g id="edge1" class="edge">
<title>Node0&#45;&gt;Node1</title>
<path fill="none" stroke="midnightblue" d="M150.01,-246.35C158.55,-247.53 167.24,-248.72 175.76,-249.89"/>
<polygon fill="midnightblue" stroke="midnightblue" points="150.45,-242.88 140.07,-244.99 149.5,-249.82 150.45,-242.88"/>
</g>
<!-- Node2 -->
<g id="node3" class="node">
<title>Node2</title>
<g id="a_node3"><a xlink:href="classQuantConnect_1_1Orders_1_1OrderProperties.html" target="_top" xlink:title="Contains additional properties and settings for an order">
<polygon fill="white" stroke="black" points="178.5,-196.5 178.5,-226.5 329.5,-226.5 329.5,-196.5 178.5,-196.5"/>
<text text-anchor="start" x="186.5" y="-214.5" font-family="Helvetica,sans-Serif" font-size="10.00">QuantConnect.Orders.Order</text>
<text text-anchor="middle" x="254" y="-203.5" font-family="Helvetica,sans-Serif" font-size="10.00">Properties</text>
</a>
</g>
</g>
<!-- Node0&#45;&gt;Node2 -->
<g id="edge2" class="edge">
<title>Node0&#45;&gt;Node2</title>
<path fill="none" stroke="midnightblue" d="M150.11,-225.07C159.44,-223.84 168.94,-222.58 178.21,-221.36"/>
<polygon fill="midnightblue" stroke="midnightblue" points="149.52,-221.61 140.07,-226.39 150.44,-228.55 149.52,-221.61"/>
</g>
<!-- Node3 -->
<g id="node4" class="node">
<title>Node3</title>
<g id="a_node4"><a xlink:href="classQuantConnect_1_1Orders_1_1BinanceOrderProperties.html" target="_top" xlink:title="Contains additional properties and settings for an order submitted to Binance brokerage">
<polygon fill="white" stroke="black" points="382.5,-392.5 382.5,-422.5 545.5,-422.5 545.5,-392.5 382.5,-392.5"/>
<text text-anchor="start" x="390.5" y="-410.5" font-family="Helvetica,sans-Serif" font-size="10.00">QuantConnect.Orders.Binance</text>
<text text-anchor="middle" x="464" y="-399.5" font-family="Helvetica,sans-Serif" font-size="10.00">OrderProperties</text>
</a>
</g>
</g>
<!-- Node2&#45;&gt;Node3 -->
<g id="edge3" class="edge">
<title>Node2&#45;&gt;Node3</title>
<path fill="none" stroke="midnightblue" d="M328.15,-232.77C329.5,-233.95 330.78,-235.19 332,-236.5 377.78,-285.78 320.61,-335.76 368,-383.5 372.19,-387.73 377.02,-391.24 382.22,-394.17"/>
<polygon fill="midnightblue" stroke="midnightblue" points="330.01,-229.79 319.87,-226.72 325.88,-235.45 330.01,-229.79"/>
</g>
<!-- Node4 -->
<g id="node5" class="node">
<title>Node4</title>
<g id="a_node5"><a xlink:href="classQuantConnect_1_1Orders_1_1BitfinexOrderProperties.html" target="_top" xlink:title="Contains additional properties and settings for an order submitted to Bitfinex brokerage">
<polygon fill="white" stroke="black" points="383.5,-343.5 383.5,-373.5 544.5,-373.5 544.5,-343.5 383.5,-343.5"/>
<text text-anchor="start" x="391.5" y="-361.5" font-family="Helvetica,sans-Serif" font-size="10.00">QuantConnect.Orders.Bitfinex</text>
<text text-anchor="middle" x="464" y="-350.5" font-family="Helvetica,sans-Serif" font-size="10.00">OrderProperties</text>
</a>
</g>
</g>
<!-- Node2&#45;&gt;Node4 -->
<g id="edge4" class="edge">
<title>Node2&#45;&gt;Node4</title>
<path fill="none" stroke="midnightblue" d="M326.78,-232.04C328.61,-233.43 330.35,-234.92 332,-236.5 365.43,-268.68 333.52,-303.45 368,-334.5 372.55,-338.6 377.7,-342.02 383.19,-344.87"/>
<polygon fill="midnightblue" stroke="midnightblue" points="328.59,-229.05 318.3,-226.53 324.78,-234.92 328.59,-229.05"/>
</g>
<!-- Node5 -->
<g id="node6" class="node">
<title>Node5</title>
<g id="a_node6"><a xlink:href="classQuantConnect_1_1Orders_1_1FTXOrderProperties.html" target="_top" xlink:title="Contains additional properties and settings for an order submitted to FTX brokerage">
<polygon fill="white" stroke="black" points="380,-294.5 380,-324.5 548,-324.5 548,-294.5 380,-294.5"/>
<text text-anchor="start" x="388" y="-312.5" font-family="Helvetica,sans-Serif" font-size="10.00">QuantConnect.Orders.FTXOrder</text>
<text text-anchor="middle" x="464" y="-301.5" font-family="Helvetica,sans-Serif" font-size="10.00">Properties</text>
</a>
</g>
</g>
<!-- Node2&#45;&gt;Node5 -->
<g id="edge5" class="edge">
<title>Node2&#45;&gt;Node5</title>
<path fill="none" stroke="midnightblue" d="M323.55,-231.12C326.49,-232.78 329.32,-234.57 332,-236.5 353.91,-252.32 345.58,-270.41 368,-285.5 373.08,-288.92 378.61,-291.85 384.36,-294.37"/>
<polygon fill="midnightblue" stroke="midnightblue" points="324.97,-227.92 314.46,-226.55 321.82,-234.17 324.97,-227.92"/>
</g>
<!-- Node6 -->
<g id="node7" class="node">
<title>Node6</title>
<g id="a_node7"><a xlink:href="classQuantConnect_1_1Orders_1_1GDAXOrderProperties.html" target="_top" xlink:title="Contains additional properties and settings for an order submitted to GDAX brokerage">
<polygon fill="white" stroke="black" points="374.5,-245.5 374.5,-275.5 553.5,-275.5 553.5,-245.5 374.5,-245.5"/>
<text text-anchor="start" x="382.5" y="-263.5" font-family="Helvetica,sans-Serif" font-size="10.00">QuantConnect.Orders.GDAXOrder</text>
<text text-anchor="middle" x="464" y="-252.5" font-family="Helvetica,sans-Serif" font-size="10.00">Properties</text>
</a>
</g>
</g>
<!-- Node2&#45;&gt;Node6 -->
<g id="edge6" class="edge">
<title>Node2&#45;&gt;Node6</title>
<path fill="none" stroke="midnightblue" d="M328.57,-228.83C351.66,-234.27 376.95,-240.23 399.3,-245.49"/>
<polygon fill="midnightblue" stroke="midnightblue" points="329.36,-225.42 318.82,-226.53 327.75,-232.23 329.36,-225.42"/>
</g>
<!-- Node7 -->
<g id="node8" class="node">
<title>Node7</title>
<g id="a_node8"><a xlink:href="classQuantConnect_1_1Orders_1_1IndiaOrderProperties.html" target="_top" xlink:title="Contains additional properties and settings for an order submitted to Indian Brokerages">
<polygon fill="white" stroke="black" points="390,-196.5 390,-226.5 538,-226.5 538,-196.5 390,-196.5"/>
<text text-anchor="start" x="398" y="-214.5" font-family="Helvetica,sans-Serif" font-size="10.00">QuantConnect.Orders.India</text>
<text text-anchor="middle" x="464" y="-203.5" font-family="Helvetica,sans-Serif" font-size="10.00">OrderProperties</text>
</a>
</g>
</g>
<!-- Node2&#45;&gt;Node7 -->
<g id="edge7" class="edge">
<title>Node2&#45;&gt;Node7</title>
<path fill="none" stroke="midnightblue" d="M339.72,-211.5C356.3,-211.5 373.55,-211.5 389.71,-211.5"/>
<polygon fill="midnightblue" stroke="midnightblue" points="339.51,-208 329.51,-211.5 339.51,-215 339.51,-208"/>
</g>
<!-- Node8 -->
<g id="node9" class="node">
<title>Node8</title>
<g id="a_node9"><a xlink:href="classQuantConnect_1_1Orders_1_1InteractiveBrokersOrderProperties.html" target="_top" xlink:title="Contains additional properties and settings for an order submitted to Interactive Brokers">
<polygon fill="white" stroke="black" points="376,-147.5 376,-177.5 552,-177.5 552,-147.5 376,-147.5"/>
<text text-anchor="start" x="384" y="-165.5" font-family="Helvetica,sans-Serif" font-size="10.00">QuantConnect.Orders.Interactive</text>
<text text-anchor="middle" x="464" y="-154.5" font-family="Helvetica,sans-Serif" font-size="10.00">BrokersOrderProperties</text>
</a>
</g>
</g>
<!-- Node2&#45;&gt;Node8 -->
<g id="edge8" class="edge">
<title>Node2&#45;&gt;Node8</title>
<path fill="none" stroke="midnightblue" d="M328.57,-194.17C351.66,-188.73 376.95,-182.77 399.3,-177.51"/>
<polygon fill="midnightblue" stroke="midnightblue" points="327.75,-190.77 318.82,-196.47 329.36,-197.58 327.75,-190.77"/>
</g>
<!-- Node9 -->
<g id="node10" class="node">
<title>Node9</title>
<g id="a_node10"><a xlink:href="classQuantConnect_1_1Orders_1_1KrakenOrderProperties.html" target="_top" xlink:title="Kraken order properties">
<polygon fill="white" stroke="black" points="385,-98.5 385,-128.5 543,-128.5 543,-98.5 385,-98.5"/>
<text text-anchor="start" x="393" y="-116.5" font-family="Helvetica,sans-Serif" font-size="10.00">QuantConnect.Orders.Kraken</text>
<text text-anchor="middle" x="464" y="-105.5" font-family="Helvetica,sans-Serif" font-size="10.00">OrderProperties</text>
</a>
</g>
</g>
<!-- Node2&#45;&gt;Node9 -->
<g id="edge9" class="edge">
<title>Node2&#45;&gt;Node9</title>
<path fill="none" stroke="midnightblue" d="M282.53,-190.16C304.58,-173.97 336.87,-152.23 368,-138.5 376.58,-134.71 385.86,-131.4 395.14,-128.53"/>
<polygon fill="midnightblue" stroke="midnightblue" points="280.24,-187.5 274.32,-196.28 284.43,-193.11 280.24,-187.5"/>
</g>
<!-- Node10 -->
<g id="node11" class="node">
<title>Node10</title>
<g id="a_node11"><a xlink:href="classQuantConnect_1_1Orders_1_1TDAmeritradeOrderProperties.html" target="_top" xlink:title="TDAmeritrade order properties">
<polygon fill="white" stroke="black" points="368,-49.5 368,-79.5 560,-79.5 560,-49.5 368,-49.5"/>
<text text-anchor="start" x="376" y="-67.5" font-family="Helvetica,sans-Serif" font-size="10.00">QuantConnect.Orders.TDAmeritrade</text>
<text text-anchor="middle" x="464" y="-56.5" font-family="Helvetica,sans-Serif" font-size="10.00">OrderProperties</text>
</a>
</g>
</g>
<!-- Node2&#45;&gt;Node10 -->
<g id="edge10" class="edge">
<title>Node2&#45;&gt;Node10</title>
<path fill="none" stroke="midnightblue" d="M270.57,-187.82C290.05,-160.07 326.01,-114.7 368,-89.5 374.43,-85.64 381.46,-82.37 388.69,-79.59"/>
<polygon fill="midnightblue" stroke="midnightblue" points="267.61,-185.94 264.83,-196.16 273.38,-189.9 267.61,-185.94"/>
</g>
<!-- Node11 -->
<g id="node12" class="node">
<title>Node11</title>
<g id="a_node12"><a xlink:href="classQuantConnect_1_1Orders_1_1WolverineOrderProperties.html" target="_top" xlink:title="Wolverine order properties">
<polygon fill="white" stroke="black" points="377.5,-0.5 377.5,-30.5 550.5,-30.5 550.5,-0.5 377.5,-0.5"/>
<text text-anchor="start" x="385.5" y="-18.5" font-family="Helvetica,sans-Serif" font-size="10.00">QuantConnect.Orders.Wolverine</text>
<text text-anchor="middle" x="464" y="-7.5" font-family="Helvetica,sans-Serif" font-size="10.00">OrderProperties</text>
</a>
</g>
</g>
<!-- Node2&#45;&gt;Node11 -->
<g id="edge11" class="edge">
<title>Node2&#45;&gt;Node11</title>
<path fill="none" stroke="midnightblue" d="M264.46,-186.86C280.15,-149.38 315.13,-78.41 368,-40.5 373.41,-36.62 379.37,-33.35 385.59,-30.58"/>
<polygon fill="midnightblue" stroke="midnightblue" points="261.07,-185.9 260.55,-196.49 267.56,-188.54 261.07,-185.9"/>
</g>
</g>
</svg>
