<?xml version="1.0" encoding="UTF-8" standalone="no"?>
<!DOCTYPE svg PUBLIC "-//W3C//DTD SVG 1.1//EN"
 "http://www.w3.org/Graphics/SVG/1.1/DTD/svg11.dtd">
<!-- Generated by graphviz version 2.43.0 (0)
 -->
<!-- Title: Graphical Class Hierarchy Pages: 1 -->
<svg width="560pt" height="748pt"
 viewBox="0.00 0.00 560.00 748.00" xmlns="http://www.w3.org/2000/svg" xmlns:xlink="http://www.w3.org/1999/xlink">
<g id="graph0" class="graph" transform="scale(1 1) rotate(0) translate(4 744)">
<title>Graphical Class Hierarchy</title>
<polygon fill="white" stroke="transparent" points="-4,4 -4,-744 556,-744 556,4 -4,4"/>
<!-- Node2441 -->
<g id="node1" class="node">
<title>Node2441</title>
<g id="a_node1"><a xlink:title=" ">
<polygon fill="white" stroke="#bfbfbf" points="0,-372 0,-391 66,-391 66,-372 0,-372"/>
<text text-anchor="middle" x="33" y="-379" font-family="Helvetica,sans-Serif" font-size="10.00">EventArgs</text>
</a>
</g>
</g>
<!-- Node0 -->
<g id="node2" class="node">
<title>Node0</title>
<g id="a_node2"><a xlink:href="classQuantConnect_1_1Brokerages_1_1BestBidAskUpdatedEventArgs.html" target="_top" xlink:title="Event arguments class for the DefaultOrderBook.BestBidAskUpdated event">
<polygon fill="white" stroke="black" points="134,-709.5 134,-739.5 297,-739.5 297,-709.5 134,-709.5"/>
<text text-anchor="start" x="142" y="-727.5" font-family="Helvetica,sans-Serif" font-size="10.00">QuantConnect.Brokerages.</text>
<text text-anchor="middle" x="215.5" y="-716.5" font-family="Helvetica,sans-Serif" font-size="10.00">BestBidAskUpdatedEventArgs</text>
</a>
</g>
</g>
<!-- Node2441&#45;&gt;Node0 -->
<g id="edge1" class="edge">
<title>Node2441&#45;&gt;Node0</title>
<path fill="none" stroke="midnightblue" d="M35.45,-401.25C40.48,-464.07 59.22,-657.71 102,-700.5 110.83,-709.33 122.05,-715.27 133.97,-719.22"/>
<polygon fill="midnightblue" stroke="midnightblue" points="38.93,-400.81 34.67,-391.1 31.95,-401.34 38.93,-400.81"/>
</g>
<!-- Node2443 -->
<g id="node3" class="node">
<title>Node2443</title>
<g id="a_node3"><a xlink:href="classQuantConnect_1_1Brokerages_1_1OptionNotificationEventArgs.html" target="_top" xlink:title="Event arguments class for the IBrokerage.OptionNotification event">
<polygon fill="white" stroke="black" points="138,-660.5 138,-690.5 293,-690.5 293,-660.5 138,-660.5"/>
<text text-anchor="start" x="146" y="-678.5" font-family="Helvetica,sans-Serif" font-size="10.00">QuantConnect.Brokerages.</text>
<text text-anchor="middle" x="215.5" y="-667.5" font-family="Helvetica,sans-Serif" font-size="10.00">OptionNotificationEventArgs</text>
</a>
</g>
</g>
<!-- Node2441&#45;&gt;Node2443 -->
<g id="edge2" class="edge">
<title>Node2441&#45;&gt;Node2443</title>
<path fill="none" stroke="midnightblue" d="M36.26,-401.08C43.1,-457.11 65.46,-616.27 102,-651.5 111.92,-661.06 124.67,-667.22 137.99,-671.1"/>
<polygon fill="midnightblue" stroke="midnightblue" points="39.72,-400.56 35.06,-391.05 32.77,-401.39 39.72,-400.56"/>
</g>
<!-- Node2444 -->
<g id="node4" class="node">
<title>Node2444</title>
<g id="a_node4"><a xlink:href="classQuantConnect_1_1Data_1_1SubscriptionDataConfig_1_1NewSymbolEventArgs.html" target="_top" xlink:title=" ">
<polygon fill="white" stroke="black" points="124.5,-611.5 124.5,-641.5 306.5,-641.5 306.5,-611.5 124.5,-611.5"/>
<text text-anchor="start" x="132.5" y="-629.5" font-family="Helvetica,sans-Serif" font-size="10.00">QuantConnect.Data.Subscription</text>
<text text-anchor="middle" x="215.5" y="-618.5" font-family="Helvetica,sans-Serif" font-size="10.00">DataConfig.NewSymbolEventArgs</text>
</a>
</g>
</g>
<!-- Node2441&#45;&gt;Node2444 -->
<g id="edge3" class="edge">
<title>Node2441&#45;&gt;Node2444</title>
<path fill="none" stroke="midnightblue" d="M33.85,-401.34C34.65,-444.73 43.02,-548.51 102,-602.5 108.56,-608.5 116.23,-613.14 124.44,-616.71"/>
<polygon fill="midnightblue" stroke="midnightblue" points="37.35,-401.21 33.78,-391.23 30.35,-401.25 37.35,-401.21"/>
</g>
<!-- Node2445 -->
<g id="node5" class="node">
<title>Node2445</title>
<g id="a_node5"><a xlink:href="classQuantConnect_1_1Data_1_1UniverseSelection_1_1Universe_1_1SelectionEventArgs.html" target="_top" xlink:title="Event fired when the universe selection changes">
<polygon fill="white" stroke="black" points="112.5,-562.5 112.5,-592.5 318.5,-592.5 318.5,-562.5 112.5,-562.5"/>
<text text-anchor="start" x="120.5" y="-580.5" font-family="Helvetica,sans-Serif" font-size="10.00">QuantConnect.Data.Universe</text>
<text text-anchor="middle" x="215.5" y="-569.5" font-family="Helvetica,sans-Serif" font-size="10.00">Selection.Universe.SelectionEventArgs</text>
</a>
</g>
</g>
<!-- Node2441&#45;&gt;Node2445 -->
<g id="edge4" class="edge">
<title>Node2441&#45;&gt;Node2445</title>
<path fill="none" stroke="midnightblue" d="M35.85,-401.3C40.33,-437.4 55.11,-513.82 102,-553.5 106.04,-556.92 110.45,-559.89 115.11,-562.46"/>
<polygon fill="midnightblue" stroke="midnightblue" points="39.3,-400.66 34.73,-391.1 32.34,-401.42 39.3,-400.66"/>
</g>
<!-- Node2446 -->
<g id="node6" class="node">
<title>Node2446</title>
<g id="a_node6"><a xlink:href="classQuantConnect_1_1DataProviderEventArgs.html" target="_top" xlink:title="Defines a base class for IDataProviderEvents">
<polygon fill="white" stroke="black" points="139.5,-513.5 139.5,-543.5 291.5,-543.5 291.5,-513.5 139.5,-513.5"/>
<text text-anchor="start" x="147.5" y="-531.5" font-family="Helvetica,sans-Serif" font-size="10.00">QuantConnect.DataProvider</text>
<text text-anchor="middle" x="215.5" y="-520.5" font-family="Helvetica,sans-Serif" font-size="10.00">EventArgs</text>
</a>
</g>
</g>
<!-- Node2441&#45;&gt;Node2446 -->
<g id="edge5" class="edge">
<title>Node2441&#45;&gt;Node2446</title>
<path fill="none" stroke="midnightblue" d="M39.2,-401.03C47.6,-428.6 66.87,-478.46 102,-504.5 112.91,-512.59 125.96,-518.07 139.25,-521.77"/>
<polygon fill="midnightblue" stroke="midnightblue" points="42.54,-399.99 36.42,-391.34 35.82,-401.92 42.54,-399.99"/>
</g>
<!-- Node2453 -->
<g id="node13" class="node">
<title>Node2453</title>
<g id="a_node13"><a xlink:href="classQuantConnect_1_1Indicators_1_1PivotPointsEventArgs.html" target="_top" xlink:title="Event arguments class for the PivotPointsHighLow.NewPivotPointFormed event">
<polygon fill="white" stroke="black" points="145.5,-464.5 145.5,-494.5 285.5,-494.5 285.5,-464.5 145.5,-464.5"/>
<text text-anchor="start" x="153.5" y="-482.5" font-family="Helvetica,sans-Serif" font-size="10.00">QuantConnect.Indicators.</text>
<text text-anchor="middle" x="215.5" y="-471.5" font-family="Helvetica,sans-Serif" font-size="10.00">PivotPointsEventArgs</text>
</a>
</g>
</g>
<!-- Node2441&#45;&gt;Node2453 -->
<g id="edge12" class="edge">
<title>Node2441&#45;&gt;Node2453</title>
<path fill="none" stroke="midnightblue" d="M45.87,-399.5C57.97,-416.35 78.28,-440.93 102,-454.5 115.2,-462.05 130.47,-467.32 145.43,-471"/>
<polygon fill="midnightblue" stroke="midnightblue" points="48.6,-397.28 40.03,-391.05 42.84,-401.26 48.6,-397.28"/>
</g>
<!-- Node2454 -->
<g id="node14" class="node">
<title>Node2454</title>
<g id="a_node14"><a xlink:href="classQuantConnect_1_1Interfaces_1_1DataProviderNewDataRequestEventArgs.html" target="_top" xlink:title="Event arguments for the IDataProvider.NewDataRequest event">
<polygon fill="white" stroke="black" points="108,-415.5 108,-445.5 323,-445.5 323,-415.5 108,-415.5"/>
<text text-anchor="start" x="116" y="-433.5" font-family="Helvetica,sans-Serif" font-size="10.00">QuantConnect.Interfaces.</text>
<text text-anchor="middle" x="215.5" y="-422.5" font-family="Helvetica,sans-Serif" font-size="10.00">DataProviderNewDataRequestEventArgs</text>
</a>
</g>
</g>
<!-- Node2441&#45;&gt;Node2454 -->
<g id="edge13" class="edge">
<title>Node2441&#45;&gt;Node2454</title>
<path fill="none" stroke="midnightblue" d="M68.11,-394.44C78.87,-398.28 90.85,-402.31 102,-405.5 114.5,-409.08 127.91,-412.46 140.95,-415.5"/>
<polygon fill="midnightblue" stroke="midnightblue" points="69.23,-391.13 58.64,-391 66.84,-397.71 69.23,-391.13"/>
</g>
<!-- Node2455 -->
<g id="node15" class="node">
<title>Node2455</title>
<g id="a_node15"><a xlink:href="classQuantConnect_1_1Interfaces_1_1ObjectStoreErrorRaisedEventArgs.html" target="_top" xlink:title="Event arguments for the IObjectStore.ErrorRaised event">
<polygon fill="white" stroke="black" points="126,-366.5 126,-396.5 305,-396.5 305,-366.5 126,-366.5"/>
<text text-anchor="start" x="134" y="-384.5" font-family="Helvetica,sans-Serif" font-size="10.00">QuantConnect.Interfaces.</text>
<text text-anchor="middle" x="215.5" y="-373.5" font-family="Helvetica,sans-Serif" font-size="10.00">ObjectStoreErrorRaisedEventArgs</text>
</a>
</g>
</g>
<!-- Node2441&#45;&gt;Node2455 -->
<g id="edge14" class="edge">
<title>Node2441&#45;&gt;Node2455</title>
<path fill="none" stroke="midnightblue" d="M76.63,-381.5C91.5,-381.5 108.78,-381.5 125.97,-381.5"/>
<polygon fill="midnightblue" stroke="midnightblue" points="76.27,-378 66.27,-381.5 76.27,-385 76.27,-378"/>
</g>
<!-- Node2456 -->
<g id="node16" class="node">
<title>Node2456</title>
<g id="a_node16"><a xlink:href="classQuantConnect_1_1Lean_1_1Engine_1_1DataFeeds_1_1CreateStreamReaderErrorEventArgs.html" target="_top" xlink:title="Event arguments for the TextSubscriptionDataSourceReader&#39;s CreateStreamReader event">
<polygon fill="white" stroke="black" points="117,-306 117,-347 314,-347 314,-306 117,-306"/>
<text text-anchor="start" x="125" y="-335" font-family="Helvetica,sans-Serif" font-size="10.00">QuantConnect.Lean.Engine.</text>
<text text-anchor="start" x="125" y="-324" font-family="Helvetica,sans-Serif" font-size="10.00">DataFeeds.CreateStreamReaderError</text>
<text text-anchor="middle" x="215.5" y="-313" font-family="Helvetica,sans-Serif" font-size="10.00">EventArgs</text>
</a>
</g>
</g>
<!-- Node2441&#45;&gt;Node2456 -->
<g id="edge15" class="edge">
<title>Node2441&#45;&gt;Node2456</title>
<path fill="none" stroke="midnightblue" d="M67.89,-368.35C78.72,-364.33 90.8,-360.04 102,-356.5 112.21,-353.27 123.02,-350.09 133.74,-347.08"/>
<polygon fill="midnightblue" stroke="midnightblue" points="66.49,-365.13 58.36,-371.93 68.96,-371.68 66.49,-365.13"/>
</g>
<!-- Node2457 -->
<g id="node17" class="node">
<title>Node2457</title>
<g id="a_node17"><a xlink:href="classQuantConnect_1_1Lean_1_1Engine_1_1DataFeeds_1_1Enumerators_1_1NewDataAvailableEventArgs.html" target="_top" xlink:title="Event args for when a new data point is ready to be emitted">
<polygon fill="white" stroke="black" points="102,-246 102,-287 329,-287 329,-246 102,-246"/>
<text text-anchor="start" x="110" y="-275" font-family="Helvetica,sans-Serif" font-size="10.00">QuantConnect.Lean.Engine.</text>
<text text-anchor="start" x="110" y="-264" font-family="Helvetica,sans-Serif" font-size="10.00">DataFeeds.Enumerators.NewDataAvailable</text>
<text text-anchor="middle" x="215.5" y="-253" font-family="Helvetica,sans-Serif" font-size="10.00">EventArgs</text>
</a>
</g>
</g>
<!-- Node2441&#45;&gt;Node2457 -->
<g id="edge16" class="edge">
<title>Node2441&#45;&gt;Node2457</title>
<path fill="none" stroke="midnightblue" d="M43.93,-363.11C55.38,-343.65 76.01,-313.47 102,-296.5 107.42,-292.96 113.24,-289.84 119.27,-287.09"/>
<polygon fill="midnightblue" stroke="midnightblue" points="40.81,-361.51 38.93,-371.94 46.9,-364.96 40.81,-361.51"/>
</g>
<!-- Node2458 -->
<g id="node18" class="node">
<title>Node2458</title>
<g id="a_node18"><a xlink:href="classQuantConnect_1_1Lean_1_1Engine_1_1DataFeeds_1_1InvalidSourceEventArgs.html" target="_top" xlink:title="Event arguments for the ISubscriptionDataSourceReader.InvalidSource event">
<polygon fill="white" stroke="black" points="122,-196.5 122,-226.5 309,-226.5 309,-196.5 122,-196.5"/>
<text text-anchor="start" x="130" y="-214.5" font-family="Helvetica,sans-Serif" font-size="10.00">QuantConnect.Lean.Engine.</text>
<text text-anchor="middle" x="215.5" y="-203.5" font-family="Helvetica,sans-Serif" font-size="10.00">DataFeeds.InvalidSourceEventArgs</text>
</a>
</g>
</g>
<!-- Node2441&#45;&gt;Node2458 -->
<g id="edge17" class="edge">
<title>Node2441&#45;&gt;Node2458</title>
<path fill="none" stroke="midnightblue" d="M37.5,-361.78C44.17,-330.23 61.8,-268.71 102,-236.5 108.01,-231.68 114.76,-227.75 121.89,-224.54"/>
<polygon fill="midnightblue" stroke="midnightblue" points="34,-361.45 35.52,-371.93 40.87,-362.79 34,-361.45"/>
</g>
<!-- Node2459 -->
<g id="node19" class="node">
<title>Node2459</title>
<g id="a_node19"><a xlink:href="classQuantConnect_1_1Lean_1_1Engine_1_1DataFeeds_1_1ReaderErrorEventArgs.html" target="_top" xlink:title="Event arguments for the TextSubscriptionDataSourceReader.ReaderError event.">
<polygon fill="white" stroke="black" points="126,-147.5 126,-177.5 305,-177.5 305,-147.5 126,-147.5"/>
<text text-anchor="start" x="134" y="-165.5" font-family="Helvetica,sans-Serif" font-size="10.00">QuantConnect.Lean.Engine.</text>
<text text-anchor="middle" x="215.5" y="-154.5" font-family="Helvetica,sans-Serif" font-size="10.00">DataFeeds.ReaderErrorEventArgs</text>
</a>
</g>
</g>
<!-- Node2441&#45;&gt;Node2459 -->
<g id="edge18" class="edge">
<title>Node2441&#45;&gt;Node2459</title>
<path fill="none" stroke="midnightblue" d="M34.8,-361.56C37.53,-321.85 49.51,-232.79 102,-186.5 108.96,-180.36 117.11,-175.65 125.78,-172.07"/>
<polygon fill="midnightblue" stroke="midnightblue" points="31.31,-361.39 34.24,-371.57 38.3,-361.78 31.31,-361.39"/>
</g>
<!-- Node2460 -->
<g id="node20" class="node">
<title>Node2460</title>
<g id="a_node20"><a xlink:href="classQuantConnect_1_1Securities_1_1CashBookUpdatedEventArgs.html" target="_top" xlink:title="Event fired when the cash book is updated">
<polygon fill="white" stroke="black" points="137.5,-98.5 137.5,-128.5 293.5,-128.5 293.5,-98.5 137.5,-98.5"/>
<text text-anchor="start" x="145.5" y="-116.5" font-family="Helvetica,sans-Serif" font-size="10.00">QuantConnect.Securities.</text>
<text text-anchor="middle" x="215.5" y="-105.5" font-family="Helvetica,sans-Serif" font-size="10.00">CashBookUpdatedEventArgs</text>
</a>
</g>
</g>
<!-- Node2441&#45;&gt;Node2460 -->
<g id="edge19" class="edge">
<title>Node2441&#45;&gt;Node2460</title>
<path fill="none" stroke="midnightblue" d="M33.16,-361.56C32.36,-314.96 37.32,-198.32 102,-137.5 111.82,-128.27 124.28,-122.23 137.31,-118.36"/>
<polygon fill="midnightblue" stroke="midnightblue" points="29.67,-361.92 33.45,-371.82 36.67,-361.72 29.67,-361.92"/>
</g>
<!-- Node2461 -->
<g id="node21" class="node">
<title>Node2461</title>
<g id="a_node21"><a xlink:href="classQuantConnect_1_1Securities_1_1SecurityCacheDataStoredEventArgs.html" target="_top" xlink:title="Event args for SecurityCache&#39;s DataStored event">
<polygon fill="white" stroke="black" points="120,-49.5 120,-79.5 311,-79.5 311,-49.5 120,-49.5"/>
<text text-anchor="start" x="128" y="-67.5" font-family="Helvetica,sans-Serif" font-size="10.00">QuantConnect.Securities.</text>
<text text-anchor="middle" x="215.5" y="-56.5" font-family="Helvetica,sans-Serif" font-size="10.00">SecurityCacheDataStoredEventArgs</text>
</a>
</g>
</g>
<!-- Node2441&#45;&gt;Node2461 -->
<g id="edge20" class="edge">
<title>Node2441&#45;&gt;Node2461</title>
<path fill="none" stroke="midnightblue" d="M35.85,-361.82C41.82,-302.52 62.54,-127.26 102,-88.5 107.27,-83.32 113.37,-79.14 119.94,-75.77"/>
<polygon fill="midnightblue" stroke="midnightblue" points="32.37,-361.48 34.88,-371.77 39.33,-362.16 32.37,-361.48"/>
</g>
<!-- Node2462 -->
<g id="node22" class="node">
<title>Node2462</title>
<g id="a_node22"><a xlink:href="classQuantConnect_1_1TimeUpdatedEventArgs.html" target="_top" xlink:title="Event arguments class for the LocalTimeKeeper.TimeUpdated event">
<polygon fill="white" stroke="black" points="138,-0.5 138,-30.5 293,-30.5 293,-0.5 138,-0.5"/>
<text text-anchor="start" x="146" y="-18.5" font-family="Helvetica,sans-Serif" font-size="10.00">QuantConnect.TimeUpdated</text>
<text text-anchor="middle" x="215.5" y="-7.5" font-family="Helvetica,sans-Serif" font-size="10.00">EventArgs</text>
</a>
</g>
</g>
<!-- Node2441&#45;&gt;Node2462 -->
<g id="edge21" class="edge">
<title>Node2441&#45;&gt;Node2462</title>
<path fill="none" stroke="midnightblue" d="M35.15,-361.64C39.39,-295.74 56.29,-85.85 102,-39.5 111.75,-29.62 124.49,-23.33 137.89,-19.42"/>
<polygon fill="midnightblue" stroke="midnightblue" points="31.64,-361.69 34.52,-371.88 38.63,-362.12 31.64,-361.69"/>
</g>
<!-- Node2447 -->
<g id="node7" class="node">
<title>Node2447</title>
<g id="a_node7"><a xlink:href="classQuantConnect_1_1DownloadFailedEventArgs.html" target="_top" xlink:title="Event arguments for the IDataProviderEvents.DownloadFailed event">
<polygon fill="white" stroke="black" points="375.5,-636.5 375.5,-666.5 541.5,-666.5 541.5,-636.5 375.5,-636.5"/>
<text text-anchor="start" x="383.5" y="-654.5" font-family="Helvetica,sans-Serif" font-size="10.00">QuantConnect.DownloadFailed</text>
<text text-anchor="middle" x="458.5" y="-643.5" font-family="Helvetica,sans-Serif" font-size="10.00">EventArgs</text>
</a>
</g>
</g>
<!-- Node2446&#45;&gt;Node2447 -->
<g id="edge6" class="edge">
<title>Node2446&#45;&gt;Node2447</title>
<path fill="none" stroke="midnightblue" d="M301.24,-538.48C311.24,-542.14 320.79,-547.02 329,-553.5 357.71,-576.16 336.7,-604.33 365,-627.5 369.24,-630.97 373.92,-633.94 378.86,-636.49"/>
<polygon fill="midnightblue" stroke="midnightblue" points="302.13,-535.09 291.54,-535.34 299.97,-541.75 302.13,-535.09"/>
</g>
<!-- Node2448 -->
<g id="node8" class="node">
<title>Node2448</title>
<g id="a_node8"><a xlink:href="classQuantConnect_1_1InvalidConfigurationDetectedEventArgs.html" target="_top" xlink:title="Event arguments for the IDataProviderEvents.InvalidConfigurationDetected event">
<polygon fill="white" stroke="black" points="365,-587.5 365,-617.5 552,-617.5 552,-587.5 365,-587.5"/>
<text text-anchor="start" x="373" y="-605.5" font-family="Helvetica,sans-Serif" font-size="10.00">QuantConnect.InvalidConfiguration</text>
<text text-anchor="middle" x="458.5" y="-594.5" font-family="Helvetica,sans-Serif" font-size="10.00">DetectedEventArgs</text>
</a>
</g>
</g>
<!-- Node2446&#45;&gt;Node2448 -->
<g id="edge7" class="edge">
<title>Node2446&#45;&gt;Node2448</title>
<path fill="none" stroke="midnightblue" d="M301.49,-543.65C310.95,-546.43 320.29,-549.69 329,-553.5 346.84,-561.32 347.3,-570.37 365,-578.5 372.39,-581.89 380.34,-584.86 388.36,-587.45"/>
<polygon fill="midnightblue" stroke="midnightblue" points="302.2,-540.21 291.63,-540.92 300.34,-546.96 302.2,-540.21"/>
</g>
<!-- Node2449 -->
<g id="node9" class="node">
<title>Node2449</title>
<g id="a_node9"><a xlink:href="classQuantConnect_1_1NewTradableDateEventArgs.html" target="_top" xlink:title="Event arguments for the NewTradableDate event">
<polygon fill="white" stroke="black" points="382.5,-538.5 382.5,-568.5 534.5,-568.5 534.5,-538.5 382.5,-538.5"/>
<text text-anchor="start" x="390.5" y="-556.5" font-family="Helvetica,sans-Serif" font-size="10.00">QuantConnect.NewTradable</text>
<text text-anchor="middle" x="458.5" y="-545.5" font-family="Helvetica,sans-Serif" font-size="10.00">DateEventArgs</text>
</a>
</g>
</g>
<!-- Node2446&#45;&gt;Node2449 -->
<g id="edge8" class="edge">
<title>Node2446&#45;&gt;Node2449</title>
<path fill="none" stroke="midnightblue" d="M301.72,-537.34C328.03,-540.07 356.81,-543.06 382.39,-545.71"/>
<polygon fill="midnightblue" stroke="midnightblue" points="302.07,-533.86 291.76,-536.31 301.35,-540.82 302.07,-533.86"/>
</g>
<!-- Node2450 -->
<g id="node10" class="node">
<title>Node2450</title>
<g id="a_node10"><a xlink:href="classQuantConnect_1_1NumericalPrecisionLimitedEventArgs.html" target="_top" xlink:title="Event arguments for the IDataProviderEvents.NumericalPrecisionLimited event">
<polygon fill="white" stroke="black" points="367,-489.5 367,-519.5 550,-519.5 550,-489.5 367,-489.5"/>
<text text-anchor="start" x="375" y="-507.5" font-family="Helvetica,sans-Serif" font-size="10.00">QuantConnect.NumericalPrecision</text>
<text text-anchor="middle" x="458.5" y="-496.5" font-family="Helvetica,sans-Serif" font-size="10.00">LimitedEventArgs</text>
</a>
</g>
</g>
<!-- Node2446&#45;&gt;Node2450 -->
<g id="edge9" class="edge">
<title>Node2446&#45;&gt;Node2450</title>
<path fill="none" stroke="midnightblue" d="M301.93,-519.99C322.93,-517.9 345.49,-515.65 366.73,-513.54"/>
<polygon fill="midnightblue" stroke="midnightblue" points="301.37,-516.53 291.76,-521 302.06,-523.5 301.37,-516.53"/>
</g>
<!-- Node2451 -->
<g id="node11" class="node">
<title>Node2451</title>
<g id="a_node11"><a xlink:href="classQuantConnect_1_1ReaderErrorDetectedEventArgs.html" target="_top" xlink:title="Event arguments for the IDataProviderEvents.ReaderErrorDetected event">
<polygon fill="white" stroke="black" points="385.5,-440.5 385.5,-470.5 531.5,-470.5 531.5,-440.5 385.5,-440.5"/>
<text text-anchor="start" x="393.5" y="-458.5" font-family="Helvetica,sans-Serif" font-size="10.00">QuantConnect.ReaderError</text>
<text text-anchor="middle" x="458.5" y="-447.5" font-family="Helvetica,sans-Serif" font-size="10.00">DetectedEventArgs</text>
</a>
</g>
</g>
<!-- Node2446&#45;&gt;Node2451 -->
<g id="edge10" class="edge">
<title>Node2446&#45;&gt;Node2451</title>
<path fill="none" stroke="midnightblue" d="M301.42,-514.01C310.89,-511.33 320.26,-508.19 329,-504.5 346.72,-497.03 347.49,-488.45 365,-480.5 373.33,-476.72 382.35,-473.41 391.38,-470.54"/>
<polygon fill="midnightblue" stroke="midnightblue" points="300.31,-510.68 291.55,-516.63 302.11,-517.45 300.31,-510.68"/>
</g>
<!-- Node2452 -->
<g id="node12" class="node">
<title>Node2452</title>
<g id="a_node12"><a xlink:href="classQuantConnect_1_1StartDateLimitedEventArgs.html" target="_top" xlink:title="Event arguments for the IDataProviderEvents.StartDateLimited event">
<polygon fill="white" stroke="black" points="372.5,-391.5 372.5,-421.5 544.5,-421.5 544.5,-391.5 372.5,-391.5"/>
<text text-anchor="start" x="380.5" y="-409.5" font-family="Helvetica,sans-Serif" font-size="10.00">QuantConnect.StartDateLimited</text>
<text text-anchor="middle" x="458.5" y="-398.5" font-family="Helvetica,sans-Serif" font-size="10.00">EventArgs</text>
</a>
</g>
</g>
<!-- Node2446&#45;&gt;Node2452 -->
<g id="edge11" class="edge">
<title>Node2446&#45;&gt;Node2452</title>
<path fill="none" stroke="midnightblue" d="M301.22,-519.32C311.22,-515.74 320.78,-510.94 329,-504.5 357.8,-481.96 336.7,-453.67 365,-430.5 369.24,-427.03 373.92,-424.06 378.86,-421.51"/>
<polygon fill="midnightblue" stroke="midnightblue" points="300,-516.04 291.52,-522.39 302.11,-522.71 300,-516.04"/>
</g>
</g>
</svg>
