<?xml version="1.0" encoding="UTF-8" standalone="no"?>
<!DOCTYPE svg PUBLIC "-//W3C//DTD SVG 1.1//EN"
 "http://www.w3.org/Graphics/SVG/1.1/DTD/svg11.dtd">
<!-- Generated by graphviz version 2.43.0 (0)
 -->
<!-- Title: Graphical Class Hierarchy Pages: 1 -->
<svg width="579pt" height="88pt"
 viewBox="0.00 0.00 579.00 88.00" xmlns="http://www.w3.org/2000/svg" xmlns:xlink="http://www.w3.org/1999/xlink">
<g id="graph0" class="graph" transform="scale(1 1) rotate(0) translate(4 84)">
<title>Graphical Class Hierarchy</title>
<polygon fill="white" stroke="transparent" points="-4,4 -4,-84 575,-84 575,4 -4,4"/>
<!-- Node1944 -->
<g id="node1" class="node">
<title>Node1944</title>
<g id="a_node1"><a xlink:href="interfaceQuantConnect_1_1Scheduling_1_1IFluentSchedulingDateSpecifier.html" target="_top" xlink:title="Specifies the date rule component of a scheduled event">
<polygon fill="white" stroke="black" points="206,-49.5 206,-79.5 375,-79.5 375,-49.5 206,-49.5"/>
<text text-anchor="start" x="214" y="-67.5" font-family="Helvetica,sans-Serif" font-size="10.00">QuantConnect.Scheduling.</text>
<text text-anchor="middle" x="290.5" y="-56.5" font-family="Helvetica,sans-Serif" font-size="10.00">IFluentSchedulingDateSpecifier</text>
</a>
</g>
</g>
<!-- Node2 -->
<g id="node2" class="node">
<title>Node2</title>
<g id="a_node2"><a xlink:href="classQuantConnect_1_1Scheduling_1_1FluentScheduledEventBuilder.html" target="_top" xlink:title="Provides a builder class to allow for fluent syntax when constructing new events">
<polygon fill="white" stroke="black" points="411,-24.5 411,-54.5 571,-54.5 571,-24.5 411,-24.5"/>
<text text-anchor="start" x="419" y="-42.5" font-family="Helvetica,sans-Serif" font-size="10.00">QuantConnect.Scheduling.</text>
<text text-anchor="middle" x="491" y="-31.5" font-family="Helvetica,sans-Serif" font-size="10.00">FluentScheduledEventBuilder</text>
</a>
</g>
</g>
<!-- Node1944&#45;&gt;Node2 -->
<g id="edge1" class="edge">
<title>Node1944&#45;&gt;Node2</title>
<path fill="none" stroke="midnightblue" d="M385.18,-52.7C393.79,-51.62 402.46,-50.53 410.92,-49.46"/>
<polygon fill="midnightblue" stroke="midnightblue" points="384.59,-49.25 375.11,-53.97 385.47,-56.19 384.59,-49.25"/>
</g>
<!-- Node0 -->
<g id="node3" class="node">
<title>Node0</title>
<g id="a_node3"><a xlink:href="interfaceQuantConnect_1_1Scheduling_1_1IFluentSchedulingTimeSpecifier.html" target="_top" xlink:title="Specifies the time rule component of a scheduled event">
<polygon fill="white" stroke="black" points="0,-0.5 0,-30.5 170,-30.5 170,-0.5 0,-0.5"/>
<text text-anchor="start" x="8" y="-18.5" font-family="Helvetica,sans-Serif" font-size="10.00">QuantConnect.Scheduling.</text>
<text text-anchor="middle" x="85" y="-7.5" font-family="Helvetica,sans-Serif" font-size="10.00">IFluentSchedulingTimeSpecifier</text>
</a>
</g>
</g>
<!-- Node1 -->
<g id="node4" class="node">
<title>Node1</title>
<g id="a_node4"><a xlink:href="interfaceQuantConnect_1_1Scheduling_1_1IFluentSchedulingRunnable.html" target="_top" xlink:title="Specifies the callback component of a scheduled event, as well as final filters">
<polygon fill="white" stroke="black" points="216,-0.5 216,-30.5 365,-30.5 365,-0.5 216,-0.5"/>
<text text-anchor="start" x="224" y="-18.5" font-family="Helvetica,sans-Serif" font-size="10.00">QuantConnect.Scheduling.</text>
<text text-anchor="middle" x="290.5" y="-7.5" font-family="Helvetica,sans-Serif" font-size="10.00">IFluentSchedulingRunnable</text>
</a>
</g>
</g>
<!-- Node0&#45;&gt;Node1 -->
<g id="edge2" class="edge">
<title>Node0&#45;&gt;Node1</title>
<path fill="none" stroke="midnightblue" d="M180.56,-15.5C192.36,-15.5 204.29,-15.5 215.72,-15.5"/>
<polygon fill="midnightblue" stroke="midnightblue" points="180.24,-12 170.24,-15.5 180.24,-19 180.24,-12"/>
</g>
<!-- Node1&#45;&gt;Node2 -->
<g id="edge3" class="edge">
<title>Node1&#45;&gt;Node2</title>
<path fill="none" stroke="midnightblue" d="M375.37,-25.64C387.12,-27.06 399.16,-28.52 410.83,-29.93"/>
<polygon fill="midnightblue" stroke="midnightblue" points="375.48,-22.13 365.13,-24.4 374.64,-29.08 375.48,-22.13"/>
</g>
</g>
</svg>
