<?xml version="1.0" encoding="UTF-8" standalone="no"?>
<!DOCTYPE svg PUBLIC "-//W3C//DTD SVG 1.1//EN"
 "http://www.w3.org/Graphics/SVG/1.1/DTD/svg11.dtd">
<!-- Generated by graphviz version 2.43.0 (0)
 -->
<!-- Title: Graphical Class Hierarchy Pages: 1 -->
<svg width="413pt" height="110pt"
 viewBox="0.00 0.00 413.00 110.00" xmlns="http://www.w3.org/2000/svg" xmlns:xlink="http://www.w3.org/1999/xlink">
<g id="graph0" class="graph" transform="scale(1 1) rotate(0) translate(4 106)">
<title>Graphical Class Hierarchy</title>
<polygon fill="white" stroke="transparent" points="-4,4 -4,-106 409,-106 409,4 -4,4"/>
<!-- Node0 -->
<g id="node1" class="node">
<title>Node0</title>
<g id="a_node1"><a xlink:href="interfaceQuantConnect_1_1Securities_1_1CurrencyConversion_1_1ICurrencyConversion.html" target="_top" xlink:title="Represents a type capable of calculating the conversion rate between two currencies">
<polygon fill="white" stroke="black" points="0,-30.5 0,-71.5 164,-71.5 164,-30.5 0,-30.5"/>
<text text-anchor="start" x="8" y="-59.5" font-family="Helvetica,sans-Serif" font-size="10.00">QuantConnect.Securities.</text>
<text text-anchor="start" x="8" y="-48.5" font-family="Helvetica,sans-Serif" font-size="10.00">CurrencyConversion.ICurrency</text>
<text text-anchor="middle" x="82" y="-37.5" font-family="Helvetica,sans-Serif" font-size="10.00">Conversion</text>
</a>
</g>
</g>
<!-- Node1 -->
<g id="node2" class="node">
<title>Node1</title>
<g id="a_node2"><a xlink:href="classQuantConnect_1_1Securities_1_1CurrencyConversion_1_1ConstantCurrencyConversion.html" target="_top" xlink:title="Provides an implementation of ICurrencyConversion with a fixed conversion rate">
<polygon fill="white" stroke="black" points="200,-60.5 200,-101.5 405,-101.5 405,-60.5 200,-60.5"/>
<text text-anchor="start" x="208" y="-89.5" font-family="Helvetica,sans-Serif" font-size="10.00">QuantConnect.Securities.</text>
<text text-anchor="start" x="208" y="-78.5" font-family="Helvetica,sans-Serif" font-size="10.00">CurrencyConversion.ConstantCurrency</text>
<text text-anchor="middle" x="302.5" y="-67.5" font-family="Helvetica,sans-Serif" font-size="10.00">Conversion</text>
</a>
</g>
</g>
<!-- Node0&#45;&gt;Node1 -->
<g id="edge1" class="edge">
<title>Node0&#45;&gt;Node1</title>
<path fill="none" stroke="midnightblue" d="M173.98,-63.49C182.52,-64.66 191.2,-65.86 199.83,-67.04"/>
<polygon fill="midnightblue" stroke="midnightblue" points="174.43,-60.02 164.05,-62.13 173.48,-66.96 174.43,-60.02"/>
</g>
<!-- Node2 -->
<g id="node3" class="node">
<title>Node2</title>
<g id="a_node3"><a xlink:href="classQuantConnect_1_1Securities_1_1CurrencyConversion_1_1SecurityCurrencyConversion.html" target="_top" xlink:title="Provides an implementation of ICurrencyConversion to find and use multi&#45;leg currency conversions">
<polygon fill="white" stroke="black" points="202,-0.5 202,-41.5 403,-41.5 403,-0.5 202,-0.5"/>
<text text-anchor="start" x="210" y="-29.5" font-family="Helvetica,sans-Serif" font-size="10.00">QuantConnect.Securities.</text>
<text text-anchor="start" x="210" y="-18.5" font-family="Helvetica,sans-Serif" font-size="10.00">CurrencyConversion.SecurityCurrency</text>
<text text-anchor="middle" x="302.5" y="-7.5" font-family="Helvetica,sans-Serif" font-size="10.00">Conversion</text>
</a>
</g>
</g>
<!-- Node0&#45;&gt;Node2 -->
<g id="edge2" class="edge">
<title>Node0&#45;&gt;Node2</title>
<path fill="none" stroke="midnightblue" d="M174.21,-38.48C183.29,-37.23 192.54,-35.96 201.7,-34.7"/>
<polygon fill="midnightblue" stroke="midnightblue" points="173.48,-35.04 164.05,-39.87 174.43,-41.98 173.48,-35.04"/>
</g>
</g>
</svg>
