<?xml version="1.0" encoding="UTF-8" standalone="no"?>
<!DOCTYPE svg PUBLIC "-//W3C//DTD SVG 1.1//EN"
 "http://www.w3.org/Graphics/SVG/1.1/DTD/svg11.dtd">
<!-- Generated by graphviz version 2.43.0 (0)
 -->
<!-- Title: Graphical Class Hierarchy Pages: 1 -->
<svg width="595pt" height="88pt"
 viewBox="0.00 0.00 595.00 88.00" xmlns="http://www.w3.org/2000/svg" xmlns:xlink="http://www.w3.org/1999/xlink">
<g id="graph0" class="graph" transform="scale(1 1) rotate(0) translate(4 84)">
<title>Graphical Class Hierarchy</title>
<polygon fill="white" stroke="transparent" points="-4,4 -4,-84 591,-84 591,4 -4,4"/>
<!-- Node2432 -->
<g id="node1" class="node">
<title>Node2432</title>
<g id="a_node1"><a xlink:href="classQuantConnect_1_1Lean_1_1Engine_1_1Results_1_1BaseResultsHandler.html" target="_top" xlink:title="Provides base functionality to the implementations of IResultHandler">
<polygon fill="white" stroke="black" points="0,-49.5 0,-79.5 154,-79.5 154,-49.5 0,-49.5"/>
<text text-anchor="start" x="8" y="-67.5" font-family="Helvetica,sans-Serif" font-size="10.00">QuantConnect.Lean.Engine.</text>
<text text-anchor="middle" x="77" y="-56.5" font-family="Helvetica,sans-Serif" font-size="10.00">Results.BaseResultsHandler</text>
</a>
</g>
</g>
<!-- Node1 -->
<g id="node2" class="node">
<title>Node1</title>
<g id="a_node2"><a xlink:href="classQuantConnect_1_1Lean_1_1Engine_1_1Results_1_1BacktestingResultHandler.html" target="_top" xlink:title="Backtesting result handler passes messages back from the Lean to the User.">
<polygon fill="white" stroke="black" points="190,-49.5 190,-79.5 372,-79.5 372,-49.5 190,-49.5"/>
<text text-anchor="start" x="198" y="-67.5" font-family="Helvetica,sans-Serif" font-size="10.00">QuantConnect.Lean.Engine.</text>
<text text-anchor="middle" x="281" y="-56.5" font-family="Helvetica,sans-Serif" font-size="10.00">Results.BacktestingResultHandler</text>
</a>
</g>
</g>
<!-- Node2432&#45;&gt;Node1 -->
<g id="edge1" class="edge">
<title>Node2432&#45;&gt;Node1</title>
<path fill="none" stroke="midnightblue" d="M164.27,-64.5C172.69,-64.5 181.25,-64.5 189.71,-64.5"/>
<polygon fill="midnightblue" stroke="midnightblue" points="164.08,-61 154.08,-64.5 164.08,-68 164.08,-61"/>
</g>
<!-- Node3 -->
<g id="node4" class="node">
<title>Node3</title>
<g id="a_node4"><a xlink:href="classQuantConnect_1_1Lean_1_1Engine_1_1Results_1_1LiveTradingResultHandler.html" target="_top" xlink:title="Live trading result handler implementation passes the messages to the QC live trading interface.">
<polygon fill="white" stroke="black" points="191,-0.5 191,-30.5 371,-30.5 371,-0.5 191,-0.5"/>
<text text-anchor="start" x="199" y="-18.5" font-family="Helvetica,sans-Serif" font-size="10.00">QuantConnect.Lean.Engine.</text>
<text text-anchor="middle" x="281" y="-7.5" font-family="Helvetica,sans-Serif" font-size="10.00">Results.LiveTradingResultHandler</text>
</a>
</g>
</g>
<!-- Node2432&#45;&gt;Node3 -->
<g id="edge3" class="edge">
<title>Node2432&#45;&gt;Node3</title>
<path fill="none" stroke="midnightblue" d="M149.75,-47.1C172.09,-41.68 196.53,-35.75 218.14,-30.51"/>
<polygon fill="midnightblue" stroke="midnightblue" points="148.87,-43.71 139.98,-49.47 150.52,-50.51 148.87,-43.71"/>
</g>
<!-- Node2 -->
<g id="node3" class="node">
<title>Node2</title>
<g id="a_node3"><a xlink:href="classQuantConnect_1_1Lean_1_1Engine_1_1Results_1_1RegressionResultHandler.html" target="_top" xlink:title="Provides a wrapper over the BacktestingResultHandler that logs all order events to a separate file">
<polygon fill="white" stroke="black" points="408,-49.5 408,-79.5 587,-79.5 587,-49.5 408,-49.5"/>
<text text-anchor="start" x="416" y="-67.5" font-family="Helvetica,sans-Serif" font-size="10.00">QuantConnect.Lean.Engine.</text>
<text text-anchor="middle" x="497.5" y="-56.5" font-family="Helvetica,sans-Serif" font-size="10.00">Results.RegressionResultHandler</text>
</a>
</g>
</g>
<!-- Node1&#45;&gt;Node2 -->
<g id="edge2" class="edge">
<title>Node1&#45;&gt;Node2</title>
<path fill="none" stroke="midnightblue" d="M382.05,-64.5C390.62,-64.5 399.25,-64.5 407.73,-64.5"/>
<polygon fill="midnightblue" stroke="midnightblue" points="382.04,-61 372.03,-64.5 382.03,-68 382.04,-61"/>
</g>
<!-- Node0 -->
<g id="node5" class="node">
<title>Node0</title>
<g id="a_node5"><a xlink:href="interfaceQuantConnect_1_1Lean_1_1Engine_1_1Results_1_1IResultHandler.html" target="_top" xlink:title="Handle the results of the backtest: where should we send the profit, portfolio updates: Backtester or...">
<polygon fill="white" stroke="black" points="1.5,-0.5 1.5,-30.5 152.5,-30.5 152.5,-0.5 1.5,-0.5"/>
<text text-anchor="start" x="9.5" y="-18.5" font-family="Helvetica,sans-Serif" font-size="10.00">QuantConnect.Lean.Engine.</text>
<text text-anchor="middle" x="77" y="-7.5" font-family="Helvetica,sans-Serif" font-size="10.00">Results.IResultHandler</text>
</a>
</g>
</g>
<!-- Node0&#45;&gt;Node1 -->
<g id="edge4" class="edge">
<title>Node0&#45;&gt;Node1</title>
<path fill="none" stroke="midnightblue" d="M149.75,-32.9C172.09,-38.32 196.53,-44.25 218.14,-49.49"/>
<polygon fill="midnightblue" stroke="midnightblue" points="150.52,-29.49 139.98,-30.53 148.87,-36.29 150.52,-29.49"/>
</g>
<!-- Node0&#45;&gt;Node3 -->
<g id="edge5" class="edge">
<title>Node0&#45;&gt;Node3</title>
<path fill="none" stroke="midnightblue" d="M162.69,-15.5C172.03,-15.5 181.57,-15.5 190.96,-15.5"/>
<polygon fill="midnightblue" stroke="midnightblue" points="162.64,-12 152.64,-15.5 162.64,-19 162.64,-12"/>
</g>
</g>
</svg>
