<?xml version="1.0" encoding="UTF-8" standalone="no"?>
<!DOCTYPE svg PUBLIC "-//W3C//DTD SVG 1.1//EN"
 "http://www.w3.org/Graphics/SVG/1.1/DTD/svg11.dtd">
<!-- Generated by graphviz version 2.43.0 (0)
 -->
<!-- Title: Graphical Class Hierarchy Pages: 1 -->
<svg width="1031pt" height="921pt"
 viewBox="0.00 0.00 1031.00 921.00" xmlns="http://www.w3.org/2000/svg" xmlns:xlink="http://www.w3.org/1999/xlink">
<g id="graph0" class="graph" transform="scale(1 1) rotate(0) translate(4 917)">
<title>Graphical Class Hierarchy</title>
<polygon fill="white" stroke="transparent" points="-4,4 -4,-917 1027,-917 1027,4 -4,4"/>
<!-- Node0 -->
<g id="node1" class="node">
<title>Node0</title>
<g id="a_node1"><a xlink:href="interfaceQuantConnect_1_1Brokerages_1_1IBrokerageModel.html" target="_top" xlink:title="Models brokerage transactions, fees, and order">
<polygon fill="white" stroke="black" points="0,-416.5 0,-446.5 146,-446.5 146,-416.5 0,-416.5"/>
<text text-anchor="start" x="8" y="-434.5" font-family="Helvetica,sans-Serif" font-size="10.00">QuantConnect.Brokerages.</text>
<text text-anchor="middle" x="73" y="-423.5" font-family="Helvetica,sans-Serif" font-size="10.00">IBrokerageModel</text>
</a>
</g>
</g>
<!-- Node1 -->
<g id="node2" class="node">
<title>Node1</title>
<g id="a_node2"><a xlink:href="classQuantConnect_1_1Brokerages_1_1DefaultBrokerageModel.html" target="_top" xlink:title="Provides a default implementation of IBrokerageModel that allows all orders and uses the default tran...">
<polygon fill="white" stroke="black" points="196.5,-441.5 196.5,-471.5 342.5,-471.5 342.5,-441.5 196.5,-441.5"/>
<text text-anchor="start" x="204.5" y="-459.5" font-family="Helvetica,sans-Serif" font-size="10.00">QuantConnect.Brokerages.</text>
<text text-anchor="middle" x="269.5" y="-448.5" font-family="Helvetica,sans-Serif" font-size="10.00">DefaultBrokerageModel</text>
</a>
</g>
</g>
<!-- Node0&#45;&gt;Node1 -->
<g id="edge1" class="edge">
<title>Node0&#45;&gt;Node1</title>
<path fill="none" stroke="midnightblue" d="M156.27,-442.07C169.63,-443.79 183.38,-445.56 196.47,-447.24"/>
<polygon fill="midnightblue" stroke="midnightblue" points="156.51,-438.58 146.15,-440.77 155.62,-445.52 156.51,-438.58"/>
</g>
<!-- Node26 -->
<g id="node27" class="node">
<title>Node26</title>
<g id="a_node27"><a xlink:href="classQuantConnect_1_1Python_1_1BrokerageModelPythonWrapper.html" target="_top" xlink:title="Provides an implementation of IBrokerageModel that wraps a PyObject object">
<polygon fill="white" stroke="black" points="182,-392.5 182,-422.5 357,-422.5 357,-392.5 182,-392.5"/>
<text text-anchor="start" x="190" y="-410.5" font-family="Helvetica,sans-Serif" font-size="10.00">QuantConnect.Python.Brokerage</text>
<text text-anchor="middle" x="269.5" y="-399.5" font-family="Helvetica,sans-Serif" font-size="10.00">ModelPythonWrapper</text>
</a>
</g>
</g>
<!-- Node0&#45;&gt;Node26 -->
<g id="edge26" class="edge">
<title>Node0&#45;&gt;Node26</title>
<path fill="none" stroke="midnightblue" d="M156.11,-421.37C164.67,-420.31 173.39,-419.24 181.99,-418.17"/>
<polygon fill="midnightblue" stroke="midnightblue" points="155.64,-417.9 146.15,-422.6 156.5,-424.85 155.64,-417.9"/>
</g>
<!-- Node2 -->
<g id="node3" class="node">
<title>Node2</title>
<g id="a_node3"><a xlink:href="classQuantConnect_1_1Brokerages_1_1AlphaStreamsBrokerageModel.html" target="_top" xlink:title="Provides properties specific to Alpha Streams">
<polygon fill="white" stroke="black" points="408,-882.5 408,-912.5 572,-912.5 572,-882.5 408,-882.5"/>
<text text-anchor="start" x="416" y="-900.5" font-family="Helvetica,sans-Serif" font-size="10.00">QuantConnect.Brokerages.</text>
<text text-anchor="middle" x="490" y="-889.5" font-family="Helvetica,sans-Serif" font-size="10.00">AlphaStreamsBrokerageModel</text>
</a>
</g>
</g>
<!-- Node1&#45;&gt;Node2 -->
<g id="edge2" class="edge">
<title>Node1&#45;&gt;Node2</title>
<path fill="none" stroke="midnightblue" d="M269.87,-481.7C269.51,-553.99 278.84,-763.9 393,-873.5 397.34,-877.66 402.28,-881.14 407.59,-884.03"/>
<polygon fill="midnightblue" stroke="midnightblue" points="273.37,-481.73 269.99,-471.69 266.37,-481.64 273.37,-481.73"/>
</g>
<!-- Node3 -->
<g id="node4" class="node">
<title>Node3</title>
<g id="a_node4"><a xlink:href="classQuantConnect_1_1Brokerages_1_1AxosClearingBrokerageModel.html" target="_top" xlink:title="Provides the Axos clearing brokerage model specific properties">
<polygon fill="white" stroke="black" points="410,-833.5 410,-863.5 570,-863.5 570,-833.5 410,-833.5"/>
<text text-anchor="start" x="418" y="-851.5" font-family="Helvetica,sans-Serif" font-size="10.00">QuantConnect.Brokerages.</text>
<text text-anchor="middle" x="490" y="-840.5" font-family="Helvetica,sans-Serif" font-size="10.00">AxosClearingBrokerageModel</text>
</a>
</g>
</g>
<!-- Node1&#45;&gt;Node3 -->
<g id="edge3" class="edge">
<title>Node1&#45;&gt;Node3</title>
<path fill="none" stroke="midnightblue" d="M271.03,-481.85C273.85,-548.5 290.99,-730 393,-824.5 397.92,-829.05 403.56,-832.78 409.6,-835.82"/>
<polygon fill="midnightblue" stroke="midnightblue" points="274.52,-481.7 270.68,-471.82 267.53,-481.94 274.52,-481.7"/>
</g>
<!-- Node4 -->
<g id="node5" class="node">
<title>Node4</title>
<g id="a_node5"><a xlink:href="classQuantConnect_1_1Brokerages_1_1BinanceBrokerageModel.html" target="_top" xlink:title="Provides Binance specific properties">
<polygon fill="white" stroke="black" points="417,-784.5 417,-814.5 563,-814.5 563,-784.5 417,-784.5"/>
<text text-anchor="start" x="425" y="-802.5" font-family="Helvetica,sans-Serif" font-size="10.00">QuantConnect.Brokerages.</text>
<text text-anchor="middle" x="490" y="-791.5" font-family="Helvetica,sans-Serif" font-size="10.00">BinanceBrokerageModel</text>
</a>
</g>
</g>
<!-- Node1&#45;&gt;Node4 -->
<g id="edge4" class="edge">
<title>Node1&#45;&gt;Node4</title>
<path fill="none" stroke="midnightblue" d="M272.49,-481.71C278.66,-542.05 302.88,-695.73 393,-775.5 399.95,-781.65 408.23,-786.27 416.99,-789.74"/>
<polygon fill="midnightblue" stroke="midnightblue" points="275.96,-481.19 271.54,-471.56 268.99,-481.85 275.96,-481.19"/>
</g>
<!-- Node8 -->
<g id="node9" class="node">
<title>Node8</title>
<g id="a_node9"><a xlink:href="classQuantConnect_1_1Brokerages_1_1BitfinexBrokerageModel.html" target="_top" xlink:title="Provides Bitfinex specific properties">
<polygon fill="white" stroke="black" points="417,-735.5 417,-765.5 563,-765.5 563,-735.5 417,-735.5"/>
<text text-anchor="start" x="425" y="-753.5" font-family="Helvetica,sans-Serif" font-size="10.00">QuantConnect.Brokerages.</text>
<text text-anchor="middle" x="490" y="-742.5" font-family="Helvetica,sans-Serif" font-size="10.00">BitfinexBrokerageModel</text>
</a>
</g>
</g>
<!-- Node1&#45;&gt;Node8 -->
<g id="edge8" class="edge">
<title>Node1&#45;&gt;Node8</title>
<path fill="none" stroke="midnightblue" d="M274.48,-481.86C284.29,-535.58 314.77,-661.28 393,-726.5 399.99,-732.33 408.21,-736.78 416.83,-740.16"/>
<polygon fill="midnightblue" stroke="midnightblue" points="277.9,-481.07 272.74,-471.82 271,-482.27 277.9,-481.07"/>
</g>
<!-- Node9 -->
<g id="node10" class="node">
<title>Node9</title>
<g id="a_node10"><a xlink:href="classQuantConnect_1_1Brokerages_1_1CoinbaseBrokerageModel.html" target="_top" xlink:title="Represents a brokerage model for interacting with the Coinbase exchange. This class extends the defau...">
<polygon fill="white" stroke="black" points="417,-686.5 417,-716.5 563,-716.5 563,-686.5 417,-686.5"/>
<text text-anchor="start" x="425" y="-704.5" font-family="Helvetica,sans-Serif" font-size="10.00">QuantConnect.Brokerages.</text>
<text text-anchor="middle" x="490" y="-693.5" font-family="Helvetica,sans-Serif" font-size="10.00">CoinbaseBrokerageModel</text>
</a>
</g>
</g>
<!-- Node1&#45;&gt;Node9 -->
<g id="edge9" class="edge">
<title>Node1&#45;&gt;Node9</title>
<path fill="none" stroke="midnightblue" d="M277.19,-481.21C290.89,-527.02 326.61,-625.11 393,-676.5 400.08,-681.98 408.25,-686.27 416.76,-689.62"/>
<polygon fill="midnightblue" stroke="midnightblue" points="280.52,-480.14 274.38,-471.51 273.8,-482.09 280.52,-480.14"/>
</g>
<!-- Node11 -->
<g id="node12" class="node">
<title>Node11</title>
<g id="a_node12"><a xlink:href="classQuantConnect_1_1Brokerages_1_1ExanteBrokerageModel.html" target="_top" xlink:title="Exante Brokerage Model Implementation for Back Testing.">
<polygon fill="white" stroke="black" points="417,-637.5 417,-667.5 563,-667.5 563,-637.5 417,-637.5"/>
<text text-anchor="start" x="425" y="-655.5" font-family="Helvetica,sans-Serif" font-size="10.00">QuantConnect.Brokerages.</text>
<text text-anchor="middle" x="490" y="-644.5" font-family="Helvetica,sans-Serif" font-size="10.00">ExanteBrokerageModel</text>
</a>
</g>
</g>
<!-- Node1&#45;&gt;Node11 -->
<g id="edge11" class="edge">
<title>Node1&#45;&gt;Node11</title>
<path fill="none" stroke="midnightblue" d="M281.09,-480.69C298.74,-518.07 337.74,-589.53 393,-627.5 400.24,-632.47 408.4,-636.46 416.84,-639.65"/>
<polygon fill="midnightblue" stroke="midnightblue" points="284.24,-479.15 276.88,-471.53 277.88,-482.08 284.24,-479.15"/>
</g>
<!-- Node12 -->
<g id="node13" class="node">
<title>Node12</title>
<g id="a_node13"><a xlink:href="classQuantConnect_1_1Brokerages_1_1EzeBrokerageModel.html" target="_top" xlink:title="Provides Eze specific properties">
<polygon fill="white" stroke="black" points="417,-588.5 417,-618.5 563,-618.5 563,-588.5 417,-588.5"/>
<text text-anchor="start" x="425" y="-606.5" font-family="Helvetica,sans-Serif" font-size="10.00">QuantConnect.Brokerages.</text>
<text text-anchor="middle" x="490" y="-595.5" font-family="Helvetica,sans-Serif" font-size="10.00">EzeBrokerageModel</text>
</a>
</g>
</g>
<!-- Node1&#45;&gt;Node12 -->
<g id="edge12" class="edge">
<title>Node1&#45;&gt;Node12</title>
<path fill="none" stroke="midnightblue" d="M287.54,-479.8C309.04,-507.49 348.6,-553.13 393,-578.5 400.4,-582.73 408.53,-586.26 416.83,-589.2"/>
<polygon fill="midnightblue" stroke="midnightblue" points="290.31,-477.66 281.47,-471.83 284.74,-481.9 290.31,-477.66"/>
</g>
<!-- Node13 -->
<g id="node14" class="node">
<title>Node13</title>
<g id="a_node14"><a xlink:href="classQuantConnect_1_1Brokerages_1_1FTXBrokerageModel.html" target="_top" xlink:title="FTX Brokerage model">
<polygon fill="white" stroke="black" points="417,-539.5 417,-569.5 563,-569.5 563,-539.5 417,-539.5"/>
<text text-anchor="start" x="425" y="-557.5" font-family="Helvetica,sans-Serif" font-size="10.00">QuantConnect.Brokerages.</text>
<text text-anchor="middle" x="490" y="-546.5" font-family="Helvetica,sans-Serif" font-size="10.00">FTXBrokerageModel</text>
</a>
</g>
</g>
<!-- Node1&#45;&gt;Node13 -->
<g id="edge13" class="edge">
<title>Node1&#45;&gt;Node13</title>
<path fill="none" stroke="midnightblue" d="M299.97,-477.31C324.04,-493.49 359.44,-515.46 393,-529.5 401.98,-533.25 411.67,-536.57 421.32,-539.46"/>
<polygon fill="midnightblue" stroke="midnightblue" points="301.88,-474.38 291.65,-471.64 297.94,-480.16 301.88,-474.38"/>
</g>
<!-- Node15 -->
<g id="node16" class="node">
<title>Node15</title>
<g id="a_node16"><a xlink:href="classQuantConnect_1_1Brokerages_1_1FxcmBrokerageModel.html" target="_top" xlink:title="Provides FXCM specific properties">
<polygon fill="white" stroke="black" points="417,-490.5 417,-520.5 563,-520.5 563,-490.5 417,-490.5"/>
<text text-anchor="start" x="425" y="-508.5" font-family="Helvetica,sans-Serif" font-size="10.00">QuantConnect.Brokerages.</text>
<text text-anchor="middle" x="490" y="-497.5" font-family="Helvetica,sans-Serif" font-size="10.00">FxcmBrokerageModel</text>
</a>
</g>
</g>
<!-- Node1&#45;&gt;Node15 -->
<g id="edge15" class="edge">
<title>Node1&#45;&gt;Node15</title>
<path fill="none" stroke="midnightblue" d="M347.46,-473.76C371.8,-479.22 398.5,-485.21 422.08,-490.49"/>
<polygon fill="midnightblue" stroke="midnightblue" points="348.07,-470.31 337.54,-471.53 346.53,-477.14 348.07,-470.31"/>
</g>
<!-- Node16 -->
<g id="node17" class="node">
<title>Node16</title>
<g id="a_node17"><a xlink:href="classQuantConnect_1_1Brokerages_1_1InteractiveBrokersBrokerageModel.html" target="_top" xlink:title="Provides properties specific to interactive brokers">
<polygon fill="white" stroke="black" points="397.5,-441.5 397.5,-471.5 582.5,-471.5 582.5,-441.5 397.5,-441.5"/>
<text text-anchor="start" x="405.5" y="-459.5" font-family="Helvetica,sans-Serif" font-size="10.00">QuantConnect.Brokerages.</text>
<text text-anchor="middle" x="490" y="-448.5" font-family="Helvetica,sans-Serif" font-size="10.00">InteractiveBrokersBrokerageModel</text>
</a>
</g>
</g>
<!-- Node1&#45;&gt;Node16 -->
<g id="edge16" class="edge">
<title>Node1&#45;&gt;Node16</title>
<path fill="none" stroke="midnightblue" d="M353.07,-456.5C367.56,-456.5 382.72,-456.5 397.44,-456.5"/>
<polygon fill="midnightblue" stroke="midnightblue" points="352.65,-453 342.65,-456.5 352.65,-460 352.65,-453"/>
</g>
<!-- Node17 -->
<g id="node18" class="node">
<title>Node17</title>
<g id="a_node18"><a xlink:href="classQuantConnect_1_1Brokerages_1_1KrakenBrokerageModel.html" target="_top" xlink:title="Kraken Brokerage model">
<polygon fill="white" stroke="black" points="417,-392.5 417,-422.5 563,-422.5 563,-392.5 417,-392.5"/>
<text text-anchor="start" x="425" y="-410.5" font-family="Helvetica,sans-Serif" font-size="10.00">QuantConnect.Brokerages.</text>
<text text-anchor="middle" x="490" y="-399.5" font-family="Helvetica,sans-Serif" font-size="10.00">KrakenBrokerageModel</text>
</a>
</g>
</g>
<!-- Node1&#45;&gt;Node17 -->
<g id="edge17" class="edge">
<title>Node1&#45;&gt;Node17</title>
<path fill="none" stroke="midnightblue" d="M347.46,-439.24C371.8,-433.78 398.5,-427.79 422.08,-422.51"/>
<polygon fill="midnightblue" stroke="midnightblue" points="346.53,-435.86 337.54,-441.47 348.07,-442.69 346.53,-435.86"/>
</g>
<!-- Node18 -->
<g id="node19" class="node">
<title>Node18</title>
<g id="a_node19"><a xlink:href="classQuantConnect_1_1Brokerages_1_1OandaBrokerageModel.html" target="_top" xlink:title="Oanda Brokerage Model Implementation for Back Testing.">
<polygon fill="white" stroke="black" points="417,-343.5 417,-373.5 563,-373.5 563,-343.5 417,-343.5"/>
<text text-anchor="start" x="425" y="-361.5" font-family="Helvetica,sans-Serif" font-size="10.00">QuantConnect.Brokerages.</text>
<text text-anchor="middle" x="490" y="-350.5" font-family="Helvetica,sans-Serif" font-size="10.00">OandaBrokerageModel</text>
</a>
</g>
</g>
<!-- Node1&#45;&gt;Node18 -->
<g id="edge18" class="edge">
<title>Node1&#45;&gt;Node18</title>
<path fill="none" stroke="midnightblue" d="M348.05,-436.99C351.16,-435.31 354.16,-433.48 357,-431.5 379.16,-416.04 370.56,-397.56 393,-382.5 400.28,-377.62 408.46,-373.73 416.91,-370.63"/>
<polygon fill="midnightblue" stroke="midnightblue" points="346.52,-433.85 339.05,-441.37 349.57,-440.15 346.52,-433.85"/>
</g>
<!-- Node19 -->
<g id="node20" class="node">
<title>Node19</title>
<g id="a_node20"><a xlink:href="classQuantConnect_1_1Brokerages_1_1RBIBrokerageModel.html" target="_top" xlink:title="RBI Brokerage model">
<polygon fill="white" stroke="black" points="417,-294.5 417,-324.5 563,-324.5 563,-294.5 417,-294.5"/>
<text text-anchor="start" x="425" y="-312.5" font-family="Helvetica,sans-Serif" font-size="10.00">QuantConnect.Brokerages.</text>
<text text-anchor="middle" x="490" y="-301.5" font-family="Helvetica,sans-Serif" font-size="10.00">RBIBrokerageModel</text>
</a>
</g>
</g>
<!-- Node1&#45;&gt;Node19 -->
<g id="edge19" class="edge">
<title>Node1&#45;&gt;Node19</title>
<path fill="none" stroke="midnightblue" d="M351.57,-436.01C353.47,-434.6 355.28,-433.1 357,-431.5 390.95,-399.87 358.48,-364.51 393,-333.5 399.9,-327.3 408.16,-322.65 416.9,-319.17"/>
<polygon fill="midnightblue" stroke="midnightblue" points="349.37,-433.25 342.81,-441.57 353.13,-439.16 349.37,-433.25"/>
</g>
<!-- Node20 -->
<g id="node21" class="node">
<title>Node20</title>
<g id="a_node21"><a xlink:href="classQuantConnect_1_1Brokerages_1_1SamcoBrokerageModel.html" target="_top" xlink:title="Brokerage Model implementation for Samco">
<polygon fill="white" stroke="black" points="417,-245.5 417,-275.5 563,-275.5 563,-245.5 417,-245.5"/>
<text text-anchor="start" x="425" y="-263.5" font-family="Helvetica,sans-Serif" font-size="10.00">QuantConnect.Brokerages.</text>
<text text-anchor="middle" x="490" y="-252.5" font-family="Helvetica,sans-Serif" font-size="10.00">SamcoBrokerageModel</text>
</a>
</g>
</g>
<!-- Node1&#45;&gt;Node20 -->
<g id="edge20" class="edge">
<title>Node1&#45;&gt;Node20</title>
<path fill="none" stroke="midnightblue" d="M351.23,-436.72C353.27,-435.11 355.2,-433.38 357,-431.5 403.57,-382.97 345.55,-332.18 393,-284.5 399.67,-277.8 407.9,-272.88 416.72,-269.27"/>
<polygon fill="midnightblue" stroke="midnightblue" points="349.25,-433.83 342.9,-442.31 353.15,-439.65 349.25,-433.83"/>
</g>
<!-- Node21 -->
<g id="node22" class="node">
<title>Node21</title>
<g id="a_node22"><a xlink:href="classQuantConnect_1_1Brokerages_1_1TDAmeritradeBrokerageModel.html" target="_top" xlink:title="TDAmeritrade">
<polygon fill="white" stroke="black" points="408,-196.5 408,-226.5 572,-226.5 572,-196.5 408,-196.5"/>
<text text-anchor="start" x="416" y="-214.5" font-family="Helvetica,sans-Serif" font-size="10.00">QuantConnect.Brokerages.</text>
<text text-anchor="middle" x="490" y="-203.5" font-family="Helvetica,sans-Serif" font-size="10.00">TDAmeritradeBrokerageModel</text>
</a>
</g>
</g>
<!-- Node1&#45;&gt;Node21 -->
<g id="edge21" class="edge">
<title>Node1&#45;&gt;Node21</title>
<path fill="none" stroke="midnightblue" d="M351.22,-436.99C353.27,-435.3 355.21,-433.48 357,-431.5 416.43,-365.83 332.39,-300.08 393,-235.5 397.35,-230.87 402.45,-227.07 407.99,-223.97"/>
<polygon fill="midnightblue" stroke="midnightblue" points="349.02,-434.25 342.77,-442.81 352.99,-440.02 349.02,-434.25"/>
</g>
<!-- Node22 -->
<g id="node23" class="node">
<title>Node22</title>
<g id="a_node23"><a xlink:href="classQuantConnect_1_1Brokerages_1_1TradierBrokerageModel.html" target="_top" xlink:title="Provides tradier specific properties">
<polygon fill="white" stroke="black" points="417,-147.5 417,-177.5 563,-177.5 563,-147.5 417,-147.5"/>
<text text-anchor="start" x="425" y="-165.5" font-family="Helvetica,sans-Serif" font-size="10.00">QuantConnect.Brokerages.</text>
<text text-anchor="middle" x="490" y="-154.5" font-family="Helvetica,sans-Serif" font-size="10.00">TradierBrokerageModel</text>
</a>
</g>
</g>
<!-- Node1&#45;&gt;Node22 -->
<g id="edge22" class="edge">
<title>Node1&#45;&gt;Node22</title>
<path fill="none" stroke="midnightblue" d="M351.16,-437.2C353.24,-435.46 355.2,-433.56 357,-431.5 429.38,-348.59 319.13,-268.08 393,-186.5 399.46,-179.37 407.68,-174.21 416.6,-170.5"/>
<polygon fill="midnightblue" stroke="midnightblue" points="348.75,-434.61 342.54,-443.2 352.75,-440.36 348.75,-434.61"/>
</g>
<!-- Node23 -->
<g id="node24" class="node">
<title>Node23</title>
<g id="a_node24"><a xlink:href="classQuantConnect_1_1Brokerages_1_1TradingTechnologiesBrokerageModel.html" target="_top" xlink:title="Provides properties specific to Trading Technologies">
<polygon fill="white" stroke="black" points="393,-98.5 393,-128.5 587,-128.5 587,-98.5 393,-98.5"/>
<text text-anchor="start" x="401" y="-116.5" font-family="Helvetica,sans-Serif" font-size="10.00">QuantConnect.Brokerages.</text>
<text text-anchor="middle" x="490" y="-105.5" font-family="Helvetica,sans-Serif" font-size="10.00">TradingTechnologiesBrokerageModel</text>
</a>
</g>
</g>
<!-- Node1&#45;&gt;Node23 -->
<g id="edge23" class="edge">
<title>Node1&#45;&gt;Node23</title>
<path fill="none" stroke="midnightblue" d="M351.22,-437.26C353.29,-435.5 355.23,-433.58 357,-431.5 442.37,-331.29 305.82,-236.14 393,-137.5 395.96,-134.15 399.31,-131.24 402.93,-128.7"/>
<polygon fill="midnightblue" stroke="midnightblue" points="348.81,-434.68 342.66,-443.31 352.85,-440.39 348.81,-434.68"/>
</g>
<!-- Node24 -->
<g id="node25" class="node">
<title>Node24</title>
<g id="a_node25"><a xlink:href="classQuantConnect_1_1Brokerages_1_1WolverineBrokerageModel.html" target="_top" xlink:title="Wolverine Brokerage model">
<polygon fill="white" stroke="black" points="417,-49.5 417,-79.5 563,-79.5 563,-49.5 417,-49.5"/>
<text text-anchor="start" x="425" y="-67.5" font-family="Helvetica,sans-Serif" font-size="10.00">QuantConnect.Brokerages.</text>
<text text-anchor="middle" x="490" y="-56.5" font-family="Helvetica,sans-Serif" font-size="10.00">WolverineBrokerageModel</text>
</a>
</g>
</g>
<!-- Node1&#45;&gt;Node24 -->
<g id="edge24" class="edge">
<title>Node1&#45;&gt;Node24</title>
<path fill="none" stroke="midnightblue" d="M351.27,-437.3C353.32,-435.53 355.24,-433.6 357,-431.5 455.4,-313.97 292.48,-204.22 393,-88.5 399.42,-81.11 407.74,-75.82 416.8,-72.06"/>
<polygon fill="midnightblue" stroke="midnightblue" points="348.86,-434.72 342.75,-443.38 352.92,-440.42 348.86,-434.72"/>
</g>
<!-- Node25 -->
<g id="node26" class="node">
<title>Node25</title>
<g id="a_node26"><a xlink:href="classQuantConnect_1_1Brokerages_1_1ZerodhaBrokerageModel.html" target="_top" xlink:title="Brokerage Model implementation for Zerodha">
<polygon fill="white" stroke="black" points="417,-0.5 417,-30.5 563,-30.5 563,-0.5 417,-0.5"/>
<text text-anchor="start" x="425" y="-18.5" font-family="Helvetica,sans-Serif" font-size="10.00">QuantConnect.Brokerages.</text>
<text text-anchor="middle" x="490" y="-7.5" font-family="Helvetica,sans-Serif" font-size="10.00">ZerodhaBrokerageModel</text>
</a>
</g>
</g>
<!-- Node1&#45;&gt;Node25 -->
<g id="edge25" class="edge">
<title>Node1&#45;&gt;Node25</title>
<path fill="none" stroke="midnightblue" d="M351.31,-437.33C353.35,-435.55 355.26,-433.61 357,-431.5 412.72,-364.06 336.07,-105.91 393,-39.5 399.37,-32.07 407.67,-26.75 416.71,-22.98"/>
<polygon fill="midnightblue" stroke="midnightblue" points="348.89,-434.75 342.82,-443.44 352.98,-440.43 348.89,-434.75"/>
</g>
<!-- Node5 -->
<g id="node6" class="node">
<title>Node5</title>
<g id="a_node6"><a xlink:href="classQuantConnect_1_1Brokerages_1_1BinanceFuturesBrokerageModel.html" target="_top" xlink:title="Provides Binance Futures specific properties">
<polygon fill="white" stroke="black" points="623,-808.5 623,-838.5 794,-838.5 794,-808.5 623,-808.5"/>
<text text-anchor="start" x="631" y="-826.5" font-family="Helvetica,sans-Serif" font-size="10.00">QuantConnect.Brokerages.</text>
<text text-anchor="middle" x="708.5" y="-815.5" font-family="Helvetica,sans-Serif" font-size="10.00">BinanceFuturesBrokerageModel</text>
</a>
</g>
</g>
<!-- Node4&#45;&gt;Node5 -->
<g id="edge5" class="edge">
<title>Node4&#45;&gt;Node5</title>
<path fill="none" stroke="midnightblue" d="M573.12,-808.6C589.43,-810.41 606.58,-812.31 622.97,-814.13"/>
<polygon fill="midnightblue" stroke="midnightblue" points="573.42,-805.11 563.09,-807.49 572.64,-812.07 573.42,-805.11"/>
</g>
<!-- Node7 -->
<g id="node8" class="node">
<title>Node7</title>
<g id="a_node8"><a xlink:href="classQuantConnect_1_1Brokerages_1_1BinanceUSBrokerageModel.html" target="_top" xlink:title="Provides Binance.US specific properties">
<polygon fill="white" stroke="black" points="634,-759.5 634,-789.5 783,-789.5 783,-759.5 634,-759.5"/>
<text text-anchor="start" x="642" y="-777.5" font-family="Helvetica,sans-Serif" font-size="10.00">QuantConnect.Brokerages.</text>
<text text-anchor="middle" x="708.5" y="-766.5" font-family="Helvetica,sans-Serif" font-size="10.00">BinanceUSBrokerageModel</text>
</a>
</g>
</g>
<!-- Node4&#45;&gt;Node7 -->
<g id="edge7" class="edge">
<title>Node4&#45;&gt;Node7</title>
<path fill="none" stroke="midnightblue" d="M573.1,-790.02C593.07,-787.71 614.32,-785.26 633.87,-783"/>
<polygon fill="midnightblue" stroke="midnightblue" points="572.62,-786.55 563.09,-791.18 573.43,-793.51 572.62,-786.55"/>
</g>
<!-- Node6 -->
<g id="node7" class="node">
<title>Node6</title>
<g id="a_node7"><a xlink:href="classQuantConnect_1_1Brokerages_1_1BinanceCoinFuturesBrokerageModel.html" target="_top" xlink:title="Provides Binance Coin Futures specific properties">
<polygon fill="white" stroke="black" points="830,-808.5 830,-838.5 1023,-838.5 1023,-808.5 830,-808.5"/>
<text text-anchor="start" x="838" y="-826.5" font-family="Helvetica,sans-Serif" font-size="10.00">QuantConnect.Brokerages.</text>
<text text-anchor="middle" x="926.5" y="-815.5" font-family="Helvetica,sans-Serif" font-size="10.00">BinanceCoinFuturesBrokerageModel</text>
</a>
</g>
</g>
<!-- Node5&#45;&gt;Node6 -->
<g id="edge6" class="edge">
<title>Node5&#45;&gt;Node6</title>
<path fill="none" stroke="midnightblue" d="M804.48,-823.5C812.92,-823.5 821.47,-823.5 829.91,-823.5"/>
<polygon fill="midnightblue" stroke="midnightblue" points="804.25,-820 794.25,-823.5 804.25,-827 804.25,-820"/>
</g>
<!-- Node10 -->
<g id="node11" class="node">
<title>Node10</title>
<g id="a_node11"><a xlink:href="classQuantConnect_1_1Brokerages_1_1GDAXBrokerageModel.html" target="_top" xlink:title="Provides GDAX specific properties">
<polygon fill="white" stroke="black" points="635.5,-686.5 635.5,-716.5 781.5,-716.5 781.5,-686.5 635.5,-686.5"/>
<text text-anchor="start" x="643.5" y="-704.5" font-family="Helvetica,sans-Serif" font-size="10.00">QuantConnect.Brokerages.</text>
<text text-anchor="middle" x="708.5" y="-693.5" font-family="Helvetica,sans-Serif" font-size="10.00">GDAXBrokerageModel</text>
</a>
</g>
</g>
<!-- Node9&#45;&gt;Node10 -->
<g id="edge10" class="edge">
<title>Node9&#45;&gt;Node10</title>
<path fill="none" stroke="midnightblue" d="M573.31,-701.5C593.73,-701.5 615.46,-701.5 635.35,-701.5"/>
<polygon fill="midnightblue" stroke="midnightblue" points="573.09,-698 563.09,-701.5 573.09,-705 573.09,-698"/>
</g>
<!-- Node14 -->
<g id="node15" class="node">
<title>Node14</title>
<g id="a_node15"><a xlink:href="classQuantConnect_1_1Brokerages_1_1FTXUSBrokerageModel.html" target="_top" xlink:title="FTX.US Brokerage model">
<polygon fill="white" stroke="black" points="635.5,-539.5 635.5,-569.5 781.5,-569.5 781.5,-539.5 635.5,-539.5"/>
<text text-anchor="start" x="643.5" y="-557.5" font-family="Helvetica,sans-Serif" font-size="10.00">QuantConnect.Brokerages.</text>
<text text-anchor="middle" x="708.5" y="-546.5" font-family="Helvetica,sans-Serif" font-size="10.00">FTXUSBrokerageModel</text>
</a>
</g>
</g>
<!-- Node13&#45;&gt;Node14 -->
<g id="edge14" class="edge">
<title>Node13&#45;&gt;Node14</title>
<path fill="none" stroke="midnightblue" d="M573.31,-554.5C593.73,-554.5 615.46,-554.5 635.35,-554.5"/>
<polygon fill="midnightblue" stroke="midnightblue" points="573.09,-551 563.09,-554.5 573.09,-558 573.09,-551"/>
</g>
</g>
</svg>
