<?xml version="1.0" encoding="UTF-8" standalone="no"?>
<!DOCTYPE svg PUBLIC "-//W3C//DTD SVG 1.1//EN"
 "http://www.w3.org/Graphics/SVG/1.1/DTD/svg11.dtd">
<!-- Generated by graphviz version 2.43.0 (0)
 -->
<!-- Title: Graphical Class Hierarchy Pages: 1 -->
<svg width="369pt" height="50pt"
 viewBox="0.00 0.00 369.00 50.00" xmlns="http://www.w3.org/2000/svg" xmlns:xlink="http://www.w3.org/1999/xlink">
<g id="graph0" class="graph" transform="scale(1 1) rotate(0) translate(4 46)">
<title>Graphical Class Hierarchy</title>
<polygon fill="white" stroke="transparent" points="-4,4 -4,-46 365,-46 365,4 -4,4"/>
<!-- Node0 -->
<g id="node1" class="node">
<title>Node0</title>
<g id="a_node1"><a xlink:href="classQuantConnect_1_1Data_1_1Market_1_1DataDictionary.html" target="_top" xlink:title=" ">
<polygon fill="white" stroke="black" points="0,-0.5 0,-41.5 173,-41.5 173,-0.5 0,-0.5"/>
<text text-anchor="start" x="8" y="-29.5" font-family="Helvetica,sans-Serif" font-size="10.00">QuantConnect.Data.Market.</text>
<text text-anchor="start" x="8" y="-18.5" font-family="Helvetica,sans-Serif" font-size="10.00">DataDictionary&lt; MarginInterest</text>
<text text-anchor="middle" x="86.5" y="-7.5" font-family="Helvetica,sans-Serif" font-size="10.00">Rate &gt;</text>
</a>
</g>
</g>
<!-- Node1 -->
<g id="node2" class="node">
<title>Node1</title>
<g id="a_node2"><a xlink:href="classQuantConnect_1_1Data_1_1Market_1_1MarginInterestRates.html" target="_top" xlink:title="Collection of dividends keyed by Symbol">
<polygon fill="white" stroke="black" points="209,-6 209,-36 361,-36 361,-6 209,-6"/>
<text text-anchor="start" x="217" y="-24" font-family="Helvetica,sans-Serif" font-size="10.00">QuantConnect.Data.Market.</text>
<text text-anchor="middle" x="285" y="-13" font-family="Helvetica,sans-Serif" font-size="10.00">MarginInterestRates</text>
</a>
</g>
</g>
<!-- Node0&#45;&gt;Node1 -->
<g id="edge1" class="edge">
<title>Node0&#45;&gt;Node1</title>
<path fill="none" stroke="midnightblue" d="M183.2,-21C191.8,-21 200.44,-21 208.84,-21"/>
<polygon fill="midnightblue" stroke="midnightblue" points="183.12,-17.5 173.12,-21 183.12,-24.5 183.12,-17.5"/>
</g>
</g>
</svg>
