<?xml version="1.0" encoding="UTF-8" standalone="no"?>
<!DOCTYPE svg PUBLIC "-//W3C//DTD SVG 1.1//EN"
 "http://www.w3.org/Graphics/SVG/1.1/DTD/svg11.dtd">
<!-- Generated by graphviz version 2.43.0 (0)
 -->
<!-- Title: Graphical Class Hierarchy Pages: 1 -->
<svg width="324pt" height="333pt"
 viewBox="0.00 0.00 324.00 333.00" xmlns="http://www.w3.org/2000/svg" xmlns:xlink="http://www.w3.org/1999/xlink">
<g id="graph0" class="graph" transform="scale(1 1) rotate(0) translate(4 329)">
<title>Graphical Class Hierarchy</title>
<polygon fill="white" stroke="transparent" points="-4,4 -4,-329 320,-329 320,4 -4,4"/>
<!-- Node0 -->
<g id="node1" class="node">
<title>Node0</title>
<g id="a_node1"><a xlink:href="classQuantConnect_1_1Securities_1_1SecurityExchange.html" target="_top" xlink:title="Base exchange class providing information and helper tools for reading the current exchange situation">
<polygon fill="white" stroke="black" points="0,-147.5 0,-177.5 140,-177.5 140,-147.5 0,-147.5"/>
<text text-anchor="start" x="8" y="-165.5" font-family="Helvetica,sans-Serif" font-size="10.00">QuantConnect.Securities.</text>
<text text-anchor="middle" x="70" y="-154.5" font-family="Helvetica,sans-Serif" font-size="10.00">SecurityExchange</text>
</a>
</g>
</g>
<!-- Node1 -->
<g id="node2" class="node">
<title>Node1</title>
<g id="a_node2"><a xlink:href="classQuantConnect_1_1Securities_1_1Cfd_1_1CfdExchange.html" target="_top" xlink:title="CFD exchange class &#45; information and helper tools for CFD exchange properties">
<polygon fill="white" stroke="black" points="176,-294.5 176,-324.5 316,-324.5 316,-294.5 176,-294.5"/>
<text text-anchor="start" x="184" y="-312.5" font-family="Helvetica,sans-Serif" font-size="10.00">QuantConnect.Securities.</text>
<text text-anchor="middle" x="246" y="-301.5" font-family="Helvetica,sans-Serif" font-size="10.00">Cfd.CfdExchange</text>
</a>
</g>
</g>
<!-- Node0&#45;&gt;Node1 -->
<g id="edge1" class="edge">
<title>Node0&#45;&gt;Node1</title>
<path fill="none" stroke="midnightblue" d="M85.59,-186.23C103.65,-213.75 136.85,-258.74 176,-285.5 180.92,-288.86 186.36,-291.8 191.96,-294.35"/>
<polygon fill="midnightblue" stroke="midnightblue" points="88.41,-184.14 80.06,-177.62 82.52,-187.93 88.41,-184.14"/>
</g>
<!-- Node2 -->
<g id="node3" class="node">
<title>Node2</title>
<g id="a_node3"><a xlink:href="classQuantConnect_1_1Securities_1_1Crypto_1_1CryptoExchange.html" target="_top" xlink:title="Crypto exchange class &#45; information and helper tools for Crypto exchange properties">
<polygon fill="white" stroke="black" points="176,-245.5 176,-275.5 316,-275.5 316,-245.5 176,-245.5"/>
<text text-anchor="start" x="184" y="-263.5" font-family="Helvetica,sans-Serif" font-size="10.00">QuantConnect.Securities.</text>
<text text-anchor="middle" x="246" y="-252.5" font-family="Helvetica,sans-Serif" font-size="10.00">Crypto.CryptoExchange</text>
</a>
</g>
</g>
<!-- Node0&#45;&gt;Node2 -->
<g id="edge2" class="edge">
<title>Node0&#45;&gt;Node2</title>
<path fill="none" stroke="midnightblue" d="M96.87,-183.84C117.36,-199.95 147.23,-221.73 176,-236.5 182.32,-239.74 189.17,-242.72 196.03,-245.38"/>
<polygon fill="midnightblue" stroke="midnightblue" points="98.96,-181.03 88.96,-177.53 94.6,-186.5 98.96,-181.03"/>
</g>
<!-- Node3 -->
<g id="node4" class="node">
<title>Node3</title>
<g id="a_node4"><a xlink:href="classQuantConnect_1_1Securities_1_1Equity_1_1EquityExchange.html" target="_top" xlink:title="Equity exchange information">
<polygon fill="white" stroke="black" points="176,-196.5 176,-226.5 316,-226.5 316,-196.5 176,-196.5"/>
<text text-anchor="start" x="184" y="-214.5" font-family="Helvetica,sans-Serif" font-size="10.00">QuantConnect.Securities.</text>
<text text-anchor="middle" x="246" y="-203.5" font-family="Helvetica,sans-Serif" font-size="10.00">Equity.EquityExchange</text>
</a>
</g>
</g>
<!-- Node0&#45;&gt;Node3 -->
<g id="edge3" class="edge">
<title>Node0&#45;&gt;Node3</title>
<path fill="none" stroke="midnightblue" d="M134.28,-180.32C153.07,-185.61 173.45,-191.35 191.55,-196.45"/>
<polygon fill="midnightblue" stroke="midnightblue" points="135.2,-176.94 124.63,-177.6 133.3,-183.68 135.2,-176.94"/>
</g>
<!-- Node4 -->
<g id="node5" class="node">
<title>Node4</title>
<g id="a_node5"><a xlink:href="classQuantConnect_1_1Securities_1_1Forex_1_1ForexExchange.html" target="_top" xlink:title="Forex exchange class &#45; information and helper tools for forex exchange properties">
<polygon fill="white" stroke="black" points="176,-147.5 176,-177.5 316,-177.5 316,-147.5 176,-147.5"/>
<text text-anchor="start" x="184" y="-165.5" font-family="Helvetica,sans-Serif" font-size="10.00">QuantConnect.Securities.</text>
<text text-anchor="middle" x="246" y="-154.5" font-family="Helvetica,sans-Serif" font-size="10.00">Forex.ForexExchange</text>
</a>
</g>
</g>
<!-- Node0&#45;&gt;Node4 -->
<g id="edge4" class="edge">
<title>Node0&#45;&gt;Node4</title>
<path fill="none" stroke="midnightblue" d="M150.03,-162.5C158.62,-162.5 167.32,-162.5 175.78,-162.5"/>
<polygon fill="midnightblue" stroke="midnightblue" points="150.02,-159 140.02,-162.5 150.02,-166 150.02,-159"/>
</g>
<!-- Node5 -->
<g id="node6" class="node">
<title>Node5</title>
<g id="a_node6"><a xlink:href="classQuantConnect_1_1Securities_1_1Future_1_1FutureExchange.html" target="_top" xlink:title="Future exchange class &#45; information and helper tools for future exchange properties">
<polygon fill="white" stroke="black" points="176,-98.5 176,-128.5 316,-128.5 316,-98.5 176,-98.5"/>
<text text-anchor="start" x="184" y="-116.5" font-family="Helvetica,sans-Serif" font-size="10.00">QuantConnect.Securities.</text>
<text text-anchor="middle" x="246" y="-105.5" font-family="Helvetica,sans-Serif" font-size="10.00">Future.FutureExchange</text>
</a>
</g>
</g>
<!-- Node0&#45;&gt;Node5 -->
<g id="edge5" class="edge">
<title>Node0&#45;&gt;Node5</title>
<path fill="none" stroke="midnightblue" d="M134.28,-144.68C153.07,-139.39 173.45,-133.65 191.55,-128.55"/>
<polygon fill="midnightblue" stroke="midnightblue" points="133.3,-141.32 124.63,-147.4 135.2,-148.06 133.3,-141.32"/>
</g>
<!-- Node6 -->
<g id="node7" class="node">
<title>Node6</title>
<g id="a_node7"><a xlink:href="classQuantConnect_1_1Securities_1_1Index_1_1IndexExchange.html" target="_top" xlink:title="INDEX exchange class &#45; information and helper tools for Index exchange properties">
<polygon fill="white" stroke="black" points="176,-49.5 176,-79.5 316,-79.5 316,-49.5 176,-49.5"/>
<text text-anchor="start" x="184" y="-67.5" font-family="Helvetica,sans-Serif" font-size="10.00">QuantConnect.Securities.</text>
<text text-anchor="middle" x="246" y="-56.5" font-family="Helvetica,sans-Serif" font-size="10.00">Index.IndexExchange</text>
</a>
</g>
</g>
<!-- Node0&#45;&gt;Node6 -->
<g id="edge6" class="edge">
<title>Node0&#45;&gt;Node6</title>
<path fill="none" stroke="midnightblue" d="M97.34,-141.29C117.87,-125.5 147.58,-104.21 176,-89.5 183.02,-85.87 190.68,-82.53 198.27,-79.56"/>
<polygon fill="midnightblue" stroke="midnightblue" points="95.14,-138.57 89.41,-147.48 99.45,-144.09 95.14,-138.57"/>
</g>
<!-- Node7 -->
<g id="node8" class="node">
<title>Node7</title>
<g id="a_node8"><a xlink:href="classQuantConnect_1_1Securities_1_1Option_1_1OptionExchange.html" target="_top" xlink:title="Option exchange class &#45; information and helper tools for option exchange properties">
<polygon fill="white" stroke="black" points="176,-0.5 176,-30.5 316,-30.5 316,-0.5 176,-0.5"/>
<text text-anchor="start" x="184" y="-18.5" font-family="Helvetica,sans-Serif" font-size="10.00">QuantConnect.Securities.</text>
<text text-anchor="middle" x="246" y="-7.5" font-family="Helvetica,sans-Serif" font-size="10.00">Option.OptionExchange</text>
</a>
</g>
</g>
<!-- Node0&#45;&gt;Node7 -->
<g id="edge7" class="edge">
<title>Node0&#45;&gt;Node7</title>
<path fill="none" stroke="midnightblue" d="M85.99,-138.62C104.21,-111.37 137.35,-67.16 176,-40.5 181.45,-36.74 187.54,-33.47 193.77,-30.66"/>
<polygon fill="midnightblue" stroke="midnightblue" points="82.95,-136.87 80.4,-147.16 88.8,-140.71 82.95,-136.87"/>
</g>
</g>
</svg>
