<?xml version="1.0" encoding="UTF-8" standalone="no"?>
<!DOCTYPE svg PUBLIC "-//W3C//DTD SVG 1.1//EN"
 "http://www.w3.org/Graphics/SVG/1.1/DTD/svg11.dtd">
<!-- Generated by graphviz version 2.43.0 (0)
 -->
<!-- Title: Graphical Class Hierarchy Pages: 1 -->
<svg width="414pt" height="63pt"
 viewBox="0.00 0.00 414.00 62.50" xmlns="http://www.w3.org/2000/svg" xmlns:xlink="http://www.w3.org/1999/xlink">
<g id="graph0" class="graph" transform="scale(1 1) rotate(0) translate(4 58.5)">
<title>Graphical Class Hierarchy</title>
<polygon fill="white" stroke="transparent" points="-4,4 -4,-58.5 410,-58.5 410,4 -4,4"/>
<!-- Node2611 -->
<g id="node1" class="node">
<title>Node2611</title>
<g id="a_node1"><a xlink:href="classQuantConnect_1_1Data_1_1Consolidators_1_1BaseTimelessConsolidator.html" target="_top" xlink:title=" ">
<polygon fill="white" stroke="black" points="0,-0.5 0,-41.5 185,-41.5 185,-0.5 0,-0.5"/>
<text text-anchor="start" x="8" y="-29.5" font-family="Helvetica,sans-Serif" font-size="10.00">QuantConnect.Data.Consolidators.</text>
<text text-anchor="start" x="8" y="-18.5" font-family="Helvetica,sans-Serif" font-size="10.00">BaseTimelessConsolidator&lt;</text>
<text text-anchor="middle" x="92.5" y="-7.5" font-family="Helvetica,sans-Serif" font-size="10.00"> RenkoBar &gt;</text>
</a>
</g>
</g>
<!-- Node1 -->
<g id="node2" class="node">
<title>Node1</title>
<g id="a_node2"><a xlink:href="classQuantConnect_1_1Data_1_1Consolidators_1_1ClassicRenkoConsolidator.html" target="_top" xlink:title="This consolidator can transform a stream of IBaseData instances into a stream of RenkoBar">
<polygon fill="white" stroke="black" points="221,-6 221,-36 406,-36 406,-6 221,-6"/>
<text text-anchor="start" x="229" y="-24" font-family="Helvetica,sans-Serif" font-size="10.00">QuantConnect.Data.Consolidators.</text>
<text text-anchor="middle" x="313.5" y="-13" font-family="Helvetica,sans-Serif" font-size="10.00">ClassicRenkoConsolidator</text>
</a>
</g>
</g>
<!-- Node2611&#45;&gt;Node1 -->
<g id="edge1" class="edge">
<title>Node2611&#45;&gt;Node1</title>
<path fill="none" stroke="midnightblue" d="M195.15,-21C203.74,-21 212.4,-21 220.91,-21"/>
<polygon fill="midnightblue" stroke="midnightblue" points="195.11,-17.5 185.11,-21 195.11,-24.5 195.11,-17.5"/>
</g>
<!-- Node1&#45;&gt;Node1 -->
<g id="edge2" class="edge">
<title>Node1&#45;&gt;Node1</title>
<path fill="none" stroke="midnightblue" d="M274.41,-46.46C279.26,-51.18 292.29,-54.5 313.5,-54.5 348.3,-54.5 361.08,-45.56 351.84,-36.16"/>
<polygon fill="midnightblue" stroke="midnightblue" points="277.92,-46.39 275.16,-36.16 270.94,-45.88 277.92,-46.39"/>
</g>
</g>
</svg>
