<?xml version="1.0" encoding="UTF-8" standalone="no"?>
<!DOCTYPE svg PUBLIC "-//W3C//DTD SVG 1.1//EN"
 "http://www.w3.org/Graphics/SVG/1.1/DTD/svg11.dtd">
<!-- Generated by graphviz version 2.43.0 (0)
 -->
<!-- Title: QuantConnect.Lean.Engine.Results.IResultHandler Pages: 1 -->
<svg width="592pt" height="88pt"
 viewBox="0.00 0.00 592.00 88.00" xmlns="http://www.w3.org/2000/svg" xmlns:xlink="http://www.w3.org/1999/xlink">
<g id="graph0" class="graph" transform="scale(1 1) rotate(0) translate(4 84)">
<title>QuantConnect.Lean.Engine.Results.IResultHandler</title>
<polygon fill="white" stroke="transparent" points="-4,4 -4,-84 588,-84 588,4 -4,4"/>
<!-- Node1 -->
<g id="node1" class="node">
<title>Node1</title>
<g id="a_node1"><a xlink:title="Handle the results of the backtest: where should we send the profit, portfolio updates: Backtester or...">
<polygon fill="#bfbfbf" stroke="black" points="0,-24.5 0,-54.5 151,-54.5 151,-24.5 0,-24.5"/>
<text text-anchor="start" x="8" y="-42.5" font-family="Helvetica,sans-Serif" font-size="10.00">QuantConnect.Lean.Engine.</text>
<text text-anchor="middle" x="75.5" y="-31.5" font-family="Helvetica,sans-Serif" font-size="10.00">Results.IResultHandler</text>
</a>
</g>
</g>
<!-- Node2 -->
<g id="node2" class="node">
<title>Node2</title>
<g id="a_node2"><a xlink:href="classQuantConnect_1_1Lean_1_1Engine_1_1Results_1_1BacktestingResultHandler.html" target="_top" xlink:title="Backtesting result handler passes messages back from the Lean to the User.">
<polygon fill="white" stroke="black" points="187,-49.5 187,-79.5 369,-79.5 369,-49.5 187,-49.5"/>
<text text-anchor="start" x="195" y="-67.5" font-family="Helvetica,sans-Serif" font-size="10.00">QuantConnect.Lean.Engine.</text>
<text text-anchor="middle" x="278" y="-56.5" font-family="Helvetica,sans-Serif" font-size="10.00">Results.BacktestingResultHandler</text>
</a>
</g>
</g>
<!-- Node1&#45;&gt;Node2 -->
<g id="edge1" class="edge">
<title>Node1&#45;&gt;Node2</title>
<path fill="none" stroke="midnightblue" d="M161.31,-50.07C169.7,-51.12 178.24,-52.19 186.68,-53.24"/>
<polygon fill="midnightblue" stroke="midnightblue" points="161.52,-46.57 151.16,-48.81 160.65,-53.52 161.52,-46.57"/>
</g>
<!-- Node4 -->
<g id="node4" class="node">
<title>Node4</title>
<g id="a_node4"><a xlink:href="classQuantConnect_1_1Lean_1_1Engine_1_1Results_1_1LiveTradingResultHandler.html" target="_top" xlink:title="Live trading result handler implementation passes the messages to the QC live trading interface.">
<polygon fill="white" stroke="black" points="188,-0.5 188,-30.5 368,-30.5 368,-0.5 188,-0.5"/>
<text text-anchor="start" x="196" y="-18.5" font-family="Helvetica,sans-Serif" font-size="10.00">QuantConnect.Lean.Engine.</text>
<text text-anchor="middle" x="278" y="-7.5" font-family="Helvetica,sans-Serif" font-size="10.00">Results.LiveTradingResultHandler</text>
</a>
</g>
</g>
<!-- Node1&#45;&gt;Node4 -->
<g id="edge3" class="edge">
<title>Node1&#45;&gt;Node4</title>
<path fill="none" stroke="midnightblue" d="M161.32,-29.35C170.05,-28.3 178.94,-27.24 187.71,-26.19"/>
<polygon fill="midnightblue" stroke="midnightblue" points="160.67,-25.9 151.16,-30.56 161.5,-32.85 160.67,-25.9"/>
</g>
<!-- Node3 -->
<g id="node3" class="node">
<title>Node3</title>
<g id="a_node3"><a xlink:href="classQuantConnect_1_1Lean_1_1Engine_1_1Results_1_1RegressionResultHandler.html" target="_top" xlink:title="Provides a wrapper over the BacktestingResultHandler that logs all order events to a separate file">
<polygon fill="white" stroke="black" points="405,-49.5 405,-79.5 584,-79.5 584,-49.5 405,-49.5"/>
<text text-anchor="start" x="413" y="-67.5" font-family="Helvetica,sans-Serif" font-size="10.00">QuantConnect.Lean.Engine.</text>
<text text-anchor="middle" x="494.5" y="-56.5" font-family="Helvetica,sans-Serif" font-size="10.00">Results.RegressionResultHandler</text>
</a>
</g>
</g>
<!-- Node2&#45;&gt;Node3 -->
<g id="edge2" class="edge">
<title>Node2&#45;&gt;Node3</title>
<path fill="none" stroke="midnightblue" d="M379.05,-64.5C387.62,-64.5 396.25,-64.5 404.73,-64.5"/>
<polygon fill="midnightblue" stroke="midnightblue" points="379.04,-61 369.03,-64.5 379.03,-68 379.04,-61"/>
</g>
</g>
</svg>
