<?xml version="1.0" encoding="UTF-8" standalone="no"?>
<!DOCTYPE svg PUBLIC "-//W3C//DTD SVG 1.1//EN"
 "http://www.w3.org/Graphics/SVG/1.1/DTD/svg11.dtd">
<!-- Generated by graphviz version 2.43.0 (0)
 -->
<!-- Title: QuantConnect.Interfaces.IFutureChainProvider.GetFutureContractList Pages: 1 -->
<svg width="379pt" height="50pt"
 viewBox="0.00 0.00 379.00 50.00" xmlns="http://www.w3.org/2000/svg" xmlns:xlink="http://www.w3.org/1999/xlink">
<g id="graph0" class="graph" transform="scale(1 1) rotate(0) translate(4 46)">
<title>QuantConnect.Interfaces.IFutureChainProvider.GetFutureContractList</title>
<polygon fill="white" stroke="transparent" points="-4,4 -4,-46 375,-46 375,4 -4,4"/>
<!-- Node1 -->
<g id="node1" class="node">
<title>Node1</title>
<g id="a_node1"><a xlink:title="Gets the list of future contracts for a given underlying symbol">
<polygon fill="#bfbfbf" stroke="black" points="202,-0.5 202,-41.5 371,-41.5 371,-0.5 202,-0.5"/>
<text text-anchor="start" x="210" y="-29.5" font-family="Helvetica,sans-Serif" font-size="10.00">QuantConnect.Interfaces.</text>
<text text-anchor="start" x="210" y="-18.5" font-family="Helvetica,sans-Serif" font-size="10.00">IFutureChainProvider.GetFuture</text>
<text text-anchor="middle" x="286.5" y="-7.5" font-family="Helvetica,sans-Serif" font-size="10.00">ContractList</text>
</a>
</g>
</g>
<!-- Node2 -->
<g id="node2" class="node">
<title>Node2</title>
<g id="a_node2"><a xlink:href="classQuantConnect_1_1Research_1_1QuantBook.html#adb20e11abea8d9dd61bd35023f470337" target="_top" xlink:title="Gets FutureHistory object for a given symbol, date and resolution">
<polygon fill="white" stroke="black" points="0,-6 0,-36 166,-36 166,-6 0,-6"/>
<text text-anchor="start" x="8" y="-24" font-family="Helvetica,sans-Serif" font-size="10.00">QuantConnect.Research.Quant</text>
<text text-anchor="middle" x="83" y="-13" font-family="Helvetica,sans-Serif" font-size="10.00">Book.GetFutureHistory</text>
</a>
</g>
</g>
<!-- Node1&#45;&gt;Node2 -->
<g id="edge1" class="edge">
<title>Node1&#45;&gt;Node2</title>
<path fill="none" stroke="midnightblue" d="M191.79,-21C183.23,-21 174.6,-21 166.15,-21"/>
<polygon fill="midnightblue" stroke="midnightblue" points="191.8,-24.5 201.8,-21 191.8,-17.5 191.8,-24.5"/>
</g>
</g>
</svg>
