<?xml version="1.0" encoding="UTF-8" standalone="no"?>
<!DOCTYPE svg PUBLIC "-//W3C//DTD SVG 1.1//EN"
 "http://www.w3.org/Graphics/SVG/1.1/DTD/svg11.dtd">
<!-- Generated by graphviz version 2.43.0 (0)
 -->
<!-- Title: QuantConnect.Interfaces.IAlgorithm.SetStatisticsService Pages: 1 -->
<svg width="396pt" height="110pt"
 viewBox="0.00 0.00 396.00 110.00" xmlns="http://www.w3.org/2000/svg" xmlns:xlink="http://www.w3.org/1999/xlink">
<g id="graph0" class="graph" transform="scale(1 1) rotate(0) translate(4 106)">
<title>QuantConnect.Interfaces.IAlgorithm.SetStatisticsService</title>
<polygon fill="white" stroke="transparent" points="-4,4 -4,-106 392,-106 392,4 -4,4"/>
<!-- Node1 -->
<g id="node1" class="node">
<title>Node1</title>
<g id="a_node1"><a xlink:title="Sets the statistics service instance to be used by the algorithm">
<polygon fill="#bfbfbf" stroke="black" points="221,-36 221,-66 388,-66 388,-36 221,-36"/>
<text text-anchor="start" x="229" y="-54" font-family="Helvetica,sans-Serif" font-size="10.00">QuantConnect.Interfaces.</text>
<text text-anchor="middle" x="304.5" y="-43" font-family="Helvetica,sans-Serif" font-size="10.00">IAlgorithm.SetStatisticsService</text>
</a>
</g>
</g>
<!-- Node2 -->
<g id="node2" class="node">
<title>Node2</title>
<g id="a_node2"><a xlink:href="classQuantConnect_1_1Lean_1_1Engine_1_1Results_1_1BacktestingResultHandler.html#a187cf964394ce96cafca9a1048e9b143" target="_top" xlink:title="Set the Algorithm instance for ths result.">
<polygon fill="white" stroke="black" points="0,-60.5 0,-101.5 185,-101.5 185,-60.5 0,-60.5"/>
<text text-anchor="start" x="8" y="-89.5" font-family="Helvetica,sans-Serif" font-size="10.00">QuantConnect.Lean.Engine.</text>
<text text-anchor="start" x="8" y="-78.5" font-family="Helvetica,sans-Serif" font-size="10.00">Results.BacktestingResultHandler.</text>
<text text-anchor="middle" x="92.5" y="-67.5" font-family="Helvetica,sans-Serif" font-size="10.00">SetAlgorithm</text>
</a>
</g>
</g>
<!-- Node1&#45;&gt;Node2 -->
<g id="edge1" class="edge">
<title>Node1&#45;&gt;Node2</title>
<path fill="none" stroke="midnightblue" d="M210.85,-64.24C202.31,-65.46 193.66,-66.69 185.14,-67.91"/>
<polygon fill="midnightblue" stroke="midnightblue" points="211.4,-67.69 220.8,-62.81 210.41,-60.76 211.4,-67.69"/>
</g>
<!-- Node3 -->
<g id="node3" class="node">
<title>Node3</title>
<g id="a_node3"><a xlink:href="classQuantConnect_1_1Lean_1_1Engine_1_1Results_1_1LiveTradingResultHandler.html#afc6bdfeeb94a6a5f8dbebd730153d16e" target="_top" xlink:title="Set the algorithm of the result handler after its been initialized.">
<polygon fill="white" stroke="black" points="1.5,-0.5 1.5,-41.5 183.5,-41.5 183.5,-0.5 1.5,-0.5"/>
<text text-anchor="start" x="9.5" y="-29.5" font-family="Helvetica,sans-Serif" font-size="10.00">QuantConnect.Lean.Engine.</text>
<text text-anchor="start" x="9.5" y="-18.5" font-family="Helvetica,sans-Serif" font-size="10.00">Results.LiveTradingResultHandler.</text>
<text text-anchor="middle" x="92.5" y="-7.5" font-family="Helvetica,sans-Serif" font-size="10.00">SetAlgorithm</text>
</a>
</g>
</g>
<!-- Node1&#45;&gt;Node3 -->
<g id="edge2" class="edge">
<title>Node1&#45;&gt;Node3</title>
<path fill="none" stroke="midnightblue" d="M210.74,-37.75C201.78,-36.47 192.69,-35.17 183.74,-33.89"/>
<polygon fill="midnightblue" stroke="midnightblue" points="210.41,-41.24 220.8,-39.19 211.4,-34.31 210.41,-41.24"/>
</g>
</g>
</svg>
