<?xml version="1.0" encoding="UTF-8" standalone="no"?>
<!DOCTYPE svg PUBLIC "-//W3C//DTD SVG 1.1//EN"
 "http://www.w3.org/Graphics/SVG/1.1/DTD/svg11.dtd">
<!-- Generated by graphviz version 2.43.0 (0)
 -->
<!-- Title: QuantConnect.Securities.IOrderProvider.GetOrderById Pages: 1 -->
<svg width="598pt" height="140pt"
 viewBox="0.00 0.00 598.00 140.00" xmlns="http://www.w3.org/2000/svg" xmlns:xlink="http://www.w3.org/1999/xlink">
<g id="graph0" class="graph" transform="scale(1 1) rotate(0) translate(4 136)">
<title>QuantConnect.Securities.IOrderProvider.GetOrderById</title>
<polygon fill="white" stroke="transparent" points="-4,4 -4,-136 594,-136 594,4 -4,4"/>
<!-- Node1 -->
<g id="node1" class="node">
<title>Node1</title>
<g id="a_node1"><a xlink:title="Get the order by its id">
<polygon fill="#bfbfbf" stroke="black" points="435,-36 435,-66 590,-66 590,-36 435,-36"/>
<text text-anchor="start" x="443" y="-54" font-family="Helvetica,sans-Serif" font-size="10.00">QuantConnect.Securities.</text>
<text text-anchor="middle" x="512.5" y="-43" font-family="Helvetica,sans-Serif" font-size="10.00">IOrderProvider.GetOrderById</text>
</a>
</g>
</g>
<!-- Node2 -->
<g id="node2" class="node">
<title>Node2</title>
<g id="a_node2"><a xlink:href="classQuantConnect_1_1Securities_1_1SecurityTransactionManager.html#a4d0d724ca30fc6e1b35ab18e4d691cc9" target="_top" xlink:title="Get the order by its id">
<polygon fill="white" stroke="black" points="221,-60.5 221,-101.5 395,-101.5 395,-60.5 221,-60.5"/>
<text text-anchor="start" x="229" y="-89.5" font-family="Helvetica,sans-Serif" font-size="10.00">QuantConnect.Securities.</text>
<text text-anchor="start" x="229" y="-78.5" font-family="Helvetica,sans-Serif" font-size="10.00">SecurityTransactionManager.Get</text>
<text text-anchor="middle" x="308" y="-67.5" font-family="Helvetica,sans-Serif" font-size="10.00">OrderById</text>
</a>
</g>
</g>
<!-- Node1&#45;&gt;Node2 -->
<g id="edge1" class="edge">
<title>Node1&#45;&gt;Node2</title>
<path fill="none" stroke="midnightblue" d="M424.8,-63.85C414.98,-65.3 404.97,-66.78 395.16,-68.24"/>
<polygon fill="midnightblue" stroke="midnightblue" points="425.56,-67.27 434.94,-62.34 424.54,-60.35 425.56,-67.27"/>
</g>
<!-- Node5 -->
<g id="node5" class="node">
<title>Node5</title>
<g id="a_node5"><a xlink:href="classQuantConnect_1_1Lean_1_1Engine_1_1Results_1_1LiveTradingResultHandler.html#aab3caeb98b4c3334e459e39a10b918ab" target="_top" xlink:title="New order event for the algorithm">
<polygon fill="white" stroke="black" points="217,-0.5 217,-41.5 399,-41.5 399,-0.5 217,-0.5"/>
<text text-anchor="start" x="225" y="-29.5" font-family="Helvetica,sans-Serif" font-size="10.00">QuantConnect.Lean.Engine.</text>
<text text-anchor="start" x="225" y="-18.5" font-family="Helvetica,sans-Serif" font-size="10.00">Results.LiveTradingResultHandler.</text>
<text text-anchor="middle" x="308" y="-7.5" font-family="Helvetica,sans-Serif" font-size="10.00">OrderEvent</text>
</a>
</g>
</g>
<!-- Node1&#45;&gt;Node5 -->
<g id="edge4" class="edge">
<title>Node1&#45;&gt;Node5</title>
<path fill="none" stroke="midnightblue" d="M425.02,-38.19C416.5,-36.93 407.83,-35.64 399.28,-34.37"/>
<polygon fill="midnightblue" stroke="midnightblue" points="424.54,-41.65 434.94,-39.66 425.56,-34.73 424.54,-41.65"/>
</g>
<!-- Node3 -->
<g id="node3" class="node">
<title>Node3</title>
<g id="a_node3"><a xlink:href="classQuantConnect_1_1Lean_1_1Engine_1_1Results_1_1RegressionResultHandler.html#ade01ef7b4dd4b2f6cc5d74017fb6c21b" target="_top" xlink:title="Log the order and order event to the dedicated log file for this regression algorithm">
<polygon fill="white" stroke="black" points="0,-90.5 0,-131.5 181,-131.5 181,-90.5 0,-90.5"/>
<text text-anchor="start" x="8" y="-119.5" font-family="Helvetica,sans-Serif" font-size="10.00">QuantConnect.Lean.Engine.</text>
<text text-anchor="start" x="8" y="-108.5" font-family="Helvetica,sans-Serif" font-size="10.00">Results.RegressionResultHandler.</text>
<text text-anchor="middle" x="90.5" y="-97.5" font-family="Helvetica,sans-Serif" font-size="10.00">OrderEvent</text>
</a>
</g>
</g>
<!-- Node2&#45;&gt;Node3 -->
<g id="edge2" class="edge">
<title>Node2&#45;&gt;Node3</title>
<path fill="none" stroke="midnightblue" d="M210.76,-94.4C200.97,-95.76 191.06,-97.14 181.34,-98.49"/>
<polygon fill="midnightblue" stroke="midnightblue" points="211.48,-97.83 220.9,-92.99 210.51,-90.9 211.48,-97.83"/>
</g>
<!-- Node4 -->
<g id="node4" class="node">
<title>Node4</title>
<g id="a_node4"><a xlink:href="classQuantConnect_1_1Securities_1_1Option_1_1OptionPortfolioModel.html#a48e4e5cdee0d93c295cf2f6171b0d079" target="_top" xlink:title="Performs application of an OrderEvent to the portfolio">
<polygon fill="white" stroke="black" points="11.5,-30.5 11.5,-71.5 169.5,-71.5 169.5,-30.5 11.5,-30.5"/>
<text text-anchor="start" x="19.5" y="-59.5" font-family="Helvetica,sans-Serif" font-size="10.00">QuantConnect.Securities.</text>
<text text-anchor="start" x="19.5" y="-48.5" font-family="Helvetica,sans-Serif" font-size="10.00">Option.OptionPortfolioModel.</text>
<text text-anchor="middle" x="90.5" y="-37.5" font-family="Helvetica,sans-Serif" font-size="10.00">ProcessFill</text>
</a>
</g>
</g>
<!-- Node2&#45;&gt;Node4 -->
<g id="edge3" class="edge">
<title>Node2&#45;&gt;Node4</title>
<path fill="none" stroke="midnightblue" d="M210.94,-67.63C197.17,-65.71 183.15,-63.76 169.79,-61.9"/>
<polygon fill="midnightblue" stroke="midnightblue" points="210.51,-71.1 220.9,-69.01 211.48,-64.17 210.51,-71.1"/>
</g>
</g>
</svg>
