<?xml version="1.0" encoding="UTF-8" standalone="no"?>
<!DOCTYPE svg PUBLIC "-//W3C//DTD SVG 1.1//EN"
 "http://www.w3.org/Graphics/SVG/1.1/DTD/svg11.dtd">
<!-- Generated by graphviz version 2.43.0 (0)
 -->
<!-- Title: QuantConnect.Securities.IVolatilityModel Pages: 1 -->
<!--zoomable 137 -->
<svg id="main" version="1.1" xmlns="http://www.w3.org/2000/svg" xmlns:xlink="http://www.w3.org/1999/xlink" xml:space="preserve" onload="init(evt)">
<style type="text/css"><![CDATA[
.edge:hover path { stroke: red; }
.edge:hover polygon { stroke: red; fill: red; }
]]></style>
<script type="text/javascript"><![CDATA[
var edges = document.getElementsByTagName('g');
if (edges && edges.length) {
  for (var i=0;i<edges.length;i++) {
    if (edges[i].id.substr(0,4)=='edge') {
      edges[i].setAttribute('class','edge');
    }
  }
}
]]></script>
        <defs>
                <circle id="rim" cx="0" cy="0" r="7"/>
                <circle id="rim2" cx="0" cy="0" r="3.5"/>
                <g id="zoomPlus">
                        <use xlink:href="#rim" fill="#404040">
                                <set attributeName="fill" to="#808080" begin="zoomplus.mouseover" end="zoomplus.mouseout"/>
                        </use>
                        <path d="M-4,0h8M0,-4v8" fill="none" stroke="white" stroke-width="1.5" pointer-events="none"/>
                </g>
                <g id="zoomMin">
                        <use xlink:href="#rim" fill="#404040">
                                <set attributeName="fill" to="#808080" begin="zoomminus.mouseover" end="zoomminus.mouseout"/>
                        </use>
                        <path d="M-4,0h8" fill="none" stroke="white" stroke-width="1.5" pointer-events="none"/>
                </g>
                <g id="dirArrow">
                        <path fill="none" stroke="white" stroke-width="1.5" d="M0,-3.0v7 M-2.5,-0.5L0,-3.0L2.5,-0.5"/>
                </g>
               <g id="resetDef">
                       <use xlink:href="#rim2" fill="#404040">
                               <set attributeName="fill" to="#808080" begin="reset.mouseover" end="reset.mouseout"/>
                       </use>
               </g>
        </defs>

<script type="text/javascript">
var viewWidth = 611;
var viewHeight = 137;
var sectionId = 'dynsection-0';
</script>
<script xlink:href="svgpan.js"/>
<svg id="graph" class="graph">
<g id="viewport">
<title>QuantConnect.Securities.IVolatilityModel</title>
<polygon fill="white" stroke="transparent" points="-4,4 -4,-133 607,-133 607,4 -4,4"/>
<!-- Node1 -->
<g id="node1" class="node">
<title>Node1</title>
<g id="a_node1"><a xlink:title="Represents a model that computes the volatility of a security">
<polygon fill="#bfbfbf" stroke="black" points="0,-73.5 0,-103.5 140,-103.5 140,-73.5 0,-73.5"/>
<text text-anchor="start" x="8" y="-91.5" font-family="Helvetica,sans-Serif" font-size="10.00">QuantConnect.Securities.</text>
<text text-anchor="middle" x="70" y="-80.5" font-family="Helvetica,sans-Serif" font-size="10.00">IVolatilityModel</text>
</a>
</g>
</g>
<!-- Node2 -->
<g id="node2" class="node">
<title>Node2</title>
<g id="a_node2"><a xlink:href="classQuantConnect_1_1Securities_1_1IndicatorVolatilityModel.html" target="_top" xlink:title="Provides an implementation of IVolatilityModel that uses an indicator to compute its value">
<polygon fill="white" stroke="black" points="176,-98.5 176,-128.5 337,-128.5 337,-98.5 176,-98.5"/>
<text text-anchor="start" x="184" y="-116.5" font-family="Helvetica,sans-Serif" font-size="10.00">QuantConnect.Securities.</text>
<text text-anchor="middle" x="256.5" y="-105.5" font-family="Helvetica,sans-Serif" font-size="10.00">IndicatorVolatilityModel&lt; T &gt;</text>
</a>
</g>
</g>
<!-- Node1&#45;&gt;Node2 -->
<g id="edge1" class="edge">
<title>Node1&#45;&gt;Node2</title>
<path fill="none" stroke="midnightblue" d="M150.17,-99.23C158.71,-100.39 167.41,-101.56 175.96,-102.72"/>
<polygon fill="midnightblue" stroke="midnightblue" points="150.61,-95.75 140.23,-97.88 149.67,-102.69 150.61,-95.75"/>
</g>
<!-- Node3 -->
<g id="node3" class="node">
<title>Node3</title>
<g id="a_node3"><a xlink:href="classQuantConnect_1_1Securities_1_1Volatility_1_1BaseVolatilityModel.html" target="_top" xlink:title="Represents a base model that computes the volatility of a security">
<polygon fill="white" stroke="black" points="177,-49.5 177,-79.5 336,-79.5 336,-49.5 177,-49.5"/>
<text text-anchor="start" x="185" y="-67.5" font-family="Helvetica,sans-Serif" font-size="10.00">QuantConnect.Securities.</text>
<text text-anchor="middle" x="256.5" y="-56.5" font-family="Helvetica,sans-Serif" font-size="10.00">Volatility.BaseVolatilityModel</text>
</a>
</g>
</g>
<!-- Node1&#45;&gt;Node3 -->
<g id="edge2" class="edge">
<title>Node1&#45;&gt;Node3</title>
<path fill="none" stroke="midnightblue" d="M150.15,-78.2C159.01,-77.05 168.04,-75.88 176.89,-74.73"/>
<polygon fill="midnightblue" stroke="midnightblue" points="149.69,-74.73 140.23,-79.5 150.59,-81.68 149.69,-74.73"/>
</g>
<!-- Node4 -->
<g id="node4" class="node">
<title>Node4</title>
<g id="a_node4"><a xlink:href="classQuantConnect_1_1Python_1_1VolatilityModelPythonWrapper.html" target="_top" xlink:title="Provides a volatility model that wraps a PyObject object that represents a model that computes the vo...">
<polygon fill="white" stroke="black" points="403.5,-98.5 403.5,-128.5 572.5,-128.5 572.5,-98.5 403.5,-98.5"/>
<text text-anchor="start" x="411.5" y="-116.5" font-family="Helvetica,sans-Serif" font-size="10.00">QuantConnect.Python.Volatility</text>
<text text-anchor="middle" x="488" y="-105.5" font-family="Helvetica,sans-Serif" font-size="10.00">ModelPythonWrapper</text>
</a>
</g>
</g>
<!-- Node3&#45;&gt;Node4 -->
<g id="edge3" class="edge">
<title>Node3&#45;&gt;Node4</title>
<path fill="none" stroke="midnightblue" d="M336.28,-81.61C348.57,-84.27 361.13,-86.97 373,-89.5 386.65,-92.41 401.22,-95.5 415.23,-98.45"/>
<polygon fill="midnightblue" stroke="midnightblue" points="337.01,-78.19 326.5,-79.5 335.54,-85.03 337.01,-78.19"/>
</g>
<!-- Node5 -->
<g id="node5" class="node">
<title>Node5</title>
<g id="a_node5"><a xlink:href="classQuantConnect_1_1Securities_1_1RelativeStandardDeviationVolatilityModel.html" target="_top" xlink:title="Provides an implementation of IVolatilityModel that computes the relative standard deviation as the v...">
<polygon fill="white" stroke="black" points="377.5,-49.5 377.5,-79.5 598.5,-79.5 598.5,-49.5 377.5,-49.5"/>
<text text-anchor="start" x="385.5" y="-67.5" font-family="Helvetica,sans-Serif" font-size="10.00">QuantConnect.Securities.</text>
<text text-anchor="middle" x="488" y="-56.5" font-family="Helvetica,sans-Serif" font-size="10.00">RelativeStandardDeviationVolatilityModel</text>
</a>
</g>
</g>
<!-- Node3&#45;&gt;Node5 -->
<g id="edge4" class="edge">
<title>Node3&#45;&gt;Node5</title>
<path fill="none" stroke="midnightblue" d="M346.21,-64.5C356.36,-64.5 366.81,-64.5 377.2,-64.5"/>
<polygon fill="midnightblue" stroke="midnightblue" points="346.16,-61 336.16,-64.5 346.16,-68 346.16,-61"/>
</g>
<!-- Node6 -->
<g id="node6" class="node">
<title>Node6</title>
<g id="a_node6"><a xlink:href="classQuantConnect_1_1Securities_1_1StandardDeviationOfReturnsVolatilityModel.html" target="_top" xlink:title="Provides an implementation of IVolatilityModel that computes the annualized sample standard deviation...">
<polygon fill="white" stroke="black" points="373,-0.5 373,-30.5 603,-30.5 603,-0.5 373,-0.5"/>
<text text-anchor="start" x="381" y="-18.5" font-family="Helvetica,sans-Serif" font-size="10.00">QuantConnect.Securities.</text>
<text text-anchor="middle" x="488" y="-7.5" font-family="Helvetica,sans-Serif" font-size="10.00">StandardDeviationOfReturnsVolatilityModel</text>
</a>
</g>
</g>
<!-- Node3&#45;&gt;Node6 -->
<g id="edge5" class="edge">
<title>Node3&#45;&gt;Node6</title>
<path fill="none" stroke="midnightblue" d="M337.99,-47.31C363.65,-41.84 391.83,-35.82 416.72,-30.51"/>
<polygon fill="midnightblue" stroke="midnightblue" points="336.97,-43.95 327.92,-49.47 338.43,-50.8 336.97,-43.95"/>
</g>
</g>
</svg>
        <g id="navigator" transform="translate(0 0)" fill="#404254">
                <rect fill="#f2f5e9" fill-opacity="0.5" stroke="#606060" stroke-width=".5" x="0" y="0" width="60" height="60"/>
                <use id="zoomplus" xlink:href="#zoomPlus" x="17" y="9" onmousedown="handleZoom(evt,'in')"/>
                <use id="zoomminus" xlink:href="#zoomMin" x="42" y="9" onmousedown="handleZoom(evt,'out')"/>
                <use id="reset" xlink:href="#resetDef" x="30" y="36" onmousedown="handleReset()"/>
                <g id="arrowUp" xlink:href="#dirArrow" transform="translate(30 24)" onmousedown="handlePan(0,-1)">
                  <use xlink:href="#rim" fill="#404040">
                        <set attributeName="fill" to="#808080" begin="arrowUp.mouseover" end="arrowUp.mouseout"/>
                  </use>
                  <path fill="none" stroke="white" stroke-width="1.5" d="M0,-3.0v7 M-2.5,-0.5L0,-3.0L2.5,-0.5"/>
                </g>
                <g id="arrowRight" xlink:href="#dirArrow" transform="rotate(90) translate(36 -43)" onmousedown="handlePan(1,0)">
                  <use xlink:href="#rim" fill="#404040">
                        <set attributeName="fill" to="#808080" begin="arrowRight.mouseover" end="arrowRight.mouseout"/>
                  </use>
                  <path fill="none" stroke="white" stroke-width="1.5" d="M0,-3.0v7 M-2.5,-0.5L0,-3.0L2.5,-0.5"/>
                </g>
                <g id="arrowDown" xlink:href="#dirArrow" transform="rotate(180) translate(-30 -48)" onmousedown="handlePan(0,1)">
                  <use xlink:href="#rim" fill="#404040">
                        <set attributeName="fill" to="#808080" begin="arrowDown.mouseover" end="arrowDown.mouseout"/>
                  </use>
                  <path fill="none" stroke="white" stroke-width="1.5" d="M0,-3.0v7 M-2.5,-0.5L0,-3.0L2.5,-0.5"/>
                </g>
                <g id="arrowLeft" xlink:href="#dirArrow" transform="rotate(270) translate(-36 17)" onmousedown="handlePan(-1,0)">
                  <use xlink:href="#rim" fill="#404040">
                        <set attributeName="fill" to="#808080" begin="arrowLeft.mouseover" end="arrowLeft.mouseout"/>
                  </use>
                  <path fill="none" stroke="white" stroke-width="1.5" d="M0,-3.0v7 M-2.5,-0.5L0,-3.0L2.5,-0.5"/>
                </g>
        </g>
        <svg viewBox="0 0 15 15" width="100%" height="30px" preserveAspectRatio="xMaxYMin meet">
         <g id="arrow_out" transform="scale(0.3 0.3)">
          <a xlink:href="interfaceQuantConnect_1_1Securities_1_1IVolatilityModel__inherit__graph_org.svg" target="_base">
           <rect id="button" ry="5" rx="5" y="6" x="6" height="38" width="38"
                fill="#f2f5e9" fill-opacity="0.5" stroke="#606060" stroke-width="1.0"/>
           <path id="arrow"
             d="M 11.500037,31.436501 C 11.940474,20.09759 22.043105,11.32322 32.158766,21.979434 L 37.068811,17.246167 C 37.068811,17.246167 37.088388,32 37.088388,32 L 22.160133,31.978069 C 22.160133,31.978069 26.997745,27.140456 26.997745,27.140456 C 18.528582,18.264221 13.291696,25.230495 11.500037,31.436501 z"
             style="fill:#404040;"/>
          </a>
         </g>
        </svg>
</svg>
