<?xml version="1.0" encoding="UTF-8" standalone="no"?>
<!DOCTYPE svg PUBLIC "-//W3C//DTD SVG 1.1//EN"
 "http://www.w3.org/Graphics/SVG/1.1/DTD/svg11.dtd">
<!-- Generated by graphviz version 2.43.0 (0)
 -->
<!-- Title: QuantConnect.Interfaces.IAlgorithm.Error Pages: 1 -->
<svg width="698pt" height="621pt"
 viewBox="0.00 0.00 698.00 621.00" xmlns="http://www.w3.org/2000/svg" xmlns:xlink="http://www.w3.org/1999/xlink">
<g id="graph0" class="graph" transform="scale(1 1) rotate(0) translate(4 617)">
<title>QuantConnect.Interfaces.IAlgorithm.Error</title>
<polygon fill="white" stroke="transparent" points="-4,4 -4,-617 694,-617 694,4 -4,4"/>
<!-- Node1 -->
<g id="node1" class="node">
<title>Node1</title>
<g id="a_node1"><a xlink:title="Send an error message for the algorithm">
<polygon fill="#bfbfbf" stroke="black" points="550,-299 550,-329 690,-329 690,-299 550,-299"/>
<text text-anchor="start" x="558" y="-317" font-family="Helvetica,sans-Serif" font-size="10.00">QuantConnect.Interfaces.</text>
<text text-anchor="middle" x="620" y="-306" font-family="Helvetica,sans-Serif" font-size="10.00">IAlgorithm.Error</text>
</a>
</g>
</g>
<!-- Node2 -->
<g id="node2" class="node">
<title>Node2</title>
<g id="a_node2"><a xlink:href="classQuantConnect_1_1Lean_1_1Engine_1_1Results_1_1RegressionResultHandler.html#ade656801b5499dab8c205dd6a57cf236" target="_top" xlink:title="We want to make algorithm messages end up in both the standard regression log file {algorithm}....">
<polygon fill="white" stroke="black" points="310,-571.5 310,-612.5 491,-612.5 491,-571.5 310,-571.5"/>
<text text-anchor="start" x="318" y="-600.5" font-family="Helvetica,sans-Serif" font-size="10.00">QuantConnect.Lean.Engine.</text>
<text text-anchor="start" x="318" y="-589.5" font-family="Helvetica,sans-Serif" font-size="10.00">Results.RegressionResultHandler.</text>
<text text-anchor="middle" x="400.5" y="-578.5" font-family="Helvetica,sans-Serif" font-size="10.00">ConfigureConsoleTextWriter</text>
</a>
</g>
</g>
<!-- Node1&#45;&gt;Node2 -->
<g id="edge1" class="edge">
<title>Node1&#45;&gt;Node2</title>
<path fill="none" stroke="midnightblue" d="M615.7,-339.21C607.76,-389.4 582.88,-502.14 514,-562 507.21,-567.9 499.38,-572.66 491.08,-576.49"/>
<polygon fill="midnightblue" stroke="midnightblue" points="619.18,-339.62 617.18,-329.21 612.25,-338.59 619.18,-339.62"/>
</g>
<!-- Node3 -->
<g id="node3" class="node">
<title>Node3</title>
<g id="a_node3"><a xlink:href="classQuantConnect_1_1Lean_1_1Engine_1_1Results_1_1BacktestingResultHandler.html#a3d67960a346455c56df5a6bc8aca0d9d" target="_top" xlink:title="Configures the Console.Out and Console.Error TextWriter instances. By default, we forward Console....">
<polygon fill="white" stroke="black" points="308,-511.5 308,-552.5 493,-552.5 493,-511.5 308,-511.5"/>
<text text-anchor="start" x="316" y="-540.5" font-family="Helvetica,sans-Serif" font-size="10.00">QuantConnect.Lean.Engine.</text>
<text text-anchor="start" x="316" y="-529.5" font-family="Helvetica,sans-Serif" font-size="10.00">Results.BacktestingResultHandler.</text>
<text text-anchor="middle" x="400.5" y="-518.5" font-family="Helvetica,sans-Serif" font-size="10.00">ConfigureConsoleTextWriter</text>
</a>
</g>
</g>
<!-- Node1&#45;&gt;Node3 -->
<g id="edge2" class="edge">
<title>Node1&#45;&gt;Node3</title>
<path fill="none" stroke="midnightblue" d="M612.11,-338.72C599.54,-379.17 568.97,-459.25 514,-502 507.7,-506.9 500.66,-511.01 493.27,-514.44"/>
<polygon fill="midnightblue" stroke="midnightblue" points="615.47,-339.69 614.99,-329.11 608.77,-337.69 615.47,-339.69"/>
</g>
<!-- Node5 -->
<g id="node5" class="node">
<title>Node5</title>
<g id="a_node5"><a xlink:href="classQuantConnect_1_1Algorithm_1_1Framework_1_1Portfolio_1_1SignalExports_1_1Collective2SignalExport.html#a87920e10ff6ced2b1299745f8ddb5aa3" target="_top" xlink:title="Converts a list of targets to a list of Collective2 positions">
<polygon fill="white" stroke="black" points="287,-451.5 287,-492.5 514,-492.5 514,-451.5 287,-451.5"/>
<text text-anchor="start" x="295" y="-480.5" font-family="Helvetica,sans-Serif" font-size="10.00">QuantConnect.Algorithm.Framework.</text>
<text text-anchor="start" x="295" y="-469.5" font-family="Helvetica,sans-Serif" font-size="10.00">Portfolio.SignalExports.Collective2</text>
<text text-anchor="middle" x="400.5" y="-458.5" font-family="Helvetica,sans-Serif" font-size="10.00">SignalExport.ConvertHoldingsToCollective2</text>
</a>
</g>
</g>
<!-- Node1&#45;&gt;Node5 -->
<g id="edge4" class="edge">
<title>Node1&#45;&gt;Node5</title>
<path fill="none" stroke="midnightblue" d="M605.76,-337.93C588.46,-366.96 555.43,-415.32 514,-442 508.48,-445.56 502.54,-448.69 496.39,-451.46"/>
<polygon fill="midnightblue" stroke="midnightblue" points="608.82,-339.64 610.82,-329.24 602.76,-336.13 608.82,-339.64"/>
</g>
<!-- Node7 -->
<g id="node7" class="node">
<title>Node7</title>
<g id="a_node7"><a xlink:href="classQuantConnect_1_1Algorithm_1_1Framework_1_1Portfolio_1_1SignalExports_1_1NumeraiSignalExport.html#ac36044a1e33b4c653a1b233e2430c835" target="_top" xlink:title="Verifies each holding&#39;s signal is between 0 and 1 (exclusive)">
<polygon fill="white" stroke="black" points="299,-391.5 299,-432.5 502,-432.5 502,-391.5 299,-391.5"/>
<text text-anchor="start" x="307" y="-420.5" font-family="Helvetica,sans-Serif" font-size="10.00">QuantConnect.Algorithm.Framework.</text>
<text text-anchor="start" x="307" y="-409.5" font-family="Helvetica,sans-Serif" font-size="10.00">Portfolio.SignalExports.NumeraiSignal</text>
<text text-anchor="middle" x="400.5" y="-398.5" font-family="Helvetica,sans-Serif" font-size="10.00">Export.ConvertTargetsToNumerai</text>
</a>
</g>
</g>
<!-- Node1&#45;&gt;Node7 -->
<g id="edge6" class="edge">
<title>Node1&#45;&gt;Node7</title>
<path fill="none" stroke="midnightblue" d="M588.76,-334.79C568.33,-348.17 540.37,-365.19 514,-377 502.05,-382.35 489.05,-387.21 476.26,-391.5"/>
<polygon fill="midnightblue" stroke="midnightblue" points="590.91,-337.57 597.31,-329.12 587.04,-331.74 590.91,-337.57"/>
</g>
<!-- Node8 -->
<g id="node8" class="node">
<title>Node8</title>
<g id="a_node8"><a xlink:href="classQuantConnect_1_1Algorithm_1_1Framework_1_1Portfolio_1_1SignalExports_1_1NumeraiSignalExport.html#a5a2a1c78fa544ad73fcd1ff090063533" target="_top" xlink:title="Verifies all the given holdings are accepted by Numerai, creates a message with those holdings in the...">
<polygon fill="white" stroke="black" points="24,-372.5 24,-413.5 227,-413.5 227,-372.5 24,-372.5"/>
<text text-anchor="start" x="32" y="-401.5" font-family="Helvetica,sans-Serif" font-size="10.00">QuantConnect.Algorithm.Framework.</text>
<text text-anchor="start" x="32" y="-390.5" font-family="Helvetica,sans-Serif" font-size="10.00">Portfolio.SignalExports.NumeraiSignal</text>
<text text-anchor="middle" x="125.5" y="-379.5" font-family="Helvetica,sans-Serif" font-size="10.00">Export.Send</text>
</a>
</g>
</g>
<!-- Node1&#45;&gt;Node8 -->
<g id="edge17" class="edge">
<title>Node1&#45;&gt;Node8</title>
<path fill="none" stroke="midnightblue" d="M562.12,-331.96C546.63,-336.38 529.77,-340.77 514,-344 417.51,-363.76 305.77,-376.88 227.14,-384.52"/>
<polygon fill="midnightblue" stroke="midnightblue" points="563.45,-335.22 572.08,-329.06 561.5,-328.5 563.45,-335.22"/>
</g>
<!-- Node9 -->
<g id="node9" class="node">
<title>Node9</title>
<g id="a_node9"><a xlink:href="classQuantConnect_1_1Algorithm_1_1Framework_1_1Portfolio_1_1SignalExports_1_1CrunchDAOSignalExport.html#ab99efe31937cc5fbf895a46b1402c84c" target="_top" xlink:title="Converts the list of holdings into a CSV format string">
<polygon fill="white" stroke="black" points="292.5,-293.5 292.5,-334.5 508.5,-334.5 508.5,-293.5 292.5,-293.5"/>
<text text-anchor="start" x="300.5" y="-322.5" font-family="Helvetica,sans-Serif" font-size="10.00">QuantConnect.Algorithm.Framework.</text>
<text text-anchor="start" x="300.5" y="-311.5" font-family="Helvetica,sans-Serif" font-size="10.00">Portfolio.SignalExports.CrunchDAOSignal</text>
<text text-anchor="middle" x="400.5" y="-300.5" font-family="Helvetica,sans-Serif" font-size="10.00">Export.ConvertToCSVFormat</text>
</a>
</g>
</g>
<!-- Node1&#45;&gt;Node9 -->
<g id="edge8" class="edge">
<title>Node1&#45;&gt;Node9</title>
<path fill="none" stroke="midnightblue" d="M539.84,-314C529.66,-314 519.1,-314 508.56,-314"/>
<polygon fill="midnightblue" stroke="midnightblue" points="539.88,-317.5 549.88,-314 539.88,-310.5 539.88,-317.5"/>
</g>
<!-- Node11 -->
<g id="node11" class="node">
<title>Node11</title>
<g id="a_node11"><a xlink:href="classQuantConnect_1_1Algorithm_1_1Framework_1_1Portfolio_1_1PortfolioTarget.html#a6e9c9bbcf5f629f8c686bab23c542db0" target="_top" xlink:title="Creates a new target for the specified percent">
<polygon fill="white" stroke="black" points="302,-244 302,-274 499,-274 499,-244 302,-244"/>
<text text-anchor="start" x="310" y="-262" font-family="Helvetica,sans-Serif" font-size="10.00">QuantConnect.Algorithm.Framework.</text>
<text text-anchor="middle" x="400.5" y="-251" font-family="Helvetica,sans-Serif" font-size="10.00">Portfolio.PortfolioTarget.Percent</text>
</a>
</g>
</g>
<!-- Node1&#45;&gt;Node11 -->
<g id="edge10" class="edge">
<title>Node1&#45;&gt;Node11</title>
<path fill="none" stroke="midnightblue" d="M558.77,-296.12C544.16,-291.97 528.56,-287.69 514,-284 500.52,-280.58 486.07,-277.17 472.17,-274.03"/>
<polygon fill="midnightblue" stroke="midnightblue" points="558.12,-299.58 568.7,-298.97 560.05,-292.85 558.12,-299.58"/>
</g>
<!-- Node12 -->
<g id="node12" class="node">
<title>Node12</title>
<g id="a_node12"><a xlink:href="classQuantConnect_1_1Commands_1_1BaseCommandHandler.html#a42c962525bf97988e04ee3673adf8876" target="_top" xlink:title="Will consumer and execute any command in the queue">
<polygon fill="white" stroke="black" points="300.5,-195 300.5,-225 500.5,-225 500.5,-195 300.5,-195"/>
<text text-anchor="start" x="308.5" y="-213" font-family="Helvetica,sans-Serif" font-size="10.00">QuantConnect.Commands.Base</text>
<text text-anchor="middle" x="400.5" y="-202" font-family="Helvetica,sans-Serif" font-size="10.00">CommandHandler.ProcessCommands</text>
</a>
</g>
</g>
<!-- Node1&#45;&gt;Node12 -->
<g id="edge11" class="edge">
<title>Node1&#45;&gt;Node12</title>
<path fill="none" stroke="midnightblue" d="M595.92,-291.98C575.82,-274.01 545.09,-249.33 514,-235 505.55,-231.11 496.46,-227.8 487.24,-225"/>
<polygon fill="midnightblue" stroke="midnightblue" points="593.59,-294.59 603.34,-298.74 598.3,-289.42 593.59,-294.59"/>
</g>
<!-- Node13 -->
<g id="node13" class="node">
<title>Node13</title>
<g id="a_node13"><a xlink:href="classQuantConnect_1_1Lean_1_1Engine_1_1TransactionHandlers_1_1BrokerageTransactionHandler.html#a69a9f8269cc0b16bcbdaf863f6d26516" target="_top" xlink:title="Rounds off the order towards 0 to the nearest multiple of Lot Size">
<polygon fill="white" stroke="black" points="288.5,-134.5 288.5,-175.5 512.5,-175.5 512.5,-134.5 288.5,-134.5"/>
<text text-anchor="start" x="296.5" y="-163.5" font-family="Helvetica,sans-Serif" font-size="10.00">QuantConnect.Lean.Engine.</text>
<text text-anchor="start" x="296.5" y="-152.5" font-family="Helvetica,sans-Serif" font-size="10.00">TransactionHandlers.BrokerageTransaction</text>
<text text-anchor="middle" x="400.5" y="-141.5" font-family="Helvetica,sans-Serif" font-size="10.00">Handler.RoundOffOrder</text>
</a>
</g>
</g>
<!-- Node1&#45;&gt;Node13 -->
<g id="edge12" class="edge">
<title>Node1&#45;&gt;Node13</title>
<path fill="none" stroke="midnightblue" d="M605.72,-290.12C588.39,-261.15 555.32,-212.85 514,-186 507.88,-182.03 501.26,-178.56 494.4,-175.53"/>
<polygon fill="midnightblue" stroke="midnightblue" points="602.73,-291.93 610.79,-298.8 608.77,-288.4 602.73,-291.93"/>
</g>
<!-- Node14 -->
<g id="node14" class="node">
<title>Node14</title>
<g id="a_node14"><a xlink:href="classQuantConnect_1_1Commands_1_1OrderCommand.html#a9076463d1b93e18f452219182b25f721" target="_top" xlink:title="Runs this command against the specified algorithm instance">
<polygon fill="white" stroke="black" points="313.5,-85 313.5,-115 487.5,-115 487.5,-85 313.5,-85"/>
<text text-anchor="start" x="321.5" y="-103" font-family="Helvetica,sans-Serif" font-size="10.00">QuantConnect.Commands.Order</text>
<text text-anchor="middle" x="400.5" y="-92" font-family="Helvetica,sans-Serif" font-size="10.00">Command.Run</text>
</a>
</g>
</g>
<!-- Node1&#45;&gt;Node14 -->
<g id="edge13" class="edge">
<title>Node1&#45;&gt;Node14</title>
<path fill="none" stroke="midnightblue" d="M612.44,-289.19C600.27,-248.26 570.17,-166.93 514,-125 506.06,-119.08 496.99,-114.51 487.52,-110.99"/>
<polygon fill="midnightblue" stroke="midnightblue" points="609.1,-290.26 615.21,-298.91 615.83,-288.34 609.1,-290.26"/>
</g>
<!-- Node15 -->
<g id="node15" class="node">
<title>Node15</title>
<g id="a_node15"><a xlink:href="classQuantConnect_1_1Brokerages_1_1Backtesting_1_1BacktestingBrokerage.html#a6edb48357fd0f0e43cf45047e789b038" target="_top" xlink:title="Scans all the outstanding orders and applies the algorithm model fills to generate the order events">
<polygon fill="white" stroke="black" points="295,-36 295,-66 506,-66 506,-36 295,-36"/>
<text text-anchor="start" x="303" y="-54" font-family="Helvetica,sans-Serif" font-size="10.00">QuantConnect.Brokerages.</text>
<text text-anchor="middle" x="400.5" y="-43" font-family="Helvetica,sans-Serif" font-size="10.00">Backtesting.BacktestingBrokerage.Scan</text>
</a>
</g>
</g>
<!-- Node1&#45;&gt;Node15 -->
<g id="edge14" class="edge">
<title>Node1&#45;&gt;Node15</title>
<path fill="none" stroke="midnightblue" d="M615.54,-288.74C607.4,-239.49 582.28,-130.61 514,-75 509.82,-71.59 505.27,-68.64 500.47,-66.08"/>
<polygon fill="midnightblue" stroke="midnightblue" points="612.12,-289.49 617.11,-298.84 619.03,-288.42 612.12,-289.49"/>
</g>
<!-- Node4 -->
<g id="node4" class="node">
<title>Node4</title>
<g id="a_node4"><a xlink:href="classQuantConnect_1_1Lean_1_1Engine_1_1Results_1_1BacktestingResultHandler.html#a187cf964394ce96cafca9a1048e9b143" target="_top" xlink:title="Set the Algorithm instance for ths result.">
<polygon fill="white" stroke="black" points="33,-511.5 33,-552.5 218,-552.5 218,-511.5 33,-511.5"/>
<text text-anchor="start" x="41" y="-540.5" font-family="Helvetica,sans-Serif" font-size="10.00">QuantConnect.Lean.Engine.</text>
<text text-anchor="start" x="41" y="-529.5" font-family="Helvetica,sans-Serif" font-size="10.00">Results.BacktestingResultHandler.</text>
<text text-anchor="middle" x="125.5" y="-518.5" font-family="Helvetica,sans-Serif" font-size="10.00">SetAlgorithm</text>
</a>
</g>
</g>
<!-- Node3&#45;&gt;Node4 -->
<g id="edge3" class="edge">
<title>Node3&#45;&gt;Node4</title>
<path fill="none" stroke="midnightblue" d="M297.59,-532C271.61,-532 243.84,-532 218.39,-532"/>
<polygon fill="midnightblue" stroke="midnightblue" points="297.84,-535.5 307.84,-532 297.84,-528.5 297.84,-535.5"/>
</g>
<!-- Node6 -->
<g id="node6" class="node">
<title>Node6</title>
<g id="a_node6"><a xlink:href="classQuantConnect_1_1Algorithm_1_1Framework_1_1Portfolio_1_1SignalExports_1_1Collective2SignalExport.html#ae72a36410f161dff06b714c17837a623" target="_top" xlink:title="Creates a JSON message with the desired positions using the expected Collective2 API format and then ...">
<polygon fill="white" stroke="black" points="27,-451.5 27,-492.5 224,-492.5 224,-451.5 27,-451.5"/>
<text text-anchor="start" x="35" y="-480.5" font-family="Helvetica,sans-Serif" font-size="10.00">QuantConnect.Algorithm.Framework.</text>
<text text-anchor="start" x="35" y="-469.5" font-family="Helvetica,sans-Serif" font-size="10.00">Portfolio.SignalExports.Collective2</text>
<text text-anchor="middle" x="125.5" y="-458.5" font-family="Helvetica,sans-Serif" font-size="10.00">SignalExport.Send</text>
</a>
</g>
</g>
<!-- Node5&#45;&gt;Node6 -->
<g id="edge5" class="edge">
<title>Node5&#45;&gt;Node6</title>
<path fill="none" stroke="midnightblue" d="M276.57,-472C258.97,-472 241.06,-472 224.04,-472"/>
<polygon fill="midnightblue" stroke="midnightblue" points="276.88,-475.5 286.88,-472 276.88,-468.5 276.88,-475.5"/>
</g>
<!-- Node7&#45;&gt;Node8 -->
<g id="edge7" class="edge">
<title>Node7&#45;&gt;Node8</title>
<path fill="none" stroke="midnightblue" d="M288.46,-404.27C268.27,-402.87 247.3,-401.41 227.42,-400.02"/>
<polygon fill="midnightblue" stroke="midnightblue" points="288.4,-407.78 298.62,-404.98 288.89,-400.79 288.4,-407.78"/>
</g>
<!-- Node10 -->
<g id="node10" class="node">
<title>Node10</title>
<g id="a_node10"><a xlink:href="classQuantConnect_1_1Algorithm_1_1Framework_1_1Portfolio_1_1SignalExports_1_1CrunchDAOSignalExport.html#a7464145034ec48cc24ca119e6f82c43f" target="_top" xlink:title="Verifies every holding is a stock, creates a message with the desired positions using the expected Cr...">
<polygon fill="white" stroke="black" points="17.5,-293.5 17.5,-334.5 233.5,-334.5 233.5,-293.5 17.5,-293.5"/>
<text text-anchor="start" x="25.5" y="-322.5" font-family="Helvetica,sans-Serif" font-size="10.00">QuantConnect.Algorithm.Framework.</text>
<text text-anchor="start" x="25.5" y="-311.5" font-family="Helvetica,sans-Serif" font-size="10.00">Portfolio.SignalExports.CrunchDAOSignal</text>
<text text-anchor="middle" x="125.5" y="-300.5" font-family="Helvetica,sans-Serif" font-size="10.00">Export.Send</text>
</a>
</g>
</g>
<!-- Node9&#45;&gt;Node10 -->
<g id="edge9" class="edge">
<title>Node9&#45;&gt;Node10</title>
<path fill="none" stroke="midnightblue" d="M282.39,-314C266.23,-314 249.71,-314 233.75,-314"/>
<polygon fill="midnightblue" stroke="midnightblue" points="282.39,-317.5 292.39,-314 282.39,-310.5 282.39,-317.5"/>
</g>
<!-- Node16 -->
<g id="node16" class="node">
<title>Node16</title>
<g id="a_node16"><a xlink:href="classQuantConnect_1_1Lean_1_1Engine_1_1TransactionHandlers_1_1BacktestingTransactionHandler.html#a1bae6462aec26517d0766f5f3cd74145" target="_top" xlink:title="Processes asynchronous events on the transaction handler&#39;s thread">
<polygon fill="white" stroke="black" points="0,-60.5 0,-101.5 251,-101.5 251,-60.5 0,-60.5"/>
<text text-anchor="start" x="8" y="-89.5" font-family="Helvetica,sans-Serif" font-size="10.00">QuantConnect.Lean.Engine.</text>
<text text-anchor="start" x="8" y="-78.5" font-family="Helvetica,sans-Serif" font-size="10.00">TransactionHandlers.Backtesting</text>
<text text-anchor="middle" x="125.5" y="-67.5" font-family="Helvetica,sans-Serif" font-size="10.00">TransactionHandler.ProcessAsynchronousEvents</text>
</a>
</g>
</g>
<!-- Node15&#45;&gt;Node16 -->
<g id="edge15" class="edge">
<title>Node15&#45;&gt;Node16</title>
<path fill="none" stroke="midnightblue" d="M284.62,-63.62C273.53,-64.84 262.25,-66.08 251.08,-67.31"/>
<polygon fill="midnightblue" stroke="midnightblue" points="285.17,-67.08 294.73,-62.51 284.41,-60.13 285.17,-67.08"/>
</g>
<!-- Node17 -->
<g id="node17" class="node">
<title>Node17</title>
<g id="a_node17"><a xlink:href="classQuantConnect_1_1Lean_1_1Engine_1_1TransactionHandlers_1_1BacktestingTransactionHandler.html#a1ed7cbf05aa34f41fd3ba79655e3b1b2" target="_top" xlink:title="Processes all synchronous events that must take place before the next time loop for the algorithm">
<polygon fill="white" stroke="black" points="3,-0.5 3,-41.5 248,-41.5 248,-0.5 3,-0.5"/>
<text text-anchor="start" x="11" y="-29.5" font-family="Helvetica,sans-Serif" font-size="10.00">QuantConnect.Lean.Engine.</text>
<text text-anchor="start" x="11" y="-18.5" font-family="Helvetica,sans-Serif" font-size="10.00">TransactionHandlers.Backtesting</text>
<text text-anchor="middle" x="125.5" y="-7.5" font-family="Helvetica,sans-Serif" font-size="10.00">TransactionHandler.ProcessSynchronousEvents</text>
</a>
</g>
</g>
<!-- Node15&#45;&gt;Node17 -->
<g id="edge16" class="edge">
<title>Node15&#45;&gt;Node17</title>
<path fill="none" stroke="midnightblue" d="M284.69,-38.38C272.67,-37.06 260.42,-35.72 248.32,-34.39"/>
<polygon fill="midnightblue" stroke="midnightblue" points="284.41,-41.87 294.73,-39.49 285.17,-34.92 284.41,-41.87"/>
</g>
</g>
</svg>
