<?xml version="1.0" encoding="UTF-8" standalone="no"?>
<!DOCTYPE svg PUBLIC "-//W3C//DTD SVG 1.1//EN"
 "http://www.w3.org/Graphics/SVG/1.1/DTD/svg11.dtd">
<!-- Generated by graphviz version 2.43.0 (0)
 -->
<!-- Title: QuantConnect.Lean.Engine.Alpha.IAlphaHandler Pages: 1 -->
<svg width="163pt" height="106pt"
 viewBox="0.00 0.00 163.00 106.00" xmlns="http://www.w3.org/2000/svg" xmlns:xlink="http://www.w3.org/1999/xlink">
<g id="graph0" class="graph" transform="scale(1 1) rotate(0) translate(4 102)">
<title>QuantConnect.Lean.Engine.Alpha.IAlphaHandler</title>
<polygon fill="white" stroke="transparent" points="-4,4 -4,-102 159,-102 159,4 -4,4"/>
<!-- Node1 -->
<g id="node1" class="node">
<title>Node1</title>
<g id="a_node1"><a xlink:title="Alpha handler defines how to process insights generated by an algorithm">
<polygon fill="#bfbfbf" stroke="black" points="2,-67.5 2,-97.5 153,-97.5 153,-67.5 2,-67.5"/>
<text text-anchor="start" x="10" y="-85.5" font-family="Helvetica,sans-Serif" font-size="10.00">QuantConnect.Lean.Engine.</text>
<text text-anchor="middle" x="77.5" y="-74.5" font-family="Helvetica,sans-Serif" font-size="10.00">Alpha.IAlphaHandler</text>
</a>
</g>
</g>
<!-- Node2 -->
<g id="node2" class="node">
<title>Node2</title>
<g id="a_node2"><a xlink:href="classQuantConnect_1_1Lean_1_1Engine_1_1Alphas_1_1DefaultAlphaHandler.html" target="_top" xlink:title="Default alpha handler that supports sending insights to the messaging handler, analyzing insights onl...">
<polygon fill="white" stroke="black" points="0,-0.5 0,-30.5 155,-30.5 155,-0.5 0,-0.5"/>
<text text-anchor="start" x="8" y="-18.5" font-family="Helvetica,sans-Serif" font-size="10.00">QuantConnect.Lean.Engine.</text>
<text text-anchor="middle" x="77.5" y="-7.5" font-family="Helvetica,sans-Serif" font-size="10.00">Alphas.DefaultAlphaHandler</text>
</a>
</g>
</g>
<!-- Node1&#45;&gt;Node2 -->
<g id="edge1" class="edge">
<title>Node1&#45;&gt;Node2</title>
<path fill="none" stroke="midnightblue" d="M77.5,-57.11C77.5,-48.15 77.5,-38.32 77.5,-30.58"/>
<polygon fill="midnightblue" stroke="midnightblue" points="74,-57.4 77.5,-67.4 81,-57.4 74,-57.4"/>
</g>
</g>
</svg>
