<?xml version="1.0" encoding="UTF-8" standalone="no"?>
<!DOCTYPE svg PUBLIC "-//W3C//DTD SVG 1.1//EN"
 "http://www.w3.org/Graphics/SVG/1.1/DTD/svg11.dtd">
<!-- Generated by graphviz version 2.43.0 (0)
 -->
<!-- Title: QuantConnect.Securities.IBuyingPowerModel.GetMaintenanceMargin Pages: 1 -->
<svg width="425pt" height="50pt"
 viewBox="0.00 0.00 425.00 50.00" xmlns="http://www.w3.org/2000/svg" xmlns:xlink="http://www.w3.org/1999/xlink">
<g id="graph0" class="graph" transform="scale(1 1) rotate(0) translate(4 46)">
<title>QuantConnect.Securities.IBuyingPowerModel.GetMaintenanceMargin</title>
<polygon fill="white" stroke="transparent" points="-4,4 -4,-46 421,-46 421,4 -4,4"/>
<!-- Node1 -->
<g id="node1" class="node">
<title>Node1</title>
<g id="a_node1"><a xlink:title="Gets the margin currently allocated to the specified holding">
<polygon fill="#bfbfbf" stroke="black" points="220,-0.5 220,-41.5 417,-41.5 417,-0.5 220,-0.5"/>
<text text-anchor="start" x="228" y="-29.5" font-family="Helvetica,sans-Serif" font-size="10.00">QuantConnect.Securities.</text>
<text text-anchor="start" x="228" y="-18.5" font-family="Helvetica,sans-Serif" font-size="10.00">IBuyingPowerModel.GetMaintenance</text>
<text text-anchor="middle" x="318.5" y="-7.5" font-family="Helvetica,sans-Serif" font-size="10.00">Margin</text>
</a>
</g>
</g>
<!-- Node2 -->
<g id="node2" class="node">
<title>Node2</title>
<g id="a_node2"><a xlink:href="classQuantConnect_1_1Securities_1_1BuyingPowerModelExtensions.html#ad3505fdec53e061e7d3031856d3ec760" target="_top" xlink:title="Gets the margin currently allocated to the specified holding">
<polygon fill="white" stroke="black" points="0,-0.5 0,-41.5 184,-41.5 184,-0.5 0,-0.5"/>
<text text-anchor="start" x="8" y="-29.5" font-family="Helvetica,sans-Serif" font-size="10.00">QuantConnect.Securities.</text>
<text text-anchor="start" x="8" y="-18.5" font-family="Helvetica,sans-Serif" font-size="10.00">BuyingPowerModelExtensions.Get</text>
<text text-anchor="middle" x="92" y="-7.5" font-family="Helvetica,sans-Serif" font-size="10.00">MaintenanceMargin</text>
</a>
</g>
</g>
<!-- Node1&#45;&gt;Node2 -->
<g id="edge1" class="edge">
<title>Node1&#45;&gt;Node2</title>
<path fill="none" stroke="midnightblue" d="M209.67,-21C201.12,-21 192.54,-21 184.12,-21"/>
<polygon fill="midnightblue" stroke="midnightblue" points="209.68,-24.5 219.68,-21 209.68,-17.5 209.68,-24.5"/>
</g>
</g>
</svg>
