<?xml version="1.0" encoding="UTF-8" standalone="no"?>
<!DOCTYPE svg PUBLIC "-//W3C//DTD SVG 1.1//EN"
 "http://www.w3.org/Graphics/SVG/1.1/DTD/svg11.dtd">
<!-- Generated by graphviz version 2.43.0 (0)
 -->
<!-- Title: QuantConnect.Interfaces.IDataQueueHandler Pages: 1 -->
<svg width="501pt" height="333pt"
 viewBox="0.00 0.00 501.00 333.00" xmlns="http://www.w3.org/2000/svg" xmlns:xlink="http://www.w3.org/1999/xlink">
<g id="graph0" class="graph" transform="scale(1 1) rotate(0) translate(4 329)">
<title>QuantConnect.Interfaces.IDataQueueHandler</title>
<polygon fill="white" stroke="transparent" points="-4,4 -4,-329 497,-329 497,4 -4,4"/>
<!-- Node1 -->
<g id="node1" class="node">
<title>Node1</title>
<g id="a_node1"><a xlink:title="Task requestor interface with cloud system">
<polygon fill="#bfbfbf" stroke="black" points="110,-147.5 110,-177.5 250,-177.5 250,-147.5 110,-147.5"/>
<text text-anchor="start" x="118" y="-165.5" font-family="Helvetica,sans-Serif" font-size="10.00">QuantConnect.Interfaces.</text>
<text text-anchor="middle" x="180" y="-154.5" font-family="Helvetica,sans-Serif" font-size="10.00">IDataQueueHandler</text>
</a>
</g>
</g>
<!-- Node3 -->
<g id="node3" class="node">
<title>Node3</title>
<g id="a_node3"><a xlink:href="classQuantConnect_1_1Lean_1_1Engine_1_1DataFeeds_1_1DataQueueHandlerManager.html" target="_top" xlink:title="This is an implementation of IDataQueueHandler used to handle multiple live datafeeds">
<polygon fill="white" stroke="black" points="286,-294.5 286,-324.5 493,-324.5 493,-294.5 286,-294.5"/>
<text text-anchor="start" x="294" y="-312.5" font-family="Helvetica,sans-Serif" font-size="10.00">QuantConnect.Lean.Engine.</text>
<text text-anchor="middle" x="389.5" y="-301.5" font-family="Helvetica,sans-Serif" font-size="10.00">DataFeeds.DataQueueHandlerManager</text>
</a>
</g>
</g>
<!-- Node1&#45;&gt;Node3 -->
<g id="edge2" class="edge">
<title>Node1&#45;&gt;Node3</title>
<path fill="none" stroke="midnightblue" d="M194.85,-186.51C212.38,-214.68 245.28,-260.7 286,-285.5 291.7,-288.97 297.85,-291.94 304.22,-294.48"/>
<polygon fill="midnightblue" stroke="midnightblue" points="197.68,-184.43 189.5,-177.69 191.69,-188.06 197.68,-184.43"/>
</g>
<!-- Node4 -->
<g id="node4" class="node">
<title>Node4</title>
<g id="a_node4"><a xlink:href="classQuantConnect_1_1Lean_1_1Engine_1_1DataFeeds_1_1Queues_1_1FakeDataQueue.html" target="_top" xlink:title="This is an implementation of IDataQueueHandler used for testing. FakeHistoryProvider">
<polygon fill="white" stroke="black" points="295.5,-245.5 295.5,-275.5 483.5,-275.5 483.5,-245.5 295.5,-245.5"/>
<text text-anchor="start" x="303.5" y="-263.5" font-family="Helvetica,sans-Serif" font-size="10.00">QuantConnect.Lean.Engine.</text>
<text text-anchor="middle" x="389.5" y="-252.5" font-family="Helvetica,sans-Serif" font-size="10.00">DataFeeds.Queues.FakeDataQueue</text>
</a>
</g>
</g>
<!-- Node1&#45;&gt;Node4 -->
<g id="edge3" class="edge">
<title>Node1&#45;&gt;Node4</title>
<path fill="none" stroke="midnightblue" d="M205.72,-184.1C226,-200.73 256.14,-223.09 286,-236.5 293.67,-239.94 301.89,-242.92 310.22,-245.5"/>
<polygon fill="midnightblue" stroke="midnightblue" points="207.85,-181.31 197.93,-177.58 203.36,-186.68 207.85,-181.31"/>
</g>
<!-- Node5 -->
<g id="node5" class="node">
<title>Node5</title>
<g id="a_node5"><a xlink:href="classQuantConnect_1_1Lean_1_1Engine_1_1DataFeeds_1_1Queues_1_1LiveDataQueue.html" target="_top" xlink:title="Live Data Queue is the cut out implementation of how to bind a custom live data source">
<polygon fill="white" stroke="black" points="296.5,-196.5 296.5,-226.5 482.5,-226.5 482.5,-196.5 296.5,-196.5"/>
<text text-anchor="start" x="304.5" y="-214.5" font-family="Helvetica,sans-Serif" font-size="10.00">QuantConnect.Lean.Engine.</text>
<text text-anchor="middle" x="389.5" y="-203.5" font-family="Helvetica,sans-Serif" font-size="10.00">DataFeeds.Queues.LiveDataQueue</text>
</a>
</g>
</g>
<!-- Node1&#45;&gt;Node5 -->
<g id="edge4" class="edge">
<title>Node1&#45;&gt;Node5</title>
<path fill="none" stroke="midnightblue" d="M253.84,-179.88C264.62,-182.44 275.6,-185.04 286,-187.5 298.36,-190.42 311.57,-193.52 324.25,-196.49"/>
<polygon fill="midnightblue" stroke="midnightblue" points="254.55,-176.45 244.01,-177.54 252.93,-183.26 254.55,-176.45"/>
</g>
<!-- Node6 -->
<g id="node6" class="node">
<title>Node6</title>
<g id="a_node6"><a xlink:href="classQuantConnect_1_1ToolBox_1_1CoinApi_1_1CoinApiDataQueueHandler.html" target="_top" xlink:title="An implementation of IDataQueueHandler for CoinAPI">
<polygon fill="white" stroke="black" points="306.5,-147.5 306.5,-177.5 472.5,-177.5 472.5,-147.5 306.5,-147.5"/>
<text text-anchor="start" x="314.5" y="-165.5" font-family="Helvetica,sans-Serif" font-size="10.00">QuantConnect.ToolBox.Coin</text>
<text text-anchor="middle" x="389.5" y="-154.5" font-family="Helvetica,sans-Serif" font-size="10.00">Api.CoinApiDataQueueHandler</text>
</a>
</g>
</g>
<!-- Node1&#45;&gt;Node6 -->
<g id="edge5" class="edge">
<title>Node1&#45;&gt;Node6</title>
<path fill="none" stroke="midnightblue" d="M260.39,-162.5C275.45,-162.5 291.24,-162.5 306.39,-162.5"/>
<polygon fill="midnightblue" stroke="midnightblue" points="260.09,-159 250.09,-162.5 260.09,-166 260.09,-159"/>
</g>
<!-- Node7 -->
<g id="node7" class="node">
<title>Node7</title>
<g id="a_node7"><a xlink:href="classQuantConnect_1_1ToolBox_1_1IEX_1_1IEXDataQueueHandler.html" target="_top" xlink:title="IEX live data handler. See more at https://iexcloud.io/docs/api/">
<polygon fill="white" stroke="black" points="315,-98.5 315,-128.5 464,-128.5 464,-98.5 315,-98.5"/>
<text text-anchor="start" x="323" y="-116.5" font-family="Helvetica,sans-Serif" font-size="10.00">QuantConnect.ToolBox.IEX.</text>
<text text-anchor="middle" x="389.5" y="-105.5" font-family="Helvetica,sans-Serif" font-size="10.00">IEXDataQueueHandler</text>
</a>
</g>
</g>
<!-- Node1&#45;&gt;Node7 -->
<g id="edge6" class="edge">
<title>Node1&#45;&gt;Node7</title>
<path fill="none" stroke="midnightblue" d="M253.84,-145.12C264.62,-142.56 275.6,-139.96 286,-137.5 298.36,-134.58 311.57,-131.48 324.25,-128.51"/>
<polygon fill="midnightblue" stroke="midnightblue" points="252.93,-141.74 244.01,-147.46 254.55,-148.55 252.93,-141.74"/>
</g>
<!-- Node8 -->
<g id="node8" class="node">
<title>Node8</title>
<g id="a_node8"><a xlink:href="classQuantConnect_1_1ToolBox_1_1IQFeed_1_1IQFeedDataQueueHandler.html" target="_top" xlink:title="IQFeedDataQueueHandler is an implementation of IDataQueueHandler and IHistoryProvider">
<polygon fill="white" stroke="black" points="306,-49.5 306,-79.5 473,-79.5 473,-49.5 306,-49.5"/>
<text text-anchor="start" x="314" y="-67.5" font-family="Helvetica,sans-Serif" font-size="10.00">QuantConnect.ToolBox.IQFeed.</text>
<text text-anchor="middle" x="389.5" y="-56.5" font-family="Helvetica,sans-Serif" font-size="10.00">IQFeedDataQueueHandler</text>
</a>
</g>
</g>
<!-- Node1&#45;&gt;Node8 -->
<g id="edge7" class="edge">
<title>Node1&#45;&gt;Node8</title>
<path fill="none" stroke="midnightblue" d="M205.72,-140.9C226,-124.27 256.14,-101.91 286,-88.5 293.67,-85.06 301.89,-82.08 310.22,-79.5"/>
<polygon fill="midnightblue" stroke="midnightblue" points="203.36,-138.32 197.93,-147.42 207.85,-143.69 203.36,-138.32"/>
</g>
<!-- Node9 -->
<g id="node9" class="node">
<title>Node9</title>
<g id="a_node9"><a xlink:href="classQuantConnect_1_1ToolBox_1_1Polygon_1_1PolygonDataQueueHandler.html" target="_top" xlink:title="An implementation of IDataQueueHandler and IHistoryProvider for Polygon.io">
<polygon fill="white" stroke="black" points="303.5,-0.5 303.5,-30.5 475.5,-30.5 475.5,-0.5 303.5,-0.5"/>
<text text-anchor="start" x="311.5" y="-18.5" font-family="Helvetica,sans-Serif" font-size="10.00">QuantConnect.ToolBox.Polygon.</text>
<text text-anchor="middle" x="389.5" y="-7.5" font-family="Helvetica,sans-Serif" font-size="10.00">PolygonDataQueueHandler</text>
</a>
</g>
</g>
<!-- Node1&#45;&gt;Node9 -->
<g id="edge8" class="edge">
<title>Node1&#45;&gt;Node9</title>
<path fill="none" stroke="midnightblue" d="M194.85,-138.49C212.38,-110.32 245.28,-64.3 286,-39.5 291.7,-36.03 297.85,-33.06 304.22,-30.52"/>
<polygon fill="midnightblue" stroke="midnightblue" points="191.69,-136.94 189.5,-147.31 197.68,-140.57 191.69,-136.94"/>
</g>
<!-- Node2 -->
<g id="node2" class="node">
<title>Node2</title>
<g id="a_node2"><a xlink:title=" ">
<polygon fill="white" stroke="#bfbfbf" points="0,-153 0,-172 74,-172 74,-153 0,-153"/>
<text text-anchor="middle" x="37" y="-160" font-family="Helvetica,sans-Serif" font-size="10.00">IDisposable</text>
</a>
</g>
</g>
<!-- Node2&#45;&gt;Node1 -->
<g id="edge1" class="edge">
<title>Node2&#45;&gt;Node1</title>
<path fill="none" stroke="midnightblue" d="M84.39,-162.5C92.59,-162.5 101.28,-162.5 109.95,-162.5"/>
<polygon fill="midnightblue" stroke="midnightblue" points="84.31,-159 74.31,-162.5 84.31,-166 84.31,-159"/>
</g>
</g>
</svg>
