<?xml version="1.0" encoding="UTF-8" standalone="no"?>
<!DOCTYPE svg PUBLIC "-//W3C//DTD SVG 1.1//EN"
 "http://www.w3.org/Graphics/SVG/1.1/DTD/svg11.dtd">
<!-- Generated by graphviz version 2.43.0 (0)
 -->
<!-- Title: QuantConnect.Interfaces.IOptionChainProvider Pages: 1 -->
<svg width="623pt" height="149pt"
 viewBox="0.00 0.00 623.00 148.50" xmlns="http://www.w3.org/2000/svg" xmlns:xlink="http://www.w3.org/1999/xlink">
<g id="graph0" class="graph" transform="scale(1 1) rotate(0) translate(4 144.5)">
<title>QuantConnect.Interfaces.IOptionChainProvider</title>
<polygon fill="white" stroke="transparent" points="-4,4 -4,-144.5 619,-144.5 619,4 -4,4"/>
<!-- Node1 -->
<g id="node1" class="node">
<title>Node1</title>
<g id="a_node1"><a xlink:title="Provides the full option chain for a given underlying.">
<polygon fill="#bfbfbf" stroke="black" points="0,-49.5 0,-79.5 140,-79.5 140,-49.5 0,-49.5"/>
<text text-anchor="start" x="8" y="-67.5" font-family="Helvetica,sans-Serif" font-size="10.00">QuantConnect.Interfaces.</text>
<text text-anchor="middle" x="70" y="-56.5" font-family="Helvetica,sans-Serif" font-size="10.00">IOptionChainProvider</text>
</a>
</g>
</g>
<!-- Node2 -->
<g id="node2" class="node">
<title>Node2</title>
<g id="a_node2"><a xlink:href="classQuantConnect_1_1Lean_1_1Engine_1_1DataFeeds_1_1BacktestingOptionChainProvider.html" target="_top" xlink:title="An implementation of IOptionChainProvider that reads the list of contracts from open interest zip dat...">
<polygon fill="white" stroke="black" points="187,-99 187,-140 376,-140 376,-99 187,-99"/>
<text text-anchor="start" x="195" y="-128" font-family="Helvetica,sans-Serif" font-size="10.00">QuantConnect.Lean.Engine.</text>
<text text-anchor="start" x="195" y="-117" font-family="Helvetica,sans-Serif" font-size="10.00">DataFeeds.BacktestingOptionChain</text>
<text text-anchor="middle" x="281.5" y="-106" font-family="Helvetica,sans-Serif" font-size="10.00">Provider</text>
</a>
</g>
</g>
<!-- Node1&#45;&gt;Node2 -->
<g id="edge1" class="edge">
<title>Node1&#45;&gt;Node2</title>
<path fill="none" stroke="midnightblue" d="M138.06,-82.11C158.46,-87.46 181.05,-93.39 202.12,-98.92"/>
<polygon fill="midnightblue" stroke="midnightblue" points="138.81,-78.68 128.25,-79.53 137.03,-85.45 138.81,-78.68"/>
</g>
<!-- Node4 -->
<g id="node4" class="node">
<title>Node4</title>
<g id="a_node4"><a xlink:href="classQuantConnect_1_1Lean_1_1Engine_1_1DataFeeds_1_1CachingOptionChainProvider.html" target="_top" xlink:title="An implementation of IOptionChainProvider that will cache by date option contracts returned by anothe...">
<polygon fill="white" stroke="black" points="176,-49.5 176,-79.5 387,-79.5 387,-49.5 176,-49.5"/>
<text text-anchor="start" x="184" y="-67.5" font-family="Helvetica,sans-Serif" font-size="10.00">QuantConnect.Lean.Engine.</text>
<text text-anchor="middle" x="281.5" y="-56.5" font-family="Helvetica,sans-Serif" font-size="10.00">DataFeeds.CachingOptionChainProvider</text>
</a>
</g>
</g>
<!-- Node1&#45;&gt;Node4 -->
<g id="edge3" class="edge">
<title>Node1&#45;&gt;Node4</title>
<path fill="none" stroke="midnightblue" d="M150.25,-64.5C158.61,-64.5 167.2,-64.5 175.79,-64.5"/>
<polygon fill="midnightblue" stroke="midnightblue" points="150.18,-61 140.18,-64.5 150.18,-68 150.18,-61"/>
</g>
<!-- Node5 -->
<g id="node5" class="node">
<title>Node5</title>
<g id="a_node5"><a xlink:href="classQuantConnect_1_1Securities_1_1Option_1_1EmptyOptionChainProvider.html" target="_top" xlink:title="An implementation of IOptionChainProvider that always returns an empty list of contracts">
<polygon fill="white" stroke="black" points="189.5,-0.5 189.5,-30.5 373.5,-30.5 373.5,-0.5 189.5,-0.5"/>
<text text-anchor="start" x="197.5" y="-18.5" font-family="Helvetica,sans-Serif" font-size="10.00">QuantConnect.Securities.</text>
<text text-anchor="middle" x="281.5" y="-7.5" font-family="Helvetica,sans-Serif" font-size="10.00">Option.EmptyOptionChainProvider</text>
</a>
</g>
</g>
<!-- Node1&#45;&gt;Node5 -->
<g id="edge4" class="edge">
<title>Node1&#45;&gt;Node5</title>
<path fill="none" stroke="midnightblue" d="M145.1,-47.17C168.36,-41.73 193.83,-35.77 216.34,-30.51"/>
<polygon fill="midnightblue" stroke="midnightblue" points="144.22,-43.78 135.28,-49.47 145.81,-50.6 144.22,-43.78"/>
</g>
<!-- Node3 -->
<g id="node3" class="node">
<title>Node3</title>
<g id="a_node3"><a xlink:href="classQuantConnect_1_1Lean_1_1Engine_1_1DataFeeds_1_1LiveOptionChainProvider.html" target="_top" xlink:title="An implementation of IOptionChainProvider that fetches the list of contracts from the Options Clearin...">
<polygon fill="white" stroke="black" points="423,-104.5 423,-134.5 615,-134.5 615,-104.5 423,-104.5"/>
<text text-anchor="start" x="431" y="-122.5" font-family="Helvetica,sans-Serif" font-size="10.00">QuantConnect.Lean.Engine.</text>
<text text-anchor="middle" x="519" y="-111.5" font-family="Helvetica,sans-Serif" font-size="10.00">DataFeeds.LiveOptionChainProvider</text>
</a>
</g>
</g>
<!-- Node2&#45;&gt;Node3 -->
<g id="edge2" class="edge">
<title>Node2&#45;&gt;Node3</title>
<path fill="none" stroke="midnightblue" d="M386.34,-119.5C398.42,-119.5 410.69,-119.5 422.64,-119.5"/>
<polygon fill="midnightblue" stroke="midnightblue" points="386.25,-116 376.25,-119.5 386.25,-123 386.25,-116"/>
</g>
</g>
</svg>
