<?xml version="1.0" encoding="UTF-8" standalone="no"?>
<!DOCTYPE svg PUBLIC "-//W3C//DTD SVG 1.1//EN"
 "http://www.w3.org/Graphics/SVG/1.1/DTD/svg11.dtd">
<!-- Generated by graphviz version 2.43.0 (0)
 -->
<!-- Title: QuantConnect.Interfaces.IOrderProperties.Clone Pages: 1 -->
<!--zoomable 737 -->
<svg id="main" version="1.1" xmlns="http://www.w3.org/2000/svg" xmlns:xlink="http://www.w3.org/1999/xlink" xml:space="preserve" onload="init(evt)">
<style type="text/css"><![CDATA[
.edge:hover path { stroke: red; }
.edge:hover polygon { stroke: red; fill: red; }
]]></style>
<script type="text/javascript"><![CDATA[
var edges = document.getElementsByTagName('g');
if (edges && edges.length) {
  for (var i=0;i<edges.length;i++) {
    if (edges[i].id.substr(0,4)=='edge') {
      edges[i].setAttribute('class','edge');
    }
  }
}
]]></script>
        <defs>
                <circle id="rim" cx="0" cy="0" r="7"/>
                <circle id="rim2" cx="0" cy="0" r="3.5"/>
                <g id="zoomPlus">
                        <use xlink:href="#rim" fill="#404040">
                                <set attributeName="fill" to="#808080" begin="zoomplus.mouseover" end="zoomplus.mouseout"/>
                        </use>
                        <path d="M-4,0h8M0,-4v8" fill="none" stroke="white" stroke-width="1.5" pointer-events="none"/>
                </g>
                <g id="zoomMin">
                        <use xlink:href="#rim" fill="#404040">
                                <set attributeName="fill" to="#808080" begin="zoomminus.mouseover" end="zoomminus.mouseout"/>
                        </use>
                        <path d="M-4,0h8" fill="none" stroke="white" stroke-width="1.5" pointer-events="none"/>
                </g>
                <g id="dirArrow">
                        <path fill="none" stroke="white" stroke-width="1.5" d="M0,-3.0v7 M-2.5,-0.5L0,-3.0L2.5,-0.5"/>
                </g>
               <g id="resetDef">
                       <use xlink:href="#rim2" fill="#404040">
                               <set attributeName="fill" to="#808080" begin="reset.mouseover" end="reset.mouseout"/>
                       </use>
               </g>
        </defs>

<script type="text/javascript">
var viewWidth = 614;
var viewHeight = 737;
var sectionId = 'dynsection-1';
</script>
<script xlink:href="svgpan.js"/>
<svg id="graph" class="graph">
<g id="viewport">
<title>QuantConnect.Interfaces.IOrderProperties.Clone</title>
<polygon fill="white" stroke="transparent" points="-4,4 -4,-733 610,-733 610,4 -4,4"/>
<!-- Node1 -->
<g id="node1" class="node">
<title>Node1</title>
<g id="a_node1"><a xlink:title="Returns a new instance clone of this object">
<polygon fill="#bfbfbf" stroke="black" points="466,-220.5 466,-250.5 606,-250.5 606,-220.5 466,-220.5"/>
<text text-anchor="start" x="474" y="-238.5" font-family="Helvetica,sans-Serif" font-size="10.00">QuantConnect.Interfaces.</text>
<text text-anchor="middle" x="536" y="-227.5" font-family="Helvetica,sans-Serif" font-size="10.00">IOrderProperties.Clone</text>
</a>
</g>
</g>
<!-- Node2 -->
<g id="node2" class="node">
<title>Node2</title>
<g id="a_node2"><a xlink:href="classQuantConnect_1_1Orders_1_1Order.html#a7e89368b886aff5b24cd3e5b42d7a103" target="_top" xlink:title="Copies base Order properties to the specified order">
<polygon fill="white" stroke="black" points="251,-502.5 251,-532.5 404,-532.5 404,-502.5 251,-502.5"/>
<text text-anchor="start" x="259" y="-520.5" font-family="Helvetica,sans-Serif" font-size="10.00">QuantConnect.Orders.Order.</text>
<text text-anchor="middle" x="327.5" y="-509.5" font-family="Helvetica,sans-Serif" font-size="10.00">CopyTo</text>
</a>
</g>
</g>
<!-- Node1&#45;&gt;Node2 -->
<g id="edge1" class="edge">
<title>Node1&#45;&gt;Node2</title>
<path fill="none" stroke="midnightblue" d="M527,-260.18C512.65,-301.72 479.33,-386.69 430,-444.5 409.29,-468.77 378.9,-489.24 356.77,-502.27"/>
<polygon fill="midnightblue" stroke="midnightblue" points="530.35,-261.2 530.24,-250.6 523.72,-258.95 530.35,-261.2"/>
</g>
<!-- Node11 -->
<g id="node11" class="node">
<title>Node11</title>
<g id="a_node11"><a xlink:href="classQuantConnect_1_1Algorithm_1_1QCAlgorithm.html#a11352466438b0832f09b224722815e72" target="_top" xlink:title="Send an exercise order to the transaction handler">
<polygon fill="white" stroke="black" points="225,-404.5 225,-434.5 430,-434.5 430,-404.5 225,-404.5"/>
<text text-anchor="start" x="233" y="-422.5" font-family="Helvetica,sans-Serif" font-size="10.00">QuantConnect.Algorithm.QCAlgorithm.</text>
<text text-anchor="middle" x="327.5" y="-411.5" font-family="Helvetica,sans-Serif" font-size="10.00">ExerciseOption</text>
</a>
</g>
</g>
<!-- Node1&#45;&gt;Node11 -->
<g id="edge10" class="edge">
<title>Node1&#45;&gt;Node11</title>
<path fill="none" stroke="midnightblue" d="M525.42,-260.56C510.55,-296.02 478.47,-360.31 430,-394.5 424.51,-398.37 418.49,-401.64 412.21,-404.41"/>
<polygon fill="midnightblue" stroke="midnightblue" points="528.8,-261.54 529.32,-250.96 522.32,-258.9 528.8,-261.54"/>
</g>
<!-- Node12 -->
<g id="node12" class="node">
<title>Node12</title>
<g id="a_node12"><a xlink:href="classQuantConnect_1_1Securities_1_1DefaultMarginCallModel.html#a8a6b59aac5cae79756d127f9aefdf76f" target="_top" xlink:title="Generates a new order for the specified security taking into account the total margin used by the acc...">
<polygon fill="white" stroke="black" points="236,-344 236,-385 419,-385 419,-344 236,-344"/>
<text text-anchor="start" x="244" y="-373" font-family="Helvetica,sans-Serif" font-size="10.00">QuantConnect.Securities.</text>
<text text-anchor="start" x="244" y="-362" font-family="Helvetica,sans-Serif" font-size="10.00">DefaultMarginCallModel.Generate</text>
<text text-anchor="middle" x="327.5" y="-351" font-family="Helvetica,sans-Serif" font-size="10.00">MarginCallOrder</text>
</a>
</g>
</g>
<!-- Node1&#45;&gt;Node12 -->
<g id="edge11" class="edge">
<title>Node1&#45;&gt;Node12</title>
<path fill="none" stroke="midnightblue" d="M516.14,-258.33C496.69,-280.5 464.43,-313.62 430,-333.5 423.22,-337.42 415.89,-340.89 408.39,-343.95"/>
<polygon fill="midnightblue" stroke="midnightblue" points="518.83,-260.57 522.71,-250.71 513.53,-256 518.83,-260.57"/>
</g>
<!-- Node14 -->
<g id="node14" class="node">
<title>Node14</title>
<g id="a_node14"><a xlink:href="classQuantConnect_1_1Algorithm_1_1QCAlgorithm.html#ad9a268098626dd7a455072aa7e78663b" target="_top" xlink:title="Send a limit if touched order to the transaction handler:">
<polygon fill="white" stroke="black" points="225,-294.5 225,-324.5 430,-324.5 430,-294.5 225,-294.5"/>
<text text-anchor="start" x="233" y="-312.5" font-family="Helvetica,sans-Serif" font-size="10.00">QuantConnect.Algorithm.QCAlgorithm.</text>
<text text-anchor="middle" x="327.5" y="-301.5" font-family="Helvetica,sans-Serif" font-size="10.00">LimitIfTouchedOrder</text>
</a>
</g>
</g>
<!-- Node1&#45;&gt;Node14 -->
<g id="edge13" class="edge">
<title>Node1&#45;&gt;Node14</title>
<path fill="none" stroke="midnightblue" d="M497.7,-255.08C477.96,-264.88 453.09,-276.36 430,-284.5 419.56,-288.18 408.33,-291.53 397.28,-294.49"/>
<polygon fill="midnightblue" stroke="midnightblue" points="499.3,-258.19 506.66,-250.57 496.16,-251.94 499.3,-258.19"/>
</g>
<!-- Node15 -->
<g id="node15" class="node">
<title>Node15</title>
<g id="a_node15"><a xlink:href="classQuantConnect_1_1Algorithm_1_1QCAlgorithm.html#a5e12bb6fbf89897332248876072a32ad" target="_top" xlink:title="Send a limit order to the transaction handler:">
<polygon fill="white" stroke="black" points="225,-245.5 225,-275.5 430,-275.5 430,-245.5 225,-245.5"/>
<text text-anchor="start" x="233" y="-263.5" font-family="Helvetica,sans-Serif" font-size="10.00">QuantConnect.Algorithm.QCAlgorithm.</text>
<text text-anchor="middle" x="327.5" y="-252.5" font-family="Helvetica,sans-Serif" font-size="10.00">LimitOrder</text>
</a>
</g>
</g>
<!-- Node1&#45;&gt;Node15 -->
<g id="edge14" class="edge">
<title>Node1&#45;&gt;Node15</title>
<path fill="none" stroke="midnightblue" d="M455.84,-245.08C447.45,-246.1 438.84,-247.14 430.23,-248.18"/>
<polygon fill="midnightblue" stroke="midnightblue" points="456.44,-248.54 465.95,-243.86 455.6,-241.59 456.44,-248.54"/>
</g>
<!-- Node16 -->
<g id="node16" class="node">
<title>Node16</title>
<g id="a_node16"><a xlink:href="classQuantConnect_1_1Algorithm_1_1QCAlgorithm.html#aec7219e6a4c77563371aba6b39407d9a" target="_top" xlink:title="Market on close order implementation: Send a market order when the exchange closes">
<polygon fill="white" stroke="black" points="225,-196.5 225,-226.5 430,-226.5 430,-196.5 225,-196.5"/>
<text text-anchor="start" x="233" y="-214.5" font-family="Helvetica,sans-Serif" font-size="10.00">QuantConnect.Algorithm.QCAlgorithm.</text>
<text text-anchor="middle" x="327.5" y="-203.5" font-family="Helvetica,sans-Serif" font-size="10.00">MarketOnCloseOrder</text>
</a>
</g>
</g>
<!-- Node1&#45;&gt;Node16 -->
<g id="edge15" class="edge">
<title>Node1&#45;&gt;Node16</title>
<path fill="none" stroke="midnightblue" d="M455.84,-226.3C447.45,-225.32 438.84,-224.32 430.23,-223.32"/>
<polygon fill="midnightblue" stroke="midnightblue" points="455.61,-229.8 465.95,-227.47 456.42,-222.84 455.61,-229.8"/>
</g>
<!-- Node17 -->
<g id="node17" class="node">
<title>Node17</title>
<g id="a_node17"><a xlink:href="classQuantConnect_1_1Algorithm_1_1QCAlgorithm.html#a9db2f04661a682232fcaff5cfdb6470e" target="_top" xlink:title="Market on open order implementation: Send a market order when the exchange opens">
<polygon fill="white" stroke="black" points="225,-147.5 225,-177.5 430,-177.5 430,-147.5 225,-147.5"/>
<text text-anchor="start" x="233" y="-165.5" font-family="Helvetica,sans-Serif" font-size="10.00">QuantConnect.Algorithm.QCAlgorithm.</text>
<text text-anchor="middle" x="327.5" y="-154.5" font-family="Helvetica,sans-Serif" font-size="10.00">MarketOnOpenOrder</text>
</a>
</g>
</g>
<!-- Node1&#45;&gt;Node17 -->
<g id="edge16" class="edge">
<title>Node1&#45;&gt;Node17</title>
<path fill="none" stroke="midnightblue" d="M497.73,-215.83C478,-206.01 453.13,-194.54 430,-186.5 420.51,-183.2 410.36,-180.21 400.29,-177.54"/>
<polygon fill="midnightblue" stroke="midnightblue" points="496.19,-218.97 506.69,-220.36 499.34,-212.72 496.19,-218.97"/>
</g>
<!-- Node18 -->
<g id="node18" class="node">
<title>Node18</title>
<g id="a_node18"><a xlink:href="classQuantConnect_1_1Algorithm_1_1QCAlgorithm.html#a741fed77f0c320fdec734f00457634f4" target="_top" xlink:title="Market order implementation: Send a market order and wait for it to be filled.">
<polygon fill="white" stroke="black" points="225,-98.5 225,-128.5 430,-128.5 430,-98.5 225,-98.5"/>
<text text-anchor="start" x="233" y="-116.5" font-family="Helvetica,sans-Serif" font-size="10.00">QuantConnect.Algorithm.QCAlgorithm.</text>
<text text-anchor="middle" x="327.5" y="-105.5" font-family="Helvetica,sans-Serif" font-size="10.00">MarketOrder</text>
</a>
</g>
</g>
<!-- Node1&#45;&gt;Node18 -->
<g id="edge17" class="edge">
<title>Node1&#45;&gt;Node18</title>
<path fill="none" stroke="midnightblue" d="M516.73,-212.57C497.52,-190.04 465.24,-156.37 430,-137.5 423.53,-134.04 416.57,-131.07 409.44,-128.53"/>
<polygon fill="midnightblue" stroke="midnightblue" points="514.1,-214.88 523.19,-220.32 519.48,-210.4 514.1,-214.88"/>
</g>
<!-- Node19 -->
<g id="node19" class="node">
<title>Node19</title>
<g id="a_node19"><a xlink:href="classQuantConnect_1_1Algorithm_1_1QCAlgorithm.html#a4bcd1aed562ce3d533646b4c8c1b29c7" target="_top" xlink:title="Send a stop limit order to the transaction handler:">
<polygon fill="white" stroke="black" points="225,-49.5 225,-79.5 430,-79.5 430,-49.5 225,-49.5"/>
<text text-anchor="start" x="233" y="-67.5" font-family="Helvetica,sans-Serif" font-size="10.00">QuantConnect.Algorithm.QCAlgorithm.</text>
<text text-anchor="middle" x="327.5" y="-56.5" font-family="Helvetica,sans-Serif" font-size="10.00">StopLimitOrder</text>
</a>
</g>
</g>
<!-- Node1&#45;&gt;Node19 -->
<g id="edge18" class="edge">
<title>Node1&#45;&gt;Node19</title>
<path fill="none" stroke="midnightblue" d="M524.26,-210.83C508.53,-177.69 476.01,-119.4 430,-88.5 424.89,-85.07 419.35,-82.12 413.57,-79.6"/>
<polygon fill="midnightblue" stroke="midnightblue" points="521.24,-212.63 528.6,-220.25 527.6,-209.7 521.24,-212.63"/>
</g>
<!-- Node20 -->
<g id="node20" class="node">
<title>Node20</title>
<g id="a_node20"><a xlink:href="classQuantConnect_1_1Algorithm_1_1QCAlgorithm.html#a73c0b5f7aeb41f314ab8cc674c75beff" target="_top" xlink:title="Create a stop market order and return the newly created order id; or negative if the order is invalid">
<polygon fill="white" stroke="black" points="225,-0.5 225,-30.5 430,-30.5 430,-0.5 225,-0.5"/>
<text text-anchor="start" x="233" y="-18.5" font-family="Helvetica,sans-Serif" font-size="10.00">QuantConnect.Algorithm.QCAlgorithm.</text>
<text text-anchor="middle" x="327.5" y="-7.5" font-family="Helvetica,sans-Serif" font-size="10.00">StopMarketOrder</text>
</a>
</g>
</g>
<!-- Node1&#45;&gt;Node20 -->
<g id="edge19" class="edge">
<title>Node1&#45;&gt;Node20</title>
<path fill="none" stroke="midnightblue" d="M528.9,-210.77C517.21,-168.76 487.55,-83.76 430,-39.5 425.55,-36.08 420.69,-33.13 415.58,-30.6"/>
<polygon fill="midnightblue" stroke="midnightblue" points="525.53,-211.71 531.49,-220.47 532.29,-209.9 525.53,-211.71"/>
</g>
<!-- Node3 -->
<g id="node3" class="node">
<title>Node3</title>
<g id="a_node3"><a xlink:href="classQuantConnect_1_1Orders_1_1MarketOnOpenOrder.html#a15b6c88b0a8f58743d2f85083983910a" target="_top" xlink:title="Creates a deep&#45;copy clone of this order">
<polygon fill="white" stroke="black" points="15.5,-698.5 15.5,-728.5 173.5,-728.5 173.5,-698.5 15.5,-698.5"/>
<text text-anchor="start" x="23.5" y="-716.5" font-family="Helvetica,sans-Serif" font-size="10.00">QuantConnect.Orders.Market</text>
<text text-anchor="middle" x="94.5" y="-705.5" font-family="Helvetica,sans-Serif" font-size="10.00">OnOpenOrder.Clone</text>
</a>
</g>
</g>
<!-- Node2&#45;&gt;Node3 -->
<g id="edge2" class="edge">
<title>Node2&#45;&gt;Node3</title>
<path fill="none" stroke="midnightblue" d="M313.87,-541.85C293.06,-579.48 247.95,-651.4 189,-689.5 183.65,-692.96 177.83,-695.92 171.8,-698.45"/>
<polygon fill="midnightblue" stroke="midnightblue" points="317.18,-543.09 318.86,-532.63 311.02,-539.76 317.18,-543.09"/>
</g>
<!-- Node4 -->
<g id="node4" class="node">
<title>Node4</title>
<g id="a_node4"><a xlink:href="classQuantConnect_1_1Orders_1_1OptionExerciseOrder.html#af75cc716fd25085ef4e1560c53e0ddb1" target="_top" xlink:title="Creates a deep&#45;copy clone of this order">
<polygon fill="white" stroke="black" points="16.5,-649.5 16.5,-679.5 172.5,-679.5 172.5,-649.5 16.5,-649.5"/>
<text text-anchor="start" x="24.5" y="-667.5" font-family="Helvetica,sans-Serif" font-size="10.00">QuantConnect.Orders.Option</text>
<text text-anchor="middle" x="94.5" y="-656.5" font-family="Helvetica,sans-Serif" font-size="10.00">ExerciseOrder.Clone</text>
</a>
</g>
</g>
<!-- Node2&#45;&gt;Node4 -->
<g id="edge3" class="edge">
<title>Node2&#45;&gt;Node4</title>
<path fill="none" stroke="midnightblue" d="M307.51,-540.15C282.97,-567.93 237.6,-614.54 189,-640.5 182.64,-643.89 175.78,-646.83 168.77,-649.35"/>
<polygon fill="midnightblue" stroke="midnightblue" points="310.23,-542.35 314.15,-532.51 304.95,-537.76 310.23,-542.35"/>
</g>
<!-- Node5 -->
<g id="node5" class="node">
<title>Node5</title>
<g id="a_node5"><a xlink:href="classQuantConnect_1_1Orders_1_1MarketOrder.html#ac6e8ffd1d9a2af8edd43032d1200bb82" target="_top" xlink:title="Creates a deep&#45;copy clone of this order">
<polygon fill="white" stroke="black" points="15.5,-600.5 15.5,-630.5 173.5,-630.5 173.5,-600.5 15.5,-600.5"/>
<text text-anchor="start" x="23.5" y="-618.5" font-family="Helvetica,sans-Serif" font-size="10.00">QuantConnect.Orders.Market</text>
<text text-anchor="middle" x="94.5" y="-607.5" font-family="Helvetica,sans-Serif" font-size="10.00">Order.Clone</text>
</a>
</g>
</g>
<!-- Node2&#45;&gt;Node5 -->
<g id="edge4" class="edge">
<title>Node2&#45;&gt;Node5</title>
<path fill="none" stroke="midnightblue" d="M293.82,-538.02C266.62,-554.37 226.43,-576.87 189,-591.5 180.49,-594.82 171.37,-597.82 162.28,-600.48"/>
<polygon fill="midnightblue" stroke="midnightblue" points="295.79,-540.92 302.52,-532.73 292.16,-534.94 295.79,-540.92"/>
</g>
<!-- Node6 -->
<g id="node6" class="node">
<title>Node6</title>
<g id="a_node6"><a xlink:href="classQuantConnect_1_1Orders_1_1MarketOnCloseOrder.html#a8d6c51b2c54ab42c99630558daf3bf15" target="_top" xlink:title="Creates a deep&#45;copy clone of this order">
<polygon fill="white" stroke="black" points="15.5,-551.5 15.5,-581.5 173.5,-581.5 173.5,-551.5 15.5,-551.5"/>
<text text-anchor="start" x="23.5" y="-569.5" font-family="Helvetica,sans-Serif" font-size="10.00">QuantConnect.Orders.Market</text>
<text text-anchor="middle" x="94.5" y="-558.5" font-family="Helvetica,sans-Serif" font-size="10.00">OnCloseOrder.Clone</text>
</a>
</g>
</g>
<!-- Node2&#45;&gt;Node6 -->
<g id="edge5" class="edge">
<title>Node2&#45;&gt;Node6</title>
<path fill="none" stroke="midnightblue" d="M245.83,-534.61C219.9,-540.11 191.4,-546.16 166.24,-551.49"/>
<polygon fill="midnightblue" stroke="midnightblue" points="246.57,-538.03 255.62,-532.53 245.11,-531.19 246.57,-538.03"/>
</g>
<!-- Node7 -->
<g id="node7" class="node">
<title>Node7</title>
<g id="a_node7"><a xlink:href="classQuantConnect_1_1Orders_1_1LimitIfTouchedOrder.html#a8a824fc2dedad68974af7f7b50962991" target="_top" xlink:title="Creates a deep&#45;copy clone of this order">
<polygon fill="white" stroke="black" points="20,-502.5 20,-532.5 169,-532.5 169,-502.5 20,-502.5"/>
<text text-anchor="start" x="28" y="-520.5" font-family="Helvetica,sans-Serif" font-size="10.00">QuantConnect.Orders.Limit</text>
<text text-anchor="middle" x="94.5" y="-509.5" font-family="Helvetica,sans-Serif" font-size="10.00">IfTouchedOrder.Clone</text>
</a>
</g>
</g>
<!-- Node2&#45;&gt;Node7 -->
<g id="edge6" class="edge">
<title>Node2&#45;&gt;Node7</title>
<path fill="none" stroke="midnightblue" d="M240.59,-517.5C217.18,-517.5 192.02,-517.5 169.34,-517.5"/>
<polygon fill="midnightblue" stroke="midnightblue" points="240.86,-521 250.86,-517.5 240.86,-514 240.86,-521"/>
</g>
<!-- Node8 -->
<g id="node8" class="node">
<title>Node8</title>
<g id="a_node8"><a xlink:href="classQuantConnect_1_1Orders_1_1LimitOrder.html#aef0603cd02984cc2a9cb74da1bcc4d0b" target="_top" xlink:title="Creates a deep&#45;copy clone of this order">
<polygon fill="white" stroke="black" points="20,-453.5 20,-483.5 169,-483.5 169,-453.5 20,-453.5"/>
<text text-anchor="start" x="28" y="-471.5" font-family="Helvetica,sans-Serif" font-size="10.00">QuantConnect.Orders.Limit</text>
<text text-anchor="middle" x="94.5" y="-460.5" font-family="Helvetica,sans-Serif" font-size="10.00">Order.Clone</text>
</a>
</g>
</g>
<!-- Node2&#45;&gt;Node8 -->
<g id="edge7" class="edge">
<title>Node2&#45;&gt;Node8</title>
<path fill="none" stroke="midnightblue" d="M245.83,-500.39C219.9,-494.89 191.4,-488.84 166.24,-483.51"/>
<polygon fill="midnightblue" stroke="midnightblue" points="245.11,-503.81 255.62,-502.47 246.57,-496.97 245.11,-503.81"/>
</g>
<!-- Node9 -->
<g id="node9" class="node">
<title>Node9</title>
<g id="a_node9"><a xlink:href="classQuantConnect_1_1Orders_1_1StopMarketOrder.html#a1c4ba2ba5202aec57dbaec77e3005382" target="_top" xlink:title="Creates a deep&#45;copy clone of this order">
<polygon fill="white" stroke="black" points="21.5,-404.5 21.5,-434.5 167.5,-434.5 167.5,-404.5 21.5,-404.5"/>
<text text-anchor="start" x="29.5" y="-422.5" font-family="Helvetica,sans-Serif" font-size="10.00">QuantConnect.Orders.Stop</text>
<text text-anchor="middle" x="94.5" y="-411.5" font-family="Helvetica,sans-Serif" font-size="10.00">MarketOrder.Clone</text>
</a>
</g>
</g>
<!-- Node2&#45;&gt;Node9 -->
<g id="edge8" class="edge">
<title>Node2&#45;&gt;Node9</title>
<path fill="none" stroke="midnightblue" d="M293.24,-497.09C266.01,-481.05 226.06,-459.07 189,-444.5 179.62,-440.81 169.5,-437.48 159.5,-434.54"/>
<polygon fill="midnightblue" stroke="midnightblue" points="291.59,-500.17 301.97,-502.28 295.17,-494.16 291.59,-500.17"/>
</g>
<!-- Node10 -->
<g id="node10" class="node">
<title>Node10</title>
<g id="a_node10"><a xlink:href="classQuantConnect_1_1Orders_1_1StopLimitOrder.html#af7deb87657b2cc4e69a52688c08abe48" target="_top" xlink:title="Creates a deep&#45;copy clone of this order">
<polygon fill="white" stroke="black" points="21.5,-355.5 21.5,-385.5 167.5,-385.5 167.5,-355.5 21.5,-355.5"/>
<text text-anchor="start" x="29.5" y="-373.5" font-family="Helvetica,sans-Serif" font-size="10.00">QuantConnect.Orders.Stop</text>
<text text-anchor="middle" x="94.5" y="-362.5" font-family="Helvetica,sans-Serif" font-size="10.00">LimitOrder.Clone</text>
</a>
</g>
</g>
<!-- Node2&#45;&gt;Node10 -->
<g id="edge9" class="edge">
<title>Node2&#45;&gt;Node10</title>
<path fill="none" stroke="midnightblue" d="M292.52,-496.94C271.76,-483.47 245.38,-464.68 225,-444.5 205.79,-425.49 211.32,-410.74 189,-395.5 182.48,-391.05 175.2,-387.38 167.66,-384.38"/>
<polygon fill="midnightblue" stroke="midnightblue" points="290.72,-499.94 301.04,-502.37 294.49,-494.04 290.72,-499.94"/>
</g>
<!-- Node13 -->
<g id="node13" class="node">
<title>Node13</title>
<g id="a_node13"><a xlink:href="classQuantConnect_1_1Securities_1_1DefaultMarginCallModel.html#a9009415ee21ef27ddfd58b88bf6e48bf" target="_top" xlink:title="Scan the portfolio and the updated data for a potential margin call situation which may get the holdi...">
<polygon fill="white" stroke="black" points="0,-295 0,-336 189,-336 189,-295 0,-295"/>
<text text-anchor="start" x="8" y="-324" font-family="Helvetica,sans-Serif" font-size="10.00">QuantConnect.Securities.</text>
<text text-anchor="start" x="8" y="-313" font-family="Helvetica,sans-Serif" font-size="10.00">DefaultMarginCallModel.GetMargin</text>
<text text-anchor="middle" x="94.5" y="-302" font-family="Helvetica,sans-Serif" font-size="10.00">CallOrders</text>
</a>
</g>
</g>
<!-- Node12&#45;&gt;Node13 -->
<g id="edge12" class="edge">
<title>Node12&#45;&gt;Node13</title>
<path fill="none" stroke="midnightblue" d="M225.75,-343.13C213.64,-340.56 201.3,-337.94 189.29,-335.4"/>
<polygon fill="midnightblue" stroke="midnightblue" points="225.36,-346.62 235.87,-345.27 226.81,-339.78 225.36,-346.62"/>
</g>
</g>
</svg>
        <g id="navigator" transform="translate(0 0)" fill="#404254">
                <rect fill="#f2f5e9" fill-opacity="0.5" stroke="#606060" stroke-width=".5" x="0" y="0" width="60" height="60"/>
                <use id="zoomplus" xlink:href="#zoomPlus" x="17" y="9" onmousedown="handleZoom(evt,'in')"/>
                <use id="zoomminus" xlink:href="#zoomMin" x="42" y="9" onmousedown="handleZoom(evt,'out')"/>
                <use id="reset" xlink:href="#resetDef" x="30" y="36" onmousedown="handleReset()"/>
                <g id="arrowUp" xlink:href="#dirArrow" transform="translate(30 24)" onmousedown="handlePan(0,-1)">
                  <use xlink:href="#rim" fill="#404040">
                        <set attributeName="fill" to="#808080" begin="arrowUp.mouseover" end="arrowUp.mouseout"/>
                  </use>
                  <path fill="none" stroke="white" stroke-width="1.5" d="M0,-3.0v7 M-2.5,-0.5L0,-3.0L2.5,-0.5"/>
                </g>
                <g id="arrowRight" xlink:href="#dirArrow" transform="rotate(90) translate(36 -43)" onmousedown="handlePan(1,0)">
                  <use xlink:href="#rim" fill="#404040">
                        <set attributeName="fill" to="#808080" begin="arrowRight.mouseover" end="arrowRight.mouseout"/>
                  </use>
                  <path fill="none" stroke="white" stroke-width="1.5" d="M0,-3.0v7 M-2.5,-0.5L0,-3.0L2.5,-0.5"/>
                </g>
                <g id="arrowDown" xlink:href="#dirArrow" transform="rotate(180) translate(-30 -48)" onmousedown="handlePan(0,1)">
                  <use xlink:href="#rim" fill="#404040">
                        <set attributeName="fill" to="#808080" begin="arrowDown.mouseover" end="arrowDown.mouseout"/>
                  </use>
                  <path fill="none" stroke="white" stroke-width="1.5" d="M0,-3.0v7 M-2.5,-0.5L0,-3.0L2.5,-0.5"/>
                </g>
                <g id="arrowLeft" xlink:href="#dirArrow" transform="rotate(270) translate(-36 17)" onmousedown="handlePan(-1,0)">
                  <use xlink:href="#rim" fill="#404040">
                        <set attributeName="fill" to="#808080" begin="arrowLeft.mouseover" end="arrowLeft.mouseout"/>
                  </use>
                  <path fill="none" stroke="white" stroke-width="1.5" d="M0,-3.0v7 M-2.5,-0.5L0,-3.0L2.5,-0.5"/>
                </g>
        </g>
        <svg viewBox="0 0 15 15" width="100%" height="30px" preserveAspectRatio="xMaxYMin meet">
         <g id="arrow_out" transform="scale(0.3 0.3)">
          <a xlink:href="interfaceQuantConnect_1_1Interfaces_1_1IOrderProperties_a683b82212fc9f952e098f8eb4e634643_icgraph_org.svg" target="_base">
           <rect id="button" ry="5" rx="5" y="6" x="6" height="38" width="38"
                fill="#f2f5e9" fill-opacity="0.5" stroke="#606060" stroke-width="1.0"/>
           <path id="arrow"
             d="M 11.500037,31.436501 C 11.940474,20.09759 22.043105,11.32322 32.158766,21.979434 L 37.068811,17.246167 C 37.068811,17.246167 37.088388,32 37.088388,32 L 22.160133,31.978069 C 22.160133,31.978069 26.997745,27.140456 26.997745,27.140456 C 18.528582,18.264221 13.291696,25.230495 11.500037,31.436501 z"
             style="fill:#404040;"/>
          </a>
         </g>
        </svg>
</svg>
