<?xml version="1.0" encoding="UTF-8" standalone="no"?>
<!DOCTYPE svg PUBLIC "-//W3C//DTD SVG 1.1//EN"
 "http://www.w3.org/Graphics/SVG/1.1/DTD/svg11.dtd">
<!-- Generated by graphviz version 2.43.0 (0)
 -->
<!-- Title: QuantConnect.Data.ISubscriptionEnumeratorFactory Pages: 1 -->
<svg width="473pt" height="477pt"
 viewBox="0.00 0.00 473.00 477.00" xmlns="http://www.w3.org/2000/svg" xmlns:xlink="http://www.w3.org/1999/xlink">
<g id="graph0" class="graph" transform="scale(1 1) rotate(0) translate(4 473)">
<title>QuantConnect.Data.ISubscriptionEnumeratorFactory</title>
<polygon fill="white" stroke="transparent" points="-4,4 -4,-473 469,-473 469,4 -4,4"/>
<!-- Node1 -->
<g id="node1" class="node">
<title>Node1</title>
<g id="a_node1"><a xlink:title="Create an IEnumerator&lt;BaseData&gt;">
<polygon fill="#bfbfbf" stroke="black" points="0,-224.5 0,-254.5 178,-254.5 178,-224.5 0,-224.5"/>
<text text-anchor="start" x="8" y="-242.5" font-family="Helvetica,sans-Serif" font-size="10.00">QuantConnect.Data.ISubscription</text>
<text text-anchor="middle" x="89" y="-231.5" font-family="Helvetica,sans-Serif" font-size="10.00">EnumeratorFactory</text>
</a>
</g>
</g>
<!-- Node2 -->
<g id="node2" class="node">
<title>Node2</title>
<g id="a_node2"><a xlink:href="classQuantConnect_1_1Lean_1_1Engine_1_1DataFeeds_1_1Enumerators_1_1Factories_1_1BaseDataCollectionSubscriptionEnumeratorFactory.html" target="_top" xlink:title="Provides an implementation of ISubscriptionEnumeratorFactory that reads an entire SubscriptionDataSou...">
<polygon fill="white" stroke="black" points="224.5,-416.5 224.5,-468.5 454.5,-468.5 454.5,-416.5 224.5,-416.5"/>
<text text-anchor="start" x="232.5" y="-456.5" font-family="Helvetica,sans-Serif" font-size="10.00">QuantConnect.Lean.Engine.</text>
<text text-anchor="start" x="232.5" y="-445.5" font-family="Helvetica,sans-Serif" font-size="10.00">DataFeeds.Enumerators.Factories.</text>
<text text-anchor="start" x="232.5" y="-434.5" font-family="Helvetica,sans-Serif" font-size="10.00">BaseDataCollectionSubscriptionEnumerator</text>
<text text-anchor="middle" x="339.5" y="-423.5" font-family="Helvetica,sans-Serif" font-size="10.00">Factory</text>
</a>
</g>
</g>
<!-- Node1&#45;&gt;Node2 -->
<g id="edge1" class="edge">
<title>Node1&#45;&gt;Node2</title>
<path fill="none" stroke="midnightblue" d="M101.59,-263.96C120.16,-300.5 160.04,-369.04 214,-406.5 219.27,-410.16 224.91,-413.45 230.77,-416.4"/>
<polygon fill="midnightblue" stroke="midnightblue" points="104.5,-261.96 96.92,-254.56 98.23,-265.07 104.5,-261.96"/>
</g>
<!-- Node3 -->
<g id="node3" class="node">
<title>Node3</title>
<g id="a_node3"><a xlink:href="classQuantConnect_1_1Lean_1_1Engine_1_1DataFeeds_1_1Enumerators_1_1Factories_1_1BaseDataSubscriptionEnumeratorFactory.html" target="_top" xlink:title="Provides a default implementation of ISubscriptionEnumeratorFactory that uses BaseData factory method...">
<polygon fill="white" stroke="black" points="231.5,-356 231.5,-397 447.5,-397 447.5,-356 231.5,-356"/>
<text text-anchor="start" x="239.5" y="-385" font-family="Helvetica,sans-Serif" font-size="10.00">QuantConnect.Lean.Engine.</text>
<text text-anchor="start" x="239.5" y="-374" font-family="Helvetica,sans-Serif" font-size="10.00">DataFeeds.Enumerators.Factories.</text>
<text text-anchor="middle" x="339.5" y="-363" font-family="Helvetica,sans-Serif" font-size="10.00">BaseDataSubscriptionEnumeratorFactory</text>
</a>
</g>
</g>
<!-- Node1&#45;&gt;Node3 -->
<g id="edge2" class="edge">
<title>Node1&#45;&gt;Node3</title>
<path fill="none" stroke="midnightblue" d="M109.99,-262.27C132.75,-286.76 172.23,-325.06 214,-346.5 220.92,-350.05 228.28,-353.2 235.82,-355.97"/>
<polygon fill="midnightblue" stroke="midnightblue" points="112.53,-259.87 103.21,-254.84 107.37,-264.59 112.53,-259.87"/>
</g>
<!-- Node4 -->
<g id="node4" class="node">
<title>Node4</title>
<g id="a_node4"><a xlink:href="classQuantConnect_1_1Lean_1_1Engine_1_1DataFeeds_1_1Enumerators_1_1Factories_1_1FineFundamentalSubscriptionEnumeratorFactory.html" target="_top" xlink:title="Provides an implementation of ISubscriptionEnumeratorFactory that reads an entire SubscriptionDataSou...">
<polygon fill="white" stroke="black" points="230.5,-284.5 230.5,-336.5 448.5,-336.5 448.5,-284.5 230.5,-284.5"/>
<text text-anchor="start" x="238.5" y="-324.5" font-family="Helvetica,sans-Serif" font-size="10.00">QuantConnect.Lean.Engine.</text>
<text text-anchor="start" x="238.5" y="-313.5" font-family="Helvetica,sans-Serif" font-size="10.00">DataFeeds.Enumerators.Factories.</text>
<text text-anchor="start" x="238.5" y="-302.5" font-family="Helvetica,sans-Serif" font-size="10.00">FineFundamentalSubscriptionEnumerator</text>
<text text-anchor="middle" x="339.5" y="-291.5" font-family="Helvetica,sans-Serif" font-size="10.00">Factory</text>
</a>
</g>
</g>
<!-- Node1&#45;&gt;Node4 -->
<g id="edge3" class="edge">
<title>Node1&#45;&gt;Node4</title>
<path fill="none" stroke="midnightblue" d="M151.17,-257.37C171.19,-263.19 193.53,-269.65 214,-275.5 224.25,-278.43 234.99,-281.48 245.67,-284.5"/>
<polygon fill="midnightblue" stroke="midnightblue" points="152.13,-254.01 141.55,-254.57 150.18,-260.73 152.13,-254.01"/>
</g>
<!-- Node5 -->
<g id="node5" class="node">
<title>Node5</title>
<g id="a_node5"><a xlink:href="classQuantConnect_1_1Lean_1_1Engine_1_1DataFeeds_1_1Enumerators_1_1Factories_1_1LiveCustomDataSubscriptionEnumeratorFactory.html" target="_top" xlink:title="Provides an implementation of ISubscriptionEnumeratorFactory to handle live custom data.">
<polygon fill="white" stroke="black" points="232,-213.5 232,-265.5 447,-265.5 447,-213.5 232,-213.5"/>
<text text-anchor="start" x="240" y="-253.5" font-family="Helvetica,sans-Serif" font-size="10.00">QuantConnect.Lean.Engine.</text>
<text text-anchor="start" x="240" y="-242.5" font-family="Helvetica,sans-Serif" font-size="10.00">DataFeeds.Enumerators.Factories.</text>
<text text-anchor="start" x="240" y="-231.5" font-family="Helvetica,sans-Serif" font-size="10.00">LiveCustomDataSubscriptionEnumerator</text>
<text text-anchor="middle" x="339.5" y="-220.5" font-family="Helvetica,sans-Serif" font-size="10.00">Factory</text>
</a>
</g>
</g>
<!-- Node1&#45;&gt;Node5 -->
<g id="edge4" class="edge">
<title>Node1&#45;&gt;Node5</title>
<path fill="none" stroke="midnightblue" d="M188.55,-239.5C202.75,-239.5 217.41,-239.5 231.75,-239.5"/>
<polygon fill="midnightblue" stroke="midnightblue" points="188.31,-236 178.31,-239.5 188.31,-243 188.31,-236"/>
</g>
<!-- Node6 -->
<g id="node6" class="node">
<title>Node6</title>
<g id="a_node6"><a xlink:href="classQuantConnect_1_1Lean_1_1Engine_1_1DataFeeds_1_1Enumerators_1_1Factories_1_1OptionChainUnivecdd4aa44ff3c06fb151a73753aad4fcd.html" target="_top" xlink:title="Provides an implementation of ISubscriptionEnumeratorFactory for the OptionChainUniverse">
<polygon fill="white" stroke="black" points="221,-142.5 221,-194.5 458,-194.5 458,-142.5 221,-142.5"/>
<text text-anchor="start" x="229" y="-182.5" font-family="Helvetica,sans-Serif" font-size="10.00">QuantConnect.Lean.Engine.</text>
<text text-anchor="start" x="229" y="-171.5" font-family="Helvetica,sans-Serif" font-size="10.00">DataFeeds.Enumerators.Factories.</text>
<text text-anchor="start" x="229" y="-160.5" font-family="Helvetica,sans-Serif" font-size="10.00">OptionChainUniverseSubscriptionEnumerator</text>
<text text-anchor="middle" x="339.5" y="-149.5" font-family="Helvetica,sans-Serif" font-size="10.00">Factory</text>
</a>
</g>
</g>
<!-- Node1&#45;&gt;Node6 -->
<g id="edge5" class="edge">
<title>Node1&#45;&gt;Node6</title>
<path fill="none" stroke="midnightblue" d="M152.58,-221.62C181.23,-213.43 215.74,-203.57 247.21,-194.58"/>
<polygon fill="midnightblue" stroke="midnightblue" points="151.35,-218.33 142.7,-224.44 153.28,-225.06 151.35,-218.33"/>
</g>
<!-- Node7 -->
<g id="node7" class="node">
<title>Node7</title>
<g id="a_node7"><a xlink:href="classQuantConnect_1_1Lean_1_1Engine_1_1DataFeeds_1_1Enumerators_1_1Factories_1_1SubscriptionData4a568ee5c9f97375f86b95c1bf15dad3.html" target="_top" xlink:title="Provides an implementation of ISubscriptionEnumeratorFactory that used the SubscriptionDataReader">
<polygon fill="white" stroke="black" points="214,-71.5 214,-123.5 465,-123.5 465,-71.5 214,-71.5"/>
<text text-anchor="start" x="222" y="-111.5" font-family="Helvetica,sans-Serif" font-size="10.00">QuantConnect.Lean.Engine.</text>
<text text-anchor="start" x="222" y="-100.5" font-family="Helvetica,sans-Serif" font-size="10.00">DataFeeds.Enumerators.Factories.</text>
<text text-anchor="start" x="222" y="-89.5" font-family="Helvetica,sans-Serif" font-size="10.00">SubscriptionDataReaderSubscriptionEnumerator</text>
<text text-anchor="middle" x="339.5" y="-78.5" font-family="Helvetica,sans-Serif" font-size="10.00">Factory</text>
</a>
</g>
</g>
<!-- Node1&#45;&gt;Node7 -->
<g id="edge6" class="edge">
<title>Node1&#45;&gt;Node7</title>
<path fill="none" stroke="midnightblue" d="M110.6,-216.91C133.61,-192.95 173.06,-155.57 214,-133.5 220.73,-129.87 227.88,-126.57 235.2,-123.57"/>
<polygon fill="midnightblue" stroke="midnightblue" points="108.05,-214.51 103.72,-224.18 113.13,-219.32 108.05,-214.51"/>
</g>
<!-- Node8 -->
<g id="node8" class="node">
<title>Node8</title>
<g id="a_node8"><a xlink:href="classQuantConnect_1_1Lean_1_1Engine_1_1DataFeeds_1_1Enumerators_1_1Factories_1_1TimeTriggeredUni53ca1682287b904e1e9301b76495860c.html" target="_top" xlink:title="Provides an implementation of ISubscriptionEnumeratorFactory to emit ticks based on UserDefinedUniver...">
<polygon fill="white" stroke="black" points="216,-0.5 216,-52.5 463,-52.5 463,-0.5 216,-0.5"/>
<text text-anchor="start" x="224" y="-40.5" font-family="Helvetica,sans-Serif" font-size="10.00">QuantConnect.Lean.Engine.</text>
<text text-anchor="start" x="224" y="-29.5" font-family="Helvetica,sans-Serif" font-size="10.00">DataFeeds.Enumerators.Factories.</text>
<text text-anchor="start" x="224" y="-18.5" font-family="Helvetica,sans-Serif" font-size="10.00">TimeTriggeredUniverseSubscriptionEnumerator</text>
<text text-anchor="middle" x="339.5" y="-7.5" font-family="Helvetica,sans-Serif" font-size="10.00">Factory</text>
</a>
</g>
</g>
<!-- Node1&#45;&gt;Node8 -->
<g id="edge7" class="edge">
<title>Node1&#45;&gt;Node8</title>
<path fill="none" stroke="midnightblue" d="M100.57,-214.93C118.33,-176.56 157.82,-102.66 214,-62.5 219.13,-58.84 224.62,-55.54 230.34,-52.58"/>
<polygon fill="midnightblue" stroke="midnightblue" points="97.25,-213.76 96.33,-224.32 103.63,-216.64 97.25,-213.76"/>
</g>
</g>
</svg>
