<?xml version="1.0" encoding="UTF-8" standalone="no"?>
<!DOCTYPE svg PUBLIC "-//W3C//DTD SVG 1.1//EN"
 "http://www.w3.org/Graphics/SVG/1.1/DTD/svg11.dtd">
<!-- Generated by graphviz version 2.43.0 (0)
 -->
<!-- Title: QuantConnect.Interfaces.IFactorFileProvider.Get Pages: 1 -->
<svg width="616pt" height="170pt"
 viewBox="0.00 0.00 616.00 170.00" xmlns="http://www.w3.org/2000/svg" xmlns:xlink="http://www.w3.org/1999/xlink">
<g id="graph0" class="graph" transform="scale(1 1) rotate(0) translate(4 166)">
<title>QuantConnect.Interfaces.IFactorFileProvider.Get</title>
<polygon fill="white" stroke="transparent" points="-4,4 -4,-166 612,-166 612,4 -4,4"/>
<!-- Node1 -->
<g id="node1" class="node">
<title>Node1</title>
<g id="a_node1"><a xlink:title="Gets a FactorFile instance for the specified symbol, or null if not found">
<polygon fill="#bfbfbf" stroke="black" points="468,-66 468,-96 608,-96 608,-66 468,-66"/>
<text text-anchor="start" x="476" y="-84" font-family="Helvetica,sans-Serif" font-size="10.00">QuantConnect.Interfaces.</text>
<text text-anchor="middle" x="538" y="-73" font-family="Helvetica,sans-Serif" font-size="10.00">IFactorFileProvider.Get</text>
</a>
</g>
</g>
<!-- Node2 -->
<g id="node2" class="node">
<title>Node2</title>
<g id="a_node2"><a xlink:href="classQuantConnect_1_1Lean_1_1Engine_1_1DataFeeds_1_1SubscriptionUtils.html#ad99f7319de26a66bf3efa77ec804a5fc" target="_top" xlink:title="Setups a new Subscription which will consume a blocking EnqueueableEnumerator&lt;T&gt; that will be feed by...">
<polygon fill="white" stroke="black" points="243,-120.5 243,-161.5 432,-161.5 432,-120.5 243,-120.5"/>
<text text-anchor="start" x="251" y="-149.5" font-family="Helvetica,sans-Serif" font-size="10.00">QuantConnect.Lean.Engine.</text>
<text text-anchor="start" x="251" y="-138.5" font-family="Helvetica,sans-Serif" font-size="10.00">DataFeeds.SubscriptionUtils.Create</text>
<text text-anchor="middle" x="337.5" y="-127.5" font-family="Helvetica,sans-Serif" font-size="10.00">AndScheduleWorker</text>
</a>
</g>
</g>
<!-- Node1&#45;&gt;Node2 -->
<g id="edge1" class="edge">
<title>Node1&#45;&gt;Node2</title>
<path fill="none" stroke="midnightblue" d="M477.46,-99C455.07,-105.77 429.45,-113.51 406.36,-120.49"/>
<polygon fill="midnightblue" stroke="midnightblue" points="478.61,-102.31 487.17,-96.06 476.58,-95.61 478.61,-102.31"/>
</g>
<!-- Node4 -->
<g id="node4" class="node">
<title>Node4</title>
<g id="a_node4"><a xlink:href="classQuantConnect_1_1Lean_1_1Engine_1_1DataFeeds_1_1Enumerators_1_1DividendEventProvider.html#a6aef039a181ace000e16bc1fa5c487d9" target="_top" xlink:title="Initializes this instance">
<polygon fill="white" stroke="black" points="247.5,-60.5 247.5,-101.5 427.5,-101.5 427.5,-60.5 247.5,-60.5"/>
<text text-anchor="start" x="255.5" y="-89.5" font-family="Helvetica,sans-Serif" font-size="10.00">QuantConnect.Lean.Engine.</text>
<text text-anchor="start" x="255.5" y="-78.5" font-family="Helvetica,sans-Serif" font-size="10.00">DataFeeds.Enumerators.Dividend</text>
<text text-anchor="middle" x="337.5" y="-67.5" font-family="Helvetica,sans-Serif" font-size="10.00">EventProvider.Initialize</text>
</a>
</g>
</g>
<!-- Node1&#45;&gt;Node4 -->
<g id="edge3" class="edge">
<title>Node1&#45;&gt;Node4</title>
<path fill="none" stroke="midnightblue" d="M457.68,-81C447.81,-81 437.66,-81 427.65,-81"/>
<polygon fill="midnightblue" stroke="midnightblue" points="457.85,-84.5 467.85,-81 457.85,-77.5 457.85,-84.5"/>
</g>
<!-- Node5 -->
<g id="node5" class="node">
<title>Node5</title>
<g id="a_node5"><a xlink:href="classQuantConnect_1_1Lean_1_1Engine_1_1DataFeeds_1_1Enumerators_1_1SplitEventProvider.html#abc76f36c6b39e05c7adef77b6432fa59" target="_top" xlink:title="Initializes this instance">
<polygon fill="white" stroke="black" points="244.5,-0.5 244.5,-41.5 430.5,-41.5 430.5,-0.5 244.5,-0.5"/>
<text text-anchor="start" x="252.5" y="-29.5" font-family="Helvetica,sans-Serif" font-size="10.00">QuantConnect.Lean.Engine.</text>
<text text-anchor="start" x="252.5" y="-18.5" font-family="Helvetica,sans-Serif" font-size="10.00">DataFeeds.Enumerators.SplitEvent</text>
<text text-anchor="middle" x="337.5" y="-7.5" font-family="Helvetica,sans-Serif" font-size="10.00">Provider.Initialize</text>
</a>
</g>
</g>
<!-- Node1&#45;&gt;Node5 -->
<g id="edge4" class="edge">
<title>Node1&#45;&gt;Node5</title>
<path fill="none" stroke="midnightblue" d="M477.46,-63C455.07,-56.23 429.45,-48.49 406.36,-41.51"/>
<polygon fill="midnightblue" stroke="midnightblue" points="476.58,-66.39 487.17,-65.94 478.61,-59.69 476.58,-66.39"/>
</g>
<!-- Node3 -->
<g id="node3" class="node">
<title>Node3</title>
<g id="a_node3"><a xlink:href="classQuantConnect_1_1Lean_1_1Engine_1_1DataFeeds_1_1FileSystemDataFeed.html#ac148e78fc814fca88c70a1835be51a25" target="_top" xlink:title="Creates a new subscription to provide data for the specified security.">
<polygon fill="white" stroke="black" points="0,-120.5 0,-161.5 207,-161.5 207,-120.5 0,-120.5"/>
<text text-anchor="start" x="8" y="-149.5" font-family="Helvetica,sans-Serif" font-size="10.00">QuantConnect.Lean.Engine.</text>
<text text-anchor="start" x="8" y="-138.5" font-family="Helvetica,sans-Serif" font-size="10.00">DataFeeds.FileSystemDataFeed.Create</text>
<text text-anchor="middle" x="103.5" y="-127.5" font-family="Helvetica,sans-Serif" font-size="10.00">Subscription</text>
</a>
</g>
</g>
<!-- Node2&#45;&gt;Node3 -->
<g id="edge2" class="edge">
<title>Node2&#45;&gt;Node3</title>
<path fill="none" stroke="midnightblue" d="M232.6,-141C224.18,-141 215.68,-141 207.28,-141"/>
<polygon fill="midnightblue" stroke="midnightblue" points="232.81,-144.5 242.81,-141 232.81,-137.5 232.81,-144.5"/>
</g>
</g>
</svg>
