<?xml version="1.0" encoding="UTF-8" standalone="no"?>
<!DOCTYPE svg PUBLIC "-//W3C//DTD SVG 1.1//EN"
 "http://www.w3.org/Graphics/SVG/1.1/DTD/svg11.dtd">
<!-- Generated by graphviz version 2.43.0 (0)
 -->
<!-- Title: QuantConnect.Interfaces.IBusyCollection&lt; T &gt; Pages: 1 -->
<svg width="460pt" height="88pt"
 viewBox="0.00 0.00 460.00 88.00" xmlns="http://www.w3.org/2000/svg" xmlns:xlink="http://www.w3.org/1999/xlink">
<g id="graph0" class="graph" transform="scale(1 1) rotate(0) translate(4 84)">
<title>QuantConnect.Interfaces.IBusyCollection&lt; T &gt;</title>
<polygon fill="white" stroke="transparent" points="-4,4 -4,-84 456,-84 456,4 -4,4"/>
<!-- Node1 -->
<g id="node1" class="node">
<title>Node1</title>
<g id="a_node1"><a xlink:title="Interface used to handle items being processed and communicate busy state">
<polygon fill="#bfbfbf" stroke="black" points="110,-24.5 110,-54.5 250,-54.5 250,-24.5 110,-24.5"/>
<text text-anchor="start" x="118" y="-42.5" font-family="Helvetica,sans-Serif" font-size="10.00">QuantConnect.Interfaces.</text>
<text text-anchor="middle" x="180" y="-31.5" font-family="Helvetica,sans-Serif" font-size="10.00">IBusyCollection&lt; T &gt;</text>
</a>
</g>
</g>
<!-- Node3 -->
<g id="node3" class="node">
<title>Node3</title>
<g id="a_node3"><a xlink:href="classQuantConnect_1_1Util_1_1BusyBlockingCollection.html" target="_top" xlink:title="A small wrapper around BlockingCollection&lt;T&gt; used to communicate busy state of the items being proces...">
<polygon fill="white" stroke="black" points="286,-49.5 286,-79.5 452,-79.5 452,-49.5 286,-49.5"/>
<text text-anchor="start" x="294" y="-67.5" font-family="Helvetica,sans-Serif" font-size="10.00">QuantConnect::Util</text>
<text text-anchor="middle" x="369" y="-56.5" font-family="Helvetica,sans-Serif" font-size="10.00">::BusyBlockingCollection&lt; T &gt;</text>
</a>
</g>
</g>
<!-- Node1&#45;&gt;Node3 -->
<g id="edge2" class="edge">
<title>Node1&#45;&gt;Node3</title>
<path fill="none" stroke="midnightblue" d="M260.04,-50.07C268.59,-51.21 277.31,-52.38 285.89,-53.52"/>
<polygon fill="midnightblue" stroke="midnightblue" points="260.48,-46.59 250.1,-48.74 259.55,-53.53 260.48,-46.59"/>
</g>
<!-- Node4 -->
<g id="node4" class="node">
<title>Node4</title>
<g id="a_node4"><a xlink:href="classQuantConnect_1_1Util_1_1BusyCollection.html" target="_top" xlink:title="A non blocking IBusyCollection&lt;T&gt; implementation">
<polygon fill="white" stroke="black" points="307,-0.5 307,-30.5 431,-30.5 431,-0.5 307,-0.5"/>
<text text-anchor="start" x="315" y="-18.5" font-family="Helvetica,sans-Serif" font-size="10.00">QuantConnect::Util</text>
<text text-anchor="middle" x="369" y="-7.5" font-family="Helvetica,sans-Serif" font-size="10.00">::BusyCollection&lt; T &gt;</text>
</a>
</g>
</g>
<!-- Node1&#45;&gt;Node4 -->
<g id="edge3" class="edge">
<title>Node1&#45;&gt;Node4</title>
<path fill="none" stroke="midnightblue" d="M260.26,-29.33C275.86,-27.33 292,-25.25 306.89,-23.34"/>
<polygon fill="midnightblue" stroke="midnightblue" points="259.57,-25.89 250.1,-30.63 260.46,-32.83 259.57,-25.89"/>
</g>
<!-- Node2 -->
<g id="node2" class="node">
<title>Node2</title>
<g id="a_node2"><a xlink:title=" ">
<polygon fill="white" stroke="#bfbfbf" points="0,-30 0,-49 74,-49 74,-30 0,-30"/>
<text text-anchor="middle" x="37" y="-37" font-family="Helvetica,sans-Serif" font-size="10.00">IDisposable</text>
</a>
</g>
</g>
<!-- Node2&#45;&gt;Node1 -->
<g id="edge1" class="edge">
<title>Node2&#45;&gt;Node1</title>
<path fill="none" stroke="midnightblue" d="M84.39,-39.5C92.59,-39.5 101.28,-39.5 109.95,-39.5"/>
<polygon fill="midnightblue" stroke="midnightblue" points="84.31,-36 74.31,-39.5 84.31,-43 84.31,-36"/>
</g>
</g>
</svg>
