<?xml version="1.0" encoding="UTF-8" standalone="no"?>
<!DOCTYPE svg PUBLIC "-//W3C//DTD SVG 1.1//EN"
 "http://www.w3.org/Graphics/SVG/1.1/DTD/svg11.dtd">
<!-- Generated by graphviz version 2.43.0 (0)
 -->
<!-- Title: QuantConnect.Interfaces.IBrokerageFactory.CreateBrokerage Pages: 1 -->
<svg width="429pt" height="50pt"
 viewBox="0.00 0.00 429.00 50.00" xmlns="http://www.w3.org/2000/svg" xmlns:xlink="http://www.w3.org/1999/xlink">
<g id="graph0" class="graph" transform="scale(1 1) rotate(0) translate(4 46)">
<title>QuantConnect.Interfaces.IBrokerageFactory.CreateBrokerage</title>
<polygon fill="white" stroke="transparent" points="-4,4 -4,-46 425,-46 425,4 -4,4"/>
<!-- Node1 -->
<g id="node1" class="node">
<title>Node1</title>
<g id="a_node1"><a xlink:title="Creates a new IBrokerage instance">
<polygon fill="#bfbfbf" stroke="black" points="233,-6 233,-36 421,-36 421,-6 233,-6"/>
<text text-anchor="start" x="241" y="-24" font-family="Helvetica,sans-Serif" font-size="10.00">QuantConnect.Interfaces.</text>
<text text-anchor="middle" x="327" y="-13" font-family="Helvetica,sans-Serif" font-size="10.00">IBrokerageFactory.CreateBrokerage</text>
</a>
</g>
</g>
<!-- Node2 -->
<g id="node2" class="node">
<title>Node2</title>
<g id="a_node2"><a xlink:href="classQuantConnect_1_1Lean_1_1Engine_1_1Setup_1_1BrokerageSetupHandler.html#a529b1c1c922c29e088c66848847bbeda" target="_top" xlink:title="Creates the brokerage as specified by the job packet">
<polygon fill="white" stroke="black" points="0,-0.5 0,-41.5 197,-41.5 197,-0.5 0,-0.5"/>
<text text-anchor="start" x="8" y="-29.5" font-family="Helvetica,sans-Serif" font-size="10.00">QuantConnect.Lean.Engine.</text>
<text text-anchor="start" x="8" y="-18.5" font-family="Helvetica,sans-Serif" font-size="10.00">Setup.BrokerageSetupHandler.Create</text>
<text text-anchor="middle" x="98.5" y="-7.5" font-family="Helvetica,sans-Serif" font-size="10.00">Brokerage</text>
</a>
</g>
</g>
<!-- Node1&#45;&gt;Node2 -->
<g id="edge1" class="edge">
<title>Node1&#45;&gt;Node2</title>
<path fill="none" stroke="midnightblue" d="M222.85,-21C214.25,-21 205.57,-21 197.02,-21"/>
<polygon fill="midnightblue" stroke="midnightblue" points="222.89,-24.5 232.89,-21 222.89,-17.5 222.89,-24.5"/>
</g>
</g>
</svg>
