<?xml version="1.0" encoding="UTF-8" standalone="no"?>
<!DOCTYPE svg PUBLIC "-//W3C//DTD SVG 1.1//EN"
 "http://www.w3.org/Graphics/SVG/1.1/DTD/svg11.dtd">
<!-- Generated by graphviz version 2.43.0 (0)
 -->
<!-- Title: QuantConnect.Securities.Positions.IPositionGroupBuyingPowerModel.GetReservedBuyingPowerForPositionGroup Pages: 1 -->
<svg width="797pt" height="242pt"
 viewBox="0.00 0.00 797.00 242.00" xmlns="http://www.w3.org/2000/svg" xmlns:xlink="http://www.w3.org/1999/xlink">
<g id="graph0" class="graph" transform="scale(1 1) rotate(0) translate(4 238)">
<title>QuantConnect.Securities.Positions.IPositionGroupBuyingPowerModel.GetReservedBuyingPowerForPositionGroup</title>
<polygon fill="white" stroke="transparent" points="-4,4 -4,-238 793,-238 793,4 -4,4"/>
<!-- Node1 -->
<g id="node1" class="node">
<title>Node1</title>
<g id="a_node1"><a xlink:title="Computes the amount of buying power reserved by the provided position group">
<polygon fill="#bfbfbf" stroke="black" points="568,-94 568,-146 789,-146 789,-94 568,-94"/>
<text text-anchor="start" x="576" y="-134" font-family="Helvetica,sans-Serif" font-size="10.00">QuantConnect.Securities.</text>
<text text-anchor="start" x="576" y="-123" font-family="Helvetica,sans-Serif" font-size="10.00">Positions.IPositionGroupBuying</text>
<text text-anchor="start" x="576" y="-112" font-family="Helvetica,sans-Serif" font-size="10.00">PowerModel.GetReservedBuyingPowerFor</text>
<text text-anchor="middle" x="678.5" y="-101" font-family="Helvetica,sans-Serif" font-size="10.00">PositionGroup</text>
</a>
</g>
</g>
<!-- Node2 -->
<g id="node2" class="node">
<title>Node2</title>
<g id="a_node2"><a xlink:href="classQuantConnect_1_1Securities_1_1DefaultMarginCallModel.html#a8a6b59aac5cae79756d127f9aefdf76f" target="_top" xlink:title="Generates a new order for the specified security taking into account the total margin used by the acc...">
<polygon fill="white" stroke="black" points="304.5,-192.5 304.5,-233.5 487.5,-233.5 487.5,-192.5 304.5,-192.5"/>
<text text-anchor="start" x="312.5" y="-221.5" font-family="Helvetica,sans-Serif" font-size="10.00">QuantConnect.Securities.</text>
<text text-anchor="start" x="312.5" y="-210.5" font-family="Helvetica,sans-Serif" font-size="10.00">DefaultMarginCallModel.Generate</text>
<text text-anchor="middle" x="396" y="-199.5" font-family="Helvetica,sans-Serif" font-size="10.00">MarginCallOrder</text>
</a>
</g>
</g>
<!-- Node1&#45;&gt;Node2 -->
<g id="edge1" class="edge">
<title>Node1&#45;&gt;Node2</title>
<path fill="none" stroke="midnightblue" d="M614.75,-150.27C589.46,-161.65 559.75,-174 532,-183 517.84,-187.59 502.62,-191.72 487.69,-195.34"/>
<polygon fill="midnightblue" stroke="midnightblue" points="616.21,-153.46 623.86,-146.13 613.31,-147.09 616.21,-153.46"/>
</g>
<!-- Node4 -->
<g id="node4" class="node">
<title>Node4</title>
<g id="a_node4"><a xlink:href="classQuantConnect_1_1Securities_1_1Positions_1_1PositionGroupBuyingPowerModel.html#abc9b4d24eebe829eda4d4fe1e4b10126" target="_top" xlink:title="Get the maximum market position group order quantity to obtain a delta in the buying power used by a ...">
<polygon fill="white" stroke="black" points="260,-132.5 260,-173.5 532,-173.5 532,-132.5 260,-132.5"/>
<text text-anchor="start" x="268" y="-161.5" font-family="Helvetica,sans-Serif" font-size="10.00">QuantConnect.Securities.</text>
<text text-anchor="start" x="268" y="-150.5" font-family="Helvetica,sans-Serif" font-size="10.00">Positions.PositionGroupBuying</text>
<text text-anchor="middle" x="396" y="-139.5" font-family="Helvetica,sans-Serif" font-size="10.00">PowerModel.GetMaximumLotsForDeltaBuyingPower</text>
</a>
</g>
</g>
<!-- Node1&#45;&gt;Node4 -->
<g id="edge3" class="edge">
<title>Node1&#45;&gt;Node4</title>
<path fill="none" stroke="midnightblue" d="M557.65,-134.1C549.25,-135.09 540.75,-136.09 532.27,-137.09"/>
<polygon fill="midnightblue" stroke="midnightblue" points="558.32,-137.54 567.85,-132.9 557.51,-130.59 558.32,-137.54"/>
</g>
<!-- Node5 -->
<g id="node5" class="node">
<title>Node5</title>
<g id="a_node5"><a xlink:href="classQuantConnect_1_1Securities_1_1Positions_1_1PositionGroupBuyingPowerModelExtensions.html#a48ab305b96d7dd667bf7148063509097" target="_top" xlink:title="Computes the amount of buying power reserved by the provided position group">
<polygon fill="white" stroke="black" points="281,-61 281,-113 511,-113 511,-61 281,-61"/>
<text text-anchor="start" x="289" y="-101" font-family="Helvetica,sans-Serif" font-size="10.00">QuantConnect.Securities.</text>
<text text-anchor="start" x="289" y="-90" font-family="Helvetica,sans-Serif" font-size="10.00">Positions.PositionGroupBuying</text>
<text text-anchor="start" x="289" y="-79" font-family="Helvetica,sans-Serif" font-size="10.00">PowerModelExtensions.GetReservedBuying</text>
<text text-anchor="middle" x="396" y="-68" font-family="Helvetica,sans-Serif" font-size="10.00">PowerForPositionGroup</text>
</a>
</g>
</g>
<!-- Node1&#45;&gt;Node5 -->
<g id="edge4" class="edge">
<title>Node1&#45;&gt;Node5</title>
<path fill="none" stroke="midnightblue" d="M557.76,-105.91C542.32,-104.1 526.55,-102.24 511.2,-100.44"/>
<polygon fill="midnightblue" stroke="midnightblue" points="557.51,-109.41 567.85,-107.1 558.32,-102.46 557.51,-109.41"/>
</g>
<!-- Node6 -->
<g id="node6" class="node">
<title>Node6</title>
<g id="a_node6"><a xlink:href="classQuantConnect_1_1Securities_1_1SecurityPortfolioManager.html#a7eb96c8a566ea8780edbbad71794af25" target="_top" xlink:title="Logs margin information for debugging">
<polygon fill="white" stroke="black" points="316,-0.5 316,-41.5 476,-41.5 476,-0.5 316,-0.5"/>
<text text-anchor="start" x="324" y="-29.5" font-family="Helvetica,sans-Serif" font-size="10.00">QuantConnect.Securities.</text>
<text text-anchor="start" x="324" y="-18.5" font-family="Helvetica,sans-Serif" font-size="10.00">SecurityPortfolioManager.Log</text>
<text text-anchor="middle" x="396" y="-7.5" font-family="Helvetica,sans-Serif" font-size="10.00">MarginInformation</text>
</a>
</g>
</g>
<!-- Node1&#45;&gt;Node6 -->
<g id="edge5" class="edge">
<title>Node1&#45;&gt;Node6</title>
<path fill="none" stroke="midnightblue" d="M619.39,-89.4C593.22,-76.52 561.6,-62.19 532,-52 514.26,-45.9 494.8,-40.63 476.32,-36.27"/>
<polygon fill="midnightblue" stroke="midnightblue" points="617.9,-92.56 628.41,-93.88 621.02,-86.29 617.9,-92.56"/>
</g>
<!-- Node3 -->
<g id="node3" class="node">
<title>Node3</title>
<g id="a_node3"><a xlink:href="classQuantConnect_1_1Securities_1_1DefaultMarginCallModel.html#a9009415ee21ef27ddfd58b88bf6e48bf" target="_top" xlink:title="Scan the portfolio and the updated data for a potential margin call situation which may get the holdi...">
<polygon fill="white" stroke="black" points="17.5,-192.5 17.5,-233.5 206.5,-233.5 206.5,-192.5 17.5,-192.5"/>
<text text-anchor="start" x="25.5" y="-221.5" font-family="Helvetica,sans-Serif" font-size="10.00">QuantConnect.Securities.</text>
<text text-anchor="start" x="25.5" y="-210.5" font-family="Helvetica,sans-Serif" font-size="10.00">DefaultMarginCallModel.GetMargin</text>
<text text-anchor="middle" x="112" y="-199.5" font-family="Helvetica,sans-Serif" font-size="10.00">CallOrders</text>
</a>
</g>
</g>
<!-- Node2&#45;&gt;Node3 -->
<g id="edge2" class="edge">
<title>Node2&#45;&gt;Node3</title>
<path fill="none" stroke="midnightblue" d="M294.22,-213C265.64,-213 234.65,-213 206.52,-213"/>
<polygon fill="midnightblue" stroke="midnightblue" points="294.22,-216.5 304.22,-213 294.22,-209.5 294.22,-216.5"/>
</g>
<!-- Node7 -->
<g id="node7" class="node">
<title>Node7</title>
<g id="a_node7"><a xlink:href="classQuantConnect_1_1Lean_1_1Engine_1_1TransactionHandlers_1_1BrokerageTransactionHandler.html#ad7914edfb9b6e24fcbcd637e2c468cd5" target="_top" xlink:title="Adds the specified order to be processed">
<polygon fill="white" stroke="black" points="0,-0.5 0,-41.5 224,-41.5 224,-0.5 0,-0.5"/>
<text text-anchor="start" x="8" y="-29.5" font-family="Helvetica,sans-Serif" font-size="10.00">QuantConnect.Lean.Engine.</text>
<text text-anchor="start" x="8" y="-18.5" font-family="Helvetica,sans-Serif" font-size="10.00">TransactionHandlers.BrokerageTransaction</text>
<text text-anchor="middle" x="112" y="-7.5" font-family="Helvetica,sans-Serif" font-size="10.00">Handler.Process</text>
</a>
</g>
</g>
<!-- Node6&#45;&gt;Node7 -->
<g id="edge6" class="edge">
<title>Node6&#45;&gt;Node7</title>
<path fill="none" stroke="midnightblue" d="M305.54,-21C279.66,-21 251.09,-21 224.05,-21"/>
<polygon fill="midnightblue" stroke="midnightblue" points="305.7,-24.5 315.7,-21 305.7,-17.5 305.7,-24.5"/>
</g>
</g>
</svg>
