<?xml version="1.0" encoding="UTF-8" standalone="no"?>
<!DOCTYPE svg PUBLIC "-//W3C//DTD SVG 1.1//EN"
 "http://www.w3.org/Graphics/SVG/1.1/DTD/svg11.dtd">
<!-- Generated by graphviz version 2.43.0 (0)
 -->
<!-- Title: QuantConnect.Data.IBaseData.Clone Pages: 1 -->
<!--zoomable 214 -->
<svg id="main" version="1.1" xmlns="http://www.w3.org/2000/svg" xmlns:xlink="http://www.w3.org/1999/xlink" xml:space="preserve" onload="init(evt)">
<style type="text/css"><![CDATA[
.edge:hover path { stroke: red; }
.edge:hover polygon { stroke: red; fill: red; }
]]></style>
<script type="text/javascript"><![CDATA[
var edges = document.getElementsByTagName('g');
if (edges && edges.length) {
  for (var i=0;i<edges.length;i++) {
    if (edges[i].id.substr(0,4)=='edge') {
      edges[i].setAttribute('class','edge');
    }
  }
}
]]></script>
        <defs>
                <circle id="rim" cx="0" cy="0" r="7"/>
                <circle id="rim2" cx="0" cy="0" r="3.5"/>
                <g id="zoomPlus">
                        <use xlink:href="#rim" fill="#404040">
                                <set attributeName="fill" to="#808080" begin="zoomplus.mouseover" end="zoomplus.mouseout"/>
                        </use>
                        <path d="M-4,0h8M0,-4v8" fill="none" stroke="white" stroke-width="1.5" pointer-events="none"/>
                </g>
                <g id="zoomMin">
                        <use xlink:href="#rim" fill="#404040">
                                <set attributeName="fill" to="#808080" begin="zoomminus.mouseover" end="zoomminus.mouseout"/>
                        </use>
                        <path d="M-4,0h8" fill="none" stroke="white" stroke-width="1.5" pointer-events="none"/>
                </g>
                <g id="dirArrow">
                        <path fill="none" stroke="white" stroke-width="1.5" d="M0,-3.0v7 M-2.5,-0.5L0,-3.0L2.5,-0.5"/>
                </g>
               <g id="resetDef">
                       <use xlink:href="#rim2" fill="#404040">
                               <set attributeName="fill" to="#808080" begin="reset.mouseover" end="reset.mouseout"/>
                       </use>
               </g>
        </defs>

<script type="text/javascript">
var viewWidth = 865;
var viewHeight = 214;
var sectionId = 'dynsection-1';
</script>
<script xlink:href="svgpan.js"/>
<svg id="graph" class="graph">
<g id="viewport">
<title>QuantConnect.Data.IBaseData.Clone</title>
<polygon fill="white" stroke="transparent" points="-4,4 -4,-210 861,-210 861,4 -4,4"/>
<!-- Node1 -->
<g id="node1" class="node">
<title>Node1</title>
<g id="a_node1"><a xlink:title="Return a new instance clone of this object">
<polygon fill="#bfbfbf" stroke="black" points="689,-82 689,-112 857,-112 857,-82 689,-82"/>
<text text-anchor="start" x="697" y="-100" font-family="Helvetica,sans-Serif" font-size="10.00">QuantConnect.Data.IBaseData.</text>
<text text-anchor="middle" x="773" y="-89" font-family="Helvetica,sans-Serif" font-size="10.00">Clone</text>
</a>
</g>
</g>
<!-- Node2 -->
<g id="node2" class="node">
<title>Node2</title>
<g id="a_node2"><a xlink:href="classQuantConnect_1_1Util_1_1LeanData.html#a7ed92bff1a81ec74f705b61a4b721b5d" target="_top" xlink:title="Converts the specified base data instance into a lean data file csv line. This method takes into acco...">
<polygon fill="white" stroke="black" points="495,-82 495,-112 653,-112 653,-82 495,-82"/>
<text text-anchor="start" x="503" y="-100" font-family="Helvetica,sans-Serif" font-size="10.00">QuantConnect.Util.LeanData.</text>
<text text-anchor="middle" x="574" y="-89" font-family="Helvetica,sans-Serif" font-size="10.00">GenerateLine</text>
</a>
</g>
</g>
<!-- Node1&#45;&gt;Node2 -->
<g id="edge1" class="edge">
<title>Node1&#45;&gt;Node2</title>
<path fill="none" stroke="midnightblue" d="M678.48,-97C670.04,-97 661.55,-97 653.26,-97"/>
<polygon fill="midnightblue" stroke="midnightblue" points="678.74,-100.5 688.74,-97 678.74,-93.5 678.74,-100.5"/>
</g>
<!-- Node3 -->
<g id="node3" class="node">
<title>Node3</title>
<g id="a_node3"><a xlink:href="classQuantConnect_1_1ToolBox_1_1AlgoSeekFuturesConverter_1_1AlgoSeekFuturesProcessor.html#a82ea2dc8cfa86ba3e93301f4d1093ea1" target="_top" xlink:title="Create a new AlgoSeekFuturesProcessor for enquing consolidated bars and flushing them to disk">
<polygon fill="white" stroke="black" points="250,-164.5 250,-205.5 459,-205.5 459,-164.5 250,-164.5"/>
<text text-anchor="start" x="258" y="-193.5" font-family="Helvetica,sans-Serif" font-size="10.00">QuantConnect.ToolBox.Algo</text>
<text text-anchor="start" x="258" y="-182.5" font-family="Helvetica,sans-Serif" font-size="10.00">SeekFuturesConverter.AlgoSeekFutures</text>
<text text-anchor="middle" x="354.5" y="-171.5" font-family="Helvetica,sans-Serif" font-size="10.00">Processor.AlgoSeekFuturesProcessor</text>
</a>
</g>
</g>
<!-- Node2&#45;&gt;Node3 -->
<g id="edge2" class="edge">
<title>Node2&#45;&gt;Node3</title>
<path fill="none" stroke="midnightblue" d="M537.92,-117.02C515.77,-129.11 486.29,-144.22 459,-155 450.47,-158.37 441.42,-161.55 432.35,-164.49"/>
<polygon fill="midnightblue" stroke="midnightblue" points="539.87,-119.94 546.94,-112.05 536.49,-113.82 539.87,-119.94"/>
</g>
<!-- Node4 -->
<g id="node4" class="node">
<title>Node4</title>
<g id="a_node4"><a xlink:href="classQuantConnect_1_1ToolBox_1_1AlgoSeekFuturesConverter_1_1AlgoSeekFuturesProcessor.html#a3ad452d64aa1404d16821cef5d35c0ba" target="_top" xlink:title="Write the in memory queues to the disk.">
<polygon fill="white" stroke="black" points="250,-104.5 250,-145.5 459,-145.5 459,-104.5 250,-104.5"/>
<text text-anchor="start" x="258" y="-133.5" font-family="Helvetica,sans-Serif" font-size="10.00">QuantConnect.ToolBox.Algo</text>
<text text-anchor="start" x="258" y="-122.5" font-family="Helvetica,sans-Serif" font-size="10.00">SeekFuturesConverter.AlgoSeekFutures</text>
<text text-anchor="middle" x="354.5" y="-111.5" font-family="Helvetica,sans-Serif" font-size="10.00">Processor.FlushBuffer</text>
</a>
</g>
</g>
<!-- Node2&#45;&gt;Node4 -->
<g id="edge3" class="edge">
<title>Node2&#45;&gt;Node4</title>
<path fill="none" stroke="midnightblue" d="M484.64,-108.38C476.24,-109.46 467.68,-110.56 459.15,-111.66"/>
<polygon fill="midnightblue" stroke="midnightblue" points="485.31,-111.82 494.78,-107.07 484.42,-104.87 485.31,-111.82"/>
</g>
<!-- Node5 -->
<g id="node5" class="node">
<title>Node5</title>
<g id="a_node5"><a xlink:href="classQuantConnect_1_1ToolBox_1_1CsvDataProcessor.html#a4e8ad818bea5266453a3ef451fe58e1d" target="_top" xlink:title="Invoked for each piece of data from the source file">
<polygon fill="white" stroke="black" points="280.5,-55 280.5,-85 428.5,-85 428.5,-55 280.5,-55"/>
<text text-anchor="start" x="288.5" y="-73" font-family="Helvetica,sans-Serif" font-size="10.00">QuantConnect.ToolBox.Csv</text>
<text text-anchor="middle" x="354.5" y="-62" font-family="Helvetica,sans-Serif" font-size="10.00">DataProcessor.Process</text>
</a>
</g>
</g>
<!-- Node2&#45;&gt;Node5 -->
<g id="edge4" class="edge">
<title>Node2&#45;&gt;Node5</title>
<path fill="none" stroke="midnightblue" d="M484.82,-86.05C466.18,-83.74 446.69,-81.32 428.67,-79.08"/>
<polygon fill="midnightblue" stroke="midnightblue" points="484.43,-89.53 494.78,-87.29 485.29,-82.59 484.43,-89.53"/>
</g>
<!-- Node6 -->
<g id="node6" class="node">
<title>Node6</title>
<g id="a_node6"><a xlink:href="classQuantConnect_1_1Data_1_1LeanDataWriter.html#a45a6aa9d17842056e383dfbd793222ee" target="_top" xlink:title="Given the constructor parameters, write out the data in LEAN format.">
<polygon fill="white" stroke="black" points="274,-6 274,-36 435,-36 435,-6 274,-6"/>
<text text-anchor="start" x="282" y="-24" font-family="Helvetica,sans-Serif" font-size="10.00">QuantConnect.Data.LeanData</text>
<text text-anchor="middle" x="354.5" y="-13" font-family="Helvetica,sans-Serif" font-size="10.00">Writer.Write</text>
</a>
</g>
</g>
<!-- Node2&#45;&gt;Node6 -->
<g id="edge5" class="edge">
<title>Node2&#45;&gt;Node6</title>
<path fill="none" stroke="midnightblue" d="M533.92,-77.37C512.24,-67.03 484.56,-54.72 459,-46 448.24,-42.33 436.68,-38.98 425.32,-36.01"/>
<polygon fill="midnightblue" stroke="midnightblue" points="532.6,-80.62 543.13,-81.81 535.64,-74.32 532.6,-80.62"/>
</g>
<!-- Node7 -->
<g id="node7" class="node">
<title>Node7</title>
<g id="a_node7"><a xlink:href="classQuantConnect_1_1ToolBox_1_1IQFeedDownloader_1_1IQFeedDownloaderProgram.html#af64ad2574981db107ba25450d67a64f5" target="_top" xlink:title="Primary entry point to the program. This program only supports EQUITY for now.">
<polygon fill="white" stroke="black" points="0,-0.5 0,-41.5 214,-41.5 214,-0.5 0,-0.5"/>
<text text-anchor="start" x="8" y="-29.5" font-family="Helvetica,sans-Serif" font-size="10.00">QuantConnect.ToolBox.IQFeed</text>
<text text-anchor="start" x="8" y="-18.5" font-family="Helvetica,sans-Serif" font-size="10.00">Downloader.IQFeedDownloaderProgram.</text>
<text text-anchor="middle" x="107" y="-7.5" font-family="Helvetica,sans-Serif" font-size="10.00">IQFeedDownloader</text>
</a>
</g>
</g>
<!-- Node6&#45;&gt;Node7 -->
<g id="edge6" class="edge">
<title>Node6&#45;&gt;Node7</title>
<path fill="none" stroke="midnightblue" d="M263.39,-21C247.36,-21 230.53,-21 214.11,-21"/>
<polygon fill="midnightblue" stroke="midnightblue" points="263.79,-24.5 273.79,-21 263.79,-17.5 263.79,-24.5"/>
</g>
</g>
</svg>
        <g id="navigator" transform="translate(0 0)" fill="#404254">
                <rect fill="#f2f5e9" fill-opacity="0.5" stroke="#606060" stroke-width=".5" x="0" y="0" width="60" height="60"/>
                <use id="zoomplus" xlink:href="#zoomPlus" x="17" y="9" onmousedown="handleZoom(evt,'in')"/>
                <use id="zoomminus" xlink:href="#zoomMin" x="42" y="9" onmousedown="handleZoom(evt,'out')"/>
                <use id="reset" xlink:href="#resetDef" x="30" y="36" onmousedown="handleReset()"/>
                <g id="arrowUp" xlink:href="#dirArrow" transform="translate(30 24)" onmousedown="handlePan(0,-1)">
                  <use xlink:href="#rim" fill="#404040">
                        <set attributeName="fill" to="#808080" begin="arrowUp.mouseover" end="arrowUp.mouseout"/>
                  </use>
                  <path fill="none" stroke="white" stroke-width="1.5" d="M0,-3.0v7 M-2.5,-0.5L0,-3.0L2.5,-0.5"/>
                </g>
                <g id="arrowRight" xlink:href="#dirArrow" transform="rotate(90) translate(36 -43)" onmousedown="handlePan(1,0)">
                  <use xlink:href="#rim" fill="#404040">
                        <set attributeName="fill" to="#808080" begin="arrowRight.mouseover" end="arrowRight.mouseout"/>
                  </use>
                  <path fill="none" stroke="white" stroke-width="1.5" d="M0,-3.0v7 M-2.5,-0.5L0,-3.0L2.5,-0.5"/>
                </g>
                <g id="arrowDown" xlink:href="#dirArrow" transform="rotate(180) translate(-30 -48)" onmousedown="handlePan(0,1)">
                  <use xlink:href="#rim" fill="#404040">
                        <set attributeName="fill" to="#808080" begin="arrowDown.mouseover" end="arrowDown.mouseout"/>
                  </use>
                  <path fill="none" stroke="white" stroke-width="1.5" d="M0,-3.0v7 M-2.5,-0.5L0,-3.0L2.5,-0.5"/>
                </g>
                <g id="arrowLeft" xlink:href="#dirArrow" transform="rotate(270) translate(-36 17)" onmousedown="handlePan(-1,0)">
                  <use xlink:href="#rim" fill="#404040">
                        <set attributeName="fill" to="#808080" begin="arrowLeft.mouseover" end="arrowLeft.mouseout"/>
                  </use>
                  <path fill="none" stroke="white" stroke-width="1.5" d="M0,-3.0v7 M-2.5,-0.5L0,-3.0L2.5,-0.5"/>
                </g>
        </g>
        <svg viewBox="0 0 15 15" width="100%" height="30px" preserveAspectRatio="xMaxYMin meet">
         <g id="arrow_out" transform="scale(0.3 0.3)">
          <a xlink:href="interfaceQuantConnect_1_1Data_1_1IBaseData_a3373b19abcdda9f0fb7571d4cecff7b8_icgraph_org.svg" target="_base">
           <rect id="button" ry="5" rx="5" y="6" x="6" height="38" width="38"
                fill="#f2f5e9" fill-opacity="0.5" stroke="#606060" stroke-width="1.0"/>
           <path id="arrow"
             d="M 11.500037,31.436501 C 11.940474,20.09759 22.043105,11.32322 32.158766,21.979434 L 37.068811,17.246167 C 37.068811,17.246167 37.088388,32 37.088388,32 L 22.160133,31.978069 C 22.160133,31.978069 26.997745,27.140456 26.997745,27.140456 C 18.528582,18.264221 13.291696,25.230495 11.500037,31.436501 z"
             style="fill:#404040;"/>
          </a>
         </g>
        </svg>
</svg>
