<?xml version="1.0" encoding="UTF-8" standalone="no"?>
<!DOCTYPE svg PUBLIC "-//W3C//DTD SVG 1.1//EN"
 "http://www.w3.org/Graphics/SVG/1.1/DTD/svg11.dtd">
<!-- Generated by graphviz version 2.43.0 (0)
 -->
<!-- Title: QuantConnect.Exceptions.IExceptionInterpreter Pages: 1 -->
<!--zoomable 274 -->
<svg id="main" version="1.1" xmlns="http://www.w3.org/2000/svg" xmlns:xlink="http://www.w3.org/1999/xlink" xml:space="preserve" onload="init(evt)">
<style type="text/css"><![CDATA[
.edge:hover path { stroke: red; }
.edge:hover polygon { stroke: red; fill: red; }
]]></style>
<script type="text/javascript"><![CDATA[
var edges = document.getElementsByTagName('g');
if (edges && edges.length) {
  for (var i=0;i<edges.length;i++) {
    if (edges[i].id.substr(0,4)=='edge') {
      edges[i].setAttribute('class','edge');
    }
  }
}
]]></script>
        <defs>
                <circle id="rim" cx="0" cy="0" r="7"/>
                <circle id="rim2" cx="0" cy="0" r="3.5"/>
                <g id="zoomPlus">
                        <use xlink:href="#rim" fill="#404040">
                                <set attributeName="fill" to="#808080" begin="zoomplus.mouseover" end="zoomplus.mouseout"/>
                        </use>
                        <path d="M-4,0h8M0,-4v8" fill="none" stroke="white" stroke-width="1.5" pointer-events="none"/>
                </g>
                <g id="zoomMin">
                        <use xlink:href="#rim" fill="#404040">
                                <set attributeName="fill" to="#808080" begin="zoomminus.mouseover" end="zoomminus.mouseout"/>
                        </use>
                        <path d="M-4,0h8" fill="none" stroke="white" stroke-width="1.5" pointer-events="none"/>
                </g>
                <g id="dirArrow">
                        <path fill="none" stroke="white" stroke-width="1.5" d="M0,-3.0v7 M-2.5,-0.5L0,-3.0L2.5,-0.5"/>
                </g>
               <g id="resetDef">
                       <use xlink:href="#rim2" fill="#404040">
                               <set attributeName="fill" to="#808080" begin="reset.mouseover" end="reset.mouseout"/>
                       </use>
               </g>
        </defs>

<script type="text/javascript">
var viewWidth = 646;
var viewHeight = 274;
var sectionId = 'dynsection-0';
</script>
<script xlink:href="svgpan.js"/>
<svg id="graph" class="graph">
<g id="viewport">
<title>QuantConnect.Exceptions.IExceptionInterpreter</title>
<polygon fill="white" stroke="transparent" points="-4,4 -4,-270 642,-270 642,4 -4,4"/>
<!-- Node1 -->
<g id="node1" class="node">
<title>Node1</title>
<g id="a_node1"><a xlink:title="Defines an exception interpreter. Interpretations are invoked on IAlgorithm.RunTimeError">
<polygon fill="#bfbfbf" stroke="black" points="0,-98.5 0,-128.5 145,-128.5 145,-98.5 0,-98.5"/>
<text text-anchor="start" x="8" y="-116.5" font-family="Helvetica,sans-Serif" font-size="10.00">QuantConnect.Exceptions.</text>
<text text-anchor="middle" x="72.5" y="-105.5" font-family="Helvetica,sans-Serif" font-size="10.00">IExceptionInterpreter</text>
</a>
</g>
</g>
<!-- Node2 -->
<g id="node2" class="node">
<title>Node2</title>
<g id="a_node2"><a xlink:href="classQuantConnect_1_1Exceptions_1_1DllNotFoundPythonExceptionInterpreter.html" target="_top" xlink:title="Interprets DllNotFoundPythonExceptionInterpreter instances">
<polygon fill="white" stroke="black" points="181,-196.5 181,-226.5 391,-226.5 391,-196.5 181,-196.5"/>
<text text-anchor="start" x="189" y="-214.5" font-family="Helvetica,sans-Serif" font-size="10.00">QuantConnect.Exceptions.</text>
<text text-anchor="middle" x="286" y="-203.5" font-family="Helvetica,sans-Serif" font-size="10.00">DllNotFoundPythonExceptionInterpreter</text>
</a>
</g>
</g>
<!-- Node1&#45;&gt;Node2 -->
<g id="edge1" class="edge">
<title>Node1&#45;&gt;Node2</title>
<path fill="none" stroke="midnightblue" d="M98.89,-135.1C119.69,-151.74 150.56,-174.1 181,-187.5 188.8,-190.94 197.16,-193.91 205.61,-196.48"/>
<polygon fill="midnightblue" stroke="midnightblue" points="100.85,-132.18 90.89,-128.58 96.43,-137.61 100.85,-132.18"/>
</g>
<!-- Node3 -->
<g id="node3" class="node">
<title>Node3</title>
<g id="a_node3"><a xlink:href="classQuantConnect_1_1Exceptions_1_1PythonExceptionInterpreter.html" target="_top" xlink:title="Interprets PythonExceptionInterpreter instances">
<polygon fill="white" stroke="black" points="211,-147.5 211,-177.5 361,-177.5 361,-147.5 211,-147.5"/>
<text text-anchor="start" x="219" y="-165.5" font-family="Helvetica,sans-Serif" font-size="10.00">QuantConnect.Exceptions.</text>
<text text-anchor="middle" x="286" y="-154.5" font-family="Helvetica,sans-Serif" font-size="10.00">PythonExceptionInterpreter</text>
</a>
</g>
</g>
<!-- Node1&#45;&gt;Node3 -->
<g id="edge2" class="edge">
<title>Node1&#45;&gt;Node3</title>
<path fill="none" stroke="midnightblue" d="M148.07,-130.86C159.11,-133.42 170.35,-136.03 181,-138.5 193.55,-141.41 206.95,-144.5 219.81,-147.47"/>
<polygon fill="midnightblue" stroke="midnightblue" points="148.55,-127.38 138.02,-128.52 146.96,-134.2 148.55,-127.38"/>
</g>
<!-- Node8 -->
<g id="node8" class="node">
<title>Node8</title>
<g id="a_node8"><a xlink:href="classQuantConnect_1_1Exceptions_1_1ScheduledEventExceptionInterpreter.html" target="_top" xlink:title="Interprets ScheduledEventException instances">
<polygon fill="white" stroke="black" points="189,-98.5 189,-128.5 383,-128.5 383,-98.5 189,-98.5"/>
<text text-anchor="start" x="197" y="-116.5" font-family="Helvetica,sans-Serif" font-size="10.00">QuantConnect.Exceptions.</text>
<text text-anchor="middle" x="286" y="-105.5" font-family="Helvetica,sans-Serif" font-size="10.00">ScheduledEventExceptionInterpreter</text>
</a>
</g>
</g>
<!-- Node1&#45;&gt;Node8 -->
<g id="edge7" class="edge">
<title>Node1&#45;&gt;Node8</title>
<path fill="none" stroke="midnightblue" d="M155.43,-113.5C166.34,-113.5 177.6,-113.5 188.72,-113.5"/>
<polygon fill="midnightblue" stroke="midnightblue" points="155.1,-110 145.1,-113.5 155.1,-117 155.1,-110"/>
</g>
<!-- Node9 -->
<g id="node9" class="node">
<title>Node9</title>
<g id="a_node9"><a xlink:href="classQuantConnect_1_1Exceptions_1_1StackExceptionInterpreter.html" target="_top" xlink:title="Interprets exceptions using the configured interpretations">
<polygon fill="white" stroke="black" points="213.5,-49.5 213.5,-79.5 358.5,-79.5 358.5,-49.5 213.5,-49.5"/>
<text text-anchor="start" x="221.5" y="-67.5" font-family="Helvetica,sans-Serif" font-size="10.00">QuantConnect.Exceptions.</text>
<text text-anchor="middle" x="286" y="-56.5" font-family="Helvetica,sans-Serif" font-size="10.00">StackExceptionInterpreter</text>
</a>
</g>
</g>
<!-- Node1&#45;&gt;Node9 -->
<g id="edge8" class="edge">
<title>Node1&#45;&gt;Node9</title>
<path fill="none" stroke="midnightblue" d="M148.31,-96.17C171.79,-90.73 197.5,-84.77 220.23,-79.51"/>
<polygon fill="midnightblue" stroke="midnightblue" points="147.35,-92.8 138.39,-98.47 148.93,-99.62 147.35,-92.8"/>
</g>
<!-- Node10 -->
<g id="node10" class="node">
<title>Node10</title>
<g id="a_node10"><a xlink:href="classQuantConnect_1_1Exceptions_1_1SystemExceptionInterpreter.html" target="_top" xlink:title="Base handler that will try get an exception file and line">
<polygon fill="white" stroke="black" points="209.5,-0.5 209.5,-30.5 362.5,-30.5 362.5,-0.5 209.5,-0.5"/>
<text text-anchor="start" x="217.5" y="-18.5" font-family="Helvetica,sans-Serif" font-size="10.00">QuantConnect.Exceptions.</text>
<text text-anchor="middle" x="286" y="-7.5" font-family="Helvetica,sans-Serif" font-size="10.00">SystemExceptionInterpreter</text>
</a>
</g>
</g>
<!-- Node1&#45;&gt;Node10 -->
<g id="edge9" class="edge">
<title>Node1&#45;&gt;Node10</title>
<path fill="none" stroke="midnightblue" d="M98.89,-91.9C119.69,-75.26 150.56,-52.9 181,-39.5 189.99,-35.54 199.71,-32.19 209.48,-29.37"/>
<polygon fill="midnightblue" stroke="midnightblue" points="96.43,-89.39 90.89,-98.42 100.85,-94.82 96.43,-89.39"/>
</g>
<!-- Node4 -->
<g id="node4" class="node">
<title>Node4</title>
<g id="a_node4"><a xlink:href="classQuantConnect_1_1Exceptions_1_1InvalidTokenPythonExceptionInterpreter.html" target="_top" xlink:title="Interprets InvalidTokenPythonExceptionInterpreter instances">
<polygon fill="white" stroke="black" points="427,-235.5 427,-265.5 638,-265.5 638,-235.5 427,-235.5"/>
<text text-anchor="start" x="435" y="-253.5" font-family="Helvetica,sans-Serif" font-size="10.00">QuantConnect.Exceptions.</text>
<text text-anchor="middle" x="532.5" y="-242.5" font-family="Helvetica,sans-Serif" font-size="10.00">InvalidTokenPythonExceptionInterpreter</text>
</a>
</g>
</g>
<!-- Node3&#45;&gt;Node4 -->
<g id="edge3" class="edge">
<title>Node3&#45;&gt;Node4</title>
<path fill="none" stroke="midnightblue" d="M370.75,-177.93C377.81,-180.62 384.67,-183.78 391,-187.5 411.35,-199.44 406.59,-214.67 427,-226.5 432.96,-229.96 439.38,-232.91 446,-235.45"/>
<polygon fill="midnightblue" stroke="midnightblue" points="371.6,-174.52 361.01,-174.54 369.3,-181.13 371.6,-174.52"/>
</g>
<!-- Node5 -->
<g id="node5" class="node">
<title>Node5</title>
<g id="a_node5"><a xlink:href="classQuantConnect_1_1Exceptions_1_1KeyErrorPythonExceptionInterpreter.html" target="_top" xlink:title="Interprets KeyErrorPythonExceptionInterpreter instances">
<polygon fill="white" stroke="black" points="437,-186.5 437,-216.5 628,-216.5 628,-186.5 437,-186.5"/>
<text text-anchor="start" x="445" y="-204.5" font-family="Helvetica,sans-Serif" font-size="10.00">QuantConnect.Exceptions.</text>
<text text-anchor="middle" x="532.5" y="-193.5" font-family="Helvetica,sans-Serif" font-size="10.00">KeyErrorPythonExceptionInterpreter</text>
</a>
</g>
</g>
<!-- Node3&#45;&gt;Node5 -->
<g id="edge4" class="edge">
<title>Node3&#45;&gt;Node5</title>
<path fill="none" stroke="midnightblue" d="M371.03,-175.9C392.41,-179.31 415.51,-183 437.35,-186.48"/>
<polygon fill="midnightblue" stroke="midnightblue" points="371.45,-172.43 361.02,-174.31 370.35,-179.34 371.45,-172.43"/>
</g>
<!-- Node6 -->
<g id="node6" class="node">
<title>Node6</title>
<g id="a_node6"><a xlink:href="classQuantConnect_1_1Exceptions_1_1NoMethodMatchPythonExceptionInterpreter.html" target="_top" xlink:title="Interprets NoMethodMatchPythonExceptionInterpreter instances">
<polygon fill="white" stroke="black" points="443,-126 443,-167 622,-167 622,-126 443,-126"/>
<text text-anchor="start" x="451" y="-155" font-family="Helvetica,sans-Serif" font-size="10.00">QuantConnect.Exceptions.</text>
<text text-anchor="start" x="451" y="-144" font-family="Helvetica,sans-Serif" font-size="10.00">NoMethodMatchPythonException</text>
<text text-anchor="middle" x="532.5" y="-133" font-family="Helvetica,sans-Serif" font-size="10.00">Interpreter</text>
</a>
</g>
</g>
<!-- Node3&#45;&gt;Node6 -->
<g id="edge5" class="edge">
<title>Node3&#45;&gt;Node6</title>
<path fill="none" stroke="midnightblue" d="M371.13,-156.99C394.21,-155.48 419.31,-153.84 442.65,-152.31"/>
<polygon fill="midnightblue" stroke="midnightblue" points="370.77,-153.51 361.02,-157.66 371.23,-160.5 370.77,-153.51"/>
</g>
<!-- Node7 -->
<g id="node7" class="node">
<title>Node7</title>
<g id="a_node7"><a xlink:href="classQuantConnect_1_1Exceptions_1_1UnsupportedOperandPythonExceptionInterpreter.html" target="_top" xlink:title="Interprets UnsupportedOperandPythonExceptionInterpreter instances">
<polygon fill="white" stroke="black" points="431.5,-66 431.5,-107 633.5,-107 633.5,-66 431.5,-66"/>
<text text-anchor="start" x="439.5" y="-95" font-family="Helvetica,sans-Serif" font-size="10.00">QuantConnect.Exceptions.</text>
<text text-anchor="start" x="439.5" y="-84" font-family="Helvetica,sans-Serif" font-size="10.00">UnsupportedOperandPythonException</text>
<text text-anchor="middle" x="532.5" y="-73" font-family="Helvetica,sans-Serif" font-size="10.00">Interpreter</text>
</a>
</g>
</g>
<!-- Node3&#45;&gt;Node7 -->
<g id="edge6" class="edge">
<title>Node3&#45;&gt;Node7</title>
<path fill="none" stroke="midnightblue" d="M371.2,-145.54C377.98,-143.43 384.66,-141.09 391,-138.5 408.36,-131.41 409.83,-124.04 427,-116.5 434.78,-113.08 443.05,-109.94 451.4,-107.08"/>
<polygon fill="midnightblue" stroke="midnightblue" points="369.82,-142.3 361.21,-148.47 371.79,-149.02 369.82,-142.3"/>
</g>
<!-- Node11 -->
<g id="node11" class="node">
<title>Node11</title>
<g id="a_node11"><a xlink:href="classQuantConnect_1_1Exceptions_1_1ClrBubbledExceptionInterpreter.html" target="_top" xlink:title="Interprets ClrBubbledException instances">
<polygon fill="white" stroke="black" points="447.5,-0.5 447.5,-30.5 617.5,-30.5 617.5,-0.5 447.5,-0.5"/>
<text text-anchor="start" x="455.5" y="-18.5" font-family="Helvetica,sans-Serif" font-size="10.00">QuantConnect.Exceptions.</text>
<text text-anchor="middle" x="532.5" y="-7.5" font-family="Helvetica,sans-Serif" font-size="10.00">ClrBubbledExceptionInterpreter</text>
</a>
</g>
</g>
<!-- Node10&#45;&gt;Node11 -->
<g id="edge10" class="edge">
<title>Node10&#45;&gt;Node11</title>
<path fill="none" stroke="midnightblue" d="M372.88,-15.5C397,-15.5 423.2,-15.5 447.23,-15.5"/>
<polygon fill="midnightblue" stroke="midnightblue" points="372.69,-12 362.69,-15.5 372.69,-19 372.69,-12"/>
</g>
</g>
</svg>
        <g id="navigator" transform="translate(0 0)" fill="#404254">
                <rect fill="#f2f5e9" fill-opacity="0.5" stroke="#606060" stroke-width=".5" x="0" y="0" width="60" height="60"/>
                <use id="zoomplus" xlink:href="#zoomPlus" x="17" y="9" onmousedown="handleZoom(evt,'in')"/>
                <use id="zoomminus" xlink:href="#zoomMin" x="42" y="9" onmousedown="handleZoom(evt,'out')"/>
                <use id="reset" xlink:href="#resetDef" x="30" y="36" onmousedown="handleReset()"/>
                <g id="arrowUp" xlink:href="#dirArrow" transform="translate(30 24)" onmousedown="handlePan(0,-1)">
                  <use xlink:href="#rim" fill="#404040">
                        <set attributeName="fill" to="#808080" begin="arrowUp.mouseover" end="arrowUp.mouseout"/>
                  </use>
                  <path fill="none" stroke="white" stroke-width="1.5" d="M0,-3.0v7 M-2.5,-0.5L0,-3.0L2.5,-0.5"/>
                </g>
                <g id="arrowRight" xlink:href="#dirArrow" transform="rotate(90) translate(36 -43)" onmousedown="handlePan(1,0)">
                  <use xlink:href="#rim" fill="#404040">
                        <set attributeName="fill" to="#808080" begin="arrowRight.mouseover" end="arrowRight.mouseout"/>
                  </use>
                  <path fill="none" stroke="white" stroke-width="1.5" d="M0,-3.0v7 M-2.5,-0.5L0,-3.0L2.5,-0.5"/>
                </g>
                <g id="arrowDown" xlink:href="#dirArrow" transform="rotate(180) translate(-30 -48)" onmousedown="handlePan(0,1)">
                  <use xlink:href="#rim" fill="#404040">
                        <set attributeName="fill" to="#808080" begin="arrowDown.mouseover" end="arrowDown.mouseout"/>
                  </use>
                  <path fill="none" stroke="white" stroke-width="1.5" d="M0,-3.0v7 M-2.5,-0.5L0,-3.0L2.5,-0.5"/>
                </g>
                <g id="arrowLeft" xlink:href="#dirArrow" transform="rotate(270) translate(-36 17)" onmousedown="handlePan(-1,0)">
                  <use xlink:href="#rim" fill="#404040">
                        <set attributeName="fill" to="#808080" begin="arrowLeft.mouseover" end="arrowLeft.mouseout"/>
                  </use>
                  <path fill="none" stroke="white" stroke-width="1.5" d="M0,-3.0v7 M-2.5,-0.5L0,-3.0L2.5,-0.5"/>
                </g>
        </g>
        <svg viewBox="0 0 15 15" width="100%" height="30px" preserveAspectRatio="xMaxYMin meet">
         <g id="arrow_out" transform="scale(0.3 0.3)">
          <a xlink:href="interfaceQuantConnect_1_1Exceptions_1_1IExceptionInterpreter__inherit__graph_org.svg" target="_base">
           <rect id="button" ry="5" rx="5" y="6" x="6" height="38" width="38"
                fill="#f2f5e9" fill-opacity="0.5" stroke="#606060" stroke-width="1.0"/>
           <path id="arrow"
             d="M 11.500037,31.436501 C 11.940474,20.09759 22.043105,11.32322 32.158766,21.979434 L 37.068811,17.246167 C 37.068811,17.246167 37.088388,32 37.088388,32 L 22.160133,31.978069 C 22.160133,31.978069 26.997745,27.140456 26.997745,27.140456 C 18.528582,18.264221 13.291696,25.230495 11.500037,31.436501 z"
             style="fill:#404040;"/>
          </a>
         </g>
        </svg>
</svg>
