<?xml version="1.0" encoding="UTF-8" standalone="no"?>
<!DOCTYPE svg PUBLIC "-//W3C//DTD SVG 1.1//EN"
 "http://www.w3.org/Graphics/SVG/1.1/DTD/svg11.dtd">
<!-- Generated by graphviz version 2.43.0 (0)
 -->
<!-- Title: QuantConnect.Securities.Positions.IPositionGroupResolver.GetImpactedGroups Pages: 1 -->
<svg width="396pt" height="50pt"
 viewBox="0.00 0.00 396.00 50.00" xmlns="http://www.w3.org/2000/svg" xmlns:xlink="http://www.w3.org/1999/xlink">
<g id="graph0" class="graph" transform="scale(1 1) rotate(0) translate(4 46)">
<title>QuantConnect.Securities.Positions.IPositionGroupResolver.GetImpactedGroups</title>
<polygon fill="white" stroke="transparent" points="-4,4 -4,-46 392,-46 392,4 -4,4"/>
<!-- Node1 -->
<g id="node1" class="node">
<title>Node1</title>
<g id="a_node1"><a xlink:title="Determines the position groups that would be evaluated for grouping of the specified positions were p...">
<polygon fill="#bfbfbf" stroke="black" points="208,-0.5 208,-41.5 388,-41.5 388,-0.5 208,-0.5"/>
<text text-anchor="start" x="216" y="-29.5" font-family="Helvetica,sans-Serif" font-size="10.00">QuantConnect.Securities.</text>
<text text-anchor="start" x="216" y="-18.5" font-family="Helvetica,sans-Serif" font-size="10.00">Positions.IPositionGroupResolver.</text>
<text text-anchor="middle" x="298" y="-7.5" font-family="Helvetica,sans-Serif" font-size="10.00">GetImpactedGroups</text>
</a>
</g>
</g>
<!-- Node2 -->
<g id="node2" class="node">
<title>Node2</title>
<g id="a_node2"><a xlink:href="classQuantConnect_1_1Securities_1_1Positions_1_1SecurityPositionGroupModel.html#a09f15375f682c05dda796b9cebaca370" target="_top" xlink:title="Determines which position groups could be impacted by changes in the specified positions">
<polygon fill="white" stroke="black" points="0,-0.5 0,-41.5 172,-41.5 172,-0.5 0,-0.5"/>
<text text-anchor="start" x="8" y="-29.5" font-family="Helvetica,sans-Serif" font-size="10.00">QuantConnect.Securities.</text>
<text text-anchor="start" x="8" y="-18.5" font-family="Helvetica,sans-Serif" font-size="10.00">Positions.SecurityPositionGroup</text>
<text text-anchor="middle" x="86" y="-7.5" font-family="Helvetica,sans-Serif" font-size="10.00">Model.GetImpactedGroups</text>
</a>
</g>
</g>
<!-- Node1&#45;&gt;Node2 -->
<g id="edge1" class="edge">
<title>Node1&#45;&gt;Node2</title>
<path fill="none" stroke="midnightblue" d="M197.89,-21C189.3,-21 180.65,-21 172.18,-21"/>
<polygon fill="midnightblue" stroke="midnightblue" points="197.94,-24.5 207.94,-21 197.94,-17.5 197.94,-24.5"/>
</g>
</g>
</svg>
