<?xml version="1.0" encoding="UTF-8" standalone="no"?>
<!DOCTYPE svg PUBLIC "-//W3C//DTD SVG 1.1//EN"
 "http://www.w3.org/Graphics/SVG/1.1/DTD/svg11.dtd">
<!-- Generated by graphviz version 2.43.0 (0)
 -->
<!-- Title: QuantConnect.Interfaces.IAlgorithmSubscriptionManager Pages: 1 -->
<svg width="182pt" height="218pt"
 viewBox="0.00 0.00 182.00 218.00" xmlns="http://www.w3.org/2000/svg" xmlns:xlink="http://www.w3.org/1999/xlink">
<g id="graph0" class="graph" transform="scale(1 1) rotate(0) translate(4 214)">
<title>QuantConnect.Interfaces.IAlgorithmSubscriptionManager</title>
<polygon fill="white" stroke="transparent" points="-4,4 -4,-214 178,-214 178,4 -4,4"/>
<!-- Node1 -->
<g id="node1" class="node">
<title>Node1</title>
<g id="a_node1"><a xlink:title="AlgorithmSubscriptionManager interface will manage the subscriptions for the SubscriptionManager">
<polygon fill="#bfbfbf" stroke="black" points="2,-67.5 2,-97.5 172,-97.5 172,-67.5 2,-67.5"/>
<text text-anchor="start" x="10" y="-85.5" font-family="Helvetica,sans-Serif" font-size="10.00">QuantConnect.Interfaces.</text>
<text text-anchor="middle" x="87" y="-74.5" font-family="Helvetica,sans-Serif" font-size="10.00">IAlgorithmSubscriptionManager</text>
</a>
</g>
</g>
<!-- Node4 -->
<g id="node4" class="node">
<title>Node4</title>
<g id="a_node4"><a xlink:href="classQuantConnect_1_1Lean_1_1Engine_1_1DataFeeds_1_1DataManager.html" target="_top" xlink:title="DataManager will manage the subscriptions for both the DataFeeds and the SubscriptionManager">
<polygon fill="white" stroke="black" points="11.5,-0.5 11.5,-30.5 162.5,-30.5 162.5,-0.5 11.5,-0.5"/>
<text text-anchor="start" x="19.5" y="-18.5" font-family="Helvetica,sans-Serif" font-size="10.00">QuantConnect.Lean.Engine.</text>
<text text-anchor="middle" x="87" y="-7.5" font-family="Helvetica,sans-Serif" font-size="10.00">DataFeeds.DataManager</text>
</a>
</g>
</g>
<!-- Node1&#45;&gt;Node4 -->
<g id="edge3" class="edge">
<title>Node1&#45;&gt;Node4</title>
<path fill="none" stroke="midnightblue" d="M87,-57.11C87,-48.15 87,-38.32 87,-30.58"/>
<polygon fill="midnightblue" stroke="midnightblue" points="83.5,-57.4 87,-67.4 90.5,-57.4 83.5,-57.4"/>
</g>
<!-- Node2 -->
<g id="node2" class="node">
<title>Node2</title>
<g id="a_node2"><a xlink:href="interfaceQuantConnect_1_1Interfaces_1_1ISubscriptionDataConfigService.html" target="_top" xlink:title="This interface exposes methods for creating a list of SubscriptionDataConfig for a given configuratio...">
<polygon fill="white" stroke="black" points="2,-134.5 2,-153.5 172,-153.5 172,-134.5 2,-134.5"/>
<text text-anchor="middle" x="87" y="-141.5" font-family="Helvetica,sans-Serif" font-size="10.00">ISubscriptionDataConfigService</text>
</a>
</g>
</g>
<!-- Node2&#45;&gt;Node1 -->
<g id="edge1" class="edge">
<title>Node2&#45;&gt;Node1</title>
<path fill="none" stroke="midnightblue" d="M87,-124.23C87,-115.59 87,-105.5 87,-97.52"/>
<polygon fill="midnightblue" stroke="midnightblue" points="83.5,-124.48 87,-134.48 90.5,-124.48 83.5,-124.48"/>
</g>
<!-- Node3 -->
<g id="node3" class="node">
<title>Node3</title>
<g id="a_node3"><a xlink:href="interfaceQuantConnect_1_1Interfaces_1_1ISubscriptionDataConfigProvider.html" target="_top" xlink:title="Reduced interface which provides access to registered SubscriptionDataConfig">
<polygon fill="white" stroke="black" points="0,-190.5 0,-209.5 174,-209.5 174,-190.5 0,-190.5"/>
<text text-anchor="middle" x="87" y="-197.5" font-family="Helvetica,sans-Serif" font-size="10.00">ISubscriptionDataConfigProvider</text>
</a>
</g>
</g>
<!-- Node3&#45;&gt;Node2 -->
<g id="edge2" class="edge">
<title>Node3&#45;&gt;Node2</title>
<path fill="none" stroke="midnightblue" d="M87,-179.8C87,-170.91 87,-160.78 87,-153.75"/>
<polygon fill="midnightblue" stroke="midnightblue" points="83.5,-180.08 87,-190.08 90.5,-180.08 83.5,-180.08"/>
</g>
</g>
</svg>
