<?xml version="1.0" encoding="UTF-8" standalone="no"?>
<!DOCTYPE svg PUBLIC "-//W3C//DTD SVG 1.1//EN"
 "http://www.w3.org/Graphics/SVG/1.1/DTD/svg11.dtd">
<!-- Generated by graphviz version 2.43.0 (0)
 -->
<!-- Title: QuantConnect.Interfaces.IStreamReader Pages: 1 -->
<svg width="516pt" height="170pt"
 viewBox="0.00 0.00 516.00 170.00" xmlns="http://www.w3.org/2000/svg" xmlns:xlink="http://www.w3.org/1999/xlink">
<g id="graph0" class="graph" transform="scale(1 1) rotate(0) translate(4 166)">
<title>QuantConnect.Interfaces.IStreamReader</title>
<polygon fill="white" stroke="transparent" points="-4,4 -4,-166 512,-166 512,4 -4,4"/>
<!-- Node1 -->
<g id="node1" class="node">
<title>Node1</title>
<g id="a_node1"><a xlink:title="Defines a transport mechanism for data from its source into various reader methods">
<polygon fill="#bfbfbf" stroke="black" points="110,-66 110,-96 250,-96 250,-66 110,-66"/>
<text text-anchor="start" x="118" y="-84" font-family="Helvetica,sans-Serif" font-size="10.00">QuantConnect.Interfaces.</text>
<text text-anchor="middle" x="180" y="-73" font-family="Helvetica,sans-Serif" font-size="10.00">IStreamReader</text>
</a>
</g>
</g>
<!-- Node3 -->
<g id="node3" class="node">
<title>Node3</title>
<g id="a_node3"><a xlink:href="classQuantConnect_1_1Lean_1_1Engine_1_1DataFeeds_1_1Transport_1_1LocalFileSubscriptionStreamReader.html" target="_top" xlink:title="Represents a stream reader capable of reading lines from disk">
<polygon fill="white" stroke="black" points="286,-120.5 286,-161.5 508,-161.5 508,-120.5 286,-120.5"/>
<text text-anchor="start" x="294" y="-149.5" font-family="Helvetica,sans-Serif" font-size="10.00">QuantConnect.Lean.Engine.</text>
<text text-anchor="start" x="294" y="-138.5" font-family="Helvetica,sans-Serif" font-size="10.00">DataFeeds.Transport.LocalFileSubscription</text>
<text text-anchor="middle" x="397" y="-127.5" font-family="Helvetica,sans-Serif" font-size="10.00">StreamReader</text>
</a>
</g>
</g>
<!-- Node1&#45;&gt;Node3 -->
<g id="edge2" class="edge">
<title>Node1&#45;&gt;Node3</title>
<path fill="none" stroke="midnightblue" d="M242.72,-98.77C256.92,-102.82 271.98,-107.09 286,-111 297.06,-114.09 308.75,-117.32 320.23,-120.46"/>
<polygon fill="midnightblue" stroke="midnightblue" points="243.61,-95.38 233.04,-96 241.69,-102.11 243.61,-95.38"/>
</g>
<!-- Node4 -->
<g id="node4" class="node">
<title>Node4</title>
<g id="a_node4"><a xlink:href="classQuantConnect_1_1Lean_1_1Engine_1_1DataFeeds_1_1Transport_1_1RemoteFileSubscriptionStreamReader.html" target="_top" xlink:title="Represents a stream reader capabable of downloading a remote file and then reading it from disk">
<polygon fill="white" stroke="black" points="309.5,-60.5 309.5,-101.5 484.5,-101.5 484.5,-60.5 309.5,-60.5"/>
<text text-anchor="start" x="317.5" y="-89.5" font-family="Helvetica,sans-Serif" font-size="10.00">QuantConnect.Lean.Engine.</text>
<text text-anchor="start" x="317.5" y="-78.5" font-family="Helvetica,sans-Serif" font-size="10.00">DataFeeds.Transport.RemoteFile</text>
<text text-anchor="middle" x="397" y="-67.5" font-family="Helvetica,sans-Serif" font-size="10.00">SubscriptionStreamReader</text>
</a>
</g>
</g>
<!-- Node1&#45;&gt;Node4 -->
<g id="edge3" class="edge">
<title>Node1&#45;&gt;Node4</title>
<path fill="none" stroke="midnightblue" d="M260.49,-81C276.36,-81 293.09,-81 309.19,-81"/>
<polygon fill="midnightblue" stroke="midnightblue" points="260.21,-77.5 250.21,-81 260.21,-84.5 260.21,-77.5"/>
</g>
<!-- Node5 -->
<g id="node5" class="node">
<title>Node5</title>
<g id="a_node5"><a xlink:href="classQuantConnect_1_1Lean_1_1Engine_1_1DataFeeds_1_1Transport_1_1RestSubscriptionStreamReader.html" target="_top" xlink:title="Represents a stream reader capable of polling a rest client">
<polygon fill="white" stroke="black" points="296.5,-0.5 296.5,-41.5 497.5,-41.5 497.5,-0.5 296.5,-0.5"/>
<text text-anchor="start" x="304.5" y="-29.5" font-family="Helvetica,sans-Serif" font-size="10.00">QuantConnect.Lean.Engine.</text>
<text text-anchor="start" x="304.5" y="-18.5" font-family="Helvetica,sans-Serif" font-size="10.00">DataFeeds.Transport.RestSubscription</text>
<text text-anchor="middle" x="397" y="-7.5" font-family="Helvetica,sans-Serif" font-size="10.00">StreamReader</text>
</a>
</g>
</g>
<!-- Node1&#45;&gt;Node5 -->
<g id="edge4" class="edge">
<title>Node1&#45;&gt;Node5</title>
<path fill="none" stroke="midnightblue" d="M242.72,-63.23C256.92,-59.18 271.98,-54.91 286,-51 297.06,-47.91 308.75,-44.68 320.23,-41.54"/>
<polygon fill="midnightblue" stroke="midnightblue" points="241.69,-59.89 233.04,-66 243.61,-66.62 241.69,-59.89"/>
</g>
<!-- Node2 -->
<g id="node2" class="node">
<title>Node2</title>
<g id="a_node2"><a xlink:title=" ">
<polygon fill="white" stroke="#bfbfbf" points="0,-71.5 0,-90.5 74,-90.5 74,-71.5 0,-71.5"/>
<text text-anchor="middle" x="37" y="-78.5" font-family="Helvetica,sans-Serif" font-size="10.00">IDisposable</text>
</a>
</g>
</g>
<!-- Node2&#45;&gt;Node1 -->
<g id="edge1" class="edge">
<title>Node2&#45;&gt;Node1</title>
<path fill="none" stroke="midnightblue" d="M84.39,-81C92.59,-81 101.28,-81 109.95,-81"/>
<polygon fill="midnightblue" stroke="midnightblue" points="84.31,-77.5 74.31,-81 84.31,-84.5 84.31,-77.5"/>
</g>
</g>
</svg>
