<?xml version="1.0" encoding="UTF-8" standalone="no"?>
<!DOCTYPE svg PUBLIC "-//W3C//DTD SVG 1.1//EN"
 "http://www.w3.org/Graphics/SVG/1.1/DTD/svg11.dtd">
<!-- Generated by graphviz version 2.43.0 (0)
 -->
<!-- Title: QuantConnect.ToolBox.IStreamProvider Pages: 1 -->
<svg width="474pt" height="186pt"
 viewBox="0.00 0.00 474.00 186.00" xmlns="http://www.w3.org/2000/svg" xmlns:xlink="http://www.w3.org/1999/xlink">
<g id="graph0" class="graph" transform="scale(1 1) rotate(0) translate(4 182)">
<title>QuantConnect.ToolBox.IStreamProvider</title>
<polygon fill="white" stroke="transparent" points="-4,4 -4,-182 470,-182 470,4 -4,4"/>
<!-- Node1 -->
<g id="node1" class="node">
<title>Node1</title>
<g id="a_node1"><a xlink:title="Defines how to open/close a source file">
<polygon fill="#bfbfbf" stroke="black" points="110,-73.5 110,-103.5 278,-103.5 278,-73.5 110,-73.5"/>
<text text-anchor="start" x="118" y="-91.5" font-family="Helvetica,sans-Serif" font-size="10.00">QuantConnect.ToolBox.IStream</text>
<text text-anchor="middle" x="194" y="-80.5" font-family="Helvetica,sans-Serif" font-size="10.00">Provider</text>
</a>
</g>
</g>
<!-- Node3 -->
<g id="node3" class="node">
<title>Node3</title>
<g id="a_node3"><a xlink:href="classQuantConnect_1_1ToolBox_1_1Bz2StreamProvider.html" target="_top" xlink:title=" ">
<polygon fill="white" stroke="black" points="316,-147.5 316,-177.5 464,-177.5 464,-147.5 316,-147.5"/>
<text text-anchor="start" x="324" y="-165.5" font-family="Helvetica,sans-Serif" font-size="10.00">QuantConnect.ToolBox.Bz2</text>
<text text-anchor="middle" x="390" y="-154.5" font-family="Helvetica,sans-Serif" font-size="10.00">StreamProvider</text>
</a>
</g>
</g>
<!-- Node1&#45;&gt;Node3 -->
<g id="edge2" class="edge">
<title>Node1&#45;&gt;Node3</title>
<path fill="none" stroke="midnightblue" d="M237.81,-107.56C260.3,-117.3 288.43,-129.06 314,-138.5 322.34,-141.58 331.27,-144.64 339.97,-147.5"/>
<polygon fill="midnightblue" stroke="midnightblue" points="239.1,-104.31 228.54,-103.52 236.31,-110.73 239.1,-104.31"/>
</g>
<!-- Node4 -->
<g id="node4" class="node">
<title>Node4</title>
<g id="a_node4"><a xlink:href="classQuantConnect_1_1ToolBox_1_1FileStreamProvider.html" target="_top" xlink:title="Provides an implementation of IStreamProvider that just returns a file stream">
<polygon fill="white" stroke="black" points="316.5,-98.5 316.5,-128.5 463.5,-128.5 463.5,-98.5 316.5,-98.5"/>
<text text-anchor="start" x="324.5" y="-116.5" font-family="Helvetica,sans-Serif" font-size="10.00">QuantConnect.ToolBox.File</text>
<text text-anchor="middle" x="390" y="-105.5" font-family="Helvetica,sans-Serif" font-size="10.00">StreamProvider</text>
</a>
</g>
</g>
<!-- Node1&#45;&gt;Node4 -->
<g id="edge3" class="edge">
<title>Node1&#45;&gt;Node4</title>
<path fill="none" stroke="midnightblue" d="M288.33,-100.53C297.78,-101.74 307.27,-102.97 316.45,-104.15"/>
<polygon fill="midnightblue" stroke="midnightblue" points="288.48,-97.02 278.12,-99.21 287.59,-103.96 288.48,-97.02"/>
</g>
<!-- Node5 -->
<g id="node5" class="node">
<title>Node5</title>
<g id="a_node5"><a xlink:href="classQuantConnect_1_1ToolBox_1_1GzipStreamProvider.html" target="_top" xlink:title=" ">
<polygon fill="white" stroke="black" points="314,-49.5 314,-79.5 466,-79.5 466,-49.5 314,-49.5"/>
<text text-anchor="start" x="322" y="-67.5" font-family="Helvetica,sans-Serif" font-size="10.00">QuantConnect.ToolBox.Gzip</text>
<text text-anchor="middle" x="390" y="-56.5" font-family="Helvetica,sans-Serif" font-size="10.00">StreamProvider</text>
</a>
</g>
</g>
<!-- Node1&#45;&gt;Node5 -->
<g id="edge4" class="edge">
<title>Node1&#45;&gt;Node5</title>
<path fill="none" stroke="midnightblue" d="M288.15,-76.98C296.72,-75.92 305.33,-74.85 313.72,-73.81"/>
<polygon fill="midnightblue" stroke="midnightblue" points="287.61,-73.52 278.12,-78.22 288.47,-80.46 287.61,-73.52"/>
</g>
<!-- Node6 -->
<g id="node6" class="node">
<title>Node6</title>
<g id="a_node6"><a xlink:href="classQuantConnect_1_1ToolBox_1_1ZipStreamProvider.html" target="_top" xlink:title="Provides an implementation of IStreamProvider that opens zip files">
<polygon fill="white" stroke="black" points="317,-0.5 317,-30.5 463,-30.5 463,-0.5 317,-0.5"/>
<text text-anchor="start" x="325" y="-18.5" font-family="Helvetica,sans-Serif" font-size="10.00">QuantConnect.ToolBox.Zip</text>
<text text-anchor="middle" x="390" y="-7.5" font-family="Helvetica,sans-Serif" font-size="10.00">StreamProvider</text>
</a>
</g>
</g>
<!-- Node1&#45;&gt;Node6 -->
<g id="edge5" class="edge">
<title>Node1&#45;&gt;Node6</title>
<path fill="none" stroke="midnightblue" d="M238.57,-69.57C260.95,-60.1 288.75,-48.72 314,-39.5 322.35,-36.45 331.29,-33.4 339.99,-30.55"/>
<polygon fill="midnightblue" stroke="midnightblue" points="237.17,-66.36 229.34,-73.5 239.91,-72.8 237.17,-66.36"/>
</g>
<!-- Node2 -->
<g id="node2" class="node">
<title>Node2</title>
<g id="a_node2"><a xlink:title=" ">
<polygon fill="white" stroke="#bfbfbf" points="0,-79 0,-98 74,-98 74,-79 0,-79"/>
<text text-anchor="middle" x="37" y="-86" font-family="Helvetica,sans-Serif" font-size="10.00">IDisposable</text>
</a>
</g>
</g>
<!-- Node2&#45;&gt;Node1 -->
<g id="edge1" class="edge">
<title>Node2&#45;&gt;Node1</title>
<path fill="none" stroke="midnightblue" d="M84.53,-88.5C92.54,-88.5 101.09,-88.5 109.72,-88.5"/>
<polygon fill="midnightblue" stroke="midnightblue" points="84.34,-85 74.34,-88.5 84.34,-92 84.34,-85"/>
</g>
</g>
</svg>
