<?xml version="1.0" encoding="UTF-8" standalone="no"?>
<!DOCTYPE svg PUBLIC "-//W3C//DTD SVG 1.1//EN"
 "http://www.w3.org/Graphics/SVG/1.1/DTD/svg11.dtd">
<!-- Generated by graphviz version 2.43.0 (0)
 -->
<!-- Title: QuantConnect.Interfaces.IDataProvider.Fetch Pages: 1 -->
<svg width="511pt" height="88pt"
 viewBox="0.00 0.00 511.00 88.00" xmlns="http://www.w3.org/2000/svg" xmlns:xlink="http://www.w3.org/1999/xlink">
<g id="graph0" class="graph" transform="scale(1 1) rotate(0) translate(4 84)">
<title>QuantConnect.Interfaces.IDataProvider.Fetch</title>
<polygon fill="white" stroke="transparent" points="-4,4 -4,-84 507,-84 507,4 -4,4"/>
<!-- Node1 -->
<g id="node1" class="node">
<title>Node1</title>
<g id="a_node1"><a xlink:title="Retrieves data to be used in an algorithm">
<polygon fill="#bfbfbf" stroke="black" points="363,-24.5 363,-54.5 503,-54.5 503,-24.5 363,-24.5"/>
<text text-anchor="start" x="371" y="-42.5" font-family="Helvetica,sans-Serif" font-size="10.00">QuantConnect.Interfaces.</text>
<text text-anchor="middle" x="433" y="-31.5" font-family="Helvetica,sans-Serif" font-size="10.00">IDataProvider.Fetch</text>
</a>
</g>
</g>
<!-- Node2 -->
<g id="node2" class="node">
<title>Node2</title>
<g id="a_node2"><a xlink:href="classQuantConnect_1_1Securities_1_1SecurityDefinition.html#a82de6b15f6e510abee79feeeb133a3e1" target="_top" xlink:title="Reads data from the specified file and converts it to a list of SecurityDefinition">
<polygon fill="white" stroke="black" points="184.5,-49.5 184.5,-79.5 324.5,-79.5 324.5,-49.5 184.5,-49.5"/>
<text text-anchor="start" x="192.5" y="-67.5" font-family="Helvetica,sans-Serif" font-size="10.00">QuantConnect.Securities.</text>
<text text-anchor="middle" x="254.5" y="-56.5" font-family="Helvetica,sans-Serif" font-size="10.00">SecurityDefinition.Read</text>
</a>
</g>
</g>
<!-- Node1&#45;&gt;Node2 -->
<g id="edge1" class="edge">
<title>Node1&#45;&gt;Node2</title>
<path fill="none" stroke="midnightblue" d="M352.65,-50.74C343.28,-52.07 333.77,-53.41 324.55,-54.72"/>
<polygon fill="midnightblue" stroke="midnightblue" points="353.34,-54.18 362.75,-49.31 352.36,-47.25 353.34,-54.18"/>
</g>
<!-- Node4 -->
<g id="node4" class="node">
<title>Node4</title>
<g id="a_node4"><a xlink:href="classQuantConnect_1_1Extensions.html#aead95f6e0c2f5cfdfc10a20385f4fc80" target="_top" xlink:title="Helper method to stream read lines from a file">
<polygon fill="white" stroke="black" points="182,-0.5 182,-30.5 327,-30.5 327,-0.5 182,-0.5"/>
<text text-anchor="start" x="190" y="-18.5" font-family="Helvetica,sans-Serif" font-size="10.00">QuantConnect.Extensions.</text>
<text text-anchor="middle" x="254.5" y="-7.5" font-family="Helvetica,sans-Serif" font-size="10.00">ReadLines</text>
</a>
</g>
</g>
<!-- Node1&#45;&gt;Node4 -->
<g id="edge3" class="edge">
<title>Node1&#45;&gt;Node4</title>
<path fill="none" stroke="midnightblue" d="M352.8,-28.73C344.26,-27.57 335.61,-26.39 327.17,-25.24"/>
<polygon fill="midnightblue" stroke="midnightblue" points="352.37,-32.2 362.75,-30.08 353.31,-25.27 352.37,-32.2"/>
</g>
<!-- Node3 -->
<g id="node3" class="node">
<title>Node3</title>
<g id="a_node3"><a xlink:href="classQuantConnect_1_1Securities_1_1SecurityDefinition.html#ae557fc970973cc2169c0b244b181de05" target="_top" xlink:title="Attempts to read data from the specified file and convert it into a list of SecurityDefinition">
<polygon fill="white" stroke="black" points="0,-49.5 0,-79.5 146,-79.5 146,-49.5 0,-49.5"/>
<text text-anchor="start" x="8" y="-67.5" font-family="Helvetica,sans-Serif" font-size="10.00">QuantConnect.Securities.</text>
<text text-anchor="middle" x="73" y="-56.5" font-family="Helvetica,sans-Serif" font-size="10.00">SecurityDefinition.TryRead</text>
</a>
</g>
</g>
<!-- Node2&#45;&gt;Node3 -->
<g id="edge2" class="edge">
<title>Node2&#45;&gt;Node3</title>
<path fill="none" stroke="midnightblue" d="M174.26,-64.5C164.88,-64.5 155.35,-64.5 146.08,-64.5"/>
<polygon fill="midnightblue" stroke="midnightblue" points="174.36,-68 184.36,-64.5 174.36,-61 174.36,-68"/>
</g>
</g>
</svg>
