<?xml version="1.0" encoding="UTF-8" standalone="no"?>
<!DOCTYPE svg PUBLIC "-//W3C//DTD SVG 1.1//EN"
 "http://www.w3.org/Graphics/SVG/1.1/DTD/svg11.dtd">
<!-- Generated by graphviz version 2.43.0 (0)
 -->
<!-- Title: QuantConnect.Securities.IBuyingPowerModel Pages: 1 -->
<!--zoomable 259 -->
<svg id="main" version="1.1" xmlns="http://www.w3.org/2000/svg" xmlns:xlink="http://www.w3.org/1999/xlink" xml:space="preserve" onload="init(evt)">
<style type="text/css"><![CDATA[
.edge:hover path { stroke: red; }
.edge:hover polygon { stroke: red; fill: red; }
]]></style>
<script type="text/javascript"><![CDATA[
var edges = document.getElementsByTagName('g');
if (edges && edges.length) {
  for (var i=0;i<edges.length;i++) {
    if (edges[i].id.substr(0,4)=='edge') {
      edges[i].setAttribute('class','edge');
    }
  }
}
]]></script>
        <defs>
                <circle id="rim" cx="0" cy="0" r="7"/>
                <circle id="rim2" cx="0" cy="0" r="3.5"/>
                <g id="zoomPlus">
                        <use xlink:href="#rim" fill="#404040">
                                <set attributeName="fill" to="#808080" begin="zoomplus.mouseover" end="zoomplus.mouseout"/>
                        </use>
                        <path d="M-4,0h8M0,-4v8" fill="none" stroke="white" stroke-width="1.5" pointer-events="none"/>
                </g>
                <g id="zoomMin">
                        <use xlink:href="#rim" fill="#404040">
                                <set attributeName="fill" to="#808080" begin="zoomminus.mouseover" end="zoomminus.mouseout"/>
                        </use>
                        <path d="M-4,0h8" fill="none" stroke="white" stroke-width="1.5" pointer-events="none"/>
                </g>
                <g id="dirArrow">
                        <path fill="none" stroke="white" stroke-width="1.5" d="M0,-3.0v7 M-2.5,-0.5L0,-3.0L2.5,-0.5"/>
                </g>
               <g id="resetDef">
                       <use xlink:href="#rim2" fill="#404040">
                               <set attributeName="fill" to="#808080" begin="reset.mouseover" end="reset.mouseout"/>
                       </use>
               </g>
        </defs>

<script type="text/javascript">
var viewWidth = 1003;
var viewHeight = 259;
var sectionId = 'dynsection-0';
</script>
<script xlink:href="svgpan.js"/>
<svg id="graph" class="graph">
<g id="viewport">
<title>QuantConnect.Securities.IBuyingPowerModel</title>
<polygon fill="white" stroke="transparent" points="-4,4 -4,-255 999,-255 999,4 -4,4"/>
<!-- Node1 -->
<g id="node1" class="node">
<title>Node1</title>
<g id="a_node1"><a xlink:title="Represents a security&#39;s model of buying power">
<polygon fill="#bfbfbf" stroke="black" points="0,-170.5 0,-200.5 140,-200.5 140,-170.5 0,-170.5"/>
<text text-anchor="start" x="8" y="-188.5" font-family="Helvetica,sans-Serif" font-size="10.00">QuantConnect.Securities.</text>
<text text-anchor="middle" x="70" y="-177.5" font-family="Helvetica,sans-Serif" font-size="10.00">IBuyingPowerModel</text>
</a>
</g>
</g>
<!-- Node2 -->
<g id="node2" class="node">
<title>Node2</title>
<g id="a_node2"><a xlink:href="classQuantConnect_1_1Python_1_1BuyingPowerModelPythonWrapper.html" target="_top" xlink:title="Wraps a PyObject object that represents a security&#39;s model of buying power">
<polygon fill="white" stroke="black" points="176,-195.5 176,-225.5 335,-225.5 335,-195.5 176,-195.5"/>
<text text-anchor="start" x="184" y="-213.5" font-family="Helvetica,sans-Serif" font-size="10.00">QuantConnect.Python.Buying</text>
<text text-anchor="middle" x="255.5" y="-202.5" font-family="Helvetica,sans-Serif" font-size="10.00">PowerModelPythonWrapper</text>
</a>
</g>
</g>
<!-- Node1&#45;&gt;Node2 -->
<g id="edge1" class="edge">
<title>Node1&#45;&gt;Node2</title>
<path fill="none" stroke="midnightblue" d="M150.08,-196.27C158.64,-197.44 167.35,-198.63 175.91,-199.79"/>
<polygon fill="midnightblue" stroke="midnightblue" points="150.49,-192.8 140.11,-194.92 149.55,-199.73 150.49,-192.8"/>
</g>
<!-- Node3 -->
<g id="node3" class="node">
<title>Node3</title>
<g id="a_node3"><a xlink:href="classQuantConnect_1_1Securities_1_1BuyingPowerModel.html" target="_top" xlink:title="Provides a base class for all buying power models">
<polygon fill="white" stroke="black" points="185.5,-146.5 185.5,-176.5 325.5,-176.5 325.5,-146.5 185.5,-146.5"/>
<text text-anchor="start" x="193.5" y="-164.5" font-family="Helvetica,sans-Serif" font-size="10.00">QuantConnect.Securities.</text>
<text text-anchor="middle" x="255.5" y="-153.5" font-family="Helvetica,sans-Serif" font-size="10.00">BuyingPowerModel</text>
</a>
</g>
</g>
<!-- Node1&#45;&gt;Node3 -->
<g id="edge2" class="edge">
<title>Node1&#45;&gt;Node3</title>
<path fill="none" stroke="midnightblue" d="M150.3,-175.13C162,-173.6 173.98,-172.03 185.45,-170.53"/>
<polygon fill="midnightblue" stroke="midnightblue" points="149.57,-171.69 140.11,-176.46 150.48,-178.63 149.57,-171.69"/>
</g>
<!-- Node4 -->
<g id="node4" class="node">
<title>Node4</title>
<g id="a_node4"><a xlink:href="classQuantConnect_1_1Securities_1_1CashBuyingPowerModel.html" target="_top" xlink:title="Represents a buying power model for cash accounts">
<polygon fill="white" stroke="black" points="378,-220.5 378,-250.5 518,-250.5 518,-220.5 378,-220.5"/>
<text text-anchor="start" x="386" y="-238.5" font-family="Helvetica,sans-Serif" font-size="10.00">QuantConnect.Securities.</text>
<text text-anchor="middle" x="448" y="-227.5" font-family="Helvetica,sans-Serif" font-size="10.00">CashBuyingPowerModel</text>
</a>
</g>
</g>
<!-- Node3&#45;&gt;Node4 -->
<g id="edge3" class="edge">
<title>Node3&#45;&gt;Node4</title>
<path fill="none" stroke="midnightblue" d="M320.56,-180.12C325.52,-182.1 330.39,-184.23 335,-186.5 352.48,-195.11 353.51,-202.91 371,-211.5 377.71,-214.79 384.97,-217.76 392.25,-220.4"/>
<polygon fill="midnightblue" stroke="midnightblue" points="321.56,-176.76 310.96,-176.5 319.09,-183.31 321.56,-176.76"/>
</g>
<!-- Node5 -->
<g id="node5" class="node">
<title>Node5</title>
<g id="a_node5"><a xlink:href="classQuantConnect_1_1Securities_1_1ConstantBuyingPowerModel.html" target="_top" xlink:title="Provides an implementation of IBuyingPowerModel that uses an absurdly low margin requirement to ensur...">
<polygon fill="white" stroke="black" points="371,-171.5 371,-201.5 525,-201.5 525,-171.5 371,-171.5"/>
<text text-anchor="start" x="379" y="-189.5" font-family="Helvetica,sans-Serif" font-size="10.00">QuantConnect.Securities.</text>
<text text-anchor="middle" x="448" y="-178.5" font-family="Helvetica,sans-Serif" font-size="10.00">ConstantBuyingPowerModel</text>
</a>
</g>
</g>
<!-- Node3&#45;&gt;Node5 -->
<g id="edge4" class="edge">
<title>Node3&#45;&gt;Node5</title>
<path fill="none" stroke="midnightblue" d="M335.65,-171.89C347.27,-173.41 359.22,-174.98 370.78,-176.5"/>
<polygon fill="midnightblue" stroke="midnightblue" points="335.91,-168.39 325.54,-170.56 335,-175.33 335.91,-168.39"/>
</g>
<!-- Node6 -->
<g id="node6" class="node">
<title>Node6</title>
<g id="a_node6"><a xlink:href="classQuantConnect_1_1Securities_1_1NullBuyingPowerModel.html" target="_top" xlink:title="Provides a buying power model considers that there is sufficient buying power for all orders">
<polygon fill="white" stroke="black" points="378,-122.5 378,-152.5 518,-152.5 518,-122.5 378,-122.5"/>
<text text-anchor="start" x="386" y="-140.5" font-family="Helvetica,sans-Serif" font-size="10.00">QuantConnect.Securities.</text>
<text text-anchor="middle" x="448" y="-129.5" font-family="Helvetica,sans-Serif" font-size="10.00">NullBuyingPowerModel</text>
</a>
</g>
</g>
<!-- Node3&#45;&gt;Node6 -->
<g id="edge5" class="edge">
<title>Node3&#45;&gt;Node6</title>
<path fill="none" stroke="midnightblue" d="M335.65,-151.53C349.66,-149.76 364.16,-147.94 377.87,-146.21"/>
<polygon fill="midnightblue" stroke="midnightblue" points="335.03,-148.08 325.54,-152.8 335.9,-155.02 335.03,-148.08"/>
</g>
<!-- Node7 -->
<g id="node7" class="node">
<title>Node7</title>
<g id="a_node7"><a xlink:href="classQuantConnect_1_1Securities_1_1SecurityMarginModel.html" target="_top" xlink:title="Represents a simple, constant margin model by specifying the percentages of required margin.">
<polygon fill="white" stroke="black" points="378,-73.5 378,-103.5 518,-103.5 518,-73.5 378,-73.5"/>
<text text-anchor="start" x="386" y="-91.5" font-family="Helvetica,sans-Serif" font-size="10.00">QuantConnect.Securities.</text>
<text text-anchor="middle" x="448" y="-80.5" font-family="Helvetica,sans-Serif" font-size="10.00">SecurityMarginModel</text>
</a>
</g>
</g>
<!-- Node3&#45;&gt;Node7 -->
<g id="edge6" class="edge">
<title>Node3&#45;&gt;Node7</title>
<path fill="none" stroke="midnightblue" d="M299.94,-142.33C321.2,-133.2 347.27,-122.36 371,-113.5 380.11,-110.1 389.92,-106.69 399.36,-103.53"/>
<polygon fill="midnightblue" stroke="midnightblue" points="298.33,-139.22 290.54,-146.4 301.11,-145.64 298.33,-139.22"/>
</g>
<!-- Node8 -->
<g id="node8" class="node">
<title>Node8</title>
<g id="a_node8"><a xlink:href="classQuantConnect_1_1Securities_1_1CryptoFuture_1_1CryptoFutureMarginModel.html" target="_top" xlink:title="The crypto future margin model which supports both Coin and USDT futures">
<polygon fill="white" stroke="black" points="561,-147.5 561,-177.5 770,-177.5 770,-147.5 561,-147.5"/>
<text text-anchor="start" x="569" y="-165.5" font-family="Helvetica,sans-Serif" font-size="10.00">QuantConnect.Securities.</text>
<text text-anchor="middle" x="665.5" y="-154.5" font-family="Helvetica,sans-Serif" font-size="10.00">CryptoFuture.CryptoFutureMarginModel</text>
</a>
</g>
</g>
<!-- Node7&#45;&gt;Node8 -->
<g id="edge7" class="edge">
<title>Node7&#45;&gt;Node8</title>
<path fill="none" stroke="midnightblue" d="M511.39,-107.37C516.06,-109.28 520.65,-111.33 525,-113.5 542.43,-122.19 543.19,-130.6 561,-138.5 568.76,-141.94 577.07,-144.92 585.48,-147.49"/>
<polygon fill="midnightblue" stroke="midnightblue" points="512.31,-103.98 501.72,-103.63 509.78,-110.51 512.31,-103.98"/>
</g>
<!-- Node9 -->
<g id="node9" class="node">
<title>Node9</title>
<g id="a_node9"><a xlink:href="classQuantConnect_1_1Securities_1_1Future_1_1FutureMarginModel.html" target="_top" xlink:title="Represents a simple margin model for margin futures. Margin file contains Initial and Maintenance mar...">
<polygon fill="white" stroke="black" points="593,-98.5 593,-128.5 738,-128.5 738,-98.5 593,-98.5"/>
<text text-anchor="start" x="601" y="-116.5" font-family="Helvetica,sans-Serif" font-size="10.00">QuantConnect.Securities.</text>
<text text-anchor="middle" x="665.5" y="-105.5" font-family="Helvetica,sans-Serif" font-size="10.00">Future.FutureMarginModel</text>
</a>
</g>
</g>
<!-- Node7&#45;&gt;Node9 -->
<g id="edge8" class="edge">
<title>Node7&#45;&gt;Node9</title>
<path fill="none" stroke="midnightblue" d="M528.02,-97.67C549.24,-100.13 572.06,-102.78 592.85,-105.19"/>
<polygon fill="midnightblue" stroke="midnightblue" points="528.41,-94.19 518.07,-96.51 527.6,-101.14 528.41,-94.19"/>
</g>
<!-- Node11 -->
<g id="node11" class="node">
<title>Node11</title>
<g id="a_node11"><a xlink:href="classQuantConnect_1_1Securities_1_1Option_1_1OptionMarginModel.html" target="_top" xlink:title="Represents a simple option margin model.">
<polygon fill="white" stroke="black" points="591.5,-49.5 591.5,-79.5 739.5,-79.5 739.5,-49.5 591.5,-49.5"/>
<text text-anchor="start" x="599.5" y="-67.5" font-family="Helvetica,sans-Serif" font-size="10.00">QuantConnect.Securities.</text>
<text text-anchor="middle" x="665.5" y="-56.5" font-family="Helvetica,sans-Serif" font-size="10.00">Option.OptionMarginModel</text>
</a>
</g>
</g>
<!-- Node7&#45;&gt;Node11 -->
<g id="edge10" class="edge">
<title>Node7&#45;&gt;Node11</title>
<path fill="none" stroke="midnightblue" d="M528.09,-79.69C548.78,-77.39 570.99,-74.91 591.36,-72.65"/>
<polygon fill="midnightblue" stroke="midnightblue" points="527.63,-76.22 518.07,-80.81 528.4,-83.18 527.63,-76.22"/>
</g>
<!-- Node12 -->
<g id="node12" class="node">
<title>Node12</title>
<g id="a_node12"><a xlink:href="classQuantConnect_1_1Securities_1_1PatternDayTradingMarginModel.html" target="_top" xlink:title="Represents a simple margining model where margin/leverage depends on market state (open or close)....">
<polygon fill="white" stroke="black" points="580.5,-0.5 580.5,-30.5 750.5,-30.5 750.5,-0.5 580.5,-0.5"/>
<text text-anchor="start" x="588.5" y="-18.5" font-family="Helvetica,sans-Serif" font-size="10.00">QuantConnect.Securities.</text>
<text text-anchor="middle" x="665.5" y="-7.5" font-family="Helvetica,sans-Serif" font-size="10.00">PatternDayTradingMarginModel</text>
</a>
</g>
</g>
<!-- Node7&#45;&gt;Node12 -->
<g id="edge11" class="edge">
<title>Node7&#45;&gt;Node12</title>
<path fill="none" stroke="midnightblue" d="M489.56,-69.16C510.56,-59.66 536.8,-48.54 561,-40.5 571.96,-36.86 583.74,-33.5 595.29,-30.51"/>
<polygon fill="midnightblue" stroke="midnightblue" points="487.95,-66.05 480.31,-73.4 490.86,-72.42 487.95,-66.05"/>
</g>
<!-- Node10 -->
<g id="node10" class="node">
<title>Node10</title>
<g id="a_node10"><a xlink:href="classQuantConnect_1_1Securities_1_1Option_1_1FuturesOptionsMarginModel.html" target="_top" xlink:title="Defines a margin model for future options (an option with a future as its underlying)....">
<polygon fill="white" stroke="black" points="806,-98.5 806,-128.5 995,-128.5 995,-98.5 806,-98.5"/>
<text text-anchor="start" x="814" y="-116.5" font-family="Helvetica,sans-Serif" font-size="10.00">QuantConnect.Securities.</text>
<text text-anchor="middle" x="900.5" y="-105.5" font-family="Helvetica,sans-Serif" font-size="10.00">Option.FuturesOptionsMarginModel</text>
</a>
</g>
</g>
<!-- Node9&#45;&gt;Node10 -->
<g id="edge9" class="edge">
<title>Node9&#45;&gt;Node10</title>
<path fill="none" stroke="midnightblue" d="M748.43,-113.5C766.92,-113.5 786.68,-113.5 805.61,-113.5"/>
<polygon fill="midnightblue" stroke="midnightblue" points="748.31,-110 738.31,-113.5 748.31,-117 748.31,-110"/>
</g>
</g>
</svg>
        <g id="navigator" transform="translate(0 0)" fill="#404254">
                <rect fill="#f2f5e9" fill-opacity="0.5" stroke="#606060" stroke-width=".5" x="0" y="0" width="60" height="60"/>
                <use id="zoomplus" xlink:href="#zoomPlus" x="17" y="9" onmousedown="handleZoom(evt,'in')"/>
                <use id="zoomminus" xlink:href="#zoomMin" x="42" y="9" onmousedown="handleZoom(evt,'out')"/>
                <use id="reset" xlink:href="#resetDef" x="30" y="36" onmousedown="handleReset()"/>
                <g id="arrowUp" xlink:href="#dirArrow" transform="translate(30 24)" onmousedown="handlePan(0,-1)">
                  <use xlink:href="#rim" fill="#404040">
                        <set attributeName="fill" to="#808080" begin="arrowUp.mouseover" end="arrowUp.mouseout"/>
                  </use>
                  <path fill="none" stroke="white" stroke-width="1.5" d="M0,-3.0v7 M-2.5,-0.5L0,-3.0L2.5,-0.5"/>
                </g>
                <g id="arrowRight" xlink:href="#dirArrow" transform="rotate(90) translate(36 -43)" onmousedown="handlePan(1,0)">
                  <use xlink:href="#rim" fill="#404040">
                        <set attributeName="fill" to="#808080" begin="arrowRight.mouseover" end="arrowRight.mouseout"/>
                  </use>
                  <path fill="none" stroke="white" stroke-width="1.5" d="M0,-3.0v7 M-2.5,-0.5L0,-3.0L2.5,-0.5"/>
                </g>
                <g id="arrowDown" xlink:href="#dirArrow" transform="rotate(180) translate(-30 -48)" onmousedown="handlePan(0,1)">
                  <use xlink:href="#rim" fill="#404040">
                        <set attributeName="fill" to="#808080" begin="arrowDown.mouseover" end="arrowDown.mouseout"/>
                  </use>
                  <path fill="none" stroke="white" stroke-width="1.5" d="M0,-3.0v7 M-2.5,-0.5L0,-3.0L2.5,-0.5"/>
                </g>
                <g id="arrowLeft" xlink:href="#dirArrow" transform="rotate(270) translate(-36 17)" onmousedown="handlePan(-1,0)">
                  <use xlink:href="#rim" fill="#404040">
                        <set attributeName="fill" to="#808080" begin="arrowLeft.mouseover" end="arrowLeft.mouseout"/>
                  </use>
                  <path fill="none" stroke="white" stroke-width="1.5" d="M0,-3.0v7 M-2.5,-0.5L0,-3.0L2.5,-0.5"/>
                </g>
        </g>
        <svg viewBox="0 0 15 15" width="100%" height="30px" preserveAspectRatio="xMaxYMin meet">
         <g id="arrow_out" transform="scale(0.3 0.3)">
          <a xlink:href="interfaceQuantConnect_1_1Securities_1_1IBuyingPowerModel__inherit__graph_org.svg" target="_base">
           <rect id="button" ry="5" rx="5" y="6" x="6" height="38" width="38"
                fill="#f2f5e9" fill-opacity="0.5" stroke="#606060" stroke-width="1.0"/>
           <path id="arrow"
             d="M 11.500037,31.436501 C 11.940474,20.09759 22.043105,11.32322 32.158766,21.979434 L 37.068811,17.246167 C 37.068811,17.246167 37.088388,32 37.088388,32 L 22.160133,31.978069 C 22.160133,31.978069 26.997745,27.140456 26.997745,27.140456 C 18.528582,18.264221 13.291696,25.230495 11.500037,31.436501 z"
             style="fill:#404040;"/>
          </a>
         </g>
        </svg>
</svg>
