<?xml version="1.0" encoding="UTF-8" standalone="no"?>
<!DOCTYPE svg PUBLIC "-//W3C//DTD SVG 1.1//EN"
 "http://www.w3.org/Graphics/SVG/1.1/DTD/svg11.dtd">
<!-- Generated by graphviz version 2.43.0 (0)
 -->
<!-- Title: QuantConnect.Brokerages.IBrokerageMessageHandler Pages: 1 -->
<svg width="415pt" height="149pt"
 viewBox="0.00 0.00 415.00 149.00" xmlns="http://www.w3.org/2000/svg" xmlns:xlink="http://www.w3.org/1999/xlink">
<g id="graph0" class="graph" transform="scale(1 1) rotate(0) translate(4 145)">
<title>QuantConnect.Brokerages.IBrokerageMessageHandler</title>
<polygon fill="white" stroke="transparent" points="-4,4 -4,-145 411,-145 411,4 -4,4"/>
<!-- Node1 -->
<g id="node1" class="node">
<title>Node1</title>
<g id="a_node1"><a xlink:title="Provides an plugin point to allow algorithms to directly handle the messages that come from their bro...">
<polygon fill="#bfbfbf" stroke="black" points="0,-55.5 0,-85.5 151,-85.5 151,-55.5 0,-55.5"/>
<text text-anchor="start" x="8" y="-73.5" font-family="Helvetica,sans-Serif" font-size="10.00">QuantConnect.Brokerages.</text>
<text text-anchor="middle" x="75.5" y="-62.5" font-family="Helvetica,sans-Serif" font-size="10.00">IBrokerageMessageHandler</text>
</a>
</g>
</g>
<!-- Node2 -->
<g id="node2" class="node">
<title>Node2</title>
<g id="a_node2"><a xlink:href="classQuantConnect_1_1Brokerages_1_1DefaultBrokerageMessageHandler.html" target="_top" xlink:title="Provides a default implementation o IBrokerageMessageHandler that will forward messages as follows: I...">
<polygon fill="white" stroke="black" points="205,-110.5 205,-140.5 389,-140.5 389,-110.5 205,-110.5"/>
<text text-anchor="start" x="213" y="-128.5" font-family="Helvetica,sans-Serif" font-size="10.00">QuantConnect.Brokerages.</text>
<text text-anchor="middle" x="297" y="-117.5" font-family="Helvetica,sans-Serif" font-size="10.00">DefaultBrokerageMessageHandler</text>
</a>
</g>
</g>
<!-- Node1&#45;&gt;Node2 -->
<g id="edge1" class="edge">
<title>Node1&#45;&gt;Node2</title>
<path fill="none" stroke="midnightblue" d="M139.99,-88.2C155.35,-92.35 171.74,-96.68 187,-100.5 200.37,-103.85 214.71,-107.26 228.45,-110.45"/>
<polygon fill="midnightblue" stroke="midnightblue" points="140.63,-84.75 130.06,-85.5 138.79,-91.5 140.63,-84.75"/>
</g>
<!-- Node3 -->
<g id="node3" class="node">
<title>Node3</title>
<g id="a_node3"><a xlink:href="classQuantConnect_1_1Brokerages_1_1DowngradeErrorCodeToWarningBrokerageMessageHandler.html" target="_top" xlink:title="Provides an implementation of IBrokerageMessageHandler that converts specified error codes into warni...">
<polygon fill="white" stroke="black" points="187,-50 187,-91 407,-91 407,-50 187,-50"/>
<text text-anchor="start" x="195" y="-79" font-family="Helvetica,sans-Serif" font-size="10.00">QuantConnect.Brokerages.</text>
<text text-anchor="start" x="195" y="-68" font-family="Helvetica,sans-Serif" font-size="10.00">DowngradeErrorCodeToWarningBrokerage</text>
<text text-anchor="middle" x="297" y="-57" font-family="Helvetica,sans-Serif" font-size="10.00">MessageHandler</text>
</a>
</g>
</g>
<!-- Node1&#45;&gt;Node3 -->
<g id="edge2" class="edge">
<title>Node1&#45;&gt;Node3</title>
<path fill="none" stroke="midnightblue" d="M161.27,-70.5C169.69,-70.5 178.32,-70.5 186.95,-70.5"/>
<polygon fill="midnightblue" stroke="midnightblue" points="161.12,-67 151.12,-70.5 161.12,-74 161.12,-67"/>
</g>
<!-- Node4 -->
<g id="node4" class="node">
<title>Node4</title>
<g id="a_node4"><a xlink:href="classQuantConnect_1_1Python_1_1BrokerageMessageHandlerPythonWrapper.html" target="_top" xlink:title="Provides a wrapper for IBrokerageMessageHandler implementations written in python">
<polygon fill="white" stroke="black" points="209.5,-0.5 209.5,-30.5 384.5,-30.5 384.5,-0.5 209.5,-0.5"/>
<text text-anchor="start" x="217.5" y="-18.5" font-family="Helvetica,sans-Serif" font-size="10.00">QuantConnect.Python.Brokerage</text>
<text text-anchor="middle" x="297" y="-7.5" font-family="Helvetica,sans-Serif" font-size="10.00">MessageHandlerPythonWrapper</text>
</a>
</g>
</g>
<!-- Node1&#45;&gt;Node4 -->
<g id="edge3" class="edge">
<title>Node1&#45;&gt;Node4</title>
<path fill="none" stroke="midnightblue" d="M139.99,-52.8C155.35,-48.65 171.74,-44.32 187,-40.5 200.37,-37.15 214.71,-33.74 228.45,-30.55"/>
<polygon fill="midnightblue" stroke="midnightblue" points="138.79,-49.5 130.06,-55.5 140.63,-56.25 138.79,-49.5"/>
</g>
</g>
</svg>
