<?xml version="1.0" encoding="UTF-8" standalone="no"?>
<!DOCTYPE svg PUBLIC "-//W3C//DTD SVG 1.1//EN"
 "http://www.w3.org/Graphics/SVG/1.1/DTD/svg11.dtd">
<!-- Generated by graphviz version 2.43.0 (0)
 -->
<!-- Title: QuantConnect.Interfaces.IAlgorithm.Debug Pages: 1 -->
<!--zoomable 608 -->
<svg id="main" version="1.1" xmlns="http://www.w3.org/2000/svg" xmlns:xlink="http://www.w3.org/1999/xlink" xml:space="preserve" onload="init(evt)">
<style type="text/css"><![CDATA[
.edge:hover path { stroke: red; }
.edge:hover polygon { stroke: red; fill: red; }
]]></style>
<script type="text/javascript"><![CDATA[
var edges = document.getElementsByTagName('g');
if (edges && edges.length) {
  for (var i=0;i<edges.length;i++) {
    if (edges[i].id.substr(0,4)=='edge') {
      edges[i].setAttribute('class','edge');
    }
  }
}
]]></script>
        <defs>
                <circle id="rim" cx="0" cy="0" r="7"/>
                <circle id="rim2" cx="0" cy="0" r="3.5"/>
                <g id="zoomPlus">
                        <use xlink:href="#rim" fill="#404040">
                                <set attributeName="fill" to="#808080" begin="zoomplus.mouseover" end="zoomplus.mouseout"/>
                        </use>
                        <path d="M-4,0h8M0,-4v8" fill="none" stroke="white" stroke-width="1.5" pointer-events="none"/>
                </g>
                <g id="zoomMin">
                        <use xlink:href="#rim" fill="#404040">
                                <set attributeName="fill" to="#808080" begin="zoomminus.mouseover" end="zoomminus.mouseout"/>
                        </use>
                        <path d="M-4,0h8" fill="none" stroke="white" stroke-width="1.5" pointer-events="none"/>
                </g>
                <g id="dirArrow">
                        <path fill="none" stroke="white" stroke-width="1.5" d="M0,-3.0v7 M-2.5,-0.5L0,-3.0L2.5,-0.5"/>
                </g>
               <g id="resetDef">
                       <use xlink:href="#rim2" fill="#404040">
                               <set attributeName="fill" to="#808080" begin="reset.mouseover" end="reset.mouseout"/>
                       </use>
               </g>
        </defs>

<script type="text/javascript">
var viewWidth = 687;
var viewHeight = 608;
var sectionId = 'dynsection-4';
</script>
<script xlink:href="svgpan.js"/>
<svg id="graph" class="graph">
<g id="viewport">
<title>QuantConnect.Interfaces.IAlgorithm.Debug</title>
<polygon fill="white" stroke="transparent" points="-4,4 -4,-604 683,-604 683,4 -4,4"/>
<!-- Node1 -->
<g id="node1" class="node">
<title>Node1</title>
<g id="a_node1"><a xlink:title="Send debug message">
<polygon fill="#bfbfbf" stroke="black" points="539,-280 539,-310 679,-310 679,-280 539,-280"/>
<text text-anchor="start" x="547" y="-298" font-family="Helvetica,sans-Serif" font-size="10.00">QuantConnect.Interfaces.</text>
<text text-anchor="middle" x="609" y="-287" font-family="Helvetica,sans-Serif" font-size="10.00">IAlgorithm.Debug</text>
</a>
</g>
</g>
<!-- Node2 -->
<g id="node2" class="node">
<title>Node2</title>
<g id="a_node2"><a xlink:href="classQuantConnect_1_1Lean_1_1Engine_1_1TransactionHandlers_1_1BrokerageTransactionHandler.html#a68f215fe79ea4c800a036e7169b8b0a4" target="_top" xlink:title="Add an order to collection and return the unique order id or negative if an error.">
<polygon fill="white" stroke="black" points="269.5,-438.5 269.5,-479.5 493.5,-479.5 493.5,-438.5 269.5,-438.5"/>
<text text-anchor="start" x="277.5" y="-467.5" font-family="Helvetica,sans-Serif" font-size="10.00">QuantConnect.Lean.Engine.</text>
<text text-anchor="start" x="277.5" y="-456.5" font-family="Helvetica,sans-Serif" font-size="10.00">TransactionHandlers.BrokerageTransaction</text>
<text text-anchor="middle" x="381.5" y="-445.5" font-family="Helvetica,sans-Serif" font-size="10.00">Handler.AddOrder</text>
</a>
</g>
</g>
<!-- Node1&#45;&gt;Node2 -->
<g id="edge1" class="edge">
<title>Node1&#45;&gt;Node2</title>
<path fill="none" stroke="midnightblue" d="M595.65,-319.22C578.87,-349.62 545.97,-401.15 503,-429 497.57,-432.52 491.76,-435.62 485.73,-438.36"/>
<polygon fill="midnightblue" stroke="midnightblue" points="598.87,-320.62 600.52,-310.15 592.71,-317.3 598.87,-320.62"/>
</g>
<!-- Node4 -->
<g id="node4" class="node">
<title>Node4</title>
<g id="a_node4"><a xlink:href="classQuantConnect_1_1Lean_1_1Engine_1_1Results_1_1RegressionResultHandler.html#ade656801b5499dab8c205dd6a57cf236" target="_top" xlink:title="We want to make algorithm messages end up in both the standard regression log file {algorithm}....">
<polygon fill="white" stroke="black" points="291,-498.5 291,-539.5 472,-539.5 472,-498.5 291,-498.5"/>
<text text-anchor="start" x="299" y="-527.5" font-family="Helvetica,sans-Serif" font-size="10.00">QuantConnect.Lean.Engine.</text>
<text text-anchor="start" x="299" y="-516.5" font-family="Helvetica,sans-Serif" font-size="10.00">Results.RegressionResultHandler.</text>
<text text-anchor="middle" x="381.5" y="-505.5" font-family="Helvetica,sans-Serif" font-size="10.00">ConfigureConsoleTextWriter</text>
</a>
</g>
</g>
<!-- Node1&#45;&gt;Node4 -->
<g id="edge3" class="edge">
<title>Node1&#45;&gt;Node4</title>
<path fill="none" stroke="midnightblue" d="M601.6,-319.99C589.6,-361.65 559.67,-445.08 503,-489 493.88,-496.07 483.31,-501.49 472.3,-505.65"/>
<polygon fill="midnightblue" stroke="midnightblue" points="605.04,-320.68 604.34,-310.11 598.3,-318.81 605.04,-320.68"/>
</g>
<!-- Node5 -->
<g id="node5" class="node">
<title>Node5</title>
<g id="a_node5"><a xlink:href="classQuantConnect_1_1Lean_1_1Engine_1_1Results_1_1BacktestingResultHandler.html#a3d67960a346455c56df5a6bc8aca0d9d" target="_top" xlink:title="Configures the Console.Out and Console.Error TextWriter instances. By default, we forward Console....">
<polygon fill="white" stroke="black" points="289,-558.5 289,-599.5 474,-599.5 474,-558.5 289,-558.5"/>
<text text-anchor="start" x="297" y="-587.5" font-family="Helvetica,sans-Serif" font-size="10.00">QuantConnect.Lean.Engine.</text>
<text text-anchor="start" x="297" y="-576.5" font-family="Helvetica,sans-Serif" font-size="10.00">Results.BacktestingResultHandler.</text>
<text text-anchor="middle" x="381.5" y="-565.5" font-family="Helvetica,sans-Serif" font-size="10.00">ConfigureConsoleTextWriter</text>
</a>
</g>
</g>
<!-- Node1&#45;&gt;Node5 -->
<g id="edge4" class="edge">
<title>Node1&#45;&gt;Node5</title>
<path fill="none" stroke="midnightblue" d="M605.09,-320.17C597.78,-371.36 573.88,-487.9 503,-549 494.59,-556.25 484.69,-561.8 474.23,-566.03"/>
<polygon fill="midnightblue" stroke="midnightblue" points="608.59,-320.38 606.44,-310 601.65,-319.46 608.59,-320.38"/>
</g>
<!-- Node7 -->
<g id="node7" class="node">
<title>Node7</title>
<g id="a_node7"><a xlink:href="classQuantConnect_1_1Lean_1_1Engine_1_1RealTime_1_1ScheduledEventFactory.html#a2cb626793d1a0a1ca03f3c2dab340865" target="_top" xlink:title="Creates a new ScheduledEvent that will fire before market close by the specified time">
<polygon fill="white" stroke="black" points="291,-378.5 291,-419.5 472,-419.5 472,-378.5 291,-378.5"/>
<text text-anchor="start" x="299" y="-407.5" font-family="Helvetica,sans-Serif" font-size="10.00">QuantConnect.Lean.Engine.</text>
<text text-anchor="start" x="299" y="-396.5" font-family="Helvetica,sans-Serif" font-size="10.00">RealTime.ScheduledEventFactory.</text>
<text text-anchor="middle" x="381.5" y="-385.5" font-family="Helvetica,sans-Serif" font-size="10.00">EveryAlgorithmEndOfDay</text>
</a>
</g>
</g>
<!-- Node1&#45;&gt;Node7 -->
<g id="edge6" class="edge">
<title>Node1&#45;&gt;Node7</title>
<path fill="none" stroke="midnightblue" d="M582.86,-316.78C562.56,-333.32 532.59,-355.47 503,-369 493.3,-373.44 482.84,-377.28 472.28,-380.6"/>
<polygon fill="midnightblue" stroke="midnightblue" points="585.21,-319.38 590.68,-310.3 580.74,-313.99 585.21,-319.38"/>
</g>
<!-- Node8 -->
<g id="node8" class="node">
<title>Node8</title>
<g id="a_node8"><a xlink:href="classQuantConnect_1_1Extensions.html#ad5dd976799decc110d468ff697b3f4e6" target="_top" xlink:title="Gets the security for the specified symbol from the algorithm&#39;s securities collection....">
<polygon fill="white" stroke="black" points="298.5,-329 298.5,-359 464.5,-359 464.5,-329 298.5,-329"/>
<text text-anchor="start" x="306.5" y="-347" font-family="Helvetica,sans-Serif" font-size="10.00">QuantConnect.Extensions.</text>
<text text-anchor="middle" x="381.5" y="-336" font-family="Helvetica,sans-Serif" font-size="10.00">GetOrAddUnrequestedSecurity</text>
</a>
</g>
</g>
<!-- Node1&#45;&gt;Node8 -->
<g id="edge7" class="edge">
<title>Node1&#45;&gt;Node8</title>
<path fill="none" stroke="midnightblue" d="M536.66,-312.36C525.41,-314.99 513.9,-317.62 503,-320 489.14,-323.03 474.35,-326.1 460.05,-329"/>
<polygon fill="midnightblue" stroke="midnightblue" points="537.53,-315.75 546.46,-310.06 535.92,-308.94 537.53,-315.75"/>
</g>
<!-- Node9 -->
<g id="node9" class="node">
<title>Node9</title>
<g id="a_node9"><a xlink:href="classQuantConnect_1_1Algorithm_1_1Framework_1_1Portfolio_1_1PortfolioTarget.html#a6e9c9bbcf5f629f8c686bab23c542db0" target="_top" xlink:title="Creates a new target for the specified percent">
<polygon fill="white" stroke="black" points="283,-280 283,-310 480,-310 480,-280 283,-280"/>
<text text-anchor="start" x="291" y="-298" font-family="Helvetica,sans-Serif" font-size="10.00">QuantConnect.Algorithm.Framework.</text>
<text text-anchor="middle" x="381.5" y="-287" font-family="Helvetica,sans-Serif" font-size="10.00">Portfolio.PortfolioTarget.Percent</text>
</a>
</g>
</g>
<!-- Node1&#45;&gt;Node9 -->
<g id="edge8" class="edge">
<title>Node1&#45;&gt;Node9</title>
<path fill="none" stroke="midnightblue" d="M528.67,-295C513,-295 496.38,-295 480.19,-295"/>
<polygon fill="midnightblue" stroke="midnightblue" points="528.81,-298.5 538.81,-295 528.81,-291.5 528.81,-298.5"/>
</g>
<!-- Node10 -->
<g id="node10" class="node">
<title>Node10</title>
<g id="a_node10"><a xlink:href="classQuantConnect_1_1Lean_1_1Engine_1_1Results_1_1LiveTradingResultHandler.html#ab93e70238aae83c7d570c57f41afb711" target="_top" xlink:title="Process the synchronous result events, sampling and message reading. This method is triggered from th...">
<polygon fill="white" stroke="black" points="290.5,-0.5 290.5,-41.5 472.5,-41.5 472.5,-0.5 290.5,-0.5"/>
<text text-anchor="start" x="298.5" y="-29.5" font-family="Helvetica,sans-Serif" font-size="10.00">QuantConnect.Lean.Engine.</text>
<text text-anchor="start" x="298.5" y="-18.5" font-family="Helvetica,sans-Serif" font-size="10.00">Results.LiveTradingResultHandler.</text>
<text text-anchor="middle" x="381.5" y="-7.5" font-family="Helvetica,sans-Serif" font-size="10.00">ProcessSynchronousEvents</text>
</a>
</g>
</g>
<!-- Node1&#45;&gt;Node10 -->
<g id="edge9" class="edge">
<title>Node1&#45;&gt;Node10</title>
<path fill="none" stroke="midnightblue" d="M604.6,-269.78C596.53,-220.06 571.46,-109.15 503,-51 494.13,-43.46 483.64,-37.77 472.6,-33.48"/>
<polygon fill="midnightblue" stroke="midnightblue" points="601.19,-270.61 606.15,-279.96 608.11,-269.55 601.19,-270.61"/>
</g>
<!-- Node12 -->
<g id="node12" class="node">
<title>Node12</title>
<g id="a_node12"><a xlink:href="classQuantConnect_1_1Commands_1_1OrderCommand.html#a9076463d1b93e18f452219182b25f721" target="_top" xlink:title="Runs this command against the specified algorithm instance">
<polygon fill="white" stroke="black" points="294.5,-170 294.5,-200 468.5,-200 468.5,-170 294.5,-170"/>
<text text-anchor="start" x="302.5" y="-188" font-family="Helvetica,sans-Serif" font-size="10.00">QuantConnect.Commands.Order</text>
<text text-anchor="middle" x="381.5" y="-177" font-family="Helvetica,sans-Serif" font-size="10.00">Command.Run</text>
</a>
</g>
</g>
<!-- Node1&#45;&gt;Node12 -->
<g id="edge11" class="edge">
<title>Node1&#45;&gt;Node12</title>
<path fill="none" stroke="midnightblue" d="M586.67,-272.49C566.85,-252.95 535.56,-225.43 503,-210 492.28,-204.92 480.55,-200.87 468.75,-197.64"/>
<polygon fill="midnightblue" stroke="midnightblue" points="584.4,-275.17 593.93,-279.8 589.37,-270.24 584.4,-275.17"/>
</g>
<!-- Node13 -->
<g id="node13" class="node">
<title>Node13</title>
<g id="a_node13"><a xlink:href="classQuantConnect_1_1Algorithm_1_1Framework_1_1Portfolio_1_1SignalExports_1_1BaseSignalExport.html#a96185808ee6f8e457645851ff3e0fab3" target="_top" xlink:title="Sends positions to different 3rd party API&#39;s">
<polygon fill="white" stroke="black" points="260,-121 260,-151 503,-151 503,-121 260,-121"/>
<text text-anchor="start" x="268" y="-139" font-family="Helvetica,sans-Serif" font-size="10.00">QuantConnect.Algorithm.Framework.</text>
<text text-anchor="middle" x="381.5" y="-128" font-family="Helvetica,sans-Serif" font-size="10.00">Portfolio.SignalExports.BaseSignalExport.Send</text>
</a>
</g>
</g>
<!-- Node1&#45;&gt;Node13 -->
<g id="edge12" class="edge">
<title>Node1&#45;&gt;Node13</title>
<path fill="none" stroke="midnightblue" d="M595.82,-270.51C579.22,-239.83 546.51,-188 503,-161 496.74,-157.11 489.97,-153.82 482.96,-151.03"/>
<polygon fill="midnightblue" stroke="midnightblue" points="592.88,-272.45 600.63,-279.67 599.08,-269.19 592.88,-272.45"/>
</g>
<!-- Node14 -->
<g id="node14" class="node">
<title>Node14</title>
<g id="a_node14"><a xlink:href="classQuantConnect_1_1Algorithm_1_1Framework_1_1Portfolio_1_1SignalExports_1_1CrunchDAOSignalExport.html#a7464145034ec48cc24ca119e6f82c43f" target="_top" xlink:title="Verifies every holding is a stock, creates a message with the desired positions using the expected Cr...">
<polygon fill="white" stroke="black" points="273.5,-60.5 273.5,-101.5 489.5,-101.5 489.5,-60.5 273.5,-60.5"/>
<text text-anchor="start" x="281.5" y="-89.5" font-family="Helvetica,sans-Serif" font-size="10.00">QuantConnect.Algorithm.Framework.</text>
<text text-anchor="start" x="281.5" y="-78.5" font-family="Helvetica,sans-Serif" font-size="10.00">Portfolio.SignalExports.CrunchDAOSignal</text>
<text text-anchor="middle" x="381.5" y="-67.5" font-family="Helvetica,sans-Serif" font-size="10.00">Export.Send</text>
</a>
</g>
</g>
<!-- Node1&#45;&gt;Node14 -->
<g id="edge13" class="edge">
<title>Node1&#45;&gt;Node14</title>
<path fill="none" stroke="midnightblue" d="M600.86,-270.15C588.07,-230.24 557.37,-152.17 503,-111 498.36,-107.49 493.36,-104.38 488.12,-101.63"/>
<polygon fill="midnightblue" stroke="midnightblue" points="597.57,-271.36 603.86,-279.88 604.26,-269.29 597.57,-271.36"/>
</g>
<!-- Node15 -->
<g id="node15" class="node">
<title>Node15</title>
<g id="a_node15"><a xlink:href="classQuantConnect_1_1Lean_1_1Engine_1_1TransactionHandlers_1_1BrokerageTransactionHandler.html#a1a38e71d6ea75fe654d365cb6b7501d2" target="_top" xlink:title="Update an order yet to be filled such as stop or limit orders.">
<polygon fill="white" stroke="black" points="269.5,-219.5 269.5,-260.5 493.5,-260.5 493.5,-219.5 269.5,-219.5"/>
<text text-anchor="start" x="277.5" y="-248.5" font-family="Helvetica,sans-Serif" font-size="10.00">QuantConnect.Lean.Engine.</text>
<text text-anchor="start" x="277.5" y="-237.5" font-family="Helvetica,sans-Serif" font-size="10.00">TransactionHandlers.BrokerageTransaction</text>
<text text-anchor="middle" x="381.5" y="-226.5" font-family="Helvetica,sans-Serif" font-size="10.00">Handler.UpdateOrder</text>
</a>
</g>
</g>
<!-- Node1&#45;&gt;Node15 -->
<g id="edge14" class="edge">
<title>Node1&#45;&gt;Node15</title>
<path fill="none" stroke="midnightblue" d="M536.41,-277.54C514.31,-272.15 489.75,-266.16 466.87,-260.58"/>
<polygon fill="midnightblue" stroke="midnightblue" points="535.84,-281 546.38,-279.97 537.5,-274.2 535.84,-281"/>
</g>
<!-- Node3 -->
<g id="node3" class="node">
<title>Node3</title>
<g id="a_node3"><a xlink:href="classQuantConnect_1_1Lean_1_1Engine_1_1TransactionHandlers_1_1BrokerageTransactionHandler.html#ad7914edfb9b6e24fcbcd637e2c468cd5" target="_top" xlink:title="Adds the specified order to be processed">
<polygon fill="white" stroke="black" points="0,-328.5 0,-369.5 224,-369.5 224,-328.5 0,-328.5"/>
<text text-anchor="start" x="8" y="-357.5" font-family="Helvetica,sans-Serif" font-size="10.00">QuantConnect.Lean.Engine.</text>
<text text-anchor="start" x="8" y="-346.5" font-family="Helvetica,sans-Serif" font-size="10.00">TransactionHandlers.BrokerageTransaction</text>
<text text-anchor="middle" x="112" y="-335.5" font-family="Helvetica,sans-Serif" font-size="10.00">Handler.Process</text>
</a>
</g>
</g>
<!-- Node2&#45;&gt;Node3 -->
<g id="edge2" class="edge">
<title>Node2&#45;&gt;Node3</title>
<path fill="none" stroke="midnightblue" d="M277.95,-435.39C271.83,-433.39 265.8,-431.26 260,-429 218.57,-412.87 174.16,-387.45 145.12,-369.6"/>
<polygon fill="midnightblue" stroke="midnightblue" points="277.05,-438.78 287.64,-438.43 279.15,-432.1 277.05,-438.78"/>
</g>
<!-- Node6 -->
<g id="node6" class="node">
<title>Node6</title>
<g id="a_node6"><a xlink:href="classQuantConnect_1_1Lean_1_1Engine_1_1Results_1_1BacktestingResultHandler.html#a187cf964394ce96cafca9a1048e9b143" target="_top" xlink:title="Set the Algorithm instance for ths result.">
<polygon fill="white" stroke="black" points="19.5,-558.5 19.5,-599.5 204.5,-599.5 204.5,-558.5 19.5,-558.5"/>
<text text-anchor="start" x="27.5" y="-587.5" font-family="Helvetica,sans-Serif" font-size="10.00">QuantConnect.Lean.Engine.</text>
<text text-anchor="start" x="27.5" y="-576.5" font-family="Helvetica,sans-Serif" font-size="10.00">Results.BacktestingResultHandler.</text>
<text text-anchor="middle" x="112" y="-565.5" font-family="Helvetica,sans-Serif" font-size="10.00">SetAlgorithm</text>
</a>
</g>
</g>
<!-- Node5&#45;&gt;Node6 -->
<g id="edge5" class="edge">
<title>Node5&#45;&gt;Node6</title>
<path fill="none" stroke="midnightblue" d="M278.5,-579C254.18,-579 228.38,-579 204.56,-579"/>
<polygon fill="midnightblue" stroke="midnightblue" points="278.82,-582.5 288.82,-579 278.82,-575.5 278.82,-582.5"/>
</g>
<!-- Node11 -->
<g id="node11" class="node">
<title>Node11</title>
<g id="a_node11"><a xlink:href="classQuantConnect_1_1Lean_1_1Engine_1_1Results_1_1LiveTradingResultHandler.html#a1dbddef89eec0b724268ecdaa7c211ff" target="_top" xlink:title="Terminate the result thread and apply any required exit procedures like sending final results">
<polygon fill="white" stroke="black" points="11.5,-6 11.5,-36 212.5,-36 212.5,-6 11.5,-6"/>
<text text-anchor="start" x="19.5" y="-24" font-family="Helvetica,sans-Serif" font-size="10.00">QuantConnect.Lean.Engine.</text>
<text text-anchor="middle" x="112" y="-13" font-family="Helvetica,sans-Serif" font-size="10.00">Results.LiveTradingResultHandler.Exit</text>
</a>
</g>
</g>
<!-- Node10&#45;&gt;Node11 -->
<g id="edge10" class="edge">
<title>Node10&#45;&gt;Node11</title>
<path fill="none" stroke="midnightblue" d="M280.29,-21C258.26,-21 234.93,-21 212.91,-21"/>
<polygon fill="midnightblue" stroke="midnightblue" points="280.31,-24.5 290.31,-21 280.31,-17.5 280.31,-24.5"/>
</g>
<!-- Node15&#45;&gt;Node3 -->
<g id="edge15" class="edge">
<title>Node15&#45;&gt;Node3</title>
<path fill="none" stroke="midnightblue" d="M281.06,-263.58C273.87,-265.89 266.78,-268.37 260,-271 219.32,-286.77 175.49,-311.07 146.37,-328.36"/>
<polygon fill="midnightblue" stroke="midnightblue" points="282.4,-266.83 290.91,-260.52 280.32,-260.14 282.4,-266.83"/>
</g>
</g>
</svg>
        <g id="navigator" transform="translate(0 0)" fill="#404254">
                <rect fill="#f2f5e9" fill-opacity="0.5" stroke="#606060" stroke-width=".5" x="0" y="0" width="60" height="60"/>
                <use id="zoomplus" xlink:href="#zoomPlus" x="17" y="9" onmousedown="handleZoom(evt,'in')"/>
                <use id="zoomminus" xlink:href="#zoomMin" x="42" y="9" onmousedown="handleZoom(evt,'out')"/>
                <use id="reset" xlink:href="#resetDef" x="30" y="36" onmousedown="handleReset()"/>
                <g id="arrowUp" xlink:href="#dirArrow" transform="translate(30 24)" onmousedown="handlePan(0,-1)">
                  <use xlink:href="#rim" fill="#404040">
                        <set attributeName="fill" to="#808080" begin="arrowUp.mouseover" end="arrowUp.mouseout"/>
                  </use>
                  <path fill="none" stroke="white" stroke-width="1.5" d="M0,-3.0v7 M-2.5,-0.5L0,-3.0L2.5,-0.5"/>
                </g>
                <g id="arrowRight" xlink:href="#dirArrow" transform="rotate(90) translate(36 -43)" onmousedown="handlePan(1,0)">
                  <use xlink:href="#rim" fill="#404040">
                        <set attributeName="fill" to="#808080" begin="arrowRight.mouseover" end="arrowRight.mouseout"/>
                  </use>
                  <path fill="none" stroke="white" stroke-width="1.5" d="M0,-3.0v7 M-2.5,-0.5L0,-3.0L2.5,-0.5"/>
                </g>
                <g id="arrowDown" xlink:href="#dirArrow" transform="rotate(180) translate(-30 -48)" onmousedown="handlePan(0,1)">
                  <use xlink:href="#rim" fill="#404040">
                        <set attributeName="fill" to="#808080" begin="arrowDown.mouseover" end="arrowDown.mouseout"/>
                  </use>
                  <path fill="none" stroke="white" stroke-width="1.5" d="M0,-3.0v7 M-2.5,-0.5L0,-3.0L2.5,-0.5"/>
                </g>
                <g id="arrowLeft" xlink:href="#dirArrow" transform="rotate(270) translate(-36 17)" onmousedown="handlePan(-1,0)">
                  <use xlink:href="#rim" fill="#404040">
                        <set attributeName="fill" to="#808080" begin="arrowLeft.mouseover" end="arrowLeft.mouseout"/>
                  </use>
                  <path fill="none" stroke="white" stroke-width="1.5" d="M0,-3.0v7 M-2.5,-0.5L0,-3.0L2.5,-0.5"/>
                </g>
        </g>
        <svg viewBox="0 0 15 15" width="100%" height="30px" preserveAspectRatio="xMaxYMin meet">
         <g id="arrow_out" transform="scale(0.3 0.3)">
          <a xlink:href="interfaceQuantConnect_1_1Interfaces_1_1IAlgorithm_a63cc959667fa0f4dfd13048a9b7dac94_icgraph_org.svg" target="_base">
           <rect id="button" ry="5" rx="5" y="6" x="6" height="38" width="38"
                fill="#f2f5e9" fill-opacity="0.5" stroke="#606060" stroke-width="1.0"/>
           <path id="arrow"
             d="M 11.500037,31.436501 C 11.940474,20.09759 22.043105,11.32322 32.158766,21.979434 L 37.068811,17.246167 C 37.068811,17.246167 37.088388,32 37.088388,32 L 22.160133,31.978069 C 22.160133,31.978069 26.997745,27.140456 26.997745,27.140456 C 18.528582,18.264221 13.291696,25.230495 11.500037,31.436501 z"
             style="fill:#404040;"/>
          </a>
         </g>
        </svg>
</svg>
