<?xml version="1.0" encoding="UTF-8" standalone="no"?>
<!DOCTYPE svg PUBLIC "-//W3C//DTD SVG 1.1//EN"
 "http://www.w3.org/Graphics/SVG/1.1/DTD/svg11.dtd">
<!-- Generated by graphviz version 2.43.0 (0)
 -->
<!-- Title: QuantConnect.Securities.ICurrencyConverter Pages: 1 -->
<svg width="330pt" height="137pt"
 viewBox="0.00 0.00 330.00 137.00" xmlns="http://www.w3.org/2000/svg" xmlns:xlink="http://www.w3.org/1999/xlink">
<g id="graph0" class="graph" transform="scale(1 1) rotate(0) translate(4 133)">
<title>QuantConnect.Securities.ICurrencyConverter</title>
<polygon fill="white" stroke="transparent" points="-4,4 -4,-133 326,-133 326,4 -4,4"/>
<!-- Node1 -->
<g id="node1" class="node">
<title>Node1</title>
<g id="a_node1"><a xlink:title="Provides the ability to convert cash amounts to the account currency">
<polygon fill="#bfbfbf" stroke="black" points="0,-49.5 0,-79.5 140,-79.5 140,-49.5 0,-49.5"/>
<text text-anchor="start" x="8" y="-67.5" font-family="Helvetica,sans-Serif" font-size="10.00">QuantConnect.Securities.</text>
<text text-anchor="middle" x="70" y="-56.5" font-family="Helvetica,sans-Serif" font-size="10.00">ICurrencyConverter</text>
</a>
</g>
</g>
<!-- Node2 -->
<g id="node2" class="node">
<title>Node2</title>
<g id="a_node2"><a xlink:href="classQuantConnect_1_1Securities_1_1CashBook.html" target="_top" xlink:title="Provides a means of keeping track of the different cash holdings of an algorithm">
<polygon fill="white" stroke="black" points="179,-98.5 179,-128.5 319,-128.5 319,-98.5 179,-98.5"/>
<text text-anchor="start" x="187" y="-116.5" font-family="Helvetica,sans-Serif" font-size="10.00">QuantConnect.Securities.</text>
<text text-anchor="middle" x="249" y="-105.5" font-family="Helvetica,sans-Serif" font-size="10.00">CashBook</text>
</a>
</g>
</g>
<!-- Node1&#45;&gt;Node2 -->
<g id="edge1" class="edge">
<title>Node1&#45;&gt;Node2</title>
<path fill="none" stroke="midnightblue" d="M135.37,-82.32C154.49,-87.61 175.22,-93.35 193.63,-98.45"/>
<polygon fill="midnightblue" stroke="midnightblue" points="136.12,-78.9 125.55,-79.6 134.25,-85.64 136.12,-78.9"/>
</g>
<!-- Node3 -->
<g id="node3" class="node">
<title>Node3</title>
<g id="a_node3"><a xlink:href="classQuantConnect_1_1Securities_1_1ErrorCurrencyConverter.html" target="_top" xlink:title="Provides an implementation of ICurrencyConverter for use in tests that don&#39;t depend on this behavior.">
<polygon fill="white" stroke="black" points="179,-49.5 179,-79.5 319,-79.5 319,-49.5 179,-49.5"/>
<text text-anchor="start" x="187" y="-67.5" font-family="Helvetica,sans-Serif" font-size="10.00">QuantConnect.Securities.</text>
<text text-anchor="middle" x="249" y="-56.5" font-family="Helvetica,sans-Serif" font-size="10.00">ErrorCurrencyConverter</text>
</a>
</g>
</g>
<!-- Node1&#45;&gt;Node3 -->
<g id="edge2" class="edge">
<title>Node1&#45;&gt;Node3</title>
<path fill="none" stroke="midnightblue" d="M150.41,-64.5C159.9,-64.5 169.53,-64.5 178.85,-64.5"/>
<polygon fill="midnightblue" stroke="midnightblue" points="150.19,-61 140.19,-64.5 150.19,-68 150.19,-61"/>
</g>
<!-- Node4 -->
<g id="node4" class="node">
<title>Node4</title>
<g id="a_node4"><a xlink:href="classQuantConnect_1_1Securities_1_1IdentityCurrencyConverter.html" target="_top" xlink:title="Provides an implementation of ICurrencyConverter that does NOT perform conversions....">
<polygon fill="white" stroke="black" points="176,-0.5 176,-30.5 322,-30.5 322,-0.5 176,-0.5"/>
<text text-anchor="start" x="184" y="-18.5" font-family="Helvetica,sans-Serif" font-size="10.00">QuantConnect.Securities.</text>
<text text-anchor="middle" x="249" y="-7.5" font-family="Helvetica,sans-Serif" font-size="10.00">IdentityCurrencyConverter</text>
</a>
</g>
</g>
<!-- Node1&#45;&gt;Node4 -->
<g id="edge3" class="edge">
<title>Node1&#45;&gt;Node4</title>
<path fill="none" stroke="midnightblue" d="M135.37,-46.68C154.49,-41.39 175.22,-35.65 193.63,-30.55"/>
<polygon fill="midnightblue" stroke="midnightblue" points="134.25,-43.36 125.55,-49.4 136.12,-50.1 134.25,-43.36"/>
</g>
</g>
</svg>
