<?xml version="1.0" encoding="UTF-8" standalone="no"?>
<!DOCTYPE svg PUBLIC "-//W3C//DTD SVG 1.1//EN"
 "http://www.w3.org/Graphics/SVG/1.1/DTD/svg11.dtd">
<!-- Generated by graphviz version 2.43.0 (0)
 -->
<!-- Title: QuantConnect.Interfaces.IAlgorithm.Debug Pages: 1 -->
<svg width="590pt" height="220pt"
 viewBox="0.00 0.00 590.00 219.50" xmlns="http://www.w3.org/2000/svg" xmlns:xlink="http://www.w3.org/1999/xlink">
<g id="graph0" class="graph" transform="scale(1 1) rotate(0) translate(4 215.5)">
<title>QuantConnect.Interfaces.IAlgorithm.Debug</title>
<polygon fill="white" stroke="transparent" points="-4,4 -4,-215.5 586,-215.5 586,4 -4,4"/>
<!-- Node1 -->
<g id="node1" class="node">
<title>Node1</title>
<g id="a_node1"><a xlink:title="Send debug message">
<polygon fill="#bfbfbf" stroke="black" points="442,-85.5 442,-115.5 582,-115.5 582,-85.5 442,-85.5"/>
<text text-anchor="start" x="450" y="-103.5" font-family="Helvetica,sans-Serif" font-size="10.00">QuantConnect.Interfaces.</text>
<text text-anchor="middle" x="512" y="-92.5" font-family="Helvetica,sans-Serif" font-size="10.00">IAlgorithm.Debug</text>
</a>
</g>
</g>
<!-- Node2 -->
<g id="node2" class="node">
<title>Node2</title>
<g id="a_node2"><a xlink:href="classQuantConnect_1_1Lean_1_1Engine_1_1Results_1_1RegressionResultHandler.html#ade656801b5499dab8c205dd6a57cf236" target="_top" xlink:title="We want to make algorithm messages end up in both the standard regression log file {algorithm}....">
<polygon fill="white" stroke="black" points="223,-170 223,-211 404,-211 404,-170 223,-170"/>
<text text-anchor="start" x="231" y="-199" font-family="Helvetica,sans-Serif" font-size="10.00">QuantConnect.Lean.Engine.</text>
<text text-anchor="start" x="231" y="-188" font-family="Helvetica,sans-Serif" font-size="10.00">Results.RegressionResultHandler.</text>
<text text-anchor="middle" x="313.5" y="-177" font-family="Helvetica,sans-Serif" font-size="10.00">ConfigureConsoleTextWriter</text>
</a>
</g>
</g>
<!-- Node1&#45;&gt;Node2 -->
<g id="edge1" class="edge">
<title>Node1&#45;&gt;Node2</title>
<path fill="none" stroke="midnightblue" d="M478.98,-121.06C458.62,-133.55 431.41,-149.22 406,-160.5 398.51,-163.83 390.54,-166.98 382.54,-169.9"/>
<polygon fill="midnightblue" stroke="midnightblue" points="480.88,-124 487.53,-115.75 477.19,-118.05 480.88,-124"/>
</g>
<!-- Node3 -->
<g id="node3" class="node">
<title>Node3</title>
<g id="a_node3"><a xlink:href="classQuantConnect_1_1Lean_1_1Engine_1_1Results_1_1BacktestingResultHandler.html#a3d67960a346455c56df5a6bc8aca0d9d" target="_top" xlink:title="Configures the Console.Out and Console.Error TextWriter instances. By default, we forward Console....">
<polygon fill="white" stroke="black" points="221,-110 221,-151 406,-151 406,-110 221,-110"/>
<text text-anchor="start" x="229" y="-139" font-family="Helvetica,sans-Serif" font-size="10.00">QuantConnect.Lean.Engine.</text>
<text text-anchor="start" x="229" y="-128" font-family="Helvetica,sans-Serif" font-size="10.00">Results.BacktestingResultHandler.</text>
<text text-anchor="middle" x="313.5" y="-117" font-family="Helvetica,sans-Serif" font-size="10.00">ConfigureConsoleTextWriter</text>
</a>
</g>
</g>
<!-- Node1&#45;&gt;Node3 -->
<g id="edge2" class="edge">
<title>Node1&#45;&gt;Node3</title>
<path fill="none" stroke="midnightblue" d="M432.07,-112.55C423.53,-113.85 414.78,-115.19 406.1,-116.52"/>
<polygon fill="midnightblue" stroke="midnightblue" points="432.64,-116 442,-111.03 431.58,-109.08 432.64,-116"/>
</g>
<!-- Node5 -->
<g id="node5" class="node">
<title>Node5</title>
<g id="a_node5"><a xlink:href="classQuantConnect_1_1Lean_1_1Engine_1_1RealTime_1_1ScheduledEventFactory.html#a2cb626793d1a0a1ca03f3c2dab340865" target="_top" xlink:title="Creates a new ScheduledEvent that will fire before market close by the specified time">
<polygon fill="white" stroke="black" points="223,-50 223,-91 404,-91 404,-50 223,-50"/>
<text text-anchor="start" x="231" y="-79" font-family="Helvetica,sans-Serif" font-size="10.00">QuantConnect.Lean.Engine.</text>
<text text-anchor="start" x="231" y="-68" font-family="Helvetica,sans-Serif" font-size="10.00">RealTime.ScheduledEventFactory.</text>
<text text-anchor="middle" x="313.5" y="-57" font-family="Helvetica,sans-Serif" font-size="10.00">EveryAlgorithmEndOfDay</text>
</a>
</g>
</g>
<!-- Node1&#45;&gt;Node5 -->
<g id="edge4" class="edge">
<title>Node1&#45;&gt;Node5</title>
<path fill="none" stroke="midnightblue" d="M432.09,-88.45C422.86,-87.04 413.39,-85.6 404.03,-84.17"/>
<polygon fill="midnightblue" stroke="midnightblue" points="431.58,-91.92 442,-89.97 432.64,-85 431.58,-91.92"/>
</g>
<!-- Node6 -->
<g id="node6" class="node">
<title>Node6</title>
<g id="a_node6"><a xlink:href="classQuantConnect_1_1Commands_1_1OrderCommand.html#a9076463d1b93e18f452219182b25f721" target="_top" xlink:title="Runs this command against the specified algorithm instance">
<polygon fill="white" stroke="black" points="226.5,-0.5 226.5,-30.5 400.5,-30.5 400.5,-0.5 226.5,-0.5"/>
<text text-anchor="start" x="234.5" y="-18.5" font-family="Helvetica,sans-Serif" font-size="10.00">QuantConnect.Commands.Order</text>
<text text-anchor="middle" x="313.5" y="-7.5" font-family="Helvetica,sans-Serif" font-size="10.00">Command.Run</text>
</a>
</g>
</g>
<!-- Node1&#45;&gt;Node6 -->
<g id="edge5" class="edge">
<title>Node1&#45;&gt;Node6</title>
<path fill="none" stroke="midnightblue" d="M479.96,-79.99C459.6,-67.24 432.02,-51.28 406,-40.5 397.02,-36.78 387.33,-33.45 377.71,-30.52"/>
<polygon fill="midnightblue" stroke="midnightblue" points="478.18,-83 488.5,-85.41 481.94,-77.1 478.18,-83"/>
</g>
<!-- Node4 -->
<g id="node4" class="node">
<title>Node4</title>
<g id="a_node4"><a xlink:href="classQuantConnect_1_1Lean_1_1Engine_1_1Results_1_1BacktestingResultHandler.html#a187cf964394ce96cafca9a1048e9b143" target="_top" xlink:title="Set the Algorithm instance for ths result.">
<polygon fill="white" stroke="black" points="0,-110 0,-151 185,-151 185,-110 0,-110"/>
<text text-anchor="start" x="8" y="-139" font-family="Helvetica,sans-Serif" font-size="10.00">QuantConnect.Lean.Engine.</text>
<text text-anchor="start" x="8" y="-128" font-family="Helvetica,sans-Serif" font-size="10.00">Results.BacktestingResultHandler.</text>
<text text-anchor="middle" x="92.5" y="-117" font-family="Helvetica,sans-Serif" font-size="10.00">SetAlgorithm</text>
</a>
</g>
</g>
<!-- Node3&#45;&gt;Node4 -->
<g id="edge3" class="edge">
<title>Node3&#45;&gt;Node4</title>
<path fill="none" stroke="midnightblue" d="M210.85,-130.5C202.26,-130.5 193.6,-130.5 185.09,-130.5"/>
<polygon fill="midnightblue" stroke="midnightblue" points="210.89,-134 220.89,-130.5 210.89,-127 210.89,-134"/>
</g>
</g>
</svg>
