<?xml version="1.0" encoding="UTF-8" standalone="no"?>
<!DOCTYPE svg PUBLIC "-//W3C//DTD SVG 1.1//EN"
 "http://www.w3.org/Graphics/SVG/1.1/DTD/svg11.dtd">
<!-- Generated by graphviz version 2.43.0 (0)
 -->
<!-- Title: QuantConnect.Securities.ISettlementModel Pages: 1 -->
<svg width="635pt" height="161pt"
 viewBox="0.00 0.00 635.00 161.00" xmlns="http://www.w3.org/2000/svg" xmlns:xlink="http://www.w3.org/1999/xlink">
<g id="graph0" class="graph" transform="scale(1 1) rotate(0) translate(4 157)">
<title>QuantConnect.Securities.ISettlementModel</title>
<polygon fill="white" stroke="transparent" points="-4,4 -4,-157 631,-157 631,4 -4,4"/>
<!-- Node1 -->
<g id="node1" class="node">
<title>Node1</title>
<g id="a_node1"><a xlink:title="Represents the model responsible for applying cash settlement rules">
<polygon fill="#bfbfbf" stroke="black" points="0,-73.5 0,-103.5 140,-103.5 140,-73.5 0,-73.5"/>
<text text-anchor="start" x="8" y="-91.5" font-family="Helvetica,sans-Serif" font-size="10.00">QuantConnect.Securities.</text>
<text text-anchor="middle" x="70" y="-80.5" font-family="Helvetica,sans-Serif" font-size="10.00">ISettlementModel</text>
</a>
</g>
</g>
<!-- Node2 -->
<g id="node2" class="node">
<title>Node2</title>
<g id="a_node2"><a xlink:href="classQuantConnect_1_1Python_1_1SettlementModelPythonWrapper.html" target="_top" xlink:title="Provides an implementation of ISettlementModel that wraps a PyObject object">
<polygon fill="white" stroke="black" points="176,-122.5 176,-152.5 355,-152.5 355,-122.5 176,-122.5"/>
<text text-anchor="start" x="184" y="-140.5" font-family="Helvetica,sans-Serif" font-size="10.00">QuantConnect.Python.Settlement</text>
<text text-anchor="middle" x="265.5" y="-129.5" font-family="Helvetica,sans-Serif" font-size="10.00">ModelPythonWrapper</text>
</a>
</g>
</g>
<!-- Node1&#45;&gt;Node2 -->
<g id="edge1" class="edge">
<title>Node1&#45;&gt;Node2</title>
<path fill="none" stroke="midnightblue" d="M140.3,-106.05C161.55,-111.43 184.73,-117.3 205.24,-122.49"/>
<polygon fill="midnightblue" stroke="midnightblue" points="140.92,-102.6 130.37,-103.53 139.21,-109.38 140.92,-102.6"/>
</g>
<!-- Node3 -->
<g id="node3" class="node">
<title>Node3</title>
<g id="a_node3"><a xlink:href="classQuantConnect_1_1Securities_1_1DelayedSettlementModel.html" target="_top" xlink:title="Represents the model responsible for applying cash settlement rules">
<polygon fill="white" stroke="black" points="195,-73.5 195,-103.5 336,-103.5 336,-73.5 195,-73.5"/>
<text text-anchor="start" x="203" y="-91.5" font-family="Helvetica,sans-Serif" font-size="10.00">QuantConnect.Securities.</text>
<text text-anchor="middle" x="265.5" y="-80.5" font-family="Helvetica,sans-Serif" font-size="10.00">DelayedSettlementModel</text>
</a>
</g>
</g>
<!-- Node1&#45;&gt;Node3 -->
<g id="edge2" class="edge">
<title>Node1&#45;&gt;Node3</title>
<path fill="none" stroke="midnightblue" d="M150.18,-88.5C164.98,-88.5 180.35,-88.5 194.84,-88.5"/>
<polygon fill="midnightblue" stroke="midnightblue" points="150.04,-85 140.04,-88.5 150.04,-92 150.04,-85"/>
</g>
<!-- Node4 -->
<g id="node4" class="node">
<title>Node4</title>
<g id="a_node4"><a xlink:href="classQuantConnect_1_1Securities_1_1ImmediateSettlementModel.html" target="_top" xlink:title="Represents the model responsible for applying cash settlement rules">
<polygon fill="white" stroke="black" points="188.5,-24.5 188.5,-54.5 342.5,-54.5 342.5,-24.5 188.5,-24.5"/>
<text text-anchor="start" x="196.5" y="-42.5" font-family="Helvetica,sans-Serif" font-size="10.00">QuantConnect.Securities.</text>
<text text-anchor="middle" x="265.5" y="-31.5" font-family="Helvetica,sans-Serif" font-size="10.00">ImmediateSettlementModel</text>
</a>
</g>
</g>
<!-- Node1&#45;&gt;Node4 -->
<g id="edge3" class="edge">
<title>Node1&#45;&gt;Node4</title>
<path fill="none" stroke="midnightblue" d="M140.3,-70.95C161.55,-65.57 184.73,-59.7 205.24,-54.51"/>
<polygon fill="midnightblue" stroke="midnightblue" points="139.21,-67.62 130.37,-73.47 140.92,-74.4 139.21,-67.62"/>
</g>
<!-- Node5 -->
<g id="node5" class="node">
<title>Node5</title>
<g id="a_node5"><a xlink:href="classQuantConnect_1_1Securities_1_1AccountCurrencyImmediateSettlementModel.html" target="_top" xlink:title="Represents the model responsible for applying cash settlement rules">
<polygon fill="white" stroke="black" points="391,-49.5 391,-79.5 627,-79.5 627,-49.5 391,-49.5"/>
<text text-anchor="start" x="399" y="-67.5" font-family="Helvetica,sans-Serif" font-size="10.00">QuantConnect.Securities.</text>
<text text-anchor="middle" x="509" y="-56.5" font-family="Helvetica,sans-Serif" font-size="10.00">AccountCurrencyImmediateSettlementModel</text>
</a>
</g>
</g>
<!-- Node4&#45;&gt;Node5 -->
<g id="edge4" class="edge">
<title>Node4&#45;&gt;Node5</title>
<path fill="none" stroke="midnightblue" d="M352.8,-48.43C365.13,-49.71 377.98,-51.04 390.78,-52.36"/>
<polygon fill="midnightblue" stroke="midnightblue" points="352.89,-44.92 342.58,-47.38 352.17,-51.89 352.89,-44.92"/>
</g>
<!-- Node6 -->
<g id="node6" class="node">
<title>Node6</title>
<g id="a_node6"><a xlink:href="classQuantConnect_1_1Securities_1_1Future_1_1FutureSettlementModel.html" target="_top" xlink:title="Settlement model which can handle daily profit and loss settlement">
<polygon fill="white" stroke="black" points="426.5,-0.5 426.5,-30.5 591.5,-30.5 591.5,-0.5 426.5,-0.5"/>
<text text-anchor="start" x="434.5" y="-18.5" font-family="Helvetica,sans-Serif" font-size="10.00">QuantConnect.Securities.</text>
<text text-anchor="middle" x="509" y="-7.5" font-family="Helvetica,sans-Serif" font-size="10.00">Future.FutureSettlementModel</text>
</a>
</g>
</g>
<!-- Node4&#45;&gt;Node6 -->
<g id="edge5" class="edge">
<title>Node4&#45;&gt;Node6</title>
<path fill="none" stroke="midnightblue" d="M352.73,-30.93C376.74,-28.54 402.73,-25.96 426.45,-23.6"/>
<polygon fill="midnightblue" stroke="midnightblue" points="352.19,-27.47 342.58,-31.94 352.88,-34.43 352.19,-27.47"/>
</g>
</g>
</svg>
