<?xml version="1.0" encoding="UTF-8" standalone="no"?>
<!DOCTYPE svg PUBLIC "-//W3C//DTD SVG 1.1//EN"
 "http://www.w3.org/Graphics/SVG/1.1/DTD/svg11.dtd">
<!-- Generated by graphviz version 2.43.0 (0)
 -->
<!-- Title: QuantConnect.Lean.Engine.DataFeeds.IDataFeedSubscriptionManager.RemoveSubscription Pages: 1 -->
<svg width="667pt" height="160pt"
 viewBox="0.00 0.00 667.00 160.00" xmlns="http://www.w3.org/2000/svg" xmlns:xlink="http://www.w3.org/1999/xlink">
<g id="graph0" class="graph" transform="scale(1 1) rotate(0) translate(4 156)">
<title>QuantConnect.Lean.Engine.DataFeeds.IDataFeedSubscriptionManager.RemoveSubscription</title>
<polygon fill="white" stroke="transparent" points="-4,4 -4,-156 663,-156 663,4 -4,4"/>
<!-- Node1 -->
<g id="node1" class="node">
<title>Node1</title>
<g id="a_node1"><a xlink:title="Removes the Subscription, if it exists">
<polygon fill="#bfbfbf" stroke="black" points="478,-55.5 478,-96.5 659,-96.5 659,-55.5 478,-55.5"/>
<text text-anchor="start" x="486" y="-84.5" font-family="Helvetica,sans-Serif" font-size="10.00">QuantConnect.Lean.Engine.</text>
<text text-anchor="start" x="486" y="-73.5" font-family="Helvetica,sans-Serif" font-size="10.00">DataFeeds.IDataFeedSubscription</text>
<text text-anchor="middle" x="568.5" y="-62.5" font-family="Helvetica,sans-Serif" font-size="10.00">Manager.RemoveSubscription</text>
</a>
</g>
</g>
<!-- Node2 -->
<g id="node2" class="node">
<title>Node2</title>
<g id="a_node2"><a xlink:href="classQuantConnect_1_1Lean_1_1Engine_1_1DataFeeds_1_1UniverseSelection.html#a7e4844c9b81427d9dbbd768efd24abff" target="_top" xlink:title="Applies universe selection the the data feed and algorithm">
<polygon fill="white" stroke="black" points="246.5,-110.5 246.5,-151.5 437.5,-151.5 437.5,-110.5 246.5,-110.5"/>
<text text-anchor="start" x="254.5" y="-139.5" font-family="Helvetica,sans-Serif" font-size="10.00">QuantConnect.Lean.Engine.</text>
<text text-anchor="start" x="254.5" y="-128.5" font-family="Helvetica,sans-Serif" font-size="10.00">DataFeeds.UniverseSelection.Apply</text>
<text text-anchor="middle" x="342" y="-117.5" font-family="Helvetica,sans-Serif" font-size="10.00">UniverseSelection</text>
</a>
</g>
</g>
<!-- Node1&#45;&gt;Node2 -->
<g id="edge1" class="edge">
<title>Node1&#45;&gt;Node2</title>
<path fill="none" stroke="midnightblue" d="M473.49,-99.03C458,-102.83 442.03,-106.74 426.81,-110.47"/>
<polygon fill="midnightblue" stroke="midnightblue" points="474.71,-102.34 483.59,-96.56 473.04,-95.54 474.71,-102.34"/>
</g>
<!-- Node3 -->
<g id="node3" class="node">
<title>Node3</title>
<g id="a_node3"><a xlink:href="classQuantConnect_1_1Lean_1_1Engine_1_1DataFeeds_1_1Synchronizer.html#ab2e438b9d1f7b5e4939ef7e7e10236dc" target="_top" xlink:title="Performs additional initialization steps after algorithm initialization">
<polygon fill="white" stroke="black" points="242,-61 242,-91 442,-91 442,-61 242,-61"/>
<text text-anchor="start" x="250" y="-79" font-family="Helvetica,sans-Serif" font-size="10.00">QuantConnect.Lean.Engine.</text>
<text text-anchor="middle" x="342" y="-68" font-family="Helvetica,sans-Serif" font-size="10.00">DataFeeds.Synchronizer.PostInitialize</text>
</a>
</g>
</g>
<!-- Node1&#45;&gt;Node3 -->
<g id="edge2" class="edge">
<title>Node1&#45;&gt;Node3</title>
<path fill="none" stroke="midnightblue" d="M467.56,-76C459.12,-76 450.58,-76 442.14,-76"/>
<polygon fill="midnightblue" stroke="midnightblue" points="467.8,-79.5 477.8,-76 467.8,-72.5 467.8,-79.5"/>
</g>
<!-- Node5 -->
<g id="node5" class="node">
<title>Node5</title>
<g id="a_node5"><a xlink:href="classQuantConnect_1_1Lean_1_1Engine_1_1DataFeeds_1_1UniverseSelection.html#a8aa15e1826e592c93ada3b2a5336f257" target="_top" xlink:title="Sets the data manager">
<polygon fill="white" stroke="black" points="252.5,-0.5 252.5,-41.5 431.5,-41.5 431.5,-0.5 252.5,-0.5"/>
<text text-anchor="start" x="260.5" y="-29.5" font-family="Helvetica,sans-Serif" font-size="10.00">QuantConnect.Lean.Engine.</text>
<text text-anchor="start" x="260.5" y="-18.5" font-family="Helvetica,sans-Serif" font-size="10.00">DataFeeds.UniverseSelection.Set</text>
<text text-anchor="middle" x="342" y="-7.5" font-family="Helvetica,sans-Serif" font-size="10.00">DataManager</text>
</a>
</g>
</g>
<!-- Node1&#45;&gt;Node5 -->
<g id="edge4" class="edge">
<title>Node1&#45;&gt;Node5</title>
<path fill="none" stroke="midnightblue" d="M473.49,-52.97C458,-49.17 442.03,-45.26 426.81,-41.53"/>
<polygon fill="midnightblue" stroke="midnightblue" points="473.04,-56.46 483.59,-55.44 474.71,-49.66 473.04,-56.46"/>
</g>
<!-- Node4 -->
<g id="node4" class="node">
<title>Node4</title>
<g id="a_node4"><a xlink:href="classQuantConnect_1_1Lean_1_1Engine_1_1DataFeeds_1_1Synchronizer.html#a1ec5e796dd6d363541a45e88cbf773e5" target="_top" xlink:title="Returns an enumerable which provides the data to stream to the algorithm">
<polygon fill="white" stroke="black" points="5.5,-61 5.5,-91 200.5,-91 200.5,-61 5.5,-61"/>
<text text-anchor="start" x="13.5" y="-79" font-family="Helvetica,sans-Serif" font-size="10.00">QuantConnect.Lean.Engine.</text>
<text text-anchor="middle" x="103" y="-68" font-family="Helvetica,sans-Serif" font-size="10.00">DataFeeds.Synchronizer.StreamData</text>
</a>
</g>
</g>
<!-- Node3&#45;&gt;Node4 -->
<g id="edge3" class="edge">
<title>Node3&#45;&gt;Node4</title>
<path fill="none" stroke="midnightblue" d="M231.63,-76C221.36,-76 210.99,-76 200.84,-76"/>
<polygon fill="midnightblue" stroke="midnightblue" points="231.86,-79.5 241.86,-76 231.86,-72.5 231.86,-79.5"/>
</g>
<!-- Node6 -->
<g id="node6" class="node">
<title>Node6</title>
<g id="a_node6"><a xlink:href="classQuantConnect_1_1Lean_1_1Engine_1_1DataFeeds_1_1DataManager.html#acf9050df1be040d4259dc9a89c2cb740" target="_top" xlink:title="Creates a new instance of the DataManager">
<polygon fill="white" stroke="black" points="0,-6 0,-36 206,-36 206,-6 0,-6"/>
<text text-anchor="start" x="8" y="-24" font-family="Helvetica,sans-Serif" font-size="10.00">QuantConnect.Lean.Engine.</text>
<text text-anchor="middle" x="103" y="-13" font-family="Helvetica,sans-Serif" font-size="10.00">DataFeeds.DataManager.DataManager</text>
</a>
</g>
</g>
<!-- Node5&#45;&gt;Node6 -->
<g id="edge5" class="edge">
<title>Node5&#45;&gt;Node6</title>
<path fill="none" stroke="midnightblue" d="M242.4,-21C230.39,-21 218.1,-21 206.04,-21"/>
<polygon fill="midnightblue" stroke="midnightblue" points="242.41,-24.5 252.41,-21 242.41,-17.5 242.41,-24.5"/>
</g>
</g>
</svg>
