<?xml version="1.0" encoding="UTF-8" standalone="no"?>
<!DOCTYPE svg PUBLIC "-//W3C//DTD SVG 1.1//EN"
 "http://www.w3.org/Graphics/SVG/1.1/DTD/svg11.dtd">
<!-- Generated by graphviz version 2.43.0 (0)
 -->
<!-- Title: QuantConnect.Interfaces.IMessagingHandler.Send Pages: 1 -->
<svg width="626pt" height="269pt"
 viewBox="0.00 0.00 626.00 268.50" xmlns="http://www.w3.org/2000/svg" xmlns:xlink="http://www.w3.org/1999/xlink">
<g id="graph0" class="graph" transform="scale(1 1) rotate(0) translate(4 264.5)">
<title>QuantConnect.Interfaces.IMessagingHandler.Send</title>
<polygon fill="white" stroke="transparent" points="-4,4 -4,-264.5 622,-264.5 622,4 -4,4"/>
<!-- Node1 -->
<g id="node1" class="node">
<title>Node1</title>
<g id="a_node1"><a xlink:title="Send any message with a base type of Packet.">
<polygon fill="#bfbfbf" stroke="black" points="478,-126 478,-156 618,-156 618,-126 478,-126"/>
<text text-anchor="start" x="486" y="-144" font-family="Helvetica,sans-Serif" font-size="10.00">QuantConnect.Interfaces.</text>
<text text-anchor="middle" x="548" y="-133" font-family="Helvetica,sans-Serif" font-size="10.00">IMessagingHandler.Send</text>
</a>
</g>
</g>
<!-- Node2 -->
<g id="node2" class="node">
<title>Node2</title>
<g id="a_node2"><a xlink:href="classQuantConnect_1_1Lean_1_1Engine_1_1Results_1_1BacktestingResultHandler.html#a10b63fe860e5f3e4e70bf061d3f8970c" target="_top" xlink:title="The main processing method steps through the messaging queue and processes the messages one by one.">
<polygon fill="white" stroke="black" points="239,-230 239,-260 442,-260 442,-230 239,-230"/>
<text text-anchor="start" x="247" y="-248" font-family="Helvetica,sans-Serif" font-size="10.00">QuantConnect.Lean.Engine.</text>
<text text-anchor="middle" x="340.5" y="-237" font-family="Helvetica,sans-Serif" font-size="10.00">Results.BacktestingResultHandler.Run</text>
</a>
</g>
</g>
<!-- Node1&#45;&gt;Node2 -->
<g id="edge1" class="edge">
<title>Node1&#45;&gt;Node2</title>
<path fill="none" stroke="midnightblue" d="M524.26,-162.87C504.17,-181.02 473.26,-206.18 442,-221 434.79,-224.42 427.05,-227.38 419.18,-229.93"/>
<polygon fill="midnightblue" stroke="midnightblue" points="526.68,-165.4 531.67,-156.05 521.94,-160.25 526.68,-165.4"/>
</g>
<!-- Node3 -->
<g id="node3" class="node">
<title>Node3</title>
<g id="a_node3"><a xlink:href="classQuantConnect_1_1Lean_1_1Engine_1_1Results_1_1LiveTradingResultHandler.html#a50f62a662e8a77e1c0fbf1720aa1716f" target="_top" xlink:title="Live trading result handler thread.">
<polygon fill="white" stroke="black" points="240,-181 240,-211 441,-211 441,-181 240,-181"/>
<text text-anchor="start" x="248" y="-199" font-family="Helvetica,sans-Serif" font-size="10.00">QuantConnect.Lean.Engine.</text>
<text text-anchor="middle" x="340.5" y="-188" font-family="Helvetica,sans-Serif" font-size="10.00">Results.LiveTradingResultHandler.Run</text>
</a>
</g>
</g>
<!-- Node1&#45;&gt;Node3 -->
<g id="edge2" class="edge">
<title>Node1&#45;&gt;Node3</title>
<path fill="none" stroke="midnightblue" d="M486.02,-158.81C471.62,-162.91 456.29,-167.18 442,-171 429.49,-174.34 416.07,-177.78 403.24,-181"/>
<polygon fill="midnightblue" stroke="midnightblue" points="487.18,-162.12 495.83,-156 485.25,-155.39 487.18,-162.12"/>
</g>
<!-- Node4 -->
<g id="node4" class="node">
<title>Node4</title>
<g id="a_node4"><a xlink:href="classQuantConnect_1_1Lean_1_1Engine_1_1Results_1_1BacktestingResultHandler.html#a8db34b43d11199d7ee2d0c9f8e6a4b27" target="_top" xlink:title="Send a final analysis result back to the IDE.">
<polygon fill="white" stroke="black" points="248,-120.5 248,-161.5 433,-161.5 433,-120.5 248,-120.5"/>
<text text-anchor="start" x="256" y="-149.5" font-family="Helvetica,sans-Serif" font-size="10.00">QuantConnect.Lean.Engine.</text>
<text text-anchor="start" x="256" y="-138.5" font-family="Helvetica,sans-Serif" font-size="10.00">Results.BacktestingResultHandler.</text>
<text text-anchor="middle" x="340.5" y="-127.5" font-family="Helvetica,sans-Serif" font-size="10.00">SendFinalResult</text>
</a>
</g>
</g>
<!-- Node1&#45;&gt;Node4 -->
<g id="edge3" class="edge">
<title>Node1&#45;&gt;Node4</title>
<path fill="none" stroke="midnightblue" d="M467.77,-141C456.49,-141 444.81,-141 433.32,-141"/>
<polygon fill="midnightblue" stroke="midnightblue" points="468,-144.5 478,-141 468,-137.5 468,-144.5"/>
</g>
<!-- Node6 -->
<g id="node6" class="node">
<title>Node6</title>
<g id="a_node6"><a xlink:href="classQuantConnect_1_1Lean_1_1Engine_1_1Results_1_1LiveTradingResultHandler.html#a87f1535d14caf7deaad1b36854fcd22a" target="_top" xlink:title="Send a final analysis result back to the IDE.">
<polygon fill="white" stroke="black" points="249.5,-60.5 249.5,-101.5 431.5,-101.5 431.5,-60.5 249.5,-60.5"/>
<text text-anchor="start" x="257.5" y="-89.5" font-family="Helvetica,sans-Serif" font-size="10.00">QuantConnect.Lean.Engine.</text>
<text text-anchor="start" x="257.5" y="-78.5" font-family="Helvetica,sans-Serif" font-size="10.00">Results.LiveTradingResultHandler.</text>
<text text-anchor="middle" x="340.5" y="-67.5" font-family="Helvetica,sans-Serif" font-size="10.00">SendFinalResult</text>
</a>
</g>
</g>
<!-- Node1&#45;&gt;Node6 -->
<g id="edge5" class="edge">
<title>Node1&#45;&gt;Node6</title>
<path fill="none" stroke="midnightblue" d="M485.67,-123.09C462.42,-116.3 435.76,-108.52 411.75,-101.51"/>
<polygon fill="midnightblue" stroke="midnightblue" points="484.83,-126.49 495.41,-125.94 486.79,-119.77 484.83,-126.49"/>
</g>
<!-- Node8 -->
<g id="node8" class="node">
<title>Node8</title>
<g id="a_node8"><a xlink:href="classQuantConnect_1_1Lean_1_1Engine_1_1Results_1_1BacktestingResultHandler.html#a0e7033053888e137c17ea19cee0743ca" target="_top" xlink:title="Send an algorithm status update to the browser.">
<polygon fill="white" stroke="black" points="248,-0.5 248,-41.5 433,-41.5 433,-0.5 248,-0.5"/>
<text text-anchor="start" x="256" y="-29.5" font-family="Helvetica,sans-Serif" font-size="10.00">QuantConnect.Lean.Engine.</text>
<text text-anchor="start" x="256" y="-18.5" font-family="Helvetica,sans-Serif" font-size="10.00">Results.BacktestingResultHandler.</text>
<text text-anchor="middle" x="340.5" y="-7.5" font-family="Helvetica,sans-Serif" font-size="10.00">SendStatusUpdate</text>
</a>
</g>
</g>
<!-- Node1&#45;&gt;Node8 -->
<g id="edge7" class="edge">
<title>Node1&#45;&gt;Node8</title>
<path fill="none" stroke="midnightblue" d="M526.19,-118.42C506.34,-98.12 474.71,-68.84 442,-51 435.61,-47.51 428.76,-44.38 421.75,-41.58"/>
<polygon fill="midnightblue" stroke="midnightblue" points="523.74,-120.93 533.19,-125.71 528.79,-116.08 523.74,-120.93"/>
</g>
<!-- Node5 -->
<g id="node5" class="node">
<title>Node5</title>
<g id="a_node5"><a xlink:href="classQuantConnect_1_1Lean_1_1Engine_1_1Results_1_1BacktestingResultHandler.html#a9e84a017be2f946f4c63bfab39c3a4a1" target="_top" xlink:title="Terminate the result thread and apply any required exit procedures like sending final results.">
<polygon fill="white" stroke="black" points="0,-126 0,-156 203,-156 203,-126 0,-126"/>
<text text-anchor="start" x="8" y="-144" font-family="Helvetica,sans-Serif" font-size="10.00">QuantConnect.Lean.Engine.</text>
<text text-anchor="middle" x="101.5" y="-133" font-family="Helvetica,sans-Serif" font-size="10.00">Results.BacktestingResultHandler.Exit</text>
</a>
</g>
</g>
<!-- Node4&#45;&gt;Node5 -->
<g id="edge4" class="edge">
<title>Node4&#45;&gt;Node5</title>
<path fill="none" stroke="midnightblue" d="M237.53,-141C226.19,-141 214.65,-141 203.33,-141"/>
<polygon fill="midnightblue" stroke="midnightblue" points="237.87,-144.5 247.87,-141 237.87,-137.5 237.87,-144.5"/>
</g>
<!-- Node7 -->
<g id="node7" class="node">
<title>Node7</title>
<g id="a_node7"><a xlink:href="classQuantConnect_1_1Lean_1_1Engine_1_1Results_1_1LiveTradingResultHandler.html#a1dbddef89eec0b724268ecdaa7c211ff" target="_top" xlink:title="Terminate the result thread and apply any required exit procedures like sending final results">
<polygon fill="white" stroke="black" points="1,-66 1,-96 202,-96 202,-66 1,-66"/>
<text text-anchor="start" x="9" y="-84" font-family="Helvetica,sans-Serif" font-size="10.00">QuantConnect.Lean.Engine.</text>
<text text-anchor="middle" x="101.5" y="-73" font-family="Helvetica,sans-Serif" font-size="10.00">Results.LiveTradingResultHandler.Exit</text>
</a>
</g>
</g>
<!-- Node6&#45;&gt;Node7 -->
<g id="edge6" class="edge">
<title>Node6&#45;&gt;Node7</title>
<path fill="none" stroke="midnightblue" d="M239.01,-81C226.76,-81 214.25,-81 202.01,-81"/>
<polygon fill="midnightblue" stroke="midnightblue" points="239.22,-84.5 249.22,-81 239.22,-77.5 239.22,-84.5"/>
</g>
</g>
</svg>
