<?xml version="1.0" encoding="UTF-8" standalone="no"?>
<!DOCTYPE svg PUBLIC "-//W3C//DTD SVG 1.1//EN"
 "http://www.w3.org/Graphics/SVG/1.1/DTD/svg11.dtd">
<!-- Generated by graphviz version 2.43.0 (0)
 -->
<!-- Title: QuantConnect.Securities.IMarginInterestRateModel Pages: 1 -->
<svg width="582pt" height="100pt"
 viewBox="0.00 0.00 582.00 99.50" xmlns="http://www.w3.org/2000/svg" xmlns:xlink="http://www.w3.org/1999/xlink">
<g id="graph0" class="graph" transform="scale(1 1) rotate(0) translate(4 95.5)">
<title>QuantConnect.Securities.IMarginInterestRateModel</title>
<polygon fill="white" stroke="transparent" points="-4,4 -4,-95.5 578,-95.5 578,4 -4,4"/>
<!-- Node1 -->
<g id="node1" class="node">
<title>Node1</title>
<g id="a_node1"><a xlink:title="The responsability of this model is to apply margin interest rate cash flows to the portfolio">
<polygon fill="#bfbfbf" stroke="black" points="0,-33 0,-63 143,-63 143,-33 0,-33"/>
<text text-anchor="start" x="8" y="-51" font-family="Helvetica,sans-Serif" font-size="10.00">QuantConnect.Securities.</text>
<text text-anchor="middle" x="71.5" y="-40" font-family="Helvetica,sans-Serif" font-size="10.00">IMarginInterestRateModel</text>
</a>
</g>
</g>
<!-- Node2 -->
<g id="node2" class="node">
<title>Node2</title>
<g id="a_node2"><a xlink:href="classQuantConnect_1_1Python_1_1MarginInterestRateModelPythonWrapper.html" target="_top" xlink:title="Wraps a PyObject object that represents a security&#39;s margin interest rate model">
<polygon fill="white" stroke="black" points="181,-61 181,-91 363,-91 363,-61 181,-61"/>
<text text-anchor="start" x="189" y="-79" font-family="Helvetica,sans-Serif" font-size="10.00">QuantConnect.Python.Margin</text>
<text text-anchor="middle" x="272" y="-68" font-family="Helvetica,sans-Serif" font-size="10.00">InterestRateModelPythonWrapper</text>
</a>
</g>
</g>
<!-- Node1&#45;&gt;Node2 -->
<g id="edge1" class="edge">
<title>Node1&#45;&gt;Node2</title>
<path fill="none" stroke="midnightblue" d="M153.22,-59.39C162.34,-60.67 171.67,-61.99 180.89,-63.29"/>
<polygon fill="midnightblue" stroke="midnightblue" points="153.43,-55.88 143.04,-57.95 152.46,-62.81 153.43,-55.88"/>
</g>
<!-- Node3 -->
<g id="node3" class="node">
<title>Node3</title>
<g id="a_node3"><a xlink:href="classQuantConnect_1_1Securities_1_1CryptoFuture_1_1BinanceFutureMarginInterestRateModel.html" target="_top" xlink:title="The responsability of this model is to apply future funding rate cash flows to the portfolio based on...">
<polygon fill="white" stroke="black" points="179,-0.5 179,-41.5 365,-41.5 365,-0.5 179,-0.5"/>
<text text-anchor="start" x="187" y="-29.5" font-family="Helvetica,sans-Serif" font-size="10.00">QuantConnect.Securities.</text>
<text text-anchor="start" x="187" y="-18.5" font-family="Helvetica,sans-Serif" font-size="10.00">CryptoFuture.BinanceFutureMargin</text>
<text text-anchor="middle" x="272" y="-7.5" font-family="Helvetica,sans-Serif" font-size="10.00">InterestRateModel</text>
</a>
</g>
</g>
<!-- Node1&#45;&gt;Node3 -->
<g id="edge2" class="edge">
<title>Node1&#45;&gt;Node3</title>
<path fill="none" stroke="midnightblue" d="M153.22,-37.02C161.65,-35.87 170.27,-34.7 178.81,-33.54"/>
<polygon fill="midnightblue" stroke="midnightblue" points="152.48,-33.59 143.04,-38.4 153.42,-40.52 152.48,-33.59"/>
</g>
<!-- Node4 -->
<g id="node4" class="node">
<title>Node4</title>
<g id="a_node4"><a xlink:href="classQuantConnect_1_1Securities_1_1CryptoFuture_1_1BybitFutureMarginInterestRateModel.html" target="_top" xlink:title="The responsibility of this model is to apply future funding rate cash flows to the portfolio based on...">
<polygon fill="white" stroke="black" points="401,-0.5 401,-41.5 574,-41.5 574,-0.5 401,-0.5"/>
<text text-anchor="start" x="409" y="-29.5" font-family="Helvetica,sans-Serif" font-size="10.00">QuantConnect.Securities.</text>
<text text-anchor="start" x="409" y="-18.5" font-family="Helvetica,sans-Serif" font-size="10.00">CryptoFuture.BybitFutureMargin</text>
<text text-anchor="middle" x="487.5" y="-7.5" font-family="Helvetica,sans-Serif" font-size="10.00">InterestRateModel</text>
</a>
</g>
</g>
<!-- Node3&#45;&gt;Node4 -->
<g id="edge3" class="edge">
<title>Node3&#45;&gt;Node4</title>
<path fill="none" stroke="midnightblue" d="M375.14,-21C383.72,-21 392.34,-21 400.78,-21"/>
<polygon fill="midnightblue" stroke="midnightblue" points="375.09,-17.5 365.09,-21 375.09,-24.5 375.09,-17.5"/>
</g>
</g>
</svg>
