<?xml version="1.0" encoding="UTF-8" standalone="no"?>
<!DOCTYPE svg PUBLIC "-//W3C//DTD SVG 1.1//EN"
 "http://www.w3.org/Graphics/SVG/1.1/DTD/svg11.dtd">
<!-- Generated by graphviz version 2.43.0 (0)
 -->
<!-- Title: QuantConnect.Securities.IBuyingPowerModel.GetMaximumOrderQuantityForTargetBuyingPower Pages: 1 -->
<svg width="482pt" height="50pt"
 viewBox="0.00 0.00 482.00 50.00" xmlns="http://www.w3.org/2000/svg" xmlns:xlink="http://www.w3.org/1999/xlink">
<g id="graph0" class="graph" transform="scale(1 1) rotate(0) translate(4 46)">
<title>QuantConnect.Securities.IBuyingPowerModel.GetMaximumOrderQuantityForTargetBuyingPower</title>
<polygon fill="white" stroke="transparent" points="-4,4 -4,-46 478,-46 478,4 -4,4"/>
<!-- Node1 -->
<g id="node1" class="node">
<title>Node1</title>
<g id="a_node1"><a xlink:title="Get the maximum market order quantity to obtain a position with a given buying power percentage....">
<polygon fill="#bfbfbf" stroke="black" points="280,-0.5 280,-41.5 474,-41.5 474,-0.5 280,-0.5"/>
<text text-anchor="start" x="288" y="-29.5" font-family="Helvetica,sans-Serif" font-size="10.00">QuantConnect.Securities.</text>
<text text-anchor="start" x="288" y="-18.5" font-family="Helvetica,sans-Serif" font-size="10.00">IBuyingPowerModel.GetMaximum</text>
<text text-anchor="middle" x="377" y="-7.5" font-family="Helvetica,sans-Serif" font-size="10.00">OrderQuantityForTargetBuyingPower</text>
</a>
</g>
</g>
<!-- Node2 -->
<g id="node2" class="node">
<title>Node2</title>
<g id="a_node2"><a xlink:href="classQuantConnect_1_1Securities_1_1BuyingPowerModelExtensions.html#abf1749e8e1ea7da304f47fb2e29ab182" target="_top" xlink:title="Get the maximum market order quantity to obtain a position with a given value in account currency">
<polygon fill="white" stroke="black" points="0,-0.5 0,-41.5 244,-41.5 244,-0.5 0,-0.5"/>
<text text-anchor="start" x="8" y="-29.5" font-family="Helvetica,sans-Serif" font-size="10.00">QuantConnect.Securities.</text>
<text text-anchor="start" x="8" y="-18.5" font-family="Helvetica,sans-Serif" font-size="10.00">BuyingPowerModelExtensions.Get</text>
<text text-anchor="middle" x="122" y="-7.5" font-family="Helvetica,sans-Serif" font-size="10.00">MaximumOrderQuantityForTargetBuyingPower</text>
</a>
</g>
</g>
<!-- Node1&#45;&gt;Node2 -->
<g id="edge1" class="edge">
<title>Node1&#45;&gt;Node2</title>
<path fill="none" stroke="midnightblue" d="M269.73,-21C261.25,-21 252.65,-21 244.08,-21"/>
<polygon fill="midnightblue" stroke="midnightblue" points="269.99,-24.5 279.99,-21 269.99,-17.5 269.99,-24.5"/>
</g>
</g>
</svg>
