<?xml version="1.0" encoding="UTF-8" standalone="no"?>
<!DOCTYPE svg PUBLIC "-//W3C//DTD SVG 1.1//EN"
 "http://www.w3.org/Graphics/SVG/1.1/DTD/svg11.dtd">
<!-- Generated by graphviz version 2.43.0 (0)
 -->
<!-- Title: QuantConnect.Securities.Positions.IPositionGroupBuyingPowerModel.GetMaintenanceMargin Pages: 1 -->
<svg width="485pt" height="50pt"
 viewBox="0.00 0.00 485.00 50.00" xmlns="http://www.w3.org/2000/svg" xmlns:xlink="http://www.w3.org/1999/xlink">
<g id="graph0" class="graph" transform="scale(1 1) rotate(0) translate(4 46)">
<title>QuantConnect.Securities.Positions.IPositionGroupBuyingPowerModel.GetMaintenanceMargin</title>
<polygon fill="white" stroke="transparent" points="-4,4 -4,-46 481,-46 481,4 -4,4"/>
<!-- Node1 -->
<g id="node1" class="node">
<title>Node1</title>
<g id="a_node1"><a xlink:title="Gets the margin currently allocated to the specified holding">
<polygon fill="#bfbfbf" stroke="black" points="283,-0.5 283,-41.5 477,-41.5 477,-0.5 283,-0.5"/>
<text text-anchor="start" x="291" y="-29.5" font-family="Helvetica,sans-Serif" font-size="10.00">QuantConnect.Securities.</text>
<text text-anchor="start" x="291" y="-18.5" font-family="Helvetica,sans-Serif" font-size="10.00">Positions.IPositionGroupBuying</text>
<text text-anchor="middle" x="380" y="-7.5" font-family="Helvetica,sans-Serif" font-size="10.00">PowerModel.GetMaintenanceMargin</text>
</a>
</g>
</g>
<!-- Node2 -->
<g id="node2" class="node">
<title>Node2</title>
<g id="a_node2"><a xlink:href="classQuantConnect_1_1Securities_1_1Positions_1_1PositionGroupBuyingPowerModelExtensions.html#a9b0698ffdd6b43aff8cd68559654dc35" target="_top" xlink:title="Gets the margin currently allocated to the specified position group">
<polygon fill="white" stroke="black" points="0,-0.5 0,-41.5 247,-41.5 247,-0.5 0,-0.5"/>
<text text-anchor="start" x="8" y="-29.5" font-family="Helvetica,sans-Serif" font-size="10.00">QuantConnect.Securities.</text>
<text text-anchor="start" x="8" y="-18.5" font-family="Helvetica,sans-Serif" font-size="10.00">Positions.PositionGroupBuying</text>
<text text-anchor="middle" x="123.5" y="-7.5" font-family="Helvetica,sans-Serif" font-size="10.00">PowerModelExtensions.GetMaintenanceMargin</text>
</a>
</g>
</g>
<!-- Node1&#45;&gt;Node2 -->
<g id="edge1" class="edge">
<title>Node1&#45;&gt;Node2</title>
<path fill="none" stroke="midnightblue" d="M272.57,-21C264.14,-21 255.58,-21 247.05,-21"/>
<polygon fill="midnightblue" stroke="midnightblue" points="272.78,-24.5 282.78,-21 272.78,-17.5 272.78,-24.5"/>
</g>
</g>
</svg>
