<?xml version="1.0" encoding="UTF-8" standalone="no"?>
<!DOCTYPE svg PUBLIC "-//W3C//DTD SVG 1.1//EN"
 "http://www.w3.org/Graphics/SVG/1.1/DTD/svg11.dtd">
<!-- Generated by graphviz version 2.43.0 (0)
 -->
<!-- Title: QuantConnect.Interfaces.IBrokerage.GetOpenOrders Pages: 1 -->
<svg width="373pt" height="50pt"
 viewBox="0.00 0.00 373.00 50.00" xmlns="http://www.w3.org/2000/svg" xmlns:xlink="http://www.w3.org/1999/xlink">
<g id="graph0" class="graph" transform="scale(1 1) rotate(0) translate(4 46)">
<title>QuantConnect.Interfaces.IBrokerage.GetOpenOrders</title>
<polygon fill="white" stroke="transparent" points="-4,4 -4,-46 369,-46 369,4 -4,4"/>
<!-- Node1 -->
<g id="node1" class="node">
<title>Node1</title>
<g id="a_node1"><a xlink:title="Gets all open orders on the account">
<polygon fill="#bfbfbf" stroke="black" points="218,-6 218,-36 365,-36 365,-6 218,-6"/>
<text text-anchor="start" x="226" y="-24" font-family="Helvetica,sans-Serif" font-size="10.00">QuantConnect.Interfaces.</text>
<text text-anchor="middle" x="291.5" y="-13" font-family="Helvetica,sans-Serif" font-size="10.00">IBrokerage.GetOpenOrders</text>
</a>
</g>
</g>
<!-- Node2 -->
<g id="node2" class="node">
<title>Node2</title>
<g id="a_node2"><a xlink:href="classQuantConnect_1_1Lean_1_1Engine_1_1Setup_1_1BrokerageSetupHandler.html#a4eaa335733d5c20c1c91a21356a1529f" target="_top" xlink:title="Get the open orders from a brokerage. Adds Orders.Order and Orders.OrderTicket to the transaction han...">
<polygon fill="white" stroke="black" points="0,-0.5 0,-41.5 182,-41.5 182,-0.5 0,-0.5"/>
<text text-anchor="start" x="8" y="-29.5" font-family="Helvetica,sans-Serif" font-size="10.00">QuantConnect.Lean.Engine.</text>
<text text-anchor="start" x="8" y="-18.5" font-family="Helvetica,sans-Serif" font-size="10.00">Setup.BrokerageSetupHandler.Get</text>
<text text-anchor="middle" x="91" y="-7.5" font-family="Helvetica,sans-Serif" font-size="10.00">OpenOrders</text>
</a>
</g>
</g>
<!-- Node1&#45;&gt;Node2 -->
<g id="edge1" class="edge">
<title>Node1&#45;&gt;Node2</title>
<path fill="none" stroke="midnightblue" d="M207.79,-21C199.35,-21 190.74,-21 182.23,-21"/>
<polygon fill="midnightblue" stroke="midnightblue" points="207.99,-24.5 217.99,-21 207.99,-17.5 207.99,-24.5"/>
</g>
</g>
</svg>
