<?xml version="1.0" encoding="UTF-8" standalone="no"?>
<!DOCTYPE svg PUBLIC "-//W3C//DTD SVG 1.1//EN"
 "http://www.w3.org/Graphics/SVG/1.1/DTD/svg11.dtd">
<!-- Generated by graphviz version 2.43.0 (0)
 -->
<!-- Title: QuantConnect.Securities.IPriceVariationModel Pages: 1 -->
<svg width="522pt" height="88pt"
 viewBox="0.00 0.00 522.00 88.00" xmlns="http://www.w3.org/2000/svg" xmlns:xlink="http://www.w3.org/1999/xlink">
<g id="graph0" class="graph" transform="scale(1 1) rotate(0) translate(4 84)">
<title>QuantConnect.Securities.IPriceVariationModel</title>
<polygon fill="white" stroke="transparent" points="-4,4 -4,-84 518,-84 518,4 -4,4"/>
<!-- Node1 -->
<g id="node1" class="node">
<title>Node1</title>
<g id="a_node1"><a xlink:title="Gets the minimum price variation of a given security">
<polygon fill="#bfbfbf" stroke="black" points="0,-24.5 0,-54.5 140,-54.5 140,-24.5 0,-24.5"/>
<text text-anchor="start" x="8" y="-42.5" font-family="Helvetica,sans-Serif" font-size="10.00">QuantConnect.Securities.</text>
<text text-anchor="middle" x="70" y="-31.5" font-family="Helvetica,sans-Serif" font-size="10.00">IPriceVariationModel</text>
</a>
</g>
</g>
<!-- Node2 -->
<g id="node2" class="node">
<title>Node2</title>
<g id="a_node2"><a xlink:href="classQuantConnect_1_1Securities_1_1AdjustedPriceVariationModel.html" target="_top" xlink:title="Provides an implementation of IPriceVariationModel for use when data is DataNormalizationMode....">
<polygon fill="white" stroke="black" points="176,-49.5 176,-79.5 333,-79.5 333,-49.5 176,-49.5"/>
<text text-anchor="start" x="184" y="-67.5" font-family="Helvetica,sans-Serif" font-size="10.00">QuantConnect.Securities.</text>
<text text-anchor="middle" x="254.5" y="-56.5" font-family="Helvetica,sans-Serif" font-size="10.00">AdjustedPriceVariationModel</text>
</a>
</g>
</g>
<!-- Node1&#45;&gt;Node2 -->
<g id="edge1" class="edge">
<title>Node1&#45;&gt;Node2</title>
<path fill="none" stroke="midnightblue" d="M150.42,-50.38C158.82,-51.53 167.36,-52.7 175.74,-53.85"/>
<polygon fill="midnightblue" stroke="midnightblue" points="150.64,-46.88 140.26,-48.99 149.69,-53.81 150.64,-46.88"/>
</g>
<!-- Node3 -->
<g id="node3" class="node">
<title>Node3</title>
<g id="a_node3"><a xlink:href="classQuantConnect_1_1Securities_1_1SecurityPriceVariationModel.html" target="_top" xlink:title="Provides default implementation of IPriceVariationModel for use in defining the minimum price variati...">
<polygon fill="white" stroke="black" points="177.5,-0.5 177.5,-30.5 331.5,-30.5 331.5,-0.5 177.5,-0.5"/>
<text text-anchor="start" x="185.5" y="-18.5" font-family="Helvetica,sans-Serif" font-size="10.00">QuantConnect.Securities.</text>
<text text-anchor="middle" x="254.5" y="-7.5" font-family="Helvetica,sans-Serif" font-size="10.00">SecurityPriceVariationModel</text>
</a>
</g>
</g>
<!-- Node1&#45;&gt;Node3 -->
<g id="edge2" class="edge">
<title>Node1&#45;&gt;Node3</title>
<path fill="none" stroke="midnightblue" d="M150.29,-29.07C159.25,-27.9 168.36,-26.7 177.28,-25.52"/>
<polygon fill="midnightblue" stroke="midnightblue" points="149.71,-25.62 140.26,-30.39 150.63,-32.56 149.71,-25.62"/>
</g>
<!-- Node4 -->
<g id="node4" class="node">
<title>Node4</title>
<g id="a_node4"><a xlink:href="classQuantConnect_1_1Securities_1_1EquityPriceVariationModel.html" target="_top" xlink:title="Provides an implementation of IPriceVariationModel for use in defining the minimum price variation fo...">
<polygon fill="white" stroke="black" points="369,-0.5 369,-30.5 514,-30.5 514,-0.5 369,-0.5"/>
<text text-anchor="start" x="377" y="-18.5" font-family="Helvetica,sans-Serif" font-size="10.00">QuantConnect.Securities.</text>
<text text-anchor="middle" x="441.5" y="-7.5" font-family="Helvetica,sans-Serif" font-size="10.00">EquityPriceVariationModel</text>
</a>
</g>
</g>
<!-- Node3&#45;&gt;Node4 -->
<g id="edge3" class="edge">
<title>Node3&#45;&gt;Node4</title>
<path fill="none" stroke="midnightblue" d="M341.76,-15.5C350.85,-15.5 360.02,-15.5 368.91,-15.5"/>
<polygon fill="midnightblue" stroke="midnightblue" points="341.55,-12 331.55,-15.5 341.55,-19 341.55,-12"/>
</g>
</g>
</svg>
