<?xml version="1.0" encoding="UTF-8" standalone="no"?>
<!DOCTYPE svg PUBLIC "-//W3C//DTD SVG 1.1//EN"
 "http://www.w3.org/Graphics/SVG/1.1/DTD/svg11.dtd">
<!-- Generated by graphviz version 2.43.0 (0)
 -->
<!-- Title: QuantConnect.Interfaces.IShortableProvider Pages: 1 -->
<svg width="592pt" height="137pt"
 viewBox="0.00 0.00 592.00 137.00" xmlns="http://www.w3.org/2000/svg" xmlns:xlink="http://www.w3.org/1999/xlink">
<g id="graph0" class="graph" transform="scale(1 1) rotate(0) translate(4 133)">
<title>QuantConnect.Interfaces.IShortableProvider</title>
<polygon fill="white" stroke="transparent" points="-4,4 -4,-133 588,-133 588,4 -4,4"/>
<!-- Node1 -->
<g id="node1" class="node">
<title>Node1</title>
<g id="a_node1"><a xlink:title="Defines a short list/easy&#45;to&#45;borrow provider">
<polygon fill="#bfbfbf" stroke="black" points="0,-49.5 0,-79.5 140,-79.5 140,-49.5 0,-49.5"/>
<text text-anchor="start" x="8" y="-67.5" font-family="Helvetica,sans-Serif" font-size="10.00">QuantConnect.Interfaces.</text>
<text text-anchor="middle" x="70" y="-56.5" font-family="Helvetica,sans-Serif" font-size="10.00">IShortableProvider</text>
</a>
</g>
</g>
<!-- Node2 -->
<g id="node2" class="node">
<title>Node2</title>
<g id="a_node2"><a xlink:href="classQuantConnect_1_1Data_1_1Shortable_1_1LocalDiskShortableProvider.html" target="_top" xlink:title="Sources short availability data from the local disk for the given brokerage">
<polygon fill="white" stroke="black" points="183.5,-98.5 183.5,-128.5 347.5,-128.5 347.5,-98.5 183.5,-98.5"/>
<text text-anchor="start" x="191.5" y="-116.5" font-family="Helvetica,sans-Serif" font-size="10.00">QuantConnect.Data.Shortable.</text>
<text text-anchor="middle" x="265.5" y="-105.5" font-family="Helvetica,sans-Serif" font-size="10.00">LocalDiskShortableProvider</text>
</a>
</g>
</g>
<!-- Node1&#45;&gt;Node2 -->
<g id="edge1" class="edge">
<title>Node1&#45;&gt;Node2</title>
<path fill="none" stroke="midnightblue" d="M140.3,-82.05C161.55,-87.43 184.73,-93.3 205.24,-98.49"/>
<polygon fill="midnightblue" stroke="midnightblue" points="140.92,-78.6 130.37,-79.53 139.21,-85.38 140.92,-78.6"/>
</g>
<!-- Node4 -->
<g id="node4" class="node">
<title>Node4</title>
<g id="a_node4"><a xlink:href="classQuantConnect_1_1Data_1_1Shortable_1_1NullShortableProvider.html" target="_top" xlink:title="Defines the default shortable provider in the case that no local data exists. This will allow for all...">
<polygon fill="white" stroke="black" points="183.5,-49.5 183.5,-79.5 347.5,-79.5 347.5,-49.5 183.5,-49.5"/>
<text text-anchor="start" x="191.5" y="-67.5" font-family="Helvetica,sans-Serif" font-size="10.00">QuantConnect.Data.Shortable.</text>
<text text-anchor="middle" x="265.5" y="-56.5" font-family="Helvetica,sans-Serif" font-size="10.00">NullShortableProvider</text>
</a>
</g>
</g>
<!-- Node1&#45;&gt;Node4 -->
<g id="edge3" class="edge">
<title>Node1&#45;&gt;Node4</title>
<path fill="none" stroke="midnightblue" d="M150.34,-64.5C161.2,-64.5 172.37,-64.5 183.26,-64.5"/>
<polygon fill="midnightblue" stroke="midnightblue" points="150.04,-61 140.04,-64.5 150.04,-68 150.04,-61"/>
</g>
<!-- Node5 -->
<g id="node5" class="node">
<title>Node5</title>
<g id="a_node5"><a xlink:href="classQuantConnect_1_1Data_1_1Shortable_1_1ShortableProviderPythonWrapper.html" target="_top" xlink:title="Python wrapper for custom shortable providers">
<polygon fill="white" stroke="black" points="176,-0.5 176,-30.5 355,-30.5 355,-0.5 176,-0.5"/>
<text text-anchor="start" x="184" y="-18.5" font-family="Helvetica,sans-Serif" font-size="10.00">QuantConnect.Data.Shortable.</text>
<text text-anchor="middle" x="265.5" y="-7.5" font-family="Helvetica,sans-Serif" font-size="10.00">ShortableProviderPythonWrapper</text>
</a>
</g>
</g>
<!-- Node1&#45;&gt;Node5 -->
<g id="edge4" class="edge">
<title>Node1&#45;&gt;Node5</title>
<path fill="none" stroke="midnightblue" d="M140.3,-46.95C161.55,-41.57 184.73,-35.7 205.24,-30.51"/>
<polygon fill="midnightblue" stroke="midnightblue" points="139.21,-43.62 130.37,-49.47 140.92,-50.4 139.21,-43.62"/>
</g>
<!-- Node3 -->
<g id="node3" class="node">
<title>Node3</title>
<g id="a_node3"><a xlink:href="classQuantConnect_1_1Data_1_1Shortable_1_1InteractiveBrokersShortableProvider.html" target="_top" xlink:title="Sources the InteractiveBrokers short availability data from the local disk for the given brokerage">
<polygon fill="white" stroke="black" points="391,-98.5 391,-128.5 584,-128.5 584,-98.5 391,-98.5"/>
<text text-anchor="start" x="399" y="-116.5" font-family="Helvetica,sans-Serif" font-size="10.00">QuantConnect.Data.Shortable.</text>
<text text-anchor="middle" x="487.5" y="-105.5" font-family="Helvetica,sans-Serif" font-size="10.00">InteractiveBrokersShortableProvider</text>
</a>
</g>
</g>
<!-- Node2&#45;&gt;Node3 -->
<g id="edge2" class="edge">
<title>Node2&#45;&gt;Node3</title>
<path fill="none" stroke="midnightblue" d="M358.04,-113.5C368.81,-113.5 379.83,-113.5 390.66,-113.5"/>
<polygon fill="midnightblue" stroke="midnightblue" points="357.79,-110 347.79,-113.5 357.79,-117 357.79,-110"/>
</g>
</g>
</svg>
