<?xml version="1.0" encoding="UTF-8" standalone="no"?>
<!DOCTYPE svg PUBLIC "-//W3C//DTD SVG 1.1//EN"
 "http://www.w3.org/Graphics/SVG/1.1/DTD/svg11.dtd">
<!-- Generated by graphviz version 2.43.0 (0)
 -->
<!-- Title: QuantConnect.Interfaces.ISubscriptionDataConfigService.Add Pages: 1 -->
<!--zoomable 348 -->
<svg id="main" version="1.1" xmlns="http://www.w3.org/2000/svg" xmlns:xlink="http://www.w3.org/1999/xlink" xml:space="preserve" onload="init(evt)">
<style type="text/css"><![CDATA[
.edge:hover path { stroke: red; }
.edge:hover polygon { stroke: red; fill: red; }
]]></style>
<script type="text/javascript"><![CDATA[
var edges = document.getElementsByTagName('g');
if (edges && edges.length) {
  for (var i=0;i<edges.length;i++) {
    if (edges[i].id.substr(0,4)=='edge') {
      edges[i].setAttribute('class','edge');
    }
  }
}
]]></script>
        <defs>
                <circle id="rim" cx="0" cy="0" r="7"/>
                <circle id="rim2" cx="0" cy="0" r="3.5"/>
                <g id="zoomPlus">
                        <use xlink:href="#rim" fill="#404040">
                                <set attributeName="fill" to="#808080" begin="zoomplus.mouseover" end="zoomplus.mouseout"/>
                        </use>
                        <path d="M-4,0h8M0,-4v8" fill="none" stroke="white" stroke-width="1.5" pointer-events="none"/>
                </g>
                <g id="zoomMin">
                        <use xlink:href="#rim" fill="#404040">
                                <set attributeName="fill" to="#808080" begin="zoomminus.mouseover" end="zoomminus.mouseout"/>
                        </use>
                        <path d="M-4,0h8" fill="none" stroke="white" stroke-width="1.5" pointer-events="none"/>
                </g>
                <g id="dirArrow">
                        <path fill="none" stroke="white" stroke-width="1.5" d="M0,-3.0v7 M-2.5,-0.5L0,-3.0L2.5,-0.5"/>
                </g>
               <g id="resetDef">
                       <use xlink:href="#rim2" fill="#404040">
                               <set attributeName="fill" to="#808080" begin="reset.mouseover" end="reset.mouseout"/>
                       </use>
               </g>
        </defs>

<script type="text/javascript">
var viewWidth = 693;
var viewHeight = 348;
var sectionId = 'dynsection-1';
</script>
<script xlink:href="svgpan.js"/>
<svg id="graph" class="graph">
<g id="viewport">
<title>QuantConnect.Interfaces.ISubscriptionDataConfigService.Add</title>
<polygon fill="white" stroke="transparent" points="-4,4 -4,-343.5 689,-343.5 689,4 -4,4"/>
<!-- Node1 -->
<g id="node1" class="node">
<title>Node1</title>
<g id="a_node1"><a xlink:title="Creates and adds a list of SubscriptionDataConfig for a given symbol and configuration....">
<polygon fill="#bfbfbf" stroke="black" points="494,-165 494,-195 685,-195 685,-165 494,-165"/>
<text text-anchor="start" x="502" y="-183" font-family="Helvetica,sans-Serif" font-size="10.00">QuantConnect.Interfaces.</text>
<text text-anchor="middle" x="589.5" y="-172" font-family="Helvetica,sans-Serif" font-size="10.00">ISubscriptionDataConfigService.Add</text>
</a>
</g>
</g>
<!-- Node2 -->
<g id="node2" class="node">
<title>Node2</title>
<g id="a_node2"><a xlink:href="classQuantConnect_1_1Data_1_1SubscriptionManager.html#a4139b41b22c5b7168d6e7542d007dac5" target="_top" xlink:title="Add Market Data Required &#45; generic data typing support as long as Type implements BaseData.">
<polygon fill="white" stroke="black" points="262,-307 262,-337 437,-337 437,-307 262,-307"/>
<text text-anchor="start" x="270" y="-325" font-family="Helvetica,sans-Serif" font-size="10.00">QuantConnect.Data.Subscription</text>
<text text-anchor="middle" x="349.5" y="-314" font-family="Helvetica,sans-Serif" font-size="10.00">Manager.Add</text>
</a>
</g>
</g>
<!-- Node1&#45;&gt;Node2 -->
<g id="edge1" class="edge">
<title>Node1&#45;&gt;Node2</title>
<path fill="none" stroke="midnightblue" d="M569.61,-203.18C546.27,-230.21 503.98,-274.22 458,-298 451.29,-301.47 444.09,-304.44 436.72,-306.98"/>
<polygon fill="midnightblue" stroke="midnightblue" points="572.43,-205.27 576.23,-195.38 567.09,-200.74 572.43,-205.27"/>
</g>
<!-- Node3 -->
<g id="node3" class="node">
<title>Node3</title>
<g id="a_node3"><a xlink:href="classQuantConnect_1_1Algorithm_1_1QCAlgorithm.html#a4fa5ed76877c0a7738c7ea8fb9f38ded" target="_top" xlink:title="Creates and adds a new single Option contract to the algorithm">
<polygon fill="white" stroke="black" points="247,-258 247,-288 452,-288 452,-258 247,-258"/>
<text text-anchor="start" x="255" y="-276" font-family="Helvetica,sans-Serif" font-size="10.00">QuantConnect.Algorithm.QCAlgorithm.</text>
<text text-anchor="middle" x="349.5" y="-265" font-family="Helvetica,sans-Serif" font-size="10.00">AddOptionContract</text>
</a>
</g>
</g>
<!-- Node1&#45;&gt;Node3 -->
<g id="edge2" class="edge">
<title>Node1&#45;&gt;Node3</title>
<path fill="none" stroke="midnightblue" d="M551.86,-199.86C526.12,-213.27 490.6,-230.69 458,-243 443.23,-248.58 426.96,-253.64 411.66,-257.96"/>
<polygon fill="midnightblue" stroke="midnightblue" points="553.65,-202.87 560.88,-195.12 550.4,-196.67 553.65,-202.87"/>
</g>
<!-- Node6 -->
<g id="node6" class="node">
<title>Node6</title>
<g id="a_node6"><a xlink:href="classQuantConnect_1_1Algorithm_1_1QCAlgorithm.html#a514fd5e3fd90031297a8954419ea9c3f" target="_top" xlink:title="Set a required SecurityType&#45;symbol and resolution for algorithm">
<polygon fill="white" stroke="black" points="0,-211 0,-241 205,-241 205,-211 0,-211"/>
<text text-anchor="start" x="8" y="-229" font-family="Helvetica,sans-Serif" font-size="10.00">QuantConnect.Algorithm.QCAlgorithm.</text>
<text text-anchor="middle" x="102.5" y="-218" font-family="Helvetica,sans-Serif" font-size="10.00">AddSecurity</text>
</a>
</g>
</g>
<!-- Node1&#45;&gt;Node6 -->
<g id="edge6" class="edge">
<title>Node1&#45;&gt;Node6</title>
<path fill="none" stroke="midnightblue" d="M523.37,-197.41C502.62,-202.3 479.48,-207.07 458,-210 373.3,-221.55 276.28,-225.28 205.17,-226.27"/>
<polygon fill="midnightblue" stroke="midnightblue" points="524.44,-200.75 533.34,-195.01 522.8,-193.94 524.44,-200.75"/>
</g>
<!-- Node7 -->
<g id="node7" class="node">
<title>Node7</title>
<g id="a_node7"><a xlink:href="classQuantConnect_1_1Algorithm_1_1Framework_1_1Selection_1_1FutureUniverseSelectionModel.html#ad26ddadc8b4076ef108246119138ab53" target="_top" xlink:title="Creates the canonical Future chain security for a given symbol">
<polygon fill="white" stroke="black" points="241,-159.5 241,-200.5 458,-200.5 458,-159.5 241,-159.5"/>
<text text-anchor="start" x="249" y="-188.5" font-family="Helvetica,sans-Serif" font-size="10.00">QuantConnect.Algorithm.Framework.</text>
<text text-anchor="start" x="249" y="-177.5" font-family="Helvetica,sans-Serif" font-size="10.00">Selection.FutureUniverseSelectionModel.</text>
<text text-anchor="middle" x="349.5" y="-166.5" font-family="Helvetica,sans-Serif" font-size="10.00">CreateFutureChainSecurity</text>
</a>
</g>
</g>
<!-- Node1&#45;&gt;Node7 -->
<g id="edge7" class="edge">
<title>Node1&#45;&gt;Node7</title>
<path fill="none" stroke="midnightblue" d="M483.57,-180C475.17,-180 466.67,-180 458.25,-180"/>
<polygon fill="midnightblue" stroke="midnightblue" points="483.75,-183.5 493.75,-180 483.75,-176.5 483.75,-183.5"/>
</g>
<!-- Node8 -->
<g id="node8" class="node">
<title>Node8</title>
<g id="a_node8"><a xlink:href="classQuantConnect_1_1Extensions.html#a3136540dfa1d7ca50c7d3e95ca5da928" target="_top" xlink:title="Creates a OptionChainUniverse for a given symbol">
<polygon fill="white" stroke="black" points="277,-110 277,-140 422,-140 422,-110 277,-110"/>
<text text-anchor="start" x="285" y="-128" font-family="Helvetica,sans-Serif" font-size="10.00">QuantConnect.Extensions.</text>
<text text-anchor="middle" x="349.5" y="-117" font-family="Helvetica,sans-Serif" font-size="10.00">CreateOptionChain</text>
</a>
</g>
</g>
<!-- Node1&#45;&gt;Node8 -->
<g id="edge8" class="edge">
<title>Node1&#45;&gt;Node8</title>
<path fill="none" stroke="midnightblue" d="M513.43,-162.65C481.97,-155.38 445.75,-147.01 415.46,-140.01"/>
<polygon fill="midnightblue" stroke="midnightblue" points="512.93,-166.13 523.47,-164.97 514.51,-159.31 512.93,-166.13"/>
</g>
<!-- Node9 -->
<g id="node9" class="node">
<title>Node9</title>
<g id="a_node9"><a xlink:href="classQuantConnect_1_1Securities_1_1Cash.html#a8af2f228ffa12236fec72d5458a031fc" target="_top" xlink:title="Ensures that we have a data feed to convert this currency into the base currency. This will add a Sub...">
<polygon fill="white" stroke="black" points="266,-61 266,-91 433,-91 433,-61 266,-61"/>
<text text-anchor="start" x="274" y="-79" font-family="Helvetica,sans-Serif" font-size="10.00">QuantConnect.Securities.</text>
<text text-anchor="middle" x="349.5" y="-68" font-family="Helvetica,sans-Serif" font-size="10.00">Cash.EnsureCurrencyDataFeed</text>
</a>
</g>
</g>
<!-- Node1&#45;&gt;Node9 -->
<g id="edge9" class="edge">
<title>Node1&#45;&gt;Node9</title>
<path fill="none" stroke="midnightblue" d="M559.96,-158.65C534.46,-140.55 495.46,-115.17 458,-100 449.58,-96.59 440.59,-93.62 431.52,-91.04"/>
<polygon fill="midnightblue" stroke="midnightblue" points="558.23,-161.72 568.39,-164.72 562.32,-156.04 558.23,-161.72"/>
</g>
<!-- Node10 -->
<g id="node10" class="node">
<title>Node10</title>
<g id="a_node10"><a xlink:href="classQuantConnect_1_1Data_1_1UniverseSelection_1_1Universe.html#a74ac39846d09cd3952352afd1fa325a3" target="_top" xlink:title="Gets the subscription requests to be added for the specified security">
<polygon fill="white" stroke="black" points="255.5,-0.5 255.5,-41.5 443.5,-41.5 443.5,-0.5 255.5,-0.5"/>
<text text-anchor="start" x="263.5" y="-29.5" font-family="Helvetica,sans-Serif" font-size="10.00">QuantConnect.Data.Universe</text>
<text text-anchor="start" x="263.5" y="-18.5" font-family="Helvetica,sans-Serif" font-size="10.00">Selection.Universe.GetSubscription</text>
<text text-anchor="middle" x="349.5" y="-7.5" font-family="Helvetica,sans-Serif" font-size="10.00">Requests</text>
</a>
</g>
</g>
<!-- Node1&#45;&gt;Node10 -->
<g id="edge10" class="edge">
<title>Node1&#45;&gt;Node10</title>
<path fill="none" stroke="midnightblue" d="M571.25,-156.8C548.47,-127.81 505.65,-78.65 458,-51 451.88,-47.45 445.33,-44.3 438.58,-41.51"/>
<polygon fill="midnightblue" stroke="midnightblue" points="568.51,-158.98 577.39,-164.76 574.05,-154.7 568.51,-158.98"/>
</g>
<!-- Node4 -->
<g id="node4" class="node">
<title>Node4</title>
<g id="a_node4"><a xlink:href="classQuantConnect_1_1Algorithm_1_1QCAlgorithm.html#a67794a3732b2f686e5e88f68288abb7b" target="_top" xlink:title="Adds a future option contract to the algorithm.">
<polygon fill="white" stroke="black" points="0,-309 0,-339 205,-339 205,-309 0,-309"/>
<text text-anchor="start" x="8" y="-327" font-family="Helvetica,sans-Serif" font-size="10.00">QuantConnect.Algorithm.QCAlgorithm.</text>
<text text-anchor="middle" x="102.5" y="-316" font-family="Helvetica,sans-Serif" font-size="10.00">AddFutureOptionContract</text>
</a>
</g>
</g>
<!-- Node3&#45;&gt;Node4 -->
<g id="edge3" class="edge">
<title>Node3&#45;&gt;Node4</title>
<path fill="none" stroke="midnightblue" d="M266.48,-290.07C237.05,-296.2 204.11,-303.06 175.59,-308.99"/>
<polygon fill="midnightblue" stroke="midnightblue" points="267.24,-293.49 276.32,-288.03 265.81,-286.64 267.24,-293.49"/>
</g>
<!-- Node5 -->
<g id="node5" class="node">
<title>Node5</title>
<g id="a_node5"><a xlink:href="classQuantConnect_1_1Algorithm_1_1QCAlgorithm.html#a1f5b1192dee39eadffb9b599f375b6ae" target="_top" xlink:title="Adds an index option contract to the algorithm.">
<polygon fill="white" stroke="black" points="0,-260 0,-290 205,-290 205,-260 0,-260"/>
<text text-anchor="start" x="8" y="-278" font-family="Helvetica,sans-Serif" font-size="10.00">QuantConnect.Algorithm.QCAlgorithm.</text>
<text text-anchor="middle" x="102.5" y="-267" font-family="Helvetica,sans-Serif" font-size="10.00">AddIndexOptionContract</text>
</a>
</g>
</g>
<!-- Node3&#45;&gt;Node5 -->
<g id="edge4" class="edge">
<title>Node3&#45;&gt;Node5</title>
<path fill="none" stroke="midnightblue" d="M236.42,-273.91C226.06,-274 215.61,-274.08 205.35,-274.17"/>
<polygon fill="midnightblue" stroke="midnightblue" points="236.76,-277.41 246.73,-273.83 236.7,-270.41 236.76,-277.41"/>
</g>
<!-- Node3&#45;&gt;Node6 -->
<g id="edge5" class="edge">
<title>Node3&#45;&gt;Node6</title>
<path fill="none" stroke="midnightblue" d="M260.22,-256.07C234.58,-251.15 206.77,-245.81 181.79,-241.02"/>
<polygon fill="midnightblue" stroke="midnightblue" points="259.83,-259.55 270.31,-258 261.15,-252.68 259.83,-259.55"/>
</g>
</g>
</svg>
        <g id="navigator" transform="translate(0 0)" fill="#404254">
                <rect fill="#f2f5e9" fill-opacity="0.5" stroke="#606060" stroke-width=".5" x="0" y="0" width="60" height="60"/>
                <use id="zoomplus" xlink:href="#zoomPlus" x="17" y="9" onmousedown="handleZoom(evt,'in')"/>
                <use id="zoomminus" xlink:href="#zoomMin" x="42" y="9" onmousedown="handleZoom(evt,'out')"/>
                <use id="reset" xlink:href="#resetDef" x="30" y="36" onmousedown="handleReset()"/>
                <g id="arrowUp" xlink:href="#dirArrow" transform="translate(30 24)" onmousedown="handlePan(0,-1)">
                  <use xlink:href="#rim" fill="#404040">
                        <set attributeName="fill" to="#808080" begin="arrowUp.mouseover" end="arrowUp.mouseout"/>
                  </use>
                  <path fill="none" stroke="white" stroke-width="1.5" d="M0,-3.0v7 M-2.5,-0.5L0,-3.0L2.5,-0.5"/>
                </g>
                <g id="arrowRight" xlink:href="#dirArrow" transform="rotate(90) translate(36 -43)" onmousedown="handlePan(1,0)">
                  <use xlink:href="#rim" fill="#404040">
                        <set attributeName="fill" to="#808080" begin="arrowRight.mouseover" end="arrowRight.mouseout"/>
                  </use>
                  <path fill="none" stroke="white" stroke-width="1.5" d="M0,-3.0v7 M-2.5,-0.5L0,-3.0L2.5,-0.5"/>
                </g>
                <g id="arrowDown" xlink:href="#dirArrow" transform="rotate(180) translate(-30 -48)" onmousedown="handlePan(0,1)">
                  <use xlink:href="#rim" fill="#404040">
                        <set attributeName="fill" to="#808080" begin="arrowDown.mouseover" end="arrowDown.mouseout"/>
                  </use>
                  <path fill="none" stroke="white" stroke-width="1.5" d="M0,-3.0v7 M-2.5,-0.5L0,-3.0L2.5,-0.5"/>
                </g>
                <g id="arrowLeft" xlink:href="#dirArrow" transform="rotate(270) translate(-36 17)" onmousedown="handlePan(-1,0)">
                  <use xlink:href="#rim" fill="#404040">
                        <set attributeName="fill" to="#808080" begin="arrowLeft.mouseover" end="arrowLeft.mouseout"/>
                  </use>
                  <path fill="none" stroke="white" stroke-width="1.5" d="M0,-3.0v7 M-2.5,-0.5L0,-3.0L2.5,-0.5"/>
                </g>
        </g>
        <svg viewBox="0 0 15 15" width="100%" height="30px" preserveAspectRatio="xMaxYMin meet">
         <g id="arrow_out" transform="scale(0.3 0.3)">
          <a xlink:href="interfaceQuantConnect_1_1Interfaces_1_1ISubscriptionDataConfigService_a37d844a8ee78541da26b4732ed6a0a14_icgraph_org.svg" target="_base">
           <rect id="button" ry="5" rx="5" y="6" x="6" height="38" width="38"
                fill="#f2f5e9" fill-opacity="0.5" stroke="#606060" stroke-width="1.0"/>
           <path id="arrow"
             d="M 11.500037,31.436501 C 11.940474,20.09759 22.043105,11.32322 32.158766,21.979434 L 37.068811,17.246167 C 37.068811,17.246167 37.088388,32 37.088388,32 L 22.160133,31.978069 C 22.160133,31.978069 26.997745,27.140456 26.997745,27.140456 C 18.528582,18.264221 13.291696,25.230495 11.500037,31.436501 z"
             style="fill:#404040;"/>
          </a>
         </g>
        </svg>
</svg>
