<?xml version="1.0" encoding="UTF-8" standalone="no"?>
<!DOCTYPE svg PUBLIC "-//W3C//DTD SVG 1.1//EN"
 "http://www.w3.org/Graphics/SVG/1.1/DTD/svg11.dtd">
<!-- Generated by graphviz version 2.43.0 (0)
 -->
<!-- Title: QuantConnect.Interfaces.IFactorFileProvider.Get Pages: 1 -->
<svg width="616pt" height="340pt"
 viewBox="0.00 0.00 616.00 339.50" xmlns="http://www.w3.org/2000/svg" xmlns:xlink="http://www.w3.org/1999/xlink">
<g id="graph0" class="graph" transform="scale(1 1) rotate(0) translate(4 335.5)">
<title>QuantConnect.Interfaces.IFactorFileProvider.Get</title>
<polygon fill="white" stroke="transparent" points="-4,4 -4,-335.5 612,-335.5 612,4 -4,4"/>
<!-- Node1 -->
<g id="node1" class="node">
<title>Node1</title>
<g id="a_node1"><a xlink:title="Gets a FactorFile instance for the specified symbol, or null if not found">
<polygon fill="#bfbfbf" stroke="black" points="468,-145.5 468,-175.5 608,-175.5 608,-145.5 468,-145.5"/>
<text text-anchor="start" x="476" y="-163.5" font-family="Helvetica,sans-Serif" font-size="10.00">QuantConnect.Interfaces.</text>
<text text-anchor="middle" x="538" y="-152.5" font-family="Helvetica,sans-Serif" font-size="10.00">IFactorFileProvider.Get</text>
</a>
</g>
</g>
<!-- Node2 -->
<g id="node2" class="node">
<title>Node2</title>
<g id="a_node2"><a xlink:href="classQuantConnect_1_1Lean_1_1Engine_1_1DataFeeds_1_1SubscriptionUtils.html#ad99f7319de26a66bf3efa77ec804a5fc" target="_top" xlink:title="Setups a new Subscription which will consume a blocking EnqueueableEnumerator&lt;T&gt; that will be feed by...">
<polygon fill="white" stroke="black" points="243,-260 243,-301 432,-301 432,-260 243,-260"/>
<text text-anchor="start" x="251" y="-289" font-family="Helvetica,sans-Serif" font-size="10.00">QuantConnect.Lean.Engine.</text>
<text text-anchor="start" x="251" y="-278" font-family="Helvetica,sans-Serif" font-size="10.00">DataFeeds.SubscriptionUtils.Create</text>
<text text-anchor="middle" x="337.5" y="-267" font-family="Helvetica,sans-Serif" font-size="10.00">AndScheduleWorker</text>
</a>
</g>
</g>
<!-- Node1&#45;&gt;Node2 -->
<g id="edge1" class="edge">
<title>Node1&#45;&gt;Node2</title>
<path fill="none" stroke="midnightblue" d="M503.09,-181C466.71,-202.99 409.25,-237.73 372.74,-259.8"/>
<polygon fill="midnightblue" stroke="midnightblue" points="505.11,-183.87 511.86,-175.7 501.49,-177.88 505.11,-183.87"/>
</g>
<!-- Node4 -->
<g id="node4" class="node">
<title>Node4</title>
<g id="a_node4"><a xlink:href="classQuantConnect_1_1Lean_1_1Engine_1_1DataFeeds_1_1Enumerators_1_1DividendEventProvider.html#aa420c22da9f60c60151aeb7f852bc6d2" target="_top" xlink:title="Initializes the factor file to use">
<polygon fill="white" stroke="black" points="247.5,-170 247.5,-211 427.5,-211 427.5,-170 247.5,-170"/>
<text text-anchor="start" x="255.5" y="-199" font-family="Helvetica,sans-Serif" font-size="10.00">QuantConnect.Lean.Engine.</text>
<text text-anchor="start" x="255.5" y="-188" font-family="Helvetica,sans-Serif" font-size="10.00">DataFeeds.Enumerators.Dividend</text>
<text text-anchor="middle" x="337.5" y="-177" font-family="Helvetica,sans-Serif" font-size="10.00">EventProvider.InitializeFactorFile</text>
</a>
</g>
</g>
<!-- Node1&#45;&gt;Node4 -->
<g id="edge3" class="edge">
<title>Node1&#45;&gt;Node4</title>
<path fill="none" stroke="midnightblue" d="M457.68,-172.49C447.81,-173.98 437.66,-175.51 427.65,-177.03"/>
<polygon fill="midnightblue" stroke="midnightblue" points="458.49,-175.91 467.85,-170.95 457.44,-168.98 458.49,-175.91"/>
</g>
<!-- Node7 -->
<g id="node7" class="node">
<title>Node7</title>
<g id="a_node7"><a xlink:href="classQuantConnect_1_1Lean_1_1Engine_1_1DataFeeds_1_1Enumerators_1_1SplitEventProvider.html#aaae4fc6aca3810f9fe02f3ddd4bf1eff" target="_top" xlink:title="Initializes the factor file to use">
<polygon fill="white" stroke="black" points="244.5,-110 244.5,-151 430.5,-151 430.5,-110 244.5,-110"/>
<text text-anchor="start" x="252.5" y="-139" font-family="Helvetica,sans-Serif" font-size="10.00">QuantConnect.Lean.Engine.</text>
<text text-anchor="start" x="252.5" y="-128" font-family="Helvetica,sans-Serif" font-size="10.00">DataFeeds.Enumerators.SplitEvent</text>
<text text-anchor="middle" x="337.5" y="-117" font-family="Helvetica,sans-Serif" font-size="10.00">Provider.InitializeFactorFile</text>
</a>
</g>
</g>
<!-- Node1&#45;&gt;Node7 -->
<g id="edge6" class="edge">
<title>Node1&#45;&gt;Node7</title>
<path fill="none" stroke="midnightblue" d="M457.9,-148.55C448.99,-147.2 439.85,-145.82 430.79,-144.45"/>
<polygon fill="midnightblue" stroke="midnightblue" points="457.44,-152.02 467.85,-150.05 458.49,-145.09 457.44,-152.02"/>
</g>
<!-- Node10 -->
<g id="node10" class="node">
<title>Node10</title>
<g id="a_node10"><a xlink:href="classQuantConnect_1_1Data_1_1DividendYieldProvider.html#ab46eca6fdf052572f8497075b04185c6" target="_top" xlink:title="Generate the daily historical dividend yield">
<polygon fill="white" stroke="black" points="250.5,-23 250.5,-64 424.5,-64 424.5,-23 250.5,-23"/>
<text text-anchor="start" x="258.5" y="-52" font-family="Helvetica,sans-Serif" font-size="10.00">QuantConnect.Data.Dividend</text>
<text text-anchor="start" x="258.5" y="-41" font-family="Helvetica,sans-Serif" font-size="10.00">YieldProvider.LoadDividendYield</text>
<text text-anchor="middle" x="337.5" y="-30" font-family="Helvetica,sans-Serif" font-size="10.00">Provider</text>
</a>
</g>
</g>
<!-- Node1&#45;&gt;Node10 -->
<g id="edge9" class="edge">
<title>Node1&#45;&gt;Node10</title>
<path fill="none" stroke="midnightblue" d="M502.72,-140.29C466.5,-118.95 409.7,-85.46 373.29,-64.01"/>
<polygon fill="midnightblue" stroke="midnightblue" points="501.06,-143.38 511.46,-145.44 504.62,-137.35 501.06,-143.38"/>
</g>
<!-- Node3 -->
<g id="node3" class="node">
<title>Node3</title>
<g id="a_node3"><a xlink:href="classQuantConnect_1_1Lean_1_1Engine_1_1DataFeeds_1_1FileSystemDataFeed.html#ac148e78fc814fca88c70a1835be51a25" target="_top" xlink:title="Creates a new subscription to provide data for the specified security.">
<polygon fill="white" stroke="black" points="0,-290 0,-331 207,-331 207,-290 0,-290"/>
<text text-anchor="start" x="8" y="-319" font-family="Helvetica,sans-Serif" font-size="10.00">QuantConnect.Lean.Engine.</text>
<text text-anchor="start" x="8" y="-308" font-family="Helvetica,sans-Serif" font-size="10.00">DataFeeds.FileSystemDataFeed.Create</text>
<text text-anchor="middle" x="103.5" y="-297" font-family="Helvetica,sans-Serif" font-size="10.00">Subscription</text>
</a>
</g>
</g>
<!-- Node2&#45;&gt;Node3 -->
<g id="edge2" class="edge">
<title>Node2&#45;&gt;Node3</title>
<path fill="none" stroke="midnightblue" d="M232.87,-293.9C224.37,-295 215.77,-296.11 207.28,-297.21"/>
<polygon fill="midnightblue" stroke="midnightblue" points="233.34,-297.37 242.81,-292.62 232.44,-290.43 233.34,-297.37"/>
</g>
<!-- Node5 -->
<g id="node5" class="node">
<title>Node5</title>
<g id="a_node5"><a xlink:href="classQuantConnect_1_1Lean_1_1Engine_1_1DataFeeds_1_1Enumerators_1_1LiveDividendEventProvider.html#a5841f67d571faf4a369f46af22a78c8c" target="_top" xlink:title="Check for dividends and returns them">
<polygon fill="white" stroke="black" points="3.5,-230 3.5,-271 203.5,-271 203.5,-230 3.5,-230"/>
<text text-anchor="start" x="11.5" y="-259" font-family="Helvetica,sans-Serif" font-size="10.00">QuantConnect.Lean.Engine.</text>
<text text-anchor="start" x="11.5" y="-248" font-family="Helvetica,sans-Serif" font-size="10.00">DataFeeds.Enumerators.LiveDividend</text>
<text text-anchor="middle" x="103.5" y="-237" font-family="Helvetica,sans-Serif" font-size="10.00">EventProvider.GetEvents</text>
</a>
</g>
</g>
<!-- Node4&#45;&gt;Node5 -->
<g id="edge4" class="edge">
<title>Node4&#45;&gt;Node5</title>
<path fill="none" stroke="midnightblue" d="M247.18,-213.6C226.34,-218.99 204.29,-224.69 183.91,-229.96"/>
<polygon fill="midnightblue" stroke="midnightblue" points="248.18,-216.96 256.98,-211.06 246.43,-210.18 248.18,-216.96"/>
</g>
<!-- Node6 -->
<g id="node6" class="node">
<title>Node6</title>
<g id="a_node6"><a xlink:href="classQuantConnect_1_1Lean_1_1Engine_1_1DataFeeds_1_1Enumerators_1_1DividendEventProvider.html#a6aef039a181ace000e16bc1fa5c487d9" target="_top" xlink:title="Initializes this instance">
<polygon fill="white" stroke="black" points="13.5,-170 13.5,-211 193.5,-211 193.5,-170 13.5,-170"/>
<text text-anchor="start" x="21.5" y="-199" font-family="Helvetica,sans-Serif" font-size="10.00">QuantConnect.Lean.Engine.</text>
<text text-anchor="start" x="21.5" y="-188" font-family="Helvetica,sans-Serif" font-size="10.00">DataFeeds.Enumerators.Dividend</text>
<text text-anchor="middle" x="103.5" y="-177" font-family="Helvetica,sans-Serif" font-size="10.00">EventProvider.Initialize</text>
</a>
</g>
</g>
<!-- Node4&#45;&gt;Node6 -->
<g id="edge5" class="edge">
<title>Node4&#45;&gt;Node6</title>
<path fill="none" stroke="midnightblue" d="M237.47,-190.5C222.92,-190.5 208.01,-190.5 193.68,-190.5"/>
<polygon fill="midnightblue" stroke="midnightblue" points="237.47,-194 247.47,-190.5 237.47,-187 237.47,-194"/>
</g>
<!-- Node8 -->
<g id="node8" class="node">
<title>Node8</title>
<g id="a_node8"><a xlink:href="classQuantConnect_1_1Lean_1_1Engine_1_1DataFeeds_1_1Enumerators_1_1LiveSplitEventProvider.html#a4fea8416ece3268b8e5a991e66ae47bf" target="_top" xlink:title="Check for dividends and returns them">
<polygon fill="white" stroke="black" points="14,-110 14,-151 193,-151 193,-110 14,-110"/>
<text text-anchor="start" x="22" y="-139" font-family="Helvetica,sans-Serif" font-size="10.00">QuantConnect.Lean.Engine.</text>
<text text-anchor="start" x="22" y="-128" font-family="Helvetica,sans-Serif" font-size="10.00">DataFeeds.Enumerators.LiveSplit</text>
<text text-anchor="middle" x="103.5" y="-117" font-family="Helvetica,sans-Serif" font-size="10.00">EventProvider.GetEvents</text>
</a>
</g>
</g>
<!-- Node7&#45;&gt;Node8 -->
<g id="edge7" class="edge">
<title>Node7&#45;&gt;Node8</title>
<path fill="none" stroke="midnightblue" d="M234.47,-130.5C220.65,-130.5 206.57,-130.5 193.01,-130.5"/>
<polygon fill="midnightblue" stroke="midnightblue" points="234.47,-134 244.47,-130.5 234.47,-127 234.47,-134"/>
</g>
<!-- Node9 -->
<g id="node9" class="node">
<title>Node9</title>
<g id="a_node9"><a xlink:href="classQuantConnect_1_1Lean_1_1Engine_1_1DataFeeds_1_1Enumerators_1_1SplitEventProvider.html#abc76f36c6b39e05c7adef77b6432fa59" target="_top" xlink:title="Initializes this instance">
<polygon fill="white" stroke="black" points="10.5,-50 10.5,-91 196.5,-91 196.5,-50 10.5,-50"/>
<text text-anchor="start" x="18.5" y="-79" font-family="Helvetica,sans-Serif" font-size="10.00">QuantConnect.Lean.Engine.</text>
<text text-anchor="start" x="18.5" y="-68" font-family="Helvetica,sans-Serif" font-size="10.00">DataFeeds.Enumerators.SplitEvent</text>
<text text-anchor="middle" x="103.5" y="-57" font-family="Helvetica,sans-Serif" font-size="10.00">Provider.Initialize</text>
</a>
</g>
</g>
<!-- Node7&#45;&gt;Node9 -->
<g id="edge8" class="edge">
<title>Node7&#45;&gt;Node9</title>
<path fill="none" stroke="midnightblue" d="M247.18,-107.4C226.34,-102.01 204.29,-96.31 183.91,-91.04"/>
<polygon fill="midnightblue" stroke="midnightblue" points="246.43,-110.82 256.98,-109.94 248.18,-104.04 246.43,-110.82"/>
</g>
<!-- Node11 -->
<g id="node11" class="node">
<title>Node11</title>
<g id="a_node11"><a xlink:href="classQuantConnect_1_1Data_1_1DividendYieldProvider.html#abc7d7530d340e4c4763238bc5a63d72a" target="_top" xlink:title="Get dividend yield by a given date of a given symbol">
<polygon fill="white" stroke="black" points="19.5,-0.5 19.5,-30.5 187.5,-30.5 187.5,-0.5 19.5,-0.5"/>
<text text-anchor="start" x="27.5" y="-18.5" font-family="Helvetica,sans-Serif" font-size="10.00">QuantConnect.Data.Dividend</text>
<text text-anchor="middle" x="103.5" y="-7.5" font-family="Helvetica,sans-Serif" font-size="10.00">YieldProvider.GetDividendYield</text>
</a>
</g>
</g>
<!-- Node10&#45;&gt;Node11 -->
<g id="edge10" class="edge">
<title>Node10&#45;&gt;Node11</title>
<path fill="none" stroke="midnightblue" d="M240.25,-31.88C222.81,-29.78 204.75,-27.6 187.72,-25.54"/>
<polygon fill="midnightblue" stroke="midnightblue" points="240.09,-35.39 250.44,-33.11 240.93,-28.44 240.09,-35.39"/>
</g>
</g>
</svg>
