<?xml version="1.0" encoding="UTF-8" standalone="no"?>
<!DOCTYPE svg PUBLIC "-//W3C//DTD SVG 1.1//EN"
 "http://www.w3.org/Graphics/SVG/1.1/DTD/svg11.dtd">
<!-- Generated by graphviz version 2.43.0 (0)
 -->
<!-- Title: QuantConnect.Data.Consolidators.IDataConsolidator.Update Pages: 1 -->
<svg width="722pt" height="258pt"
 viewBox="0.00 0.00 722.00 257.50" xmlns="http://www.w3.org/2000/svg" xmlns:xlink="http://www.w3.org/1999/xlink">
<g id="graph0" class="graph" transform="scale(1 1) rotate(0) translate(4 253.5)">
<title>QuantConnect.Data.Consolidators.IDataConsolidator.Update</title>
<polygon fill="white" stroke="transparent" points="-4,4 -4,-253.5 718,-253.5 718,4 -4,4"/>
<!-- Node1 -->
<g id="node1" class="node">
<title>Node1</title>
<g id="a_node1"><a xlink:title="Updates this consolidator with the specified data">
<polygon fill="#bfbfbf" stroke="black" points="529,-98.5 529,-128.5 714,-128.5 714,-98.5 529,-98.5"/>
<text text-anchor="start" x="537" y="-116.5" font-family="Helvetica,sans-Serif" font-size="10.00">QuantConnect.Data.Consolidators.</text>
<text text-anchor="middle" x="621.5" y="-105.5" font-family="Helvetica,sans-Serif" font-size="10.00">IDataConsolidator.Update</text>
</a>
</g>
</g>
<!-- Node2 -->
<g id="node2" class="node">
<title>Node2</title>
<g id="a_node2"><a xlink:href="classQuantConnect_1_1ToolBox_1_1AlgoSeekOptionsConverter_1_1AlgoSeekOptionsProcessor.html#a723c1b651126fdab44cb5ad6cf2ca2df" target="_top" xlink:title="Process the tick; add to the con">
<polygon fill="white" stroke="black" points="264.5,-208 264.5,-249 476.5,-249 476.5,-208 264.5,-208"/>
<text text-anchor="start" x="272.5" y="-237" font-family="Helvetica,sans-Serif" font-size="10.00">QuantConnect.ToolBox.Algo</text>
<text text-anchor="start" x="272.5" y="-226" font-family="Helvetica,sans-Serif" font-size="10.00">SeekOptionsConverter.AlgoSeekOptions</text>
<text text-anchor="middle" x="370.5" y="-215" font-family="Helvetica,sans-Serif" font-size="10.00">Processor.Process</text>
</a>
</g>
</g>
<!-- Node1&#45;&gt;Node2 -->
<g id="edge1" class="edge">
<title>Node1&#45;&gt;Node2</title>
<path fill="none" stroke="midnightblue" d="M594.12,-135.08C569.39,-154.31 530.67,-181.9 493,-198.5 485.05,-202 476.61,-205.15 468.04,-207.95"/>
<polygon fill="midnightblue" stroke="midnightblue" points="596.58,-137.6 602.26,-128.66 592.25,-132.1 596.58,-137.6"/>
</g>
<!-- Node4 -->
<g id="node4" class="node">
<title>Node4</title>
<g id="a_node4"><a xlink:href="classQuantConnect_1_1ToolBox_1_1AlgoSeekFuturesConverter_1_1AlgoSeekFuturesProcessor.html#a0febf12b8533c9644f597bdd879e6ecc" target="_top" xlink:title="Process the tick; add to the con">
<polygon fill="white" stroke="black" points="266,-148 266,-189 475,-189 475,-148 266,-148"/>
<text text-anchor="start" x="274" y="-177" font-family="Helvetica,sans-Serif" font-size="10.00">QuantConnect.ToolBox.Algo</text>
<text text-anchor="start" x="274" y="-166" font-family="Helvetica,sans-Serif" font-size="10.00">SeekFuturesConverter.AlgoSeekFutures</text>
<text text-anchor="middle" x="370.5" y="-155" font-family="Helvetica,sans-Serif" font-size="10.00">Processor.Process</text>
</a>
</g>
</g>
<!-- Node1&#45;&gt;Node4 -->
<g id="edge3" class="edge">
<title>Node1&#45;&gt;Node4</title>
<path fill="none" stroke="midnightblue" d="M542.44,-130.74C517.77,-136.19 490.27,-142.27 464.66,-147.92"/>
<polygon fill="midnightblue" stroke="midnightblue" points="543.45,-134.1 552.46,-128.53 541.94,-127.27 543.45,-134.1"/>
</g>
<!-- Node5 -->
<g id="node5" class="node">
<title>Node5</title>
<g id="a_node5"><a xlink:href="classQuantConnect_1_1Data_1_1Consolidators_1_1SequentialConsolidator.html#aad1044676f058aea343ef20d90f2b159" target="_top" xlink:title="Creates a new consolidator that will pump date through the first, and then the output of the first in...">
<polygon fill="white" stroke="black" points="248,-98.5 248,-128.5 493,-128.5 493,-98.5 248,-98.5"/>
<text text-anchor="start" x="256" y="-116.5" font-family="Helvetica,sans-Serif" font-size="10.00">QuantConnect.Data.Consolidators.</text>
<text text-anchor="middle" x="370.5" y="-105.5" font-family="Helvetica,sans-Serif" font-size="10.00">SequentialConsolidator.SequentialConsolidator</text>
</a>
</g>
</g>
<!-- Node1&#45;&gt;Node5 -->
<g id="edge4" class="edge">
<title>Node1&#45;&gt;Node5</title>
<path fill="none" stroke="midnightblue" d="M518.65,-113.5C510.22,-113.5 501.66,-113.5 493.11,-113.5"/>
<polygon fill="midnightblue" stroke="midnightblue" points="518.84,-117 528.84,-113.5 518.84,-110 518.84,-117"/>
</g>
<!-- Node6 -->
<g id="node6" class="node">
<title>Node6</title>
<g id="a_node6"><a xlink:href="classQuantConnect_1_1ToolBox_1_1TickAggregator.html#a5c1c3756a78e6b125f83b1a95e46291d" target="_top" xlink:title="Updates the consolidator with the specified bar.">
<polygon fill="white" stroke="black" points="295.5,-49.5 295.5,-79.5 445.5,-79.5 445.5,-49.5 295.5,-49.5"/>
<text text-anchor="start" x="303.5" y="-67.5" font-family="Helvetica,sans-Serif" font-size="10.00">QuantConnect.ToolBox.Tick</text>
<text text-anchor="middle" x="370.5" y="-56.5" font-family="Helvetica,sans-Serif" font-size="10.00">Aggregator.Update</text>
</a>
</g>
</g>
<!-- Node1&#45;&gt;Node6 -->
<g id="edge5" class="edge">
<title>Node1&#45;&gt;Node6</title>
<path fill="none" stroke="midnightblue" d="M534.05,-96.49C505.23,-90.82 473.41,-84.55 445.62,-79.09"/>
<polygon fill="midnightblue" stroke="midnightblue" points="533.61,-99.97 544.1,-98.47 534.96,-93.1 533.61,-99.97"/>
</g>
<!-- Node7 -->
<g id="node7" class="node">
<title>Node7</title>
<g id="a_node7"><a xlink:href="classQuantConnect_1_1Data_1_1Consolidators_1_1SequentialConsolidator.html#a1b2999c893aa7d70b37a69eac64835e7" target="_top" xlink:title="Updates this consolidator with the specified data">
<polygon fill="white" stroke="black" points="278,-0.5 278,-30.5 463,-30.5 463,-0.5 278,-0.5"/>
<text text-anchor="start" x="286" y="-18.5" font-family="Helvetica,sans-Serif" font-size="10.00">QuantConnect.Data.Consolidators.</text>
<text text-anchor="middle" x="370.5" y="-7.5" font-family="Helvetica,sans-Serif" font-size="10.00">SequentialConsolidator.Update</text>
</a>
</g>
</g>
<!-- Node1&#45;&gt;Node7 -->
<g id="edge6" class="edge">
<title>Node1&#45;&gt;Node7</title>
<path fill="none" stroke="midnightblue" d="M590.34,-92.56C565.33,-76.12 528.27,-53.84 493,-40.5 482.83,-36.65 471.94,-33.35 461.02,-30.53"/>
<polygon fill="midnightblue" stroke="midnightblue" points="588.73,-95.69 598.99,-98.33 592.61,-89.87 588.73,-95.69"/>
</g>
<!-- Node3 -->
<g id="node3" class="node">
<title>Node3</title>
<g id="a_node3"><a xlink:href="classQuantConnect_1_1ToolBox_1_1AlgoSeekOptionsConverter_1_1AlgoSeekOptionsConverter.html#a864f504f61986bb169dd34eb22339a91" target="_top" xlink:title="Give the reference date and source directory, convert the algoseek options data into n&#45;resolutions LE...">
<polygon fill="white" stroke="black" points="0,-208 0,-249 212,-249 212,-208 0,-208"/>
<text text-anchor="start" x="8" y="-237" font-family="Helvetica,sans-Serif" font-size="10.00">QuantConnect.ToolBox.Algo</text>
<text text-anchor="start" x="8" y="-226" font-family="Helvetica,sans-Serif" font-size="10.00">SeekOptionsConverter.AlgoSeekOptions</text>
<text text-anchor="middle" x="106" y="-215" font-family="Helvetica,sans-Serif" font-size="10.00">Converter.Convert</text>
</a>
</g>
</g>
<!-- Node2&#45;&gt;Node3 -->
<g id="edge2" class="edge">
<title>Node2&#45;&gt;Node3</title>
<path fill="none" stroke="midnightblue" d="M254.15,-228.5C240.22,-228.5 226.05,-228.5 212.28,-228.5"/>
<polygon fill="midnightblue" stroke="midnightblue" points="254.24,-232 264.24,-228.5 254.24,-225 254.24,-232"/>
</g>
</g>
</svg>
