<?xml version="1.0" encoding="UTF-8" standalone="no"?>
<!DOCTYPE svg PUBLIC "-//W3C//DTD SVG 1.1//EN"
 "http://www.w3.org/Graphics/SVG/1.1/DTD/svg11.dtd">
<!-- Generated by graphviz version 2.43.0 (0)
 -->
<!-- Title: QuantConnect.Algorithm.Framework.Alphas.IInsightScoreFunction.Score Pages: 1 -->
<svg width="679pt" height="39pt"
 viewBox="0.00 0.00 679.00 39.00" xmlns="http://www.w3.org/2000/svg" xmlns:xlink="http://www.w3.org/1999/xlink">
<g id="graph0" class="graph" transform="scale(1 1) rotate(0) translate(4 35)">
<title>QuantConnect.Algorithm.Framework.Alphas.IInsightScoreFunction.Score</title>
<polygon fill="white" stroke="transparent" points="-4,4 -4,-35 675,-35 675,4 -4,4"/>
<!-- Node1 -->
<g id="node1" class="node">
<title>Node1</title>
<g id="a_node1"><a xlink:title="Method to evaluate and score insights for each time step">
<polygon fill="#bfbfbf" stroke="black" points="474,-0.5 474,-30.5 671,-30.5 671,-0.5 474,-0.5"/>
<text text-anchor="start" x="482" y="-18.5" font-family="Helvetica,sans-Serif" font-size="10.00">QuantConnect.Algorithm.Framework.</text>
<text text-anchor="middle" x="572.5" y="-7.5" font-family="Helvetica,sans-Serif" font-size="10.00">Alphas.IInsightScoreFunction.Score</text>
</a>
</g>
</g>
<!-- Node2 -->
<g id="node2" class="node">
<title>Node2</title>
<g id="a_node2"><a xlink:href="classQuantConnect_1_1Algorithm_1_1Framework_1_1Alphas_1_1Analysis_1_1InsightManager.html#a6ff4a79660aa2e57022c9e060ef06f7a" target="_top" xlink:title="Process a new time step handling insights scoring">
<polygon fill="white" stroke="black" points="241,-0.5 241,-30.5 438,-30.5 438,-0.5 241,-0.5"/>
<text text-anchor="start" x="249" y="-18.5" font-family="Helvetica,sans-Serif" font-size="10.00">QuantConnect.Algorithm.Framework.</text>
<text text-anchor="middle" x="339.5" y="-7.5" font-family="Helvetica,sans-Serif" font-size="10.00">Alphas.Analysis.InsightManager.Step</text>
</a>
</g>
</g>
<!-- Node1&#45;&gt;Node2 -->
<g id="edge1" class="edge">
<title>Node1&#45;&gt;Node2</title>
<path fill="none" stroke="midnightblue" d="M463.85,-15.5C455.28,-15.5 446.65,-15.5 438.15,-15.5"/>
<polygon fill="midnightblue" stroke="midnightblue" points="463.87,-19 473.87,-15.5 463.87,-12 463.87,-19"/>
</g>
<!-- Node3 -->
<g id="node3" class="node">
<title>Node3</title>
<g id="a_node3"><a xlink:href="classQuantConnect_1_1Algorithm_1_1QCAlgorithm.html#a2522d3da5e22e9da677d3be34717f70a" target="_top" xlink:title="Used to send data updates to algorithm framework models">
<polygon fill="white" stroke="black" points="0,-0.5 0,-30.5 205,-30.5 205,-0.5 0,-0.5"/>
<text text-anchor="start" x="8" y="-18.5" font-family="Helvetica,sans-Serif" font-size="10.00">QuantConnect.Algorithm.QCAlgorithm.</text>
<text text-anchor="middle" x="102.5" y="-7.5" font-family="Helvetica,sans-Serif" font-size="10.00">OnFrameworkData</text>
</a>
</g>
</g>
<!-- Node2&#45;&gt;Node3 -->
<g id="edge2" class="edge">
<title>Node2&#45;&gt;Node3</title>
<path fill="none" stroke="midnightblue" d="M230.65,-15.5C222.23,-15.5 213.75,-15.5 205.37,-15.5"/>
<polygon fill="midnightblue" stroke="midnightblue" points="230.88,-19 240.88,-15.5 230.88,-12 230.88,-19"/>
</g>
</g>
</svg>
