<?xml version="1.0" encoding="UTF-8" standalone="no"?>
<!DOCTYPE svg PUBLIC "-//W3C//DTD SVG 1.1//EN"
 "http://www.w3.org/Graphics/SVG/1.1/DTD/svg11.dtd">
<!-- Generated by graphviz version 2.43.0 (0)
 -->
<!-- Title: QuantConnect.Securities.Option.StrategyMatcher.OptionPosition.operator&#45; Pages: 1 -->
<svg width="581pt" height="135pt"
 viewBox="0.00 0.00 581.00 135.00" xmlns="http://www.w3.org/2000/svg" xmlns:xlink="http://www.w3.org/1999/xlink">
<g id="graph0" class="graph" transform="scale(1 1) rotate(0) translate(4 131)">
<title>QuantConnect.Securities.Option.StrategyMatcher.OptionPosition.operator&#45;</title>
<polygon fill="white" stroke="transparent" points="-4,4 -4,-131 577,-131 577,4 -4,4"/>
<!-- Node1 -->
<g id="node1" class="node">
<title>Node1</title>
<g id="a_node1"><a xlink:title="OptionPosition &#45; Operator, will subtract left &#45; right quantities if they are for the same symbol.">
<polygon fill="#bfbfbf" stroke="black" points="0,-25.5 0,-66.5 167,-66.5 167,-25.5 0,-25.5"/>
<text text-anchor="start" x="8" y="-54.5" font-family="Helvetica,sans-Serif" font-size="10.00">QuantConnect.Securities.</text>
<text text-anchor="start" x="8" y="-43.5" font-family="Helvetica,sans-Serif" font-size="10.00">Option.StrategyMatcher.Option</text>
<text text-anchor="middle" x="83.5" y="-32.5" font-family="Helvetica,sans-Serif" font-size="10.00">Position.operator&#45;</text>
</a>
</g>
</g>
<!-- Node2 -->
<g id="node2" class="node">
<title>Node2</title>
<g id="a_node2"><a xlink:href="structQuantConnect_1_1Securities_1_1Option_1_1StrategyMatcher_1_1OptionPosition.html#aa548260191f32555c5e36abe671b59e9" target="_top" xlink:title="Indicates whether the current object is equal to another object of the same type.">
<polygon fill="white" stroke="black" points="203,-85.5 203,-126.5 370,-126.5 370,-85.5 203,-85.5"/>
<text text-anchor="start" x="211" y="-114.5" font-family="Helvetica,sans-Serif" font-size="10.00">QuantConnect.Securities.</text>
<text text-anchor="start" x="211" y="-103.5" font-family="Helvetica,sans-Serif" font-size="10.00">Option.StrategyMatcher.Option</text>
<text text-anchor="middle" x="286.5" y="-92.5" font-family="Helvetica,sans-Serif" font-size="10.00">Position.Equals</text>
</a>
</g>
</g>
<!-- Node1&#45;&gt;Node2 -->
<g id="edge1" class="edge">
<title>Node1&#45;&gt;Node2</title>
<path fill="none" stroke="midnightblue" d="M153.39,-66.56C170.65,-71.72 189.3,-77.28 206.98,-82.56"/>
<polygon fill="midnightblue" stroke="midnightblue" points="206.12,-85.96 216.7,-85.46 208.12,-79.25 206.12,-85.96"/>
</g>
<!-- Node3 -->
<g id="node3" class="node">
<title>Node3</title>
<g id="a_node3"><a xlink:href="structQuantConnect_1_1Securities_1_1Option_1_1StrategyMatcher_1_1OptionPosition.html#ad51fe2a0a6720a620321665eae64cfe8" target="_top" xlink:title="Creates a new OptionPosition instance with negative Quantity">
<polygon fill="white" stroke="black" points="203,-25.5 203,-66.5 370,-66.5 370,-25.5 203,-25.5"/>
<text text-anchor="start" x="211" y="-54.5" font-family="Helvetica,sans-Serif" font-size="10.00">QuantConnect.Securities.</text>
<text text-anchor="start" x="211" y="-43.5" font-family="Helvetica,sans-Serif" font-size="10.00">Option.StrategyMatcher.Option</text>
<text text-anchor="middle" x="286.5" y="-32.5" font-family="Helvetica,sans-Serif" font-size="10.00">Position.Negate</text>
</a>
</g>
</g>
<!-- Node1&#45;&gt;Node3 -->
<g id="edge2" class="edge">
<title>Node1&#45;&gt;Node3</title>
<path fill="none" stroke="midnightblue" d="M167.12,-46C175.61,-46 184.27,-46 192.85,-46"/>
<polygon fill="midnightblue" stroke="midnightblue" points="192.87,-49.5 202.87,-46 192.87,-42.5 192.87,-49.5"/>
</g>
<!-- Node4 -->
<g id="node4" class="node">
<title>Node4</title>
<g id="a_node4"><a xlink:href="structQuantConnect_1_1Securities_1_1Option_1_1StrategyMatcher_1_1OptionPosition.html#a9176892195863bf2182eabb3d9941262" target="_top" xlink:title="Initializes a new instance of the OptionPosition structure">
<polygon fill="white" stroke="black" points="406,-0.5 406,-41.5 573,-41.5 573,-0.5 406,-0.5"/>
<text text-anchor="start" x="414" y="-29.5" font-family="Helvetica,sans-Serif" font-size="10.00">QuantConnect.Securities.</text>
<text text-anchor="start" x="414" y="-18.5" font-family="Helvetica,sans-Serif" font-size="10.00">Option.StrategyMatcher.Option</text>
<text text-anchor="middle" x="489.5" y="-7.5" font-family="Helvetica,sans-Serif" font-size="10.00">Position.OptionPosition</text>
</a>
</g>
</g>
<!-- Node1&#45;&gt;Node4 -->
<g id="edge4" class="edge">
<title>Node1&#45;&gt;Node4</title>
<path fill="none" stroke="midnightblue" d="M153.5,-25.47C169.6,-21.54 186.78,-18.02 203,-16 266.91,-8.04 339.48,-9.44 395.46,-12.76"/>
<polygon fill="midnightblue" stroke="midnightblue" points="395.52,-16.27 405.71,-13.4 395.95,-9.28 395.52,-16.27"/>
</g>
<!-- Node3&#45;&gt;Node4 -->
<g id="edge3" class="edge">
<title>Node3&#45;&gt;Node4</title>
<path fill="none" stroke="midnightblue" d="M370.12,-35.72C378.61,-34.67 387.27,-33.59 395.85,-32.52"/>
<polygon fill="midnightblue" stroke="midnightblue" points="396.38,-35.98 405.87,-31.28 395.52,-29.04 396.38,-35.98"/>
</g>
</g>
</svg>
